<?xml version="1.0" encoding="UTF-8" standalone="no"?>
<!-- Created with Inkscape (http://www.inkscape.org/) -->

<svg
   xmlns:dc="http://purl.org/dc/elements/1.1/"
   xmlns:cc="http://creativecommons.org/ns#"
   xmlns:rdf="http://www.w3.org/1999/02/22-rdf-syntax-ns#"
   xmlns:svg="http://www.w3.org/2000/svg"
   xmlns="http://www.w3.org/2000/svg"
   xmlns:sodipodi="http://sodipodi.sourceforge.net/DTD/sodipodi-0.dtd"
   xmlns:inkscape="http://www.inkscape.org/namespaces/inkscape"
   width="145.76274mm"
   height="166.44127mm"
   viewBox="0 0 145.76274 166.44127"
   version="1.1"
   id="svg8"
   inkscape:version="0.92.1 r15371"
   sodipodi:docname="biaxinands.svg">
  <defs
     id="defs2">
    <marker
       inkscape:stockid="Arrow1Lend"
       orient="auto"
       refY="0"
       refX="0"
       id="marker4862"
       style="overflow:visible"
       inkscape:isstock="true">
      <path
         inkscape:connector-curvature="0"
         id="path4860"
         d="M 0,0 5,-5 -12.5,0 5,5 Z"
         style="fill:#000000;fill-opacity:1;fill-rule:evenodd;stroke:#000000;stroke-width:1.00000003pt;stroke-opacity:1"
         transform="matrix(-0.8,0,0,-0.8,-10,0)" />
    </marker>
    <marker
       inkscape:isstock="true"
       style="overflow:visible"
       id="marker5703"
       refX="0"
       refY="0"
       orient="auto"
       inkscape:stockid="Arrow1Lend"
       inkscape:collect="always">
      <path
         transform="matrix(-0.8,0,0,-0.8,-10,0)"
         style="fill:#000000;fill-opacity:1;fill-rule:evenodd;stroke:#000000;stroke-width:1.00000003pt;stroke-opacity:1"
         d="M 0,0 5,-5 -12.5,0 5,5 Z"
         id="path5701"
         inkscape:connector-curvature="0" />
    </marker>
    <marker
       inkscape:stockid="Arrow1Lend"
       orient="auto"
       refY="0"
       refX="0"
       id="marker5661"
       style="overflow:visible"
       inkscape:isstock="true"
       inkscape:collect="always">
      <path
         id="path5659"
         d="M 0,0 5,-5 -12.5,0 5,5 Z"
         style="fill:#000000;fill-opacity:1;fill-rule:evenodd;stroke:#000000;stroke-width:1.00000003pt;stroke-opacity:1"
         transform="matrix(-0.8,0,0,-0.8,-10,0)"
         inkscape:connector-curvature="0" />
    </marker>
    <marker
       inkscape:isstock="true"
       style="overflow:visible"
       id="marker4857"
       refX="0"
       refY="0"
       orient="auto"
       inkscape:stockid="Arrow1Lend"
       inkscape:collect="always">
      <path
         transform="matrix(-0.8,0,0,-0.8,-10,0)"
         style="fill:#000000;fill-opacity:1;fill-rule:evenodd;stroke:#000000;stroke-width:1.00000003pt;stroke-opacity:1"
         d="M 0,0 5,-5 -12.5,0 5,5 Z"
         id="path4855"
         inkscape:connector-curvature="0" />
    </marker>
    <marker
       inkscape:stockid="Arrow1Lend"
       orient="auto"
       refY="0"
       refX="0"
       id="Arrow1Lend"
       style="overflow:visible"
       inkscape:isstock="true"
       inkscape:collect="always">
      <path
         id="path4490"
         d="M 0,0 5,-5 -12.5,0 5,5 Z"
         style="fill:#000000;fill-opacity:1;fill-rule:evenodd;stroke:#000000;stroke-width:1.00000003pt;stroke-opacity:1"
         transform="matrix(-0.8,0,0,-0.8,-10,0)"
         inkscape:connector-curvature="0" />
    </marker>
  </defs>
  <sodipodi:namedview
     id="base"
     pagecolor="#ffffff"
     bordercolor="#666666"
     borderopacity="1.0"
     inkscape:pageopacity="0.0"
     inkscape:pageshadow="2"
     inkscape:zoom="0.9899495"
     inkscape:cx="254.22861"
     inkscape:cy="347.59665"
     inkscape:document-units="mm"
     inkscape:current-layer="layer1"
     showgrid="false"
     inkscape:window-width="1920"
     inkscape:window-height="1027"
     inkscape:window-x="-8"
     inkscape:window-y="-8"
     inkscape:window-maximized="1"
     showguides="false"
     inkscape:snap-global="true"
     fit-margin-left="1"
     fit-margin-bottom="1"
     fit-margin-right="1"
     fit-margin-top="1" />
  <metadata
     id="metadata5">
    <rdf:RDF>
      <cc:Work
         rdf:about="">
        <dc:format>image/svg+xml</dc:format>
        <dc:type
           rdf:resource="http://purl.org/dc/dcmitype/StillImage" />
        <dc:title></dc:title>
      </cc:Work>
    </rdf:RDF>
  </metadata>
  <g
     inkscape:label="レイヤー 1"
     inkscape:groupmode="layer"
     id="layer1"
     transform="translate(-3.5178989,-7.5500146)">
    <path
       style="fill:none;stroke:#000000;stroke-width:0.35277781;stroke-linecap:butt;stroke-linejoin:miter;stroke-miterlimit:4;stroke-dasharray:none;stroke-opacity:1;marker-end:url(#Arrow1Lend)"
       d="M 19.263752,163.91092 H 137.45323"
       id="path4485"
       inkscape:connector-curvature="0" />
    <path
       inkscape:connector-curvature="0"
       id="path4853"
       d="M 19.26375,163.91092 V 26.880112"
       style="fill:none;stroke:#000000;stroke-width:0.35277778;stroke-linecap:butt;stroke-linejoin:miter;stroke-miterlimit:4;stroke-dasharray:none;stroke-opacity:1;marker-end:url(#marker4857)" />
    <path
       style="opacity:1;fill:none;fill-opacity:1;stroke:#000000;stroke-width:0.35277778;stroke-miterlimit:4;stroke-dasharray:none;stroke-dashoffset:0;stroke-opacity:1"
       id="path5075"
       sodipodi:type="arc"
       sodipodi:cx="19.282507"
       sodipodi:cy="163.9109"
       sodipodi:rx="41.482246"
       sodipodi:ry="41.482246"
       sodipodi:start="4.7130179"
       sodipodi:end="0"
       d="M 19.308596,122.42867 A 41.482246,41.482246 0 0 1 60.764753,163.9109"
       sodipodi:open="true" />
    <path
       sodipodi:open="true"
       d="M 19.289021,128.7565 A 57.5285,35.154408 0 0 1 76.78134,163.9109"
       sodipodi:end="0"
       sodipodi:start="4.7130179"
       sodipodi:ry="35.154408"
       sodipodi:rx="57.5285"
       sodipodi:cy="163.9109"
       sodipodi:cx="19.25284"
       sodipodi:type="arc"
       id="path5077"
       style="opacity:1;fill:none;fill-opacity:1;stroke:#000000;stroke-width:0.35277778;stroke-miterlimit:4;stroke-dasharray:none;stroke-dashoffset:0;stroke-opacity:1" />
    <path
       sodipodi:open="true"
       d="M 19.268822,61.06207 A 102.87945,102.90156 0 0 1 122.08357,163.96361"
       sodipodi:end="0"
       sodipodi:start="4.7130179"
       sodipodi:ry="102.90156"
       sodipodi:rx="102.87945"
       sodipodi:cy="163.96361"
       sodipodi:cx="19.204119"
       sodipodi:type="arc"
       id="path5079"
       style="opacity:1;fill:none;fill-opacity:1;stroke:#000000;stroke-width:0.35277778;stroke-miterlimit:4;stroke-dasharray:none;stroke-dashoffset:0;stroke-opacity:1" />
    <path
       style="opacity:1;fill:none;fill-opacity:1;stroke:#000000;stroke-width:0.35277778;stroke-miterlimit:4;stroke-dasharray:none;stroke-dashoffset:0;stroke-opacity:1"
       id="path5081"
       sodipodi:type="arc"
       sodipodi:cx="-163.72404"
       sodipodi:cy="-19.37973"
       sodipodi:rx="122.50555"
       sodipodi:ry="73.21743"
       sodipodi:start="4.7130179"
       sodipodi:end="0"
       d="M -163.647,-92.597146 A 122.50555,73.21743 0 0 1 -41.218498,-19.37973"
       sodipodi:open="true"
       transform="matrix(0,-1,-1,0,0,0)" />
    <path
       style="fill:none;stroke:#000000;stroke-width:0.26458332;stroke-linecap:butt;stroke-linejoin:miter;stroke-miterlimit:4;stroke-dasharray:1.05833327, 1.05833327;stroke-dashoffset:0;stroke-opacity:1"
       d="M 19.236944,163.86869 88.232472,87.563878"
       id="path5245"
       inkscape:connector-curvature="0" />
    <path
       style="fill:none;stroke:#000000;stroke-width:0.26458332;stroke-linecap:butt;stroke-linejoin:miter;stroke-miterlimit:4;stroke-dasharray:1.05833329, 1.05833329;stroke-dashoffset:0;stroke-opacity:1"
       d="m 55.215645,56.709754 33.015779,30.7585"
       id="path5307"
       inkscape:connector-curvature="0" />
    <path
       style="fill:none;stroke:#000000;stroke-width:0.26458332;stroke-linecap:butt;stroke-linejoin:miter;stroke-miterlimit:4;stroke-dasharray:1.05833327, 1.05833327;stroke-dashoffset:0;stroke-opacity:1"
       d="M 55.215643,56.709757 19.26375,163.91093"
       id="path5381"
       inkscape:connector-curvature="0" />
    <path
       style="fill:none;stroke:#000000;stroke-width:0.17638889;stroke-linecap:butt;stroke-linejoin:miter;stroke-miterlimit:4;stroke-dasharray:none;stroke-opacity:1"
       d="M 68.980654,73.923176 19.263751,163.91092"
       id="path5383"
       inkscape:connector-curvature="0" />
    <path
       style="fill:none;stroke:#000000;stroke-width:0.26458332;stroke-linecap:butt;stroke-linejoin:miter;stroke-miterlimit:4;stroke-dasharray:1.05833327, 1.05833327;stroke-dashoffset:0;stroke-opacity:1"
       d="M 39.38244,127.45364 58.53027,138.233"
       id="path5385"
       inkscape:connector-curvature="0" />
    <path
       style="fill:none;stroke:#000000;stroke-width:0.26458332;stroke-linecap:butt;stroke-linejoin:miter;stroke-miterlimit:4;stroke-dasharray:1.05833327, 1.05833327;stroke-dashoffset:0;stroke-opacity:1"
       d="M 58.53027,138.233 19.237348,163.86908"
       id="path5387"
       inkscape:connector-curvature="0" />
    <path
       inkscape:connector-curvature="0"
       id="path5569"
       style="fill:#000000;fill-opacity:1;fill-rule:nonzero;stroke:none;stroke-width:0.00126898"
       d="m 18.735383,168.55527 c 0,-2.50656 -1.855476,-4.49719 -4.091835,-4.49719 -2.199564,0 -4.079556,1.9658 -4.079556,4.49719 0,2.51897 1.892319,4.43601 4.079556,4.43601 2.236359,0 4.091835,-1.95383 4.091835,-4.43601 z m -4.079601,4.11643 c -1.179587,0 -2.826183,-1.08108 -2.826183,-4.28841 0,-3.18251 1.794043,-4.01804 2.813949,-4.01804 1.069024,0 2.826143,0.87231 2.826143,4.01804 0,3.25609 -1.683407,4.28841 -2.813909,4.28841" />
    <path
       inkscape:connector-curvature="0"
       id="path5571"
       style="fill:#000000;fill-opacity:1;fill-rule:nonzero;stroke:none;stroke-width:0.00126898"
       d="m 144.69261,163.35499 c -1.33937,0.88472 -1.60968,2.03982 -1.60968,2.48218 0,0.58952 0.33174,0.93393 0.35632,0.97072 0.39318,0.40557 0.50378,0.45477 1.42539,0.79873 l 1.48682,0.57755 c 0.18429,0.086 0.43008,0.17198 0.43008,0.52835 0,0.28279 -0.2212,0.65113 -0.60212,0.65113 -0.54062,0 -0.94612,-0.29476 -1.08131,-0.39316 -0.0738,-0.0492 -0.086,-0.0616 -0.1352,-0.0616 -0.0983,0 -0.12285,0.0864 -0.12285,0.13519 0,0.1476 0.65122,0.58996 1.33936,0.58996 0.76183,0 1.27793,-0.71274 1.27793,-1.31467 0,-0.58996 -0.45467,-0.81114 -0.58979,-0.87275 -0.17203,-0.0612 -0.58979,-0.22074 -0.74957,-0.28235 -0.24572,-0.0984 -0.49152,-0.1968 -0.74957,-0.28279 l -0.73724,-0.29476 c -0.55296,-0.22118 -0.92161,-0.57755 -0.92161,-1.09349 0,-0.50398 0.47926,-1.57309 1.5114,-2.08903 0.45467,0.15957 0.82326,0.15957 1.08131,0.15957 0.36866,0 1.14284,0 1.14284,-0.38075 0,-0.30717 -0.52845,-0.33199 -1.00765,-0.33199 -0.2212,0 -0.57753,0 -1.03214,0.1476 -0.31948,-0.31958 -0.36865,-0.72515 -0.36865,-0.9583 0,-0.68836 0.44234,-1.63425 1.36395,-2.08902 0.22114,0.27038 0.50378,0.27038 0.78642,0.27038 0.30713,0 1.09359,0 1.09359,-0.38119 0,-0.31914 -0.54063,-0.33155 -1.0199,-0.33155 -0.15971,0 -0.45461,0 -0.77409,0.0616 -0.0369,-0.11081 -0.0614,-0.1968 -0.0614,-0.40557 0,-0.17198 0.0614,-0.4304 0.0614,-0.45477 0,-0.0984 -0.0614,-0.15957 -0.14745,-0.15957 -0.22121,0 -0.22121,0.56514 -0.22121,0.60193 0,0.24556 0.0738,0.42995 0.086,0.47915 -1.31478,0.36878 -2.15037,1.3519 -2.15037,2.29779 0,0.45477 0.22121,0.97071 0.79875,1.3027 z m 1.99059,-3.5145 c 0.19662,-0.0612 0.45467,-0.0612 0.58987,-0.0612 0.41774,0 0.46694,0.012 0.68807,0.0736 -0.0983,0.0368 -0.22113,0.0984 -0.76184,0.0984 -0.23346,0 -0.38091,0 -0.5161,-0.11081 z m -0.95838,3.35493 c 0.28257,-0.074 0.55295,-0.074 0.7004,-0.074 0.43001,0 0.47919,0.0124 0.70039,0.074 -0.0983,0.0488 -0.2212,0.098 -0.78641,0.098 -0.28264,0 -0.39324,0 -0.61438,-0.098" />
    <path
       inkscape:connector-curvature="0"
       id="path5573"
       style="fill:#000000;fill-opacity:1;fill-rule:nonzero;stroke:none;stroke-width:0.00126898"
       d="m 20.072648,9.9998756 c 0.22114,0.2211814 0.50378,0.2211814 0.74956,0.2211814 0.30717,0 1.09358,0 1.09358,-0.3811934 0,-0.30717 -0.49151,-0.331549 -0.98303,-0.331549 -0.1351,0 -0.46694,0 -0.78642,0.12278 -0.0614,-0.147158 -0.086,-0.208769 -0.086,-0.466739 0,-0.17198 0.0615,-0.430393 0.0615,-0.454772 0,-0.0984 -0.0615,-0.159569 -0.14752,-0.159569 -0.22114,0 -0.22114,0.56514 -0.22114,0.60193 0,0.208769 0.0369,0.429949 0.13519,0.61434 -1.29026,0.6511304 -3.23175,2.9121334 -3.23175,5.2959154 0,1.732653 1.11823,2.101434 2.00292,2.396194 0.36866,0.13519 0.39324,0.13519 0.74957,0.257969 0.25806,0.08599 0.76183,0.258413 0.76183,0.835521 0,0.331992 -0.23346,0.811142 -0.68807,0.811142 -0.31948,0 -0.65129,-0.147601 -0.90935,-0.368338 -0.086,-0.07402 -0.0983,-0.08643 -0.14744,-0.08643 -0.0614,0 -0.12287,0.0492 -0.12287,0.13519 0,0.123223 0.52837,0.589962 1.17966,0.589962 0.76183,0 1.33936,-0.78632 1.33936,-1.486651 0,-0.467182 -0.23345,-0.725152 -0.3318,-0.823553 -0.20888,-0.233148 -0.44235,-0.30717 -1.16733,-0.552729 -0.98304,-0.331992 -1.17959,-0.39316 -1.47456,-0.65113 -0.51604,-0.467182 -0.51604,-1.167512 -0.51604,-1.401103 0,-1.904633 1.49908,-4.054824 2.74017,-4.7183654 z m 0.28264,-0.13519 c 0.1843,-0.08599 0.40544,-0.08599 0.56519,-0.08599 0.40553,0 0.45468,0.01197 0.67582,0.07358 -0.0983,0.03679 -0.22114,0.0984 -0.76181,0.0984 -0.25806,0 -0.34408,0 -0.4792,-0.08599" />
    <path
       inkscape:connector-curvature="0"
       id="path5575"
       style="fill:#000000;fill-opacity:1;fill-rule:nonzero;stroke:none;stroke-width:0.00126898"
       d="m 12.580765,129.30365 c 0,-0.92151 -0.675819,-1.68345 -1.671174,-1.68345 -0.712653,0 -1.0567281,0.1968 -1.4868151,0.51594 -0.6758137,0.49156 -1.3516277,1.68345 -1.5850947,2.61737 l -1.953749,7.80292 c -0.01233,0.0492 0.0491,0.12278 0.147448,0.12278 0.09828,0 0.135122,-0.0244 0.147449,-0.0612 l 0.860107,-3.39173 c 0.233467,0.73757 0.774158,1.1919 1.671179,1.1919 0.8970207,0 1.8185488,-0.42995 2.3714998,-0.97071 0.589873,-0.56514 0.983033,-1.35147 0.983033,-2.26101 0,-0.88472 -0.454638,-1.52344 -0.896999,-1.83061 0.712741,-0.40557 1.413116,-1.16751 1.413116,-2.05223 z m -2.211803,2.03982 c -0.15979,0.0616 -0.294892,0.086 -0.5897891,0.086 -0.172037,0 -0.417831,0.0124 -0.540694,-0.0492 0.02459,-0.12278 0.466934,-0.0984 0.602124,-0.0984 0.2580671,0 0.3685691,0 0.5283591,0.0616 z m 1.523662,-2.32261 c 0,0.86034 -0.466916,1.74506 -1.105901,2.12581 -0.331726,-0.12278 -0.577551,-0.14716 -0.9461201,-0.14716 -0.258054,0 -0.9461947,-0.0124 -0.9461947,0.39316 -0.01226,0.34396 0.6267107,0.30717 0.8478517,0.30717 0.4546781,0 0.6389801,-0.0124 1.0076291,-0.15957 0.466916,0.44237 0.52835,0.82311 0.540628,1.38825 0.02456,0.71275 -0.270336,1.63426 -0.614384,2.11341 -0.479195,0.66354 -1.3024641,1.1059 -2.0028608,1.1059 -0.933935,0 -1.400869,-0.71274 -1.400869,-1.58505 0,-0.12278 0,-0.30717 0.0615,-0.54077 l 0.786418,-3.10849 c 0.270309,-1.0567 1.1550037,-3.01053 2.6295668,-3.01053 0.712652,0 1.142735,0.38075 1.142735,1.11787" />
    <path
       inkscape:connector-curvature="0"
       id="path5577"
       style="fill:#000000;fill-opacity:1;fill-rule:nonzero;stroke:none;stroke-width:0.00126898"
       d="m 4.8004649,152.9936 c 0.479259,-1.41352 1.818628,-1.42548 1.953752,-1.42548 1.8554708,0 1.9906618,2.15019 1.9906618,3.1209 0,0.74953 -0.06143,0.95874 -0.147451,1.2043 -0.27031,0.89713 -0.638967,2.32217 -0.638967,2.64175 0,0.13519 0.06143,0.22118 0.159706,0.22118 0.159778,0 0.258054,-0.27038 0.393245,-0.73712 0.282641,-1.03232 0.405504,-1.73265 0.454616,-2.1134 0.02456,-0.16001 0.04916,-0.31958 0.09836,-0.47959 0.393161,-1.21627 1.1795693,-3.04732 1.6710863,-4.01804 0.08603,-0.14715 0.233458,-0.41753 0.233458,-0.46673 0,-0.12278 -0.122868,-0.12278 -0.147424,-0.12278 -0.03688,0 -0.110634,0 -0.147468,0.086 -0.638941,1.16707 -1.1305023,2.39619 -1.6220183,3.63728 -0.01223,-0.38119 -0.02451,-1.31511 -0.503759,-2.507 -0.294901,-0.74953 -0.786418,-1.35146 -1.6342698,-1.35146 -1.535988,0 -2.396094,1.86784 -2.396094,2.24859 0,0.12278 0.110535,0.12278 0.233466,0.12278 l 0.0491,-0.0612" />
    <path
       inkscape:connector-curvature="0"
       id="path5579"
       style="fill:#000000;fill-opacity:1;fill-rule:nonzero;stroke:none;stroke-width:0.00126898"
       d="m 62.002416,76.358891 -1.57284,-0.38119 c -0.76183,-0.18395 -1.24102,-0.84749 -1.24102,-1.56023 0,-0.86034 0.66349,-1.60987 1.62194,-1.60987 2.05209,0 2.32242,2.015 2.39618,2.56817 0.0122,0.0736 0.0122,0.1476 0.14742,0.1476 0.1597,0 0.1597,-0.0616 0.1597,-0.2952 v -2.46977 c 0,-0.20877 0,-0.29476 -0.1351,-0.29476 -0.086,0 -0.0984,0.0124 -0.18434,0.15957 l -0.43004,0.70033 c -0.36865,-0.35638 -0.87243,-0.8599 -1.96608,-0.8599 -1.36395,0 -2.39609,1.08108 -2.39609,2.38378 0,1.01991 0.65122,1.91704 1.60967,2.24859 0.13519,0.0492 0.76184,0.1968 1.62201,0.40557 0.33175,0.086 0.7004,0.17198 1.04445,0.62675 0.25802,0.31958 0.38093,0.72471 0.38093,1.13028 0,0.87276 -0.61439,1.75703 -1.64658,1.75703 -0.35633,0 -1.2902,-0.0612 -1.9415,-0.66354 -0.71265,-0.66309 -0.7495,-1.44986 -0.76183,-1.89222 -0.0123,-0.12278 -0.1106,-0.12278 -0.14745,-0.12278 -0.1597,0 -0.1597,0.086 -0.1597,0.30717 v 2.45781 c 0,0.20877 0,0.29476 0.13512,0.29476 0.086,0 0.0984,-0.0248 0.18436,-0.15957 0,-0.0124 0.0369,-0.0492 0.44235,-0.70078 0.38091,0.41799 1.16733,0.86035 2.26097,0.86035 1.43764,0 2.42067,-1.20431 2.42067,-2.55577 0,-1.22912 -0.81097,-2.23662 -1.8432,-2.48218" />
    <path
       inkscape:connector-curvature="0"
       id="path5581"
       style="fill:#000000;fill-opacity:1;fill-rule:nonzero;stroke:none;stroke-width:0.00126898"
       d="m 44.476621,153.92114 c -0.110603,-0.1476 -0.122859,-0.15957 -0.356326,-0.15957 h -2.088941 v 0.38075 h 0.356329 c 0.184364,0 0.430086,0.0124 0.61438,0.0244 0.282641,0.0372 0.294901,0.0492 0.294901,0.28279 v 6.41423 c 0,0.33199 0,0.90954 -1.26561,0.90954 v 0.38075 c 0.430089,-0.0124 1.032143,-0.0368 1.437643,-0.0368 0.405504,0 1.007624,0.0244 1.437716,0.0368 v -0.38075 c -1.265679,0 -1.265679,-0.57755 -1.265679,-0.90954 v -6.38941 c 0.06143,0.0612 0.07376,0.0736 0.12286,0.14716 l 5.013482,7.37297 c 0.11059,0.14716 0.122868,0.15957 0.208858,0.15957 0.172069,0 0.172069,-0.086 0.172069,-0.31958 v -6.78257 c 0,-0.33199 0,-0.90954 1.265603,-0.90954 v -0.38075 c -0.430038,0.012 -1.032145,0.0368 -1.437672,0.0368 -0.405482,0 -1.007633,-0.0248 -1.437627,-0.0368 v 0.38075 c 1.265603,0 1.265603,0.57755 1.265603,0.90954 v 5.24672 l -4.337589,-6.37744" />
    <path
       inkscape:connector-curvature="0"
       id="path5583"
       style="fill:#000000;fill-opacity:1;fill-rule:nonzero;stroke:none;stroke-width:0.00126898"
       d="m 91.925297,84.287438 c 0.0491,0.49156 0.38092,1.0075 0.95845,1.0075 0.25797,0 1.00755,-0.17198 1.00755,-1.16707 v -0.68836 h -0.30713 v 0.68836 c 0,0.71275 -0.30726,0.78632 -0.44245,0.78632 -0.40539,0 -0.45459,-0.55317 -0.45459,-0.61434 v -2.4578 c 0,-0.51594 0,-0.99509 -0.44234,-1.44986 -0.47926,-0.47915 -1.09364,-0.67595 -1.68344,-0.67595 -1.00763,0 -1.85547,0.57755 -1.85547,1.38869 0,0.36878 0.24572,0.57755 0.56521,0.57755 0.34407,0 0.56528,-0.24556 0.56528,-0.56514 0,-0.1476 -0.0614,-0.55317 -0.62672,-0.56514 0.33182,-0.43039 0.93387,-0.56558 1.32712,-0.56558 0.60211,0 1.30252,0.47959 1.30252,1.57308 v 0.45477 c -0.62672,0.0368 -1.48682,0.0736 -2.26098,0.44192 -0.92161,0.41798 -1.22876,1.05714 -1.22876,1.59746 0,0.99553 1.19192,1.30271 1.96601,1.30271 0.811,0 1.37628,-0.49157 1.60974,-1.06912 z m -0.086,-2.015 v 1.22868 c 0,1.16707 -0.88476,1.58505 -1.43771,1.58505 -0.60205,0 -1.1059,-0.42995 -1.1059,-1.04429 0,-0.67595 0.51611,-1.69586 2.54361,-1.76944" />
    <path
       inkscape:connector-curvature="0"
       id="path5585"
       style="fill:#000000;fill-opacity:1;fill-rule:nonzero;stroke:none;stroke-width:0.00126898"
       d="m 55.834615,49.301267 v -3.89512 l -1.769456,0.13519 v 0.38075 c 0.860108,0 0.958451,0.086 0.958451,0.68792 v 7.32377 h 0.307157 c 0.01233,-0.0123 0.110603,-0.1843 0.442418,-0.76185 0.184293,0.28266 0.700397,0.89704 1.609678,0.89704 1.46225,0 2.740175,-1.20426 2.740175,-2.78935 0,-1.56059 -1.204169,-2.77694 -2.604985,-2.77694 -0.95845,0 -1.486885,0.57741 -1.683438,0.79859 z m 0.03685,3.23172 v -2.5313 c 0,-0.23345 0,-0.24578 0.13519,-0.44236 0.47919,-0.68832 1.155004,-0.78627 1.449901,-0.78627 0.55295,0 0.995355,0.31936 1.290248,0.78627 0.319492,0.5038 0.356326,1.20422 0.356326,1.70797 0,0.45468 -0.02456,1.19193 -0.380882,1.74488 -0.258059,0.38093 -0.725002,0.78641 -1.388556,0.78641 -0.55295,0 -0.995298,-0.29489 -1.290194,-0.74948 -0.172033,-0.25806 -0.172033,-0.29499 -0.172033,-0.51612" />
    <g
       id="g5639"
       transform="translate(90.714286,-59.720238)">
      <path
         d="m -44.240621,186.41101 c 0.0491,0.49152 0.380918,1.00763 0.958451,1.00763 0.257969,0 1.007544,-0.17202 1.007544,-1.16738 v -0.68809 h -0.307125 v 0.68809 c 0,0.7127 -0.307259,0.78641 -0.44245,0.78641 -0.405393,0 -0.454594,-0.55295 -0.454594,-0.61438 v -2.45754 c 0,-0.51612 0,-0.99531 -0.442342,-1.44995 -0.479261,-0.4792 -1.093641,-0.67582 -1.683435,-0.67582 -1.007629,0 -1.855476,0.57751 -1.855476,1.38852 0,0.3686 0.245727,0.57746 0.565211,0.57746 0.34407,0 0.565277,-0.24569 0.565277,-0.56519 0,-0.14746 -0.06143,-0.55295 -0.626711,-0.56522 0.331814,-0.43009 0.933868,-0.56528 1.327112,-0.56528 0.60212,0 1.302521,0.47929 1.302521,1.57282 v 0.45468 c -0.626711,0.0369 -1.486814,0.0737 -2.260976,0.44236 -0.921608,0.41776 -1.228763,1.05675 -1.228763,1.59742 0,0.99531 1.19192,1.30253 1.966007,1.30253 0.811005,0 1.376282,-0.49152 1.609749,-1.06907 z m -0.08602,-2.01518 v 1.22877 c 0,1.16734 -0.88476,1.5851 -1.437711,1.5851 -0.602054,0 -1.105901,-0.43004 -1.105901,-1.04447 0,-0.67582 0.516103,-1.69569 2.543612,-1.7694"
         style="fill:#000000;fill-opacity:1;fill-rule:nonzero;stroke:none;stroke-width:0.00126898"
         id="path5587"
         inkscape:connector-curvature="0" />
      <path
         d="m -39.701843,178.83481 c 0.06879,-0.14605 0.07735,-0.21484 0.07735,-0.27495 0,-0.26634 -0.240595,-0.47254 -0.506942,-0.47254 -0.326495,0 -0.429595,0.2663 -0.472545,0.4038 l -1.134181,3.72035 c -0.0086,0.0172 -0.04291,0.12889 -0.04291,0.13745 0,0.10314 0.266347,0.18909 0.33505,0.18909 0.06019,0 0.06879,-0.0173 0.128897,-0.14605 l 1.61528,-3.55715"
         style="fill:#000000;fill-opacity:1;fill-rule:nonzero;stroke:none;stroke-width:0.00126898"
         id="path5589"
         inkscape:connector-curvature="0" />
    </g>
    <g
       id="g5643"
       transform="translate(106.96726,-69.358631)">
      <path
         d="m -46.218956,202.35709 v -3.89521 l -1.769456,0.13519 v 0.38092 c 0.860108,0 0.958451,0.086 0.958451,0.68805 v 7.32355 h 0.307157 c 0.01233,-0.0123 0.110603,-0.18429 0.442418,-0.76183 0.184293,0.28264 0.700397,0.89702 1.609678,0.89702 1.46225,0 2.740175,-1.20425 2.740175,-2.78934 0,-1.56057 -1.204169,-2.77709 -2.604985,-2.77709 -0.95845,0 -1.486885,0.57756 -1.683438,0.79874 z m 0.03685,3.23171 v -2.53129 c 0,-0.23347 0,-0.2458 0.13519,-0.44237 0.47919,-0.68814 1.155004,-0.7864 1.449901,-0.7864 0.55295,0 0.995355,0.31949 1.290248,0.7864 0.319492,0.5038 0.356326,1.2042 0.356326,1.70798 0,0.45467 -0.02456,1.19191 -0.380882,1.74487 -0.258059,0.38091 -0.725002,0.78641 -1.388556,0.78641 -0.55295,0 -0.995298,-0.29489 -1.290194,-0.7495 -0.172033,-0.25805 -0.172033,-0.29497 -0.172033,-0.5161"
         style="fill:#000000;fill-opacity:1;fill-rule:nonzero;stroke:none;stroke-width:0.00126898"
         id="path5591"
         inkscape:connector-curvature="0" />
      <path
         d="m -39.019242,198.47952 c 0.06879,-0.14605 0.07735,-0.21484 0.07735,-0.27495 0,-0.26635 -0.240594,-0.47254 -0.506941,-0.47254 -0.326496,0 -0.429595,0.2663 -0.472546,0.40379 l -1.13418,3.72035 c -0.0086,0.0172 -0.04291,0.1289 -0.04291,0.13745 0,0.10315 0.266348,0.18909 0.335051,0.18909 0.06019,0 0.06879,-0.0172 0.128896,-0.14605 l 1.615281,-3.55714"
         style="fill:#000000;fill-opacity:1;fill-rule:nonzero;stroke:none;stroke-width:0.00126898"
         id="path5593"
         inkscape:connector-curvature="0" />
    </g>
    <path
       style="fill:none;stroke:#000000;stroke-width:0.17638889;stroke-linecap:butt;stroke-linejoin:miter;stroke-miterlimit:4;stroke-dasharray:none;stroke-opacity:1"
       d="M 47.072838,133.08026 19.237353,163.86907"
       id="path5645"
       inkscape:connector-curvature="0" />
    <path
       style="opacity:1;fill:none;fill-opacity:1;stroke:#000000;stroke-width:0.17638889;stroke-miterlimit:4;stroke-dasharray:none;stroke-dashoffset:0;stroke-opacity:1"
       id="path5647"
       sodipodi:type="arc"
       sodipodi:cx="19.237352"
       sodipodi:cy="163.86906"
       sodipodi:rx="15.780505"
       sodipodi:ry="15.780505"
       sodipodi:start="4.7134904"
       sodipodi:end="5.4474184"
       d="m 19.254733,148.08857 a 15.780505,15.780505 0 0 1 10.565168,4.07434"
       sodipodi:open="true" />
    <path
       d="m 19.315001,149.08209 a 14.610964,14.719179 0 0 1 7.142127,1.88304"
       sodipodi:end="5.2237711"
       sodipodi:start="4.7129523"
       sodipodi:ry="14.719179"
       sodipodi:rx="14.610964"
       sodipodi:cy="163.80127"
       sodipodi:cx="19.30677"
       sodipodi:type="arc"
       id="path5649"
       style="opacity:1;fill:none;fill-opacity:1;stroke:#000000;stroke-width:0.17638889;stroke-miterlimit:4;stroke-dasharray:none;stroke-dashoffset:0;stroke-opacity:1"
       sodipodi:open="true" />
    <path
       style="fill:none;stroke:#000000;stroke-width:0.26458332px;stroke-linecap:butt;stroke-linejoin:miter;stroke-opacity:1;marker-end:url(#marker5661)"
       d="m 11.811756,153.88876 9.827381,-4.06324"
       id="path5651"
       inkscape:connector-curvature="0" />
    <path
       style="fill:none;stroke:#000000;stroke-width:0.26458332px;stroke-linecap:butt;stroke-linejoin:miter;stroke-opacity:1;marker-end:url(#marker5703)"
       d="m 13.418155,134.75372 12.425967,14.12686"
       id="path5693"
       inkscape:connector-curvature="0" />
    <path
       style="fill:none;stroke:#000000;stroke-width:0.26499999;stroke-linecap:butt;stroke-linejoin:miter;stroke-miterlimit:4;stroke-dasharray:none;stroke-opacity:1;marker-end:url(#marker4862)"
       d="m 46.721113,151.87967 0.283483,-16.72545"
       id="path4852"
       inkscape:connector-curvature="0" />
  </g>
</svg>
