<?xml version="1.0" encoding="UTF-8" standalone="no"?>
<!-- Created with Inkscape (http://www.inkscape.org/) -->

<svg
   xmlns:dc="http://purl.org/dc/elements/1.1/"
   xmlns:cc="http://creativecommons.org/ns#"
   xmlns:rdf="http://www.w3.org/1999/02/22-rdf-syntax-ns#"
   xmlns:svg="http://www.w3.org/2000/svg"
   xmlns="http://www.w3.org/2000/svg"
   xmlns:sodipodi="http://sodipodi.sourceforge.net/DTD/sodipodi-0.dtd"
   xmlns:inkscape="http://www.inkscape.org/namespaces/inkscape"
   width="325.9967mm"
   height="110.24979mm"
   viewBox="0 0 1155.1064 390.64885"
   id="svg2"
   version="1.1"
   inkscape:version="0.92.1 r15371"
   sodipodi:docname="faraday.svg">
  <defs
     id="defs4">
    <marker
       inkscape:isstock="true"
       style="overflow:visible"
       id="marker7118"
       refX="0"
       refY="0"
       orient="auto"
       inkscape:stockid="Arrow1Lend">
      <path
         transform="matrix(-0.8,0,0,-0.8,-10,0)"
         style="fill:#000000;fill-opacity:1;fill-rule:evenodd;stroke:#000000;stroke-width:1.00000003pt;stroke-opacity:1"
         d="M 0,0 5,-5 -12.5,0 5,5 Z"
         id="path7116"
         inkscape:connector-curvature="0" />
    </marker>
    <marker
       inkscape:isstock="true"
       style="overflow:visible"
       id="marker6375"
       refX="0"
       refY="0"
       orient="auto"
       inkscape:stockid="Arrow1Lend">
      <path
         transform="matrix(-0.8,0,0,-0.8,-10,0)"
         style="fill:#000000;fill-opacity:1;fill-rule:evenodd;stroke:#000000;stroke-width:1.00000003pt;stroke-opacity:1"
         d="M 0,0 5,-5 -12.5,0 5,5 Z"
         id="path6373"
         inkscape:connector-curvature="0" />
    </marker>
    <marker
       inkscape:isstock="true"
       style="overflow:visible"
       id="marker5829"
       refX="0"
       refY="0"
       orient="auto"
       inkscape:stockid="Arrow1Lend">
      <path
         transform="matrix(-0.8,0,0,-0.8,-10,0)"
         style="fill:#000000;fill-opacity:1;fill-rule:evenodd;stroke:#000000;stroke-width:1.00000003pt;stroke-opacity:1"
         d="M 0,0 5,-5 -12.5,0 5,5 Z"
         id="path5827"
         inkscape:connector-curvature="0" />
    </marker>
    <marker
       inkscape:stockid="Arrow1Lend"
       orient="auto"
       refY="0"
       refX="0"
       id="marker8081"
       style="overflow:visible"
       inkscape:isstock="true">
      <path
         id="path8079"
         d="M 0,0 5,-5 -12.5,0 5,5 Z"
         style="fill:#000000;fill-opacity:1;fill-rule:evenodd;stroke:#000000;stroke-width:1.00000003pt;stroke-opacity:1"
         transform="matrix(-0.8,0,0,-0.8,-10,0)"
         inkscape:connector-curvature="0" />
    </marker>
    <marker
       inkscape:stockid="Arrow1Lend"
       orient="auto"
       refY="0"
       refX="0"
       id="marker5749"
       style="overflow:visible"
       inkscape:isstock="true"
       inkscape:collect="always">
      <path
         id="path5747"
         d="M 0,0 5,-5 -12.5,0 5,5 Z"
         style="fill:#000000;fill-opacity:1;fill-rule:evenodd;stroke:#000000;stroke-width:1.00000003pt;stroke-opacity:1"
         transform="matrix(-0.8,0,0,-0.8,-10,0)"
         inkscape:connector-curvature="0" />
    </marker>
    <marker
       inkscape:stockid="Arrow1Lend"
       orient="auto"
       refY="0"
       refX="0"
       id="marker5388"
       style="overflow:visible"
       inkscape:isstock="true">
      <path
         id="path5386"
         d="M 0,0 5,-5 -12.5,0 5,5 Z"
         style="fill:#000000;fill-opacity:1;fill-rule:evenodd;stroke:#000000;stroke-width:1.00000003pt;stroke-opacity:1"
         transform="matrix(-0.8,0,0,-0.8,-10,0)"
         inkscape:connector-curvature="0" />
    </marker>
    <marker
       inkscape:isstock="true"
       style="overflow:visible"
       id="marker9698"
       refX="0"
       refY="0"
       orient="auto"
       inkscape:stockid="Arrow1Lend">
      <path
         transform="matrix(-0.8,0,0,-0.8,-10,0)"
         style="fill:#000000;fill-opacity:1;fill-rule:evenodd;stroke:#000000;stroke-width:1.00000003pt;stroke-opacity:1"
         d="M 0,0 5,-5 -12.5,0 5,5 Z"
         id="path9696"
         inkscape:connector-curvature="0" />
    </marker>
    <marker
       inkscape:isstock="true"
       style="overflow:visible"
       id="marker8187"
       refX="0"
       refY="0"
       orient="auto"
       inkscape:stockid="Arrow1Lend">
      <path
         transform="matrix(-0.8,0,0,-0.8,-10,0)"
         style="fill:#000000;fill-opacity:1;fill-rule:evenodd;stroke:#000000;stroke-width:1.00000003pt;stroke-opacity:1"
         d="M 0,0 5,-5 -12.5,0 5,5 Z"
         id="path8185"
         inkscape:connector-curvature="0" />
    </marker>
    <marker
       inkscape:stockid="Arrow1Lend"
       orient="auto"
       refY="0"
       refX="0"
       id="marker7839"
       style="overflow:visible"
       inkscape:isstock="true"
       inkscape:collect="always">
      <path
         id="path7837"
         d="M 0,0 5,-5 -12.5,0 5,5 Z"
         style="fill:#000000;fill-opacity:1;fill-rule:evenodd;stroke:#000000;stroke-width:1.00000003pt;stroke-opacity:1"
         transform="matrix(-0.8,0,0,-0.8,-10,0)"
         inkscape:connector-curvature="0" />
    </marker>
    <marker
       inkscape:stockid="Arrow1Lend"
       orient="auto"
       refY="0"
       refX="0"
       id="marker7729"
       style="overflow:visible"
       inkscape:isstock="true">
      <path
         id="path7727"
         d="M 0,0 5,-5 -12.5,0 5,5 Z"
         style="fill:#000000;fill-opacity:1;fill-rule:evenodd;stroke:#000000;stroke-width:1.00000003pt;stroke-opacity:1"
         transform="matrix(-0.8,0,0,-0.8,-10,0)"
         inkscape:connector-curvature="0" />
    </marker>
    <marker
       inkscape:stockid="Arrow1Lend"
       orient="auto"
       refY="0"
       refX="0"
       id="marker7287"
       style="overflow:visible"
       inkscape:isstock="true">
      <path
         id="path7285"
         d="M 0,0 5,-5 -12.5,0 5,5 Z"
         style="fill:#000000;fill-opacity:1;fill-rule:evenodd;stroke:#000000;stroke-width:1.00000003pt;stroke-opacity:1"
         transform="matrix(-0.8,0,0,-0.8,-10,0)"
         inkscape:connector-curvature="0" />
    </marker>
    <marker
       inkscape:isstock="true"
       style="overflow:visible"
       id="marker5973"
       refX="0"
       refY="0"
       orient="auto"
       inkscape:stockid="Arrow1Lend">
      <path
         transform="matrix(-0.8,0,0,-0.8,-10,0)"
         style="fill:#000000;fill-opacity:1;fill-rule:evenodd;stroke:#000000;stroke-width:1.00000003pt;stroke-opacity:1"
         d="M 0,0 5,-5 -12.5,0 5,5 Z"
         id="path5971"
         inkscape:connector-curvature="0" />
    </marker>
    <marker
       inkscape:stockid="Arrow1Lend"
       orient="auto"
       refY="0"
       refX="0"
       id="marker5907"
       style="overflow:visible"
       inkscape:isstock="true">
      <path
         id="path5905"
         d="M 0,0 5,-5 -12.5,0 5,5 Z"
         style="fill:#000000;fill-opacity:1;fill-rule:evenodd;stroke:#000000;stroke-width:1.00000003pt;stroke-opacity:1"
         transform="matrix(-0.8,0,0,-0.8,-10,0)"
         inkscape:connector-curvature="0" />
    </marker>
    <marker
       inkscape:isstock="true"
       style="overflow:visible"
       id="marker6178"
       refX="0"
       refY="0"
       orient="auto"
       inkscape:stockid="Arrow1Lend">
      <path
         transform="matrix(-0.8,0,0,-0.8,-10,0)"
         style="fill:#000000;fill-opacity:1;fill-rule:evenodd;stroke:#000000;stroke-width:1.00000003pt;stroke-opacity:1"
         d="M 0,0 5,-5 -12.5,0 5,5 Z"
         id="path6180"
         inkscape:connector-curvature="0" />
    </marker>
    <marker
       inkscape:isstock="true"
       style="overflow:visible"
       id="marker5818"
       refX="0"
       refY="0"
       orient="auto"
       inkscape:stockid="Arrow1Lend">
      <path
         transform="matrix(-0.8,0,0,-0.8,-10,0)"
         style="fill:#000000;fill-opacity:1;fill-rule:evenodd;stroke:#000000;stroke-width:1.00000003pt;stroke-opacity:1"
         d="M 0,0 5,-5 -12.5,0 5,5 Z"
         id="path5820"
         inkscape:connector-curvature="0" />
    </marker>
    <marker
       inkscape:stockid="Arrow1Lend"
       orient="auto"
       refY="0"
       refX="0"
       id="marker4634"
       style="overflow:visible"
       inkscape:isstock="true"
       inkscape:collect="always">
      <path
         id="path4636"
         d="M 0,0 5,-5 -12.5,0 5,5 Z"
         style="fill:#000000;fill-opacity:1;fill-rule:evenodd;stroke:#000000;stroke-width:1.00000003pt;stroke-opacity:1"
         transform="matrix(-0.8,0,0,-0.8,-10,0)"
         inkscape:connector-curvature="0" />
    </marker>
    <marker
       inkscape:isstock="true"
       style="overflow:visible"
       id="marker4546"
       refX="0"
       refY="0"
       orient="auto"
       inkscape:stockid="Arrow1Lend"
       inkscape:collect="always">
      <path
         transform="matrix(-0.8,0,0,-0.8,-10,0)"
         style="fill:#000000;fill-opacity:1;fill-rule:evenodd;stroke:#000000;stroke-width:1.00000003pt;stroke-opacity:1"
         d="M 0,0 5,-5 -12.5,0 5,5 Z"
         id="path4548"
         inkscape:connector-curvature="0" />
    </marker>
    <marker
       inkscape:isstock="true"
       style="overflow:visible"
       id="marker4428"
       refX="0"
       refY="0"
       orient="auto"
       inkscape:stockid="Arrow1Lend"
       inkscape:collect="always">
      <path
         transform="matrix(-0.8,0,0,-0.8,-10,0)"
         style="fill:#000000;fill-opacity:1;fill-rule:evenodd;stroke:#000000;stroke-width:1.00000003pt;stroke-opacity:1"
         d="M 0,0 5,-5 -12.5,0 5,5 Z"
         id="path4430"
         inkscape:connector-curvature="0" />
    </marker>
    <marker
       inkscape:stockid="Arrow1Lend"
       orient="auto"
       refY="0"
       refX="0"
       id="Arrow1Lend"
       style="overflow:visible"
       inkscape:isstock="true"
       inkscape:collect="always">
      <path
         id="path4149"
         d="M 0,0 5,-5 -12.5,0 5,5 Z"
         style="fill:#000000;fill-opacity:1;fill-rule:evenodd;stroke:#000000;stroke-width:1.00000003pt;stroke-opacity:1"
         transform="matrix(-0.8,0,0,-0.8,-10,0)"
         inkscape:connector-curvature="0" />
    </marker>
  </defs>
  <sodipodi:namedview
     id="base"
     pagecolor="#ffffff"
     bordercolor="#666666"
     borderopacity="1.0"
     inkscape:pageopacity="0.0"
     inkscape:pageshadow="2"
     inkscape:zoom="0.49497475"
     inkscape:cx="133.30578"
     inkscape:cy="343.91759"
     inkscape:document-units="px"
     inkscape:current-layer="layer1"
     showgrid="false"
     inkscape:window-width="1920"
     inkscape:window-height="1027"
     inkscape:window-x="-8"
     inkscape:window-y="-8"
     inkscape:window-maximized="1"
     fit-margin-top="1"
     fit-margin-left="1"
     fit-margin-bottom="1"
     fit-margin-right="1" />
  <metadata
     id="metadata7">
    <rdf:RDF>
      <cc:Work
         rdf:about="">
        <dc:format>image/svg+xml</dc:format>
        <dc:type
           rdf:resource="http://purl.org/dc/dcmitype/StillImage" />
        <dc:title></dc:title>
      </cc:Work>
    </rdf:RDF>
  </metadata>
  <g
     inkscape:label="Layer 1"
     inkscape:groupmode="layer"
     id="layer1"
     transform="translate(182.80907,-274.56634)">
    <circle
       style="opacity:1;fill:none;fill-opacity:1;stroke:#000000;stroke-width:0.9375;stroke-miterlimit:4;stroke-dasharray:none;stroke-dashoffset:0;stroke-opacity:1"
       id="circle7715"
       cx="-828.88422"
       cy="461.76617"
       r="139.40105"
       transform="scale(-1,1)"
       inkscape:export-xdpi="140.78549"
       inkscape:export-ydpi="140.78549" />
    <path
       style="fill:none;fill-rule:evenodd;stroke:#000000;stroke-width:0.9375;stroke-linecap:butt;stroke-linejoin:miter;stroke-miterlimit:4;stroke-dasharray:none;stroke-dashoffset:0;stroke-opacity:1;marker-end:url(#marker7839)"
       d="m 829.23834,461.30179 -27.9197,-48.76313"
       id="path7717"
       inkscape:connector-curvature="0"
       inkscape:export-xdpi="140.78549"
       inkscape:export-ydpi="140.78549" />
    <path
       inkscape:connector-curvature="0"
       id="path7719"
       d="m 829.23834,461.30179 107.4556,-84.30442"
       style="fill:none;fill-rule:evenodd;stroke:#000000;stroke-width:0.9375;stroke-linecap:butt;stroke-linejoin:miter;stroke-miterlimit:4;stroke-dasharray:none;stroke-dashoffset:0;stroke-opacity:1;marker-end:url(#marker7729)"
       inkscape:export-xdpi="140.78549"
       inkscape:export-ydpi="140.78549" />
    <path
       style="fill:none;fill-rule:evenodd;stroke:#000000;stroke-width:0.9375;stroke-linecap:butt;stroke-linejoin:miter;stroke-miterlimit:4;stroke-dasharray:3.75000001, 3.75000001;stroke-dashoffset:0;stroke-opacity:1"
       d="m 829.23764,461.30232 80.3098,-136.0143"
       id="path7721"
       inkscape:connector-curvature="0"
       inkscape:export-xdpi="140.78549"
       inkscape:export-ydpi="140.78549" />
    <circle
       r="57.294586"
       cy="461.30182"
       cx="-829.23822"
       id="circle7723"
       style="opacity:1;fill:none;fill-opacity:0.21860465;stroke:#000000;stroke-width:0.9375;stroke-miterlimit:4;stroke-dasharray:none;stroke-dashoffset:0;stroke-opacity:1"
       transform="scale(-1,1)"
       inkscape:export-xdpi="140.78549"
       inkscape:export-ydpi="140.78549" />
    <ellipse
       id="ellipse10200"
       style="opacity:1;fill:none;fill-opacity:0.21860465;stroke:#000000;stroke-width:0.9375;stroke-miterlimit:4;stroke-dasharray:none;stroke-dashoffset:0;stroke-opacity:1"
       transform="matrix(-0.86392179,-0.50362599,-0.50362599,0.86392179,0,0)"
       cx="-948.72034"
       cy="-19.096502"
       rx="64.182449"
       ry="158.15579"
       inkscape:export-xdpi="140.78549"
       inkscape:export-ydpi="140.78549" />
    <path
       inkscape:connector-curvature="0"
       id="path10261"
       style="fill:#000000;fill-opacity:1;fill-rule:nonzero;stroke:none;stroke-width:0.9375;stroke-miterlimit:4;stroke-dasharray:none;stroke-dashoffset:0"
       d="m 813.59879,660.75359 c 0,-0.10688 0,-0.17771 -0.6069,-0.78554 -4.4625,-4.49822 -5.605,-11.24491 -5.605,-16.70769 0,-6.21097 1.3566,-12.42323 5.7477,-16.88539 0.4642,-0.42883 0.4642,-0.49966 0.4642,-0.60784 0,-0.24854 -0.1428,-0.35671 -0.3569,-0.35671 -0.3572,0 -3.5702,2.42747 -5.6765,6.96175 -1.8206,3.92773 -2.249,7.89024 -2.249,10.88819 0,2.78548 0.3925,7.1047 2.3562,11.13932 2.1419,4.39134 5.2121,6.71192 5.5693,6.71192 0.2141,0 0.3569,-0.10818 0.3569,-0.35801"
       inkscape:export-xdpi="140.78549"
       inkscape:export-ydpi="140.78549" />
    <path
       inkscape:connector-curvature="0"
       id="path10263"
       style="fill:#000000;fill-opacity:1;fill-rule:nonzero;stroke:none;stroke-width:0.9375;stroke-miterlimit:4;stroke-dasharray:none;stroke-dashoffset:0"
       d="m 829.21739,650.22211 v 2.35664 l 5.2481,-0.39277 v -1.1062 c -2.499,0 -2.7847,-0.24983 -2.7847,-1.99993 v -21.66951 l -5.1408,0.39278 v 1.1062 c 2.4989,0 2.7847,0.24983 2.7847,1.99864 v 7.71253 c -1.0352,-1.2865 -2.5705,-2.2137 -4.4982,-2.2137 -4.2127,0 -7.9613,3.4989 -7.9613,8.10401 0,4.53299 3.4987,8.06795 7.5685,8.06795 2.2848,0 3.8913,-1.21437 4.7837,-2.35664 z m 0,-9.56693 v 7.31847 c 0,0.6426 0,0.71343 -0.3926,1.32126 -1.0711,1.71275 -2.6776,2.4983 -4.2126,2.4983 -1.6065,0 -2.8917,-0.92849 -3.7485,-2.28453 -0.9282,-1.46421 -1.0355,-3.4989 -1.0355,-4.96311 0,-1.31998 0.072,-3.46285 1.107,-5.06871 0.7495,-1.1062 2.106,-2.28452 4.034,-2.28452 1.2495,0 2.749,0.53442 3.8556,2.14158 0.3926,0.60654 0.3926,0.67866 0.3926,1.32126"
       inkscape:export-xdpi="140.78549"
       inkscape:export-ydpi="140.78549" />
    <path
       inkscape:connector-curvature="0"
       id="path10265"
       style="fill:#000000;fill-opacity:1;fill-rule:nonzero;stroke:none;stroke-width:0.9375;stroke-miterlimit:4;stroke-dasharray:none;stroke-dashoffset:0"
       d="m 845.78769,643.26036 c 0,-2.78418 -0.3928,-7.1034 -2.3562,-11.13802 -2.1419,-4.39134 -5.2121,-6.71192 -5.5693,-6.71192 -0.214,0 -0.3569,0.14294 -0.3569,0.35671 0,0.10818 0,0.17901 0.6783,0.82161 3.4985,3.53496 5.5336,9.21022 5.5336,16.67162 0,6.10538 -1.321,12.38847 -5.7477,16.88669 -0.4642,0.42883 -0.4642,0.49966 -0.4642,0.60654 0,0.21506 0.1429,0.35801 0.3569,0.35801 0.3572,0 3.5702,-2.42876 5.6764,-6.96175 1.8208,-3.92774 2.2491,-7.89024 2.2491,-10.88949"
       inkscape:export-xdpi="140.78549"
       inkscape:export-ydpi="140.78549" />
    <circle
       style="opacity:1;fill:none;fill-opacity:1;stroke:#000000;stroke-width:0.9375;stroke-miterlimit:4;stroke-dasharray:none;stroke-dashoffset:0;stroke-opacity:1"
       id="path4136"
       cx="-39.395962"
       cy="461.37564"
       r="139.40105"
       inkscape:export-xdpi="140.78549"
       inkscape:export-ydpi="140.78549" />
    <path
       style="fill:none;fill-rule:evenodd;stroke:#000000;stroke-width:0.9375;stroke-linecap:butt;stroke-linejoin:miter;stroke-miterlimit:4;stroke-dasharray:none;stroke-dashoffset:0;stroke-opacity:1;marker-end:url(#Arrow1Lend)"
       d="M -39.76559,460.91103 24.56074,340.24432"
       id="path4138"
       inkscape:connector-curvature="0"
       inkscape:export-xdpi="140.78549"
       inkscape:export-ydpi="140.78549" />
    <path
       inkscape:connector-curvature="0"
       id="path4140"
       d="M -39.74997,460.9113 -103.99993,340.38786"
       style="fill:none;fill-rule:evenodd;stroke:#000000;stroke-width:0.9375;stroke-linecap:butt;stroke-linejoin:miter;stroke-miterlimit:4;stroke-dasharray:none;stroke-dashoffset:0;stroke-opacity:1;marker-end:url(#marker4428)"
       inkscape:export-xdpi="140.78549"
       inkscape:export-ydpi="140.78549" />
    <path
       style="fill:none;fill-rule:evenodd;stroke:#000000;stroke-width:0.9375;stroke-linecap:butt;stroke-linejoin:miter;stroke-miterlimit:4;stroke-dasharray:3.75000001, 3.75000001;stroke-dashoffset:0;stroke-opacity:1"
       d="M -39.75804,460.907 V 321.79986"
       id="path5322"
       inkscape:connector-curvature="0"
       inkscape:export-xdpi="140.78549"
       inkscape:export-ydpi="140.78549" />
    <path
       inkscape:connector-curvature="0"
       id="path10243"
       style="fill:#000000;fill-opacity:1;fill-rule:nonzero;stroke:none;stroke-width:0.9375;stroke-miterlimit:4;stroke-dasharray:none;stroke-dashoffset:0"
       d="m -52.91911,661.15184 c 0,-0.10689 0,-0.17772 -0.6069,-0.78555 -4.4625,-4.49822 -5.605,-11.24491 -5.605,-16.70768 0,-6.21098 1.3566,-12.42324 5.7477,-16.8854 0.4642,-0.42883 0.4642,-0.49966 0.4642,-0.60784 0,-0.24854 -0.1428,-0.35671 -0.3569,-0.35671 -0.3572,0 -3.5702,2.42747 -5.6765,6.96175 -1.8206,3.92773 -2.249,7.89024 -2.249,10.8882 0,2.78547 0.3925,7.10469 2.3562,11.13931 2.1419,4.39134 5.2121,6.71192 5.5693,6.71192 0.2141,0 0.3569,-0.10817 0.3569,-0.358"
       inkscape:export-xdpi="140.78549"
       inkscape:export-ydpi="140.78549" />
    <path
       inkscape:connector-curvature="0"
       id="path10245"
       style="fill:#000000;fill-opacity:1;fill-rule:nonzero;stroke:none;stroke-width:0.9375;stroke-miterlimit:4;stroke-dasharray:none;stroke-dashoffset:0"
       d="m -38.97821,649.87087 c 0.1426,1.42815 1.1066,2.92712 2.7846,2.92712 0.7495,0 2.9272,-0.49966 2.9272,-3.39073 v -1.99992 h -0.8923 v 1.99992 c 0,2.07076 -0.8927,2.28453 -1.2854,2.28453 -1.1778,0 -1.3208,-1.60715 -1.3208,-1.78487 v -7.14075 c 0,-1.49898 0,-2.89107 -1.2852,-4.21233 -1.3923,-1.3921 -3.1773,-1.96387 -4.8909,-1.96387 -2.9275,0 -5.3907,1.67798 -5.3907,4.03462 0,1.07144 0.7139,1.67798 1.642,1.67798 0.9997,0 1.6424,-0.71343 1.6424,-1.64192 0,-0.42883 -0.1784,-1.60715 -1.8209,-1.64192 0.9641,-1.25044 2.7133,-1.64321 3.8558,-1.64321 1.7493,0 3.7842,1.39338 3.7842,4.57034 v 1.32126 c -1.8207,0.10689 -4.3197,0.21377 -6.5688,1.28392 -2.6777,1.21438 -3.57,3.07136 -3.57,4.64116 0,2.89236 3.4629,3.7848 5.7118,3.7848 2.3563,0 3.9986,-1.42815 4.677,-3.10613 z m -0.25,-5.85426 v 3.56973 c 0,3.39073 -2.5705,4.60511 -4.177,4.60511 -1.7492,0 -3.213,-1.24915 -3.213,-3.03402 0,-1.96386 1.4995,-4.92705 7.39,-5.14082"
       inkscape:export-xdpi="140.78549"
       inkscape:export-ydpi="140.78549" />
    <path
       inkscape:connector-curvature="0"
       id="path10247"
       style="fill:#000000;fill-opacity:1;fill-rule:nonzero;stroke:none;stroke-width:0.9375;stroke-miterlimit:4;stroke-dasharray:none;stroke-dashoffset:0"
       d="m -22.71341,643.65861 c 0,-2.78419 -0.3928,-7.10341 -2.3562,-11.13803 -2.1419,-4.39134 -5.2121,-6.71192 -5.5693,-6.71192 -0.214,0 -0.3568,0.14294 -0.3568,0.35671 0,0.10818 0,0.17901 0.6782,0.82161 3.4985,3.53496 5.5336,9.21022 5.5336,16.67163 0,6.10537 -1.321,12.38846 -5.7477,16.88668 -0.4641,0.42883 -0.4641,0.49966 -0.4641,0.60655 0,0.21506 0.1428,0.358 0.3568,0.358 0.3572,0 3.5702,-2.42876 5.6764,-6.96175 1.8208,-3.92774 2.2491,-7.89024 2.2491,-10.88948"
       inkscape:export-xdpi="140.78549"
       inkscape:export-ydpi="140.78549" />
    <path
       d="m 0.76889,428.85711 c 0,-2.35665 -0.6425,-7.31847 -4.2841,-7.31847 -4.9622,0 -10.46,10.06659 -10.46,18.24259 0,3.35583 1.0352,7.3186 4.2839,7.3186 5.0338,0 10.4602,-10.2456 10.4602,-18.24272 z m -10.9599,4.89099 c 0.6069,-2.28452 1.3208,-5.14082 2.7488,-7.67518 0.9639,-1.7501 2.2849,-3.74873 3.8914,-3.74873 1.7493,0 1.9634,2.28452 1.9634,4.31922 0,1.74881 -0.2855,3.56973 -1.1423,7.10469 z m 7.14,1.14226 c -0.3928,1.64193 -1.1425,4.67671 -2.4991,7.24713 -1.2494,2.42759 -2.606,4.17679 -4.1412,4.17679 -1.1782,0 -1.9277,-1.03525 -1.9277,-4.35528 0,-1.49949 0.2141,-3.56999 1.1423,-7.06864 h 7.4257"
       style="fill:#000000;fill-opacity:1;fill-rule:nonzero;stroke:none;stroke-width:0.9375;stroke-miterlimit:4;stroke-dasharray:none;stroke-dashoffset:0"
       id="path10404"
       inkscape:connector-curvature="0"
       inkscape:export-xdpi="140.78549"
       inkscape:export-ydpi="140.78549" />
    <path
       d="m 11.57619,436.76151 c 0.1746,-0.69798 0.2246,-0.77267 0.7737,-0.84865 h 1.5976 c 2.3216,0 5.1924,0 5.1924,2.5717 0,1.0234 -0.4743,2.59604 -1.6476,3.49466 -1.0236,0.79894 -2.5711,1.19828 -4.2935,1.19828 h -3.2202 z m 4.5181,6.81546 c 2.9707,-0.69901 5.6167,-2.49637 5.6167,-4.71818 0,-2.14621 -2.5462,-3.8448 -6.1659,-3.8448 h -7.6634 c -0.4743,0 -0.7988,0 -0.7988,0.54988 0,0.34899 0.2995,0.34899 0.7988,0.34899 0.025,0 0.4991,0 0.9484,0.0502 0.5243,0.0502 0.5741,0.10044 0.5741,0.34899 0,0.0502 0,0.17513 -0.1,0.54988 l -3.32,13.25514 c -0.1996,0.84865 -0.2496,1.04851 -2.1967,1.04851 -0.4243,0 -0.7489,0 -0.7489,0.52413 0,0.2497 0.1748,0.37448 0.3994,0.37448 0.4743,0 1.0485,-0.0748 1.5478,-0.0748 0.4743,0 1.1983,-0.025 1.6476,-0.025 0.4991,0 1.0732,0.025 1.5976,0.025 0.5241,0 1.148,0.0748 1.6724,0.0748 0.1248,0 0.5243,0 0.5243,-0.52412 0,-0.37449 -0.2497,-0.37449 -0.8238,-0.37449 -0.3995,0 -0.4993,0 -0.9486,-0.05 -0.5492,-0.0748 -0.5492,-0.12491 -0.5492,-0.37435 0,-0.025 0,-0.17488 0.1,-0.54924 l 1.5725,-6.31567 h 3.395 c 2.1469,0 3.0705,1.07349 3.0705,2.24679 0,0.32452 -0.2248,1.1733 -0.3496,1.74726 -0.2995,1.14845 -0.3993,1.52281 -0.3993,1.94726 0,1.97185 1.8222,2.74581 3.6695,2.74581 2.2965,0 3.2951,-2.4464 3.2951,-2.89571 0,-0.0749 -0.05,-0.3495 -0.4243,-0.3495 -0.3246,0 -0.3745,0.17475 -0.4493,0.42432 -0.3495,1.09848 -1.2731,2.12201 -2.3217,2.12201 -0.6491,0 -1.1233,-0.27469 -1.1233,-1.62261 0,-0.62418 0.1499,-1.92227 0.2497,-2.59629 0.1,-0.6739 0.1,-0.9236 0.1,-1.17304 0,-0.29967 0,-1.09848 -0.6989,-1.84746 -0.4744,-0.52412 -1.1483,-0.84865 -1.6976,-1.04825"
       style="fill:#000000;fill-opacity:1;fill-rule:nonzero;stroke:none;stroke-width:0.9375;stroke-miterlimit:4;stroke-dasharray:none;stroke-dashoffset:0"
       id="path10406"
       inkscape:connector-curvature="0"
       inkscape:export-xdpi="140.78549"
       inkscape:export-ydpi="140.78549" />
    <path
       d="m -82.78571,422.70241 c 0,-2.35625 -0.6425,-7.31859 -4.2841,-7.31859 -4.9622,0 -10.46,10.06737 -10.46,18.24285 0,3.35583 1.0352,7.31859 4.2839,7.31859 5.0338,0 10.4602,-10.24611 10.4602,-18.24285 z m -10.9599,4.891 c 0.6069,-2.28478 1.3208,-5.14095 2.7488,-7.67557 0.9639,-1.74945 2.2849,-3.74847 3.8914,-3.74847 1.7493,0 1.9634,2.28478 1.9634,4.31973 0,1.74907 -0.2855,3.56986 -1.1423,7.10431 z m 7.14,1.14226 c -0.3928,1.64231 -1.1425,4.67684 -2.4991,7.24725 -1.2494,2.4276 -2.606,4.1768 -4.1412,4.1768 -1.1782,0 -1.9277,-1.03525 -1.9277,-4.35528 0,-1.4995 0.2141,-3.56999 1.1423,-7.06877 h 7.4257"
       style="fill:#000000;fill-opacity:1;fill-rule:nonzero;stroke:none;stroke-width:0.9375;stroke-miterlimit:4;stroke-dasharray:none;stroke-dashoffset:0"
       id="path10410"
       inkscape:connector-curvature="0"
       inkscape:export-xdpi="140.78549"
       inkscape:export-ydpi="140.78549" />
    <path
       d="m -72.00341,430.89412 c 0.2246,-0.89861 0.2994,-1.14831 2.5961,-1.14831 0.7739,0 1.0234,0 1.0234,-0.54911 0,-0.025 -0.025,-0.3495 -0.4244,-0.3495 -0.5741,0 -1.2481,0.0498 -1.8472,0.0748 -0.6242,0.025 -1.3729,0.025 -1.9971,0.025 -0.5241,0 -1.1981,-0.025 -1.7224,-0.025 -0.5241,0 -1.1233,-0.0748 -1.6226,-0.0748 -0.1496,0 -0.5241,0 -0.5241,0.54923 0,0.34938 0.2997,0.34938 0.7988,0.34938 0.025,0 0.4993,0 0.9486,0.0501 0.5241,0.0498 0.5741,0.0998 0.5741,0.34925 0,0.05 0,0.17488 -0.1,0.54937 l -3.3202,13.25514 c -0.2244,0.84865 -0.2744,1.04851 -2.1965,1.04851 -0.4245,0 -0.749,0 -0.749,0.52413 0,0.37449 0.2996,0.37449 0.749,0.37449 h 12.5562 c 0.6239,0 0.6489,-0.025 0.8487,-0.49928 0.2497,-0.67402 2.1218,-5.51673 2.1218,-5.71646 0,-0.0748 -0.05,-0.34951 -0.4243,-0.34951 -0.2996,0 -0.3495,0.12492 -0.4993,0.52439 -0.9485,2.37132 -2.0469,5.14224 -6.6152,5.14224 h -2.8207 c -0.774,0 -0.7988,-0.025 -0.7988,-0.2497 0,-0.025 0,-0.14977 0.1,-0.52426 l 3.345,-13.33009"
       style="fill:#000000;fill-opacity:1;fill-rule:nonzero;stroke:none;stroke-width:0.9375;stroke-miterlimit:4;stroke-dasharray:none;stroke-dashoffset:0"
       id="path10412"
       inkscape:connector-curvature="0"
       inkscape:export-xdpi="140.78549"
       inkscape:export-ydpi="140.78549" />
    <path
       style="opacity:1;fill:none;fill-opacity:0.21860465;stroke:#000000;stroke-width:0.9375;stroke-miterlimit:4;stroke-dasharray:none;stroke-dashoffset:0;stroke-opacity:1"
       id="path10511"
       sodipodi:type="arc"
       sodipodi:cx="-39.765591"
       sodipodi:cy="460.91104"
       sodipodi:rx="36.830357"
       sodipodi:ry="36.830357"
       sodipodi:start="4.2271874"
       sodipodi:end="5.2010812"
       d="m -56.942779,428.33161 a 36.830357,36.830357 0 0 1 34.467994,0.0602 l -17.290806,32.51927 z"
       inkscape:export-xdpi="140.78549"
       inkscape:export-ydpi="140.78549" />
    <path
       d="m -58.849501,424.52015 a 41.240971,41.240971 0 0 1 19.234241,-4.75999"
       sodipodi:end="4.712389"
       sodipodi:start="4.2271874"
       sodipodi:ry="41.240971"
       sodipodi:rx="41.240971"
       sodipodi:cy="461.00113"
       sodipodi:cx="-39.615261"
       sodipodi:type="arc"
       id="path10513"
       style="opacity:1;fill:none;fill-opacity:0.21860465;stroke:#000000;stroke-width:0.9375;stroke-miterlimit:4;stroke-dasharray:none;stroke-dashoffset:0;stroke-opacity:1"
       sodipodi:open="true"
       inkscape:export-xdpi="140.78549"
       inkscape:export-ydpi="140.78549" />
    <circle
       r="139.40105"
       cy="460.26492"
       cx="275.77164"
       id="circle4504"
       style="opacity:1;fill:none;fill-opacity:1;stroke:#000000;stroke-width:0.9375;stroke-miterlimit:4;stroke-dasharray:none;stroke-dashoffset:0;stroke-opacity:1"
       inkscape:export-xdpi="140.78549"
       inkscape:export-ydpi="140.78549" />
    <path
       inkscape:connector-curvature="0"
       id="path4544"
       d="M 274.52912,459.79956 150.72228,404.39533"
       style="fill:none;fill-rule:evenodd;stroke:#000000;stroke-width:0.9375;stroke-linecap:butt;stroke-linejoin:miter;stroke-miterlimit:4;stroke-dasharray:none;stroke-dashoffset:0;stroke-opacity:1;marker-end:url(#marker4546)"
       inkscape:export-xdpi="140.78549"
       inkscape:export-ydpi="140.78549" />
    <path
       style="fill:none;fill-rule:evenodd;stroke:#000000;stroke-width:0.9375;stroke-linecap:butt;stroke-linejoin:miter;stroke-miterlimit:4;stroke-dasharray:none;stroke-dashoffset:0;stroke-opacity:1;marker-end:url(#marker4634)"
       d="M 274.52552,459.79734 334.44656,336.44742"
       id="path4632"
       inkscape:connector-curvature="0"
       inkscape:export-xdpi="140.78549"
       inkscape:export-ydpi="140.78549" />
    <path
       inkscape:connector-curvature="0"
       id="path5544"
       d="M 274.52766,459.7963 V 320.68916"
       style="fill:none;fill-rule:evenodd;stroke:#000000;stroke-width:0.9375;stroke-linecap:butt;stroke-linejoin:miter;stroke-miterlimit:4;stroke-dasharray:3.75000001, 3.75000001;stroke-dashoffset:0;stroke-opacity:1"
       inkscape:export-xdpi="140.78549"
       inkscape:export-ydpi="140.78549" />
    <path
       style="fill:none;stroke:#000000;stroke-width:0.9375;stroke-linecap:butt;stroke-linejoin:miter;stroke-miterlimit:4;stroke-dasharray:none;stroke-dashoffset:0;stroke-opacity:1;marker-end:url(#marker7287)"
       d="M 274.51796,459.79652 210.56953,279.82463"
       id="path7277"
       inkscape:connector-curvature="0"
       inkscape:export-xdpi="140.78549"
       inkscape:export-ydpi="140.78549" />
    <path
       inkscape:connector-curvature="0"
       id="path10249"
       style="fill:#000000;fill-opacity:1;fill-rule:nonzero;stroke:none;stroke-width:0.9375;stroke-miterlimit:4;stroke-dasharray:none;stroke-dashoffset:0"
       d="m 263.15235,661.31389 c 0,-0.10689 0,-0.17772 -0.6069,-0.78555 -4.4625,-4.49822 -5.605,-11.24491 -5.605,-16.70768 0,-6.21098 1.3566,-12.42324 5.7477,-16.8854 0.4642,-0.42883 0.4642,-0.49966 0.4642,-0.60784 0,-0.24854 -0.1428,-0.35671 -0.3569,-0.35671 -0.3572,0 -3.5702,2.42747 -5.6765,6.96175 -1.8206,3.92773 -2.249,7.89024 -2.249,10.8882 0,2.78547 0.3925,7.10469 2.3562,11.13931 2.1419,4.39134 5.2121,6.71192 5.5693,6.71192 0.2141,0 0.3569,-0.10817 0.3569,-0.358"
       inkscape:export-xdpi="140.78549"
       inkscape:export-ydpi="140.78549" />
    <path
       inkscape:connector-curvature="0"
       id="path10251"
       style="fill:#000000;fill-opacity:1;fill-rule:nonzero;stroke:none;stroke-width:0.9375;stroke-miterlimit:4;stroke-dasharray:none;stroke-dashoffset:0"
       d="m 271.34545,639.28766 v -11.31703 l -5.1408,0.39278 v 1.1062 c 2.4988,0 2.7846,0.24983 2.7846,1.99864 v 21.27802 h 0.8924 c 0.036,-0.0361 0.3213,-0.53571 1.2854,-2.21369 0.5354,0.8216 2.0348,2.60647 4.6767,2.60647 4.2482,0 7.961,-3.49891 7.961,-8.10402 0,-4.53428 -3.4985,-8.06795 -7.5683,-8.06795 -2.7847,0 -4.3199,1.67798 -4.891,2.32058 z m 0.1071,9.38922 v -7.35452 c 0,-0.67866 0,-0.71472 0.3927,-1.28521 1.3923,-1.99992 3.3557,-2.28452 4.2125,-2.28452 1.6065,0 2.8918,0.9272 3.7486,2.28452 0.9282,1.46292 1.0353,3.49891 1.0353,4.96183 0,1.32126 -0.071,3.46284 -1.1066,5.06999 -0.7498,1.10621 -2.1065,2.28453 -4.0343,2.28453 -1.6065,0 -2.8917,-0.85638 -3.7484,-2.17764 -0.4998,-0.74949 -0.4998,-0.85638 -0.4998,-1.49898"
       inkscape:export-xdpi="140.78549"
       inkscape:export-ydpi="140.78549" />
    <path
       inkscape:connector-curvature="0"
       id="path10253"
       style="fill:#000000;fill-opacity:1;fill-rule:nonzero;stroke:none;stroke-width:0.9375;stroke-miterlimit:4;stroke-dasharray:none;stroke-dashoffset:0"
       d="m 295.34125,643.82066 c 0,-2.78419 -0.3928,-7.10341 -2.3562,-11.13803 -2.1419,-4.39134 -5.2121,-6.71192 -5.5693,-6.71192 -0.214,0 -0.3569,0.14294 -0.3569,0.35671 0,0.10818 0,0.17901 0.6783,0.82161 3.4985,3.53496 5.5336,9.21022 5.5336,16.67163 0,6.10537 -1.321,12.38846 -5.7477,16.88668 -0.4642,0.42883 -0.4642,0.49966 -0.4642,0.60655 0,0.21506 0.1429,0.358 0.3569,0.358 0.3572,0 3.5702,-2.42876 5.6764,-6.96175 1.8208,-3.92773 2.2491,-7.89024 2.2491,-10.88948"
       inkscape:export-xdpi="140.78549"
       inkscape:export-ydpi="140.78549" />
    <g
       id="g4685"
       transform="translate(-20.02609,-13.392857)"
       inkscape:export-xdpi="140.78549"
       inkscape:export-ydpi="140.78549">
      <path
         inkscape:export-ydpi="140.78549"
         inkscape:export-xdpi="140.78549"
         inkscape:connector-curvature="0"
         id="path10475"
         style="fill:#000000;fill-opacity:1;fill-rule:nonzero;stroke:none;stroke-width:0.9375;stroke-miterlimit:4;stroke-dasharray:none;stroke-dashoffset:0"
         d="m 322.15503,402.78158 c 0,-2.35665 -0.6425,-7.31847 -4.2841,-7.31847 -4.9622,0 -10.46,10.06659 -10.46,18.24259 0,3.35583 1.0352,7.3186 4.2839,7.3186 5.0338,0 10.4602,-10.2456 10.4602,-18.24272 z m -10.9599,4.89099 c 0.6069,-2.28452 1.3208,-5.14082 2.7488,-7.67518 0.9639,-1.7501 2.2849,-3.74873 3.8914,-3.74873 1.7493,0 1.9634,2.28452 1.9634,4.31922 0,1.74881 -0.2855,3.56973 -1.1423,7.10469 z m 7.14,1.14226 c -0.3928,1.64193 -1.1425,4.67671 -2.4991,7.24713 -1.2494,2.42759 -2.606,4.17679 -4.1412,4.17679 -1.1782,0 -1.9277,-1.03525 -1.9277,-4.35528 0,-1.49949 0.2141,-3.56999 1.1423,-7.06864 h 7.4257" />
      <path
         inkscape:export-ydpi="140.78549"
         inkscape:export-xdpi="140.78549"
         inkscape:connector-curvature="0"
         id="path10477"
         style="fill:#000000;fill-opacity:1;fill-rule:nonzero;stroke:none;stroke-width:0.9375;stroke-miterlimit:4;stroke-dasharray:none;stroke-dashoffset:0"
         d="m 332.96233,410.68598 c 0.1746,-0.69798 0.2246,-0.77267 0.7737,-0.84865 h 1.5976 c 2.3216,0 5.1924,0 5.1924,2.5717 0,1.0234 -0.4743,2.59604 -1.6476,3.49466 -1.0236,0.79894 -2.5711,1.19828 -4.2935,1.19828 h -3.2202 z m 4.5181,6.81546 c 2.9707,-0.69901 5.6167,-2.49637 5.6167,-4.71818 0,-2.14621 -2.5462,-3.8448 -6.1659,-3.8448 h -7.6634 c -0.4743,0 -0.7988,0 -0.7988,0.54988 0,0.34899 0.2995,0.34899 0.7988,0.34899 0.025,0 0.4991,0 0.9484,0.0502 0.5243,0.0502 0.5741,0.10044 0.5741,0.34899 0,0.0502 0,0.17513 -0.1,0.54988 l -3.32,13.25514 c -0.1996,0.84865 -0.2496,1.04851 -2.1967,1.04851 -0.4243,0 -0.7489,0 -0.7489,0.52413 0,0.2497 0.1748,0.37448 0.3994,0.37448 0.4743,0 1.0485,-0.0748 1.5478,-0.0748 0.4743,0 1.1983,-0.025 1.6476,-0.025 0.4991,0 1.0732,0.025 1.5976,0.025 0.5241,0 1.148,0.0748 1.6724,0.0748 0.1248,0 0.5243,0 0.5243,-0.52412 0,-0.37449 -0.2497,-0.37449 -0.8238,-0.37449 -0.3995,0 -0.4993,0 -0.9486,-0.05 -0.5492,-0.0748 -0.5492,-0.12491 -0.5492,-0.37435 0,-0.025 0,-0.17488 0.1,-0.54924 l 1.5725,-6.31567 h 3.395 c 2.1469,0 3.0705,1.07349 3.0705,2.24679 0,0.32452 -0.2248,1.1733 -0.3496,1.74726 -0.2995,1.14845 -0.3993,1.52281 -0.3993,1.94726 0,1.97185 1.8222,2.74581 3.6695,2.74581 2.2965,0 3.2951,-2.4464 3.2951,-2.89571 0,-0.0749 -0.05,-0.3495 -0.4243,-0.3495 -0.3246,0 -0.3745,0.17475 -0.4493,0.42432 -0.3495,1.09848 -1.2731,2.12201 -2.3217,2.12201 -0.6491,0 -1.1233,-0.27469 -1.1233,-1.62261 0,-0.62418 0.1499,-1.92227 0.2497,-2.59629 0.1,-0.6739 0.1,-0.9236 0.1,-1.17304 0,-0.29967 0,-1.09848 -0.6989,-1.84746 -0.4744,-0.52412 -1.1483,-0.84865 -1.6976,-1.04825" />
    </g>
    <g
       id="g4693"
       transform="translate(-5.4467646,4.0178572)"
       inkscape:export-xdpi="140.78549"
       inkscape:export-ydpi="140.78549">
      <path
         inkscape:export-ydpi="140.78549"
         inkscape:export-xdpi="140.78549"
         inkscape:connector-curvature="0"
         id="path10481"
         style="fill:#000000;fill-opacity:1;fill-rule:nonzero;stroke:none;stroke-width:0.9375;stroke-miterlimit:4;stroke-dasharray:none;stroke-dashoffset:0"
         d="m 230.41396,398.58362 c 0,-2.35625 -0.6425,-7.31859 -4.2841,-7.31859 -4.9622,0 -10.46,10.06737 -10.46,18.24285 0,3.35583 1.0352,7.31859 4.2839,7.31859 5.0338,0 10.4602,-10.24611 10.4602,-18.24285 z m -10.9599,4.891 c 0.6069,-2.28478 1.3208,-5.14095 2.7488,-7.67557 0.9639,-1.74945 2.2849,-3.74847 3.8914,-3.74847 1.7493,0 1.9634,2.28478 1.9634,4.31973 0,1.74907 -0.2855,3.56986 -1.1423,7.10431 z m 7.14,1.14226 c -0.3928,1.64231 -1.1425,4.67684 -2.4991,7.24725 -1.2494,2.4276 -2.606,4.1768 -4.1412,4.1768 -1.1782,0 -1.9277,-1.03525 -1.9277,-4.35528 0,-1.4995 0.2141,-3.56999 1.1423,-7.06877 h 7.4257" />
      <path
         inkscape:export-ydpi="140.78549"
         inkscape:export-xdpi="140.78549"
         inkscape:connector-curvature="0"
         id="path10483"
         style="fill:#000000;fill-opacity:1;fill-rule:nonzero;stroke:none;stroke-width:0.9375;stroke-miterlimit:4;stroke-dasharray:none;stroke-dashoffset:0"
         d="m 241.19626,406.77533 c 0.2246,-0.89861 0.2994,-1.14831 2.5961,-1.14831 0.7739,0 1.0234,0 1.0234,-0.54911 0,-0.025 -0.025,-0.3495 -0.4244,-0.3495 -0.5741,0 -1.2481,0.0498 -1.8472,0.0748 -0.6242,0.025 -1.3729,0.025 -1.9971,0.025 -0.5241,0 -1.1981,-0.025 -1.7224,-0.025 -0.5241,0 -1.1233,-0.0748 -1.6226,-0.0748 -0.1496,0 -0.5241,0 -0.5241,0.54923 0,0.34938 0.2997,0.34938 0.7988,0.34938 0.025,0 0.4993,0 0.9486,0.0501 0.5241,0.0498 0.5741,0.0998 0.5741,0.34925 0,0.05 0,0.17488 -0.1,0.54937 l -3.3202,13.25514 c -0.2244,0.84865 -0.2744,1.04851 -2.1965,1.04851 -0.4245,0 -0.749,0 -0.749,0.52413 0,0.37449 0.2996,0.37449 0.749,0.37449 h 12.5562 c 0.6239,0 0.6489,-0.025 0.8487,-0.49928 0.2497,-0.67402 2.1218,-5.51673 2.1218,-5.71646 0,-0.0748 -0.05,-0.34951 -0.4243,-0.34951 -0.2996,0 -0.3495,0.12492 -0.4993,0.52439 -0.9485,2.37132 -2.0469,5.14224 -6.6152,5.14224 h -2.8207 c -0.774,0 -0.7988,-0.025 -0.7988,-0.2497 0,-0.025 0,-0.14977 0.1,-0.52426 l 3.345,-13.33009" />
    </g>
    <g
       id="g4689"
       transform="translate(-43.550188)"
       inkscape:export-xdpi="140.78549"
       inkscape:export-ydpi="140.78549">
      <path
         inkscape:export-ydpi="140.78549"
         inkscape:export-xdpi="140.78549"
         inkscape:connector-curvature="0"
         id="path10487"
         style="fill:#000000;fill-opacity:1;fill-rule:nonzero;stroke:none;stroke-width:0.9375;stroke-miterlimit:4;stroke-dasharray:none;stroke-dashoffset:0"
         d="m 294.36485,335.77918 c 0,-2.35626 -0.6425,-7.3186 -4.2841,-7.3186 -4.9622,0 -10.46,10.06737 -10.46,18.24281 0,3.35588 1.0352,7.31863 4.2839,7.31863 5.0338,0 10.4602,-10.2461 10.4602,-18.24284 z m -10.9599,4.89099 c 0.6069,-2.28478 1.3208,-5.14095 2.7488,-7.67557 0.9639,-1.74945 2.2849,-3.74847 3.8914,-3.74847 1.7493,0 1.9634,2.28478 1.9634,4.31973 0,1.74907 -0.2855,3.56986 -1.1423,7.10431 z m 7.14,1.14226 c -0.3928,1.64231 -1.1425,4.67687 -2.4991,7.2472 -1.2494,2.42768 -2.606,4.17685 -4.1412,4.17685 -1.1782,0 -1.9277,-1.03526 -1.9277,-4.35532 0,-1.49947 0.2141,-3.56995 1.1423,-7.06873 h 7.4257" />
      <path
         inkscape:export-ydpi="140.78549"
         inkscape:export-xdpi="140.78549"
         inkscape:connector-curvature="0"
         id="path10489"
         style="fill:#000000;fill-opacity:1;fill-rule:nonzero;stroke:none;stroke-width:0.9375;stroke-miterlimit:4;stroke-dasharray:none;stroke-dashoffset:0"
         d="m 303.39965,350.93557 h 2.6711 c 1.897,0 2.2217,0.29962 2.2217,1.12319 0,0.37446 0,0.42436 -0.1748,1.12339 -0.05,0.14991 -0.075,0.22475 -0.075,0.29961 0,0.24951 0.1746,0.37446 0.4243,0.37446 0.3244,0 0.3494,-0.12495 0.4743,-0.57427 l 1.348,-5.29197 c 0.025,-0.0749 0.1,-0.44932 0.1,-0.49923 0,-0.24971 -0.1747,-0.37446 -0.4244,-0.37446 -0.3495,0 -0.3745,0.14971 -0.4992,0.59903 -0.4992,1.94716 -1.2232,2.32162 -3.3451,2.32162 h -2.4962 l 1.5728,-6.26566 c 0.1996,-0.77383 0.2244,-0.84878 1.2731,-0.84878 h 3.8192 c 3.3201,0 3.944,0.79881 3.944,2.8706 0,0.82378 -0.1,1.34814 -0.1,1.54774 0,0.19982 0.075,0.42438 0.4244,0.42438 0.3745,0 0.3994,-0.22456 0.4493,-0.64893 l 0.4493,-4.34369 c 0.075,-0.74884 -0.1,-0.74884 -0.7238,-0.74884 h -13.33 c -0.4743,0 -0.799,0 -0.799,0.54924 0,0.3495 0.2994,0.3495 0.799,0.3495 0.025,0 0.4991,0 0.9484,0.05 0.5241,0.0498 0.5741,0.0998 0.5741,0.3495 0,0.17463 -0.075,0.42433 -0.1,0.54911 l -3.2702,13.0555 c -0.2494,0.97348 -0.2744,1.14833 -2.2215,1.14833 -0.4245,0 -0.749,0 -0.749,0.52417 0,0.24971 0.1749,0.37447 0.3995,0.37447 0.7238,0 2.571,-0.0998 3.295,-0.0998 l 1.9223,0.0249 c 0.6489,0 1.3479,0.0749 1.9718,0.0749 0.1749,0 0.5494,0 0.5494,-0.54912 0,-0.34952 -0.2997,-0.34952 -0.8739,-0.34952 -0.05,0 -0.6739,0 -1.2981,-0.0499 -0.5241,-0.0499 -0.7737,-0.0748 -0.7737,-0.42436 0,-0.10001 0,-0.17486 0.075,-0.44932 l 1.5475,-6.21576" />
    </g>
    <path
       style="opacity:1;fill:none;fill-opacity:0.21860465;stroke:#000000;stroke-width:0.81796491;stroke-miterlimit:4;stroke-dasharray:none;stroke-dashoffset:0;stroke-opacity:1"
       id="path10515"
       sodipodi:type="arc"
       sodipodi:cx="274.84924"
       sodipodi:cy="457.80682"
       sodipodi:rx="35.982574"
       sodipodi:ry="35.982574"
       sodipodi:start="4.7152858"
       sodipodi:end="5.1680321"
       d="m 274.95348,421.8244 a 35.982574,35.982574 0 0 1 15.72953,3.67086"
       sodipodi:open="true"
       inkscape:export-xdpi="140.78549"
       inkscape:export-ydpi="140.78549" />
    <path
       d="m 243.95927,446.11076 a 33.492115,33.492115 0 0 1 30.54936,-19.80657"
       sodipodi:end="4.7118201"
       sodipodi:start="3.5625339"
       sodipodi:ry="33.492115"
       sodipodi:rx="33.492115"
       sodipodi:cy="459.7963"
       sodipodi:cx="274.52768"
       sodipodi:type="arc"
       id="path10528"
       style="opacity:1;fill:none;fill-opacity:0.21860465;stroke:#000000;stroke-width:0.9375;stroke-miterlimit:4;stroke-dasharray:none;stroke-dashoffset:0;stroke-opacity:1"
       sodipodi:open="true"
       inkscape:export-xdpi="140.78549"
       inkscape:export-ydpi="140.78549" />
    <path
       d="m 236.8776,442.94362 a 41.240971,41.240971 0 0 1 37.5793,-24.38804"
       sodipodi:end="4.7109081"
       sodipodi:start="3.5625608"
       sodipodi:ry="41.240971"
       sodipodi:rx="41.240971"
       sodipodi:cy="459.79651"
       sodipodi:cx="274.51797"
       sodipodi:type="arc"
       id="path10530"
       style="opacity:1;fill:none;fill-opacity:0.21860465;stroke:#000000;stroke-width:0.9375;stroke-miterlimit:4;stroke-dasharray:none;stroke-dashoffset:0;stroke-opacity:1"
       sodipodi:open="true"
       inkscape:export-xdpi="140.78549"
       inkscape:export-ydpi="140.78549" />
    <path
       style="opacity:1;fill:none;fill-opacity:0.21860465;stroke:#000000;stroke-width:0.9375;stroke-miterlimit:4;stroke-dasharray:none;stroke-dashoffset:0;stroke-opacity:1"
       id="path10532"
       sodipodi:type="arc"
       sodipodi:cx="-274.51797"
       sodipodi:cy="459.79651"
       sodipodi:rx="59.26247"
       sodipodi:ry="59.26247"
       sodipodi:start="4.712389"
       sodipodi:end="5.0536872"
       d="m -274.51797,400.53404 a 59.26247,59.26247 0 0 1 19.83578,3.4182"
       sodipodi:open="true"
       inkscape:export-xdpi="140.78549"
       inkscape:export-ydpi="140.78549"
       transform="scale(-1,1)" />
    <circle
       r="99.210785"
       cy="461.82739"
       cx="-551.63263"
       id="circle7469"
       style="opacity:1;fill:none;fill-opacity:1;stroke:#000000;stroke-width:0.9375;stroke-miterlimit:4;stroke-dasharray:none;stroke-dashoffset:0;stroke-opacity:1"
       transform="scale(-1,1)"
       inkscape:export-xdpi="140.78549"
       inkscape:export-ydpi="140.78549" />
    <path
       style="fill:none;fill-rule:evenodd;stroke:#000000;stroke-width:0.9286899;stroke-linecap:butt;stroke-linejoin:miter;stroke-miterlimit:4;stroke-dasharray:none;stroke-dashoffset:0;stroke-opacity:1;marker-end:url(#marker5749)"
       d="m 552.21397,461.73538 86.42077,-42.46254"
       id="path7473"
       inkscape:connector-curvature="0"
       inkscape:export-xdpi="140.78549"
       inkscape:export-ydpi="140.78549" />
    <circle
       style="opacity:1;fill:none;fill-opacity:0.21860465;stroke:#000000;stroke-width:0.9375;stroke-miterlimit:4;stroke-dasharray:none;stroke-dashoffset:0;stroke-opacity:1"
       id="path7477"
       cx="-551.88458"
       cy="461.49689"
       r="40.776173"
       transform="scale(-1,1)"
       inkscape:export-xdpi="140.78549"
       inkscape:export-ydpi="140.78549" />
    <ellipse
       style="opacity:1;fill:none;fill-opacity:0.21860465;stroke:#000000;stroke-width:0.9375;stroke-miterlimit:4;stroke-dasharray:none;stroke-dashoffset:0;stroke-opacity:1"
       id="path7661"
       cx="-552.20697"
       cy="461.79471"
       rx="56.737442"
       ry="139.81013"
       transform="scale(-1,1)"
       inkscape:export-xdpi="140.78549"
       inkscape:export-ydpi="140.78549" />
    <path
       inkscape:connector-curvature="0"
       id="path10255"
       style="fill:#000000;fill-opacity:1;fill-rule:nonzero;stroke:none;stroke-width:0.9375;stroke-miterlimit:4;stroke-dasharray:none;stroke-dashoffset:0"
       d="m 540.38448,660.93357 c 0,-0.10689 0,-0.17772 -0.6069,-0.78555 -4.4625,-4.49822 -5.605,-11.24491 -5.605,-16.70768 0,-6.21098 1.3566,-12.42324 5.7477,-16.8854 0.4642,-0.42883 0.4642,-0.49966 0.4642,-0.60783 0,-0.24855 -0.1428,-0.35672 -0.3569,-0.35672 -0.3572,0 -3.5702,2.42747 -5.6765,6.96175 -1.8206,3.92773 -2.249,7.89024 -2.249,10.8882 0,2.78547 0.3925,7.10469 2.3562,11.13931 2.1419,4.39134 5.2121,6.71192 5.5693,6.71192 0.2141,0 0.3569,-0.10817 0.3569,-0.358"
       inkscape:export-xdpi="140.78549"
       inkscape:export-ydpi="140.78549" />
    <path
       inkscape:connector-curvature="0"
       id="path10257"
       style="fill:#000000;fill-opacity:1;fill-rule:nonzero;stroke:none;stroke-width:0.9375;stroke-miterlimit:4;stroke-dasharray:none;stroke-dashoffset:0"
       d="m 546.61388,644.58389 c 0,-5.81949 2.9275,-7.31976 4.8195,-7.31976 0.3215,0 2.5706,0.0361 3.8201,1.32127 -1.4638,0.10688 -1.6778,1.17832 -1.6778,1.64192 0,0.92849 0.6424,1.64321 1.642,1.64321 0.9282,0 1.6423,-0.60783 1.6423,-1.67798 0,-2.42747 -2.7131,-3.82085 -5.4621,-3.82085 -4.4626,0 -7.747,3.85562 -7.747,8.28301 0,4.56905 3.5343,8.10402 7.6755,8.10402 4.784,0 5.9263,-4.28445 5.9263,-4.64117 0,-0.35672 -0.357,-0.35672 -0.464,-0.35672 -0.3215,0 -0.3928,0.14295 -0.4643,0.35672 -1.0352,3.3199 -3.3557,3.74873 -4.6767,3.74873 -1.892,0 -5.0338,-1.53503 -5.0338,-7.2824"
       inkscape:export-xdpi="140.78549"
       inkscape:export-ydpi="140.78549" />
    <path
       inkscape:connector-curvature="0"
       id="path10259"
       style="fill:#000000;fill-opacity:1;fill-rule:nonzero;stroke:none;stroke-width:0.9375;stroke-miterlimit:4;stroke-dasharray:none;stroke-dashoffset:0"
       d="m 568.60698,643.44034 c 0,-2.78419 -0.3927,-7.10341 -2.3562,-11.13803 -2.1419,-4.39134 -5.2121,-6.71192 -5.5693,-6.71192 -0.214,0 -0.3568,0.14294 -0.3568,0.35672 0,0.10817 0,0.179 0.6782,0.8216 3.4986,3.53496 5.5336,9.21022 5.5336,16.67163 0,6.10537 -1.321,12.38846 -5.7477,16.88668 -0.4641,0.42883 -0.4641,0.49966 -0.4641,0.60655 0,0.21506 0.1428,0.358 0.3568,0.358 0.3572,0 3.5703,-2.42876 5.6764,-6.96175 1.8208,-3.92773 2.2491,-7.89024 2.2491,-10.88948"
       inkscape:export-xdpi="140.78549"
       inkscape:export-ydpi="140.78549" />
    <path
       style="fill:none;stroke:#000000;stroke-width:0.81932056;stroke-linecap:butt;stroke-linejoin:miter;stroke-miterlimit:4;stroke-dasharray:3.27728233, 3.27728233;stroke-dashoffset:0;stroke-opacity:1"
       d="m 552.90625,461.4161 50.07858,-60.52705"
       id="path8575"
       inkscape:connector-curvature="0"
       inkscape:export-xdpi="140.78549"
       inkscape:export-ydpi="140.78549" />
    <path
       inkscape:connector-curvature="0"
       id="path5825"
       d="M 552.3422,461.98847 517.15841,444.70103"
       style="fill:none;fill-rule:evenodd;stroke:#000000;stroke-width:0.91471362;stroke-linecap:butt;stroke-linejoin:miter;stroke-miterlimit:4;stroke-dasharray:none;stroke-dashoffset:0;stroke-opacity:1;marker-end:url(#marker5829)"
       inkscape:export-xdpi="140.78549"
       inkscape:export-ydpi="140.78549" />
  </g>
</svg>
