<?xml version="1.0" encoding="UTF-8" standalone="no"?>
<!-- Created with Inkscape (http://www.inkscape.org/) -->

<svg
   xmlns:dc="http://purl.org/dc/elements/1.1/"
   xmlns:cc="http://creativecommons.org/ns#"
   xmlns:rdf="http://www.w3.org/1999/02/22-rdf-syntax-ns#"
   xmlns:svg="http://www.w3.org/2000/svg"
   xmlns="http://www.w3.org/2000/svg"
   xmlns:sodipodi="http://sodipodi.sourceforge.net/DTD/sodipodi-0.dtd"
   xmlns:inkscape="http://www.inkscape.org/namespaces/inkscape"
   width="81.481148mm"
   height="133.08722mm"
   viewBox="0 0 81.481147 133.08722"
   version="1.1"
   id="svg8"
   inkscape:version="0.91 r13725"
   sodipodi:docname="fEllipse.svg">
  <defs
     id="defs2">
    <marker
       inkscape:isstock="true"
       style="overflow:visible"
       id="marker4813"
       refX="0"
       refY="0"
       orient="auto"
       inkscape:stockid="Arrow1Lend">
      <path
         transform="matrix(-0.8,0,0,-0.8,-10,0)"
         style="fill:#000000;fill-opacity:1;fill-rule:evenodd;stroke:#000000;stroke-width:1pt;stroke-opacity:1"
         d="M 0,0 5,-5 -12.5,0 5,5 Z"
         id="path4811"
         inkscape:connector-curvature="0" />
    </marker>
    <marker
       inkscape:stockid="Arrow1Lend"
       orient="auto"
       refY="0"
       refX="0"
       id="marker4779"
       style="overflow:visible"
       inkscape:isstock="true"
       inkscape:collect="always">
      <path
         id="path4777"
         d="M 0,0 5,-5 -12.5,0 5,5 Z"
         style="fill:#000000;fill-opacity:1;fill-rule:evenodd;stroke:#000000;stroke-width:1pt;stroke-opacity:1"
         transform="matrix(-0.8,0,0,-0.8,-10,0)"
         inkscape:connector-curvature="0" />
    </marker>
    <marker
       inkscape:stockid="Arrow1Lend"
       orient="auto"
       refY="0"
       refX="0"
       id="Arrow1Lend"
       style="overflow:visible"
       inkscape:isstock="true">
      <path
         id="path4498"
         d="M 0,0 5,-5 -12.5,0 5,5 Z"
         style="fill:#000000;fill-opacity:1;fill-rule:evenodd;stroke:#000000;stroke-width:1pt;stroke-opacity:1"
         transform="matrix(-0.8,0,0,-0.8,-10,0)"
         inkscape:connector-curvature="0" />
    </marker>
    <clipPath
       id="clipPath4857"
       clipPathUnits="userSpaceOnUse">
      <path
         inkscape:connector-curvature="0"
         id="path4859"
         d="M 0,0 19,0 19,57 0,57 0,0 Z" />
    </clipPath>
  </defs>
  <sodipodi:namedview
     id="base"
     pagecolor="#ffffff"
     bordercolor="#666666"
     borderopacity="1.0"
     inkscape:pageopacity="0.0"
     inkscape:pageshadow="2"
     inkscape:zoom="1.979899"
     inkscape:cx="105.31731"
     inkscape:cy="225.16612"
     inkscape:document-units="mm"
     inkscape:current-layer="layer1"
     showgrid="false"
     inkscape:window-width="1440"
     inkscape:window-height="786"
     inkscape:window-x="0"
     inkscape:window-y="0"
     inkscape:window-maximized="1"
     fit-margin-left="1"
     fit-margin-bottom="1"
     fit-margin-right="1"
     fit-margin-top="1" />
  <metadata
     id="metadata5">
    <rdf:RDF>
      <cc:Work
         rdf:about="">
        <dc:format>image/svg+xml</dc:format>
        <dc:type
           rdf:resource="http://purl.org/dc/dcmitype/StillImage" />
        <dc:title />
      </cc:Work>
    </rdf:RDF>
  </metadata>
  <g
     inkscape:label="レイヤー 1"
     inkscape:groupmode="layer"
     id="layer1"
     transform="translate(-70.567264,-34.853717)">
    <ellipse
       style="opacity:1;fill:none;fill-opacity:1;stroke:#000000;stroke-width:0.35277778;stroke-miterlimit:4;stroke-dasharray:none;stroke-dashoffset:0;stroke-opacity:1"
       id="path4485"
       cx="103.282"
       cy="101.39732"
       rx="31.538349"
       ry="65.367218" />
    <ellipse
       style="opacity:1;fill:none;fill-opacity:1;stroke:#000000;stroke-width:0.3681517;stroke-miterlimit:4;stroke-dasharray:1.10445511,1.10445511;stroke-dashoffset:0;stroke-opacity:1"
       id="path4487"
       transform="matrix(0.68011168,0.73310852,-0.40379282,0.91485046,0,0)"
       cx="147.36473"
       cy="-7.7182631"
       rx="40.403511"
       ry="22.132122" />
    <path
       style="fill:none;stroke:#000000;stroke-width:0.35277779;stroke-linecap:butt;stroke-linejoin:miter;stroke-miterlimit:4;stroke-dasharray:none;stroke-opacity:1;marker-end:url(#Arrow1Lend)"
       d="M 103.58927,101.13598 141.22969,64.645675"
       id="path4489"
       inkscape:connector-curvature="0" />
    <path
       inkscape:connector-curvature="0"
       id="path4491"
       d="m 103.67591,101.03346 24.91754,31.92452"
       style="fill:none;stroke:#000000;stroke-width:0.35277779;stroke-linecap:butt;stroke-linejoin:miter;stroke-miterlimit:4;stroke-dasharray:none;stroke-opacity:1;marker-end:url(#marker4779)" />
    <path
       style="fill:none;stroke:#000000;stroke-width:0.35277779;stroke-linecap:butt;stroke-linejoin:miter;stroke-miterlimit:4;stroke-dasharray:none;stroke-opacity:1;marker-end:url(#marker4813)"
       d="m 103.54088,101.1016 -16.727521,9.3219"
       id="path4493"
       inkscape:connector-curvature="0" />
    <g
       id="g4985"
       transform="translate(-31.502171,3.2785062)">
      <path
         inkscape:connector-curvature="0"
         id="path4861"
         style="fill:#000000;fill-opacity:1;fill-rule:nonzero;stroke:none"
         d="m 171.15915,56.016659 c -0.1997,0.07881 -0.25416,0.260423 -0.25416,0.345122 0,0.157168 0.12707,0.247977 0.2602,0.247977 0.14523,0 0.36916,-0.120933 0.36916,-0.411481 0,-0.320666 -0.32072,-0.532408 -0.86536,-0.532408 -0.17552,0 -0.51438,0.012 -0.79277,0.223746 -0.27232,0.205849 -0.36912,0.556864 -0.36912,0.708139 0,0.1814 0.0847,0.351008 0.21785,0.459938 0.16945,0.133161 0.27232,0.151275 0.68379,0.229862 0.18156,0.03034 0.54465,0.09692 0.54465,0.369129 0,0.02423 0,0.574978 -0.90165,0.574978 -0.29654,0 -0.52046,-0.06047 -0.65358,-0.157387 0.20574,-0.06047 0.33282,-0.235973 0.33282,-0.417591 0,-0.217853 -0.17548,-0.27832 -0.29653,-0.27832 -0.20574,0 -0.4357,0.16939 -0.4357,0.471947 0,0.39336 0.42362,0.599204 1.04088,0.599204 1.37974,0 1.37974,-1.034916 1.37974,-1.040808 0,-0.20585 -0.10288,-0.369347 -0.24206,-0.490286 -0.1876,-0.163279 -0.41757,-0.205844 -0.62937,-0.242085 -0.33283,-0.06047 -0.56886,-0.102812 -0.56886,-0.326776 0,-0.01201 0,-0.466055 0.6778,-0.466055 0.12102,0 0.33885,0.01222 0.50227,0.133155" />
      <path
         inkscape:connector-curvature="0"
         id="path4863"
         style="fill:#000000;fill-opacity:1;fill-rule:nonzero;stroke:none"
         d="m 173.36921,53.033713 c -0.80396,0.566901 -1.01553,1.46408 -1.01553,2.111528 0,0.596594 0.17771,1.523235 1.01553,2.115679 0.0339,0 0.0846,0 0.0846,-0.05086 0,-0.02532 -0.0127,-0.03384 -0.0423,-0.06352 -0.56278,-0.507745 -0.77013,-1.227014 -0.77013,-1.997142 0,-1.142535 0.43584,-1.701146 0.78281,-2.014171 0.0169,-0.01703 0.0296,-0.02969 0.0296,-0.05087 0,-0.05064 -0.0508,-0.05064 -0.0846,-0.05064" />
      <path
         inkscape:connector-curvature="0"
         id="path4865"
         style="fill:#000000;fill-opacity:1;fill-rule:nonzero;stroke:none"
         d="m 175.17282,53.516134 c 0,-0.114385 -0.008,-0.11853 -0.12696,-0.11853 -0.27081,0.266535 -0.65585,0.27068 -0.82933,0.27068 l 0,0.152368 c 0.10153,0 0.38081,0 0.61353,-0.118312 l 0,2.157806 c 0,0.139709 0,0.194714 -0.42313,0.194714 l -0.1608,0 0,0.152368 c 0.0762,-0.0041 0.59662,-0.01702 0.75322,-0.01702 0.13113,0 0.6643,0.01288 0.7574,0.01702 l 0,-0.152368 -0.16079,0 c -0.42314,0 -0.42314,-0.05501 -0.42314,-0.194714 l 0,-2.344012" />
      <path
         inkscape:connector-curvature="0"
         id="path4867"
         style="fill:#000000;fill-opacity:1;fill-rule:nonzero;stroke:none"
         d="m 176.54603,53.033713 c -0.0296,0 -0.0804,0 -0.0804,0.05064 0,0.02118 0.0127,0.03384 0.0381,0.06352 0.36389,0.334422 0.77014,0.905468 0.77014,1.997361 0,0.884301 -0.27505,1.552928 -0.73206,1.967462 -0.072,0.07203 -0.0762,0.07618 -0.0762,0.09736 0,0.02117 0.0127,0.05086 0.055,0.05086 0.0508,0 0.45274,-0.279412 0.73202,-0.80833 0.1862,-0.351233 0.30892,-0.808112 0.30892,-1.303198 0,-0.596588 -0.17772,-1.523236 -1.01557,-2.115679" />
    </g>
    <g
       id="g4991"
       transform="translate(-26.513139,0.85526249)">
      <path
         inkscape:connector-curvature="0"
         id="path4869"
         style="fill:#000000;fill-opacity:1;fill-rule:nonzero;stroke:none"
         d="m 171.15915,65.68925 c -0.1997,0.07865 -0.25416,0.260205 -0.25416,0.344946 0,0.15732 0.12707,0.248086 0.2602,0.248086 0.14523,0 0.36916,-0.121018 0.36916,-0.411499 0,-0.32069 -0.32072,-0.532432 -0.86536,-0.532432 -0.17552,0 -0.51438,0.012 -0.79277,0.223746 -0.27232,0.205807 -0.36912,0.556815 -0.36912,0.708072 0,0.181576 0.0847,0.351014 0.21785,0.45992 0.16945,0.133155 0.27232,0.151293 0.68379,0.229965 0.18156,0.03026 0.54465,0.09683 0.54465,0.369153 0,0.02421 0,0.574869 -0.90165,0.574869 -0.29654,0 -0.52046,-0.06048 -0.65358,-0.15732 0.20574,-0.06051 0.33282,-0.235998 0.33282,-0.417549 0,-0.217853 -0.17548,-0.278362 -0.29653,-0.278362 -0.20574,0 -0.4357,0.169414 -0.4357,0.472008 0,0.393342 0.42362,0.599082 1.04088,0.599082 1.37974,0 1.37974,-1.034812 1.37974,-1.040838 0,-0.205783 -0.10288,-0.369153 -0.24206,-0.490171 -0.1876,-0.163413 -0.41757,-0.205765 -0.62937,-0.242066 -0.33283,-0.06053 -0.56886,-0.102898 -0.56886,-0.326777 0,-0.01212 0,-0.466097 0.6778,-0.466097 0.12102,0 0.33885,0.01222 0.50227,0.133264" />
      <path
         inkscape:connector-curvature="0"
         id="path4871"
         style="fill:#000000;fill-opacity:1;fill-rule:nonzero;stroke:none"
         d="m 173.36921,62.706195 c -0.80396,0.566901 -1.01553,1.46408 -1.01553,2.111528 0,0.596594 0.17771,1.523235 1.01553,2.115612 0.0339,0 0.0846,0 0.0846,-0.05078 0,-0.02538 -0.0127,-0.03383 -0.0423,-0.06348 -0.56278,-0.507769 -0.77013,-1.22708 -0.77013,-1.997209 0,-1.142541 0.43584,-1.701146 0.78281,-2.014177 0.0169,-0.01702 0.0296,-0.02969 0.0296,-0.05086 0,-0.05064 -0.0508,-0.05064 -0.0846,-0.05064" />
      <path
         inkscape:connector-curvature="0"
         id="path4873"
         style="fill:#000000;fill-opacity:1;fill-rule:nonzero;stroke:none"
         d="m 175.89216,65.109581 -0.14388,0 c -0.0127,0.09299 -0.055,0.342719 -0.11,0.385065 -0.0339,0.02532 -0.35969,0.02532 -0.41892,0.02532 l -0.77858,0 c 0.44429,-0.39336 0.5924,-0.511896 0.8463,-0.71076 0.31311,-0.249725 0.60508,-0.512109 0.60508,-0.913983 0,-0.512108 -0.44852,-0.82514 -0.99017,-0.82514 -0.52469,0 -0.88011,0.368037 -0.88011,0.75747 0,0.215669 0.18193,0.236848 0.22425,0.236848 0.10155,0 0.22425,-0.07182 0.22425,-0.224189 0,-0.07618 -0.0296,-0.224401 -0.24963,-0.224401 0.13115,-0.300372 0.4189,-0.39336 0.61776,-0.39336 0.42316,0 0.64319,0.330054 0.64319,0.672772 0,0.368036 -0.26234,0.660113 -0.39774,0.812263 l -1.01979,1.007219 c -0.0423,0.03804 -0.0423,0.04651 -0.0423,0.165002 l 1.74332,0 0.12696,-0.770129" />
      <path
         inkscape:connector-curvature="0"
         id="path4875"
         style="fill:#000000;fill-opacity:1;fill-rule:nonzero;stroke:none"
         d="m 176.54603,62.706195 c -0.0296,0 -0.0804,0 -0.0804,0.05064 0,0.02117 0.0127,0.03384 0.0381,0.06353 0.36389,0.334422 0.77014,0.905468 0.77014,1.997361 0,0.884253 -0.27505,1.552837 -0.73206,1.967522 -0.072,0.07193 -0.0762,0.07617 -0.0762,0.09731 0,0.02113 0.0127,0.05078 0.055,0.05078 0.0508,0 0.45274,-0.279279 0.73202,-0.808221 0.1862,-0.351166 0.30892,-0.80816 0.30892,-1.30324 0,-0.596594 -0.17772,-1.523236 -1.01557,-2.115679" />
    </g>
    <g
       id="g4997"
       transform="translate(-36.633746,59.725831)">
      <path
         inkscape:connector-curvature="0"
         id="path4877"
         style="fill:#000000;fill-opacity:1;fill-rule:nonzero;stroke:none"
         d="m 173.38006,76.307914 c 0.0363,-0.07865 0.0363,-0.102855 0.0363,-0.108905 0,-0.108923 -0.11497,-0.108923 -0.14523,-0.108923 -0.0968,0 -0.10285,0.01209 -0.17548,0.175507 -0.36308,0.798766 -0.67775,1.198176 -1.70049,1.198176 l -0.78669,0 c -0.0908,0 -0.10287,0 -0.14523,-0.006 l 0.42361,-1.70049 0.41755,0 c 0.35706,0 0.47805,0.05446 0.47805,0.260205 0,0.09683 -0.0423,0.260205 -0.0484,0.278386 l -0.006,0.06051 c 0,0.09077 0.0786,0.108905 0.13916,0.108905 0.11498,0 0.12105,-0.03628 0.1513,-0.145225 l 0.33885,-1.349476 c 0.0242,-0.07865 0.0242,-0.09077 0.0242,-0.09683 0,-0.108905 -0.12102,-0.108905 -0.14522,-0.108905 -0.115,0 -0.12709,0.04235 -0.15735,0.15732 -0.12102,0.45385 -0.30257,0.550685 -0.75644,0.550685 l -0.36309,0 0.38127,-1.543122 c 0.0786,-0.01209 0.14523,-0.01209 0.20574,-0.01209 l 0.79272,0 c 0.65961,0 0.92591,0.145231 0.92591,0.720118 0,0.10893 -0.0242,0.242067 -0.0242,0.338902 0,0.114973 0.11499,0.114973 0.14525,0.114973 0.12707,0 0.13316,-0.06053 0.14523,-0.169462 l 0.10893,-1.083227 0.006,-0.09683 c 0,-0.108906 -0.10288,-0.108906 -0.19971,-0.108906 l -3.35251,0 c -0.12708,0 -0.13315,0.0061 -0.16341,0.03025 -0.0424,0.03026 -0.0545,0.139205 -0.0545,0.145231 0,0.108948 0.0847,0.108948 0.24814,0.108948 0.12705,0 0.24206,0.006 0.36911,0.01209 l -0.85324,3.413051 c -0.0242,0.09679 -0.0302,0.102861 -0.13919,0.114974 -0.10287,0.006 -0.22389,0.006 -0.32072,0.006 -0.15734,0 -0.16945,0 -0.19366,0.01211 -0.0726,0.04237 -0.0726,0.139206 -0.0726,0.16337 0,0.108948 0.10287,0.108948 0.20577,0.108948 l 3.45542,0 c 0.14523,0 0.16942,0 0.22388,-0.127086 l 0.58096,-1.313199" />
      <path
         inkscape:connector-curvature="0"
         id="path4879"
         style="fill:#000000;fill-opacity:1;fill-rule:nonzero;stroke:none"
         d="m 175.38404,71.920196 c -0.80396,0.567016 -1.01553,1.46408 -1.01553,2.111491 0,0.596631 0.17771,1.523345 1.01553,2.115722 0.0339,0 0.0846,0 0.0846,-0.05078 0,-0.02539 -0.0127,-0.03384 -0.0423,-0.06348 -0.56278,-0.507764 -0.77013,-1.227099 -0.77013,-1.997234 0,-1.142467 0.43584,-1.70103 0.78281,-2.014147 0.0169,-0.01694 0.0296,-0.02964 0.0296,-0.05078 0,-0.0508 -0.0508,-0.0508 -0.0846,-0.0508" />
      <path
         inkscape:connector-curvature="0"
         id="path4881"
         style="fill:#000000;fill-opacity:1;fill-rule:nonzero;stroke:none"
         d="m 177.18765,72.402599 c 0,-0.114276 -0.008,-0.118512 -0.12696,-0.118512 -0.27081,0.266602 -0.65585,0.270837 -0.82933,0.270837 l 0,0.152326 c 0.10153,0 0.38081,0 0.61353,-0.118469 l 0,2.158024 c 0,0.139642 0,0.194653 -0.42313,0.194653 l -0.1608,0 0,0.152326 c 0.0762,-0.0042 0.59661,-0.01692 0.75322,-0.01692 0.13112,0 0.6643,0.01268 0.7574,0.01692 l 0,-0.152326 -0.16079,0 c -0.42314,0 -0.42314,-0.05501 -0.42314,-0.194653 l 0,-2.344206" />
      <path
         inkscape:connector-curvature="0"
         id="path4883"
         style="fill:#000000;fill-opacity:1;fill-rule:nonzero;stroke:none"
         d="m 178.56085,71.920196 c -0.0296,0 -0.0804,0 -0.0804,0.0508 0,0.02113 0.0127,0.03383 0.0381,0.06348 0.36389,0.334295 0.77013,0.905517 0.77013,1.997215 0,0.884363 -0.27504,1.552941 -0.73206,1.967632 -0.0719,0.07192 -0.0762,0.07616 -0.0762,0.09731 0,0.02113 0.0127,0.05078 0.055,0.05078 0.0508,0 0.45274,-0.279285 0.73202,-0.808227 0.1862,-0.351166 0.30893,-0.808179 0.30893,-1.303265 0,-0.596606 -0.17774,-1.523296 -1.01559,-2.115721" />
    </g>
    <g
       id="g5003"
       transform="translate(-95.076687,28.936381)">
      <path
         inkscape:connector-curvature="0"
         id="path4885"
         style="fill:#000000;fill-opacity:1;fill-rule:nonzero;stroke:none"
         d="m 173.38006,85.980404 c 0.0363,-0.07865 0.0363,-0.102869 0.0363,-0.108908 0,-0.10894 -0.11497,-0.10894 -0.14523,-0.10894 -0.0968,0 -0.10285,0.01211 -0.17548,0.175519 -0.36308,0.798775 -0.67775,1.198181 -1.70049,1.198181 l -0.78669,0 c -0.0908,0 -0.10287,0 -0.14523,-0.006 l 0.42361,-1.700488 0.41755,0 c 0.35706,0 0.47805,0.05447 0.47805,0.260211 0,0.09683 -0.0423,0.26021 -0.0484,0.278389 l -0.006,0.06051 c 0,0.09076 0.0786,0.108905 0.13916,0.108905 0.11498,0 0.12105,-0.03629 0.1513,-0.145231 l 0.33886,-1.349477 c 0.0242,-0.07865 0.0242,-0.09076 0.0242,-0.09683 0,-0.108906 -0.12102,-0.108906 -0.14523,-0.108906 -0.115,0 -0.12709,0.04235 -0.15735,0.157323 -0.12102,0.453849 -0.30257,0.550683 -0.75644,0.550683 l -0.36309,0 0.38127,-1.543122 c 0.0786,-0.01209 0.14523,-0.01209 0.20574,-0.01209 l 0.79273,0 c 0.65961,0 0.9259,0.145229 0.9259,0.72012 0,0.108928 -0.0242,0.242063 -0.0242,0.338897 0,0.114974 0.11499,0.114974 0.14525,0.114974 0.12707,0 0.13316,-0.06053 0.14523,-0.169459 l 0.10893,-1.083226 0.006,-0.09683 c 0,-0.108905 -0.10288,-0.108905 -0.19971,-0.108905 l -3.3525,0 c -0.12709,0 -0.13316,0.006 -0.16341,0.03025 -0.0424,0.03025 -0.0545,0.139204 -0.0545,0.145229 0,0.10895 0.0847,0.10895 0.24813,0.10895 0.12705,0 0.24207,0.006 0.36912,0.01209 l -0.85325,3.413061 c -0.0242,0.0968 -0.0302,0.102869 -0.13919,0.114976 -0.10287,0.006 -0.22389,0.006 -0.32072,0.006 -0.15734,0 -0.16945,0 -0.19366,0.01211 -0.0726,0.04236 -0.0726,0.139194 -0.0726,0.163377 0,0.108941 0.10287,0.108941 0.20577,0.108941 l 3.45542,0 c 0.14523,0 0.16942,0 0.22388,-0.127087 l 0.58096,-1.313192" />
      <path
         inkscape:connector-curvature="0"
         id="path4887"
         style="fill:#000000;fill-opacity:1;fill-rule:nonzero;stroke:none"
         d="m 175.38404,81.594863 c -0.80396,0.567011 -1.01553,1.464078 -1.01553,2.111486 0,0.596634 0.17771,1.523345 1.01553,2.115726 0.0339,0 0.0846,0 0.0846,-0.05079 0,-0.02538 -0.0127,-0.03384 -0.0423,-0.06347 -0.56278,-0.507762 -0.77013,-1.227097 -0.77013,-1.997229 0,-1.14247 0.43584,-1.701034 0.78281,-2.014151 0.0169,-0.01694 0.0296,-0.02964 0.0296,-0.05077 0,-0.0508 -0.0508,-0.0508 -0.0846,-0.0508" />
      <path
         inkscape:connector-curvature="0"
         id="path4889"
         style="fill:#000000;fill-opacity:1;fill-rule:nonzero;stroke:none"
         d="m 177.90699,83.998314 -0.14388,0 c -0.0127,0.09308 -0.055,0.342761 -0.11,0.385087 -0.0339,0.02537 -0.3597,0.02537 -0.41892,0.02537 l -0.77858,0 c 0.44429,-0.393536 0.5924,-0.51198 0.84629,-0.710866 0.31312,-0.249681 0.60509,-0.512001 0.60509,-0.914007 0,-0.511979 -0.44853,-0.82514 -0.99017,-0.82514 -0.52469,0 -0.88011,0.36817 -0.88011,0.757449 0,0.215802 0.18192,0.236955 0.22425,0.236955 0.10155,0 0.22425,-0.07195 0.22425,-0.224273 0,-0.07616 -0.0296,-0.22425 -0.24963,-0.22425 0.13114,-0.300434 0.41889,-0.393514 0.61776,-0.393514 0.42315,0 0.64319,0.330035 0.64319,0.672773 0,0.368149 -0.26234,0.660113 -0.39775,0.812436 l -1.01978,1.007109 c -0.0423,0.03805 -0.0423,0.04652 -0.0423,0.165006 l 1.74332,0 0.12696,-0.770131" />
      <path
         inkscape:connector-curvature="0"
         id="path4891"
         style="fill:#000000;fill-opacity:1;fill-rule:nonzero;stroke:none"
         d="m 178.56085,81.594863 c -0.0296,0 -0.0804,0 -0.0804,0.0508 0,0.02113 0.0127,0.03384 0.0381,0.06348 0.36389,0.334291 0.77013,0.905516 0.77013,1.997211 0,0.884364 -0.27504,1.552945 -0.73206,1.967629 -0.0719,0.07193 -0.0762,0.07616 -0.0762,0.09731 0,0.02115 0.0127,0.05079 0.055,0.05079 0.0508,0 0.45274,-0.279277 0.73202,-0.808227 0.1862,-0.351165 0.30893,-0.808179 0.30893,-1.303264 0,-0.596611 -0.17774,-1.523301 -1.01559,-2.115721" />
    </g>
  </g>
</svg>
