<?xml version="1.0" encoding="UTF-8" standalone="no"?>
<!-- Created with Inkscape (http://www.inkscape.org/) -->

<svg
   xmlns:dc="http://purl.org/dc/elements/1.1/"
   xmlns:cc="http://creativecommons.org/ns#"
   xmlns:rdf="http://www.w3.org/1999/02/22-rdf-syntax-ns#"
   xmlns:svg="http://www.w3.org/2000/svg"
   xmlns="http://www.w3.org/2000/svg"
   xmlns:sodipodi="http://sodipodi.sourceforge.net/DTD/sodipodi-0.dtd"
   xmlns:inkscape="http://www.inkscape.org/namespaces/inkscape"
   width="182.53699mm"
   height="186.39336mm"
   viewBox="0 0 646.7846 660.4489"
   id="svg2"
   version="1.1"
   inkscape:version="0.91 r13725"
   sodipodi:docname="fresnel.svg">
  <sodipodi:namedview
     id="base"
     pagecolor="#ffffff"
     bordercolor="#666666"
     borderopacity="1.0"
     inkscape:pageopacity="0.0"
     inkscape:pageshadow="2"
     inkscape:zoom="0.7"
     inkscape:cx="151.47497"
     inkscape:cy="237.21581"
     inkscape:document-units="px"
     inkscape:current-layer="layer1"
     showgrid="false"
     objecttolerance="20"
     guidetolerance="10000"
     inkscape:snap-tangential="false"
     inkscape:snap-perpendicular="false"
     showguides="true"
     inkscape:window-width="1440"
     inkscape:window-height="782"
     inkscape:window-x="0"
     inkscape:window-y="0"
     inkscape:window-maximized="1"
     inkscape:snap-global="false"
     inkscape:snap-nodes="true"
     inkscape:snap-bbox="true"
     inkscape:bbox-nodes="false"
     inkscape:snap-object-midpoints="false"
     inkscape:snap-grids="true"
     inkscape:snap-to-guides="true"
     inkscape:snap-midpoints="false"
     inkscape:object-paths="false"
     inkscape:snap-intersection-paths="false"
     inkscape:object-nodes="true"
     inkscape:bbox-paths="false"
     fit-margin-left="1"
     fit-margin-bottom="1"
     fit-margin-right="1"
     fit-margin-top="1">
    <inkscape:grid
       id="grid4144"
       type="xygrid"
       originx="-52.992302"
       originy="-223.10527" />
  </sodipodi:namedview>
  <defs
     id="defs4">
    <marker
       inkscape:stockid="Arrow1Lend"
       orient="auto"
       refY="0"
       refX="0"
       id="marker6945"
       style="overflow:visible"
       inkscape:isstock="true">
      <path
         id="path6947"
         d="M 0,0 5,-5 -12.5,0 5,5 0,0 Z"
         style="fill:#000000;fill-opacity:1;fill-rule:evenodd;stroke:#000000;stroke-width:1pt;stroke-opacity:1"
         transform="matrix(-0.8,0,0,-0.8,-10,0)"
         inkscape:connector-curvature="0" />
    </marker>
    <marker
       inkscape:isstock="true"
       style="overflow:visible"
       id="marker6909"
       refX="0"
       refY="0"
       orient="auto"
       inkscape:stockid="Arrow1Lend"
       inkscape:collect="always">
      <path
         transform="matrix(-0.8,0,0,-0.8,-10,0)"
         style="fill:#000000;fill-opacity:1;fill-rule:evenodd;stroke:#000000;stroke-width:1pt;stroke-opacity:1"
         d="M 0,0 5,-5 -12.5,0 5,5 0,0 Z"
         id="path6911"
         inkscape:connector-curvature="0" />
    </marker>
    <marker
       inkscape:stockid="Arrow1Lend"
       orient="auto"
       refY="0"
       refX="0"
       id="marker6875"
       style="overflow:visible"
       inkscape:isstock="true"
       inkscape:collect="always">
      <path
         id="path6877"
         d="M 0,0 5,-5 -12.5,0 5,5 0,0 Z"
         style="fill:#000000;fill-opacity:1;fill-rule:evenodd;stroke:#000000;stroke-width:1pt;stroke-opacity:1"
         transform="matrix(-0.8,0,0,-0.8,-10,0)"
         inkscape:connector-curvature="0" />
    </marker>
    <marker
       inkscape:stockid="Arrow1Lend"
       orient="auto"
       refY="0"
       refX="0"
       id="marker4915"
       style="overflow:visible"
       inkscape:isstock="true">
      <path
         id="path4917"
         d="M 0,0 5,-5 -12.5,0 5,5 0,0 Z"
         style="fill:#000000;fill-opacity:1;fill-rule:evenodd;stroke:#000000;stroke-width:1pt;stroke-opacity:1"
         transform="matrix(-0.8,0,0,-0.8,-10,0)"
         inkscape:connector-curvature="0" />
    </marker>
    <marker
       inkscape:stockid="Arrow1Lend"
       orient="auto"
       refY="0"
       refX="0"
       id="marker4676"
       style="overflow:visible"
       inkscape:isstock="true">
      <path
         id="path4678"
         d="M 0,0 5,-5 -12.5,0 5,5 0,0 Z"
         style="fill:#000000;fill-opacity:1;fill-rule:evenodd;stroke:#000000;stroke-width:1pt;stroke-opacity:1"
         transform="matrix(-0.8,0,0,-0.8,-10,0)"
         inkscape:connector-curvature="0" />
    </marker>
    <marker
       inkscape:isstock="true"
       style="overflow:visible"
       id="marker4504"
       refX="0"
       refY="0"
       orient="auto"
       inkscape:stockid="Arrow1Lend"
       inkscape:collect="always">
      <path
         transform="matrix(-0.8,0,0,-0.8,-10,0)"
         style="fill:#000000;fill-opacity:1;fill-rule:evenodd;stroke:#000000;stroke-width:1pt;stroke-opacity:1"
         d="M 0,0 5,-5 -12.5,0 5,5 0,0 Z"
         id="path4506"
         inkscape:connector-curvature="0" />
    </marker>
    <marker
       inkscape:stockid="Arrow1Lend"
       orient="auto"
       refY="0"
       refX="0"
       id="Arrow1Lend"
       style="overflow:visible"
       inkscape:isstock="true"
       inkscape:collect="always">
      <path
         id="path4214"
         d="M 0,0 5,-5 -12.5,0 5,5 0,0 Z"
         style="fill:#000000;fill-opacity:1;fill-rule:evenodd;stroke:#000000;stroke-width:1pt;stroke-opacity:1"
         transform="matrix(-0.8,0,0,-0.8,-10,0)"
         inkscape:connector-curvature="0" />
    </marker>
    <clipPath
       id="clipPath6034"
       clipPathUnits="userSpaceOnUse">
      <path
         inkscape:connector-curvature="0"
         id="path6036"
         d="M 0,0 34,0 34,104 0,104 0,0 Z" />
    </clipPath>
    <clipPath
       id="clipPath6497"
       clipPathUnits="userSpaceOnUse">
      <path
         inkscape:connector-curvature="0"
         id="path6499"
         d="M 0,0 23,0 23,131 0,131 0,0 Z" />
    </clipPath>
  </defs>
  <metadata
     id="metadata7">
    <rdf:RDF>
      <cc:Work
         rdf:about="">
        <dc:format>image/svg+xml</dc:format>
        <dc:type
           rdf:resource="http://purl.org/dc/dcmitype/StillImage" />
        <dc:title></dc:title>
      </cc:Work>
    </rdf:RDF>
  </metadata>
  <g
     id="layer1"
     inkscape:groupmode="layer"
     inkscape:label="Layer 1"
     transform="translate(-52.992303,-168.80803)">
    <path
       style="opacity:1;fill:#000000;fill-opacity:0.00246403;fill-rule:nonzero;stroke:#000000;stroke-width:1.00050521;stroke-miterlimit:4;stroke-dasharray:none;stroke-dashoffset:0;stroke-opacity:0.94230772"
       id="path5844"
       transform="matrix(0.97977208,-0.20011666,0.24393748,0.96979096,0,0)"
       sodipodi:type="arc"
       sodipodi:cx="148.82115"
       sodipodi:cy="586.69067"
       sodipodi:rx="288.76495"
       sodipodi:ry="172.39557"
       sodipodi:start="0.2044993"
       sodipodi:end="2.1916955"
       d="M 431.56905,621.70023 A 288.76495,172.39557 0 0 1 253.96925,747.25094 288.76495,172.39557 0 0 1 -19.172695,726.90959"
       sodipodi:open="true" />
    <path
       inkscape:connector-curvature="0"
       id="path4138"
       d="m 311.0497,518.32505 0,-311.42857"
       style="fill:none;fill-rule:evenodd;stroke:#000000;stroke-width:1px;stroke-linecap:butt;stroke-linejoin:miter;stroke-opacity:1;marker-end:url(#Arrow1Lend)" />
    <path
       style="fill:none;fill-rule:evenodd;stroke:#000000;stroke-width:1px;stroke-linecap:butt;stroke-linejoin:miter;stroke-opacity:1;marker-end:url(#marker4504)"
       d="m 311.0497,518.32505 311.42857,0"
       id="path4502"
       inkscape:connector-curvature="0" />
    <path
       inkscape:connector-curvature="0"
       id="path4913"
       d="M 311.07972,518.28962 119.32684,757.56279"
       style="fill:none;fill-rule:evenodd;stroke:#000000;stroke-width:1px;stroke-linecap:butt;stroke-linejoin:miter;stroke-opacity:1;marker-end:url(#marker4915)" />
    <path
       style="opacity:1;fill:#000000;fill-opacity:0.00246403;fill-rule:nonzero;stroke:#000000;stroke-width:1;stroke-miterlimit:4;stroke-dasharray:none;stroke-dashoffset:0;stroke-opacity:0.94230772"
       id="path5757"
       sodipodi:type="arc"
       sodipodi:cx="311.29291"
       sodipodi:cy="518.17987"
       sodipodi:rx="173.57144"
       sodipodi:ry="172.14287"
       sodipodi:start="4.712389"
       sodipodi:end="0"
       d="M 311.29291,346.037 A 173.57144,172.14287 0 0 1 484.86435,518.17987"
       sodipodi:open="true" />
    <path
       sodipodi:open="true"
       d="M 311.17652,300.05635 A 263.57144,218.19041 0 0 1 574.74796,518.24677"
       sodipodi:end="0"
       sodipodi:start="4.712389"
       sodipodi:ry="218.19041"
       sodipodi:rx="263.57144"
       sodipodi:cy="518.24677"
       sodipodi:cx="311.17651"
       sodipodi:type="arc"
       id="path5759"
       style="opacity:1;fill:#000000;fill-opacity:0.00246403;fill-rule:nonzero;stroke:#000000;stroke-width:0.99999994;stroke-miterlimit:4;stroke-dasharray:none;stroke-dashoffset:0;stroke-opacity:0.94230772" />
    <path
       style="opacity:1;fill:#000000;fill-opacity:0.00246403;fill-rule:nonzero;stroke:#000000;stroke-width:1.00069737;stroke-miterlimit:4;stroke-dasharray:none;stroke-dashoffset:0;stroke-opacity:0.94230772"
       id="path5761"
       transform="matrix(0.94054373,-0.33967262,0.38883428,0.92130771,0,0)"
       sodipodi:type="arc"
       sodipodi:cx="85.117805"
       sodipodi:cy="594.00732"
       sodipodi:rx="185.65192"
       sodipodi:ry="118.43974"
       sodipodi:start="0.52359878"
       sodipodi:end="2.3920939"
       d="M 245.89708,653.2272 A 185.65192,118.43974 0 0 1 106.04263,711.69236 185.65192,118.43974 0 0 1 -50.78505,674.697"
       sodipodi:open="true" />
    <path
       style="fill:none;fill-rule:evenodd;stroke:#000000;stroke-width:1px;stroke-linecap:butt;stroke-linejoin:miter;stroke-opacity:1"
       d="m 214.57976,638.85383 c 0,-332.20593 96.58096,-338.63451 96.58096,-338.63451"
       id="path5871"
       inkscape:connector-curvature="0" />
    <path
       style="fill:none;fill-rule:evenodd;stroke:#000000;stroke-width:1px;stroke-linecap:butt;stroke-linejoin:miter;stroke-opacity:1"
       d="m 158.53562,708.78712 c 0,-335.71065 152.21256,-362.52157 152.21256,-362.52157"
       id="path5879"
       inkscape:connector-curvature="0" />
    <path
       style="fill:none;fill-rule:evenodd;stroke:#000000;stroke-width:1;stroke-linecap:butt;stroke-linejoin:miter;stroke-miterlimit:4;stroke-dasharray:3, 3;stroke-dashoffset:0;stroke-opacity:1"
       d="M 311.07972,518.28962 243.125,391.6479"
       id="path5965"
       inkscape:connector-curvature="0" />
    <path
       style="opacity:1;fill:#000000;fill-opacity:0.00246403;fill-rule:nonzero;stroke:#000000;stroke-width:0.99999994;stroke-miterlimit:4;stroke-dasharray:none;stroke-dashoffset:0;stroke-opacity:0.94230772"
       id="path5978"
       sodipodi:type="arc"
       sodipodi:cx="120.94791"
       sodipodi:cy="597.54407"
       sodipodi:rx="48.663677"
       sodipodi:ry="48.531261"
       sodipodi:start="4.225863"
       sodipodi:end="4.71696"
       d="m 98.194824,554.64425 a 48.663677,48.531261 0 0 1 22.975526,-5.63094"
       transform="matrix(0.93269446,-0.36066749,0.36066749,0.93269446,0,0)"
       sodipodi:open="true" />
    <g
       id="g6715"
       transform="translate(-562.85714,587.14286)">
      <path
         inkscape:connector-curvature="0"
         id="path6501"
         style="fill:#000000;fill-opacity:1;fill-rule:nonzero;stroke:none"
         d="m 645.62181,191.97755 c -0.11912,0.59602 -0.35761,1.51037 -0.35761,1.70838 0,0.71515 0.55624,1.07331 1.15232,1.07331 0.47675,0 1.19175,-0.31832 1.46986,-1.11195 0.0399,-0.0805 0.5166,-1.94783 0.75485,-2.94106 l 0.87421,-3.57532 c 0.23826,-0.87451 0.47673,-1.74862 0.67536,-2.66137 0.15876,-0.67531 0.47673,-1.82751 0.51637,-1.98647 0.59609,-1.23228 2.70167,-4.84665 6.4759,-4.84665 1.78783,0 2.14554,1.46894 2.14554,2.7801 0,2.46337 -1.94691,7.54826 -2.58264,9.25783 -0.35742,0.91315 -0.39726,1.39045 -0.39726,1.8275 0,1.86735 1.39056,3.25739 3.25792,3.25739 3.73472,0 5.20454,-5.80123 5.20454,-6.11796 0,-0.39841 -0.35771,-0.39841 -0.4768,-0.39841 -0.39726,0 -0.39726,0.12032 -0.5959,0.71514 -0.79467,2.70281 -2.10569,4.92713 -4.0523,4.92713 -0.67557,0 -0.95346,-0.39722 -0.95346,-1.31157 0,-0.99283 0.35728,-1.94583 0.71499,-2.82033 0.75482,-2.1052 2.42356,-6.47614 2.42356,-8.7407 0,-2.66097 -1.70843,-4.25062 -4.56909,-4.25062 -3.57559,0 -5.52218,2.54264 -6.19775,3.45699 -0.19863,-2.22591 -1.82747,-3.45699 -3.65493,-3.45699 -1.82768,0 -2.58253,1.54941 -2.97977,2.26455 -0.63573,1.35141 -1.19196,3.69445 -1.19196,3.85342 0,0.39721 0.39724,0.39721 0.47673,0.39721 0.39748,0 0.43711,-0.0402 0.67536,-0.91276 0.67559,-2.82193 1.47007,-4.72792 2.90029,-4.72792 0.79471,0 1.2316,0.51594 1.2316,1.82711 0,0.83387 -0.11914,1.27132 -0.63551,3.33787 l -2.30442,9.17615" />
      <path
         inkscape:connector-curvature="0"
         id="path6503"
         style="fill:#000000;fill-opacity:1;fill-rule:nonzero;stroke:none"
         d="m 673.48688,202.18559 c 0.19461,0.0562 0.88896,0.30677 1.13919,0.39004 1.36118,0.47132 1.72218,0.58327 1.72218,1.2781 0,0.38844 -0.3054,1.30558 -1.24997,1.30558 -0.41675,0 -1.50034,-0.0845 -2.69471,-0.77809 -0.19461,-0.16773 -0.25007,-0.16773 -0.36114,-0.16773 -0.16668,0 -0.38895,0.11195 -0.38895,0.39004 0,0.5 1.94446,1.33268 3.4448,1.33268 1.91681,0 3.02791,-1.74981 3.02791,-3.02671 0,-1.05619 -0.58329,-1.61236 -1.16657,-1.91755 -0.22242,-0.11195 -3.69488,-1.30558 -4.00056,-1.38885 -2.69471,-0.94423 -4.19476,-1.44463 -4.19476,-3.05659 0,-0.99921 0.97237,-3.16576 3.33359,-4.41716 1.19465,0.39004 2.38902,0.39004 2.88904,0.39004 1.00032,0 2.88932,0 2.88932,-1.0275 0,-0.86136 -1.5836,-0.86136 -2.55584,-0.86136 -0.66669,0 -1.50005,0 -2.63924,0.38845 -0.74981,-0.61076 -0.94443,-1.50081 -0.94443,-2.16694 0,-1.58368 1.13905,-3.52831 3.22253,-4.50003 0.63903,0.69363 1.33338,0.69363 2.02801,0.69363 0.86131,0 2.75031,0 2.75031,-1.0275 0,-0.86136 -1.5558,-0.86136 -2.58363,-0.86136 -0.41676,0 -1.02784,0 -1.80574,0.11155 0,-0.0279 -0.11107,-0.47291 -0.11107,-0.83387 0,-0.30518 0.0555,-0.63944 0.11107,-0.94462 0.0278,-0.0279 0.0555,-0.13905 0.0555,-0.19483 0,-0.22191 -0.19433,-0.44422 -0.44441,-0.44422 -0.63889,0 -0.63889,1.05618 -0.63889,1.52909 0,0.11036 0,0.72072 0.13887,1.08208 -3.83361,1.02909 -5.16713,3.44504 -5.16713,5.25103 0,1.11196 0.52782,2.19404 1.83354,2.97213 -3.13926,1.7785 -4.02823,4.55581 -4.02823,5.72235 0,2.5283 2.6669,3.47253 3.55587,3.77931 l 2.83358,0.99881 z m 5.16713,-18.08458 c -0.22214,0.0562 -0.55563,0.16773 -1.66673,0.16773 -0.44441,0 -0.7779,0 -1.11124,-0.19482 0.50001,-0.13905 0.72229,-0.13905 1.30572,-0.13905 0.86116,0 1.02769,0.0279 1.47225,0.13905 l 0,0.0279 z m -1.88901,7.47375 c -0.38895,0.11036 -0.74995,0.16614 -1.69452,0.16614 -0.52797,0 -0.86117,0 -1.38899,-0.16614 0.72215,-0.16773 0.97223,-0.16773 1.61112,-0.16773 0.86131,0 0.94457,0.0279 1.47239,0.13905 l 0,0.0279" />
    </g>
    <g
       id="g6719"
       transform="translate(-12.857143,265.71429)">
      <path
         inkscape:connector-curvature="0"
         id="path6505"
         style="fill:#000000;fill-opacity:1;fill-rule:nonzero;stroke:none"
         d="m 645.62181,255.47916 c -0.11912,0.59642 -0.35761,1.51077 -0.35761,1.70838 0,0.71514 0.55624,1.07331 1.15232,1.07331 0.47675,0 1.19175,-0.31793 1.46986,-1.11196 0.0399,-0.0801 0.5166,-1.94742 0.75485,-2.94066 l 0.87421,-3.57572 c 0.23826,-0.8741 0.47673,-1.74861 0.67536,-2.66137 0.15876,-0.6749 0.47673,-1.8271 0.51637,-1.98646 0.59609,-1.23228 2.70167,-4.84665 6.4759,-4.84665 1.78783,0 2.14554,1.46893 2.14554,2.7801 0,2.46376 -1.94691,7.54825 -2.58264,9.25823 -0.35742,0.91275 -0.39726,1.39004 -0.39726,1.8271 0,1.86734 1.39056,3.25739 3.25792,3.25739 3.73472,0 5.20454,-5.80123 5.20454,-6.11797 0,-0.39841 -0.35771,-0.39841 -0.4768,-0.39841 -0.39726,0 -0.39726,0.12032 -0.5959,0.71515 -0.79467,2.7028 -2.10569,4.92712 -4.0523,4.92712 -0.67557,0 -0.95346,-0.39681 -0.95346,-1.31116 0,-0.99324 0.35728,-1.94623 0.71499,-2.82034 0.75482,-2.10559 2.42356,-6.47654 2.42356,-8.74069 0,-2.66138 -1.70843,-4.25063 -4.56909,-4.25063 -3.57559,0 -5.52218,2.54225 -6.19775,3.4566 -0.19863,-2.22551 -1.82747,-3.4566 -3.65493,-3.4566 -1.82768,0 -2.58253,1.54902 -2.97977,2.26416 -0.63573,1.3514 -1.19196,3.69484 -1.19196,3.85381 0,0.39681 0.39724,0.39681 0.47673,0.39681 0.39748,0 0.43711,-0.0398 0.67536,-0.91275 0.67559,-2.82193 1.47007,-4.72792 2.90029,-4.72792 0.79471,0 1.2316,0.51594 1.2316,1.8271 0,0.83427 -0.11914,1.27133 -0.63551,3.33787 l -2.30442,9.17616" />
      <path
         inkscape:connector-curvature="0"
         id="path6507"
         style="fill:#000000;fill-opacity:1;fill-rule:nonzero;stroke:none"
         d="m 681.48758,256.22896 c 0.19462,-0.77689 0.22227,-0.88885 0.22227,-1.52789 0,-0.44423 0,-1.61077 -1.02768,-2.41635 -0.47236,-0.36096 -1.27807,-0.74941 -2.58379,-0.74941 -1.16656,0 -2.88903,0.30518 -4.69477,2.49922 -0.19433,-2.08368 -2.08333,-2.49922 -2.94464,-2.49922 -1.08359,0 -1.75013,0.72072 -2.19469,1.47172 -0.55548,0.94463 -1.00003,2.61117 -1.00003,2.77771 0,0.36096 0.38895,0.36096 0.47221,0.36096 0.38895,0 0.41675,-0.0833 0.61108,-0.83268 0.41676,-1.61236 0.94458,-3.00081 2.02788,-3.00081 0.72244,0 0.91677,0.61195 0.91677,1.36136 0,0.52749 -0.24994,1.55619 -0.44427,2.30599 -0.19462,0.74941 -0.4725,1.88886 -0.61123,2.50081 l -0.88911,3.55541 c -0.11107,0.36135 -0.2776,1.05498 -0.2776,1.13944 0,0.61037 0.50002,0.88846 0.94457,0.88846 0.50002,0 0.94444,-0.36096 1.08331,-0.61196 0.13887,-0.2494 0.36114,-1.13786 0.50001,-1.72113 0.13887,-0.52868 0.44456,-1.80559 0.61109,-2.50081 0.16681,-0.61036 0.33348,-1.22232 0.47221,-1.86176 0.30569,-1.19364 0.30569,-1.24941 0.86131,-2.11077 0.88897,-1.36137 2.27795,-2.94504 4.44484,-2.94504 1.55566,0 1.63892,1.27809 1.63892,1.94463 0,0.751 -0.0555,1.00041 -0.19433,1.5279 l -3.13926,12.47378 c -0.11107,0.41714 -0.11107,0.55618 -0.11107,0.58328 0,0.61036 0.50002,0.88845 0.94457,0.88845 1.00004,0 1.25012,-0.94423 1.33352,-1.33268 l 3.02791,-12.16861" />
    </g>
    <g
       id="g6723"
       transform="translate(-347.14286,-131.42857)">
      <path
         inkscape:connector-curvature="0"
         id="path6509"
         style="fill:#000000;fill-opacity:1;fill-rule:nonzero;stroke:none"
         d="m 645.62181,318.99539 c -0.11912,0.59618 -0.35761,1.51052 -0.35761,1.70829 0,0.71515 0.55624,1.07344 1.15232,1.07344 0.47675,0 1.19175,-0.31817 1.46986,-1.11212 0.0399,-0.0803 0.5166,-1.94762 0.75485,-2.94078 l 0.87421,-3.57564 c 0.23826,-0.87423 0.47673,-1.74842 0.67536,-2.66133 0.15876,-0.67498 0.47673,-1.82722 0.51637,-1.98631 0.59609,-1.23248 2.70167,-4.8468 6.4759,-4.8468 1.78783,0 2.14554,1.46893 2.14554,2.78026 0,2.46352 -1.94691,7.54825 -2.58264,9.25798 -0.35742,0.91288 -0.39726,1.39013 -0.39726,1.82723 0,1.86734 1.39056,3.25751 3.25792,3.25751 3.73472,0 5.20454,-5.80131 5.20454,-6.11805 0,-0.39841 -0.35771,-0.39841 -0.4768,-0.39841 -0.39726,0 -0.39726,0.1204 -0.5959,0.71515 -0.79467,2.70288 -2.10569,4.92708 -4.0523,4.92708 -0.67557,0 -0.95346,-0.39698 -0.95346,-1.31132 0,-0.99316 0.35728,-1.94615 0.71499,-2.82038 0.75482,-2.10527 2.42356,-6.4763 2.42356,-8.74062 0,-2.66133 -1.70843,-4.25066 -4.56909,-4.25066 -3.57559,0 -5.52218,2.54237 -6.19775,3.45672 -0.19863,-2.22568 -1.82747,-3.45672 -3.65493,-3.45672 -1.82768,0 -2.58253,1.54921 -2.97977,2.26436 -0.63573,1.35144 -1.19196,3.69456 -1.19196,3.85365 0,0.39697 0.39724,0.39697 0.47673,0.39697 0.39748,0 0.43711,-0.0401 0.67536,-0.91287 0.67559,-2.82185 1.47007,-4.72788 2.90029,-4.72788 0.79471,0 1.2316,0.5159 1.2316,1.82722 0,0.83407 -0.11914,1.27116 -0.63551,3.33775 l -2.30442,9.17628" />
      <path
         inkscape:connector-curvature="0"
         id="path6511"
         style="fill:#000000;fill-opacity:1;fill-rule:nonzero;stroke:none"
         d="m 675.9315,311.50876 c 0.55577,0.55463 1.38898,0.55463 1.889,0.55463 0.86131,0 2.75031,0 2.75031,-1.02758 0,-0.83263 -1.44459,-0.86128 -2.47243,-0.86128 -0.47221,0 -1.1111,0 -1.83339,0.27801 -0.0278,-0.11036 -0.16667,-0.50016 -0.16667,-1.00032 0,-0.11036 0.0556,-0.63917 0.11106,-0.94443 0.0278,-0.0271 0.0556,-0.13901 0.0556,-0.1949 0,-0.22212 -0.19448,-0.44427 -0.44456,-0.44427 -0.63889,0 -0.63889,1.05622 -0.63889,1.52913 0,0.33252 0,0.83268 0.27774,1.41595 -3.58353,1.83439 -7.69501,6.72279 -7.69501,11.69573 0,1.5277 0.41675,2.83329 1.55565,3.99983 0.91677,0.91722 1.63907,1.11212 5.16699,2.19555 1.00018,0.27662 2.02816,0.61052 2.02816,1.83296 0,0.74953 -0.47222,1.63953 -1.38899,1.63953 -0.47236,0 -1.33352,-0.11179 -2.27809,-0.77821 -0.16682,-0.11179 -0.22228,-0.16765 -0.36115,-0.16765 -0.30569,0 -0.38895,0.25076 -0.38895,0.38981 0,0.41701 1.61141,1.33279 3.02819,1.33279 1.94461,0 3.13897,-1.97196 3.13897,-3.41655 0,-1.22248 -0.74995,-2.13966 -1.74998,-2.58396 -0.27789,-0.11032 -1.5558,-0.50013 -2.33356,-0.72228 -2.13908,-0.63917 -2.88932,-0.86132 -3.58367,-1.6667 -0.7501,-0.83268 -1.02784,-1.77711 -1.02784,-2.94365 0,-4.11166 3.44466,-8.55719 6.3615,-10.11214 z m 3.55601,-0.3898 c -0.38895,0.11175 -0.86131,0.16765 -1.63892,0.16765 -0.66683,0 -0.72244,0 -1.02812,-0.16765 0.44455,-0.16625 0.8335,-0.16625 1.25025,-0.16625 0.7779,0 0.88897,0.0271 1.41679,0.139 l 0,0.0271" />
    </g>
    <path
       d="m 307.48061,432.1787 c 0,-2.97947 -2.18509,-5.44299 -5.40331,-5.44299 -2.30418,0 -3.41671,0.6363 -4.80723,1.66814 -2.18507,1.58933 -4.37014,5.44302 -5.125,8.46261 l -6.31694,25.22872 c -0.0399,0.15909 0.15876,0.39698 0.47674,0.39698 0.31774,0 0.43688,-0.0788 0.47673,-0.19777 l 2.78094,-10.96625 c 0.75485,2.38472 2.50304,3.85365 5.40332,3.85365 2.90029,0 5.87981,-1.39013 7.66764,-3.13854 1.9072,-1.82723 3.17838,-4.36959 3.17838,-7.31037 0,-2.8605 -1.46996,-4.92565 -2.90022,-5.9188 2.30447,-1.31133 4.56895,-3.77485 4.56895,-6.63538 z m -7.15129,6.59526 c -0.51664,0.1992 -0.95346,0.27801 -1.90692,0.27801 -0.55625,0 -1.35096,0.0402 -1.74821,-0.15905 0.0795,-0.39697 1.50971,-0.31817 1.94684,-0.31817 0.83437,0 1.19165,0 1.70829,0.19921 z m 4.92636,-7.50957 c 0,2.78169 -1.50965,5.64219 -3.57564,6.87327 -1.07255,-0.39698 -1.86736,-0.47582 -3.05901,-0.47582 -0.83438,0 -3.0593,-0.0401 -3.0593,1.2712 -0.0396,1.11208 2.02631,0.99316 2.74131,0.99316 1.47008,0 2.06597,-0.0401 3.25791,-0.51594 1.50965,1.43025 1.70828,2.66133 1.74798,4.48855 0.0794,2.30448 -0.87407,5.28394 -1.98646,6.83315 -1.54935,2.1454 -4.21118,3.57564 -6.47573,3.57564 -3.01964,0 -4.52935,-2.30447 -4.52935,-5.12485 0,-0.39697 0,-0.99315 0.19885,-1.74842 l 2.54268,-10.0505 c 0.87397,-3.41656 3.73441,-9.73381 8.50203,-9.73381 2.30417,0 3.69473,1.23109 3.69473,3.61437"
       style="fill:#000000;fill-opacity:1;fill-rule:nonzero;stroke:none"
       id="path6513"
       inkscape:connector-curvature="0" />
    <g
       id="g6727"
       transform="translate(-31.428571,187.14286)">
      <path
         inkscape:connector-curvature="0"
         id="path6515"
         style="fill:#000000;fill-opacity:1;fill-rule:nonzero;stroke:none"
         d="m 660.63963,485.59758 -0.0399,0 -8.58153,-39.80791 -5.20448,8.1846 c -0.27811,0.35685 -0.27811,0.43709 -0.27811,0.47578 0,0.15908 0.51637,0.59618 0.55622,0.63634 l 2.70167,-4.25067 9.17735,42.62972 c 1.31116,0 1.43025,0 1.66873,-1.03327 l 21.85115,-92.68877 c 0.0795,-0.27805 0.15892,-0.6363 0.15892,-0.83411 0,-0.43709 -0.31801,-0.79538 -0.79467,-0.79538 -0.63544,0 -0.75482,0.51737 -0.87406,1.07343 l -20.34134,86.41024" />
      <g
         transform="matrix(0.01433125,0,0,-0.01433125,641.53808,695.8585)"
         id="g6517">
        <path
           inkscape:connector-curvature="0"
           id="path6519"
           style="fill:none;stroke:#000000;stroke-width:34.7579422;stroke-linecap:butt;stroke-linejoin:miter;stroke-miterlimit:10;stroke-dasharray:none;stroke-opacity:1"
           d="m 2810.86,20720.2 3198.67,0" />
      </g>
      <path
         inkscape:connector-curvature="0"
         id="path6521"
         style="fill:#000000;fill-opacity:1;fill-rule:nonzero;stroke:none"
         d="m 692.39809,417.03977 c 1.31089,0.55605 2.46328,0.55605 3.41672,0.55605 1.03299,0 3.21794,0 3.21794,-1.23104 0,-0.95447 -1.39056,-1.07343 -2.90021,-1.07343 -0.83435,0 -2.2248,0.0803 -3.69473,0.75526 -0.91391,-0.47721 -1.58921,-1.23104 -1.58921,-2.30448 0,-2.4234 3.89337,-3.85365 7.46901,-3.85365 0.63574,0 2.06587,0 3.65504,1.11208 0.43714,0.31817 0.51666,0.39702 0.79483,0.39702 0.51634,0 1.07256,-0.51594 1.07256,-1.072 0,-0.75527 -2.42356,-2.26432 -5.12502,-2.26432 -4.56895,0 -8.85958,2.66129 -8.85958,5.68087 0,1.7083 1.43025,2.70146 1.5889,2.82042 -2.344,1.31128 -3.61516,3.53696 -3.61516,5.36418 0,2.58249 2.26447,5.00589 6.47585,5.00589 5.24438,0 7.46914,-3.4968 7.46914,-4.09154 0,-0.23937 -0.19861,-0.39841 -0.43694,-0.39841 -0.1988,0 -0.31801,0.15904 -0.39741,0.27801 -0.55634,0.91435 -1.50981,2.38472 -6.27709,2.38472 -2.42357,0 -5.80056,-0.59618 -5.80056,-3.41656 0,-1.35144 1.11236,-3.45672 3.53592,-4.64907 z m 1.31089,-0.51594 c 0.91391,-0.31813 1.74813,-0.35825 2.42356,-0.35825 0.99331,0 1.15208,0.0401 1.86738,0.23789 -0.5959,0.27801 -0.67546,0.31817 -2.18511,0.31817 -0.87407,0 -1.35073,0 -2.10583,-0.19781" />
      <path
         inkscape:connector-curvature="0"
         id="path6523"
         style="fill:#000000;fill-opacity:1;fill-rule:nonzero;stroke:none"
         d="m 712.84049,433.93633 c 0.19463,0.0559 0.88897,0.30665 1.13917,0.3898 1.36121,0.47148 1.72221,0.58327 1.72221,1.27834 0,0.38837 -0.30542,1.30558 -1.24997,1.30558 -0.41678,0 -1.50037,-0.0845 -2.69472,-0.77821 -0.19462,-0.16765 -0.25008,-0.16765 -0.36116,-0.16765 -0.16665,0 -0.38893,0.11179 -0.38893,0.3898 0,0.50017 1.94444,1.3328 3.44481,1.3328 1.91678,0 3.02791,-1.74985 3.02791,-3.02675 0,-1.05622 -0.58331,-1.61228 -1.16659,-1.9175 -0.22243,-0.1118 -3.69488,-1.30559 -4.00054,-1.38874 -2.69472,-0.94443 -4.19477,-1.44455 -4.19477,-3.05683 0,-0.99889 0.97236,-3.16576 3.33357,-4.41688 1.19467,0.3898 2.38902,0.3898 2.88906,0.3898 1.00033,0 2.8893,0 2.8893,-1.02757 0,-0.86129 -1.58359,-0.86129 -2.55583,-0.86129 -0.6667,0 -1.50005,0 -2.63922,0.38837 -0.7498,-0.61052 -0.94443,-1.50048 -0.94443,-2.16686 0,-1.58364 1.13905,-3.52839 3.22253,-4.50003 0.63901,0.69363 1.33336,0.69363 2.02798,0.69363 0.86132,0 2.75034,0 2.75034,-1.02754 0,-0.86132 -1.55583,-0.86132 -2.58364,-0.86132 -0.41678,0 -1.02786,0 -1.80575,0.11179 0,-0.0287 -0.11108,-0.47295 -0.11108,-0.8341 0,-0.30523 0.0555,-0.63917 0.11108,-0.94443 0.0279,-0.0271 0.0555,-0.13901 0.0555,-0.1949 0,-0.22212 -0.19435,-0.44427 -0.44439,-0.44427 -0.63889,0 -0.63889,1.05622 -0.63889,1.52917 0,0.11032 0,0.72084 0.13885,1.082 -3.83361,1.02897 -5.16713,3.44524 -5.16713,5.25095 0,1.11212 0.52782,2.19412 1.83356,2.97233 -3.13926,1.7785 -4.02823,4.55589 -4.02823,5.72247 0,2.52802 2.66691,3.47245 3.55584,3.77915 l 2.8336,0.99889 z m 5.16713,-18.08462 c -0.22215,0.0559 -0.55562,0.16769 -1.66675,0.16769 -0.44438,0 -0.77789,0 -1.11124,-0.1949 0.50005,-0.13905 0.72232,-0.13905 1.30575,-0.13905 0.86116,0 1.02769,0.0271 1.47224,0.13905 l 0,0.0271 z m -1.88902,7.47375 c -0.38892,0.11036 -0.74992,0.16622 -1.69451,0.16622 -0.52797,0 -0.86116,0 -1.38897,-0.16622 0.72211,-0.16769 0.97219,-0.16769 1.61108,-0.16769 0.86132,0 0.94459,0.0287 1.4724,0.13901 l 0,0.0287" />
      <g
         transform="matrix(0.01433125,0,0,-0.01433125,641.53808,695.8585)"
         id="g6525">
        <path
           inkscape:connector-curvature="0"
           id="path6527"
           style="fill:none;stroke:#000000;stroke-width:34.7579422;stroke-linecap:butt;stroke-linejoin:miter;stroke-miterlimit:10;stroke-dasharray:none;stroke-opacity:1"
           d="m 3143.07,17644.4 2533.97,0" />
      </g>
      <path
         inkscape:connector-curvature="0"
         id="path6529"
         style="fill:#000000;fill-opacity:1;fill-rule:nonzero;stroke:none"
         d="m 692.18315,471.12589 c 1.31084,0.55606 2.46324,0.55606 3.41671,0.55606 1.033,0 3.21791,0 3.21791,-1.23104 0,-0.95447 -1.39056,-1.07344 -2.90021,-1.07344 -0.83435,0 -2.22476,0.0803 -3.69473,0.75527 -0.91391,-0.47722 -1.58917,-1.23105 -1.58917,-2.30448 0,-2.4234 3.89337,-3.85365 7.46901,-3.85365 0.63574,0 2.06583,0 3.65504,1.11212 0.4371,0.31813 0.51662,0.39697 0.79479,0.39697 0.51638,0 1.07256,-0.51594 1.07256,-1.07199 0,-0.75527 -2.42357,-2.26432 -5.12502,-2.26432 -4.56891,0 -8.85954,2.66129 -8.85954,5.68087 0,1.7083 1.43025,2.70145 1.5889,2.82042 -2.34404,1.31128 -3.61521,3.53695 -3.61521,5.36418 0,2.58248 2.26448,5.00588 6.47586,5.00588 5.24438,0 7.46917,-3.49679 7.46917,-4.09154 0,-0.23936 -0.19864,-0.3984 -0.43697,-0.3984 -0.19877,0 -0.31801,0.15904 -0.39741,0.27801 -0.55634,0.91434 -1.50977,2.38471 -6.2771,2.38471 -2.42356,0 -5.80055,-0.59618 -5.80055,-3.41655 0,-1.35145 1.1124,-3.45672 3.53596,-4.64908 z m 1.31084,-0.5159 c 0.91391,-0.31817 1.74814,-0.35829 2.42357,-0.35829 0.99331,0 1.15211,0.0401 1.86738,0.23789 -0.5959,0.27801 -0.67543,0.31817 -2.18508,0.31817 -0.87407,0 -1.35072,0 -2.10587,-0.19777" />
      <path
         inkscape:connector-curvature="0"
         id="path6531"
         style="fill:#000000;fill-opacity:1;fill-rule:nonzero;stroke:none"
         d="m 719.43169,477.2296 c 0,-3.05544 -0.36112,-5.24956 -1.63905,-7.19431 -0.86116,-1.27834 -2.58349,-2.38902 -4.80585,-2.38902 -6.44502,0 -6.44502,7.58411 -6.44502,9.58333 0,2.00061 0,9.41846 6.44502,9.41846 6.4449,0 6.4449,-7.41785 6.4449,-9.41846 z m -6.4449,8.64029 c -1.27806,0 -2.97241,-0.74953 -3.52819,-3.02819 -0.38881,-1.63949 -0.38881,-3.91675 -0.38881,-5.97326 0,-2.02786 0,-4.13887 0.41662,-5.66657 0.58343,-2.19412 2.36149,-2.77739 3.50038,-2.77739 1.50005,0 2.94452,0.91574 3.44468,2.52659 0.44439,1.50049 0.4722,3.5011 0.4722,5.91737 0,2.05651 0,4.11162 -0.361,5.86291 -0.55578,2.52659 -2.44476,3.13854 -3.55588,3.13854" />
    </g>
    <g
       id="g6782"
       transform="translate(-370,231.42857)">
      <path
         inkscape:connector-curvature="0"
         id="path6533"
         style="fill:#000000;fill-opacity:1;fill-rule:nonzero;stroke:none"
         d="m 660.63963,586.41863 -0.0399,0 -8.58153,-39.80862 -5.20448,8.18399 c -0.27811,0.35757 -0.27811,0.43714 -0.27811,0.47666 0,0.15908 0.51637,0.5959 0.55622,0.63574 l 2.70167,-4.25035 9.17735,42.629 c 1.31116,0 1.43025,0 1.66873,-1.03299 l 21.85115,-92.68833 c 0.0795,-0.27805 0.15892,-0.63634 0.15892,-0.83411 0,-0.43709 -0.31801,-0.79538 -0.79467,-0.79538 -0.63544,0 -0.75482,0.51737 -0.87406,1.07343 l -20.34134,86.41096" />
      <g
         transform="matrix(0.01433125,0,0,-0.01433125,641.53808,695.8585)"
         id="g6535">
        <path
           inkscape:connector-curvature="0"
           id="path6537"
           style="fill:none;stroke:#000000;stroke-width:34.7579422;stroke-linecap:butt;stroke-linejoin:miter;stroke-miterlimit:10;stroke-dasharray:none;stroke-opacity:1"
           d="m 2810.86,13685.4 3305.42,0" />
      </g>
      <path
         inkscape:connector-curvature="0"
         id="path6539"
         style="fill:#000000;fill-opacity:1;fill-rule:nonzero;stroke:none"
         d="m 692.18315,517.8601 c 1.31084,0.55606 2.46324,0.55606 3.41671,0.55606 1.033,0 3.21791,0 3.21791,-1.23105 0,-0.95446 -1.39056,-1.07343 -2.90021,-1.07343 -0.83435,0 -2.22476,0.0803 -3.69473,0.75526 -0.91391,-0.47721 -1.58917,-1.23104 -1.58917,-2.30447 0,-2.4234 3.89337,-3.85365 7.46901,-3.85365 0.63574,0 2.06583,0 3.65504,1.11208 0.4371,0.31817 0.51662,0.39697 0.79479,0.39697 0.51638,0 1.07256,-0.5159 1.07256,-1.07196 0,-0.75526 -2.42357,-2.26436 -5.12502,-2.26436 -4.56891,0 -8.85954,2.66134 -8.85954,5.68092 0,1.7083 1.43025,2.70145 1.5889,2.82041 -2.34404,1.31129 -3.61521,3.53696 -3.61521,5.36418 0,2.58249 2.26448,5.00589 6.47586,5.00589 5.24438,0 7.46917,-3.49679 7.46917,-4.09158 0,-0.23932 -0.19864,-0.39841 -0.43697,-0.39841 -0.19877,0 -0.31801,0.15909 -0.39741,0.27805 -0.55634,0.91435 -1.50977,2.38472 -6.2771,2.38472 -2.42356,0 -5.80055,-0.59618 -5.80055,-3.41656 0,-1.35144 1.1124,-3.45671 3.53596,-4.64907 z m 1.31084,-0.51594 c 0.91391,-0.31813 1.74814,-0.35825 2.42357,-0.35825 0.99331,0 1.15211,0.0401 1.86738,0.23789 -0.5959,0.27801 -0.67543,0.31813 -2.18508,0.31813 -0.87407,0 -1.35072,0 -2.10587,-0.19777" />
      <path
         inkscape:connector-curvature="0"
         id="path6541"
         style="fill:#000000;fill-opacity:1;fill-rule:nonzero;stroke:none"
         d="m 720.6262,525.28369 c 0.19462,-0.77678 0.22231,-0.88853 0.22231,-1.5277 0,-0.4443 0,-1.61084 -1.02769,-2.41627 -0.47236,-0.36116 -1.27806,-0.74952 -2.5838,-0.74952 -1.16655,0 -2.88903,0.30526 -4.69478,2.49937 -0.19434,-2.08375 -2.08332,-2.49937 -2.94464,-2.49937 -1.08359,0 -1.75013,0.72088 -2.19467,1.47184 -0.5555,0.94443 -1.00005,2.61113 -1.00005,2.77739 0,0.36115 0.38897,0.36115 0.47224,0.36115 0.38892,0 0.41673,-0.0831 0.61108,-0.83267 0.41673,-1.61224 0.94454,-3.00094 2.02786,-3.00094 0.72243,0 0.91678,0.61192 0.91678,1.36145 0,0.52741 -0.24997,1.55638 -0.44427,2.30591 -0.19462,0.74952 -0.47251,1.88885 -0.61124,2.50081 l -0.88913,3.55556 c -0.11103,0.36116 -0.27757,1.05479 -0.27757,1.13933 0,0.61052 0.5,0.88853 0.94455,0.88853 0.50004,0 0.94443,-0.36111 1.08331,-0.61191 0.13889,-0.24937 0.36116,-1.1379 0.50001,-1.72121 0.13888,-0.52881 0.44458,-1.80571 0.61111,-2.50077 0.16682,-0.61052 0.33347,-1.22248 0.4722,-1.86165 0.3057,-1.19379 0.3057,-1.24969 0.86132,-2.11101 0.88897,-1.36144 2.27794,-2.94504 4.44481,-2.94504 1.55567,0 1.63893,1.27834 1.63893,1.94472 0,0.75096 -0.0554,1.00032 -0.19434,1.52774 l -3.13926,12.4739 c -0.11104,0.41706 -0.11104,0.55606 -0.11104,0.58327 0,0.61052 0.5,0.88857 0.94455,0.88857 1.00004,0 1.25013,-0.94442 1.33351,-1.33283 l 3.02791,-12.16865" />
      <g
         transform="matrix(0.01433125,0,0,-0.01433125,641.53808,695.8585)"
         id="g6543">
        <path
           inkscape:connector-curvature="0"
           id="path6545"
           style="fill:none;stroke:#000000;stroke-width:34.7579422;stroke-linecap:butt;stroke-linejoin:miter;stroke-miterlimit:10;stroke-dasharray:none;stroke-opacity:1"
           d="m 3143.07,10609.6 2640.72,0" />
      </g>
      <path
         inkscape:connector-curvature="0"
         id="path6547"
         style="fill:#000000;fill-opacity:1;fill-rule:nonzero;stroke:none"
         d="m 692.94268,571.94622 c 1.31088,0.55634 2.46328,0.55634 3.41671,0.55634 1.033,0 3.21795,0 3.21795,-1.2316 0,-0.95347 -1.39057,-1.07271 -2.90022,-1.07271 -0.83435,0 -2.22479,0.0794 -3.69472,0.75498 -0.91391,-0.47682 -1.58922,-1.23192 -1.58922,-2.30448 0,-2.42356 3.89337,-3.85381 7.46902,-3.85381 0.63574,0 2.06587,0 3.65504,1.11252 0.43713,0.31773 0.51666,0.39729 0.79482,0.39729 0.51634,0 1.07256,-0.51637 1.07256,-1.07271 0,-0.75483 -2.42356,-2.26448 -5.12501,-2.26448 -4.56896,0 -8.85958,2.66173 -8.85958,5.68119 0,1.7083 1.43029,2.70157 1.58893,2.82082 -2.34404,1.31104 -3.6152,3.53596 -3.6152,5.36346 0,2.58249 2.26448,5.00577 6.47586,5.00577 5.24438,0 7.46913,-3.49612 7.46913,-4.09198 0,-0.23849 -0.19861,-0.39729 -0.43693,-0.39729 -0.19877,0 -0.31801,0.1588 -0.39742,0.27817 -0.55633,0.91363 -1.50981,2.38372 -6.27709,2.38372 -2.42356,0 -5.80055,-0.5959 -5.80055,-3.41672 0,-1.35084 1.11235,-3.45656 3.53592,-4.64848 z m 1.31088,-0.51633 c 0.91391,-0.31801 1.74814,-0.35758 2.42356,-0.35758 0.99331,0 1.15208,0.0394 1.86738,0.23817 -0.5959,0.27817 -0.67546,0.31801 -2.18511,0.31801 -0.87407,0 -1.35073,0 -2.10583,-0.1986" />
      <path
         inkscape:connector-curvature="0"
         id="path6549"
         style="fill:#000000;fill-opacity:1;fill-rule:nonzero;stroke:none"
         d="m 720.19126,578.05049 c 0,-3.05588 -0.36116,-5.2504 -1.63906,-7.19503 -0.86116,-1.2779 -2.58348,-2.3893 -4.80584,-2.3893 -6.44507,0 -6.44507,7.58423 -6.44507,9.58433 0,2.00005 0,9.41747 6.44507,9.41747 6.4449,0 6.4449,-7.41742 6.4449,-9.41747 z m -6.4449,8.63973 c -1.27806,0 -2.97245,-0.75008 -3.52819,-3.02818 -0.38881,-1.6391 -0.38881,-3.91688 -0.38881,-5.97271 0,-2.02786 0,-4.13927 0.41657,-5.66713 0.58343,-2.19471 2.36153,-2.77798 3.50043,-2.77798 1.50005,0 2.94452,0.91661 3.44464,2.5279 0.44442,1.50017 0.47223,3.50038 0.47223,5.91721 0,2.05583 0,4.1115 -0.36099,5.86163 -0.55579,2.52791 -2.44476,3.13926 -3.55588,3.13926" />
    </g>
    <g
       id="g6793"
       transform="translate(-68.571429,-194.28571)">
      <g
         transform="matrix(0.01433125,0,0,-0.01433125,641.53808,695.8585)"
         id="g6553">
        <path
           inkscape:connector-curvature="0"
           id="path6555"
           style="fill:none;stroke:#000000;stroke-width:34.7579422;stroke-linecap:butt;stroke-linejoin:miter;stroke-miterlimit:10;stroke-dasharray:none;stroke-opacity:1"
           d="m 2810.86,6650.6 3228.14,0" />
      </g>
      <g
         id="g6751">
        <path
           d="m 660.63963,687.23893 -0.0399,0 -8.58153,-39.80887 -5.20448,8.18428 c -0.27811,0.35757 -0.27811,0.43711 -0.27811,0.47667 0,0.15907 0.51637,0.59589 0.55622,0.63573 l 2.70167,-4.25095 9.17735,42.62965 c 1.31116,0 1.43025,0 1.66873,-1.03297 l 21.85115,-92.68884 c 0.0795,-0.27817 0.15892,-0.63559 0.15892,-0.83423 0,-0.4371 -0.31801,-0.79467 -0.79467,-0.79467 -0.63544,0 -0.75482,0.51666 -0.87406,1.07284 l -20.34134,86.41136"
           style="fill:#000000;fill-opacity:1;fill-rule:nonzero;stroke:none"
           id="path6551"
           inkscape:connector-curvature="0" />
        <path
           d="m 692.18315,618.68043 c 1.31084,0.55634 2.46324,0.55634 3.41671,0.55634 1.033,0 3.21791,0 3.21791,-1.23164 0,-0.95343 -1.39056,-1.07268 -2.90021,-1.07268 -0.83435,0 -2.22476,0.0794 -3.69473,0.75499 -0.91391,-0.47682 -1.58917,-1.23192 -1.58917,-2.30448 0,-2.42356 3.89337,-3.85381 7.46901,-3.85381 0.63574,0 2.06583,0 3.65504,1.11252 0.4371,0.31773 0.51662,0.39725 0.79479,0.39725 0.51638,0 1.07256,-0.51634 1.07256,-1.07268 0,-0.75482 -2.42357,-2.26447 -5.12502,-2.26447 -4.56891,0 -8.85954,2.66173 -8.85954,5.68119 0,1.7083 1.43025,2.70157 1.5889,2.82081 -2.34404,1.31101 -3.61521,3.53596 -3.61521,5.36347 0,2.58248 2.26448,5.00577 6.47586,5.00577 5.24438,0 7.46917,-3.49612 7.46917,-4.09202 0,-0.23845 -0.19864,-0.39726 -0.43697,-0.39726 -0.19877,0 -0.31801,0.15881 -0.39741,0.27817 -0.55634,0.91363 -1.50977,2.38372 -6.2771,2.38372 -2.42356,0 -5.80055,-0.5959 -5.80055,-3.41671 0,-1.35085 1.1124,-3.45656 3.53596,-4.64848 z m 1.31084,-0.51634 c 0.91391,-0.31801 1.74814,-0.35757 2.42357,-0.35757 0.99331,0 1.15211,0.0394 1.86738,0.23817 -0.5959,0.27817 -0.67543,0.31801 -2.18508,0.31801 -0.87407,0 -1.35072,0 -2.10587,-0.19861"
           style="fill:#000000;fill-opacity:1;fill-rule:nonzero;stroke:none"
           id="path6557"
           inkscape:connector-curvature="0" />
        <path
           d="m 715.07015,617.88174 c 0.55574,0.5555 1.38897,0.5555 1.88898,0.5555 0.86132,0 2.75033,0 2.75033,-1.02769 0,-0.83351 -1.44459,-0.86132 -2.47244,-0.86132 -0.4722,0 -1.11109,0 -1.8334,0.27789 -0.0279,-0.11108 -0.16666,-0.50005 -0.16666,-1.00005 0,-0.1112 0.0556,-0.63901 0.11108,-0.94455 0.0279,-0.0275 0.0556,-0.13904 0.0556,-0.1945 0,-0.22211 -0.19447,-0.44455 -0.44455,-0.44455 -0.63889,0 -0.63889,1.05579 -0.63889,1.52814 0,0.33319 0,0.83323 0.27773,1.41678 -3.58352,1.8334 -7.69502,6.72264 -7.69502,11.6953 0,1.52786 0.41677,2.8336 1.55566,4.0003 0.91678,0.91678 1.63906,1.11137 5.16701,2.19468 1.00016,0.27789 2.02814,0.61108 2.02814,1.83356 0,0.75008 -0.4722,1.63905 -1.38897,1.63905 -0.47236,0 -1.33352,-0.11123 -2.27811,-0.77789 -0.16681,-0.11108 -0.22227,-0.16682 -0.36115,-0.16682 -0.30566,0 -0.38893,0.25008 -0.38893,0.38893 0,0.41678 1.6114,1.33352 3.02819,1.33352 1.94459,0 3.13898,-1.97241 3.13898,-3.41684 0,-1.22248 -0.74997,-2.13922 -1.75001,-2.5838 -0.27789,-0.11104 -1.55579,-0.5 -2.33356,-0.72212 -2.13906,-0.63905 -2.8893,-0.8612 -3.58365,-1.6669 -0.75013,-0.83347 -1.02786,-1.7779 -1.02786,-2.94464 0,-4.11146 3.44469,-8.55631 6.36152,-10.11198 z m 3.556,-0.38893 c -0.38897,0.1112 -0.86132,0.16682 -1.63894,0.16682 -0.66681,0 -0.72243,0 -1.02809,-0.16682 0.44454,-0.16669 0.83347,-0.16669 1.25025,-0.16669 0.77789,0 0.88897,0.0279 1.41678,0.13889 l 0,0.0279"
           style="fill:#000000;fill-opacity:1;fill-rule:nonzero;stroke:none"
           id="path6559"
           inkscape:connector-curvature="0" />
        <g
           id="g6561"
           transform="matrix(0.01433125,0,0,-0.01433125,641.53808,695.8585)">
          <path
             d="m 3143.07,3574.8 2563.72,0"
             style="fill:none;stroke:#000000;stroke-width:34.7579422;stroke-linecap:butt;stroke-linejoin:miter;stroke-miterlimit:10;stroke-dasharray:none;stroke-opacity:1"
             id="path6563"
             inkscape:connector-curvature="0" />
        </g>
        <path
           d="m 692.39809,672.76656 c 1.31089,0.55634 2.46328,0.55634 3.41672,0.55634 1.03299,0 3.21794,0 3.21794,-1.23163 0,-0.95346 -1.39056,-1.07269 -2.90021,-1.07269 -0.83435,0 -2.2248,0.0794 -3.69473,0.75497 -0.91391,-0.4768 -1.58921,-1.23191 -1.58921,-2.30447 0,-2.42356 3.89337,-3.85381 7.46901,-3.85381 0.63574,0 2.06587,0 3.65504,1.11253 0.43714,0.31772 0.51666,0.39726 0.79483,0.39726 0.51634,0 1.07256,-0.51635 1.07256,-1.07269 0,-0.75482 -2.42356,-2.26448 -5.12502,-2.26448 -4.56895,0 -8.85958,2.66174 -8.85958,5.68119 0,1.70829 1.43025,2.70159 1.5889,2.82082 -2.344,1.31103 -3.61516,3.53595 -3.61516,5.36347 0,2.5825 2.26447,5.00582 6.47585,5.00582 5.24438,0 7.46914,-3.49616 7.46914,-4.09206 0,-0.23847 -0.19861,-0.39726 -0.43694,-0.39726 -0.1988,0 -0.31801,0.15879 -0.39741,0.27817 -0.55634,0.91362 -1.50981,2.38372 -6.27709,2.38372 -2.42357,0 -5.80056,-0.59589 -5.80056,-3.41672 0,-1.35086 1.11236,-3.45655 3.53592,-4.64848 z m 1.31089,-0.51636 c 0.91391,-0.31801 1.74813,-0.35756 2.42356,-0.35756 0.99331,0 1.15208,0.0396 1.86738,0.23818 -0.5959,0.27817 -0.67546,0.31801 -2.18511,0.31801 -0.87407,0 -1.35073,0 -2.10583,-0.19863"
           style="fill:#000000;fill-opacity:1;fill-rule:nonzero;stroke:none"
           id="path6565"
           inkscape:connector-curvature="0" />
        <path
           d="m 719.63233,678.87081 c 0,-3.05585 -0.36112,-5.25039 -1.63905,-7.195 -0.86117,-1.27792 -2.58349,-2.38931 -4.80585,-2.38931 -6.44502,0 -6.44502,7.58424 -6.44502,9.58431 0,2.00007 0,9.41744 6.44502,9.41744 6.4449,0 6.4449,-7.41737 6.4449,-9.41744 z m -6.4449,8.63974 c -1.27806,0 -2.97245,-0.75016 -3.52819,-3.02815 -0.38881,-1.63914 -0.38881,-3.91692 -0.38881,-5.97274 0,-2.02787 0,-4.13929 0.41662,-5.66715 0.58343,-2.19468 2.36149,-2.77796 3.50038,-2.77796 1.50005,0 2.94452,0.91662 3.44468,2.52789 0.44439,1.50019 0.4722,3.5004 0.4722,5.91722 0,2.05582 0,4.11147 -0.361,5.86167 -0.55578,2.5279 -2.44476,3.13922 -3.55588,3.13922"
           style="fill:#000000;fill-opacity:1;fill-rule:nonzero;stroke:none"
           id="path6567"
           inkscape:connector-curvature="0" />
      </g>
    </g>
    <g
       transform="translate(-221.42856,-188.57143)"
       id="g6805">
      <path
         d="m 660.63963,485.59758 -0.0399,0 -8.58153,-39.80791 -5.20448,8.1846 c -0.27811,0.35685 -0.27811,0.43709 -0.27811,0.47578 0,0.15908 0.51637,0.59618 0.55622,0.63634 l 2.70167,-4.25067 9.17735,42.62972 c 1.31116,0 1.43025,0 1.66873,-1.03327 l 21.85115,-92.68877 c 0.0795,-0.27805 0.15892,-0.6363 0.15892,-0.83411 0,-0.43709 -0.31801,-0.79538 -0.79467,-0.79538 -0.63544,0 -0.75482,0.51737 -0.87406,1.07343 l -20.34134,86.41024"
         style="fill:#000000;fill-opacity:1;fill-rule:nonzero;stroke:none"
         id="path6807"
         inkscape:connector-curvature="0" />
      <g
         id="g6809"
         transform="matrix(0.01433125,0,0,-0.01433125,641.53808,695.8585)">
        <path
           d="m 2810.86,20720.2 3198.67,0"
           style="fill:none;stroke:#000000;stroke-width:34.7579422;stroke-linecap:butt;stroke-linejoin:miter;stroke-miterlimit:10;stroke-dasharray:none;stroke-opacity:1"
           id="path6811"
           inkscape:connector-curvature="0" />
      </g>
      <path
         d="m 692.39809,417.03977 c 1.31089,0.55605 2.46328,0.55605 3.41672,0.55605 1.03299,0 3.21794,0 3.21794,-1.23104 0,-0.95447 -1.39056,-1.07343 -2.90021,-1.07343 -0.83435,0 -2.2248,0.0803 -3.69473,0.75526 -0.91391,-0.47721 -1.58921,-1.23104 -1.58921,-2.30448 0,-2.4234 3.89337,-3.85365 7.46901,-3.85365 0.63574,0 2.06587,0 3.65504,1.11208 0.43714,0.31817 0.51666,0.39702 0.79483,0.39702 0.51634,0 1.07256,-0.51594 1.07256,-1.072 0,-0.75527 -2.42356,-2.26432 -5.12502,-2.26432 -4.56895,0 -8.85958,2.66129 -8.85958,5.68087 0,1.7083 1.43025,2.70146 1.5889,2.82042 -2.344,1.31128 -3.61516,3.53696 -3.61516,5.36418 0,2.58249 2.26447,5.00589 6.47585,5.00589 5.24438,0 7.46914,-3.4968 7.46914,-4.09154 0,-0.23937 -0.19861,-0.39841 -0.43694,-0.39841 -0.1988,0 -0.31801,0.15904 -0.39741,0.27801 -0.55634,0.91435 -1.50981,2.38472 -6.27709,2.38472 -2.42357,0 -5.80056,-0.59618 -5.80056,-3.41656 0,-1.35144 1.11236,-3.45672 3.53592,-4.64907 z m 1.31089,-0.51594 c 0.91391,-0.31813 1.74813,-0.35825 2.42356,-0.35825 0.99331,0 1.15208,0.0401 1.86738,0.23789 -0.5959,0.27801 -0.67546,0.31817 -2.18511,0.31817 -0.87407,0 -1.35073,0 -2.10583,-0.19781"
         style="fill:#000000;fill-opacity:1;fill-rule:nonzero;stroke:none"
         id="path6813"
         inkscape:connector-curvature="0" />
      <path
         d="m 712.84049,433.93633 c 0.19463,0.0559 0.88897,0.30665 1.13917,0.3898 1.36121,0.47148 1.72221,0.58327 1.72221,1.27834 0,0.38837 -0.30542,1.30558 -1.24997,1.30558 -0.41678,0 -1.50037,-0.0845 -2.69472,-0.77821 -0.19462,-0.16765 -0.25008,-0.16765 -0.36116,-0.16765 -0.16665,0 -0.38893,0.11179 -0.38893,0.3898 0,0.50017 1.94444,1.3328 3.44481,1.3328 1.91678,0 3.02791,-1.74985 3.02791,-3.02675 0,-1.05622 -0.58331,-1.61228 -1.16659,-1.9175 -0.22243,-0.1118 -3.69488,-1.30559 -4.00054,-1.38874 -2.69472,-0.94443 -4.19477,-1.44455 -4.19477,-3.05683 0,-0.99889 0.97236,-3.16576 3.33357,-4.41688 1.19467,0.3898 2.38902,0.3898 2.88906,0.3898 1.00033,0 2.8893,0 2.8893,-1.02757 0,-0.86129 -1.58359,-0.86129 -2.55583,-0.86129 -0.6667,0 -1.50005,0 -2.63922,0.38837 -0.7498,-0.61052 -0.94443,-1.50048 -0.94443,-2.16686 0,-1.58364 1.13905,-3.52839 3.22253,-4.50003 0.63901,0.69363 1.33336,0.69363 2.02798,0.69363 0.86132,0 2.75034,0 2.75034,-1.02754 0,-0.86132 -1.55583,-0.86132 -2.58364,-0.86132 -0.41678,0 -1.02786,0 -1.80575,0.11179 0,-0.0287 -0.11108,-0.47295 -0.11108,-0.8341 0,-0.30523 0.0555,-0.63917 0.11108,-0.94443 0.0279,-0.0271 0.0555,-0.13901 0.0555,-0.1949 0,-0.22212 -0.19435,-0.44427 -0.44439,-0.44427 -0.63889,0 -0.63889,1.05622 -0.63889,1.52917 0,0.11032 0,0.72084 0.13885,1.082 -3.83361,1.02897 -5.16713,3.44524 -5.16713,5.25095 0,1.11212 0.52782,2.19412 1.83356,2.97233 -3.13926,1.7785 -4.02823,4.55589 -4.02823,5.72247 0,2.52802 2.66691,3.47245 3.55584,3.77915 l 2.8336,0.99889 z m 5.16713,-18.08462 c -0.22215,0.0559 -0.55562,0.16769 -1.66675,0.16769 -0.44438,0 -0.77789,0 -1.11124,-0.1949 0.50005,-0.13905 0.72232,-0.13905 1.30575,-0.13905 0.86116,0 1.02769,0.0271 1.47224,0.13905 l 0,0.0271 z m -1.88902,7.47375 c -0.38892,0.11036 -0.74992,0.16622 -1.69451,0.16622 -0.52797,0 -0.86116,0 -1.38897,-0.16622 0.72211,-0.16769 0.97219,-0.16769 1.61108,-0.16769 0.86132,0 0.94459,0.0287 1.4724,0.13901 l 0,0.0287"
         style="fill:#000000;fill-opacity:1;fill-rule:nonzero;stroke:none"
         id="path6815"
         inkscape:connector-curvature="0" />
      <g
         id="g6817"
         transform="matrix(0.01433125,0,0,-0.01433125,641.53808,695.8585)">
        <path
           d="m 3143.07,17644.4 2533.97,0"
           style="fill:none;stroke:#000000;stroke-width:34.7579422;stroke-linecap:butt;stroke-linejoin:miter;stroke-miterlimit:10;stroke-dasharray:none;stroke-opacity:1"
           id="path6819"
           inkscape:connector-curvature="0" />
      </g>
      <path
         d="m 692.18315,471.12589 c 1.31084,0.55606 2.46324,0.55606 3.41671,0.55606 1.033,0 3.21791,0 3.21791,-1.23104 0,-0.95447 -1.39056,-1.07344 -2.90021,-1.07344 -0.83435,0 -2.22476,0.0803 -3.69473,0.75527 -0.91391,-0.47722 -1.58917,-1.23105 -1.58917,-2.30448 0,-2.4234 3.89337,-3.85365 7.46901,-3.85365 0.63574,0 2.06583,0 3.65504,1.11212 0.4371,0.31813 0.51662,0.39697 0.79479,0.39697 0.51638,0 1.07256,-0.51594 1.07256,-1.07199 0,-0.75527 -2.42357,-2.26432 -5.12502,-2.26432 -4.56891,0 -8.85954,2.66129 -8.85954,5.68087 0,1.7083 1.43025,2.70145 1.5889,2.82042 -2.34404,1.31128 -3.61521,3.53695 -3.61521,5.36418 0,2.58248 2.26448,5.00588 6.47586,5.00588 5.24438,0 7.46917,-3.49679 7.46917,-4.09154 0,-0.23936 -0.19864,-0.3984 -0.43697,-0.3984 -0.19877,0 -0.31801,0.15904 -0.39741,0.27801 -0.55634,0.91434 -1.50977,2.38471 -6.2771,2.38471 -2.42356,0 -5.80055,-0.59618 -5.80055,-3.41655 0,-1.35145 1.1124,-3.45672 3.53596,-4.64908 z m 1.31084,-0.5159 c 0.91391,-0.31817 1.74814,-0.35829 2.42357,-0.35829 0.99331,0 1.15211,0.0401 1.86738,0.23789 -0.5959,0.27801 -0.67543,0.31817 -2.18508,0.31817 -0.87407,0 -1.35072,0 -2.10587,-0.19777"
         style="fill:#000000;fill-opacity:1;fill-rule:nonzero;stroke:none"
         id="path6821"
         inkscape:connector-curvature="0" />
      <path
         d="m 719.43169,477.2296 c 0,-3.05544 -0.36112,-5.24956 -1.63905,-7.19431 -0.86116,-1.27834 -2.58349,-2.38902 -4.80585,-2.38902 -6.44502,0 -6.44502,7.58411 -6.44502,9.58333 0,2.00061 0,9.41846 6.44502,9.41846 6.4449,0 6.4449,-7.41785 6.4449,-9.41846 z m -6.4449,8.64029 c -1.27806,0 -2.97241,-0.74953 -3.52819,-3.02819 -0.38881,-1.63949 -0.38881,-3.91675 -0.38881,-5.97326 0,-2.02786 0,-4.13887 0.41662,-5.66657 0.58343,-2.19412 2.36149,-2.77739 3.50038,-2.77739 1.50005,0 2.94452,0.91574 3.44468,2.52659 0.44439,1.50049 0.4722,3.5011 0.4722,5.91737 0,2.05651 0,4.11162 -0.361,5.86291 -0.55578,2.52659 -2.44476,3.13854 -3.55588,3.13854"
         style="fill:#000000;fill-opacity:1;fill-rule:nonzero;stroke:none"
         id="path6823"
         inkscape:connector-curvature="0" />
    </g>
    <g
       transform="translate(-434.28571,-287.14286)"
       id="g6825">
      <path
         d="m 660.63963,586.41863 -0.0399,0 -8.58153,-39.80862 -5.20448,8.18399 c -0.27811,0.35757 -0.27811,0.43714 -0.27811,0.47666 0,0.15908 0.51637,0.5959 0.55622,0.63574 l 2.70167,-4.25035 9.17735,42.629 c 1.31116,0 1.43025,0 1.66873,-1.03299 l 21.85115,-92.68833 c 0.0795,-0.27805 0.15892,-0.63634 0.15892,-0.83411 0,-0.43709 -0.31801,-0.79538 -0.79467,-0.79538 -0.63544,0 -0.75482,0.51737 -0.87406,1.07343 l -20.34134,86.41096"
         style="fill:#000000;fill-opacity:1;fill-rule:nonzero;stroke:none"
         id="path6827"
         inkscape:connector-curvature="0" />
      <g
         id="g6829"
         transform="matrix(0.01433125,0,0,-0.01433125,641.53808,695.8585)">
        <path
           d="m 2810.86,13685.4 3305.42,0"
           style="fill:none;stroke:#000000;stroke-width:34.7579422;stroke-linecap:butt;stroke-linejoin:miter;stroke-miterlimit:10;stroke-dasharray:none;stroke-opacity:1"
           id="path6831"
           inkscape:connector-curvature="0" />
      </g>
      <path
         d="m 692.18315,517.8601 c 1.31084,0.55606 2.46324,0.55606 3.41671,0.55606 1.033,0 3.21791,0 3.21791,-1.23105 0,-0.95446 -1.39056,-1.07343 -2.90021,-1.07343 -0.83435,0 -2.22476,0.0803 -3.69473,0.75526 -0.91391,-0.47721 -1.58917,-1.23104 -1.58917,-2.30447 0,-2.4234 3.89337,-3.85365 7.46901,-3.85365 0.63574,0 2.06583,0 3.65504,1.11208 0.4371,0.31817 0.51662,0.39697 0.79479,0.39697 0.51638,0 1.07256,-0.5159 1.07256,-1.07196 0,-0.75526 -2.42357,-2.26436 -5.12502,-2.26436 -4.56891,0 -8.85954,2.66134 -8.85954,5.68092 0,1.7083 1.43025,2.70145 1.5889,2.82041 -2.34404,1.31129 -3.61521,3.53696 -3.61521,5.36418 0,2.58249 2.26448,5.00589 6.47586,5.00589 5.24438,0 7.46917,-3.49679 7.46917,-4.09158 0,-0.23932 -0.19864,-0.39841 -0.43697,-0.39841 -0.19877,0 -0.31801,0.15909 -0.39741,0.27805 -0.55634,0.91435 -1.50977,2.38472 -6.2771,2.38472 -2.42356,0 -5.80055,-0.59618 -5.80055,-3.41656 0,-1.35144 1.1124,-3.45671 3.53596,-4.64907 z m 1.31084,-0.51594 c 0.91391,-0.31813 1.74814,-0.35825 2.42357,-0.35825 0.99331,0 1.15211,0.0401 1.86738,0.23789 -0.5959,0.27801 -0.67543,0.31813 -2.18508,0.31813 -0.87407,0 -1.35072,0 -2.10587,-0.19777"
         style="fill:#000000;fill-opacity:1;fill-rule:nonzero;stroke:none"
         id="path6833"
         inkscape:connector-curvature="0" />
      <path
         d="m 720.6262,525.28369 c 0.19462,-0.77678 0.22231,-0.88853 0.22231,-1.5277 0,-0.4443 0,-1.61084 -1.02769,-2.41627 -0.47236,-0.36116 -1.27806,-0.74952 -2.5838,-0.74952 -1.16655,0 -2.88903,0.30526 -4.69478,2.49937 -0.19434,-2.08375 -2.08332,-2.49937 -2.94464,-2.49937 -1.08359,0 -1.75013,0.72088 -2.19467,1.47184 -0.5555,0.94443 -1.00005,2.61113 -1.00005,2.77739 0,0.36115 0.38897,0.36115 0.47224,0.36115 0.38892,0 0.41673,-0.0831 0.61108,-0.83267 0.41673,-1.61224 0.94454,-3.00094 2.02786,-3.00094 0.72243,0 0.91678,0.61192 0.91678,1.36145 0,0.52741 -0.24997,1.55638 -0.44427,2.30591 -0.19462,0.74952 -0.47251,1.88885 -0.61124,2.50081 l -0.88913,3.55556 c -0.11103,0.36116 -0.27757,1.05479 -0.27757,1.13933 0,0.61052 0.5,0.88853 0.94455,0.88853 0.50004,0 0.94443,-0.36111 1.08331,-0.61191 0.13889,-0.24937 0.36116,-1.1379 0.50001,-1.72121 0.13888,-0.52881 0.44458,-1.80571 0.61111,-2.50077 0.16682,-0.61052 0.33347,-1.22248 0.4722,-1.86165 0.3057,-1.19379 0.3057,-1.24969 0.86132,-2.11101 0.88897,-1.36144 2.27794,-2.94504 4.44481,-2.94504 1.55567,0 1.63893,1.27834 1.63893,1.94472 0,0.75096 -0.0554,1.00032 -0.19434,1.52774 l -3.13926,12.4739 c -0.11104,0.41706 -0.11104,0.55606 -0.11104,0.58327 0,0.61052 0.5,0.88857 0.94455,0.88857 1.00004,0 1.25013,-0.94442 1.33351,-1.33283 l 3.02791,-12.16865"
         style="fill:#000000;fill-opacity:1;fill-rule:nonzero;stroke:none"
         id="path6835"
         inkscape:connector-curvature="0" />
      <g
         id="g6837"
         transform="matrix(0.01433125,0,0,-0.01433125,641.53808,695.8585)">
        <path
           d="m 3143.07,10609.6 2640.72,0"
           style="fill:none;stroke:#000000;stroke-width:34.7579422;stroke-linecap:butt;stroke-linejoin:miter;stroke-miterlimit:10;stroke-dasharray:none;stroke-opacity:1"
           id="path6839"
           inkscape:connector-curvature="0" />
      </g>
      <path
         d="m 692.94268,571.94622 c 1.31088,0.55634 2.46328,0.55634 3.41671,0.55634 1.033,0 3.21795,0 3.21795,-1.2316 0,-0.95347 -1.39057,-1.07271 -2.90022,-1.07271 -0.83435,0 -2.22479,0.0794 -3.69472,0.75498 -0.91391,-0.47682 -1.58922,-1.23192 -1.58922,-2.30448 0,-2.42356 3.89337,-3.85381 7.46902,-3.85381 0.63574,0 2.06587,0 3.65504,1.11252 0.43713,0.31773 0.51666,0.39729 0.79482,0.39729 0.51634,0 1.07256,-0.51637 1.07256,-1.07271 0,-0.75483 -2.42356,-2.26448 -5.12501,-2.26448 -4.56896,0 -8.85958,2.66173 -8.85958,5.68119 0,1.7083 1.43029,2.70157 1.58893,2.82082 -2.34404,1.31104 -3.6152,3.53596 -3.6152,5.36346 0,2.58249 2.26448,5.00577 6.47586,5.00577 5.24438,0 7.46913,-3.49612 7.46913,-4.09198 0,-0.23849 -0.19861,-0.39729 -0.43693,-0.39729 -0.19877,0 -0.31801,0.1588 -0.39742,0.27817 -0.55633,0.91363 -1.50981,2.38372 -6.27709,2.38372 -2.42356,0 -5.80055,-0.5959 -5.80055,-3.41672 0,-1.35084 1.11235,-3.45656 3.53592,-4.64848 z m 1.31088,-0.51633 c 0.91391,-0.31801 1.74814,-0.35758 2.42356,-0.35758 0.99331,0 1.15208,0.0394 1.86738,0.23817 -0.5959,0.27817 -0.67546,0.31801 -2.18511,0.31801 -0.87407,0 -1.35073,0 -2.10583,-0.1986"
         style="fill:#000000;fill-opacity:1;fill-rule:nonzero;stroke:none"
         id="path6841"
         inkscape:connector-curvature="0" />
      <path
         d="m 720.19126,578.05049 c 0,-3.05588 -0.36116,-5.2504 -1.63906,-7.19503 -0.86116,-1.2779 -2.58348,-2.3893 -4.80584,-2.3893 -6.44507,0 -6.44507,7.58423 -6.44507,9.58433 0,2.00005 0,9.41747 6.44507,9.41747 6.4449,0 6.4449,-7.41742 6.4449,-9.41747 z m -6.4449,8.63973 c -1.27806,0 -2.97245,-0.75008 -3.52819,-3.02818 -0.38881,-1.6391 -0.38881,-3.91688 -0.38881,-5.97271 0,-2.02786 0,-4.13927 0.41657,-5.66713 0.58343,-2.19471 2.36153,-2.77798 3.50043,-2.77798 1.50005,0 2.94452,0.91661 3.44464,2.5279 0.44442,1.50017 0.47223,3.50038 0.47223,5.91721 0,2.05583 0,4.1115 -0.36099,5.86163 -0.55579,2.52791 -2.44476,3.13926 -3.55588,3.13926"
         style="fill:#000000;fill-opacity:1;fill-rule:nonzero;stroke:none"
         id="path6843"
         inkscape:connector-curvature="0" />
    </g>
    <g
       transform="translate(-590,24.28571)"
       id="g6845">
      <g
         id="g6847"
         transform="matrix(0.01433125,0,0,-0.01433125,641.53808,695.8585)">
        <path
           d="m 2810.86,6650.6 3228.14,0"
           style="fill:none;stroke:#000000;stroke-width:34.7579422;stroke-linecap:butt;stroke-linejoin:miter;stroke-miterlimit:10;stroke-dasharray:none;stroke-opacity:1"
           id="path6849"
           inkscape:connector-curvature="0" />
      </g>
      <g
         id="g6851">
        <path
           inkscape:connector-curvature="0"
           id="path6853"
           style="fill:#000000;fill-opacity:1;fill-rule:nonzero;stroke:none"
           d="m 660.63963,687.23893 -0.0399,0 -8.58153,-39.80887 -5.20448,8.18428 c -0.27811,0.35757 -0.27811,0.43711 -0.27811,0.47667 0,0.15907 0.51637,0.59589 0.55622,0.63573 l 2.70167,-4.25095 9.17735,42.62965 c 1.31116,0 1.43025,0 1.66873,-1.03297 l 21.85115,-92.68884 c 0.0795,-0.27817 0.15892,-0.63559 0.15892,-0.83423 0,-0.4371 -0.31801,-0.79467 -0.79467,-0.79467 -0.63544,0 -0.75482,0.51666 -0.87406,1.07284 l -20.34134,86.41136" />
        <path
           inkscape:connector-curvature="0"
           id="path6855"
           style="fill:#000000;fill-opacity:1;fill-rule:nonzero;stroke:none"
           d="m 692.18315,618.68043 c 1.31084,0.55634 2.46324,0.55634 3.41671,0.55634 1.033,0 3.21791,0 3.21791,-1.23164 0,-0.95343 -1.39056,-1.07268 -2.90021,-1.07268 -0.83435,0 -2.22476,0.0794 -3.69473,0.75499 -0.91391,-0.47682 -1.58917,-1.23192 -1.58917,-2.30448 0,-2.42356 3.89337,-3.85381 7.46901,-3.85381 0.63574,0 2.06583,0 3.65504,1.11252 0.4371,0.31773 0.51662,0.39725 0.79479,0.39725 0.51638,0 1.07256,-0.51634 1.07256,-1.07268 0,-0.75482 -2.42357,-2.26447 -5.12502,-2.26447 -4.56891,0 -8.85954,2.66173 -8.85954,5.68119 0,1.7083 1.43025,2.70157 1.5889,2.82081 -2.34404,1.31101 -3.61521,3.53596 -3.61521,5.36347 0,2.58248 2.26448,5.00577 6.47586,5.00577 5.24438,0 7.46917,-3.49612 7.46917,-4.09202 0,-0.23845 -0.19864,-0.39726 -0.43697,-0.39726 -0.19877,0 -0.31801,0.15881 -0.39741,0.27817 -0.55634,0.91363 -1.50977,2.38372 -6.2771,2.38372 -2.42356,0 -5.80055,-0.5959 -5.80055,-3.41671 0,-1.35085 1.1124,-3.45656 3.53596,-4.64848 z m 1.31084,-0.51634 c 0.91391,-0.31801 1.74814,-0.35757 2.42357,-0.35757 0.99331,0 1.15211,0.0394 1.86738,0.23817 -0.5959,0.27817 -0.67543,0.31801 -2.18508,0.31801 -0.87407,0 -1.35072,0 -2.10587,-0.19861" />
        <path
           inkscape:connector-curvature="0"
           id="path6857"
           style="fill:#000000;fill-opacity:1;fill-rule:nonzero;stroke:none"
           d="m 715.07015,617.88174 c 0.55574,0.5555 1.38897,0.5555 1.88898,0.5555 0.86132,0 2.75033,0 2.75033,-1.02769 0,-0.83351 -1.44459,-0.86132 -2.47244,-0.86132 -0.4722,0 -1.11109,0 -1.8334,0.27789 -0.0279,-0.11108 -0.16666,-0.50005 -0.16666,-1.00005 0,-0.1112 0.0556,-0.63901 0.11108,-0.94455 0.0279,-0.0275 0.0556,-0.13904 0.0556,-0.1945 0,-0.22211 -0.19447,-0.44455 -0.44455,-0.44455 -0.63889,0 -0.63889,1.05579 -0.63889,1.52814 0,0.33319 0,0.83323 0.27773,1.41678 -3.58352,1.8334 -7.69502,6.72264 -7.69502,11.6953 0,1.52786 0.41677,2.8336 1.55566,4.0003 0.91678,0.91678 1.63906,1.11137 5.16701,2.19468 1.00016,0.27789 2.02814,0.61108 2.02814,1.83356 0,0.75008 -0.4722,1.63905 -1.38897,1.63905 -0.47236,0 -1.33352,-0.11123 -2.27811,-0.77789 -0.16681,-0.11108 -0.22227,-0.16682 -0.36115,-0.16682 -0.30566,0 -0.38893,0.25008 -0.38893,0.38893 0,0.41678 1.6114,1.33352 3.02819,1.33352 1.94459,0 3.13898,-1.97241 3.13898,-3.41684 0,-1.22248 -0.74997,-2.13922 -1.75001,-2.5838 -0.27789,-0.11104 -1.55579,-0.5 -2.33356,-0.72212 -2.13906,-0.63905 -2.8893,-0.8612 -3.58365,-1.6669 -0.75013,-0.83347 -1.02786,-1.7779 -1.02786,-2.94464 0,-4.11146 3.44469,-8.55631 6.36152,-10.11198 z m 3.556,-0.38893 c -0.38897,0.1112 -0.86132,0.16682 -1.63894,0.16682 -0.66681,0 -0.72243,0 -1.02809,-0.16682 0.44454,-0.16669 0.83347,-0.16669 1.25025,-0.16669 0.77789,0 0.88897,0.0279 1.41678,0.13889 l 0,0.0279" />
        <g
           transform="matrix(0.01433125,0,0,-0.01433125,641.53808,695.8585)"
           id="g6859">
          <path
             inkscape:connector-curvature="0"
             id="path6861"
             style="fill:none;stroke:#000000;stroke-width:34.7579422;stroke-linecap:butt;stroke-linejoin:miter;stroke-miterlimit:10;stroke-dasharray:none;stroke-opacity:1"
             d="m 3143.07,3574.8 2563.72,0" />
        </g>
        <path
           inkscape:connector-curvature="0"
           id="path6863"
           style="fill:#000000;fill-opacity:1;fill-rule:nonzero;stroke:none"
           d="m 692.39809,672.76656 c 1.31089,0.55634 2.46328,0.55634 3.41672,0.55634 1.03299,0 3.21794,0 3.21794,-1.23163 0,-0.95346 -1.39056,-1.07269 -2.90021,-1.07269 -0.83435,0 -2.2248,0.0794 -3.69473,0.75497 -0.91391,-0.4768 -1.58921,-1.23191 -1.58921,-2.30447 0,-2.42356 3.89337,-3.85381 7.46901,-3.85381 0.63574,0 2.06587,0 3.65504,1.11253 0.43714,0.31772 0.51666,0.39726 0.79483,0.39726 0.51634,0 1.07256,-0.51635 1.07256,-1.07269 0,-0.75482 -2.42356,-2.26448 -5.12502,-2.26448 -4.56895,0 -8.85958,2.66174 -8.85958,5.68119 0,1.70829 1.43025,2.70159 1.5889,2.82082 -2.344,1.31103 -3.61516,3.53595 -3.61516,5.36347 0,2.5825 2.26447,5.00582 6.47585,5.00582 5.24438,0 7.46914,-3.49616 7.46914,-4.09206 0,-0.23847 -0.19861,-0.39726 -0.43694,-0.39726 -0.1988,0 -0.31801,0.15879 -0.39741,0.27817 -0.55634,0.91362 -1.50981,2.38372 -6.27709,2.38372 -2.42357,0 -5.80056,-0.59589 -5.80056,-3.41672 0,-1.35086 1.11236,-3.45655 3.53592,-4.64848 z m 1.31089,-0.51636 c 0.91391,-0.31801 1.74813,-0.35756 2.42356,-0.35756 0.99331,0 1.15208,0.0396 1.86738,0.23818 -0.5959,0.27817 -0.67546,0.31801 -2.18511,0.31801 -0.87407,0 -1.35073,0 -2.10583,-0.19863" />
        <path
           inkscape:connector-curvature="0"
           id="path6865"
           style="fill:#000000;fill-opacity:1;fill-rule:nonzero;stroke:none"
           d="m 719.63233,678.87081 c 0,-3.05585 -0.36112,-5.25039 -1.63905,-7.195 -0.86117,-1.27792 -2.58349,-2.38931 -4.80585,-2.38931 -6.44502,0 -6.44502,7.58424 -6.44502,9.58431 0,2.00007 0,9.41744 6.44502,9.41744 6.4449,0 6.4449,-7.41737 6.4449,-9.41744 z m -6.4449,8.63974 c -1.27806,0 -2.97245,-0.75016 -3.52819,-3.02815 -0.38881,-1.63914 -0.38881,-3.91692 -0.38881,-5.97274 0,-2.02787 0,-4.13929 0.41662,-5.66715 0.58343,-2.19468 2.36149,-2.77796 3.50038,-2.77796 1.50005,0 2.94452,0.91662 3.44468,2.52789 0.44439,1.50019 0.4722,3.5004 0.4722,5.91722 0,2.05582 0,4.11147 -0.361,5.86167 -0.55578,2.5279 -2.44476,3.13922 -3.55588,3.13922" />
      </g>
    </g>
    <path
       style="fill:none;fill-rule:evenodd;stroke:#000000;stroke-width:1px;stroke-linecap:butt;stroke-linejoin:miter;stroke-opacity:1;marker-end:url(#marker6875)"
       d="m 417.14286,288.07647 -94.28572,51.42857"
       id="path6867"
       inkscape:connector-curvature="0" />
    <path
       style="fill:none;fill-rule:evenodd;stroke:#000000;stroke-width:1px;stroke-linecap:butt;stroke-linejoin:miter;stroke-opacity:1;marker-end:url(#marker6909)"
       d="m 617.14286,612.36218 -120,-82.85714"
       id="path6901"
       inkscape:connector-curvature="0" />
    <path
       style="fill:none;fill-rule:evenodd;stroke:#000000;stroke-width:1px;stroke-linecap:butt;stroke-linejoin:miter;stroke-opacity:1;marker-end:url(#marker6945)"
       d="M 287.14286,749.50504 218.57143,648.07647"
       id="path6937"
       inkscape:connector-curvature="0" />
  </g>
</svg>
