<?xml version="1.0" encoding="UTF-8" standalone="no"?>
<!-- Created with Inkscape (http://www.inkscape.org/) -->

<svg
   xmlns:dc="http://purl.org/dc/elements/1.1/"
   xmlns:cc="http://creativecommons.org/ns#"
   xmlns:rdf="http://www.w3.org/1999/02/22-rdf-syntax-ns#"
   xmlns:svg="http://www.w3.org/2000/svg"
   xmlns="http://www.w3.org/2000/svg"
   xmlns:sodipodi="http://sodipodi.sourceforge.net/DTD/sodipodi-0.dtd"
   xmlns:inkscape="http://www.inkscape.org/namespaces/inkscape"
   width="133.97681mm"
   height="50.644772mm"
   viewBox="0 0 133.97681 50.644773"
   version="1.1"
   id="svg8"
   inkscape:version="0.92.1 r15371"
   sodipodi:docname="innercornicalrefraction.svg">
  <defs
     id="defs2">
    <marker
       inkscape:stockid="TriangleOutL"
       orient="auto"
       refY="0"
       refX="0"
       id="TriangleOutL"
       style="overflow:visible"
       inkscape:isstock="true">
      <path
         id="path4668"
         d="M 5.77,0 -2.88,5 V -5 Z"
         style="fill:#000000;fill-opacity:1;fill-rule:evenodd;stroke:#000000;stroke-width:1.00000003pt;stroke-opacity:1"
         transform="scale(0.8)"
         inkscape:connector-curvature="0" />
    </marker>
    <marker
       inkscape:stockid="Tail"
       orient="auto"
       refY="0"
       refX="0"
       id="Tail"
       style="overflow:visible"
       inkscape:isstock="true">
      <g
         id="g4574"
         transform="scale(-1.2)"
         style="fill:#000000;fill-opacity:1;stroke:#000000;stroke-opacity:1">
        <path
           id="path4562"
           d="M -3.8048674,-3.9585227 0.54352094,0"
           style="fill:#000000;fill-opacity:1;fill-rule:evenodd;stroke:#000000;stroke-width:0.80000001;stroke-linecap:round;stroke-opacity:1"
           inkscape:connector-curvature="0" />
        <path
           id="path4564"
           d="M -1.2866832,-3.9585227 3.0617053,0"
           style="fill:#000000;fill-opacity:1;fill-rule:evenodd;stroke:#000000;stroke-width:0.80000001;stroke-linecap:round;stroke-opacity:1"
           inkscape:connector-curvature="0" />
        <path
           id="path4566"
           d="M 1.3053582,-3.9585227 5.6537466,0"
           style="fill:#000000;fill-opacity:1;fill-rule:evenodd;stroke:#000000;stroke-width:0.80000001;stroke-linecap:round;stroke-opacity:1"
           inkscape:connector-curvature="0" />
        <path
           id="path4568"
           d="M -3.8048674,4.1775838 0.54352094,0.21974226"
           style="fill:#000000;fill-opacity:1;fill-rule:evenodd;stroke:#000000;stroke-width:0.80000001;stroke-linecap:round;stroke-opacity:1"
           inkscape:connector-curvature="0" />
        <path
           id="path4570"
           d="M -1.2866832,4.1775838 3.0617053,0.21974226"
           style="fill:#000000;fill-opacity:1;fill-rule:evenodd;stroke:#000000;stroke-width:0.80000001;stroke-linecap:round;stroke-opacity:1"
           inkscape:connector-curvature="0" />
        <path
           id="path4572"
           d="M 1.3053582,4.1775838 5.6537466,0.21974226"
           style="fill:#000000;fill-opacity:1;fill-rule:evenodd;stroke:#000000;stroke-width:0.80000001;stroke-linecap:round;stroke-opacity:1"
           inkscape:connector-curvature="0" />
      </g>
    </marker>
    <marker
       inkscape:stockid="EmptyTriangleOutM"
       orient="auto"
       refY="0"
       refX="0"
       id="EmptyTriangleOutM"
       style="overflow:visible"
       inkscape:isstock="true">
      <path
         id="path4689"
         d="M 5.77,0 -2.88,5 V -5 Z"
         style="fill:#ffffff;fill-rule:evenodd;stroke:#000000;stroke-width:1.00000003pt;stroke-opacity:1"
         transform="matrix(0.4,0,0,0.4,-1.8,0)"
         inkscape:connector-curvature="0" />
    </marker>
    <marker
       inkscape:stockid="Arrow1Lend"
       orient="auto"
       refY="0"
       refX="0"
       id="marker5409"
       style="overflow:visible"
       inkscape:isstock="true">
      <path
         id="path5407"
         d="M 0,0 5,-5 -12.5,0 5,5 Z"
         style="fill:#000000;fill-opacity:1;fill-rule:evenodd;stroke:#000000;stroke-width:1.00000003pt;stroke-opacity:1"
         transform="matrix(-0.8,0,0,-0.8,-10,0)"
         inkscape:connector-curvature="0" />
    </marker>
    <marker
       inkscape:stockid="Arrow1Lend"
       orient="auto"
       refY="0"
       refX="0"
       id="marker5369"
       style="overflow:visible"
       inkscape:isstock="true">
      <path
         id="path5367"
         d="M 0,0 5,-5 -12.5,0 5,5 Z"
         style="fill:#000000;fill-opacity:1;fill-rule:evenodd;stroke:#000000;stroke-width:1.00000003pt;stroke-opacity:1"
         transform="matrix(-0.8,0,0,-0.8,-10,0)"
         inkscape:connector-curvature="0" />
    </marker>
    <marker
       inkscape:isstock="true"
       style="overflow:visible"
       id="marker4987"
       refX="0"
       refY="0"
       orient="auto"
       inkscape:stockid="Arrow1Lend"
       inkscape:collect="always">
      <path
         transform="matrix(-0.8,0,0,-0.8,-10,0)"
         style="fill:#000000;fill-opacity:1;fill-rule:evenodd;stroke:#000000;stroke-width:1.00000003pt;stroke-opacity:1"
         d="M 0,0 5,-5 -12.5,0 5,5 Z"
         id="path4985"
         inkscape:connector-curvature="0" />
    </marker>
  </defs>
  <sodipodi:namedview
     id="base"
     pagecolor="#ffffff"
     bordercolor="#666666"
     borderopacity="1.0"
     inkscape:pageopacity="0.0"
     inkscape:pageshadow="2"
     inkscape:zoom="1.979899"
     inkscape:cx="243.25251"
     inkscape:cy="111.18357"
     inkscape:document-units="mm"
     inkscape:current-layer="layer1"
     showgrid="false"
     inkscape:snap-midpoints="false"
     fit-margin-left="1"
     fit-margin-bottom="1"
     fit-margin-right="1"
     fit-margin-top="1"
     inkscape:window-width="1920"
     inkscape:window-height="1027"
     inkscape:window-x="-8"
     inkscape:window-y="-8"
     inkscape:window-maximized="1" />
  <metadata
     id="metadata5">
    <rdf:RDF>
      <cc:Work
         rdf:about="">
        <dc:format>image/svg+xml</dc:format>
        <dc:type
           rdf:resource="http://purl.org/dc/dcmitype/StillImage" />
        <dc:title></dc:title>
      </cc:Work>
    </rdf:RDF>
  </metadata>
  <g
     inkscape:label="レイヤー 1"
     inkscape:groupmode="layer"
     id="layer1"
     transform="translate(-47.041698,-62.224567)">
    <rect
       style="opacity:1;fill:#000000;fill-opacity:0.24423966;stroke:none;stroke-width:0.35277778;stroke-miterlimit:4;stroke-dasharray:none;stroke-dashoffset:0;stroke-opacity:1"
       id="rect7483"
       width="32.846573"
       height="48.579613"
       x="92.742531"
       y="63.289726"
       rx="9.2273694e-016" />
    <path
       style="fill:none;stroke:#000000;stroke-width:0.35277778;stroke-linecap:butt;stroke-linejoin:miter;stroke-miterlimit:4;stroke-dasharray:none;stroke-opacity:1"
       d="M 92.742529,63.224567 V 98.617235"
       id="path4498"
       inkscape:connector-curvature="0" />
    <path
       inkscape:connector-curvature="0"
       id="path4500"
       d="m 92.742529,103.36212 v 8.4912"
       style="fill:none;stroke:#000000;stroke-width:0.35277781;stroke-linecap:butt;stroke-linejoin:miter;stroke-miterlimit:4;stroke-dasharray:none;stroke-opacity:1" />
    <path
       style="fill:none;stroke:#000000;stroke-width:0.35277778;stroke-linecap:butt;stroke-linejoin:miter;stroke-miterlimit:4;stroke-dasharray:none;stroke-opacity:1;marker-end:url(#TriangleOutL)"
       d="m 100.44717,75.69494 h 15.13447"
       id="path4524"
       inkscape:connector-curvature="0" />
    <path
       style="fill:none;stroke:#000000;stroke-width:0.35277778;stroke-linecap:butt;stroke-linejoin:miter;stroke-miterlimit:4;stroke-dasharray:none;stroke-opacity:1;marker-mid:url(#marker4987)"
       d="m 48.041698,101.02461 h 25.724692 35.81412 44.09947 26.33852"
       id="path4942"
       inkscape:connector-curvature="0"
       sodipodi:nodetypes="ccccc" />
    <path
       style="fill:none;stroke:#000000;stroke-width:0.35277778;stroke-linecap:butt;stroke-linejoin:miter;stroke-miterlimit:4;stroke-dasharray:none;stroke-opacity:1;marker-mid:url(#marker5409)"
       d="m 92.675657,101.02564 13.656403,-6.051501 19.25059,-8.530424"
       id="path4955"
       inkscape:connector-curvature="0"
       sodipodi:nodetypes="ccc" />
    <path
       style="fill:none;stroke:#000000;stroke-width:0.35277778;stroke-linecap:butt;stroke-linejoin:miter;stroke-miterlimit:4;stroke-dasharray:none;stroke-opacity:1;marker-mid:url(#marker5369)"
       d="m 125.58259,86.443634 h 28.12391 26.23271"
       id="path4966"
       inkscape:connector-curvature="0"
       sodipodi:nodetypes="ccc" />
    <ellipse
       style="opacity:1;fill:none;fill-opacity:1;stroke:#000000;stroke-width:0.35277775;stroke-miterlimit:4;stroke-dasharray:0.70555551, 0.70555551;stroke-dashoffset:0;stroke-opacity:1"
       id="path7481"
       cx="117.52727"
       cy="95.487885"
       rx="1.4862853"
       ry="5.1854253" />
    <g
       id="g4717"
       transform="translate(-30.618853,2.8834593)">
      <path
         d="m 139.32129,66.39712 c 0.0791,0 0.16284,0 0.16284,-0.09314 0,-0.09297 -0.0837,-0.09297 -0.16284,-0.09297 h -2.51689 c -0.0791,0 -0.16286,0 -0.16286,0.09297 0,0.09314 0.0838,0.09314 0.16286,0.09314 h 2.51689"
         style="fill:#000000;fill-opacity:1;fill-rule:nonzero;stroke:none;stroke-width:0.00126898"
         id="path4594"
         inkscape:connector-curvature="0" />
      <path
         d="m 142.58898,66.39712 c -0.25587,0.195343 -0.38147,0.386154 -0.41871,0.446569 -0.20935,0.32104 -0.24656,0.614221 -0.24656,0.618752 0,0.05589 0.0558,0.05589 0.093,0.05589 0.0791,0 0.0837,-0.0092 0.10237,-0.09314 0.10699,-0.455799 0.38147,-0.846652 0.9072,-1.060622 0.0558,-0.01863 0.0698,-0.02803 0.0698,-0.06058 0,-0.03256 -0.0279,-0.04649 -0.0372,-0.05102 -0.20471,-0.07921 -0.76764,-0.31181 -0.94443,-1.093348 -0.014,-0.05588 -0.0186,-0.06981 -0.0977,-0.06981 -0.0372,0 -0.093,0 -0.093,0.05588 0,0.0092 0.0419,0.302412 0.23725,0.614054 0.0931,0.139626 0.22798,0.302411 0.42802,0.451268 h -3.45669 c -0.0837,0 -0.16748,0 -0.16748,0.09297 0,0.09314 0.0838,0.09314 0.16748,0.09314 h 3.45669"
         style="fill:#000000;fill-opacity:1;fill-rule:nonzero;stroke:none;stroke-width:0.00126898"
         id="path4596"
         inkscape:connector-curvature="0" />
      <path
         d="m 139.60976,69.066801 c 0,-0.949022 -0.70251,-1.702702 -1.54923,-1.702702 -0.83279,0 -1.54458,0.744282 -1.54458,1.702702 0,0.953721 0.71645,1.679542 1.54458,1.679542 0.84672,0 1.54923,-0.73975 1.54923,-1.679542 z m -1.5446,1.558544 c -0.4466,0 -1.07004,-0.409313 -1.07004,-1.623659 0,-1.204947 0.67925,-1.521288 1.06541,-1.521288 0.40475,0 1.07002,0.33027 1.07002,1.521288 0,1.232806 -0.63737,1.623659 -1.06539,1.623659"
         style="fill:#000000;fill-opacity:1;fill-rule:nonzero;stroke:none;stroke-width:0.00126898"
         id="path4598"
         inkscape:connector-curvature="0" />
      <path
         d="m 140.95128,67.526884 c -0.0419,-0.05588 -0.0465,-0.06041 -0.13491,-0.06041 h -0.79092 v 0.144157 h 0.13493 c 0.0698,0 0.16283,0.0047 0.23259,0.0092 0.10702,0.0141 0.11167,0.01863 0.11167,0.107069 v 2.428523 c 0,0.125697 0,0.344367 -0.47919,0.344367 v 0.144157 c 0.16285,-0.0047 0.39078,-0.01393 0.54432,-0.01393 0.15352,0 0.38151,0.0092 0.54434,0.01393 V 70.49979 c -0.47921,0 -0.47921,-0.21867 -0.47921,-0.344367 v -2.419125 c 0.0233,0.02316 0.0279,0.02786 0.0465,0.05572 l 1.89818,2.791518 c 0.0419,0.05572 0.0465,0.06042 0.0791,0.06042 0.0651,0 0.0651,-0.03256 0.0651,-0.120998 v -2.567982 c 0,-0.125697 0,-0.344367 0.47917,-0.344367 v -0.144157 c -0.16282,0.0045 -0.39078,0.01393 -0.54432,0.01393 -0.15352,0 -0.38151,-0.0094 -0.54431,-0.01393 v 0.144157 c 0.47918,0 0.47918,0.21867 0.47918,0.344367 v 1.986485 l -1.64227,-2.414594"
         style="fill:#000000;fill-opacity:1;fill-rule:nonzero;stroke:none;stroke-width:0.00126898"
         id="path4600"
         inkscape:connector-curvature="0" />
    </g>
    <path
       inkscape:connector-curvature="0"
       id="path4616"
       style="fill:#000000;fill-opacity:1;fill-rule:nonzero;stroke:none;stroke-width:0.00126898"
       d="m 110.5642,89.954285 c -0.15352,0.06047 -0.1954,0.200042 -0.1954,0.26519 0,0.120947 0.0977,0.190727 0.20005,0.190727 0.11165,0 0.2838,-0.09304 0.2838,-0.316357 0,-0.246578 -0.24656,-0.409414 -0.66528,-0.409414 -0.13493,0 -0.39545,0.0093 -0.60947,0.17215 -0.20936,0.15817 -0.28377,0.428025 -0.28377,0.544307 0,0.139593 0.0651,0.269855 0.16748,0.35358 0.13027,0.10237 0.20935,0.116316 0.52569,0.176798 0.13958,0.02326 0.41871,0.07444 0.41871,0.283801 0,0.01861 0,0.441954 -0.69317,0.441954 -0.22798,0 -0.40012,-0.0465 -0.50247,-0.120948 0.15817,-0.04652 0.25588,-0.18143 0.25588,-0.321006 0,-0.167485 -0.13491,-0.214004 -0.22798,-0.214004 -0.15817,0 -0.33495,0.130245 -0.33495,0.362877 0,0.302395 0.32567,0.460565 0.80021,0.460565 1.06073,0 1.06073,-0.795551 1.06073,-0.800182 0,-0.158204 -0.0791,-0.283801 -0.18609,-0.37684 -0.14423,-0.12563 -0.32102,-0.158187 -0.48386,-0.186096 -0.25587,-0.04654 -0.43733,-0.07911 -0.43733,-0.251226 0,-0.0093 0,-0.358246 0.52109,-0.358246 0.093,0 0.2605,0.0093 0.38613,0.10237" />
    <path
       inkscape:connector-curvature="0"
       id="path4618"
       style="fill:#000000;fill-opacity:1;fill-rule:nonzero;stroke:none;stroke-width:0.00126898"
       d="m 97.280505,74.621208 c -0.0651,-0.232615 -0.321,-0.35358 -0.57224,-0.35358 -0.17212,0 -0.30239,0.09771 -0.40473,0.265189 -0.11632,0.186096 -0.17679,0.437326 -0.17679,0.460586 0,0.06513 0.0698,0.06513 0.11165,0.06513 0.0512,0 0.0698,0 0.093,-0.02326 0.009,-0.0093 0.009,-0.01862 0.0372,-0.134912 0.0931,-0.362884 0.1954,-0.465254 0.31637,-0.465254 0.0698,0 0.10701,0.04654 0.10701,0.172149 0,0.07908 -0.0186,0.153525 -0.0651,0.339623 -0.0326,0.13027 -0.0791,0.31634 -0.10234,0.418711 l -0.16748,0.651324 c -0.014,0.06514 -0.0372,0.15353 -0.0372,0.186097 0,0.0977 0.0745,0.204689 0.21867,0.204689 0.24192,0 0.29775,-0.213998 0.33031,-0.353577 0.0465,-0.172119 0.0838,-0.321008 0.13027,-0.521054 0.0186,-0.06049 0.13492,-0.539672 0.14423,-0.553623 0.005,-0.02792 0.13491,-0.237281 0.28844,-0.362892 0.13027,-0.102371 0.28379,-0.181447 0.4792,-0.181447 0.12097,0 0.23262,0.04654 0.23262,0.274486 0,0.265186 -0.20473,0.809525 -0.29312,1.04214 -0.0512,0.125604 -0.0651,0.158171 -0.0651,0.237256 0,0.269849 0.26986,0.418711 0.52573,0.418711 0.49314,0 0.72576,-0.632708 0.72576,-0.72577 0,-0.06511 -0.0698,-0.06511 -0.11165,-0.06511 -0.0558,0 -0.0884,0 -0.10701,0.06047 -0.15353,0.516414 -0.40476,0.562933 -0.47921,0.562933 -0.0326,0 -0.0791,0 -0.0791,-0.0977 0,-0.106985 0.0465,-0.223304 0.093,-0.339625 0.0744,-0.190738 0.28844,-0.735052 0.28844,-0.995592 0,-0.428027 -0.35825,-0.539678 -0.6932,-0.539678 -0.0977,0 -0.43733,0 -0.76765,0.35358" />
  </g>
</svg>
