<?xml version="1.0" encoding="UTF-8" standalone="no"?>
<!-- Created with Inkscape (http://www.inkscape.org/) -->

<svg
   xmlns:dc="http://purl.org/dc/elements/1.1/"
   xmlns:cc="http://creativecommons.org/ns#"
   xmlns:rdf="http://www.w3.org/1999/02/22-rdf-syntax-ns#"
   xmlns:svg="http://www.w3.org/2000/svg"
   xmlns="http://www.w3.org/2000/svg"
   xmlns:sodipodi="http://sodipodi.sourceforge.net/DTD/sodipodi-0.dtd"
   xmlns:inkscape="http://www.inkscape.org/namespaces/inkscape"
   width="81.59201mm"
   height="133.08722mm"
   viewBox="0 0 81.59201 133.08722"
   version="1.1"
   id="svg8"
   inkscape:version="0.92.1 r15371"
   sodipodi:docname="fresnelEllipse.svg">
  <defs
     id="defs2">
    <marker
       inkscape:isstock="true"
       style="overflow:visible"
       id="marker4813"
       refX="0"
       refY="0"
       orient="auto"
       inkscape:stockid="Arrow1Lend">
      <path
         transform="matrix(-0.8,0,0,-0.8,-10,0)"
         style="fill:#000000;fill-opacity:1;fill-rule:evenodd;stroke:#000000;stroke-width:1.00000003pt;stroke-opacity:1"
         d="M 0,0 5,-5 -12.5,0 5,5 Z"
         id="path4811"
         inkscape:connector-curvature="0" />
    </marker>
    <marker
       inkscape:stockid="Arrow1Lend"
       orient="auto"
       refY="0"
       refX="0"
       id="marker4779"
       style="overflow:visible"
       inkscape:isstock="true"
       inkscape:collect="always">
      <path
         id="path4777"
         d="M 0,0 5,-5 -12.5,0 5,5 Z"
         style="fill:#000000;fill-opacity:1;fill-rule:evenodd;stroke:#000000;stroke-width:1.00000003pt;stroke-opacity:1"
         transform="matrix(-0.8,0,0,-0.8,-10,0)"
         inkscape:connector-curvature="0" />
    </marker>
    <marker
       inkscape:stockid="Arrow1Lend"
       orient="auto"
       refY="0"
       refX="0"
       id="Arrow1Lend"
       style="overflow:visible"
       inkscape:isstock="true">
      <path
         id="path4498"
         d="M 0,0 5,-5 -12.5,0 5,5 Z"
         style="fill:#000000;fill-opacity:1;fill-rule:evenodd;stroke:#000000;stroke-width:1.00000003pt;stroke-opacity:1"
         transform="matrix(-0.8,0,0,-0.8,-10,0)"
         inkscape:connector-curvature="0" />
    </marker>
  </defs>
  <sodipodi:namedview
     id="base"
     pagecolor="#ffffff"
     bordercolor="#666666"
     borderopacity="1.0"
     inkscape:pageopacity="0.0"
     inkscape:pageshadow="2"
     inkscape:zoom="1.4"
     inkscape:cx="12.147794"
     inkscape:cy="281.8587"
     inkscape:document-units="mm"
     inkscape:current-layer="layer1"
     showgrid="false"
     inkscape:window-width="1920"
     inkscape:window-height="1027"
     inkscape:window-x="-8"
     inkscape:window-y="-8"
     inkscape:window-maximized="1"
     fit-margin-left="1"
     fit-margin-bottom="1"
     fit-margin-right="1"
     fit-margin-top="1" />
  <metadata
     id="metadata5">
    <rdf:RDF>
      <cc:Work
         rdf:about="">
        <dc:format>image/svg+xml</dc:format>
        <dc:type
           rdf:resource="http://purl.org/dc/dcmitype/StillImage" />
        <dc:title></dc:title>
      </cc:Work>
    </rdf:RDF>
  </metadata>
  <g
     inkscape:label="レイヤー 1"
     inkscape:groupmode="layer"
     id="layer1"
     transform="translate(-70.56726,-34.853717)">
    <ellipse
       style="opacity:1;fill:none;fill-opacity:1;stroke:#000000;stroke-width:0.35277778;stroke-miterlimit:4;stroke-dasharray:none;stroke-dashoffset:0;stroke-opacity:1"
       id="path4485"
       cx="103.282"
       cy="101.39732"
       rx="31.538349"
       ry="65.367218" />
    <ellipse
       style="opacity:1;fill:none;fill-opacity:1;stroke:#000000;stroke-width:0.35277778;stroke-miterlimit:4;stroke-dasharray:1.05833337, 1.05833337;stroke-dashoffset:0;stroke-opacity:1"
       id="path4487"
       transform="rotate(34.596374)"
       cx="142.59143"
       cy="24.824812"
       rx="35.118145"
       ry="16.558294" />
    <path
       style="fill:none;stroke:#000000;stroke-width:0.35277778;stroke-linecap:butt;stroke-linejoin:miter;stroke-miterlimit:4;stroke-dasharray:none;stroke-opacity:1;marker-end:url(#Arrow1Lend)"
       d="m 103.62853,101.15805 33.2502,-48.157781"
       id="path4489"
       inkscape:connector-curvature="0" />
    <path
       inkscape:connector-curvature="0"
       id="path4491"
       d="m 103.60627,101.06104 27.72364,20.59856"
       style="fill:none;stroke:#000000;stroke-width:0.35277778;stroke-linecap:butt;stroke-linejoin:miter;stroke-miterlimit:4;stroke-dasharray:none;stroke-opacity:1;marker-end:url(#marker4779)" />
    <path
       style="fill:none;stroke:#000000;stroke-width:0.35277778;stroke-linecap:butt;stroke-linejoin:miter;stroke-miterlimit:4;stroke-dasharray:none;stroke-opacity:1;marker-end:url(#marker4813)"
       d="m 103.532,101.07939 -14.35932,9.36538"
       id="path4493"
       inkscape:connector-curvature="0" />
    <g
       id="g4646"
       transform="translate(-22.584275,-7.4835463)">
      <path
         d="m 156.06069,55.393521 c -0.10669,-0.381003 -0.52582,-0.578927 -0.93734,-0.578927 -0.28194,0 -0.49533,0.159988 -0.66297,0.434333 -0.19053,0.304857 -0.28958,0.716373 -0.28958,0.754309 0,0.106659 0.11429,0.106659 0.18289,0.106659 0.0838,0 0.11429,0 0.15239,-0.03794 0.0153,-0.01539 0.0153,-0.03051 0.0609,-0.221015 0.15244,-0.594595 0.32008,-0.762281 0.51822,-0.762281 0.11434,0 0.17529,0.07642 0.17529,0.282042 0,0.12975 -0.0305,0.251528 -0.1067,0.556385 -0.0533,0.213318 -0.12954,0.518175 -0.16764,0.685861 l -0.27433,1.066863 c -0.0229,0.106659 -0.061,0.251528 -0.061,0.304858 0,0.159988 0.12195,0.33537 0.35818,0.33537 0.39628,0 0.48772,-0.350489 0.54107,-0.579201 0.0762,-0.282041 0.13719,-0.525872 0.21339,-0.853546 0.0305,-0.09896 0.22099,-0.884059 0.23624,-0.906875 0.008,-0.04563 0.22099,-0.388701 0.47247,-0.594321 0.21339,-0.167686 0.46487,-0.297436 0.78495,-0.297436 0.19815,0 0.38103,0.07642 0.38103,0.449727 0,0.434333 -0.33534,1.326089 -0.48013,1.707092 -0.0838,0.20562 -0.10668,0.25895 -0.10668,0.3887 0,0.442029 0.44203,0.68586 0.86116,0.68586 0.80777,0 1.1888,-1.03635 1.1888,-1.188916 0,-0.106659 -0.11432,-0.106659 -0.18288,-0.106659 -0.0914,0 -0.14479,0 -0.17527,0.09896 -0.2515,0.846124 -0.66302,0.922269 -0.78496,0.922269 -0.0534,0 -0.12953,0 -0.12953,-0.159988 0,-0.175382 0.0762,-0.365884 0.15242,-0.556386 0.12189,-0.312554 0.47246,-1.204035 0.47246,-1.630946 0,-0.700979 -0.58681,-0.883784 -1.13547,-0.883784 -0.16005,0 -0.71636,0 -1.25743,0.578927"
         style="fill:#000000;fill-opacity:1;fill-rule:nonzero;stroke:none;stroke-width:0.00274894"
         id="path4550"
         inkscape:connector-curvature="0" />
      <path
         d="m 161.24773,51.120569 c -1.01244,0.713899 -1.27886,1.843714 -1.27886,2.659049 0,0.751286 0.22379,1.918211 1.27886,2.664273 0.0427,0 0.10657,0 0.10657,-0.06405 0,-0.03189 -0.016,-0.04261 -0.0533,-0.07999 -0.7087,-0.639403 -0.96983,-1.545179 -0.96983,-2.515005 0,-1.438795 0.54886,-2.142249 0.9858,-2.536447 0.0213,-0.02144 0.0373,-0.03739 0.0373,-0.06405 0,-0.06377 -0.0639,-0.06377 -0.10657,-0.06377"
         style="fill:#000000;fill-opacity:1;fill-rule:nonzero;stroke:none;stroke-width:0.00274894"
         id="path4552"
         inkscape:connector-curvature="0" />
      <path
         d="m 163.51901,51.728084 c 0,-0.144044 -0.0107,-0.149267 -0.15988,-0.149267 -0.34103,0.335645 -0.82592,0.340868 -1.04437,0.340868 v 0.191876 c 0.12785,0 0.47955,0 0.77261,-0.148992 v 2.717327 c 0,0.175932 0,0.245206 -0.53285,0.245206 h -0.20249 v 0.191876 c 0.0959,-0.0052 0.75131,-0.02144 0.94852,-0.02144 0.16513,0 0.83656,0.01622 0.9538,0.02144 v -0.191876 h -0.20248 c -0.53286,0 -0.53286,-0.06927 -0.53286,-0.245206 v -2.951812"
         style="fill:#000000;fill-opacity:1;fill-rule:nonzero;stroke:none;stroke-width:0.00274894"
         id="path4554"
         inkscape:connector-curvature="0" />
      <path
         d="m 165.24829,51.120569 c -0.0373,0 -0.10122,0 -0.10122,0.06377 0,0.02666 0.016,0.04261 0.048,0.07999 0.45825,0.421138 0.96983,1.14026 0.96983,2.51528 0,1.113596 -0.34637,1.955596 -0.92189,2.47762 -0.0906,0.09071 -0.0959,0.09594 -0.0959,0.122603 0,0.02666 0.016,0.06405 0.0693,0.06405 0.0639,0 0.57013,-0.351864 0.92183,-1.017933 0.23449,-0.442304 0.38903,-1.017657 0.38903,-1.641117 0,-0.751285 -0.22381,-1.91821 -1.27891,-2.664272"
         style="fill:#000000;fill-opacity:1;fill-rule:nonzero;stroke:none;stroke-width:0.00274894"
         id="path4556"
         inkscape:connector-curvature="0" />
    </g>
    <g
       id="g4652"
       transform="translate(-15.367998,-16.704346)">
      <path
         d="m 156.06069,71.381356 c -0.10669,-0.381003 -0.52582,-0.578927 -0.93734,-0.578927 -0.28194,0 -0.49533,0.159988 -0.66297,0.434333 -0.19053,0.304857 -0.28958,0.716373 -0.28958,0.754309 0,0.106659 0.11429,0.106659 0.18289,0.106659 0.0838,0 0.11429,0 0.15239,-0.03794 0.0153,-0.01539 0.0153,-0.03051 0.0609,-0.221014 0.15244,-0.594596 0.32008,-0.762282 0.51822,-0.762282 0.11434,0 0.17529,0.07642 0.17529,0.282042 0,0.12975 -0.0305,0.251528 -0.1067,0.556385 -0.0533,0.213318 -0.12954,0.518175 -0.16764,0.685861 l -0.27433,1.066863 c -0.0229,0.106659 -0.061,0.251528 -0.061,0.304858 0,0.159988 0.12195,0.33537 0.35818,0.33537 0.39628,0 0.48772,-0.350489 0.54107,-0.579201 0.0762,-0.282041 0.13719,-0.525872 0.21339,-0.853546 0.0305,-0.09896 0.22099,-0.884059 0.23624,-0.906875 0.008,-0.04563 0.22099,-0.388701 0.47247,-0.594321 0.21339,-0.167686 0.46487,-0.297436 0.78495,-0.297436 0.19815,0 0.38103,0.07642 0.38103,0.449727 0,0.434333 -0.33534,1.326089 -0.48013,1.707092 -0.0838,0.205621 -0.10668,0.25895 -0.10668,0.3887 0,0.442029 0.44203,0.68586 0.86116,0.68586 0.80777,0 1.1888,-1.03635 1.1888,-1.188916 0,-0.106659 -0.11432,-0.106659 -0.18288,-0.106659 -0.0914,0 -0.14479,0 -0.17527,0.09896 -0.2515,0.846124 -0.66302,0.922269 -0.78496,0.922269 -0.0534,0 -0.12953,0 -0.12953,-0.159988 0,-0.175382 0.0762,-0.365884 0.15242,-0.556386 0.12189,-0.312554 0.47246,-1.204035 0.47246,-1.630946 0,-0.700979 -0.58681,-0.883784 -1.13547,-0.883784 -0.16005,0 -0.71636,0 -1.25743,0.578927"
         style="fill:#000000;fill-opacity:1;fill-rule:nonzero;stroke:none;stroke-width:0.00274894"
         id="path4558"
         inkscape:connector-curvature="0" />
      <path
         d="m 161.24773,67.108404 c -1.01244,0.713899 -1.27886,1.843714 -1.27886,2.659049 0,0.751286 0.22379,1.918211 1.27886,2.664273 0.0427,0 0.10657,0 0.10657,-0.06405 0,-0.03189 -0.016,-0.04261 -0.0533,-0.07999 -0.7087,-0.639403 -0.96983,-1.545179 -0.96983,-2.515005 0,-1.438795 0.54886,-2.142249 0.9858,-2.536447 0.0213,-0.02144 0.0373,-0.03739 0.0373,-0.06405 0,-0.06378 -0.0639,-0.06378 -0.10657,-0.06378"
         style="fill:#000000;fill-opacity:1;fill-rule:nonzero;stroke:none;stroke-width:0.00274894"
         id="path4560"
         inkscape:connector-curvature="0" />
      <path
         d="m 164.42487,70.134987 h -0.18118 c -0.016,0.117104 -0.0693,0.431583 -0.13852,0.484913 -0.0427,0.03189 -0.45297,0.03189 -0.52755,0.03189 h -0.98047 c 0.5595,-0.495359 0.74601,-0.644626 1.06574,-0.895055 0.39431,-0.314478 0.76198,-0.644901 0.76198,-1.150981 0,-0.644901 -0.56482,-1.039099 -1.24692,-1.039099 -0.66073,0 -1.10832,0.463471 -1.10832,0.953882 0,0.271595 0.2291,0.29826 0.2824,0.29826 0.12788,0 0.2824,-0.09044 0.2824,-0.282316 0,-0.09594 -0.0373,-0.282591 -0.31437,-0.282591 0.16516,-0.378254 0.52752,-0.495359 0.77795,-0.495359 0.53288,0 0.80998,0.41564 0.80998,0.847223 0,0.463471 -0.33037,0.83128 -0.50089,1.022881 l -1.28422,1.268361 c -0.0533,0.04783 -0.0533,0.05855 -0.0533,0.20782 h 2.19536 l 0.15988,-0.969826"
         style="fill:#000000;fill-opacity:1;fill-rule:nonzero;stroke:none;stroke-width:0.00274894"
         id="path4562"
         inkscape:connector-curvature="0" />
      <path
         d="m 165.24829,67.108404 c -0.0373,0 -0.10122,0 -0.10122,0.06378 0,0.02666 0.016,0.04261 0.048,0.07999 0.45825,0.421138 0.96983,1.14026 0.96983,2.51528 0,1.113596 -0.34637,1.955596 -0.92189,2.47762 -0.0906,0.09071 -0.0959,0.09594 -0.0959,0.122603 0,0.02666 0.016,0.06405 0.0693,0.06405 0.0639,0 0.57013,-0.351864 0.92183,-1.017933 0.23449,-0.442304 0.38903,-1.017657 0.38903,-1.641117 0,-0.751285 -0.22381,-1.91821 -1.27891,-2.664272"
         style="fill:#000000;fill-opacity:1;fill-rule:nonzero;stroke:none;stroke-width:0.00274894"
         id="path4564"
         inkscape:connector-curvature="0" />
    </g>
    <g
       id="g4658"
       transform="translate(-21.047476,38.55363)">
      <path
         d="m 155.16909,89.726874 c -0.0305,0.121888 -0.0381,0.12953 -0.17529,0.144787 -0.12954,0.0076 -0.28193,0.0076 -0.40387,0.0076 -0.19814,0 -0.21339,0 -0.24389,0.01526 -0.0914,0.05336 -0.0914,0.1753 -0.0914,0.20573 0,0.1372 0.13719,0.1372 0.25913,0.1372 h 2.97969 c 2.18711,0 3.4064,-1.798494 3.4064,-3.34546 0,-1.318364 -0.96779,-1.882337 -2.10329,-1.882337 h -3.04067 c -0.15239,0 -0.28193,0 -0.28193,0.221043 0,0.137144 0.099,0.137144 0.32003,0.137144 0.16004,0 0.30483,0.0076 0.46487,0.01523 z m 2.08044,-4.221877 c 0.0305,-0.114328 0.0381,-0.121943 0.0838,-0.12953 0.0686,-0.0076 0.12195,-0.0076 0.20573,-0.0076 h 0.86875 c 0.22104,0 0.73161,0.02284 1.09741,0.312417 0.38103,0.320087 0.38103,0.769703 0.38103,0.945003 0,0.533432 -0.28196,1.585094 -0.48775,2.01184 -0.44197,0.891646 -1.23452,1.242163 -2.11091,1.242163 h -0.94495 c -0.1143,0 -0.12955,0 -0.18289,-0.0076 l 1.08974,-4.366664"
         style="fill:#000000;fill-opacity:1;fill-rule:nonzero;stroke:none;stroke-width:0.00274894"
         id="path4566"
         inkscape:connector-curvature="0" />
      <path
         d="m 163.20497,82.898232 c -1.01243,0.714038 -1.27886,1.843715 -1.27886,2.658995 0,0.75134 0.22379,1.918348 1.27886,2.664328 0.0427,0 0.10658,0 0.10658,-0.06394 0,-0.03197 -0.016,-0.04261 -0.0533,-0.07994 -0.7087,-0.639431 -0.96982,-1.545289 -0.96982,-2.515115 0,-1.438713 0.54885,-2.142111 0.9858,-2.536419 0.0213,-0.02133 0.0373,-0.03733 0.0373,-0.06394 0,-0.06397 -0.0639,-0.06397 -0.10658,-0.06397"
         style="fill:#000000;fill-opacity:1;fill-rule:nonzero;stroke:none;stroke-width:0.00274894"
         id="path4568"
         inkscape:connector-curvature="0" />
      <path
         d="m 165.47626,83.505721 c 0,-0.143907 -0.0107,-0.14924 -0.15988,-0.14924 -0.34104,0.335728 -0.82592,0.341061 -1.04438,0.341061 v 0.191821 c 0.12785,0 0.47955,0 0.77262,-0.149185 v 2.717602 c 0,0.17585 0,0.245123 -0.53286,0.245123 h -0.20248 v 0.191821 c 0.0959,-0.0053 0.75131,-0.0213 0.94852,-0.0213 0.16513,0 0.83656,0.01597 0.9538,0.0213 v -0.191821 h -0.20249 c -0.53285,0 -0.53285,-0.06927 -0.53285,-0.245123 v -2.952059"
         style="fill:#000000;fill-opacity:1;fill-rule:nonzero;stroke:none;stroke-width:0.00274894"
         id="path4570"
         inkscape:connector-curvature="0" />
      <path
         d="m 167.20553,82.898232 c -0.0373,0 -0.10121,0 -0.10121,0.06397 0,0.02661 0.016,0.04261 0.048,0.07994 0.45824,0.420973 0.96982,1.140316 0.96982,2.515088 0,1.113678 -0.34636,1.955624 -0.92188,2.47784 -0.0906,0.09058 -0.0959,0.09591 -0.0959,0.122547 0,0.02661 0.016,0.06394 0.0693,0.06394 0.0639,0 0.57013,-0.3517 0.92183,-1.017795 0.23448,-0.442222 0.38903,-1.01774 0.38903,-1.6412 0,-0.751313 -0.22382,-1.918293 -1.27892,-2.664328"
         style="fill:#000000;fill-opacity:1;fill-rule:nonzero;stroke:none;stroke-width:0.00274894"
         id="path4572"
         inkscape:connector-curvature="0" />
    </g>
    <g
       id="g4664"
       transform="translate(-80.251034,12.747874)">
      <path
         d="m 155.16909,105.7147 c -0.0305,0.12189 -0.0381,0.12954 -0.17529,0.14479 -0.12954,0.008 -0.28193,0.008 -0.40387,0.008 -0.19814,0 -0.21339,0 -0.24389,0.0152 -0.0914,0.0533 -0.0914,0.17529 -0.0914,0.20574 0,0.13719 0.13719,0.13719 0.25913,0.13719 h 2.97969 c 2.18711,0 3.4064,-1.79849 3.4064,-3.34546 0,-1.31836 -0.96779,-1.88234 -2.10329,-1.88234 h -3.04067 c -0.15239,0 -0.28193,0 -0.28193,0.22105 0,0.13714 0.099,0.13714 0.32003,0.13714 0.16004,0 0.30483,0.008 0.46487,0.0152 z m 2.08044,-4.22187 c 0.0305,-0.11433 0.0381,-0.12194 0.0838,-0.12953 0.0686,-0.008 0.12195,-0.008 0.20573,-0.008 h 0.86875 c 0.22104,0 0.73161,0.0228 1.09741,0.31242 0.38103,0.32008 0.38103,0.7697 0.38103,0.945 0,0.53343 -0.28196,1.58511 -0.48775,2.01183 -0.44197,0.89165 -1.23452,1.24218 -2.11091,1.24218 h -0.94495 c -0.1143,0 -0.12955,0 -0.18289,-0.008 l 1.08974,-4.36666"
         style="fill:#000000;fill-opacity:1;fill-rule:nonzero;stroke:none;stroke-width:0.00274894"
         id="path4574"
         inkscape:connector-curvature="0" />
      <path
         d="m 163.20497,98.886068 c -1.01243,0.714037 -1.27886,1.843712 -1.27886,2.658992 0,0.75134 0.22379,1.91835 1.27886,2.66434 0.0427,0 0.10658,0 0.10658,-0.064 0,-0.032 -0.016,-0.0426 -0.0533,-0.0799 -0.7087,-0.63942 -0.96982,-1.54528 -0.96982,-2.5151 0,-1.43872 0.54885,-2.142116 0.9858,-2.536424 0.0213,-0.02133 0.0373,-0.03733 0.0373,-0.06394 0,-0.06397 -0.0639,-0.06397 -0.10658,-0.06397"
         style="fill:#000000;fill-opacity:1;fill-rule:nonzero;stroke:none;stroke-width:0.00274894"
         id="path4576"
         inkscape:connector-curvature="0" />
      <path
         d="m 166.38211,101.91273 h -0.18118 c -0.016,0.11722 -0.0693,0.43164 -0.13852,0.48494 -0.0427,0.0319 -0.45297,0.0319 -0.52755,0.0319 h -0.98046 c 0.55949,-0.49558 0.74601,-0.64474 1.06574,-0.8952 0.3943,-0.31442 0.76197,-0.64476 0.76197,-1.151 0,-0.644741 -0.56482,-1.039104 -1.24691,-1.039104 -0.66074,0 -1.10832,0.463636 -1.10832,0.953854 0,0.27176 0.22909,0.2984 0.2824,0.2984 0.12788,0 0.2824,-0.0906 0.2824,-0.28243 0,-0.0959 -0.0373,-0.2824 -0.31437,-0.2824 0.16515,-0.378333 0.52752,-0.495548 0.77795,-0.495548 0.53288,0 0.80997,0.415612 0.80997,0.847228 0,0.4636 -0.33037,0.83127 -0.50088,1.0231 l -1.28422,1.26825 c -0.0532,0.0479 -0.0532,0.0586 -0.0532,0.20779 h 2.19536 l 0.15987,-0.96983"
         style="fill:#000000;fill-opacity:1;fill-rule:nonzero;stroke:none;stroke-width:0.00274894"
         id="path4578"
         inkscape:connector-curvature="0" />
      <path
         d="m 167.20553,98.886068 c -0.0373,0 -0.10121,0 -0.10121,0.06397 0,0.02661 0.016,0.04261 0.048,0.07994 0.45824,0.420972 0.96982,1.140312 0.96982,2.515082 0,1.11368 -0.34636,1.95562 -0.92188,2.47784 -0.0906,0.0906 -0.0959,0.0959 -0.0959,0.12254 0,0.0266 0.016,0.064 0.0693,0.064 0.0639,0 0.57013,-0.3517 0.92183,-1.01781 0.23448,-0.44222 0.38903,-1.01774 0.38903,-1.64119 0,-0.75132 -0.22382,-1.918295 -1.27892,-2.664329"
         style="fill:#000000;fill-opacity:1;fill-rule:nonzero;stroke:none;stroke-width:0.00274894"
         id="path4580"
         inkscape:connector-curvature="0" />
    </g>
  </g>
</svg>
