<?xml version="1.0" encoding="UTF-8" standalone="no"?>
<!-- Created with Inkscape (http://www.inkscape.org/) -->

<svg
   xmlns:dc="http://purl.org/dc/elements/1.1/"
   xmlns:cc="http://creativecommons.org/ns#"
   xmlns:rdf="http://www.w3.org/1999/02/22-rdf-syntax-ns#"
   xmlns:svg="http://www.w3.org/2000/svg"
   xmlns="http://www.w3.org/2000/svg"
   xmlns:sodipodi="http://sodipodi.sourceforge.net/DTD/sodipodi-0.dtd"
   xmlns:inkscape="http://www.inkscape.org/namespaces/inkscape"
   width="77.184502mm"
   height="31.80393mm"
   viewBox="0 0 77.184504 31.803931"
   version="1.1"
   id="svg8"
   inkscape:version="0.91 r13725"
   sodipodi:docname="outercornicalrefraction.svg">
  <defs
     id="defs2">
    <marker
       inkscape:stockid="Arrow1Mend"
       orient="auto"
       refY="0"
       refX="0"
       id="marker6191"
       style="overflow:visible"
       inkscape:isstock="true">
      <path
         inkscape:connector-curvature="0"
         id="path6189"
         d="M 0,0 5,-5 -12.5,0 5,5 Z"
         style="fill:#000000;fill-opacity:1;fill-rule:evenodd;stroke:#000000;stroke-width:1.00000003pt;stroke-opacity:1"
         transform="matrix(-0.4,0,0,-0.4,-4,0)" />
    </marker>
    <marker
       inkscape:stockid="Arrow1Lend"
       orient="auto"
       refY="0"
       refX="0"
       id="Arrow1Lend"
       style="overflow:visible"
       inkscape:isstock="true">
      <path
         id="path4656"
         d="M 0,0 5,-5 -12.5,0 5,5 Z"
         style="fill:#000000;fill-opacity:1;fill-rule:evenodd;stroke:#000000;stroke-width:1.00000003pt;stroke-opacity:1"
         transform="matrix(-0.8,0,0,-0.8,-10,0)"
         inkscape:connector-curvature="0" />
    </marker>
    <marker
       inkscape:stockid="Arrow1Lend"
       orient="auto"
       refY="0"
       refX="0"
       id="marker7996"
       style="overflow:visible"
       inkscape:isstock="true">
      <path
         id="path7994"
         d="M 0,0 5,-5 -12.5,0 5,5 Z"
         style="fill:#000000;fill-opacity:1;fill-rule:evenodd;stroke:#000000;stroke-width:1.00000003pt;stroke-opacity:1"
         transform="matrix(-0.8,0,0,-0.8,-10,0)"
         inkscape:connector-curvature="0" />
    </marker>
    <marker
       inkscape:stockid="Arrow1Mend"
       orient="auto"
       refY="0"
       refX="0"
       id="marker7128"
       style="overflow:visible"
       inkscape:isstock="true">
      <path
         id="path7126"
         d="M 0,0 5,-5 -12.5,0 5,5 Z"
         style="fill:#000000;fill-opacity:1;fill-rule:evenodd;stroke:#000000;stroke-width:1.00000003pt;stroke-opacity:1"
         transform="matrix(-0.4,0,0,-0.4,-4,0)"
         inkscape:connector-curvature="0" />
    </marker>
    <marker
       inkscape:isstock="true"
       style="overflow:visible"
       id="marker7020"
       refX="0"
       refY="0"
       orient="auto"
       inkscape:stockid="Arrow1Mend">
      <path
         transform="matrix(-0.4,0,0,-0.4,-4,0)"
         style="fill:#000000;fill-opacity:1;fill-rule:evenodd;stroke:#000000;stroke-width:1.00000003pt;stroke-opacity:1"
         d="M 0,0 5,-5 -12.5,0 5,5 Z"
         id="path7018"
         inkscape:connector-curvature="0" />
    </marker>
    <marker
       inkscape:stockid="Arrow1Mend"
       orient="auto"
       refY="0"
       refX="0"
       id="marker6475"
       style="overflow:visible"
       inkscape:isstock="true">
      <path
         id="path6473"
         d="M 0,0 5,-5 -12.5,0 5,5 Z"
         style="fill:#000000;fill-opacity:1;fill-rule:evenodd;stroke:#000000;stroke-width:1.00000003pt;stroke-opacity:1"
         transform="matrix(-0.4,0,0,-0.4,-4,0)"
         inkscape:connector-curvature="0" />
    </marker>
    <marker
       inkscape:isstock="true"
       style="overflow:visible"
       id="marker6295"
       refX="0"
       refY="0"
       orient="auto"
       inkscape:stockid="Arrow1Mend"
       inkscape:collect="always">
      <path
         transform="matrix(-0.4,0,0,-0.4,-4,0)"
         style="fill:#000000;fill-opacity:1;fill-rule:evenodd;stroke:#000000;stroke-width:1.00000003pt;stroke-opacity:1"
         d="M 0,0 5,-5 -12.5,0 5,5 Z"
         id="path6293"
         inkscape:connector-curvature="0" />
    </marker>
    <marker
       inkscape:isstock="true"
       style="overflow:visible"
       id="marker5666"
       refX="0"
       refY="0"
       orient="auto"
       inkscape:stockid="Arrow1Lend"
       inkscape:collect="always">
      <path
         inkscape:connector-curvature="0"
         transform="matrix(-0.8,0,0,-0.8,-10,0)"
         style="fill:#000000;fill-opacity:1;fill-rule:evenodd;stroke:#000000;stroke-width:1.00000003pt;stroke-opacity:1"
         d="M 0,0 5,-5 -12.5,0 5,5 Z"
         id="path5664" />
    </marker>
    <marker
       inkscape:isstock="true"
       style="overflow:visible"
       id="marker5053"
       refX="0"
       refY="0"
       orient="auto"
       inkscape:stockid="Arrow1Lend">
      <path
         inkscape:connector-curvature="0"
         transform="matrix(-0.8,0,0,-0.8,-10,0)"
         style="fill:#000000;fill-opacity:1;fill-rule:evenodd;stroke:#000000;stroke-width:1.00000003pt;stroke-opacity:1"
         d="M 0,0 5,-5 -12.5,0 5,5 Z"
         id="path5051" />
    </marker>
    <marker
       inkscape:stockid="TriangleOutL"
       orient="auto"
       refY="0"
       refX="0"
       id="TriangleOutL"
       style="overflow:visible"
       inkscape:isstock="true">
      <path
         id="path4668"
         d="M 5.77,0 -2.88,5 V -5 Z"
         style="fill:#000000;fill-opacity:1;fill-rule:evenodd;stroke:#000000;stroke-width:1.00000003pt;stroke-opacity:1"
         transform="scale(0.8)"
         inkscape:connector-curvature="0" />
    </marker>
    <marker
       inkscape:stockid="Tail"
       orient="auto"
       refY="0"
       refX="0"
       id="Tail"
       style="overflow:visible"
       inkscape:isstock="true">
      <g
         id="g4574"
         transform="scale(-1.2)"
         style="fill:#000000;fill-opacity:1;stroke:#000000;stroke-opacity:1">
        <path
           id="path4562"
           d="M -3.8048674,-3.9585227 0.54352094,0"
           style="fill:#000000;fill-opacity:1;fill-rule:evenodd;stroke:#000000;stroke-width:0.80000001;stroke-linecap:round;stroke-opacity:1"
           inkscape:connector-curvature="0" />
        <path
           id="path4564"
           d="M -1.2866832,-3.9585227 3.0617053,0"
           style="fill:#000000;fill-opacity:1;fill-rule:evenodd;stroke:#000000;stroke-width:0.80000001;stroke-linecap:round;stroke-opacity:1"
           inkscape:connector-curvature="0" />
        <path
           id="path4566"
           d="M 1.3053582,-3.9585227 5.6537466,0"
           style="fill:#000000;fill-opacity:1;fill-rule:evenodd;stroke:#000000;stroke-width:0.80000001;stroke-linecap:round;stroke-opacity:1"
           inkscape:connector-curvature="0" />
        <path
           id="path4568"
           d="M -3.8048674,4.1775838 0.54352094,0.21974226"
           style="fill:#000000;fill-opacity:1;fill-rule:evenodd;stroke:#000000;stroke-width:0.80000001;stroke-linecap:round;stroke-opacity:1"
           inkscape:connector-curvature="0" />
        <path
           id="path4570"
           d="M -1.2866832,4.1775838 3.0617053,0.21974226"
           style="fill:#000000;fill-opacity:1;fill-rule:evenodd;stroke:#000000;stroke-width:0.80000001;stroke-linecap:round;stroke-opacity:1"
           inkscape:connector-curvature="0" />
        <path
           id="path4572"
           d="M 1.3053582,4.1775838 5.6537466,0.21974226"
           style="fill:#000000;fill-opacity:1;fill-rule:evenodd;stroke:#000000;stroke-width:0.80000001;stroke-linecap:round;stroke-opacity:1"
           inkscape:connector-curvature="0" />
      </g>
    </marker>
    <marker
       inkscape:stockid="EmptyTriangleOutM"
       orient="auto"
       refY="0"
       refX="0"
       id="EmptyTriangleOutM"
       style="overflow:visible"
       inkscape:isstock="true">
      <path
         id="path4689"
         d="M 5.77,0 -2.88,5 V -5 Z"
         style="fill:#ffffff;fill-rule:evenodd;stroke:#000000;stroke-width:1.00000003pt;stroke-opacity:1"
         transform="matrix(0.4,0,0,0.4,-1.8,0)"
         inkscape:connector-curvature="0" />
    </marker>
    <marker
       inkscape:stockid="Arrow1Lend"
       orient="auto"
       refY="0"
       refX="0"
       id="marker5369"
       style="overflow:visible"
       inkscape:isstock="true">
      <path
         id="path5367"
         d="M 0,0 5,-5 -12.5,0 5,5 Z"
         style="fill:#000000;fill-opacity:1;fill-rule:evenodd;stroke:#000000;stroke-width:1.00000003pt;stroke-opacity:1"
         transform="matrix(-0.8,0,0,-0.8,-10,0)"
         inkscape:connector-curvature="0" />
    </marker>
  </defs>
  <sodipodi:namedview
     id="base"
     pagecolor="#ffffff"
     bordercolor="#666666"
     borderopacity="1.0"
     inkscape:pageopacity="0.0"
     inkscape:pageshadow="2"
     inkscape:zoom="2.8"
     inkscape:cx="104.91764"
     inkscape:cy="31.229211"
     inkscape:document-units="mm"
     inkscape:current-layer="layer1"
     showgrid="false"
     inkscape:snap-midpoints="true"
     fit-margin-left="1"
     fit-margin-bottom="1"
     fit-margin-right="1"
     fit-margin-top="1"
     inkscape:window-width="1440"
     inkscape:window-height="789"
     inkscape:window-x="0"
     inkscape:window-y="0"
     inkscape:window-maximized="1"
     inkscape:snap-global="false" />
  <metadata
     id="metadata5">
    <rdf:RDF>
      <cc:Work
         rdf:about="">
        <dc:format>image/svg+xml</dc:format>
        <dc:type
           rdf:resource="http://purl.org/dc/dcmitype/StillImage" />
        <dc:title />
      </cc:Work>
    </rdf:RDF>
  </metadata>
  <g
     inkscape:label="レイヤー 1"
     inkscape:groupmode="layer"
     id="layer1"
     transform="translate(-70.799138,-62.289726)">
    <g
       id="g4838"
       transform="translate(-31.603487,4.5788503)">
      <path
         d="m 139.32129,73.833224 c 0.0791,0 0.16284,0 0.16284,-0.09314 0,-0.09297 -0.0837,-0.09297 -0.16284,-0.09297 l -2.51689,0 c -0.0791,0 -0.16286,0 -0.16286,0.09297 0,0.09314 0.0838,0.09314 0.16286,0.09314 l 2.51689,0"
         style="fill:#000000;fill-opacity:1;fill-rule:nonzero;stroke:none;stroke-width:0.00126898"
         id="path4606"
         inkscape:connector-curvature="0" />
      <path
         d="m 141.68779,73.833224 c -0.25588,0.195343 -0.38147,0.386154 -0.41871,0.446569 -0.20936,0.32104 -0.24656,0.614221 -0.24656,0.618753 0,0.05588 0.0558,0.05588 0.093,0.05588 0.0791,0 0.0837,-0.0092 0.10237,-0.09314 0.10698,-0.4558 0.38147,-0.846652 0.9072,-1.060623 0.0558,-0.01863 0.0698,-0.02803 0.0698,-0.06058 0,-0.03256 -0.0279,-0.04649 -0.0372,-0.05102 -0.20471,-0.07921 -0.76765,-0.31181 -0.94443,-1.093347 -0.014,-0.05588 -0.0186,-0.06981 -0.0977,-0.06981 -0.0372,0 -0.093,0 -0.093,0.05588 0,0.0092 0.0419,0.302411 0.23724,0.614053 0.0931,0.139626 0.22799,0.302412 0.42803,0.451268 l -3.45669,0 c -0.0837,0 -0.16748,0 -0.16748,0.09297 0,0.09314 0.0838,0.09314 0.16748,0.09314 l 3.45669,0"
         style="fill:#000000;fill-opacity:1;fill-rule:nonzero;stroke:none;stroke-width:0.00126898"
         id="path4608"
         inkscape:connector-curvature="0" />
      <path
         d="m 139.60976,76.502938 c 0,-0.949055 -0.70251,-1.702735 -1.54923,-1.702735 -0.83279,0 -1.54458,0.744282 -1.54458,1.702735 0,0.953721 0.71645,1.679476 1.54458,1.679476 0.84672,0 1.54923,-0.739717 1.54923,-1.679476 z m -1.5446,1.558528 c -0.4466,0 -1.07004,-0.409414 -1.07004,-1.623659 0,-1.204964 0.67925,-1.521305 1.06541,-1.521305 0.40475,0 1.07002,0.33027 1.07002,1.521305 0,1.232873 -0.63737,1.623659 -1.06539,1.623659"
         style="fill:#000000;fill-opacity:1;fill-rule:nonzero;stroke:none;stroke-width:0.00126898"
         id="path4610"
         inkscape:connector-curvature="0" />
      <path
         d="m 141.49559,76.274955 -0.5955,-0.144275 c -0.28845,-0.06964 -0.46988,-0.320872 -0.46988,-0.590726 0,-0.325739 0.25121,-0.609523 0.61409,-0.609523 0.77696,0 0.87931,0.76291 0.90724,0.97235 0.005,0.02786 0.005,0.05588 0.0558,0.05588 0.0605,0 0.0605,-0.02333 0.0605,-0.111769 l 0,-0.935093 c 0,-0.07904 0,-0.1116 -0.0512,-0.1116 -0.0326,0 -0.0372,0.0047 -0.0698,0.06042 l -0.16282,0.265156 c -0.13957,-0.134927 -0.33032,-0.325571 -0.74438,-0.325571 -0.51642,0 -0.9072,0.409313 -0.9072,0.902536 0,0.386154 0.24656,0.725754 0.60945,0.851351 0.0512,0.01863 0.28843,0.07444 0.61411,0.153538 0.12561,0.03256 0.26519,0.06513 0.39545,0.237281 0.0977,0.120965 0.14422,0.274487 0.14422,0.428008 0,0.33032 -0.23261,0.665289 -0.62342,0.665289 -0.13491,0 -0.48849,-0.02326 -0.73508,-0.251243 -0.26982,-0.251193 -0.28377,-0.548956 -0.28843,-0.716457 -0.005,-0.04652 -0.0419,-0.04652 -0.0558,-0.04652 -0.0605,0 -0.0605,0.03257 -0.0605,0.116333 l 0,0.930444 c 0,0.07909 0,0.111651 0.0511,0.111651 0.0326,0 0.0372,-0.0093 0.0698,-0.06047 0,-0.0047 0.0139,-0.01861 0.16749,-0.265172 0.1442,0.15817 0.44195,0.325638 0.85603,0.325638 0.54431,0 0.9165,-0.455917 0.9165,-0.967684 0,-0.46523 -0.30705,-0.846702 -0.69786,-0.939775"
         style="fill:#000000;fill-opacity:1;fill-rule:nonzero;stroke:none;stroke-width:0.00126898"
         id="path4612"
         inkscape:connector-curvature="0" />
    </g>
    <path
       inkscape:connector-curvature="0"
       id="path4616"
       style="fill:#000000;fill-opacity:1;fill-rule:nonzero;stroke:none;stroke-width:0.00126898"
       d="m 97.146421,70.030348 c -0.15352,0.0605 -0.1954,0.20005 -0.1954,0.26519 0,0.12095 0.0977,0.19073 0.20005,0.19073 0.11165,0 0.2838,-0.093 0.2838,-0.31636 0,-0.24657 -0.24656,-0.40941 -0.66528,-0.40941 -0.13493,0 -0.39545,0.009 -0.60947,0.17215 -0.20936,0.15817 -0.28377,0.42802 -0.28377,0.54431 0,0.13959 0.0651,0.26985 0.16748,0.35358 0.13027,0.10237 0.20935,0.11631 0.52569,0.17679 0.13958,0.0233 0.41871,0.0744 0.41871,0.28381 0,0.0186 0,0.44195 -0.69317,0.44195 -0.22798,0 -0.40012,-0.0465 -0.50247,-0.12095 0.15817,-0.0465 0.25588,-0.18143 0.25588,-0.321 0,-0.16749 -0.13491,-0.21401 -0.22798,-0.21401 -0.15817,0 -0.33495,0.13025 -0.33495,0.36288 0,0.30239 0.32567,0.46056 0.80021,0.46056 1.06073,0 1.06073,-0.79555 1.06073,-0.80018 0,-0.1582 -0.0791,-0.2838 -0.18609,-0.37684 -0.14423,-0.12563 -0.32102,-0.15819 -0.48386,-0.18609 -0.25587,-0.0465 -0.43733,-0.0791 -0.43733,-0.25123 0,-0.009 0,-0.35825 0.52109,-0.35825 0.093,0 0.2605,0.009 0.38613,0.10237" />
    <path
       inkscape:connector-curvature="0"
       id="path4618"
       style="fill:#000000;fill-opacity:1;fill-rule:nonzero;stroke:none;stroke-width:0.00126898"
       d="m 120.94102,76.691249 c -0.0651,-0.23261 -0.321,-0.35358 -0.57224,-0.35358 -0.17212,0 -0.30239,0.0977 -0.40473,0.26519 -0.11632,0.1861 -0.17679,0.43733 -0.17679,0.46059 0,0.0651 0.0698,0.0651 0.11165,0.0651 0.0512,0 0.0698,0 0.093,-0.0233 0.009,-0.009 0.009,-0.0186 0.0372,-0.13491 0.0931,-0.36289 0.1954,-0.46526 0.31637,-0.46526 0.0698,0 0.10701,0.0465 0.10701,0.17215 0,0.0791 -0.0186,0.15353 -0.0651,0.33963 -0.0326,0.13027 -0.0791,0.31634 -0.10234,0.41871 l -0.16748,0.65132 c -0.014,0.0651 -0.0372,0.15353 -0.0372,0.1861 0,0.0977 0.0745,0.20469 0.21867,0.20469 0.24192,0 0.29775,-0.214 0.33031,-0.35358 0.0465,-0.17212 0.0838,-0.32101 0.13027,-0.52105 0.0186,-0.0605 0.13492,-0.53968 0.14423,-0.55363 0.005,-0.0279 0.13491,-0.23728 0.28844,-0.36289 0.13027,-0.10237 0.28379,-0.18145 0.4792,-0.18145 0.12097,0 0.23262,0.0465 0.23262,0.27449 0,0.26519 -0.20473,0.80952 -0.29312,1.04214 -0.0512,0.1256 -0.0651,0.15817 -0.0651,0.23726 0,0.26984 0.26986,0.41871 0.52573,0.41871 0.49314,0 0.72576,-0.63271 0.72576,-0.72577 0,-0.0651 -0.0698,-0.0651 -0.11165,-0.0651 -0.0558,0 -0.0884,0 -0.10701,0.0605 -0.15353,0.51641 -0.40476,0.56293 -0.47921,0.56293 -0.0326,0 -0.0791,0 -0.0791,-0.0977 0,-0.10699 0.0465,-0.2233 0.093,-0.33963 0.0744,-0.19073 0.28844,-0.73505 0.28844,-0.99559 0,-0.42802 -0.35825,-0.53968 -0.6932,-0.53968 -0.0977,0 -0.43733,0 -0.76765,0.35358" />
    <path
       d="m 140.58054,80.804894 c -0.15352,0.0605 -0.1954,0.20005 -0.1954,0.26519 0,0.12095 0.0977,0.19073 0.20005,0.19073 0.11165,0 0.2838,-0.093 0.2838,-0.31636 0,-0.24657 -0.24656,-0.40941 -0.66528,-0.40941 -0.13493,0 -0.39545,0.009 -0.60947,0.17215 -0.20936,0.15817 -0.28377,0.42803 -0.28377,0.54431 0,0.13959 0.0651,0.26985 0.16748,0.35358 0.13027,0.10237 0.20935,0.11631 0.52569,0.1768 0.13958,0.0233 0.41871,0.0744 0.41871,0.2838 0,0.0186 0,0.44195 -0.69317,0.44195 -0.22798,0 -0.40012,-0.0465 -0.50247,-0.12095 0.15817,-0.0465 0.25588,-0.18143 0.25588,-0.321 0,-0.16749 -0.13491,-0.21401 -0.22798,-0.21401 -0.15817,0 -0.33495,0.13025 -0.33495,0.36288 0,0.30239 0.32567,0.46056 0.80021,0.46056 1.06073,0 1.06073,-0.79555 1.06073,-0.80018 0,-0.1582 -0.0791,-0.2838 -0.18609,-0.37684 -0.14423,-0.12563 -0.32102,-0.15818 -0.48386,-0.18609 -0.25587,-0.0465 -0.43733,-0.0791 -0.43733,-0.25123 0,-0.009 0,-0.35825 0.52109,-0.35825 0.093,0 0.2605,0.009 0.38613,0.10237"
       style="fill:#000000;fill-opacity:1;fill-rule:nonzero;stroke:none;stroke-width:0.00126898"
       id="path5661"
       inkscape:connector-curvature="0" />
    <path
       d="m 130.65955,75.627666 c -0.0651,-0.23261 -0.321,-0.35358 -0.57224,-0.35358 -0.17212,0 -0.30239,0.0977 -0.40473,0.26519 -0.11632,0.1861 -0.17679,0.43733 -0.17679,0.46059 0,0.0651 0.0698,0.0651 0.11165,0.0651 0.0512,0 0.0698,0 0.093,-0.0233 0.009,-0.009 0.009,-0.0186 0.0372,-0.13491 0.0931,-0.36289 0.1954,-0.46526 0.31637,-0.46526 0.0698,0 0.10701,0.0465 0.10701,0.17215 0,0.0791 -0.0186,0.15353 -0.0651,0.33963 -0.0326,0.13027 -0.0791,0.31634 -0.10234,0.41871 l -0.16748,0.65132 c -0.014,0.0651 -0.0372,0.15353 -0.0372,0.1861 0,0.0977 0.0745,0.20469 0.21867,0.20469 0.24192,0 0.29775,-0.214 0.33031,-0.35358 0.0465,-0.17212 0.0838,-0.32101 0.13027,-0.52105 0.0186,-0.0605 0.13492,-0.53968 0.14423,-0.55363 0.005,-0.0279 0.13491,-0.23728 0.28844,-0.36289 0.13027,-0.10237 0.28379,-0.18145 0.4792,-0.18145 0.12097,0 0.23262,0.0465 0.23262,0.27449 0,0.26519 -0.20473,0.80952 -0.29312,1.04214 -0.0512,0.1256 -0.0651,0.15817 -0.0651,0.23726 0,0.26984 0.26986,0.41871 0.52573,0.41871 0.49314,0 0.72576,-0.63271 0.72576,-0.72577 0,-0.0651 -0.0698,-0.0651 -0.11165,-0.0651 -0.0558,0 -0.0884,0 -0.10701,0.0605 -0.15353,0.51641 -0.40476,0.56293 -0.47921,0.56293 -0.0326,0 -0.0791,0 -0.0791,-0.0977 0,-0.10699 0.0465,-0.2233 0.093,-0.33963 0.0744,-0.19073 0.28844,-0.73505 0.28844,-0.99559 0,-0.42802 -0.35825,-0.53968 -0.6932,-0.53968 -0.0977,0 -0.43733,0 -0.76765,0.35358"
       style="fill:#000000;fill-opacity:1;fill-rule:nonzero;stroke:none;stroke-width:0.00126898"
       id="path7292"
       inkscape:connector-curvature="0" />
    <g
       id="g4282"
       transform="matrix(1,0,0,-1,0,156.38338)">
      <rect
         rx="9.2273694e-16"
         y="63.289726"
         x="92.742531"
         height="29.803928"
         width="32.846573"
         id="rect7483"
         style="opacity:1;fill:#000000;fill-opacity:0.24423966;stroke:none;stroke-width:0.35277778;stroke-miterlimit:4;stroke-dasharray:none;stroke-dashoffset:0;stroke-opacity:1"
         ry="9.2273694e-16" />
      <path
         inkscape:connector-curvature="0"
         id="path4524"
         d="m 100.54166,72.104166 15.13447,0"
         style="fill:none;stroke:#000000;stroke-width:0.35277778;stroke-linecap:butt;stroke-linejoin:miter;stroke-miterlimit:4;stroke-dasharray:none;stroke-opacity:1;marker-end:url(#TriangleOutL)" />
      <path
         inkscape:connector-curvature="0"
         id="path4840"
         d="m 92.742535,63.289729 0,22.081845"
         style="fill:none;stroke:#000000;stroke-width:0.35277778;stroke-linecap:butt;stroke-linejoin:miter;stroke-miterlimit:4;stroke-dasharray:none;stroke-opacity:1" />
      <path
         style="fill:none;stroke:#000000;stroke-width:0.35277781;stroke-linecap:butt;stroke-linejoin:miter;stroke-miterlimit:4;stroke-dasharray:none;stroke-opacity:1"
         d="m 92.742536,89.787497 0,3.303613"
         id="path4853"
         inkscape:connector-curvature="0" />
      <path
         style="fill:none;stroke:#000000;stroke-width:0.35277778;stroke-linecap:butt;stroke-linejoin:miter;stroke-miterlimit:4;stroke-dasharray:none;stroke-opacity:1"
         d="m 125.58911,63.289728 0,22.081845"
         id="path4855"
         inkscape:connector-curvature="0" />
      <path
         inkscape:connector-curvature="0"
         id="path4857"
         d="m 125.5891,89.787492 0,3.306164"
         style="fill:none;stroke:#000000;stroke-width:0.35277778;stroke-linecap:butt;stroke-linejoin:miter;stroke-miterlimit:4;stroke-dasharray:none;stroke-opacity:1" />
      <path
         sodipodi:nodetypes="cccc"
         inkscape:connector-curvature="0"
         id="path4859"
         d="m 71.799138,87.579532 14.09344,0 23.551302,0 16.14522,0"
         style="fill:none;stroke:#000000;stroke-width:0.26458332px;stroke-linecap:butt;stroke-linejoin:miter;stroke-opacity:1;marker-mid:url(#marker5053)" />
      <path
         style="fill:none;stroke:#000000;stroke-width:0.1763889;stroke-linecap:butt;stroke-linejoin:miter;stroke-miterlimit:4;stroke-dasharray:0.35277778, 0.35277778;stroke-dashoffset:0;stroke-opacity:1;marker-end:url(#marker6295)"
         d="m 114.35921,87.505618 6.27486,-6.693771"
         id="path6291"
         inkscape:connector-curvature="0" />
      <path
         sodipodi:nodetypes="csc"
         inkscape:connector-curvature="0"
         id="path7294"
         d="m 125.56424,87.527527 c 4.86376,-3.401712 9.72751,-6.803427 14.59126,-10.205144 2.25078,-1.574193 4.50155,-3.148387 6.75232,-4.722581"
         style="fill:none;stroke:#000000;stroke-width:0.26458326px;stroke-linecap:butt;stroke-linejoin:miter;stroke-opacity:1;marker-mid:url(#marker5666)" />
      <path
         sodipodi:nodetypes="ccc"
         inkscape:connector-curvature="0"
         id="path4651"
         d="m 125.5891,87.579532 15.769,0 5.60324,0"
         style="fill:none;stroke:#000000;stroke-width:0.26499999;stroke-linecap:butt;stroke-linejoin:miter;stroke-miterlimit:4;stroke-dasharray:none;stroke-opacity:1;marker-mid:url(#Arrow1Lend)" />
      <path
         inkscape:connector-curvature="0"
         id="path6187"
         d="m 124.92445,87.367606 9.71918,-6.693771"
         style="fill:none;stroke:#000000;stroke-width:0.1763889;stroke-linecap:butt;stroke-linejoin:miter;stroke-miterlimit:4;stroke-dasharray:0.35277778, 0.35277778;stroke-dashoffset:0;stroke-opacity:1;marker-end:url(#marker6191)" />
      <ellipse
         ry="2.3948009"
         rx="0.91636467"
         cy="85.03669"
         cx="119.17442"
         id="path7135"
         style="opacity:1;fill:none;fill-opacity:0.24423966;stroke:#000000;stroke-width:0.176;stroke-miterlimit:4;stroke-dasharray:0.35199999, 0.176, 0.088, 0.176;stroke-dashoffset:0;stroke-opacity:1" />
    </g>
  </g>
</svg>
