<?xml version="1.0" encoding="UTF-8" standalone="no"?>
<!-- Created with Inkscape (http://www.inkscape.org/) -->

<svg
   xmlns:dc="http://purl.org/dc/elements/1.1/"
   xmlns:cc="http://creativecommons.org/ns#"
   xmlns:rdf="http://www.w3.org/1999/02/22-rdf-syntax-ns#"
   xmlns:svg="http://www.w3.org/2000/svg"
   xmlns="http://www.w3.org/2000/svg"
   xmlns:sodipodi="http://sodipodi.sourceforge.net/DTD/sodipodi-0.dtd"
   xmlns:inkscape="http://www.inkscape.org/namespaces/inkscape"
   width="134.46802mm"
   height="121.5878mm"
   viewBox="0 0 134.46802 121.5878"
   version="1.1"
   id="svg8"
   inkscape:version="0.92.1 r15371"
   sodipodi:docname="scorn.svg">
  <defs
     id="defs2">
    <marker
       inkscape:isstock="true"
       style="overflow:visible"
       id="marker4773"
       refX="0"
       refY="0"
       orient="auto"
       inkscape:stockid="Arrow1Lend">
      <path
         transform="matrix(-0.8,0,0,-0.8,-10,0)"
         style="fill:#000000;fill-opacity:1;fill-rule:evenodd;stroke:#000000;stroke-width:1.00000003pt;stroke-opacity:1"
         d="M 0,0 5,-5 -12.5,0 5,5 Z"
         id="path4771"
         inkscape:connector-curvature="0" />
    </marker>
    <marker
       inkscape:stockid="Arrow1Lend"
       orient="auto"
       refY="0"
       refX="0"
       id="Arrow1Lend"
       style="overflow:visible"
       inkscape:isstock="true"
       inkscape:collect="always">
      <path
         id="path4490"
         d="M 0,0 5,-5 -12.5,0 5,5 Z"
         style="fill:#000000;fill-opacity:1;fill-rule:evenodd;stroke:#000000;stroke-width:1.00000003pt;stroke-opacity:1"
         transform="matrix(-0.8,0,0,-0.8,-10,0)"
         inkscape:connector-curvature="0" />
    </marker>
  </defs>
  <sodipodi:namedview
     id="base"
     pagecolor="#ffffff"
     bordercolor="#666666"
     borderopacity="1.0"
     inkscape:pageopacity="0.0"
     inkscape:pageshadow="2"
     inkscape:zoom="1.4"
     inkscape:cx="128.58838"
     inkscape:cy="310.23755"
     inkscape:document-units="mm"
     inkscape:current-layer="layer1"
     showgrid="false"
     inkscape:window-width="1920"
     inkscape:window-height="1027"
     inkscape:window-x="-8"
     inkscape:window-y="-8"
     inkscape:window-maximized="1"
     inkscape:snap-object-midpoints="true"
     inkscape:snap-global="false"
     fit-margin-left="1"
     fit-margin-bottom="1"
     fit-margin-right="1"
     fit-margin-top="1" />
  <metadata
     id="metadata5">
    <rdf:RDF>
      <cc:Work
         rdf:about="">
        <dc:format>image/svg+xml</dc:format>
        <dc:type
           rdf:resource="http://purl.org/dc/dcmitype/StillImage" />
        <dc:title></dc:title>
      </cc:Work>
    </rdf:RDF>
  </metadata>
  <g
     inkscape:label="レイヤー 1"
     inkscape:groupmode="layer"
     id="layer1"
     transform="translate(-5.3641073,-93.00402)">
    <path
       style="fill:none;stroke:#000000;stroke-width:0.26499999;stroke-linecap:butt;stroke-linejoin:miter;stroke-miterlimit:4;stroke-dasharray:none;stroke-opacity:1;marker-end:url(#Arrow1Lend)"
       d="M 6.3641073,194.3685 H 116.49153"
       id="path4485"
       inkscape:connector-curvature="0" />
    <path
       inkscape:connector-curvature="0"
       id="path4769"
       d="M 104.23512,213.59182 V 102.43302"
       style="fill:none;stroke:#000000;stroke-width:0.26499999;stroke-linecap:butt;stroke-linejoin:miter;stroke-miterlimit:4;stroke-dasharray:none;stroke-opacity:1;marker-end:url(#marker4773)" />
    <ellipse
       style="opacity:1;fill:none;fill-opacity:1;stroke:#000000;stroke-width:0.35277778;stroke-miterlimit:4;stroke-dasharray:none;stroke-dashoffset:0;stroke-opacity:1"
       id="path5171"
       cx="58.881752"
       cy="127.89668"
       rx="45.168549"
       ry="10.156241" />
    <path
       style="fill:none;stroke:#000000;stroke-width:0.35277778;stroke-linecap:butt;stroke-linejoin:miter;stroke-miterlimit:4;stroke-dasharray:none;stroke-opacity:1"
       d="M 104.26234,194.39126 15.703758,130.87947"
       id="path5593"
       inkscape:connector-curvature="0" />
    <ellipse
       ry="5.9712644"
       rx="26.74221"
       cy="154.78218"
       cx="77.30809"
       id="ellipse5606"
       style="opacity:1;fill:none;fill-opacity:1;stroke:#000000;stroke-width:0.35277778;stroke-miterlimit:4;stroke-dasharray:none;stroke-dashoffset:0;stroke-opacity:1" />
    <path
       style="fill:none;stroke:#000000;stroke-width:0.35277778;stroke-linecap:butt;stroke-linejoin:miter;stroke-miterlimit:4;stroke-dasharray:none;stroke-opacity:1"
       d="m 104.1683,127.90191 0.094,66.48935"
       id="path5608"
       inkscape:connector-curvature="0" />
    <path
       inkscape:connector-curvature="0"
       id="path5622"
       style="fill:#000000;fill-opacity:1;fill-rule:nonzero;stroke:none;stroke-width:0.00126898"
       d="m 102.79993,200.0559 c 0,-1.98589 -1.47005,-3.56302 -3.241878,-3.56302 -1.74265,0 -3.23212,1.55746 -3.23212,3.56302 0,1.99572 1.49924,3.51454 3.23212,3.51454 1.771828,0 3.241878,-1.54797 3.241878,-3.51454 z m -3.232168,3.26135 c -0.93456,0 -2.23912,-0.85652 -2.23912,-3.39761 0,-2.52143 1.42138,-3.18339 2.22941,-3.18339 0.846978,0 2.239098,0.69111 2.239098,3.18339 0,2.57972 -1.33372,3.39761 -2.229388,3.39761" />
    <g
       id="g5714"
       transform="translate(-12.428033,67.88646)">
      <path
         d="m 134.86682,124.27051 c -0.2726,0.01 -0.46728,0.22405 -0.46728,0.43791 0,0.13626 0.0876,0.28234 0.30179,0.28234 0.21416,0 0.44781,-0.1654 0.44781,-0.54502 0,-0.43826 -0.41862,-0.8372 -1.1585,-0.8372 -1.28508,0 -1.64525,0.99277 -1.64525,1.4212 0,0.75959 0.7204,0.90533 1.00271,0.96398 0.50624,0.0973 1.01248,0.20438 1.01248,0.73992 0,0.25285 -0.22393,1.07073 -1.39213,1.07073 -0.1363,0 -0.88595,0 -1.10982,-0.51587 0.36994,0.0485 0.61329,-0.24337 0.61329,-0.51588 0,-0.22405 -0.15578,-0.34099 -0.36017,-0.34099 -0.25312,0 -0.5452,0.20438 -0.5452,0.64265 0,0.55485 0.55491,0.94431 1.39213,0.94431 1.57716,0 1.95681,-1.17784 1.95681,-1.61611 0,-0.35047 -0.18497,-0.59383 -0.30179,-0.71077 -0.26283,-0.27251 -0.54514,-0.32098 -0.97352,-0.40877 -0.35046,-0.078 -0.73988,-0.14609 -0.73988,-0.584 0,-0.28235 0.23364,-0.87618 1.09034,-0.87618 0.24341,0 0.73017,0.0681 0.87618,0.44775"
         style="fill:#000000;fill-opacity:1;fill-rule:nonzero;stroke:none;stroke-width:0.00126898"
         id="path5624"
         inkscape:connector-curvature="0" />
      <path
         d="m 137.4633,129.84188 c 0.0477,0.0137 0.21784,0.0752 0.27915,0.0955 0.33355,0.11554 0.42201,0.14293 0.42201,0.31325 0,0.0952 -0.0748,0.31992 -0.3063,0.31992 -0.10212,0 -0.36764,-0.0207 -0.66031,-0.19069 -0.0477,-0.0411 -0.0613,-0.0411 -0.0885,-0.0411 -0.0409,0 -0.0953,0.0274 -0.0953,0.0955 0,0.12256 0.47647,0.32659 0.84411,0.32659 0.4697,0 0.74196,-0.42878 0.74196,-0.74168 0,-0.25881 -0.14292,-0.39507 -0.28585,-0.46987 -0.0545,-0.0274 -0.9054,-0.31992 -0.9803,-0.34028 -0.66032,-0.23143 -1.02789,-0.35399 -1.02789,-0.74906 0,-0.24477 0.23827,-0.77574 0.81687,-1.08232 0.29273,0.0955 0.5854,0.0955 0.70793,0.0955 0.24512,0 0.708,0 0.708,-0.25179 0,-0.21105 -0.38805,-0.21105 -0.62628,-0.21105 -0.16337,0 -0.36758,0 -0.64673,0.0952 -0.18373,-0.1496 -0.23142,-0.36768 -0.23142,-0.53097 0,-0.38805 0.27911,-0.86459 0.78965,-1.10269 0.15659,0.16997 0.32673,0.16997 0.49695,0.16997 0.21105,0 0.67393,0 0.67393,-0.25179 0,-0.21106 -0.38123,-0.21106 -0.63309,-0.21106 -0.10212,0 -0.25186,0 -0.44248,0.0274 0,-0.007 -0.0272,-0.11588 -0.0272,-0.20438 0,-0.0748 0.0136,-0.15662 0.0272,-0.23142 0.007,-0.007 0.0136,-0.0341 0.0136,-0.0478 0,-0.0544 -0.0476,-0.10887 -0.1089,-0.10887 -0.15655,0 -0.15655,0.25882 -0.15655,0.37471 0,0.027 0,0.17664 0.034,0.26513 -0.9394,0.25215 -1.26616,0.84423 -1.26616,1.2867 0,0.27252 0.12933,0.53765 0.44929,0.72834 -0.76925,0.43581 -0.98708,1.11638 -0.98708,1.40224 0,0.61947 0.6535,0.85089 0.87133,0.92604 z m 1.26616,-4.43146 c -0.0544,0.0137 -0.13615,0.0411 -0.40841,0.0411 -0.1089,0 -0.19062,0 -0.2723,-0.0478 0.12252,-0.0341 0.17699,-0.0341 0.31995,-0.0341 0.21102,0 0.25183,0.007 0.36076,0.0341 z m -0.46288,1.83137 c -0.0953,0.027 -0.18377,0.0407 -0.41523,0.0407 -0.12937,0 -0.21102,0 -0.34036,-0.0407 0.17696,-0.0411 0.23824,-0.0411 0.39479,-0.0411 0.21106,0 0.23146,0.007 0.3608,0.0341 v 0.007"
         style="fill:#000000;fill-opacity:1;fill-rule:nonzero;stroke:none;stroke-width:0.00126898"
         id="path5626"
         inkscape:connector-curvature="0" />
    </g>
    <g
       id="g5718"
       transform="translate(-31.003265,-45.16855)">
      <path
         d="m 134.86682,139.83454 c -0.2726,0.01 -0.46728,0.22405 -0.46728,0.43791 0,0.13626 0.0876,0.28235 0.30179,0.28235 0.21416,0 0.44781,-0.16541 0.44781,-0.54503 0,-0.43826 -0.41862,-0.8372 -1.1585,-0.8372 -1.28508,0 -1.64525,0.99277 -1.64525,1.42121 0,0.75959 0.7204,0.90532 1.00271,0.96397 0.50624,0.0973 1.01248,0.20438 1.01248,0.73992 0,0.25285 -0.22393,1.07073 -1.39213,1.07073 -0.1363,0 -0.88595,0 -1.10982,-0.51587 0.36994,0.0485 0.61329,-0.24337 0.61329,-0.51588 0,-0.22405 -0.15578,-0.34099 -0.36017,-0.34099 -0.25312,0 -0.5452,0.20439 -0.5452,0.64265 0,0.55486 0.55491,0.94431 1.39213,0.94431 1.57716,0 1.95681,-1.17784 1.95681,-1.6161 0,-0.35048 -0.18497,-0.59384 -0.30179,-0.71078 -0.26283,-0.27251 -0.54514,-0.32097 -0.97352,-0.40877 -0.35046,-0.078 -0.73988,-0.14609 -0.73988,-0.584 0,-0.28234 0.23364,-0.87618 1.09034,-0.87618 0.24341,0 0.73017,0.0681 0.87618,0.44775"
         style="fill:#000000;fill-opacity:1;fill-rule:nonzero;stroke:none;stroke-width:0.00126898"
         id="path5628"
         inkscape:connector-curvature="0" />
      <path
         d="m 138.06234,141.06646 c 0.13618,0.1359 0.34035,0.1359 0.46288,0.1359 0.21105,0 0.67394,0 0.67394,-0.25179 0,-0.20403 -0.35399,-0.21106 -0.60585,-0.21106 -0.11571,0 -0.27226,0 -0.44926,0.0681 -0.007,-0.027 -0.0408,-0.12256 -0.0408,-0.24512 0,-0.027 0.0136,-0.15662 0.0272,-0.23142 0.007,-0.007 0.0136,-0.0341 0.0136,-0.0478 0,-0.0544 -0.0477,-0.10887 -0.10893,-0.10887 -0.15655,0 -0.15655,0.25882 -0.15655,0.37471 0,0.0815 0,0.20403 0.068,0.34696 -0.87811,0.4495 -1.88559,1.64735 -1.88559,2.86593 0,0.37435 0.10212,0.6943 0.3812,0.98019 0.22465,0.22465 0.40164,0.27234 1.26612,0.53779 0.24509,0.0681 0.49698,0.14974 0.49698,0.44929 0,0.18381 -0.11571,0.40164 -0.34035,0.40164 -0.11575,0 -0.32677,-0.0272 -0.55823,-0.19061 -0.0409,-0.0272 -0.0545,-0.0409 -0.0885,-0.0409 -0.0749,0 -0.0953,0.0613 -0.0953,0.0953 0,0.10212 0.39486,0.32676 0.74203,0.32676 0.4765,0 0.76917,-0.48332 0.76917,-0.83726 0,-0.29956 -0.18377,-0.5242 -0.42882,-0.63314 -0.0681,-0.0272 -0.38123,-0.12252 -0.57181,-0.17695 -0.52416,-0.15659 -0.708,-0.21102 -0.87815,-0.40845 -0.1838,-0.20425 -0.25186,-0.43567 -0.25186,-0.72142 0,-1.00752 0.84408,-2.09686 1.55883,-2.47788 z m 0.87136,-0.0955 c -0.0953,0.0274 -0.21105,0.0411 -0.4016,0.0411 -0.1634,0 -0.17703,0 -0.25193,-0.0411 0.10893,-0.0407 0.20424,-0.0407 0.30636,-0.0407 0.19062,0 0.21784,0.007 0.34717,0.0341 v 0.007"
         style="fill:#000000;fill-opacity:1;fill-rule:nonzero;stroke:none;stroke-width:0.00126898"
         id="path5630"
         inkscape:connector-curvature="0" />
    </g>
    <g
       id="g5727"
       transform="translate(-24.989701,-29.399648)">
      <path
         d="m 135.18808,162.1888 c 0.3018,0 0.31156,-0.01 0.40891,-0.19473 l 5.32524,-11.11774 c 0.0681,-0.12653 0.0681,-0.14602 0.0681,-0.1752 0,-0.10711 -0.0779,-0.19473 -0.19472,-0.19473 -0.12653,0 -0.16551,0.0876 -0.21418,0.19473 l -5.02341,10.4752 -2.07364,-4.82871 -1.35322,1.04168 0.14606,0.15572 0.69121,-0.52568 2.21963,5.16946"
         style="fill:#000000;fill-opacity:1;fill-rule:nonzero;stroke:none;stroke-width:0.00126898"
         id="path5632"
         inkscape:connector-curvature="0" />
      <path
         d="m 140.78688,150.70193 h 23.03495"
         style="fill:none;stroke:#000000;stroke-width:0.14058174;stroke-linecap:butt;stroke-linejoin:miter;stroke-miterlimit:10;stroke-dasharray:none;stroke-opacity:1"
         id="path5634"
         inkscape:connector-curvature="0" />
      <path
         d="m 142.16054,156.82609 c 0.32122,0.13633 0.60359,0.13633 0.83723,0.13633 0.25313,0 0.78853,0 0.78853,-0.3018 0,-0.23364 -0.34075,-0.26286 -0.71067,-0.26286 -0.20446,0 -0.54517,0.0195 -0.90537,0.185 -0.22394,-0.11683 -0.38941,-0.30187 -0.38941,-0.56468 0,-0.59387 0.95403,-0.94435 1.83021,-0.94435 0.15578,0 0.50622,0 0.89564,0.27262 0.1071,0.0779 0.12659,0.0974 0.19476,0.0974 0.12652,0 0.26281,-0.12653 0.26281,-0.26286 0,-0.18496 -0.59387,-0.55489 -1.25583,-0.55489 -1.11958,0 -2.17096,0.65224 -2.17096,1.39213 0,0.4186 0.35048,0.66199 0.38935,0.69121 -0.57438,0.32126 -0.88587,0.86645 -0.88587,1.31427 0,0.63282 0.55489,1.22662 1.58685,1.22662 1.28509,0 1.83025,-0.85669 1.83025,-1.00271 0,-0.0584 -0.0487,-0.0974 -0.10708,-0.0974 -0.0487,0 -0.0779,0.0389 -0.0974,0.0682 -0.13632,0.22387 -0.36996,0.5841 -1.53814,0.5841 -0.59387,0 -1.42137,-0.14601 -1.42137,-0.83723 0,-0.33102 0.27258,-0.847 0.86645,-1.13907 z m 0.32122,-0.12653 c 0.22394,-0.0779 0.42836,-0.0876 0.59387,-0.0876 0.24339,0 0.2823,0.01 0.45758,0.0584 -0.14602,0.0682 -0.16551,0.0779 -0.53544,0.0779 -0.21418,0 -0.33098,0 -0.51601,-0.0487"
         style="fill:#000000;fill-opacity:1;fill-rule:nonzero;stroke:none;stroke-width:0.00126898"
         id="path5636"
         inkscape:connector-curvature="0" />
      <path
         d="m 148.83404,158.32539 c 0,-0.7488 -0.0885,-1.28656 -0.40164,-1.76306 -0.21102,-0.31315 -0.63306,-0.58548 -1.17763,-0.58548 -1.5793,0 -1.5793,1.85845 -1.5793,2.34854 0,0.4901 0,2.30767 1.5793,2.30767 1.57927,0 1.57927,-1.81757 1.57927,-2.30767 z m -1.57927,2.11709 c -0.31317,0 -0.72837,-0.1838 -0.86455,-0.74203 -0.0953,-0.40164 -0.0953,-0.95979 -0.0953,-1.46355 0,-0.49691 0,-1.0143 0.10209,-1.38868 0.14296,-0.53779 0.57866,-0.68072 0.85774,-0.68072 0.36758,0 0.72152,0.22461 0.84408,0.61944 0.1089,0.3676 0.11572,0.85774 0.11572,1.44996 0,0.50376 0,1.00748 -0.0885,1.43634 -0.13619,0.61943 -0.59907,0.76924 -0.87134,0.76924"
         style="fill:#000000;fill-opacity:1;fill-rule:nonzero;stroke:none;stroke-width:0.00126898"
         id="path5638"
         inkscape:connector-curvature="0" />
      <path
         d="m 153.96037,152.10445 c 0.0487,-0.12653 0.0487,-0.16547 0.0487,-0.1752 0,-0.10711 -0.0876,-0.19472 -0.19476,-0.19472 -0.0681,0 -0.13629,0.0292 -0.16547,0.0876 l -3.37819,9.27781 c -0.0487,0.12653 -0.0487,0.16547 -0.0487,0.1752 0,0.10711 0.0876,0.19473 0.19472,0.19473 0.12653,0 0.15575,-0.0681 0.21418,-0.23367 l 3.32945,-9.13176"
         style="fill:#000000;fill-opacity:1;fill-rule:nonzero;stroke:none;stroke-width:0.00126898"
         id="path5640"
         inkscape:connector-curvature="0" />
      <path
         d="m 155.92305,156.82609 c 0.32121,0.13633 0.60359,0.13633 0.83723,0.13633 0.25313,0 0.78853,0 0.78853,-0.3018 0,-0.23364 -0.34075,-0.26286 -0.71067,-0.26286 -0.20446,0 -0.54517,0.0195 -0.90537,0.185 -0.22394,-0.11683 -0.38941,-0.30187 -0.38941,-0.56468 0,-0.59387 0.95403,-0.94435 1.83021,-0.94435 0.15578,0 0.50622,0 0.89563,0.27262 0.10711,0.0779 0.1266,0.0974 0.19477,0.0974 0.12652,0 0.26281,-0.12653 0.26281,-0.26286 0,-0.18496 -0.59387,-0.55489 -1.25583,-0.55489 -1.11958,0 -2.17096,0.65224 -2.17096,1.39213 0,0.4186 0.35047,0.66199 0.38935,0.69121 -0.57438,0.32126 -0.88587,0.86645 -0.88587,1.31427 0,0.63282 0.55489,1.22662 1.58685,1.22662 1.28508,0 1.83025,-0.85669 1.83025,-1.00271 0,-0.0584 -0.0487,-0.0974 -0.10708,-0.0974 -0.0487,0 -0.0779,0.0389 -0.0974,0.0682 -0.13632,0.22387 -0.36996,0.5841 -1.53814,0.5841 -0.59387,0 -1.42138,-0.14601 -1.42138,-0.83723 0,-0.33102 0.27259,-0.847 0.86646,-1.13907 z m 0.32121,-0.12653 c 0.22395,-0.0779 0.42837,-0.0876 0.59388,-0.0876 0.24339,0 0.2823,0.01 0.45757,0.0584 -0.14601,0.0682 -0.1655,0.0779 -0.53543,0.0779 -0.21418,0 -0.33098,0 -0.51602,-0.0487"
         style="fill:#000000;fill-opacity:1;fill-rule:nonzero;stroke:none;stroke-width:0.00126898"
         id="path5642"
         inkscape:connector-curvature="0" />
      <path
         d="m 162.88925,158.64535 c 0.0477,-0.19062 0.0545,-0.21783 0.0545,-0.37446 0,-0.10886 0,-0.39479 -0.25183,-0.59222 -0.11575,-0.0884 -0.31318,-0.18373 -0.63313,-0.18373 -0.28586,0 -0.70793,0.0748 -1.15041,0.61262 -0.0476,-0.51054 -0.5105,-0.61262 -0.72156,-0.61262 -0.26552,0 -0.42885,0.17695 -0.53779,0.36076 -0.13611,0.23146 -0.24505,0.63984 -0.24505,0.68071 0,0.0885 0.0953,0.0885 0.11571,0.0885 0.0953,0 0.10213,-0.0205 0.14975,-0.20425 0.10212,-0.39486 0.23145,-0.73522 0.49691,-0.73522 0.17702,0 0.22464,0.14982 0.22464,0.33359 0,0.1293 -0.0612,0.38123 -0.10886,0.565 -0.0477,0.1838 -0.11578,0.46288 -0.14978,0.61269 l -0.21787,0.87126 c -0.0272,0.0885 -0.068,0.25875 -0.068,0.27915 0,0.14974 0.12253,0.21784 0.23146,0.21784 0.12253,0 0.23142,-0.0885 0.26545,-0.14981 0.034,-0.0612 0.0885,-0.27905 0.12253,-0.42201 0.034,-0.12937 0.10893,-0.44248 0.14974,-0.61269 0.0409,-0.14974 0.0817,-0.29948 0.11571,-0.45607 0.0749,-0.29271 0.0749,-0.3063 0.21106,-0.51732 0.21783,-0.33358 0.55819,-0.72163 1.08916,-0.72163 0.3812,0 0.4016,0.31315 0.4016,0.47655 0,0.18377 -0.0136,0.24508 -0.0476,0.37438 l -0.76925,3.05648 c -0.0272,0.10212 -0.0272,0.13615 -0.0272,0.14297 0,0.14974 0.12253,0.21783 0.23146,0.21783 0.24505,0 0.30633,-0.23146 0.32677,-0.32677 l 0.74196,-2.98157"
         style="fill:#000000;fill-opacity:1;fill-rule:nonzero;stroke:none;stroke-width:0.00126898"
         id="path5644"
         inkscape:connector-curvature="0" />
    </g>
    <g
       id="g5734"
       transform="translate(-24.856066,-17.907058)">
      <path
         d="m 134.86682,170.95905 c -0.2726,0.01 -0.46728,0.22391 -0.46728,0.43809 0,0.13629 0.0876,0.28231 0.30179,0.28231 0.21416,0 0.44781,-0.16551 0.44781,-0.54516 0,-0.43809 -0.41862,-0.83727 -1.1585,-0.83727 -1.28508,0 -1.64525,0.99302 -1.64525,1.42138 0,0.75938 0.7204,0.90536 1.00271,0.96379 0.50624,0.0974 1.01248,0.20446 1.01248,0.73989 0,0.25313 -0.22393,1.07087 -1.39213,1.07087 -0.1363,0 -0.88595,0 -1.10982,-0.51594 0.36994,0.0487 0.61329,-0.2434 0.61329,-0.51595 0,-0.22394 -0.15578,-0.34078 -0.36017,-0.34078 -0.25312,0 -0.5452,0.20446 -0.5452,0.64255 0,0.55492 0.55491,0.94434 1.39213,0.94434 1.57716,0 1.95681,-1.17798 1.95681,-1.61607 0,-0.3505 -0.18497,-0.59387 -0.30179,-0.71067 -0.26283,-0.27262 -0.54514,-0.32129 -0.97352,-0.40891 -0.35046,-0.0779 -0.73988,-0.14601 -0.73988,-0.5841 0,-0.28235 0.23364,-0.87618 1.09034,-0.87618 0.24341,0 0.73017,0.0682 0.87618,0.44781"
         style="fill:#000000;fill-opacity:1;fill-rule:nonzero;stroke:none;stroke-width:0.00126898"
         id="path5646"
         inkscape:connector-curvature="0" />
      <path
         d="m 138.03512,164.44119 c -1.29337,0.91218 -1.63373,2.35533 -1.63373,3.39684 0,0.95983 0.28589,2.45067 1.63373,3.40365 0.0545,0 0.13615,0 0.13615,-0.0817 0,-0.0409 -0.0204,-0.0544 -0.0681,-0.10213 -0.90536,-0.81686 -1.23894,-1.97408 -1.23894,-3.21303 0,-1.83794 0.70115,-2.73652 1.25935,-3.24024 0.0272,-0.0273 0.0477,-0.0477 0.0477,-0.0817 0,-0.0817 -0.0816,-0.0817 -0.13615,-0.0817"
         style="fill:#000000;fill-opacity:1;fill-rule:nonzero;stroke:none;stroke-width:0.00126898"
         id="path5648"
         inkscape:connector-curvature="0" />
      <path
         d="m 142.17227,167.37515 c 0,-0.74881 -0.0885,-1.28656 -0.40164,-1.76307 -0.21102,-0.31314 -0.63306,-0.58548 -1.17763,-0.58548 -1.5793,0 -1.5793,1.85845 -1.5793,2.34855 0,0.4901 0,2.30767 1.5793,2.30767 1.57927,0 1.57927,-1.81757 1.57927,-2.30767 z m -1.57927,2.11709 c -0.31318,0 -0.72837,-0.18381 -0.86455,-0.74203 -0.0953,-0.40164 -0.0953,-0.9598 -0.0953,-1.46356 0,-0.49691 0,-1.01429 0.10209,-1.38868 0.14296,-0.53779 0.57866,-0.68072 0.85774,-0.68072 0.36758,0 0.72152,0.22462 0.84408,0.61944 0.1089,0.36761 0.11572,0.85774 0.11572,1.44996 0,0.50376 0,1.00749 -0.0885,1.43634 -0.13618,0.61943 -0.59906,0.76925 -0.87133,0.76925"
         style="fill:#000000;fill-opacity:1;fill-rule:nonzero;stroke:none;stroke-width:0.00126898"
         id="path5650"
         inkscape:connector-curvature="0" />
      <path
         d="m 143.1493,164.44119 c -0.0476,0 -0.1293,0 -0.1293,0.0817 0,0.034 0.0204,0.0544 0.0613,0.10212 0.58541,0.53779 1.23894,1.45674 1.23894,3.213 0,1.42271 -0.44248,2.49829 -1.1777,3.16541 -0.11574,0.11571 -0.12252,0.12253 -0.12252,0.15656 0,0.034 0.0204,0.0817 0.0885,0.0817 0.0817,0 0.72833,-0.44929 1.17762,-1.30022 0.29955,-0.56494 0.49698,-1.30015 0.49698,-2.09662 0,-0.95979 -0.28592,-2.45059 -1.6338,-3.40365"
         style="fill:#000000;fill-opacity:1;fill-rule:nonzero;stroke:none;stroke-width:0.00126898"
         id="path5652"
         inkscape:connector-curvature="0" />
      <path
         d="m 138.06234,173.66583 c 0.13618,0.13612 0.34035,0.13612 0.46288,0.13612 0.21105,0 0.67394,0 0.67394,-0.25183 0,-0.20424 -0.35399,-0.21105 -0.60585,-0.21105 -0.11571,0 -0.27226,0 -0.44926,0.0681 -0.007,-0.0272 -0.0408,-0.12253 -0.0408,-0.24505 0,-0.0273 0.0136,-0.15659 0.0272,-0.23146 0.007,-0.007 0.0136,-0.0341 0.0136,-0.0477 0,-0.0544 -0.0477,-0.10894 -0.10893,-0.10894 -0.15655,0 -0.15655,0.25871 -0.15655,0.37446 0,0.0816 0,0.20417 0.068,0.34717 -0.87811,0.44926 -1.88559,1.64732 -1.88559,2.86584 0,0.37438 0.10212,0.69433 0.3812,0.98021 0.22465,0.22464 0.40164,0.27233 1.26612,0.53779 0.24509,0.0681 0.49698,0.14975 0.49698,0.44929 0,0.18382 -0.11571,0.40165 -0.34035,0.40165 -0.11575,0 -0.32677,-0.0273 -0.55823,-0.19062 -0.0409,-0.0272 -0.0545,-0.0409 -0.0885,-0.0409 -0.0749,0 -0.0953,0.0613 -0.0953,0.0953 0,0.10212 0.39486,0.32676 0.74203,0.32676 0.4765,0 0.76917,-0.48331 0.76917,-0.83728 0,-0.29954 -0.18377,-0.52418 -0.42882,-0.6331 -0.0681,-0.0272 -0.38123,-0.12252 -0.57181,-0.17696 -0.52416,-0.1566 -0.708,-0.21103 -0.87815,-0.40846 -0.1838,-0.20423 -0.25186,-0.43567 -0.25186,-0.72155 0,-1.00749 0.84408,-2.09666 1.55883,-2.47786 z m 0.87136,-0.0953 c -0.0953,0.0273 -0.21105,0.0409 -0.4016,0.0409 -0.1634,0 -0.17703,0 -0.25193,-0.0409 0.10893,-0.0408 0.20424,-0.0408 0.30636,-0.0408 0.19062,0 0.21784,0.007 0.34717,0.034 v 0.007"
         style="fill:#000000;fill-opacity:1;fill-rule:nonzero;stroke:none;stroke-width:0.00126898"
         id="path5654"
         inkscape:connector-curvature="0" />
    </g>
    <path
       style="fill:none;stroke:#000000;stroke-width:0.26458332;stroke-linecap:butt;stroke-linejoin:miter;stroke-miterlimit:4;stroke-dasharray:1.05833327, 1.05833327;stroke-dashoffset:0;stroke-opacity:1"
       d="m 58.88175,127.89668 45.38055,66.49458"
       id="path5710"
       inkscape:connector-curvature="0" />
    <circle
       style="opacity:1;fill:#000000;fill-opacity:1;stroke:#000000;stroke-width:0.35277778;stroke-miterlimit:4;stroke-dasharray:none;stroke-dashoffset:0;stroke-opacity:1"
       id="path5736"
       cx="59.011532"
       cy="127.95015"
       r="1.1339285" />
    <circle
       r="1.1339285"
       cy="154.78218"
       cx="77.30809"
       id="circle5738"
       style="opacity:1;fill:#000000;fill-opacity:1;stroke:#000000;stroke-width:0.35277778;stroke-miterlimit:4;stroke-dasharray:none;stroke-dashoffset:0;stroke-opacity:1" />
  </g>
</svg>
