<?xml version="1.0" encoding="UTF-8" standalone="no"?>
<!-- Created with Inkscape (http://www.inkscape.org/) -->

<svg
   xmlns:dc="http://purl.org/dc/elements/1.1/"
   xmlns:cc="http://creativecommons.org/ns#"
   xmlns:rdf="http://www.w3.org/1999/02/22-rdf-syntax-ns#"
   xmlns:svg="http://www.w3.org/2000/svg"
   xmlns="http://www.w3.org/2000/svg"
   xmlns:sodipodi="http://sodipodi.sourceforge.net/DTD/sodipodi-0.dtd"
   xmlns:inkscape="http://www.inkscape.org/namespaces/inkscape"
   width="164.49568mm"
   height="162.82674mm"
   viewBox="0 0 164.49568 162.82674"
   version="1.1"
   id="svg8"
   inkscape:version="0.92.1 r15371"
   sodipodi:docname="ston.svg">
  <defs
     id="defs2">
    <marker
       inkscape:stockid="Arrow1Lend"
       orient="auto"
       refY="0"
       refX="0"
       id="marker5456"
       style="overflow:visible"
       inkscape:isstock="true">
      <path
         id="path5454"
         d="M 0,0 5,-5 -12.5,0 5,5 Z"
         style="fill:#000000;fill-opacity:1;fill-rule:evenodd;stroke:#000000;stroke-width:1.00000003pt;stroke-opacity:1"
         transform="matrix(-0.8,0,0,-0.8,-10,0)"
         inkscape:connector-curvature="0" />
    </marker>
    <marker
       inkscape:isstock="true"
       style="overflow:visible"
       id="marker5159"
       refX="0"
       refY="0"
       orient="auto"
       inkscape:stockid="Arrow1Lend"
       inkscape:collect="always">
      <path
         transform="matrix(-0.8,0,0,-0.8,-10,0)"
         style="fill:#000000;fill-opacity:1;fill-rule:evenodd;stroke:#000000;stroke-width:1.00000003pt;stroke-opacity:1"
         d="M 0,0 5,-5 -12.5,0 5,5 Z"
         id="path5157"
         inkscape:connector-curvature="0" />
    </marker>
    <marker
       inkscape:isstock="true"
       style="overflow:visible"
       id="marker4893"
       refX="0"
       refY="0"
       orient="auto"
       inkscape:stockid="Arrow1Lend"
       inkscape:collect="always">
      <path
         transform="matrix(-0.8,0,0,-0.8,-10,0)"
         style="fill:#000000;fill-opacity:1;fill-rule:evenodd;stroke:#000000;stroke-width:1.00000003pt;stroke-opacity:1"
         d="M 0,0 5,-5 -12.5,0 5,5 Z"
         id="path4891"
         inkscape:connector-curvature="0" />
    </marker>
    <marker
       inkscape:stockid="Arrow1Lend"
       orient="auto"
       refY="0"
       refX="0"
       id="Arrow1Lend"
       style="overflow:visible"
       inkscape:isstock="true"
       inkscape:collect="always">
      <path
         id="path4490"
         d="M 0,0 5,-5 -12.5,0 5,5 Z"
         style="fill:#000000;fill-opacity:1;fill-rule:evenodd;stroke:#000000;stroke-width:1.00000003pt;stroke-opacity:1"
         transform="matrix(-0.8,0,0,-0.8,-10,0)"
         inkscape:connector-curvature="0" />
    </marker>
  </defs>
  <sodipodi:namedview
     id="base"
     pagecolor="#ffffff"
     bordercolor="#666666"
     borderopacity="1.0"
     inkscape:pageopacity="0.0"
     inkscape:pageshadow="2"
     inkscape:zoom="0.7"
     inkscape:cx="290.83811"
     inkscape:cy="340.4302"
     inkscape:document-units="mm"
     inkscape:current-layer="layer1"
     showgrid="false"
     inkscape:window-width="1920"
     inkscape:window-height="1027"
     inkscape:window-x="-8"
     inkscape:window-y="-8"
     inkscape:window-maximized="1"
     fit-margin-left="1"
     fit-margin-top="1"
     fit-margin-bottom="1"
     fit-margin-right="1" />
  <metadata
     id="metadata5">
    <rdf:RDF>
      <cc:Work
         rdf:about="">
        <dc:format>image/svg+xml</dc:format>
        <dc:type
           rdf:resource="http://purl.org/dc/dcmitype/StillImage" />
        <dc:title></dc:title>
      </cc:Work>
    </rdf:RDF>
  </metadata>
  <g
     inkscape:label="レイヤー 1"
     inkscape:groupmode="layer"
     id="layer1"
     transform="translate(-38.160059,-24.06225)">
    <path
       style="fill:none;stroke:#000000;stroke-width:0.26499999;stroke-linecap:butt;stroke-linejoin:miter;stroke-miterlimit:4;stroke-dasharray:none;stroke-opacity:1;marker-end:url(#Arrow1Lend)"
       d="M 47.624999,176.04762 H 188.61011"
       id="path4485"
       inkscape:connector-curvature="0" />
    <path
       inkscape:connector-curvature="0"
       id="path4889"
       d="M 47.624999,176.04762 V 35.0625"
       style="fill:none;stroke:#000000;stroke-width:0.26499999;stroke-linecap:butt;stroke-linejoin:miter;stroke-miterlimit:4;stroke-dasharray:none;stroke-opacity:1;marker-end:url(#marker4893)" />
    <path
       style="opacity:1;fill:none;fill-opacity:1;stroke:#000000;stroke-width:0.35277778;stroke-miterlimit:4;stroke-dasharray:none;stroke-dashoffset:0;stroke-opacity:1"
       id="path5087"
       sodipodi:type="arc"
       sodipodi:cx="47.573032"
       sodipodi:cy="176.09419"
       sodipodi:rx="95.42894"
       sodipodi:ry="113.58189"
       sodipodi:start="4.7129475"
       sodipodi:end="0"
       d="M 47.626331,62.512324 A 95.42894,113.58189 0 0 1 143.00197,176.09419"
       sodipodi:open="true" />
    <path
       sodipodi:open="true"
       d="m 47.610989,87.99259 a 117.5529,88.101616 0 0 1 117.487251,88.1016"
       sodipodi:end="0"
       sodipodi:start="4.7129475"
       sodipodi:ry="88.101616"
       sodipodi:rx="117.5529"
       sodipodi:cy="176.09419"
       sodipodi:cx="47.545334"
       sodipodi:type="arc"
       id="path5089"
       style="opacity:1;fill:none;fill-opacity:1;stroke:#000000;stroke-width:0.35277778;stroke-miterlimit:4;stroke-dasharray:none;stroke-dashoffset:0;stroke-opacity:1" />
    <circle
       style="opacity:1;fill:#000000;fill-opacity:1;stroke:#000000;stroke-width:0.26499996;stroke-miterlimit:4;stroke-dasharray:none;stroke-dashoffset:0;stroke-opacity:1"
       id="path5091"
       cx="156.1573"
       cy="142.71785"
       r="2.221678" />
    <path
       style="fill:none;stroke:#000000;stroke-width:0.26499999;stroke-linecap:butt;stroke-linejoin:miter;stroke-miterlimit:4;stroke-dasharray:1.05999995, 1.05999995;stroke-dashoffset:0;stroke-opacity:1"
       d="M 114.7326,69.127225 170.85721,168.0562"
       id="path5093"
       inkscape:connector-curvature="0" />
    <path
       inkscape:connector-curvature="0"
       id="path5253"
       d="M 144.38014,121.15881 47.62547,176.04825"
       style="fill:none;stroke:#000000;stroke-width:0.26499999;stroke-linecap:butt;stroke-linejoin:miter;stroke-miterlimit:4;stroke-dasharray:none;stroke-dashoffset:0;stroke-opacity:1" />
    <path
       style="fill:none;stroke:#000000;stroke-width:0.26499999;stroke-linecap:butt;stroke-linejoin:miter;stroke-miterlimit:4;stroke-dasharray:none;stroke-dashoffset:0;stroke-opacity:1;marker-end:url(#marker5159)"
       d="m 156.24478,142.41408 18.65855,-10.52495"
       id="path5255"
       inkscape:connector-curvature="0" />
    <path
       inkscape:connector-curvature="0"
       id="path5293"
       style="fill:#000000;fill-opacity:1;fill-rule:nonzero;stroke:none;stroke-width:0.00126898"
       d="m 46.181149,182.07743 c 0,-2.1537 -1.59428,-3.8641 -3.51582,-3.8641 -1.88993,0 -3.50527,1.68907 -3.50527,3.8641 0,2.16437 1.62594,3.81155 3.50527,3.81155 1.92154,0 3.51582,-1.67879 3.51582,-3.81155 z m -3.50531,3.53696 c -1.01353,0 -2.42833,-0.9289 -2.42833,-3.68473 0,-2.7345 1.54149,-3.4524 2.41782,-3.4524 0.91853,0 2.4283,0.74951 2.4283,3.4524 0,2.79773 -1.44643,3.68473 -2.41779,3.68473" />
    <path
       inkscape:connector-curvature="0"
       id="path5295"
       style="fill:#000000;fill-opacity:1;fill-rule:nonzero;stroke:none;stroke-width:0.00126898"
       d="m 93.569269,67.210172 -1.35143,-0.327531 c -0.65458,-0.158052 -1.06632,-0.728185 -1.06632,-1.340592 0,-0.739229 0.57009,-1.383247 1.39362,-1.383247 1.7632,0 1.99549,1.731344 2.05886,2.206645 0.0105,0.06322 0.0105,0.126823 0.12667,0.126823 0.13722,0 0.13722,-0.05294 0.13722,-0.253646 v -2.122096 c 0,-0.17938 0,-0.253265 -0.11608,-0.253265 -0.0739,0 -0.0845,0.01066 -0.1584,0.137106 l -0.3695,0.601743 c -0.31676,-0.306204 -0.74962,-0.738849 -1.68931,-0.738849 -1.17194,0 -2.05879,0.928893 -2.05879,2.048211 0,0.876336 0.55956,1.647176 1.38308,1.932052 0.11616,0.04227 0.65459,0.169097 1.39368,0.348478 0.28504,0.07389 0.6018,0.14777 0.89742,0.538522 0.22169,0.274592 0.3273,0.622689 0.3273,0.971167 0,0.749894 -0.52788,1.50969 -1.41479,1.50969 -0.30617,0 -1.10857,-0.05256 -1.66818,-0.570133 -0.61234,-0.569752 -0.644,-1.24576 -0.65459,-1.625849 -0.0105,-0.105495 -0.095,-0.105495 -0.12669,-0.105495 -0.13723,0 -0.13723,0.07388 -0.13723,0.263929 v 2.111813 c 0,0.179381 0,0.253266 0.1161,0.253266 0.0739,0 0.0845,-0.02133 0.15841,-0.137106 0,-0.01066 0.0317,-0.04228 0.38008,-0.602124 0.32729,0.359141 1.003,0.73923 1.94269,0.73923 1.23525,0 2.0799,-1.03477 2.0799,-2.195982 0,-1.056097 -0.6968,-1.921769 -1.58372,-2.13276" />
    <path
       inkscape:connector-curvature="0"
       id="path5297"
       style="fill:#000000;fill-opacity:1;fill-rule:nonzero;stroke:none;stroke-width:0.00126898"
       d="m 149.23793,143.97422 c -0.34841,0.13749 -0.44344,0.45435 -0.44344,0.60212 0,0.27422 0.22171,0.43265 0.45399,0.43265 0.25338,0 0.64405,-0.21099 0.64405,-0.7179 0,-0.55947 -0.55954,-0.9289 -1.50978,-0.9289 -0.30622,0 -0.89743,0.0209 -1.38314,0.39038 -0.47511,0.35914 -0.64399,0.97154 -0.64399,1.23547 0,0.31649 0.14776,0.61241 0.38008,0.80245 0.29563,0.23232 0.47511,0.26393 1.19301,0.40104 0.31676,0.0529 0.95022,0.1691 0.95022,0.64402 0,0.0423 0,1.00316 -1.57309,1.00316 -0.51736,0 -0.90803,-0.1055 -1.14029,-0.2746 0.35895,-0.10549 0.58068,-0.4117 0.58068,-0.72856 0,-0.38009 -0.30617,-0.48559 -0.51736,-0.48559 -0.35895,0 -0.76015,0.29554 -0.76015,0.8234 0,0.68629 0.73908,1.04543 1.816,1.04543 2.40722,0 2.40722,-1.80561 2.40722,-1.81589 0,-0.35914 -0.17949,-0.6444 -0.42232,-0.85539 -0.32731,-0.28487 -0.72852,-0.35914 -1.09806,-0.42236 -0.58068,-0.1055 -0.99247,-0.17938 -0.99247,-0.57013 0,-0.0209 0,-0.81312 1.18254,-0.81312 0.21113,0 0.59119,0.0213 0.8763,0.23232" />
    <g
       id="g5398"
       transform="translate(-31.537804,75.370006)">
      <path
         d="m 228.71657,99.505252 c -0.29564,0.01066 -0.50678,0.242982 -0.50678,0.47492 0,0.147768 0.095,0.306208 0.3273,0.306208 0.23226,0 0.48564,-0.17938 0.48564,-0.591084 0,-0.4753 -0.45399,-0.907946 -1.25639,-0.907946 -1.39367,0 -1.78428,1.076663 -1.78428,1.5413 0,0.82378 0.78127,0.98183 1.08744,1.04543 0.54902,0.1055 1.09804,0.22166 1.09804,0.80245 0,0.27422 -0.24285,1.16122 -1.50977,1.16122 -0.14782,0 -0.96082,0 -1.20361,-0.55947 0.4012,0.0526 0.66512,-0.26393 0.66512,-0.55947 0,-0.24298 -0.16894,-0.36981 -0.39061,-0.36981 -0.27451,0 -0.59127,0.22166 -0.59127,0.69696 0,0.60174 0.60181,1.0241 1.50977,1.0241 1.71044,0 2.12218,-1.27737 2.12218,-1.75267 0,-0.38009 -0.20061,-0.64401 -0.3273,-0.77084 -0.28504,-0.29554 -0.59121,-0.34809 -1.05579,-0.44331 -0.38007,-0.0845 -0.8024,-0.15843 -0.8024,-0.633351 0,-0.306203 0.25338,-0.950221 1.18248,-0.950221 0.26398,0 0.79187,0.07389 0.95023,0.485584"
         style="fill:#000000;fill-opacity:1;fill-rule:nonzero;stroke:none;stroke-width:0.00126898"
         id="path5299"
         inkscape:connector-curvature="0" />
      <path
         d="m 231.53246,105.54744 c 0.0517,0.0149 0.23624,0.0815 0.30274,0.10359 0.36173,0.1253 0.45766,0.155 0.45766,0.33972 0,0.10321 -0.0811,0.34695 -0.33217,0.34695 -0.11075,0 -0.39871,-0.0225 -0.71611,-0.2068 -0.0517,-0.0446 -0.0665,-0.0446 -0.096,-0.0446 -0.0443,0 -0.10336,0.0297 -0.10336,0.10359 0,0.13292 0.51674,0.35419 0.91545,0.35419 0.50938,0 0.80466,-0.46502 0.80466,-0.80435 0,-0.28069 -0.15501,-0.42846 -0.31001,-0.50958 -0.0591,-0.0297 -0.98191,-0.34695 -1.06315,-0.36904 -0.71611,-0.25098 -1.11475,-0.3839 -1.11475,-0.81236 0,-0.26545 0.25841,-0.84129 0.8859,-1.17378 0.31748,0.10359 0.63488,0.10359 0.76776,0.10359 0.26583,0 0.76783,0 0.76783,-0.27307 0,-0.22889 -0.42084,-0.22889 -0.67921,-0.22889 -0.17717,0 -0.39864,0 -0.70137,0.10321 -0.19926,-0.16224 -0.25098,-0.39875 -0.25098,-0.57584 0,-0.42084 0.3027,-0.93765 0.85637,-1.19587 0.16983,0.18433 0.35435,0.18433 0.53895,0.18433 0.22889,0 0.73088,0 0.73088,-0.27307 0,-0.22889 -0.41345,-0.22889 -0.68659,-0.22889 -0.11075,0 -0.27315,0 -0.47987,0.0297 0,-0.008 -0.0295,-0.12568 -0.0295,-0.22166 0,-0.0811 0.0147,-0.16986 0.0295,-0.25098 0.007,-0.007 0.0147,-0.0369 0.0147,-0.05179 0,-0.05903 -0.0517,-0.118063 -0.11811,-0.118063 -0.16978,0 -0.16978,0.280683 -0.16978,0.406363 0,0.0293 0,0.19157 0.0369,0.28754 -1.01878,0.27345 -1.37316,0.91557 -1.37316,1.39544 0,0.29554 0.14027,0.58308 0.48726,0.78988 -0.83425,0.47263 -1.07049,1.21072 -1.07049,1.52073 0,0.67182 0.70872,0.9228 0.94496,1.00431 z m 1.37315,-4.80595 c -0.059,0.0148 -0.14765,0.0446 -0.44292,0.0446 -0.11811,0 -0.20673,0 -0.29532,-0.0518 0.13288,-0.037 0.19195,-0.037 0.347,-0.037 0.22885,0 0.2731,0.007 0.39124,0.037 z m -0.50199,1.98613 c -0.10337,0.0293 -0.1993,0.0442 -0.45032,0.0442 -0.14031,0 -0.22885,0 -0.36912,-0.0442 0.19191,-0.0446 0.25837,-0.0446 0.42815,-0.0446 0.22889,0 0.25102,0.008 0.39129,0.037 v 0.008"
         style="fill:#000000;fill-opacity:1;fill-rule:nonzero;stroke:none;stroke-width:0.00126898"
         id="path5301"
         inkscape:connector-curvature="0" />
    </g>
    <g
       id="g5402"
       transform="translate(-180.40693,-90.60437)">
      <path
         d="m 228.71657,116.38452 c -0.29564,0.0107 -0.50678,0.24299 -0.50678,0.47492 0,0.14777 0.095,0.30621 0.3273,0.30621 0.23226,0 0.48564,-0.17938 0.48564,-0.59108 0,-0.4753 -0.45399,-0.90795 -1.25639,-0.90795 -1.39367,0 -1.78428,1.07666 -1.78428,1.5413 0,0.82378 0.78127,0.98183 1.08744,1.04544 0.54902,0.10549 1.09804,0.22165 1.09804,0.80245 0,0.27421 -0.24285,1.16121 -1.50977,1.16121 -0.14782,0 -0.96082,0 -1.20361,-0.55947 0.4012,0.0526 0.66512,-0.26393 0.66512,-0.55947 0,-0.24298 -0.16894,-0.3698 -0.39061,-0.3698 -0.27451,0 -0.59127,0.22165 -0.59127,0.69695 0,0.60174 0.60181,1.02411 1.50977,1.02411 1.71044,0 2.12218,-1.27737 2.12218,-1.75268 0,-0.38008 -0.20061,-0.64401 -0.3273,-0.77084 -0.28504,-0.29554 -0.59121,-0.34809 -1.05579,-0.44331 -0.38007,-0.0845 -0.8024,-0.15843 -0.8024,-0.63335 0,-0.3062 0.25338,-0.95022 1.18248,-0.95022 0.26398,0 0.79187,0.0739 0.95023,0.48558"
         style="fill:#000000;fill-opacity:1;fill-rule:nonzero;stroke:none;stroke-width:0.00126898"
         id="path5303"
         inkscape:connector-curvature="0" />
      <path
         d="m 232.18211,117.72055 c 0.1477,0.14738 0.36912,0.14738 0.502,0.14738 0.22889,0 0.73089,0 0.73089,-0.27306 0,-0.22128 -0.3839,-0.2289 -0.65704,-0.2289 -0.12549,0 -0.29527,0 -0.48722,0.0739 -0.007,-0.0293 -0.0443,-0.13292 -0.0443,-0.26583 0,-0.0293 0.0148,-0.16986 0.0295,-0.25098 0.007,-0.007 0.0148,-0.037 0.0148,-0.0518 0,-0.059 -0.0517,-0.11806 -0.11814,-0.11806 -0.16979,0 -0.16979,0.28068 -0.16979,0.40636 0,0.0884 0,0.22128 0.0738,0.37628 -0.95231,0.48749 -2.04493,1.78657 -2.04493,3.10812 0,0.40599 0.11075,0.75294 0.41341,1.06295 0.24363,0.24375 0.43558,0.29554 1.37312,0.58347 0.26579,0.0735 0.53898,0.16224 0.53898,0.4871 0,0.19919 -0.12549,0.43569 -0.36912,0.43569 -0.12553,0 -0.35439,-0.0297 -0.6054,-0.2068 -0.0443,-0.0297 -0.0591,-0.0446 -0.096,-0.0446 -0.0812,0 -0.10336,0.0667 -0.10336,0.10359 0,0.11083 0.42823,0.3542 0.80474,0.3542 0.51677,0 0.83417,-0.52405 0.83417,-0.90795 0,-0.32487 -0.1993,-0.56861 -0.46505,-0.68667 -0.0738,-0.0293 -0.41346,-0.13292 -0.62014,-0.19195 -0.56846,-0.16986 -0.76783,-0.22889 -0.95236,-0.44293 -0.19933,-0.22127 -0.27314,-0.47225 -0.27314,-0.78227 0,-1.09266 0.91541,-2.27405 1.69055,-2.68727 z m 0.94501,-0.1036 c -0.10337,0.0297 -0.22889,0.0446 -0.43554,0.0446 -0.17721,0 -0.19199,0 -0.27323,-0.0446 0.11814,-0.0442 0.22151,-0.0442 0.33226,-0.0442 0.20672,0 0.23624,0.007 0.37651,0.0369 v 0.007"
         style="fill:#000000;fill-opacity:1;fill-rule:nonzero;stroke:none;stroke-width:0.00126898"
         id="path5305"
         inkscape:connector-curvature="0" />
    </g>
    <path
       inkscape:connector-curvature="0"
       id="path5325"
       style="fill:#000000;fill-opacity:1;fill-rule:nonzero;stroke:none;stroke-width:0.00126898"
       d="m 175.3839,137.32242 c -0.14782,-0.5279 -0.72849,-0.80241 -1.29864,-0.80241 -0.39061,0 -0.68624,0.22173 -0.9185,0.60181 -0.26398,0.42233 -0.4012,0.99246 -0.4012,1.04525 0,0.1478 0.15835,0.1478 0.25338,0.1478 0.1161,0 0.15835,0 0.21114,-0.0528 0.0211,-0.0211 0.0211,-0.0422 0.0844,-0.30617 0.21119,-0.82351 0.44345,-1.05583 0.71796,-1.05583 0.15841,0 0.24285,0.10561 0.24285,0.39068 0,0.17946 -0.0422,0.3484 -0.14782,0.77073 -0.0739,0.29565 -0.17947,0.7179 -0.23225,0.95022 l -0.38008,1.47811 c -0.0317,0.14781 -0.0845,0.34844 -0.0845,0.42233 0,0.22173 0.16894,0.46452 0.49623,0.46452 0.54902,0 0.67571,-0.48562 0.74962,-0.80241 0.10557,-0.3906 0.19007,-0.72849 0.29564,-1.18247 0.0422,-0.13729 0.30617,-1.22473 0.32729,-1.25638 0.0105,-0.0634 0.30617,-0.53849 0.65459,-0.82355 0.29563,-0.23232 0.64405,-0.41178 1.08751,-0.41178 0.27451,0 0.52789,0.10561 0.52789,0.62292 0,0.60182 -0.4646,1.83715 -0.66519,2.36504 -0.11616,0.28503 -0.14781,0.35895 -0.14781,0.53841 0,0.61241 0.61241,0.95022 1.19309,0.95022 1.11913,0 1.64703,-1.43584 1.64703,-1.64706 0,-0.14773 -0.1584,-0.14773 -0.25338,-0.14773 -0.12667,0 -0.2006,0 -0.24283,0.13722 -0.34844,1.17195 -0.91858,1.27748 -1.08752,1.27748 -0.0739,0 -0.17946,0 -0.17946,-0.22169 0,-0.24279 0.10554,-0.5068 0.21118,-0.77076 0.16887,-0.43288 0.65457,-1.66813 0.65457,-2.2594 0,-0.97136 -0.813,-1.22473 -1.57314,-1.22473 -0.22173,0 -0.99247,0 -1.74209,0.80241" />
    <g
       id="g5420"
       transform="translate(-129.01009,-28.348214)">
      <path
         d="m 227.69243,181.08172 c 0,-0.25338 0,-0.27451 -0.24285,-0.27451 -0.65459,0.6757 -1.58368,0.6757 -1.92151,0.6757 v 0.3273 c 0.21114,0 0.83406,0 1.38308,-0.27451 v 5.46908 c 0,0.38007 -0.0317,0.50676 -0.98188,0.50676 h -0.33788 v 0.3273 c 0.36954,-0.0317 1.2881,-0.0317 1.71043,-0.0317 0.42227,0 1.34083,0 1.71036,0.0317 v -0.3273 h -0.33789 c -0.9502,0 -0.98186,-0.11615 -0.98186,-0.50676 v -5.92306"
         style="fill:#000000;fill-opacity:1;fill-rule:nonzero;stroke:none;stroke-width:0.00126898"
         id="path5327"
         inkscape:connector-curvature="0" />
      <path
         d="m 234.4981,180.32151 c 0.0529,-0.13722 0.0529,-0.17946 0.0529,-0.19001 0,-0.11616 -0.0951,-0.21118 -0.21122,-0.21118 -0.0739,0 -0.1478,0.0317 -0.17945,0.095 l -3.66367,10.06183 c -0.0528,0.13722 -0.0528,0.17947 -0.0528,0.19 0,0.11616 0.095,0.2112 0.21118,0.2112 0.13722,0 0.16891,-0.0739 0.23228,-0.25345 l 3.6108,-9.90341"
         style="fill:#000000;fill-opacity:1;fill-rule:nonzero;stroke:none;stroke-width:0.00126898"
         id="path5329"
         inkscape:connector-curvature="0" />
      <path
         d="m 236.06701,187.21591 c -0.0317,0.15835 -0.095,0.4012 -0.095,0.45399 0,0.19007 0.14781,0.2851 0.30624,0.2851 0.12667,0 0.31668,-0.0845 0.3906,-0.29564 0.0106,-0.0211 0.1373,-0.51736 0.20059,-0.78128 l 0.23232,-0.95023 c 0.0633,-0.23232 0.12671,-0.46456 0.1795,-0.70743 0.0422,-0.17946 0.12667,-0.48562 0.13722,-0.5279 0.15839,-0.32726 0.71794,-1.28803 1.72095,-1.28803 0.47511,0 0.57017,0.3906 0.57017,0.73904 0,0.65457 -0.51739,2.00601 -0.68633,2.46006 -0.095,0.24278 -0.10558,0.36947 -0.10558,0.48563 0,0.49624 0.36954,0.86578 0.86579,0.86578 0.9925,0 1.3831,-1.54149 1.3831,-1.62593 0,-0.10564 -0.0951,-0.10564 -0.12671,-0.10564 -0.10557,0 -0.10557,0.0317 -0.15836,0.19008 -0.21118,0.71796 -0.55958,1.30917 -1.07689,1.30917 -0.17953,0 -0.25338,-0.10557 -0.25338,-0.34842 0,-0.26391 0.0949,-0.5173 0.19,-0.74961 0.2006,-0.55954 0.64406,-1.72091 0.64406,-2.32273 0,-0.70743 -0.45401,-1.12975 -1.21423,-1.12975 -0.95022,0 -1.46749,0.6757 -1.64702,0.91857 -0.0528,-0.59127 -0.48566,-0.91857 -0.97132,-0.91857 -0.4857,0 -0.68629,0.41181 -0.79186,0.60182 -0.16895,0.35899 -0.31676,0.98194 -0.31676,1.02411 0,0.10564 0.10558,0.10564 0.12671,0.10564 0.10561,0 0.11616,-0.0106 0.17946,-0.24287 0.17953,-0.74962 0.39068,-1.25638 0.77076,-1.25638 0.21118,0 0.32727,0.13722 0.32727,0.48566 0,0.22173 -0.0316,0.33789 -0.16887,0.88688 l -0.61241,2.43888"
         style="fill:#000000;fill-opacity:1;fill-rule:nonzero;stroke:none;stroke-width:0.00126898"
         id="path5331"
         inkscape:connector-curvature="0" />
    </g>
    <g
       id="g5684"
       transform="matrix(0.39627199,0,0,0.39835757,91.80861,67.375744)"
       style="stroke-width:2.51690459">
      <path
         style="fill:none;stroke:#000000;stroke-width:0.66681898;stroke-linecap:butt;stroke-linejoin:miter;stroke-miterlimit:4;stroke-dasharray:none;stroke-dashoffset:0;stroke-opacity:1"
         d="m 102.76115,127.38953 18.65854,-10.52495"
         id="path5452"
         inkscape:connector-curvature="0" />
      <path
         inkscape:connector-curvature="0"
         id="path5680"
         d="m 102.76115,127.38953 10.52495,18.65854"
         style="fill:none;stroke:#000000;stroke-width:0.66681898;stroke-linecap:butt;stroke-linejoin:miter;stroke-miterlimit:4;stroke-dasharray:none;stroke-dashoffset:0;stroke-opacity:1" />
    </g>
    <path
       style="fill:none;stroke:#000000;stroke-width:0.26458332px;stroke-linecap:butt;stroke-linejoin:miter;stroke-opacity:1"
       d="m 47.624999,176.04762 c 11.708836,-1.18979 45.882705,-15.75518 45.882705,-15.75518"
       id="path5700"
       inkscape:connector-curvature="0"
       sodipodi:nodetypes="cc" />
    <path
       style="fill:none;stroke:#000000;stroke-width:0.26458332px;stroke-linecap:butt;stroke-linejoin:miter;stroke-opacity:1"
       d="m 144.38014,121.15881 c -9.14177,17.35035 -31.05786,30.9811 -31.05786,30.9811"
       id="path5702"
       inkscape:connector-curvature="0"
       sodipodi:nodetypes="cc" />
  </g>
</svg>
