<?xml version="1.0" encoding="UTF-8" standalone="no"?>
<!-- Created with Inkscape (http://www.inkscape.org/) -->

<svg
   xmlns:osb="http://www.openswatchbook.org/uri/2009/osb"
   xmlns:dc="http://purl.org/dc/elements/1.1/"
   xmlns:cc="http://creativecommons.org/ns#"
   xmlns:rdf="http://www.w3.org/1999/02/22-rdf-syntax-ns#"
   xmlns:svg="http://www.w3.org/2000/svg"
   xmlns="http://www.w3.org/2000/svg"
   xmlns:xlink="http://www.w3.org/1999/xlink"
   xmlns:sodipodi="http://sodipodi.sourceforge.net/DTD/sodipodi-0.dtd"
   xmlns:inkscape="http://www.inkscape.org/namespaces/inkscape"
   width="155.67998mm"
   height="129.29092mm"
   viewBox="0 0 155.67998 129.29092"
   version="1.1"
   id="svg8"
   inkscape:version="0.92.1 r15371"
   sodipodi:docname="TMrec.svg">
  <defs
     id="defs2">
    <pattern
       inkscape:collect="always"
       xlink:href="#Strips1_1"
       id="pattern6692"
       patternTransform="matrix(0.42760538,0.29263803,-0.94317721,1.0983575,52.776065,26.566901)" />
    <pattern
       inkscape:isstock="true"
       inkscape:stockid="Stripes 1:1"
       id="Strips1_1"
       patternTransform="translate(0,0) scale(10,10)"
       height="1"
       width="2"
       patternUnits="userSpaceOnUse"
       inkscape:collect="always">
      <rect
         id="rect5915"
         height="2"
         width="1"
         y="-0.5"
         x="0"
         style="fill:black;stroke:none" />
    </pattern>
    <linearGradient
       id="linearGradient6664"
       osb:paint="solid">
      <stop
         style="stop-color:#000000;stop-opacity:1;"
         offset="0"
         id="stop6662" />
    </linearGradient>
    <linearGradient
       id="linearGradient5111">
      <stop
         id="stop6659"
         offset="0"
         style="stop-color:#000000;stop-opacity:1;" />
    </linearGradient>
    <linearGradient
       id="linearGradient6655"
       osb:paint="solid">
      <stop
         style="stop-color:#000000;stop-opacity:1;"
         offset="0"
         id="stop6653" />
    </linearGradient>
    <linearGradient
       id="linearGradient6649"
       osb:paint="solid">
      <stop
         style="stop-color:#000000;stop-opacity:1;"
         offset="0"
         id="stop6647" />
    </linearGradient>
    <linearGradient
       id="linearGradient5111-9">
      <stop
         style="stop-color:#000000;stop-opacity:1;"
         offset="0"
         id="stop5109" />
    </linearGradient>
    <marker
       inkscape:stockid="Arrow2Mend"
       orient="auto"
       refY="0"
       refX="0"
       id="marker10199"
       style="overflow:visible"
       inkscape:isstock="true">
      <path
         id="path10197"
         style="fill:#000000;fill-opacity:1;fill-rule:evenodd;stroke:#000000;stroke-width:0.625;stroke-linejoin:round;stroke-opacity:1"
         d="M 8.7185878,4.0337352 -2.2072895,0.01601326 8.7185884,-4.0017078 c -1.7454984,2.3720609 -1.7354408,5.6174519 -6e-7,8.035443 z"
         transform="scale(-0.6)"
         inkscape:connector-curvature="0" />
    </marker>
    <marker
       inkscape:stockid="Arrow2Mend"
       orient="auto"
       refY="0"
       refX="0"
       id="marker10111"
       style="overflow:visible"
       inkscape:isstock="true">
      <path
         id="path10109"
         style="fill:#000000;fill-opacity:1;fill-rule:evenodd;stroke:#000000;stroke-width:0.625;stroke-linejoin:round;stroke-opacity:1"
         d="M 8.7185878,4.0337352 -2.2072895,0.01601326 8.7185884,-4.0017078 c -1.7454984,2.3720609 -1.7354408,5.6174519 -6e-7,8.035443 z"
         transform="scale(-0.6)"
         inkscape:connector-curvature="0" />
    </marker>
    <marker
       inkscape:stockid="Arrow2Mend"
       orient="auto"
       refY="0"
       refX="0"
       id="marker10029"
       style="overflow:visible"
       inkscape:isstock="true">
      <path
         id="path10027"
         style="fill:#000000;fill-opacity:1;fill-rule:evenodd;stroke:#000000;stroke-width:0.625;stroke-linejoin:round;stroke-opacity:1"
         d="M 8.7185878,4.0337352 -2.2072895,0.01601326 8.7185884,-4.0017078 c -1.7454984,2.3720609 -1.7354408,5.6174519 -6e-7,8.035443 z"
         transform="scale(-0.6)"
         inkscape:connector-curvature="0" />
    </marker>
    <marker
       inkscape:stockid="Arrow2Mend"
       orient="auto"
       refY="0"
       refX="0"
       id="marker9889"
       style="overflow:visible"
       inkscape:isstock="true">
      <path
         id="path9887"
         style="fill:#000000;fill-opacity:1;fill-rule:evenodd;stroke:#000000;stroke-width:0.625;stroke-linejoin:round;stroke-opacity:1"
         d="M 8.7185878,4.0337352 -2.2072895,0.01601326 8.7185884,-4.0017078 c -1.7454984,2.3720609 -1.7354408,5.6174519 -6e-7,8.035443 z"
         transform="scale(-0.6)"
         inkscape:connector-curvature="0" />
    </marker>
    <marker
       inkscape:stockid="Arrow2Mend"
       orient="auto"
       refY="0"
       refX="0"
       id="marker9837"
       style="overflow:visible"
       inkscape:isstock="true">
      <path
         id="path9835"
         style="fill:#000000;fill-opacity:1;fill-rule:evenodd;stroke:#000000;stroke-width:0.625;stroke-linejoin:round;stroke-opacity:1"
         d="M 8.7185878,4.0337352 -2.2072895,0.01601326 8.7185884,-4.0017078 c -1.7454984,2.3720609 -1.7354408,5.6174519 -6e-7,8.035443 z"
         transform="scale(-0.6)"
         inkscape:connector-curvature="0" />
    </marker>
    <marker
       inkscape:isstock="true"
       style="overflow:visible"
       id="marker9785"
       refX="0"
       refY="0"
       orient="auto"
       inkscape:stockid="Arrow2Mend"
       inkscape:collect="always">
      <path
         transform="scale(-0.6)"
         d="M 8.7185878,4.0337352 -2.2072895,0.01601326 8.7185884,-4.0017078 c -1.7454984,2.3720609 -1.7354408,5.6174519 -6e-7,8.035443 z"
         style="fill:#000000;fill-opacity:1;fill-rule:evenodd;stroke:#000000;stroke-width:0.625;stroke-linejoin:round;stroke-opacity:1"
         id="path9783"
         inkscape:connector-curvature="0" />
    </marker>
    <marker
       inkscape:isstock="true"
       style="overflow:visible"
       id="marker9685"
       refX="0"
       refY="0"
       orient="auto"
       inkscape:stockid="Arrow2Mend"
       inkscape:collect="always">
      <path
         transform="scale(-0.6)"
         d="M 8.7185878,4.0337352 -2.2072895,0.01601326 8.7185884,-4.0017078 c -1.7454984,2.3720609 -1.7354408,5.6174519 -6e-7,8.035443 z"
         style="fill:#000000;fill-opacity:1;fill-rule:evenodd;stroke:#000000;stroke-width:0.625;stroke-linejoin:round;stroke-opacity:1"
         id="path9683"
         inkscape:connector-curvature="0" />
    </marker>
    <marker
       inkscape:stockid="Arrow1Send"
       orient="auto"
       refY="0"
       refX="0"
       id="Arrow1Send"
       style="overflow:visible"
       inkscape:isstock="true">
      <path
         id="path4508"
         d="M 0,0 5,-5 -12.5,0 5,5 Z"
         style="fill:#000000;fill-opacity:1;fill-rule:evenodd;stroke:#000000;stroke-width:1.00000003pt;stroke-opacity:1"
         transform="matrix(-0.2,0,0,-0.2,-1.2,0)"
         inkscape:connector-curvature="0" />
    </marker>
    <marker
       inkscape:isstock="true"
       style="overflow:visible"
       id="marker9511"
       refX="0"
       refY="0"
       orient="auto"
       inkscape:stockid="Arrow2Lend">
      <path
         transform="matrix(-1.1,0,0,-1.1,-1.1,0)"
         d="M 8.7185878,4.0337352 -2.2072895,0.01601326 8.7185884,-4.0017078 c -1.7454984,2.3720609 -1.7354408,5.6174519 -6e-7,8.035443 z"
         style="fill:#000000;fill-opacity:1;fill-rule:evenodd;stroke:#000000;stroke-width:0.625;stroke-linejoin:round;stroke-opacity:1"
         id="path9509"
         inkscape:connector-curvature="0" />
    </marker>
    <marker
       inkscape:isstock="true"
       style="overflow:visible"
       id="marker7053"
       refX="0"
       refY="0"
       orient="auto"
       inkscape:stockid="Arrow2Mend">
      <path
         transform="scale(-0.6)"
         d="M 8.7185878,4.0337352 -2.2072895,0.01601326 8.7185884,-4.0017078 c -1.7454984,2.3720609 -1.7354408,5.6174519 -6e-7,8.035443 z"
         style="fill:#000000;fill-opacity:1;fill-rule:evenodd;stroke:#000000;stroke-width:0.625;stroke-linejoin:round;stroke-opacity:1"
         id="path7051"
         inkscape:connector-curvature="0" />
    </marker>
    <marker
       inkscape:isstock="true"
       style="overflow:visible"
       id="marker6941"
       refX="0"
       refY="0"
       orient="auto"
       inkscape:stockid="Arrow1Lend">
      <path
         transform="matrix(-0.8,0,0,-0.8,-10,0)"
         style="fill:#000000;fill-opacity:1;fill-rule:evenodd;stroke:#000000;stroke-width:1.00000003pt;stroke-opacity:1"
         d="M 0,0 5,-5 -12.5,0 5,5 Z"
         id="path6939"
         inkscape:connector-curvature="0" />
    </marker>
    <marker
       inkscape:isstock="true"
       style="overflow:visible"
       id="marker5069"
       refX="0"
       refY="0"
       orient="auto"
       inkscape:stockid="Arrow2Mend">
      <path
         transform="scale(-0.6)"
         d="M 8.7185878,4.0337352 -2.2072895,0.01601326 8.7185884,-4.0017078 c -1.7454984,2.3720609 -1.7354408,5.6174519 -6e-7,8.035443 z"
         style="fill:#000000;fill-opacity:1;fill-rule:evenodd;stroke:#000000;stroke-width:0.625;stroke-linejoin:round;stroke-opacity:1"
         id="path5067"
         inkscape:connector-curvature="0" />
    </marker>
    <marker
       inkscape:stockid="Arrow1Lend"
       orient="auto"
       refY="0"
       refX="0"
       id="marker4777"
       style="overflow:visible"
       inkscape:isstock="true">
      <path
         id="path4775"
         d="M 0,0 5,-5 -12.5,0 5,5 Z"
         style="fill:#000000;fill-opacity:1;fill-rule:evenodd;stroke:#000000;stroke-width:1.00000003pt;stroke-opacity:1"
         transform="matrix(-0.8,0,0,-0.8,-10,0)"
         inkscape:connector-curvature="0" />
    </marker>
    <marker
       inkscape:stockid="Arrow1Lend"
       orient="auto"
       refY="0"
       refX="0"
       id="Arrow1Lend"
       style="overflow:visible"
       inkscape:isstock="true"
       inkscape:collect="always">
      <path
         id="path4496"
         d="M 0,0 5,-5 -12.5,0 5,5 Z"
         style="fill:#000000;fill-opacity:1;fill-rule:evenodd;stroke:#000000;stroke-width:1.00000003pt;stroke-opacity:1"
         transform="matrix(-0.8,0,0,-0.8,-10,0)"
         inkscape:connector-curvature="0" />
    </marker>
  </defs>
  <sodipodi:namedview
     id="base"
     pagecolor="#ffffff"
     bordercolor="#666666"
     borderopacity="1.0"
     inkscape:pageopacity="0.0"
     inkscape:pageshadow="2"
     inkscape:zoom="1.4"
     inkscape:cx="169.65351"
     inkscape:cy="337.06402"
     inkscape:document-units="mm"
     inkscape:current-layer="layer1"
     showgrid="false"
     inkscape:window-width="1920"
     inkscape:window-height="1027"
     inkscape:window-x="-8"
     inkscape:window-y="-8"
     inkscape:window-maximized="1"
     fit-margin-left="1"
     fit-margin-bottom="1"
     fit-margin-right="1"
     fit-margin-top="1" />
  <metadata
     id="metadata5">
    <rdf:RDF>
      <cc:Work
         rdf:about="">
        <dc:format>image/svg+xml</dc:format>
        <dc:type
           rdf:resource="http://purl.org/dc/dcmitype/StillImage" />
        <dc:title />
      </cc:Work>
    </rdf:RDF>
  </metadata>
  <g
     inkscape:label="レイヤー 1"
     inkscape:groupmode="layer"
     id="layer1"
     transform="translate(-28.666917,-31.854643)">
    <path
       inkscape:connector-curvature="0"
       id="path5001"
       d="M 65.23079,133.36903 51.36703,126.29257"
       style="fill:none;stroke:#000000;stroke-width:0.35277778;stroke-linecap:butt;stroke-linejoin:miter;stroke-miterlimit:4;stroke-dasharray:none;stroke-opacity:1;marker-end:url(#marker10111)" />
    <path
       style="fill:none;stroke:#000000;stroke-width:0.35277778;stroke-linecap:butt;stroke-linejoin:miter;stroke-miterlimit:4;stroke-dasharray:none;stroke-opacity:1"
       d="M 29.666917,98.15147 H 183.34689"
       id="path4485"
       inkscape:connector-curvature="0" />
    <path
       style="fill:none;stroke:#000000;stroke-width:0.35277778;stroke-linecap:butt;stroke-linejoin:miter;stroke-miterlimit:4;stroke-dasharray:1.41111111, 1.41111111;stroke-dashoffset:0;stroke-opacity:1;marker-end:url(#marker4777)"
       d="M 83.120822,160.14557 V 37.201602"
       id="path4487"
       inkscape:connector-curvature="0" />
    <path
       style="fill:none;stroke:#000000;stroke-width:0.35277778;stroke-linecap:butt;stroke-linejoin:miter;stroke-miterlimit:4;stroke-dasharray:none;stroke-opacity:1"
       d="M 56.661141,150.00176 83.125231,98.154991"
       id="path4489"
       inkscape:connector-curvature="0" />
    <path
       style="fill:none;stroke:#000000;stroke-width:0.35277778;stroke-linecap:butt;stroke-linejoin:miter;stroke-miterlimit:4;stroke-dasharray:none;stroke-opacity:1;marker-end:url(#Arrow1Lend)"
       d="M 83.115094,98.183163 156.10414,71.919696"
       id="path4491"
       inkscape:connector-curvature="0" />
    <path
       inkscape:connector-curvature="0"
       id="path4821"
       style="fill:#000000;fill-opacity:1;fill-rule:nonzero;stroke:none;stroke-width:0.00278074"
       d="m 78.749227,33.933848 c 0.0463,-0.200492 0.22355,-0.90958 0.7632,-0.90958 0.0385,0 0.22354,0 0.38541,0.100106 -0.21584,0.03865 -0.37001,0.231358 -0.37001,0.416277 0,0.123465 0.0848,0.269732 0.29295,0.269732 0.16957,0 0.41628,-0.138759 0.41628,-0.447143 0,-0.400705 -0.45482,-0.508597 -0.71696,-0.508597 -0.44709,0 -0.71691,0.40849 -0.80941,0.585902 -0.19274,-0.508876 -0.60898,-0.585902 -0.83257,-0.585902 -0.80172,0 -1.24112,0.994392 -1.24112,1.187098 0,0.07703 0.0771,0.07703 0.0925,0.07703 0.0617,0 0.0848,-0.01529 0.10024,-0.08481 0.26208,-0.816981 0.77087,-1.009686 1.03295,-1.009686 0.14652,0 0.41629,0.06924 0.41629,0.516383 0,0.238866 -0.13104,0.755527 -0.41629,1.834732 -0.1233,0.47801 -0.39312,0.801688 -0.73233,0.801688 -0.0462,0 -0.22354,0 -0.38543,-0.100107 0.19274,-0.03865 0.36232,-0.200491 0.36232,-0.416277 0,-0.208277 -0.16958,-0.27001 -0.28525,-0.27001 -0.23123,0 -0.42397,0.200492 -0.42397,0.447143 0,0.354545 0.38543,0.508876 0.72464,0.508876 0.50879,0 0.7863,-0.539742 0.80942,-0.585902 0.0925,0.285304 0.37005,0.585902 0.83257,0.585902 0.79398,0 1.2334,-0.994393 1.2334,-1.187098 0,-0.07731 -0.0694,-0.07731 -0.0925,-0.07731 -0.0693,0 -0.0848,0.03087 -0.10019,0.08481 -0.25441,0.825046 -0.77861,1.009965 -1.02527,1.009965 -0.30067,0 -0.42398,-0.246652 -0.42398,-0.508876 0,-0.169625 0.0462,-0.338972 0.13105,-0.678222 l 0.26208,-1.056125" />
    <path
       inkscape:connector-curvature="0"
       id="path4823"
       style="fill:#000000;fill-opacity:1;fill-rule:nonzero;stroke:none;stroke-width:0.00278074"
       d="m 72.128587,132.79571 c 0.0694,-0.27752 0.0848,-0.35455 0.64758,-0.35455 0.20044,0 0.26209,0 0.26209,-0.15405 0,-0.0848 -0.0848,-0.0848 -0.10792,-0.0848 -0.21587,0 -0.77088,0.0231 -0.98675,0.0231 -0.22354,0 -0.77088,-0.0231 -0.99442,-0.0231 -0.0617,0 -0.14646,0 -0.14646,0.15405 0,0.0848 0.0694,0.0848 0.21581,0.0848 0.0154,0 0.1619,0 0.29293,0.0153 0.13878,0.0156 0.20816,0.0234 0.20816,0.12347 0,0.0309 -0.008,0.0462 -0.0308,0.14654 l -0.46252,1.8809 h -2.3512 l 0.45483,-1.81166 c 0.0694,-0.27751 0.0925,-0.35454 0.64751,-0.35454 0.20044,0 0.26215,0 0.26215,-0.15405 0,-0.0848 -0.0848,-0.0848 -0.10793,-0.0848 -0.21586,0 -0.77088,0.0231 -0.98674,0.0231 -0.22354,0 -0.77087,-0.0231 -0.99446,-0.0231 -0.0617,0 -0.14647,0 -0.14647,0.15405 0,0.0848 0.0694,0.0848 0.21586,0.0848 0.0154,0 0.16189,0 0.29293,0.0153 0.13878,0.0156 0.20817,0.0234 0.20817,0.12347 0,0.0309 -0.008,0.054 -0.0308,0.14654 l -1.033,4.13969 c -0.0771,0.3006 -0.0925,0.36233 -0.70149,0.36233 -0.13878,0 -0.20816,0 -0.20816,0.15405 0,0.0848 0.0925,0.0848 0.10792,0.0848 0.21586,0 0.76319,-0.0231 0.97904,-0.0231 0.16189,0 0.33147,0.008 0.49337,0.008 0.16958,0 0.3392,0.0153 0.50109,0.0153 0.0617,0 0.15416,0 0.15416,-0.15405 0,-0.0848 -0.0694,-0.0848 -0.21585,-0.0848 -0.28525,0 -0.50106,0 -0.50106,-0.13876 0,-0.0464 0.0154,-0.0848 0.0231,-0.13125 l 0.52421,-2.11225 h 2.35115 c -0.32374,1.27969 -0.50104,2.01214 -0.5319,2.12782 -0.0771,0.24665 -0.22355,0.25444 -0.70147,0.25444 -0.11562,0 -0.185,0 -0.185,0.15405 0,0.0848 0.0925,0.0848 0.10792,0.0848 0.21581,0 0.76314,-0.0231 0.97898,-0.0231 0.1619,0 0.33147,0.008 0.49336,0.008 0.16963,0 0.33923,0.0153 0.50112,0.0153 0.0617,0 0.15414,0 0.15414,-0.15405 0,-0.0848 -0.0694,-0.0848 -0.21584,-0.0848 -0.2852,0 -0.50107,0 -0.50107,-0.13876 0,-0.0464 0.0154,-0.0848 0.0231,-0.13125 l 1.04069,-4.16277" />
    <g
       id="g4961"
       transform="translate(-43.313109,18.691772)">
      <path
         d="m 194.23661,57.191667 c 0,-0.0078 0,-0.08481 -0.10019,-0.08481 -0.17732,0 -0.74007,0.06146 -0.9405,0.07703 -0.0617,0.0078 -0.14647,0.01529 -0.14647,0.154053 0,0.0926 0.0694,0.0926 0.18501,0.0926 0.37005,0 0.38543,0.05395 0.38543,0.130973 l -0.0231,0.154331 -1.11777,4.440286 c -0.0308,0.107893 -0.0308,0.123187 -0.0308,0.169625 0,0.177133 0.1542,0.215785 0.22354,0.215785 0.10024,0 0.21586,-0.06952 0.26213,-0.161839 0.0385,-0.06952 0.38544,-1.495482 0.43167,-1.688187 0.26213,0.02308 0.89423,0.146267 0.89423,0.655142 0,0.05395 0,0.08481 -0.0231,0.16184 -0.0154,0.0926 -0.0308,0.184919 -0.0308,0.269731 0,0.454929 0.30832,0.763313 0.70918,0.763313 0.23128,0 0.43939,-0.123464 0.60901,-0.40849 0.19271,-0.339251 0.27752,-0.763313 0.27752,-0.778607 0,-0.07731 -0.0694,-0.07731 -0.0925,-0.07731 -0.0771,0 -0.0848,0.03087 -0.10794,0.138759 -0.15414,0.562822 -0.33147,0.956018 -0.67068,0.956018 -0.14646,0 -0.24666,-0.08481 -0.24666,-0.36233 0,-0.130973 0.0308,-0.308384 0.0617,-0.431571 0.0309,-0.131251 0.0309,-0.162117 0.0309,-0.239144 0,-0.501089 -0.48568,-0.72466 -1.14093,-0.809473 0.23897,-0.138759 0.48567,-0.385411 0.66299,-0.57033 0.37001,-0.40849 0.72459,-0.739955 1.10233,-0.739955 0.0463,0 0.054,0 0.0694,0.0075 0.0925,0.01557 0.10019,0.01557 0.16189,0.06173 0.0154,0.0078 0.0154,0.01557 0.0308,0.03087 -0.37001,0.02308 -0.43939,0.323678 -0.43939,0.416277 0,0.123465 0.0848,0.269732 0.29292,0.269732 0.20044,0 0.42404,-0.169626 0.42404,-0.470224 0,-0.231079 -0.17733,-0.485517 -0.52423,-0.485517 -0.21584,0 -0.57043,0.06173 -1.1255,0.678223 -0.26208,0.29309 -0.56275,0.601474 -0.85568,0.717153 l 0.80172,-3.253188"
         style="fill:#000000;fill-opacity:1;fill-rule:nonzero;stroke:none;stroke-width:0.00278074"
         id="path4827"
         inkscape:connector-curvature="0" />
      <path
         d="m 197.36003,61.484295 h 0.54981 c 0.10242,0 0.17249,0 0.17249,-0.118459 0,-0.07564 -0.0701,-0.07564 -0.16173,-0.07564 h -0.51207 l 0.19943,-0.797794 c 0.005,-0.02669 0.0162,-0.05367 0.0162,-0.07536 0,-0.09705 -0.0755,-0.172406 -0.18325,-0.172406 -0.13479,0 -0.21565,0.09149 -0.25336,0.231636 -0.0378,0.134866 0.0323,-0.124021 -0.20483,0.813922 h -0.54983 c -0.10242,0 -0.17246,0 -0.17246,0.118738 0,0.07536 0.0647,0.07536 0.16167,0.07536 h 0.5121 l -0.31806,1.272189 c -0.0323,0.134587 -0.0808,0.328683 -0.0808,0.398758 0,0.318116 0.26951,0.512212 0.57675,0.512212 0.59834,0 0.93789,-0.754693 0.93789,-0.824767 0,-0.07007 -0.07,-0.07007 -0.0863,-0.07007 -0.0647,0 -0.07,0.01084 -0.11317,0.102331 -0.15094,0.339807 -0.42584,0.641517 -0.7223,0.641517 -0.11318,0 -0.18864,-0.07008 -0.18864,-0.26417 0,-0.05395 0.0215,-0.167123 0.0323,-0.220791 L 197.36,61.484297"
         style="fill:#000000;fill-opacity:1;fill-rule:nonzero;stroke:none;stroke-width:0.00278074"
         id="path4829"
         inkscape:connector-curvature="0" />
    </g>
    <g
       id="g4966"
       transform="translate(-132.56569,30.602361)">
      <path
         d="m 194.23661,69.515906 c 0,-0.0078 0,-0.08481 -0.10019,-0.08481 -0.17732,0 -0.74007,0.06145 -0.9405,0.07703 -0.0617,0.0078 -0.14647,0.01529 -0.14647,0.154053 0,0.0926 0.0694,0.0926 0.18501,0.0926 0.37005,0 0.38543,0.05395 0.38543,0.130973 l -0.0231,0.154331 -1.11777,4.440286 c -0.0308,0.107892 -0.0308,0.123186 -0.0308,0.169625 0,0.177133 0.1542,0.215785 0.22354,0.215785 0.10024,0 0.21586,-0.06952 0.26213,-0.161839 0.0385,-0.06952 0.38544,-1.495482 0.43167,-1.688187 0.26213,0.02308 0.89423,0.146267 0.89423,0.655142 0,0.05395 0,0.08481 -0.0231,0.161839 -0.0154,0.0926 -0.0308,0.184919 -0.0308,0.269732 0,0.454929 0.30832,0.763313 0.70918,0.763313 0.23128,0 0.43939,-0.123465 0.60901,-0.408491 0.19271,-0.33925 0.27752,-0.763313 0.27752,-0.778607 0,-0.0773 -0.0694,-0.0773 -0.0925,-0.0773 -0.0771,0 -0.0848,0.03087 -0.10794,0.138759 -0.15414,0.562821 -0.33147,0.956018 -0.67068,0.956018 -0.14646,0 -0.24666,-0.08481 -0.24666,-0.36233 0,-0.130973 0.0308,-0.308384 0.0617,-0.431571 0.0309,-0.131251 0.0309,-0.162117 0.0309,-0.239144 0,-0.501089 -0.48568,-0.724661 -1.14093,-0.809473 0.23897,-0.138759 0.48567,-0.385411 0.66299,-0.57033 0.37001,-0.408491 0.72459,-0.739955 1.10233,-0.739955 0.0463,0 0.054,0 0.0694,0.0075 0.0925,0.01557 0.10019,0.01557 0.16189,0.06173 0.0154,0.0078 0.0154,0.01557 0.0308,0.03087 -0.37001,0.02308 -0.43939,0.323678 -0.43939,0.416276 0,0.123465 0.0848,0.269732 0.29292,0.269732 0.20044,0 0.42404,-0.169625 0.42404,-0.470223 0,-0.231079 -0.17733,-0.485517 -0.52423,-0.485517 -0.21584,0 -0.57043,0.06173 -1.1255,0.678222 -0.26208,0.29309 -0.56275,0.601474 -0.85568,0.717153 l 0.80172,-3.253188"
         style="fill:#000000;fill-opacity:1;fill-rule:nonzero;stroke:none;stroke-width:0.00278074"
         id="path4831"
         inkscape:connector-curvature="0" />
      <path
         d="m 197.83977,72.50687 c 0,-0.14571 -0.0108,-0.150994 -0.16173,-0.150994 -0.34498,0.339529 -0.83547,0.344812 -1.05646,0.344812 v 0.194096 c 0.12933,0 0.4851,0 0.78155,-0.150716 v 2.748761 c 0,0.177967 0,0.248042 -0.53901,0.248042 h -0.20483 v 0.194096 c 0.097,-0.0053 0.76,-0.02169 0.95949,-0.02169 0.16704,0 0.84624,0.01641 0.96483,0.02169 v -0.194096 h -0.20482 c -0.53902,0 -0.53902,-0.07008 -0.53902,-0.248042 V 72.50687"
         style="fill:#000000;fill-opacity:1;fill-rule:nonzero;stroke:none;stroke-width:0.00278074"
         id="path4833"
         inkscape:connector-curvature="0" />
      <path
         d="m 200.44613,75.363525 c -0.0539,0.18325 -0.23181,0.474394 -0.50671,0.474394 -0.0162,0 -0.17788,0 -0.29106,-0.07536 0.22099,-0.07008 0.2372,-0.26417 0.2372,-0.296427 0,-0.118738 -0.0916,-0.199657 -0.21565,-0.199657 -0.15088,0 -0.30722,0.129582 -0.30722,0.328961 0,0.269454 0.30183,0.393475 0.56597,0.393475 0.24796,0 0.46894,-0.156278 0.60373,-0.382908 0.12933,0.28586 0.42584,0.382908 0.64143,0.382908 0.61988,0 0.94868,-0.673773 0.94868,-0.824767 0,-0.07008 -0.0701,-0.07008 -0.0863,-0.07008 -0.0754,0 -0.0808,0.02697 -0.10242,0.09176 -0.11317,0.371785 -0.4366,0.652084 -0.73845,0.652084 -0.21559,0 -0.32877,-0.145433 -0.32877,-0.350373 0,-0.14015 0.12933,-0.630672 0.28027,-1.229087 0.10781,-0.414887 0.35035,-0.549753 0.52823,-0.549753 0.0108,0 0.17786,0 0.29109,0.07564 -0.17249,0.04839 -0.23717,0.199379 -0.23717,0.296427 0,0.11846 0.0916,0.199379 0.21559,0.199379 0.12399,0 0.30188,-0.102331 0.30188,-0.328683 0,-0.301989 -0.34498,-0.393475 -0.56057,-0.393475 -0.26954,0 -0.48516,0.177689 -0.60373,0.38263 -0.097,-0.221069 -0.345,-0.38263 -0.64683,-0.38263 -0.60372,0 -0.9487,0.662929 -0.9487,0.82449 0,0.07007 0.0755,0.07007 0.0916,0.07007 0.0701,0 0.0755,-0.02141 0.10241,-0.09149 0.13478,-0.420448 0.47437,-0.652362 0.73848,-0.652362 0.17789,0 0.3234,0.09705 0.3234,0.355935 0,0.107615 -0.0647,0.377068 -0.11317,0.560597 l -0.18328,0.738287"
         style="fill:#000000;fill-opacity:1;fill-rule:nonzero;stroke:none;stroke-width:0.00278074"
         id="path4835"
         inkscape:connector-curvature="0" />
    </g>
    <g
       id="g4971"
       transform="translate(-58.115135,-14.214279)">
      <path
         d="m 194.23661,81.837365 c 0,-0.0078 0,-0.08481 -0.10019,-0.08481 -0.17732,0 -0.74007,0.06145 -0.9405,0.07703 -0.0617,0.0078 -0.14647,0.01529 -0.14647,0.154053 0,0.0926 0.0694,0.0926 0.18501,0.0926 0.37005,0 0.38543,0.05395 0.38543,0.130973 l -0.0231,0.154331 -1.11777,4.440286 c -0.0308,0.107892 -0.0308,0.123186 -0.0308,0.169625 0,0.177133 0.1542,0.215785 0.22354,0.215785 0.10024,0 0.21586,-0.06952 0.26213,-0.161839 0.0385,-0.06952 0.38544,-1.495482 0.43167,-1.688187 0.26213,0.02308 0.89423,0.146267 0.89423,0.655142 0,0.05395 0,0.08481 -0.0231,0.161839 -0.0154,0.0926 -0.0308,0.184919 -0.0308,0.269732 0,0.454929 0.30832,0.763313 0.70918,0.763313 0.23128,0 0.43939,-0.123465 0.60901,-0.408491 0.19271,-0.33925 0.27752,-0.763313 0.27752,-0.778607 0,-0.0773 -0.0694,-0.0773 -0.0925,-0.0773 -0.0771,0 -0.0848,0.03087 -0.10794,0.138759 -0.15414,0.562821 -0.33147,0.956018 -0.67068,0.956018 -0.14646,0 -0.24666,-0.08481 -0.24666,-0.36233 0,-0.130973 0.0308,-0.308385 0.0617,-0.431571 0.0309,-0.131251 0.0309,-0.162117 0.0309,-0.239144 0,-0.501089 -0.48568,-0.724661 -1.14093,-0.809473 0.23897,-0.138759 0.48567,-0.385411 0.66299,-0.57033 0.37001,-0.408491 0.72459,-0.739955 1.10233,-0.739955 0.0463,0 0.054,0 0.0694,0.0075 0.0925,0.01557 0.10019,0.01557 0.16189,0.06173 0.0154,0.0078 0.0154,0.01557 0.0308,0.03087 -0.37001,0.02308 -0.43939,0.323678 -0.43939,0.416276 0,0.123465 0.0848,0.269732 0.29292,0.269732 0.20044,0 0.42404,-0.169625 0.42404,-0.470223 0,-0.231079 -0.17733,-0.485517 -0.52423,-0.485517 -0.21584,0 -0.57043,0.06173 -1.1255,0.678222 -0.26208,0.29309 -0.56275,0.601474 -0.85568,0.717153 l 0.80172,-3.253188"
         style="fill:#000000;fill-opacity:1;fill-rule:nonzero;stroke:none;stroke-width:0.00278074"
         id="path4837"
         inkscape:connector-curvature="0" />
      <path
         d="m 198.7561,87.275381 h -0.18327 c -0.0162,0.118459 -0.0701,0.436576 -0.14013,0.490522 -0.0431,0.03226 -0.45821,0.03226 -0.53365,0.03226 h -0.9918 c 0.56596,-0.50109 0.75463,-0.652084 1.07806,-0.905409 0.39887,-0.318117 0.77079,-0.652362 0.77079,-1.164296 0,-0.652362 -0.57135,-1.05112 -1.26134,-1.05112 -0.66838,0 -1.12114,0.468833 -1.12114,0.964917 0,0.274737 0.23175,0.30171 0.28567,0.30171 0.12936,0 0.28566,-0.09149 0.28566,-0.285582 0,-0.09705 -0.0377,-0.28586 -0.318,-0.28586 0.16706,-0.38263 0.53362,-0.501089 0.78695,-0.501089 0.53904,0 0.81934,0.420448 0.81934,0.857024 0,0.468833 -0.33419,0.840896 -0.50668,1.034713 l -1.29908,1.283034 c -0.0539,0.04839 -0.0539,0.05923 -0.0539,0.210224 h 2.22076 l 0.16172,-0.981045"
         style="fill:#000000;fill-opacity:1;fill-rule:nonzero;stroke:none;stroke-width:0.00278074"
         id="path4839"
         inkscape:connector-curvature="0" />
      <path
         d="m 200.44613,87.684984 c -0.0539,0.18325 -0.23181,0.474394 -0.50671,0.474394 -0.0162,0 -0.17788,0 -0.29106,-0.07536 0.22099,-0.07007 0.2372,-0.264171 0.2372,-0.296427 0,-0.118738 -0.0916,-0.199657 -0.21565,-0.199657 -0.15088,0 -0.30722,0.129582 -0.30722,0.328961 0,0.269454 0.30183,0.393475 0.56597,0.393475 0.24796,0 0.46894,-0.156278 0.60373,-0.382908 0.12933,0.28586 0.42584,0.382908 0.64143,0.382908 0.61988,0 0.94868,-0.673773 0.94868,-0.824768 0,-0.07007 -0.0701,-0.07007 -0.0863,-0.07007 -0.0754,0 -0.0808,0.02697 -0.10242,0.09176 -0.11317,0.371785 -0.4366,0.652084 -0.73845,0.652084 -0.21559,0 -0.32877,-0.145433 -0.32877,-0.350373 0,-0.14015 0.12933,-0.630672 0.28027,-1.229088 0.10781,-0.414886 0.35035,-0.549752 0.52823,-0.549752 0.0108,0 0.17786,0 0.29109,0.07564 -0.17249,0.04838 -0.23717,0.199379 -0.23717,0.296427 0,0.11846 0.0916,0.199379 0.21559,0.199379 0.12399,0 0.30188,-0.102331 0.30188,-0.328683 0,-0.301989 -0.34498,-0.393475 -0.56057,-0.393475 -0.26954,0 -0.48516,0.177689 -0.60373,0.38263 -0.097,-0.221069 -0.345,-0.38263 -0.64683,-0.38263 -0.60372,0 -0.9487,0.662928 -0.9487,0.824489 0,0.07008 0.0755,0.07008 0.0916,0.07008 0.0701,0 0.0755,-0.02141 0.10241,-0.09149 0.13478,-0.420448 0.47437,-0.652362 0.73848,-0.652362 0.17789,0 0.3234,0.09705 0.3234,0.355935 0,0.107615 -0.0647,0.377068 -0.11317,0.560597 l -0.18328,0.738287"
         style="fill:#000000;fill-opacity:1;fill-rule:nonzero;stroke:none;stroke-width:0.00278074"
         id="path4841"
         inkscape:connector-curvature="0" />
    </g>
    <g
       id="g10751"
       transform="translate(-114.3378,-3.4017857)">
      <path
         d="m 159.6844,130.58898 c 0.0154,-0.0387 0.0385,-0.0926 0.0385,-0.1079 0,-0.008 0,-0.0848 -0.0925,-0.0848 -0.0694,0 -0.0848,0.0462 -0.10019,0.0923 -0.50112,1.14094 -0.78634,1.6576 -2.10455,1.6576 h -1.12546 c -0.10793,0 -0.12336,0 -0.16963,-0.008 -0.0771,-0.008 -0.10019,-0.0156 -0.10019,-0.077 0,-0.0234 0,-0.0387 0.0385,-0.17741 l 0.52421,-2.10447 h 0.76315 c 0.65525,0 0.65525,0.16184 0.65525,0.35455 0,0.0539 0,0.14654 -0.054,0.37762 -0.0154,0.0387 -0.0231,0.0617 -0.0231,0.0848 0,0.0387 0.0308,0.0848 0.10022,0.0848 0.0617,0 0.0848,-0.0384 0.11562,-0.15406 l 0.43942,-1.80386 c 0,-0.0462 -0.0385,-0.0848 -0.0925,-0.0848 -0.0694,0 -0.0848,0.0462 -0.10792,0.13875 -0.16189,0.58591 -0.30063,0.76304 -1.00985,0.76304 h -0.72464 l 0.46252,-1.85781 c 0.0694,-0.26974 0.0771,-0.3006 0.41628,-0.3006 h 1.08696 c 0.94048,0 1.17175,0.22357 1.17175,0.85563 0,0.1852 0,0.20049 -0.0309,0.40877 0,0.0462 -0.008,0.10011 -0.008,0.13876 0,0.0384 0.0231,0.0923 0.0925,0.0923 0.0848,0 0.0925,-0.0462 0.10795,-0.1927 l 0.15413,-1.33365 c 0.0232,-0.208 -0.0154,-0.208 -0.20811,-0.208 h -3.89295 c -0.1542,0 -0.23128,0 -0.23128,0.15406 0,0.0848 0.0694,0.0848 0.21586,0.0848 0.2852,0 0.50105,0 0.50105,0.13876 0,0.0309 0,0.0464 -0.0385,0.18519 l -1.01757,4.07796 c -0.0771,0.3006 -0.0925,0.36233 -0.70149,0.36233 -0.13104,0 -0.21585,0 -0.21585,0.14627 0,0.0926 0.0694,0.0926 0.21585,0.0926 h 4.00088 c 0.17733,0 0.185,-0.008 0.23897,-0.13098 l 0.7092,-1.6651"
         style="fill:#000000;fill-opacity:1;fill-rule:nonzero;stroke:none;stroke-width:0.00278074"
         id="path4855"
         inkscape:connector-curvature="0" />
      <path
         d="m 161.71893,130.11097 c 0,-0.14571 -0.0108,-0.151 -0.16172,-0.151 -0.34498,0.33953 -0.83548,0.34481 -1.05646,0.34481 v 0.1941 c 0.12933,0 0.4851,0 0.78155,-0.15072 v 2.74877 c 0,0.17796 0,0.24804 -0.53902,0.24804 h -0.20483 v 0.19409 c 0.097,-0.005 0.76001,-0.0217 0.9595,-0.0217 0.16704,0 0.84623,0.0164 0.96483,0.0217 v -0.19409 h -0.20483 c -0.53902,0 -0.53902,-0.0701 -0.53902,-0.24804 v -2.98596"
         style="fill:#000000;fill-opacity:1;fill-rule:nonzero;stroke:none;stroke-width:0.00278074"
         id="path4857"
         inkscape:connector-curvature="0" />
    </g>
    <g
       id="g10755"
       transform="translate(-62.510093,-94.786096)">
      <path
         d="m 177.63827,143.28835 c 0.0154,-0.0386 0.0385,-0.0925 0.0385,-0.10792 0,-0.008 0,-0.0848 -0.0925,-0.0848 -0.0694,0 -0.0848,0.0463 -0.10019,0.0925 -0.50112,1.14094 -0.78634,1.65741 -2.10455,1.65741 h -1.12546 c -0.10793,0 -0.12336,0 -0.16963,-0.008 -0.0771,-0.008 -0.10019,-0.0154 -0.10019,-0.0771 0,-0.0231 0,-0.0386 0.0385,-0.17728 l 0.52421,-2.10449 h 0.76315 c 0.65525,0 0.65525,0.16184 0.65525,0.35455 0,0.0539 0,0.14654 -0.054,0.37773 -0.0154,0.0385 -0.0231,0.0617 -0.0231,0.0848 0,0.0386 0.0308,0.0848 0.10022,0.0848 0.0617,0 0.0848,-0.0385 0.11562,-0.1542 l 0.43942,-1.80383 c 0,-0.0462 -0.0385,-0.0848 -0.0925,-0.0848 -0.0694,0 -0.0848,0.0462 -0.10792,0.13876 -0.16189,0.5859 -0.30063,0.76304 -1.00985,0.76304 h -0.72464 l 0.46252,-1.85781 c 0.0694,-0.26974 0.0771,-0.3006 0.41628,-0.3006 h 1.08696 c 0.94048,0 1.17175,0.22357 1.17175,0.85563 0,0.1852 0,0.20049 -0.0309,0.40877 0,0.0462 -0.008,0.10011 -0.008,0.13876 0,0.0384 0.0231,0.0923 0.0925,0.0923 0.0848,0 0.0925,-0.0462 0.10795,-0.19271 l 0.15413,-1.33364 c 0.0232,-0.208 -0.0154,-0.208 -0.20811,-0.208 h -3.89295 c -0.1542,0 -0.23128,0 -0.23128,0.15406 0,0.0848 0.0694,0.0848 0.21586,0.0848 0.2852,0 0.50105,0 0.50105,0.13876 0,0.0309 0,0.0464 -0.0385,0.18519 l -1.01757,4.07788 c -0.0771,0.30065 -0.0925,0.3623 -0.70149,0.3623 -0.13104,0 -0.21585,0 -0.21585,0.14646 0,0.0925 0.0694,0.0925 0.21585,0.0925 h 4.00088 c 0.17733,0 0.185,-0.008 0.23897,-0.13106 l 0.7092,-1.66508"
         style="fill:#000000;fill-opacity:1;fill-rule:nonzero;stroke:none;stroke-width:0.00278074"
         id="path4861"
         inkscape:connector-curvature="0" />
      <path
         d="m 180.58914,145.26023 h -0.18328 c -0.0161,0.11857 -0.0701,0.43663 -0.14012,0.49055 -0.0432,0.0323 -0.45821,0.0323 -0.53365,0.0323 h -0.99181 c 0.56597,-0.50131 0.75464,-0.65219 1.07807,-0.90555 0.39887,-0.31806 0.77079,-0.65222 0.77079,-1.16432 0,-0.65228 -0.57136,-1.05104 -1.26134,-1.05104 -0.66838,0 -1.12114,0.46892 -1.12114,0.96481 0,0.2749 0.23174,0.30185 0.28566,0.30185 0.12936,0 0.28567,-0.0917 0.28567,-0.2857 0,-0.097 -0.0377,-0.28566 -0.31801,-0.28566 0.16707,-0.38274 0.53363,-0.5012 0.78695,-0.5012 0.53905,0 0.81935,0.42033 0.81935,0.85694 0,0.46897 -0.33419,0.84089 -0.50668,1.03493 l -1.29908,1.28293 c -0.0539,0.0485 -0.0539,0.0593 -0.0539,0.21019 h 2.22075 l 0.16173,-0.98104"
         style="fill:#000000;fill-opacity:1;fill-rule:nonzero;stroke:none;stroke-width:0.00278074"
         id="path4863"
         inkscape:connector-curvature="0" />
    </g>
    <g
       id="g4995"
       transform="translate(-20.410715,-44.790178)">
      <path
         d="m 193.11115,146.96536 c 0.25435,0.10794 0.47794,0.10794 0.66294,0.10794 0.20043,0 0.62441,0 0.62441,-0.23897 0,-0.18501 -0.26982,-0.20814 -0.56275,-0.20814 -0.16189,0 -0.43167,0.0154 -0.71691,0.14649 -0.17732,-0.0925 -0.30836,-0.23903 -0.30836,-0.44715 0,-0.47025 0.75545,-0.74776 1.44925,-0.74776 0.12335,0 0.40086,0 0.70921,0.21586 0.0848,0.0616 0.10024,0.0771 0.15421,0.0771 0.10019,0 0.20811,-0.10019 0.20811,-0.20814 0,-0.14646 -0.47024,-0.43939 -0.99441,-0.43939 -0.88654,0 -1.71907,0.51647 -1.71907,1.10234 0,0.33147 0.27751,0.5242 0.30832,0.54734 -0.45483,0.25438 -0.70149,0.68609 -0.70149,1.04069 0,0.50109 0.4394,0.97128 1.25655,0.97128 1.01758,0 1.44924,-0.67836 1.44924,-0.79398 0,-0.0463 -0.0385,-0.0771 -0.0848,-0.0771 -0.0386,0 -0.0617,0.0308 -0.0771,0.054 -0.10792,0.17727 -0.29293,0.46252 -1.21796,0.46252 -0.47025,0 -1.12551,-0.11562 -1.12551,-0.66295 0,-0.26212 0.21586,-0.67069 0.68611,-0.90196 z m 0.25435,-0.1002 c 0.17731,-0.0617 0.33921,-0.0694 0.47025,-0.0694 0.19274,0 0.22354,0.008 0.36232,0.0462 -0.11562,0.054 -0.13104,0.0617 -0.42398,0.0617 -0.16958,0 -0.26208,0 -0.40859,-0.0385"
         style="fill:#000000;fill-opacity:1;fill-rule:nonzero;stroke:none;stroke-width:0.00278074"
         id="path4867"
         inkscape:connector-curvature="0" />
      <path
         d="m 197.42266,146.44107 c 0,-0.14557 -0.0108,-0.15096 -0.16173,-0.15096 -0.34498,0.33961 -0.83548,0.345 -1.05646,0.345 v 0.19404 c 0.12933,0 0.4851,0 0.78155,-0.15091 v 2.74904 c 0,0.17789 0,0.24796 -0.53901,0.24796 h -0.20483 v 0.19404 c 0.097,-0.005 0.76,-0.0215 0.95949,-0.0215 0.16704,0 0.84624,0.0162 0.96483,0.0215 v -0.19404 h -0.20483 c -0.53901,0 -0.53901,-0.0701 -0.53901,-0.24796 v -2.98621"
         style="fill:#000000;fill-opacity:1;fill-rule:nonzero;stroke:none;stroke-width:0.00278074"
         id="path4869"
         inkscape:connector-curvature="0" />
    </g>
    <g
       id="g4999"
       transform="translate(-20.410714,-67.279762)">
      <path
         d="m 193.11115,159.28681 c 0.25435,0.10795 0.47794,0.10795 0.66294,0.10795 0.20043,0 0.62441,0 0.62441,-0.23897 0,-0.18501 -0.26982,-0.20814 -0.56275,-0.20814 -0.16189,0 -0.43167,0.0154 -0.71691,0.14649 -0.17732,-0.0925 -0.30836,-0.23904 -0.30836,-0.44715 0,-0.47025 0.75545,-0.74777 1.44925,-0.74777 0.12335,0 0.40086,0 0.70921,0.21587 0.0848,0.0616 0.10024,0.0771 0.15421,0.0771 0.10019,0 0.20811,-0.10019 0.20811,-0.20814 0,-0.14646 -0.47024,-0.43939 -0.99441,-0.43939 -0.88654,0 -1.71907,0.51647 -1.71907,1.10234 0,0.33147 0.27751,0.5242 0.30832,0.54734 -0.45483,0.25438 -0.70149,0.68609 -0.70149,1.04068 0,0.5011 0.4394,0.9713 1.25655,0.9713 1.01758,0 1.44924,-0.67837 1.44924,-0.79398 0,-0.0463 -0.0385,-0.0771 -0.0848,-0.0771 -0.0386,0 -0.0617,0.0308 -0.0771,0.054 -0.10792,0.17728 -0.29293,0.46252 -1.21796,0.46252 -0.47025,0 -1.12551,-0.11562 -1.12551,-0.66295 0,-0.26213 0.21586,-0.67068 0.68611,-0.90197 z m 0.25435,-0.10019 c 0.17731,-0.0617 0.33921,-0.0694 0.47025,-0.0694 0.19274,0 0.22354,0.008 0.36232,0.0462 -0.11562,0.054 -0.13104,0.0617 -0.42398,0.0617 -0.16958,0 -0.26208,0 -0.40859,-0.0385"
         style="fill:#000000;fill-opacity:1;fill-rule:nonzero;stroke:none;stroke-width:0.00278074"
         id="path4871"
         inkscape:connector-curvature="0" />
      <path
         d="m 198.33899,161.21248 h -0.18328 c -0.0162,0.11858 -0.0701,0.43663 -0.14012,0.49054 -0.0431,0.0323 -0.45821,0.0323 -0.53365,0.0323 h -0.99181 c 0.56597,-0.50131 0.75464,-0.65221 1.07807,-0.90556 0.39887,-0.31805 0.77079,-0.65222 0.77079,-1.16431 0,-0.65221 -0.57136,-1.05113 -1.26134,-1.05113 -0.66838,0 -1.12114,0.469 -1.12114,0.96488 0,0.27491 0.23175,0.30184 0.28567,0.30184 0.12936,0 0.28566,-0.0916 0.28566,-0.28567 0,-0.097 -0.0377,-0.28567 -0.318,-0.28567 0.16706,-0.38272 0.53362,-0.50129 0.78695,-0.50129 0.53904,0 0.81934,0.42042 0.81934,0.85704 0,0.46895 -0.33419,0.84087 -0.50668,1.03491 l -1.29908,1.28292 c -0.0539,0.0485 -0.0539,0.0593 -0.0539,0.21021 h 2.22076 l 0.16172,-0.98104"
         style="fill:#000000;fill-opacity:1;fill-rule:nonzero;stroke:none;stroke-width:0.00278074"
         id="path4873"
         inkscape:connector-curvature="0" />
    </g>
    <path
       inkscape:connector-curvature="0"
       id="path6937"
       d="M 134.40625,79.418019 122.71915,46.93823"
       style="fill:none;stroke:#000000;stroke-width:0.35277778;stroke-linecap:butt;stroke-linejoin:miter;stroke-miterlimit:4;stroke-dasharray:none;stroke-opacity:1;marker-end:url(#marker5069)" />
    <g
       id="g9269">
      <circle
         r="1.2250478"
         cy="133.3199"
         cx="65.1856"
         id="path9221"
         style="opacity:1;fill:#fffffe;fill-opacity:1;stroke:#000000;stroke-width:0.35277778;stroke-miterlimit:4;stroke-dasharray:none;stroke-dashoffset:0;stroke-opacity:1" />
      <circle
         r="0.41564125"
         cy="133.3199"
         cx="65.1856"
         id="path9223"
         style="opacity:1;fill:#000000;fill-opacity:1;stroke:#000000;stroke-width:0.35277778;stroke-miterlimit:4;stroke-dasharray:none;stroke-dashoffset:0;stroke-opacity:1" />
    </g>
    <g
       id="g9245">
      <circle
         style="opacity:1;fill:#ffffff;fill-opacity:1;stroke:#000000;stroke-width:0.35277778;stroke-miterlimit:4;stroke-dasharray:none;stroke-dashoffset:0;stroke-opacity:1"
         id="circle9229"
         cx="134.66542"
         cy="79.739319"
         r="1.2250478" />
      <circle
         style="opacity:1;fill:#090000;fill-opacity:1;stroke:#000000;stroke-width:0.35277778;stroke-miterlimit:4;stroke-dasharray:none;stroke-dashoffset:0;stroke-opacity:1"
         id="circle9231"
         cx="134.66542"
         cy="79.739319"
         r="0.41564125" />
    </g>
    <path
       d="m 130.41978,75.146067 c 0.0694,-0.27752 0.0848,-0.35455 0.64758,-0.35455 0.20044,0 0.26209,0 0.26209,-0.15405 0,-0.0848 -0.0848,-0.0848 -0.10792,-0.0848 -0.21587,0 -0.77088,0.0231 -0.98675,0.0231 -0.22354,0 -0.77088,-0.0231 -0.99442,-0.0231 -0.0617,0 -0.14646,0 -0.14646,0.15405 0,0.0848 0.0694,0.0848 0.21581,0.0848 0.0154,0 0.1619,0 0.29293,0.0153 0.13878,0.0156 0.20816,0.0234 0.20816,0.12347 0,0.0309 -0.008,0.0462 -0.0308,0.14654 l -0.46252,1.8809 h -2.3512 l 0.45483,-1.81166 c 0.0694,-0.27751 0.0925,-0.35454 0.64751,-0.35454 0.20044,0 0.26215,0 0.26215,-0.15405 0,-0.0848 -0.0848,-0.0848 -0.10793,-0.0848 -0.21586,0 -0.77088,0.0231 -0.98674,0.0231 -0.22354,0 -0.77087,-0.0231 -0.99446,-0.0231 -0.0617,0 -0.14647,0 -0.14647,0.15405 0,0.0848 0.0694,0.0848 0.21586,0.0848 0.0154,0 0.16189,0 0.29293,0.0153 0.13878,0.0156 0.20817,0.0234 0.20817,0.12347 0,0.0309 -0.008,0.054 -0.0308,0.14654 l -1.033,4.13969 c -0.0771,0.3006 -0.0925,0.36233 -0.70149,0.36233 -0.13878,0 -0.20816,0 -0.20816,0.15405 0,0.0848 0.0925,0.0848 0.10792,0.0848 0.21586,0 0.76319,-0.0231 0.97904,-0.0231 0.16189,0 0.33147,0.008 0.49337,0.008 0.16958,0 0.3392,0.0153 0.50109,0.0153 0.0617,0 0.15416,0 0.15416,-0.15405 0,-0.0848 -0.0694,-0.0848 -0.21585,-0.0848 -0.28525,0 -0.50106,0 -0.50106,-0.13876 0,-0.0464 0.0154,-0.0848 0.0231,-0.13125 l 0.52421,-2.11225 h 2.35115 c -0.32374,1.27969 -0.50104,2.01214 -0.5319,2.12782 -0.0771,0.24665 -0.22355,0.25444 -0.70147,0.25444 -0.11562,0 -0.185,0 -0.185,0.15405 0,0.0848 0.0925,0.0848 0.10792,0.0848 0.21581,0 0.76314,-0.0231 0.97898,-0.0231 0.1619,0 0.33147,0.008 0.49336,0.008 0.16963,0 0.33923,0.0153 0.50112,0.0153 0.0617,0 0.15414,0 0.15414,-0.15405 0,-0.0848 -0.0694,-0.0848 -0.21584,-0.0848 -0.2852,0 -0.50107,0 -0.50107,-0.13876 0,-0.0464 0.0154,-0.0848 0.0231,-0.13125 l 1.04069,-4.16277"
       style="fill:#000000;fill-opacity:1;fill-rule:nonzero;stroke:none;stroke-width:0.00278074"
       id="path9289"
       inkscape:connector-curvature="0" />
    <path
       style="fill:none;stroke:#000000;stroke-width:0.26458332px;stroke-linecap:butt;stroke-linejoin:miter;stroke-opacity:1;marker-end:url(#marker9889)"
       d="m 71.768228,120.29613 h 9.080804"
       id="path9293"
       inkscape:connector-curvature="0" />
    <path
       style="fill:none;stroke:#000000;stroke-width:0.26458332px;stroke-linecap:butt;stroke-linejoin:miter;stroke-opacity:1;marker-end:url(#marker9837)"
       d="M 71.768228,120.29613 V 102.76748"
       id="path9295"
       inkscape:connector-curvature="0" />
    <path
       inkscape:connector-curvature="0"
       id="path9297"
       d="m 138.23482,78.468449 h 9.0808"
       style="fill:none;stroke:#000000;stroke-width:0.26458332px;stroke-linecap:butt;stroke-linejoin:miter;stroke-opacity:1;marker-end:url(#marker9785)" />
    <path
       style="fill:none;stroke:#000000;stroke-width:0.26458332px;stroke-linecap:butt;stroke-linejoin:miter;stroke-opacity:1;marker-end:url(#marker9685)"
       d="M 138.23482,78.468449 V 75.199702"
       id="path9299"
       inkscape:connector-curvature="0" />
    <g
       transform="translate(-108.92778,60.118548)"
       id="g9931">
      <path
         inkscape:connector-curvature="0"
         id="path9927"
         style="fill:#000000;fill-opacity:1;fill-rule:nonzero;stroke:none;stroke-width:0.00278074"
         d="m 194.23661,57.191667 c 0,-0.0078 0,-0.08481 -0.10019,-0.08481 -0.17732,0 -0.74007,0.06146 -0.9405,0.07703 -0.0617,0.0078 -0.14647,0.01529 -0.14647,0.154053 0,0.0926 0.0694,0.0926 0.18501,0.0926 0.37005,0 0.38543,0.05395 0.38543,0.130973 l -0.0231,0.154331 -1.11777,4.440286 c -0.0308,0.107893 -0.0308,0.123187 -0.0308,0.169625 0,0.177133 0.1542,0.215785 0.22354,0.215785 0.10024,0 0.21586,-0.06952 0.26213,-0.161839 0.0385,-0.06952 0.38544,-1.495482 0.43167,-1.688187 0.26213,0.02308 0.89423,0.146267 0.89423,0.655142 0,0.05395 0,0.08481 -0.0231,0.16184 -0.0154,0.0926 -0.0308,0.184919 -0.0308,0.269731 0,0.454929 0.30832,0.763313 0.70918,0.763313 0.23128,0 0.43939,-0.123464 0.60901,-0.40849 0.19271,-0.339251 0.27752,-0.763313 0.27752,-0.778607 0,-0.07731 -0.0694,-0.07731 -0.0925,-0.07731 -0.0771,0 -0.0848,0.03087 -0.10794,0.138759 -0.15414,0.562822 -0.33147,0.956018 -0.67068,0.956018 -0.14646,0 -0.24666,-0.08481 -0.24666,-0.36233 0,-0.130973 0.0308,-0.308384 0.0617,-0.431571 0.0309,-0.131251 0.0309,-0.162117 0.0309,-0.239144 0,-0.501089 -0.48568,-0.72466 -1.14093,-0.809473 0.23897,-0.138759 0.48567,-0.385411 0.66299,-0.57033 0.37001,-0.40849 0.72459,-0.739955 1.10233,-0.739955 0.0463,0 0.054,0 0.0694,0.0075 0.0925,0.01557 0.10019,0.01557 0.16189,0.06173 0.0154,0.0078 0.0154,0.01557 0.0308,0.03087 -0.37001,0.02308 -0.43939,0.323678 -0.43939,0.416277 0,0.123465 0.0848,0.269732 0.29292,0.269732 0.20044,0 0.42404,-0.169626 0.42404,-0.470224 0,-0.231079 -0.17733,-0.485517 -0.52423,-0.485517 -0.21584,0 -0.57043,0.06173 -1.1255,0.678223 -0.26208,0.29309 -0.56275,0.601474 -0.85568,0.717153 l 0.80172,-3.253188" />
      <path
         inkscape:connector-curvature="0"
         id="path9929"
         style="fill:#000000;fill-opacity:1;fill-rule:nonzero;stroke:none;stroke-width:0.00278074"
         d="m 197.36003,61.484295 h 0.54981 c 0.10242,0 0.17249,0 0.17249,-0.118459 0,-0.07564 -0.0701,-0.07564 -0.16173,-0.07564 h -0.51207 l 0.19943,-0.797794 c 0.005,-0.02669 0.0162,-0.05367 0.0162,-0.07536 0,-0.09705 -0.0755,-0.172406 -0.18325,-0.172406 -0.13479,0 -0.21565,0.09149 -0.25336,0.231636 -0.0378,0.134866 0.0323,-0.124021 -0.20483,0.813922 h -0.54983 c -0.10242,0 -0.17246,0 -0.17246,0.118738 0,0.07536 0.0647,0.07536 0.16167,0.07536 h 0.5121 l -0.31806,1.272189 c -0.0323,0.134587 -0.0808,0.328683 -0.0808,0.398758 0,0.318116 0.26951,0.512212 0.57675,0.512212 0.59834,0 0.93789,-0.754693 0.93789,-0.824767 0,-0.07007 -0.07,-0.07007 -0.0863,-0.07007 -0.0647,0 -0.07,0.01084 -0.11317,0.102331 -0.15094,0.339807 -0.42584,0.641517 -0.7223,0.641517 -0.11318,0 -0.18864,-0.07008 -0.18864,-0.26417 0,-0.05395 0.0215,-0.167123 0.0323,-0.220791 L 197.36,61.484297" />
    </g>
    <rect
       style="opacity:0.21000001;fill:url(#pattern6692);fill-opacity:1;stroke:none;stroke-width:1.42941213;stroke-miterlimit:4;stroke-dasharray:none;stroke-dashoffset:0;stroke-opacity:1"
       id="rect6684"
       width="133.94209"
       height="15.361732"
       x="36.080227"
       y="82.665314"
       rx="2.1019526e-014" />
  </g>
</svg>
