<?xml version="1.0" encoding="UTF-8" standalone="no"?>
<!-- Created with Inkscape (http://www.inkscape.org/) -->

<svg
   xmlns:dc="http://purl.org/dc/elements/1.1/"
   xmlns:cc="http://creativecommons.org/ns#"
   xmlns:rdf="http://www.w3.org/1999/02/22-rdf-syntax-ns#"
   xmlns:svg="http://www.w3.org/2000/svg"
   xmlns="http://www.w3.org/2000/svg"
   xmlns:sodipodi="http://sodipodi.sourceforge.net/DTD/sodipodi-0.dtd"
   xmlns:inkscape="http://www.inkscape.org/namespaces/inkscape"
   width="314.19482mm"
   height="136.20729mm"
   viewBox="0 0 1113.2888 482.62426"
   id="svg2"
   version="1.1"
   inkscape:version="0.91 r13725"
   sodipodi:docname="uniaxiNvec.svg">
  <defs
     id="defs4">
    <marker
       inkscape:isstock="true"
       style="overflow:visible"
       id="marker4869"
       refX="0"
       refY="0"
       orient="auto"
       inkscape:stockid="Arrow1Lend">
      <path
         inkscape:connector-curvature="0"
         transform="matrix(-0.8,0,0,-0.8,-10,0)"
         style="fill:#000000;fill-opacity:1;fill-rule:evenodd;stroke:#000000;stroke-width:1pt;stroke-opacity:1"
         d="M 0,0 5,-5 -12.5,0 5,5 0,0 Z"
         id="path4871" />
    </marker>
    <marker
       inkscape:stockid="Arrow1Lend"
       orient="auto"
       refY="0"
       refX="0"
       id="marker4799"
       style="overflow:visible"
       inkscape:isstock="true">
      <path
         id="path4801"
         d="M 0,0 5,-5 -12.5,0 5,5 0,0 Z"
         style="fill:#000000;fill-opacity:1;fill-rule:evenodd;stroke:#000000;stroke-width:1pt;stroke-opacity:1"
         transform="matrix(-0.8,0,0,-0.8,-10,0)"
         inkscape:connector-curvature="0" />
    </marker>
    <marker
       inkscape:isstock="true"
       style="overflow:visible"
       id="marker5182"
       refX="0"
       refY="0"
       orient="auto"
       inkscape:stockid="Arrow1Lend"
       inkscape:collect="always">
      <path
         inkscape:connector-curvature="0"
         transform="matrix(-0.8,0,0,-0.8,-10,0)"
         style="fill:#000000;fill-opacity:1;fill-rule:evenodd;stroke:#000000;stroke-width:1pt;stroke-opacity:1"
         d="M 0,0 5,-5 -12.5,0 5,5 0,0 Z"
         id="path5184" />
    </marker>
    <marker
       inkscape:stockid="Arrow1Lend"
       orient="auto"
       refY="0"
       refX="0"
       id="marker5124"
       style="overflow:visible"
       inkscape:isstock="true"
       inkscape:collect="always">
      <path
         id="path5126"
         d="M 0,0 5,-5 -12.5,0 5,5 0,0 Z"
         style="fill:#000000;fill-opacity:1;fill-rule:evenodd;stroke:#000000;stroke-width:1pt;stroke-opacity:1"
         transform="matrix(-0.8,0,0,-0.8,-10,0)"
         inkscape:connector-curvature="0" />
    </marker>
    <marker
       inkscape:isstock="true"
       style="overflow:visible"
       id="marker5068"
       refX="0"
       refY="0"
       orient="auto"
       inkscape:stockid="Arrow1Lend"
       inkscape:collect="always">
      <path
         inkscape:connector-curvature="0"
         transform="matrix(-0.8,0,0,-0.8,-10,0)"
         style="fill:#000000;fill-opacity:1;fill-rule:evenodd;stroke:#000000;stroke-width:1pt;stroke-opacity:1"
         d="M 0,0 5,-5 -12.5,0 5,5 0,0 Z"
         id="path5070" />
    </marker>
    <marker
       inkscape:stockid="Arrow1Lend"
       orient="auto"
       refY="0"
       refX="0"
       id="marker4269"
       style="overflow:visible"
       inkscape:isstock="true"
       inkscape:collect="always">
      <path
         id="path4271"
         d="M 0,0 5,-5 -12.5,0 5,5 0,0 Z"
         style="fill:#000000;fill-opacity:1;fill-rule:evenodd;stroke:#000000;stroke-width:1pt;stroke-opacity:1"
         transform="matrix(-0.8,0,0,-0.8,-10,0)"
         inkscape:connector-curvature="0" />
    </marker>
    <marker
       inkscape:isstock="true"
       style="overflow:visible"
       id="marker4553"
       refX="0"
       refY="0"
       orient="auto"
       inkscape:stockid="Arrow1Lend">
      <path
         transform="matrix(-0.8,0,0,-0.8,-10,0)"
         style="fill:#000000;fill-opacity:1;fill-rule:evenodd;stroke:#000000;stroke-width:1pt;stroke-opacity:1"
         d="M 0,0 5,-5 -12.5,0 5,5 0,0 Z"
         id="path4555"
         inkscape:connector-curvature="0" />
    </marker>
    <marker
       inkscape:isstock="true"
       style="overflow:visible"
       id="marker4479"
       refX="0"
       refY="0"
       orient="auto"
       inkscape:stockid="Arrow1Lend"
       inkscape:collect="always">
      <path
         transform="matrix(-0.8,0,0,-0.8,-10,0)"
         style="fill:#000000;fill-opacity:1;fill-rule:evenodd;stroke:#000000;stroke-width:1pt;stroke-opacity:1"
         d="M 0,0 5,-5 -12.5,0 5,5 0,0 Z"
         id="path4481"
         inkscape:connector-curvature="0" />
    </marker>
    <marker
       inkscape:stockid="Arrow1Lend"
       orient="auto"
       refY="0"
       refX="0"
       id="Arrow1Lend"
       style="overflow:visible"
       inkscape:isstock="true"
       inkscape:collect="always">
      <path
         id="path4194"
         d="M 0,0 5,-5 -12.5,0 5,5 0,0 Z"
         style="fill:#000000;fill-opacity:1;fill-rule:evenodd;stroke:#000000;stroke-width:1pt;stroke-opacity:1"
         transform="matrix(-0.8,0,0,-0.8,-10,0)"
         inkscape:connector-curvature="0" />
    </marker>
    <clipPath
       id="clipPath4812"
       clipPathUnits="userSpaceOnUse">
      <path
         inkscape:connector-curvature="0"
         id="path4814"
         d="M 0,0 24,0 24,121 0,121 0,0 Z" />
    </clipPath>
    <clipPath
       id="clipPath4446"
       clipPathUnits="userSpaceOnUse">
      <path
         inkscape:connector-curvature="0"
         id="path4448"
         d="M 0,0 36,0 36,120 0,120 0,0 Z" />
    </clipPath>
  </defs>
  <sodipodi:namedview
     id="base"
     pagecolor="#ffffff"
     bordercolor="#666666"
     borderopacity="1.0"
     inkscape:pageopacity="0.0"
     inkscape:pageshadow="2"
     inkscape:zoom="0.70000001"
     inkscape:cx="524.94118"
     inkscape:cy="211.68507"
     inkscape:document-units="px"
     inkscape:current-layer="layer1"
     showgrid="false"
     fit-margin-left="1"
     fit-margin-bottom="1"
     fit-margin-right="1"
     fit-margin-top="1"
     inkscape:window-width="1440"
     inkscape:window-height="786"
     inkscape:window-x="0"
     inkscape:window-y="0"
     inkscape:window-maximized="1" />
  <metadata
     id="metadata7">
    <rdf:RDF>
      <cc:Work
         rdf:about="">
        <dc:format>image/svg+xml</dc:format>
        <dc:type
           rdf:resource="http://purl.org/dc/dcmitype/StillImage" />
        <dc:title />
      </cc:Work>
    </rdf:RDF>
  </metadata>
  <g
     inkscape:label="Layer 1"
     inkscape:groupmode="layer"
     id="layer1"
     transform="translate(57.371986,-48.135219)">
    <g
       id="g4658"
       transform="translate(-161.42859,295.71432)"
       style="stroke-width:1.25000015;stroke-miterlimit:4;stroke-dasharray:none">
      <path
         inkscape:connector-curvature="0"
         id="path4450"
         style="fill:#000000;fill-opacity:1;fill-rule:nonzero;stroke:none;stroke-width:1.25000015;stroke-miterlimit:4;stroke-dasharray:none"
         d="m 1162.5481,32.563718 c -0.1045,0.522735 -0.3136,1.324657 -0.3136,1.49832 0,0.627212 0.4878,0.941342 1.0106,0.941342 0.4181,0 1.0452,-0.279188 1.2891,-0.975236 0.035,-0.07058 0.4531,-1.708322 0.6621,-2.57943 l 0.7667,-3.136058 c 0.2089,-0.766631 0.4181,-1.533262 0.5923,-2.333786 0.1392,-0.59227 0.4181,-1.602797 0.4529,-1.742216 0.5228,-1.08111 2.3695,-4.250713 5.6796,-4.250713 1.568,0 1.8817,1.288317 1.8817,2.438263 0,2.160474 -1.7075,6.620141 -2.265,8.119509 -0.3135,0.800874 -0.3485,1.219481 -0.3485,1.602796 0,1.637739 1.2196,2.856871 2.8574,2.856871 3.2755,0 4.5646,-5.087927 4.5646,-5.365717 0,-0.349422 -0.3137,-0.349422 -0.4182,-0.349422 -0.3484,0 -0.3484,0.105525 -0.5226,0.627212 -0.697,2.370475 -1.8468,4.321296 -3.5541,4.321296 -0.5925,0 -0.8362,-0.348374 -0.8362,-1.150296 0,-0.870758 0.3134,-1.706924 0.6271,-2.473555 0.662,-1.846343 2.1256,-5.679847 2.1256,-7.665959 0,-2.333786 -1.4984,-3.727978 -4.0073,-3.727978 -3.136,0 -4.8432,2.230008 -5.4357,3.03193 -0.1742,-1.952218 -1.6028,-3.03193 -3.2055,-3.03193 -1.603,0 -2.265,1.3589 -2.6134,1.986112 -0.5576,1.185238 -1.0454,3.240186 -1.0454,3.379605 0,0.348373 0.3484,0.348373 0.4181,0.348373 0.3486,0 0.3833,-0.03529 0.5923,-0.800874 0.5925,-2.474603 1.2893,-4.146236 2.5437,-4.146236 0.697,0 1.0801,0.452501 1.0801,1.602447 0,0.731339 -0.1044,1.115004 -0.5573,2.927454 l -2.0211,8.047876" />
      <path
         inkscape:connector-curvature="0"
         id="path4452"
         style="fill:#000000;fill-opacity:1;fill-rule:nonzero;stroke:none;stroke-width:1.25000015;stroke-miterlimit:4;stroke-dasharray:none"
         d="m 1186.9869,41.516597 c 0.1707,0.04892 0.7797,0.269054 0.9992,0.342084 1.1938,0.413365 1.5104,0.511553 1.5104,1.120944 0,0.340686 -0.2679,1.145054 -1.0963,1.145054 -0.3655,0 -1.3158,-0.07408 -2.3634,-0.68242 -0.1706,-0.147107 -0.2193,-0.147107 -0.3167,-0.147107 -0.1462,0 -0.3411,0.09819 -0.3411,0.342084 0,0.438524 1.7054,1.168815 3.0212,1.168815 1.6811,0 2.6556,-1.534659 2.6556,-2.654555 0,-0.926317 -0.5115,-1.414109 -1.0231,-1.681766 -0.1951,-0.09819 -3.2406,-1.145054 -3.5087,-1.218084 -2.3633,-0.828129 -3.679,-1.267002 -3.679,-2.680761 0,-0.87635 0.8529,-2.776504 2.9237,-3.874037 1.0478,0.342084 2.0953,0.342084 2.5339,0.342084 0.8773,0 2.534,0 2.534,-0.901158 0,-0.75545 -1.3889,-0.75545 -2.2416,-0.75545 -0.5847,0 -1.3156,0 -2.3147,0.340337 -0.6576,-0.535314 -0.8283,-1.315922 -0.8283,-1.900155 0,-1.38895 0.999,-3.094826 2.8263,-3.946716 0.5605,0.608343 1.1694,0.608343 1.7787,0.608343 0.7554,0 2.4121,0 2.4121,-0.901158 0,-0.755449 -1.3645,-0.755449 -2.266,-0.755449 -0.3655,0 -0.9014,0 -1.5837,0.09784 0,-0.02446 -0.097,-0.414764 -0.097,-0.73134 0,-0.267656 0.049,-0.560821 0.097,-0.828478 0.024,-0.02446 0.049,-0.121948 0.049,-0.170867 0,-0.194977 -0.1705,-0.389605 -0.3898,-0.389605 -0.5603,0 -0.5603,0.926316 -0.5603,1.34108 0,0.09679 0,0.632103 0.1218,0.949029 -3.3623,0.902555 -4.5318,3.021448 -4.5318,4.605375 0,0.975236 0.4629,1.924265 1.6081,2.606685 -2.7533,1.559818 -3.533,3.995635 -3.533,5.018741 0,2.217429 2.339,3.045558 3.1187,3.314613 l 2.4851,0.876 z m 4.5318,-15.860942 c -0.1948,0.04892 -0.4873,0.147106 -1.4617,0.147106 -0.3898,0 -0.6823,0 -0.9747,-0.170867 0.4386,-0.121948 0.6335,-0.121948 1.1452,-0.121948 0.7553,0 0.9013,0.02446 1.2912,0.121948 l 0,0.02446 z m -1.6567,6.554798 c -0.3411,0.09679 -0.6577,0.145709 -1.4862,0.145709 -0.463,0 -0.7552,0 -1.2182,-0.145709 0.6334,-0.147106 0.8527,-0.147106 1.4131,-0.147106 0.7554,0 0.8284,0.02446 1.2913,0.121948 l 0,0.02446" />
    </g>
    <g
       id="g4662"
       transform="translate(-969.28583,22.142859)"
       style="stroke-width:1.25000015;stroke-miterlimit:4;stroke-dasharray:none">
      <path
         inkscape:connector-curvature="0"
         id="path4454"
         style="fill:#000000;fill-opacity:1;fill-rule:nonzero;stroke:none;stroke-width:1.25000015;stroke-miterlimit:4;stroke-dasharray:none"
         d="m 1162.5481,88.257422 c -0.1045,0.522874 -0.3136,1.324797 -0.3136,1.49825 0,0.627176 0.4878,0.941411 1.0106,0.941411 0.4181,0 1.0452,-0.279013 1.2891,-0.97534 0.035,-0.07041 0.4531,-1.708147 0.6621,-2.579185 l 0.7667,-3.135954 c 0.2089,-0.766631 0.4181,-1.533611 0.5923,-2.334136 0.1392,-0.59192 0.4181,-1.602447 0.4529,-1.742215 0.5228,-1.080761 2.3695,-4.250713 5.6796,-4.250713 1.568,0 1.8817,1.288317 1.8817,2.438263 0,2.160823 -1.7075,6.620141 -2.265,8.119858 -0.3135,0.800559 -0.3485,1.219097 -0.3485,1.602482 0,1.637739 1.2196,2.85694 2.8574,2.85694 3.2755,0 4.5646,-5.088032 4.5646,-5.365822 0,-0.349421 -0.3137,-0.349421 -0.4182,-0.349421 -0.3484,0 -0.3484,0.105525 -0.5226,0.627211 -0.697,2.370581 -1.8468,4.321331 -3.5541,4.321331 -0.5925,0 -0.8362,-0.348163 -0.8362,-1.150086 0,-0.871038 0.3134,-1.706889 0.6271,-2.47345 0.662,-1.846693 2.1256,-5.680196 2.1256,-7.665959 0,-2.334136 -1.4984,-3.727978 -4.0073,-3.727978 -3.136,0 -4.8432,2.229659 -5.4357,3.031581 -0.1742,-1.951868 -1.6028,-3.031581 -3.2055,-3.031581 -1.603,0 -2.265,1.358551 -2.6134,1.985763 -0.5576,1.185237 -1.0454,3.240535 -1.0454,3.379954 0,0.348024 0.3484,0.348024 0.4181,0.348024 0.3486,0 0.3833,-0.03529 0.5923,-0.800525 0.5925,-2.474953 1.2893,-4.146585 2.5437,-4.146585 0.697,0 1.0801,0.452501 1.0801,1.602447 0,0.731689 -0.1044,1.115004 -0.5573,2.927454 l -2.0211,8.047981" />
      <path
         inkscape:connector-curvature="0"
         id="path4456"
         style="fill:#000000;fill-opacity:1;fill-rule:nonzero;stroke:none;stroke-width:1.25000015;stroke-miterlimit:4;stroke-dasharray:none"
         d="m 1189.131,81.703916 c 0.4874,0.486395 1.2182,0.486395 1.6567,0.486395 0.7554,0 2.4122,0 2.4122,-0.901158 0,-0.730291 -1.267,-0.755449 -2.1685,-0.755449 -0.4141,0 -0.9744,0 -1.6079,0.243896 -0.024,-0.09679 -0.1462,-0.438873 -0.1462,-0.877398 0,-0.09679 0.049,-0.560472 0.097,-0.828129 0.024,-0.02446 0.049,-0.121948 0.049,-0.171216 0,-0.194628 -0.1706,-0.389605 -0.3899,-0.389605 -0.5604,0 -0.5604,0.926316 -0.5604,1.34108 0,0.291767 0,0.730291 0.2436,1.241844 -3.1429,1.609086 -6.7488,5.896279 -6.7488,10.257758 0,1.339892 0.3655,2.484911 1.3644,3.508052 0.804,0.804404 1.4375,0.975341 4.5316,1.925593 0.8772,0.242568 1.7788,0.535418 1.7788,1.607583 0,0.657367 -0.4142,1.437905 -1.2182,1.437905 -0.4143,0 -1.1696,-0.09805 -1.998,-0.68249 -0.1463,-0.09805 -0.1949,-0.147072 -0.3167,-0.147072 -0.2681,0 -0.3412,0.219961 -0.3412,0.341874 0,0.365775 1.4133,1.168921 2.6559,1.168921 1.7055,0 2.753,-1.729498 2.753,-2.996465 0,-1.07213 -0.6577,-1.876569 -1.5348,-2.266209 -0.2437,-0.09679 -1.3645,-0.438663 -2.0466,-0.633501 -1.8761,-0.560577 -2.5341,-0.755379 -3.1431,-1.46177 -0.6578,-0.730256 -0.9014,-1.55856 -0.9014,-2.581701 0,-3.606065 3.0211,-7.504945 5.5793,-8.868738 z m 3.1188,-0.341734 c -0.3412,0.09784 -0.7554,0.146757 -1.4374,0.146757 -0.5849,0 -0.6337,0 -0.9018,-0.146757 0.3899,-0.146058 0.7311,-0.146058 1.0966,-0.146058 0.6822,0 0.7796,0.02446 1.2426,0.121948 l 0,0.02446" />
    </g>
    <g
       id="g4715"
       transform="translate(-514.28578,0)"
       style="stroke-width:1.25000015;stroke-miterlimit:4;stroke-dasharray:none">
      <path
         style="fill:none;fill-rule:evenodd;stroke:#000000;stroke-width:1.25000015;stroke-linecap:butt;stroke-linejoin:miter;stroke-miterlimit:4;stroke-dasharray:none;stroke-opacity:1;marker-end:url(#marker4269)"
         d="m 466.28516,324.84932 505.84451,0"
         id="path4257"
         inkscape:connector-curvature="0" />
      <path
         style="fill:none;fill-rule:evenodd;stroke:#000000;stroke-width:1.25000015;stroke-linecap:butt;stroke-linejoin:miter;stroke-miterlimit:4;stroke-dasharray:none;stroke-opacity:1;marker-end:url(#Arrow1Lend)"
         d="m 720.71733,527.21616 0,-401.03055"
         id="path4259"
         inkscape:connector-curvature="0" />
      <circle
         style="opacity:1;fill:none;fill-opacity:1;stroke:#000000;stroke-width:1.25000015;stroke-miterlimit:4;stroke-dasharray:none;stroke-dashoffset:0;stroke-opacity:1"
         id="circle4261"
         cx="720.78046"
         cy="324.91241"
         r="157.07872" />
      <ellipse
         cy="324.91241"
         cx="720.57983"
         id="ellipse4263"
         style="opacity:1;fill:none;fill-opacity:1;stroke:#000000;stroke-width:1.25000015;stroke-miterlimit:4;stroke-dasharray:none;stroke-dashoffset:0;stroke-opacity:1"
         rx="208.34528"
         ry="156.98413" />
      <path
         inkscape:connector-curvature="0"
         id="path5114"
         d="m 647.78133,124.76168 68.3066,40.12918"
         style="fill:none;fill-rule:evenodd;stroke:#000000;stroke-width:1.25000015;stroke-linecap:butt;stroke-linejoin:miter;stroke-miterlimit:4;stroke-dasharray:none;stroke-opacity:1;marker-end:url(#marker5182)" />
      <path
         inkscape:connector-curvature="0"
         id="path5116"
         d="M 974.97435,404.47239 930.61983,326.817"
         style="fill:none;fill-rule:evenodd;stroke:#000000;stroke-width:1.25000015;stroke-linecap:butt;stroke-linejoin:miter;stroke-miterlimit:4;stroke-dasharray:none;stroke-opacity:1;marker-end:url(#marker5124)" />
      <path
         inkscape:connector-curvature="0"
         id="path4458"
         style="fill:#000000;fill-opacity:1;fill-rule:nonzero;stroke:none;stroke-width:1.25000015;stroke-miterlimit:4;stroke-dasharray:none"
         d="m 713.98073,342.77903 c 0,-7.10783 -5.2615,-12.75263 -11.6032,-12.75263 -6.2372,0 -11.5683,5.57442 -11.5683,12.75263 0,7.14305 5.366,12.57917 11.5683,12.57917 6.3417,0 11.6032,-5.54046 11.6032,-12.57917 z m -11.5685,11.67295 c -3.3449,0 -8.0141,-3.06562 -8.0141,-12.16064 0,-9.02462 5.0873,-11.39387 7.9794,-11.39387 3.0315,0 8.0141,2.47359 8.0141,11.39387 0,9.23329 -4.7736,12.16064 -7.9794,12.16064" />
    </g>
    <g
       id="g4666"
       transform="translate(-853.57899,-65.659923)"
       style="stroke-width:1.25000015;stroke-miterlimit:4;stroke-dasharray:none">
      <path
         inkscape:connector-curvature="0"
         id="path4460"
         style="fill:#000000;fill-opacity:1;fill-rule:nonzero;stroke:none;stroke-width:1.25000015;stroke-miterlimit:4;stroke-dasharray:none"
         d="m 1161.4332,189.79701 c 0,7.21213 5.6447,12.68348 12.1258,12.68348 5.6795,0 9.0944,-4.84288 9.0944,-8.88513 0,-0.34942 0,-0.59324 -0.4531,-0.59324 -0.3832,0 -0.3832,0.20989 -0.4181,0.55806 -0.2787,4.9824 -4.007,7.83937 -7.805,7.83937 -2.1256,0 -8.9551,-1.18401 -8.9551,-11.56735 0,-10.41856 6.7948,-11.6038 8.9201,-11.6038 3.798,0 6.8993,3.17117 7.596,8.25788 0.07,0.48769 0.07,0.59328 0.5576,0.59328 0.5576,0 0.5576,-0.10559 0.5576,-0.83711 l 0,-8.25791 c 0,-0.59199 0,-0.83585 -0.3834,-0.83585 -0.1393,0 -0.2786,0 -0.5576,0.41731 l -1.7422,2.57919 c -1.289,-1.25443 -3.0662,-2.9965 -6.4112,-2.9965 -6.5159,0 -12.1258,5.54046 -12.1258,12.64832" />
      <path
         inkscape:connector-curvature="0"
         id="path4462"
         style="fill:#000000;fill-opacity:1;fill-rule:nonzero;stroke:none;stroke-width:1.25000015;stroke-miterlimit:4;stroke-dasharray:none"
         d="m 1198.8714,193.6997 9.7217,0 c 0.4876,0 1.1498,0 1.1498,-0.69758 0,-0.69633 -0.6622,-0.69633 -1.1498,-0.69633 l -9.7217,0 0,-9.75613 c 0,-0.48769 0,-1.15009 -0.6969,-1.15009 -0.6969,0 -0.6969,0.6624 -0.6969,1.15009 l 0,9.75613 -9.7564,0 c -0.4878,0 -1.1498,0 -1.1498,0.69633 0,0.69758 0.662,0.69758 1.1498,0.69758 l 9.7564,0 0,9.75617 c 0,0.48765 0,1.15005 0.6969,1.15005 0.6969,0 0.6969,-0.6624 0.6969,-1.15005 l 0,-9.75617" />
    </g>
    <g
       id="g4670"
       transform="translate(-333.35038,-123.23862)"
       style="stroke-width:1.25000015;stroke-miterlimit:4;stroke-dasharray:none">
      <path
         inkscape:connector-curvature="0"
         id="path4464"
         style="fill:#000000;fill-opacity:1;fill-rule:nonzero;stroke:none;stroke-width:1.25000015;stroke-miterlimit:4;stroke-dasharray:none"
         d="m 1161.4332,245.5033 c 0,7.21216 5.6447,12.68347 12.1258,12.68347 5.6795,0 9.0944,-4.84287 9.0944,-8.88509 0,-0.34942 0,-0.59325 -0.4531,-0.59325 -0.3832,0 -0.3832,0.2099 -0.4181,0.55807 -0.2787,4.9824 -4.007,7.83934 -7.805,7.83934 -2.1256,0 -8.9551,-1.18402 -8.9551,-11.56736 0,-10.41852 6.7948,-11.6038 8.9201,-11.6038 3.798,0 6.8993,3.17121 7.596,8.25792 0.07,0.48768 0.07,0.59324 0.5576,0.59324 0.5576,0 0.5576,-0.10556 0.5576,-0.83707 l 0,-8.25791 c 0,-0.59203 0,-0.83586 -0.3834,-0.83586 -0.1393,0 -0.2786,0 -0.5576,0.41728 l -1.7422,2.57919 c -1.289,-1.25439 -3.0662,-2.99647 -6.4112,-2.99647 -6.5159,0 -12.1258,5.54047 -12.1258,12.6483" />
      <path
         inkscape:connector-curvature="0"
         id="path4466"
         style="fill:#000000;fill-opacity:1;fill-rule:nonzero;stroke:none;stroke-width:1.25000015;stroke-miterlimit:4;stroke-dasharray:none"
         d="m 1207.5824,249.40602 c 0.5924,0 1.2196,0 1.2196,-0.69759 0,-0.69632 -0.6272,-0.69632 -1.2196,-0.69632 l -18.8506,0 c -0.5924,0 -1.2197,0 -1.2197,0.69632 0,0.69759 0.6273,0.69759 1.2197,0.69759 l 18.8506,0" />
    </g>
    <path
       d="m 237.00571,258.633 c 0,-2.30014 -0.6271,-7.14302 -4.1814,-7.14302 -4.8432,0 -10.2092,9.82528 -10.2092,17.80541 0,3.27551 1.0104,7.14301 4.1811,7.14301 4.9132,0 10.2095,-9.99999 10.2095,-17.8054 z m -10.6971,4.77376 c 0.5923,-2.22976 1.2891,-5.01759 2.6829,-7.49121 0.9407,-1.70812 2.2301,-3.65887 3.798,-3.65887 1.7075,0 1.9164,2.22977 1.9164,4.2157 0,1.70689 -0.2786,3.48416 -1.1148,6.93438 l -7.2825,0 z m 6.9687,1.11486 c -0.3833,1.60256 -1.115,4.56513 -2.4391,7.0739 -1.2194,2.36891 -2.5435,4.07618 -4.042,4.07618 -1.1498,0 -1.8814,-1.01046 -1.8814,-4.25089 0,-1.46303 0.209,-3.48415 1.1149,-6.89919 l 7.2476,0"
       style="fill:#000000;fill-opacity:1;fill-rule:nonzero;stroke:none;stroke-width:1.25000015;stroke-miterlimit:4;stroke-dasharray:none"
       id="path4468"
       inkscape:connector-curvature="0" />
    <g
       id="g4674"
       transform="translate(-1161.6756,-237.38587)"
       style="stroke-width:1.25000015;stroke-miterlimit:4;stroke-dasharray:none">
      <path
         inkscape:connector-curvature="0"
         id="path4470"
         style="fill:#000000;fill-opacity:1;fill-rule:nonzero;stroke:none;stroke-width:1.25000015;stroke-miterlimit:4;stroke-dasharray:none"
         d="m 1174.2558,379.46337 c 1.0802,0 1.1151,-0.0349 1.4636,-0.69696 l 19.0599,-39.7923 c 0.2438,-0.45285 0.2438,-0.52259 0.2438,-0.62707 0,-0.38335 -0.2789,-0.69695 -0.6969,-0.69695 -0.4529,0 -0.5924,0.3136 -0.7666,0.69695 l -17.9796,37.49255 -7.4219,-17.28278 -4.8435,3.72837 0.5228,0.55732 2.474,-1.88149 7.9444,18.50236" />
      <g
         transform="matrix(0.01256911,0,0,-0.01256911,1158.9665,436.05229)"
         id="g4472"
         style="stroke-width:99.45017181;stroke-miterlimit:4;stroke-dasharray:none">
        <path
           inkscape:connector-curvature="0"
           id="path4474"
           style="fill:none;stroke:#000000;stroke-width:99.45017181;stroke-linecap:butt;stroke-linejoin:miter;stroke-miterlimit:4;stroke-dasharray:none;stroke-opacity:1"
           d="m 2810.86,7773.16 6929.7,0" />
      </g>
      <path
         inkscape:connector-curvature="0"
         id="path4476"
         style="fill:#000000;fill-opacity:1;fill-rule:nonzero;stroke:none;stroke-width:1.25000015;stroke-miterlimit:4;stroke-dasharray:none"
         d="m 1199.2114,360.8978 c 1.1497,0.48793 2.1604,0.48793 2.9966,0.48793 0.906,0 2.8223,0 2.8223,-1.0802 0,-0.8362 -1.2196,-0.94078 -2.5436,-0.94078 -0.7318,0 -1.9513,0.0696 -3.2405,0.66215 -0.8015,-0.41819 -1.3938,-1.08045 -1.3938,-2.02112 0,-2.12557 3.4147,-3.37996 6.5507,-3.37996 0.5575,0 1.8118,0 3.2056,0.97573 0.3834,0.27866 0.4531,0.34841 0.6971,0.34841 0.4528,0 0.9407,-0.45286 0.9407,-0.94079 0,-0.66201 -2.1256,-1.98604 -4.4949,-1.98604 -4.0071,0 -7.7702,2.33445 -7.7702,4.98265 0,1.49825 1.2544,2.36939 1.3935,2.47397 -2.0558,1.14981 -3.1707,3.10119 -3.1707,4.70398 0,2.26495 1.9861,4.39028 5.6797,4.39028 4.5995,0 6.5507,-3.06625 6.5507,-3.58888 0,-0.20913 -0.1742,-0.34841 -0.3832,-0.34841 -0.1744,0 -0.2789,0.13928 -0.3485,0.24397 -0.488,0.80129 -1.3242,2.09062 -5.5053,2.09062 -2.1256,0 -5.0873,-0.52263 -5.0873,-2.9966 0,-1.18475 0.9755,-3.03155 3.1011,-4.07691 z m 1.1497,-0.45285 c 0.8015,-0.27891 1.5332,-0.31361 2.1256,-0.31361 0.8711,0 1.0104,0.0346 1.6377,0.20889 -0.5226,0.24396 -0.5924,0.27891 -1.9164,0.27891 -0.7666,0 -1.1846,0 -1.8469,-0.17419" />
      <path
         inkscape:connector-curvature="0"
         id="path4478"
         style="fill:#000000;fill-opacity:1;fill-rule:nonzero;stroke:none;stroke-width:1.25000015;stroke-miterlimit:4;stroke-dasharray:none"
         d="m 1228.6764,357.55342 -16.4703,0 -0.5115,5.60367 0.8283,0 c 0.3411,-4.21493 1.0476,-4.72649 4.7999,-4.72649 0.4871,0 1.1938,0 1.4373,0.0241 0.536,0.0974 0.536,0.36553 0.536,0.92587 l 0,12.64514 c 0,0.80406 0,1.12081 -2.5339,1.12081 l -1.0232,0 0,0.87704 c 1.1938,-0.0974 3.4597,-0.0974 4.7267,-0.0974 1.2668,0 3.5085,0 4.7023,0.0974 l 0,-0.87704 -1.0234,0 c -2.5339,0 -2.5339,-0.31675 -2.5339,-1.12081 l 0,-12.64514 c 0,-0.56034 0,-0.82845 0.5361,-0.92587 0.2437,-0.0241 0.9502,-0.0241 1.4375,-0.0241 1.3644,0 2.4122,0 3.2648,0.4872 1.0964,0.658 1.267,2.21705 1.2913,2.3391 l 0.2194,1.90019 0.8283,0 -0.5117,-5.60367" />
      <path
         inkscape:connector-curvature="0"
         id="path4480"
         style="fill:#000000;fill-opacity:1;fill-rule:nonzero;stroke:none;stroke-width:1.25000015;stroke-miterlimit:4;stroke-dasharray:none"
         d="m 1247.4405,343.99824 c 0.1745,-0.45285 0.1745,-0.59224 0.1745,-0.62708 0,-0.38335 -0.3138,-0.69695 -0.6971,-0.69695 -0.2439,0 -0.4878,0.10472 -0.5923,0.3136 l -12.0911,33.20686 c -0.1742,0.45285 -0.1742,0.59223 -0.1742,0.62707 0,0.38335 0.3136,0.69696 0.697,0.69696 0.4528,0 0.5574,-0.24386 0.7665,-0.83634 l 11.9167,-32.68412" />
      <path
         inkscape:connector-curvature="0"
         id="path4482"
         style="fill:#000000;fill-opacity:1;fill-rule:nonzero;stroke:none;stroke-width:1.25000015;stroke-miterlimit:4;stroke-dasharray:none"
         d="m 1254.4652,360.8978 c 1.1497,0.48793 2.1604,0.48793 2.9966,0.48793 0.906,0 2.8223,0 2.8223,-1.0802 0,-0.8362 -1.2196,-0.94078 -2.5436,-0.94078 -0.7318,0 -1.9513,0.0696 -3.2404,0.66215 -0.8016,-0.41819 -1.3938,-1.08045 -1.3938,-2.02112 0,-2.12557 3.4146,-3.37996 6.5506,-3.37996 0.5576,0 1.8118,0 3.2056,0.97573 0.3834,0.27866 0.4531,0.34841 0.6971,0.34841 0.4529,0 0.9407,-0.45286 0.9407,-0.94079 0,-0.66201 -2.1256,-1.98604 -4.4949,-1.98604 -4.0071,0 -7.7702,2.33445 -7.7702,4.98265 0,1.49825 1.2544,2.36939 1.3935,2.47397 -2.0557,1.14981 -3.1706,3.10119 -3.1706,4.70398 0,2.26495 1.986,4.39028 5.6796,4.39028 4.5995,0 6.5507,-3.06625 6.5507,-3.58888 0,-0.20913 -0.1741,-0.34841 -0.3832,-0.34841 -0.1743,0 -0.2789,0.13928 -0.3485,0.24397 -0.488,0.80129 -1.3242,2.09062 -5.5053,2.09062 -2.1256,0 -5.0874,-0.52263 -5.0874,-2.9966 0,-1.18475 0.9757,-3.03155 3.1012,-4.07691 z m 1.1497,-0.45285 c 0.8016,-0.27891 1.5332,-0.31361 2.1256,-0.31361 0.8712,0 1.0104,0.0346 1.6377,0.20889 -0.5226,0.24396 -0.5923,0.27891 -1.9164,0.27891 -0.7666,0 -1.1846,0 -1.8469,-0.17419" />
      <path
         inkscape:connector-curvature="0"
         id="path4484"
         style="fill:#000000;fill-opacity:1;fill-rule:nonzero;stroke:none;stroke-width:1.25000015;stroke-miterlimit:4;stroke-dasharray:none"
         d="m 1278.3508,366.2515 c 0,-2.68014 -0.3167,-4.60482 -1.4375,-6.31035 -0.7553,-1.12077 -2.2658,-2.09551 -4.2149,-2.09551 -5.6526,0 -5.6526,6.65169 -5.6526,8.40586 0,1.75413 0,8.25952 5.6526,8.25952 5.6524,0 5.6524,-6.50539 5.6524,-8.25952 z m -5.6524,7.57741 c -1.121,0 -2.607,-0.65789 -3.0944,-2.65585 -0.341,-1.43755 -0.341,-3.43526 -0.341,-5.23831 0,-1.77853 0,-3.63035 0.3654,-4.97032 0.5116,-1.92485 2.0711,-2.43641 3.07,-2.43641 1.3156,0 2.5824,0.80392 3.0211,2.21708 0.3897,1.31571 0.4141,3.06998 0.4141,5.18965 0,1.80305 0,3.60596 -0.3166,5.14089 -0.4874,2.21705 -2.1441,2.75327 -3.1186,2.75327" />
    </g>
    <g
       id="g4684"
       transform="translate(-263.64984,15.15229)"
       style="stroke-width:1.25000015;stroke-miterlimit:4;stroke-dasharray:none">
      <path
         inkscape:connector-curvature="0"
         id="path4486"
         style="fill:#000000;fill-opacity:1;fill-rule:nonzero;stroke:none;stroke-width:1.25000015;stroke-miterlimit:4;stroke-dasharray:none"
         d="m 1174.2558,435.15713 c 1.0802,0 1.1151,-0.0349 1.4636,-0.69699 l 19.0599,-39.79229 c 0.2438,-0.45285 0.2438,-0.52263 0.2438,-0.62707 0,-0.38335 -0.2789,-0.69696 -0.6969,-0.69696 -0.4529,0 -0.5924,0.31361 -0.7666,0.69696 l -17.9796,37.49253 -7.4219,-17.28277 -4.8435,3.72837 0.5228,0.55732 2.474,-1.88147 7.9444,18.50237" />
      <g
         transform="matrix(0.01256911,0,0,-0.01256911,1158.9665,436.05229)"
         id="g4488"
         style="stroke-width:99.45017181;stroke-miterlimit:4;stroke-dasharray:none">
        <path
           inkscape:connector-curvature="0"
           id="path4490"
           style="fill:none;stroke:#000000;stroke-width:99.45017181;stroke-linecap:butt;stroke-linejoin:miter;stroke-miterlimit:4;stroke-dasharray:none;stroke-opacity:1"
           d="m 2810.86,3341.84 6837.41,0" />
      </g>
      <path
         inkscape:connector-curvature="0"
         id="path4492"
         style="fill:#000000;fill-opacity:1;fill-rule:nonzero;stroke:none;stroke-width:1.25000015;stroke-miterlimit:4;stroke-dasharray:none"
         d="m 1199.2114,416.59153 c 1.1497,0.48794 2.1604,0.48794 2.9966,0.48794 0.906,0 2.8223,0 2.8223,-1.08019 0,-0.83623 -1.2196,-0.9408 -2.5436,-0.9408 -0.7318,0 -1.9513,0.0696 -3.2405,0.66214 -0.8015,-0.41818 -1.3938,-1.08044 -1.3938,-2.02111 0,-2.12556 3.4147,-3.37996 6.5507,-3.37996 0.5575,0 1.8118,0 3.2056,0.97574 0.3834,0.27866 0.4531,0.34841 0.6971,0.34841 0.4528,0 0.9407,-0.45286 0.9407,-0.9408 0,-0.66201 -2.1256,-1.98604 -4.4949,-1.98604 -4.0071,0 -7.7702,2.33446 -7.7702,4.98265 0,1.49823 1.2544,2.3694 1.3935,2.47398 -2.0558,1.14982 -3.1707,3.10117 -3.1707,4.70399 0,2.26495 1.9861,4.39031 5.6797,4.39031 4.5995,0 6.5507,-3.06628 6.5507,-3.58891 0,-0.20915 -0.1742,-0.34841 -0.3832,-0.34841 -0.1744,0 -0.2789,0.13926 -0.3485,0.24396 -0.488,0.80128 -1.3242,2.09061 -5.5053,2.09061 -2.1256,0 -5.0873,-0.52261 -5.0873,-2.99659 0,-1.18476 0.9755,-3.03154 3.1011,-4.07692 z m 1.1497,-0.45286 c 0.8015,-0.27891 1.5332,-0.3136 2.1256,-0.3136 0.8711,0 1.0104,0.0347 1.6377,0.2089 -0.5226,0.24397 -0.5924,0.27891 -1.9164,0.27891 -0.7666,0 -1.1846,0 -1.8469,-0.17421" />
      <path
         inkscape:connector-curvature="0"
         id="path4494"
         style="fill:#000000;fill-opacity:1;fill-rule:nonzero;stroke:none;stroke-width:1.25000015;stroke-miterlimit:4;stroke-dasharray:none"
         d="m 1216.7622,422.17712 4.4344,0 c 3.5329,0 6.3104,-2.04675 6.3104,-4.50753 0,-2.41189 -2.7289,-4.58044 -6.3104,-4.58044 l -9.2586,0 0,0.87708 0.5849,0 c 1.8759,0 1.9248,0.24371 1.9248,1.0964 l 0,12.69384 c 0,0.8284 -0.049,1.09647 -1.9248,1.09647 l -0.5849,0 0,0.87709 c 1.2182,-0.0487 2.7777,-0.0974 3.6547,-0.0974 0.9016,0 2.4608,0.0487 3.679,0.0974 l 0,-0.87709 -0.5846,0 c -1.8762,0 -1.9249,-0.24373 -1.9249,-1.09647 l 0,-5.57935 z m 3.8254,-8.21089 c 4.0689,0 4.3123,2.29034 4.3123,3.70336 0,1.07214 0,3.72787 -4.3123,3.72787 l -3.9228,0 0,-6.48089 c 0,-0.7554 0.024,-0.95034 1.1695,-0.95034 l 2.7533,0" />
      <path
         inkscape:connector-curvature="0"
         id="path4496"
         style="fill:#000000;fill-opacity:1;fill-rule:nonzero;stroke:none;stroke-width:1.25000015;stroke-miterlimit:4;stroke-dasharray:none"
         d="m 1246.2841,399.69197 c 0.1745,-0.45285 0.1745,-0.59223 0.1745,-0.62707 0,-0.38335 -0.3137,-0.69695 -0.6971,-0.69695 -0.2438,0 -0.4878,0.10472 -0.5923,0.3136 l -12.0911,33.20683 c -0.1742,0.45288 -0.1742,0.59232 -0.1742,0.62708 0,0.38335 0.3136,0.69699 0.697,0.69699 0.4529,0 0.5574,-0.24392 0.7666,-0.83642 l 11.9166,-32.68406" />
      <path
         inkscape:connector-curvature="0"
         id="path4498"
         style="fill:#000000;fill-opacity:1;fill-rule:nonzero;stroke:none;stroke-width:1.25000015;stroke-miterlimit:4;stroke-dasharray:none"
         d="m 1253.2963,416.59153 c 1.1497,0.48794 2.1604,0.48794 2.9966,0.48794 0.906,0 2.8223,0 2.8223,-1.08019 0,-0.83623 -1.2196,-0.9408 -2.5436,-0.9408 -0.7318,0 -1.9513,0.0696 -3.2405,0.66214 -0.8015,-0.41818 -1.3938,-1.08044 -1.3938,-2.02111 0,-2.12556 3.4147,-3.37996 6.5507,-3.37996 0.5575,0 1.8118,0 3.2056,0.97574 0.3833,0.27866 0.4531,0.34841 0.6971,0.34841 0.4528,0 0.9406,-0.45286 0.9406,-0.9408 0,-0.66201 -2.1255,-1.98604 -4.4948,-1.98604 -4.0071,0 -7.7702,2.33446 -7.7702,4.98265 0,1.49823 1.2544,2.3694 1.3935,2.47398 -2.0558,1.14982 -3.1707,3.10117 -3.1707,4.70399 0,2.26495 1.9861,4.39031 5.6796,4.39031 4.5996,0 6.5508,-3.06628 6.5508,-3.58891 0,-0.20915 -0.1742,-0.34841 -0.3832,-0.34841 -0.1744,0 -0.2789,0.13926 -0.3485,0.24396 -0.488,0.80128 -1.3242,2.09061 -5.5053,2.09061 -2.1256,0 -5.0874,-0.52261 -5.0874,-2.99659 0,-1.18476 0.9756,-3.03154 3.1012,-4.07692 z m 1.1497,-0.45286 c 0.8015,-0.27891 1.5332,-0.3136 2.1256,-0.3136 0.8711,0 1.0104,0.0347 1.6377,0.2089 -0.5226,0.24397 -0.5924,0.27891 -1.9164,0.27891 -0.7666,0 -1.1846,0 -1.8469,-0.17421" />
      <path
         inkscape:connector-curvature="0"
         id="path4500"
         style="fill:#000000;fill-opacity:1;fill-rule:nonzero;stroke:none;stroke-width:1.25000015;stroke-miterlimit:4;stroke-dasharray:none"
         d="m 1277.1945,421.95779 c 0,-2.68011 -0.3168,-4.60482 -1.4376,-6.31032 -0.7553,-1.12079 -2.2658,-2.09552 -4.2149,-2.09552 -5.6526,0 -5.6526,6.65169 -5.6526,8.40584 0,1.75418 0,8.25949 5.6526,8.25949 5.6525,0 5.6525,-6.50531 5.6525,-8.25949 z m -5.6525,7.57741 c -1.1209,0 -2.607,-0.65791 -3.0944,-2.65581 -0.341,-1.43759 -0.341,-3.4353 -0.341,-5.23834 0,-1.77853 0,-3.63034 0.3654,-4.97033 0.5117,-1.92483 2.0711,-2.4364 3.07,-2.4364 1.3156,0 2.5824,0.80392 3.0211,2.21707 0.3898,1.31573 0.4142,3.07001 0.4142,5.18966 0,1.80304 0,3.60593 -0.3167,5.14093 -0.4874,2.21708 -2.1441,2.75322 -3.1186,2.75322" />
    </g>
    <g
       id="g4705"
       transform="translate(600.00006,0)"
       style="stroke-width:1.25000015;stroke-miterlimit:4;stroke-dasharray:none">
      <g
         style="stroke-width:1.25000015;stroke-miterlimit:4;stroke-dasharray:none"
         id="g4249">
        <path
           style="fill:none;fill-rule:evenodd;stroke:#000000;stroke-width:1.25000015;stroke-linecap:butt;stroke-linejoin:miter;stroke-miterlimit:4;stroke-dasharray:none;stroke-opacity:1;marker-end:url(#marker4479)"
           d="m -53.828679,324.84932 446.487429,0"
           id="path4136"
           inkscape:connector-curvature="0" />
        <path
           style="fill:none;fill-rule:evenodd;stroke:#000000;stroke-width:1.25000015;stroke-linecap:butt;stroke-linejoin:miter;stroke-miterlimit:4;stroke-dasharray:none;stroke-opacity:1;marker-end:url(#Arrow1Lend)"
           d="m 169.28876,527.21616 0,-401.03055"
           id="path4138"
           inkscape:connector-curvature="0" />
        <circle
           style="opacity:1;fill:none;fill-opacity:1;stroke:#000000;stroke-width:1.25000015;stroke-miterlimit:4;stroke-dasharray:none;stroke-dashoffset:0;stroke-opacity:1"
           id="path4140"
           cx="169.35191"
           cy="324.91241"
           r="157.07872" />
        <ellipse
           cy="324.91241"
           cx="169.09752"
           id="circle4142"
           style="opacity:1;fill:none;fill-opacity:1;stroke:#000000;stroke-width:1.25000015;stroke-miterlimit:4;stroke-dasharray:none;stroke-dashoffset:0;stroke-opacity:1"
           rx="93.293266"
           ry="157.22183" />
      </g>
      <path
         inkscape:connector-curvature="0"
         id="path5060"
         d="m 85.118409,112.63618 80.456271,52.50338"
         style="fill:none;fill-rule:evenodd;stroke:#000000;stroke-width:1.25000015;stroke-linecap:butt;stroke-linejoin:miter;stroke-miterlimit:4;stroke-dasharray:none;stroke-opacity:1;marker-end:url(#marker5068)" />
      <path
         style="fill:none;fill-rule:evenodd;stroke:#000000;stroke-width:1.25000015;stroke-linecap:butt;stroke-linejoin:miter;stroke-miterlimit:4;stroke-dasharray:none;stroke-opacity:1;marker-end:url(#marker5124)"
         d="M 308.33649,405.23 263.98197,327.57461"
         id="path4286"
         inkscape:connector-curvature="0" />
      <path
         d="m 162.5521,342.77903 c 0,-7.10783 -5.2615,-12.75263 -11.6032,-12.75263 -6.2372,0 -11.5683,5.57442 -11.5683,12.75263 0,7.14305 5.366,12.57917 11.5683,12.57917 6.3417,0 11.6032,-5.54046 11.6032,-12.57917 z m -11.5685,11.67295 c -3.3449,0 -8.0141,-3.06562 -8.0141,-12.16064 0,-9.02462 5.0873,-11.39387 7.9794,-11.39387 3.0315,0 8.0141,2.47359 8.0141,11.39387 0,9.23329 -4.7736,12.16064 -7.9794,12.16064"
         style="fill:#000000;fill-opacity:1;fill-rule:nonzero;stroke:none;stroke-width:1.25000015;stroke-miterlimit:4;stroke-dasharray:none"
         id="path4703"
         inkscape:connector-curvature="0" />
    </g>
    <g
       id="g4724"
       transform="translate(-692.14293,294.28575)"
       style="stroke-width:1.25000015;stroke-miterlimit:4;stroke-dasharray:none">
      <path
         d="m 1162.5481,32.563718 c -0.1045,0.522735 -0.3136,1.324657 -0.3136,1.49832 0,0.627212 0.4878,0.941342 1.0106,0.941342 0.4181,0 1.0452,-0.279188 1.2891,-0.975236 0.035,-0.07058 0.4531,-1.708322 0.6621,-2.57943 l 0.7667,-3.136058 c 0.2089,-0.766631 0.4181,-1.533262 0.5923,-2.333786 0.1392,-0.59227 0.4181,-1.602797 0.4529,-1.742216 0.5228,-1.08111 2.3695,-4.250713 5.6796,-4.250713 1.568,0 1.8817,1.288317 1.8817,2.438263 0,2.160474 -1.7075,6.620141 -2.265,8.119509 -0.3135,0.800874 -0.3485,1.219481 -0.3485,1.602796 0,1.637739 1.2196,2.856871 2.8574,2.856871 3.2755,0 4.5646,-5.087927 4.5646,-5.365717 0,-0.349422 -0.3137,-0.349422 -0.4182,-0.349422 -0.3484,0 -0.3484,0.105525 -0.5226,0.627212 -0.697,2.370475 -1.8468,4.321296 -3.5541,4.321296 -0.5925,0 -0.8362,-0.348374 -0.8362,-1.150296 0,-0.870758 0.3134,-1.706924 0.6271,-2.473555 0.662,-1.846343 2.1256,-5.679847 2.1256,-7.665959 0,-2.333786 -1.4984,-3.727978 -4.0073,-3.727978 -3.136,0 -4.8432,2.230008 -5.4357,3.03193 -0.1742,-1.952218 -1.6028,-3.03193 -3.2055,-3.03193 -1.603,0 -2.265,1.3589 -2.6134,1.986112 -0.5576,1.185238 -1.0454,3.240186 -1.0454,3.379605 0,0.348373 0.3484,0.348373 0.4181,0.348373 0.3486,0 0.3833,-0.03529 0.5923,-0.800874 0.5925,-2.474603 1.2893,-4.146236 2.5437,-4.146236 0.697,0 1.0801,0.452501 1.0801,1.602447 0,0.731339 -0.1044,1.115004 -0.5573,2.927454 l -2.0211,8.047876"
         style="fill:#000000;fill-opacity:1;fill-rule:nonzero;stroke:none;stroke-width:1.25000015;stroke-miterlimit:4;stroke-dasharray:none"
         id="path4726"
         inkscape:connector-curvature="0" />
      <path
         d="m 1186.9869,41.516597 c 0.1707,0.04892 0.7797,0.269054 0.9992,0.342084 1.1938,0.413365 1.5104,0.511553 1.5104,1.120944 0,0.340686 -0.2679,1.145054 -1.0963,1.145054 -0.3655,0 -1.3158,-0.07408 -2.3634,-0.68242 -0.1706,-0.147107 -0.2193,-0.147107 -0.3167,-0.147107 -0.1462,0 -0.3411,0.09819 -0.3411,0.342084 0,0.438524 1.7054,1.168815 3.0212,1.168815 1.6811,0 2.6556,-1.534659 2.6556,-2.654555 0,-0.926317 -0.5115,-1.414109 -1.0231,-1.681766 -0.1951,-0.09819 -3.2406,-1.145054 -3.5087,-1.218084 -2.3633,-0.828129 -3.679,-1.267002 -3.679,-2.680761 0,-0.87635 0.8529,-2.776504 2.9237,-3.874037 1.0478,0.342084 2.0953,0.342084 2.5339,0.342084 0.8773,0 2.534,0 2.534,-0.901158 0,-0.75545 -1.3889,-0.75545 -2.2416,-0.75545 -0.5847,0 -1.3156,0 -2.3147,0.340337 -0.6576,-0.535314 -0.8283,-1.315922 -0.8283,-1.900155 0,-1.38895 0.999,-3.094826 2.8263,-3.946716 0.5605,0.608343 1.1694,0.608343 1.7787,0.608343 0.7554,0 2.4121,0 2.4121,-0.901158 0,-0.755449 -1.3645,-0.755449 -2.266,-0.755449 -0.3655,0 -0.9014,0 -1.5837,0.09784 0,-0.02446 -0.097,-0.414764 -0.097,-0.73134 0,-0.267656 0.049,-0.560821 0.097,-0.828478 0.024,-0.02446 0.049,-0.121948 0.049,-0.170867 0,-0.194977 -0.1705,-0.389605 -0.3898,-0.389605 -0.5603,0 -0.5603,0.926316 -0.5603,1.34108 0,0.09679 0,0.632103 0.1218,0.949029 -3.3623,0.902555 -4.5318,3.021448 -4.5318,4.605375 0,0.975236 0.4629,1.924265 1.6081,2.606685 -2.7533,1.559818 -3.533,3.995635 -3.533,5.018741 0,2.217429 2.339,3.045558 3.1187,3.314613 l 2.4851,0.876 z m 4.5318,-15.860942 c -0.1948,0.04892 -0.4873,0.147106 -1.4617,0.147106 -0.3898,0 -0.6823,0 -0.9747,-0.170867 0.4386,-0.121948 0.6335,-0.121948 1.1452,-0.121948 0.7553,0 0.9013,0.02446 1.2912,0.121948 l 0,0.02446 z m -1.6567,6.554798 c -0.3411,0.09679 -0.6577,0.145709 -1.4862,0.145709 -0.463,0 -0.7552,0 -1.2182,-0.145709 0.6334,-0.147106 0.8527,-0.147106 1.4131,-0.147106 0.7554,0 0.8284,0.02446 1.2913,0.121948 l 0,0.02446"
         style="fill:#000000;fill-opacity:1;fill-rule:nonzero;stroke:none;stroke-width:1.25000015;stroke-miterlimit:4;stroke-dasharray:none"
         id="path4728"
         inkscape:connector-curvature="0" />
    </g>
    <g
       id="g4730"
       transform="translate(-403.57147,22.857145)"
       style="stroke-width:1.25000015;stroke-miterlimit:4;stroke-dasharray:none">
      <path
         d="m 1162.5481,88.257422 c -0.1045,0.522874 -0.3136,1.324797 -0.3136,1.49825 0,0.627176 0.4878,0.941411 1.0106,0.941411 0.4181,0 1.0452,-0.279013 1.2891,-0.97534 0.035,-0.07041 0.4531,-1.708147 0.6621,-2.579185 l 0.7667,-3.135954 c 0.2089,-0.766631 0.4181,-1.533611 0.5923,-2.334136 0.1392,-0.59192 0.4181,-1.602447 0.4529,-1.742215 0.5228,-1.080761 2.3695,-4.250713 5.6796,-4.250713 1.568,0 1.8817,1.288317 1.8817,2.438263 0,2.160823 -1.7075,6.620141 -2.265,8.119858 -0.3135,0.800559 -0.3485,1.219097 -0.3485,1.602482 0,1.637739 1.2196,2.85694 2.8574,2.85694 3.2755,0 4.5646,-5.088032 4.5646,-5.365822 0,-0.349421 -0.3137,-0.349421 -0.4182,-0.349421 -0.3484,0 -0.3484,0.105525 -0.5226,0.627211 -0.697,2.370581 -1.8468,4.321331 -3.5541,4.321331 -0.5925,0 -0.8362,-0.348163 -0.8362,-1.150086 0,-0.871038 0.3134,-1.706889 0.6271,-2.47345 0.662,-1.846693 2.1256,-5.680196 2.1256,-7.665959 0,-2.334136 -1.4984,-3.727978 -4.0073,-3.727978 -3.136,0 -4.8432,2.229659 -5.4357,3.031581 -0.1742,-1.951868 -1.6028,-3.031581 -3.2055,-3.031581 -1.603,0 -2.265,1.358551 -2.6134,1.985763 -0.5576,1.185237 -1.0454,3.240535 -1.0454,3.379954 0,0.348024 0.3484,0.348024 0.4181,0.348024 0.3486,0 0.3833,-0.03529 0.5923,-0.800525 0.5925,-2.474953 1.2893,-4.146585 2.5437,-4.146585 0.697,0 1.0801,0.452501 1.0801,1.602447 0,0.731689 -0.1044,1.115004 -0.5573,2.927454 l -2.0211,8.047981"
         style="fill:#000000;fill-opacity:1;fill-rule:nonzero;stroke:none;stroke-width:1.25000015;stroke-miterlimit:4;stroke-dasharray:none"
         id="path4732"
         inkscape:connector-curvature="0" />
      <path
         d="m 1189.131,81.703916 c 0.4874,0.486395 1.2182,0.486395 1.6567,0.486395 0.7554,0 2.4122,0 2.4122,-0.901158 0,-0.730291 -1.267,-0.755449 -2.1685,-0.755449 -0.4141,0 -0.9744,0 -1.6079,0.243896 -0.024,-0.09679 -0.1462,-0.438873 -0.1462,-0.877398 0,-0.09679 0.049,-0.560472 0.097,-0.828129 0.024,-0.02446 0.049,-0.121948 0.049,-0.171216 0,-0.194628 -0.1706,-0.389605 -0.3899,-0.389605 -0.5604,0 -0.5604,0.926316 -0.5604,1.34108 0,0.291767 0,0.730291 0.2436,1.241844 -3.1429,1.609086 -6.7488,5.896279 -6.7488,10.257758 0,1.339892 0.3655,2.484911 1.3644,3.508052 0.804,0.804404 1.4375,0.975341 4.5316,1.925593 0.8772,0.242568 1.7788,0.535418 1.7788,1.607583 0,0.657367 -0.4142,1.437905 -1.2182,1.437905 -0.4143,0 -1.1696,-0.09805 -1.998,-0.68249 -0.1463,-0.09805 -0.1949,-0.147072 -0.3167,-0.147072 -0.2681,0 -0.3412,0.219961 -0.3412,0.341874 0,0.365775 1.4133,1.168921 2.6559,1.168921 1.7055,0 2.753,-1.729498 2.753,-2.996465 0,-1.07213 -0.6577,-1.876569 -1.5348,-2.266209 -0.2437,-0.09679 -1.3645,-0.438663 -2.0466,-0.633501 -1.8761,-0.560577 -2.5341,-0.755379 -3.1431,-1.46177 -0.6578,-0.730256 -0.9014,-1.55856 -0.9014,-2.581701 0,-3.606065 3.0211,-7.504945 5.5793,-8.868738 z m 3.1188,-0.341734 c -0.3412,0.09784 -0.7554,0.146757 -1.4374,0.146757 -0.5849,0 -0.6337,0 -0.9018,-0.146757 0.3899,-0.146058 0.7311,-0.146058 1.0966,-0.146058 0.6822,0 0.7796,0.02446 1.2426,0.121948 l 0,0.02446"
         style="fill:#000000;fill-opacity:1;fill-rule:nonzero;stroke:none;stroke-width:1.25000015;stroke-miterlimit:4;stroke-dasharray:none"
         id="path4734"
         inkscape:connector-curvature="0" />
    </g>
    <g
       id="g4736"
       transform="translate(-605.08144,-245.4671)"
       style="stroke-width:1.25000015;stroke-miterlimit:4;stroke-dasharray:none">
      <path
         d="m 1174.2558,379.46337 c 1.0802,0 1.1151,-0.0349 1.4636,-0.69696 l 19.0599,-39.7923 c 0.2438,-0.45285 0.2438,-0.52259 0.2438,-0.62707 0,-0.38335 -0.2789,-0.69695 -0.6969,-0.69695 -0.4529,0 -0.5924,0.3136 -0.7666,0.69695 l -17.9796,37.49255 -7.4219,-17.28278 -4.8435,3.72837 0.5228,0.55732 2.474,-1.88149 7.9444,18.50236"
         style="fill:#000000;fill-opacity:1;fill-rule:nonzero;stroke:none;stroke-width:1.25000015;stroke-miterlimit:4;stroke-dasharray:none"
         id="path4738"
         inkscape:connector-curvature="0" />
      <g
         id="g4740"
         transform="matrix(0.01256911,0,0,-0.01256911,1158.9665,436.05229)"
         style="stroke-width:99.45017181;stroke-miterlimit:4;stroke-dasharray:none">
        <path
           d="m 2810.86,7773.16 6929.7,0"
           style="fill:none;stroke:#000000;stroke-width:99.45017181;stroke-linecap:butt;stroke-linejoin:miter;stroke-miterlimit:4;stroke-dasharray:none;stroke-opacity:1"
           id="path4742"
           inkscape:connector-curvature="0" />
      </g>
      <path
         d="m 1199.2114,360.8978 c 1.1497,0.48793 2.1604,0.48793 2.9966,0.48793 0.906,0 2.8223,0 2.8223,-1.0802 0,-0.8362 -1.2196,-0.94078 -2.5436,-0.94078 -0.7318,0 -1.9513,0.0696 -3.2405,0.66215 -0.8015,-0.41819 -1.3938,-1.08045 -1.3938,-2.02112 0,-2.12557 3.4147,-3.37996 6.5507,-3.37996 0.5575,0 1.8118,0 3.2056,0.97573 0.3834,0.27866 0.4531,0.34841 0.6971,0.34841 0.4528,0 0.9407,-0.45286 0.9407,-0.94079 0,-0.66201 -2.1256,-1.98604 -4.4949,-1.98604 -4.0071,0 -7.7702,2.33445 -7.7702,4.98265 0,1.49825 1.2544,2.36939 1.3935,2.47397 -2.0558,1.14981 -3.1707,3.10119 -3.1707,4.70398 0,2.26495 1.9861,4.39028 5.6797,4.39028 4.5995,0 6.5507,-3.06625 6.5507,-3.58888 0,-0.20913 -0.1742,-0.34841 -0.3832,-0.34841 -0.1744,0 -0.2789,0.13928 -0.3485,0.24397 -0.488,0.80129 -1.3242,2.09062 -5.5053,2.09062 -2.1256,0 -5.0873,-0.52263 -5.0873,-2.9966 0,-1.18475 0.9755,-3.03155 3.1011,-4.07691 z m 1.1497,-0.45285 c 0.8015,-0.27891 1.5332,-0.31361 2.1256,-0.31361 0.8711,0 1.0104,0.0346 1.6377,0.20889 -0.5226,0.24396 -0.5924,0.27891 -1.9164,0.27891 -0.7666,0 -1.1846,0 -1.8469,-0.17419"
         style="fill:#000000;fill-opacity:1;fill-rule:nonzero;stroke:none;stroke-width:1.25000015;stroke-miterlimit:4;stroke-dasharray:none"
         id="path4744"
         inkscape:connector-curvature="0" />
      <path
         d="m 1228.6764,357.55342 -16.4703,0 -0.5115,5.60367 0.8283,0 c 0.3411,-4.21493 1.0476,-4.72649 4.7999,-4.72649 0.4871,0 1.1938,0 1.4373,0.0241 0.536,0.0974 0.536,0.36553 0.536,0.92587 l 0,12.64514 c 0,0.80406 0,1.12081 -2.5339,1.12081 l -1.0232,0 0,0.87704 c 1.1938,-0.0974 3.4597,-0.0974 4.7267,-0.0974 1.2668,0 3.5085,0 4.7023,0.0974 l 0,-0.87704 -1.0234,0 c -2.5339,0 -2.5339,-0.31675 -2.5339,-1.12081 l 0,-12.64514 c 0,-0.56034 0,-0.82845 0.5361,-0.92587 0.2437,-0.0241 0.9502,-0.0241 1.4375,-0.0241 1.3644,0 2.4122,0 3.2648,0.4872 1.0964,0.658 1.267,2.21705 1.2913,2.3391 l 0.2194,1.90019 0.8283,0 -0.5117,-5.60367"
         style="fill:#000000;fill-opacity:1;fill-rule:nonzero;stroke:none;stroke-width:1.25000015;stroke-miterlimit:4;stroke-dasharray:none"
         id="path4746"
         inkscape:connector-curvature="0" />
      <path
         d="m 1247.4405,343.99824 c 0.1745,-0.45285 0.1745,-0.59224 0.1745,-0.62708 0,-0.38335 -0.3138,-0.69695 -0.6971,-0.69695 -0.2439,0 -0.4878,0.10472 -0.5923,0.3136 l -12.0911,33.20686 c -0.1742,0.45285 -0.1742,0.59223 -0.1742,0.62707 0,0.38335 0.3136,0.69696 0.697,0.69696 0.4528,0 0.5574,-0.24386 0.7665,-0.83634 l 11.9167,-32.68412"
         style="fill:#000000;fill-opacity:1;fill-rule:nonzero;stroke:none;stroke-width:1.25000015;stroke-miterlimit:4;stroke-dasharray:none"
         id="path4748"
         inkscape:connector-curvature="0" />
      <path
         d="m 1254.4652,360.8978 c 1.1497,0.48793 2.1604,0.48793 2.9966,0.48793 0.906,0 2.8223,0 2.8223,-1.0802 0,-0.8362 -1.2196,-0.94078 -2.5436,-0.94078 -0.7318,0 -1.9513,0.0696 -3.2404,0.66215 -0.8016,-0.41819 -1.3938,-1.08045 -1.3938,-2.02112 0,-2.12557 3.4146,-3.37996 6.5506,-3.37996 0.5576,0 1.8118,0 3.2056,0.97573 0.3834,0.27866 0.4531,0.34841 0.6971,0.34841 0.4529,0 0.9407,-0.45286 0.9407,-0.94079 0,-0.66201 -2.1256,-1.98604 -4.4949,-1.98604 -4.0071,0 -7.7702,2.33445 -7.7702,4.98265 0,1.49825 1.2544,2.36939 1.3935,2.47397 -2.0557,1.14981 -3.1706,3.10119 -3.1706,4.70398 0,2.26495 1.986,4.39028 5.6796,4.39028 4.5995,0 6.5507,-3.06625 6.5507,-3.58888 0,-0.20913 -0.1741,-0.34841 -0.3832,-0.34841 -0.1743,0 -0.2789,0.13928 -0.3485,0.24397 -0.488,0.80129 -1.3242,2.09062 -5.5053,2.09062 -2.1256,0 -5.0874,-0.52263 -5.0874,-2.9966 0,-1.18475 0.9757,-3.03155 3.1012,-4.07691 z m 1.1497,-0.45285 c 0.8016,-0.27891 1.5332,-0.31361 2.1256,-0.31361 0.8712,0 1.0104,0.0346 1.6377,0.20889 -0.5226,0.24396 -0.5923,0.27891 -1.9164,0.27891 -0.7666,0 -1.1846,0 -1.8469,-0.17419"
         style="fill:#000000;fill-opacity:1;fill-rule:nonzero;stroke:none;stroke-width:1.25000015;stroke-miterlimit:4;stroke-dasharray:none"
         id="path4750"
         inkscape:connector-curvature="0" />
      <path
         d="m 1278.3508,366.2515 c 0,-2.68014 -0.3167,-4.60482 -1.4375,-6.31035 -0.7553,-1.12077 -2.2658,-2.09551 -4.2149,-2.09551 -5.6526,0 -5.6526,6.65169 -5.6526,8.40586 0,1.75413 0,8.25952 5.6526,8.25952 5.6524,0 5.6524,-6.50539 5.6524,-8.25952 z m -5.6524,7.57741 c -1.121,0 -2.607,-0.65789 -3.0944,-2.65585 -0.341,-1.43755 -0.341,-3.43526 -0.341,-5.23831 0,-1.77853 0,-3.63035 0.3654,-4.97032 0.5116,-1.92485 2.0711,-2.43641 3.07,-2.43641 1.3156,0 2.5824,0.80392 3.0211,2.21708 0.3897,1.31571 0.4141,3.06998 0.4141,5.18965 0,1.80305 0,3.60596 -0.3166,5.14089 -0.4874,2.21705 -2.1441,2.75327 -3.1186,2.75327"
         style="fill:#000000;fill-opacity:1;fill-rule:nonzero;stroke:none;stroke-width:1.25000015;stroke-miterlimit:4;stroke-dasharray:none"
         id="path4752"
         inkscape:connector-curvature="0" />
    </g>
    <g
       id="g4754"
       transform="translate(-749.53327,21.213206)"
       style="stroke-width:1.25000015;stroke-miterlimit:4;stroke-dasharray:none">
      <path
         d="m 1174.2558,435.15713 c 1.0802,0 1.1151,-0.0349 1.4636,-0.69699 l 19.0599,-39.79229 c 0.2438,-0.45285 0.2438,-0.52263 0.2438,-0.62707 0,-0.38335 -0.2789,-0.69696 -0.6969,-0.69696 -0.4529,0 -0.5924,0.31361 -0.7666,0.69696 l -17.9796,37.49253 -7.4219,-17.28277 -4.8435,3.72837 0.5228,0.55732 2.474,-1.88147 7.9444,18.50237"
         style="fill:#000000;fill-opacity:1;fill-rule:nonzero;stroke:none;stroke-width:1.25000015;stroke-miterlimit:4;stroke-dasharray:none"
         id="path4756"
         inkscape:connector-curvature="0" />
      <g
         id="g4758"
         transform="matrix(0.01256911,0,0,-0.01256911,1158.9665,436.05229)"
         style="stroke-width:99.45017181;stroke-miterlimit:4;stroke-dasharray:none">
        <path
           d="m 2810.86,3341.84 6837.41,0"
           style="fill:none;stroke:#000000;stroke-width:99.45017181;stroke-linecap:butt;stroke-linejoin:miter;stroke-miterlimit:4;stroke-dasharray:none;stroke-opacity:1"
           id="path4760"
           inkscape:connector-curvature="0" />
      </g>
      <path
         d="m 1199.2114,416.59153 c 1.1497,0.48794 2.1604,0.48794 2.9966,0.48794 0.906,0 2.8223,0 2.8223,-1.08019 0,-0.83623 -1.2196,-0.9408 -2.5436,-0.9408 -0.7318,0 -1.9513,0.0696 -3.2405,0.66214 -0.8015,-0.41818 -1.3938,-1.08044 -1.3938,-2.02111 0,-2.12556 3.4147,-3.37996 6.5507,-3.37996 0.5575,0 1.8118,0 3.2056,0.97574 0.3834,0.27866 0.4531,0.34841 0.6971,0.34841 0.4528,0 0.9407,-0.45286 0.9407,-0.9408 0,-0.66201 -2.1256,-1.98604 -4.4949,-1.98604 -4.0071,0 -7.7702,2.33446 -7.7702,4.98265 0,1.49823 1.2544,2.3694 1.3935,2.47398 -2.0558,1.14982 -3.1707,3.10117 -3.1707,4.70399 0,2.26495 1.9861,4.39031 5.6797,4.39031 4.5995,0 6.5507,-3.06628 6.5507,-3.58891 0,-0.20915 -0.1742,-0.34841 -0.3832,-0.34841 -0.1744,0 -0.2789,0.13926 -0.3485,0.24396 -0.488,0.80128 -1.3242,2.09061 -5.5053,2.09061 -2.1256,0 -5.0873,-0.52261 -5.0873,-2.99659 0,-1.18476 0.9755,-3.03154 3.1011,-4.07692 z m 1.1497,-0.45286 c 0.8015,-0.27891 1.5332,-0.3136 2.1256,-0.3136 0.8711,0 1.0104,0.0347 1.6377,0.2089 -0.5226,0.24397 -0.5924,0.27891 -1.9164,0.27891 -0.7666,0 -1.1846,0 -1.8469,-0.17421"
         style="fill:#000000;fill-opacity:1;fill-rule:nonzero;stroke:none;stroke-width:1.25000015;stroke-miterlimit:4;stroke-dasharray:none"
         id="path4762"
         inkscape:connector-curvature="0" />
      <path
         d="m 1216.7622,422.17712 4.4344,0 c 3.5329,0 6.3104,-2.04675 6.3104,-4.50753 0,-2.41189 -2.7289,-4.58044 -6.3104,-4.58044 l -9.2586,0 0,0.87708 0.5849,0 c 1.8759,0 1.9248,0.24371 1.9248,1.0964 l 0,12.69384 c 0,0.8284 -0.049,1.09647 -1.9248,1.09647 l -0.5849,0 0,0.87709 c 1.2182,-0.0487 2.7777,-0.0974 3.6547,-0.0974 0.9016,0 2.4608,0.0487 3.679,0.0974 l 0,-0.87709 -0.5846,0 c -1.8762,0 -1.9249,-0.24373 -1.9249,-1.09647 l 0,-5.57935 z m 3.8254,-8.21089 c 4.0689,0 4.3123,2.29034 4.3123,3.70336 0,1.07214 0,3.72787 -4.3123,3.72787 l -3.9228,0 0,-6.48089 c 0,-0.7554 0.024,-0.95034 1.1695,-0.95034 l 2.7533,0"
         style="fill:#000000;fill-opacity:1;fill-rule:nonzero;stroke:none;stroke-width:1.25000015;stroke-miterlimit:4;stroke-dasharray:none"
         id="path4764"
         inkscape:connector-curvature="0" />
      <path
         d="m 1246.2841,399.69197 c 0.1745,-0.45285 0.1745,-0.59223 0.1745,-0.62707 0,-0.38335 -0.3137,-0.69695 -0.6971,-0.69695 -0.2438,0 -0.4878,0.10472 -0.5923,0.3136 l -12.0911,33.20683 c -0.1742,0.45288 -0.1742,0.59232 -0.1742,0.62708 0,0.38335 0.3136,0.69699 0.697,0.69699 0.4529,0 0.5574,-0.24392 0.7666,-0.83642 l 11.9166,-32.68406"
         style="fill:#000000;fill-opacity:1;fill-rule:nonzero;stroke:none;stroke-width:1.25000015;stroke-miterlimit:4;stroke-dasharray:none"
         id="path4766"
         inkscape:connector-curvature="0" />
      <path
         d="m 1253.2963,416.59153 c 1.1497,0.48794 2.1604,0.48794 2.9966,0.48794 0.906,0 2.8223,0 2.8223,-1.08019 0,-0.83623 -1.2196,-0.9408 -2.5436,-0.9408 -0.7318,0 -1.9513,0.0696 -3.2405,0.66214 -0.8015,-0.41818 -1.3938,-1.08044 -1.3938,-2.02111 0,-2.12556 3.4147,-3.37996 6.5507,-3.37996 0.5575,0 1.8118,0 3.2056,0.97574 0.3833,0.27866 0.4531,0.34841 0.6971,0.34841 0.4528,0 0.9406,-0.45286 0.9406,-0.9408 0,-0.66201 -2.1255,-1.98604 -4.4948,-1.98604 -4.0071,0 -7.7702,2.33446 -7.7702,4.98265 0,1.49823 1.2544,2.3694 1.3935,2.47398 -2.0558,1.14982 -3.1707,3.10117 -3.1707,4.70399 0,2.26495 1.9861,4.39031 5.6796,4.39031 4.5996,0 6.5508,-3.06628 6.5508,-3.58891 0,-0.20915 -0.1742,-0.34841 -0.3832,-0.34841 -0.1744,0 -0.2789,0.13926 -0.3485,0.24396 -0.488,0.80128 -1.3242,2.09061 -5.5053,2.09061 -2.1256,0 -5.0874,-0.52261 -5.0874,-2.99659 0,-1.18476 0.9756,-3.03154 3.1012,-4.07692 z m 1.1497,-0.45286 c 0.8015,-0.27891 1.5332,-0.3136 2.1256,-0.3136 0.8711,0 1.0104,0.0347 1.6377,0.2089 -0.5226,0.24397 -0.5924,0.27891 -1.9164,0.27891 -0.7666,0 -1.1846,0 -1.8469,-0.17421"
         style="fill:#000000;fill-opacity:1;fill-rule:nonzero;stroke:none;stroke-width:1.25000015;stroke-miterlimit:4;stroke-dasharray:none"
         id="path4768"
         inkscape:connector-curvature="0" />
      <path
         d="m 1277.1945,421.95779 c 0,-2.68011 -0.3168,-4.60482 -1.4376,-6.31032 -0.7553,-1.12079 -2.2658,-2.09552 -4.2149,-2.09552 -5.6526,0 -5.6526,6.65169 -5.6526,8.40584 0,1.75418 0,8.25949 5.6526,8.25949 5.6525,0 5.6525,-6.50531 5.6525,-8.25949 z m -5.6525,7.57741 c -1.1209,0 -2.607,-0.65791 -3.0944,-2.65581 -0.341,-1.43759 -0.341,-3.4353 -0.341,-5.23834 0,-1.77853 0,-3.63034 0.3654,-4.97033 0.5117,-1.92483 2.0711,-2.4364 3.07,-2.4364 1.3156,0 2.5824,0.80392 3.0211,2.21707 0.3898,1.31573 0.4142,3.07001 0.4142,5.18966 0,1.80304 0,3.60593 -0.3167,5.14093 -0.4874,2.21708 -2.1441,2.75322 -3.1186,2.75322"
         style="fill:#000000;fill-opacity:1;fill-rule:nonzero;stroke:none;stroke-width:1.25000015;stroke-miterlimit:4;stroke-dasharray:none"
         id="path4770"
         inkscape:connector-curvature="0" />
    </g>
    <path
       style="fill:none;fill-rule:evenodd;stroke:#000000;stroke-width:1.25000015;stroke-linecap:butt;stroke-linejoin:miter;stroke-opacity:1;stroke-miterlimit:4;stroke-dasharray:none;marker-end:url(#marker4799)"
       d="M 206.27782,324.68833 391.13574,181.75175"
       id="path4772"
       inkscape:connector-curvature="0" />
    <path
       inkscape:connector-curvature="0"
       id="path4774"
       d="M 769.49216,324.68833 954.35008,181.75175"
       style="fill:none;fill-rule:evenodd;stroke:#000000;stroke-width:1.25000015;stroke-linecap:butt;stroke-linejoin:miter;stroke-opacity:1;stroke-miterlimit:4;stroke-dasharray:none;marker-end:url(#marker4869)" />
    <path
       d="m 206.4673,283.97373 a 39.732143,39.732143 0 0 1 31.6123,15.66338"
       sodipodi:end="5.6324449"
       sodipodi:start="4.712389"
       sodipodi:ry="39.732143"
       sodipodi:rx="39.732143"
       sodipodi:cy="323.70587"
       sodipodi:cx="206.4673"
       sodipodi:type="arc"
       id="path4778"
       style="opacity:1;fill:none;fill-opacity:1;stroke:#000000;stroke-width:1.25000015;stroke-miterlimit:4;stroke-dasharray:none;stroke-dashoffset:0;stroke-opacity:1"
       sodipodi:open="true" />
    <path
       sodipodi:open="true"
       style="opacity:1;fill:none;fill-opacity:1;stroke:#000000;stroke-width:1.25000015;stroke-miterlimit:4;stroke-dasharray:none;stroke-dashoffset:0;stroke-opacity:1"
       id="path4789"
       sodipodi:type="arc"
       sodipodi:cx="769.50305"
       sodipodi:cy="323.70587"
       sodipodi:rx="39.732143"
       sodipodi:ry="39.732143"
       sodipodi:start="4.712389"
       sodipodi:end="5.6324449"
       d="m 769.50305,283.97373 a 39.732143,39.732143 0 0 1 31.61231,15.66338" />
    <path
       inkscape:connector-curvature="0"
       id="path4791"
       style="fill:#000000;fill-opacity:1;fill-rule:nonzero;stroke:none;stroke-width:1.25000015;stroke-miterlimit:4;stroke-dasharray:none"
       d="m 799.86292,258.633 c 0,-2.30014 -0.6271,-7.14302 -4.1814,-7.14302 -4.8432,0 -10.2092,9.82528 -10.2092,17.80541 0,3.27551 1.0104,7.14301 4.1811,7.14301 4.9132,0 10.2095,-9.99999 10.2095,-17.8054 z m -10.6971,4.77376 c 0.5923,-2.22976 1.2891,-5.01759 2.6829,-7.49121 0.9407,-1.70812 2.2301,-3.65887 3.798,-3.65887 1.7075,0 1.9164,2.22977 1.9164,4.2157 0,1.70689 -0.2786,3.48416 -1.1148,6.93438 l -7.2825,0 z m 6.9687,1.11486 c -0.3833,1.60256 -1.115,4.56513 -2.4391,7.0739 -1.2194,2.36891 -2.5435,4.07618 -4.042,4.07618 -1.1498,0 -1.8814,-1.01046 -1.8814,-4.25089 0,-1.46303 0.209,-3.48415 1.1149,-6.89919 l 7.2476,0" />
  </g>
</svg>
