<?xml version="1.0" encoding="UTF-8" standalone="no"?>
<!-- Created with Inkscape (http://www.inkscape.org/) -->

<svg
   xmlns:dc="http://purl.org/dc/elements/1.1/"
   xmlns:cc="http://creativecommons.org/ns#"
   xmlns:rdf="http://www.w3.org/1999/02/22-rdf-syntax-ns#"
   xmlns:svg="http://www.w3.org/2000/svg"
   xmlns="http://www.w3.org/2000/svg"
   xmlns:sodipodi="http://sodipodi.sourceforge.net/DTD/sodipodi-0.dtd"
   xmlns:inkscape="http://www.inkscape.org/namespaces/inkscape"
   width="138.49757mm"
   height="150.32323mm"
   viewBox="0 0 138.49757 150.32323"
   version="1.1"
   id="svg8"
   inkscape:version="0.92.1 r15371"
   sodipodi:docname="uniaxial_nEllipse.svg">
  <defs
     id="defs2">
    <marker
       inkscape:stockid="Arrow1Lend"
       orient="auto"
       refY="0"
       refX="0"
       id="marker6794"
       style="overflow:visible"
       inkscape:isstock="true">
      <path
         inkscape:connector-curvature="0"
         id="path6792"
         d="M 0,0 5,-5 -12.5,0 5,5 Z"
         style="fill:#000000;fill-opacity:1;fill-rule:evenodd;stroke:#000000;stroke-width:1.00000003pt;stroke-opacity:1"
         transform="matrix(-0.8,0,0,-0.8,-10,0)" />
    </marker>
    <marker
       inkscape:stockid="Arrow1Lend"
       orient="auto"
       refY="0"
       refX="0"
       id="marker4695"
       style="overflow:visible"
       inkscape:isstock="true">
      <path
         inkscape:connector-curvature="0"
         id="path4693"
         d="M 0,0 5,-5 -12.5,0 5,5 Z"
         style="fill:#000000;fill-opacity:1;fill-rule:evenodd;stroke:#000000;stroke-width:1.00000003pt;stroke-opacity:1"
         transform="matrix(-0.8,0,0,-0.8,-10,0)" />
    </marker>
    <marker
       inkscape:isstock="true"
       style="overflow:visible"
       id="marker4643"
       refX="0"
       refY="0"
       orient="auto"
       inkscape:stockid="Arrow1Lend"
       inkscape:collect="always">
      <path
         transform="matrix(-0.8,0,0,-0.8,-10,0)"
         style="fill:#000000;fill-opacity:1;fill-rule:evenodd;stroke:#000000;stroke-width:1.00000003pt;stroke-opacity:1"
         d="M 0,0 5,-5 -12.5,0 5,5 Z"
         id="path4641"
         inkscape:connector-curvature="0" />
    </marker>
    <marker
       inkscape:stockid="Arrow1Lend"
       orient="auto"
       refY="0"
       refX="0"
       id="marker4597"
       style="overflow:visible"
       inkscape:isstock="true"
       inkscape:collect="always">
      <path
         inkscape:connector-curvature="0"
         id="path4595"
         d="M 0,0 5,-5 -12.5,0 5,5 Z"
         style="fill:#000000;fill-opacity:1;fill-rule:evenodd;stroke:#000000;stroke-width:1.00000003pt;stroke-opacity:1"
         transform="matrix(-0.8,0,0,-0.8,-10,0)" />
    </marker>
    <marker
       inkscape:isstock="true"
       style="overflow:visible"
       id="marker4813"
       refX="0"
       refY="0"
       orient="auto"
       inkscape:stockid="Arrow1Lend"
       inkscape:collect="always">
      <path
         transform="matrix(-0.8,0,0,-0.8,-10,0)"
         style="fill:#000000;fill-opacity:1;fill-rule:evenodd;stroke:#000000;stroke-width:1.00000003pt;stroke-opacity:1"
         d="M 0,0 5,-5 -12.5,0 5,5 Z"
         id="path4811"
         inkscape:connector-curvature="0" />
    </marker>
    <marker
       inkscape:stockid="Arrow1Lend"
       orient="auto"
       refY="0"
       refX="0"
       id="marker4779"
       style="overflow:visible"
       inkscape:isstock="true"
       inkscape:collect="always">
      <path
         id="path4777"
         d="M 0,0 5,-5 -12.5,0 5,5 Z"
         style="fill:#000000;fill-opacity:1;fill-rule:evenodd;stroke:#000000;stroke-width:1.00000003pt;stroke-opacity:1"
         transform="matrix(-0.8,0,0,-0.8,-10,0)"
         inkscape:connector-curvature="0" />
    </marker>
    <marker
       inkscape:stockid="Arrow1Lend"
       orient="auto"
       refY="0"
       refX="0"
       id="Arrow1Lend"
       style="overflow:visible"
       inkscape:isstock="true">
      <path
         id="path4498"
         d="M 0,0 5,-5 -12.5,0 5,5 Z"
         style="fill:#000000;fill-opacity:1;fill-rule:evenodd;stroke:#000000;stroke-width:1.00000003pt;stroke-opacity:1"
         transform="matrix(-0.8,0,0,-0.8,-10,0)"
         inkscape:connector-curvature="0" />
    </marker>
  </defs>
  <sodipodi:namedview
     id="base"
     pagecolor="#ffffff"
     bordercolor="#666666"
     borderopacity="1.0"
     inkscape:pageopacity="0.0"
     inkscape:pageshadow="2"
     inkscape:zoom="3.959798"
     inkscape:cx="412.89617"
     inkscape:cy="132.13629"
     inkscape:document-units="mm"
     inkscape:current-layer="layer1"
     showgrid="false"
     inkscape:window-width="1920"
     inkscape:window-height="1027"
     inkscape:window-x="-8"
     inkscape:window-y="-8"
     inkscape:window-maximized="1"
     fit-margin-left="1"
     fit-margin-bottom="1"
     fit-margin-right="1"
     fit-margin-top="1" />
  <metadata
     id="metadata5">
    <rdf:RDF>
      <cc:Work
         rdf:about="">
        <dc:format>image/svg+xml</dc:format>
        <dc:type
           rdf:resource="http://purl.org/dc/dcmitype/StillImage" />
        <dc:title />
      </cc:Work>
    </rdf:RDF>
  </metadata>
  <g
     inkscape:label="レイヤー 1"
     inkscape:groupmode="layer"
     id="layer1"
     transform="translate(-38.66006,-17.978386)">
    <ellipse
       style="opacity:1;fill:#000000;fill-opacity:0.21359223;stroke:#000000;stroke-width:0.26458333;stroke-miterlimit:4;stroke-dasharray:0.79375,0.79375;stroke-dashoffset:0;stroke-opacity:1"
       id="path4487"
       transform="rotate(34.596374)"
       cx="142.59143"
       cy="24.824812"
       rx="35.118145"
       ry="16.558294" />
    <ellipse
       style="opacity:1;fill:none;fill-opacity:1;stroke:#000000;stroke-width:0.35277778;stroke-miterlimit:4;stroke-dasharray:none;stroke-dashoffset:0;stroke-opacity:1"
       id="path4485"
       cx="103.62853"
       cy="101.15805"
       rx="31.538349"
       ry="65.367218" />
    <path
       style="fill:none;stroke:#000000;stroke-width:0.35277778;stroke-linecap:butt;stroke-linejoin:miter;stroke-miterlimit:4;stroke-dasharray:none;stroke-opacity:1;marker-end:url(#Arrow1Lend)"
       d="m 103.62853,101.15805 33.2502,-48.157781"
       id="path4489"
       inkscape:connector-curvature="0" />
    <path
       inkscape:connector-curvature="0"
       id="path4491"
       d="m 103.57894,101.03626 40.6572,32.00446"
       style="fill:none;stroke:#000000;stroke-width:0.26458333;stroke-linecap:butt;stroke-linejoin:miter;stroke-miterlimit:4;stroke-dasharray:none;stroke-opacity:1;marker-end:url(#marker4779)" />
    <path
       style="fill:none;stroke:#000000;stroke-width:0.26458333;stroke-linecap:butt;stroke-linejoin:miter;stroke-miterlimit:4;stroke-dasharray:none;stroke-opacity:1;marker-end:url(#marker4813)"
       d="m 103.37909,101.31383 -35.341641,23.0504"
       id="path4493"
       inkscape:connector-curvature="0" />
    <path
       style="fill:none;stroke:#000000;stroke-width:0.35277778;stroke-linecap:butt;stroke-linejoin:miter;stroke-miterlimit:4;stroke-dasharray:none;stroke-opacity:1;marker-end:url(#marker4597)"
       d="m 103.532,101.07939 h 66.63198"
       id="path4583"
       inkscape:connector-curvature="0" />
    <path
       style="fill:none;stroke:#000000;stroke-width:0.35277778;stroke-linecap:butt;stroke-linejoin:miter;stroke-opacity:1;marker-end:url(#marker4643);stroke-miterlimit:4;stroke-dasharray:none"
       d="M 103.60627,101.06104 V 27.333793"
       id="path4585"
       inkscape:connector-curvature="0" />
    <path
       style="fill:none;stroke:#000000;stroke-width:0.35277778;stroke-linecap:butt;stroke-linejoin:miter;stroke-opacity:1;marker-end:url(#marker4695);stroke-miterlimit:4;stroke-dasharray:none"
       d="M 103.62449,101.01006 55.861254,118.07853"
       id="path4587"
       inkscape:connector-curvature="0" />
    <ellipse
       style="opacity:1;fill:#000000;fill-opacity:0;stroke:#000000;stroke-width:0.17638889;stroke-miterlimit:4;stroke-dasharray:none;stroke-dashoffset:0;stroke-opacity:1"
       id="path4814"
       cx="103.62853"
       cy="101.15805"
       rx="31.309486"
       ry="11.217612" />
    <circle
       style="opacity:1;fill:#000000;fill-opacity:1;stroke:#000000;stroke-width:0.11288889;stroke-miterlimit:4;stroke-dasharray:none;stroke-dashoffset:0;stroke-opacity:1"
       id="path4825"
       cx="80.59391"
       cy="109.25477"
       r="0.86862594" />
    <circle
       r="0.86862594"
       cy="101.04279"
       cx="135.15823"
       id="circle4827"
       style="opacity:1;fill:#000000;fill-opacity:1;stroke:#000000;stroke-width:0.11288889;stroke-miterlimit:4;stroke-dasharray:none;stroke-dashoffset:0;stroke-opacity:1" />
    <circle
       style="opacity:1;fill:#000000;fill-opacity:1;stroke:#000000;stroke-width:0.11288889;stroke-miterlimit:4;stroke-dasharray:none;stroke-dashoffset:0;stroke-opacity:1"
       id="circle4829"
       cx="88.452888"
       cy="111.13222"
       r="0.86862594" />
    <circle
       style="opacity:1;fill:#000000;fill-opacity:1;stroke:#000000;stroke-width:0.11288889;stroke-miterlimit:4;stroke-dasharray:none;stroke-dashoffset:0;stroke-opacity:1"
       id="circle4831"
       cx="103.5101"
       cy="36.015114"
       r="0.86862594" />
    <circle
       r="0.86862594"
       cy="166.37654"
       cx="103.55095"
       id="circle5361"
       style="opacity:1;fill:#000000;fill-opacity:1;stroke:#000000;stroke-width:0.11288889;stroke-miterlimit:4;stroke-dasharray:none;stroke-dashoffset:0;stroke-opacity:1" />
    <path
       style="opacity:1;fill:none;fill-opacity:1;stroke:#000000;stroke-width:0.17638889;stroke-miterlimit:4;stroke-dasharray:none;stroke-dashoffset:0;stroke-opacity:1"
       id="path5573"
       sodipodi:type="arc"
       sodipodi:cx="-103.532"
       sodipodi:cy="101.07939"
       sodipodi:rx="29.544518"
       sodipodi:ry="65.466873"
       sodipodi:start="0.87305154"
       sodipodi:end="5.4434699"
       d="m -84.549906,151.2462 a 29.544518,65.466873 0 0 1 -40.698544,-5.77883 29.544518,65.466873 0 0 1 0.67973,-90.355166 29.544518,65.466873 0 0 1 40.76285,-2.769831"
       transform="scale(-1,1)"
       sodipodi:open="true" />
    <path
       d="M 108.10988,163.78927 A 15.393337,65.466873 0 0 1 91.475395,141.33784 15.393337,65.466873 0 0 1 90.462177,67.240544 15.393337,65.466873 0 0 1 106.37259,36.739763"
       sodipodi:end="4.8916094"
       sodipodi:start="1.2753962"
       sodipodi:ry="65.466873"
       sodipodi:rx="15.393337"
       sodipodi:cy="101.15805"
       sodipodi:cx="103.62853"
       sodipodi:type="arc"
       id="path5917"
       style="opacity:1;fill:none;fill-opacity:1;stroke:#000000;stroke-width:0.17638889;stroke-miterlimit:4;stroke-dasharray:none;stroke-dashoffset:0;stroke-opacity:1"
       sodipodi:open="true" />
    <circle
       style="opacity:1;fill:#000000;fill-opacity:1;stroke:#000000;stroke-width:0.11288889;stroke-miterlimit:4;stroke-dasharray:none;stroke-dashoffset:0;stroke-opacity:1"
       id="circle5919"
       cx="131.2562"
       cy="122.82607"
       r="0.86862594" />
    <circle
       r="0.86862594"
       cy="65.655861"
       cx="128.3562"
       id="circle5921"
       style="opacity:1;fill:#000000;fill-opacity:1;stroke:#000000;stroke-width:0.11288889;stroke-miterlimit:4;stroke-dasharray:none;stroke-dashoffset:0;stroke-opacity:1" />
    <circle
       r="0.86862594"
       cy="105.25229"
       cx="132.81963"
       id="circle5923"
       style="opacity:1;fill:#000000;fill-opacity:1;stroke:#000000;stroke-width:0.11288889;stroke-miterlimit:4;stroke-dasharray:none;stroke-dashoffset:0;stroke-opacity:1" />
    <g
       id="g6052"
       transform="translate(-25.085995,74.015485)">
      <path
         d="m 171.13419,64.373464 c -0.0286,0.114078 -0.0357,0.121288 -0.1642,0.135451 -0.12136,0.0072 -0.26411,0.0072 -0.37834,0.0072 -0.18561,0 -0.1999,0 -0.22846,0.01416 -0.0857,0.05021 -0.0857,0.164292 -0.0857,0.192876 0,0.128498 0.12852,0.128498 0.24275,0.128498 h 2.79127 c 2.04881,0 3.191,-1.684894 3.191,-3.133909 0,-1.235022 -0.9066,-1.763435 -1.9703,-1.763435 h -2.84838 c -0.14276,0 -0.26411,0 -0.26411,0.207296 0,0.128241 0.0928,0.128241 0.2998,0.128241 0.14991,0 0.28555,0.0072 0.43547,0.01442 z m 1.94888,-3.954854 c 0.0286,-0.107124 0.0357,-0.114335 0.0785,-0.121545 0.0643,-0.0072 0.11424,-0.0072 0.19272,-0.0072 h 0.81382 c 0.20706,0 0.68534,0.02163 1.02801,0.29279 0.35693,0.299743 0.35693,0.721031 0.35693,0.885323 0,0.499571 -0.26413,1.484808 -0.4569,1.884465 -0.41403,0.835366 -1.15646,1.163692 -1.97743,1.163692 h -0.8852 c -0.10707,0 -0.12135,0 -0.17132,-0.0072 l 1.02083,-4.090305"
         style="fill:#000000;fill-opacity:1;fill-rule:nonzero;stroke:none;stroke-width:0.00257511"
         id="path5937"
         inkscape:connector-curvature="0" />
      <path
         d="m 178.85704,64.782134 c 0.10485,0 0.13977,0 0.13977,-0.109699 0,-0.439314 -0.24461,-0.978285 -0.98835,-0.978285 -0.65392,0 -1.15311,0.519142 -1.15311,1.133049 0,0.633992 0.55411,1.143091 1.218,1.143091 0.67388,0 0.92346,-0.539228 0.92346,-0.648928 0,-0.02009 -0.01,-0.07004 -0.0849,-0.07004 -0.0649,0 -0.0749,0.03013 -0.0898,0.08009 -0.15474,0.404292 -0.53413,0.479228 -0.71382,0.479228 -0.23457,0 -0.45922,-0.105064 -0.60896,-0.294592 -0.18469,-0.234593 -0.18968,-0.539228 -0.18968,-0.733907 z m -1.54242,-0.129785 c 0.0549,-0.703778 0.50416,-0.818628 0.69384,-0.818628 0.61396,0 0.63394,0.693992 0.63894,0.818628 h -1.33278"
         style="fill:#000000;fill-opacity:1;fill-rule:nonzero;stroke:none;stroke-width:0.00257511"
         id="path5939"
         inkscape:connector-curvature="0" />
    </g>
    <g
       id="g6056"
       transform="translate(-112.38683,53.053001)">
      <path
         d="m 171.13419,75.783777 c -0.0286,0.114077 -0.0357,0.121287 -0.1642,0.13545 -0.12136,0.0072 -0.26411,0.0072 -0.37834,0.0072 -0.18561,0 -0.1999,0 -0.22846,0.01416 -0.0857,0.05021 -0.0857,0.164292 -0.0857,0.192876 0,0.128498 0.12852,0.128498 0.24275,0.128498 h 2.79127 c 2.04881,0 3.191,-1.684895 3.191,-3.133909 0,-1.235023 -0.9066,-1.763436 -1.9703,-1.763436 h -2.84838 c -0.14276,0 -0.26411,0 -0.26411,0.207297 0,0.12824 0.0928,0.12824 0.2998,0.12824 0.14991,0 0.28555,0.0072 0.43547,0.01442 z m 1.94888,-3.954854 c 0.0286,-0.107125 0.0357,-0.114335 0.0785,-0.121545 0.0643,-0.0072 0.11424,-0.0072 0.19272,-0.0072 h 0.81382 c 0.20706,0 0.68534,0.02163 1.02801,0.29279 0.35693,0.299743 0.35693,0.721031 0.35693,0.885323 0,0.499571 -0.26413,1.484808 -0.4569,1.884466 -0.41403,0.835365 -1.15646,1.163692 -1.97743,1.163692 h -0.8852 c -0.10707,0 -0.12135,0 -0.17132,-0.0072 l 1.02083,-4.090304"
         style="fill:#000000;fill-opacity:1;fill-rule:nonzero;stroke:none;stroke-width:0.00257511"
         id="path5941"
         inkscape:connector-curvature="0" />
      <path
         d="m 179.30132,76.269957 c 0,-0.623949 -0.53413,-1.162919 -1.22297,-1.162919 -0.68884,0 -1.223,0.53897 -1.223,1.162919 0,0.619057 0.54912,1.11322 1.223,1.11322 0.67385,0 1.22297,-0.494163 1.22297,-1.11322 z m -1.22297,0.953564 c -0.18469,0 -0.45423,-0.06 -0.61896,-0.304636 -0.1348,-0.204721 -0.14976,-0.464292 -0.14976,-0.693734 0,-0.214765 0.005,-0.5091 0.17969,-0.723864 0.12476,-0.144721 0.33445,-0.254678 0.58903,-0.254678 0.29449,0 0.50415,0.139828 0.61396,0.294592 0.13977,0.194679 0.15473,0.444207 0.15473,0.68395 0,0.239485 -0.015,0.504206 -0.15973,0.70867 -0.13476,0.189785 -0.36438,0.2897 -0.60896,0.2897"
         style="fill:#000000;fill-opacity:1;fill-rule:nonzero;stroke:none;stroke-width:0.00257511"
         id="path5943"
         inkscape:connector-curvature="0" />
    </g>
    <g
       id="g6065"
       transform="translate(-131.0957,-16.971615)">
      <path
         d="m 172.9974,89.85804 c 0.2213,0 0.22846,-0.0072 0.29984,-0.142918 l 3.90493,-8.152283 c 0.0499,-0.09296 0.0499,-0.107125 0.0499,-0.128498 0,-0.07854 -0.0571,-0.142919 -0.14279,-0.142919 -0.0928,0 -0.12136,0.06438 -0.15705,0.142919 l -3.68359,7.681295 -1.52058,-3.540776 -0.9923,0.763778 0.10711,0.114077 0.50685,-0.385494 1.62763,3.790819"
         style="fill:#000000;fill-opacity:1;fill-rule:nonzero;stroke:none;stroke-width:0.00257511"
         id="path5945"
         inkscape:connector-curvature="0" />
      <path
         d="m 177.10303,81.433826 h 17.84476"
         style="fill:none;stroke:#000000;stroke-width:0.28527841;stroke-linecap:butt;stroke-linejoin:miter;stroke-miterlimit:10;stroke-dasharray:none;stroke-opacity:1"
         id="path5947"
         inkscape:connector-curvature="0" />
      <path
         d="m 178.1102,86.054345 c 0.23555,0.09991 0.44261,0.09991 0.61393,0.09991 0.18562,0 0.57822,0 0.57822,-0.221202 0,-0.171503 -0.24986,-0.192876 -0.52113,-0.192876 -0.14992,0 -0.39976,0.01442 -0.66388,0.135708 -0.16422,-0.08575 -0.28556,-0.221202 -0.28556,-0.414077 0,-0.435452 0.69958,-0.692448 1.34207,-0.692448 0.11423,0 0.3712,0 0.65676,0.199829 0.0785,0.05717 0.0928,0.07133 0.14281,0.07133 0.0928,0 0.19272,-0.0927 0.19272,-0.192619 0,-0.135708 -0.43547,-0.406867 -0.92088,-0.406867 -0.82097,0 -1.59193,0.478198 -1.59193,1.020774 0,0.306953 0.25699,0.485408 0.2855,0.506781 -0.42119,0.235623 -0.6496,0.635537 -0.6496,0.963864 0,0.464035 0.40689,0.899486 1.16362,0.899486 0.94233,0 1.34209,-0.628327 1.34209,-0.735194 0,-0.043 -0.0357,-0.07159 -0.0785,-0.07159 -0.0357,0 -0.0571,0.02858 -0.0714,0.04996 -0.1,0.164292 -0.27129,0.428498 -1.1279,0.428498 -0.43548,0 -1.04227,-0.107124 -1.04227,-0.613906 0,-0.242833 0.19988,-0.621116 0.63535,-0.835366 z m 0.23555,-0.0927 c 0.16421,-0.05717 0.31411,-0.06438 0.43547,-0.06438 0.17849,0 0.20702,0.0072 0.33554,0.04275 -0.10707,0.04996 -0.12136,0.05717 -0.39263,0.05717 -0.15705,0 -0.2427,0 -0.37838,-0.03554"
         style="fill:#000000;fill-opacity:1;fill-rule:nonzero;stroke:none;stroke-width:0.00257511"
         id="path5949"
         inkscape:connector-curvature="0" />
      <path
         d="m 184.14688,85.369109 h -3.37437 l -0.10481,1.148241 h 0.1697 c 0.0699,-0.863692 0.21463,-0.968499 0.98338,-0.968499 0.0998,0 0.24459,0 0.29449,0.0049 0.1098,0.02009 0.1098,0.07494 0.1098,0.189786 v 2.59056 c 0,0.164807 0,0.2297 -0.51914,0.2297 h -0.20961 v 0.179743 c 0.24458,-0.02009 0.7088,-0.02009 0.96837,-0.02009 0.25954,0 0.71881,0 0.9634,0.02009 v -0.17975 h -0.20967 c -0.51914,0 -0.51914,-0.06489 -0.51914,-0.2297 v -2.59056 c 0,-0.11485 0,-0.1697 0.10983,-0.189786 0.0499,-0.0049 0.19468,-0.0049 0.29451,-0.0049 0.27953,0 0.49419,0 0.66889,0.09991 0.22463,0.134678 0.25957,0.454249 0.26454,0.479228 l 0.045,0.389356 h 0.1697 l -0.10483,-1.148241"
         style="fill:#000000;fill-opacity:1;fill-rule:nonzero;stroke:none;stroke-width:0.00257511"
         id="path5951"
         inkscape:connector-curvature="0" />
      <path
         d="m 187.99118,82.59211 c 0.0357,-0.09296 0.0357,-0.121545 0.0357,-0.128498 0,-0.07854 -0.0643,-0.142919 -0.14282,-0.142919 -0.05,0 -0.0999,0.02163 -0.12134,0.06438 l -2.47718,6.803183 c -0.0357,0.0927 -0.0357,0.121288 -0.0357,0.128498 0,0.07854 0.0643,0.142919 0.14279,0.142919 0.0928,0 0.11421,-0.04996 0.15706,-0.171502 l 2.44143,-6.696059"
         style="fill:#000000;fill-opacity:1;fill-rule:nonzero;stroke:none;stroke-width:0.00257511"
         id="path5953"
         inkscape:connector-curvature="0" />
      <path
         d="m 189.43039,86.054345 c 0.23554,0.09991 0.44261,0.09991 0.61393,0.09991 0.18561,0 0.57821,0 0.57821,-0.221202 0,-0.171503 -0.24986,-0.192876 -0.52112,-0.192876 -0.14992,0 -0.39976,0.01442 -0.66389,0.135708 -0.16422,-0.08575 -0.28555,-0.221202 -0.28555,-0.414077 0,-0.435452 0.69958,-0.692448 1.34207,-0.692448 0.11423,0 0.3712,0 0.65675,0.199829 0.0785,0.05717 0.0928,0.07133 0.14282,0.07133 0.0928,0 0.19272,-0.0927 0.19272,-0.192619 0,-0.135708 -0.43548,-0.406867 -0.92089,-0.406867 -0.82097,0 -1.59193,0.478198 -1.59193,1.020774 0,0.306953 0.257,0.485408 0.2855,0.506781 -0.42118,0.235623 -0.64959,0.635537 -0.64959,0.963864 0,0.464035 0.40689,0.899486 1.16361,0.899486 0.94234,0 1.3421,-0.628327 1.3421,-0.735194 0,-0.043 -0.0357,-0.07159 -0.0785,-0.07159 -0.0357,0 -0.0571,0.02858 -0.0714,0.04996 -0.1,0.164292 -0.27128,0.428498 -1.1279,0.428498 -0.43547,0 -1.04227,-0.107124 -1.04227,-0.613906 0,-0.242833 0.19988,-0.621116 0.63536,-0.835366 z m 0.23554,-0.0927 c 0.16422,-0.05717 0.31411,-0.06438 0.43548,-0.06438 0.17848,0 0.20701,0.0072 0.33553,0.04275 -0.10707,0.04996 -0.12136,0.05717 -0.39262,0.05717 -0.15706,0 -0.24271,0 -0.37839,-0.03554"
         style="fill:#000000;fill-opacity:1;fill-rule:nonzero;stroke:none;stroke-width:0.00257511"
         id="path5955"
         inkscape:connector-curvature="0" />
      <path
         d="m 194.32397,87.151085 c 0,-0.549014 -0.0649,-0.943263 -0.29451,-1.292705 -0.15474,-0.2297 -0.46422,-0.429271 -0.86354,-0.429271 -1.15808,0 -1.15808,1.362748 -1.15808,1.721976 0,0.359485 0,1.692362 1.15808,1.692362 1.15805,0 1.15805,-1.332877 1.15805,-1.692362 z m -1.15805,1.552534 c -0.22965,0 -0.53411,-0.134679 -0.63397,-0.544121 -0.0699,-0.294593 -0.0699,-0.703778 -0.0699,-1.073306 0,-0.364378 0,-0.743692 0.0749,-1.018199 0.10483,-0.394249 0.42432,-0.499056 0.62897,-0.499056 0.26953,0 0.52908,0.16455 0.61895,0.453992 0.0799,0.269614 0.0848,0.629099 0.0848,1.063263 0,0.369528 0,0.738799 -0.0649,1.053477 -0.0999,0.453992 -0.43928,0.56395 -0.63893,0.56395"
         style="fill:#000000;fill-opacity:1;fill-rule:nonzero;stroke:none;stroke-width:0.00257511"
         id="path5957"
         inkscape:connector-curvature="0" />
    </g>
    <g
       id="g6074"
       transform="translate(-97.820647,-64.679226)">
      <path
         d="m 172.9974,101.2683 c 0.2213,0 0.22846,-0.007 0.29984,-0.14279 l 3.90493,-8.152359 c 0.0499,-0.09296 0.0499,-0.107125 0.0499,-0.128498 0,-0.07854 -0.0571,-0.142919 -0.14279,-0.142919 -0.0928,0 -0.12136,0.06438 -0.15705,0.142919 l -3.68359,7.681217 -1.52058,-3.540698 -0.9923,0.763726 0.10711,0.114181 0.50685,-0.385546 1.62763,3.790767"
         style="fill:#000000;fill-opacity:1;fill-rule:nonzero;stroke:none;stroke-width:0.00257511"
         id="path5959"
         inkscape:connector-curvature="0" />
      <path
         d="m 177.10303,92.84491 h 17.60708"
         style="fill:none;stroke:#000000;stroke-width:0.28527841;stroke-linecap:butt;stroke-linejoin:miter;stroke-miterlimit:10;stroke-dasharray:none;stroke-opacity:1"
         id="path5961"
         inkscape:connector-curvature="0" />
      <path
         d="m 178.1102,97.464658 c 0.23555,0.09991 0.44261,0.09991 0.61393,0.09991 0.18562,0 0.57822,0 0.57822,-0.221202 0,-0.171502 -0.24986,-0.192876 -0.52113,-0.192876 -0.14992,0 -0.39976,0.01442 -0.66388,0.135709 -0.16422,-0.08575 -0.28556,-0.221202 -0.28556,-0.414078 0,-0.435451 0.69958,-0.692447 1.34207,-0.692447 0.11423,0 0.3712,0 0.65676,0.199828 0.0785,0.05717 0.0928,0.07133 0.14281,0.07133 0.0928,0 0.19272,-0.0927 0.19272,-0.192618 0,-0.135709 -0.43547,-0.406868 -0.92088,-0.406868 -0.82097,0 -1.59193,0.478198 -1.59193,1.020774 0,0.306953 0.25699,0.485408 0.2855,0.506782 -0.42119,0.235622 -0.6496,0.63546 -0.6496,0.963838 0,0.464034 0.40689,0.89946 1.16362,0.89946 0.94233,0 1.34209,-0.628198 1.34209,-0.735271 0,-0.04285 -0.0357,-0.07138 -0.0785,-0.07138 -0.0357,0 -0.0571,0.02853 -0.0714,0.04998 -0.1,0.164164 -0.27129,0.428318 -1.1279,0.428318 -0.43548,0 -1.04227,-0.107073 -1.04227,-0.613932 0,-0.242729 0.19988,-0.621013 0.63535,-0.835262 z m 0.23555,-0.0927 c 0.16421,-0.05717 0.31411,-0.06438 0.43547,-0.06438 0.17849,0 0.20702,0.0072 0.33554,0.04275 -0.10707,0.04996 -0.12136,0.05717 -0.39263,0.05717 -0.15705,0 -0.2427,0 -0.37838,-0.03554"
         style="fill:#000000;fill-opacity:1;fill-rule:nonzero;stroke:none;stroke-width:0.00257511"
         id="path5963"
         inkscape:connector-curvature="0" />
      <path
         d="m 181.70593,98.609011 h 0.9085 c 0.72381,0 1.29286,-0.419331 1.29286,-0.923409 0,-0.494163 -0.55908,-0.938627 -1.29286,-0.938627 h -1.89685 v 0.179742 h 0.11982 c 0.38433,0 0.39435,0.04996 0.39435,0.224807 v 2.600552 c 0,0.169726 -0.01,0.224653 -0.39435,0.224653 h -0.11982 v 0.179691 c 0.24958,-0.01 0.56907,-0.02 0.74876,-0.02 0.18472,0 0.50416,0.01 0.75374,0.02 v -0.179691 h -0.11977 c -0.38439,0 -0.39438,-0.04993 -0.39438,-0.224653 z m 0.78374,-1.682294 c 0.83361,0 0.88349,0.469185 0.88349,0.758885 0,0.21958 0,0.763675 -0.88349,0.763675 h -0.8037 v -1.327881 c 0,-0.154764 0.005,-0.194679 0.23962,-0.194679 h 0.56408"
         style="fill:#000000;fill-opacity:1;fill-rule:nonzero;stroke:none;stroke-width:0.00257511"
         id="path5965"
         inkscape:connector-curvature="0" />
      <path
         d="m 187.7517,94.002422 c 0.0357,-0.09296 0.0357,-0.121545 0.0357,-0.128498 0,-0.07854 -0.0643,-0.142918 -0.14282,-0.142918 -0.0499,0 -0.0999,0.02163 -0.12133,0.06438 l -2.47718,6.803234 c -0.0357,0.0928 -0.0357,0.12134 -0.0357,0.12847 0,0.0785 0.0642,0.14279 0.14279,0.14279 0.0928,0 0.1142,-0.05 0.15705,-0.17135 l 2.44144,-6.696106"
         style="fill:#000000;fill-opacity:1;fill-rule:nonzero;stroke:none;stroke-width:0.00257511"
         id="path5967"
         inkscape:connector-curvature="0" />
      <path
         d="m 189.1909,97.464658 c 0.23555,0.09991 0.44261,0.09991 0.61393,0.09991 0.18562,0 0.57822,0 0.57822,-0.221202 0,-0.171502 -0.24987,-0.192876 -0.52113,-0.192876 -0.14992,0 -0.39976,0.01442 -0.66389,0.135709 -0.16421,-0.08575 -0.28555,-0.221202 -0.28555,-0.414078 0,-0.435451 0.69958,-0.692447 1.34207,-0.692447 0.11423,0 0.3712,0 0.65676,0.199828 0.0785,0.05717 0.0928,0.07133 0.14281,0.07133 0.0928,0 0.19272,-0.0927 0.19272,-0.192618 0,-0.135709 -0.43547,-0.406868 -0.92088,-0.406868 -0.82097,0 -1.59194,0.478198 -1.59194,1.020774 0,0.306953 0.257,0.485408 0.28551,0.506782 -0.42119,0.235622 -0.6496,0.63546 -0.6496,0.963838 0,0.464034 0.40689,0.89946 1.16361,0.89946 0.94234,0 1.3421,-0.628198 1.3421,-0.735271 0,-0.04285 -0.0357,-0.07138 -0.0785,-0.07138 -0.0357,0 -0.0572,0.02853 -0.0714,0.04998 -0.1,0.164164 -0.27129,0.428318 -1.1279,0.428318 -0.43548,0 -1.04228,-0.107073 -1.04228,-0.613932 0,-0.242729 0.19988,-0.621013 0.63536,-0.835262 z m 0.23555,-0.0927 c 0.16421,-0.05717 0.31411,-0.06438 0.43547,-0.06438 0.17848,0 0.20702,0.0072 0.33554,0.04275 -0.10707,0.04996 -0.12137,0.05717 -0.39263,0.05717 -0.15705,0 -0.2427,0 -0.37838,-0.03554"
         style="fill:#000000;fill-opacity:1;fill-rule:nonzero;stroke:none;stroke-width:0.00257511"
         id="path5969"
         inkscape:connector-curvature="0" />
      <path
         d="m 194.08706,98.564075 c 0,-0.54909 -0.0649,-0.943366 -0.29451,-1.292808 -0.15474,-0.2297 -0.46422,-0.429271 -0.86354,-0.429271 -1.15808,0 -1.15808,1.362697 -1.15808,1.722079 0,0.359383 0,1.692185 1.15808,1.692185 1.15805,0 1.15805,-1.332802 1.15805,-1.692185 z m -1.15805,1.552435 c -0.22965,0 -0.53411,-0.134785 -0.63397,-0.544125 -0.0699,-0.294515 -0.0699,-0.703803 -0.0699,-1.073203 0,-0.364378 0,-0.743769 0.0749,-1.018301 0.10483,-0.394249 0.42432,-0.499056 0.62897,-0.499056 0.26953,0 0.52908,0.164549 0.61895,0.453992 0.0799,0.269691 0.0849,0.629099 0.0849,1.063365 0,0.3694 0,0.738774 -0.0649,1.053246 -0.0999,0.454222 -0.43928,0.564082 -0.63893,0.564082"
         style="fill:#000000;fill-opacity:1;fill-rule:nonzero;stroke:none;stroke-width:0.00257511"
         id="path5971"
         inkscape:connector-curvature="0" />
    </g>
    <path
       inkscape:connector-curvature="0"
       id="path5973"
       style="fill:#000000;fill-opacity:1;fill-rule:nonzero;stroke:none;stroke-width:0.00257511"
       d="m 137.89255,47.410957 c -0.1,-0.35694 -0.49257,-0.54255 -0.87807,-0.54255 -0.26411,0 -0.464,0.14992 -0.62104,0.40692 -0.17849,0.28555 -0.27128,0.67105 -0.27128,0.70674 0,0.0999 0.10707,0.0999 0.17133,0.0999 0.0785,0 0.10707,0 0.14276,-0.0357 0.0143,-0.0143 0.0143,-0.0286 0.0571,-0.20702 0.1428,-0.55681 0.29984,-0.71389 0.48545,-0.71389 0.10711,0 0.1642,0.0714 0.1642,0.26415 0,0.12134 -0.0286,0.23557 -0.0999,0.52113 -0.05,0.1999 -0.12136,0.4854 -0.15704,0.64249 l -0.25699,0.99942 c -0.0215,0.0999 -0.0571,0.2356 -0.0571,0.28556 0,0.14992 0.11423,0.31408 0.33553,0.31408 0.37122,0 0.45688,-0.32835 0.50685,-0.54255 0.0714,-0.2641 0.12852,-0.49256 0.1999,-0.79952 0.0285,-0.0928 0.20701,-0.8281 0.2213,-0.8495 0.007,-0.0429 0.20701,-0.3641 0.44259,-0.55684 0.1999,-0.15708 0.43548,-0.27842 0.73532,-0.27842 0.18562,0 0.35694,0.0714 0.35694,0.42118 0,0.40692 -0.31414,1.24218 -0.44977,1.59912 -0.0785,0.19272 -0.0999,0.2427 -0.0999,0.36404 0,0.41408 0.41408,0.64249 0.8067,0.64249 0.7567,0 1.11364,-0.97084 1.11364,-1.11366 0,-0.0999 -0.1071,-0.0999 -0.17133,-0.0999 -0.0856,0 -0.13563,0 -0.16419,0.0928 -0.23559,0.79241 -0.62109,0.86377 -0.73532,0.86377 -0.05,0 -0.12134,0 -0.12134,-0.1499 0,-0.16416 0.0714,-0.34267 0.14279,-0.52115 0.11418,-0.29269 0.44259,-1.1279 0.44259,-1.52769 0,-0.65678 -0.54971,-0.8281 -1.06368,-0.8281 -0.14992,0 -0.67105,0 -1.17791,0.54255" />
    <path
       inkscape:connector-curvature="0"
       id="path5975"
       style="fill:#000000;fill-opacity:1;fill-rule:nonzero;stroke:none;stroke-width:0.00257511"
       d="m 51.333182,118.25393 c -0.77812,0.51399 -0.93516,1.18504 -0.93516,1.44203 0,0.34265 0.19273,0.54254 0.20701,0.56395 0.22842,0.23558 0.29268,0.26415 0.8281,0.46404 l 0.86379,0.33553 c 0.10707,0.05 0.24986,0.0999 0.24986,0.30696 0,0.1642 -0.12851,0.37834 -0.34981,0.37834 -0.31408,0 -0.54966,-0.17133 -0.6282,-0.22842 -0.0428,-0.0286 -0.05,-0.0357 -0.0786,-0.0357 -0.0571,0 -0.0714,0.05 -0.0714,0.0785 0,0.0857 0.37834,0.34269 0.77812,0.34269 0.4426,0 0.74244,-0.41407 0.74244,-0.76388 0,-0.34265 -0.26415,-0.47112 -0.34265,-0.50685 -0.0999,-0.0357 -0.34265,-0.12848 -0.43548,-0.16417 -0.14275,-0.0571 -0.28555,-0.11423 -0.43547,-0.1642 l -0.42831,-0.17133 c -0.32125,-0.12851 -0.53543,-0.33553 -0.53543,-0.63537 0,-0.29266 0.27844,-0.91375 0.87807,-1.2136 0.26415,0.0928 0.47829,0.0928 0.62821,0.0928 0.21418,0 0.66394,0 0.66394,-0.2213 0,-0.17848 -0.307,-0.19277 -0.5854,-0.19277 -0.12851,0 -0.33553,0 -0.59964,0.0857 -0.1856,-0.18562 -0.21417,-0.42119 -0.21417,-0.55682 0,-0.39979 0.25699,-0.9495 0.79241,-1.2136 0.12847,0.15703 0.29267,0.15703 0.45688,0.15703 0.17844,0 0.63533,0 0.63533,-0.2213 0,-0.18559 -0.31408,-0.19272 -0.59252,-0.19272 -0.0928,0 -0.26411,0 -0.44972,0.0357 -0.0215,-0.0643 -0.0357,-0.11424 -0.0357,-0.2356 0,-0.0999 0.0357,-0.24986 0.0357,-0.26413 0,-0.0571 -0.0357,-0.0928 -0.0857,-0.0928 -0.12852,0 -0.12852,0.32835 -0.12852,0.34975 0,0.14282 0.0429,0.24986 0.05,0.27845 -0.76385,0.21412 -1.24929,0.78525 -1.24929,1.33493 0,0.26413 0.12851,0.56395 0.46404,0.75673 z m 1.15647,-2.0417 c 0.11423,-0.0357 0.26415,-0.0357 0.34269,-0.0357 0.24269,0 0.27128,0.007 0.39975,0.0428 -0.0571,0.0215 -0.12847,0.0571 -0.4426,0.0571 -0.13564,0 -0.2213,0 -0.29984,-0.0643 z m -0.55679,1.94889 c 0.16417,-0.0428 0.32125,-0.0428 0.40691,-0.0428 0.24983,0 0.27839,0.007 0.40691,0.0428 -0.0571,0.0286 -0.12852,0.0571 -0.45688,0.0571 -0.16421,0 -0.22846,0 -0.35694,-0.0571" />
    <path
       inkscape:connector-curvature="0"
       id="path5977"
       style="fill:#000000;fill-opacity:1;fill-rule:nonzero;stroke:none;stroke-width:0.00257511"
       d="m 176.10054,100.55388 c 0.0357,-0.1285 0.0571,-0.22128 0.0571,-0.41402 0,-0.464041 -0.28553,-0.763891 -0.82094,-0.763891 -0.56395,0 -0.93518,0.37123 -1.10653,0.6211 -0.0357,-0.40692 -0.33551,-0.6211 -0.65675,-0.6211 -0.32841,0 -0.46404,0.27845 -0.52829,0.40692 -0.12847,0.242731 -0.2213,0.671051 -0.2213,0.692451 0,0.0714 0.0714,0.0714 0.0857,0.0714 0.0714,0 0.0785,-0.007 0.12134,-0.16421 0.12139,-0.506861 0.26416,-0.849501 0.52115,-0.849501 0.12139,0 0.22128,0.0571 0.22128,0.32837 0,0.149931 -0.0214,0.228471 -0.11418,0.599671 l -0.41408,1.64904 c -0.0214,0.10707 -0.0642,0.27127 -0.0642,0.30697 0,0.12851 0.0999,0.19277 0.20707,0.19277 0.0856,0 0.21412,-0.0571 0.2641,-0.1999 0.007,-0.0143 0.0928,-0.34981 0.13563,-0.52826 l 0.15708,-0.6425 c 0.0428,-0.15708 0.0857,-0.31411 0.12137,-0.47833 0.0143,-0.0428 0.0714,-0.27839 0.0785,-0.32124 0.0215,-0.0642 0.24275,-0.463981 0.48546,-0.656761 0.15703,-0.1142 0.37833,-0.24983 0.68534,-0.24983 0.30695,0 0.38544,0.2427 0.38544,0.499701 0,0.0357 0,0.16419 -0.0714,0.44974 l -0.81383,3.28384 c -0.0214,0.0857 -0.0214,0.1 -0.0214,0.11423 0,0.10707 0.0785,0.19273 0.1999,0.19273 0.22128,0 0.27127,-0.20701 0.29267,-0.28555 l 0.81381,-3.23387" />
    <path
       inkscape:connector-curvature="0"
       id="path5979"
       style="fill:#000000;fill-opacity:1;fill-rule:nonzero;stroke:none;stroke-width:0.00257511"
       d="m 103.88488,19.820706 c 0.12847,0.12852 0.29269,0.12852 0.43548,0.12852 0.17845,0 0.63533,0 0.63533,-0.2213 0,-0.17848 -0.28555,-0.19272 -0.57111,-0.19272 -0.0785,0 -0.27126,0 -0.45687,0.0714 -0.0357,-0.0857 -0.05,-0.12137 -0.05,-0.27129 0,-0.0999 0.0357,-0.24986 0.0357,-0.26413 0,-0.0571 -0.0357,-0.0928 -0.0857,-0.0928 -0.12848,0 -0.12848,0.32835 -0.12848,0.34975 0,0.12139 0.0214,0.24986 0.0785,0.35694 -0.74961,0.37838 -1.87753,1.69192 -1.87753,3.07682 0,1.00659 0.64964,1.22076 1.16361,1.39209 0.21417,0.0785 0.22846,0.0785 0.43548,0.14992 0.14992,0.05 0.44261,0.14992 0.44261,0.48541 0,0.19277 -0.13566,0.47116 -0.39976,0.47116 -0.18562,0 -0.37839,-0.0857 -0.52831,-0.21414 -0.05,-0.0429 -0.0571,-0.05 -0.0856,-0.05 -0.0357,0 -0.0714,0.0285 -0.0714,0.0785 0,0.0714 0.30695,0.34269 0.68534,0.34269 0.44261,0 0.77812,-0.45688 0.77812,-0.86383 0,-0.27127 -0.13563,-0.42115 -0.19277,-0.47828 -0.12134,-0.13564 -0.25698,-0.17845 -0.67819,-0.32125 -0.5711,-0.19273 -0.68528,-0.22842 -0.85666,-0.37834 -0.29979,-0.27127 -0.29979,-0.67819 -0.29979,-0.81382 0,-1.10652 0.8709,-2.35581 1.59193,-2.74133 z m 0.16422,-0.0785 c 0.10707,-0.05 0.23554,-0.05 0.32835,-0.05 0.23559,0 0.26415,0.007 0.39263,0.0428 -0.0571,0.0215 -0.12848,0.0571 -0.44259,0.0571 -0.14992,0 -0.1999,0 -0.27839,-0.05" />
    <path
       style="fill:none;stroke:#000000;stroke-width:0.23142675px;stroke-linecap:butt;stroke-linejoin:miter;stroke-opacity:1;marker-end:url(#marker6794)"
       d="M 58.627781,74.278443 79.538478,107.34652"
       id="path6784"
       inkscape:connector-curvature="0" />
  </g>
</svg>
