<?xml version="1.0" encoding="UTF-8" standalone="no"?>
<!-- Created with Inkscape (http://www.inkscape.org/) -->

<svg
   xmlns:dc="http://purl.org/dc/elements/1.1/"
   xmlns:cc="http://creativecommons.org/ns#"
   xmlns:rdf="http://www.w3.org/1999/02/22-rdf-syntax-ns#"
   xmlns:svg="http://www.w3.org/2000/svg"
   xmlns="http://www.w3.org/2000/svg"
   xmlns:sodipodi="http://sodipodi.sourceforge.net/DTD/sodipodi-0.dtd"
   xmlns:inkscape="http://www.inkscape.org/namespaces/inkscape"
   width="128.99658mm"
   height="122.81766mm"
   viewBox="0 0 128.99658 122.81766"
   version="1.1"
   id="svg8"
   inkscape:version="0.92.1 r15371"
   sodipodi:docname="vectors.svg">
  <defs
     id="defs2">
    <marker
       inkscape:isstock="true"
       style="overflow:visible"
       id="marker4863"
       refX="0"
       refY="0"
       orient="auto"
       inkscape:stockid="Arrow1Lend">
      <path
         transform="matrix(-0.8,0,0,-0.8,-10,0)"
         style="fill:#000000;fill-opacity:1;fill-rule:evenodd;stroke:#000000;stroke-width:1.00000003pt;stroke-opacity:1"
         d="M 0,0 5,-5 -12.5,0 5,5 Z"
         id="path4861"
         inkscape:connector-curvature="0" />
    </marker>
    <marker
       inkscape:isstock="true"
       style="overflow:visible"
       id="marker4829"
       refX="0"
       refY="0"
       orient="auto"
       inkscape:stockid="Arrow1Lend">
      <path
         transform="matrix(-0.8,0,0,-0.8,-10,0)"
         style="fill:#000000;fill-opacity:1;fill-rule:evenodd;stroke:#000000;stroke-width:1.00000003pt;stroke-opacity:1"
         d="M 0,0 5,-5 -12.5,0 5,5 Z"
         id="path4827"
         inkscape:connector-curvature="0" />
    </marker>
    <marker
       inkscape:isstock="true"
       style="overflow:visible"
       id="marker4801"
       refX="0"
       refY="0"
       orient="auto"
       inkscape:stockid="Arrow1Lend">
      <path
         transform="matrix(-0.8,0,0,-0.8,-10,0)"
         style="fill:#000000;fill-opacity:1;fill-rule:evenodd;stroke:#000000;stroke-width:1.00000003pt;stroke-opacity:1"
         d="M 0,0 5,-5 -12.5,0 5,5 Z"
         id="path4799"
         inkscape:connector-curvature="0" />
    </marker>
    <marker
       inkscape:isstock="true"
       style="overflow:visible"
       id="marker4779"
       refX="0"
       refY="0"
       orient="auto"
       inkscape:stockid="Arrow1Lend">
      <path
         transform="matrix(-0.8,0,0,-0.8,-10,0)"
         style="fill:#000000;fill-opacity:1;fill-rule:evenodd;stroke:#000000;stroke-width:1.00000003pt;stroke-opacity:1"
         d="M 0,0 5,-5 -12.5,0 5,5 Z"
         id="path4777"
         inkscape:connector-curvature="0" />
    </marker>
    <marker
       inkscape:stockid="Arrow1Lend"
       orient="auto"
       refY="0"
       refX="0"
       id="Arrow1Lend"
       style="overflow:visible"
       inkscape:isstock="true"
       inkscape:collect="always">
      <path
         id="path4498"
         d="M 0,0 5,-5 -12.5,0 5,5 Z"
         style="fill:#000000;fill-opacity:1;fill-rule:evenodd;stroke:#000000;stroke-width:1.00000003pt;stroke-opacity:1"
         transform="matrix(-0.8,0,0,-0.8,-10,0)"
         inkscape:connector-curvature="0" />
    </marker>
  </defs>
  <sodipodi:namedview
     id="base"
     pagecolor="#ffffff"
     bordercolor="#666666"
     borderopacity="1.0"
     inkscape:pageopacity="0.0"
     inkscape:pageshadow="2"
     inkscape:zoom="0.98994949"
     inkscape:cx="89.115639"
     inkscape:cy="339.60081"
     inkscape:document-units="mm"
     inkscape:current-layer="layer1"
     showgrid="false"
     inkscape:window-width="1920"
     inkscape:window-height="1027"
     inkscape:window-x="-8"
     inkscape:window-y="-8"
     inkscape:window-maximized="1"
     fit-margin-left="1"
     fit-margin-bottom="1"
     fit-margin-right="1"
     fit-margin-top="1" />
  <metadata
     id="metadata5">
    <rdf:RDF>
      <cc:Work
         rdf:about="">
        <dc:format>image/svg+xml</dc:format>
        <dc:type
           rdf:resource="http://purl.org/dc/dcmitype/StillImage" />
        <dc:title></dc:title>
      </cc:Work>
    </rdf:RDF>
  </metadata>
  <g
     inkscape:label="レイヤー 1"
     inkscape:groupmode="layer"
     id="layer1"
     transform="translate(-26.754731,-44.388134)">
    <path
       style="fill:none;stroke:#000000;stroke-width:0.35277778;stroke-linecap:butt;stroke-linejoin:miter;stroke-miterlimit:4;stroke-dasharray:none;stroke-opacity:1;marker-end:url(#marker4829)"
       d="m 73.23185,120.06757 h 75.10273"
       id="path4485"
       inkscape:connector-curvature="0" />
    <path
       style="fill:none;stroke:#000000;stroke-width:0.35277778;stroke-linecap:butt;stroke-linejoin:miter;stroke-miterlimit:4;stroke-dasharray:none;stroke-opacity:1;marker-end:url(#marker4801)"
       d="M 73.23185,120.06757 V 52.181112"
       id="path4487"
       inkscape:connector-curvature="0" />
    <path
       style="fill:none;stroke:#000000;stroke-width:0.35277778;stroke-linecap:butt;stroke-linejoin:miter;stroke-miterlimit:4;stroke-dasharray:none;stroke-opacity:1;marker-end:url(#marker4779)"
       d="M 73.224583,120.09274 143.74424,99.72992"
       id="path4489"
       inkscape:connector-curvature="0" />
    <path
       style="fill:none;stroke:#000000;stroke-width:0.35277778;stroke-linecap:butt;stroke-linejoin:miter;stroke-miterlimit:4;stroke-dasharray:none;stroke-opacity:1;marker-end:url(#Arrow1Lend)"
       d="M 73.246579,120.07337 51.835559,65.722321"
       id="path4491"
       inkscape:connector-curvature="0" />
    <path
       style="fill:none;stroke:#000000;stroke-width:0.35277778;stroke-linecap:butt;stroke-linejoin:miter;stroke-miterlimit:4;stroke-dasharray:none;stroke-opacity:1;marker-end:url(#marker4863)"
       d="M 73.23185,120.06757 33.67596,159.35619"
       id="path4493"
       inkscape:connector-curvature="0" />
    <path
       style="opacity:1;fill:none;fill-opacity:1;stroke:#000000;stroke-width:0.35277778;stroke-miterlimit:4;stroke-dasharray:none;stroke-dashoffset:0;stroke-opacity:1"
       id="path4907"
       sodipodi:type="arc"
       sodipodi:cx="73.209267"
       sodipodi:cy="119.98903"
       sodipodi:rx="11.97712"
       sodipodi:ry="11.97712"
       sodipodi:start="4.343261"
       sodipodi:end="4.7136719"
       d="m 68.887894,108.81866 a 11.97712,11.97712 0 0 1 4.336738,-0.80674"
       sodipodi:open="true" />
    <path
       id="circle4909"
       style="opacity:1;fill:none;fill-opacity:1;stroke:#000000;stroke-width:0.35277778;stroke-miterlimit:4;stroke-dasharray:none;stroke-dashoffset:0;stroke-opacity:1"
       sodipodi:type="arc"
       sodipodi:cx="73.209267"
       sodipodi:cy="119.98903"
       sodipodi:rx="11.97712"
       sodipodi:ry="11.97712"
       sodipodi:start="6.0033046"
       sodipodi:end="0.015269559"
       d="m 84.720338,116.68046 a 11.97712,11.97712 0 0 1 0.464653,3.49145"
       sodipodi:open="true" />
    <path
       inkscape:connector-curvature="0"
       id="path4923"
       style="fill:#000000;fill-opacity:1;fill-rule:nonzero;stroke:none;stroke-width:0.00246827"
       d="m 153.23898,117.26321 c 0,-0.007 0,-0.0753 -0.0889,-0.0753 -0.15739,0 -0.6569,0.0546 -0.83481,0.0684 -0.0547,0.007 -0.13001,0.0136 -0.13001,0.13674 0,0.0822 0.0616,0.0822 0.16421,0.0822 0.32848,0 0.34213,0.0479 0.34213,0.11625 l -0.0205,0.13699 -0.99216,3.94134 c -0.0274,0.0958 -0.0274,0.10934 -0.0274,0.15056 0,0.15723 0.13688,0.19154 0.19843,0.19154 0.089,0 0.1916,-0.0617 0.23267,-0.14365 0.0342,-0.0617 0.34213,-1.32744 0.38316,-1.49849 0.23268,0.0205 0.79375,0.12983 0.79375,0.58152 0,0.0479 0,0.0753 -0.0205,0.14366 -0.0137,0.0822 -0.0273,0.16414 -0.0273,0.23942 0,0.40381 0.27367,0.67754 0.62949,0.67754 0.20529,0 0.39002,-0.10959 0.54058,-0.36259 0.17105,-0.30113 0.24633,-0.67754 0.24633,-0.69112 0,-0.0686 -0.0616,-0.0686 -0.0821,-0.0686 -0.0684,0 -0.0753,0.0274 -0.0958,0.12317 -0.13682,0.49958 -0.29422,0.84859 -0.59531,0.84859 -0.13001,0 -0.21894,-0.0753 -0.21894,-0.32161 0,-0.11626 0.0273,-0.27373 0.0547,-0.38308 0.0274,-0.1165 0.0274,-0.1439 0.0274,-0.21227 0,-0.44478 -0.4311,-0.64323 -1.01273,-0.71851 0.21212,-0.12317 0.4311,-0.34211 0.58849,-0.50625 0.32844,-0.36258 0.64318,-0.6568 0.97847,-0.6568 0.0411,0 0.0479,0 0.0616,0.007 0.0821,0.0138 0.0889,0.0138 0.1437,0.0548 0.0137,0.007 0.0137,0.0138 0.0273,0.0274 -0.32843,0.0205 -0.39001,0.28731 -0.39001,0.3695 0,0.10959 0.0753,0.23942 0.26001,0.23942 0.17791,0 0.37638,-0.15056 0.37638,-0.41738 0,-0.20512 -0.1574,-0.43096 -0.46531,-0.43096 -0.19159,0 -0.50634,0.0548 -0.99903,0.60201 -0.23264,0.26015 -0.49952,0.53388 -0.75953,0.63656 l 0.71163,-2.88762" />
    <path
       inkscape:connector-curvature="0"
       id="path4925"
       style="fill:#000000;fill-opacity:1;fill-rule:nonzero;stroke:none;stroke-width:0.00246827"
       d="m 149.64101,96.934881 c 0,-0.02049 -0.0137,-0.06837 -0.0753,-0.06837 -0.0342,0 -0.0411,0.0069 -0.12317,0.10268 l -0.32843,0.389987 c -0.17791,-0.321616 -0.53374,-0.492667 -0.97852,-0.492667 -0.86899,0 -1.69011,0.786884 -1.69011,1.614742 0,0.554374 0.36268,0.869078 0.71163,0.971758 l 0.73215,0.191538 c 0.25319,0.06171 0.62953,0.16414 0.62953,0.725431 0,0.61583 -0.56106,1.25882 -1.23167,1.25882 -0.43793,0 -1.19746,-0.15032 -1.19746,-0.99891 0,-0.16414 0.0342,-0.32853 0.0411,-0.3695 0.007,-0.0274 0.0137,-0.0343 0.0137,-0.0479 0,-0.0684 -0.0479,-0.0753 -0.0821,-0.0753 -0.0343,0 -0.0479,0.007 -0.0685,0.0274 -0.0273,0.0274 -0.41054,1.58759 -0.41054,1.60807 0,0.041 0.0342,0.0684 0.0753,0.0684 0.0342,0 0.041,-0.007 0.12314,-0.10268 l 0.3353,-0.38998 c 0.29423,0.3969 0.75953,0.49266 1.15639,0.49266 0.93061,0 1.73805,-0.91005 1.73805,-1.75864 0,-0.472182 -0.23268,-0.704693 -0.33531,-0.800462 -0.15738,-0.157476 -0.26001,-0.184873 -0.86902,-0.342102 -0.15052,-0.04122 -0.39685,-0.109591 -0.45844,-0.123167 -0.18474,-0.06171 -0.41741,-0.260156 -0.41741,-0.622744 0,-0.554374 0.54742,-1.135898 1.19745,-1.135898 0.56795,0 0.98536,0.294218 0.98536,1.060615 0,0.218936 -0.0274,0.342103 -0.0274,0.383076 0,0.0069 0,0.06862 0.0821,0.06862 0.0684,0 0.0753,-0.02073 0.10266,-0.136989 l 0.36947,-1.498487" />
    <path
       inkscape:connector-curvature="0"
       id="path4927"
       style="fill:#000000;fill-opacity:1;fill-rule:nonzero;stroke:none;stroke-width:0.00246827"
       d="m 32.708841,162.05883 c 0.0616,-0.24633 0.0753,-0.3147 0.57482,-0.3147 0.17791,0 0.23263,0 0.23263,-0.13675 0,-0.0753 -0.0753,-0.0753 -0.0958,-0.0753 -0.19162,0 -0.68426,0.0205 -0.87587,0.0205 -0.19842,0 -0.68425,-0.0205 -0.88268,-0.0205 -0.0547,0 -0.13,0 -0.13,0.13675 0,0.0753 0.0616,0.0753 0.19156,0.0753 0.0137,0 0.1437,0 0.26001,0.0136 0.12319,0.0138 0.18477,0.0207 0.18477,0.10959 0,0.0274 -0.007,0.041 -0.0274,0.13007 l -0.41055,1.66954 h -2.08699 l 0.40371,-1.60808 c 0.0616,-0.24633 0.0821,-0.3147 0.57476,-0.3147 0.17791,0 0.23268,0 0.23268,-0.13674 0,-0.0753 -0.0753,-0.0753 -0.0958,-0.0753 -0.19161,0 -0.68427,0.0205 -0.87586,0.0205 -0.19843,0 -0.68425,-0.0205 -0.88272,-0.0205 -0.0547,0 -0.13001,0 -0.13001,0.13674 0,0.0753 0.0616,0.0753 0.1916,0.0753 0.0137,0 0.1437,0 0.26002,0.0136 0.12318,0.0138 0.18477,0.0207 0.18477,0.10959 0,0.0274 -0.007,0.0479 -0.0274,0.13008 l -0.91693,3.67451 c -0.0684,0.26682 -0.0821,0.32162 -0.62265,0.32162 -0.12319,0 -0.18478,0 -0.18478,0.13674 0,0.0753 0.0822,0.0753 0.0958,0.0753 0.1916,0 0.67743,-0.0205 0.86903,-0.0205 0.1437,0 0.29422,0.007 0.43792,0.007 0.15053,0 0.30109,0.0136 0.44479,0.0136 0.0547,0 0.13684,0 0.13684,-0.13674 0,-0.0753 -0.0616,-0.0753 -0.1916,-0.0753 -0.25319,0 -0.44475,0 -0.44475,-0.12317 0,-0.0412 0.0137,-0.0753 0.0205,-0.1165 l 0.46531,-1.8749 h 2.08695 c -0.28735,1.1359 -0.44473,1.78604 -0.47213,1.88872 -0.0684,0.21894 -0.19842,0.22585 -0.62264,0.22585 -0.10264,0 -0.16422,0 -0.16422,0.13674 0,0.0753 0.0821,0.0753 0.0958,0.0753 0.19156,0 0.67739,-0.0205 0.86897,-0.0205 0.14371,0 0.29422,0.007 0.43792,0.007 0.15057,0 0.30111,0.0136 0.44481,0.0136 0.0547,0 0.13682,0 0.13682,-0.13674 0,-0.0753 -0.0616,-0.0753 -0.19159,-0.0753 -0.25314,0 -0.44476,0 -0.44476,-0.12317 0,-0.0412 0.0137,-0.0753 0.0205,-0.1165 l 0.92375,-3.695" />
    <path
       inkscape:connector-curvature="0"
       id="path4929"
       style="fill:#000000;fill-opacity:1;fill-rule:nonzero;stroke:none;stroke-width:0.00246827"
       d="m 52.83772,61.682796 c 0.0137,-0.0343 0.0342,-0.0821 0.0342,-0.0958 0,-0.007 0,-0.0753 -0.0821,-0.0753 -0.0616,0 -0.0753,0.0411 -0.0889,0.0821 -0.44481,1.01273 -0.69798,1.47116 -1.86806,1.47116 h -0.999 c -0.0958,0 -0.10949,0 -0.15056,-0.007 -0.0684,-0.007 -0.0889,-0.0136 -0.0889,-0.0684 0,-0.0205 0,-0.0342 0.0342,-0.15735 l 0.46531,-1.86806 h 0.6774 c 0.58162,0 0.58162,0.1437 0.58162,0.3148 0,0.0479 0,0.13001 -0.0479,0.33524 -0.0137,0.0342 -0.0205,0.0548 -0.0205,0.0753 0,0.0342 0.0274,0.0753 0.089,0.0753 0.0547,0 0.0752,-0.0342 0.10263,-0.13687 l 0.39003,-1.60114 c 0,-0.041 -0.0342,-0.0753 -0.0821,-0.0753 -0.0616,0 -0.0753,0.041 -0.0958,0.12316 -0.1437,0.52002 -0.26684,0.67742 -0.89638,0.67742 h -0.6432 l 0.41054,-1.64917 c 0.0616,-0.23943 0.0685,-0.26682 0.3695,-0.26682 h 0.96483 c 0.83479,0 1.04008,0.19844 1.04008,0.75948 0,0.16439 0,0.17796 -0.0274,0.36284 0,0.041 -0.007,0.0889 -0.007,0.12316 0,0.0341 0.0205,0.082 0.0821,0.082 0.0753,0 0.0821,-0.041 0.0958,-0.17105 l 0.13681,-1.18378 c 0.0206,-0.18463 -0.0137,-0.18463 -0.18472,-0.18463 h -3.4555 c -0.13688,0 -0.20529,0 -0.20529,0.13674 0,0.0753 0.0616,0.0753 0.1916,0.0753 0.25315,0 0.44475,0 0.44475,0.12316 0,0.0274 0,0.0412 -0.0342,0.16439 l -0.90324,3.61964 c -0.0684,0.26687 -0.0821,0.32159 -0.62265,0.32159 -0.11632,0 -0.1916,0 -0.1916,0.13001 0,0.0821 0.0616,0.0821 0.1916,0.0821 h 3.5513 c 0.1574,0 0.16421,-0.007 0.21212,-0.11633 l 0.62951,-1.47798" />
    <path
       inkscape:connector-curvature="0"
       id="path4931"
       style="fill:#000000;fill-opacity:1;fill-rule:nonzero;stroke:none;stroke-width:0.00246827"
       d="m 71.500645,49.527914 c -0.0684,0.26686 -0.0821,0.32159 -0.62266,0.32159 -0.11632,0 -0.1916,0 -0.1916,0.13 0,0.0821 0.0616,0.0821 0.1916,0.0821 h 2.26492 c 1.4232,0 2.77125,-1.44379 2.77125,-2.94233 0,-0.96479 -0.58165,-1.73114 -1.60806,-1.73114 h -2.29911 c -0.13001,0 -0.20525,0 -0.20525,0.13 0,0.0821 0.0616,0.0821 0.19842,0.0821 0.0889,0 0.21212,0.007 0.29423,0.0136 0.10949,0.0137 0.15053,0.0342 0.15053,0.10949 0,0.0274 -0.007,0.0479 -0.0273,0.13001 z m 1.47799,-3.66763 c 0.0616,-0.2395 0.0753,-0.26001 0.3695,-0.26001 h 0.73217 c 0.67058,0 1.23853,0.36264 1.23853,1.26585 0,0.33527 -0.13689,1.45749 -0.71852,2.21017 -0.19842,0.25317 -0.73897,0.77321 -1.58061,0.77321 h -0.77322 c -0.0958,0 -0.10949,0 -0.15053,-0.007 -0.0684,-0.007 -0.089,-0.0136 -0.089,-0.0684 0,-0.0205 0,-0.0342 0.0342,-0.15735 l 0.9374,-3.75658" />
    <path
       inkscape:connector-curvature="0"
       id="path4933"
       style="fill:#000000;fill-opacity:1;fill-rule:nonzero;stroke:none;stroke-width:0.00246827"
       d="m 91.187102,117.65087 c 0,-1.07427 -0.63634,-1.40958 -1.14268,-1.40958 -0.93744,0 -1.84068,0.97852 -1.84068,1.9433 0,0.63639 0.41059,1.15643 1.10853,1.15643 0.43106,0 0.92375,-0.15739 1.44377,-0.5748 0.0889,0.36268 0.31476,0.5748 0.62267,0.5748 0.36269,0 0.57479,-0.37638 0.57479,-0.48583 0,-0.0479 -0.0411,-0.0685 -0.0821,-0.0685 -0.0479,0 -0.0685,0.0206 -0.089,0.0685 -0.12314,0.33526 -0.3695,0.33526 -0.38315,0.33526 -0.21217,0 -0.21217,-0.53372 -0.21217,-0.69794 0,-0.1437 0,-0.15735 0.0685,-0.2395 0.64318,-0.80739 0.78689,-1.60112 0.78689,-1.60801 0,-0.0137 -0.007,-0.0684 -0.0821,-0.0684 -0.0684,0 -0.0684,0.0205 -0.10263,0.14368 -0.12317,0.43107 -0.34899,0.95114 -0.67061,1.35486 z m -0.45843,0.93744 c -0.60214,0.5269 -1.12904,0.60214 -1.40271,0.60214 -0.41058,0 -0.61583,-0.30792 -0.61583,-0.74584 0,-0.33526 0.1779,-1.07428 0.39685,-1.42327 0.32161,-0.49948 0.69111,-0.62949 0.93061,-0.62949 0.67738,0 0.67738,0.89637 0.67738,1.4301 0,0.25319 0,0.65004 0.0137,0.76636" />
    <path
       d="m 71.433098,105.15621 c 0,-1.07427 -0.63634,-1.40958 -1.14268,-1.40958 -0.93744,0 -1.84068,0.97852 -1.84068,1.9433 0,0.63639 0.41059,1.15643 1.10853,1.15643 0.43106,0 0.92375,-0.15739 1.44377,-0.5748 0.0889,0.36268 0.31476,0.5748 0.62267,0.5748 0.36269,0 0.57479,-0.37638 0.57479,-0.48583 0,-0.0479 -0.0411,-0.0685 -0.0821,-0.0685 -0.0479,0 -0.0685,0.0206 -0.089,0.0685 -0.12314,0.33526 -0.3695,0.33526 -0.38315,0.33526 -0.21217,0 -0.21217,-0.53372 -0.21217,-0.69794 0,-0.1437 0,-0.15735 0.0685,-0.2395 0.64318,-0.80739 0.78689,-1.60112 0.78689,-1.60801 0,-0.0137 -0.007,-0.0684 -0.0821,-0.0684 -0.0684,0 -0.0684,0.0205 -0.10263,0.14368 -0.12317,0.43107 -0.34899,0.95114 -0.67061,1.35486 z m -0.45843,0.93744 c -0.60214,0.5269 -1.12904,0.60214 -1.40271,0.60214 -0.41058,0 -0.61583,-0.30792 -0.61583,-0.74584 0,-0.33526 0.1779,-1.07428 0.39685,-1.42327 0.32161,-0.49948 0.69111,-0.62949 0.93061,-0.62949 0.67738,0 0.67738,0.89637 0.67738,1.4301 0,0.25319 0,0.65004 0.0137,0.76636"
       style="fill:#000000;fill-opacity:1;fill-rule:nonzero;stroke:none;stroke-width:0.00246827"
       id="path4956"
       inkscape:connector-curvature="0" />
  </g>
</svg>
