<svg xmlns="http://www.w3.org/2000/svg" xmlns:xlink="http://www.w3.org/1999/xlink" version="1.1" width="355pt" height="99pt" viewBox="0 0 355 99">
<defs>
<clipPath id="clip_1">
<path transform="matrix(.00359712,0,0,-.00359712,0,99)" d="M13495.8 15500.4C13495.8 17132.6 12172.8 18455.6 10540.6 18455.6 8908.54 18455.6 7585.5 17132.6 7585.5 15500.4 7585.5 13868.3 8908.54 12545.3 10540.6 12545.3 12172.8 12545.3 13495.8 13868.3 13495.8 15500.4ZM10540.6 15500.4"/>
</clipPath>
<g id="pattern_tile_2">
<clipPath id="clip_3">
<path transform="matrix(.00359712,0,0,-.00359712,-102,705)" d="M-277-277V1108H1108V-277Z"/>
</clipPath>
<g clip-path="url(#clip_3)">
<path transform="matrix(.00359712,0,0,-.00359712,-102,705)" stroke-width="110.783" stroke-linecap="butt" stroke-miterlimit="10" stroke-linejoin="miter" fill="none" stroke="#000000" d="M0 830.895 858.594-27.6953"/>
</g>
</g>
<pattern id="pattern_2" patternUnits="userSpaceOnUse" patternContentUnits="userSpaceOnUse" x="0" y="0" width="2.98883" height="2.98883">
<clipPath id="clip_4">
<path d="M -.99628 -.99628 L 3.9851 -.99628 L 3.9851 3.9851 L -.99628 3.9851 Z"/>
</clipPath>
<g clip-path="url(#clip_4)">
<g transform="matrix(1,0,0,-1,102,705)">
<use x="0" y="0" xlink:href="#pattern_tile_2"/>
<use x="0" y="-2.98883" xlink:href="#pattern_tile_2"/>
<use x="-2.98883" y="0" xlink:href="#pattern_tile_2"/>
<use x="-2.98883" y="-2.98883" xlink:href="#pattern_tile_2"/>
</g>
</g>
</pattern>
</defs>
<g clip-path="url(#clip_1)">
<rect transform="matrix(1,0,0,-1,-102,705)" fill="url(#pattern_2)" x="125.30096" y="647.14199" width="29.23005" height="29.230042"/>
</g>
<path transform="matrix(.00359712,0,0,-.00359712,0,99)" stroke-width="110.783" stroke-linecap="butt" stroke-miterlimit="10" stroke-linejoin="miter" fill="none" stroke="#000000" d="M13495.8 15500.4C13495.8 17132.6 12172.8 18455.6 10540.6 18455.6 8908.54 18455.6 7585.5 17132.6 7585.5 15500.4 7585.5 13868.3 8908.54 12545.3 10540.6 12545.3 12172.8 12545.3 13495.8 13868.3 13495.8 15500.4ZM10540.6 15500.4"/>
<path transform="matrix(.00359712,0,0,-.00359712,0,99)" stroke-width="110.783" stroke-linecap="butt" stroke-miterlimit="10" stroke-linejoin="miter" fill="none" stroke="#000000" d="M10540.6 27321.1V27174.2L10713.8 27027.4 10840.5 26880.6 10886.9 26733.8 10840.5 26587 10713.8 26440.2 10540.6 26293.3 10367.5 26146.5 10240.8 25999.7 10194.4 25852.9 10240.8 25706.1 10367.5 25559.3 10540.6 25412.4 10713.8 25265.6 10840.5 25118.8 10886.9 24972 10840.5 24825.2 10713.8 24678.4 10540.6 24531.6 10367.5 24384.7 10240.8 24237.9 10194.4 24091.1 10240.8 23944.3 10367.5 23797.5 10540.6 23650.7 10713.8 23503.8 10840.5 23357 10886.9 23210.2 10840.5 23063.4 10713.8 22916.6 10540.6 22769.8 10367.5 22622.9 10240.8 22476.1 10194.4 22329.3 10240.8 22182.5 10367.5 22035.7 10540.6 21888.9 10713.8 21742 10840.5 21595.2 10886.9 21448.4 10840.5 21301.6 10713.8 21154.8 10540.6 21008 10367.5 20861.1 10240.8 20714.3 10194.4 20567.5 10240.8 20420.7 10367.5 20273.9 10540.6 20127.1 10713.8 19980.2 10840.5 19833.4 10886.9 19686.6 10840.5 19539.8 10713.8 19393 10540.6 19246.2 10367.5 19099.3 10240.8 18952.5 10194.4 18805.7 10540.6 18511"/>
<path transform="matrix(.00359712,0,0,-.00359712,0,99)" stroke-width="110.783" stroke-linecap="butt" stroke-miterlimit="10" stroke-linejoin="miter" fill="none" stroke="#000000" d="M7933.48 13995.2 303.668 9590.14"/>
<path transform="matrix(.00359712,0,0,-.00359712,0,99)" d="M3231.42 11280.5 5199.39 11539.6 4439.83 12855.2"/>
<path transform="matrix(.00359712,0,0,-.00359712,0,99)" stroke-width="110.783" stroke-linecap="butt" stroke-miterlimit="10" stroke-linejoin="miter" fill="none" stroke="#000000" d="M13147.8 13995.2 20777.6 9590.14"/>
<path transform="matrix(.00359712,0,0,-.00359712,0,99)" d="M15393.1 12698.9 16601.5 11124.2 17361 12439.8"/>
<path transform="matrix(.00359712,0,0,-.00359712,0,99)" d="M24429.1 18668.8C24470.7 18668.8 24523.3 18668.8 24523.3 18724.3 24523.3 18779.7 24470.7 18779.7 24431.9 18779.7H22772.5C22733.8 18779.7 22681.1 18779.7 22681.1 18724.3 22681.1 18668.8 22733.8 18668.8 22775.3 18668.8H24429.1ZM24431.9 18131.4C24470.7 18131.4 24523.3 18131.4 24523.3 18186.8 24523.3 18242.3 24470.7 18242.3 24429.1 18242.3H22775.3C22733.8 18242.3 22681.1 18242.3 22681.1 18186.8 22681.1 18131.4 22733.8 18131.4 22772.5 18131.4H24431.9"/>
<path transform="matrix(.00359712,0,0,-.00359712,0,99)" stroke-width="110.783" stroke-linecap="butt" stroke-miterlimit="10" stroke-linejoin="miter" fill="none" stroke="#000000" d="M36664.3 27321.1V27180.5L36837.4 27039.9 36964.1 26899.2 37010.5 26758.6 36964.1 26618 36837.4 26477.4 36664.3 26336.8 36491.2 26196.2 36364.5 26055.6 36318.1 25915 36364.5 25774.4 36491.2 25633.8 36664.3 25493.2 36837.4 25352.6 36964.1 25212 37010.5 25071.4 36964.1 24930.8 36837.4 24790.2 36664.3 24649.6 36491.2 24509 36364.5 24368.4 36318.1 24227.8 36364.5 24087.2 36491.2 23946.6 36664.3 23806 36837.4 23665.4 36964.1 23524.8 37010.5 23384.1 36964.1 23243.5 36837.4 23102.9 36664.3 22962.3 36491.2 22821.7 36364.5 22681.1 36318.1 22540.5 36364.5 22399.9 36491.2 22259.3 36664.3 22118.7 36837.4 21978.1 36964.1 21837.5 37010.5 21696.9 36964.1 21556.3 36837.4 21415.7 36664.3 21275.1 36491.2 21134.5 36364.5 20993.9 36318.1 20853.3 36364.5 20712.7 36491.2 20572.1 36664.3 20431.5 36837.4 20290.9 36964.1 20150.3 37010.5 20009.7 36964.1 19869.1 36837.4 19728.4 36664.3 19587.8 36491.2 19447.2 36364.5 19306.6 36318.1 19166 36364.5 19025.4 36491.2 18884.8 36664.3 18744.2 36837.4 18603.6 36964.1 18463 37010.5 18322.4 36964.1 18181.8 36837.4 18041.2 36664.3 17900.6 36491.2 17760 36364.5 17619.4 36318.1 17478.8 36364.5 17338.2 36491.2 17197.6 36664.3 17057 36837.4 16916.4 36964.1 16775.8 37010.5 16635.2 36964.1 16494.6 36837.4 16354 36664.3 16213.3 36491.2 16072.7 36364.5 15932.1 36318.1 15791.5 36664.3 15500.4"/>
<path transform="matrix(.00359712,0,0,-.00359712,0,99)" stroke-width="110.783" stroke-linecap="butt" stroke-miterlimit="10" stroke-linejoin="miter" fill="none" stroke="#000000" d="M36664.3 15500.4 26427.3 9590.14"/>
<path transform="matrix(.00359712,0,0,-.00359712,0,99)" d="M30661.6 12034.8 32629.6 12293.9 31870.1 13609.5"/>
<path transform="matrix(.00359712,0,0,-.00359712,0,99)" stroke-width="110.783" stroke-linecap="butt" stroke-miterlimit="10" stroke-linejoin="miter" fill="none" stroke="#000000" d="M36664.3 15500.4 46901.3 9590.14"/>
<path transform="matrix(.00359712,0,0,-.00359712,0,99)" d="M40210.1 13453.2 41418.5 11878.5 42178.1 13194.1"/>
<path transform="matrix(.00359712,0,0,-.00359712,0,99)" d="M49628 18400.1H50400.9C50439.7 18400.1 50492.3 18400.1 50492.3 18455.5 50492.3 18511 50439.7 18511 50400.9 18511H49628V19286.6C49628 19325.4 49628 19378 49572.6 19378 49517.2 19378 49517.2 19325.4 49517.2 19286.6V18511H48741.5C48702.8 18511 48650.1 18511 48650.1 18455.5 48650.1 18400.1 48702.8 18400.1 48741.5 18400.1H49517.2V17624.5C49517.2 17585.7 49517.2 17533.1 49572.6 17533.1 49628 17533.1 49628 17585.7 49628 17624.5V18400.1"/>
<path transform="matrix(.00359712,0,0,-.00359712,0,99)" stroke-width="110.783" stroke-linecap="butt" stroke-miterlimit="10" stroke-linejoin="miter" fill="none" stroke="#000000" d="M62480.2 27447.3V27306.7L62653.3 27166.1 62780 27025.5 62826.4 26884.9 62780 26744.3 62653.3 26603.6 62480.2 26463 62307.1 26322.4 62180.4 26181.8 62134 26041.2 62180.4 25900.6 62307.1 25760 62480.2 25619.4 62653.3 25478.8 62780 25338.2 62826.4 25197.6 62780 25057 62653.3 24916.4 62480.2 24775.8 62307.1 24635.2 62180.4 24494.6 62134 24354 62180.4 24213.4 62307.1 24072.8 62480.2 23932.2 62653.3 23791.6 62780 23651 62826.4 23510.4 62780 23369.8 62653.3 23229.2 62480.2 23088.6 62307.1 22947.9 62180.4 22807.3 62134 22666.7 62180.4 22526.1 62307.1 22385.5 62480.2 22244.9 62653.3 22104.3 62780 21963.7 62826.4 21823.1 62780 21682.5 62653.3 21541.9 62480.2 21401.3 62307.1 21260.7 62180.4 21120.1 62134 20979.5 62180.4 20838.9 62307.1 20698.3 62480.2 20557.7 62653.3 20417.1 62780 20276.5 62826.4 20135.9 62780 19995.3 62653.3 19854.7 62480.2 19714.1 62307.1 19573.4 62180.4 19432.8 62134 19292.2 62180.4 19151.6 62307.1 19011 62480.2 18870.4 62653.3 18729.8 62780 18589.2 62826.4 18448.6 62780 18308 62653.3 18167.4 62480.2 18026.8 62307.1 17886.2 62180.4 17745.6 62134 17605 62180.4 17464.4 62307.1 17323.8 62480.2 17183.2 62653.3 17042.6 62780 16902 62826.4 16761.4 62780 16620.8 62653.3 16480.2 62480.2 16339.6 62307.1 16199 62180.4 16058.3 62134 15917.7 62480.2 15626.7"/>
<path transform="matrix(.00359712,0,0,-.00359712,0,99)" stroke-width="110.783" stroke-linecap="butt" stroke-miterlimit="10" stroke-linejoin="miter" fill="none" stroke="#000000" d="M62480.2 15626.7 52243.2 9716.35"/>
<path transform="matrix(.00359712,0,0,-.00359712,0,99)" d="M56477.6 12161 58445.6 12420.1 57686 13735.7"/>
<path transform="matrix(.00359712,0,0,-.00359712,0,99)" stroke-width="110.783" stroke-linecap="butt" stroke-miterlimit="10" stroke-linejoin="miter" fill="none" stroke="#000000" d="M62480.2 15626.7 72717.2 9716.35"/>
<path transform="matrix(.00359712,0,0,-.00359712,0,99)" d="M66026.1 13579.4 67234.4 12004.7 67994 13320.3"/>
<path transform="matrix(.00359712,0,0,-.00359712,0,99)" stroke-width="110.783" stroke-linecap="butt" stroke-miterlimit="10" stroke-linejoin="miter" fill="none" stroke="#000000" d="M57020.6 12474.5 57123.5 12373.6 57346 12401.3 57534.6 12400.8 57669 12344.4 57744.6 12219.8 57772.9 12033.3 57778.3 11809.1 57790.6 11583.1 57836.6 11393.2 57933.3 11269.3 58084 11224.3 58277.4 11250.6 58492.3 11321.5 58703 11398.1 58887 11439.7 59030.6 11414.8 59132 11310.2 59201.3 11134.8 59256.7 10917.6 59319.2 10700 59406.5 10525.3 59528.5 10426.2 59685.5 10416 59868.3 10484.9 60062 10602.1 60250.4 10723.9 60420.4 10805.5 60565.9 10813.3 60688.1 10734 60794.9 10578.4 60897.4 10379 61006.8 10180.9 61130.7 10030 61271.7 9960.44 61426.8 9985.41 61589.7 10093.2 61752.6 10250.4 61909.2 10410.8 62057 10528.1 62197.3 10567.9 62334.2 10517.5 62472.8 10389.4 62616.9 10217.5 62767.3 10048.4 62921.6 9928.55 63074.3 9891.85 63220.2 9950.43 63355.2 10091.5 63479.4 10280.7 63596.8 10471.7 63715.2 10618.7 63843.3 10688.5 63987.8 10669.6 64151.1 10575.2 64329.6 10439.3 64513.6 10307.6 64690.4 10224.9 64847.7 10222.9 64977.1 10312.4 65077.7 10479.9 65156.8 10692 65228.9 10904.4 65311.6 11074 65420.8 11170.4 65565.8 11184.1 65746.1 11128.5 65950.3 11035.9 66159.2 10948.7 66350.2 10907.6 66503.8 10940.8 66609.8 11056.9 66670.4 11242.7 66700 11467.1 66722.7 11690.3 66765.2 11874 66850.1 11992.5 66988.4 12038.4 67176.5 12024.5 67396.3 11979.9 67619.3 11941.5 67814.5 11944 67957 12010.7 67939.8 12474.5"/>
<path transform="matrix(.00359712,0,0,-.00359712,0,99)" d="M75444 18400.1H76216.9C76255.7 18400.1 76308.3 18400.1 76308.3 18455.5 76308.3 18511 76255.7 18511 76216.9 18511H75444V19286.6C75444 19325.4 75444 19378 75388.6 19378 75333.2 19378 75333.2 19325.4 75333.2 19286.6V18511H74557.5C74518.8 18511 74466.1 18511 74466.1 18455.5 74466.1 18400.1 74518.8 18400.1 74557.5 18400.1H75333.2V17624.5C75333.2 17585.7 75333.2 17533.1 75388.6 17533.1 75444 17533.1 75444 17585.7 75444 17624.5V18400.1"/>
<path transform="matrix(.00359712,0,0,-.00359712,0,99)" stroke-width="110.783" stroke-linecap="butt" stroke-miterlimit="10" stroke-linejoin="miter" fill="none" stroke="#000000" d="M89478.2 15500.4C89478.2 16153.3 88949 16682.5 88296.1 16682.5 87643.3 16682.5 87114.1 16153.3 87114.1 15500.4 87114.1 14847.6 87643.3 14318.4 88296.1 14318.4 88949 14318.4 89478.2 14847.6 89478.2 15500.4ZM88296.1 15500.4"/>
<path transform="matrix(.00359712,0,0,-.00359712,0,99)" stroke-width="110.783" stroke-linecap="butt" stroke-miterlimit="10" stroke-linejoin="miter" fill="none" stroke="#000000" d="M87460.3 14664.6 89132 16336.3M87460.3 16336.3 89132 14664.6"/>
<path transform="matrix(.00359712,0,0,-.00359712,0,99)" stroke-width="110.783" stroke-linecap="butt" stroke-miterlimit="10" stroke-linejoin="miter" fill="none" stroke="#000000" d="M88296.1 27321.1V27173.4L88469.2 27025.7 88596 26877.9 88642.3 26730.2 88596 26582.5 88469.2 26434.8 88296.1 26287.1 88123 26139.4 87996.3 25991.7 87949.9 25844 87996.3 25696.3 88123 25548.6 88296.1 25400.9 88469.2 25253.2 88596 25105.5 88642.3 24957.8 88596 24810.1 88469.2 24662.4 88296.1 24514.7 88123 24367 87996.3 24219.3 87949.9 24071.6 87996.3 23923.9 88123 23776.2 88296.1 23628.5 88469.2 23480.8 88596 23333.1 88642.3 23185.4 88596 23037.6 88469.2 22889.9 88296.1 22742.2 88123 22594.5 87996.3 22446.8 87949.9 22299.1 87996.3 22151.4 88123 22003.7 88296.1 21856 88469.2 21708.3 88596 21560.6 88642.3 21412.9 88596 21265.2 88469.2 21117.5 88296.1 20969.8 88123 20822.1 87996.3 20674.4 87949.9 20526.7 87996.3 20379 88123 20231.3 88296.1 20083.6 88469.2 19935.9 88596 19788.2 88642.3 19640.5 88596 19492.8 88469.2 19345 88296.1 19197.3 88123 19049.6 87996.3 18901.9 87949.9 18754.2 87996.3 18606.5 88123 18458.8 88296.1 18311.1 88469.2 18163.4 88596 18015.7 88642.3 17868 88596 17720.3 88469.2 17572.6 88296.1 17424.9 88123 17277.2 87996.3 17129.5 87949.9 16981.8 88296.1 16682.5"/>
<path transform="matrix(.00359712,0,0,-.00359712,0,99)" stroke-width="110.783" stroke-linecap="butt" stroke-miterlimit="10" stroke-linejoin="miter" fill="none" stroke="#000000" d="M87272.5 14909.4 78059.2 9590.14"/>
<path transform="matrix(.00359712,0,0,-.00359712,0,99)" d="M81781.1 11739 83749.1 11998.1 82989.5 13313.8"/>
<path transform="matrix(.00359712,0,0,-.00359712,0,99)" stroke-width="110.783" stroke-linecap="butt" stroke-miterlimit="10" stroke-linejoin="miter" fill="none" stroke="#000000" d="M89319.8 14909.4 98533.1 9590.14"/>
<path transform="matrix(.00359712,0,0,-.00359712,0,99)" d="M92354.4 13157.5 93562.8 11582.7 94322.3 12898.3"/>
<path transform="matrix(.00359712,0,0,-.00359712,0,99)" d="M9018.55 3537.14C9065.64 3537.14 9115.52 3537.14 9115.52 3592.55 9115.52 3647.95 9065.64 3647.95 9018.55 3647.95H7519.88C7472.78 3647.95 7422.92 3647.95 7422.92 3592.55 7422.92 3537.14 7472.78 3537.14 7519.88 3537.14H9018.55"/>
<path transform="matrix(.00359712,0,0,-.00359712,0,99)" d="M10133.7 4631.38C10133.7 4686.77 10095 4731.09 10031.2 4731.09 9956.44 4731.09 9881.64 4659.06 9881.64 4584.28 9881.64 4531.64 9920.42 4484.55 9986.91 4484.55 10050.6 4484.55 10133.7 4548.27 10133.7 4631.38ZM9923.2 3589.78C9956.44 3670.11 9956.44 3675.66 9984.14 3750.45 10006.3 3805.84 10020.2 3844.64 10020.2 3897.27 10020.2 4021.92 9931.52 4124.42 9793 4124.42 9532.61 4124.42 9427.33 3722.75 9427.33 3697.81 9427.33 3670.11 9455.03 3670.11 9460.58 3670.11 9488.28 3670.11 9491.05 3675.66 9504.91 3719.97 9579.7 3980.38 9690.5 4063.48 9784.69 4063.48 9806.84 4063.48 9853.94 4063.48 9853.94 3974.83 9853.94 3916.66 9834.55 3858.48 9823.47 3830.78 9801.31 3758.77 9676.66 3437.42 9632.33 3318.3 9604.63 3246.28 9568.61 3154.86 9568.61 3096.69 9568.61 2966.48 9662.8 2869.53 9795.77 2869.53 10056.2 2869.53 10158.7 3271.2 10158.7 3296.14 10158.7 3323.84 10133.7 3323.84 10125.4 3323.84 10097.7 3323.84 10097.7 3315.53 10083.9 3273.97 10034 3099.45 9942.59 2930.47 9801.31 2930.47 9754.22 2930.47 9734.83 2958.17 9734.83 3021.89 9734.83 3091.14 9751.45 3129.92 9815.16 3298.91L9923.2 3589.78"/>
<path transform="matrix(.00359712,0,0,-.00359712,0,99)" d="M10818 3539.91C10898.4 3539.91 11103.4 3545.45 11241.9 3603.63 11435.8 3686.73 11449.6 3850.17 11449.6 3888.95 11449.6 4010.84 11344.4 4124.42 11153.2 4124.42 10845.7 4124.42 10427.4 3855.72 10427.4 3370.94 10427.4 3088.38 10590.9 2869.53 10862.3 2869.53 11258.5 2869.53 11491.2 3163.17 11491.2 3196.41 11491.2 3213.03 11474.6 3232.42 11457.9 3232.42 11444.1 3232.42 11438.5 3226.88 11421.9 3204.72 11203.1 2930.47 10901.1 2930.47 10867.9 2930.47 10651.8 2930.47 10626.9 3163.17 10626.9 3251.81 10626.9 3285.06 10629.7 3370.94 10671.2 3539.91H10818ZM10687.8 3600.86C10795.9 4021.92 11081.2 4063.48 11153.2 4063.48 11283.4 4063.48 11358.2 3983.14 11358.2 3888.95 11358.2 3600.86 10915 3600.86 10801.4 3600.86H10687.8"/>
<path transform="matrix(.00359712,0,0,-.00359712,0,99)" d="M13125.7 4783.73H11682.4V4697.86H11748.9C11962.2 4697.86 11967.8 4667.38 11967.8 4567.66V3116.08C11967.8 3016.34 11962.2 2985.88 11748.9 2985.88H11682.4V2900C11779.4 2908.31 11995.5 2908.31 12103.5 2908.31 12217.1 2908.31 12469.2 2908.31 12568.9 2900V2985.88H12477.5C12214.3 2985.88 12214.3 3021.89 12214.3 3118.84V4587.05C12214.3 4678.45 12219.8 4697.86 12350 4697.86H12635.4C13031.5 4697.86 13089.7 4534.41 13134 4160.44H13203.3L13125.7 4783.73"/>
<path transform="matrix(.00359712,0,0,-.00359712,0,99)" d="M13426.7 3730.88C13418.9 3701.78 13418.9 3692.09 13418.9 3690.16 13418.9 3647.5 13453.8 3628.13 13484.8 3628.13 13554.6 3628.13 13570.2 3692.09 13577.9 3725.05 13581.8 3734.75 13620.6 3889.84 13667.1 4079.83 13727.2 4039.13 13804.7 4023.61 13874.5 4023.61 14041.3 4023.61 14149.8 4159.33 14153.7 4163.2 14190.5 4029.42 14324.3 4023.61 14353.4 4023.61 14423.2 4023.61 14471.7 4066.27 14506.5 4126.36 14549.2 4201.97 14574.4 4312.48 14574.4 4320.23 14574.4 4345.44 14549.2 4345.44 14543.4 4345.44 14516.2 4345.44 14514.3 4337.69 14500.7 4285.34 14477.5 4192.28 14440.6 4077.89 14359.2 4077.89 14308.8 4077.89 14295.2 4120.55 14295.2 4172.89 14295.2 4205.84 14310.7 4275.64 14324.3 4326.05 14337.9 4378.39 14357.3 4457.88 14367 4500.53L14411.5 4673.08C14423.2 4721.55 14444.5 4806.84 14444.5 4816.55 14444.5 4855.31 14413.5 4878.58 14380.5 4878.58 14359.2 4878.58 14322.4 4868.89 14301 4832.05 14295.2 4820.42 14279.7 4758.38 14270 4719.61L14229.3 4558.69 14169.2 4316.36C14155.6 4267.89 14155.6 4264.02 14138.2 4238.81 14078.1 4153.5 13992.8 4077.89 13882.3 4077.89 13723.3 4077.89 13723.3 4215.55 13723.3 4250.44 13723.3 4300.84 13729.1 4326.05 13756.3 4430.73 13775.7 4516.05 13779.5 4529.61 13798.9 4605.22L13826.1 4713.8C13835.8 4754.5 13855.1 4828.17 13855.1 4835.92 13855.1 4870.83 13828 4897.97 13789.2 4897.97 13719.4 4897.97 13702 4830.11 13696.2 4806.84L13426.7 3730.88"/>
<path transform="matrix(.00359712,0,0,-.00359712,0,99)" d="M15723.9 2235.16C15723.9 2243.47 15723.9 2249 15676.8 2296.09 15330.6 2645.14 15241.9 3168.7 15241.9 3592.55 15241.9 4074.56 15347.2 4556.58 15687.9 4902.84 15723.9 4936.09 15723.9 4941.63 15723.9 4949.94 15723.9 4969.33 15712.8 4977.64 15696.2 4977.64 15668.5 4977.64 15419.2 4789.27 15255.8 4437.45 15114.5 4132.73 15081.3 3825.25 15081.3 3592.55 15081.3 3376.47 15111.7 3041.28 15264.1 2728.25 15430.3 2387.52 15668.5 2207.45 15696.2 2207.45 15712.8 2207.45 15723.9 2215.77 15723.9 2235.16"/>
<path transform="matrix(.00359712,0,0,-.00359712,0,99)" d="M16008.7 2562.03C15986.5 2467.84 15981 2448.45 15859.1 2448.45 15825.8 2448.45 15795.4 2448.45 15795.4 2395.83 15795.4 2373.67 15809.2 2362.58 15831.4 2362.58 15906.2 2362.58 15986.5 2370.89 16064.1 2370.89 16155.5 2370.89 16249.7 2362.58 16338.3 2362.58 16352.2 2362.58 16388.2 2362.58 16388.2 2417.98 16388.2 2448.45 16360.5 2448.45 16321.7 2448.45 16183.2 2448.45 16183.2 2467.84 16183.2 2492.78 16183.2 2526.03 16299.5 2977.56 16318.9 3046.81 16354.9 2966.48 16432.5 2869.53 16573.8 2869.53 16895.1 2869.53 17241.4 3273.97 17241.4 3681.19 17241.4 3941.59 17083.5 4124.42 16873 4124.42 16734.5 4124.42 16601.5 4024.7 16510.1 3916.66 16482.4 4066.25 16363.3 4124.42 16260.8 4124.42 16133.3 4124.42 16080.7 4016.39 16055.8 3966.52 16005.9 3872.33 15969.9 3706.13 15969.9 3697.81 15969.9 3670.11 15997.6 3670.11 16003.1 3670.11 16030.8 3670.11 16033.6 3672.88 16050.2 3733.83 16097.3 3930.52 16152.7 4063.48 16252.4 4063.48 16299.5 4063.48 16338.3 4041.31 16338.3 3936.05 16338.3 3872.33 16330 3841.86 16318.9 3794.77L16008.7 2562.03ZM16496.2 3764.3C16515.6 3839.09 16590.4 3916.66 16640.3 3958.22 16737.2 4044.09 16817.5 4063.48 16864.6 4063.48 16975.5 4063.48 17041.9 3966.52 17041.9 3803.08 17041.9 3639.64 16950.5 3321.06 16900.7 3215.8 16806.5 3021.89 16673.5 2930.47 16571 2930.47 16388.2 2930.47 16352.2 3160.39 16352.2 3177.02 16352.2 3182.56 16352.2 3188.09 16360.5 3221.34L16496.2 3764.3"/>
<path transform="matrix(.00359712,0,0,-.00359712,0,99)" d="M17840.2 4958.06C17855.7 4991.03 17857.7 5006.53 17857.7 5020.11 17857.7 5080.2 17803.4 5126.73 17743.3 5126.73 17669.6 5126.73 17646.4 5066.64 17636.7 5035.61L17380.8 4196.16C17378.8 4192.28 17371.1 4167.08 17371.1 4165.14 17371.1 4141.88 17431.2 4122.48 17446.7 4122.48 17460.2 4122.48 17462.2 4126.36 17475.8 4155.44L17840.2 4958.06"/>
<path transform="matrix(.00359712,0,0,-.00359712,0,99)" d="M18617.3 2902.77C18617.3 3085.61 18548.1 3193.64 18440.1 3193.64 18348.6 3193.64 18293.2 3124.39 18293.2 3046.81 18293.2 2972.03 18348.6 2900 18440.1 2900 18473.3 2900 18509.3 2911.08 18537 2936.02 18545.3 2941.55 18548.1 2944.33 18550.9 2944.33 18553.6 2944.33 18556.4 2941.55 18556.4 2902.77 18556.4 2697.78 18459.5 2531.56 18368 2440.16 18337.6 2409.67 18337.6 2404.14 18337.6 2395.83 18337.6 2376.44 18351.4 2365.36 18365.3 2365.36 18395.7 2365.36 18617.3 2578.66 18617.3 2902.77"/>
<path transform="matrix(.00359712,0,0,-.00359712,0,99)" d="M19406.7 2562.03C19384.5 2467.84 19379 2448.45 19257.1 2448.45 19223.8 2448.45 19193.4 2448.45 19193.4 2395.83 19193.4 2373.67 19207.2 2362.58 19229.4 2362.58 19304.2 2362.58 19384.5 2370.89 19462.1 2370.89 19553.5 2370.89 19647.7 2362.58 19736.3 2362.58 19750.2 2362.58 19786.2 2362.58 19786.2 2417.98 19786.2 2448.45 19758.5 2448.45 19719.7 2448.45 19581.2 2448.45 19581.2 2467.84 19581.2 2492.78 19581.2 2526.03 19697.5 2977.56 19716.9 3046.81 19752.9 2966.48 19830.5 2869.53 19971.8 2869.53 20293.1 2869.53 20639.4 3273.97 20639.4 3681.19 20639.4 3941.59 20481.5 4124.42 20271 4124.42 20132.5 4124.42 19999.5 4024.7 19908.1 3916.66 19880.4 4066.25 19761.3 4124.42 19658.8 4124.42 19531.3 4124.42 19478.7 4016.39 19453.8 3966.52 19403.9 3872.33 19367.9 3706.13 19367.9 3697.81 19367.9 3670.11 19395.6 3670.11 19401.1 3670.11 19428.8 3670.11 19431.6 3672.88 19448.2 3733.83 19495.3 3930.52 19550.7 4063.48 19650.4 4063.48 19697.5 4063.48 19736.3 4041.31 19736.3 3936.05 19736.3 3872.33 19728 3841.86 19716.9 3794.77L19406.7 2562.03ZM19894.2 3764.3C19913.6 3839.09 19988.4 3916.66 20038.3 3958.22 20135.2 4044.09 20215.5 4063.48 20262.6 4063.48 20373.5 4063.48 20439.9 3966.52 20439.9 3803.08 20439.9 3639.64 20348.5 3321.06 20298.7 3215.8 20204.5 3021.89 20071.5 2930.47 19969 2930.47 19786.2 2930.47 19750.2 3160.39 19750.2 3177.02 19750.2 3182.56 19750.2 3188.09 19758.5 3221.34L19894.2 3764.3"/>
<path transform="matrix(.00359712,0,0,-.00359712,0,99)" d="M21479.6 3592.55C21479.6 3808.63 21449.1 4143.81 21296.8 4456.84 21130.5 4797.58 20892.3 4977.64 20864.6 4977.64 20848 4977.64 20836.9 4966.56 20836.9 4949.94 20836.9 4941.63 20836.9 4936.09 20889.5 4886.22 21161 4611.97 21318.9 4171.52 21318.9 3592.55 21318.9 3118.84 21216.4 2631.3 20872.9 2282.25 20836.9 2249 20836.9 2243.47 20836.9 2235.16 20836.9 2218.53 20848 2207.45 20864.6 2207.45 20892.3 2207.45 21141.6 2395.83 21305.1 2747.64 21446.3 3052.36 21479.6 3359.84 21479.6 3592.55"/>
<path transform="matrix(.00359712,0,0,-.00359712,0,99)" d="M24424.1 3805.84C24465.7 3805.84 24518.3 3805.84 24518.3 3861.25 24518.3 3916.66 24465.7 3916.66 24426.9 3916.66H22767.5C22728.8 3916.66 22676.1 3916.66 22676.1 3861.25 22676.1 3805.84 22728.8 3805.84 22770.3 3805.84H24424.1ZM24426.9 3268.44C24465.7 3268.44 24518.3 3268.44 24518.3 3323.84 24518.3 3379.25 24465.7 3379.25 24424.1 3379.25H22770.3C22728.8 3379.25 22676.1 3379.25 22676.1 3323.84 22676.1 3268.44 22728.8 3268.44 22767.5 3268.44H24426.9"/>
<path transform="matrix(.00359712,0,0,-.00359712,0,99)" d="M27274.5 3537.14C27321.6 3537.14 27371.5 3537.14 27371.5 3592.55 27371.5 3647.95 27321.6 3647.95 27274.5 3647.95H25775.9C25728.8 3647.95 25678.9 3647.95 25678.9 3592.55 25678.9 3537.14 25728.8 3537.14 25775.9 3537.14H27274.5"/>
<path transform="matrix(.00359712,0,0,-.00359712,0,99)" d="M28389.7 4631.38C28389.7 4686.77 28351 4731.09 28287.2 4731.09 28212.4 4731.09 28137.6 4659.06 28137.6 4584.28 28137.6 4531.64 28176.4 4484.55 28242.9 4484.55 28306.6 4484.55 28389.7 4548.27 28389.7 4631.38ZM28179.2 3589.78C28212.4 3670.11 28212.4 3675.66 28240.1 3750.45 28262.3 3805.84 28276.2 3844.64 28276.2 3897.27 28276.2 4021.92 28187.5 4124.42 28049 4124.42 27788.6 4124.42 27683.3 3722.75 27683.3 3697.81 27683.3 3670.11 27711 3670.11 27716.6 3670.11 27744.3 3670.11 27747 3675.66 27760.9 3719.97 27835.7 3980.38 27946.5 4063.48 28040.7 4063.48 28062.8 4063.48 28109.9 4063.48 28109.9 3974.83 28109.9 3916.66 28090.5 3858.48 28079.5 3830.78 28057.3 3758.77 27932.7 3437.42 27888.3 3318.3 27860.6 3246.28 27824.6 3154.86 27824.6 3096.69 27824.6 2966.48 27918.8 2869.53 28051.8 2869.53 28312.2 2869.53 28414.7 3271.2 28414.7 3296.14 28414.7 3323.84 28389.7 3323.84 28381.4 3323.84 28353.7 3323.84 28353.7 3315.53 28339.9 3273.97 28290 3099.45 28198.6 2930.47 28057.3 2930.47 28010.2 2930.47 27990.8 2958.17 27990.8 3021.89 27990.8 3091.14 28007.5 3129.92 28071.2 3298.91L28179.2 3589.78"/>
<path transform="matrix(.00359712,0,0,-.00359712,0,99)" d="M29074 3539.91C29154.4 3539.91 29359.4 3545.45 29497.9 3603.63 29691.8 3686.73 29705.6 3850.17 29705.6 3888.95 29705.6 4010.84 29600.4 4124.42 29409.2 4124.42 29101.7 4124.42 28683.4 3855.72 28683.4 3370.94 28683.4 3088.38 28846.9 2869.53 29118.3 2869.53 29514.5 2869.53 29747.2 3163.17 29747.2 3196.41 29747.2 3213.03 29730.6 3232.42 29713.9 3232.42 29700.1 3232.42 29694.5 3226.88 29677.9 3204.72 29459.1 2930.47 29157.1 2930.47 29123.9 2930.47 28907.8 2930.47 28882.9 3163.17 28882.9 3251.81 28882.9 3285.06 28885.7 3370.94 28927.2 3539.91H29074ZM28943.8 3600.86C29051.9 4021.92 29337.2 4063.48 29409.2 4063.48 29539.4 4063.48 29614.2 3983.14 29614.2 3888.95 29614.2 3600.86 29171 3600.86 29057.4 3600.86H28943.8"/>
<path transform="matrix(.00359712,0,0,-.00359712,0,99)" d="M29957.6 3603.63C30065.6 3922.2 30367.6 3924.97 30398 3924.97 30816.3 3924.97 30846.8 3440.19 30846.8 3221.34 30846.8 3052.36 30833 3005.27 30813.6 2949.86 30752.6 2747.64 30669.5 2426.3 30669.5 2354.27 30669.5 2323.8 30683.4 2304.41 30705.5 2304.41 30741.5 2304.41 30763.7 2365.36 30794.2 2470.63 30857.9 2703.31 30885.6 2861.22 30896.7 2947.09 30902.2 2983.11 30907.8 3019.13 30918.8 3055.13 31007.5 3329.38 31184.8 3742.14 31295.6 3960.98 31315 3994.22 31348.2 4055.17 31348.2 4066.25 31348.2 4093.95 31320.5 4093.95 31315 4093.95 31306.7 4093.95 31290 4093.95 31281.7 4074.56 31137.7 3811.39 31026.9 3534.38 30916.1 3254.58 30913.3 3340.45 30910.5 3551 30802.5 3819.7 30736 3988.69 30625.2 4124.42 30434 4124.42 30087.8 4124.42 29893.9 3703.36 29893.9 3617.48 29893.9 3589.78 29918.8 3589.78 29946.5 3589.78L29957.6 3603.63"/>
<path transform="matrix(.00359712,0,0,-.00359712,0,99)" d="M31539.7 3730.88C31531.9 3701.78 31531.9 3692.09 31531.9 3690.16 31531.9 3647.5 31566.8 3628.13 31597.8 3628.13 31667.6 3628.13 31683.2 3692.09 31690.9 3725.05 31694.8 3734.75 31733.6 3889.84 31780.1 4079.83 31840.2 4039.13 31917.7 4023.61 31987.5 4023.61 32154.3 4023.61 32262.8 4159.33 32266.7 4163.2 32303.5 4029.42 32437.3 4023.61 32466.4 4023.61 32536.2 4023.61 32584.7 4066.27 32619.5 4126.36 32662.2 4201.97 32687.4 4312.48 32687.4 4320.23 32687.4 4345.44 32662.2 4345.44 32656.4 4345.44 32629.2 4345.44 32627.3 4337.69 32613.7 4285.34 32590.5 4192.28 32553.6 4077.89 32472.2 4077.89 32421.8 4077.89 32408.2 4120.55 32408.2 4172.89 32408.2 4205.84 32423.7 4275.64 32437.3 4326.05 32450.9 4378.39 32470.3 4457.88 32480 4500.53L32524.5 4673.08C32536.2 4721.55 32557.5 4806.84 32557.5 4816.55 32557.5 4855.31 32526.5 4878.58 32493.5 4878.58 32472.2 4878.58 32435.4 4868.89 32414 4832.05 32408.2 4820.42 32392.7 4758.38 32383 4719.61L32342.3 4558.69 32282.2 4316.36C32268.6 4267.89 32268.6 4264.02 32251.2 4238.81 32191.1 4153.5 32105.8 4077.89 31995.3 4077.89 31836.3 4077.89 31836.3 4215.55 31836.3 4250.44 31836.3 4300.84 31842.1 4326.05 31869.3 4430.73 31888.7 4516.05 31892.5 4529.61 31911.9 4605.22L31939.1 4713.8C31948.8 4754.5 31968.1 4828.17 31968.1 4835.92 31968.1 4870.83 31941 4897.97 31902.2 4897.97 31832.4 4897.97 31815 4830.11 31809.2 4806.84L31539.7 3730.88"/>
<path transform="matrix(.00359712,0,0,-.00359712,0,99)" d="M35360.5 3537.14C35407.6 3537.14 35457.5 3537.14 35457.5 3592.55 35457.5 3647.95 35407.6 3647.95 35360.5 3647.95H33861.9C33814.8 3647.95 33764.9 3647.95 33764.9 3592.55 33764.9 3537.14 33814.8 3537.14 33861.9 3537.14H35360.5"/>
<path transform="matrix(.00359712,0,0,-.00359712,0,99)" d="M37091.7 4631.38C37091.7 4686.77 37053 4731.09 36989.2 4731.09 36914.4 4731.09 36839.6 4659.06 36839.6 4584.28 36839.6 4531.64 36878.4 4484.55 36944.9 4484.55 37008.6 4484.55 37091.7 4548.27 37091.7 4631.38ZM36881.2 3589.78C36914.4 3670.11 36914.4 3675.66 36942.1 3750.45 36964.3 3805.84 36978.2 3844.64 36978.2 3897.27 36978.2 4021.92 36889.5 4124.42 36751 4124.42 36490.6 4124.42 36385.3 3722.75 36385.3 3697.81 36385.3 3670.11 36413 3670.11 36418.6 3670.11 36446.3 3670.11 36449 3675.66 36462.9 3719.97 36537.7 3980.38 36648.5 4063.48 36742.7 4063.48 36764.8 4063.48 36811.9 4063.48 36811.9 3974.83 36811.9 3916.66 36792.5 3858.48 36781.5 3830.78 36759.3 3758.77 36634.7 3437.42 36590.3 3318.3 36562.6 3246.28 36526.6 3154.86 36526.6 3096.69 36526.6 2966.48 36620.8 2869.53 36753.8 2869.53 37014.2 2869.53 37116.7 3271.2 37116.7 3296.14 37116.7 3323.84 37091.7 3323.84 37083.4 3323.84 37055.7 3323.84 37055.7 3315.53 37041.9 3273.97 36992 3099.45 36900.6 2930.47 36759.3 2930.47 36712.2 2930.47 36692.8 2958.17 36692.8 3021.89 36692.8 3091.14 36709.5 3129.92 36773.2 3298.91L36881.2 3589.78"/>
<path transform="matrix(.00359712,0,0,-.00359712,0,99)" d="M37776 3539.91C37856.4 3539.91 38061.4 3545.45 38199.9 3603.63 38393.8 3686.73 38407.6 3850.17 38407.6 3888.95 38407.6 4010.84 38302.4 4124.42 38111.2 4124.42 37803.7 4124.42 37385.4 3855.72 37385.4 3370.94 37385.4 3088.38 37548.9 2869.53 37820.3 2869.53 38216.5 2869.53 38449.2 3163.17 38449.2 3196.41 38449.2 3213.03 38432.6 3232.42 38415.9 3232.42 38402.1 3232.42 38396.5 3226.88 38379.9 3204.72 38161.1 2930.47 37859.1 2930.47 37825.9 2930.47 37609.8 2930.47 37584.9 3163.17 37584.9 3251.81 37584.9 3285.06 37587.7 3370.94 37629.2 3539.91H37776ZM37645.8 3600.86C37753.9 4021.92 38039.2 4063.48 38111.2 4063.48 38241.4 4063.48 38316.2 3983.14 38316.2 3888.95 38316.2 3600.86 37873 3600.86 37759.4 3600.86H37645.8"/>
<path transform="matrix(.00359712,0,0,-.00359712,0,99)" d="M39702.5 270.125H40431.1V422.484H39854.9V6763.45H40431.1V6915.81H39702.5V270.125"/>
<path transform="matrix(.00359712,0,0,-.00359712,0,99)" d="M40585.6 3603.63C40693.6 3922.2 40995.6 3924.97 41026 3924.97 41444.3 3924.97 41474.8 3440.19 41474.8 3221.34 41474.8 3052.36 41461 3005.27 41441.6 2949.86 41380.6 2747.64 41297.5 2426.3 41297.5 2354.27 41297.5 2323.8 41311.4 2304.41 41333.5 2304.41 41369.5 2304.41 41391.7 2365.36 41422.2 2470.63 41485.9 2703.31 41513.6 2861.22 41524.7 2947.09 41530.2 2983.11 41535.8 3019.13 41546.8 3055.13 41635.5 3329.38 41812.8 3742.14 41923.6 3960.98 41943 3994.22 41976.2 4055.17 41976.2 4066.25 41976.2 4093.95 41948.5 4093.95 41943 4093.95 41934.7 4093.95 41918 4093.95 41909.7 4074.56 41765.7 3811.39 41654.9 3534.38 41544.1 3254.58 41541.3 3340.45 41538.5 3551 41430.5 3819.7 41364 3988.69 41253.2 4124.42 41062 4124.42 40715.8 4124.42 40521.9 3703.36 40521.9 3617.48 40521.9 3589.78 40546.8 3589.78 40574.5 3589.78L40585.6 3603.63"/>
<path transform="matrix(.00359712,0,0,-.00359712,0,99)" d="M42164.7 3730.88C42156.9 3701.78 42156.9 3692.09 42156.9 3690.16 42156.9 3647.5 42191.8 3628.13 42222.8 3628.13 42292.6 3628.13 42308.2 3692.09 42315.9 3725.05 42319.8 3734.75 42358.6 3889.84 42405.1 4079.83 42465.2 4039.13 42542.7 4023.61 42612.5 4023.61 42779.3 4023.61 42887.8 4159.33 42891.7 4163.2 42928.5 4029.42 43062.3 4023.61 43091.4 4023.61 43161.2 4023.61 43209.7 4066.27 43244.5 4126.36 43287.2 4201.97 43312.4 4312.48 43312.4 4320.23 43312.4 4345.44 43287.2 4345.44 43281.4 4345.44 43254.2 4345.44 43252.3 4337.69 43238.7 4285.34 43215.5 4192.28 43178.6 4077.89 43097.2 4077.89 43046.8 4077.89 43033.2 4120.55 43033.2 4172.89 43033.2 4205.84 43048.7 4275.64 43062.3 4326.05 43075.9 4378.39 43095.3 4457.88 43105 4500.53L43149.5 4673.08C43161.2 4721.55 43182.5 4806.84 43182.5 4816.55 43182.5 4855.31 43151.5 4878.58 43118.5 4878.58 43097.2 4878.58 43060.4 4868.89 43039 4832.05 43033.2 4820.42 43017.7 4758.38 43008 4719.61L42967.3 4558.69 42907.2 4316.36C42893.6 4267.89 42893.6 4264.02 42876.2 4238.81 42816.1 4153.5 42730.8 4077.89 42620.3 4077.89 42461.3 4077.89 42461.3 4215.55 42461.3 4250.44 42461.3 4300.84 42467.1 4326.05 42494.3 4430.73 42513.7 4516.05 42517.5 4529.61 42536.9 4605.22L42564.1 4713.8C42573.8 4754.5 42593.1 4828.17 42593.1 4835.92 42593.1 4870.83 42566 4897.97 42527.2 4897.97 42457.4 4897.97 42440 4830.11 42434.2 4806.84L42164.7 3730.88"/>
<path transform="matrix(.00359712,0,0,-.00359712,0,99)" d="M44276.3 4110.58C43930.1 4027.47 43661.3 3667.34 43661.3 3332.16 43661.3 3066.22 43838.6 2866.75 44099 2866.75 44423.2 2866.75 44653.1 3301.67 44653.1 3683.97 44653.1 3936.05 44542.3 4074.56 44448.1 4199.22 44348.4 4323.88 44184.9 4531.64 44184.9 4653.53 44184.9 4714.47 44240.3 4780.95 44337.3 4780.95 44420.4 4780.95 44475.8 4744.94 44534 4706.16 44589.4 4672.92 44644.8 4636.91 44686.3 4636.91 44755.6 4636.91 44797.1 4703.39 44797.1 4747.72 44797.1 4808.66 44752.8 4816.97 44653.1 4839.13 44509 4869.61 44470.3 4869.61 44425.9 4869.61 44209.8 4869.61 44110.1 4750.48 44110.1 4584.28 44110.1 4434.69 44190.5 4279.55 44276.3 4110.58ZM44309.6 4049.63C44378.8 3922.2 44461.9 3772.61 44461.9 3573.16 44461.9 3390.33 44356.7 2927.7 44099 2927.7 43946.7 2927.7 43833.1 3044.05 43833.1 3254.58 43833.1 3429.11 43935.6 3949.91 44309.6 4049.63"/>
<path transform="matrix(.00359712,0,0,-.00359712,0,99)" d="M45716.4 3800.31H45985.1C46192.8 3800.31 46215 3755.98 46215 3675.66 46215 3656.27 46215 3623.02 46195.6 3539.91 46190.1 3526.06 46187.3 3514.98 46187.3 3509.44 46187.3 3487.28 46203.9 3476.2 46220.5 3476.2 46248.3 3476.2 46248.3 3484.52 46262.1 3534.38L46414.5 4135.5C46422.8 4165.97 46422.8 4171.52 46422.8 4179.83 46422.8 4185.36 46417.2 4210.3 46389.5 4210.3 46361.8 4210.3 46359 4196.45 46348 4152.13 46289.8 3936.05 46226.1 3886.19 45990.6 3886.19H45738.5L45915.8 4589.81C45940.8 4686.77 45943.5 4697.86 46065.4 4697.86H46431.1C46771.8 4697.86 46835.5 4606.44 46835.5 4393.13 46835.5 4329.42 46835.5 4318.34 46827.2 4243.55 46821.7 4207.53 46821.7 4201.98 46821.7 4193.67 46821.7 4179.83 46830 4160.44 46854.9 4160.44 46885.4 4160.44 46888.2 4177.06 46893.7 4229.69L46949.1 4708.94C46957.4 4783.73 46943.6 4783.73 46874.3 4783.73H45516.9C45461.5 4783.73 45433.8 4783.73 45433.8 4728.33 45433.8 4697.86 45458.7 4697.86 45511.4 4697.86 45613.9 4697.86 45691.4 4697.86 45691.4 4647.98 45691.4 4636.91 45691.4 4631.38 45677.6 4581.5L45311.9 3116.08C45284.2 3008.03 45278.7 2985.88 45059.8 2985.88 45012.7 2985.88 44982.3 2985.88 44982.3 2933.25 44982.3 2900 45015.5 2900 45023.8 2900 45104.2 2900 45309.2 2908.31 45389.5 2908.31 45480.9 2908.31 45710.8 2900 45802.3 2900 45827.2 2900 45860.4 2900 45860.4 2952.64 45860.4 2974.8 45843.8 2980.33 45843.8 2983.11 45835.5 2985.88 45829.9 2985.88 45766.2 2985.88 45705.3 2985.88 45691.4 2985.88 45622.2 2991.42 45541.8 2999.73 45533.5 3010.81 45533.5 3046.81 45533.5 3052.36 45533.5 3068.98 45544.6 3110.53L45716.4 3800.31"/>
<path transform="matrix(.00359712,0,0,-.00359712,0,99)" d="M47311.5 3717.02C47311.5 3769.36 47307.6 3771.3 47253.3 3771.3 47129.2 3649.16 46952.8 3647.22 46873.3 3647.22V3577.42C46919.8 3577.42 47047.8 3577.42 47154.4 3631.7V2642.97C47154.4 2579 47154.4 2553.8 46960.6 2553.8H46886.9V2484C46921.8 2485.94 47160.3 2491.75 47232 2491.75 47292.1 2491.75 47536.4 2485.94 47579 2484V2553.8H47505.3C47311.5 2553.8 47311.5 2579 47311.5 2642.97V3717.02"/>
<path transform="matrix(.00359712,0,0,-.00359712,0,99)" d="M48820.9 2235.16C48820.9 2243.47 48820.9 2249 48773.8 2296.09 48427.6 2645.14 48338.9 3168.7 48338.9 3592.55 48338.9 4074.56 48444.2 4556.58 48784.9 4902.84 48820.9 4936.09 48820.9 4941.63 48820.9 4949.94 48820.9 4969.33 48809.8 4977.64 48793.2 4977.64 48765.5 4977.64 48516.2 4789.27 48352.8 4437.45 48211.5 4132.73 48178.3 3825.25 48178.3 3592.55 48178.3 3376.47 48208.7 3041.28 48361.1 2728.25 48527.3 2387.52 48765.5 2207.45 48793.2 2207.45 48809.8 2207.45 48820.9 2215.77 48820.9 2235.16"/>
<path transform="matrix(.00359712,0,0,-.00359712,0,99)" d="M50233.1 4093.95C50233.1 4105.03 50224.8 4121.66 50205.4 4121.66 50175 4121.66 50064.1 4010.84 50017 3930.52 49956.1 4080.09 49848.1 4124.42 49759.4 4124.42 49432.5 4124.42 49091.8 3714.44 49091.8 3312.77 49091.8 3041.28 49255.3 2869.53 49457.5 2869.53 49576.6 2869.53 49684.6 2936.02 49784.4 3035.73 49759.4 2938.78 49668 2564.81 49659.7 2539.88 49637.5 2462.31 49615.4 2451.23 49460.3 2448.45 49424.2 2448.45 49396.5 2448.45 49396.5 2393.06 49396.5 2390.28 49396.5 2362.58 49432.5 2362.58 49521.2 2362.58 49618.1 2370.89 49709.6 2370.89 49803.8 2370.89 49903.5 2362.58 49994.9 2362.58 50008.7 2362.58 50044.8 2362.58 50044.8 2417.98 50044.8 2448.45 50017 2448.45 49972.7 2448.45 49839.8 2448.45 49839.8 2467.84 49839.8 2492.78 49839.8 2512.17 49845.3 2528.8 49850.8 2553.72L50233.1 4093.95ZM49465.8 2930.47C49299.6 2930.47 49288.5 3143.78 49288.5 3190.88 49288.5 3323.84 49368.8 3625.8 49415.9 3742.14 49501.8 3947.13 49645.8 4063.48 49759.4 4063.48 49939.5 4063.48 49978.3 3839.09 49978.3 3819.7 49978.3 3803.08 49825.9 3196.41 49817.6 3185.33 49776 3107.77 49620.9 2930.47 49465.8 2930.47"/>
<path transform="matrix(.00359712,0,0,-.00359712,0,99)" d="M51296 4395.84H51230.1C51224.3 4353.19 51204.9 4238.81 51179.7 4219.42 51164.2 4207.8 51014.9 4207.8 50987.8 4207.8H50631.1C50834.6 4388.09 50902.5 4442.38 51018.8 4533.48 51162.3 4647.88 51296 4768.08 51296 4952.25 51296 5186.83 51090.5 5330.3 50842.4 5330.3 50602 5330.3 50439.1 5161.63 50439.1 4983.27 50439.1 4884.39 50522.5 4874.7 50541.9 4874.7 50588.4 4874.7 50644.6 4907.66 50644.6 4977.45 50644.6 5012.34 50631.1 5080.2 50530.3 5080.2 50590.4 5217.86 50722.2 5260.5 50813.3 5260.5 51007.2 5260.5 51108 5109.28 51108 4952.25 51108 4783.58 50987.8 4649.81 50925.8 4580.02L50458.5 4118.61C50439.1 4101.16 50439.1 4097.28 50439.1 4043H51237.9L51296 4395.84"/>
<path transform="matrix(.00359712,0,0,-.00359712,0,99)" d="M52360.6 3592.55C52360.6 3808.63 52330.1 4143.81 52177.8 4456.84 52011.5 4797.58 51773.3 4977.64 51745.6 4977.64 51729 4977.64 51717.9 4966.56 51717.9 4949.94 51717.9 4941.63 51717.9 4936.09 51770.5 4886.22 52042 4611.97 52199.9 4171.52 52199.9 3592.55 52199.9 3118.84 52097.4 2631.3 51753.9 2282.25 51717.9 2249 51717.9 2243.47 51717.9 2235.16 51717.9 2218.53 51729 2207.45 51745.6 2207.45 51773.3 2207.45 52022.6 2395.83 52186.1 2747.64 52327.3 3052.36 52360.6 3359.84 52360.6 3592.55"/>
<path transform="matrix(.00359712,0,0,-.00359712,0,99)" d="M54382 3537.14H55154.9C55193.7 3537.14 55246.3 3537.14 55246.3 3592.55 55246.3 3647.95 55193.7 3647.95 55154.9 3647.95H54382V4423.61C54382 4462.39 54382 4515.02 54326.6 4515.02 54271.2 4515.02 54271.2 4462.39 54271.2 4423.61V3647.95H53495.5C53456.8 3647.95 53404.1 3647.95 53404.1 3592.55 53404.1 3537.14 53456.8 3537.14 53495.5 3537.14H54271.2V2761.48C54271.2 2722.7 54271.2 2670.08 54326.6 2670.08 54382 2670.08 54382 2722.7 54382 2761.48V3537.14"/>
<path transform="matrix(.00359712,0,0,-.00359712,0,99)" d="M57140.7 6504.38C57140.7 6559.77 57102 6604.09 57038.2 6604.09 56963.4 6604.09 56888.6 6532.06 56888.6 6457.28 56888.6 6404.64 56927.4 6357.55 56993.9 6357.55 57057.6 6357.55 57140.7 6421.27 57140.7 6504.38ZM56930.2 5462.78C56963.4 5543.11 56963.4 5548.66 56991.1 5623.45 57013.3 5678.84 57027.2 5717.64 57027.2 5770.27 57027.2 5894.92 56938.5 5997.42 56800 5997.42 56539.6 5997.42 56434.3 5595.75 56434.3 5570.81 56434.3 5543.11 56462 5543.11 56467.6 5543.11 56495.3 5543.11 56498 5548.66 56511.9 5592.97 56586.7 5853.38 56697.5 5936.48 56791.7 5936.48 56813.8 5936.48 56860.9 5936.48 56860.9 5847.83 56860.9 5789.66 56841.5 5731.48 56830.5 5703.78 56808.3 5631.77 56683.7 5310.42 56639.3 5191.3 56611.6 5119.28 56575.6 5027.86 56575.6 4969.69 56575.6 4839.48 56669.8 4742.53 56802.8 4742.53 57063.2 4742.53 57165.7 5144.2 57165.7 5169.14 57165.7 5196.84 57140.7 5196.84 57132.4 5196.84 57104.7 5196.84 57104.7 5188.53 57090.9 5146.97 57041 4972.45 56949.6 4803.47 56808.3 4803.47 56761.2 4803.47 56741.8 4831.17 56741.8 4894.89 56741.8 4964.14 56758.5 5002.92 56822.2 5171.91L56930.2 5462.78"/>
<path transform="matrix(.00359712,0,0,-.00359712,0,99)" d="M58742 5806.28C58778 5806.28 58877.7 5806.28 58877.7 5900.47 58877.7 5966.95 58819.5 5966.95 58769.7 5966.95H58138.1C57719.8 5966.95 57412.3 5509.88 57412.3 5180.22 57412.3 4936.44 57575.7 4742.53 57827.8 4742.53 58154.7 4742.53 58523.1 5077.72 58523.1 5504.33 58523.1 5551.42 58523.1 5684.39 58437.2 5806.28H58742ZM57830.6 4803.47C57694.8 4803.47 57584 4903.2 57584 5102.66 57584 5185.77 57617.3 5412.91 57714.2 5576.36 57830.6 5767.5 57996.8 5806.28 58091 5806.28 58323.7 5806.28 58345.8 5623.45 58345.8 5537.58 58345.8 5407.38 58290.4 5180.22 58196.2 5038.94 58088.2 4875.5 57938.6 4803.47 57830.6 4803.47"/>
<path transform="matrix(.00359712,0,0,-.00359712,0,99)" d="M59094.7 5466.88C59086.9 5437.78 59086.9 5428.09 59086.9 5426.16 59086.9 5383.5 59121.8 5364.13 59152.8 5364.13 59222.6 5364.13 59238.2 5428.09 59245.9 5461.05 59249.8 5470.75 59288.6 5625.84 59335.1 5815.83 59395.2 5775.13 59472.7 5759.61 59542.5 5759.61 59709.3 5759.61 59817.8 5895.33 59821.7 5899.2 59858.5 5765.42 59992.3 5759.61 60021.4 5759.61 60091.2 5759.61 60139.7 5802.27 60174.5 5862.36 60217.2 5937.97 60242.4 6048.48 60242.4 6056.23 60242.4 6081.44 60217.2 6081.44 60211.4 6081.44 60184.2 6081.44 60182.3 6073.69 60168.7 6021.34 60145.5 5928.28 60108.6 5813.89 60027.2 5813.89 59976.8 5813.89 59963.2 5856.55 59963.2 5908.89 59963.2 5941.84 59978.7 6011.64 59992.3 6062.05 60005.9 6114.39 60025.3 6193.88 60035 6236.53L60079.5 6409.08C60091.2 6457.55 60112.5 6542.84 60112.5 6552.55 60112.5 6591.31 60081.5 6614.58 60048.5 6614.58 60027.2 6614.58 59990.4 6604.89 59969 6568.05 59963.2 6556.42 59947.7 6494.38 59938 6455.61L59897.3 6294.69 59837.2 6052.36C59823.6 6003.89 59823.6 6000.02 59806.2 5974.81 59746.1 5889.5 59660.8 5813.89 59550.3 5813.89 59391.3 5813.89 59391.3 5951.55 59391.3 5986.44 59391.3 6036.84 59397.1 6062.05 59424.3 6166.73 59443.7 6252.05 59447.5 6265.61 59466.9 6341.22L59494.1 6449.8C59503.8 6490.5 59523.1 6564.17 59523.1 6571.92 59523.1 6606.83 59496 6633.97 59457.2 6633.97 59387.4 6633.97 59370 6566.11 59364.2 6542.84L59094.7 5466.88"/>
<path transform="matrix(.00359712,0,0,-.00359712,0,99)" d="M60822.6 6577.75C60824.5 6585.5 60826.5 6597.13 60826.5 6606.83 60826.5 6608.77 60826.5 6633.97 60795.5 6633.97 60793.5 6633.97 60683 6624.28 60669.5 6624.28 60632.6 6620.39 60597.7 6618.45 60560.9 6614.58 60529.9 6612.64 60506.6 6610.7 60506.6 6569.98 60506.6 6542.84 60533.8 6542.84 60557 6542.84 60650.1 6542.84 60650.1 6531.22 60650.1 6513.77 60650.1 6502.14 60640.4 6463.36 60632.6 6438.16L60535.7 6046.55C60487.2 5852.67 60477.5 5813.89 60477.5 5806.14 60477.5 5779 60506.6 5779 60514.4 5779H60545.4C60717.9 5806.14 60964.1 5897.27 61171.6 6081.44 61435.3 6316.02 61474 6568.05 61474 6571.92 61474 6606.83 61446.9 6633.97 61408.1 6633.97 61340.3 6633.97 61326.7 6579.69 61309.2 6525.41 61231.7 6250.11 60971.9 5953.48 60642.3 5856.55L60822.6 6577.75"/>
<path transform="matrix(.00359712,0,0,-.00359712,0,99)" d="M62967.1 5966.95C62967.1 5978.03 62958.8 5994.66 62939.4 5994.66 62909 5994.66 62798.1 5883.84 62751 5803.52 62690.1 5953.09 62582.1 5997.42 62493.4 5997.42 62166.5 5997.42 61825.8 5587.44 61825.8 5185.77 61825.8 4914.28 61989.3 4742.53 62191.5 4742.53 62310.6 4742.53 62418.6 4809.02 62518.4 4908.73 62493.4 4811.78 62402 4437.81 62393.7 4412.88 62371.5 4335.31 62349.4 4324.23 62194.3 4321.45 62158.2 4321.45 62130.5 4321.45 62130.5 4266.06 62130.5 4263.28 62130.5 4235.58 62166.5 4235.58 62255.2 4235.58 62352.1 4243.89 62443.6 4243.89 62537.8 4243.89 62637.5 4235.58 62728.9 4235.58 62742.7 4235.58 62778.8 4235.58 62778.8 4290.98 62778.8 4321.45 62751 4321.45 62706.7 4321.45 62573.8 4321.45 62573.8 4340.84 62573.8 4365.78 62573.8 4385.17 62579.3 4401.8 62584.8 4426.72L62967.1 5966.95ZM62199.8 4803.47C62033.6 4803.47 62022.5 5016.78 62022.5 5063.88 62022.5 5196.84 62102.8 5498.8 62149.9 5615.14 62235.8 5820.13 62379.8 5936.48 62493.4 5936.48 62673.5 5936.48 62712.3 5712.09 62712.3 5692.7 62712.3 5676.08 62559.9 5069.41 62551.6 5058.33 62510 4980.77 62354.9 4803.47 62199.8 4803.47"/>
<path transform="matrix(.00359712,0,0,-.00359712,0,99)" d="M63437.6 5156.75C63439.5 5164.5 63441.5 5176.13 63441.5 5185.83 63441.5 5187.77 63441.5 5212.97 63410.5 5212.97 63408.5 5212.97 63298 5203.28 63284.5 5203.28 63247.6 5199.39 63212.7 5197.45 63175.9 5193.58 63144.9 5191.64 63121.6 5189.7 63121.6 5148.98 63121.6 5121.84 63148.8 5121.84 63172 5121.84 63265.1 5121.84 63265.1 5110.22 63265.1 5092.77 63265.1 5081.14 63255.4 5042.36 63247.6 5017.16L63150.7 4625.55C63102.2 4431.67 63092.5 4392.89 63092.5 4385.14 63092.5 4358 63121.6 4358 63129.4 4358H63160.4C63332.9 4385.14 63579.1 4476.27 63786.6 4660.44 64050.3 4895.02 64089 5147.05 64089 5150.92 64089 5185.83 64061.9 5212.97 64023.1 5212.97 63955.3 5212.97 63941.7 5158.69 63924.2 5104.41 63846.7 4829.11 63586.9 4532.48 63257.3 4435.55L63437.6 5156.75"/>
<path transform="matrix(.00359712,0,0,-.00359712,0,99)" stroke-width="110.783" stroke-linecap="butt" stroke-miterlimit="10" stroke-linejoin="miter" fill="none" stroke="#000000" d="M56353.9 3592.04H64329.2"/>
<path transform="matrix(.00359712,0,0,-.00359712,0,99)" d="M58784.8 1213.3 59078.5 1498.64C59510.6 1880.92 59676.8 2030.52 59676.8 2307.53 59676.8 2623.33 59427.5 2844.94 59089.5 2844.94 58776.5 2844.94 58571.5 2590.09 58571.5 2343.55 58571.5 2188.41 58710 2188.41 58718.3 2188.41 58765.4 2188.41 58862.4 2221.66 58862.4 2335.23 58862.4 2407.25 58812.5 2479.28 58715.6 2479.28 58693.4 2479.28 58687.9 2479.28 58679.5 2476.52 58743.3 2656.58 58892.8 2759.06 59053.5 2759.06 59305.6 2759.06 59424.7 2534.69 59424.7 2307.53 59424.7 2085.91 59286.2 1867.06 59133.9 1695.31L58602 1102.5C58571.5 1072.03 58571.5 1066.48 58571.5 1000H59599.3L59676.8 1482.02H59607.6C59593.7 1398.91 59574.3 1277.02 59546.6 1235.47 59527.2 1213.3 59344.4 1213.3 59283.5 1213.3H58784.8"/>
<path transform="matrix(.00359712,0,0,-.00359712,0,99)" d="M60061.8 1163.44C60053.5 1121.89 60036.8 1058.17 60036.8 1044.33 60036.8 994.453 60075.6 969.531 60117.2 969.531 60150.4 969.531 60200.3 991.688 60219.7 1047.09 60222.5 1052.64 60255.7 1182.83 60272.3 1252.09L60333.3 1501.41C60349.9 1562.34 60366.5 1623.3 60380.3 1687 60391.4 1734.09 60413.6 1814.44 60416.4 1825.52 60457.9 1911.39 60604.7 2163.48 60867.9 2163.48 60992.6 2163.48 61017.5 2060.98 61017.5 1969.56 61017.5 1900.31 60998.1 1822.75 60975.9 1739.64L60898.4 1418.3 60843 1207.77C60831.9 1152.36 60807 1058.17 60807 1044.33 60807 994.453 60845.7 969.531 60887.3 969.531 60973.2 969.531 60989.8 1038.78 61012 1127.42 61050.7 1282.56 61153.2 1687 61178.2 1795.05 61186.5 1831.06 61333.3 2163.48 61635.3 2163.48 61754.4 2163.48 61784.8 2069.3 61784.8 1969.56 61784.8 1811.67 61668.5 1495.86 61613.1 1349.05 61588.2 1282.56 61577.1 1252.09 61577.1 1196.69 61577.1 1066.48 61674 969.531 61804.2 969.531 62064.6 969.531 62167.1 1373.97 62167.1 1396.14 62167.1 1423.84 62142.2 1423.84 62133.9 1423.84 62106.2 1423.84 62106.2 1415.53 62092.3 1373.97 62050.8 1227.16 61962.1 1030.47 61809.8 1030.47 61762.7 1030.47 61743.3 1058.17 61743.3 1121.89 61743.3 1191.14 61768.2 1257.63 61793.1 1318.58 61845.8 1462.63 61962.1 1770.11 61962.1 1928.02 61962.1 2108.08 61851.3 2224.42 61643.5 2224.42 61435.8 2224.42 61294.5 2102.53 61192 1955.72 61189.3 1991.73 61180.9 2085.91 61103.4 2152.39 61034.1 2210.58 60945.5 2224.42 60876.2 2224.42 60626.9 2224.42 60491.2 2047.13 60444.1 1983.42 60430.2 2141.31 60313.9 2224.42 60189.2 2224.42 60061.8 2224.42 60009.1 2116.39 59984.2 2066.52 59934.3 1969.56 59898.3 1806.13 59898.3 1797.81 59898.3 1770.11 59926 1770.11 59931.6 1770.11 59959.3 1770.11 59962 1772.88 59978.7 1833.83 60025.8 2030.52 60081.2 2163.48 60180.9 2163.48 60225.2 2163.48 60266.8 2141.31 60266.8 2036.05 60266.8 1977.88 60258.5 1947.41 60222.5 1803.36L60061.8 1163.44"/>
<path transform="matrix(.00359712,0,0,-.00359712,0,99)" d="M65501.4 3800.31H65770.1C65977.8 3800.31 66000 3755.98 66000 3675.66 66000 3656.27 66000 3623.02 65980.6 3539.91 65975.1 3526.06 65972.3 3514.98 65972.3 3509.44 65972.3 3487.28 65988.9 3476.2 66005.5 3476.2 66033.3 3476.2 66033.3 3484.52 66047.1 3534.38L66199.5 4135.5C66207.8 4165.97 66207.8 4171.52 66207.8 4179.83 66207.8 4185.36 66202.2 4210.3 66174.5 4210.3 66146.8 4210.3 66144 4196.45 66133 4152.13 66074.8 3936.05 66011.1 3886.19 65775.6 3886.19H65523.5L65700.8 4589.81C65725.8 4686.77 65728.5 4697.86 65850.4 4697.86H66216.1C66556.8 4697.86 66620.5 4606.44 66620.5 4393.13 66620.5 4329.42 66620.5 4318.34 66612.2 4243.55 66606.7 4207.53 66606.7 4201.98 66606.7 4193.67 66606.7 4179.83 66615 4160.44 66639.9 4160.44 66670.4 4160.44 66673.2 4177.06 66678.7 4229.69L66734.1 4708.94C66742.4 4783.73 66728.6 4783.73 66659.3 4783.73H65301.9C65246.5 4783.73 65218.8 4783.73 65218.8 4728.33 65218.8 4697.86 65243.7 4697.86 65296.4 4697.86 65398.9 4697.86 65476.4 4697.86 65476.4 4647.98 65476.4 4636.91 65476.4 4631.38 65462.6 4581.5L65096.9 3116.08C65069.2 3008.03 65063.7 2985.88 64844.8 2985.88 64797.7 2985.88 64767.3 2985.88 64767.3 2933.25 64767.3 2900 64800.5 2900 64808.8 2900 64889.2 2900 65094.2 2908.31 65174.5 2908.31 65265.9 2908.31 65495.8 2900 65587.3 2900 65612.2 2900 65645.4 2900 65645.4 2952.64 65645.4 2974.8 65628.8 2980.33 65628.8 2983.11 65620.5 2985.88 65614.9 2985.88 65551.2 2985.88 65490.3 2985.88 65476.4 2985.88 65407.2 2991.42 65326.8 2999.73 65318.5 3010.81 65318.5 3046.81 65318.5 3052.36 65318.5 3068.98 65329.6 3110.53L65501.4 3800.31"/>
<path transform="matrix(.00359712,0,0,-.00359712,0,99)" d="M67422 2836.84H67356.1C67350.3 2794.19 67330.9 2679.81 67305.7 2660.42 67290.2 2648.8 67140.9 2648.8 67113.8 2648.8H66757.1C66960.6 2829.09 67028.5 2883.38 67144.8 2974.48 67288.3 3088.88 67422 3209.08 67422 3393.25 67422 3627.83 67216.5 3771.3 66968.4 3771.3 66728 3771.3 66565.1 3602.63 66565.1 3424.27 66565.1 3325.39 66648.5 3315.7 66667.9 3315.7 66714.4 3315.7 66770.6 3348.66 66770.6 3418.45 66770.6 3453.34 66757.1 3521.2 66656.3 3521.2 66716.4 3658.86 66848.2 3701.5 66939.3 3701.5 67133.2 3701.5 67234 3550.28 67234 3393.25 67234 3224.58 67113.8 3090.81 67051.8 3021.02L66584.5 2559.61C66565.1 2542.16 66565.1 2538.28 66565.1 2484H67363.9L67422 2836.84"/>
<path transform="matrix(.00359712,0,0,-.00359712,0,99)" d="M68601.9 2235.16C68601.9 2243.47 68601.9 2249 68554.8 2296.09 68208.6 2645.14 68119.9 3168.7 68119.9 3592.55 68119.9 4074.56 68225.2 4556.58 68565.9 4902.84 68601.9 4936.09 68601.9 4941.63 68601.9 4949.94 68601.9 4969.33 68590.8 4977.64 68574.2 4977.64 68546.5 4977.64 68297.2 4789.27 68133.8 4437.45 67992.5 4132.73 67959.3 3825.25 67959.3 3592.55 67959.3 3376.47 67989.7 3041.28 68142.1 2728.25 68308.3 2387.52 68546.5 2207.45 68574.2 2207.45 68590.8 2207.45 68601.9 2215.77 68601.9 2235.16"/>
<path transform="matrix(.00359712,0,0,-.00359712,0,99)" d="M70014.1 4093.95C70014.1 4105.03 70005.8 4121.66 69986.4 4121.66 69956 4121.66 69845.1 4010.84 69798 3930.52 69737.1 4080.09 69629.1 4124.42 69540.4 4124.42 69213.5 4124.42 68872.8 3714.44 68872.8 3312.77 68872.8 3041.28 69036.3 2869.53 69238.5 2869.53 69357.6 2869.53 69465.6 2936.02 69565.4 3035.73 69540.4 2938.78 69449 2564.81 69440.7 2539.88 69418.5 2462.31 69396.4 2451.23 69241.3 2448.45 69205.2 2448.45 69177.5 2448.45 69177.5 2393.06 69177.5 2390.28 69177.5 2362.58 69213.5 2362.58 69302.2 2362.58 69399.1 2370.89 69490.6 2370.89 69584.8 2370.89 69684.5 2362.58 69775.9 2362.58 69789.7 2362.58 69825.8 2362.58 69825.8 2417.98 69825.8 2448.45 69798 2448.45 69753.7 2448.45 69620.8 2448.45 69620.8 2467.84 69620.8 2492.78 69620.8 2512.17 69626.3 2528.8 69631.8 2553.72L70014.1 4093.95ZM69246.8 2930.47C69080.6 2930.47 69069.5 3143.78 69069.5 3190.88 69069.5 3323.84 69149.8 3625.8 69196.9 3742.14 69282.8 3947.13 69426.8 4063.48 69540.4 4063.48 69720.5 4063.48 69759.3 3839.09 69759.3 3819.7 69759.3 3803.08 69606.9 3196.41 69598.6 3185.33 69557 3107.77 69401.9 2930.47 69246.8 2930.47"/>
<path transform="matrix(.00359712,0,0,-.00359712,0,99)" d="M71077 4395.84H71011.1C71005.3 4353.19 70985.9 4238.81 70960.7 4219.42 70945.2 4207.8 70795.9 4207.8 70768.8 4207.8H70412.1C70615.6 4388.09 70683.5 4442.38 70799.8 4533.48 70943.3 4647.88 71077 4768.08 71077 4952.25 71077 5186.83 70871.5 5330.3 70623.4 5330.3 70383 5330.3 70220.1 5161.63 70220.1 4983.27 70220.1 4884.39 70303.5 4874.7 70322.9 4874.7 70369.4 4874.7 70425.6 4907.66 70425.6 4977.45 70425.6 5012.34 70412.1 5080.2 70311.3 5080.2 70371.4 5217.86 70503.2 5260.5 70594.3 5260.5 70788.2 5260.5 70889 5109.28 70889 4952.25 70889 4783.58 70768.8 4649.81 70706.8 4580.02L70239.5 4118.61C70220.1 4101.16 70220.1 4097.28 70220.1 4043H71018.9L71077 4395.84"/>
<path transform="matrix(.00359712,0,0,-.00359712,0,99)" d="M72140.6 3592.55C72140.6 3808.63 72110.1 4143.81 71957.8 4456.84 71791.5 4797.58 71553.3 4977.64 71525.6 4977.64 71509 4977.64 71497.9 4966.56 71497.9 4949.94 71497.9 4941.63 71497.9 4936.09 71550.5 4886.22 71822 4611.97 71979.9 4171.52 71979.9 3592.55 71979.9 3118.84 71877.4 2631.3 71533.9 2282.25 71497.9 2249 71497.9 2243.47 71497.9 2235.16 71497.9 2218.53 71509 2207.45 71525.6 2207.45 71553.3 2207.45 71802.6 2395.83 71966.1 2747.64 72107.3 3052.36 72140.6 3359.84 72140.6 3592.55"/>
<path transform="matrix(.00359712,0,0,-.00359712,0,99)" d="M73033 422.484H72456.8V270.125H73185.3V6915.81H72456.8V6763.45H73033V422.484"/>
<path transform="matrix(.00359712,0,0,-.00359712,0,99)" d="M76320.5 3537.14C76367.6 3537.14 76417.5 3537.14 76417.5 3592.55 76417.5 3647.95 76367.6 3647.95 76320.5 3647.95H74821.9C74774.8 3647.95 74724.9 3647.95 74724.9 3592.55 74724.9 3537.14 74774.8 3537.14 74821.9 3537.14H76320.5"/>
<path transform="matrix(.00359712,0,0,-.00359712,0,99)" d="M78050.7 4631.38C78050.7 4686.77 78012 4731.09 77948.2 4731.09 77873.4 4731.09 77798.6 4659.06 77798.6 4584.28 77798.6 4531.64 77837.4 4484.55 77903.9 4484.55 77967.6 4484.55 78050.7 4548.27 78050.7 4631.38ZM77840.2 3589.78C77873.4 3670.11 77873.4 3675.66 77901.1 3750.45 77923.3 3805.84 77937.2 3844.64 77937.2 3897.27 77937.2 4021.92 77848.5 4124.42 77710 4124.42 77449.6 4124.42 77344.3 3722.75 77344.3 3697.81 77344.3 3670.11 77372 3670.11 77377.6 3670.11 77405.3 3670.11 77408 3675.66 77421.9 3719.97 77496.7 3980.38 77607.5 4063.48 77701.7 4063.48 77723.8 4063.48 77770.9 4063.48 77770.9 3974.83 77770.9 3916.66 77751.5 3858.48 77740.5 3830.78 77718.3 3758.77 77593.7 3437.42 77549.3 3318.3 77521.6 3246.28 77485.6 3154.86 77485.6 3096.69 77485.6 2966.48 77579.8 2869.53 77712.8 2869.53 77973.2 2869.53 78075.7 3271.2 78075.7 3296.14 78075.7 3323.84 78050.7 3323.84 78042.4 3323.84 78014.7 3323.84 78014.7 3315.53 78000.9 3273.97 77951 3099.45 77859.6 2930.47 77718.3 2930.47 77671.2 2930.47 77651.8 2958.17 77651.8 3021.89 77651.8 3091.14 77668.5 3129.92 77732.2 3298.91L77840.2 3589.78"/>
<path transform="matrix(.00359712,0,0,-.00359712,0,99)" d="M78735 3539.91C78815.4 3539.91 79020.4 3545.45 79158.9 3603.63 79352.8 3686.73 79366.6 3850.17 79366.6 3888.95 79366.6 4010.84 79261.4 4124.42 79070.2 4124.42 78762.7 4124.42 78344.4 3855.72 78344.4 3370.94 78344.4 3088.38 78507.9 2869.53 78779.3 2869.53 79175.5 2869.53 79408.2 3163.17 79408.2 3196.41 79408.2 3213.03 79391.6 3232.42 79374.9 3232.42 79361.1 3232.42 79355.5 3226.88 79338.9 3204.72 79120.1 2930.47 78818.1 2930.47 78784.9 2930.47 78568.8 2930.47 78543.9 3163.17 78543.9 3251.81 78543.9 3285.06 78546.7 3370.94 78588.2 3539.91H78735ZM78604.8 3600.86C78712.9 4021.92 78998.2 4063.48 79070.2 4063.48 79200.4 4063.48 79275.2 3983.14 79275.2 3888.95 79275.2 3600.86 78832 3600.86 78718.4 3600.86H78604.8"/>
<path transform="matrix(.00359712,0,0,-.00359712,0,99)" d="M79618.6 3603.63C79726.6 3922.2 80028.6 3924.97 80059 3924.97 80477.3 3924.97 80507.8 3440.19 80507.8 3221.34 80507.8 3052.36 80494 3005.27 80474.6 2949.86 80413.6 2747.64 80330.5 2426.3 80330.5 2354.27 80330.5 2323.8 80344.4 2304.41 80366.5 2304.41 80402.5 2304.41 80424.7 2365.36 80455.2 2470.63 80518.9 2703.31 80546.6 2861.22 80557.7 2947.09 80563.2 2983.11 80568.8 3019.13 80579.8 3055.13 80668.5 3329.38 80845.8 3742.14 80956.6 3960.98 80976 3994.22 81009.2 4055.17 81009.2 4066.25 81009.2 4093.95 80981.5 4093.95 80976 4093.95 80967.7 4093.95 80951 4093.95 80942.7 4074.56 80798.7 3811.39 80687.9 3534.38 80577.1 3254.58 80574.3 3340.45 80571.5 3551 80463.5 3819.7 80397 3988.69 80286.2 4124.42 80095 4124.42 79748.8 4124.42 79554.9 3703.36 79554.9 3617.48 79554.9 3589.78 79579.8 3589.78 79607.5 3589.78L79618.6 3603.63"/>
<path transform="matrix(.00359712,0,0,-.00359712,0,99)" d="M81200.7 3730.88C81192.9 3701.78 81192.9 3692.09 81192.9 3690.16 81192.9 3647.5 81227.8 3628.13 81258.8 3628.13 81328.6 3628.13 81344.2 3692.09 81351.9 3725.05 81355.8 3734.75 81394.6 3889.84 81441.1 4079.83 81501.2 4039.13 81578.7 4023.61 81648.5 4023.61 81815.3 4023.61 81923.8 4159.33 81927.7 4163.2 81964.5 4029.42 82098.3 4023.61 82127.4 4023.61 82197.2 4023.61 82245.7 4066.27 82280.5 4126.36 82323.2 4201.97 82348.4 4312.48 82348.4 4320.23 82348.4 4345.44 82323.2 4345.44 82317.4 4345.44 82290.2 4345.44 82288.3 4337.69 82274.7 4285.34 82251.5 4192.28 82214.6 4077.89 82133.2 4077.89 82082.8 4077.89 82069.2 4120.55 82069.2 4172.89 82069.2 4205.84 82084.7 4275.64 82098.3 4326.05 82111.9 4378.39 82131.3 4457.88 82141 4500.53L82185.5 4673.08C82197.2 4721.55 82218.5 4806.84 82218.5 4816.55 82218.5 4855.31 82187.5 4878.58 82154.5 4878.58 82133.2 4878.58 82096.4 4868.89 82075 4832.05 82069.2 4820.42 82053.7 4758.38 82044 4719.61L82003.3 4558.69 81943.2 4316.36C81929.6 4267.89 81929.6 4264.02 81912.2 4238.81 81852.1 4153.5 81766.8 4077.89 81656.3 4077.89 81497.3 4077.89 81497.3 4215.55 81497.3 4250.44 81497.3 4300.84 81503.1 4326.05 81530.3 4430.73 81549.7 4516.05 81553.5 4529.61 81572.9 4605.22L81600.1 4713.8C81609.8 4754.5 81629.1 4828.17 81629.1 4835.92 81629.1 4870.83 81602 4897.97 81563.2 4897.97 81493.4 4897.97 81476 4830.11 81470.2 4806.84L81200.7 3730.88"/>
<path transform="matrix(.00359712,0,0,-.00359712,0,99)" d="M83312.3 4110.58C82966.1 4027.47 82697.3 3667.34 82697.3 3332.16 82697.3 3066.22 82874.6 2866.75 83135 2866.75 83459.2 2866.75 83689.1 3301.67 83689.1 3683.97 83689.1 3936.05 83578.3 4074.56 83484.1 4199.22 83384.4 4323.88 83220.9 4531.64 83220.9 4653.53 83220.9 4714.47 83276.3 4780.95 83373.3 4780.95 83456.4 4780.95 83511.8 4744.94 83570 4706.16 83625.4 4672.92 83680.8 4636.91 83722.3 4636.91 83791.6 4636.91 83833.1 4703.39 83833.1 4747.72 83833.1 4808.66 83788.8 4816.97 83689.1 4839.13 83545 4869.61 83506.3 4869.61 83461.9 4869.61 83245.8 4869.61 83146.1 4750.48 83146.1 4584.28 83146.1 4434.69 83226.5 4279.55 83312.3 4110.58ZM83345.6 4049.63C83414.8 3922.2 83497.9 3772.61 83497.9 3573.16 83497.9 3390.33 83392.7 2927.7 83135 2927.7 82982.7 2927.7 82869.1 3044.05 82869.1 3254.58 82869.1 3429.11 82971.6 3949.91 83345.6 4049.63"/>
<path transform="matrix(.00359712,0,0,-.00359712,0,99)" d="M84461.5 3717.02C84461.5 3769.36 84457.6 3771.3 84403.3 3771.3 84279.2 3649.16 84102.8 3647.22 84023.3 3647.22V3577.42C84069.8 3577.42 84197.8 3577.42 84304.4 3631.7V2642.97C84304.4 2579 84304.4 2553.8 84110.6 2553.8H84036.9V2484C84071.8 2485.94 84310.3 2491.75 84382 2491.75 84442.1 2491.75 84686.4 2485.94 84729 2484V2553.8H84655.3C84461.5 2553.8 84461.5 2579 84461.5 2642.97V3717.02"/>
<path transform="matrix(.00359712,0,0,-.00359712,0,99)" d="M85585.9 3046.81C85585.9 3127.16 85519.4 3193.64 85439.1 3193.64 85358.7 3193.64 85292.2 3127.16 85292.2 3046.81 85292.2 2966.48 85358.7 2900 85439.1 2900 85519.4 2900 85585.9 2966.48 85585.9 3046.81"/>
</svg>
