<svg xmlns="http://www.w3.org/2000/svg" xmlns:xlink="http://www.w3.org/1999/xlink" version="1.1" width="165pt" height="33pt" viewBox="0 0 165 33">
<path transform="matrix(.00359712,0,0,-.00359712,0,33)" d="M937.547 6655.52 566.344 6278.77 616.203 6228.91 937.547 6511.45 1256.13 6228.91 1305.98 6278.77 937.547 6655.52"/>
<path transform="matrix(.00359712,0,0,-.00359712,0,33)" d="M1091.58 5858.03C1091.58 5863.56 1099.88 5894.03 1099.88 5896.81 1099.88 5899.58 1099.88 5924.52 1066.64 5924.52 1038.94 5924.52 1036.17 5916.2 1025.09 5869.11L864.422 5229.19C423.953 5215.34 16.7344 4846.91 16.7344 4470.16 16.7344 4207 210.656 3988.16 548.609 3968.75 526.453 3882.88 507.063 3794.23 484.906 3708.36 451.656 3578.16 423.953 3472.89 423.953 3464.58 423.953 3436.88 443.344 3434.11 457.203 3434.11 471.047 3434.11 476.594 3436.88 484.906 3445.19 490.438 3450.73 507.063 3517.22 515.375 3556L620.641 3968.75C1066.64 3982.61 1468.31 4356.58 1468.31 4727.8 1468.31 4946.64 1321.5 5201.48 936.438 5229.19L1091.58 5858.03ZM562.469 4029.7C396.25 4038.02 196.797 4134.97 196.797 4411.98 196.797 4744.41 435.031 5132.23 847.797 5168.25L562.469 4029.7ZM919.828 5168.25C1130.36 5157.17 1288.25 5029.73 1288.25 4785.97 1288.25 4459.08 1050.02 4062.94 634.484 4029.7L919.828 5168.25"/>
<path transform="matrix(.00359712,0,0,-.00359712,0,33)" d="M2448.94 3337.16C2448.94 3345.47 2448.94 3351 2401.84 3398.09 2055.56 3747.14 1966.92 4270.7 1966.92 4694.55 1966.92 5176.56 2072.19 5658.58 2412.92 6004.84 2448.94 6038.09 2448.94 6043.63 2448.94 6051.94 2448.94 6071.33 2437.84 6079.64 2421.23 6079.64 2393.53 6079.64 2144.22 5891.27 1980.77 5539.45 1839.48 5234.73 1806.25 4927.25 1806.25 4694.55 1806.25 4478.47 1836.72 4143.28 1989.08 3830.25 2155.3 3489.52 2393.53 3309.45 2421.23 3309.45 2437.84 3309.45 2448.94 3317.77 2448.94 3337.16"/>
<path transform="matrix(.00359712,0,0,-.00359712,0,33)" d="M3533.25 4838.59C3549.86 4910.63 3613.58 5165.48 3807.48 5165.48 3821.34 5165.48 3887.83 5165.48 3946 5129.47 3868.44 5115.61 3813.03 5046.36 3813.03 4979.88 3813.03 4935.55 3843.5 4882.92 3918.3 4882.92 3979.25 4882.92 4067.89 4932.78 4067.89 5043.59 4067.89 5187.64 3904.45 5226.42 3810.27 5226.42 3649.59 5226.42 3552.64 5079.61 3519.39 5015.89 3450.14 5198.72 3300.55 5226.42 3220.22 5226.42 2932.11 5226.42 2774.22 4869.06 2774.22 4799.81 2774.22 4772.11 2801.91 4772.11 2807.45 4772.11 2829.61 4772.11 2837.92 4777.66 2843.47 4802.58 2937.66 5096.22 3120.48 5165.48 3214.67 5165.48 3267.31 5165.48 3364.27 5140.55 3364.27 4979.88 3364.27 4894 3317.17 4708.39 3214.67 4320.58 3170.34 4148.81 3073.39 4032.47 2951.5 4032.47 2934.88 4032.47 2871.17 4032.47 2813 4068.48 2882.25 4082.33 2943.19 4140.52 2943.19 4218.08 2943.19 4292.88 2882.25 4315.03 2840.7 4315.03 2757.59 4315.03 2688.33 4243 2688.33 4154.36 2688.33 4026.94 2826.84 3971.53 2948.73 3971.53 3131.56 3971.53 3231.3 4165.44 3239.61 4182.06 3272.84 4079.56 3372.58 3971.53 3538.78 3971.53 3824.11 3971.53 3982.02 4328.88 3982.02 4398.14 3982.02 4425.84 3957.08 4425.84 3948.77 4425.84 3923.84 4425.84 3918.3 4414.77 3912.77 4395.36 3821.34 4098.95 3632.97 4032.47 3544.33 4032.47 3436.28 4032.47 3391.97 4121.13 3391.97 4215.3 3391.97 4276.25 3408.58 4337.19 3439.06 4459.08L3533.25 4838.59"/>
<path transform="matrix(.00359712,0,0,-.00359712,0,33)" d="M4991.58 4694.55C4991.58 4910.63 4961.11 5245.81 4808.75 5558.84 4642.55 5899.58 4404.3 6079.64 4376.61 6079.64 4359.98 6079.64 4348.91 6068.56 4348.91 6051.94 4348.91 6043.63 4348.91 6038.09 4401.53 5988.22 4673.02 5713.97 4830.91 5273.52 4830.91 4694.55 4830.91 4220.84 4728.42 3733.3 4384.91 3384.25 4348.91 3351 4348.91 3345.47 4348.91 3337.16 4348.91 3320.53 4359.98 3309.45 4376.61 3309.45 4404.3 3309.45 4653.63 3497.83 4817.06 3849.64 4958.34 4154.36 4991.58 4461.84 4991.58 4694.55"/>
<path transform="matrix(.00359712,0,0,-.00359712,0,33)" d="M6324.55 6655.52 5953.34 6278.77 6003.2 6228.91 6324.55 6511.45 6643.13 6228.91 6692.98 6278.77 6324.55 6655.52"/>
<path transform="matrix(.00359712,0,0,-.00359712,0,33)" d="M6479.58 5858.03C6479.58 5863.56 6487.88 5894.03 6487.88 5896.81 6487.88 5899.58 6487.88 5924.52 6454.64 5924.52 6426.94 5924.52 6424.17 5916.2 6413.09 5869.11L6252.42 5229.19C5811.95 5215.34 5404.73 4846.91 5404.73 4470.16 5404.73 4207 5598.66 3988.16 5936.61 3968.75 5914.45 3882.88 5895.06 3794.23 5872.91 3708.36 5839.66 3578.16 5811.95 3472.89 5811.95 3464.58 5811.95 3436.88 5831.34 3434.11 5845.2 3434.11 5859.05 3434.11 5864.59 3436.88 5872.91 3445.19 5878.44 3450.73 5895.06 3517.22 5903.38 3556L6008.64 3968.75C6454.64 3982.61 6856.31 4356.58 6856.31 4727.8 6856.31 4946.64 6709.5 5201.48 6324.44 5229.19L6479.58 5858.03ZM5950.47 4029.7C5784.25 4038.02 5584.8 4134.97 5584.8 4411.98 5584.8 4744.41 5823.03 5132.23 6235.8 5168.25L5950.47 4029.7ZM6307.83 5168.25C6518.36 5157.17 6676.25 5029.73 6676.25 4785.97 6676.25 4459.08 6438.02 4062.94 6022.48 4029.7L6307.83 5168.25"/>
<path transform="matrix(.00359712,0,0,-.00359712,0,33)" d="M7835.94 3337.16C7835.94 3345.47 7835.94 3351 7788.84 3398.09 7442.56 3747.14 7353.92 4270.7 7353.92 4694.55 7353.92 5176.56 7459.19 5658.58 7799.92 6004.84 7835.94 6038.09 7835.94 6043.63 7835.94 6051.94 7835.94 6071.33 7824.84 6079.64 7808.23 6079.64 7780.53 6079.64 7531.22 5891.27 7367.77 5539.45 7226.48 5234.73 7193.25 4927.25 7193.25 4694.55 7193.25 4478.47 7223.72 4143.28 7376.08 3830.25 7542.3 3489.52 7780.53 3309.45 7808.23 3309.45 7824.84 3309.45 7835.94 3317.77 7835.94 3337.16"/>
<path transform="matrix(.00359712,0,0,-.00359712,0,33)" d="M8921.25 4838.59C8937.86 4910.63 9001.58 5165.48 9195.48 5165.48 9209.34 5165.48 9275.83 5165.48 9334 5129.47 9256.44 5115.61 9201.03 5046.36 9201.03 4979.88 9201.03 4935.55 9231.5 4882.92 9306.3 4882.92 9367.25 4882.92 9455.89 4932.78 9455.89 5043.59 9455.89 5187.64 9292.45 5226.42 9198.27 5226.42 9037.59 5226.42 8940.64 5079.61 8907.39 5015.89 8838.14 5198.72 8688.55 5226.42 8608.22 5226.42 8320.11 5226.42 8162.22 4869.06 8162.22 4799.81 8162.22 4772.11 8189.91 4772.11 8195.45 4772.11 8217.61 4772.11 8225.92 4777.66 8231.47 4802.58 8325.66 5096.22 8508.48 5165.48 8602.67 5165.48 8655.31 5165.48 8752.27 5140.55 8752.27 4979.88 8752.27 4894 8705.17 4708.39 8602.67 4320.58 8558.34 4148.81 8461.39 4032.47 8339.5 4032.47 8322.88 4032.47 8259.17 4032.47 8201 4068.48 8270.25 4082.33 8331.19 4140.52 8331.19 4218.08 8331.19 4292.88 8270.25 4315.03 8228.7 4315.03 8145.59 4315.03 8076.33 4243 8076.33 4154.36 8076.33 4026.94 8214.84 3971.53 8336.73 3971.53 8519.56 3971.53 8619.3 4165.44 8627.61 4182.06 8660.84 4079.56 8760.58 3971.53 8926.78 3971.53 9212.11 3971.53 9370.02 4328.88 9370.02 4398.14 9370.02 4425.84 9345.08 4425.84 9336.77 4425.84 9311.84 4425.84 9306.3 4414.77 9300.77 4395.36 9209.34 4098.95 9020.97 4032.47 8932.33 4032.47 8824.28 4032.47 8779.97 4121.13 8779.97 4215.3 8779.97 4276.25 8796.58 4337.19 8827.06 4459.08L8921.25 4838.59"/>
<path transform="matrix(.00359712,0,0,-.00359712,0,33)" d="M10379.6 4694.55C10379.6 4910.63 10349.1 5245.81 10196.8 5558.84 10030.5 5899.58 9792.3 6079.64 9764.61 6079.64 9747.98 6079.64 9736.91 6068.56 9736.91 6051.94 9736.91 6043.63 9736.91 6038.09 9789.53 5988.22 10061 5713.97 10218.9 5273.52 10218.9 4694.55 10218.9 4220.84 10116.4 3733.3 9772.91 3384.25 9736.91 3351 9736.91 3345.47 9736.91 3337.16 9736.91 3320.53 9747.98 3309.45 9764.61 3309.45 9792.3 3309.45 10041.6 3497.83 10205.1 3849.64 10346.3 4154.36 10379.6 4461.84 10379.6 4694.55"/>
<path transform="matrix(.00359712,0,0,-.00359712,0,33)" d="M11711.5 6655.52 11340.3 6278.77 11390.2 6228.91 11711.5 6511.45 12030.1 6228.91 12080 6278.77 11711.5 6655.52"/>
<path transform="matrix(.00359712,0,0,-.00359712,0,33)" d="M11866.6 5858.03C11866.6 5863.56 11874.9 5894.03 11874.9 5896.81 11874.9 5899.58 11874.9 5924.52 11841.6 5924.52 11813.9 5924.52 11811.2 5916.2 11800.1 5869.11L11639.4 5229.19C11199 5215.34 10791.7 4846.91 10791.7 4470.16 10791.7 4207 10985.7 3988.16 11323.6 3968.75 11301.5 3882.88 11282.1 3794.23 11259.9 3708.36 11226.7 3578.16 11199 3472.89 11199 3464.58 11199 3436.88 11218.3 3434.11 11232.2 3434.11 11246 3434.11 11251.6 3436.88 11259.9 3445.19 11265.4 3450.73 11282.1 3517.22 11290.4 3556L11395.6 3968.75C11841.6 3982.61 12243.3 4356.58 12243.3 4727.8 12243.3 4946.64 12096.5 5201.48 11711.4 5229.19L11866.6 5858.03ZM11337.5 4029.7C11171.3 4038.02 10971.8 4134.97 10971.8 4411.98 10971.8 4744.41 11210 5132.23 11622.8 5168.25L11337.5 4029.7ZM11694.8 5168.25C11905.4 5157.17 12063.3 5029.73 12063.3 4785.97 12063.3 4459.08 11825 4062.94 11409.5 4029.7L11694.8 5168.25"/>
<path transform="matrix(.00359712,0,0,-.00359712,0,33)" stroke-width="110.783" stroke-linecap="butt" stroke-miterlimit="10" stroke-linejoin="miter" fill="none" stroke="#000000" d="M706.102 7487.23V7985.15H11480.8V7487.23"/>
<path transform="matrix(.00359712,0,0,-.00359712,0,33)" d="M13222.9 3337.16C13222.9 3345.47 13222.9 3351 13175.8 3398.09 12829.6 3747.14 12740.9 4270.7 12740.9 4694.55 12740.9 5176.56 12846.2 5658.58 13186.9 6004.84 13222.9 6038.09 13222.9 6043.63 13222.9 6051.94 13222.9 6071.33 13211.8 6079.64 13195.2 6079.64 13167.5 6079.64 12918.2 5891.27 12754.8 5539.45 12613.5 5234.73 12580.3 4927.25 12580.3 4694.55 12580.3 4478.47 12610.7 4143.28 12763.1 3830.25 12929.3 3489.52 13167.5 3309.45 13195.2 3309.45 13211.8 3309.45 13222.9 3317.77 13222.9 3337.16"/>
<path transform="matrix(.00359712,0,0,-.00359712,0,33)" d="M14729.3 5057.44C14740.4 5096.22 14740.4 5101.77 14740.4 5121.16 14740.4 5171.02 14701.6 5195.95 14660.1 5195.95 14632.4 5195.95 14588 5179.33 14563.1 5137.78 14557.6 5123.92 14535.4 5038.05 14524.3 4988.19 14504.9 4916.16 14485.5 4841.36 14468.9 4766.58L14344.3 4267.94C14333.2 4226.39 14214.1 4032.47 14031.2 4032.47 13889.9 4032.47 13859.5 4154.36 13859.5 4256.86 13859.5 4384.28 13906.6 4556.03 14000.8 4799.81 14045.1 4913.39 14056.2 4943.86 14056.2 4999.27 14056.2 5123.92 13967.5 5226.42 13829 5226.42 13565.8 5226.42 13463.3 4824.75 13463.3 4799.81 13463.3 4772.11 13491 4772.11 13496.6 4772.11 13524.3 4772.11 13527 4777.66 13540.9 4821.97 13615.7 5082.38 13726.5 5165.48 13820.7 5165.48 13842.8 5165.48 13889.9 5165.48 13889.9 5076.83 13889.9 5007.58 13862.3 4935.55 13842.8 4882.92 13732 4589.28 13682.2 4431.38 13682.2 4301.19 13682.2 4054.64 13856.7 3971.53 14020.1 3971.53 14128.2 3971.53 14222.4 4018.63 14299.9 4096.19 14263.9 3952.14 14230.7 3816.39 14119.9 3669.58 14047.8 3575.39 13942.6 3495.06 13815.2 3495.06 13776.4 3495.06 13651.7 3503.36 13604.6 3611.41 13648.9 3611.41 13685 3611.41 13723.7 3644.64 13751.4 3669.58 13779.1 3705.59 13779.1 3758.22 13779.1 3844.09 13704.3 3855.19 13676.6 3855.19 13612.9 3855.19 13521.5 3810.86 13521.5 3675.13 13521.5 3536.61 13643.4 3434.11 13815.2 3434.11 14100.5 3434.11 14385.8 3686.2 14463.4 3999.23L14729.3 5057.44"/>
<path transform="matrix(.00359712,0,0,-.00359712,0,33)" d="M15640.6 4694.55C15640.6 4910.63 15610.1 5245.81 15457.8 5558.84 15291.5 5899.58 15053.3 6079.64 15025.6 6079.64 15009 6079.64 14997.9 6068.56 14997.9 6051.94 14997.9 6043.63 14997.9 6038.09 15050.5 5988.22 15322 5713.97 15479.9 5273.52 15479.9 4694.55 15479.9 4220.84 15377.4 3733.3 15033.9 3384.25 14997.9 3351 14997.9 3345.47 14997.9 3337.16 14997.9 3320.53 15009 3309.45 15025.6 3309.45 15053.3 3309.45 15302.6 3497.83 15466.1 3849.64 15607.3 4154.36 15640.6 4461.84 15640.6 4694.55"/>
<path transform="matrix(.00359712,0,0,-.00359712,0,33)" d="M16973.5 6655.52 16602.3 6278.77 16652.2 6228.91 16973.5 6511.45 17292.1 6228.91 17342 6278.77 16973.5 6655.52"/>
<path transform="matrix(.00359712,0,0,-.00359712,0,33)" d="M17127.6 5858.03C17127.6 5863.56 17135.9 5894.03 17135.9 5896.81 17135.9 5899.58 17135.9 5924.52 17102.6 5924.52 17074.9 5924.52 17072.2 5916.2 17061.1 5869.11L16900.4 5229.19C16460 5215.34 16052.7 4846.91 16052.7 4470.16 16052.7 4207 16246.7 3988.16 16584.6 3968.75 16562.5 3882.88 16543.1 3794.23 16520.9 3708.36 16487.7 3578.16 16460 3472.89 16460 3464.58 16460 3436.88 16479.3 3434.11 16493.2 3434.11 16507 3434.11 16512.6 3436.88 16520.9 3445.19 16526.4 3450.73 16543.1 3517.22 16551.4 3556L16656.6 3968.75C17102.6 3982.61 17504.3 4356.58 17504.3 4727.8 17504.3 4946.64 17357.5 5201.48 16972.4 5229.19L17127.6 5858.03ZM16598.5 4029.7C16432.3 4038.02 16232.8 4134.97 16232.8 4411.98 16232.8 4744.41 16471 5132.23 16883.8 5168.25L16598.5 4029.7ZM16955.8 5168.25C17166.4 5157.17 17324.3 5029.73 17324.3 4785.97 17324.3 4459.08 17086 4062.94 16670.5 4029.7L16955.8 5168.25"/>
<path transform="matrix(.00359712,0,0,-.00359712,0,33)" stroke-width="110.783" stroke-linecap="butt" stroke-miterlimit="10" stroke-linejoin="miter" fill="none" stroke="#000000" d="M6093.46 7487.23V8816.04H16742.5V7487.23"/>
<path transform="matrix(.00359712,0,0,-.00359712,0,33)" d="M18484.9 3337.16C18484.9 3345.47 18484.9 3351 18437.8 3398.09 18091.6 3747.14 18002.9 4270.7 18002.9 4694.55 18002.9 5176.56 18108.2 5658.58 18448.9 6004.84 18484.9 6038.09 18484.9 6043.63 18484.9 6051.94 18484.9 6071.33 18473.8 6079.64 18457.2 6079.64 18429.5 6079.64 18180.2 5891.27 18016.8 5539.45 17875.5 5234.73 17842.3 4927.25 17842.3 4694.55 17842.3 4478.47 17872.7 4143.28 18025.1 3830.25 18191.3 3489.52 18429.5 3309.45 18457.2 3309.45 18473.8 3309.45 18484.9 3317.77 18484.9 3337.16"/>
<path transform="matrix(.00359712,0,0,-.00359712,0,33)" d="M19991.3 5057.44C20002.4 5096.22 20002.4 5101.77 20002.4 5121.16 20002.4 5171.02 19963.6 5195.95 19922.1 5195.95 19894.4 5195.95 19850 5179.33 19825.1 5137.78 19819.6 5123.92 19797.4 5038.05 19786.3 4988.19 19766.9 4916.16 19747.5 4841.36 19730.9 4766.58L19606.3 4267.94C19595.2 4226.39 19476.1 4032.47 19293.2 4032.47 19151.9 4032.47 19121.5 4154.36 19121.5 4256.86 19121.5 4384.28 19168.6 4556.03 19262.8 4799.81 19307.1 4913.39 19318.2 4943.86 19318.2 4999.27 19318.2 5123.92 19229.5 5226.42 19091 5226.42 18827.8 5226.42 18725.3 4824.75 18725.3 4799.81 18725.3 4772.11 18753 4772.11 18758.6 4772.11 18786.3 4772.11 18789 4777.66 18802.9 4821.97 18877.7 5082.38 18988.5 5165.48 19082.7 5165.48 19104.8 5165.48 19151.9 5165.48 19151.9 5076.83 19151.9 5007.58 19124.3 4935.55 19104.8 4882.92 18994 4589.28 18944.2 4431.38 18944.2 4301.19 18944.2 4054.64 19118.7 3971.53 19282.1 3971.53 19390.2 3971.53 19484.4 4018.63 19561.9 4096.19 19525.9 3952.14 19492.7 3816.39 19381.9 3669.58 19309.8 3575.39 19204.6 3495.06 19077.2 3495.06 19038.4 3495.06 18913.7 3503.36 18866.6 3611.41 18910.9 3611.41 18947 3611.41 18985.7 3644.64 19013.4 3669.58 19041.1 3705.59 19041.1 3758.22 19041.1 3844.09 18966.3 3855.19 18938.6 3855.19 18874.9 3855.19 18783.5 3810.86 18783.5 3675.13 18783.5 3536.61 18905.4 3434.11 19077.2 3434.11 19362.5 3434.11 19647.8 3686.2 19725.4 3999.23L19991.3 5057.44"/>
<path transform="matrix(.00359712,0,0,-.00359712,0,33)" d="M20902.6 4694.55C20902.6 4910.63 20872.1 5245.81 20719.8 5558.84 20553.5 5899.58 20315.3 6079.64 20287.6 6079.64 20271 6079.64 20259.9 6068.56 20259.9 6051.94 20259.9 6043.63 20259.9 6038.09 20312.5 5988.22 20584 5713.97 20741.9 5273.52 20741.9 4694.55 20741.9 4220.84 20639.4 3733.3 20295.9 3384.25 20259.9 3351 20259.9 3345.47 20259.9 3337.16 20259.9 3320.53 20271 3309.45 20287.6 3309.45 20315.3 3309.45 20564.6 3497.83 20728.1 3849.64 20869.3 4154.36 20902.6 4461.84 20902.6 4694.55"/>
<path transform="matrix(.00359712,0,0,-.00359712,0,33)" d="M23847.1 4907.84C23888.7 4907.84 23941.3 4907.84 23941.3 4963.25 23941.3 5018.66 23888.7 5018.66 23849.9 5018.66H22190.5C22151.8 5018.66 22099.1 5018.66 22099.1 4963.25 22099.1 4907.84 22151.8 4907.84 22193.3 4907.84H23847.1ZM23849.9 4370.44C23888.7 4370.44 23941.3 4370.44 23941.3 4425.84 23941.3 4481.25 23888.7 4481.25 23847.1 4481.25H22193.3C22151.8 4481.25 22099.1 4481.25 22099.1 4425.84 22099.1 4370.44 22151.8 4370.44 22190.5 4370.44H23849.9"/>
<path transform="matrix(.00359712,0,0,-.00359712,0,33)" stroke-width="110.783" stroke-linecap="butt" stroke-miterlimit="10" stroke-linejoin="miter" fill="none" stroke="#000000" d="M25850.6 8634.79 29790.8 4694.59"/>
<path transform="matrix(.00359712,0,0,-.00359712,0,33)" stroke-width="110.783" stroke-linecap="butt" stroke-miterlimit="10" stroke-linejoin="miter" fill="none" stroke="#000000" d="M29790.8 4694.59 25850.6 754.383"/>
<path transform="matrix(.00359712,0,0,-.00359712,0,33)" stroke-width="110.783" stroke-linecap="butt" stroke-miterlimit="10" stroke-linejoin="miter" fill="none" stroke="#000000" d="M45551.6 8634.79 41611.4 4694.59"/>
<path transform="matrix(.00359712,0,0,-.00359712,0,33)" stroke-width="110.783" stroke-linecap="butt" stroke-miterlimit="10" stroke-linejoin="miter" fill="none" stroke="#000000" d="M41611.4 4694.59 45551.6 754.383"/>
<path transform="matrix(.00359712,0,0,-.00359712,0,33)" stroke-width="637.012" stroke-linecap="butt" stroke-miterlimit="10" stroke-linejoin="miter" fill="none" stroke="#000000" d="M29790.8 4694.59C29790.8 10226.2 41611.4 10226.2 41611.4 4694.59"/>
<path transform="matrix(.00359712,0,0,-.00359712,0,33)" stroke-width="415.449" stroke-linecap="butt" stroke-miterlimit="10" stroke-linejoin="miter" fill="none" stroke="#ffffff" d="M29790.8 4694.59C29790.8 10226.2 41611.4 10226.2 41611.4 4694.59"/>
<path transform="matrix(.00359712,0,0,-.00359712,0,33)" stroke-width="637.012" stroke-linecap="butt" stroke-miterlimit="10" stroke-linejoin="miter" fill="none" stroke="#000000" d="M29790.8 4694.59C29790.8-837.02 41611.4-837.02 41611.4 4694.59"/>
<path transform="matrix(.00359712,0,0,-.00359712,0,33)" stroke-width="415.449" stroke-linecap="butt" stroke-miterlimit="10" stroke-linejoin="miter" fill="none" stroke="#ffffff" d="M29790.8 4694.59C29790.8-837.02 41611.4-837.02 41611.4 4694.59"/>
</svg>
