<svg xmlns="http://www.w3.org/2000/svg" xmlns:xlink="http://www.w3.org/1999/xlink" version="1.1" width="186pt" height="39pt" viewBox="0 0 186 39">
<path transform="matrix(.00359712,0,0,-.00359712,0,39)" d="M937.547 6955.52 566.344 6578.77 616.203 6528.91 937.547 6811.45 1256.13 6528.91 1305.98 6578.77 937.547 6955.52"/>
<path transform="matrix(.00359712,0,0,-.00359712,0,39)" d="M1091.58 6158.03C1091.58 6163.56 1099.88 6194.03 1099.88 6196.81 1099.88 6199.58 1099.88 6224.52 1066.64 6224.52 1038.94 6224.52 1036.17 6216.2 1025.09 6169.11L864.422 5529.19C423.953 5515.34 16.7344 5146.91 16.7344 4770.16 16.7344 4507 210.656 4288.16 548.609 4268.75 526.453 4182.88 507.063 4094.23 484.906 4008.36 451.656 3878.16 423.953 3772.89 423.953 3764.58 423.953 3736.88 443.344 3734.11 457.203 3734.11 471.047 3734.11 476.594 3736.88 484.906 3745.19 490.438 3750.73 507.063 3817.22 515.375 3856L620.641 4268.75C1066.64 4282.61 1468.31 4656.58 1468.31 5027.8 1468.31 5246.64 1321.5 5501.48 936.438 5529.19L1091.58 6158.03ZM562.469 4329.7C396.25 4338.02 196.797 4434.97 196.797 4711.98 196.797 5044.41 435.031 5432.23 847.797 5468.25L562.469 4329.7ZM919.828 5468.25C1130.36 5457.17 1288.25 5329.73 1288.25 5085.97 1288.25 4759.08 1050.02 4362.94 634.484 4329.7L919.828 5468.25"/>
<path transform="matrix(.00359712,0,0,-.00359712,0,39)" d="M2448.94 3637.16C2448.94 3645.47 2448.94 3651 2401.84 3698.09 2055.56 4047.14 1966.92 4570.7 1966.92 4994.55 1966.92 5476.56 2072.19 5958.58 2412.92 6304.84 2448.94 6338.09 2448.94 6343.63 2448.94 6351.94 2448.94 6371.33 2437.84 6379.64 2421.23 6379.64 2393.53 6379.64 2144.22 6191.27 1980.77 5839.45 1839.48 5534.73 1806.25 5227.25 1806.25 4994.55 1806.25 4778.47 1836.72 4443.28 1989.08 4130.25 2155.3 3789.52 2393.53 3609.45 2421.23 3609.45 2437.84 3609.45 2448.94 3617.77 2448.94 3637.16"/>
<path transform="matrix(.00359712,0,0,-.00359712,0,39)" d="M3533.25 5138.59C3549.86 5210.63 3613.58 5465.48 3807.48 5465.48 3821.34 5465.48 3887.83 5465.48 3946 5429.47 3868.44 5415.61 3813.03 5346.36 3813.03 5279.88 3813.03 5235.55 3843.5 5182.92 3918.3 5182.92 3979.25 5182.92 4067.89 5232.78 4067.89 5343.59 4067.89 5487.64 3904.45 5526.42 3810.27 5526.42 3649.59 5526.42 3552.64 5379.61 3519.39 5315.89 3450.14 5498.72 3300.55 5526.42 3220.22 5526.42 2932.11 5526.42 2774.22 5169.06 2774.22 5099.81 2774.22 5072.11 2801.91 5072.11 2807.45 5072.11 2829.61 5072.11 2837.92 5077.66 2843.47 5102.58 2937.66 5396.22 3120.48 5465.48 3214.67 5465.48 3267.31 5465.48 3364.27 5440.55 3364.27 5279.88 3364.27 5194 3317.17 5008.39 3214.67 4620.58 3170.34 4448.81 3073.39 4332.47 2951.5 4332.47 2934.88 4332.47 2871.17 4332.47 2813 4368.48 2882.25 4382.33 2943.19 4440.52 2943.19 4518.08 2943.19 4592.88 2882.25 4615.03 2840.7 4615.03 2757.59 4615.03 2688.33 4543 2688.33 4454.36 2688.33 4326.94 2826.84 4271.53 2948.73 4271.53 3131.56 4271.53 3231.3 4465.44 3239.61 4482.06 3272.84 4379.56 3372.58 4271.53 3538.78 4271.53 3824.11 4271.53 3982.02 4628.88 3982.02 4698.14 3982.02 4725.84 3957.08 4725.84 3948.77 4725.84 3923.84 4725.84 3918.3 4714.77 3912.77 4695.36 3821.34 4398.95 3632.97 4332.47 3544.33 4332.47 3436.28 4332.47 3391.97 4421.13 3391.97 4515.3 3391.97 4576.25 3408.58 4637.19 3439.06 4759.08L3533.25 5138.59"/>
<path transform="matrix(.00359712,0,0,-.00359712,0,39)" d="M4991.58 4994.55C4991.58 5210.63 4961.11 5545.81 4808.75 5858.84 4642.55 6199.58 4404.3 6379.64 4376.61 6379.64 4359.98 6379.64 4348.91 6368.56 4348.91 6351.94 4348.91 6343.63 4348.91 6338.09 4401.53 6288.22 4673.02 6013.97 4830.91 5573.52 4830.91 4994.55 4830.91 4520.84 4728.42 4033.3 4384.91 3684.25 4348.91 3651 4348.91 3645.47 4348.91 3637.16 4348.91 3620.53 4359.98 3609.45 4376.61 3609.45 4404.3 3609.45 4653.63 3797.83 4817.06 4149.64 4958.34 4454.36 4991.58 4761.84 4991.58 4994.55"/>
<path transform="matrix(.00359712,0,0,-.00359712,0,39)" d="M6324.55 6955.52 5953.34 6578.77 6003.2 6528.91 6324.55 6811.45 6643.13 6528.91 6692.98 6578.77 6324.55 6955.52"/>
<path transform="matrix(.00359712,0,0,-.00359712,0,39)" d="M6479.58 6158.03C6479.58 6163.56 6487.88 6194.03 6487.88 6196.81 6487.88 6199.58 6487.88 6224.52 6454.64 6224.52 6426.94 6224.52 6424.17 6216.2 6413.09 6169.11L6252.42 5529.19C5811.95 5515.34 5404.73 5146.91 5404.73 4770.16 5404.73 4507 5598.66 4288.16 5936.61 4268.75 5914.45 4182.88 5895.06 4094.23 5872.91 4008.36 5839.66 3878.16 5811.95 3772.89 5811.95 3764.58 5811.95 3736.88 5831.34 3734.11 5845.2 3734.11 5859.05 3734.11 5864.59 3736.88 5872.91 3745.19 5878.44 3750.73 5895.06 3817.22 5903.38 3856L6008.64 4268.75C6454.64 4282.61 6856.31 4656.58 6856.31 5027.8 6856.31 5246.64 6709.5 5501.48 6324.44 5529.19L6479.58 6158.03ZM5950.47 4329.7C5784.25 4338.02 5584.8 4434.97 5584.8 4711.98 5584.8 5044.41 5823.03 5432.23 6235.8 5468.25L5950.47 4329.7ZM6307.83 5468.25C6518.36 5457.17 6676.25 5329.73 6676.25 5085.97 6676.25 4759.08 6438.02 4362.94 6022.48 4329.7L6307.83 5468.25"/>
<path transform="matrix(.00359712,0,0,-.00359712,0,39)" stroke-width="110.783" stroke-linecap="butt" stroke-miterlimit="10" stroke-linejoin="miter" fill="none" stroke="#000000" d="M706.383 7787.19V8285.11H6093.74V7787.19"/>
<path transform="matrix(.00359712,0,0,-.00359712,0,39)" d="M7835.94 3637.16C7835.94 3645.47 7835.94 3651 7788.84 3698.09 7442.56 4047.14 7353.92 4570.7 7353.92 4994.55 7353.92 5476.56 7459.19 5958.58 7799.92 6304.84 7835.94 6338.09 7835.94 6343.63 7835.94 6351.94 7835.94 6371.33 7824.84 6379.64 7808.23 6379.64 7780.53 6379.64 7531.22 6191.27 7367.77 5839.45 7226.48 5534.73 7193.25 5227.25 7193.25 4994.55 7193.25 4778.47 7223.72 4443.28 7376.08 4130.25 7542.3 3789.52 7780.53 3609.45 7808.23 3609.45 7824.84 3609.45 7835.94 3617.77 7835.94 3637.16"/>
<path transform="matrix(.00359712,0,0,-.00359712,0,39)" d="M8921.25 5138.59C8937.86 5210.63 9001.58 5465.48 9195.48 5465.48 9209.34 5465.48 9275.83 5465.48 9334 5429.47 9256.44 5415.61 9201.03 5346.36 9201.03 5279.88 9201.03 5235.55 9231.5 5182.92 9306.3 5182.92 9367.25 5182.92 9455.89 5232.78 9455.89 5343.59 9455.89 5487.64 9292.45 5526.42 9198.27 5526.42 9037.59 5526.42 8940.64 5379.61 8907.39 5315.89 8838.14 5498.72 8688.55 5526.42 8608.22 5526.42 8320.11 5526.42 8162.22 5169.06 8162.22 5099.81 8162.22 5072.11 8189.91 5072.11 8195.45 5072.11 8217.61 5072.11 8225.92 5077.66 8231.47 5102.58 8325.66 5396.22 8508.48 5465.48 8602.67 5465.48 8655.31 5465.48 8752.27 5440.55 8752.27 5279.88 8752.27 5194 8705.17 5008.39 8602.67 4620.58 8558.34 4448.81 8461.39 4332.47 8339.5 4332.47 8322.88 4332.47 8259.17 4332.47 8201 4368.48 8270.25 4382.33 8331.19 4440.52 8331.19 4518.08 8331.19 4592.88 8270.25 4615.03 8228.7 4615.03 8145.59 4615.03 8076.33 4543 8076.33 4454.36 8076.33 4326.94 8214.84 4271.53 8336.73 4271.53 8519.56 4271.53 8619.3 4465.44 8627.61 4482.06 8660.84 4379.56 8760.58 4271.53 8926.78 4271.53 9212.11 4271.53 9370.02 4628.88 9370.02 4698.14 9370.02 4725.84 9345.08 4725.84 9336.77 4725.84 9311.84 4725.84 9306.3 4714.77 9300.77 4695.36 9209.34 4398.95 9020.97 4332.47 8932.33 4332.47 8824.28 4332.47 8779.97 4421.13 8779.97 4515.3 8779.97 4576.25 8796.58 4637.19 8827.06 4759.08L8921.25 5138.59"/>
<path transform="matrix(.00359712,0,0,-.00359712,0,39)" d="M10379.6 4994.55C10379.6 5210.63 10349.1 5545.81 10196.8 5858.84 10030.5 6199.58 9792.3 6379.64 9764.61 6379.64 9747.98 6379.64 9736.91 6368.56 9736.91 6351.94 9736.91 6343.63 9736.91 6338.09 9789.53 6288.22 10061 6013.97 10218.9 5573.52 10218.9 4994.55 10218.9 4520.84 10116.4 4033.3 9772.91 3684.25 9736.91 3651 9736.91 3645.47 9736.91 3637.16 9736.91 3620.53 9747.98 3609.45 9764.61 3609.45 9792.3 3609.45 10041.6 3797.83 10205.1 4149.64 10346.3 4454.36 10379.6 4761.84 10379.6 4994.55"/>
<path transform="matrix(.00359712,0,0,-.00359712,0,39)" d="M11711.5 6955.52 11340.3 6578.77 11390.2 6528.91 11711.5 6811.45 12030.1 6528.91 12080 6578.77 11711.5 6955.52"/>
<path transform="matrix(.00359712,0,0,-.00359712,0,39)" d="M11866.6 6158.03C11866.6 6163.56 11874.9 6194.03 11874.9 6196.81 11874.9 6199.58 11874.9 6224.52 11841.6 6224.52 11813.9 6224.52 11811.2 6216.2 11800.1 6169.11L11639.4 5529.19C11199 5515.34 10791.7 5146.91 10791.7 4770.16 10791.7 4507 10985.7 4288.16 11323.6 4268.75 11301.5 4182.88 11282.1 4094.23 11259.9 4008.36 11226.7 3878.16 11199 3772.89 11199 3764.58 11199 3736.88 11218.3 3734.11 11232.2 3734.11 11246 3734.11 11251.6 3736.88 11259.9 3745.19 11265.4 3750.73 11282.1 3817.22 11290.4 3856L11395.6 4268.75C11841.6 4282.61 12243.3 4656.58 12243.3 5027.8 12243.3 5246.64 12096.5 5501.48 11711.4 5529.19L11866.6 6158.03ZM11337.5 4329.7C11171.3 4338.02 10971.8 4434.97 10971.8 4711.98 10971.8 5044.41 11210 5432.23 11622.8 5468.25L11337.5 4329.7ZM11694.8 5468.25C11905.4 5457.17 12063.3 5329.73 12063.3 5085.97 12063.3 4759.08 11825 4362.94 11409.5 4329.7L11694.8 5468.25"/>
<path transform="matrix(.00359712,0,0,-.00359712,0,39)" d="M13222.9 3637.16C13222.9 3645.47 13222.9 3651 13175.8 3698.09 12829.6 4047.14 12740.9 4570.7 12740.9 4994.55 12740.9 5476.56 12846.2 5958.58 13186.9 6304.84 13222.9 6338.09 13222.9 6343.63 13222.9 6351.94 13222.9 6371.33 13211.8 6379.64 13195.2 6379.64 13167.5 6379.64 12918.2 6191.27 12754.8 5839.45 12613.5 5534.73 12580.3 5227.25 12580.3 4994.55 12580.3 4778.47 12610.7 4443.28 12763.1 4130.25 12929.3 3789.52 13167.5 3609.45 13195.2 3609.45 13211.8 3609.45 13222.9 3617.77 13222.9 3637.16"/>
<path transform="matrix(.00359712,0,0,-.00359712,0,39)" d="M14729.3 5357.44C14740.4 5396.22 14740.4 5401.77 14740.4 5421.16 14740.4 5471.02 14701.6 5495.95 14660.1 5495.95 14632.4 5495.95 14588 5479.33 14563.1 5437.78 14557.6 5423.92 14535.4 5338.05 14524.3 5288.19 14504.9 5216.16 14485.5 5141.36 14468.9 5066.58L14344.3 4567.94C14333.2 4526.39 14214.1 4332.47 14031.2 4332.47 13889.9 4332.47 13859.5 4454.36 13859.5 4556.86 13859.5 4684.28 13906.6 4856.03 14000.8 5099.81 14045.1 5213.39 14056.2 5243.86 14056.2 5299.27 14056.2 5423.92 13967.5 5526.42 13829 5526.42 13565.8 5526.42 13463.3 5124.75 13463.3 5099.81 13463.3 5072.11 13491 5072.11 13496.6 5072.11 13524.3 5072.11 13527 5077.66 13540.9 5121.97 13615.7 5382.38 13726.5 5465.48 13820.7 5465.48 13842.8 5465.48 13889.9 5465.48 13889.9 5376.83 13889.9 5307.58 13862.3 5235.55 13842.8 5182.92 13732 4889.28 13682.2 4731.38 13682.2 4601.19 13682.2 4354.64 13856.7 4271.53 14020.1 4271.53 14128.2 4271.53 14222.4 4318.63 14299.9 4396.19 14263.9 4252.14 14230.7 4116.39 14119.9 3969.58 14047.8 3875.39 13942.6 3795.06 13815.2 3795.06 13776.4 3795.06 13651.7 3803.36 13604.6 3911.41 13648.9 3911.41 13685 3911.41 13723.7 3944.64 13751.4 3969.58 13779.1 4005.59 13779.1 4058.22 13779.1 4144.09 13704.3 4155.19 13676.6 4155.19 13612.9 4155.19 13521.5 4110.86 13521.5 3975.13 13521.5 3836.61 13643.4 3734.11 13815.2 3734.11 14100.5 3734.11 14385.8 3986.2 14463.4 4299.23L14729.3 5357.44"/>
<path transform="matrix(.00359712,0,0,-.00359712,0,39)" d="M15640.6 4994.55C15640.6 5210.63 15610.1 5545.81 15457.8 5858.84 15291.5 6199.58 15053.3 6379.64 15025.6 6379.64 15009 6379.64 14997.9 6368.56 14997.9 6351.94 14997.9 6343.63 14997.9 6338.09 15050.5 6288.22 15322 6013.97 15479.9 5573.52 15479.9 4994.55 15479.9 4520.84 15377.4 4033.3 15033.9 3684.25 14997.9 3651 14997.9 3645.47 14997.9 3637.16 14997.9 3620.53 15009 3609.45 15025.6 3609.45 15053.3 3609.45 15302.6 3797.83 15466.1 4149.64 15607.3 4454.36 15640.6 4761.84 15640.6 4994.55"/>
<path transform="matrix(.00359712,0,0,-.00359712,0,39)" d="M16973.5 6955.52 16602.3 6578.77 16652.2 6528.91 16973.5 6811.45 17292.1 6528.91 17342 6578.77 16973.5 6955.52"/>
<path transform="matrix(.00359712,0,0,-.00359712,0,39)" d="M17127.6 6158.03C17127.6 6163.56 17135.9 6194.03 17135.9 6196.81 17135.9 6199.58 17135.9 6224.52 17102.6 6224.52 17074.9 6224.52 17072.2 6216.2 17061.1 6169.11L16900.4 5529.19C16460 5515.34 16052.7 5146.91 16052.7 4770.16 16052.7 4507 16246.7 4288.16 16584.6 4268.75 16562.5 4182.88 16543.1 4094.23 16520.9 4008.36 16487.7 3878.16 16460 3772.89 16460 3764.58 16460 3736.88 16479.3 3734.11 16493.2 3734.11 16507 3734.11 16512.6 3736.88 16520.9 3745.19 16526.4 3750.73 16543.1 3817.22 16551.4 3856L16656.6 4268.75C17102.6 4282.61 17504.3 4656.58 17504.3 5027.8 17504.3 5246.64 17357.5 5501.48 16972.4 5529.19L17127.6 6158.03ZM16598.5 4329.7C16432.3 4338.02 16232.8 4434.97 16232.8 4711.98 16232.8 5044.41 16471 5432.23 16883.8 5468.25L16598.5 4329.7ZM16955.8 5468.25C17166.4 5457.17 17324.3 5329.73 17324.3 5085.97 17324.3 4759.08 17086 4362.94 16670.5 4329.7L16955.8 5468.25"/>
<path transform="matrix(.00359712,0,0,-.00359712,0,39)" stroke-width="110.783" stroke-linecap="butt" stroke-miterlimit="10" stroke-linejoin="miter" fill="none" stroke="#000000" d="M11480.8 7787.19V8285.11H16742.5V7787.19"/>
<path transform="matrix(.00359712,0,0,-.00359712,0,39)" d="M18484.9 3637.16C18484.9 3645.47 18484.9 3651 18437.8 3698.09 18091.6 4047.14 18002.9 4570.7 18002.9 4994.55 18002.9 5476.56 18108.2 5958.58 18448.9 6304.84 18484.9 6338.09 18484.9 6343.63 18484.9 6351.94 18484.9 6371.33 18473.8 6379.64 18457.2 6379.64 18429.5 6379.64 18180.2 6191.27 18016.8 5839.45 17875.5 5534.73 17842.3 5227.25 17842.3 4994.55 17842.3 4778.47 17872.7 4443.28 18025.1 4130.25 18191.3 3789.52 18429.5 3609.45 18457.2 3609.45 18473.8 3609.45 18484.9 3617.77 18484.9 3637.16"/>
<path transform="matrix(.00359712,0,0,-.00359712,0,39)" d="M19991.3 5357.44C20002.4 5396.22 20002.4 5401.77 20002.4 5421.16 20002.4 5471.02 19963.6 5495.95 19922.1 5495.95 19894.4 5495.95 19850 5479.33 19825.1 5437.78 19819.6 5423.92 19797.4 5338.05 19786.3 5288.19 19766.9 5216.16 19747.5 5141.36 19730.9 5066.58L19606.3 4567.94C19595.2 4526.39 19476.1 4332.47 19293.2 4332.47 19151.9 4332.47 19121.5 4454.36 19121.5 4556.86 19121.5 4684.28 19168.6 4856.03 19262.8 5099.81 19307.1 5213.39 19318.2 5243.86 19318.2 5299.27 19318.2 5423.92 19229.5 5526.42 19091 5526.42 18827.8 5526.42 18725.3 5124.75 18725.3 5099.81 18725.3 5072.11 18753 5072.11 18758.6 5072.11 18786.3 5072.11 18789 5077.66 18802.9 5121.97 18877.7 5382.38 18988.5 5465.48 19082.7 5465.48 19104.8 5465.48 19151.9 5465.48 19151.9 5376.83 19151.9 5307.58 19124.3 5235.55 19104.8 5182.92 18994 4889.28 18944.2 4731.38 18944.2 4601.19 18944.2 4354.64 19118.7 4271.53 19282.1 4271.53 19390.2 4271.53 19484.4 4318.63 19561.9 4396.19 19525.9 4252.14 19492.7 4116.39 19381.9 3969.58 19309.8 3875.39 19204.6 3795.06 19077.2 3795.06 19038.4 3795.06 18913.7 3803.36 18866.6 3911.41 18910.9 3911.41 18947 3911.41 18985.7 3944.64 19013.4 3969.58 19041.1 4005.59 19041.1 4058.22 19041.1 4144.09 18966.3 4155.19 18938.6 4155.19 18874.9 4155.19 18783.5 4110.86 18783.5 3975.13 18783.5 3836.61 18905.4 3734.11 19077.2 3734.11 19362.5 3734.11 19647.8 3986.2 19725.4 4299.23L19991.3 5357.44"/>
<path transform="matrix(.00359712,0,0,-.00359712,0,39)" d="M20902.6 4994.55C20902.6 5210.63 20872.1 5545.81 20719.8 5858.84 20553.5 6199.58 20315.3 6379.64 20287.6 6379.64 20271 6379.64 20259.9 6368.56 20259.9 6351.94 20259.9 6343.63 20259.9 6338.09 20312.5 6288.22 20584 6013.97 20741.9 5573.52 20741.9 4994.55 20741.9 4520.84 20639.4 4033.3 20295.9 3684.25 20259.9 3651 20259.9 3645.47 20259.9 3637.16 20259.9 3620.53 20271 3609.45 20287.6 3609.45 20315.3 3609.45 20564.6 3797.83 20728.1 4149.64 20869.3 4454.36 20902.6 4761.84 20902.6 4994.55"/>
<path transform="matrix(.00359712,0,0,-.00359712,0,39)" d="M23847.1 5207.84C23888.7 5207.84 23941.3 5207.84 23941.3 5263.25 23941.3 5318.66 23888.7 5318.66 23849.9 5318.66H22190.5C22151.8 5318.66 22099.1 5318.66 22099.1 5263.25 22099.1 5207.84 22151.8 5207.84 22193.3 5207.84H23847.1ZM23849.9 4670.44C23888.7 4670.44 23941.3 4670.44 23941.3 4725.84 23941.3 4781.25 23888.7 4781.25 23847.1 4781.25H22193.3C22151.8 4781.25 22099.1 4781.25 22099.1 4725.84 22099.1 4670.44 22151.8 4670.44 22190.5 4670.44H23849.9"/>
<path transform="matrix(.00359712,0,0,-.00359712,0,39)" d="M25908 4965.77C25969 4965.77 25985.6 4965.77 25985.6 5004.55 25991.2 6946.45 26215.5 8558.7 27185.1 9913.33 27204.5 9938.25 27204.5 9943.8 27204.5 9949.33 27204.5 9977.03 27185.1 9977.03 27140.8 9977.03 27096.5 9977.03 27090.9 9977.03 27085.4 9971.5 27074.3 9963.19 26722.5 9558.73 26442.7 9001.94 26077 8270.61 25847.1 7431.23 25744.6 6422.89 25736.3 6337.02 25678.1 5760.81 25678.1 5104.28V4996.23C25680.9 4965.77 25697.5 4965.77 25755.7 4965.77H25908"/>
<path transform="matrix(.00359712,0,0,-.00359712,0,39)" d="M25755.7 5022.52C25697.5 5022.52 25680.9 5022.52 25678.1 4992.03V4884C25678.1 3191.42 25980.1 2199.69 26066 1919.91 26254.3 1304.92 26561.8 656.688 27024.4 86.0313 27066 36.1719 27077.1 22.3281 27088.2 16.7813 27093.7 14.0156 27096.5 11.2344 27140.8 11.2344 27185.1 11.2344 27204.5 11.2344 27204.5 38.9375 27204.5 44.4844 27204.5 50.0156 27187.9 74.9531 26265.4 1354.78 25988.4 2895 25985.6 4983.73 25985.6 5022.52 25969 5022.52 25908 5022.52H25755.7"/>
<path transform="matrix(.00359712,0,0,-.00359712,0,39)" stroke-width="110.783" stroke-linecap="butt" stroke-miterlimit="10" stroke-linejoin="miter" fill="none" stroke="#000000" d="M28273.7 467.039H37730.2"/>
<path transform="matrix(.00359712,0,0,-.00359712,0,39)" stroke-width="110.783" stroke-linecap="butt" stroke-miterlimit="10" stroke-linejoin="miter" fill="none" stroke="#000000" d="M37730.2 467.039H47186.6"/>
<path transform="matrix(.00359712,0,0,-.00359712,0,39)" stroke-width="637.012" stroke-linecap="butt" stroke-miterlimit="10" stroke-linejoin="miter" fill="none" stroke="#000000" d="M37730.2 467.039C45328.4 9522.07 30132 9522.07 37730.2 467.039"/>
<path transform="matrix(.00359712,0,0,-.00359712,0,39)" stroke-width="415.449" stroke-linecap="butt" stroke-miterlimit="10" stroke-linejoin="miter" fill="none" stroke="#ffffff" d="M37730.2 467.039C45328.4 9522.07 30132 9522.07 37730.2 467.039"/>
<path transform="matrix(.00359712,0,0,-.00359712,0,39)" d="M49780 5104.28C49780 6796.86 49478.1 7788.59 49392.2 8068.38 49203.8 8683.36 48896.3 9331.58 48433.7 9902.25 48392.2 9952.11 48381.1 9965.95 48370 9971.5 48364.5 9974.27 48361.7 9977.03 48317.4 9977.03 48275.8 9977.03 48253.6 9977.03 48253.6 9949.33 48253.6 9943.8 48253.6 9938.25 48289.7 9888.39 49253.7 8542.08 49469.8 6879.97 49472.5 5004.55 49472.5 4965.77 49489.2 4965.77 49550.1 4965.77H49702.5C49760.6 4965.77 49777.3 4965.77 49780 4996.23V5104.28"/>
<path transform="matrix(.00359712,0,0,-.00359712,0,39)" d="M49780 4992.03C49777.3 5022.52 49760.6 5022.52 49702.5 5022.52H49550.1C49489.2 5022.52 49472.5 5022.52 49472.5 4983.73 49472.5 4698.39 49469.8 4039.09 49397.7 3349.31 49248.1 1917.13 48879.7 925.406 48273 74.9531 48253.6 50.0156 48253.6 44.4844 48253.6 38.9375 48253.6 11.2344 48275.8 11.2344 48317.4 11.2344 48361.7 11.2344 48367.2 11.2344 48372.8 16.7813 48383.8 25.0938 48735.7 429.531 49015.5 986.344 49381.1 1717.67 49611 2557.05 49713.5 3565.39 49721.8 3651.27 49780 4227.47 49780 4884V4992.03"/>
<path transform="matrix(.00359712,0,0,-.00359712,0,39)" d="M51567 9647.84H51501.1C51495.3 9605.19 51475.9 9490.81 51450.7 9471.42 51435.2 9459.8 51285.9 9459.8 51258.8 9459.8H50902.1C51105.6 9640.09 51173.5 9694.38 51289.8 9785.48 51433.3 9899.88 51567 10020.1 51567 10204.3 51567 10438.8 51361.5 10582.3 51113.4 10582.3 50873 10582.3 50710.1 10413.6 50710.1 10235.3 50710.1 10136.4 50793.5 10126.7 50812.9 10126.7 50859.4 10126.7 50915.6 10159.7 50915.6 10229.5 50915.6 10264.3 50902.1 10332.2 50801.3 10332.2 50861.4 10469.9 50993.2 10512.5 51084.3 10512.5 51278.2 10512.5 51379 10361.3 51379 10204.3 51379 10035.6 51258.8 9901.81 51196.8 9832.02L50729.5 9370.61C50710.1 9353.16 50710.1 9349.28 50710.1 9295H51508.9L51567 9647.84"/>
</svg>
