<svg xmlns="http://www.w3.org/2000/svg" xmlns:xlink="http://www.w3.org/1999/xlink" version="1.1" width="72pt" height="44pt" viewBox="0 0 72 44">
<path transform="matrix(.00359712,0,0,-.00359712,0,44)" stroke-width="110.783" stroke-linecap="butt" stroke-miterlimit="10" stroke-linejoin="miter" fill="none" stroke="#000000" d="M56.8828 8920.85 3997.09 4980.65"/>
<path transform="matrix(.00359712,0,0,-.00359712,0,44)" d="M2750.13 6227.61 1990.46 8061.48 916.246 6987.27"/>
<path transform="matrix(.00359712,0,0,-.00359712,0,44)" d="M4279.28 8815.45C4279.28 9037.08 4265.44 9258.69 4168.48 9463.69 4041.05 9729.63 3813.89 9773.94 3697.55 9773.94 3531.33 9773.94 3329.11 9701.92 3215.53 9444.3 3126.89 9253.16 3113.03 9037.08 3113.03 8815.45 3113.03 8607.7 3124.13 8358.38 3237.7 8147.84 3356.81 7923.45 3559.03 7868.06 3694.78 7868.06 3844.36 7868.06 4054.91 7926.23 4176.8 8189.39 4265.44 8380.55 4279.28 8596.61 4279.28 8815.45ZM3694.78 7929C3586.73 7929 3423.3 7998.25 3373.44 8264.19 3342.97 8430.41 3342.97 8685.27 3342.97 8848.7 3342.97 9026 3342.97 9208.83 3365.13 9358.42 3417.77 9688.06 3625.52 9713 3694.78 9713 3786.19 9713 3969.03 9663.14 4021.66 9388.89 4049.36 9233.77 4049.36 9023.22 4049.36 8848.7 4049.36 8640.94 4049.36 8452.56 4018.89 8275.28 3977.33 8012.11 3819.44 7929 3694.78 7929"/>
<path transform="matrix(.00359712,0,0,-.00359712,0,44)" stroke-width="110.783" stroke-linecap="butt" stroke-miterlimit="10" stroke-linejoin="miter" fill="none" stroke="#000000" d="M3997.09 4980.65 56.8828 1040.45"/>
<path transform="matrix(.00359712,0,0,-.00359712,0,44)" d="M3309.86 4293.42 1475.98 3533.76 2550.2 2459.54"/>
<path transform="matrix(.00359712,0,0,-.00359712,0,44)" d="M4279.28 1133.45C4279.28 1355.08 4265.44 1576.69 4168.48 1781.69 4041.05 2047.63 3813.89 2091.94 3697.55 2091.94 3531.33 2091.94 3329.11 2019.92 3215.53 1762.3 3126.89 1571.16 3113.03 1355.08 3113.03 1133.45 3113.03 925.703 3124.13 676.375 3237.7 465.844 3356.81 241.453 3559.03 186.063 3694.78 186.063 3844.36 186.063 4054.91 244.234 4176.8 507.391 4265.44 698.547 4279.28 914.609 4279.28 1133.45ZM3694.78 247C3586.73 247 3423.3 316.25 3373.44 582.188 3342.97 748.406 3342.97 1003.27 3342.97 1166.7 3342.97 1344 3342.97 1526.83 3365.13 1676.42 3417.77 2006.06 3625.52 2031 3694.78 2031 3786.19 2031 3969.03 1981.14 4021.66 1706.89 4049.36 1551.77 4049.36 1341.22 4049.36 1166.7 4049.36 958.938 4049.36 770.563 4018.89 593.281 3977.33 330.109 3819.44 247 3694.78 247"/>
<path transform="matrix(.00359712,0,0,-.00359712,0,44)" stroke-width="110.783" stroke-linecap="butt" stroke-miterlimit="10" stroke-linejoin="miter" fill="none" stroke="#000000" d="M19757.9 8920.85 15817.7 4980.65"/>
<path transform="matrix(.00359712,0,0,-.00359712,0,44)" d="M19070.7 8233.62 17236.8 7473.96 18311 6399.74"/>
<path transform="matrix(.00359712,0,0,-.00359712,0,44)" d="M16699.3 8815.45C16699.3 9037.08 16685.4 9258.69 16588.5 9463.69 16461 9729.63 16233.9 9773.94 16117.5 9773.94 15951.3 9773.94 15749.1 9701.92 15635.5 9444.3 15546.9 9253.16 15533 9037.08 15533 8815.45 15533 8607.7 15544.1 8358.38 15657.7 8147.84 15776.8 7923.45 15979 7868.06 16114.8 7868.06 16264.4 7868.06 16474.9 7926.23 16596.8 8189.39 16685.4 8380.55 16699.3 8596.61 16699.3 8815.45ZM16114.8 7929C16006.7 7929 15843.3 7998.25 15793.4 8264.19 15763 8430.41 15763 8685.27 15763 8848.7 15763 9026 15763 9208.83 15785.1 9358.42 15837.8 9688.06 16045.5 9713 16114.8 9713 16206.2 9713 16389 9663.14 16441.7 9388.89 16469.4 9233.77 16469.4 9023.22 16469.4 8848.7 16469.4 8640.94 16469.4 8452.56 16438.9 8275.28 16397.3 8012.11 16239.4 7929 16114.8 7929"/>
<path transform="matrix(.00359712,0,0,-.00359712,0,44)" stroke-width="110.783" stroke-linecap="butt" stroke-miterlimit="10" stroke-linejoin="miter" fill="none" stroke="#000000" d="M15817.7 4980.65 19757.9 1040.45"/>
<path transform="matrix(.00359712,0,0,-.00359712,0,44)" d="M18510.9 2287.41 17751.3 4121.29 16677.1 3047.07"/>
<path transform="matrix(.00359712,0,0,-.00359712,0,44)" d="M16699.3 1133.45C16699.3 1355.08 16685.4 1576.69 16588.5 1781.69 16461 2047.63 16233.9 2091.94 16117.5 2091.94 15951.3 2091.94 15749.1 2019.92 15635.5 1762.3 15546.9 1571.16 15533 1355.08 15533 1133.45 15533 925.703 15544.1 676.375 15657.7 465.844 15776.8 241.453 15979 186.063 16114.8 186.063 16264.4 186.063 16474.9 244.234 16596.8 507.391 16685.4 698.547 16699.3 914.609 16699.3 1133.45ZM16114.8 247C16006.7 247 15843.3 316.25 15793.4 582.188 15763 748.406 15763 1003.27 15763 1166.7 15763 1344 15763 1526.83 15785.1 1676.42 15837.8 2006.06 16045.5 2031 16114.8 2031 16206.2 2031 16389 1981.14 16441.7 1706.89 16469.4 1551.77 16469.4 1341.22 16469.4 1166.7 16469.4 958.938 16469.4 770.563 16438.9 593.281 16397.3 330.109 16239.4 247 16114.8 247"/>
<path transform="matrix(.00359712,0,0,-.00359712,0,44)" stroke-width="637.012" stroke-linecap="butt" stroke-miterlimit="10" stroke-linejoin="miter" fill="none" stroke="#000000" d="M3997.09 4980.65C3997.09 10512.3 15817.7 10512.3 15817.7 4980.65"/>
<path transform="matrix(.00359712,0,0,-.00359712,0,44)" stroke-width="415.449" stroke-linecap="butt" stroke-miterlimit="10" stroke-linejoin="miter" fill="none" stroke="#ffffff" d="M3997.09 4980.65C3997.09 10512.3 15817.7 10512.3 15817.7 4980.65"/>
<path transform="matrix(.00359712,0,0,-.00359712,0,44)" d="M10934 9129.14 9100.25 9889.08 9099.95 8369.93"/>
<path transform="matrix(.00359712,0,0,-.00359712,0,44)" d="M9938.05 12000C9938.05 12002.8 9938.05 12030.5 9902.03 12030.5 9838.31 12030.5 9636.09 12008.3 9564.06 12002.8 9541.91 12000 9511.44 11997.3 9511.44 11947.4 9511.44 11914.2 9536.36 11914.2 9577.92 11914.2 9710.89 11914.2 9716.42 11894.8 9716.42 11867.1L9708.13 11811.7 9306.44 10216C9295.36 10177.3 9295.36 10171.7 9295.36 10155.1 9295.36 10091.4 9350.77 10077.5 9375.7 10077.5 9411.7 10077.5 9453.27 10102.5 9469.88 10135.7 9483.73 10160.6 9608.39 10673.1 9625.02 10742.4 9719.2 10734.1 9946.36 10689.7 9946.36 10506.9 9946.36 10487.5 9946.36 10476.4 9938.05 10448.7 9932.5 10415.5 9926.97 10382.3 9926.97 10351.8 9926.97 10188.3 10037.8 10077.5 10181.8 10077.5 10264.9 10077.5 10339.7 10121.8 10400.7 10224.3 10469.9 10346.2 10500.4 10498.6 10500.4 10504.1 10500.4 10531.8 10475.5 10531.8 10467.2 10531.8 10439.5 10531.8 10436.7 10520.8 10428.4 10482 10373 10279.8 10309.3 10138.5 10187.4 10138.5 10134.7 10138.5 10098.7 10168.9 10098.7 10268.7 10098.7 10315.8 10109.8 10379.5 10120.9 10423.8 10132 10470.9 10132 10482 10132 10509.7 10132 10689.7 9957.44 10770.1 9721.97 10800.5 9807.84 10850.4 9896.48 10939.1 9960.2 11005.5 10093.2 11152.4 10220.6 11271.5 10356.3 11271.5 10373 11271.5 10375.7 11271.5 10381.3 11268.7 10414.5 11263.2 10417.3 11263.2 10439.5 11246.5 10445 11243.8 10445 11241 10450.5 11235.5 10317.6 11227.2 10292.6 11119.1 10292.6 11085.9 10292.6 11041.5 10323.1 10988.9 10397.9 10988.9 10469.9 10988.9 10550.3 11049.9 10550.3 11157.9 10550.3 11241 10486.5 11332.4 10361.9 11332.4 10284.3 11332.4 10156.9 11310.3 9957.44 11088.6 9863.25 10983.4 9755.22 10872.6 9649.94 10831L9938.05 12000"/>
<path transform="matrix(.00359712,0,0,-.00359712,0,44)" stroke-width="637.012" stroke-linecap="butt" stroke-miterlimit="10" stroke-linejoin="miter" fill="none" stroke="#000000" d="M3997.09 4980.65C3997.09-550.961 15817.7-550.961 15817.7 4980.65"/>
<path transform="matrix(.00359712,0,0,-.00359712,0,44)" stroke-width="415.449" stroke-linecap="butt" stroke-miterlimit="10" stroke-linejoin="miter" fill="none" stroke="#ffffff" d="M3997.09 4980.65C3997.09-550.961 15817.7-550.961 15817.7 4980.65"/>
<path transform="matrix(.00359712,0,0,-.00359712,0,44)" d="M10934 832.152 9099.95 1591.37 9100.25 72.2188"/>
<path transform="matrix(.00359712,0,0,-.00359712,0,44)" d="M9335.66 2011.03C9313.5 1916.84 9307.95 1897.45 9186.06 1897.45 9152.83 1897.45 9122.36 1897.45 9122.36 1844.83 9122.36 1822.67 9136.2 1811.58 9158.36 1811.58 9233.16 1811.58 9313.5 1819.89 9391.06 1819.89 9482.48 1819.89 9576.67 1811.58 9665.31 1811.58 9679.16 1811.58 9715.17 1811.58 9715.17 1866.98 9715.17 1897.45 9687.47 1897.45 9648.69 1897.45 9510.19 1897.45 9510.19 1916.84 9510.19 1941.78 9510.19 1975.03 9626.53 2426.56 9645.92 2495.81 9681.94 2415.48 9759.5 2318.53 9900.78 2318.53 10222.1 2318.53 10568.4 2722.97 10568.4 3130.19 10568.4 3390.59 10410.5 3573.42 10200 3573.42 10061.5 3573.42 9928.48 3473.7 9837.06 3365.66 9809.36 3515.25 9690.25 3573.42 9587.75 3573.42 9460.31 3573.42 9407.69 3465.39 9382.75 3415.52 9332.89 3321.33 9296.88 3155.13 9296.88 3146.81 9296.88 3119.11 9324.58 3119.11 9330.13 3119.11 9357.81 3119.11 9360.59 3121.88 9377.22 3182.83 9424.3 3379.52 9479.7 3512.48 9579.44 3512.48 9626.53 3512.48 9665.31 3490.31 9665.31 3385.05 9665.31 3321.33 9657 3290.86 9645.92 3243.77L9335.66 2011.03ZM9823.22 3213.3C9842.61 3288.09 9917.39 3365.66 9967.27 3407.22 10064.2 3493.09 10144.5 3512.48 10191.6 3512.48 10302.5 3512.48 10368.9 3415.52 10368.9 3252.08 10368.9 3088.64 10277.5 2770.06 10227.7 2664.8 10133.5 2470.89 10000.5 2379.47 9898 2379.47 9715.17 2379.47 9679.16 2609.39 9679.16 2626.02 9679.16 2631.56 9679.16 2637.09 9687.47 2670.34L9823.22 3213.3"/>
</svg>
