<svg xmlns="http://www.w3.org/2000/svg" xmlns:xlink="http://www.w3.org/1999/xlink" version="1.1" width="313pt" height="77pt" viewBox="0 0 313 77">
<path transform="matrix(.00359712,0,0,-.00359712,0,77)" d="M1986.34 18721.3C1986.34 18729.6 1980.8 18749 1955.88 18749 1947.56 18749 1944.8 18746.2 1914.31 18715.7L1720.41 18502.4C1695.47 18541.2 1568.05 18749 1260.55 18749 642.797 18749 19.5156 18136.8 19.5156 17494.1 19.5156 17053.6 327 16735.1 775.766 16735.1 897.656 16735.1 1022.31 16760 1122.05 16801.5 1260.55 16856.9 1313.19 16915.1 1363.05 16970.5 1387.98 16901.3 1460 16798.8 1487.7 16798.8 1501.56 16798.8 1507.09 16807.1 1507.09 16809.8 1512.64 16815.4 1540.34 16920.7 1554.19 16978.8L1606.83 17192.1C1617.91 17239.2 1631.77 17286.3 1642.84 17333.4 1673.31 17458.1 1676.08 17463.6 1833.98 17466.4 1847.83 17466.4 1878.31 17469.2 1878.31 17521.8 1878.31 17541.2 1864.45 17552.3 1842.3 17552.3 1778.58 17552.3 1615.14 17544 1551.42 17544 1465.55 17544 1249.47 17552.3 1163.59 17552.3 1138.67 17552.3 1105.42 17552.3 1105.42 17496.9 1105.42 17466.4 1127.58 17466.4 1188.53 17466.4 1191.3 17466.4 1271.64 17466.4 1335.34 17460.8 1407.38 17452.5 1421.22 17444.2 1421.22 17408.2 1421.22 17383.3 1390.75 17258.6 1363.05 17156.1 1285.48 16851.4 925.359 16820.9 828.406 16820.9 562.469 16820.9 271.594 16978.8 271.594 17402.7 271.594 17488.5 299.297 17945.6 590.172 18305.8 739.766 18494.1 1008.47 18663.1 1282.72 18663.1 1565.28 18663.1 1728.72 18449.8 1728.72 18128.5 1728.72 18017.7 1720.41 18014.9 1720.41 17987.2 1720.41 17959.5 1750.88 17959.5 1761.95 17959.5 1797.97 17959.5 1797.97 17965 1811.83 18014.9L1986.34 18721.3"/>
<path transform="matrix(.00359712,0,0,-.00359712,0,77)" d="M2747.23 19394C2378.89 19134.2 2281.95 18723.2 2281.95 18426.6 2281.95 18153.3 2363.38 17728.7 2747.23 17457.3 2762.75 17457.3 2786.02 17457.3 2786.02 17480.5 2786.02 17492.2 2780.2 17496 2766.63 17509.6 2508.78 17742.3 2413.78 18071.8 2413.78 18424.7 2413.78 18948.1 2613.47 19204 2772.44 19347.5 2780.2 19355.3 2786.02 19361.1 2786.02 19370.8 2786.02 19394 2762.75 19394 2747.23 19394"/>
<path transform="matrix(.00359712,0,0,-.00359712,0,77)" d="M3903.05 18292.8H3837.13C3831.31 18250.2 3811.92 18135.8 3786.72 18116.4 3771.22 18104.8 3621.94 18104.8 3594.8 18104.8H3238.06C3441.64 18285.1 3509.48 18339.4 3625.81 18430.5 3769.28 18544.9 3903.05 18665.1 3903.05 18849.3 3903.05 19083.8 3697.55 19227.3 3449.39 19227.3 3208.98 19227.3 3046.14 19058.6 3046.14 18880.3 3046.14 18781.4 3129.5 18771.7 3148.89 18771.7 3195.42 18771.7 3251.64 18804.7 3251.64 18874.5 3251.64 18909.3 3238.06 18977.2 3137.25 18977.2 3197.36 19114.9 3329.19 19157.5 3420.31 19157.5 3614.17 19157.5 3714.98 19006.3 3714.98 18849.3 3714.98 18680.6 3594.8 18546.8 3532.75 18477L3065.53 18015.6C3046.14 17998.2 3046.14 17994.3 3046.14 17940H3844.89L3903.05 18292.8"/>
<path transform="matrix(.00359712,0,0,-.00359712,0,77)" d="M4437.06 17971C4437.06 17864.4 4417.67 17740.3 4285.84 17616.2 4278.09 17608.5 4272.28 17602.7 4272.28 17593 4272.28 17579.4 4287.78 17565.8 4299.42 17565.8 4326.56 17565.8 4491.34 17720.9 4491.34 17951.6 4491.34 18071.8 4444.83 18163 4355.64 18163 4291.66 18163 4245.14 18112.5 4245.14 18052.4 4245.14 17990.4 4289.72 17940 4357.58 17940 4404.11 17940 4435.13 17971 4437.06 17971"/>
<path transform="matrix(.00359712,0,0,-.00359712,0,77)" d="M5686.38 18558.5C5686.38 18771.7 5661.17 18924.9 5571.98 19060.6 5511.89 19149.8 5391.69 19227.3 5236.59 19227.3 4786.81 19227.3 4786.81 18698 4786.81 18558.5 4786.81 18418.9 4786.81 17901.2 5236.59 17901.2 5686.38 17901.2 5686.38 18418.9 5686.38 18558.5ZM5236.59 17955.5C5147.41 17955.5 5029.16 18007.9 4990.38 18166.8 4963.23 18281.2 4963.23 18440.2 4963.23 18583.7 4963.23 18725.2 4963.23 18872.5 4992.31 18979.1 5033.03 19132.3 5157.11 19173 5236.59 19173 5341.28 19173 5442.09 19109 5476.98 18996.6 5508.02 18891.9 5509.95 18752.3 5509.95 18583.7 5509.95 18440.2 5509.95 18296.7 5484.75 18174.6 5445.97 17998.2 5314.14 17955.5 5236.59 17955.5"/>
<path transform="matrix(.00359712,0,0,-.00359712,0,77)" d="M5963.48 19394C5949.91 19394 5926.64 19394 5926.64 19370.8 5926.64 19361.1 5932.47 19355.3 5944.09 19341.7 6110.83 19188.5 6296.94 18926.8 6296.94 18426.6 6296.94 18021.4 6170.92 17715.1 5961.55 17525.1 5928.59 17492.2 5926.64 17490.2 5926.64 17480.5 5926.64 17470.8 5932.47 17457.3 5951.84 17457.3 5975.11 17457.3 6159.3 17585.2 6287.25 17827.6 6372.55 17988.5 6428.77 18197.8 6428.77 18424.7 6428.77 18698 6347.34 19122.6 5963.48 19394"/>
<path transform="matrix(.00359712,0,0,-.00359712,0,77)" d="M7710.94 16131.2C7710.94 16139.5 7710.94 16145 7663.84 16192.1 7317.56 16541.1 7228.92 17064.7 7228.92 17488.5 7228.92 17970.6 7334.19 18452.6 7674.92 18798.8 7710.94 18832.1 7710.94 18837.6 7710.94 18845.9 7710.94 18865.3 7699.84 18873.6 7683.23 18873.6 7655.53 18873.6 7406.22 18685.3 7242.77 18333.5 7101.48 18028.7 7068.25 17721.3 7068.25 17488.5 7068.25 17272.5 7098.72 16937.3 7251.08 16624.3 7417.3 16283.5 7655.53 16103.5 7683.23 16103.5 7699.84 16103.5 7710.94 16111.8 7710.94 16131.2"/>
<path transform="matrix(.00359712,0,0,-.00359712,0,77)" d="M7995.66 16458C7973.5 16363.8 7967.95 16344.5 7846.06 16344.5 7812.83 16344.5 7782.36 16344.5 7782.36 16291.8 7782.36 16269.7 7796.2 16258.6 7818.36 16258.6 7893.16 16258.6 7973.5 16266.9 8051.06 16266.9 8142.48 16266.9 8236.67 16258.6 8325.31 16258.6 8339.16 16258.6 8375.17 16258.6 8375.17 16314 8375.17 16344.5 8347.47 16344.5 8308.69 16344.5 8170.19 16344.5 8170.19 16363.8 8170.19 16388.8 8170.19 16422 8286.53 16873.6 8305.92 16942.8 8341.94 16862.5 8419.5 16765.5 8560.78 16765.5 8882.13 16765.5 9228.39 17170 9228.39 17577.2 9228.39 17837.6 9070.48 18020.4 8859.95 18020.4 8721.45 18020.4 8588.48 17920.7 8497.06 17812.7 8469.36 17962.3 8350.25 18020.4 8247.75 18020.4 8120.31 18020.4 8067.69 17912.4 8042.75 17862.5 7992.89 17768.3 7956.88 17602.1 7956.88 17593.8 7956.88 17566.1 7984.58 17566.1 7990.13 17566.1 8017.81 17566.1 8020.59 17568.9 8037.22 17629.8 8084.3 17826.5 8139.7 17959.5 8239.44 17959.5 8286.53 17959.5 8325.31 17937.3 8325.31 17832 8325.31 17768.3 8317 17737.9 8305.92 17690.8L7995.66 16458ZM8483.22 17660.3C8502.61 17735.1 8577.39 17812.7 8627.27 17854.2 8724.22 17940.1 8804.55 17959.5 8851.64 17959.5 8962.45 17959.5 9028.94 17862.5 9028.94 17699.1 9028.94 17535.6 8937.52 17217.1 8887.66 17111.8 8793.47 16917.9 8660.5 16826.5 8558 16826.5 8375.17 16826.5 8339.16 17056.4 8339.16 17073 8339.16 17078.6 8339.16 17084.1 8347.47 17117.3L8483.22 17660.3"/>
<path transform="matrix(.00359712,0,0,-.00359712,0,77)" d="M10065.6 17488.5C10065.6 17704.6 10035.1 18039.8 9882.75 18352.8 9716.55 18693.6 9478.3 18873.6 9450.61 18873.6 9433.98 18873.6 9422.91 18862.6 9422.91 18845.9 9422.91 18837.6 9422.91 18832.1 9475.53 18782.2 9747.02 18508 9904.91 18067.5 9904.91 17488.5 9904.91 17014.8 9802.42 16527.3 9458.91 16178.3 9422.91 16145 9422.91 16139.5 9422.91 16131.2 9422.91 16114.5 9433.98 16103.5 9450.61 16103.5 9478.3 16103.5 9727.63 16291.8 9891.06 16643.6 10032.3 16948.4 10065.6 17255.8 10065.6 17488.5"/>
<path transform="matrix(.00359712,0,0,-.00359712,0,77)" d="M13009.1 17701.8C13050.7 17701.8 13103.3 17701.8 13103.3 17757.3 13103.3 17812.7 13050.7 17812.7 13011.9 17812.7H11352.5C11313.8 17812.7 11261.1 17812.7 11261.1 17757.3 11261.1 17701.8 11313.8 17701.8 11355.3 17701.8H13009.1ZM13011.9 17164.4C13050.7 17164.4 13103.3 17164.4 13103.3 17219.8 13103.3 17275.3 13050.7 17275.3 13009.1 17275.3H11355.3C11313.8 17275.3 11261.1 17275.3 11261.1 17219.8 11261.1 17164.4 11313.8 17164.4 11352.5 17164.4H13011.9"/>
<path transform="matrix(.00359712,0,0,-.00359712,0,77)" stroke-width="110.783" stroke-linecap="butt" stroke-miterlimit="10" stroke-linejoin="miter" fill="none" stroke="#000000" d="M30773.7 17488.4H15012.9"/>
<path transform="matrix(.00359712,0,0,-.00359712,0,77)" d="M33501 17433.1H34273.9C34312.7 17433.1 34365.3 17433.1 34365.3 17488.5 34365.3 17544 34312.7 17544 34273.9 17544H33501V18319.6C33501 18358.4 33501 18411 33445.6 18411 33390.2 18411 33390.2 18358.4 33390.2 18319.6V17544H32614.5C32575.8 17544 32523.1 17544 32523.1 17488.5 32523.1 17433.1 32575.8 17433.1 32614.5 17433.1H33390.2V16657.5C33390.2 16618.7 33390.2 16566.1 33445.6 16566.1 33501 16566.1 33501 16618.7 33501 16657.5V17433.1"/>
<path transform="matrix(.00359712,0,0,-.00359712,0,77)" stroke-width="110.783" stroke-linecap="butt" stroke-miterlimit="10" stroke-linejoin="miter" fill="none" stroke="#000000" d="M58833.8 17555.7H50953.3"/>
<path transform="matrix(.00359712,0,0,-.00359712,0,77)" stroke-width="110.783" stroke-linecap="butt" stroke-miterlimit="10" stroke-linejoin="miter" fill="none" stroke="#000000" d="M50953.3 17555.7H43072.9"/>
<path transform="matrix(.00359712,0,0,-.00359712,0,77)" stroke-width="110.783" stroke-linecap="butt" stroke-miterlimit="10" stroke-linejoin="miter" fill="none" stroke="#000000" d="M43072.9 17555.7H35192.5"/>
<path transform="matrix(.00359712,0,0,-.00359712,0,77)" d="M38108.3 17555.7 39942.2 16796.1V18315.3"/>
<path transform="matrix(.00359712,0,0,-.00359712,0,77)" stroke-width="110.783" stroke-linecap="butt" stroke-miterlimit="10" stroke-linejoin="miter" fill="none" stroke="#000000" d="M50953.3 17555.7 50950.9 17695.4 50770.8 17822.5 50632.7 17941.3 50570.4 18061.3 50594.7 18194.1 50691.4 18347.6 50824.8 18522.7 50948.4 18710.7 51017.6 18894.7 51002.4 19055.2 50895.8 19176.2 50714 19251.9 50492.3 19290.1 50273.3 19311.3 50095.4 19343.7 49982.1 19414.2 49936.1 19539.8 49940.8 19720.8 49965.6 19939.5 49975.7 20163.9 49941.9 20357 49849.1 20486.6 49698 20536.6 49504.3 20511.4 49292.8 20436.3 49089.7 20350.4 48915.4 20296.4 48779 20308.3 48678.2 20401.2 48600.3 20566.7 48527.7 20775.1 48443.3 20982.8 48335.9 21144.3 48202.1 21225.1 48046.5 21211.2 47879.3 21113.3 47712.2 20964.1 47554.3 20809.6 47409.6 20696.5 47276 20659.4 47147.3 20711.2 47015.9 20839.8 46876.3 21011.1 46727.2 21178.2 46572.6 21294.6 46420.1 21326.4 46278.3 21261.8 46152.8 21114.3 46044.3 20918.3 45946.4 20720.3 45847.8 20565.7 45735.1 20486.3 45597.4 20492 45431.1 20568.6 45241.4 20681.4 45042.9 20785.7 44855.8 20839.1 44700.1 20812.8 44589.7 20699.4 44527 20514.5 44501.2 20291.6 44489.3 20071.6 44462.8 19891.8 44395.1 19775.3 44270.4 19725.1 44089.1 19724.5 43869.8 19743.1 43644.9 19746.1 43452.5 19705.3 43325.4 19606.1 43280.9 19450.9 43315.1 19257.2 43402.5 19049.8 43502.6 18854 43571.1 18686.6 43572.7 18553.1 43491.5 18446.6 43336.2 18353.2 43138.3 18256.7 42943.4 18145 42798.3 18013.9 42738.1 17866.8 43072.9 17555.7"/>
<path transform="matrix(.00359712,0,0,-.00359712,0,77)" d="M60638 17433.1H61410.9C61449.7 17433.1 61502.3 17433.1 61502.3 17488.5 61502.3 17544 61449.7 17544 61410.9 17544H60638V18319.6C60638 18358.4 60638 18411 60582.6 18411 60527.2 18411 60527.2 18358.4 60527.2 18319.6V17544H59751.5C59712.8 17544 59660.1 17544 59660.1 17488.5 59660.1 17433.1 59712.8 17433.1 59751.5 17433.1H60527.2V16657.5C60527.2 16618.7 60527.2 16566.1 60582.6 16566.1 60638 16566.1 60638 16618.7 60638 16657.5V17433.1"/>
<path transform="matrix(.00359712,0,0,-.00359712,0,77)" stroke-width="110.783" stroke-linecap="butt" stroke-miterlimit="10" stroke-linejoin="miter" fill="none" stroke="#000000" d="M76255.4 17488.4C76255.4 18141.3 75726.2 18670.5 75073.3 18670.5 74420.5 18670.5 73891.3 18141.3 73891.3 17488.4 73891.3 16835.6 74420.5 16306.4 75073.3 16306.4 75726.2 16306.4 76255.4 16835.6 76255.4 17488.4ZM75073.3 17488.4"/>
<path transform="matrix(.00359712,0,0,-.00359712,0,77)" stroke-width="110.783" stroke-linecap="butt" stroke-miterlimit="10" stroke-linejoin="miter" fill="none" stroke="#000000" d="M74237.5 16652.6 75909.2 18324.3M74237.5 18324.3 75909.2 16652.6"/>
<path transform="matrix(.00359712,0,0,-.00359712,0,77)" stroke-width="110.783" stroke-linecap="butt" stroke-miterlimit="10" stroke-linejoin="miter" fill="none" stroke="#000000" d="M86894 17488.4H76255.4"/>
<path transform="matrix(.00359712,0,0,-.00359712,0,77)" stroke-width="110.783" stroke-linecap="butt" stroke-miterlimit="10" stroke-linejoin="miter" fill="none" stroke="#000000" d="M73891.3 17488.4H63252.7"/>
<path transform="matrix(.00359712,0,0,-.00359712,0,77)" d="M67547.6 17488.4 69381.5 16728.8V18248"/>
<path transform="matrix(.00359712,0,0,-.00359712,0,77)" d="M13014.1 11757.8C13055.7 11757.8 13108.3 11757.8 13108.3 11813.3 13108.3 11868.7 13055.7 11868.7 13016.9 11868.7H11357.5C11318.8 11868.7 11266.1 11868.7 11266.1 11813.3 11266.1 11757.8 11318.8 11757.8 11360.3 11757.8H13014.1ZM13016.9 11220.4C13055.7 11220.4 13108.3 11220.4 13108.3 11275.8 13108.3 11331.3 13055.7 11331.3 13014.1 11331.3H11360.3C11318.8 11331.3 11266.1 11331.3 11266.1 11275.8 11266.1 11220.4 11318.8 11220.4 11357.5 11220.4H13016.9"/>
<path transform="matrix(.00359712,0,0,-.00359712,0,77)" d="M15373.7 14457.4C15373.7 14512.8 15335 14557.1 15271.2 14557.1 15196.4 14557.1 15121.6 14485.1 15121.6 14410.3 15121.6 14357.6 15160.4 14310.5 15226.9 14310.5 15290.6 14310.5 15373.7 14374.3 15373.7 14457.4ZM15163.2 13415.8C15196.4 13496.1 15196.4 13501.7 15224.1 13576.5 15246.3 13631.8 15260.2 13670.6 15260.2 13723.3 15260.2 13847.9 15171.5 13950.4 15033 13950.4 14772.6 13950.4 14667.3 13548.8 14667.3 13523.8 14667.3 13496.1 14695 13496.1 14700.6 13496.1 14728.3 13496.1 14731 13501.7 14744.9 13546 14819.7 13806.4 14930.5 13889.5 15024.7 13889.5 15046.8 13889.5 15093.9 13889.5 15093.9 13800.8 15093.9 13742.7 15074.5 13684.5 15063.5 13656.8 15041.3 13584.8 14916.7 13263.4 14872.3 13144.3 14844.6 13072.3 14808.6 12980.9 14808.6 12922.7 14808.6 12792.5 14902.8 12695.5 15035.8 12695.5 15296.2 12695.5 15398.7 13097.2 15398.7 13122.1 15398.7 13149.8 15373.7 13149.8 15365.4 13149.8 15337.7 13149.8 15337.7 13141.5 15323.9 13100 15274 12925.5 15182.6 12756.5 15041.3 12756.5 14994.2 12756.5 14974.8 12784.2 14974.8 12847.9 14974.8 12917.1 14991.5 12955.9 15055.2 13124.9L15163.2 13415.8"/>
<path transform="matrix(.00359712,0,0,-.00359712,0,77)" stroke-width="110.783" stroke-linecap="butt" stroke-miterlimit="10" stroke-linejoin="miter" fill="none" stroke="#000000" d="M14366.8 11544.8H15760.4"/>
<path transform="matrix(.00359712,0,0,-.00359712,0,77)" d="M15587.1 10559.4C15601 10595.4 15601 10606.5 15601 10609.2 15601 10639.7 15576 10664.6 15545.6 10664.6 15526.2 10664.6 15506.8 10656.3 15498.5 10639.7L14537.2 7999.72C14523.4 7963.7 14523.4 7952.63 14523.4 7949.86 14523.4 7919.39 14548.3 7894.45 14578.8 7894.45 14614.8 7894.45 14623.1 7913.84 14639.7 7960.94L15587.1 10559.4"/>
<path transform="matrix(.00359712,0,0,-.00359712,0,77)" d="M14491.7 8614.03C14469.5 8519.84 14464 8500.45 14342.1 8500.45 14308.8 8500.45 14278.4 8500.45 14278.4 8447.83 14278.4 8425.67 14292.2 8414.58 14314.4 8414.58 14389.2 8414.58 14469.5 8422.89 14547.1 8422.89 14638.5 8422.89 14732.7 8414.58 14821.3 8414.58 14835.2 8414.58 14871.2 8414.58 14871.2 8469.98 14871.2 8500.45 14843.5 8500.45 14804.7 8500.45 14666.2 8500.45 14666.2 8519.84 14666.2 8544.78 14666.2 8578.03 14782.5 9029.56 14801.9 9098.81 14837.9 9018.48 14915.5 8921.53 15056.8 8921.53 15378.1 8921.53 15724.4 9325.97 15724.4 9733.19 15724.4 9993.59 15566.5 10176.4 15356 10176.4 15217.5 10176.4 15084.5 10076.7 14993.1 9968.66 14965.4 10118.3 14846.3 10176.4 14743.8 10176.4 14616.3 10176.4 14563.7 10068.4 14538.8 10018.5 14488.9 9924.33 14452.9 9758.13 14452.9 9749.81 14452.9 9722.11 14480.6 9722.11 14486.1 9722.11 14513.8 9722.11 14516.6 9724.88 14533.2 9785.83 14580.3 9982.52 14635.7 10115.5 14735.4 10115.5 14782.5 10115.5 14821.3 10093.3 14821.3 9988.05 14821.3 9924.33 14813 9893.86 14801.9 9846.77L14491.7 8614.03ZM14979.2 9816.3C14998.6 9891.09 15073.4 9968.66 15123.3 10010.2 15220.2 10096.1 15300.5 10115.5 15347.6 10115.5 15458.5 10115.5 15524.9 10018.5 15524.9 9855.08 15524.9 9691.64 15433.5 9373.06 15383.7 9267.8 15289.5 9073.89 15156.5 8982.47 15054 8982.47 14871.2 8982.47 14835.2 9212.39 14835.2 9229.02 14835.2 9234.56 14835.2 9240.09 14843.5 9273.34L14979.2 9816.3"/>
<path transform="matrix(.00359712,0,0,-.00359712,0,77)" d="M17841 11489.1H18613.9C18652.7 11489.1 18705.3 11489.1 18705.3 11544.5 18705.3 11600 18652.7 11600 18613.9 11600H17841V12375.6C17841 12414.4 17841 12467 17785.6 12467 17730.2 12467 17730.2 12414.4 17730.2 12375.6V11600H16954.5C16915.8 11600 16863.1 11600 16863.1 11544.5 16863.1 11489.1 16915.8 11489.1 16954.5 11489.1H17730.2V10713.5C17730.2 10674.7 17730.2 10622.1 17785.6 10622.1 17841 10622.1 17841 10674.7 17841 10713.5V11489.1"/>
<path transform="matrix(.00359712,0,0,-.00359712,0,77)" d="M20816.7 14457.4C20816.7 14512.8 20778 14557.1 20714.2 14557.1 20639.4 14557.1 20564.6 14485.1 20564.6 14410.3 20564.6 14357.6 20603.4 14310.5 20669.9 14310.5 20733.6 14310.5 20816.7 14374.3 20816.7 14457.4ZM20606.2 13415.8C20639.4 13496.1 20639.4 13501.7 20667.1 13576.5 20689.3 13631.8 20703.2 13670.6 20703.2 13723.3 20703.2 13847.9 20614.5 13950.4 20476 13950.4 20215.6 13950.4 20110.3 13548.8 20110.3 13523.8 20110.3 13496.1 20138 13496.1 20143.6 13496.1 20171.3 13496.1 20174 13501.7 20187.9 13546 20262.7 13806.4 20373.5 13889.5 20467.7 13889.5 20489.8 13889.5 20536.9 13889.5 20536.9 13800.8 20536.9 13742.7 20517.5 13684.5 20506.5 13656.8 20484.3 13584.8 20359.7 13263.4 20315.3 13144.3 20287.6 13072.3 20251.6 12980.9 20251.6 12922.7 20251.6 12792.5 20345.8 12695.5 20478.8 12695.5 20739.2 12695.5 20841.7 13097.2 20841.7 13122.1 20841.7 13149.8 20816.7 13149.8 20808.4 13149.8 20780.7 13149.8 20780.7 13141.5 20766.9 13100 20717 12925.5 20625.6 12756.5 20484.3 12756.5 20437.2 12756.5 20417.8 12784.2 20417.8 12847.9 20417.8 12917.1 20434.5 12955.9 20498.2 13124.9L20606.2 13415.8"/>
<path transform="matrix(.00359712,0,0,-.00359712,0,77)" stroke-width="110.783" stroke-linecap="butt" stroke-miterlimit="10" stroke-linejoin="miter" fill="none" stroke="#000000" d="M19810 11544.8H21203.6"/>
<path transform="matrix(.00359712,0,0,-.00359712,0,77)" d="M21030.1 10559.4C21044 10595.4 21044 10606.5 21044 10609.2 21044 10639.7 21019 10664.6 20988.6 10664.6 20969.2 10664.6 20949.8 10656.3 20941.5 10639.7L19980.2 7999.72C19966.4 7963.7 19966.4 7952.63 19966.4 7949.86 19966.4 7919.39 19991.3 7894.45 20021.8 7894.45 20057.8 7894.45 20066.1 7913.84 20082.7 7960.94L21030.1 10559.4"/>
<path transform="matrix(.00359712,0,0,-.00359712,0,77)" d="M19934.7 8614.03C19912.5 8519.84 19907 8500.45 19785.1 8500.45 19751.8 8500.45 19721.4 8500.45 19721.4 8447.83 19721.4 8425.67 19735.2 8414.58 19757.4 8414.58 19832.2 8414.58 19912.5 8422.89 19990.1 8422.89 20081.5 8422.89 20175.7 8414.58 20264.3 8414.58 20278.2 8414.58 20314.2 8414.58 20314.2 8469.98 20314.2 8500.45 20286.5 8500.45 20247.7 8500.45 20109.2 8500.45 20109.2 8519.84 20109.2 8544.78 20109.2 8578.03 20225.5 9029.56 20244.9 9098.81 20280.9 9018.48 20358.5 8921.53 20499.8 8921.53 20821.1 8921.53 21167.4 9325.97 21167.4 9733.19 21167.4 9993.59 21009.5 10176.4 20799 10176.4 20660.5 10176.4 20527.5 10076.7 20436.1 9968.66 20408.4 10118.3 20289.3 10176.4 20186.8 10176.4 20059.3 10176.4 20006.7 10068.4 19981.8 10018.5 19931.9 9924.33 19895.9 9758.13 19895.9 9749.81 19895.9 9722.11 19923.6 9722.11 19929.1 9722.11 19956.8 9722.11 19959.6 9724.88 19976.2 9785.83 20023.3 9982.52 20078.7 10115.5 20178.4 10115.5 20225.5 10115.5 20264.3 10093.3 20264.3 9988.05 20264.3 9924.33 20256 9893.86 20244.9 9846.77L19934.7 8614.03ZM20422.2 9816.3C20441.6 9891.09 20516.4 9968.66 20566.3 10010.2 20663.2 10096.1 20743.5 10115.5 20790.6 10115.5 20901.5 10115.5 20967.9 10018.5 20967.9 9855.08 20967.9 9691.64 20876.5 9373.06 20826.7 9267.8 20732.5 9073.89 20599.5 8982.47 20497 8982.47 20314.2 8982.47 20278.2 9212.39 20278.2 9229.02 20278.2 9234.56 20278.2 9240.09 20286.5 9273.34L20422.2 9816.3"/>
<path transform="matrix(.00359712,0,0,-.00359712,0,77)" d="M22242.4 10159.5V10270.3H21973.7V12818.8H22242.4V12929.6H21862.9V10159.5H22242.4"/>
<path transform="matrix(.00359712,0,0,-.00359712,0,77)" d="M24130.5 11489.1C24177.6 11489.1 24227.5 11489.1 24227.5 11544.5 24227.5 11600 24177.6 11600 24130.5 11600H22631.9C22584.8 11600 22534.9 11600 22534.9 11544.5 22534.9 11489.1 22584.8 11489.1 22631.9 11489.1H24130.5"/>
<path transform="matrix(.00359712,0,0,-.00359712,0,77)" d="M25246.7 12583.4C25246.7 12638.8 25208 12683.1 25144.2 12683.1 25069.4 12683.1 24994.6 12611.1 24994.6 12536.3 24994.6 12483.6 25033.4 12436.5 25099.9 12436.5 25163.6 12436.5 25246.7 12500.3 25246.7 12583.4ZM25036.2 11541.8C25069.4 11622.1 25069.4 11627.7 25097.1 11702.5 25119.3 11757.8 25133.2 11796.6 25133.2 11849.3 25133.2 11973.9 25044.5 12076.4 24906 12076.4 24645.6 12076.4 24540.3 11674.8 24540.3 11649.8 24540.3 11622.1 24568 11622.1 24573.6 11622.1 24601.3 11622.1 24604 11627.7 24617.9 11672 24692.7 11932.4 24803.5 12015.5 24897.7 12015.5 24919.8 12015.5 24966.9 12015.5 24966.9 11926.8 24966.9 11868.7 24947.5 11810.5 24936.5 11782.8 24914.3 11710.8 24789.7 11389.4 24745.3 11270.3 24717.6 11198.3 24681.6 11106.9 24681.6 11048.7 24681.6 10918.5 24775.8 10821.5 24908.8 10821.5 25169.2 10821.5 25271.7 11223.2 25271.7 11248.1 25271.7 11275.8 25246.7 11275.8 25238.4 11275.8 25210.7 11275.8 25210.7 11267.5 25196.9 11226 25147 11051.5 25055.6 10882.5 24914.3 10882.5 24867.2 10882.5 24847.8 10910.2 24847.8 10973.9 24847.8 11043.1 24864.5 11081.9 24928.2 11250.9L25036.2 11541.8"/>
<path transform="matrix(.00359712,0,0,-.00359712,0,77)" d="M26444.5 11755.1C26469.4 11782.8 26469.4 11793.9 26469.4 11799.4 26469.4 11813.3 26458.4 11827.1 26450 11838.2L25882.2 12658.2H26522.1C26990.2 12658.2 27128.8 12558.4 27186.9 12120.8H27256.2L27178.6 12744H25641.2C25574.7 12744 25569.1 12744 25569.1 12680.3L26258.9 11677.5 25599.6 10926.8C25571.9 10896.3 25571.9 10890.8 25571.9 10882.5 25571.9 10852 25599.6 10852 25641.2 10852H27178.6L27256.2 11505.8H27186.9C27137.1 11043.1 26948.7 10968.3 26513.8 10968.3H25749.2L26444.5 11755.1"/>
<path transform="matrix(.00359712,0,0,-.00359712,0,77)" d="M28393 10789.8H28327.1C28321.3 10747.2 28301.9 10632.8 28276.7 10613.4 28261.2 10601.8 28111.9 10601.8 28084.8 10601.8H27728.1C27931.6 10782.1 27999.5 10836.4 28115.8 10927.5 28259.3 11041.9 28393 11162.1 28393 11346.3 28393 11580.8 28187.5 11724.3 27939.4 11724.3 27699 11724.3 27536.1 11555.6 27536.1 11377.3 27536.1 11278.4 27619.5 11268.7 27638.9 11268.7 27685.4 11268.7 27741.6 11301.7 27741.6 11371.5 27741.6 11406.3 27728.1 11474.2 27627.3 11474.2 27687.4 11611.9 27819.2 11654.5 27910.3 11654.5 28104.2 11654.5 28205 11503.3 28205 11346.3 28205 11177.6 28084.8 11043.8 28022.8 10974L27555.5 10512.6C27536.1 10495.2 27536.1 10491.3 27536.1 10437H28334.9L28393 10789.8"/>
<path transform="matrix(.00359712,0,0,-.00359712,0,77)" d="M29096.5 12929.6H28716.9V12818.8H28985.7V10270.3H28716.9V10159.5H29096.5V12929.6"/>
<path transform="matrix(.00359712,0,0,-.00359712,0,77)" d="M30764.7 14457.4C30764.7 14512.8 30726 14557.1 30662.2 14557.1 30587.4 14557.1 30512.6 14485.1 30512.6 14410.3 30512.6 14357.6 30551.4 14310.5 30617.9 14310.5 30681.6 14310.5 30764.7 14374.3 30764.7 14457.4ZM30554.2 13415.8C30587.4 13496.1 30587.4 13501.7 30615.1 13576.5 30637.3 13631.8 30651.2 13670.6 30651.2 13723.3 30651.2 13847.9 30562.5 13950.4 30424 13950.4 30163.6 13950.4 30058.3 13548.8 30058.3 13523.8 30058.3 13496.1 30086 13496.1 30091.6 13496.1 30119.3 13496.1 30122 13501.7 30135.9 13546 30210.7 13806.4 30321.5 13889.5 30415.7 13889.5 30437.8 13889.5 30484.9 13889.5 30484.9 13800.8 30484.9 13742.7 30465.5 13684.5 30454.5 13656.8 30432.3 13584.8 30307.7 13263.4 30263.3 13144.3 30235.6 13072.3 30199.6 12980.9 30199.6 12922.7 30199.6 12792.5 30293.8 12695.5 30426.8 12695.5 30687.2 12695.5 30789.7 13097.2 30789.7 13122.1 30789.7 13149.8 30764.7 13149.8 30756.4 13149.8 30728.7 13149.8 30728.7 13141.5 30714.9 13100 30665 12925.5 30573.6 12756.5 30432.3 12756.5 30385.2 12756.5 30365.8 12784.2 30365.8 12847.9 30365.8 12917.1 30382.5 12955.9 30446.2 13124.9L30554.2 13415.8"/>
<path transform="matrix(.00359712,0,0,-.00359712,0,77)" stroke-width="110.783" stroke-linecap="butt" stroke-miterlimit="10" stroke-linejoin="miter" fill="none" stroke="#000000" d="M29758 11544.8H31151.6"/>
<path transform="matrix(.00359712,0,0,-.00359712,0,77)" d="M30978.1 10559.4C30992 10595.4 30992 10606.5 30992 10609.2 30992 10639.7 30967 10664.6 30936.6 10664.6 30917.2 10664.6 30897.8 10656.3 30889.5 10639.7L29928.2 7999.72C29914.4 7963.7 29914.4 7952.63 29914.4 7949.86 29914.4 7919.39 29939.3 7894.45 29969.8 7894.45 30005.8 7894.45 30014.1 7913.84 30030.7 7960.94L30978.1 10559.4"/>
<path transform="matrix(.00359712,0,0,-.00359712,0,77)" d="M29882.7 8614.03C29860.5 8519.84 29855 8500.45 29733.1 8500.45 29699.8 8500.45 29669.4 8500.45 29669.4 8447.83 29669.4 8425.67 29683.2 8414.58 29705.4 8414.58 29780.2 8414.58 29860.5 8422.89 29938.1 8422.89 30029.5 8422.89 30123.7 8414.58 30212.3 8414.58 30226.2 8414.58 30262.2 8414.58 30262.2 8469.98 30262.2 8500.45 30234.5 8500.45 30195.7 8500.45 30057.2 8500.45 30057.2 8519.84 30057.2 8544.78 30057.2 8578.03 30173.5 9029.56 30192.9 9098.81 30228.9 9018.48 30306.5 8921.53 30447.8 8921.53 30769.1 8921.53 31115.4 9325.97 31115.4 9733.19 31115.4 9993.59 30957.5 10176.4 30747 10176.4 30608.5 10176.4 30475.5 10076.7 30384.1 9968.66 30356.4 10118.3 30237.3 10176.4 30134.8 10176.4 30007.3 10176.4 29954.7 10068.4 29929.8 10018.5 29879.9 9924.33 29843.9 9758.13 29843.9 9749.81 29843.9 9722.11 29871.6 9722.11 29877.1 9722.11 29904.8 9722.11 29907.6 9724.88 29924.2 9785.83 29971.3 9982.52 30026.7 10115.5 30126.4 10115.5 30173.5 10115.5 30212.3 10093.3 30212.3 9988.05 30212.3 9924.33 30204 9893.86 30192.9 9846.77L29882.7 8614.03ZM30370.2 9816.3C30389.6 9891.09 30464.4 9968.66 30514.3 10010.2 30611.2 10096.1 30691.5 10115.5 30738.6 10115.5 30849.5 10115.5 30915.9 10018.5 30915.9 9855.08 30915.9 9691.64 30824.5 9373.06 30774.7 9267.8 30680.5 9073.89 30547.5 8982.47 30445 8982.47 30262.2 8982.47 30226.2 9212.39 30226.2 9229.02 30226.2 9234.56 30226.2 9240.09 30234.5 9273.34L30370.2 9816.3"/>
<path transform="matrix(.00359712,0,0,-.00359712,0,77)" d="M33232 11489.1H34004.9C34043.7 11489.1 34096.3 11489.1 34096.3 11544.5 34096.3 11600 34043.7 11600 34004.9 11600H33232V12375.6C33232 12414.4 33232 12467 33176.6 12467 33121.2 12467 33121.2 12414.4 33121.2 12375.6V11600H32345.5C32306.8 11600 32254.1 11600 32254.1 11544.5 32254.1 11489.1 32306.8 11489.1 32345.5 11489.1H33121.2V10713.5C33121.2 10674.7 33121.2 10622.1 33176.6 10622.1 33232 10622.1 33232 10674.7 33232 10713.5V11489.1"/>
<path transform="matrix(.00359712,0,0,-.00359712,0,77)" d="M36207.7 14457.4C36207.7 14512.8 36169 14557.1 36105.2 14557.1 36030.4 14557.1 35955.6 14485.1 35955.6 14410.3 35955.6 14357.6 35994.4 14310.5 36060.9 14310.5 36124.6 14310.5 36207.7 14374.3 36207.7 14457.4ZM35997.2 13415.8C36030.4 13496.1 36030.4 13501.7 36058.1 13576.5 36080.3 13631.8 36094.2 13670.6 36094.2 13723.3 36094.2 13847.9 36005.5 13950.4 35867 13950.4 35606.6 13950.4 35501.3 13548.8 35501.3 13523.8 35501.3 13496.1 35529 13496.1 35534.6 13496.1 35562.3 13496.1 35565 13501.7 35578.9 13546 35653.7 13806.4 35764.5 13889.5 35858.7 13889.5 35880.8 13889.5 35927.9 13889.5 35927.9 13800.8 35927.9 13742.7 35908.5 13684.5 35897.5 13656.8 35875.3 13584.8 35750.7 13263.4 35706.3 13144.3 35678.6 13072.3 35642.6 12980.9 35642.6 12922.7 35642.6 12792.5 35736.8 12695.5 35869.8 12695.5 36130.2 12695.5 36232.7 13097.2 36232.7 13122.1 36232.7 13149.8 36207.7 13149.8 36199.4 13149.8 36171.7 13149.8 36171.7 13141.5 36157.9 13100 36108 12925.5 36016.6 12756.5 35875.3 12756.5 35828.2 12756.5 35808.8 12784.2 35808.8 12847.9 35808.8 12917.1 35825.5 12955.9 35889.2 13124.9L35997.2 13415.8"/>
<path transform="matrix(.00359712,0,0,-.00359712,0,77)" stroke-width="110.783" stroke-linecap="butt" stroke-miterlimit="10" stroke-linejoin="miter" fill="none" stroke="#000000" d="M35201.2 11544.8H36594.8"/>
<path transform="matrix(.00359712,0,0,-.00359712,0,77)" d="M36422.1 10559.4C36436 10595.4 36436 10606.5 36436 10609.2 36436 10639.7 36411 10664.6 36380.6 10664.6 36361.2 10664.6 36341.8 10656.3 36333.5 10639.7L35372.2 7999.72C35358.4 7963.7 35358.4 7952.63 35358.4 7949.86 35358.4 7919.39 35383.3 7894.45 35413.8 7894.45 35449.8 7894.45 35458.1 7913.84 35474.7 7960.94L36422.1 10559.4"/>
<path transform="matrix(.00359712,0,0,-.00359712,0,77)" d="M35325.7 8614.03C35303.5 8519.84 35298 8500.45 35176.1 8500.45 35142.8 8500.45 35112.4 8500.45 35112.4 8447.83 35112.4 8425.67 35126.2 8414.58 35148.4 8414.58 35223.2 8414.58 35303.5 8422.89 35381.1 8422.89 35472.5 8422.89 35566.7 8414.58 35655.3 8414.58 35669.2 8414.58 35705.2 8414.58 35705.2 8469.98 35705.2 8500.45 35677.5 8500.45 35638.7 8500.45 35500.2 8500.45 35500.2 8519.84 35500.2 8544.78 35500.2 8578.03 35616.5 9029.56 35635.9 9098.81 35671.9 9018.48 35749.5 8921.53 35890.8 8921.53 36212.1 8921.53 36558.4 9325.97 36558.4 9733.19 36558.4 9993.59 36400.5 10176.4 36190 10176.4 36051.5 10176.4 35918.5 10076.7 35827.1 9968.66 35799.4 10118.3 35680.3 10176.4 35577.8 10176.4 35450.3 10176.4 35397.7 10068.4 35372.8 10018.5 35322.9 9924.33 35286.9 9758.13 35286.9 9749.81 35286.9 9722.11 35314.6 9722.11 35320.1 9722.11 35347.8 9722.11 35350.6 9724.88 35367.2 9785.83 35414.3 9982.52 35469.7 10115.5 35569.4 10115.5 35616.5 10115.5 35655.3 10093.3 35655.3 9988.05 35655.3 9924.33 35647 9893.86 35635.9 9846.77L35325.7 8614.03ZM35813.2 9816.3C35832.6 9891.09 35907.4 9968.66 35957.3 10010.2 36054.2 10096.1 36134.5 10115.5 36181.6 10115.5 36292.5 10115.5 36358.9 10018.5 36358.9 9855.08 36358.9 9691.64 36267.5 9373.06 36217.7 9267.8 36123.5 9073.89 35990.5 8982.47 35888 8982.47 35705.2 8982.47 35669.2 9212.39 35669.2 9229.02 35669.2 9234.56 35669.2 9240.09 35677.5 9273.34L35813.2 9816.3"/>
<path transform="matrix(.00359712,0,0,-.00359712,0,77)" d="M37713.7 12583.4C37713.7 12638.8 37675 12683.1 37611.2 12683.1 37536.4 12683.1 37461.6 12611.1 37461.6 12536.3 37461.6 12483.6 37500.4 12436.5 37566.9 12436.5 37630.6 12436.5 37713.7 12500.3 37713.7 12583.4ZM37503.2 11541.8C37536.4 11622.1 37536.4 11627.7 37564.1 11702.5 37586.3 11757.8 37600.2 11796.6 37600.2 11849.3 37600.2 11973.9 37511.5 12076.4 37373 12076.4 37112.6 12076.4 37007.3 11674.8 37007.3 11649.8 37007.3 11622.1 37035 11622.1 37040.6 11622.1 37068.3 11622.1 37071 11627.7 37084.9 11672 37159.7 11932.4 37270.5 12015.5 37364.7 12015.5 37386.8 12015.5 37433.9 12015.5 37433.9 11926.8 37433.9 11868.7 37414.5 11810.5 37403.5 11782.8 37381.3 11710.8 37256.7 11389.4 37212.3 11270.3 37184.6 11198.3 37148.6 11106.9 37148.6 11048.7 37148.6 10918.5 37242.8 10821.5 37375.8 10821.5 37636.2 10821.5 37738.7 11223.2 37738.7 11248.1 37738.7 11275.8 37713.7 11275.8 37705.4 11275.8 37677.7 11275.8 37677.7 11267.5 37663.9 11226 37614 11051.5 37522.6 10882.5 37381.3 10882.5 37334.2 10882.5 37314.8 10910.2 37314.8 10973.9 37314.8 11043.1 37331.5 11081.9 37395.2 11250.9L37503.2 11541.8"/>
<path transform="matrix(.00359712,0,0,-.00359712,0,77)" d="M38797.9 10187.2C38797.9 10195.5 38797.9 10201 38750.8 10248.1 38404.6 10597.1 38315.9 11120.7 38315.9 11544.5 38315.9 12026.6 38421.2 12508.6 38761.9 12854.8 38797.9 12888.1 38797.9 12893.6 38797.9 12901.9 38797.9 12921.3 38786.8 12929.6 38770.2 12929.6 38742.5 12929.6 38493.2 12741.3 38329.8 12389.5 38188.5 12084.7 38155.3 11777.3 38155.3 11544.5 38155.3 11328.5 38185.7 10993.3 38338.1 10680.3 38504.3 10339.5 38742.5 10159.5 38770.2 10159.5 38786.8 10159.5 38797.9 10167.8 38797.9 10187.2"/>
<path transform="matrix(.00359712,0,0,-.00359712,0,77)" d="M40179.1 12459.4C40193 12495.4 40193 12506.5 40193 12509.2 40193 12539.7 40168 12564.6 40137.6 12564.6 40118.2 12564.6 40098.8 12556.3 40090.5 12539.7L39129.2 9899.72C39115.4 9863.7 39115.4 9852.63 39115.4 9849.86 39115.4 9819.39 39140.3 9794.45 39170.8 9794.45 39206.8 9794.45 39215.1 9813.84 39231.7 9860.94L40179.1 12459.4"/>
<path transform="matrix(.00359712,0,0,-.00359712,0,77)" d="M39082.7 10514C39060.5 10419.8 39055 10400.5 38933.1 10400.5 38899.8 10400.5 38869.4 10400.5 38869.4 10347.8 38869.4 10325.7 38883.2 10314.6 38905.4 10314.6 38980.2 10314.6 39060.5 10322.9 39138.1 10322.9 39229.5 10322.9 39323.7 10314.6 39412.3 10314.6 39426.2 10314.6 39462.2 10314.6 39462.2 10370 39462.2 10400.5 39434.5 10400.5 39395.7 10400.5 39257.2 10400.5 39257.2 10419.8 39257.2 10444.8 39257.2 10478 39373.5 10929.6 39392.9 10998.8 39428.9 10918.5 39506.5 10821.5 39647.8 10821.5 39969.1 10821.5 40315.4 11226 40315.4 11633.2 40315.4 11893.6 40157.5 12076.4 39947 12076.4 39808.5 12076.4 39675.5 11976.7 39584.1 11868.7 39556.4 12018.3 39437.3 12076.4 39334.8 12076.4 39207.3 12076.4 39154.7 11968.4 39129.8 11918.5 39079.9 11824.3 39043.9 11658.1 39043.9 11649.8 39043.9 11622.1 39071.6 11622.1 39077.1 11622.1 39104.8 11622.1 39107.6 11624.9 39124.2 11685.8 39171.3 11882.5 39226.7 12015.5 39326.4 12015.5 39373.5 12015.5 39412.3 11993.3 39412.3 11888 39412.3 11824.3 39404 11793.9 39392.9 11746.8L39082.7 10514ZM39570.2 11716.3C39589.6 11791.1 39664.4 11868.7 39714.3 11910.2 39811.2 11996.1 39891.5 12015.5 39938.6 12015.5 40049.5 12015.5 40115.9 11918.5 40115.9 11755.1 40115.9 11591.6 40024.5 11273.1 39974.7 11167.8 39880.5 10973.9 39747.5 10882.5 39645 10882.5 39462.2 10882.5 39426.2 11112.4 39426.2 11129 39426.2 11134.6 39426.2 11140.1 39434.5 11173.3L39570.2 11716.3"/>
<path transform="matrix(.00359712,0,0,-.00359712,0,77)" d="M41082.3 12062.6C40736.1 11979.5 40467.3 11619.3 40467.3 11284.2 40467.3 11018.2 40644.6 10818.8 40905 10818.8 41229.2 10818.8 41459.1 11253.7 41459.1 11636 41459.1 11888 41348.3 12026.6 41254.1 12151.2 41154.4 12275.9 40990.9 12483.6 40990.9 12605.5 40990.9 12666.5 41046.3 12733 41143.3 12733 41226.4 12733 41281.8 12696.9 41340 12658.2 41395.4 12624.9 41450.8 12588.9 41492.3 12588.9 41561.6 12588.9 41603.1 12655.4 41603.1 12699.7 41603.1 12760.7 41558.8 12769 41459.1 12791.1 41315 12821.6 41276.3 12821.6 41231.9 12821.6 41015.8 12821.6 40916.1 12702.5 40916.1 12536.3 40916.1 12386.7 40996.5 12231.5 41082.3 12062.6ZM41115.6 12001.6C41184.8 11874.2 41267.9 11724.6 41267.9 11525.2 41267.9 11342.3 41162.7 10879.7 40905 10879.7 40752.7 10879.7 40639.1 10996 40639.1 11206.6 40639.1 11381.1 40741.6 11901.9 41115.6 12001.6"/>
<path transform="matrix(.00359712,0,0,-.00359712,0,77)" d="M42562 10789.8H42496.1C42490.3 10747.2 42470.9 10632.8 42445.7 10613.4 42430.2 10601.8 42280.9 10601.8 42253.8 10601.8H41897.1C42100.6 10782.1 42168.5 10836.4 42284.8 10927.5 42428.3 11041.9 42562 11162.1 42562 11346.3 42562 11580.8 42356.5 11724.3 42108.4 11724.3 41868 11724.3 41705.1 11555.6 41705.1 11377.3 41705.1 11278.4 41788.5 11268.7 41807.9 11268.7 41854.4 11268.7 41910.6 11301.7 41910.6 11371.5 41910.6 11406.3 41897.1 11474.2 41796.3 11474.2 41856.4 11611.9 41988.2 11654.5 42079.3 11654.5 42273.2 11654.5 42374 11503.3 42374 11346.3 42374 11177.6 42253.8 11043.8 42191.8 10974L41724.5 10512.6C41705.1 10495.2 41705.1 10491.3 41705.1 10437H42503.9L42562 10789.8"/>
<path transform="matrix(.00359712,0,0,-.00359712,0,77)" d="M43625.6 11544.5C43625.6 11760.6 43595.1 12095.8 43442.8 12408.8 43276.5 12749.6 43038.3 12929.6 43010.6 12929.6 42994 12929.6 42982.9 12918.6 42982.9 12901.9 42982.9 12893.6 42982.9 12888.1 43035.5 12838.2 43307 12564 43464.9 12123.5 43464.9 11544.5 43464.9 11070.8 43362.4 10583.3 43018.9 10234.3 42982.9 10201 42982.9 10195.5 42982.9 10187.2 42982.9 10170.5 42994 10159.5 43010.6 10159.5 43038.3 10159.5 43287.6 10347.8 43451.1 10699.6 43592.3 11004.4 43625.6 11311.8 43625.6 11544.5"/>
<path transform="matrix(.00359712,0,0,-.00359712,0,77)" d="M45240.7 14457.4C45240.7 14512.8 45202 14557.1 45138.2 14557.1 45063.4 14557.1 44988.6 14485.1 44988.6 14410.3 44988.6 14357.6 45027.4 14310.5 45093.9 14310.5 45157.6 14310.5 45240.7 14374.3 45240.7 14457.4ZM45030.2 13415.8C45063.4 13496.1 45063.4 13501.7 45091.1 13576.5 45113.3 13631.8 45127.2 13670.6 45127.2 13723.3 45127.2 13847.9 45038.5 13950.4 44900 13950.4 44639.6 13950.4 44534.3 13548.8 44534.3 13523.8 44534.3 13496.1 44562 13496.1 44567.6 13496.1 44595.3 13496.1 44598 13501.7 44611.9 13546 44686.7 13806.4 44797.5 13889.5 44891.7 13889.5 44913.8 13889.5 44960.9 13889.5 44960.9 13800.8 44960.9 13742.7 44941.5 13684.5 44930.5 13656.8 44908.3 13584.8 44783.7 13263.4 44739.3 13144.3 44711.6 13072.3 44675.6 12980.9 44675.6 12922.7 44675.6 12792.5 44769.8 12695.5 44902.8 12695.5 45163.2 12695.5 45265.7 13097.2 45265.7 13122.1 45265.7 13149.8 45240.7 13149.8 45232.4 13149.8 45204.7 13149.8 45204.7 13141.5 45190.9 13100 45141 12925.5 45049.6 12756.5 44908.3 12756.5 44861.2 12756.5 44841.8 12784.2 44841.8 12847.9 44841.8 12917.1 44858.5 12955.9 44922.2 13124.9L45030.2 13415.8"/>
<path transform="matrix(.00359712,0,0,-.00359712,0,77)" stroke-width="110.783" stroke-linecap="butt" stroke-miterlimit="10" stroke-linejoin="miter" fill="none" stroke="#000000" d="M44234.5 11544.8H45628.1"/>
<path transform="matrix(.00359712,0,0,-.00359712,0,77)" d="M45455.1 10559.4C45469 10595.4 45469 10606.5 45469 10609.2 45469 10639.7 45444 10664.6 45413.6 10664.6 45394.2 10664.6 45374.8 10656.3 45366.5 10639.7L44405.2 7999.72C44391.4 7963.7 44391.4 7952.63 44391.4 7949.86 44391.4 7919.39 44416.3 7894.45 44446.8 7894.45 44482.8 7894.45 44491.1 7913.84 44507.7 7960.94L45455.1 10559.4"/>
<path transform="matrix(.00359712,0,0,-.00359712,0,77)" d="M44359.7 8614.03C44337.5 8519.84 44332 8500.45 44210.1 8500.45 44176.8 8500.45 44146.4 8500.45 44146.4 8447.83 44146.4 8425.67 44160.2 8414.58 44182.4 8414.58 44257.2 8414.58 44337.5 8422.89 44415.1 8422.89 44506.5 8422.89 44600.7 8414.58 44689.3 8414.58 44703.2 8414.58 44739.2 8414.58 44739.2 8469.98 44739.2 8500.45 44711.5 8500.45 44672.7 8500.45 44534.2 8500.45 44534.2 8519.84 44534.2 8544.78 44534.2 8578.03 44650.5 9029.56 44669.9 9098.81 44705.9 9018.48 44783.5 8921.53 44924.8 8921.53 45246.1 8921.53 45592.4 9325.97 45592.4 9733.19 45592.4 9993.59 45434.5 10176.4 45224 10176.4 45085.5 10176.4 44952.5 10076.7 44861.1 9968.66 44833.4 10118.3 44714.3 10176.4 44611.8 10176.4 44484.3 10176.4 44431.7 10068.4 44406.8 10018.5 44356.9 9924.33 44320.9 9758.13 44320.9 9749.81 44320.9 9722.11 44348.6 9722.11 44354.1 9722.11 44381.8 9722.11 44384.6 9724.88 44401.2 9785.83 44448.3 9982.52 44503.7 10115.5 44603.4 10115.5 44650.5 10115.5 44689.3 10093.3 44689.3 9988.05 44689.3 9924.33 44681 9893.86 44669.9 9846.77L44359.7 8614.03ZM44847.2 9816.3C44866.6 9891.09 44941.4 9968.66 44991.3 10010.2 45088.2 10096.1 45168.5 10115.5 45215.6 10115.5 45326.5 10115.5 45392.9 10018.5 45392.9 9855.08 45392.9 9691.64 45301.5 9373.06 45251.7 9267.8 45157.5 9073.89 45024.5 8982.47 44922 8982.47 44739.2 8982.47 44703.2 9212.39 44703.2 9229.02 44703.2 9234.56 44703.2 9240.09 44711.5 9273.34L44847.2 9816.3"/>
<path transform="matrix(.00359712,0,0,-.00359712,0,77)" d="M13014.1 3992.84C13055.7 3992.84 13108.3 3992.84 13108.3 4048.25 13108.3 4103.66 13055.7 4103.66 13016.9 4103.66H11357.5C11318.8 4103.66 11266.1 4103.66 11266.1 4048.25 11266.1 3992.84 11318.8 3992.84 11360.3 3992.84H13014.1ZM13016.9 3455.44C13055.7 3455.44 13108.3 3455.44 13108.3 3510.84 13108.3 3566.25 13055.7 3566.25 13014.1 3566.25H11360.3C11318.8 3566.25 11266.1 3566.25 11266.1 3510.84 11266.1 3455.44 11318.8 3455.44 11357.5 3455.44H13016.9"/>
<path transform="matrix(.00359712,0,0,-.00359712,0,77)" d="M15373.7 6691.38C15373.7 6746.77 15335 6791.09 15271.2 6791.09 15196.4 6791.09 15121.6 6719.06 15121.6 6644.28 15121.6 6591.64 15160.4 6544.55 15226.9 6544.55 15290.6 6544.55 15373.7 6608.27 15373.7 6691.38ZM15163.2 5649.78C15196.4 5730.11 15196.4 5735.66 15224.1 5810.45 15246.3 5865.84 15260.2 5904.64 15260.2 5957.27 15260.2 6081.92 15171.5 6184.42 15033 6184.42 14772.6 6184.42 14667.3 5782.75 14667.3 5757.81 14667.3 5730.11 14695 5730.11 14700.6 5730.11 14728.3 5730.11 14731 5735.66 14744.9 5779.97 14819.7 6040.38 14930.5 6123.48 15024.7 6123.48 15046.8 6123.48 15093.9 6123.48 15093.9 6034.83 15093.9 5976.66 15074.5 5918.48 15063.5 5890.78 15041.3 5818.77 14916.7 5497.42 14872.3 5378.3 14844.6 5306.28 14808.6 5214.86 14808.6 5156.69 14808.6 5026.48 14902.8 4929.53 15035.8 4929.53 15296.2 4929.53 15398.7 5331.2 15398.7 5356.14 15398.7 5383.84 15373.7 5383.84 15365.4 5383.84 15337.7 5383.84 15337.7 5375.53 15323.9 5333.97 15274 5159.45 15182.6 4990.47 15041.3 4990.47 14994.2 4990.47 14974.8 5018.17 14974.8 5081.89 14974.8 5151.14 14991.5 5189.92 15055.2 5358.91L15163.2 5649.78"/>
<path transform="matrix(.00359712,0,0,-.00359712,0,77)" stroke-width="110.783" stroke-linecap="butt" stroke-miterlimit="10" stroke-linejoin="miter" fill="none" stroke="#000000" d="M14366.8 3778.85H15760.4"/>
<path transform="matrix(.00359712,0,0,-.00359712,0,77)" d="M15587.1 2793.38C15601 2829.39 15601 2840.47 15601 2843.23 15601 2873.7 15576 2898.64 15545.6 2898.64 15526.2 2898.64 15506.8 2890.33 15498.5 2873.7L14537.2 233.719C14523.4 197.703 14523.4 186.625 14523.4 183.859 14523.4 153.391 14548.3 128.453 14578.8 128.453 14614.8 128.453 14623.1 147.844 14639.7 194.938L15587.1 2793.38"/>
<path transform="matrix(.00359712,0,0,-.00359712,0,77)" d="M14491.7 849.031C14469.5 754.844 14464 735.453 14342.1 735.453 14308.8 735.453 14278.4 735.453 14278.4 682.828 14278.4 660.672 14292.2 649.578 14314.4 649.578 14389.2 649.578 14469.5 657.891 14547.1 657.891 14638.5 657.891 14732.7 649.578 14821.3 649.578 14835.2 649.578 14871.2 649.578 14871.2 704.984 14871.2 735.453 14843.5 735.453 14804.7 735.453 14666.2 735.453 14666.2 754.844 14666.2 779.781 14666.2 813.031 14782.5 1264.56 14801.9 1333.81 14837.9 1253.48 14915.5 1156.53 15056.8 1156.53 15378.1 1156.53 15724.4 1560.97 15724.4 1968.19 15724.4 2228.59 15566.5 2411.42 15356 2411.42 15217.5 2411.42 15084.5 2311.7 14993.1 2203.66 14965.4 2353.25 14846.3 2411.42 14743.8 2411.42 14616.3 2411.42 14563.7 2303.39 14538.8 2253.52 14488.9 2159.33 14452.9 1993.13 14452.9 1984.81 14452.9 1957.11 14480.6 1957.11 14486.1 1957.11 14513.8 1957.11 14516.6 1959.88 14533.2 2020.83 14580.3 2217.52 14635.7 2350.48 14735.4 2350.48 14782.5 2350.48 14821.3 2328.31 14821.3 2223.05 14821.3 2159.33 14813 2128.86 14801.9 2081.77L14491.7 849.031ZM14979.2 2051.3C14998.6 2126.09 15073.4 2203.66 15123.3 2245.22 15220.2 2331.09 15300.5 2350.48 15347.6 2350.48 15458.5 2350.48 15524.9 2253.52 15524.9 2090.08 15524.9 1926.64 15433.5 1608.06 15383.7 1502.8 15289.5 1308.89 15156.5 1217.47 15054 1217.47 14871.2 1217.47 14835.2 1447.39 14835.2 1464.02 14835.2 1469.56 14835.2 1475.09 14843.5 1508.34L14979.2 2051.3"/>
<path transform="matrix(.00359712,0,0,-.00359712,0,77)" d="M17841 3724.14H18613.9C18652.7 3724.14 18705.3 3724.14 18705.3 3779.55 18705.3 3834.95 18652.7 3834.95 18613.9 3834.95H17841V4610.61C17841 4649.39 17841 4702.02 17785.6 4702.02 17730.2 4702.02 17730.2 4649.39 17730.2 4610.61V3834.95H16954.5C16915.8 3834.95 16863.1 3834.95 16863.1 3779.55 16863.1 3724.14 16915.8 3724.14 16954.5 3724.14H17730.2V2948.48C17730.2 2909.7 17730.2 2857.08 17785.6 2857.08 17841 2857.08 17841 2909.7 17841 2948.48V3724.14"/>
<path transform="matrix(.00359712,0,0,-.00359712,0,77)" d="M20816.7 6691.38C20816.7 6746.77 20778 6791.09 20714.2 6791.09 20639.4 6791.09 20564.6 6719.06 20564.6 6644.28 20564.6 6591.64 20603.4 6544.55 20669.9 6544.55 20733.6 6544.55 20816.7 6608.27 20816.7 6691.38ZM20606.2 5649.78C20639.4 5730.11 20639.4 5735.66 20667.1 5810.45 20689.3 5865.84 20703.2 5904.64 20703.2 5957.27 20703.2 6081.92 20614.5 6184.42 20476 6184.42 20215.6 6184.42 20110.3 5782.75 20110.3 5757.81 20110.3 5730.11 20138 5730.11 20143.6 5730.11 20171.3 5730.11 20174 5735.66 20187.9 5779.97 20262.7 6040.38 20373.5 6123.48 20467.7 6123.48 20489.8 6123.48 20536.9 6123.48 20536.9 6034.83 20536.9 5976.66 20517.5 5918.48 20506.5 5890.78 20484.3 5818.77 20359.7 5497.42 20315.3 5378.3 20287.6 5306.28 20251.6 5214.86 20251.6 5156.69 20251.6 5026.48 20345.8 4929.53 20478.8 4929.53 20739.2 4929.53 20841.7 5331.2 20841.7 5356.14 20841.7 5383.84 20816.7 5383.84 20808.4 5383.84 20780.7 5383.84 20780.7 5375.53 20766.9 5333.97 20717 5159.45 20625.6 4990.47 20484.3 4990.47 20437.2 4990.47 20417.8 5018.17 20417.8 5081.89 20417.8 5151.14 20434.5 5189.92 20498.2 5358.91L20606.2 5649.78"/>
<path transform="matrix(.00359712,0,0,-.00359712,0,77)" stroke-width="110.783" stroke-linecap="butt" stroke-miterlimit="10" stroke-linejoin="miter" fill="none" stroke="#000000" d="M19810 3778.85H21203.6"/>
<path transform="matrix(.00359712,0,0,-.00359712,0,77)" d="M21030.1 2793.38C21044 2829.39 21044 2840.47 21044 2843.23 21044 2873.7 21019 2898.64 20988.6 2898.64 20969.2 2898.64 20949.8 2890.33 20941.5 2873.7L19980.2 233.719C19966.4 197.703 19966.4 186.625 19966.4 183.859 19966.4 153.391 19991.3 128.453 20021.8 128.453 20057.8 128.453 20066.1 147.844 20082.7 194.938L21030.1 2793.38"/>
<path transform="matrix(.00359712,0,0,-.00359712,0,77)" d="M19934.7 849.031C19912.5 754.844 19907 735.453 19785.1 735.453 19751.8 735.453 19721.4 735.453 19721.4 682.828 19721.4 660.672 19735.2 649.578 19757.4 649.578 19832.2 649.578 19912.5 657.891 19990.1 657.891 20081.5 657.891 20175.7 649.578 20264.3 649.578 20278.2 649.578 20314.2 649.578 20314.2 704.984 20314.2 735.453 20286.5 735.453 20247.7 735.453 20109.2 735.453 20109.2 754.844 20109.2 779.781 20109.2 813.031 20225.5 1264.56 20244.9 1333.81 20280.9 1253.48 20358.5 1156.53 20499.8 1156.53 20821.1 1156.53 21167.4 1560.97 21167.4 1968.19 21167.4 2228.59 21009.5 2411.42 20799 2411.42 20660.5 2411.42 20527.5 2311.7 20436.1 2203.66 20408.4 2353.25 20289.3 2411.42 20186.8 2411.42 20059.3 2411.42 20006.7 2303.39 19981.8 2253.52 19931.9 2159.33 19895.9 1993.13 19895.9 1984.81 19895.9 1957.11 19923.6 1957.11 19929.1 1957.11 19956.8 1957.11 19959.6 1959.88 19976.2 2020.83 20023.3 2217.52 20078.7 2350.48 20178.4 2350.48 20225.5 2350.48 20264.3 2328.31 20264.3 2223.05 20264.3 2159.33 20256 2128.86 20244.9 2081.77L19934.7 849.031ZM20422.2 2051.3C20441.6 2126.09 20516.4 2203.66 20566.3 2245.22 20663.2 2331.09 20743.5 2350.48 20790.6 2350.48 20901.5 2350.48 20967.9 2253.52 20967.9 2090.08 20967.9 1926.64 20876.5 1608.06 20826.7 1502.8 20732.5 1308.89 20599.5 1217.47 20497 1217.47 20314.2 1217.47 20278.2 1447.39 20278.2 1464.02 20278.2 1469.56 20278.2 1475.09 20286.5 1508.34L20422.2 2051.3"/>
<path transform="matrix(.00359712,0,0,-.00359712,0,77)" d="M22242.4 2394.45V2505.27H21973.7V5053.83H22242.4V5164.64H21862.9V2394.45H22242.4"/>
<path transform="matrix(.00359712,0,0,-.00359712,0,77)" d="M24130.5 3724.14C24177.6 3724.14 24227.5 3724.14 24227.5 3779.55 24227.5 3834.95 24177.6 3834.95 24130.5 3834.95H22631.9C22584.8 3834.95 22534.9 3834.95 22534.9 3779.55 22534.9 3724.14 22584.8 3724.14 22631.9 3724.14H24130.5"/>
<path transform="matrix(.00359712,0,0,-.00359712,0,77)" d="M25246.7 4818.38C25246.7 4873.77 25208 4918.09 25144.2 4918.09 25069.4 4918.09 24994.6 4846.06 24994.6 4771.28 24994.6 4718.64 25033.4 4671.55 25099.9 4671.55 25163.6 4671.55 25246.7 4735.27 25246.7 4818.38ZM25036.2 3776.78C25069.4 3857.11 25069.4 3862.66 25097.1 3937.45 25119.3 3992.84 25133.2 4031.64 25133.2 4084.27 25133.2 4208.92 25044.5 4311.42 24906 4311.42 24645.6 4311.42 24540.3 3909.75 24540.3 3884.81 24540.3 3857.11 24568 3857.11 24573.6 3857.11 24601.3 3857.11 24604 3862.66 24617.9 3906.97 24692.7 4167.38 24803.5 4250.48 24897.7 4250.48 24919.8 4250.48 24966.9 4250.48 24966.9 4161.83 24966.9 4103.66 24947.5 4045.48 24936.5 4017.78 24914.3 3945.77 24789.7 3624.42 24745.3 3505.3 24717.6 3433.28 24681.6 3341.86 24681.6 3283.69 24681.6 3153.48 24775.8 3056.53 24908.8 3056.53 25169.2 3056.53 25271.7 3458.2 25271.7 3483.14 25271.7 3510.84 25246.7 3510.84 25238.4 3510.84 25210.7 3510.84 25210.7 3502.53 25196.9 3460.97 25147 3286.45 25055.6 3117.47 24914.3 3117.47 24867.2 3117.47 24847.8 3145.17 24847.8 3208.89 24847.8 3278.14 24864.5 3316.92 24928.2 3485.91L25036.2 3776.78"/>
<path transform="matrix(.00359712,0,0,-.00359712,0,77)" d="M26444.5 3990.08C26469.4 4017.78 26469.4 4028.86 26469.4 4034.41 26469.4 4048.25 26458.4 4062.11 26450 4073.19L25882.2 4893.16H26522.1C26990.2 4893.16 27128.8 4793.44 27186.9 4355.75H27256.2L27178.6 4979.03H25641.2C25574.7 4979.03 25569.1 4979.03 25569.1 4915.33L26258.9 3912.52 25599.6 3161.8C25571.9 3131.33 25571.9 3125.78 25571.9 3117.47 25571.9 3087 25599.6 3087 25641.2 3087H27178.6L27256.2 3740.77H27186.9C27137.1 3278.14 26948.7 3203.34 26513.8 3203.34H25749.2L26444.5 3990.08"/>
<path transform="matrix(.00359712,0,0,-.00359712,0,77)" d="M28393 3023.84H28327.1C28321.3 2981.19 28301.9 2866.81 28276.7 2847.42 28261.2 2835.8 28111.9 2835.8 28084.8 2835.8H27728.1C27931.6 3016.09 27999.5 3070.38 28115.8 3161.48 28259.3 3275.88 28393 3396.08 28393 3580.25 28393 3814.83 28187.5 3958.3 27939.4 3958.3 27699 3958.3 27536.1 3789.63 27536.1 3611.27 27536.1 3512.39 27619.5 3502.7 27638.9 3502.7 27685.4 3502.7 27741.6 3535.66 27741.6 3605.45 27741.6 3640.34 27728.1 3708.2 27627.3 3708.2 27687.4 3845.86 27819.2 3888.5 27910.3 3888.5 28104.2 3888.5 28205 3737.28 28205 3580.25 28205 3411.58 28084.8 3277.81 28022.8 3208.02L27555.5 2746.61C27536.1 2729.16 27536.1 2725.28 27536.1 2671H28334.9L28393 3023.84"/>
<path transform="matrix(.00359712,0,0,-.00359712,0,77)" d="M29096.5 5164.64H28716.9V5053.83H28985.7V2505.27H28716.9V2394.45H29096.5V5164.64"/>
<path transform="matrix(.00359712,0,0,-.00359712,0,77)" d="M30764.7 6691.38C30764.7 6746.77 30726 6791.09 30662.2 6791.09 30587.4 6791.09 30512.6 6719.06 30512.6 6644.28 30512.6 6591.64 30551.4 6544.55 30617.9 6544.55 30681.6 6544.55 30764.7 6608.27 30764.7 6691.38ZM30554.2 5649.78C30587.4 5730.11 30587.4 5735.66 30615.1 5810.45 30637.3 5865.84 30651.2 5904.64 30651.2 5957.27 30651.2 6081.92 30562.5 6184.42 30424 6184.42 30163.6 6184.42 30058.3 5782.75 30058.3 5757.81 30058.3 5730.11 30086 5730.11 30091.6 5730.11 30119.3 5730.11 30122 5735.66 30135.9 5779.97 30210.7 6040.38 30321.5 6123.48 30415.7 6123.48 30437.8 6123.48 30484.9 6123.48 30484.9 6034.83 30484.9 5976.66 30465.5 5918.48 30454.5 5890.78 30432.3 5818.77 30307.7 5497.42 30263.3 5378.3 30235.6 5306.28 30199.6 5214.86 30199.6 5156.69 30199.6 5026.48 30293.8 4929.53 30426.8 4929.53 30687.2 4929.53 30789.7 5331.2 30789.7 5356.14 30789.7 5383.84 30764.7 5383.84 30756.4 5383.84 30728.7 5383.84 30728.7 5375.53 30714.9 5333.97 30665 5159.45 30573.6 4990.47 30432.3 4990.47 30385.2 4990.47 30365.8 5018.17 30365.8 5081.89 30365.8 5151.14 30382.5 5189.92 30446.2 5358.91L30554.2 5649.78"/>
<path transform="matrix(.00359712,0,0,-.00359712,0,77)" stroke-width="110.783" stroke-linecap="butt" stroke-miterlimit="10" stroke-linejoin="miter" fill="none" stroke="#000000" d="M29758 3778.85H31151.6"/>
<path transform="matrix(.00359712,0,0,-.00359712,0,77)" d="M30978.1 2793.38C30992 2829.39 30992 2840.47 30992 2843.23 30992 2873.7 30967 2898.64 30936.6 2898.64 30917.2 2898.64 30897.8 2890.33 30889.5 2873.7L29928.2 233.719C29914.4 197.703 29914.4 186.625 29914.4 183.859 29914.4 153.391 29939.3 128.453 29969.8 128.453 30005.8 128.453 30014.1 147.844 30030.7 194.938L30978.1 2793.38"/>
<path transform="matrix(.00359712,0,0,-.00359712,0,77)" d="M29882.7 849.031C29860.5 754.844 29855 735.453 29733.1 735.453 29699.8 735.453 29669.4 735.453 29669.4 682.828 29669.4 660.672 29683.2 649.578 29705.4 649.578 29780.2 649.578 29860.5 657.891 29938.1 657.891 30029.5 657.891 30123.7 649.578 30212.3 649.578 30226.2 649.578 30262.2 649.578 30262.2 704.984 30262.2 735.453 30234.5 735.453 30195.7 735.453 30057.2 735.453 30057.2 754.844 30057.2 779.781 30057.2 813.031 30173.5 1264.56 30192.9 1333.81 30228.9 1253.48 30306.5 1156.53 30447.8 1156.53 30769.1 1156.53 31115.4 1560.97 31115.4 1968.19 31115.4 2228.59 30957.5 2411.42 30747 2411.42 30608.5 2411.42 30475.5 2311.7 30384.1 2203.66 30356.4 2353.25 30237.3 2411.42 30134.8 2411.42 30007.3 2411.42 29954.7 2303.39 29929.8 2253.52 29879.9 2159.33 29843.9 1993.13 29843.9 1984.81 29843.9 1957.11 29871.6 1957.11 29877.1 1957.11 29904.8 1957.11 29907.6 1959.88 29924.2 2020.83 29971.3 2217.52 30026.7 2350.48 30126.4 2350.48 30173.5 2350.48 30212.3 2328.31 30212.3 2223.05 30212.3 2159.33 30204 2128.86 30192.9 2081.77L29882.7 849.031ZM30370.2 2051.3C30389.6 2126.09 30464.4 2203.66 30514.3 2245.22 30611.2 2331.09 30691.5 2350.48 30738.6 2350.48 30849.5 2350.48 30915.9 2253.52 30915.9 2090.08 30915.9 1926.64 30824.5 1608.06 30774.7 1502.8 30680.5 1308.89 30547.5 1217.47 30445 1217.47 30262.2 1217.47 30226.2 1447.39 30226.2 1464.02 30226.2 1469.56 30226.2 1475.09 30234.5 1508.34L30370.2 2051.3"/>
<path transform="matrix(.00359712,0,0,-.00359712,0,77)" d="M33924.5 3724.14C33971.6 3724.14 34021.5 3724.14 34021.5 3779.55 34021.5 3834.95 33971.6 3834.95 33924.5 3834.95H32425.9C32378.8 3834.95 32328.9 3834.95 32328.9 3779.55 32328.9 3724.14 32378.8 3724.14 32425.9 3724.14H33924.5"/>
<path transform="matrix(.00359712,0,0,-.00359712,0,77)" d="M36207.7 6691.38C36207.7 6746.77 36169 6791.09 36105.2 6791.09 36030.4 6791.09 35955.6 6719.06 35955.6 6644.28 35955.6 6591.64 35994.4 6544.55 36060.9 6544.55 36124.6 6544.55 36207.7 6608.27 36207.7 6691.38ZM35997.2 5649.78C36030.4 5730.11 36030.4 5735.66 36058.1 5810.45 36080.3 5865.84 36094.2 5904.64 36094.2 5957.27 36094.2 6081.92 36005.5 6184.42 35867 6184.42 35606.6 6184.42 35501.3 5782.75 35501.3 5757.81 35501.3 5730.11 35529 5730.11 35534.6 5730.11 35562.3 5730.11 35565 5735.66 35578.9 5779.97 35653.7 6040.38 35764.5 6123.48 35858.7 6123.48 35880.8 6123.48 35927.9 6123.48 35927.9 6034.83 35927.9 5976.66 35908.5 5918.48 35897.5 5890.78 35875.3 5818.77 35750.7 5497.42 35706.3 5378.3 35678.6 5306.28 35642.6 5214.86 35642.6 5156.69 35642.6 5026.48 35736.8 4929.53 35869.8 4929.53 36130.2 4929.53 36232.7 5331.2 36232.7 5356.14 36232.7 5383.84 36207.7 5383.84 36199.4 5383.84 36171.7 5383.84 36171.7 5375.53 36157.9 5333.97 36108 5159.45 36016.6 4990.47 35875.3 4990.47 35828.2 4990.47 35808.8 5018.17 35808.8 5081.89 35808.8 5151.14 35825.5 5189.92 35889.2 5358.91L35997.2 5649.78"/>
<path transform="matrix(.00359712,0,0,-.00359712,0,77)" stroke-width="110.783" stroke-linecap="butt" stroke-miterlimit="10" stroke-linejoin="miter" fill="none" stroke="#000000" d="M35201.2 3778.85H36594.8"/>
<path transform="matrix(.00359712,0,0,-.00359712,0,77)" d="M36422.1 2793.38C36436 2829.39 36436 2840.47 36436 2843.23 36436 2873.7 36411 2898.64 36380.6 2898.64 36361.2 2898.64 36341.8 2890.33 36333.5 2873.7L35372.2 233.719C35358.4 197.703 35358.4 186.625 35358.4 183.859 35358.4 153.391 35383.3 128.453 35413.8 128.453 35449.8 128.453 35458.1 147.844 35474.7 194.938L36422.1 2793.38"/>
<path transform="matrix(.00359712,0,0,-.00359712,0,77)" d="M35325.7 849.031C35303.5 754.844 35298 735.453 35176.1 735.453 35142.8 735.453 35112.4 735.453 35112.4 682.828 35112.4 660.672 35126.2 649.578 35148.4 649.578 35223.2 649.578 35303.5 657.891 35381.1 657.891 35472.5 657.891 35566.7 649.578 35655.3 649.578 35669.2 649.578 35705.2 649.578 35705.2 704.984 35705.2 735.453 35677.5 735.453 35638.7 735.453 35500.2 735.453 35500.2 754.844 35500.2 779.781 35500.2 813.031 35616.5 1264.56 35635.9 1333.81 35671.9 1253.48 35749.5 1156.53 35890.8 1156.53 36212.1 1156.53 36558.4 1560.97 36558.4 1968.19 36558.4 2228.59 36400.5 2411.42 36190 2411.42 36051.5 2411.42 35918.5 2311.7 35827.1 2203.66 35799.4 2353.25 35680.3 2411.42 35577.8 2411.42 35450.3 2411.42 35397.7 2303.39 35372.8 2253.52 35322.9 2159.33 35286.9 1993.13 35286.9 1984.81 35286.9 1957.11 35314.6 1957.11 35320.1 1957.11 35347.8 1957.11 35350.6 1959.88 35367.2 2020.83 35414.3 2217.52 35469.7 2350.48 35569.4 2350.48 35616.5 2350.48 35655.3 2328.31 35655.3 2223.05 35655.3 2159.33 35647 2128.86 35635.9 2081.77L35325.7 849.031ZM35813.2 2051.3C35832.6 2126.09 35907.4 2203.66 35957.3 2245.22 36054.2 2331.09 36134.5 2350.48 36181.6 2350.48 36292.5 2350.48 36358.9 2253.52 36358.9 2090.08 36358.9 1926.64 36267.5 1608.06 36217.7 1502.8 36123.5 1308.89 35990.5 1217.47 35888 1217.47 35705.2 1217.47 35669.2 1447.39 35669.2 1464.02 35669.2 1469.56 35669.2 1475.09 35677.5 1508.34L35813.2 2051.3"/>
<path transform="matrix(.00359712,0,0,-.00359712,0,77)" d="M37658.3 4297.58C37312.1 4214.47 37043.3 3854.34 37043.3 3519.16 37043.3 3253.22 37220.6 3053.75 37481 3053.75 37805.2 3053.75 38035.1 3488.67 38035.1 3870.97 38035.1 4123.05 37924.3 4261.56 37830.1 4386.22 37730.4 4510.88 37566.9 4718.64 37566.9 4840.53 37566.9 4901.47 37622.3 4967.95 37719.3 4967.95 37802.4 4967.95 37857.8 4931.94 37916 4893.16 37971.4 4859.92 38026.8 4823.91 38068.3 4823.91 38137.6 4823.91 38179.1 4890.39 38179.1 4934.72 38179.1 4995.66 38134.8 5003.97 38035.1 5026.13 37891 5056.61 37852.3 5056.61 37807.9 5056.61 37591.8 5056.61 37492.1 4937.48 37492.1 4771.28 37492.1 4621.69 37572.5 4466.55 37658.3 4297.58ZM37691.6 4236.63C37760.8 4109.2 37843.9 3959.61 37843.9 3760.16 37843.9 3577.33 37738.7 3114.7 37481 3114.7 37328.7 3114.7 37215.1 3231.05 37215.1 3441.58 37215.1 3616.11 37317.6 4136.91 37691.6 4236.63"/>
<path transform="matrix(.00359712,0,0,-.00359712,0,77)" d="M39137 3023.84H39071.1C39065.3 2981.19 39045.9 2866.81 39020.7 2847.42 39005.2 2835.8 38855.9 2835.8 38828.8 2835.8H38472.1C38675.6 3016.09 38743.5 3070.38 38859.8 3161.48 39003.3 3275.88 39137 3396.08 39137 3580.25 39137 3814.83 38931.5 3958.3 38683.4 3958.3 38443 3958.3 38280.1 3789.63 38280.1 3611.27 38280.1 3512.39 38363.5 3502.7 38382.9 3502.7 38429.4 3502.7 38485.6 3535.66 38485.6 3605.45 38485.6 3640.34 38472.1 3708.2 38371.3 3708.2 38431.4 3845.86 38563.2 3888.5 38654.3 3888.5 38848.2 3888.5 38949 3737.28 38949 3580.25 38949 3411.58 38828.8 3277.81 38766.8 3208.02L38299.5 2746.61C38280.1 2729.16 38280.1 2725.28 38280.1 2671H39078.9L39137 3023.84"/>
<path transform="matrix(.00359712,0,0,-.00359712,0,77)" d="M39931.9 3233.81C39931.9 3314.16 39865.4 3380.64 39785.1 3380.64 39704.7 3380.64 39638.2 3314.16 39638.2 3233.81 39638.2 3153.48 39704.7 3087 39785.1 3087 39865.4 3087 39931.9 3153.48 39931.9 3233.81"/>
</svg>
