<svg xmlns="http://www.w3.org/2000/svg" xmlns:xlink="http://www.w3.org/1999/xlink" version="1.1" width="241pt" height="123pt" viewBox="0 0 241 123">
<path transform="matrix(.00359712,0,0,-.00359712,0,123)" stroke-width="110.783" stroke-linecap="butt" stroke-miterlimit="10" stroke-linejoin="miter" fill="none" stroke="#000000" d="M8909.64 21089.9H13987.119V24859.5H8909.64Z"/>
<path transform="matrix(.00359712,0,0,-.00359712,0,123)" d="M10143.3 22711.1C10159.9 23123.8 10392.6 23193.1 10486.8 23193.1 10772.1 23193.1 10799.8 22819.1 10799.8 22711.1H10143.3ZM10140.5 22652.9H10913.4C10974.3 22652.9 10982.6 22652.9 10982.6 22711.1 10982.6 22985.3 10833 23254 10486.8 23254 10165.4 23254 9910.56 22968.7 9910.56 22622.4 9910.56 22251.2 10201.4 21982.5 10520 21982.5 10858 21982.5 10982.6 22290 10982.6 22342.7 10982.6 22370.4 10960.5 22375.9 10946.6 22375.9 10921.7 22375.9 10916.1 22359.3 10910.6 22337.1 10813.6 22051.8 10564.3 22051.8 10536.6 22051.8 10398.1 22051.8 10287.3 22134.9 10223.6 22237.4 10140.5 22370.4 10140.5 22553.2 10140.5 22652.9"/>
<path transform="matrix(.00359712,0,0,-.00359712,0,123)" d="M11553.3 23935.5 11154.4 23905V23819.2C11348.3 23819.2 11370.5 23799.8 11370.5 23664V22223.5C11370.5 22098.9 11340 22098.9 11154.4 22098.9V22013C11245.8 22015.8 11392.7 22021.3 11461.9 22021.3 11531.2 22021.3 11666.9 22015.8 11769.4 22013V22098.9C11583.8 22098.9 11553.3 22098.9 11553.3 22223.5V23935.5"/>
<path transform="matrix(.00359712,0,0,-.00359712,0,123)" d="M12154.1 22616.9C12154.1 23068.4 12381.3 23184.8 12528.1 23184.8 12553 23184.8 12727.5 23182 12824.5 23082.3 12710.9 23074 12694.3 22990.9 12694.3 22954.9 12694.3 22882.8 12744.2 22827.4 12821.7 22827.4 12893.8 22827.4 12949.2 22874.5 12949.2 22957.6 12949.2 23146 12738.6 23254 12525.3 23254 12179 23254 11924.2 22954.9 11924.2 22611.4 11924.2 22256.8 12198.4 21982.5 12519.8 21982.5 12891 21982.5 12979.6 22315 12979.6 22342.7 12979.6 22370.4 12951.9 22370.4 12943.6 22370.4 12918.7 22370.4 12913.1 22359.3 12907.6 22342.7 12827.3 22085 12647.2 22051.8 12544.7 22051.8 12397.9 22051.8 12154.1 22170.9 12154.1 22616.9"/>
<path transform="matrix(.00359712,0,0,-.00359712,0,123)" stroke-width="110.783" stroke-linecap="butt" stroke-miterlimit="10" stroke-linejoin="miter" fill="none" stroke="#000000" d="M5876.09 28547 303.793 34119.3"/>
<path transform="matrix(.00359712,0,0,-.00359712,0,123)" stroke-width="110.783" stroke-linecap="butt" stroke-miterlimit="10" stroke-linejoin="miter" fill="none" stroke="#000000" d="M5876.09 28547 11448.4 34119.3"/>
<path transform="matrix(.00359712,0,0,-.00359712,0,123)" stroke-width="110.783" stroke-linecap="butt" stroke-miterlimit="10" stroke-linejoin="miter" fill="none" stroke="#000000" d="M303.793 22974.7 5876.09 28547"/>
<path transform="matrix(.00359712,0,0,-.00359712,0,123)" stroke-width="110.783" stroke-linecap="butt" stroke-miterlimit="10" stroke-linejoin="miter" fill="none" stroke="#000000" d="M17020.7 17402.4 13388.3 21034.5"/>
<path transform="matrix(.00359712,0,0,-.00359712,0,123)" d="M14480.5 19942.3 15240.3 18108.5 16314.4 19182.8"/>
<path transform="matrix(.00359712,0,0,-.00359712,0,123)" d="M12034.7 16710C12012.5 16615.8 12007 16596.5 11885.1 16596.5 11851.8 16596.5 11821.4 16596.5 11821.4 16543.8 11821.4 16521.7 11835.2 16510.6 11857.4 16510.6 11932.2 16510.6 12012.5 16518.9 12090.1 16518.9 12181.5 16518.9 12275.7 16510.6 12364.3 16510.6 12378.2 16510.6 12414.2 16510.6 12414.2 16566 12414.2 16596.5 12386.5 16596.5 12347.7 16596.5 12209.2 16596.5 12209.2 16615.8 12209.2 16640.8 12209.2 16674 12325.5 17125.6 12344.9 17194.8 12380.9 17114.5 12458.5 17017.5 12599.8 17017.5 12921.1 17017.5 13267.4 17422 13267.4 17829.2 13267.4 18089.6 13109.5 18272.4 12899 18272.4 12760.5 18272.4 12627.5 18172.7 12536.1 18064.7 12508.4 18214.3 12389.3 18272.4 12286.8 18272.4 12159.3 18272.4 12106.7 18164.4 12081.8 18114.5 12031.9 18020.3 11995.9 17854.1 11995.9 17845.8 11995.9 17818.1 12023.6 17818.1 12029.1 17818.1 12056.8 17818.1 12059.6 17820.9 12076.2 17881.8 12123.3 18078.5 12178.7 18211.5 12278.4 18211.5 12325.5 18211.5 12364.3 18189.3 12364.3 18084 12364.3 18020.3 12356 17989.9 12344.9 17942.8L12034.7 16710ZM12522.2 17912.3C12541.6 17987.1 12616.4 18064.7 12666.3 18106.2 12763.2 18192.1 12843.5 18211.5 12890.6 18211.5 13001.5 18211.5 13067.9 18114.5 13067.9 17951.1 13067.9 17787.6 12976.5 17469.1 12926.7 17363.8 12832.5 17169.9 12699.5 17078.5 12597 17078.5 12414.2 17078.5 12378.2 17308.4 12378.2 17325 12378.2 17330.6 12378.2 17336.1 12386.5 17369.3L12522.2 17912.3"/>
<path transform="matrix(.00359712,0,0,-.00359712,0,123)" d="M13932.1 17843.7C13932.1 17874.7 13908.9 17917.4 13854.6 17917.4 13802.3 17917.4 13746 17867 13746 17810.7 13746 17777.8 13771.2 17737.1 13823.6 17737.1 13879.8 17737.1 13932.1 17791.3 13932.1 17843.7ZM13536.6 16858.8C13528.9 16833.6 13519.2 16810.4 13519.2 16777.4 13519.2 16686.3 13596.8 16612.6 13703.4 16612.6 13897.3 16612.6 13982.5 16880.2 13982.5 16909.2 13982.5 16934.4 13957.3 16934.4 13951.5 16934.4 13924.4 16934.4 13922.5 16922.8 13914.7 16901.5 13870.1 16746.4 13784.8 16666.9 13709.2 16666.9 13670.4 16666.9 13660.7 16692.1 13660.7 16734.8 13660.7 16779.3 13674.3 16816.2 13691.7 16858.8 13711.1 16911.2 13732.5 16963.5 13753.8 17013.9 13771.2 17060.5 13841 17236.9 13848.8 17260.1 13854.6 17279.5 13860.4 17302.8 13860.4 17322.2 13860.4 17413.3 13782.9 17487 13676.2 17487 13484.3 17487 13395.1 17223.3 13395.1 17190.3 13395.1 17165.1 13422.3 17165.1 13428.1 17165.1 13455.2 17165.1 13457.2 17174.8 13463 17196.2 13513.4 17362.9 13598.7 17432.7 13670.4 17432.7 13701.4 17432.7 13718.9 17417.2 13718.9 17364.8 13718.9 17320.2 13707.3 17291.2 13658.8 17171L13536.6 16858.8"/>
<path transform="matrix(.00359712,0,0,-.00359712,0,123)" stroke-width="110.783" stroke-linecap="butt" stroke-miterlimit="10" stroke-linejoin="miter" fill="none" stroke="#000000" d="M9508.43 24914.9 5876.09 28547"/>
<path transform="matrix(.00359712,0,0,-.00359712,0,123)" d="M20671.1 25093.8C20712.7 25093.8 20765.3 25093.8 20765.3 25149.3 20765.3 25204.7 20712.7 25204.7 20673.9 25204.7H19014.5C18975.8 25204.7 18923.1 25204.7 18923.1 25149.3 18923.1 25093.8 18975.8 25093.8 19017.3 25093.8H20671.1ZM20673.9 24556.4C20712.7 24556.4 20765.3 24556.4 20765.3 24611.8 20765.3 24667.3 20712.7 24667.3 20671.1 24667.3H19017.3C18975.8 24667.3 18923.1 24667.3 18923.1 24611.8 18923.1 24556.4 18975.8 24556.4 19014.5 24556.4H20673.9"/>
<path transform="matrix(.00359712,0,0,-.00359712,0,123)" stroke-width="110.783" stroke-linecap="butt" stroke-miterlimit="10" stroke-linejoin="miter" fill="none" stroke="#000000" d="M28242.6 23629.2 22670.3 29201.5"/>
<path transform="matrix(.00359712,0,0,-.00359712,0,123)" stroke-width="110.783" stroke-linecap="butt" stroke-miterlimit="10" stroke-linejoin="miter" fill="none" stroke="#000000" d="M28242.6 23629.2 33814.9 29201.5"/>
<path transform="matrix(.00359712,0,0,-.00359712,0,123)" stroke-width="110.783" stroke-linecap="butt" stroke-miterlimit="10" stroke-linejoin="miter" fill="none" stroke="#000000" d="M22670.3 18056.9 28242.6 23629.2"/>
<path transform="matrix(.00359712,0,0,-.00359712,0,123)" stroke-width="110.783" stroke-linecap="butt" stroke-miterlimit="10" stroke-linejoin="miter" fill="none" stroke="#000000" d="M33814.9 18056.9 31585.9 20285.9"/>
<path transform="matrix(.00359712,0,0,-.00359712,0,123)" stroke-width="110.783" stroke-linecap="butt" stroke-miterlimit="10" stroke-linejoin="miter" fill="none" stroke="#000000" d="M31585.9 20285.9 28242.6 23629.2"/>
<path transform="matrix(.00359712,0,0,-.00359712,0,123)" stroke-width="110.783" stroke-linecap="butt" stroke-miterlimit="10" stroke-linejoin="miter" fill="none" stroke="#000000" d="M31585.9 20285.9C43003.7 23345.3 34645.3 31703.7 31585.9 20285.9"/>
<path transform="matrix(.00359712,0,0,-.00359712,0,123)" d="M45731 24825.1H46503.9C46542.7 24825.1 46595.3 24825.1 46595.3 24880.5 46595.3 24936 46542.7 24936 46503.9 24936H45731V25711.6C45731 25750.4 45731 25803 45675.6 25803 45620.2 25803 45620.2 25750.4 45620.2 25711.6V24936H44844.5C44805.8 24936 44753.1 24936 44753.1 24880.5 44753.1 24825.1 44805.8 24825.1 44844.5 24825.1H45620.2V24049.5C45620.2 24010.7 45620.2 23958.1 45675.6 23958.1 45731 23958.1 45731 24010.7 45731 24049.5V24825.1"/>
<path transform="matrix(.00359712,0,0,-.00359712,0,123)" stroke-width="110.783" stroke-linecap="butt" stroke-miterlimit="10" stroke-linejoin="miter" fill="none" stroke="#000000" d="M58443.5 21536.9C58443.5 22189.7 57914.2 22718.9 57261.4 22718.9 56608.6 22718.9 56079.3 22189.7 56079.3 21536.9 56079.3 20884 56608.6 20354.8 57261.4 20354.8 57914.2 20354.8 58443.5 20884 58443.5 21536.9ZM57261.4 21536.9"/>
<path transform="matrix(.00359712,0,0,-.00359712,0,123)" stroke-width="110.783" stroke-linecap="butt" stroke-miterlimit="10" stroke-linejoin="miter" fill="none" stroke="#000000" d="M56425.6 20701 58097.2 22372.7M56425.6 22372.7 58097.2 20701"/>
<path transform="matrix(.00359712,0,0,-.00359712,0,123)" stroke-width="110.783" stroke-linecap="butt" stroke-miterlimit="10" stroke-linejoin="miter" fill="none" stroke="#000000" d="M53918.1 24880.2 48345.8 30452.5"/>
<path transform="matrix(.00359712,0,0,-.00359712,0,123)" stroke-width="110.783" stroke-linecap="butt" stroke-miterlimit="10" stroke-linejoin="miter" fill="none" stroke="#000000" d="M53918.1 24880.2 59490.4 30452.5"/>
<path transform="matrix(.00359712,0,0,-.00359712,0,123)" stroke-width="110.783" stroke-linecap="butt" stroke-miterlimit="10" stroke-linejoin="miter" fill="none" stroke="#000000" d="M48345.8 19307.9 53918.1 24880.2"/>
<path transform="matrix(.00359712,0,0,-.00359712,0,123)" stroke-width="110.783" stroke-linecap="butt" stroke-miterlimit="10" stroke-linejoin="miter" fill="none" stroke="#000000" d="M59490.4 19307.9 58097.2 20701"/>
<path transform="matrix(.00359712,0,0,-.00359712,0,123)" stroke-width="110.783" stroke-linecap="butt" stroke-miterlimit="10" stroke-linejoin="miter" fill="none" stroke="#000000" d="M56425.6 22372.7 53918.1 24880.2"/>
<path transform="matrix(.00359712,0,0,-.00359712,0,123)" d="M20671.1 11255.8C20712.7 11255.8 20765.3 11255.8 20765.3 11311.3 20765.3 11366.7 20712.7 11366.7 20673.9 11366.7H19014.5C18975.8 11366.7 18923.1 11366.7 18923.1 11311.3 18923.1 11255.8 18975.8 11255.8 19017.3 11255.8H20671.1ZM20673.9 10718.4C20712.7 10718.4 20765.3 10718.4 20765.3 10773.8 20765.3 10829.3 20712.7 10829.3 20671.1 10829.3H19017.3C18975.8 10829.3 18923.1 10829.3 18923.1 10773.8 18923.1 10718.4 18975.8 10718.4 19014.5 10718.4H20673.9"/>
<path transform="matrix(.00359712,0,0,-.00359712,0,123)" d="M22603.9 9685.16C22603.9 9693.47 22603.9 9699 22556.8 9746.09 22210.6 10095.1 22121.9 10618.7 22121.9 11042.5 22121.9 11524.6 22227.2 12006.6 22567.9 12352.8 22603.9 12386.1 22603.9 12391.6 22603.9 12399.9 22603.9 12419.3 22592.8 12427.6 22576.2 12427.6 22548.5 12427.6 22299.2 12239.3 22135.8 11887.5 21994.5 11582.7 21961.3 11275.3 21961.3 11042.5 21961.3 10826.5 21991.7 10491.3 22144.1 10178.3 22310.3 9837.52 22548.5 9657.45 22576.2 9657.45 22592.8 9657.45 22603.9 9665.77 22603.9 9685.16"/>
<path transform="matrix(.00359712,0,0,-.00359712,0,123)" d="M24594.5 10987.1C24641.6 10987.1 24691.5 10987.1 24691.5 11042.5 24691.5 11098 24641.6 11098 24594.5 11098H23095.9C23048.8 11098 22998.9 11098 22998.9 11042.5 22998.9 10987.1 23048.8 10987.1 23095.9 10987.1H24594.5"/>
<path transform="matrix(.00359712,0,0,-.00359712,0,123)" d="M25709.7 12081.4C25709.7 12136.8 25671 12181.1 25607.2 12181.1 25532.4 12181.1 25457.6 12109.1 25457.6 12034.3 25457.6 11981.6 25496.4 11934.5 25562.9 11934.5 25626.6 11934.5 25709.7 11998.3 25709.7 12081.4ZM25499.2 11039.8C25532.4 11120.1 25532.4 11125.7 25560.1 11200.5 25582.3 11255.8 25596.2 11294.6 25596.2 11347.3 25596.2 11471.9 25507.5 11574.4 25369 11574.4 25108.6 11574.4 25003.3 11172.8 25003.3 11147.8 25003.3 11120.1 25031 11120.1 25036.6 11120.1 25064.3 11120.1 25067 11125.7 25080.9 11170 25155.7 11430.4 25266.5 11513.5 25360.7 11513.5 25382.8 11513.5 25429.9 11513.5 25429.9 11424.8 25429.9 11366.7 25410.5 11308.5 25399.5 11280.8 25377.3 11208.8 25252.7 10887.4 25208.3 10768.3 25180.6 10696.3 25144.6 10604.9 25144.6 10546.7 25144.6 10416.5 25238.8 10319.5 25371.8 10319.5 25632.2 10319.5 25734.7 10721.2 25734.7 10746.1 25734.7 10773.8 25709.7 10773.8 25701.4 10773.8 25673.7 10773.8 25673.7 10765.5 25659.9 10724 25610 10549.5 25518.6 10380.5 25377.3 10380.5 25330.2 10380.5 25310.8 10408.2 25310.8 10471.9 25310.8 10541.1 25327.5 10579.9 25391.2 10748.9L25499.2 11039.8"/>
<path transform="matrix(.00359712,0,0,-.00359712,0,123)" d="M27180.8 11394.4C27183.5 11411 27189.1 11424.8 27189.1 11444.2 27189.1 11491.3 27155.8 11519 27108.7 11519 27081 11519 27006.2 11499.6 26995.2 11399.9 26945.3 11502.4 26848.3 11574.4 26737.5 11574.4 26421.7 11574.4 26078.2 11186.6 26078.2 10787.7 26078.2 10513.4 26247.2 10350 26446.7 10350 26610.1 10350 26740.3 10480.2 26768 10510.7L26770.8 10507.9C26712.6 10261.4 26679.4 10147.8 26679.4 10142.2 26668.3 10117.3 26574.1 9843.06 26280.5 9843.06 26227.8 9843.06 26136.4 9845.83 26058.8 9870.75 26141.9 9895.69 26172.4 9967.72 26172.4 10014.8 26172.4 10059.1 26141.9 10111.8 26067.1 10111.8 26006.2 10111.8 25917.5 10061.9 25917.5 9951.09 25917.5 9837.52 26020 9782.11 26286 9782.11 26632.3 9782.11 26831.7 9998.19 26873.3 10164.4L27180.8 11394.4ZM26820.6 10704.6C26804 10632.6 26740.3 10563.3 26679.4 10510.7 26621.2 10460.8 26535.3 10410.9 26455 10410.9 26316.5 10410.9 26274.9 10555 26274.9 10665.8 26274.9 10798.8 26355.3 11125.7 26430 11266.9 26504.8 11402.7 26624 11513.5 26740.3 11513.5 26923.1 11513.5 26961.9 11289.1 26961.9 11275.3 26961.9 11261.4 26956.4 11244.8 26953.6 11233.7L26820.6 10704.6"/>
<path transform="matrix(.00359712,0,0,-.00359712,0,123)" d="M28098.6 11042.5C28098.6 11258.6 28068.1 11593.8 27915.8 11906.8 27749.5 12247.6 27511.3 12427.6 27483.6 12427.6 27467 12427.6 27455.9 12416.6 27455.9 12399.9 27455.9 12391.6 27455.9 12386.1 27508.5 12336.2 27780 12062 27937.9 11621.5 27937.9 11042.5 27937.9 10568.8 27835.4 10081.3 27491.9 9732.25 27455.9 9699 27455.9 9693.47 27455.9 9685.16 27455.9 9668.53 27467 9657.45 27483.6 9657.45 27511.3 9657.45 27760.6 9845.83 27924.1 10197.6 28065.3 10502.4 28098.6 10809.8 28098.6 11042.5"/>
<path transform="matrix(.00359712,0,0,-.00359712,0,123)" d="M28870.9 10668.6C28760.1 10483 28652 10444.2 28530.1 10435.9 28496.9 10433.1 28472 10433.1 28472 10380.5 28472 10363.8 28485.8 10350 28508 10350 28582.8 10350 28668.6 10358.3 28746.2 10358.3 28837.6 10358.3 28934.6 10350 29023.2 10350 29039.8 10350 29075.9 10350 29075.9 10402.6 29075.9 10433.1 29050.9 10435.9 29031.5 10435.9 28967.8 10441.4 28901.3 10463.6 28901.3 10532.8 28901.3 10566.1 28918 10596.5 28940.1 10635.3L29150.7 10989.9H29846C29851.5 10931.7 29890.3 10555 29890.3 10527.3 29890.3 10444.2 29746.3 10435.9 29690.8 10435.9 29652.1 10435.9 29624.4 10435.9 29624.4 10380.5 29624.4 10350 29657.6 10350 29663.1 10350 29776.7 10350 29895.8 10358.3 30009.4 10358.3 30078.7 10358.3 30253.2 10350 30322.4 10350 30339.1 10350 30372.3 10350 30372.3 10405.4 30372.3 10435.9 30344.6 10435.9 30308.6 10435.9 30136.8 10435.9 30136.8 10455.3 30128.5 10535.6L29959.5 12267C29954 12322.4 29954 12333.5 29906.9 12333.5 29862.6 12333.5 29851.5 12314.1 29834.9 12286.4L28870.9 10668.6ZM29203.3 11075.8 29749 11990 29837.7 11075.8H29203.3Z"/>
<path transform="matrix(.00359712,0,0,-.00359712,0,123)" d="M31080.1 11146.7C31080.1 11177.7 31056.9 11220.4 31002.6 11220.4 30950.3 11220.4 30894 11170 30894 11113.7 30894 11080.8 30919.2 11040.1 30971.6 11040.1 31027.8 11040.1 31080.1 11094.3 31080.1 11146.7ZM30684.6 10161.8C30676.9 10136.6 30667.2 10113.4 30667.2 10080.4 30667.2 9989.28 30744.8 9915.61 30851.4 9915.61 31045.3 9915.61 31130.5 10183.2 31130.5 10212.2 31130.5 10237.4 31105.3 10237.4 31099.5 10237.4 31072.4 10237.4 31070.5 10225.8 31062.7 10204.5 31018.1 10049.4 30932.8 9969.89 30857.2 9969.89 30818.4 9969.89 30808.7 9995.09 30808.7 10037.8 30808.7 10082.3 30822.3 10119.2 30839.7 10161.8 30859.1 10214.2 30880.5 10266.5 30901.8 10316.9 30919.2 10363.5 30989 10539.9 30996.8 10563.1 31002.6 10582.5 31008.4 10605.8 31008.4 10625.2 31008.4 10716.3 30930.9 10790 30824.2 10790 30632.3 10790 30543.1 10526.3 30543.1 10493.3 30543.1 10468.1 30570.3 10468.1 30576.1 10468.1 30603.2 10468.1 30605.2 10477.8 30611 10499.2 30661.4 10665.9 30746.7 10735.7 30818.4 10735.7 30849.4 10735.7 30866.9 10720.2 30866.9 10667.8 30866.9 10623.2 30855.3 10594.2 30806.8 10474L30684.6 10161.8"/>
<path transform="matrix(.00359712,0,0,-.00359712,0,123)" d="M32326.3 12272.5 31927.4 12242V12156.2C32121.3 12156.2 32143.5 12136.8 32143.5 12001V10560.5C32143.5 10435.9 32113 10435.9 31927.4 10435.9V10350C32018.8 10352.8 32165.7 10358.3 32234.9 10358.3 32304.2 10358.3 32439.9 10352.8 32542.4 10350V10435.9C32356.8 10435.9 32326.3 10435.9 32326.3 10560.5V12272.5"/>
<path transform="matrix(.00359712,0,0,-.00359712,0,123)" d="M33907.8 10942.8C33907.8 11297.4 33630.7 11591 33295.5 11591 32949.3 11591 32680.6 11289.1 32680.6 10942.8 32680.6 10585.5 32968.7 10319.5 33292.8 10319.5 33628 10319.5 33907.8 10591 33907.8 10942.8ZM33295.5 10388.8C33176.4 10388.8 33054.5 10447 32979.8 10574.4 32910.5 10696.3 32910.5 10865.3 32910.5 10965 32910.5 11073 32910.5 11222.6 32977 11344.5 33051.8 11471.9 33182 11530.1 33292.8 11530.1 33414.7 11530.1 33533.8 11469.2 33605.8 11350 33677.8 11230.9 33677.8 11070.3 33677.8 10965 33677.8 10865.3 33677.8 10715.7 33616.9 10593.8 33555.9 10469.1 33434.1 10388.8 33295.5 10388.8"/>
<path transform="matrix(.00359712,0,0,-.00359712,0,123)" d="M34603 10826.5C34362 10826.5 34362 11103.5 34362 11167.2 34362 11242 34364.8 11330.6 34406.3 11399.9 34428.5 11433.1 34492.2 11510.7 34603 11510.7 34844 11510.7 34844 11233.7 34844 11170 34844 11095.2 34841.2 11006.5 34799.7 10937.3 34777.5 10904 34713.8 10826.5 34603 10826.5ZM34281.6 10718.4C34281.6 10729.5 34281.6 10793.2 34328.7 10848.6 34436.8 10771.1 34550.3 10762.8 34603 10762.8 34860.6 10762.8 35051.8 10953.9 35051.8 11167.2 35051.8 11269.7 35007.4 11372.2 34938.2 11435.9 35037.9 11530.1 35137.6 11544 35187.5 11544 35193 11544 35206.9 11544 35215.2 11541.2 35184.7 11530.1 35170.9 11499.6 35170.9 11466.4 35170.9 11419.3 35206.9 11386 35251.2 11386 35278.9 11386 35331.5 11405.4 35331.5 11469.2 35331.5 11516.3 35298.3 11604.9 35190.3 11604.9 35134.9 11604.9 35013 11588.3 34896.6 11474.7 34780.3 11566.1 34663.9 11574.4 34603 11574.4 34345.4 11574.4 34154.2 11383.3 34154.2 11170 34154.2 11048.1 34215.2 10942.8 34284.4 10884.6 34248.4 10843.1 34198.5 10751.7 34198.5 10654.7 34198.5 10568.8 34234.5 10463.6 34320.4 10408.2 34154.2 10361.1 34065.6 10242 34065.6 10131.2 34065.6 9931.7 34339.8 9779.34 34677.8 9779.34 35004.7 9779.34 35292.8 9920.63 35292.8 10136.7 35292.8 10233.7 35254 10374.9 35112.7 10452.5 34965.9 10530.1 34805.2 10530.1 34636.2 10530.1 34567 10530.1 34447.8 10530.1 34428.5 10532.8 34339.8 10543.9 34281.6 10629.8 34281.6 10718.4ZM34680.5 9843.06C34400.8 9843.06 34209.6 9984.33 34209.6 10131.2 34209.6 10258.6 34314.9 10361.1 34436.8 10369.4H34600.2C34838.5 10369.4 35148.7 10369.4 35148.7 10131.2 35148.7 9981.56 34952 9843.06 34680.5 9843.06"/>
<path transform="matrix(.00359712,0,0,-.00359712,0,123)" d="M38044 14149.3C38027.3 14201.9 38010.7 14207.5 37980.3 14207.5 37935.9 14207.5 37930.4 14196.4 37916.5 14149.3L37384.7 12501C37357 12417.9 37301.6 12309.9 37107.6 12309.9V12224C37199.1 12229.5 37340.3 12232.3 37365.3 12232.3 37445.6 12232.3 37592.4 12226.8 37678.3 12224V12309.9C37528.7 12312.6 37465 12387.4 37465 12453.9 37465 12467.8 37465 12476.1 37478.8 12514.9L37894.4 13805.8 38332.1 12442.8C38345.9 12404.1 38345.9 12398.5 38345.9 12393 38345.9 12309.9 38182.5 12309.9 38110.5 12309.9V12224C38207.4 12232.3 38404.1 12232.3 38509.4 12232.3 38617.4 12232.3 38742.1 12226.8 38850.1 12224V12309.9C38639.6 12309.9 38631.3 12326.5 38598 12429L38044 14149.3"/>
<path transform="matrix(.00359712,0,0,-.00359712,0,123)" d="M39922 13581.8H39856.1C39850.3 13539.2 39830.9 13424.8 39805.7 13405.4 39790.2 13393.8 39640.9 13393.8 39613.8 13393.8H39257.1C39460.6 13574.1 39528.5 13628.4 39644.8 13719.5 39788.3 13833.9 39922 13954.1 39922 14138.3 39922 14372.8 39716.5 14516.3 39468.4 14516.3 39228 14516.3 39065.1 14347.6 39065.1 14169.3 39065.1 14070.4 39148.5 14060.7 39167.9 14060.7 39214.4 14060.7 39270.6 14093.7 39270.6 14163.5 39270.6 14198.3 39257.1 14266.2 39156.3 14266.2 39216.4 14403.9 39348.2 14446.5 39439.3 14446.5 39633.2 14446.5 39734 14295.3 39734 14138.3 39734 13969.6 39613.8 13835.8 39551.8 13766L39084.5 13304.6C39065.1 13287.2 39065.1 13283.3 39065.1 13229H39863.9L39922 13581.8"/>
<path transform="matrix(.00359712,0,0,-.00359712,0,123)" stroke-width="110.783" stroke-linecap="butt" stroke-miterlimit="10" stroke-linejoin="miter" fill="none" stroke="#000000" d="M36207 11042.4H40997.2"/>
<path transform="matrix(.00359712,0,0,-.00359712,0,123)" d="M38032.5 9087.14C38079.6 9087.14 38129.5 9087.14 38129.5 9142.55 38129.5 9197.95 38079.6 9197.95 38032.5 9197.95H36533.9C36486.8 9197.95 36436.9 9197.95 36436.9 9142.55 36436.9 9087.14 36486.8 9087.14 36533.9 9087.14H38032.5"/>
<path transform="matrix(.00359712,0,0,-.00359712,0,123)" d="M38485.7 8112.03C38463.5 8017.84 38458 7998.45 38336.1 7998.45 38302.8 7998.45 38272.4 7998.45 38272.4 7945.83 38272.4 7923.67 38286.2 7912.58 38308.4 7912.58 38383.2 7912.58 38463.5 7920.89 38541.1 7920.89 38632.5 7920.89 38726.7 7912.58 38815.3 7912.58 38829.2 7912.58 38865.2 7912.58 38865.2 7967.98 38865.2 7998.45 38837.5 7998.45 38798.7 7998.45 38660.2 7998.45 38660.2 8017.84 38660.2 8042.78 38660.2 8076.03 38776.5 8527.56 38795.9 8596.81 38831.9 8516.48 38909.5 8419.53 39050.8 8419.53 39372.1 8419.53 39718.4 8823.97 39718.4 9231.19 39718.4 9491.59 39560.5 9674.42 39350 9674.42 39211.5 9674.42 39078.5 9574.7 38987.1 9466.66 38959.4 9616.25 38840.3 9674.42 38737.8 9674.42 38610.3 9674.42 38557.7 9566.39 38532.8 9516.52 38482.9 9422.33 38446.9 9256.13 38446.9 9247.81 38446.9 9220.11 38474.6 9220.11 38480.1 9220.11 38507.8 9220.11 38510.6 9222.88 38527.2 9283.83 38574.3 9480.52 38629.7 9613.48 38729.4 9613.48 38776.5 9613.48 38815.3 9591.31 38815.3 9486.05 38815.3 9422.33 38807 9391.86 38795.9 9344.77L38485.7 8112.03ZM38973.2 9314.3C38992.6 9389.09 39067.4 9466.66 39117.3 9508.22 39214.2 9594.09 39294.5 9613.48 39341.6 9613.48 39452.5 9613.48 39518.9 9516.52 39518.9 9353.08 39518.9 9189.64 39427.5 8871.06 39377.7 8765.8 39283.5 8571.89 39150.5 8480.47 39048 8480.47 38865.2 8480.47 38829.2 8710.39 38829.2 8727.02 38829.2 8732.56 38829.2 8738.09 38837.5 8771.34L38973.2 9314.3"/>
<path transform="matrix(.00359712,0,0,-.00359712,0,123)" d="M40734 9602.84H40668.1C40662.3 9560.19 40642.9 9445.81 40617.7 9426.42 40602.2 9414.8 40452.9 9414.8 40425.8 9414.8H40069.1C40272.6 9595.09 40340.5 9649.38 40456.8 9740.48 40600.3 9854.88 40734 9975.08 40734 10159.3 40734 10393.8 40528.5 10537.3 40280.4 10537.3 40040 10537.3 39877.1 10368.6 39877.1 10190.3 39877.1 10091.4 39960.5 10081.7 39979.9 10081.7 40026.4 10081.7 40082.6 10114.7 40082.6 10184.5 40082.6 10219.3 40069.1 10287.2 39968.3 10287.2 40028.4 10424.9 40160.2 10467.5 40251.3 10467.5 40445.2 10467.5 40546 10316.3 40546 10159.3 40546 9990.58 40425.8 9856.81 40363.8 9787.02L39896.5 9325.61C39877.1 9308.16 39877.1 9304.28 39877.1 9250H40675.9L40734 9602.84"/>
<path transform="matrix(.00359712,0,0,-.00359712,0,123)" d="M43078 10987.1H43850.9C43889.7 10987.1 43942.3 10987.1 43942.3 11042.5 43942.3 11098 43889.7 11098 43850.9 11098H43078V11873.6C43078 11912.4 43078 11965 43022.6 11965 42967.2 11965 42967.2 11912.4 42967.2 11873.6V11098H42191.5C42152.8 11098 42100.1 11098 42100.1 11042.5 42100.1 10987.1 42152.8 10987.1 42191.5 10987.1H42967.2V10211.5C42967.2 10172.7 42967.2 10120.1 43022.6 10120.1 43078 10120.1 43078 10172.7 43078 10211.5V10987.1"/>
<path transform="matrix(.00359712,0,0,-.00359712,0,123)" d="M45628.9 9685.16C45628.9 9693.47 45628.9 9699 45581.8 9746.09 45235.6 10095.1 45146.9 10618.7 45146.9 11042.5 45146.9 11524.6 45252.2 12006.6 45592.9 12352.8 45628.9 12386.1 45628.9 12391.6 45628.9 12399.9 45628.9 12419.3 45617.8 12427.6 45601.2 12427.6 45573.5 12427.6 45324.2 12239.3 45160.8 11887.5 45019.5 11582.7 44986.3 11275.3 44986.3 11042.5 44986.3 10826.5 45016.7 10491.3 45169.1 10178.3 45335.3 9837.52 45573.5 9657.45 45601.2 9657.45 45617.8 9657.45 45628.9 9665.77 45628.9 9685.16"/>
<path transform="matrix(.00359712,0,0,-.00359712,0,123)" d="M47617.5 10987.1C47664.6 10987.1 47714.5 10987.1 47714.5 11042.5 47714.5 11098 47664.6 11098 47617.5 11098H46118.9C46071.8 11098 46021.9 11098 46021.9 11042.5 46021.9 10987.1 46071.8 10987.1 46118.9 10987.1H47617.5"/>
<path transform="matrix(.00359712,0,0,-.00359712,0,123)" d="M48732.7 12081.4C48732.7 12136.8 48694 12181.1 48630.2 12181.1 48555.4 12181.1 48480.6 12109.1 48480.6 12034.3 48480.6 11981.6 48519.4 11934.5 48585.9 11934.5 48649.6 11934.5 48732.7 11998.3 48732.7 12081.4ZM48522.2 11039.8C48555.4 11120.1 48555.4 11125.7 48583.1 11200.5 48605.3 11255.8 48619.2 11294.6 48619.2 11347.3 48619.2 11471.9 48530.5 11574.4 48392 11574.4 48131.6 11574.4 48026.3 11172.8 48026.3 11147.8 48026.3 11120.1 48054 11120.1 48059.6 11120.1 48087.3 11120.1 48090 11125.7 48103.9 11170 48178.7 11430.4 48289.5 11513.5 48383.7 11513.5 48405.8 11513.5 48452.9 11513.5 48452.9 11424.8 48452.9 11366.7 48433.5 11308.5 48422.5 11280.8 48400.3 11208.8 48275.7 10887.4 48231.3 10768.3 48203.6 10696.3 48167.6 10604.9 48167.6 10546.7 48167.6 10416.5 48261.8 10319.5 48394.8 10319.5 48655.2 10319.5 48757.7 10721.2 48757.7 10746.1 48757.7 10773.8 48732.7 10773.8 48724.4 10773.8 48696.7 10773.8 48696.7 10765.5 48682.9 10724 48633 10549.5 48541.6 10380.5 48400.3 10380.5 48353.2 10380.5 48333.8 10408.2 48333.8 10471.9 48333.8 10541.1 48350.5 10579.9 48414.2 10748.9L48522.2 11039.8"/>
<path transform="matrix(.00359712,0,0,-.00359712,0,123)" d="M50203.8 11394.4C50206.5 11411 50212.1 11424.8 50212.1 11444.2 50212.1 11491.3 50178.8 11519 50131.7 11519 50104 11519 50029.2 11499.6 50018.2 11399.9 49968.3 11502.4 49871.3 11574.4 49760.5 11574.4 49444.7 11574.4 49101.2 11186.6 49101.2 10787.7 49101.2 10513.4 49270.2 10350 49469.7 10350 49633.1 10350 49763.3 10480.2 49791 10510.7L49793.8 10507.9C49735.6 10261.4 49702.4 10147.8 49702.4 10142.2 49691.3 10117.3 49597.1 9843.06 49303.5 9843.06 49250.8 9843.06 49159.4 9845.83 49081.8 9870.75 49164.9 9895.69 49195.4 9967.72 49195.4 10014.8 49195.4 10059.1 49164.9 10111.8 49090.1 10111.8 49029.2 10111.8 48940.5 10061.9 48940.5 9951.09 48940.5 9837.52 49043 9782.11 49309 9782.11 49655.3 9782.11 49854.7 9998.19 49896.3 10164.4L50203.8 11394.4ZM49843.6 10704.6C49827 10632.6 49763.3 10563.3 49702.4 10510.7 49644.2 10460.8 49558.3 10410.9 49478 10410.9 49339.5 10410.9 49297.9 10555 49297.9 10665.8 49297.9 10798.8 49378.3 11125.7 49453 11266.9 49527.8 11402.7 49647 11513.5 49763.3 11513.5 49946.1 11513.5 49984.9 11289.1 49984.9 11275.3 49984.9 11261.4 49979.4 11244.8 49976.6 11233.7L49843.6 10704.6"/>
<path transform="matrix(.00359712,0,0,-.00359712,0,123)" d="M51120.6 11042.5C51120.6 11258.6 51090.1 11593.8 50937.8 11906.8 50771.5 12247.6 50533.3 12427.6 50505.6 12427.6 50489 12427.6 50477.9 12416.6 50477.9 12399.9 50477.9 12391.6 50477.9 12386.1 50530.5 12336.2 50802 12062 50959.9 11621.5 50959.9 11042.5 50959.9 10568.8 50857.4 10081.3 50513.9 9732.25 50477.9 9699 50477.9 9693.47 50477.9 9685.16 50477.9 9668.53 50489 9657.45 50505.6 9657.45 50533.3 9657.45 50782.6 9845.83 50946.1 10197.6 51087.3 10502.4 51120.6 10809.8 51120.6 11042.5"/>
<path transform="matrix(.00359712,0,0,-.00359712,0,123)" d="M53090.6 11120.1 52536.6 11671.4C52503.3 11704.6 52497.8 11710.2 52475.6 11710.2 52447.9 11710.2 52420.2 11685.2 52420.2 11654.8 52420.2 11635.4 52425.8 11629.8 52456.2 11599.4L53010.3 11042.5 52456.2 10485.7C52425.8 10455.3 52420.2 10449.7 52420.2 10430.3 52420.2 10399.9 52447.9 10374.9 52475.6 10374.9 52497.8 10374.9 52503.3 10380.5 52536.6 10413.7L53087.8 10965 53661.3 10391.5C53666.8 10388.8 53686.2 10374.9 53702.8 10374.9 53736.1 10374.9 53758.2 10399.9 53758.2 10430.3 53758.2 10435.9 53758.2 10447 53749.9 10460.8 53747.1 10466.3 53306.7 10901.3 53168.2 11042.5L53675.1 11549.5C53689 11566.1 53730.5 11602.1 53744.4 11618.8 53747.1 11624.3 53758.2 11635.4 53758.2 11654.8 53758.2 11685.2 53736.1 11710.2 53702.8 11710.2 53680.7 11710.2 53669.6 11699.1 53639.1 11668.6L53090.6 11120.1"/>
<path transform="matrix(.00359712,0,0,-.00359712,0,123)" d="M55568.7 12081.4C55568.7 12136.8 55530 12181.1 55466.2 12181.1 55391.4 12181.1 55316.6 12109.1 55316.6 12034.3 55316.6 11981.6 55355.4 11934.5 55421.9 11934.5 55485.6 11934.5 55568.7 11998.3 55568.7 12081.4ZM55358.2 11039.8C55391.4 11120.1 55391.4 11125.7 55419.1 11200.5 55441.3 11255.8 55455.2 11294.6 55455.2 11347.3 55455.2 11471.9 55366.5 11574.4 55228 11574.4 54967.6 11574.4 54862.3 11172.8 54862.3 11147.8 54862.3 11120.1 54890 11120.1 54895.6 11120.1 54923.3 11120.1 54926 11125.7 54939.9 11170 55014.7 11430.4 55125.5 11513.5 55219.7 11513.5 55241.8 11513.5 55288.9 11513.5 55288.9 11424.8 55288.9 11366.7 55269.5 11308.5 55258.5 11280.8 55236.3 11208.8 55111.7 10887.4 55067.3 10768.3 55039.6 10696.3 55003.6 10604.9 55003.6 10546.7 55003.6 10416.5 55097.8 10319.5 55230.8 10319.5 55491.2 10319.5 55593.7 10721.2 55593.7 10746.1 55593.7 10773.8 55568.7 10773.8 55560.4 10773.8 55532.7 10773.8 55532.7 10765.5 55518.9 10724 55469 10549.5 55377.6 10380.5 55236.3 10380.5 55189.2 10380.5 55169.8 10408.2 55169.8 10471.9 55169.8 10541.1 55186.5 10579.9 55250.2 10748.9L55358.2 11039.8"/>
<path transform="matrix(.00359712,0,0,-.00359712,0,123)" d="M55859.7 10012C55837.5 9917.84 55832 9898.45 55710.1 9898.45 55676.8 9898.45 55646.4 9898.45 55646.4 9845.83 55646.4 9823.67 55660.2 9812.58 55682.4 9812.58 55757.2 9812.58 55837.5 9820.89 55915.1 9820.89 56006.5 9820.89 56100.7 9812.58 56189.3 9812.58 56203.2 9812.58 56239.2 9812.58 56239.2 9867.98 56239.2 9898.45 56211.5 9898.45 56172.7 9898.45 56034.2 9898.45 56034.2 9917.84 56034.2 9942.78 56034.2 9976.03 56150.5 10427.6 56169.9 10496.8 56205.9 10416.5 56283.5 10319.5 56424.8 10319.5 56746.1 10319.5 57092.4 10724 57092.4 11131.2 57092.4 11391.6 56934.5 11574.4 56724 11574.4 56585.5 11574.4 56452.5 11474.7 56361.1 11366.7 56333.4 11516.3 56214.3 11574.4 56111.8 11574.4 55984.3 11574.4 55931.7 11466.4 55906.8 11416.5 55856.9 11322.3 55820.9 11156.1 55820.9 11147.8 55820.9 11120.1 55848.6 11120.1 55854.1 11120.1 55881.8 11120.1 55884.6 11122.9 55901.2 11183.8 55948.3 11380.5 56003.7 11513.5 56103.4 11513.5 56150.5 11513.5 56189.3 11491.3 56189.3 11386 56189.3 11322.3 56181 11291.9 56169.9 11244.8L55859.7 10012ZM56347.2 11214.3C56366.6 11289.1 56441.4 11366.7 56491.3 11408.2 56588.2 11494.1 56668.5 11513.5 56715.6 11513.5 56826.5 11513.5 56892.9 11416.5 56892.9 11253.1 56892.9 11089.6 56801.5 10771.1 56751.7 10665.8 56657.5 10471.9 56524.5 10380.5 56422 10380.5 56239.2 10380.5 56203.2 10610.4 56203.2 10627 56203.2 10632.6 56203.2 10638.1 56211.5 10671.3L56347.2 11214.3"/>
<path transform="matrix(.00359712,0,0,-.00359712,0,123)" d="M57758.1 11146.7C57758.1 11177.7 57734.9 11220.4 57680.6 11220.4 57628.3 11220.4 57572 11170 57572 11113.7 57572 11080.8 57597.2 11040.1 57649.6 11040.1 57705.8 11040.1 57758.1 11094.3 57758.1 11146.7ZM57362.6 10161.8C57354.9 10136.6 57345.2 10113.4 57345.2 10080.4 57345.2 9989.28 57422.8 9915.61 57529.4 9915.61 57723.3 9915.61 57808.5 10183.2 57808.5 10212.2 57808.5 10237.4 57783.3 10237.4 57777.5 10237.4 57750.4 10237.4 57748.5 10225.8 57740.7 10204.5 57696.1 10049.4 57610.8 9969.89 57535.2 9969.89 57496.4 9969.89 57486.7 9995.09 57486.7 10037.8 57486.7 10082.3 57500.3 10119.2 57517.7 10161.8 57537.1 10214.2 57558.5 10266.5 57579.8 10316.9 57597.2 10363.5 57667 10539.9 57674.8 10563.1 57680.6 10582.5 57686.4 10605.8 57686.4 10625.2 57686.4 10716.3 57608.9 10790 57502.2 10790 57310.3 10790 57221.1 10526.3 57221.1 10493.3 57221.1 10468.1 57248.3 10468.1 57254.1 10468.1 57281.2 10468.1 57283.2 10477.8 57289 10499.2 57339.4 10665.9 57424.7 10735.7 57496.4 10735.7 57527.4 10735.7 57544.9 10720.2 57544.9 10667.8 57544.9 10623.2 57533.3 10594.2 57484.8 10474L57362.6 10161.8"/>
<path transform="matrix(.00359712,0,0,-.00359712,0,123)" d="M59031 11846.8H58965.1C58959.3 11804.2 58939.9 11689.8 58914.7 11670.4 58899.2 11658.8 58749.9 11658.8 58722.8 11658.8H58366.1C58569.6 11839.1 58637.5 11893.4 58753.8 11984.5 58897.3 12098.9 59031 12219.1 59031 12403.3 59031 12637.8 58825.5 12781.3 58577.4 12781.3 58337 12781.3 58174.1 12612.6 58174.1 12434.3 58174.1 12335.4 58257.5 12325.7 58276.9 12325.7 58323.4 12325.7 58379.6 12358.7 58379.6 12428.5 58379.6 12463.3 58366.1 12531.2 58265.3 12531.2 58325.4 12668.9 58457.2 12711.5 58548.3 12711.5 58742.2 12711.5 58843 12560.3 58843 12403.3 58843 12234.6 58722.8 12100.8 58660.8 12031L58193.5 11569.6C58174.1 11552.2 58174.1 11548.3 58174.1 11494H58972.9L59031 11846.8"/>
<path transform="matrix(.00359712,0,0,-.00359712,0,123)" d="M60026.3 11560.6C59680.1 11477.5 59411.3 11117.3 59411.3 10782.2 59411.3 10516.2 59588.6 10316.8 59849 10316.8 60173.2 10316.8 60403.1 10751.7 60403.1 11134 60403.1 11386 60292.3 11524.6 60198.1 11649.2 60098.4 11773.9 59934.9 11981.6 59934.9 12103.5 59934.9 12164.5 59990.3 12231 60087.3 12231 60170.4 12231 60225.8 12194.9 60284 12156.2 60339.4 12122.9 60394.8 12086.9 60436.3 12086.9 60505.6 12086.9 60547.1 12153.4 60547.1 12197.7 60547.1 12258.7 60502.8 12267 60403.1 12289.1 60259 12319.6 60220.3 12319.6 60175.9 12319.6 59959.8 12319.6 59860.1 12200.5 59860.1 12034.3 59860.1 11884.7 59940.5 11729.5 60026.3 11560.6ZM60059.6 11499.6C60128.8 11372.2 60211.9 11222.6 60211.9 11023.2 60211.9 10840.3 60106.7 10377.7 59849 10377.7 59696.7 10377.7 59583.1 10494 59583.1 10704.6 59583.1 10879.1 59685.6 11399.9 60059.6 11499.6"/>
<path transform="matrix(.00359712,0,0,-.00359712,0,123)" d="M62044 11183.5C62059.5 11199 62071.1 11212.6 62071.1 11237.8 62071.1 11259.1 62055.6 11259.1 62018.8 11259.1H61113.4C61063 11259.1 61061.1 11257.2 61049.5 11220.4L60940.9 10871.4C60933.1 10848.1 60933.1 10846.2 60933.1 10840.4 60933.1 10830.7 60940.9 10813.2 60966.1 10813.2 60991.3 10813.2 60995.2 10824.9 61001 10844.3 61094 11117.6 61245.3 11189.3 61495.3 11189.3H61844.3L60714 10020.3C60700.5 10006.7 60681.1 9987.34 60681.1 9956.33 60681.1 9935 60698.5 9935 60733.4 9935H61671.8C61722.2 9935 61724.1 9936.94 61735.8 9973.78L61875.3 10406.1C61883.1 10431.3 61883.1 10435.2 61883.1 10437.1 61883.1 10439.1 61883.1 10464.3 61852.1 10464.3 61826.9 10464.3 61823 10456.5 61809.4 10413.9 61720.2 10148.3 61621.4 10012.5 61284 10012.5H60913.7L62044 11183.5"/>
<path transform="matrix(.00359712,0,0,-.00359712,0,123)" d="M62582.6 10520C62582.6 10553.1 62557.8 10579.4 62521.8 10579.4 62483.1 10579.4 62437.4 10542.1 62437.4 10496.4 62437.4 10457.7 62467.9 10437 62496.9 10437 62542.5 10437 62582.6 10478.5 62582.6 10520ZM62647.6 9856.14C62647.6 9875.5 62624.1 9875.5 62618.6 9875.5 62595.1 9875.5 62593.7 9869.97 62585.4 9843.7 62561.9 9767.64 62499.7 9688.81 62430.5 9688.81 62398.7 9688.81 62389 9710.94 62389 9741.36 62389 9770.41 62396 9785.61 62407 9811.89 62418.1 9839.55 62429.1 9867.2 62436 9886.56 62441.6 9899.02 62495.5 10027.6 62514.9 10077.4 62525.9 10105.1 62534.2 10123 62534.2 10146.6 62534.2 10212.9 62470.6 10268.3 62383.5 10268.3 62238.3 10268.3 62160.8 10091.3 62160.8 10053.9 62160.8 10034.5 62183 10034.5 62189.9 10034.5 62213.4 10034.5 62214.8 10041.5 62221.7 10062.2 62252.1 10160.4 62318.5 10221.2 62378 10221.2 62404.3 10221.2 62419.5 10206 62419.5 10168.7 62419.5 10163.2 62419.5 10145.2 62411.2 10118.9 62401.5 10094 62339.3 9946.03 62319.9 9899.02 62310.2 9875.5 62310.2 9872.73 62289.5 9825.72 62282.5 9806.36 62274.3 9787 62274.3 9763.48 62274.3 9691.58 62342 9641.78 62425 9641.78 62570.2 9641.78 62647.6 9821.56 62647.6 9856.14"/>
<path transform="matrix(.00359712,0,0,-.00359712,0,123)" d="M65471.7 13955.4C65471.7 14010.8 65433 14055.1 65369.2 14055.1 65294.4 14055.1 65219.6 13983.1 65219.6 13908.3 65219.6 13855.6 65258.4 13808.5 65324.9 13808.5 65388.6 13808.5 65471.7 13872.3 65471.7 13955.4ZM65261.2 12913.8C65294.4 12994.1 65294.4 12999.7 65322.1 13074.5 65344.3 13129.8 65358.2 13168.6 65358.2 13221.3 65358.2 13345.9 65269.5 13448.4 65131 13448.4 64870.6 13448.4 64765.3 13046.8 64765.3 13021.8 64765.3 12994.1 64793 12994.1 64798.6 12994.1 64826.3 12994.1 64829 12999.7 64842.9 13044 64917.7 13304.4 65028.5 13387.5 65122.7 13387.5 65144.8 13387.5 65191.9 13387.5 65191.9 13298.8 65191.9 13240.7 65172.5 13182.5 65161.5 13154.8 65139.3 13082.8 65014.7 12761.4 64970.3 12642.3 64942.6 12570.3 64906.6 12478.9 64906.6 12420.7 64906.6 12290.5 65000.8 12193.5 65133.8 12193.5 65394.2 12193.5 65496.7 12595.2 65496.7 12620.1 65496.7 12647.8 65471.7 12647.8 65463.4 12647.8 65435.7 12647.8 65435.7 12639.5 65421.9 12598 65372 12423.5 65280.6 12254.5 65139.3 12254.5 65092.2 12254.5 65072.8 12282.2 65072.8 12345.9 65072.8 12415.1 65089.5 12453.9 65153.2 12622.9L65261.2 12913.8"/>
<path transform="matrix(.00359712,0,0,-.00359712,0,123)" stroke-width="110.783" stroke-linecap="butt" stroke-miterlimit="10" stroke-linejoin="miter" fill="none" stroke="#000000" d="M63382.9 11042.4H66940.7"/>
<path transform="matrix(.00359712,0,0,-.00359712,0,123)" d="M63507.7 8112.03C63485.5 8017.84 63480 7998.45 63358.1 7998.45 63324.8 7998.45 63294.4 7998.45 63294.4 7945.83 63294.4 7923.67 63308.2 7912.58 63330.4 7912.58 63405.2 7912.58 63485.5 7920.89 63563.1 7920.89 63654.5 7920.89 63748.7 7912.58 63837.3 7912.58 63851.2 7912.58 63887.2 7912.58 63887.2 7967.98 63887.2 7998.45 63859.5 7998.45 63820.7 7998.45 63682.2 7998.45 63682.2 8017.84 63682.2 8042.78 63682.2 8076.03 63798.5 8527.56 63817.9 8596.81 63853.9 8516.48 63931.5 8419.53 64072.8 8419.53 64394.1 8419.53 64740.4 8823.97 64740.4 9231.19 64740.4 9491.59 64582.5 9674.42 64372 9674.42 64233.5 9674.42 64100.5 9574.7 64009.1 9466.66 63981.4 9616.25 63862.3 9674.42 63759.8 9674.42 63632.3 9674.42 63579.7 9566.39 63554.8 9516.52 63504.9 9422.33 63468.9 9256.13 63468.9 9247.81 63468.9 9220.11 63496.6 9220.11 63502.1 9220.11 63529.8 9220.11 63532.6 9222.88 63549.2 9283.83 63596.3 9480.52 63651.7 9613.48 63751.4 9613.48 63798.5 9613.48 63837.3 9591.31 63837.3 9486.05 63837.3 9422.33 63829 9391.86 63817.9 9344.77L63507.7 8112.03ZM63995.2 9314.3C64014.6 9389.09 64089.4 9466.66 64139.3 9508.22 64236.2 9594.09 64316.5 9613.48 64363.6 9613.48 64474.5 9613.48 64540.9 9516.52 64540.9 9353.08 64540.9 9189.64 64449.5 8871.06 64399.7 8765.8 64305.5 8571.89 64172.5 8480.47 64070 8480.47 63887.2 8480.47 63851.2 8710.39 63851.2 8727.02 63851.2 8732.56 63851.2 8738.09 63859.5 8771.34L63995.2 9314.3"/>
<path transform="matrix(.00359712,0,0,-.00359712,0,123)" d="M65404.1 9246.69C65404.1 9277.7 65380.9 9320.36 65326.6 9320.36 65274.3 9320.36 65218 9269.95 65218 9213.73 65218 9180.77 65243.2 9140.06 65295.6 9140.06 65351.8 9140.06 65404.1 9194.34 65404.1 9246.69ZM65008.6 8261.83C65000.9 8236.63 64991.2 8213.36 64991.2 8180.41 64991.2 8089.28 65068.8 8015.61 65175.4 8015.61 65369.3 8015.61 65454.5 8283.16 65454.5 8312.23 65454.5 8337.44 65429.3 8337.44 65423.5 8337.44 65396.4 8337.44 65394.5 8325.81 65386.7 8304.48 65342.1 8149.39 65256.8 8069.89 65181.2 8069.89 65142.4 8069.89 65132.7 8095.09 65132.7 8137.75 65132.7 8182.34 65146.3 8219.17 65163.7 8261.83 65183.1 8314.17 65204.5 8366.52 65225.8 8416.92 65243.2 8463.45 65313 8639.88 65320.8 8663.14 65326.6 8682.53 65332.4 8705.8 65332.4 8725.17 65332.4 8816.3 65254.9 8889.97 65148.2 8889.97 64956.3 8889.97 64867.1 8626.3 64867.1 8593.34 64867.1 8568.14 64894.3 8568.14 64900.1 8568.14 64927.2 8568.14 64929.2 8577.84 64935 8599.16 64985.4 8765.89 65070.7 8835.69 65142.4 8835.69 65173.4 8835.69 65190.9 8820.17 65190.9 8767.83 65190.9 8723.23 65179.3 8694.16 65130.8 8573.95L65008.6 8261.83"/>
<path transform="matrix(.00359712,0,0,-.00359712,0,123)" d="M66677 9602.84H66611.1C66605.3 9560.19 66585.9 9445.81 66560.7 9426.42 66545.2 9414.8 66395.9 9414.8 66368.8 9414.8H66012.1C66215.6 9595.09 66283.5 9649.38 66399.8 9740.48 66543.3 9854.88 66677 9975.08 66677 10159.3 66677 10393.8 66471.5 10537.3 66223.4 10537.3 65983 10537.3 65820.1 10368.6 65820.1 10190.3 65820.1 10091.4 65903.5 10081.7 65922.9 10081.7 65969.4 10081.7 66025.6 10114.7 66025.6 10184.5 66025.6 10219.3 66012.1 10287.2 65911.3 10287.2 65971.4 10424.9 66103.2 10467.5 66194.3 10467.5 66388.2 10467.5 66489 10316.3 66489 10159.3 66489 9990.58 66368.8 9856.81 66306.8 9787.02L65839.5 9325.61C65820.1 9308.16 65820.1 9304.28 65820.1 9250H66618.9L66677 9602.84"/>
<path transform="matrix(.00359712,0,0,-.00359712,0,123)" d="M20671.1 3581.84C20712.7 3581.84 20765.3 3581.84 20765.3 3637.25 20765.3 3692.66 20712.7 3692.66 20673.9 3692.66H19014.5C18975.8 3692.66 18923.1 3692.66 18923.1 3637.25 18923.1 3581.84 18975.8 3581.84 19017.3 3581.84H20671.1ZM20673.9 3044.44C20712.7 3044.44 20765.3 3044.44 20765.3 3099.84 20765.3 3155.25 20712.7 3155.25 20671.1 3155.25H19017.3C18975.8 3155.25 18923.1 3155.25 18923.1 3099.84 18923.1 3044.44 18975.8 3044.44 19014.5 3044.44H20673.9"/>
<path transform="matrix(.00359712,0,0,-.00359712,0,123)" d="M22603.9 2011.16C22603.9 2019.47 22603.9 2025 22556.8 2072.09 22210.6 2421.14 22121.9 2944.7 22121.9 3368.55 22121.9 3850.56 22227.2 4332.58 22567.9 4678.84 22603.9 4712.09 22603.9 4717.63 22603.9 4725.94 22603.9 4745.33 22592.8 4753.64 22576.2 4753.64 22548.5 4753.64 22299.2 4565.27 22135.8 4213.45 21994.5 3908.73 21961.3 3601.25 21961.3 3368.55 21961.3 3152.47 21991.7 2817.28 22144.1 2504.25 22310.3 2163.52 22548.5 1983.45 22576.2 1983.45 22592.8 1983.45 22603.9 1991.77 22603.9 2011.16"/>
<path transform="matrix(.00359712,0,0,-.00359712,0,123)" d="M24594.5 3313.14C24641.6 3313.14 24691.5 3313.14 24691.5 3368.55 24691.5 3423.95 24641.6 3423.95 24594.5 3423.95H23095.9C23048.8 3423.95 22998.9 3423.95 22998.9 3368.55 22998.9 3313.14 23048.8 3313.14 23095.9 3313.14H24594.5"/>
<path transform="matrix(.00359712,0,0,-.00359712,0,123)" d="M25709.7 4407.38C25709.7 4462.77 25671 4507.09 25607.2 4507.09 25532.4 4507.09 25457.6 4435.06 25457.6 4360.28 25457.6 4307.64 25496.4 4260.55 25562.9 4260.55 25626.6 4260.55 25709.7 4324.27 25709.7 4407.38ZM25499.2 3365.78C25532.4 3446.11 25532.4 3451.66 25560.1 3526.45 25582.3 3581.84 25596.2 3620.64 25596.2 3673.27 25596.2 3797.92 25507.5 3900.42 25369 3900.42 25108.6 3900.42 25003.3 3498.75 25003.3 3473.81 25003.3 3446.11 25031 3446.11 25036.6 3446.11 25064.3 3446.11 25067 3451.66 25080.9 3495.97 25155.7 3756.38 25266.5 3839.48 25360.7 3839.48 25382.8 3839.48 25429.9 3839.48 25429.9 3750.83 25429.9 3692.66 25410.5 3634.48 25399.5 3606.78 25377.3 3534.77 25252.7 3213.42 25208.3 3094.3 25180.6 3022.28 25144.6 2930.86 25144.6 2872.69 25144.6 2742.48 25238.8 2645.53 25371.8 2645.53 25632.2 2645.53 25734.7 3047.2 25734.7 3072.14 25734.7 3099.84 25709.7 3099.84 25701.4 3099.84 25673.7 3099.84 25673.7 3091.53 25659.9 3049.97 25610 2875.45 25518.6 2706.47 25377.3 2706.47 25330.2 2706.47 25310.8 2734.17 25310.8 2797.89 25310.8 2867.14 25327.5 2905.92 25391.2 3074.91L25499.2 3365.78"/>
<path transform="matrix(.00359712,0,0,-.00359712,0,123)" d="M27180.8 3720.36C27183.5 3736.98 27189.1 3750.83 27189.1 3770.22 27189.1 3817.31 27155.8 3845.02 27108.7 3845.02 27081 3845.02 27006.2 3825.63 26995.2 3725.91 26945.3 3828.39 26848.3 3900.42 26737.5 3900.42 26421.7 3900.42 26078.2 3512.59 26078.2 3113.69 26078.2 2839.44 26247.2 2676 26446.7 2676 26610.1 2676 26740.3 2806.2 26768 2836.67L26770.8 2833.91C26712.6 2587.36 26679.4 2473.78 26679.4 2468.23 26668.3 2443.3 26574.1 2169.06 26280.5 2169.06 26227.8 2169.06 26136.4 2171.83 26058.8 2196.75 26141.9 2221.69 26172.4 2293.72 26172.4 2340.81 26172.4 2385.13 26141.9 2437.77 26067.1 2437.77 26006.2 2437.77 25917.5 2387.91 25917.5 2277.09 25917.5 2163.52 26020 2108.11 26286 2108.11 26632.3 2108.11 26831.7 2324.19 26873.3 2490.39L27180.8 3720.36ZM26820.6 3030.58C26804 2958.56 26740.3 2889.3 26679.4 2836.67 26621.2 2786.81 26535.3 2736.94 26455 2736.94 26316.5 2736.94 26274.9 2881 26274.9 2991.8 26274.9 3124.77 26355.3 3451.66 26430 3592.94 26504.8 3728.67 26624 3839.48 26740.3 3839.48 26923.1 3839.48 26961.9 3615.09 26961.9 3601.25 26961.9 3587.39 26956.4 3570.77 26953.6 3559.69L26820.6 3030.58"/>
<path transform="matrix(.00359712,0,0,-.00359712,0,123)" d="M28098.6 3368.55C28098.6 3584.63 28068.1 3919.81 27915.8 4232.84 27749.5 4573.58 27511.3 4753.64 27483.6 4753.64 27467 4753.64 27455.9 4742.56 27455.9 4725.94 27455.9 4717.63 27455.9 4712.09 27508.5 4662.22 27780 4387.97 27937.9 3947.52 27937.9 3368.55 27937.9 2894.84 27835.4 2407.3 27491.9 2058.25 27455.9 2025 27455.9 2019.47 27455.9 2011.16 27455.9 1994.53 27467 1983.45 27483.6 1983.45 27511.3 1983.45 27760.6 2171.83 27924.1 2523.64 28065.3 2828.36 28098.6 3135.84 28098.6 3368.55"/>
<path transform="matrix(.00359712,0,0,-.00359712,0,123)" d="M30775.1 73.8281C30775.1 84.9063 30769.6 90.4531 30764 98.7656 30661.5 201.25 30476 386.859 30290.3 686.047 29844.3 1400.75 29642.1 2301.06 29642.1 3367.58 29642.1 4112.77 29741.8 5074.02 30198.9 5899.53 30417.8 6292.91 30644.9 6520.06 30766.8 6641.94 30775.1 6650.25 30775.1 6655.8 30775.1 6664.11 30775.1 6691.81 30755.7 6691.81 30717 6691.81 30678.2 6691.81 30672.6 6691.81 30631.1 6650.25 29703.1 5805.34 29412.2 4536.59 29412.2 3370.36 29412.2 2281.67 29661.5 1184.67 30365.1 356.391 30420.5 292.672 30525.8 179.094 30639.4 79.375 30672.6 46.125 30678.2 46.125 30717 46.125 30755.7 46.125 30775.1 46.125 30775.1 73.8281"/>
<path transform="matrix(.00359712,0,0,-.00359712,0,123)" d="M31370.9 2994.58C31260.1 2808.97 31152 2770.19 31030.1 2761.88 30996.9 2759.11 30972 2759.11 30972 2706.47 30972 2689.84 30985.8 2676 31008 2676 31082.8 2676 31168.6 2684.31 31246.2 2684.31 31337.6 2684.31 31434.6 2676 31523.2 2676 31539.8 2676 31575.9 2676 31575.9 2728.64 31575.9 2759.11 31550.9 2761.88 31531.5 2761.88 31467.8 2767.42 31401.3 2789.58 31401.3 2858.83 31401.3 2892.08 31418 2922.55 31440.1 2961.33L31650.7 3315.91H32346C32351.5 3257.73 32390.3 2881 32390.3 2853.3 32390.3 2770.19 32246.3 2761.88 32190.8 2761.88 32152.1 2761.88 32124.4 2761.88 32124.4 2706.47 32124.4 2676 32157.6 2676 32163.1 2676 32276.7 2676 32395.8 2684.31 32509.4 2684.31 32578.7 2684.31 32753.2 2676 32822.4 2676 32839.1 2676 32872.3 2676 32872.3 2731.41 32872.3 2761.88 32844.6 2761.88 32808.6 2761.88 32636.8 2761.88 32636.8 2781.27 32628.5 2861.61L32459.5 4592.97C32454 4648.38 32454 4659.45 32406.9 4659.45 32362.6 4659.45 32351.5 4640.06 32334.9 4612.36L31370.9 2994.58ZM31703.3 3401.8 32249 4315.95 32337.7 3401.8H31703.3Z"/>
<path transform="matrix(.00359712,0,0,-.00359712,0,123)" d="M33580.1 3471.69C33580.1 3502.7 33556.9 3545.36 33502.6 3545.36 33450.3 3545.36 33394 3494.95 33394 3438.73 33394 3405.77 33419.2 3365.06 33471.6 3365.06 33527.8 3365.06 33580.1 3419.34 33580.1 3471.69ZM33184.6 2486.83C33176.9 2461.63 33167.2 2438.36 33167.2 2405.41 33167.2 2314.28 33244.8 2240.61 33351.4 2240.61 33545.3 2240.61 33630.5 2508.16 33630.5 2537.23 33630.5 2562.44 33605.3 2562.44 33599.5 2562.44 33572.4 2562.44 33570.5 2550.81 33562.7 2529.48 33518.1 2374.39 33432.8 2294.89 33357.2 2294.89 33318.4 2294.89 33308.7 2320.09 33308.7 2362.75 33308.7 2407.34 33322.3 2444.17 33339.7 2486.83 33359.1 2539.17 33380.5 2591.52 33401.8 2641.92 33419.2 2688.45 33489 2864.88 33496.8 2888.14 33502.6 2907.53 33508.4 2930.8 33508.4 2950.17 33508.4 3041.3 33430.9 3114.97 33324.2 3114.97 33132.3 3114.97 33043.1 2851.3 33043.1 2818.34 33043.1 2793.14 33070.3 2793.14 33076.1 2793.14 33103.2 2793.14 33105.2 2802.84 33111 2824.16 33161.4 2990.89 33246.7 3060.69 33318.4 3060.69 33349.4 3060.69 33366.9 3045.17 33366.9 2992.83 33366.9 2948.23 33355.3 2919.16 33306.8 2798.95L33184.6 2486.83"/>
<path transform="matrix(.00359712,0,0,-.00359712,0,123)" d="M34826.3 4598.52 34427.4 4568.03V4482.16C34621.3 4482.16 34643.5 4462.77 34643.5 4327.03V2886.53C34643.5 2761.88 34613 2761.88 34427.4 2761.88V2676C34518.8 2678.77 34665.7 2684.31 34734.9 2684.31 34804.2 2684.31 34939.9 2678.77 35042.4 2676V2761.88C34856.8 2761.88 34826.3 2761.88 34826.3 2886.53V4598.52"/>
<path transform="matrix(.00359712,0,0,-.00359712,0,123)" d="M36407.8 3268.81C36407.8 3623.41 36130.7 3917.05 35795.5 3917.05 35449.3 3917.05 35180.6 3615.09 35180.6 3268.81 35180.6 2911.47 35468.7 2645.53 35792.8 2645.53 36128 2645.53 36407.8 2917 36407.8 3268.81ZM35795.5 2714.78C35676.4 2714.78 35554.5 2772.95 35479.8 2900.39 35410.5 3022.28 35410.5 3191.25 35410.5 3290.98 35410.5 3399.02 35410.5 3548.61 35477 3670.5 35551.8 3797.92 35682 3856.09 35792.8 3856.09 35914.7 3856.09 36033.8 3795.16 36105.8 3676.03 36177.8 3556.92 36177.8 3396.25 36177.8 3290.98 36177.8 3191.25 36177.8 3041.67 36116.9 2919.78 36055.9 2795.13 35934.1 2714.78 35795.5 2714.78"/>
<path transform="matrix(.00359712,0,0,-.00359712,0,123)" d="M37103 3152.47C36862 3152.47 36862 3429.48 36862 3493.2 36862 3568 36864.8 3656.64 36906.3 3725.91 36928.5 3759.14 36992.2 3836.7 37103 3836.7 37344 3836.7 37344 3559.69 37344 3495.97 37344 3421.19 37341.2 3332.53 37299.7 3263.28 37277.5 3230.03 37213.8 3152.47 37103 3152.47ZM36781.6 3044.44C36781.6 3055.52 36781.6 3119.23 36828.7 3174.64 36936.8 3097.06 37050.3 3088.77 37103 3088.77 37360.6 3088.77 37551.8 3279.91 37551.8 3493.2 37551.8 3595.7 37507.4 3698.2 37438.2 3761.91 37537.9 3856.09 37637.6 3869.95 37687.5 3869.95 37693 3869.95 37706.9 3869.95 37715.2 3867.19 37684.7 3856.09 37670.9 3825.63 37670.9 3792.39 37670.9 3745.3 37706.9 3712.05 37751.2 3712.05 37778.9 3712.05 37831.5 3731.44 37831.5 3795.16 37831.5 3842.25 37798.3 3930.89 37690.3 3930.89 37634.9 3930.89 37513 3914.28 37396.6 3800.7 37280.3 3892.11 37163.9 3900.42 37103 3900.42 36845.4 3900.42 36654.2 3709.28 36654.2 3495.97 36654.2 3374.09 36715.2 3268.81 36784.4 3210.64 36748.4 3169.09 36698.5 3077.67 36698.5 2980.72 36698.5 2894.84 36734.5 2789.58 36820.4 2734.17 36654.2 2687.08 36565.6 2567.97 36565.6 2457.16 36565.6 2257.7 36839.8 2105.34 37177.8 2105.34 37504.7 2105.34 37792.8 2246.63 37792.8 2462.7 37792.8 2559.66 37754 2700.94 37612.7 2778.5 37465.9 2856.06 37305.2 2856.06 37136.2 2856.06 37067 2856.06 36947.8 2856.06 36928.5 2858.83 36839.8 2869.91 36781.6 2955.78 36781.6 3044.44ZM37180.5 2169.06C36900.8 2169.06 36709.6 2310.33 36709.6 2457.16 36709.6 2584.58 36814.9 2687.08 36936.8 2695.39H37100.2C37338.5 2695.39 37648.7 2695.39 37648.7 2457.16 37648.7 2307.56 37452 2169.06 37180.5 2169.06"/>
<path transform="matrix(.00359712,0,0,-.00359712,0,123)" d="M40544 6474.28C40527.3 6526.92 40510.7 6532.45 40480.3 6532.45 40435.9 6532.45 40430.4 6521.38 40416.5 6474.28L39884.7 4826.02C39857 4742.91 39801.6 4634.88 39607.6 4634.88V4549C39699.1 4554.55 39840.3 4557.31 39865.3 4557.31 39945.6 4557.31 40092.4 4551.77 40178.3 4549V4634.88C40028.7 4637.64 39965 4712.44 39965 4778.92 39965 4792.78 39965 4801.09 39978.8 4839.88L40394.4 6130.78 40832.1 4767.84C40845.9 4729.06 40845.9 4723.52 40845.9 4717.98 40845.9 4634.88 40682.5 4634.88 40610.5 4634.88V4549C40707.4 4557.31 40904.1 4557.31 41009.4 4557.31 41117.4 4557.31 41242.1 4551.77 41350.1 4549V4634.88C41139.6 4634.88 41131.3 4651.5 41098 4754L40544 6474.28"/>
<path transform="matrix(.00359712,0,0,-.00359712,0,123)" d="M42422 5906.84H42356.1C42350.3 5864.19 42330.9 5749.81 42305.7 5730.42 42290.2 5718.8 42140.9 5718.8 42113.8 5718.8H41757.1C41960.6 5899.09 42028.5 5953.38 42144.8 6044.48 42288.3 6158.88 42422 6279.08 42422 6463.25 42422 6697.83 42216.5 6841.3 41968.4 6841.3 41728 6841.3 41565.1 6672.63 41565.1 6494.27 41565.1 6395.39 41648.5 6385.7 41667.9 6385.7 41714.4 6385.7 41770.6 6418.66 41770.6 6488.45 41770.6 6523.34 41757.1 6591.2 41656.3 6591.2 41716.4 6728.86 41848.2 6771.5 41939.3 6771.5 42133.2 6771.5 42234 6620.28 42234 6463.25 42234 6294.58 42113.8 6160.81 42051.8 6091.02L41584.5 5629.61C41565.1 5612.16 41565.1 5608.28 41565.1 5554H42363.9L42422 5906.84"/>
<path transform="matrix(.00359712,0,0,-.00359712,0,123)" stroke-width="110.783" stroke-linecap="butt" stroke-miterlimit="10" stroke-linejoin="miter" fill="none" stroke="#000000" d="M38707.3 3367.97H43497.6"/>
<path transform="matrix(.00359712,0,0,-.00359712,0,123)" d="M40532.5 1413.14C40579.6 1413.14 40629.5 1413.14 40629.5 1468.55 40629.5 1523.95 40579.6 1523.95 40532.5 1523.95H39033.9C38986.8 1523.95 38936.9 1523.95 38936.9 1468.55 38936.9 1413.14 38986.8 1413.14 39033.9 1413.14H40532.5"/>
<path transform="matrix(.00359712,0,0,-.00359712,0,123)" d="M40986.7 438.031C40964.5 343.844 40959 324.453 40837.1 324.453 40803.8 324.453 40773.4 324.453 40773.4 271.828 40773.4 249.672 40787.2 238.578 40809.4 238.578 40884.2 238.578 40964.5 246.891 41042.1 246.891 41133.5 246.891 41227.7 238.578 41316.3 238.578 41330.2 238.578 41366.2 238.578 41366.2 293.984 41366.2 324.453 41338.5 324.453 41299.7 324.453 41161.2 324.453 41161.2 343.844 41161.2 368.781 41161.2 402.031 41277.5 853.563 41296.9 922.813 41332.9 842.484 41410.5 745.531 41551.8 745.531 41873.1 745.531 42219.4 1149.97 42219.4 1557.19 42219.4 1817.59 42061.5 2000.42 41851 2000.42 41712.5 2000.42 41579.5 1900.7 41488.1 1792.66 41460.4 1942.25 41341.3 2000.42 41238.8 2000.42 41111.3 2000.42 41058.7 1892.39 41033.8 1842.52 40983.9 1748.33 40947.9 1582.13 40947.9 1573.81 40947.9 1546.11 40975.6 1546.11 40981.1 1546.11 41008.8 1546.11 41011.6 1548.88 41028.2 1609.83 41075.3 1806.52 41130.7 1939.48 41230.4 1939.48 41277.5 1939.48 41316.3 1917.31 41316.3 1812.05 41316.3 1748.33 41308 1717.86 41296.9 1670.77L40986.7 438.031ZM41474.2 1640.3C41493.6 1715.09 41568.4 1792.66 41618.3 1834.22 41715.2 1920.09 41795.5 1939.48 41842.6 1939.48 41953.5 1939.48 42019.9 1842.52 42019.9 1679.08 42019.9 1515.64 41928.5 1197.06 41878.7 1091.8 41784.5 897.891 41651.5 806.469 41549 806.469 41366.2 806.469 41330.2 1036.39 41330.2 1053.02 41330.2 1058.56 41330.2 1064.09 41338.5 1097.34L41474.2 1640.3"/>
<path transform="matrix(.00359712,0,0,-.00359712,0,123)" d="M43234 1928.84H43168.1C43162.3 1886.19 43142.9 1771.81 43117.7 1752.42 43102.2 1740.8 42952.9 1740.8 42925.8 1740.8H42569.1C42772.6 1921.09 42840.5 1975.38 42956.8 2066.48 43100.3 2180.88 43234 2301.08 43234 2485.25 43234 2719.83 43028.5 2863.3 42780.4 2863.3 42540 2863.3 42377.1 2694.63 42377.1 2516.27 42377.1 2417.39 42460.5 2407.7 42479.9 2407.7 42526.4 2407.7 42582.6 2440.66 42582.6 2510.45 42582.6 2545.34 42569.1 2613.2 42468.3 2613.2 42528.4 2750.86 42660.2 2793.5 42751.3 2793.5 42945.2 2793.5 43046 2642.28 43046 2485.25 43046 2316.58 42925.8 2182.81 42863.8 2113.02L42396.5 1651.61C42377.1 1634.16 42377.1 1630.28 42377.1 1576H43175.9L43234 1928.84"/>
<path transform="matrix(.00359712,0,0,-.00359712,0,123)" d="M46270.5 3313.14C46317.6 3313.14 46367.5 3313.14 46367.5 3368.55 46367.5 3423.95 46317.6 3423.95 46270.5 3423.95H44771.9C44724.8 3423.95 44674.9 3423.95 44674.9 3368.55 44674.9 3313.14 44724.8 3313.14 44771.9 3313.14H46270.5"/>
<path transform="matrix(.00359712,0,0,-.00359712,0,123)" d="M47946.3 3886.58C47600.1 3803.47 47331.3 3443.34 47331.3 3108.16 47331.3 2842.22 47508.6 2642.75 47769 2642.75 48093.2 2642.75 48323.1 3077.67 48323.1 3459.97 48323.1 3712.05 48212.3 3850.56 48118.1 3975.22 48018.4 4099.88 47854.9 4307.64 47854.9 4429.53 47854.9 4490.47 47910.3 4556.95 48007.3 4556.95 48090.4 4556.95 48145.8 4520.94 48204 4482.16 48259.4 4448.92 48314.8 4412.91 48356.3 4412.91 48425.6 4412.91 48467.1 4479.39 48467.1 4523.72 48467.1 4584.66 48422.8 4592.97 48323.1 4615.13 48179 4645.61 48140.3 4645.61 48095.9 4645.61 47879.8 4645.61 47780.1 4526.48 47780.1 4360.28 47780.1 4210.69 47860.5 4055.55 47946.3 3886.58ZM47979.6 3825.63C48048.8 3698.2 48131.9 3548.61 48131.9 3349.16 48131.9 3166.33 48026.7 2703.7 47769 2703.7 47616.7 2703.7 47503.1 2820.05 47503.1 3030.58 47503.1 3205.11 47605.6 3725.91 47979.6 3825.63"/>
<path transform="matrix(.00359712,0,0,-.00359712,0,123)" d="M49964 3508.52C49979.5 3524.03 49991.1 3537.61 49991.1 3562.81 49991.1 3584.13 49975.6 3584.13 49938.8 3584.13H49033.4C48983 3584.13 48981.1 3582.19 48969.5 3545.36L48860.9 3196.39C48853.1 3173.13 48853.1 3171.19 48853.1 3165.38 48853.1 3155.69 48860.9 3138.23 48886.1 3138.23 48911.3 3138.23 48915.2 3149.86 48921 3169.25 49014 3442.61 49165.3 3514.34 49415.3 3514.34H49764.3L48634 2345.3C48620.5 2331.73 48601.1 2312.34 48601.1 2281.33 48601.1 2260 48618.5 2260 48653.4 2260H49591.8C49642.2 2260 49644.1 2261.94 49655.8 2298.78L49795.3 2731.11C49803.1 2756.31 49803.1 2760.19 49803.1 2762.13 49803.1 2764.06 49803.1 2789.27 49772.1 2789.27 49746.9 2789.27 49743 2781.52 49729.4 2738.86 49640.2 2473.25 49541.4 2337.55 49204 2337.55H48833.7L49964 3508.52"/>
<path transform="matrix(.00359712,0,0,-.00359712,0,123)" d="M50502.6 2845.95C50502.6 2879.14 50477.8 2905.42 50441.8 2905.42 50403.1 2905.42 50357.4 2868.08 50357.4 2822.44 50357.4 2783.72 50387.9 2762.98 50416.9 2762.98 50462.5 2762.98 50502.6 2804.47 50502.6 2845.95ZM50567.6 2182.14C50567.6 2201.5 50544.1 2201.5 50538.6 2201.5 50515.1 2201.5 50513.7 2195.97 50505.4 2169.7 50481.9 2093.64 50419.7 2014.81 50350.5 2014.81 50318.7 2014.81 50309 2036.94 50309 2067.36 50309 2096.41 50316 2111.61 50327 2137.89 50338.1 2165.55 50349.1 2193.2 50356 2212.56 50361.6 2225.02 50415.5 2353.63 50434.9 2403.41 50445.9 2431.08 50454.2 2449.05 50454.2 2472.56 50454.2 2538.94 50390.6 2594.27 50303.5 2594.27 50158.3 2594.27 50080.8 2417.25 50080.8 2379.91 50080.8 2360.55 50103 2360.55 50109.9 2360.55 50133.4 2360.55 50134.8 2367.45 50141.7 2388.2 50172.1 2486.39 50238.5 2547.23 50298 2547.23 50324.3 2547.23 50339.5 2532.03 50339.5 2494.69 50339.5 2489.16 50339.5 2471.17 50331.2 2444.91 50321.5 2420.02 50259.3 2272.03 50239.9 2225.02 50230.2 2201.5 50230.2 2198.73 50209.5 2151.72 50202.5 2132.36 50194.3 2113 50194.3 2089.48 50194.3 2017.58 50262 1967.78 50345 1967.78 50490.2 1967.78 50567.6 2147.56 50567.6 2182.14"/>
<path transform="matrix(.00359712,0,0,-.00359712,0,123)" d="M52430.9 3367.58C52430.9 4456.27 52181.6 5553.27 51477.9 6381.55 51422.5 6445.27 51317.3 6558.84 51203.7 6658.56 51170.5 6691.81 51164.9 6691.81 51126.1 6691.81 51092.9 6691.81 51068 6691.81 51068 6664.11 51068 6653.03 51079 6641.94 51084.6 6636.41 51181.5 6536.67 51367.1 6351.08 51552.7 6051.89 51998.7 5337.19 52201 4436.88 52201 3370.36 52201 2625.17 52101.2 1663.92 51644.2 838.406 51425.3 445.031 51195.4 215.109 51079 98.7656 51073.5 90.4531 51068 82.1406 51068 73.8281 51068 46.125 51092.9 46.125 51126.1 46.125 51164.9 46.125 51170.5 46.125 51212 87.6719 52140 932.594 52430.9 2201.33 52430.9 3367.58"/>
</svg>
