<svg xmlns="http://www.w3.org/2000/svg" xmlns:xlink="http://www.w3.org/1999/xlink" version="1.1" width="317pt" height="116pt" viewBox="0 0 317 116">
<path transform="matrix(.00359712,0,0,-.00359712,0,116)" d="M789.625 31432.4C803.469 31462.8 803.469 31468.4 803.469 31482.2 803.469 31512.7 778.547 31537.6 748.063 31537.6 723.141 31537.6 703.75 31523.8 684.359 31473.9L199.578 30202.4C194.031 30185.8 185.719 30169.2 185.719 30152.5 185.719 30144.2 185.719 30138.7 199.578 30105.5L684.359 28833.9C695.438 28803.5 709.281 28767.5 748.063 28767.5 778.547 28767.5 803.469 28792.4 803.469 28822.9 803.469 28831.2 803.469 28836.7 789.625 28867.2L299.297 30152.5 789.625 31432.4"/>
<path transform="matrix(.00359712,0,0,-.00359712,0,116)" d="M2833.42 29908.8H2764.16C2750.31 29836.8 2739.23 29773 2714.3 29706.5 2700.45 29662.2 2692.14 29640.1 2531.47 29640.1H2309.86C2345.86 29795.2 2431.73 29928.2 2556.39 30111 2686.59 30307.7 2800.17 30498.8 2800.17 30717.7 2800.17 31102.7 2426.2 31413 1958.03 31413 1481.56 31413 1113.13 31097.2 1113.13 30717.7 1113.13 30498.8 1226.7 30307.7 1356.91 30111 1478.8 29928.2 1567.44 29795.2 1603.45 29640.1H1381.84C1221.17 29640.1 1212.86 29662.2 1199 29703.8 1176.84 29767.5 1163 29839.5 1149.14 29908.8H1079.89L1171.3 29460H1614.53C1675.48 29460 1683.8 29460 1683.8 29518.2 1683.8 29712.1 1597.91 29955.9 1534.2 30133.2 1476.03 30293.8 1398.45 30512.7 1398.45 30720.4 1398.45 31163.7 1703.19 31352 1955.27 31352 2221.2 31352 2514.84 31152.6 2514.84 30720.4 2514.84 30512.7 2440.05 30302.1 2359.72 30075 2318.16 29958.6 2229.52 29709.3 2229.52 29518.2 2229.52 29460 2237.83 29460 2301.55 29460H2742L2833.42 29908.8"/>
<path transform="matrix(.00359712,0,0,-.00359712,0,116)" d="M3398.45 31437.9C3398.45 31487.8 3398.45 31537.6 3343.06 31537.6 3287.66 31537.6 3287.66 31487.8 3287.66 31437.9V28867.2C3287.66 28817.3 3287.66 28767.5 3343.06 28767.5 3398.45 28767.5 3398.45 28817.3 3398.45 28867.2V31437.9"/>
<path transform="matrix(.00359712,0,0,-.00359712,0,116)" d="M5371.88 31141.5C5391.27 31219.1 5402.34 31235.7 5435.58 31244 5460.52 31249.5 5551.94 31249.5 5610.11 31249.5 5889.89 31249.5 6014.55 31238.5 6014.55 31022.4 6014.55 30980.8 6003.47 30872.8 5992.39 30800.8 5989.63 30789.7 5984.08 30756.5 5984.08 30748.1 5984.08 30731.5 5992.39 30712.1 6017.33 30712.1 6047.8 30712.1 6053.34 30734.3 6058.88 30775.8L6133.67 31257.9C6136.44 31268.9 6139.22 31296.6 6139.22 31304.9 6139.22 31335.4 6111.52 31335.4 6064.42 31335.4H4526.97C4460.48 31335.4 4457.7 31332.6 4438.31 31280L4272.11 30792.5C4269.33 30786.9 4255.48 30748.1 4255.48 30742.6 4255.48 30726 4269.33 30712.1 4288.73 30712.1 4316.42 30712.1 4319.2 30726 4335.81 30770.3 4485.41 31199.7 4557.44 31249.5 4967.42 31249.5H5075.45C5153.03 31249.5 5153.03 31238.5 5153.03 31216.3 5153.03 31199.7 5144.72 31166.4 5141.94 31158.1L4770.73 29678.8C4745.81 29576.3 4737.5 29545.9 4441.09 29545.9 4341.36 29545.9 4324.73 29545.9 4324.73 29493.3 4324.73 29460 4355.22 29460 4371.83 29460 4446.63 29460 4524.19 29465.5 4598.98 29465.5 4676.55 29465.5 4756.89 29468.3 4834.45 29468.3 4912.02 29468.3 4989.58 29465.5 5064.38 29465.5 5144.72 29465.5 5227.83 29460 5305.39 29460 5333.09 29460 5366.33 29460 5366.33 29515.4 5366.33 29545.9 5344.17 29545.9 5272.14 29545.9 5202.89 29545.9 5166.88 29545.9 5094.84 29551.4 5014.52 29559.7 4992.36 29568 4992.36 29612.4 4992.36 29615.1 4992.36 29629 5003.44 29670.5L5371.88 31141.5"/>
<path transform="matrix(.00359712,0,0,-.00359712,0,116)" d="M6976.97 31169.2C6976.97 31280 7048.98 31457.3 7350.94 31476.7 7364.8 31479.5 7375.88 31490.5 7375.88 31507.2 7375.88 31537.6 7353.7 31537.6 7323.23 31537.6 7046.22 31537.6 6794.13 31396.4 6791.36 31191.4V30559.8C6791.36 30451.7 6791.36 30363.1 6680.55 30271.7 6583.59 30191.3 6478.33 30185.8 6417.39 30183 6403.53 30180.3 6392.45 30169.2 6392.45 30152.5 6392.45 30124.8 6409.08 30124.8 6436.78 30122.1 6619.61 30111 6752.58 30011.3 6783.05 29875.5 6791.36 29845.1 6791.36 29839.5 6791.36 29739.8V29191.3C6791.36 29074.9 6791.36 28986.3 6924.33 28881 7032.36 28797.9 7215.2 28767.5 7323.23 28767.5 7353.7 28767.5 7375.88 28767.5 7375.88 28797.9 7375.88 28825.6 7359.25 28825.6 7331.55 28828.4 7157.03 28839.5 7021.28 28928.1 6985.28 29069.4 6976.97 29094.3 6976.97 29099.9 6976.97 29199.6V29781.3C6976.97 29908.8 6954.8 29955.9 6866.16 30044.5 6807.98 30102.7 6727.64 30130.4 6650.08 30152.5 6877.23 30216.3 6976.97 30343.7 6976.97 30504.4V31169.2"/>
<path transform="matrix(.00359712,0,0,-.00359712,0,116)" d="M8787.58 31316C8787.58 31321.6 8795.88 31352 8795.88 31354.8 8795.88 31357.6 8795.88 31382.5 8762.64 31382.5 8734.94 31382.5 8732.17 31374.2 8721.09 31327.1L8560.42 30687.2C8119.95 30673.3 7712.73 30304.9 7712.73 29928.2 7712.73 29665 7906.66 29446.2 8244.61 29426.8 8222.45 29340.9 8203.06 29252.2 8180.91 29166.4 8147.66 29036.2 8119.95 28930.9 8119.95 28922.6 8119.95 28894.9 8139.34 28892.1 8153.2 28892.1 8167.05 28892.1 8172.59 28894.9 8180.91 28903.2 8186.44 28908.7 8203.06 28975.2 8211.38 29014L8316.64 29426.8C8762.64 29440.6 9164.31 29814.6 9164.31 30185.8 9164.31 30404.6 9017.5 30659.5 8632.44 30687.2L8787.58 31316ZM8258.47 29487.7C8092.25 29496 7892.8 29593 7892.8 29870 7892.8 30202.4 8131.03 30590.2 8543.8 30626.3L8258.47 29487.7ZM8615.83 30626.3C8826.36 30615.2 8984.25 30487.7 8984.25 30244 8984.25 29917.1 8746.02 29520.9 8330.48 29487.7L8615.83 30626.3"/>
<path transform="matrix(.00359712,0,0,-.00359712,0,116)" d="M10144.9 28795.2C10144.9 28803.5 10144.9 28809 10097.8 28856.1 9751.56 29205.1 9662.92 29728.7 9662.92 30152.5 9662.92 30634.6 9768.19 31116.6 10108.9 31462.8 10144.9 31496.1 10144.9 31501.6 10144.9 31509.9 10144.9 31529.3 10133.8 31537.6 10117.2 31537.6 10089.5 31537.6 9840.22 31349.3 9676.77 30997.5 9535.48 30692.7 9502.25 30385.3 9502.25 30152.5 9502.25 29936.5 9532.72 29601.3 9685.08 29288.3 9851.3 28947.5 10089.5 28767.5 10117.2 28767.5 10133.8 28767.5 10144.9 28775.8 10144.9 28795.2"/>
<path transform="matrix(.00359712,0,0,-.00359712,0,116)" d="M10429.7 29122C10407.5 29027.8 10402 29008.5 10280.1 29008.5 10246.8 29008.5 10216.4 29008.5 10216.4 28955.8 10216.4 28933.7 10230.2 28922.6 10252.4 28922.6 10327.2 28922.6 10407.5 28930.9 10485.1 28930.9 10576.5 28930.9 10670.7 28922.6 10759.3 28922.6 10773.2 28922.6 10809.2 28922.6 10809.2 28978 10809.2 29008.5 10781.5 29008.5 10742.7 29008.5 10604.2 29008.5 10604.2 29027.8 10604.2 29052.8 10604.2 29086 10720.5 29537.6 10739.9 29606.8 10775.9 29526.5 10853.5 29429.5 10994.8 29429.5 11316.1 29429.5 11662.4 29834 11662.4 30241.2 11662.4 30501.6 11504.5 30684.4 11294 30684.4 11155.5 30684.4 11022.5 30584.7 10931.1 30476.7 10903.4 30626.3 10784.3 30684.4 10681.8 30684.4 10554.3 30684.4 10501.7 30576.4 10476.8 30526.5 10426.9 30432.3 10390.9 30266.1 10390.9 30257.8 10390.9 30230.1 10418.6 30230.1 10424.1 30230.1 10451.8 30230.1 10454.6 30232.9 10471.2 30293.8 10518.3 30490.5 10573.7 30623.5 10673.4 30623.5 10720.5 30623.5 10759.3 30601.3 10759.3 30496 10759.3 30432.3 10751 30401.9 10739.9 30354.8L10429.7 29122ZM10917.2 30324.3C10936.6 30399.1 11011.4 30476.7 11061.3 30518.2 11158.2 30604.1 11238.5 30623.5 11285.6 30623.5 11396.5 30623.5 11462.9 30526.5 11462.9 30363.1 11462.9 30199.6 11371.5 29881.1 11321.7 29775.8 11227.5 29581.9 11094.5 29490.5 10992 29490.5 10809.2 29490.5 10773.2 29720.4 10773.2 29737 10773.2 29742.6 10773.2 29748.1 10781.5 29781.3L10917.2 30324.3"/>
<path transform="matrix(.00359712,0,0,-.00359712,0,116)" d="M12347.5 30278C12347.5 30330.4 12343.6 30332.3 12289.3 30332.3 12165.2 30210.2 11988.8 30208.2 11909.3 30208.2V30138.4C11955.8 30138.4 12083.8 30138.4 12190.4 30192.7V29204C12190.4 29140 12190.4 29114.8 11996.6 29114.8H11922.9V29045C11957.8 29046.9 12196.3 29052.8 12268 29052.8 12328.1 29052.8 12572.4 29046.9 12615 29045V29114.8H12541.3C12347.5 29114.8 12347.5 29140 12347.5 29204V30278"/>
<path transform="matrix(.00359712,0,0,-.00359712,0,116)" d="M13741.6 30152.5C13741.6 30368.6 13711.1 30703.8 13558.8 31016.8 13392.5 31357.6 13154.3 31537.6 13126.6 31537.6 13110 31537.6 13098.9 31526.6 13098.9 31509.9 13098.9 31501.6 13098.9 31496.1 13151.5 31446.2 13423 31172 13580.9 30731.5 13580.9 30152.5 13580.9 29678.8 13478.4 29191.3 13134.9 28842.3 13098.9 28809 13098.9 28803.5 13098.9 28795.2 13098.9 28778.5 13110 28767.5 13126.6 28767.5 13154.3 28767.5 13403.6 28955.8 13567.1 29307.6 13708.3 29612.4 13741.6 29919.8 13741.6 30152.5"/>
<path transform="matrix(.00359712,0,0,-.00359712,0,116)" d="M15228.6 31316C15228.6 31321.6 15236.9 31352 15236.9 31354.8 15236.9 31357.6 15236.9 31382.5 15203.6 31382.5 15175.9 31382.5 15173.2 31374.2 15162.1 31327.1L15001.4 30687.2C14561 30673.3 14153.7 30304.9 14153.7 29928.2 14153.7 29665 14347.7 29446.2 14685.6 29426.8 14663.5 29340.9 14644.1 29252.2 14621.9 29166.4 14588.7 29036.2 14561 28930.9 14561 28922.6 14561 28894.9 14580.3 28892.1 14594.2 28892.1 14608 28892.1 14613.6 28894.9 14621.9 28903.2 14627.4 28908.7 14644.1 28975.2 14652.4 29014L14757.6 29426.8C15203.6 29440.6 15605.3 29814.6 15605.3 30185.8 15605.3 30404.6 15458.5 30659.5 15073.4 30687.2L15228.6 31316ZM14699.5 29487.7C14533.3 29496 14333.8 29593 14333.8 29870 14333.8 30202.4 14572 30590.2 14984.8 30626.3L14699.5 29487.7ZM15056.8 30626.3C15267.4 30615.2 15425.3 30487.7 15425.3 30244 15425.3 29917.1 15187 29520.9 14771.5 29487.7L15056.8 30626.3"/>
<path transform="matrix(.00359712,0,0,-.00359712,0,116)" d="M16584.9 28795.2C16584.9 28803.5 16584.9 28809 16537.8 28856.1 16191.6 29205.1 16102.9 29728.7 16102.9 30152.5 16102.9 30634.6 16208.2 31116.6 16548.9 31462.8 16584.9 31496.1 16584.9 31501.6 16584.9 31509.9 16584.9 31529.3 16573.8 31537.6 16557.2 31537.6 16529.5 31537.6 16280.2 31349.3 16116.8 30997.5 15975.5 30692.7 15942.3 30385.3 15942.3 30152.5 15942.3 29936.5 15972.7 29601.3 16125.1 29288.3 16291.3 28947.5 16529.5 28767.5 16557.2 28767.5 16573.8 28767.5 16584.9 28775.8 16584.9 28795.2"/>
<path transform="matrix(.00359712,0,0,-.00359712,0,116)" d="M16869.7 29122C16847.5 29027.8 16842 29008.5 16720.1 29008.5 16686.8 29008.5 16656.4 29008.5 16656.4 28955.8 16656.4 28933.7 16670.2 28922.6 16692.4 28922.6 16767.2 28922.6 16847.5 28930.9 16925.1 28930.9 17016.5 28930.9 17110.7 28922.6 17199.3 28922.6 17213.2 28922.6 17249.2 28922.6 17249.2 28978 17249.2 29008.5 17221.5 29008.5 17182.7 29008.5 17044.2 29008.5 17044.2 29027.8 17044.2 29052.8 17044.2 29086 17160.5 29537.6 17179.9 29606.8 17215.9 29526.5 17293.5 29429.5 17434.8 29429.5 17756.1 29429.5 18102.4 29834 18102.4 30241.2 18102.4 30501.6 17944.5 30684.4 17734 30684.4 17595.5 30684.4 17462.5 30584.7 17371.1 30476.7 17343.4 30626.3 17224.3 30684.4 17121.8 30684.4 16994.3 30684.4 16941.7 30576.4 16916.8 30526.5 16866.9 30432.3 16830.9 30266.1 16830.9 30257.8 16830.9 30230.1 16858.6 30230.1 16864.1 30230.1 16891.8 30230.1 16894.6 30232.9 16911.2 30293.8 16958.3 30490.5 17013.7 30623.5 17113.4 30623.5 17160.5 30623.5 17199.3 30601.3 17199.3 30496 17199.3 30432.3 17191 30401.9 17179.9 30354.8L16869.7 29122ZM17357.2 30324.3C17376.6 30399.1 17451.4 30476.7 17501.3 30518.2 17598.2 30604.1 17678.5 30623.5 17725.6 30623.5 17836.5 30623.5 17902.9 30526.5 17902.9 30363.1 17902.9 30199.6 17811.5 29881.1 17761.7 29775.8 17667.5 29581.9 17534.5 29490.5 17432 29490.5 17249.2 29490.5 17213.2 29720.4 17213.2 29737 17213.2 29742.6 17213.2 29748.1 17221.5 29781.3L17357.2 30324.3"/>
<path transform="matrix(.00359712,0,0,-.00359712,0,116)" d="M19118 29397.8H19052.1C19046.3 29355.2 19026.9 29240.8 19001.7 29221.4 18986.2 29209.8 18836.9 29209.8 18809.8 29209.8H18453.1C18656.6 29390.1 18724.5 29444.4 18840.8 29535.5 18984.3 29649.9 19118 29770.1 19118 29954.3 19118 30188.8 18912.5 30332.3 18664.4 30332.3 18424 30332.3 18261.1 30163.6 18261.1 29985.3 18261.1 29886.4 18344.5 29876.7 18363.9 29876.7 18410.4 29876.7 18466.6 29909.7 18466.6 29979.5 18466.6 30014.3 18453.1 30082.2 18352.3 30082.2 18412.4 30219.9 18544.2 30262.5 18635.3 30262.5 18829.2 30262.5 18930 30111.3 18930 29954.3 18930 29785.6 18809.8 29651.8 18747.8 29582L18280.5 29120.6C18261.1 29103.2 18261.1 29099.3 18261.1 29045H19059.9L19118 29397.8"/>
<path transform="matrix(.00359712,0,0,-.00359712,0,116)" d="M20181.6 30152.5C20181.6 30368.6 20151.1 30703.8 19998.8 31016.8 19832.5 31357.6 19594.3 31537.6 19566.6 31537.6 19550 31537.6 19538.9 31526.6 19538.9 31509.9 19538.9 31501.6 19538.9 31496.1 19591.5 31446.2 19863 31172 20020.9 30731.5 20020.9 30152.5 20020.9 29678.8 19918.4 29191.3 19574.9 28842.3 19538.9 28809 19538.9 28803.5 19538.9 28795.2 19538.9 28778.5 19550 28767.5 19566.6 28767.5 19594.3 28767.5 19843.6 28955.8 20007.1 29307.6 20148.3 29612.4 20181.6 29919.8 20181.6 30152.5"/>
<path transform="matrix(.00359712,0,0,-.00359712,0,116)" d="M21451.9 30152.5C21451.9 30232.9 21385.4 30299.4 21305.1 30299.4 21224.7 30299.4 21158.2 30232.9 21158.2 30152.5 21158.2 30072.2 21224.7 30005.7 21305.1 30005.7 21385.4 30005.7 21451.9 30072.2 21451.9 30152.5"/>
<path transform="matrix(.00359712,0,0,-.00359712,0,116)" d="M22678.9 30152.5C22678.9 30232.9 22612.4 30299.4 22532.1 30299.4 22451.7 30299.4 22385.2 30232.9 22385.2 30152.5 22385.2 30072.2 22451.7 30005.7 22532.1 30005.7 22612.4 30005.7 22678.9 30072.2 22678.9 30152.5"/>
<path transform="matrix(.00359712,0,0,-.00359712,0,116)" d="M23907.9 30152.5C23907.9 30232.9 23841.4 30299.4 23761.1 30299.4 23680.7 30299.4 23614.2 30232.9 23614.2 30152.5 23614.2 30072.2 23680.7 30005.7 23761.1 30005.7 23841.4 30005.7 23907.9 30072.2 23907.9 30152.5"/>
<path transform="matrix(.00359712,0,0,-.00359712,0,116)" d="M25822.6 31316C25822.6 31321.6 25830.9 31352 25830.9 31354.8 25830.9 31357.6 25830.9 31382.5 25797.6 31382.5 25769.9 31382.5 25767.2 31374.2 25756.1 31327.1L25595.4 30687.2C25155 30673.3 24747.7 30304.9 24747.7 29928.2 24747.7 29665 24941.7 29446.2 25279.6 29426.8 25257.5 29340.9 25238.1 29252.2 25215.9 29166.4 25182.7 29036.2 25155 28930.9 25155 28922.6 25155 28894.9 25174.3 28892.1 25188.2 28892.1 25202 28892.1 25207.6 28894.9 25215.9 28903.2 25221.4 28908.7 25238.1 28975.2 25246.4 29014L25351.6 29426.8C25797.6 29440.6 26199.3 29814.6 26199.3 30185.8 26199.3 30404.6 26052.5 30659.5 25667.4 30687.2L25822.6 31316ZM25293.5 29487.7C25127.3 29496 24927.8 29593 24927.8 29870 24927.8 30202.4 25166 30590.2 25578.8 30626.3L25293.5 29487.7ZM25650.8 30626.3C25861.4 30615.2 26019.3 30487.7 26019.3 30244 26019.3 29917.1 25781 29520.9 25365.5 29487.7L25650.8 30626.3"/>
<path transform="matrix(.00359712,0,0,-.00359712,0,116)" d="M27179.9 28795.2C27179.9 28803.5 27179.9 28809 27132.8 28856.1 26786.6 29205.1 26697.9 29728.7 26697.9 30152.5 26697.9 30634.6 26803.2 31116.6 27143.9 31462.8 27179.9 31496.1 27179.9 31501.6 27179.9 31509.9 27179.9 31529.3 27168.8 31537.6 27152.2 31537.6 27124.5 31537.6 26875.2 31349.3 26711.8 30997.5 26570.5 30692.7 26537.3 30385.3 26537.3 30152.5 26537.3 29936.5 26567.7 29601.3 26720.1 29288.3 26886.3 28947.5 27124.5 28767.5 27152.2 28767.5 27168.8 28767.5 27179.9 28775.8 27179.9 28795.2"/>
<path transform="matrix(.00359712,0,0,-.00359712,0,116)" d="M27464.7 29122C27442.5 29027.8 27437 29008.5 27315.1 29008.5 27281.8 29008.5 27251.4 29008.5 27251.4 28955.8 27251.4 28933.7 27265.2 28922.6 27287.4 28922.6 27362.2 28922.6 27442.5 28930.9 27520.1 28930.9 27611.5 28930.9 27705.7 28922.6 27794.3 28922.6 27808.2 28922.6 27844.2 28922.6 27844.2 28978 27844.2 29008.5 27816.5 29008.5 27777.7 29008.5 27639.2 29008.5 27639.2 29027.8 27639.2 29052.8 27639.2 29086 27755.5 29537.6 27774.9 29606.8 27810.9 29526.5 27888.5 29429.5 28029.8 29429.5 28351.1 29429.5 28697.4 29834 28697.4 30241.2 28697.4 30501.6 28539.5 30684.4 28329 30684.4 28190.5 30684.4 28057.5 30584.7 27966.1 30476.7 27938.4 30626.3 27819.3 30684.4 27716.8 30684.4 27589.3 30684.4 27536.7 30576.4 27511.8 30526.5 27461.9 30432.3 27425.9 30266.1 27425.9 30257.8 27425.9 30230.1 27453.6 30230.1 27459.1 30230.1 27486.8 30230.1 27489.6 30232.9 27506.2 30293.8 27553.3 30490.5 27608.7 30623.5 27708.4 30623.5 27755.5 30623.5 27794.3 30601.3 27794.3 30496 27794.3 30432.3 27786 30401.9 27774.9 30354.8L27464.7 29122ZM27952.2 30324.3C27971.6 30399.1 28046.4 30476.7 28096.3 30518.2 28193.2 30604.1 28273.5 30623.5 28320.6 30623.5 28431.5 30623.5 28497.9 30526.5 28497.9 30363.1 28497.9 30199.6 28406.5 29881.1 28356.7 29775.8 28262.5 29581.9 28129.5 29490.5 28027 29490.5 27844.2 29490.5 27808.2 29720.4 27808.2 29737 27808.2 29742.6 27808.2 29748.1 27816.5 29781.3L27952.2 30324.3"/>
<path transform="matrix(.00359712,0,0,-.00359712,0,116)" d="M28969.5 29167.1C28961.8 29141.9 28950.1 29093.5 28950.1 29087.7 28950.1 29045 28985 29025.6 29016 29025.6 29051 29025.6 29082 29050.8 29091.7 29068.3 29101.4 29085.7 29116.9 29147.8 29126.6 29188.5 29136.3 29225.3 29157.6 29314.5 29169.2 29363 29180.8 29405.6 29192.5 29448.3 29202.2 29492.8 29223.5 29572.3 29227.4 29587.8 29283.6 29667.3 29337.9 29744.9 29429 29845.7 29574.4 29845.7 29686.8 29845.7 29688.8 29746.8 29688.8 29710 29688.8 29593.7 29605.4 29378.5 29574.4 29297 29553.1 29242.8 29545.3 29225.3 29545.3 29192.3 29545.3 29089.6 29630.6 29025.6 29729.5 29025.6 29923.4 29025.6 30008.7 29293.2 30008.7 29322.2 30008.7 29347.4 29983.5 29347.4 29977.6 29347.4 29950.5 29347.4 29948.6 29335.8 29940.8 29314.5 29896.2 29159.4 29812.9 29079.9 29735.3 29079.9 29694.6 29079.9 29686.8 29107 29686.8 29147.8 29686.8 29192.3 29696.5 29217.5 29731.4 29304.8 29754.7 29364.9 29834.2 29570.4 29834.2 29679 29834.2 29867 29684.9 29900 29582.2 29900 29421.2 29900 29312.7 29801.1 29254.5 29723.5 29240.9 29857.3 29126.6 29900 29047.1 29900 28963.7 29900 28919.1 29839.9 28893.9 29795.3 28851.3 29723.5 28824.1 29613 28824.1 29603.3 28824.1 29578.1 28851.3 29578.1 28857.1 29578.1 28884.2 29578.1 28886.2 29584 28899.7 29636.3 28928.8 29750.7 28965.6 29845.7 29041.3 29845.7 29091.7 29845.7 29105.2 29803 29105.2 29750.7 29105.2 29713.9 29087.8 29642.1 29074.2 29589.8 29060.6 29537.4 29041.3 29457.9 29031.6 29415.3L28969.5 29167.1"/>
<path transform="matrix(.00359712,0,0,-.00359712,0,116)" d="M31041.6 30152.5C31041.6 30368.6 31011.1 30703.8 30858.8 31016.8 30692.5 31357.6 30454.3 31537.6 30426.6 31537.6 30410 31537.6 30398.9 31526.6 30398.9 31509.9 30398.9 31501.6 30398.9 31496.1 30451.5 31446.2 30723 31172 30880.9 30731.5 30880.9 30152.5 30880.9 29678.8 30778.4 29191.3 30434.9 28842.3 30398.9 28809 30398.9 28803.5 30398.9 28795.2 30398.9 28778.5 30410 28767.5 30426.6 28767.5 30454.3 28767.5 30703.6 28955.8 30867.1 29307.6 31008.3 29612.4 31041.6 29919.8 31041.6 30152.5"/>
<path transform="matrix(.00359712,0,0,-.00359712,0,116)" d="M31916.4 29135.9C31916.4 29025.1 31844.3 28847.8 31542.4 28828.4 31528.5 28825.6 31517.5 28814.5 31517.5 28797.9 31517.5 28767.5 31547.9 28767.5 31572.9 28767.5 31841.6 28767.5 32099.2 28903.2 32102 29113.7V29745.3C32102 29853.4 32102 29942 32212.8 30033.4 32309.7 30113.8 32415 30119.3 32475.9 30122.1 32489.8 30124.8 32500.9 30135.9 32500.9 30152.5 32500.9 30180.3 32484.3 30180.3 32456.5 30183 32273.7 30194.1 32140.8 30293.8 32110.3 30429.6 32102 30460 32102 30465.6 32102 30565.3V31113.8C32102 31230.2 32102 31318.8 31969 31424.1 31858.2 31509.9 31667 31537.6 31572.9 31537.6 31547.9 31537.6 31517.5 31537.6 31517.5 31507.2 31517.5 31479.5 31534.1 31479.5 31561.8 31476.7 31736.3 31465.6 31872 31377 31908 31235.7 31916.4 31210.8 31916.4 31205.2 31916.4 31105.5V30523.8C31916.4 30396.3 31938.5 30349.2 32027.2 30260.6 32085.3 30202.4 32165.7 30174.7 32243.3 30152.5 32016.1 30088.8 31916.4 29961.4 31916.4 29800.7V29135.9"/>
<path transform="matrix(.00359712,0,0,-.00359712,0,116)" d="M33603.5 31437.9C33603.5 31487.8 33603.5 31537.6 33548.1 31537.6 33492.7 31537.6 33492.7 31487.8 33492.7 31437.9V28867.2C33492.7 28817.3 33492.7 28767.5 33548.1 28767.5 33603.5 28767.5 33603.5 28817.3 33603.5 28867.2V31437.9"/>
<path transform="matrix(.00359712,0,0,-.00359712,0,116)" d="M35809.4 29908.8H35740.2C35726.3 29836.8 35715.2 29773 35690.3 29706.5 35676.5 29662.2 35668.1 29640.1 35507.5 29640.1H35285.9C35321.9 29795.2 35407.7 29928.2 35532.4 30111 35662.6 30307.7 35776.2 30498.8 35776.2 30717.7 35776.2 31102.7 35402.2 31413 34934 31413 34457.6 31413 34089.1 31097.2 34089.1 30717.7 34089.1 30498.8 34202.7 30307.7 34332.9 30111 34454.8 29928.2 34543.4 29795.2 34579.5 29640.1H34357.8C34197.2 29640.1 34188.9 29662.2 34175 29703.8 34152.8 29767.5 34139 29839.5 34125.1 29908.8H34055.9L34147.3 29460H34590.5C34651.5 29460 34659.8 29460 34659.8 29518.2 34659.8 29712.1 34573.9 29955.9 34510.2 30133.2 34452 30293.8 34374.5 30512.7 34374.5 30720.4 34374.5 31163.7 34679.2 31352 34931.3 31352 35197.2 31352 35490.8 31152.6 35490.8 30720.4 35490.8 30512.7 35416 30302.1 35335.7 30075 35294.2 29958.6 35205.5 29709.3 35205.5 29518.2 35205.5 29460 35213.8 29460 35277.5 29460H35718L35809.4 29908.8"/>
<path transform="matrix(.00359712,0,0,-.00359712,0,116)" d="M36690.3 30105.5C36704.1 30138.7 36704.1 30144.2 36704.1 30152.5 36704.1 30160.9 36704.1 30166.4 36690.3 30199.6L36205.5 31473.9C36188.9 31521 36172.2 31537.6 36141.8 31537.6 36111.3 31537.6 36086.4 31512.7 36086.4 31482.2 36086.4 31473.9 36086.4 31468.4 36100.2 31437.9L36590.5 30152.5 36100.2 28872.7C36086.4 28842.3 36086.4 28836.7 36086.4 28822.9 36086.4 28792.4 36111.3 28767.5 36141.8 28767.5 36177.8 28767.5 36188.9 28795.2 36199.9 28822.9L36690.3 30105.5"/>
<path transform="matrix(.00359712,0,0,-.00359712,0,116)" d="M39683.1 30365.8C39724.7 30365.8 39777.3 30365.8 39777.3 30421.3 39777.3 30476.7 39724.7 30476.7 39685.9 30476.7H38026.5C37987.8 30476.7 37935.1 30476.7 37935.1 30421.3 37935.1 30365.8 37987.8 30365.8 38029.3 30365.8H39683.1ZM39685.9 29828.4C39724.7 29828.4 39777.3 29828.4 39777.3 29883.8 39777.3 29939.3 39724.7 29939.3 39683.1 29939.3H38029.3C37987.8 29939.3 37935.1 29939.3 37935.1 29883.8 37935.1 29828.4 37987.8 29828.4 38026.5 29828.4H39685.9"/>
<path transform="matrix(.00359712,0,0,-.00359712,0,116)" d="M42698.5 31285.5C42701.3 31296.6 42706.8 31310.5 42706.8 31327.1 42706.8 31352 42693 31352 42637.6 31352H41468.6C41402.1 31352 41399.3 31349.3 41382.7 31296.6L41230.3 30798C41224.8 30784.2 41222 30764.8 41222 30759.2 41222 30756.5 41222 30728.8 41255.3 30728.8 41280.2 30728.8 41285.7 30748.1 41291.3 30756.5 41396.5 31083.3 41540.6 31266.2 41972.8 31266.2H42424.3L40875.8 29534.8C40875.8 29532 40864.7 29493.3 40864.7 29484.9 40864.7 29460 40884.1 29460 40933.9 29460H42139C42205.4 29460 42208.2 29462.8 42224.8 29515.4L42421.5 30127.6C42424.3 30138.7 42432.6 30158.1 42432.6 30169.2 42432.6 30183 42421.5 30199.6 42396.6 30199.6 42371.7 30199.6 42368.9 30188.6 42349.5 30130.4 42227.6 29753.6 42094.6 29554.2 41623.7 29554.2H41150L42698.5 31285.5"/>
<path transform="matrix(.00359712,0,0,-.00359712,0,116)" d="M44235.4 31042.1C44266.4 31042.1 44312.9 31042.1 44312.9 31088.7 44312.9 31137.1 44268.3 31137.1 44235.4 31137.1H43079.9C43048.9 31137.1 43002.4 31137.1 43002.4 31090.6 43002.4 31042.1 43047 31042.1 43079.9 31042.1H44235.4"/>
<path transform="matrix(.00359712,0,0,-.00359712,0,116)" d="M44760.5 30726.1C44752.8 30700.9 44741.1 30652.5 44741.1 30646.7 44741.1 30604 44776 30584.6 44807 30584.6 44842 30584.6 44873 30609.8 44882.7 30627.3 44892.4 30644.7 44907.9 30706.8 44917.6 30747.5 44927.3 30784.3 44948.6 30873.5 44960.2 30922 44971.8 30964.6 44983.5 31007.3 44993.2 31051.8 45014.5 31131.3 45018.4 31146.8 45074.6 31226.3 45128.9 31303.9 45220 31404.7 45365.4 31404.7 45477.8 31404.7 45479.8 31305.8 45479.8 31269 45479.8 31152.7 45396.4 30937.5 45365.4 30856 45344.1 30801.8 45336.3 30784.3 45336.3 30751.3 45336.3 30648.6 45421.6 30584.6 45520.5 30584.6 45714.4 30584.6 45799.7 30852.2 45799.7 30881.2 45799.7 30906.4 45774.5 30906.4 45768.6 30906.4 45741.5 30906.4 45739.6 30894.8 45731.8 30873.5 45687.2 30718.4 45603.9 30638.9 45526.3 30638.9 45485.6 30638.9 45477.8 30666 45477.8 30706.8 45477.8 30751.3 45487.5 30776.5 45522.4 30863.8 45545.7 30923.9 45625.2 31129.4 45625.2 31238 45625.2 31426 45475.9 31459 45373.2 31459 45212.2 31459 45103.7 31360.1 45045.5 31282.5 45031.9 31416.3 44917.6 31459 44838.1 31459 44754.7 31459 44710.1 31398.9 44684.9 31354.3 44642.3 31282.5 44615.1 31172 44615.1 31162.3 44615.1 31137.1 44642.3 31137.1 44648.1 31137.1 44675.2 31137.1 44677.2 31143 44690.7 31195.3 44719.8 31309.7 44756.6 31404.7 44832.3 31404.7 44882.7 31404.7 44896.2 31362 44896.2 31309.7 44896.2 31272.9 44878.8 31201.1 44865.2 31148.8 44851.6 31096.4 44832.3 31016.9 44822.6 30974.3L44760.5 30726.1"/>
<path transform="matrix(.00359712,0,0,-.00359712,0,116)" d="M46863.3 31972.7C46874.9 31997.9 46874.9 32001.8 46874.9 32009.6 46874.9 32040.6 46849.7 32058 46828.4 32058 46795.4 32058 46785.7 32034.8 46776 32009.6L46052.9 30204.6C46041.3 30179.4 46041.3 30175.5 46041.3 30167.8 46041.3 30136.8 46066.5 30119.3 46087.8 30119.3 46120.8 30119.3 46130.5 30142.6 46140.2 30167.8L46863.3 31972.7"/>
<path transform="matrix(.00359712,0,0,-.00359712,0,116)" d="M48007 30956.8H47941.1C47935.3 30914.2 47915.9 30799.8 47890.7 30780.4 47875.2 30768.8 47725.9 30768.8 47698.8 30768.8H47342.1C47545.6 30949.1 47613.5 31003.4 47729.8 31094.5 47873.3 31208.9 48007 31329.1 48007 31513.3 48007 31747.8 47801.5 31891.3 47553.4 31891.3 47313 31891.3 47150.1 31722.6 47150.1 31544.3 47150.1 31445.4 47233.5 31435.7 47252.9 31435.7 47299.4 31435.7 47355.6 31468.7 47355.6 31538.5 47355.6 31573.3 47342.1 31641.2 47241.3 31641.2 47301.4 31778.9 47433.2 31821.5 47524.3 31821.5 47718.2 31821.5 47819 31670.3 47819 31513.3 47819 31344.6 47698.8 31210.8 47636.8 31141L47169.5 30679.6C47150.1 30662.2 47150.1 30658.3 47150.1 30604H47948.9L48007 30956.8"/>
<path transform="matrix(.00359712,0,0,-.00359712,0,116)" d="M49639.6 31432.4C49653.5 31462.8 49653.5 31468.4 49653.5 31482.2 49653.5 31512.7 49628.5 31537.6 49598.1 31537.6 49573.1 31537.6 49553.8 31523.8 49534.4 31473.9L49049.6 30202.4C49044 30185.8 49035.7 30169.2 49035.7 30152.5 49035.7 30144.2 49035.7 30138.7 49049.6 30105.5L49534.4 28833.9C49545.4 28803.5 49559.3 28767.5 49598.1 28767.5 49628.5 28767.5 49653.5 28792.4 49653.5 28822.9 49653.5 28831.2 49653.5 28836.7 49639.6 28867.2L49149.3 30152.5 49639.6 31432.4"/>
<path transform="matrix(.00359712,0,0,-.00359712,0,116)" d="M51684.4 29908.8H51615.2C51601.3 29836.8 51590.2 29773 51565.3 29706.5 51551.5 29662.2 51543.1 29640.1 51382.5 29640.1H51160.9C51196.9 29795.2 51282.7 29928.2 51407.4 30111 51537.6 30307.7 51651.2 30498.8 51651.2 30717.7 51651.2 31102.7 51277.2 31413 50809 31413 50332.6 31413 49964.1 31097.2 49964.1 30717.7 49964.1 30498.8 50077.7 30307.7 50207.9 30111 50329.8 29928.2 50418.4 29795.2 50454.5 29640.1H50232.8C50072.2 29640.1 50063.9 29662.2 50050 29703.8 50027.8 29767.5 50014 29839.5 50000.1 29908.8H49930.9L50022.3 29460H50465.5C50526.5 29460 50534.8 29460 50534.8 29518.2 50534.8 29712.1 50448.9 29955.9 50385.2 30133.2 50327 30293.8 50249.5 30512.7 50249.5 30720.4 50249.5 31163.7 50554.2 31352 50806.3 31352 51072.2 31352 51365.8 31152.6 51365.8 30720.4 51365.8 30512.7 51291 30302.1 51210.7 30075 51169.2 29958.6 51080.5 29709.3 51080.5 29518.2 51080.5 29460 51088.8 29460 51152.5 29460H51593L51684.4 29908.8"/>
<path transform="matrix(.00359712,0,0,-.00359712,0,116)" d="M52249.5 31437.9C52249.5 31487.8 52249.5 31537.6 52194.1 31537.6 52138.7 31537.6 52138.7 31487.8 52138.7 31437.9V28867.2C52138.7 28817.3 52138.7 28767.5 52194.1 28767.5 52249.5 28767.5 52249.5 28817.3 52249.5 28867.2V31437.9"/>
<path transform="matrix(.00359712,0,0,-.00359712,0,116)" d="M54222.9 31141.5C54242.3 31219.1 54253.3 31235.7 54286.6 31244 54311.5 31249.5 54402.9 31249.5 54461.1 31249.5 54740.9 31249.5 54865.5 31238.5 54865.5 31022.4 54865.5 30980.8 54854.5 30872.8 54843.4 30800.8 54840.6 30789.7 54835.1 30756.5 54835.1 30748.1 54835.1 30731.5 54843.4 30712.1 54868.3 30712.1 54898.8 30712.1 54904.3 30734.3 54909.9 30775.8L54984.7 31257.9C54987.4 31268.9 54990.2 31296.6 54990.2 31304.9 54990.2 31335.4 54962.5 31335.4 54915.4 31335.4H53378C53311.5 31335.4 53308.7 31332.6 53289.3 31280L53123.1 30792.5C53120.3 30786.9 53106.5 30748.1 53106.5 30742.6 53106.5 30726 53120.3 30712.1 53139.7 30712.1 53167.4 30712.1 53170.2 30726 53186.8 30770.3 53336.4 31199.7 53408.4 31249.5 53818.4 31249.5H53926.5C54004 31249.5 54004 31238.5 54004 31216.3 54004 31199.7 53995.7 31166.4 53992.9 31158.1L53621.7 29678.8C53596.8 29576.3 53588.5 29545.9 53292.1 29545.9 53192.4 29545.9 53175.7 29545.9 53175.7 29493.3 53175.7 29460 53206.2 29460 53222.8 29460 53297.6 29460 53375.2 29465.5 53450 29465.5 53527.5 29465.5 53607.9 29468.3 53685.5 29468.3 53763 29468.3 53840.6 29465.5 53915.4 29465.5 53995.7 29465.5 54078.8 29460 54156.4 29460 54184.1 29460 54217.3 29460 54217.3 29515.4 54217.3 29545.9 54195.2 29545.9 54123.1 29545.9 54053.9 29545.9 54017.9 29545.9 53945.8 29551.4 53865.5 29559.7 53843.4 29568 53843.4 29612.4 53843.4 29615.1 53843.4 29629 53854.4 29670.5L54222.9 31141.5"/>
<path transform="matrix(.00359712,0,0,-.00359712,0,116)" d="M55827 31169.2C55827 31280 55899 31457.3 56200.9 31476.7 56214.8 31479.5 56225.9 31490.5 56225.9 31507.2 56225.9 31537.6 56203.7 31537.6 56173.2 31537.6 55896.2 31537.6 55644.1 31396.4 55641.4 31191.4V30559.8C55641.4 30451.7 55641.4 30363.1 55530.5 30271.7 55433.6 30191.3 55328.3 30185.8 55267.4 30183 55253.5 30180.3 55242.5 30169.2 55242.5 30152.5 55242.5 30124.8 55259.1 30124.8 55286.8 30122.1 55469.6 30111 55602.6 30011.3 55633 29875.5 55641.4 29845.1 55641.4 29839.5 55641.4 29739.8V29191.3C55641.4 29074.9 55641.4 28986.3 55774.3 28881 55882.4 28797.9 56065.2 28767.5 56173.2 28767.5 56203.7 28767.5 56225.9 28767.5 56225.9 28797.9 56225.9 28825.6 56209.3 28825.6 56181.5 28828.4 56007 28839.5 55871.3 28928.1 55835.3 29069.4 55827 29094.3 55827 29099.9 55827 29199.6V29781.3C55827 29908.8 55804.8 29955.9 55716.2 30044.5 55658 30102.7 55577.6 30130.4 55500.1 30152.5 55727.2 30216.3 55827 30343.7 55827 30504.4V31169.2"/>
<path transform="matrix(.00359712,0,0,-.00359712,0,116)" d="M57638.6 31316C57638.6 31321.6 57646.9 31352 57646.9 31354.8 57646.9 31357.6 57646.9 31382.5 57613.6 31382.5 57585.9 31382.5 57583.2 31374.2 57572.1 31327.1L57411.4 30687.2C56971 30673.3 56563.7 30304.9 56563.7 29928.2 56563.7 29665 56757.7 29446.2 57095.6 29426.8 57073.5 29340.9 57054.1 29252.2 57031.9 29166.4 56998.7 29036.2 56971 28930.9 56971 28922.6 56971 28894.9 56990.3 28892.1 57004.2 28892.1 57018 28892.1 57023.6 28894.9 57031.9 28903.2 57037.4 28908.7 57054.1 28975.2 57062.4 29014L57167.6 29426.8C57613.6 29440.6 58015.3 29814.6 58015.3 30185.8 58015.3 30404.6 57868.5 30659.5 57483.4 30687.2L57638.6 31316ZM57109.5 29487.7C56943.3 29496 56743.8 29593 56743.8 29870 56743.8 30202.4 56982 30590.2 57394.8 30626.3L57109.5 29487.7ZM57466.8 30626.3C57677.4 30615.2 57835.3 30487.7 57835.3 30244 57835.3 29917.1 57597 29520.9 57181.5 29487.7L57466.8 30626.3"/>
<path transform="matrix(.00359712,0,0,-.00359712,0,116)" d="M59078.4 29663.5C59078.4 29876.7 59053.2 30029.9 58964 30165.6 58903.9 30254.8 58783.7 30332.3 58628.6 30332.3 58178.8 30332.3 58178.8 29803 58178.8 29663.5 58178.8 29523.9 58178.8 29006.2 58628.6 29006.2 59078.4 29006.2 59078.4 29523.9 59078.4 29663.5ZM58628.6 29060.5C58539.4 29060.5 58421.2 29112.9 58382.4 29271.8 58355.2 29386.2 58355.2 29545.2 58355.2 29688.7 58355.2 29830.2 58355.2 29977.5 58384.3 30084.1 58425 30237.3 58549.1 30278 58628.6 30278 58733.3 30278 58834.1 30214 58869 30101.6 58900 29996.9 58902 29857.3 58902 29688.7 58902 29545.2 58902 29401.7 58876.8 29279.6 58838 29103.2 58706.1 29060.5 58628.6 29060.5"/>
<path transform="matrix(.00359712,0,0,-.00359712,0,116)" d="M60236.9 28795.2C60236.9 28803.5 60236.9 28809 60189.8 28856.1 59843.6 29205.1 59754.9 29728.7 59754.9 30152.5 59754.9 30634.6 59860.2 31116.6 60200.9 31462.8 60236.9 31496.1 60236.9 31501.6 60236.9 31509.9 60236.9 31529.3 60225.8 31537.6 60209.2 31537.6 60181.5 31537.6 59932.2 31349.3 59768.8 30997.5 59627.5 30692.7 59594.3 30385.3 59594.3 30152.5 59594.3 29936.5 59624.7 29601.3 59777.1 29288.3 59943.3 28947.5 60181.5 28767.5 60209.2 28767.5 60225.8 28767.5 60236.9 28775.8 60236.9 28795.2"/>
<path transform="matrix(.00359712,0,0,-.00359712,0,116)" d="M60522.7 29122C60500.5 29027.8 60495 29008.5 60373.1 29008.5 60339.8 29008.5 60309.4 29008.5 60309.4 28955.8 60309.4 28933.7 60323.2 28922.6 60345.4 28922.6 60420.2 28922.6 60500.5 28930.9 60578.1 28930.9 60669.5 28930.9 60763.7 28922.6 60852.3 28922.6 60866.2 28922.6 60902.2 28922.6 60902.2 28978 60902.2 29008.5 60874.5 29008.5 60835.7 29008.5 60697.2 29008.5 60697.2 29027.8 60697.2 29052.8 60697.2 29086 60813.5 29537.6 60832.9 29606.8 60868.9 29526.5 60946.5 29429.5 61087.8 29429.5 61409.1 29429.5 61755.4 29834 61755.4 30241.2 61755.4 30501.6 61597.5 30684.4 61387 30684.4 61248.5 30684.4 61115.5 30584.7 61024.1 30476.7 60996.4 30626.3 60877.3 30684.4 60774.8 30684.4 60647.3 30684.4 60594.7 30576.4 60569.8 30526.5 60519.9 30432.3 60483.9 30266.1 60483.9 30257.8 60483.9 30230.1 60511.6 30230.1 60517.1 30230.1 60544.8 30230.1 60547.6 30232.9 60564.2 30293.8 60611.3 30490.5 60666.7 30623.5 60766.4 30623.5 60813.5 30623.5 60852.3 30601.3 60852.3 30496 60852.3 30432.3 60844 30401.9 60832.9 30354.8L60522.7 29122ZM61010.2 30324.3C61029.6 30399.1 61104.4 30476.7 61154.3 30518.2 61251.2 30604.1 61331.5 30623.5 61378.6 30623.5 61489.5 30623.5 61555.9 30526.5 61555.9 30363.1 61555.9 30199.6 61464.5 29881.1 61414.7 29775.8 61320.5 29581.9 61187.5 29490.5 61085 29490.5 60902.2 29490.5 60866.2 29720.4 60866.2 29737 60866.2 29742.6 60866.2 29748.1 60874.5 29781.3L61010.2 30324.3"/>
<path transform="matrix(.00359712,0,0,-.00359712,0,116)" d="M62440.5 30278C62440.5 30330.4 62436.6 30332.3 62382.3 30332.3 62258.2 30210.2 62081.8 30208.2 62002.3 30208.2V30138.4C62048.8 30138.4 62176.8 30138.4 62283.4 30192.7V29204C62283.4 29140 62283.4 29114.8 62089.6 29114.8H62015.9V29045C62050.8 29046.9 62289.3 29052.8 62361 29052.8 62421.1 29052.8 62665.4 29046.9 62708 29045V29114.8H62634.3C62440.5 29114.8 62440.5 29140 62440.5 29204V30278"/>
<path transform="matrix(.00359712,0,0,-.00359712,0,116)" d="M63834.6 30152.5C63834.6 30368.6 63804.1 30703.8 63651.8 31016.8 63485.5 31357.6 63247.3 31537.6 63219.6 31537.6 63203 31537.6 63191.9 31526.6 63191.9 31509.9 63191.9 31501.6 63191.9 31496.1 63244.5 31446.2 63516 31172 63673.9 30731.5 63673.9 30152.5 63673.9 29678.8 63571.4 29191.3 63227.9 28842.3 63191.9 28809 63191.9 28803.5 63191.9 28795.2 63191.9 28778.5 63203 28767.5 63219.6 28767.5 63247.3 28767.5 63496.6 28955.8 63660.1 29307.6 63801.3 29612.4 63834.6 29919.8 63834.6 30152.5"/>
<path transform="matrix(.00359712,0,0,-.00359712,0,116)" d="M65321.6 31316C65321.6 31321.6 65329.9 31352 65329.9 31354.8 65329.9 31357.6 65329.9 31382.5 65296.6 31382.5 65268.9 31382.5 65266.2 31374.2 65255.1 31327.1L65094.4 30687.2C64654 30673.3 64246.7 30304.9 64246.7 29928.2 64246.7 29665 64440.7 29446.2 64778.6 29426.8 64756.5 29340.9 64737.1 29252.2 64714.9 29166.4 64681.7 29036.2 64654 28930.9 64654 28922.6 64654 28894.9 64673.3 28892.1 64687.2 28892.1 64701 28892.1 64706.6 28894.9 64714.9 28903.2 64720.4 28908.7 64737.1 28975.2 64745.4 29014L64850.6 29426.8C65296.6 29440.6 65698.3 29814.6 65698.3 30185.8 65698.3 30404.6 65551.5 30659.5 65166.4 30687.2L65321.6 31316ZM64792.5 29487.7C64626.3 29496 64426.8 29593 64426.8 29870 64426.8 30202.4 64665 30590.2 65077.8 30626.3L64792.5 29487.7ZM65149.8 30626.3C65360.4 30615.2 65518.3 30487.7 65518.3 30244 65518.3 29917.1 65280 29520.9 64864.5 29487.7L65149.8 30626.3"/>
<path transform="matrix(.00359712,0,0,-.00359712,0,116)" d="M66761.4 29663.5C66761.4 29876.7 66736.2 30029.9 66647 30165.6 66586.9 30254.8 66466.7 30332.3 66311.6 30332.3 65861.8 30332.3 65861.8 29803 65861.8 29663.5 65861.8 29523.9 65861.8 29006.2 66311.6 29006.2 66761.4 29006.2 66761.4 29523.9 66761.4 29663.5ZM66311.6 29060.5C66222.4 29060.5 66104.2 29112.9 66065.4 29271.8 66038.2 29386.2 66038.2 29545.2 66038.2 29688.7 66038.2 29830.2 66038.2 29977.5 66067.3 30084.1 66108 30237.3 66232.1 30278 66311.6 30278 66416.3 30278 66517.1 30214 66552 30101.6 66583 29996.9 66585 29857.3 66585 29688.7 66585 29545.2 66585 29401.7 66559.8 29279.6 66521 29103.2 66389.1 29060.5 66311.6 29060.5"/>
<path transform="matrix(.00359712,0,0,-.00359712,0,116)" d="M67919.9 28795.2C67919.9 28803.5 67919.9 28809 67872.8 28856.1 67526.6 29205.1 67437.9 29728.7 67437.9 30152.5 67437.9 30634.6 67543.2 31116.6 67883.9 31462.8 67919.9 31496.1 67919.9 31501.6 67919.9 31509.9 67919.9 31529.3 67908.8 31537.6 67892.2 31537.6 67864.5 31537.6 67615.2 31349.3 67451.8 30997.5 67310.5 30692.7 67277.3 30385.3 67277.3 30152.5 67277.3 29936.5 67307.7 29601.3 67460.1 29288.3 67626.3 28947.5 67864.5 28767.5 67892.2 28767.5 67908.8 28767.5 67919.9 28775.8 67919.9 28795.2"/>
<path transform="matrix(.00359712,0,0,-.00359712,0,116)" d="M68205.7 29122C68183.5 29027.8 68178 29008.5 68056.1 29008.5 68022.8 29008.5 67992.4 29008.5 67992.4 28955.8 67992.4 28933.7 68006.2 28922.6 68028.4 28922.6 68103.2 28922.6 68183.5 28930.9 68261.1 28930.9 68352.5 28930.9 68446.7 28922.6 68535.3 28922.6 68549.2 28922.6 68585.2 28922.6 68585.2 28978 68585.2 29008.5 68557.5 29008.5 68518.7 29008.5 68380.2 29008.5 68380.2 29027.8 68380.2 29052.8 68380.2 29086 68496.5 29537.6 68515.9 29606.8 68551.9 29526.5 68629.5 29429.5 68770.8 29429.5 69092.1 29429.5 69438.4 29834 69438.4 30241.2 69438.4 30501.6 69280.5 30684.4 69070 30684.4 68931.5 30684.4 68798.5 30584.7 68707.1 30476.7 68679.4 30626.3 68560.3 30684.4 68457.8 30684.4 68330.3 30684.4 68277.7 30576.4 68252.8 30526.5 68202.9 30432.3 68166.9 30266.1 68166.9 30257.8 68166.9 30230.1 68194.6 30230.1 68200.1 30230.1 68227.8 30230.1 68230.6 30232.9 68247.2 30293.8 68294.3 30490.5 68349.7 30623.5 68449.4 30623.5 68496.5 30623.5 68535.3 30601.3 68535.3 30496 68535.3 30432.3 68527 30401.9 68515.9 30354.8L68205.7 29122ZM68693.2 30324.3C68712.6 30399.1 68787.4 30476.7 68837.3 30518.2 68934.2 30604.1 69014.5 30623.5 69061.6 30623.5 69172.5 30623.5 69238.9 30526.5 69238.9 30363.1 69238.9 30199.6 69147.5 29881.1 69097.7 29775.8 69003.5 29581.9 68870.5 29490.5 68768 29490.5 68585.2 29490.5 68549.2 29720.4 68549.2 29737 68549.2 29742.6 68549.2 29748.1 68557.5 29781.3L68693.2 30324.3"/>
<path transform="matrix(.00359712,0,0,-.00359712,0,116)" d="M70453 29397.8H70387.1C70381.3 29355.2 70361.9 29240.8 70336.7 29221.4 70321.2 29209.8 70171.9 29209.8 70144.8 29209.8H69788.1C69991.6 29390.1 70059.5 29444.4 70175.8 29535.5 70319.3 29649.9 70453 29770.1 70453 29954.3 70453 30188.8 70247.5 30332.3 69999.4 30332.3 69759 30332.3 69596.1 30163.6 69596.1 29985.3 69596.1 29886.4 69679.5 29876.7 69698.9 29876.7 69745.4 29876.7 69801.6 29909.7 69801.6 29979.5 69801.6 30014.3 69788.1 30082.2 69687.3 30082.2 69747.4 30219.9 69879.2 30262.5 69970.3 30262.5 70164.2 30262.5 70265 30111.3 70265 29954.3 70265 29785.6 70144.8 29651.8 70082.8 29582L69615.5 29120.6C69596.1 29103.2 69596.1 29099.3 69596.1 29045H70394.9L70453 29397.8"/>
<path transform="matrix(.00359712,0,0,-.00359712,0,116)" d="M71517.6 30152.5C71517.6 30368.6 71487.1 30703.8 71334.8 31016.8 71168.5 31357.6 70930.3 31537.6 70902.6 31537.6 70886 31537.6 70874.9 31526.6 70874.9 31509.9 70874.9 31501.6 70874.9 31496.1 70927.5 31446.2 71199 31172 71356.9 30731.5 71356.9 30152.5 71356.9 29678.8 71254.4 29191.3 70910.9 28842.3 70874.9 28809 70874.9 28803.5 70874.9 28795.2 70874.9 28778.5 70886 28767.5 70902.6 28767.5 70930.3 28767.5 71179.6 28955.8 71343.1 29307.6 71484.3 29612.4 71517.6 29919.8 71517.6 30152.5"/>
<path transform="matrix(.00359712,0,0,-.00359712,0,116)" d="M72786.9 30152.5C72786.9 30232.9 72720.4 30299.4 72640.1 30299.4 72559.7 30299.4 72493.2 30232.9 72493.2 30152.5 72493.2 30072.2 72559.7 30005.7 72640.1 30005.7 72720.4 30005.7 72786.9 30072.2 72786.9 30152.5"/>
<path transform="matrix(.00359712,0,0,-.00359712,0,116)" d="M74013.9 30152.5C74013.9 30232.9 73947.4 30299.4 73867.1 30299.4 73786.7 30299.4 73720.2 30232.9 73720.2 30152.5 73720.2 30072.2 73786.7 30005.7 73867.1 30005.7 73947.4 30005.7 74013.9 30072.2 74013.9 30152.5"/>
<path transform="matrix(.00359712,0,0,-.00359712,0,116)" d="M75243.9 30152.5C75243.9 30232.9 75177.4 30299.4 75097.1 30299.4 75016.7 30299.4 74950.2 30232.9 74950.2 30152.5 74950.2 30072.2 75016.7 30005.7 75097.1 30005.7 75177.4 30005.7 75243.9 30072.2 75243.9 30152.5"/>
<path transform="matrix(.00359712,0,0,-.00359712,0,116)" d="M77158.6 31316C77158.6 31321.6 77166.9 31352 77166.9 31354.8 77166.9 31357.6 77166.9 31382.5 77133.6 31382.5 77105.9 31382.5 77103.2 31374.2 77092.1 31327.1L76931.4 30687.2C76491 30673.3 76083.7 30304.9 76083.7 29928.2 76083.7 29665 76277.7 29446.2 76615.6 29426.8 76593.5 29340.9 76574.1 29252.2 76551.9 29166.4 76518.7 29036.2 76491 28930.9 76491 28922.6 76491 28894.9 76510.3 28892.1 76524.2 28892.1 76538 28892.1 76543.6 28894.9 76551.9 28903.2 76557.4 28908.7 76574.1 28975.2 76582.4 29014L76687.6 29426.8C77133.6 29440.6 77535.3 29814.6 77535.3 30185.8 77535.3 30404.6 77388.5 30659.5 77003.4 30687.2L77158.6 31316ZM76629.5 29487.7C76463.3 29496 76263.8 29593 76263.8 29870 76263.8 30202.4 76502 30590.2 76914.8 30626.3L76629.5 29487.7ZM76986.8 30626.3C77197.4 30615.2 77355.3 30487.7 77355.3 30244 77355.3 29917.1 77117 29520.9 76701.5 29487.7L76986.8 30626.3"/>
<path transform="matrix(.00359712,0,0,-.00359712,0,116)" d="M78514.9 28795.2C78514.9 28803.5 78514.9 28809 78467.8 28856.1 78121.6 29205.1 78032.9 29728.7 78032.9 30152.5 78032.9 30634.6 78138.2 31116.6 78478.9 31462.8 78514.9 31496.1 78514.9 31501.6 78514.9 31509.9 78514.9 31529.3 78503.8 31537.6 78487.2 31537.6 78459.5 31537.6 78210.2 31349.3 78046.8 30997.5 77905.5 30692.7 77872.3 30385.3 77872.3 30152.5 77872.3 29936.5 77902.7 29601.3 78055.1 29288.3 78221.3 28947.5 78459.5 28767.5 78487.2 28767.5 78503.8 28767.5 78514.9 28775.8 78514.9 28795.2"/>
<path transform="matrix(.00359712,0,0,-.00359712,0,116)" d="M78799.7 29122C78777.5 29027.8 78772 29008.5 78650.1 29008.5 78616.8 29008.5 78586.4 29008.5 78586.4 28955.8 78586.4 28933.7 78600.2 28922.6 78622.4 28922.6 78697.2 28922.6 78777.5 28930.9 78855.1 28930.9 78946.5 28930.9 79040.7 28922.6 79129.3 28922.6 79143.2 28922.6 79179.2 28922.6 79179.2 28978 79179.2 29008.5 79151.5 29008.5 79112.7 29008.5 78974.2 29008.5 78974.2 29027.8 78974.2 29052.8 78974.2 29086 79090.5 29537.6 79109.9 29606.8 79145.9 29526.5 79223.5 29429.5 79364.8 29429.5 79686.1 29429.5 80032.4 29834 80032.4 30241.2 80032.4 30501.6 79874.5 30684.4 79664 30684.4 79525.5 30684.4 79392.5 30584.7 79301.1 30476.7 79273.4 30626.3 79154.3 30684.4 79051.8 30684.4 78924.3 30684.4 78871.7 30576.4 78846.8 30526.5 78796.9 30432.3 78760.9 30266.1 78760.9 30257.8 78760.9 30230.1 78788.6 30230.1 78794.1 30230.1 78821.8 30230.1 78824.6 30232.9 78841.2 30293.8 78888.3 30490.5 78943.7 30623.5 79043.4 30623.5 79090.5 30623.5 79129.3 30601.3 79129.3 30496 79129.3 30432.3 79121 30401.9 79109.9 30354.8L78799.7 29122ZM79287.2 30324.3C79306.6 30399.1 79381.4 30476.7 79431.3 30518.2 79528.2 30604.1 79608.5 30623.5 79655.6 30623.5 79766.5 30623.5 79832.9 30526.5 79832.9 30363.1 79832.9 30199.6 79741.5 29881.1 79691.7 29775.8 79597.5 29581.9 79464.5 29490.5 79362 29490.5 79179.2 29490.5 79143.2 29720.4 79143.2 29737 79143.2 29742.6 79143.2 29748.1 79151.5 29781.3L79287.2 30324.3"/>
<path transform="matrix(.00359712,0,0,-.00359712,0,116)" d="M80305.5 29167.1C80297.8 29141.9 80286.1 29093.5 80286.1 29087.7 80286.1 29045 80321 29025.6 80352 29025.6 80387 29025.6 80418 29050.8 80427.7 29068.3 80437.4 29085.7 80452.9 29147.8 80462.6 29188.5 80472.3 29225.3 80493.6 29314.5 80505.2 29363 80516.8 29405.6 80528.5 29448.3 80538.2 29492.8 80559.5 29572.3 80563.4 29587.8 80619.6 29667.3 80673.9 29744.9 80765 29845.7 80910.4 29845.7 81022.8 29845.7 81024.8 29746.8 81024.8 29710 81024.8 29593.7 80941.4 29378.5 80910.4 29297 80889.1 29242.8 80881.3 29225.3 80881.3 29192.3 80881.3 29089.6 80966.6 29025.6 81065.5 29025.6 81259.4 29025.6 81344.7 29293.2 81344.7 29322.2 81344.7 29347.4 81319.5 29347.4 81313.6 29347.4 81286.5 29347.4 81284.6 29335.8 81276.8 29314.5 81232.2 29159.4 81148.9 29079.9 81071.3 29079.9 81030.6 29079.9 81022.8 29107 81022.8 29147.8 81022.8 29192.3 81032.5 29217.5 81067.4 29304.8 81090.7 29364.9 81170.2 29570.4 81170.2 29679 81170.2 29867 81020.9 29900 80918.2 29900 80757.2 29900 80648.7 29801.1 80590.5 29723.5 80576.9 29857.3 80462.6 29900 80383.1 29900 80299.7 29900 80255.1 29839.9 80229.9 29795.3 80187.3 29723.5 80160.1 29613 80160.1 29603.3 80160.1 29578.1 80187.3 29578.1 80193.1 29578.1 80220.2 29578.1 80222.2 29584 80235.7 29636.3 80264.8 29750.7 80301.6 29845.7 80377.3 29845.7 80427.7 29845.7 80441.2 29803 80441.2 29750.7 80441.2 29713.9 80423.8 29642.1 80410.2 29589.8 80396.6 29537.4 80377.3 29457.9 80367.6 29415.3L80305.5 29167.1"/>
<path transform="matrix(.00359712,0,0,-.00359712,0,116)" d="M82376.6 30152.5C82376.6 30368.6 82346.1 30703.8 82193.8 31016.8 82027.5 31357.6 81789.3 31537.6 81761.6 31537.6 81745 31537.6 81733.9 31526.6 81733.9 31509.9 81733.9 31501.6 81733.9 31496.1 81786.5 31446.2 82058 31172 82215.9 30731.5 82215.9 30152.5 82215.9 29678.8 82113.4 29191.3 81769.9 28842.3 81733.9 28809 81733.9 28803.5 81733.9 28795.2 81733.9 28778.5 81745 28767.5 81761.6 28767.5 81789.3 28767.5 82038.6 28955.8 82202.1 29307.6 82343.3 29612.4 82376.6 29919.8 82376.6 30152.5"/>
<path transform="matrix(.00359712,0,0,-.00359712,0,116)" d="M83251.4 29135.9C83251.4 29025.1 83179.3 28847.8 82877.4 28828.4 82863.5 28825.6 82852.5 28814.5 82852.5 28797.9 82852.5 28767.5 82882.9 28767.5 82907.9 28767.5 83176.6 28767.5 83434.2 28903.2 83437 29113.7V29745.3C83437 29853.4 83437 29942 83547.8 30033.4 83644.7 30113.8 83750 30119.3 83810.9 30122.1 83824.8 30124.8 83835.9 30135.9 83835.9 30152.5 83835.9 30180.3 83819.3 30180.3 83791.5 30183 83608.7 30194.1 83475.8 30293.8 83445.3 30429.6 83437 30460 83437 30465.6 83437 30565.3V31113.8C83437 31230.2 83437 31318.8 83304 31424.1 83193.2 31509.9 83002 31537.6 82907.9 31537.6 82882.9 31537.6 82852.5 31537.6 82852.5 31507.2 82852.5 31479.5 82869.1 31479.5 82896.8 31476.7 83071.3 31465.6 83207 31377 83243 31235.7 83251.4 31210.8 83251.4 31205.2 83251.4 31105.5V30523.8C83251.4 30396.3 83273.5 30349.2 83362.2 30260.6 83420.3 30202.4 83500.7 30174.7 83578.3 30152.5 83351.1 30088.8 83251.4 29961.4 83251.4 29800.7V29135.9"/>
<path transform="matrix(.00359712,0,0,-.00359712,0,116)" d="M84938.5 31437.9C84938.5 31487.8 84938.5 31537.6 84883.1 31537.6 84827.7 31537.6 84827.7 31487.8 84827.7 31437.9V28867.2C84827.7 28817.3 84827.7 28767.5 84883.1 28767.5 84938.5 28767.5 84938.5 28817.3 84938.5 28867.2V31437.9"/>
<path transform="matrix(.00359712,0,0,-.00359712,0,116)" d="M87144.4 29908.8H87075.2C87061.3 29836.8 87050.2 29773 87025.3 29706.5 87011.5 29662.2 87003.1 29640.1 86842.5 29640.1H86620.9C86656.9 29795.2 86742.7 29928.2 86867.4 30111 86997.6 30307.7 87111.2 30498.8 87111.2 30717.7 87111.2 31102.7 86737.2 31413 86269 31413 85792.6 31413 85424.1 31097.2 85424.1 30717.7 85424.1 30498.8 85537.7 30307.7 85667.9 30111 85789.8 29928.2 85878.4 29795.2 85914.5 29640.1H85692.8C85532.2 29640.1 85523.9 29662.2 85510 29703.8 85487.8 29767.5 85474 29839.5 85460.1 29908.8H85390.9L85482.3 29460H85925.5C85986.5 29460 85994.8 29460 85994.8 29518.2 85994.8 29712.1 85908.9 29955.9 85845.2 30133.2 85787 30293.8 85709.5 30512.7 85709.5 30720.4 85709.5 31163.7 86014.2 31352 86266.3 31352 86532.2 31352 86825.8 31152.6 86825.8 30720.4 86825.8 30512.7 86751 30302.1 86670.7 30075 86629.2 29958.6 86540.5 29709.3 86540.5 29518.2 86540.5 29460 86548.8 29460 86612.5 29460H87053L87144.4 29908.8"/>
<path transform="matrix(.00359712,0,0,-.00359712,0,116)" d="M88025.3 30105.5C88039.1 30138.7 88039.1 30144.2 88039.1 30152.5 88039.1 30160.9 88039.1 30166.4 88025.3 30199.6L87540.5 31473.9C87523.9 31521 87507.2 31537.6 87476.8 31537.6 87446.3 31537.6 87421.4 31512.7 87421.4 31482.2 87421.4 31473.9 87421.4 31468.4 87435.2 31437.9L87925.5 30152.5 87435.2 28872.7C87421.4 28842.3 87421.4 28836.7 87421.4 28822.9 87421.4 28792.4 87446.3 28767.5 87476.8 28767.5 87512.8 28767.5 87523.9 28795.2 87534.9 28822.9L88025.3 30105.5"/>
<path transform="matrix(.00359712,0,0,-.00359712,0,116)" d="M39683.1 23548.8C39724.7 23548.8 39777.3 23548.8 39777.3 23604.3 39777.3 23659.7 39724.7 23659.7 39685.9 23659.7H38026.5C37987.8 23659.7 37935.1 23659.7 37935.1 23604.3 37935.1 23548.8 37987.8 23548.8 38029.3 23548.8H39683.1ZM39685.9 23011.4C39724.7 23011.4 39777.3 23011.4 39777.3 23066.8 39777.3 23122.3 39724.7 23122.3 39683.1 23122.3H38029.3C37987.8 23122.3 37935.1 23122.3 37935.1 23066.8 37935.1 23011.4 37987.8 23011.4 38026.5 23011.4H39685.9"/>
<path transform="matrix(.00359712,0,0,-.00359712,0,116)" d="M42698.5 24468.5C42701.3 24479.6 42706.8 24493.5 42706.8 24510.1 42706.8 24535 42693 24535 42637.6 24535H41468.6C41402.1 24535 41399.3 24532.3 41382.7 24479.6L41230.3 23981C41224.8 23967.2 41222 23947.8 41222 23942.2 41222 23939.5 41222 23911.8 41255.3 23911.8 41280.2 23911.8 41285.7 23931.1 41291.3 23939.5 41396.5 24266.3 41540.6 24449.2 41972.8 24449.2H42424.3L40875.8 22717.8C40875.8 22715 40864.7 22676.3 40864.7 22667.9 40864.7 22643 40884.1 22643 40933.9 22643H42139C42205.4 22643 42208.2 22645.8 42224.8 22698.4L42421.5 23310.6C42424.3 23321.7 42432.6 23341.1 42432.6 23352.2 42432.6 23366 42421.5 23382.6 42396.6 23382.6 42371.7 23382.6 42368.9 23371.6 42349.5 23313.4 42227.6 22936.6 42094.6 22737.2 41623.7 22737.2H41150L42698.5 24468.5"/>
<path transform="matrix(.00359712,0,0,-.00359712,0,116)" d="M44235.4 24225.1C44266.4 24225.1 44312.9 24225.1 44312.9 24271.7 44312.9 24320.1 44268.3 24320.1 44235.4 24320.1H43079.9C43048.9 24320.1 43002.4 24320.1 43002.4 24273.6 43002.4 24225.1 43047 24225.1 43079.9 24225.1H44235.4"/>
<path transform="matrix(.00359712,0,0,-.00359712,0,116)" d="M44760.5 23909.1C44752.8 23883.9 44741.1 23835.5 44741.1 23829.7 44741.1 23787 44776 23767.6 44807 23767.6 44842 23767.6 44873 23792.8 44882.7 23810.3 44892.4 23827.7 44907.9 23889.8 44917.6 23930.5 44927.3 23967.3 44948.6 24056.5 44960.2 24105 44971.8 24147.6 44983.5 24190.3 44993.2 24234.8 45014.5 24314.3 45018.4 24329.8 45074.6 24409.3 45128.9 24486.9 45220 24587.7 45365.4 24587.7 45477.8 24587.7 45479.8 24488.8 45479.8 24452 45479.8 24335.7 45396.4 24120.5 45365.4 24039 45344.1 23984.8 45336.3 23967.3 45336.3 23934.3 45336.3 23831.6 45421.6 23767.6 45520.5 23767.6 45714.4 23767.6 45799.7 24035.2 45799.7 24064.2 45799.7 24089.4 45774.5 24089.4 45768.6 24089.4 45741.5 24089.4 45739.6 24077.8 45731.8 24056.5 45687.2 23901.4 45603.9 23821.9 45526.3 23821.9 45485.6 23821.9 45477.8 23849 45477.8 23889.8 45477.8 23934.3 45487.5 23959.5 45522.4 24046.8 45545.7 24106.9 45625.2 24312.4 45625.2 24421 45625.2 24609 45475.9 24642 45373.2 24642 45212.2 24642 45103.7 24543.1 45045.5 24465.5 45031.9 24599.3 44917.6 24642 44838.1 24642 44754.7 24642 44710.1 24581.9 44684.9 24537.3 44642.3 24465.5 44615.1 24355 44615.1 24345.3 44615.1 24320.1 44642.3 24320.1 44648.1 24320.1 44675.2 24320.1 44677.2 24326 44690.7 24378.3 44719.8 24492.7 44756.6 24587.7 44832.3 24587.7 44882.7 24587.7 44896.2 24545 44896.2 24492.7 44896.2 24455.9 44878.8 24384.1 44865.2 24331.8 44851.6 24279.4 44832.3 24199.9 44822.6 24157.3L44760.5 23909.1"/>
<path transform="matrix(.00359712,0,0,-.00359712,0,116)" d="M46863.3 25155.7C46874.9 25180.9 46874.9 25184.8 46874.9 25192.6 46874.9 25223.6 46849.7 25241 46828.4 25241 46795.4 25241 46785.7 25217.8 46776 25192.6L46052.9 23387.6C46041.3 23362.4 46041.3 23358.5 46041.3 23350.8 46041.3 23319.8 46066.5 23302.3 46087.8 23302.3 46120.8 23302.3 46130.5 23325.6 46140.2 23350.8L46863.3 25155.7"/>
<path transform="matrix(.00359712,0,0,-.00359712,0,116)" d="M48007 24139.8H47941.1C47935.3 24097.2 47915.9 23982.8 47890.7 23963.4 47875.2 23951.8 47725.9 23951.8 47698.8 23951.8H47342.1C47545.6 24132.1 47613.5 24186.4 47729.8 24277.5 47873.3 24391.9 48007 24512.1 48007 24696.3 48007 24930.8 47801.5 25074.3 47553.4 25074.3 47313 25074.3 47150.1 24905.6 47150.1 24727.3 47150.1 24628.4 47233.5 24618.7 47252.9 24618.7 47299.4 24618.7 47355.6 24651.7 47355.6 24721.5 47355.6 24756.3 47342.1 24824.2 47241.3 24824.2 47301.4 24961.9 47433.2 25004.5 47524.3 25004.5 47718.2 25004.5 47819 24853.3 47819 24696.3 47819 24527.6 47698.8 24393.8 47636.8 24324L47169.5 23862.6C47150.1 23845.2 47150.1 23841.3 47150.1 23787H47948.9L48007 24139.8"/>
<path transform="matrix(.00359712,0,0,-.00359712,0,116)" d="M50077.5 26227.1C50069.8 26201.9 50058.1 26153.5 50058.1 26147.7 50058.1 26105 50093 26085.6 50124 26085.6 50159 26085.6 50190 26110.8 50199.7 26128.3 50209.4 26145.7 50224.9 26207.8 50234.6 26248.5 50244.3 26285.3 50265.6 26374.5 50277.2 26423 50288.8 26465.6 50300.5 26508.3 50310.2 26552.8 50331.5 26632.3 50335.4 26647.8 50391.6 26727.3 50445.9 26804.9 50537 26905.7 50682.4 26905.7 50794.8 26905.7 50796.8 26806.8 50796.8 26770 50796.8 26653.7 50713.4 26438.5 50682.4 26357 50661.1 26302.8 50653.3 26285.3 50653.3 26252.3 50653.3 26149.6 50738.6 26085.6 50837.5 26085.6 51031.4 26085.6 51116.7 26353.2 51116.7 26382.2 51116.7 26407.4 51091.5 26407.4 51085.6 26407.4 51058.5 26407.4 51056.6 26395.8 51048.8 26374.5 51004.2 26219.4 50920.9 26139.9 50843.3 26139.9 50802.6 26139.9 50794.8 26167 50794.8 26207.8 50794.8 26252.3 50804.5 26277.5 50839.4 26364.8 50862.7 26424.9 50942.2 26630.4 50942.2 26739 50942.2 26927 50792.9 26960 50690.2 26960 50529.2 26960 50420.7 26861.1 50362.5 26783.5 50348.9 26917.3 50234.6 26960 50155.1 26960 50071.7 26960 50027.1 26899.9 50001.9 26855.3 49959.3 26783.5 49932.1 26673 49932.1 26663.3 49932.1 26638.1 49959.3 26638.1 49965.1 26638.1 49992.2 26638.1 49994.2 26644 50007.7 26696.3 50036.8 26810.7 50073.6 26905.7 50149.3 26905.7 50199.7 26905.7 50213.2 26863 50213.2 26810.7 50213.2 26773.9 50195.8 26702.1 50182.2 26649.8 50168.6 26597.4 50149.3 26517.9 50139.6 26475.3L50077.5 26227.1"/>
<path transform="matrix(.00359712,0,0,-.00359712,0,116)" d="M52138.4 21395.7V21545.3C51770 21545.3 51684.1 21672.8 51684.1 21850V24819.7C51684.1 24999.8 51772.7 25124.4 52138.4 25124.4V25274H48911.1V25124.4C49279.6 25124.4 49365.4 24997 49365.4 24819.7V21850C49365.4 21670 49276.8 21545.3 48911.1 21545.3V21395.7H50243.6V21545.3C49875.2 21545.3 49789.3 21672.8 49789.3 21850V25124.4H51260.3V21850C51260.3 21670 51171.6 21545.3 50805.9 21545.3V21395.7H52138.4"/>
<path transform="matrix(.00359712,0,0,-.00359712,0,116)" d="M49359.1 20586.7C49359.1 20617.7 49335.9 20660.4 49281.6 20660.4 49229.3 20660.4 49173 20610 49173 20553.7 49173 20520.8 49198.2 20480.1 49250.6 20480.1 49306.8 20480.1 49359.1 20534.3 49359.1 20586.7ZM48963.6 19601.8C48955.9 19576.6 48946.2 19553.4 48946.2 19520.4 48946.2 19429.3 49023.8 19355.6 49130.4 19355.6 49324.3 19355.6 49409.5 19623.2 49409.5 19652.2 49409.5 19677.4 49384.3 19677.4 49378.5 19677.4 49351.4 19677.4 49349.5 19665.8 49341.7 19644.5 49297.1 19489.4 49211.8 19409.9 49136.2 19409.9 49097.4 19409.9 49087.7 19435.1 49087.7 19477.8 49087.7 19522.3 49101.3 19559.2 49118.7 19601.8 49138.1 19654.2 49159.5 19706.5 49180.8 19756.9 49198.2 19803.5 49268 19979.9 49275.8 20003.1 49281.6 20022.5 49287.4 20045.8 49287.4 20065.2 49287.4 20156.3 49209.9 20230 49103.2 20230 48911.3 20230 48822.1 19966.3 48822.1 19933.3 48822.1 19908.1 48849.3 19908.1 48855.1 19908.1 48882.2 19908.1 48884.2 19917.8 48890 19939.2 48940.4 20105.9 49025.7 20175.7 49097.4 20175.7 49128.4 20175.7 49145.9 20160.2 49145.9 20107.8 49145.9 20063.2 49134.3 20034.2 49085.8 19914L48963.6 19601.8"/>
<path transform="matrix(.00359712,0,0,-.00359712,0,116)" d="M51003.9 20026.4C51033 20026.4 51077.6 20026.4 51077.6 20074.9 51077.6 20121.4 51031.1 20121.4 51005.9 20121.4H49722.4C49697.2 20121.4 49650.7 20121.4 49650.7 20074.9 49650.7 20026.4 49695.3 20026.4 49724.4 20026.4H51003.9ZM51005.9 19599.9C51031.1 19599.9 51077.6 19599.9 51077.6 19646.4 51077.6 19694.9 51033 19694.9 51003.9 19694.9H49724.4C49695.3 19694.9 49650.7 19694.9 49650.7 19646.4 49650.7 19599.9 49697.2 19599.9 49722.4 19599.9H51005.9"/>
<path transform="matrix(.00359712,0,0,-.00359712,0,116)" d="M51864.5 20608C51864.5 20660.4 51860.6 20662.3 51806.3 20662.3 51682.2 20540.2 51505.8 20538.2 51426.3 20538.2V20468.4C51472.8 20468.4 51600.8 20468.4 51707.4 20522.7V19534C51707.4 19470 51707.4 19444.8 51513.6 19444.8H51439.9V19375C51474.8 19376.9 51713.3 19382.8 51785 19382.8 51845.1 19382.8 52089.4 19376.9 52132 19375V19444.8H52058.3C51864.5 19444.8 51864.5 19470 51864.5 19534V20608"/>
<path transform="matrix(.00359712,0,0,-.00359712,0,116)" d="M54190.6 24492.5 53703 25570.1C53683.7 25614.4 53669.8 25614.4 53661.5 25614.4 53658.7 25614.4 53644.9 25614.4 53614.4 25592.3L53351.2 25392.8C53315.2 25365.1 53315.2 25356.8 53315.2 25348.5 53315.2 25334.6 53323.5 25318 53342.9 25318 53359.5 25318 53406.6 25356.8 53437.1 25379 53453.7 25392.8 53495.3 25423.3 53525.8 25445.4L54071.5 24245.9C54090.9 24201.6 54104.7 24201.6 54129.7 24201.6 54171.2 24201.6 54179.5 24218.2 54198.9 24257L55456.6 26861C55476 26899.8 55476 26910.9 55476 26916.4 55476 26944.1 55453.8 26971.8 55420.6 26971.8 55398.4 26971.8 55379 26958 55356.9 26913.6L54190.6 24492.5"/>
<path transform="matrix(.00359712,0,0,-.00359712,0,116)" stroke-width="110.783" stroke-linecap="butt" stroke-miterlimit="10" stroke-linejoin="miter" fill="none" stroke="#000000" d="M55421.5 26916.8H57510.1"/>
<path transform="matrix(.00359712,0,0,-.00359712,0,116)" d="M57416.5 26342.5C57419.3 26353.6 57424.8 26367.5 57424.8 26384.1 57424.8 26409 57411 26409 57355.6 26409H56186.6C56120.1 26409 56117.3 26406.3 56100.7 26353.6L55948.3 25855C55942.8 25841.2 55940 25821.8 55940 25816.2 55940 25813.5 55940 25785.8 55973.3 25785.8 55998.2 25785.8 56003.7 25805.1 56009.3 25813.5 56114.5 26140.3 56258.6 26323.2 56690.8 26323.2H57142.3L55593.8 24591.8C55593.8 24589 55582.7 24550.3 55582.7 24541.9 55582.7 24517 55602.1 24517 55651.9 24517H56857C56923.4 24517 56926.2 24519.8 56942.8 24572.4L57139.5 25184.6C57142.3 25195.7 57150.6 25215.1 57150.6 25226.2 57150.6 25240 57139.5 25256.6 57114.6 25256.6 57089.7 25256.6 57086.9 25245.6 57067.5 25187.4 56945.6 24810.6 56812.6 24611.2 56341.7 24611.2H55868L57416.5 26342.5"/>
<path transform="matrix(.00359712,0,0,-.00359712,0,116)" d="M58293.7 26248.4C58293.7 26303.8 58255 26348.1 58191.2 26348.1 58116.4 26348.1 58041.6 26276.1 58041.6 26201.3 58041.6 26148.6 58080.4 26101.5 58146.9 26101.5 58210.6 26101.5 58293.7 26165.3 58293.7 26248.4ZM58083.2 25206.8C58116.4 25287.1 58116.4 25292.7 58144.1 25367.5 58166.3 25422.8 58180.2 25461.6 58180.2 25514.3 58180.2 25638.9 58091.5 25741.4 57953 25741.4 57692.6 25741.4 57587.3 25339.8 57587.3 25314.8 57587.3 25287.1 57615 25287.1 57620.6 25287.1 57648.3 25287.1 57651 25292.7 57664.9 25337 57739.7 25597.4 57850.5 25680.5 57944.7 25680.5 57966.8 25680.5 58013.9 25680.5 58013.9 25591.8 58013.9 25533.7 57994.5 25475.5 57983.5 25447.8 57961.3 25375.8 57836.7 25054.4 57792.3 24935.3 57764.6 24863.3 57728.6 24771.9 57728.6 24713.7 57728.6 24583.5 57822.8 24486.5 57955.8 24486.5 58216.2 24486.5 58318.7 24888.2 58318.7 24913.1 58318.7 24940.8 58293.7 24940.8 58285.4 24940.8 58257.7 24940.8 58257.7 24932.5 58243.9 24891 58194 24716.5 58102.6 24547.5 57961.3 24547.5 57914.2 24547.5 57894.8 24575.2 57894.8 24638.9 57894.8 24708.1 57911.5 24746.9 57975.2 24915.9L58083.2 25206.8"/>
<path transform="matrix(.00359712,0,0,-.00359712,0,116)" stroke-width="110.783" stroke-linecap="butt" stroke-miterlimit="10" stroke-linejoin="miter" fill="none" stroke="#000000" d="M53113.3 23335.3H58464.2"/>
<path transform="matrix(.00359712,0,0,-.00359712,0,116)" d="M54134.7 20405C54112.5 20310.8 54107 20291.5 53985.1 20291.5 53951.8 20291.5 53921.4 20291.5 53921.4 20238.8 53921.4 20216.7 53935.2 20205.6 53957.4 20205.6 54032.2 20205.6 54112.5 20213.9 54190.1 20213.9 54281.5 20213.9 54375.7 20205.6 54464.3 20205.6 54478.2 20205.6 54514.2 20205.6 54514.2 20261 54514.2 20291.5 54486.5 20291.5 54447.7 20291.5 54309.2 20291.5 54309.2 20310.8 54309.2 20335.8 54309.2 20369 54425.5 20820.6 54444.9 20889.8 54480.9 20809.5 54558.5 20712.5 54699.8 20712.5 55021.1 20712.5 55367.4 21117 55367.4 21524.2 55367.4 21784.6 55209.5 21967.4 54999 21967.4 54860.5 21967.4 54727.5 21867.7 54636.1 21759.7 54608.4 21909.3 54489.3 21967.4 54386.8 21967.4 54259.3 21967.4 54206.7 21859.4 54181.8 21809.5 54131.9 21715.3 54095.9 21549.1 54095.9 21540.8 54095.9 21513.1 54123.6 21513.1 54129.1 21513.1 54156.8 21513.1 54159.6 21515.9 54176.2 21576.8 54223.3 21773.5 54278.7 21906.5 54378.4 21906.5 54425.5 21906.5 54464.3 21884.3 54464.3 21779 54464.3 21715.3 54456 21684.9 54444.9 21637.8L54134.7 20405ZM54622.2 21607.3C54641.6 21682.1 54716.4 21759.7 54766.3 21801.2 54863.2 21887.1 54943.5 21906.5 54990.6 21906.5 55101.5 21906.5 55167.9 21809.5 55167.9 21646.1 55167.9 21482.6 55076.5 21164.1 55026.7 21058.8 54932.5 20864.9 54799.5 20773.5 54697 20773.5 54514.2 20773.5 54478.2 21003.4 54478.2 21020 54478.2 21025.6 54478.2 21031.1 54486.5 21064.3L54622.2 21607.3"/>
<path transform="matrix(.00359712,0,0,-.00359712,0,116)" d="M56031.1 21539.7C56031.1 21570.7 56007.9 21613.4 55953.6 21613.4 55901.3 21613.4 55845 21563 55845 21506.7 55845 21473.8 55870.2 21433.1 55922.6 21433.1 55978.8 21433.1 56031.1 21487.3 56031.1 21539.7ZM55635.6 20554.8C55627.9 20529.6 55618.2 20506.4 55618.2 20473.4 55618.2 20382.3 55695.8 20308.6 55802.4 20308.6 55996.3 20308.6 56081.5 20576.2 56081.5 20605.2 56081.5 20630.4 56056.3 20630.4 56050.5 20630.4 56023.4 20630.4 56021.5 20618.8 56013.7 20597.5 55969.1 20442.4 55883.8 20362.9 55808.2 20362.9 55769.4 20362.9 55759.7 20388.1 55759.7 20430.8 55759.7 20475.3 55773.3 20512.2 55790.7 20554.8 55810.1 20607.2 55831.5 20659.5 55852.8 20709.9 55870.2 20756.5 55940 20932.9 55947.8 20956.1 55953.6 20975.5 55959.4 20998.8 55959.4 21018.2 55959.4 21109.3 55881.9 21183 55775.2 21183 55583.3 21183 55494.1 20919.3 55494.1 20886.3 55494.1 20861.1 55521.3 20861.1 55527.1 20861.1 55554.2 20861.1 55556.2 20870.8 55562 20892.2 55612.4 21058.9 55697.7 21128.7 55769.4 21128.7 55800.4 21128.7 55817.9 21113.2 55817.9 21060.8 55817.9 21016.2 55806.3 20987.2 55757.8 20867L55635.6 20554.8"/>
<path transform="matrix(.00359712,0,0,-.00359712,0,116)" d="M57304 21895.8H57238.1C57232.3 21853.2 57212.9 21738.8 57187.7 21719.4 57172.2 21707.8 57022.9 21707.8 56995.8 21707.8H56639.1C56842.6 21888.1 56910.5 21942.4 57026.8 22033.5 57170.3 22147.9 57304 22268.1 57304 22452.3 57304 22686.8 57098.5 22830.3 56850.4 22830.3 56610 22830.3 56447.1 22661.6 56447.1 22483.3 56447.1 22384.4 56530.5 22374.7 56549.9 22374.7 56596.4 22374.7 56652.6 22407.7 56652.6 22477.5 56652.6 22512.3 56639.1 22580.2 56538.3 22580.2 56598.4 22717.9 56730.2 22760.5 56821.3 22760.5 57015.2 22760.5 57116 22609.3 57116 22452.3 57116 22283.6 56995.8 22149.8 56933.8 22080L56466.5 21618.6C56447.1 21601.2 56447.1 21597.3 56447.1 21543H57245.9L57304 21895.8"/>
<path transform="matrix(.00359712,0,0,-.00359712,0,116)" d="M60166.6 24615.4C60180.5 24645.8 60180.5 24651.4 60180.5 24665.2 60180.5 24695.7 60155.5 24720.6 60125.1 24720.6 60100.1 24720.6 60080.8 24706.8 60061.4 24656.9L59576.6 23385.4C59571 23368.8 59562.7 23352.2 59562.7 23335.5 59562.7 23327.2 59562.7 23321.7 59576.6 23288.5L60061.4 22016.9C60072.4 21986.5 60086.3 21950.5 60125.1 21950.5 60155.5 21950.5 60180.5 21975.4 60180.5 22005.9 60180.5 22014.2 60180.5 22019.7 60166.6 22050.2L59676.3 23335.5 60166.6 24615.4"/>
<path transform="matrix(.00359712,0,0,-.00359712,0,116)" d="M60479 22285.6C60468 22246.9 60465.2 22244.1 60462.4 22241.3 60445.8 22235.8 60415.3 22235.8 60390.4 22235.8 60343.3 22235.8 60293.5 22235.8 60293.5 22158.2 60293.5 22127.8 60315.6 22105.6 60346.1 22105.6 60426.4 22105.6 60517.8 22113.9 60600.9 22113.9 60697.9 22113.9 60803.2 22105.6 60897.3 22105.6 60916.7 22105.6 60969.4 22105.6 60969.4 22185.9 60969.4 22233 60925 22235.8 60897.3 22235.8 60858.6 22235.8 60814.3 22235.8 60778.2 22238.5L60897.3 22720.6C60938.9 22681.8 61030.3 22620.8 61177.1 22620.8 61659.2 22620.8 61958.3 23058.5 61958.3 23438 61958.3 23778.8 61703.5 23895.1 61473.5 23895.1 61276.9 23895.1 61132.8 23787.1 61088.5 23745.5 60983.2 23895.1 60800.4 23895.1 60769.9 23895.1 60667.4 23895.1 60587.1 23837 60528.9 23737.2 60459.7 23626.4 60423.6 23476.8 60423.6 23463 60423.6 23424.2 60465.2 23424.2 60490.1 23424.2 60520.6 23424.2 60531.7 23424.2 60545.5 23438 60551.1 23443.6 60551.1 23449.1 60567.7 23518.4 60623.1 23740 60686.8 23795.4 60756.1 23795.4 60786.5 23795.4 60819.8 23784.3 60819.8 23692.9 60819.8 23651.3 60814.3 23612.6 60803.2 23573.8L60479 22285.6ZM61116.2 23615.3C61196.5 23709.5 61326.7 23795.4 61459.7 23795.4 61631.5 23795.4 61645.3 23645.8 61645.3 23584.9 61645.3 23440.8 61551.1 23100.1 61506.8 22992 61420.9 22789.8 61285.2 22720.6 61171.6 22720.6 61008.2 22720.6 60941.7 22850.8 60941.7 22881.2L60947.2 22920 61116.2 23615.3"/>
<path transform="matrix(.00359712,0,0,-.00359712,0,116)" d="M62440.5 24620.9C62440.5 24670.8 62440.5 24720.6 62385.1 24720.6 62329.7 24720.6 62329.7 24670.8 62329.7 24620.9V22050.2C62329.7 22000.3 62329.7 21950.5 62385.1 21950.5 62440.5 21950.5 62440.5 22000.3 62440.5 22050.2V24620.9"/>
<path transform="matrix(.00359712,0,0,-.00359712,0,116)" d="M65017.8 24568.3C65017.8 24576.6 65012.2 24596 64987.3 24596 64973.5 24596 64970.7 24593.2 64937.4 24554.4L64804.5 24396.5C64732.4 24526.7 64588.4 24596 64408.3 24596 64056.5 24596 63724.1 24277.4 63724.1 23942.2 63724.1 23717.8 63870.9 23590.4 64012.2 23548.8L64308.6 23471.3C64411.1 23446.4 64563.5 23404.8 64563.5 23177.6 64563.5 22928.3 64336.3 22667.9 64064.8 22667.9 63887.5 22667.9 63580 22728.9 63580 23072.4 63580 23138.9 63593.9 23205.3 63596.7 23222 63599.4 23233 63602.2 23235.8 63602.2 23241.4 63602.2 23269.1 63582.8 23271.8 63569 23271.8 63555.1 23271.8 63549.6 23269.1 63541.3 23260.8 63530.2 23249.7 63375 22618.1 63375 22609.8 63375 22593.1 63388.9 22582.1 63405.5 22582.1 63419.4 22582.1 63422.1 22584.8 63455.4 22623.6L63591.1 22781.5C63710.3 22620.8 63898.6 22582.1 64059.3 22582.1 64436 22582.1 64762.9 22950.5 64762.9 23294 64762.9 23485.1 64668.7 23579.3 64627.2 23618.1 64563.5 23681.8 64521.9 23692.9 64275.4 23756.6 64214.4 23773.2 64114.7 23800.9 64089.8 23806.5 64015 23831.4 63920.8 23911.8 63920.8 24058.6 63920.8 24283 64142.4 24518.4 64405.6 24518.4 64635.5 24518.4 64804.5 24399.3 64804.5 24089 64804.5 24000.4 64793.4 23950.5 64793.4 23933.9 64793.4 23931.1 64793.4 23906.2 64826.6 23906.2 64854.3 23906.2 64857.1 23914.5 64868.2 23961.6L65017.8 24568.3"/>
<path transform="matrix(.00359712,0,0,-.00359712,0,116)" d="M65990.5 24620.9C65990.5 24670.8 65990.5 24720.6 65935.1 24720.6 65879.7 24720.6 65879.7 24670.8 65879.7 24620.9V22050.2C65879.7 22000.3 65879.7 21950.5 65935.1 21950.5 65990.5 21950.5 65990.5 22000.3 65990.5 22050.2V24620.9"/>
<path transform="matrix(.00359712,0,0,-.00359712,0,116)" d="M66463 22285.6C66452 22246.9 66449.2 22244.1 66446.4 22241.3 66429.8 22235.8 66399.3 22235.8 66374.4 22235.8 66327.3 22235.8 66277.5 22235.8 66277.5 22158.2 66277.5 22127.8 66299.6 22105.6 66330.1 22105.6 66410.4 22105.6 66501.8 22113.9 66584.9 22113.9 66681.9 22113.9 66787.2 22105.6 66881.3 22105.6 66900.7 22105.6 66953.4 22105.6 66953.4 22185.9 66953.4 22233 66909 22235.8 66881.3 22235.8 66842.6 22235.8 66798.3 22235.8 66762.2 22238.5L66881.3 22720.6C66922.9 22681.8 67014.3 22620.8 67161.1 22620.8 67643.2 22620.8 67942.3 23058.5 67942.3 23438 67942.3 23778.8 67687.5 23895.1 67457.5 23895.1 67260.9 23895.1 67116.8 23787.1 67072.5 23745.5 66967.2 23895.1 66784.4 23895.1 66753.9 23895.1 66651.4 23895.1 66571.1 23837 66512.9 23737.2 66443.7 23626.4 66407.6 23476.8 66407.6 23463 66407.6 23424.2 66449.2 23424.2 66474.1 23424.2 66504.6 23424.2 66515.7 23424.2 66529.5 23438 66535.1 23443.6 66535.1 23449.1 66551.7 23518.4 66607.1 23740 66670.8 23795.4 66740.1 23795.4 66770.5 23795.4 66803.8 23784.3 66803.8 23692.9 66803.8 23651.3 66798.3 23612.6 66787.2 23573.8L66463 22285.6ZM67100.2 23615.3C67180.5 23709.5 67310.7 23795.4 67443.7 23795.4 67615.5 23795.4 67629.3 23645.8 67629.3 23584.9 67629.3 23440.8 67535.1 23100.1 67490.8 22992 67404.9 22789.8 67269.2 22720.6 67155.6 22720.6 66992.2 22720.6 66925.7 22850.8 66925.7 22881.2L66931.2 22920 67100.2 23615.3"/>
<path transform="matrix(.00359712,0,0,-.00359712,0,116)" d="M68740.3 23288.5C68754.1 23321.7 68754.1 23327.2 68754.1 23335.5 68754.1 23343.9 68754.1 23349.4 68740.3 23382.6L68255.5 24656.9C68238.9 24704 68222.2 24720.6 68191.8 24720.6 68161.3 24720.6 68136.4 24695.7 68136.4 24665.2 68136.4 24656.9 68136.4 24651.4 68150.2 24620.9L68640.5 23335.5 68150.2 22055.7C68136.4 22025.3 68136.4 22019.7 68136.4 22005.9 68136.4 21975.4 68161.3 21950.5 68191.8 21950.5 68227.8 21950.5 68238.9 21978.2 68249.9 22005.9L68740.3 23288.5"/>
<path transform="matrix(.00359712,0,0,-.00359712,0,116)" d="M39683.1 8790.84C39724.7 8790.84 39777.3 8790.84 39777.3 8846.25 39777.3 8901.66 39724.7 8901.66 39685.9 8901.66H38026.5C37987.8 8901.66 37935.1 8901.66 37935.1 8846.25 37935.1 8790.84 37987.8 8790.84 38029.3 8790.84H39683.1ZM39685.9 8253.44C39724.7 8253.44 39777.3 8253.44 39777.3 8308.84 39777.3 8364.25 39724.7 8364.25 39683.1 8364.25H38029.3C37987.8 8364.25 37935.1 8364.25 37935.1 8308.84 37935.1 8253.44 37987.8 8253.44 38026.5 8253.44H39685.9"/>
<path transform="matrix(.00359712,0,0,-.00359712,0,116)" d="M42801 4451.72C42801 4460.03 42801 4465.56 42784.4 4484.95 42518.5 4806.3 42296.9 5160.89 42133.4 5545.94 41770.5 6393.63 41626.5 7385.34 41626.5 8576.53 41626.5 9756.63 41762.2 10792.7 42172.2 11701.3 42332.9 12053.1 42543.4 12380 42790 12679.2 42795.5 12687.5 42801 12693 42801 12704.1 42801 12731.8 42781.6 12731.8 42740.1 12731.8 42698.5 12731.8 42693 12731.8 42687.5 12726.3 42684.7 12723.5 42512.9 12557.3 42296.9 12252.6 41814.8 11571.1 41571.1 10756.7 41446.4 9931.14 41379.9 9485.14 41357.8 9030.84 41357.8 8579.3 41357.8 7543.25 41488 6485.03 41931.2 5537.63 42127.9 5116.56 42391 4737.05 42665.3 4448.95 42690.2 4426.78 42693 4424.02 42740.1 4424.02 42781.6 4424.02 42801 4424.02 42801 4451.72"/>
<path transform="matrix(.00359712,0,0,-.00359712,0,116)" d="M44242.5 11469.1C44234.8 11443.9 44223.1 11395.5 44223.1 11389.7 44223.1 11347 44258 11327.6 44289 11327.6 44324 11327.6 44355 11352.8 44364.7 11370.3 44374.4 11387.7 44389.9 11449.8 44399.6 11490.5 44409.3 11527.3 44430.6 11616.5 44442.2 11665 44453.8 11707.6 44465.5 11750.3 44475.2 11794.8 44496.5 11874.3 44500.4 11889.8 44556.6 11969.3 44610.9 12046.9 44702 12147.7 44847.4 12147.7 44959.8 12147.7 44961.8 12048.8 44961.8 12012 44961.8 11895.7 44878.4 11680.5 44847.4 11599 44826.1 11544.8 44818.3 11527.3 44818.3 11494.3 44818.3 11391.6 44903.6 11327.6 45002.5 11327.6 45196.4 11327.6 45281.7 11595.2 45281.7 11624.2 45281.7 11649.4 45256.5 11649.4 45250.6 11649.4 45223.5 11649.4 45221.6 11637.8 45213.8 11616.5 45169.2 11461.4 45085.9 11381.9 45008.3 11381.9 44967.6 11381.9 44959.8 11409 44959.8 11449.8 44959.8 11494.3 44969.5 11519.5 45004.4 11606.8 45027.7 11666.9 45107.2 11872.4 45107.2 11981 45107.2 12169 44957.9 12202 44855.2 12202 44694.2 12202 44585.7 12103.1 44527.5 12025.5 44513.9 12159.3 44399.6 12202 44320.1 12202 44236.7 12202 44192.1 12141.9 44166.9 12097.3 44124.3 12025.5 44097.1 11915 44097.1 11905.3 44097.1 11880.1 44124.3 11880.1 44130.1 11880.1 44157.2 11880.1 44159.2 11886 44172.7 11938.3 44201.8 12052.7 44238.6 12147.7 44314.3 12147.7 44364.7 12147.7 44378.2 12105 44378.2 12052.7 44378.2 12015.9 44360.8 11944.1 44347.2 11891.8 44333.6 11839.4 44314.3 11759.9 44304.6 11717.3L44242.5 11469.1"/>
<path transform="matrix(.00359712,0,0,-.00359712,0,116)" d="M46303.4 6637.73V6787.33C45935 6787.33 45849.1 6914.75 45849.1 7092.05V10061.7C45849.1 10241.8 45937.7 10366.4 46303.4 10366.4V10516H43076.1V10366.4C43444.6 10366.4 43530.4 10239 43530.4 10061.7V7092.05C43530.4 6911.98 43441.8 6787.33 43076.1 6787.33V6637.73H44408.6V6787.33C44040.2 6787.33 43954.3 6914.75 43954.3 7092.05V10366.4H45425.3V7092.05C45425.3 6911.98 45336.6 6787.33 44970.9 6787.33V6637.73H46303.4"/>
<path transform="matrix(.00359712,0,0,-.00359712,0,116)" d="M43525.1 5828.69C43525.1 5859.7 43501.9 5902.36 43447.6 5902.36 43395.3 5902.36 43339 5851.95 43339 5795.73 43339 5762.77 43364.2 5722.06 43416.6 5722.06 43472.8 5722.06 43525.1 5776.34 43525.1 5828.69ZM43129.6 4843.83C43121.9 4818.63 43112.2 4795.36 43112.2 4762.41 43112.2 4671.28 43189.8 4597.61 43296.4 4597.61 43490.3 4597.61 43575.5 4865.16 43575.5 4894.23 43575.5 4919.44 43550.3 4919.44 43544.5 4919.44 43517.4 4919.44 43515.5 4907.81 43507.7 4886.48 43463.1 4731.39 43377.8 4651.89 43302.2 4651.89 43263.4 4651.89 43253.7 4677.09 43253.7 4719.75 43253.7 4764.34 43267.3 4801.17 43284.7 4843.83 43304.1 4896.17 43325.5 4948.52 43346.8 4998.92 43364.2 5045.45 43434 5221.88 43441.8 5245.14 43447.6 5264.53 43453.4 5287.8 43453.4 5307.17 43453.4 5398.3 43375.9 5471.97 43269.2 5471.97 43077.3 5471.97 42988.1 5208.3 42988.1 5175.34 42988.1 5150.14 43015.3 5150.14 43021.1 5150.14 43048.2 5150.14 43050.2 5159.84 43056 5181.16 43106.4 5347.89 43191.7 5417.69 43263.4 5417.69 43294.4 5417.69 43311.9 5402.17 43311.9 5349.83 43311.9 5305.23 43300.3 5276.16 43251.8 5155.95L43129.6 4843.83"/>
<path transform="matrix(.00359712,0,0,-.00359712,0,116)" d="M45168.9 5268.41C45198 5268.41 45242.6 5268.41 45242.6 5316.88 45242.6 5363.41 45196.1 5363.41 45170.9 5363.41H43887.4C43862.2 5363.41 43815.7 5363.41 43815.7 5316.88 43815.7 5268.41 43860.3 5268.41 43889.4 5268.41H45168.9ZM45170.9 4841.89C45196.1 4841.89 45242.6 4841.89 45242.6 4888.42 45242.6 4936.89 45198 4936.89 45168.9 4936.89H43889.4C43860.3 4936.89 43815.7 4936.89 43815.7 4888.42 43815.7 4841.89 43862.2 4841.89 43887.4 4841.89H45170.9"/>
<path transform="matrix(.00359712,0,0,-.00359712,0,116)" d="M46029.5 5850.02C46029.5 5902.36 46025.6 5904.3 45971.3 5904.3 45847.2 5782.16 45670.8 5780.22 45591.3 5780.22V5710.42C45637.8 5710.42 45765.8 5710.42 45872.4 5764.7V4775.97C45872.4 4712 45872.4 4686.8 45678.6 4686.8H45604.9V4617C45639.8 4618.94 45878.3 4624.75 45950 4624.75 46010.1 4624.75 46254.4 4618.94 46297 4617V4686.8H46223.3C46029.5 4686.8 46029.5 4712 46029.5 4775.97V5850.02"/>
<path transform="matrix(.00359712,0,0,-.00359712,0,116)" d="M49366.7 11489.4C49366.7 11544.8 49328 11589.1 49264.2 11589.1 49189.4 11589.1 49114.6 11517.1 49114.6 11442.3 49114.6 11389.6 49153.4 11342.5 49219.9 11342.5 49283.6 11342.5 49366.7 11406.3 49366.7 11489.4ZM49156.2 10447.8C49189.4 10528.1 49189.4 10533.7 49217.1 10608.5 49239.3 10663.8 49253.2 10702.6 49253.2 10755.3 49253.2 10879.9 49164.5 10982.4 49026 10982.4 48765.6 10982.4 48660.3 10580.8 48660.3 10555.8 48660.3 10528.1 48688 10528.1 48693.6 10528.1 48721.3 10528.1 48724 10533.7 48737.9 10578 48812.7 10838.4 48923.5 10921.5 49017.7 10921.5 49039.8 10921.5 49086.9 10921.5 49086.9 10832.8 49086.9 10774.7 49067.5 10716.5 49056.5 10688.8 49034.3 10616.8 48909.7 10295.4 48865.3 10176.3 48837.6 10104.3 48801.6 10012.9 48801.6 9954.69 48801.6 9824.48 48895.8 9727.53 49028.8 9727.53 49289.2 9727.53 49391.7 10129.2 49391.7 10154.1 49391.7 10181.8 49366.7 10181.8 49358.4 10181.8 49330.7 10181.8 49330.7 10173.5 49316.9 10132 49267 9957.45 49175.6 9788.47 49034.3 9788.47 48987.2 9788.47 48967.8 9816.17 48967.8 9879.89 48967.8 9949.14 48984.5 9987.92 49048.2 10156.9L49156.2 10447.8"/>
<path transform="matrix(.00359712,0,0,-.00359712,0,116)" stroke-width="110.783" stroke-linecap="butt" stroke-miterlimit="10" stroke-linejoin="miter" fill="none" stroke="#000000" d="M47278.3 8576.86H50836.2"/>
<path transform="matrix(.00359712,0,0,-.00359712,0,116)" d="M47402.7 5647.03C47380.5 5552.84 47375 5533.45 47253.1 5533.45 47219.8 5533.45 47189.4 5533.45 47189.4 5480.83 47189.4 5458.67 47203.2 5447.58 47225.4 5447.58 47300.2 5447.58 47380.5 5455.89 47458.1 5455.89 47549.5 5455.89 47643.7 5447.58 47732.3 5447.58 47746.2 5447.58 47782.2 5447.58 47782.2 5502.98 47782.2 5533.45 47754.5 5533.45 47715.7 5533.45 47577.2 5533.45 47577.2 5552.84 47577.2 5577.78 47577.2 5611.03 47693.5 6062.56 47712.9 6131.81 47748.9 6051.48 47826.5 5954.53 47967.8 5954.53 48289.1 5954.53 48635.4 6358.97 48635.4 6766.19 48635.4 7026.59 48477.5 7209.42 48267 7209.42 48128.5 7209.42 47995.5 7109.7 47904.1 7001.66 47876.4 7151.25 47757.3 7209.42 47654.8 7209.42 47527.3 7209.42 47474.7 7101.39 47449.8 7051.52 47399.9 6957.33 47363.9 6791.13 47363.9 6782.81 47363.9 6755.11 47391.6 6755.11 47397.1 6755.11 47424.8 6755.11 47427.6 6757.88 47444.2 6818.83 47491.3 7015.52 47546.7 7148.48 47646.4 7148.48 47693.5 7148.48 47732.3 7126.31 47732.3 7021.05 47732.3 6957.33 47724 6926.86 47712.9 6879.77L47402.7 5647.03ZM47890.2 6849.3C47909.6 6924.09 47984.4 7001.66 48034.3 7043.22 48131.2 7129.09 48211.5 7148.48 48258.6 7148.48 48369.5 7148.48 48435.9 7051.52 48435.9 6888.08 48435.9 6724.64 48344.5 6406.06 48294.7 6300.8 48200.5 6106.89 48067.5 6015.47 47965 6015.47 47782.2 6015.47 47746.2 6245.39 47746.2 6262.02 47746.2 6267.56 47746.2 6273.09 47754.5 6306.34L47890.2 6849.3"/>
<path transform="matrix(.00359712,0,0,-.00359712,0,116)" d="M49300.1 6780.69C49300.1 6811.7 49276.9 6854.36 49222.6 6854.36 49170.3 6854.36 49114 6803.95 49114 6747.73 49114 6714.77 49139.2 6674.06 49191.6 6674.06 49247.8 6674.06 49300.1 6728.34 49300.1 6780.69ZM48904.6 5795.83C48896.9 5770.63 48887.2 5747.36 48887.2 5714.41 48887.2 5623.28 48964.8 5549.61 49071.4 5549.61 49265.3 5549.61 49350.5 5817.16 49350.5 5846.23 49350.5 5871.44 49325.3 5871.44 49319.5 5871.44 49292.4 5871.44 49290.5 5859.81 49282.7 5838.48 49238.1 5683.39 49152.8 5603.89 49077.2 5603.89 49038.4 5603.89 49028.7 5629.09 49028.7 5671.75 49028.7 5716.34 49042.3 5753.17 49059.7 5795.83 49079.1 5848.17 49100.5 5900.52 49121.8 5950.92 49139.2 5997.45 49209 6173.88 49216.8 6197.14 49222.6 6216.53 49228.4 6239.8 49228.4 6259.17 49228.4 6350.3 49150.9 6423.97 49044.2 6423.97 48852.3 6423.97 48763.1 6160.3 48763.1 6127.34 48763.1 6102.14 48790.3 6102.14 48796.1 6102.14 48823.2 6102.14 48825.2 6111.84 48831 6133.16 48881.4 6299.89 48966.7 6369.69 49038.4 6369.69 49069.4 6369.69 49086.9 6354.17 49086.9 6301.83 49086.9 6257.23 49075.3 6228.16 49026.8 6107.95L48904.6 5795.83"/>
<path transform="matrix(.00359712,0,0,-.00359712,0,116)" d="M50573 7137.84H50507.1C50501.3 7095.19 50481.9 6980.81 50456.7 6961.42 50441.2 6949.8 50291.9 6949.8 50264.8 6949.8H49908.1C50111.6 7130.09 50179.5 7184.38 50295.8 7275.48 50439.3 7389.88 50573 7510.08 50573 7694.25 50573 7928.83 50367.5 8072.3 50119.4 8072.3 49879 8072.3 49716.1 7903.63 49716.1 7725.27 49716.1 7626.39 49799.5 7616.7 49818.9 7616.7 49865.4 7616.7 49921.6 7649.66 49921.6 7719.45 49921.6 7754.34 49908.1 7822.2 49807.3 7822.2 49867.4 7959.86 49999.2 8002.5 50090.3 8002.5 50284.2 8002.5 50385 7851.28 50385 7694.25 50385 7525.58 50264.8 7391.81 50202.8 7322.02L49735.5 6860.61C49716.1 6843.16 49716.1 6839.28 49716.1 6785H50514.9L50573 7137.84"/>
<path transform="matrix(.00359712,0,0,-.00359712,0,116)" d="M52706.5 8576.53C52706.5 9612.58 52576.3 10670.8 52133 11618.2 51936.3 12039.3 51673.2 12418.8 51398.9 12706.9 51374 12729 51371.2 12731.8 51324.1 12731.8 51285.3 12731.8 51263.2 12731.8 51263.2 12704.1 51263.2 12693 51274.3 12679.2 51279.8 12670.9 51545.8 12349.5 51767.4 11994.9 51930.8 11609.9 52293.7 10762.2 52437.8 9770.48 52437.8 8579.3 52437.8 7399.2 52302 6363.14 51892 5454.53 51731.3 5102.7 51520.8 4775.83 51274.3 4476.64 51271.5 4471.11 51263.2 4460.03 51263.2 4451.72 51263.2 4424.02 51285.3 4424.02 51324.1 4424.02 51365.7 4424.02 51371.2 4424.02 51376.8 4429.55 51379.5 4432.33 51551.3 4598.53 51767.4 4903.25 52249.4 5584.72 52493.2 6399.16 52617.8 7224.67 52684.3 7670.67 52706.5 8124.98 52706.5 8576.53"/>
<path transform="matrix(.00359712,0,0,-.00359712,0,116)" stroke-width="110.783" stroke-linecap="butt" stroke-miterlimit="10" stroke-linejoin="miter" fill="none" stroke="#000000" d="M67580 8557.68C67580 10999 65601 12978 63159.7 12978 60718.3 12978 58739.3 10999 58739.3 8557.68 58739.3 6116.36 60718.3 4137.33 63159.7 4137.33 65601 4137.33 67580 6116.36 67580 8557.68ZM63159.7 8557.68"/>
<path transform="matrix(.00359712,0,0,-.00359712,0,116)" d="M61300.5 9809.05C61286.7 9845.06 61281.1 9864.45 61236.8 9864.45 61192.5 9864.45 61184.2 9847.83 61170.3 9809.05L60596.9 8152.48C60547 8011.2 60436.2 7969.64 60286.6 7966.88V7881C60350.4 7883.77 60469.5 7889.31 60569.2 7889.31 60655.1 7889.31 60799.1 7883.77 60887.8 7881V7966.88C60749.3 7966.88 60680 8036.13 60680 8108.16 60680 8116.47 60682.8 8144.17 60685.5 8149.7L60813 8512.61H61497.2L61644 8088.77C61646.8 8077.69 61652.3 8061.06 61652.3 8049.98 61652.3 7966.88 61497.2 7966.88 61422.4 7966.88V7881C61522.2 7889.31 61716.1 7889.31 61821.3 7889.31 61940.5 7889.31 62067.9 7886.55 62184.2 7881V7966.88H62134.4C61968.2 7966.88 61929.4 7986.27 61898.9 8077.69L61300.5 9809.05ZM61153.7 9498.8 61466.8 8598.48H60843.5L61153.7 9498.8Z"/>
<path transform="matrix(.00359712,0,0,-.00359712,0,116)" d="M62579.7 8833.94V8091.53C62579.7 7966.88 62549.3 7966.88 62363.6 7966.88V7881C62460.6 7883.77 62601.9 7889.31 62676.7 7889.31 62748.7 7889.31 62892.8 7883.77 62986.9 7881V7966.88C62801.3 7966.88 62770.9 7966.88 62770.9 8091.53V8601.25C62770.9 8889.34 62967.5 9044.48 63144.8 9044.48 63319.4 9044.48 63349.8 8894.89 63349.8 8736.98V8091.53C63349.8 7966.88 63319.4 7966.88 63133.8 7966.88V7881C63230.7 7883.77 63372 7889.31 63446.8 7889.31 63518.8 7889.31 63662.9 7883.77 63757 7881V7966.88C63571.5 7966.88 63541 7966.88 63541 8091.53V8601.25C63541 8889.34 63737.7 9044.48 63915 9044.48 64089.5 9044.48 64119.9 8894.89 64119.9 8736.98V8091.53C64119.9 7966.88 64089.5 7966.88 63903.9 7966.88V7881C64000.8 7883.77 64142.1 7889.31 64216.9 7889.31 64288.9 7889.31 64433 7883.77 64527.2 7881V7966.88C64383.1 7966.88 64313.9 7966.88 64311.1 8049.98V8579.09C64311.1 8817.33 64311.1 8903.2 64225.2 9002.92 64186.4 9050.02 64095 9105.42 63934.3 9105.42 63701.6 9105.42 63579.8 8939.22 63532.7 8833.94 63493.9 9074.95 63288.9 9105.42 63164.2 9105.42 62962 9105.42 62831.8 8986.31 62754.3 8814.55V9105.42L62363.6 9074.95V8989.08C62557.6 8989.08 62579.7 8969.69 62579.7 8833.94"/>
<path transform="matrix(.00359712,0,0,-.00359712,0,116)" d="M65058.5 8922.59V9105.42L64659.6 9074.95V8989.08C64856.3 8989.08 64875.6 8972.45 64875.6 8850.56V7554.13C64875.6 7429.45 64845.2 7429.45 64659.6 7429.45V7343.58C64753.8 7346.36 64897.8 7351.89 64969.8 7351.89 65044.6 7351.89 65185.9 7346.36 65282.9 7343.58V7429.45C65097.3 7429.45 65066.8 7429.45 65066.8 7554.13V8019.52 8044.44C65080.6 8000.13 65197 7850.53 65407.5 7850.53 65737.2 7850.53 66025.3 8122 66025.3 8479.36 66025.3 8831.17 65756.6 9105.42 65446.3 9105.42 65230.2 9105.42 65113.9 8983.53 65058.5 8922.59ZM65066.8 8196.8V8814.55C65147.1 8955.83 65282.9 9036.17 65424.1 9036.17 65626.4 9036.17 65795.3 8792.39 65795.3 8479.36 65795.3 8144.17 65601.4 7911.47 65396.4 7911.47 65285.6 7911.47 65180.4 7966.88 65105.6 8080.45 65066.8 8138.63 65066.8 8141.39 65066.8 8196.8"/>
<path transform="matrix(.00359712,0,0,-.00359712,0,116)" stroke-width="110.783" stroke-linecap="butt" stroke-miterlimit="10" stroke-linejoin="miter" fill="none" stroke="#000000" d="M59994.8 11722.5 54801.3 16916.1"/>
<path transform="matrix(.00359712,0,0,-.00359712,0,116)" d="M56674.4 15042.9 57434.1 13209 58508.3 14283.3"/>
<path transform="matrix(.00359712,0,0,-.00359712,0,116)" d="M58501.7 15498C58479.5 15403.8 58474 15384.5 58352.1 15384.5 58318.8 15384.5 58288.4 15384.5 58288.4 15331.8 58288.4 15309.7 58302.2 15298.6 58324.4 15298.6 58399.2 15298.6 58479.5 15306.9 58557.1 15306.9 58648.5 15306.9 58742.7 15298.6 58831.3 15298.6 58845.2 15298.6 58881.2 15298.6 58881.2 15354 58881.2 15384.5 58853.5 15384.5 58814.7 15384.5 58676.2 15384.5 58676.2 15403.8 58676.2 15428.8 58676.2 15462 58792.5 15913.6 58811.9 15982.8 58847.9 15902.5 58925.5 15805.5 59066.8 15805.5 59388.1 15805.5 59734.4 16210 59734.4 16617.2 59734.4 16877.6 59576.5 17060.4 59366 17060.4 59227.5 17060.4 59094.5 16960.7 59003.1 16852.7 58975.4 17002.3 58856.3 17060.4 58753.8 17060.4 58626.3 17060.4 58573.7 16952.4 58548.8 16902.5 58498.9 16808.3 58462.9 16642.1 58462.9 16633.8 58462.9 16606.1 58490.6 16606.1 58496.1 16606.1 58523.8 16606.1 58526.6 16608.9 58543.2 16669.8 58590.3 16866.5 58645.7 16999.5 58745.4 16999.5 58792.5 16999.5 58831.3 16977.3 58831.3 16872 58831.3 16808.3 58823 16777.9 58811.9 16730.8L58501.7 15498ZM58989.2 16700.3C59008.6 16775.1 59083.4 16852.7 59133.3 16894.2 59230.2 16980.1 59310.5 16999.5 59357.6 16999.5 59468.5 16999.5 59534.9 16902.5 59534.9 16739.1 59534.9 16575.6 59443.5 16257.1 59393.7 16151.8 59299.5 15957.9 59166.5 15866.5 59064 15866.5 58881.2 15866.5 58845.2 16096.4 58845.2 16113 58845.2 16118.6 58845.2 16124.1 58853.5 16157.3L58989.2 16700.3"/>
<path transform="matrix(.00359712,0,0,-.00359712,0,116)" d="M60299.3 16068.5C60450.5 16068.5 60559 15963.8 60559 15756.4 60559 15516 60419.5 15444.3 60307 15444.3 60229.5 15444.3 60058.9 15465.6 59977.4 15580 60068.6 15583.8 60089.9 15647.8 60089.9 15688.5 60089.9 15750.6 60043.4 15795.2 59983.3 15795.2 59929 15795.2 59874.7 15762.2 59874.7 15682.7 59874.7 15500.5 60076.3 15382.2 60310.9 15382.2 60580.4 15382.2 60766.5 15562.5 60766.5 15756.4 60766.5 15907.6 60642.4 16058.8 60429.2 16103.4 60632.7 16177.1 60706.4 16322.5 60706.4 16440.8 60706.4 16593.9 60530 16708.3 60314.8 16708.3 60099.6 16708.3 59934.8 16603.6 59934.8 16448.5 59934.8 16382.6 59977.4 16345.8 60035.6 16345.8 60095.7 16345.8 60134.5 16390.3 60134.5 16444.6 60134.5 16500.9 60095.7 16541.6 60035.6 16545.5 60103.5 16630.8 60237.2 16652.1 60309 16652.1 60396.2 16652.1 60518.3 16609.4 60518.3 16440.8 60518.3 16359.3 60491.2 16270.2 60440.8 16210 60376.8 16136.4 60322.5 16132.5 60225.6 16126.7 60177.1 16122.8 60173.3 16122.8 60163.6 16120.9 60159.7 16120.9 60144.2 16117 60144.2 16095.7 60144.2 16068.5 60161.6 16068.5 60194.6 16068.5H60299.3"/>
<path transform="matrix(.00359712,0,0,-.00359712,0,116)" d="M62005.9 16528.5C62005.9 16608.9 61939.4 16675.4 61859.1 16675.4 61778.7 16675.4 61712.2 16608.9 61712.2 16528.5 61712.2 16448.2 61778.7 16381.7 61859.1 16381.7 61939.4 16381.7 62005.9 16448.2 62005.9 16528.5"/>
<path transform="matrix(.00359712,0,0,-.00359712,0,116)" d="M63232.9 16528.5C63232.9 16608.9 63166.4 16675.4 63086.1 16675.4 63005.7 16675.4 62939.2 16608.9 62939.2 16528.5 62939.2 16448.2 63005.7 16381.7 63086.1 16381.7 63166.4 16381.7 63232.9 16448.2 63232.9 16528.5"/>
<path transform="matrix(.00359712,0,0,-.00359712,0,116)" d="M64462.9 16528.5C64462.9 16608.9 64396.4 16675.4 64316.1 16675.4 64235.7 16675.4 64169.2 16608.9 64169.2 16528.5 64169.2 16448.2 64235.7 16381.7 64316.1 16381.7 64396.4 16381.7 64462.9 16448.2 64462.9 16528.5"/>
<path transform="matrix(.00359712,0,0,-.00359712,0,116)" stroke-width="110.783" stroke-linecap="butt" stroke-miterlimit="10" stroke-linejoin="miter" fill="none" stroke="#000000" d="M66324.5 11722.5 71518 16916.1"/>
<path transform="matrix(.00359712,0,0,-.00359712,0,116)" d="M69644.9 15042.9 67811 14283.3 68885.2 13209"/>
<path transform="matrix(.00359712,0,0,-.00359712,0,116)" d="M65166.7 15498C65144.5 15403.8 65139 15384.5 65017.1 15384.5 64983.8 15384.5 64953.4 15384.5 64953.4 15331.8 64953.4 15309.7 64967.2 15298.6 64989.4 15298.6 65064.2 15298.6 65144.5 15306.9 65222.1 15306.9 65313.5 15306.9 65407.7 15298.6 65496.3 15298.6 65510.2 15298.6 65546.2 15298.6 65546.2 15354 65546.2 15384.5 65518.5 15384.5 65479.7 15384.5 65341.2 15384.5 65341.2 15403.8 65341.2 15428.8 65341.2 15462 65457.5 15913.6 65476.9 15982.8 65512.9 15902.5 65590.5 15805.5 65731.8 15805.5 66053.1 15805.5 66399.4 16210 66399.4 16617.2 66399.4 16877.6 66241.5 17060.4 66031 17060.4 65892.5 17060.4 65759.5 16960.7 65668.1 16852.7 65640.4 17002.3 65521.3 17060.4 65418.8 17060.4 65291.3 17060.4 65238.7 16952.4 65213.8 16902.5 65163.9 16808.3 65127.9 16642.1 65127.9 16633.8 65127.9 16606.1 65155.6 16606.1 65161.1 16606.1 65188.8 16606.1 65191.6 16608.9 65208.2 16669.8 65255.3 16866.5 65310.7 16999.5 65410.4 16999.5 65457.5 16999.5 65496.3 16977.3 65496.3 16872 65496.3 16808.3 65488 16777.9 65476.9 16730.8L65166.7 15498ZM65654.2 16700.3C65673.6 16775.1 65748.4 16852.7 65798.3 16894.2 65895.2 16980.1 65975.5 16999.5 66022.6 16999.5 66133.5 16999.5 66199.9 16902.5 66199.9 16739.1 66199.9 16575.6 66108.5 16257.1 66058.7 16151.8 65964.5 15957.9 65831.5 15866.5 65729 15866.5 65546.2 15866.5 65510.2 16096.4 65510.2 16113 65510.2 16118.6 65510.2 16124.1 65518.5 16157.3L65654.2 16700.3"/>
<path transform="matrix(.00359712,0,0,-.00359712,0,116)" d="M66671.5 15543.1C66663.8 15517.9 66652.1 15469.5 66652.1 15463.7 66652.1 15421 66687 15401.6 66718 15401.6 66753 15401.6 66784 15426.8 66793.7 15444.3 66803.4 15461.7 66818.9 15523.8 66828.6 15564.5 66838.3 15601.3 66859.6 15690.5 66871.2 15739 66882.8 15781.6 66894.5 15824.3 66904.2 15868.8 66925.5 15948.3 66929.4 15963.8 66985.6 16043.3 67039.9 16120.9 67131 16221.7 67276.4 16221.7 67388.8 16221.7 67390.8 16122.8 67390.8 16086 67390.8 15969.7 67307.4 15754.5 67276.4 15673 67255.1 15618.8 67247.3 15601.3 67247.3 15568.3 67247.3 15465.6 67332.6 15401.6 67431.5 15401.6 67625.4 15401.6 67710.7 15669.2 67710.7 15698.2 67710.7 15723.4 67685.5 15723.4 67679.6 15723.4 67652.5 15723.4 67650.6 15711.8 67642.8 15690.5 67598.2 15535.4 67514.9 15455.9 67437.3 15455.9 67396.6 15455.9 67388.8 15483 67388.8 15523.8 67388.8 15568.3 67398.5 15593.5 67433.4 15680.8 67456.7 15740.9 67536.2 15946.4 67536.2 16055 67536.2 16243 67386.9 16276 67284.2 16276 67123.2 16276 67014.7 16177.1 66956.5 16099.5 66942.9 16233.3 66828.6 16276 66749.1 16276 66665.7 16276 66621.1 16215.9 66595.9 16171.3 66553.3 16099.5 66526.1 15989 66526.1 15979.3 66526.1 15954.1 66553.3 15954.1 66559.1 15954.1 66586.2 15954.1 66588.2 15960 66601.7 16012.3 66630.8 16126.7 66667.6 16221.7 66743.3 16221.7 66793.7 16221.7 66807.2 16179 66807.2 16126.7 66807.2 16089.9 66789.8 16018.1 66776.2 15965.8 66762.6 15913.4 66743.3 15833.9 66733.6 15791.3L66671.5 15543.1"/>
<path transform="matrix(.00359712,0,0,-.00359712,0,116)" stroke-width="110.783" stroke-linecap="butt" stroke-miterlimit="10" stroke-linejoin="miter" fill="none" stroke="#000000" d="M54801.3 199.289 59994.8 5392.85"/>
<path transform="matrix(.00359712,0,0,-.00359712,0,116)" d="M58121.7 3519.71 56287.8 2760.05 57362 1685.83"/>
<path transform="matrix(.00359712,0,0,-.00359712,0,116)" d="M58501.7 287.031C58479.5 192.844 58474 173.453 58352.1 173.453 58318.8 173.453 58288.4 173.453 58288.4 120.828 58288.4 98.6719 58302.2 87.5781 58324.4 87.5781 58399.2 87.5781 58479.5 95.8906 58557.1 95.8906 58648.5 95.8906 58742.7 87.5781 58831.3 87.5781 58845.2 87.5781 58881.2 87.5781 58881.2 142.984 58881.2 173.453 58853.5 173.453 58814.7 173.453 58676.2 173.453 58676.2 192.844 58676.2 217.781 58676.2 251.031 58792.5 702.563 58811.9 771.813 58847.9 691.484 58925.5 594.531 59066.8 594.531 59388.1 594.531 59734.4 998.969 59734.4 1406.19 59734.4 1666.59 59576.5 1849.42 59366 1849.42 59227.5 1849.42 59094.5 1749.7 59003.1 1641.66 58975.4 1791.25 58856.3 1849.42 58753.8 1849.42 58626.3 1849.42 58573.7 1741.39 58548.8 1691.52 58498.9 1597.33 58462.9 1431.13 58462.9 1422.81 58462.9 1395.11 58490.6 1395.11 58496.1 1395.11 58523.8 1395.11 58526.6 1397.88 58543.2 1458.83 58590.3 1655.52 58645.7 1788.48 58745.4 1788.48 58792.5 1788.48 58831.3 1766.31 58831.3 1661.05 58831.3 1597.33 58823 1566.86 58811.9 1519.77L58501.7 287.031ZM58989.2 1489.3C59008.6 1564.09 59083.4 1641.66 59133.3 1683.22 59230.2 1769.09 59310.5 1788.48 59357.6 1788.48 59468.5 1788.48 59534.9 1691.52 59534.9 1528.08 59534.9 1364.64 59443.5 1046.06 59393.7 940.797 59299.5 746.891 59166.5 655.469 59064 655.469 58881.2 655.469 58845.2 885.391 58845.2 902.016 58845.2 907.563 58845.2 913.094 58853.5 946.344L58989.2 1489.3"/>
<path transform="matrix(.00359712,0,0,-.00359712,0,116)" d="M60419.5 1443.02C60419.5 1495.36 60415.6 1497.3 60361.3 1497.3 60237.2 1375.16 60060.8 1373.22 59981.3 1373.22V1303.42C60027.8 1303.42 60155.8 1303.42 60262.4 1357.7V368.969C60262.4 305 60262.4 279.797 60068.6 279.797H59994.9V210C60029.8 211.938 60268.3 217.75 60340 217.75 60400.1 217.75 60644.4 211.938 60687 210V279.797H60613.3C60419.5 279.797 60419.5 305 60419.5 368.969V1443.02"/>
<path transform="matrix(.00359712,0,0,-.00359712,0,116)" stroke-width="110.783" stroke-linecap="butt" stroke-miterlimit="10" stroke-linejoin="miter" fill="none" stroke="#000000" d="M71518 199.289 66324.5 5392.85"/>
<path transform="matrix(.00359712,0,0,-.00359712,0,116)" d="M68197.6 3519.71 68957.3 1685.83 70031.5 2760.05"/>
<path transform="matrix(.00359712,0,0,-.00359712,0,116)" d="M65431.7 287.031C65409.5 192.844 65404 173.453 65282.1 173.453 65248.8 173.453 65218.4 173.453 65218.4 120.828 65218.4 98.6719 65232.2 87.5781 65254.4 87.5781 65329.2 87.5781 65409.5 95.8906 65487.1 95.8906 65578.5 95.8906 65672.7 87.5781 65761.3 87.5781 65775.2 87.5781 65811.2 87.5781 65811.2 142.984 65811.2 173.453 65783.5 173.453 65744.7 173.453 65606.2 173.453 65606.2 192.844 65606.2 217.781 65606.2 251.031 65722.5 702.563 65741.9 771.813 65777.9 691.484 65855.5 594.531 65996.8 594.531 66318.1 594.531 66664.4 998.969 66664.4 1406.19 66664.4 1666.59 66506.5 1849.42 66296 1849.42 66157.5 1849.42 66024.5 1749.7 65933.1 1641.66 65905.4 1791.25 65786.3 1849.42 65683.8 1849.42 65556.3 1849.42 65503.7 1741.39 65478.8 1691.52 65428.9 1597.33 65392.9 1431.13 65392.9 1422.81 65392.9 1395.11 65420.6 1395.11 65426.1 1395.11 65453.8 1395.11 65456.6 1397.88 65473.2 1458.83 65520.3 1655.52 65575.7 1788.48 65675.4 1788.48 65722.5 1788.48 65761.3 1766.31 65761.3 1661.05 65761.3 1597.33 65753 1566.86 65741.9 1519.77L65431.7 287.031ZM65919.2 1489.3C65938.6 1564.09 66013.4 1641.66 66063.3 1683.22 66160.2 1769.09 66240.5 1788.48 66287.6 1788.48 66398.5 1788.48 66464.9 1691.52 66464.9 1528.08 66464.9 1364.64 66373.5 1046.06 66323.7 940.797 66229.5 746.891 66096.5 655.469 65994 655.469 65811.2 655.469 65775.2 885.391 65775.2 902.016 65775.2 907.563 65775.2 913.094 65783.5 946.344L65919.2 1489.3"/>
<path transform="matrix(.00359712,0,0,-.00359712,0,116)" d="M67679 562.844H67613.1C67607.3 520.188 67587.9 405.813 67562.7 386.422 67547.2 374.797 67397.9 374.797 67370.8 374.797H67014.1C67217.6 555.094 67285.5 609.375 67401.8 700.484 67545.3 814.875 67679 935.078 67679 1119.25 67679 1353.83 67473.5 1497.3 67225.4 1497.3 66985 1497.3 66822.1 1328.63 66822.1 1150.27 66822.1 1051.39 66905.5 1041.7 66924.9 1041.7 66971.4 1041.7 67027.6 1074.66 67027.6 1144.45 67027.6 1179.34 67014.1 1247.2 66913.3 1247.2 66973.4 1384.86 67105.2 1427.5 67196.3 1427.5 67390.2 1427.5 67491 1276.28 67491 1119.25 67491 950.578 67370.8 816.813 67308.8 747.016L66841.5 285.609C66822.1 268.156 66822.1 264.281 66822.1 210H67620.9L67679 562.844"/>
</svg>
