<svg xmlns="http://www.w3.org/2000/svg" xmlns:xlink="http://www.w3.org/1999/xlink" version="1.1" width="77pt" height="41pt" viewBox="0 0 77 41">
<path transform="matrix(.00359712,0,0,-.00359712,0,41)" stroke-width="110.783" stroke-linecap="butt" stroke-miterlimit="10" stroke-linejoin="miter" fill="none" stroke="#000000" d="M5876.09 5750.98 303.793 11323.3"/>
<path transform="matrix(.00359712,0,0,-.00359712,0,41)" stroke-width="110.783" stroke-linecap="butt" stroke-miterlimit="10" stroke-linejoin="miter" fill="none" stroke="#000000" d="M5876.09 5750.98 11448.4 11323.3"/>
<path transform="matrix(.00359712,0,0,-.00359712,0,41)" stroke-width="110.783" stroke-linecap="butt" stroke-miterlimit="10" stroke-linejoin="miter" fill="none" stroke="#000000" d="M303.793 178.691 5876.09 5750.98"/>
<path transform="matrix(.00359712,0,0,-.00359712,0,41)" stroke-width="110.783" stroke-linecap="butt" stroke-miterlimit="10" stroke-linejoin="miter" fill="none" stroke="#000000" d="M11448.4 178.691 5876.09 5750.98"/>
<path transform="matrix(.00359712,0,0,-.00359712,0,41)" d="M15099.1 5963.84C15140.7 5963.84 15193.3 5963.84 15193.3 6019.25 15193.3 6074.66 15140.7 6074.66 15101.9 6074.66H13442.5C13403.8 6074.66 13351.1 6074.66 13351.1 6019.25 13351.1 5963.84 13403.8 5963.84 13445.3 5963.84H15099.1ZM15101.9 5426.44C15140.7 5426.44 15193.3 5426.44 15193.3 5481.84 15193.3 5537.25 15140.7 5537.25 15099.1 5537.25H13445.3C13403.8 5537.25 13351.1 5537.25 13351.1 5481.84 13351.1 5426.44 13403.8 5426.44 13442.5 5426.44H15101.9"/>
<path transform="matrix(.00359712,0,0,-.00359712,0,41)" d="M17945.5 5695.14C17992.6 5695.14 18042.5 5695.14 18042.5 5750.55 18042.5 5805.95 17992.6 5805.95 17945.5 5805.95H16446.9C16399.8 5805.95 16349.9 5805.95 16349.9 5750.55 16349.9 5695.14 16399.8 5695.14 16446.9 5695.14H17945.5"/>
<path transform="matrix(.00359712,0,0,-.00359712,0,41)" d="M19060.7 6789.38C19060.7 6844.77 19022 6889.09 18958.2 6889.09 18883.4 6889.09 18808.6 6817.06 18808.6 6742.28 18808.6 6689.64 18847.4 6642.55 18913.9 6642.55 18977.6 6642.55 19060.7 6706.27 19060.7 6789.38ZM18850.2 5747.78C18883.4 5828.11 18883.4 5833.66 18911.1 5908.45 18933.3 5963.84 18947.2 6002.64 18947.2 6055.27 18947.2 6179.92 18858.5 6282.42 18720 6282.42 18459.6 6282.42 18354.3 5880.75 18354.3 5855.81 18354.3 5828.11 18382 5828.11 18387.6 5828.11 18415.3 5828.11 18418 5833.66 18431.9 5877.97 18506.7 6138.38 18617.5 6221.48 18711.7 6221.48 18733.8 6221.48 18780.9 6221.48 18780.9 6132.83 18780.9 6074.66 18761.5 6016.48 18750.5 5988.78 18728.3 5916.77 18603.7 5595.42 18559.3 5476.3 18531.6 5404.28 18495.6 5312.86 18495.6 5254.69 18495.6 5124.48 18589.8 5027.53 18722.8 5027.53 18983.2 5027.53 19085.7 5429.2 19085.7 5454.14 19085.7 5481.84 19060.7 5481.84 19052.4 5481.84 19024.7 5481.84 19024.7 5473.53 19010.9 5431.97 18961 5257.45 18869.6 5088.47 18728.3 5088.47 18681.2 5088.47 18661.8 5116.17 18661.8 5179.89 18661.8 5249.14 18678.5 5287.92 18742.2 5456.91L18850.2 5747.78"/>
<path transform="matrix(.00359712,0,0,-.00359712,0,41)" d="M20531.8 6102.36C20534.5 6118.98 20540.1 6132.83 20540.1 6152.22 20540.1 6199.31 20506.8 6227.02 20459.7 6227.02 20432 6227.02 20357.2 6207.63 20346.2 6107.91 20296.3 6210.39 20199.3 6282.42 20088.5 6282.42 19772.7 6282.42 19429.2 5894.59 19429.2 5495.69 19429.2 5221.44 19598.2 5058 19797.7 5058 19961.1 5058 20091.3 5188.2 20119 5218.67L20121.8 5215.91C20063.6 4969.36 20030.4 4855.78 20030.4 4850.23 20019.3 4825.3 19925.1 4551.06 19631.5 4551.06 19578.8 4551.06 19487.4 4553.83 19409.8 4578.75 19492.9 4603.69 19523.4 4675.72 19523.4 4722.81 19523.4 4767.13 19492.9 4819.77 19418.1 4819.77 19357.2 4819.77 19268.5 4769.91 19268.5 4659.09 19268.5 4545.52 19371 4490.11 19637 4490.11 19983.3 4490.11 20182.7 4706.19 20224.3 4872.39L20531.8 6102.36ZM20171.6 5412.58C20155 5340.56 20091.3 5271.3 20030.4 5218.67 19972.2 5168.81 19886.3 5118.94 19806 5118.94 19667.5 5118.94 19625.9 5263 19625.9 5373.8 19625.9 5506.77 19706.3 5833.66 19781 5974.94 19855.8 6110.67 19975 6221.48 20091.3 6221.48 20274.1 6221.48 20312.9 5997.09 20312.9 5983.25 20312.9 5969.39 20307.4 5952.77 20304.6 5941.69L20171.6 5412.58"/>
<path transform="matrix(.00359712,0,0,-.00359712,0,41)" d="M21173.9 5204.81C21173.9 5285.16 21107.4 5351.64 21027.1 5351.64 20946.7 5351.64 20880.2 5285.16 20880.2 5204.81 20880.2 5124.48 20946.7 5058 21027.1 5058 21107.4 5058 21173.9 5124.48 21173.9 5204.81"/>
</svg>
