<svg xmlns="http://www.w3.org/2000/svg" xmlns:xlink="http://www.w3.org/1999/xlink" version="1.1" width="127pt" height="58pt" viewBox="0 0 127 58">
<path transform="matrix(.00359712,0,0,-.00359712,0,58)" stroke-width="110.783" stroke-linecap="butt" stroke-miterlimit="10" stroke-linejoin="miter" fill="none" stroke="#000000" d="M8184.15 288.457 4243.95 4228.66"/>
<path transform="matrix(.00359712,0,0,-.00359712,0,58)" stroke-width="110.783" stroke-linecap="butt" stroke-miterlimit="10" stroke-linejoin="miter" fill="none" stroke="#000000" d="M4243.95 4228.66 303.746 288.457"/>
<path transform="matrix(.00359712,0,0,-.00359712,0,58)" stroke-width="110.783" stroke-linecap="butt" stroke-miterlimit="10" stroke-linejoin="miter" fill="none" stroke="#000000" d="M8184.15 16049.3 4243.95 12109.1"/>
<path transform="matrix(.00359712,0,0,-.00359712,0,58)" stroke-width="110.783" stroke-linecap="butt" stroke-miterlimit="10" stroke-linejoin="miter" fill="none" stroke="#000000" d="M4243.95 12109.1 303.746 16049.3"/>
<path transform="matrix(.00359712,0,0,-.00359712,0,58)" stroke-width="110.783" stroke-linecap="butt" stroke-miterlimit="10" stroke-linejoin="miter" fill="none" stroke="#000000" d="M4243.95 4228.66C556.23 4228.66 556.23 12109.1 4243.95 12109.1"/>
<path transform="matrix(.00359712,0,0,-.00359712,0,58)" stroke-width="110.783" stroke-linecap="butt" stroke-miterlimit="10" stroke-linejoin="miter" fill="none" stroke="#000000" d="M4243.95 4228.66C7931.66 4228.66 7931.66 12109.1 4243.95 12109.1"/>
<path transform="matrix(.00359712,0,0,-.00359712,0,58)" d="M10911 8114.14H11683.9C11722.7 8114.14 11775.3 8114.14 11775.3 8169.55 11775.3 8224.95 11722.7 8224.95 11683.9 8224.95H10911V9000.61C10911 9039.39 10911 9092.02 10855.6 9092.02 10800.2 9092.02 10800.2 9039.39 10800.2 9000.61V8224.95H10024.5C9985.77 8224.95 9933.13 8224.95 9933.13 8169.55 9933.13 8114.14 9985.77 8114.14 10024.5 8114.14H10800.2V7338.48C10800.2 7299.7 10800.2 7247.08 10855.6 7247.08 10911 7247.08 10911 7299.7 10911 7338.48V8114.14"/>
<path transform="matrix(.00359712,0,0,-.00359712,0,58)" d="M13079.9 8169.55C13079.9 8249.88 13013.4 8316.36 12933.1 8316.36 12852.7 8316.36 12786.2 8249.88 12786.2 8169.55 12786.2 8089.22 12852.7 8022.73 12933.1 8022.73 13013.4 8022.73 13079.9 8089.22 13079.9 8169.55"/>
<path transform="matrix(.00359712,0,0,-.00359712,0,58)" d="M14306.9 8169.55C14306.9 8249.88 14240.4 8316.36 14160.1 8316.36 14079.7 8316.36 14013.2 8249.88 14013.2 8169.55 14013.2 8089.22 14079.7 8022.73 14160.1 8022.73 14240.4 8022.73 14306.9 8089.22 14306.9 8169.55"/>
<path transform="matrix(.00359712,0,0,-.00359712,0,58)" d="M15535.9 8169.55C15535.9 8249.88 15469.4 8316.36 15389.1 8316.36 15308.7 8316.36 15242.2 8249.88 15242.2 8169.55 15242.2 8089.22 15308.7 8022.73 15389.1 8022.73 15469.4 8022.73 15535.9 8089.22 15535.9 8169.55"/>
<path transform="matrix(.00359712,0,0,-.00359712,0,58)" d="M18451.1 8382.84C18492.7 8382.84 18545.3 8382.84 18545.3 8438.25 18545.3 8493.66 18492.7 8493.66 18453.9 8493.66H16794.5C16755.8 8493.66 16703.1 8493.66 16703.1 8438.25 16703.1 8382.84 16755.8 8382.84 16797.3 8382.84H18451.1ZM18453.9 7845.44C18492.7 7845.44 18545.3 7845.44 18545.3 7900.84 18545.3 7956.25 18492.7 7956.25 18451.1 7956.25H16797.3C16755.8 7956.25 16703.1 7956.25 16703.1 7900.84 16703.1 7845.44 16755.8 7845.44 16794.5 7845.44H18453.9"/>
<path transform="matrix(.00359712,0,0,-.00359712,0,58)" d="M21297.5 8114.14C21344.6 8114.14 21394.5 8114.14 21394.5 8169.55 21394.5 8224.95 21344.6 8224.95 21297.5 8224.95H19798.9C19751.8 8224.95 19701.9 8224.95 19701.9 8169.55 19701.9 8114.14 19751.8 8114.14 19798.9 8114.14H21297.5"/>
<path transform="matrix(.00359712,0,0,-.00359712,0,58)" d="M22412.7 9208.38C22412.7 9263.77 22374 9308.09 22310.2 9308.09 22235.4 9308.09 22160.6 9236.06 22160.6 9161.28 22160.6 9108.64 22199.4 9061.55 22265.9 9061.55 22329.6 9061.55 22412.7 9125.27 22412.7 9208.38ZM22202.2 8166.78C22235.4 8247.11 22235.4 8252.66 22263.1 8327.45 22285.3 8382.84 22299.2 8421.64 22299.2 8474.27 22299.2 8598.92 22210.5 8701.42 22072 8701.42 21811.6 8701.42 21706.3 8299.75 21706.3 8274.81 21706.3 8247.11 21734 8247.11 21739.6 8247.11 21767.3 8247.11 21770 8252.66 21783.9 8296.97 21858.7 8557.38 21969.5 8640.48 22063.7 8640.48 22085.8 8640.48 22132.9 8640.48 22132.9 8551.83 22132.9 8493.66 22113.5 8435.48 22102.5 8407.78 22080.3 8335.77 21955.7 8014.42 21911.3 7895.3 21883.6 7823.28 21847.6 7731.86 21847.6 7673.69 21847.6 7543.48 21941.8 7446.53 22074.8 7446.53 22335.2 7446.53 22437.7 7848.2 22437.7 7873.14 22437.7 7900.84 22412.7 7900.84 22404.4 7900.84 22376.7 7900.84 22376.7 7892.53 22362.9 7850.97 22313 7676.45 22221.6 7507.47 22080.3 7507.47 22033.2 7507.47 22013.8 7535.17 22013.8 7598.89 22013.8 7668.14 22030.5 7706.92 22094.2 7875.91L22202.2 8166.78"/>
<path transform="matrix(.00359712,0,0,-.00359712,0,58)" d="M23022.2 7693.08C22994.5 7585.03 22989 7562.88 22770.1 7562.88 22723 7562.88 22695.3 7562.88 22695.3 7507.47 22695.3 7477 22720.3 7477 22770.1 7477H23759.1C24196.8 7477 24523.7 7803.88 24523.7 8075.36 24523.7 8274.81 24363 8435.48 24094.3 8465.95 24382.4 8518.59 24673.3 8723.58 24673.3 8986.75 24673.3 9191.75 24490.4 9369.03 24158 9369.03H23227.2C23174.6 9369.03 23146.9 9369.03 23146.9 9313.64 23146.9 9283.16 23171.8 9283.16 23224.5 9283.16 23230 9283.16 23282.6 9283.16 23329.7 9277.63 23379.6 9272.08 23404.5 9269.31 23404.5 9233.3 23404.5 9222.22 23401.8 9213.91 23393.4 9180.67L23022.2 7693.08ZM23440.5 8490.89 23612.3 9177.89C23637.2 9274.86 23642.8 9283.16 23761.9 9283.16H24119.2C24363 9283.16 24421.2 9119.72 24421.2 8997.83 24421.2 8754.06 24182.9 8490.89 23845 8490.89H23440.5ZM23315.9 7562.88C23277.1 7562.88 23271.5 7562.88 23254.9 7565.64 23227.2 7568.42 23218.9 7571.19 23218.9 7593.34 23218.9 7601.66 23218.9 7607.2 23232.8 7657.06L23423.9 8429.94H23947.5C24213.4 8429.94 24266 8224.95 24266 8105.83 24266 7831.58 24019.5 7562.88 23692.6 7562.88H23315.9"/>
<path transform="matrix(.00359712,0,0,-.00359712,0,58)" d="M25771.3 9399.52 25372.4 9369.03V9283.16C25566.3 9283.16 25588.5 9263.77 25588.5 9128.03V7687.53C25588.5 7562.88 25558 7562.88 25372.4 7562.88V7477C25463.8 7479.77 25610.7 7485.31 25679.9 7485.31 25749.2 7485.31 25884.9 7479.77 25987.4 7477V7562.88C25801.8 7562.88 25771.3 7562.88 25771.3 7687.53V9399.52"/>
<path transform="matrix(.00359712,0,0,-.00359712,0,58)" d="M27353.8 8069.81C27353.8 8424.41 27076.7 8718.05 26741.5 8718.05 26395.3 8718.05 26126.6 8416.09 26126.6 8069.81 26126.6 7712.47 26414.7 7446.53 26738.8 7446.53 27074 7446.53 27353.8 7718 27353.8 8069.81ZM26741.5 7515.78C26622.4 7515.78 26500.5 7573.95 26425.8 7701.39 26356.5 7823.28 26356.5 7992.25 26356.5 8091.98 26356.5 8200.02 26356.5 8349.61 26423 8471.5 26497.8 8598.92 26628 8657.09 26738.8 8657.09 26860.7 8657.09 26979.8 8596.16 27051.8 8477.03 27123.8 8357.92 27123.8 8197.25 27123.8 8091.98 27123.8 7992.25 27123.8 7842.67 27062.9 7720.78 27001.9 7596.13 26880.1 7515.78 26741.5 7515.78"/>
<path transform="matrix(.00359712,0,0,-.00359712,0,58)" d="M28048 7953.47C27807 7953.47 27807 8230.48 27807 8294.2 27807 8369 27809.8 8457.64 27851.3 8526.91 27873.5 8560.14 27937.2 8637.7 28048 8637.7 28289 8637.7 28289 8360.69 28289 8296.97 28289 8222.19 28286.2 8133.53 28244.7 8064.28 28222.5 8031.03 28158.8 7953.47 28048 7953.47ZM27726.6 7845.44C27726.6 7856.52 27726.6 7920.23 27773.7 7975.64 27881.8 7898.06 27995.3 7889.77 28048 7889.77 28305.6 7889.77 28496.8 8080.91 28496.8 8294.2 28496.8 8396.7 28452.4 8499.2 28383.2 8562.91 28482.9 8657.09 28582.6 8670.95 28632.5 8670.95 28638 8670.95 28651.9 8670.95 28660.2 8668.19 28629.7 8657.09 28615.9 8626.63 28615.9 8593.39 28615.9 8546.3 28651.9 8513.05 28696.2 8513.05 28723.9 8513.05 28776.5 8532.44 28776.5 8596.16 28776.5 8643.25 28743.3 8731.89 28635.3 8731.89 28579.9 8731.89 28458 8715.28 28341.6 8601.7 28225.3 8693.11 28108.9 8701.42 28048 8701.42 27790.4 8701.42 27599.2 8510.28 27599.2 8296.97 27599.2 8175.09 27660.2 8069.81 27729.4 8011.64 27693.4 7970.09 27643.5 7878.67 27643.5 7781.72 27643.5 7695.84 27679.5 7590.58 27765.4 7535.17 27599.2 7488.08 27510.6 7368.97 27510.6 7258.16 27510.6 7058.7 27784.8 6906.34 28122.8 6906.34 28449.7 6906.34 28737.8 7047.63 28737.8 7263.7 28737.8 7360.66 28699 7501.94 28557.7 7579.5 28410.9 7657.06 28250.2 7657.06 28081.2 7657.06 28012 7657.06 27892.8 7657.06 27873.5 7659.83 27784.8 7670.91 27726.6 7756.78 27726.6 7845.44ZM28125.5 6970.06C27845.8 6970.06 27654.6 7111.33 27654.6 7258.16 27654.6 7385.58 27759.9 7488.08 27881.8 7496.39H28045.2C28283.5 7496.39 28593.7 7496.39 28593.7 7258.16 28593.7 7108.56 28397 6970.06 28125.5 6970.06"/>
<path transform="matrix(.00359712,0,0,-.00359712,0,58)" d="M31490 11275.3C31473.3 11327.9 31456.7 11333.5 31426.3 11333.5 31381.9 11333.5 31376.4 11322.4 31362.5 11275.3L30830.7 9627.02C30803 9543.91 30747.6 9435.88 30553.6 9435.88V9350C30645.1 9355.55 30786.3 9358.31 30811.3 9358.31 30891.6 9358.31 31038.4 9352.77 31124.3 9350V9435.88C30974.7 9438.64 30911 9513.44 30911 9579.92 30911 9593.78 30911 9602.09 30924.8 9640.88L31340.4 10931.8 31778.1 9568.84C31791.9 9530.06 31791.9 9524.52 31791.9 9518.98 31791.9 9435.88 31628.5 9435.88 31556.5 9435.88V9350C31653.4 9358.31 31850.1 9358.31 31955.4 9358.31 32063.4 9358.31 32188.1 9352.77 32296.1 9350V9435.88C32085.6 9435.88 32077.3 9452.5 32044 9555L31490 11275.3"/>
<path transform="matrix(.00359712,0,0,-.00359712,0,58)" d="M33367 10707.8H33301.1C33295.3 10665.2 33275.9 10550.8 33250.7 10531.4 33235.2 10519.8 33085.9 10519.8 33058.8 10519.8H32702.1C32905.6 10700.1 32973.5 10754.4 33089.8 10845.5 33233.3 10959.9 33367 11080.1 33367 11264.3 33367 11498.8 33161.5 11642.3 32913.4 11642.3 32673 11642.3 32510.1 11473.6 32510.1 11295.3 32510.1 11196.4 32593.5 11186.7 32612.9 11186.7 32659.4 11186.7 32715.6 11219.7 32715.6 11289.5 32715.6 11324.3 32702.1 11392.2 32601.3 11392.2 32661.4 11529.9 32793.2 11572.5 32884.3 11572.5 33078.2 11572.5 33179 11421.3 33179 11264.3 33179 11095.6 33058.8 10961.8 32996.8 10892L32529.5 10430.6C32510.1 10413.2 32510.1 10409.3 32510.1 10355H33308.9L33367 10707.8"/>
<path transform="matrix(.00359712,0,0,-.00359712,0,58)" stroke-width="110.783" stroke-linecap="butt" stroke-miterlimit="10" stroke-linejoin="miter" fill="none" stroke="#000000" d="M29652.9 8168.75H34442.8"/>
<path transform="matrix(.00359712,0,0,-.00359712,0,58)" d="M31478.5 6214.14C31525.6 6214.14 31575.5 6214.14 31575.5 6269.55 31575.5 6324.95 31525.6 6324.95 31478.5 6324.95H29979.9C29932.8 6324.95 29882.9 6324.95 29882.9 6269.55 29882.9 6214.14 29932.8 6214.14 29979.9 6214.14H31478.5"/>
<path transform="matrix(.00359712,0,0,-.00359712,0,58)" d="M31931.7 5239.03C31909.5 5144.84 31904 5125.45 31782.1 5125.45 31748.8 5125.45 31718.4 5125.45 31718.4 5072.83 31718.4 5050.67 31732.2 5039.58 31754.4 5039.58 31829.2 5039.58 31909.5 5047.89 31987.1 5047.89 32078.5 5047.89 32172.7 5039.58 32261.3 5039.58 32275.2 5039.58 32311.2 5039.58 32311.2 5094.98 32311.2 5125.45 32283.5 5125.45 32244.7 5125.45 32106.2 5125.45 32106.2 5144.84 32106.2 5169.78 32106.2 5203.03 32222.5 5654.56 32241.9 5723.81 32277.9 5643.48 32355.5 5546.53 32496.8 5546.53 32818.1 5546.53 33164.4 5950.97 33164.4 6358.19 33164.4 6618.59 33006.5 6801.42 32796 6801.42 32657.5 6801.42 32524.5 6701.7 32433.1 6593.66 32405.4 6743.25 32286.3 6801.42 32183.8 6801.42 32056.3 6801.42 32003.7 6693.39 31978.8 6643.52 31928.9 6549.33 31892.9 6383.13 31892.9 6374.81 31892.9 6347.11 31920.6 6347.11 31926.1 6347.11 31953.8 6347.11 31956.6 6349.88 31973.2 6410.83 32020.3 6607.52 32075.7 6740.48 32175.4 6740.48 32222.5 6740.48 32261.3 6718.31 32261.3 6613.05 32261.3 6549.33 32253 6518.86 32241.9 6471.77L31931.7 5239.03ZM32419.2 6441.3C32438.6 6516.09 32513.4 6593.66 32563.3 6635.22 32660.2 6721.09 32740.5 6740.48 32787.6 6740.48 32898.5 6740.48 32964.9 6643.52 32964.9 6480.08 32964.9 6316.64 32873.5 5998.06 32823.7 5892.8 32729.5 5698.89 32596.5 5607.47 32494 5607.47 32311.2 5607.47 32275.2 5837.39 32275.2 5854.02 32275.2 5859.56 32275.2 5865.09 32283.5 5898.34L32419.2 6441.3"/>
<path transform="matrix(.00359712,0,0,-.00359712,0,58)" d="M34179 6729.84H34113.1C34107.3 6687.19 34087.9 6572.81 34062.7 6553.42 34047.2 6541.8 33897.9 6541.8 33870.8 6541.8H33514.1C33717.6 6722.09 33785.5 6776.38 33901.8 6867.48 34045.3 6981.88 34179 7102.08 34179 7286.25 34179 7520.83 33973.5 7664.3 33725.4 7664.3 33485 7664.3 33322.1 7495.63 33322.1 7317.27 33322.1 7218.39 33405.5 7208.7 33424.9 7208.7 33471.4 7208.7 33527.6 7241.66 33527.6 7311.45 33527.6 7346.34 33514.1 7414.2 33413.3 7414.2 33473.4 7551.86 33605.2 7594.5 33696.3 7594.5 33890.2 7594.5 33991 7443.28 33991 7286.25 33991 7117.58 33870.8 6983.81 33808.8 6914.02L33341.5 6452.61C33322.1 6435.16 33322.1 6431.28 33322.1 6377H34120.9L34179 6729.84"/>
<path transform="matrix(.00359712,0,0,-.00359712,0,58)" d="M35306.9 7623.81C35306.9 7704.16 35240.4 7770.64 35160.1 7770.64 35079.7 7770.64 35013.2 7704.16 35013.2 7623.81 35013.2 7543.48 35079.7 7477 35160.1 7477 35240.4 7477 35306.9 7543.48 35306.9 7623.81"/>
</svg>
