<svg xmlns="http://www.w3.org/2000/svg" xmlns:xlink="http://www.w3.org/1999/xlink" version="1.1" width="81pt" height="41pt" viewBox="0 0 81 41">
<path transform="matrix(.00359712,0,0,-.00359712,0,41)" stroke-width="110.783" stroke-linecap="butt" stroke-miterlimit="10" stroke-linejoin="miter" fill="none" stroke="#000000" d="M7058.14 5750.98C7058.14 6403.82 6528.92 6933.04 5876.09 6933.04 5223.25 6933.04 4694.03 6403.82 4694.03 5750.98 4694.03 5098.15 5223.25 4568.93 5876.09 4568.93 6528.92 4568.93 7058.14 5098.15 7058.14 5750.98ZM5876.09 5750.98"/>
<path transform="matrix(.00359712,0,0,-.00359712,0,41)" stroke-width="110.783" stroke-linecap="butt" stroke-miterlimit="10" stroke-linejoin="miter" fill="none" stroke="#000000" d="M5040.25 4915.15 6711.92 6586.82M5040.25 6586.82 6711.92 4915.15"/>
<path transform="matrix(.00359712,0,0,-.00359712,0,41)" stroke-width="110.783" stroke-linecap="butt" stroke-miterlimit="10" stroke-linejoin="miter" fill="none" stroke="#000000" d="M5040.25 6586.82 303.793 11323.3"/>
<path transform="matrix(.00359712,0,0,-.00359712,0,41)" stroke-width="110.783" stroke-linecap="butt" stroke-miterlimit="10" stroke-linejoin="miter" fill="none" stroke="#000000" d="M6711.92 6586.82 11448.4 11323.3"/>
<path transform="matrix(.00359712,0,0,-.00359712,0,41)" stroke-width="110.783" stroke-linecap="butt" stroke-miterlimit="10" stroke-linejoin="miter" fill="none" stroke="#000000" d="M303.793 178.691 5040.25 4915.15"/>
<path transform="matrix(.00359712,0,0,-.00359712,0,41)" stroke-width="110.783" stroke-linecap="butt" stroke-miterlimit="10" stroke-linejoin="miter" fill="none" stroke="#000000" d="M11448.4 178.691 6711.92 4915.15"/>
<path transform="matrix(.00359712,0,0,-.00359712,0,41)" d="M15099.1 5963.84C15140.7 5963.84 15193.3 5963.84 15193.3 6019.25 15193.3 6074.66 15140.7 6074.66 15101.9 6074.66H13442.5C13403.8 6074.66 13351.1 6074.66 13351.1 6019.25 13351.1 5963.84 13403.8 5963.84 13445.3 5963.84H15099.1ZM15101.9 5426.44C15140.7 5426.44 15193.3 5426.44 15193.3 5481.84 15193.3 5537.25 15140.7 5537.25 15099.1 5537.25H13445.3C13403.8 5537.25 13351.1 5537.25 13351.1 5481.84 13351.1 5426.44 13403.8 5426.44 13442.5 5426.44H15101.9"/>
<path transform="matrix(.00359712,0,0,-.00359712,0,41)" d="M17945.5 5695.14C17992.6 5695.14 18042.5 5695.14 18042.5 5750.55 18042.5 5805.95 17992.6 5805.95 17945.5 5805.95H16446.9C16399.8 5805.95 16349.9 5805.95 16349.9 5750.55 16349.9 5695.14 16399.8 5695.14 16446.9 5695.14H17945.5"/>
<path transform="matrix(.00359712,0,0,-.00359712,0,41)" d="M19060.7 6789.38C19060.7 6844.77 19022 6889.09 18958.2 6889.09 18883.4 6889.09 18808.6 6817.06 18808.6 6742.28 18808.6 6689.64 18847.4 6642.55 18913.9 6642.55 18977.6 6642.55 19060.7 6706.27 19060.7 6789.38ZM18850.2 5747.78C18883.4 5828.11 18883.4 5833.66 18911.1 5908.45 18933.3 5963.84 18947.2 6002.64 18947.2 6055.27 18947.2 6179.92 18858.5 6282.42 18720 6282.42 18459.6 6282.42 18354.3 5880.75 18354.3 5855.81 18354.3 5828.11 18382 5828.11 18387.6 5828.11 18415.3 5828.11 18418 5833.66 18431.9 5877.97 18506.7 6138.38 18617.5 6221.48 18711.7 6221.48 18733.8 6221.48 18780.9 6221.48 18780.9 6132.83 18780.9 6074.66 18761.5 6016.48 18750.5 5988.78 18728.3 5916.77 18603.7 5595.42 18559.3 5476.3 18531.6 5404.28 18495.6 5312.86 18495.6 5254.69 18495.6 5124.48 18589.8 5027.53 18722.8 5027.53 18983.2 5027.53 19085.7 5429.2 19085.7 5454.14 19085.7 5481.84 19060.7 5481.84 19052.4 5481.84 19024.7 5481.84 19024.7 5473.53 19010.9 5431.97 18961 5257.45 18869.6 5088.47 18728.3 5088.47 18681.2 5088.47 18661.8 5116.17 18661.8 5179.89 18661.8 5249.14 18678.5 5287.92 18742.2 5456.91L18850.2 5747.78"/>
<path transform="matrix(.00359712,0,0,-.00359712,0,41)" d="M19958.3 6268.58C19612.1 6185.47 19343.3 5825.34 19343.3 5490.16 19343.3 5224.22 19520.6 5024.75 19781 5024.75 20105.2 5024.75 20335.1 5459.67 20335.1 5841.97 20335.1 6094.05 20224.3 6232.56 20130.1 6357.22 20030.4 6481.88 19866.9 6689.64 19866.9 6811.53 19866.9 6872.47 19922.3 6938.95 20019.3 6938.95 20102.4 6938.95 20157.8 6902.94 20216 6864.16 20271.4 6830.92 20326.8 6794.91 20368.3 6794.91 20437.6 6794.91 20479.1 6861.39 20479.1 6905.72 20479.1 6966.66 20434.8 6974.97 20335.1 6997.13 20191 7027.61 20152.3 7027.61 20107.9 7027.61 19891.8 7027.61 19792.1 6908.48 19792.1 6742.28 19792.1 6592.69 19872.5 6437.55 19958.3 6268.58ZM19991.6 6207.63C20060.8 6080.2 20143.9 5930.61 20143.9 5731.16 20143.9 5548.33 20038.7 5085.7 19781 5085.7 19628.7 5085.7 19515.1 5202.05 19515.1 5412.58 19515.1 5587.11 19617.6 6107.91 19991.6 6207.63"/>
<path transform="matrix(.00359712,0,0,-.00359712,0,41)" d="M21490.4 5358.38C21498.1 5387.47 21498.1 5397.16 21498.1 5399.09 21498.1 5441.75 21463.3 5461.13 21432.2 5461.13 21387.6 5461.13 21350.8 5424.3 21343 5387.47 21310.1 5439.81 21244.2 5497.97 21143.4 5497.97 20901 5497.97 20647 5238.19 20647 4960.95 20647 4761.27 20782.8 4643 20941.7 4643 21030.9 4643 21116.2 4687.59 21184.1 4747.69L21141.4 4573.2C21120.1 4491.78 21106.5 4439.44 21032.9 4373.52 20947.5 4301.78 20864.2 4301.78 20815.7 4301.78 20726.5 4301.78 20701.3 4307.61 20666.4 4315.36 20714.9 4338.63 20728.5 4385.16 20728.5 4412.3 20728.5 4458.83 20691.6 4484.03 20652.9 4484.03 20598.6 4484.03 20542.4 4439.44 20542.4 4365.77 20542.4 4249.44 20709.1 4247.5 20817.7 4247.5 21122 4247.5 21251.9 4402.59 21279.1 4513.11L21490.4 5358.38ZM21222.8 4900.84C21215.1 4871.77 21215.1 4867.89 21182.1 4829.11 21114.3 4747.69 21021.2 4697.28 20947.5 4697.28 20848.7 4697.28 20802.2 4780.64 20802.2 4881.45 20802.2 4966.77 20854.5 5183.89 20904.9 5269.2 20986.3 5404.91 21077.5 5443.69 21143.4 5443.69 21279.1 5443.69 21315.9 5298.28 21315.9 5278.89 21315.9 5275.02 21315.9 5271.14 21310.1 5249.81L21222.8 4900.84"/>
<path transform="matrix(.00359712,0,0,-.00359712,0,41)" d="M22278.9 5204.81C22278.9 5285.16 22212.4 5351.64 22132.1 5351.64 22051.7 5351.64 21985.2 5285.16 21985.2 5204.81 21985.2 5124.48 22051.7 5058 22132.1 5058 22212.4 5058 22278.9 5124.48 22278.9 5204.81"/>
</svg>
