<svg xmlns="http://www.w3.org/2000/svg" xmlns:xlink="http://www.w3.org/1999/xlink" version="1.1" width="176pt" height="64pt" viewBox="0 0 176 64">
<path transform="matrix(.00359712,0,0,-.00359712,0,64)" d="M789.625 10188.4C803.469 10218.8 803.469 10224.4 803.469 10238.2 803.469 10268.7 778.547 10293.6 748.063 10293.6 723.141 10293.6 703.75 10279.8 684.359 10229.9L199.578 8958.41C194.031 8941.8 185.719 8925.17 185.719 8908.55 185.719 8900.23 185.719 8894.7 199.578 8861.45L684.359 7589.94C695.438 7559.47 709.281 7523.45 748.063 7523.45 778.547 7523.45 803.469 7548.39 803.469 7578.86 803.469 7587.17 803.469 7592.7 789.625 7623.19L299.297 8908.55 789.625 10188.4"/>
<path transform="matrix(.00359712,0,0,-.00359712,0,64)" d="M1102.05 7858.64C1090.97 7819.86 1088.2 7817.09 1085.42 7814.33 1068.81 7808.78 1038.33 7808.78 1013.41 7808.78 966.313 7808.78 916.453 7808.78 916.453 7731.22 916.453 7700.75 938.609 7678.58 969.078 7678.58 1049.42 7678.58 1140.83 7686.89 1223.94 7686.89 1320.89 7686.89 1426.16 7678.58 1520.34 7678.58 1539.73 7678.58 1592.38 7678.58 1592.38 7758.92 1592.38 7806.02 1548.05 7808.78 1520.34 7808.78 1481.56 7808.78 1437.25 7808.78 1401.23 7811.55L1520.34 8293.56C1561.91 8254.78 1653.31 8193.84 1800.14 8193.84 2282.16 8193.84 2581.33 8631.53 2581.33 9011.05 2581.33 9351.78 2326.47 9468.13 2096.55 9468.13 1899.86 9468.13 1755.81 9360.09 1711.48 9318.53 1606.22 9468.13 1423.39 9468.13 1392.92 9468.13 1290.42 9468.13 1210.09 9409.95 1151.91 9310.22 1082.66 9199.42 1046.64 9049.83 1046.64 9035.97 1046.64 8997.19 1088.2 8997.19 1113.13 8997.19 1143.61 8997.19 1154.69 8997.19 1168.53 9011.05 1174.08 9016.58 1174.08 9022.13 1190.7 9091.38 1246.09 9313 1309.81 9368.39 1379.06 9368.39 1409.55 9368.39 1442.78 9357.31 1442.78 9265.91 1442.78 9224.34 1437.25 9185.56 1426.16 9146.78L1102.05 7858.64ZM1739.19 9188.33C1819.53 9282.52 1949.73 9368.39 2082.7 9368.39 2254.45 9368.39 2268.3 9218.81 2268.3 9157.86 2268.3 9013.81 2174.11 8673.08 2129.8 8565.05 2043.91 8362.81 1908.17 8293.56 1794.59 8293.56 1631.16 8293.56 1564.67 8423.77 1564.67 8454.23L1570.22 8493.02 1739.19 9188.33"/>
<path transform="matrix(.00359712,0,0,-.00359712,0,64)" d="M3272.47 8772.02C3272.47 8824.36 3268.59 8826.3 3214.3 8826.3 3090.23 8704.16 2913.81 8702.22 2834.31 8702.22V8632.42C2880.84 8632.42 3008.8 8632.42 3115.44 8686.7V7697.97C3115.44 7634 3115.44 7608.8 2921.56 7608.8H2847.89V7539C2882.78 7540.94 3121.25 7546.75 3192.98 7546.75 3253.08 7546.75 3497.36 7540.94 3540 7539V7608.8H3466.33C3272.47 7608.8 3272.47 7634 3272.47 7697.97V8772.02"/>
<path transform="matrix(.00359712,0,0,-.00359712,0,64)" d="M4009.05 7858.64C3997.97 7819.86 3995.2 7817.09 3992.42 7814.33 3975.81 7808.78 3945.33 7808.78 3920.41 7808.78 3873.31 7808.78 3823.45 7808.78 3823.45 7731.22 3823.45 7700.75 3845.61 7678.58 3876.08 7678.58 3956.42 7678.58 4047.83 7686.89 4130.94 7686.89 4227.89 7686.89 4333.16 7678.58 4427.34 7678.58 4446.73 7678.58 4499.38 7678.58 4499.38 7758.92 4499.38 7806.02 4455.05 7808.78 4427.34 7808.78 4388.56 7808.78 4344.25 7808.78 4308.23 7811.55L4427.34 8293.56C4468.91 8254.78 4560.31 8193.84 4707.14 8193.84 5189.16 8193.84 5488.33 8631.53 5488.33 9011.05 5488.33 9351.78 5233.47 9468.13 5003.55 9468.13 4806.86 9468.13 4662.81 9360.09 4618.48 9318.53 4513.22 9468.13 4330.39 9468.13 4299.92 9468.13 4197.42 9468.13 4117.09 9409.95 4058.91 9310.22 3989.66 9199.42 3953.64 9049.83 3953.64 9035.97 3953.64 8997.19 3995.2 8997.19 4020.13 8997.19 4050.61 8997.19 4061.69 8997.19 4075.53 9011.05 4081.08 9016.58 4081.08 9022.13 4097.7 9091.38 4153.09 9313 4216.81 9368.39 4286.06 9368.39 4316.55 9368.39 4349.78 9357.31 4349.78 9265.91 4349.78 9224.34 4344.25 9185.56 4333.16 9146.78L4009.05 7858.64ZM4646.19 9188.33C4726.53 9282.52 4856.73 9368.39 4989.7 9368.39 5161.45 9368.39 5175.3 9218.81 5175.3 9157.86 5175.3 9013.81 5081.11 8673.08 5036.8 8565.05 4950.91 8362.81 4815.17 8293.56 4701.59 8293.56 4538.16 8293.56 4471.67 8423.77 4471.67 8454.23L4477.22 8493.02 4646.19 9188.33"/>
<path transform="matrix(.00359712,0,0,-.00359712,0,64)" d="M6508.05 7891.84H6442.13C6436.31 7849.19 6416.92 7734.81 6391.72 7715.42 6376.22 7703.8 6226.94 7703.8 6199.8 7703.8H5843.06C6046.64 7884.09 6114.48 7938.38 6230.81 8029.48 6374.28 8143.88 6508.05 8264.08 6508.05 8448.25 6508.05 8682.83 6302.55 8826.3 6054.39 8826.3 5813.98 8826.3 5651.14 8657.63 5651.14 8479.27 5651.14 8380.39 5734.5 8370.7 5753.89 8370.7 5800.42 8370.7 5856.64 8403.66 5856.64 8473.45 5856.64 8508.34 5843.06 8576.2 5742.25 8576.2 5802.36 8713.86 5934.19 8756.5 6025.31 8756.5 6219.17 8756.5 6319.98 8605.28 6319.98 8448.25 6319.98 8279.58 6199.8 8145.81 6137.75 8076.02L5670.53 7614.61C5651.14 7597.16 5651.14 7593.28 5651.14 7539H6449.89L6508.05 7891.84"/>
<path transform="matrix(.00359712,0,0,-.00359712,0,64)" d="M7212.45 10193.9C7212.45 10243.8 7212.45 10293.6 7157.06 10293.6 7101.66 10293.6 7101.66 10243.8 7101.66 10193.9V7623.19C7101.66 7573.31 7101.66 7523.45 7157.06 7523.45 7212.45 7523.45 7212.45 7573.31 7212.45 7623.19V10193.9"/>
<path transform="matrix(.00359712,0,0,-.00359712,0,64)" d="M9789.77 10141.3C9789.77 10149.6 9784.23 10169 9759.3 10169 9745.45 10169 9742.67 10166.2 9709.44 10127.4L9576.47 9969.53C9504.44 10099.7 9360.39 10169 9180.33 10169 8828.52 10169 8496.09 9850.41 8496.09 9515.22 8496.09 9290.83 8642.91 9163.41 8784.19 9121.84L9080.61 9044.28C9183.09 9019.36 9335.45 8977.8 9335.45 8750.64 9335.45 8501.33 9108.31 8240.94 8836.83 8240.94 8659.53 8240.94 8352.05 8301.88 8352.05 8645.38 8352.05 8711.86 8365.89 8778.34 8368.67 8794.97 8371.44 8806.05 8374.2 8808.81 8374.2 8814.36 8374.2 8842.06 8354.81 8844.83 8340.97 8844.83 8327.11 8844.83 8321.58 8842.06 8313.27 8833.75 8302.19 8822.67 8147.05 8191.06 8147.05 8182.75 8147.05 8166.14 8160.91 8155.06 8177.52 8155.06 8191.38 8155.06 8194.14 8157.83 8227.39 8196.61L8363.13 8354.52C8482.25 8193.84 8670.61 8155.06 8831.28 8155.06 9208.03 8155.06 9534.91 8523.48 9534.91 8867 9534.91 9058.14 9440.73 9152.33 9399.17 9191.11 9335.45 9254.83 9293.91 9265.91 9047.36 9329.61 8986.42 9346.23 8886.69 9373.94 8861.77 9379.48 8786.97 9404.41 8692.78 9484.75 8692.78 9631.56 8692.78 9855.95 8914.39 10091.4 9177.56 10091.4 9407.48 10091.4 9576.47 9972.3 9576.47 9662.03 9576.47 9573.39 9565.39 9523.53 9565.39 9506.91 9565.39 9504.14 9565.39 9479.2 9598.63 9479.2 9626.33 9479.2 9629.09 9487.52 9640.19 9534.61L9789.77 10141.3"/>
<path transform="matrix(.00359712,0,0,-.00359712,0,64)" d="M10762.5 10193.9C10762.5 10243.8 10762.5 10293.6 10707.1 10293.6 10651.7 10293.6 10651.7 10243.8 10651.7 10193.9V7623.19C10651.7 7573.31 10651.7 7523.45 10707.1 7523.45 10762.5 7523.45 10762.5 7573.31 10762.5 7623.19V10193.9"/>
<path transform="matrix(.00359712,0,0,-.00359712,0,64)" d="M11967.4 10041.5C11978.5 10080.3 11978.5 10085.9 11978.5 10088.6 11978.5 10124.7 11948 10138.5 11917.5 10138.5 11906.4 10138.5 11903.7 10138.5 11898.1 10135.7L11540.8 10119.1C11502 10116.3 11452.1 10113.6 11452.1 10036 11452.1 9986.16 11504.8 9986.16 11524.2 9986.16 11554.6 9986.16 11604.5 9986.16 11640.5 9980.61L11241.6 8382.22C11238.8 8371.13 11230.5 8329.58 11230.5 8318.5 11230.5 8252.02 11283.1 8193.84 11363.5 8193.84 11413.3 8193.84 11493.7 8218.77 11532.5 8304.64 11540.8 8329.58 11579.5 8490.25 11659.9 8811.59 11712.5 8806.05 11953.5 8772.81 11953.5 8603.83 11953.5 8584.44 11953.5 8576.13 11945.2 8545.66 11936.9 8509.64 11936.9 8506.88 11936.9 8479.17 11936.9 8299.11 12108.7 8193.84 12291.5 8193.84 12568.5 8193.84 12671 8603.83 12671 8625.98 12671 8664.77 12629.5 8664.77 12604.5 8664.77 12554.7 8664.77 12549.1 8659.23 12535.3 8609.36 12513.1 8529.03 12446.6 8293.56 12305.3 8293.56 12261 8293.56 12233.3 8318.5 12233.3 8401.61 12233.3 8429.3 12238.9 8481.94 12255.5 8545.66 12263.8 8576.13 12263.8 8595.52 12263.8 8614.91 12263.8 8850.38 11984 8894.7 11784.5 8914.09 11812.3 8933.48 11878.7 8977.8 12031.1 9124.63 12244.4 9335.16 12360.8 9368.39 12443.9 9368.39 12496.5 9368.39 12515.9 9337.92 12515.9 9335.16 12377.4 9315.77 12324.7 9204.95 12324.7 9135.7 12324.7 9074.77 12371.8 9008.28 12463.3 9008.28 12515.9 9008.28 12662.7 9044.28 12662.7 9240.97 12662.7 9385.02 12571.3 9468.13 12452.2 9468.13 12283.2 9468.13 12130.8 9346.23 11967.4 9188.33 11939.7 9157.86 11806.7 9030.44 11701.4 8972.27L11967.4 10041.5"/>
<path transform="matrix(.00359712,0,0,-.00359712,0,64)" d="M13464.5 9034.02C13464.5 9086.36 13460.6 9088.3 13406.3 9088.3 13282.2 8966.16 13105.8 8964.22 13026.3 8964.22V8894.42C13072.8 8894.42 13200.8 8894.42 13307.4 8948.7V7959.97C13307.4 7896 13307.4 7870.8 13113.6 7870.8H13039.9V7801C13074.8 7802.94 13313.3 7808.75 13385 7808.75 13445.1 7808.75 13689.4 7802.94 13732 7801V7870.8H13658.3C13464.5 7870.8 13464.5 7896 13464.5 7959.97V9034.02"/>
<path transform="matrix(.00359712,0,0,-.00359712,0,64)" d="M14933.4 10041.5C14944.5 10080.3 14944.5 10085.9 14944.5 10088.6 14944.5 10124.7 14914 10138.5 14883.5 10138.5 14872.4 10138.5 14869.7 10138.5 14864.1 10135.7L14506.8 10119.1C14468 10116.3 14418.1 10113.6 14418.1 10036 14418.1 9986.16 14470.8 9986.16 14490.2 9986.16 14520.6 9986.16 14570.5 9986.16 14606.5 9980.61L14207.6 8382.22C14204.8 8371.13 14196.5 8329.58 14196.5 8318.5 14196.5 8252.02 14249.1 8193.84 14329.5 8193.84 14379.3 8193.84 14459.7 8218.77 14498.5 8304.64 14506.8 8329.58 14545.5 8490.25 14625.9 8811.59 14678.5 8806.05 14919.5 8772.81 14919.5 8603.83 14919.5 8584.44 14919.5 8576.13 14911.2 8545.66 14902.9 8509.64 14902.9 8506.88 14902.9 8479.17 14902.9 8299.11 15074.7 8193.84 15257.5 8193.84 15534.5 8193.84 15637 8603.83 15637 8625.98 15637 8664.77 15595.5 8664.77 15570.5 8664.77 15520.7 8664.77 15515.1 8659.23 15501.3 8609.36 15479.1 8529.03 15412.6 8293.56 15271.3 8293.56 15227 8293.56 15199.3 8318.5 15199.3 8401.61 15199.3 8429.3 15204.9 8481.94 15221.5 8545.66 15229.8 8576.13 15229.8 8595.52 15229.8 8614.91 15229.8 8850.38 14950 8894.7 14750.5 8914.09 14778.3 8933.48 14844.7 8977.8 14997.1 9124.63 15210.4 9335.16 15326.8 9368.39 15409.9 9368.39 15462.5 9368.39 15481.9 9337.92 15481.9 9335.16 15343.4 9315.77 15290.7 9204.95 15290.7 9135.7 15290.7 9074.77 15337.8 9008.28 15429.3 9008.28 15481.9 9008.28 15628.7 9044.28 15628.7 9240.97 15628.7 9385.02 15537.3 9468.13 15418.2 9468.13 15249.2 9468.13 15096.8 9346.23 14933.4 9188.33 14905.7 9157.86 14772.7 9030.44 14667.4 8972.27L14933.4 10041.5"/>
<path transform="matrix(.00359712,0,0,-.00359712,0,64)" d="M16760 8153.84H16694.1C16688.3 8111.19 16668.9 7996.81 16643.7 7977.42 16628.2 7965.8 16478.9 7965.8 16451.8 7965.8H16095.1C16298.6 8146.09 16366.5 8200.38 16482.8 8291.48 16626.3 8405.88 16760 8526.08 16760 8710.25 16760 8944.83 16554.5 9088.3 16306.4 9088.3 16066 9088.3 15903.1 8919.63 15903.1 8741.27 15903.1 8642.39 15986.5 8632.7 16005.9 8632.7 16052.4 8632.7 16108.6 8665.66 16108.6 8735.45 16108.6 8770.34 16095.1 8838.2 15994.3 8838.2 16054.4 8975.86 16186.2 9018.5 16277.3 9018.5 16471.2 9018.5 16572 8867.28 16572 8710.25 16572 8541.58 16451.8 8407.81 16389.8 8338.02L15922.5 7876.61C15903.1 7859.16 15903.1 7855.28 15903.1 7801H16701.9L16760 8153.84"/>
<path transform="matrix(.00359712,0,0,-.00359712,0,64)" d="M17779.3 8861.45C17793.1 8894.7 17793.1 8900.23 17793.1 8908.55 17793.1 8916.86 17793.1 8922.39 17779.3 8955.64L17294.5 10229.9C17277.9 10277 17261.2 10293.6 17230.8 10293.6 17200.3 10293.6 17175.4 10268.7 17175.4 10238.2 17175.4 10229.9 17175.4 10224.4 17189.2 10193.9L17679.5 8908.55 17189.2 7628.72C17175.4 7598.25 17175.4 7592.7 17175.4 7578.86 17175.4 7548.39 17200.3 7523.45 17230.8 7523.45 17266.8 7523.45 17277.9 7551.16 17288.9 7578.86L17779.3 8861.45"/>
<path transform="matrix(.00359712,0,0,-.00359712,0,64)" d="M20773.1 9121.84C20814.7 9121.84 20867.3 9121.84 20867.3 9177.25 20867.3 9232.66 20814.7 9232.66 20775.9 9232.66H19116.5C19077.8 9232.66 19025.1 9232.66 19025.1 9177.25 19025.1 9121.84 19077.8 9121.84 19119.3 9121.84H20773.1ZM20775.9 8584.44C20814.7 8584.44 20867.3 8584.44 20867.3 8639.84 20867.3 8695.25 20814.7 8695.25 20773.1 8695.25H19119.3C19077.8 8695.25 19025.1 8695.25 19025.1 8639.84 19025.1 8584.44 19077.8 8584.44 19116.5 8584.44H20775.9"/>
<path transform="matrix(.00359712,0,0,-.00359712,0,64)" d="M22705.9 7551.16C22705.9 7559.47 22705.9 7565 22658.8 7612.09 22312.6 7961.14 22223.9 8484.7 22223.9 8908.55 22223.9 9390.56 22329.2 9872.58 22669.9 10218.8 22705.9 10252.1 22705.9 10257.6 22705.9 10265.9 22705.9 10285.3 22694.8 10293.6 22678.2 10293.6 22650.5 10293.6 22401.2 10105.3 22237.8 9753.45 22096.5 9448.73 22063.3 9141.25 22063.3 8908.55 22063.3 8692.47 22093.7 8357.28 22246.1 8044.25 22412.3 7703.52 22650.5 7523.45 22678.2 7523.45 22694.8 7523.45 22705.9 7531.77 22705.9 7551.16"/>
<path transform="matrix(.00359712,0,0,-.00359712,0,64)" d="M23947.6 8327.48 23460 9405.09C23440.7 9449.42 23426.8 9449.42 23418.5 9449.42 23415.7 9449.42 23401.9 9449.42 23371.4 9427.25L23108.2 9227.8C23072.2 9200.09 23072.2 9191.78 23072.2 9183.48 23072.2 9169.63 23080.5 9153 23099.9 9153 23116.5 9153 23163.6 9191.78 23194.1 9213.95 23210.7 9227.8 23252.3 9258.27 23282.8 9280.44L23828.5 8080.94C23847.9 8036.63 23861.7 8036.63 23886.7 8036.63 23928.2 8036.63 23936.5 8053.23 23955.9 8092.02L25213.6 10696C25233 10734.8 25233 10745.9 25233 10751.4 25233 10779.1 25210.8 10806.8 25177.6 10806.8 25155.4 10806.8 25136 10793 25113.9 10748.6L23947.6 8327.48"/>
<path transform="matrix(.00359712,0,0,-.00359712,0,64)" stroke-width="110.783" stroke-linecap="butt" stroke-miterlimit="10" stroke-linejoin="miter" fill="none" stroke="#000000" d="M25178.2 10751.6H27267.1"/>
<path transform="matrix(.00359712,0,0,-.00359712,0,64)" d="M27172.5 10041.5C27175.3 10052.6 27180.8 10066.5 27180.8 10083.1 27180.8 10108 27167 10108 27111.6 10108H25942.6C25876.1 10108 25873.3 10105.3 25856.7 10052.6L25704.3 9554C25698.8 9540.16 25696 9520.77 25696 9515.22 25696 9512.45 25696 9484.75 25729.3 9484.75 25754.2 9484.75 25759.7 9504.14 25765.3 9512.45 25870.5 9839.33 26014.6 10022.2 26446.8 10022.2H26898.3L25349.8 8290.8C25349.8 8288.03 25338.7 8249.25 25338.7 8240.94 25338.7 8216 25358.1 8216 25407.9 8216H26613C26679.4 8216 26682.2 8218.77 26698.8 8271.41L26895.5 8883.61C26898.3 8894.7 26906.6 8914.09 26906.6 8925.17 26906.6 8939.02 26895.5 8955.64 26870.6 8955.64 26845.7 8955.64 26842.9 8944.56 26823.5 8886.39 26701.6 8509.64 26568.6 8310.19 26097.7 8310.19H25624L27172.5 10041.5"/>
<path transform="matrix(.00359712,0,0,-.00359712,0,64)" d="M28067.6 8908.55C28067.6 9124.63 28037.1 9459.81 27884.8 9772.84 27718.5 10113.6 27480.3 10293.6 27452.6 10293.6 27436 10293.6 27424.9 10282.6 27424.9 10265.9 27424.9 10257.6 27424.9 10252.1 27477.5 10202.2 27749 9927.97 27906.9 9487.52 27906.9 8908.55 27906.9 8434.84 27804.4 7947.3 27460.9 7598.25 27424.9 7565 27424.9 7559.47 27424.9 7551.16 27424.9 7534.53 27436 7523.45 27452.6 7523.45 27480.3 7523.45 27729.6 7711.83 27893.1 8063.64 28034.3 8368.36 28067.6 8675.84 28067.6 8908.55"/>
<path transform="matrix(.00359712,0,0,-.00359712,0,64)" d="M29369.6 9677.95V9747.73H29154.4V10612.4C29154.4 10653.1 29154.4 10666.7 29111.7 10666.7 29088.5 10666.7 29080.7 10666.7 29061.3 10639.5L28419.6 9747.73V9677.95H28989.6V9518.97C28989.6 9453.06 28989.6 9429.8 28832.5 9429.8H28780.2V9360C28877.1 9363.88 29001.2 9367.75 29071 9367.75 29142.8 9367.75 29266.8 9363.88 29363.8 9360V9429.8H29311.4C29154.4 9429.8 29154.4 9453.06 29154.4 9518.97V9677.95H29369.6ZM29003.2 10457.3V9747.73H28491.3L29003.2 10457.3Z"/>
<path transform="matrix(.00359712,0,0,-.00359712,0,64)" stroke-width="110.783" stroke-linecap="butt" stroke-miterlimit="10" stroke-linejoin="miter" fill="none" stroke="#000000" d="M43343.7 9212.36C43343.7 11653.7 41364.7 13632.7 38923.3 13632.7 36482 13632.7 34503 11653.7 34503 9212.36 34503 6771.05 36482 4792.02 38923.3 4792.02 41364.7 4792.02 43343.7 6771.05 43343.7 9212.36ZM38923.3 9212.36"/>
<path transform="matrix(.00359712,0,0,-.00359712,0,64)" d="M37063.5 10463C37049.7 10499.1 37044.1 10518.5 36999.8 10518.5 36955.5 10518.5 36947.2 10501.8 36933.3 10463L36359.9 8806.48C36310 8665.2 36199.2 8623.64 36049.6 8620.88V8535C36113.4 8537.77 36232.5 8543.31 36332.2 8543.31 36418.1 8543.31 36562.1 8537.77 36650.8 8535V8620.88C36512.3 8620.88 36443 8690.13 36443 8762.16 36443 8770.47 36445.8 8798.17 36448.5 8803.7L36576 9166.61H37260.2L37407 8742.77C37409.8 8731.69 37415.3 8715.06 37415.3 8703.98 37415.3 8620.88 37260.2 8620.88 37185.4 8620.88V8535C37285.2 8543.31 37479.1 8543.31 37584.3 8543.31 37703.5 8543.31 37830.9 8540.55 37947.2 8535V8620.88H37897.4C37731.2 8620.88 37692.4 8640.27 37661.9 8731.69L37063.5 10463ZM36916.7 10152.8 37229.8 9252.48H36606.5L36916.7 10152.8Z"/>
<path transform="matrix(.00359712,0,0,-.00359712,0,64)" d="M38342.7 9487.94V8745.53C38342.7 8620.88 38312.3 8620.88 38126.6 8620.88V8535C38223.6 8537.77 38364.9 8543.31 38439.7 8543.31 38511.7 8543.31 38655.8 8537.77 38749.9 8535V8620.88C38564.3 8620.88 38533.9 8620.88 38533.9 8745.53V9255.25C38533.9 9543.34 38730.5 9698.48 38907.8 9698.48 39082.4 9698.48 39112.8 9548.89 39112.8 9390.98V8745.53C39112.8 8620.88 39082.4 8620.88 38896.8 8620.88V8535C38993.7 8537.77 39135 8543.31 39209.8 8543.31 39281.8 8543.31 39425.9 8537.77 39520 8535V8620.88C39334.5 8620.88 39304 8620.88 39304 8745.53V9255.25C39304 9543.34 39500.7 9698.48 39678 9698.48 39852.5 9698.48 39882.9 9548.89 39882.9 9390.98V8745.53C39882.9 8620.88 39852.5 8620.88 39666.9 8620.88V8535C39763.8 8537.77 39905.1 8543.31 39979.9 8543.31 40051.9 8543.31 40196 8537.77 40290.2 8535V8620.88C40146.1 8620.88 40076.9 8620.88 40074.1 8703.98V9233.09C40074.1 9471.33 40074.1 9557.2 39988.2 9656.92 39949.4 9704.02 39858 9759.42 39697.3 9759.42 39464.6 9759.42 39342.8 9593.22 39295.7 9487.94 39256.9 9728.95 39051.9 9759.42 38927.2 9759.42 38725 9759.42 38594.8 9640.31 38517.3 9468.55V9759.42L38126.6 9728.95V9643.08C38320.6 9643.08 38342.7 9623.69 38342.7 9487.94"/>
<path transform="matrix(.00359712,0,0,-.00359712,0,64)" d="M40822.5 9576.59V9759.42L40423.6 9728.95V9643.08C40620.3 9643.08 40639.6 9626.45 40639.6 9504.56V8208.13C40639.6 8083.45 40609.2 8083.45 40423.6 8083.45V7997.58C40517.8 8000.36 40661.8 8005.89 40733.8 8005.89 40808.6 8005.89 40949.9 8000.36 41046.9 7997.58V8083.45C40861.3 8083.45 40830.8 8083.45 40830.8 8208.13V8673.52 8698.44C40844.6 8654.13 40961 8504.53 41171.5 8504.53 41501.2 8504.53 41789.3 8776 41789.3 9133.36 41789.3 9485.17 41520.6 9759.42 41210.3 9759.42 40994.2 9759.42 40877.9 9637.53 40822.5 9576.59ZM40830.8 8850.8V9468.55C40911.1 9609.83 41046.9 9690.17 41188.1 9690.17 41390.4 9690.17 41559.3 9446.39 41559.3 9133.36 41559.3 8798.17 41365.4 8565.47 41160.4 8565.47 41049.6 8565.47 40944.4 8620.88 40869.6 8734.45 40830.8 8792.63 40830.8 8795.39 40830.8 8850.8"/>
<path transform="matrix(.00359712,0,0,-.00359712,0,64)" stroke-width="110.783" stroke-linecap="butt" stroke-miterlimit="10" stroke-linejoin="miter" fill="none" stroke="#000000" d="M35758.5 12377.2 30565 17570.8"/>
<path transform="matrix(.00359712,0,0,-.00359712,0,64)" d="M32438.1 15697.6 33197.8 13863.7 34272 14937.9"/>
<path transform="matrix(.00359712,0,0,-.00359712,0,64)" d="M34264.7 16153C34242.5 16058.8 34237 16039.5 34115.1 16039.5 34081.8 16039.5 34051.4 16039.5 34051.4 15986.8 34051.4 15964.7 34065.2 15953.6 34087.4 15953.6 34162.2 15953.6 34242.5 15961.9 34320.1 15961.9 34411.5 15961.9 34505.7 15953.6 34594.3 15953.6 34608.2 15953.6 34644.2 15953.6 34644.2 16009 34644.2 16039.5 34616.5 16039.5 34577.7 16039.5 34439.2 16039.5 34439.2 16058.8 34439.2 16083.8 34439.2 16117 34555.5 16568.6 34574.9 16637.8 34610.9 16557.5 34688.5 16460.5 34829.8 16460.5 35151.1 16460.5 35497.4 16865 35497.4 17272.2 35497.4 17532.6 35339.5 17715.4 35129 17715.4 34990.5 17715.4 34857.5 17615.7 34766.1 17507.7 34738.4 17657.3 34619.3 17715.4 34516.8 17715.4 34389.3 17715.4 34336.7 17607.4 34311.8 17557.5 34261.9 17463.3 34225.9 17297.1 34225.9 17288.8 34225.9 17261.1 34253.6 17261.1 34259.1 17261.1 34286.8 17261.1 34289.6 17263.9 34306.2 17324.8 34353.3 17521.5 34408.7 17654.5 34508.4 17654.5 34555.5 17654.5 34594.3 17632.3 34594.3 17527 34594.3 17463.3 34586 17432.9 34574.9 17385.8L34264.7 16153ZM34752.2 17355.3C34771.6 17430.1 34846.4 17507.7 34896.3 17549.2 34993.2 17635.1 35073.5 17654.5 35120.6 17654.5 35231.5 17654.5 35297.9 17557.5 35297.9 17394.1 35297.9 17230.6 35206.5 16912.1 35156.7 16806.8 35062.5 16612.9 34929.5 16521.5 34827 16521.5 34644.2 16521.5 34608.2 16751.4 34608.2 16768 34608.2 16773.6 34608.2 16779.1 34616.5 16812.3L34752.2 17355.3"/>
<path transform="matrix(.00359712,0,0,-.00359712,0,64)" d="M36183.5 17309C36183.5 17361.4 36179.6 17363.3 36125.3 17363.3 36001.2 17241.2 35824.8 17239.2 35745.3 17239.2V17169.4C35791.8 17169.4 35919.8 17169.4 36026.4 17223.7V16235C36026.4 16171 36026.4 16145.8 35832.6 16145.8H35758.9V16076C35793.8 16077.9 36032.3 16083.8 36104 16083.8 36164.1 16083.8 36408.4 16077.9 36451 16076V16145.8H36377.3C36183.5 16145.8 36183.5 16171 36183.5 16235V17309"/>
<path transform="matrix(.00359712,0,0,-.00359712,0,64)" stroke-width="110.783" stroke-linecap="butt" stroke-miterlimit="10" stroke-linejoin="miter" fill="none" stroke="#000000" d="M42088.2 12377.2 47281.7 17570.8"/>
<path transform="matrix(.00359712,0,0,-.00359712,0,64)" d="M45408.6 15697.6 43574.7 14937.9 44648.9 13863.7"/>
<path transform="matrix(.00359712,0,0,-.00359712,0,64)" d="M41194.7 16153C41172.5 16058.8 41167 16039.5 41045.1 16039.5 41011.8 16039.5 40981.4 16039.5 40981.4 15986.8 40981.4 15964.7 40995.2 15953.6 41017.4 15953.6 41092.2 15953.6 41172.5 15961.9 41250.1 15961.9 41341.5 15961.9 41435.7 15953.6 41524.3 15953.6 41538.2 15953.6 41574.2 15953.6 41574.2 16009 41574.2 16039.5 41546.5 16039.5 41507.7 16039.5 41369.2 16039.5 41369.2 16058.8 41369.2 16083.8 41369.2 16117 41485.5 16568.6 41504.9 16637.8 41540.9 16557.5 41618.5 16460.5 41759.8 16460.5 42081.1 16460.5 42427.4 16865 42427.4 17272.2 42427.4 17532.6 42269.5 17715.4 42059 17715.4 41920.5 17715.4 41787.5 17615.7 41696.1 17507.7 41668.4 17657.3 41549.3 17715.4 41446.8 17715.4 41319.3 17715.4 41266.7 17607.4 41241.8 17557.5 41191.9 17463.3 41155.9 17297.1 41155.9 17288.8 41155.9 17261.1 41183.6 17261.1 41189.1 17261.1 41216.8 17261.1 41219.6 17263.9 41236.2 17324.8 41283.3 17521.5 41338.7 17654.5 41438.4 17654.5 41485.5 17654.5 41524.3 17632.3 41524.3 17527 41524.3 17463.3 41516 17432.9 41504.9 17385.8L41194.7 16153ZM41682.2 17355.3C41701.6 17430.1 41776.4 17507.7 41826.3 17549.2 41923.2 17635.1 42003.5 17654.5 42050.6 17654.5 42161.5 17654.5 42227.9 17557.5 42227.9 17394.1 42227.9 17230.6 42136.5 16912.1 42086.7 16806.8 41992.5 16612.9 41859.5 16521.5 41757 16521.5 41574.2 16521.5 41538.2 16751.4 41538.2 16768 41538.2 16773.6 41538.2 16779.1 41546.5 16812.3L41682.2 17355.3"/>
<path transform="matrix(.00359712,0,0,-.00359712,0,64)" d="M43443 16428.8H43377.1C43371.3 16386.2 43351.9 16271.8 43326.7 16252.4 43311.2 16240.8 43161.9 16240.8 43134.8 16240.8H42778.1C42981.6 16421.1 43049.5 16475.4 43165.8 16566.5 43309.3 16680.9 43443 16801.1 43443 16985.3 43443 17219.8 43237.5 17363.3 42989.4 17363.3 42749 17363.3 42586.1 17194.6 42586.1 17016.3 42586.1 16917.4 42669.5 16907.7 42688.9 16907.7 42735.4 16907.7 42791.6 16940.7 42791.6 17010.5 42791.6 17045.3 42778.1 17113.2 42677.3 17113.2 42737.4 17250.9 42869.2 17293.5 42960.3 17293.5 43154.2 17293.5 43255 17142.3 43255 16985.3 43255 16816.6 43134.8 16682.8 43072.8 16613L42605.5 16151.6C42586.1 16134.2 42586.1 16130.3 42586.1 16076H43384.9L43443 16428.8"/>
<path transform="matrix(.00359712,0,0,-.00359712,0,64)" stroke-width="110.783" stroke-linecap="butt" stroke-miterlimit="10" stroke-linejoin="miter" fill="none" stroke="#000000" d="M30565 853.98 35758.5 6047.54"/>
<path transform="matrix(.00359712,0,0,-.00359712,0,64)" d="M33885.4 4174.4 32051.5 3414.74 33125.7 2340.52"/>
<path transform="matrix(.00359712,0,0,-.00359712,0,64)" d="M34935 2441.03C34935 2443.81 34935 2471.52 34899 2471.52 34835.3 2471.52 34633.1 2449.34 34561.1 2443.81 34538.9 2441.03 34508.4 2438.27 34508.4 2388.41 34508.4 2355.16 34533.4 2355.16 34574.9 2355.16 34707.9 2355.16 34713.4 2335.77 34713.4 2308.06L34705.1 2252.67 34303.4 657.031C34292.4 618.25 34292.4 612.719 34292.4 596.094 34292.4 532.375 34347.8 518.531 34372.7 518.531 34408.7 518.531 34450.3 543.453 34466.9 576.703 34480.7 601.641 34605.4 1114.13 34622 1183.38 34716.2 1175.06 34943.4 1130.73 34943.4 947.906 34943.4 928.516 34943.4 917.438 34935 889.734 34929.5 856.484 34924 823.25 34924 792.781 34924 629.328 35034.8 518.531 35178.8 518.531 35261.9 518.531 35336.7 562.844 35397.7 665.344 35466.9 787.234 35497.4 939.594 35497.4 945.141 35497.4 972.844 35472.5 972.844 35464.2 972.844 35436.5 972.844 35433.7 961.766 35425.4 922.969 35370 720.75 35306.3 579.469 35184.4 579.469 35131.7 579.469 35095.7 609.938 35095.7 709.672 35095.7 756.766 35106.8 820.484 35117.9 864.797 35129 911.891 35129 922.969 35129 950.672 35129 1130.73 34954.4 1211.08 34719 1241.55 34804.8 1291.41 34893.5 1380.06 34957.2 1446.55 35090.2 1593.36 35217.6 1712.48 35353.3 1712.48 35370 1712.48 35372.7 1712.48 35378.3 1709.7 35411.5 1704.17 35414.3 1704.17 35436.5 1687.55 35442 1684.78 35442 1682 35447.5 1676.47 35314.6 1668.16 35289.6 1560.13 35289.6 1526.88 35289.6 1482.55 35320.1 1429.92 35394.9 1429.92 35466.9 1429.92 35547.3 1490.86 35547.3 1598.91 35547.3 1682 35483.5 1773.42 35358.9 1773.42 35281.3 1773.42 35153.9 1751.27 34954.4 1529.64 34860.3 1424.38 34752.2 1313.58 34646.9 1272.02L34935 2441.03"/>
<path transform="matrix(.00359712,0,0,-.00359712,0,64)" d="M36231.5 1366.02C36231.5 1418.36 36227.6 1420.3 36173.3 1420.3 36049.2 1298.16 35872.8 1296.22 35793.3 1296.22V1226.42C35839.8 1226.42 35967.8 1226.42 36074.4 1280.7V291.969C36074.4 228 36074.4 202.797 35880.6 202.797H35806.9V133C35841.8 134.938 36080.3 140.75 36152 140.75 36212.1 140.75 36456.4 134.938 36499 133V202.797H36425.3C36231.5 202.797 36231.5 228 36231.5 291.969V1366.02"/>
<path transform="matrix(.00359712,0,0,-.00359712,0,64)" stroke-width="110.783" stroke-linecap="butt" stroke-miterlimit="10" stroke-linejoin="miter" fill="none" stroke="#000000" d="M47281.7 853.98 42088.2 6047.54"/>
<path transform="matrix(.00359712,0,0,-.00359712,0,64)" d="M43961.3 4174.4 44721 2340.52 45795.2 3414.74"/>
<path transform="matrix(.00359712,0,0,-.00359712,0,64)" d="M41817 2441.03C41817 2443.81 41817 2471.52 41781 2471.52 41717.3 2471.52 41515.1 2449.34 41443.1 2443.81 41420.9 2441.03 41390.4 2438.27 41390.4 2388.41 41390.4 2355.16 41415.4 2355.16 41456.9 2355.16 41589.9 2355.16 41595.4 2335.77 41595.4 2308.06L41587.1 2252.67 41185.4 657.031C41174.4 618.25 41174.4 612.719 41174.4 596.094 41174.4 532.375 41229.8 518.531 41254.7 518.531 41290.7 518.531 41332.3 543.453 41348.9 576.703 41362.7 601.641 41487.4 1114.13 41504 1183.38 41598.2 1175.06 41825.4 1130.73 41825.4 947.906 41825.4 928.516 41825.4 917.438 41817 889.734 41811.5 856.484 41806 823.25 41806 792.781 41806 629.328 41916.8 518.531 42060.8 518.531 42143.9 518.531 42218.7 562.844 42279.7 665.344 42348.9 787.234 42379.4 939.594 42379.4 945.141 42379.4 972.844 42354.5 972.844 42346.2 972.844 42318.5 972.844 42315.7 961.766 42307.4 922.969 42252 720.75 42188.3 579.469 42066.4 579.469 42013.7 579.469 41977.7 609.938 41977.7 709.672 41977.7 756.766 41988.8 820.484 41999.9 864.797 42011 911.891 42011 922.969 42011 950.672 42011 1130.73 41836.4 1211.08 41601 1241.55 41686.8 1291.41 41775.5 1380.06 41839.2 1446.55 41972.2 1593.36 42099.6 1712.48 42235.3 1712.48 42252 1712.48 42254.7 1712.48 42260.3 1709.7 42293.5 1704.17 42296.3 1704.17 42318.5 1687.55 42324 1684.78 42324 1682 42329.5 1676.47 42196.6 1668.16 42171.6 1560.13 42171.6 1526.88 42171.6 1482.55 42202.1 1429.92 42276.9 1429.92 42348.9 1429.92 42429.3 1490.86 42429.3 1598.91 42429.3 1682 42365.5 1773.42 42240.9 1773.42 42163.3 1773.42 42035.9 1751.27 41836.4 1529.64 41742.3 1424.38 41634.2 1313.58 41528.9 1272.02L41817 2441.03"/>
<path transform="matrix(.00359712,0,0,-.00359712,0,64)" d="M43443 485.844H43377.1C43371.3 443.188 43351.9 328.813 43326.7 309.422 43311.2 297.797 43161.9 297.797 43134.8 297.797H42778.1C42981.6 478.094 43049.5 532.375 43165.8 623.484 43309.3 737.875 43443 858.078 43443 1042.25 43443 1276.83 43237.5 1420.3 42989.4 1420.3 42749 1420.3 42586.1 1251.63 42586.1 1073.27 42586.1 974.391 42669.5 964.703 42688.9 964.703 42735.4 964.703 42791.6 997.656 42791.6 1067.45 42791.6 1102.34 42778.1 1170.2 42677.3 1170.2 42737.4 1307.86 42869.2 1350.5 42960.3 1350.5 43154.2 1350.5 43255 1199.28 43255 1042.25 43255 873.578 43134.8 739.813 43072.8 670.016L42605.5 208.609C42586.1 191.156 42586.1 187.281 42586.1 133H43384.9L43443 485.844"/>
<path transform="matrix(.00359712,0,0,-.00359712,0,64)" d="M48791.9 8362.81C48791.9 8443.16 48725.4 8509.64 48645.1 8509.64 48564.7 8509.64 48498.2 8443.16 48498.2 8362.81 48498.2 8282.48 48564.7 8216 48645.1 8216 48725.4 8216 48791.9 8282.48 48791.9 8362.81"/>
</svg>
