<svg xmlns="http://www.w3.org/2000/svg" xmlns:xlink="http://www.w3.org/1999/xlink" version="1.1" width="259pt" height="64pt" viewBox="0 0 259 64">
<path transform="matrix(.00359712,0,0,-.00359712,0,64)" d="M1784.13 9121.84C1825.67 9121.84 1878.31 9121.84 1878.31 9177.25 1878.31 9232.66 1825.67 9232.66 1786.89 9232.66H127.547C88.7656 9232.66 36.125 9232.66 36.125 9177.25 36.125 9121.84 88.7656 9121.84 130.313 9121.84H1784.13ZM1786.89 8584.44C1825.67 8584.44 1878.31 8584.44 1878.31 8639.84 1878.31 8695.25 1825.67 8695.25 1784.13 8695.25H130.313C88.7656 8695.25 36.125 8695.25 36.125 8639.84 36.125 8584.44 88.7656 8584.44 127.547 8584.44H1786.89"/>
<path transform="matrix(.00359712,0,0,-.00359712,0,64)" stroke-width="110.783" stroke-linecap="butt" stroke-miterlimit="10" stroke-linejoin="miter" fill="none" stroke="#000000" d="M16562 9212.36C16562 11653.7 14583 13632.7 12141.6 13632.7 9700.33 13632.7 7721.3 11653.7 7721.3 9212.36 7721.3 6771.05 9700.33 4792.02 12141.6 4792.02 14583 4792.02 16562 6771.05 16562 9212.36ZM12141.6 9212.36"/>
<path transform="matrix(.00359712,0,0,-.00359712,0,64)" d="M10282.5 10463C10268.7 10499.1 10263.1 10518.5 10218.8 10518.5 10174.5 10518.5 10166.2 10501.8 10152.3 10463L9578.91 8806.48C9529.05 8665.2 9418.23 8623.64 9268.64 8620.88V8535C9332.36 8537.77 9451.48 8543.31 9551.2 8543.31 9637.08 8543.31 9781.13 8537.77 9869.78 8535V8620.88C9731.27 8620.88 9662.02 8690.13 9662.02 8762.16 9662.02 8770.47 9664.78 8798.17 9667.55 8803.7L9794.98 9166.61H10479.2L10626 8742.77C10628.8 8731.69 10634.3 8715.06 10634.3 8703.98 10634.3 8620.88 10479.2 8620.88 10404.4 8620.88V8535C10504.2 8543.31 10698.1 8543.31 10803.3 8543.31 10922.5 8543.31 11049.9 8540.55 11166.2 8535V8620.88H11116.4C10950.2 8620.88 10911.4 8640.27 10880.9 8731.69L10282.5 10463ZM10135.7 10152.8 10448.8 9252.48H9825.45L10135.7 10152.8Z"/>
<path transform="matrix(.00359712,0,0,-.00359712,0,64)" d="M11561.7 9487.94V8745.53C11561.7 8620.88 11531.3 8620.88 11345.6 8620.88V8535C11442.6 8537.77 11583.9 8543.31 11658.7 8543.31 11730.7 8543.31 11874.8 8537.77 11968.9 8535V8620.88C11783.3 8620.88 11752.9 8620.88 11752.9 8745.53V9255.25C11752.9 9543.34 11949.5 9698.48 12126.8 9698.48 12301.4 9698.48 12331.8 9548.89 12331.8 9390.98V8745.53C12331.8 8620.88 12301.4 8620.88 12115.8 8620.88V8535C12212.7 8537.77 12354 8543.31 12428.8 8543.31 12500.8 8543.31 12644.9 8537.77 12739 8535V8620.88C12553.5 8620.88 12523 8620.88 12523 8745.53V9255.25C12523 9543.34 12719.7 9698.48 12897 9698.48 13071.5 9698.48 13101.9 9548.89 13101.9 9390.98V8745.53C13101.9 8620.88 13071.5 8620.88 12885.9 8620.88V8535C12982.8 8537.77 13124.1 8543.31 13198.9 8543.31 13270.9 8543.31 13415 8537.77 13509.2 8535V8620.88C13365.1 8620.88 13295.9 8620.88 13293.1 8703.98V9233.09C13293.1 9471.33 13293.1 9557.2 13207.2 9656.92 13168.4 9704.02 13077 9759.42 12916.3 9759.42 12683.6 9759.42 12561.8 9593.22 12514.7 9487.94 12475.9 9728.95 12270.9 9759.42 12146.2 9759.42 11944 9759.42 11813.8 9640.31 11736.3 9468.55V9759.42L11345.6 9728.95V9643.08C11539.6 9643.08 11561.7 9623.69 11561.7 9487.94"/>
<path transform="matrix(.00359712,0,0,-.00359712,0,64)" d="M14040.5 9576.59V9759.42L13641.6 9728.95V9643.08C13838.3 9643.08 13857.6 9626.45 13857.6 9504.56V8208.13C13857.6 8083.45 13827.2 8083.45 13641.6 8083.45V7997.58C13735.8 8000.36 13879.8 8005.89 13951.8 8005.89 14026.6 8005.89 14167.9 8000.36 14264.9 7997.58V8083.45C14079.3 8083.45 14048.8 8083.45 14048.8 8208.13V8673.52 8698.44C14062.6 8654.13 14179 8504.53 14389.5 8504.53 14719.2 8504.53 15007.3 8776 15007.3 9133.36 15007.3 9485.17 14738.6 9759.42 14428.3 9759.42 14212.2 9759.42 14095.9 9637.53 14040.5 9576.59ZM14048.8 8850.8V9468.55C14129.1 9609.83 14264.9 9690.17 14406.1 9690.17 14608.4 9690.17 14777.3 9446.39 14777.3 9133.36 14777.3 8798.17 14583.4 8565.47 14378.4 8565.47 14267.6 8565.47 14162.4 8620.88 14087.6 8734.45 14048.8 8792.63 14048.8 8795.39 14048.8 8850.8"/>
<path transform="matrix(.00359712,0,0,-.00359712,0,64)" stroke-width="110.783" stroke-linecap="butt" stroke-miterlimit="10" stroke-linejoin="miter" fill="none" stroke="#000000" d="M8976.82 12377.2 3783.27 17570.8"/>
<path transform="matrix(.00359712,0,0,-.00359712,0,64)" d="M5656.41 15697.6 6416.07 13863.7 7490.28 14937.9"/>
<path transform="matrix(.00359712,0,0,-.00359712,0,64)" d="M7483.66 16153C7461.5 16058.8 7455.95 16039.5 7334.06 16039.5 7300.83 16039.5 7270.36 16039.5 7270.36 15986.8 7270.36 15964.7 7284.2 15953.6 7306.36 15953.6 7381.16 15953.6 7461.5 15961.9 7539.06 15961.9 7630.48 15961.9 7724.67 15953.6 7813.31 15953.6 7827.16 15953.6 7863.17 15953.6 7863.17 16009 7863.17 16039.5 7835.47 16039.5 7796.69 16039.5 7658.19 16039.5 7658.19 16058.8 7658.19 16083.8 7658.19 16117 7774.53 16568.6 7793.92 16637.8 7829.94 16557.5 7907.5 16460.5 8048.78 16460.5 8370.13 16460.5 8716.39 16865 8716.39 17272.2 8716.39 17532.6 8558.48 17715.4 8347.95 17715.4 8209.45 17715.4 8076.48 17615.7 7985.06 17507.7 7957.36 17657.3 7838.25 17715.4 7735.75 17715.4 7608.31 17715.4 7555.69 17607.4 7530.75 17557.5 7480.89 17463.3 7444.88 17297.1 7444.88 17288.8 7444.88 17261.1 7472.58 17261.1 7478.13 17261.1 7505.81 17261.1 7508.59 17263.9 7525.22 17324.8 7572.3 17521.5 7627.7 17654.5 7727.44 17654.5 7774.53 17654.5 7813.31 17632.3 7813.31 17527 7813.31 17463.3 7805 17432.9 7793.92 17385.8L7483.66 16153ZM7971.22 17355.3C7990.61 17430.1 8065.39 17507.7 8115.27 17549.2 8212.22 17635.1 8292.55 17654.5 8339.64 17654.5 8450.45 17654.5 8516.94 17557.5 8516.94 17394.1 8516.94 17230.6 8425.52 16912.1 8375.66 16806.8 8281.47 16612.9 8148.5 16521.5 8046 16521.5 7863.17 16521.5 7827.16 16751.4 7827.16 16768 7827.16 16773.6 7827.16 16779.1 7835.47 16812.3L7971.22 17355.3"/>
<path transform="matrix(.00359712,0,0,-.00359712,0,64)" d="M9401.47 17309C9401.47 17361.4 9397.59 17363.3 9343.3 17363.3 9219.23 17241.2 9042.81 17239.2 8963.31 17239.2V17169.4C9009.84 17169.4 9137.8 17169.4 9244.44 17223.7V16235C9244.44 16171 9244.44 16145.8 9050.56 16145.8H8976.89V16076C9011.78 16077.9 9250.25 16083.8 9321.98 16083.8 9382.08 16083.8 9626.36 16077.9 9669 16076V16145.8H9595.33C9401.47 16145.8 9401.47 16171 9401.47 16235V17309"/>
<path transform="matrix(.00359712,0,0,-.00359712,0,64)" stroke-width="110.783" stroke-linecap="butt" stroke-miterlimit="10" stroke-linejoin="miter" fill="none" stroke="#000000" d="M15306.5 12377.2 20500 17570.8"/>
<path transform="matrix(.00359712,0,0,-.00359712,0,64)" d="M18626.9 15697.6 16793 14937.9 17867.2 13863.7"/>
<path transform="matrix(.00359712,0,0,-.00359712,0,64)" d="M14413.7 16153C14391.5 16058.8 14386 16039.5 14264.1 16039.5 14230.8 16039.5 14200.4 16039.5 14200.4 15986.8 14200.4 15964.7 14214.2 15953.6 14236.4 15953.6 14311.2 15953.6 14391.5 15961.9 14469.1 15961.9 14560.5 15961.9 14654.7 15953.6 14743.3 15953.6 14757.2 15953.6 14793.2 15953.6 14793.2 16009 14793.2 16039.5 14765.5 16039.5 14726.7 16039.5 14588.2 16039.5 14588.2 16058.8 14588.2 16083.8 14588.2 16117 14704.5 16568.6 14723.9 16637.8 14759.9 16557.5 14837.5 16460.5 14978.8 16460.5 15300.1 16460.5 15646.4 16865 15646.4 17272.2 15646.4 17532.6 15488.5 17715.4 15278 17715.4 15139.5 17715.4 15006.5 17615.7 14915.1 17507.7 14887.4 17657.3 14768.3 17715.4 14665.8 17715.4 14538.3 17715.4 14485.7 17607.4 14460.8 17557.5 14410.9 17463.3 14374.9 17297.1 14374.9 17288.8 14374.9 17261.1 14402.6 17261.1 14408.1 17261.1 14435.8 17261.1 14438.6 17263.9 14455.2 17324.8 14502.3 17521.5 14557.7 17654.5 14657.4 17654.5 14704.5 17654.5 14743.3 17632.3 14743.3 17527 14743.3 17463.3 14735 17432.9 14723.9 17385.8L14413.7 16153ZM14901.2 17355.3C14920.6 17430.1 14995.4 17507.7 15045.3 17549.2 15142.2 17635.1 15222.5 17654.5 15269.6 17654.5 15380.5 17654.5 15446.9 17557.5 15446.9 17394.1 15446.9 17230.6 15355.5 16912.1 15305.7 16806.8 15211.5 16612.9 15078.5 16521.5 14976 16521.5 14793.2 16521.5 14757.2 16751.4 14757.2 16768 14757.2 16773.6 14757.2 16779.1 14765.5 16812.3L14901.2 17355.3"/>
<path transform="matrix(.00359712,0,0,-.00359712,0,64)" d="M16661 16428.8H16595.1C16589.3 16386.2 16569.9 16271.8 16544.7 16252.4 16529.2 16240.8 16379.9 16240.8 16352.8 16240.8H15996.1C16199.6 16421.1 16267.5 16475.4 16383.8 16566.5 16527.3 16680.9 16661 16801.1 16661 16985.3 16661 17219.8 16455.5 17363.3 16207.4 17363.3 15967 17363.3 15804.1 17194.6 15804.1 17016.3 15804.1 16917.4 15887.5 16907.7 15906.9 16907.7 15953.4 16907.7 16009.6 16940.7 16009.6 17010.5 16009.6 17045.3 15996.1 17113.2 15895.3 17113.2 15955.4 17250.9 16087.2 17293.5 16178.3 17293.5 16372.2 17293.5 16473 17142.3 16473 16985.3 16473 16816.6 16352.8 16682.8 16290.8 16613L15823.5 16151.6C15804.1 16134.2 15804.1 16130.3 15804.1 16076H16602.9L16661 16428.8"/>
<path transform="matrix(.00359712,0,0,-.00359712,0,64)" stroke-width="110.783" stroke-linecap="butt" stroke-miterlimit="10" stroke-linejoin="miter" fill="none" stroke="#000000" d="M3783.27 853.98 8976.82 6047.54"/>
<path transform="matrix(.00359712,0,0,-.00359712,0,64)" d="M7103.68 4174.4 5269.8 3414.74 6344.02 2340.52"/>
<path transform="matrix(.00359712,0,0,-.00359712,0,64)" d="M8154.05 2441.03C8154.05 2443.81 8154.05 2471.52 8118.03 2471.52 8054.31 2471.52 7852.09 2449.34 7780.06 2443.81 7757.91 2441.03 7727.44 2438.27 7727.44 2388.41 7727.44 2355.16 7752.36 2355.16 7793.92 2355.16 7926.89 2355.16 7932.42 2335.77 7932.42 2308.06L7924.13 2252.67 7522.44 657.031C7511.36 618.25 7511.36 612.719 7511.36 596.094 7511.36 532.375 7566.77 518.531 7591.7 518.531 7627.7 518.531 7669.27 543.453 7685.88 576.703 7699.73 601.641 7824.39 1114.13 7841.02 1183.38 7935.2 1175.06 8162.36 1130.73 8162.36 947.906 8162.36 928.516 8162.36 917.438 8154.05 889.734 8148.5 856.484 8142.97 823.25 8142.97 792.781 8142.97 629.328 8253.77 518.531 8397.83 518.531 8480.92 518.531 8555.72 562.844 8616.67 665.344 8685.92 787.234 8716.39 939.594 8716.39 945.141 8716.39 972.844 8691.45 972.844 8683.16 972.844 8655.45 972.844 8652.67 961.766 8644.36 922.969 8588.97 720.75 8525.25 579.469 8403.36 579.469 8350.73 579.469 8314.72 609.938 8314.72 709.672 8314.72 756.766 8325.8 820.484 8336.88 864.797 8347.95 911.891 8347.95 922.969 8347.95 950.672 8347.95 1130.73 8173.44 1211.08 7937.97 1241.55 8023.84 1291.41 8112.48 1380.06 8176.2 1446.55 8309.17 1593.36 8436.61 1712.48 8572.34 1712.48 8588.97 1712.48 8591.73 1712.48 8597.28 1709.7 8630.52 1704.17 8633.28 1704.17 8655.45 1687.55 8660.98 1684.78 8660.98 1682 8666.53 1676.47 8533.56 1668.16 8508.63 1560.13 8508.63 1526.88 8508.63 1482.55 8539.09 1429.92 8613.89 1429.92 8685.92 1429.92 8766.25 1490.86 8766.25 1598.91 8766.25 1682 8702.55 1773.42 8577.88 1773.42 8500.31 1773.42 8372.89 1751.27 8173.44 1529.64 8079.25 1424.38 7971.22 1313.58 7865.94 1272.02L8154.05 2441.03"/>
<path transform="matrix(.00359712,0,0,-.00359712,0,64)" d="M9449.47 1366.02C9449.47 1418.36 9445.59 1420.3 9391.3 1420.3 9267.23 1298.16 9090.81 1296.22 9011.31 1296.22V1226.42C9057.84 1226.42 9185.8 1226.42 9292.44 1280.7V291.969C9292.44 228 9292.44 202.797 9098.56 202.797H9024.89V133C9059.78 134.938 9298.25 140.75 9369.98 140.75 9430.08 140.75 9674.36 134.938 9717 133V202.797H9643.33C9449.47 202.797 9449.47 228 9449.47 291.969V1366.02"/>
<path transform="matrix(.00359712,0,0,-.00359712,0,64)" stroke-width="110.783" stroke-linecap="butt" stroke-miterlimit="10" stroke-linejoin="miter" fill="none" stroke="#000000" d="M20500 853.98 15306.5 6047.54"/>
<path transform="matrix(.00359712,0,0,-.00359712,0,64)" d="M17179.6 4174.4 17939.3 2340.52 19013.5 3414.74"/>
<path transform="matrix(.00359712,0,0,-.00359712,0,64)" d="M15035 2441.03C15035 2443.81 15035 2471.52 14999 2471.52 14935.3 2471.52 14733.1 2449.34 14661.1 2443.81 14638.9 2441.03 14608.4 2438.27 14608.4 2388.41 14608.4 2355.16 14633.4 2355.16 14674.9 2355.16 14807.9 2355.16 14813.4 2335.77 14813.4 2308.06L14805.1 2252.67 14403.4 657.031C14392.4 618.25 14392.4 612.719 14392.4 596.094 14392.4 532.375 14447.8 518.531 14472.7 518.531 14508.7 518.531 14550.3 543.453 14566.9 576.703 14580.7 601.641 14705.4 1114.13 14722 1183.38 14816.2 1175.06 15043.4 1130.73 15043.4 947.906 15043.4 928.516 15043.4 917.438 15035 889.734 15029.5 856.484 15024 823.25 15024 792.781 15024 629.328 15134.8 518.531 15278.8 518.531 15361.9 518.531 15436.7 562.844 15497.7 665.344 15566.9 787.234 15597.4 939.594 15597.4 945.141 15597.4 972.844 15572.5 972.844 15564.2 972.844 15536.5 972.844 15533.7 961.766 15525.4 922.969 15470 720.75 15406.3 579.469 15284.4 579.469 15231.7 579.469 15195.7 609.938 15195.7 709.672 15195.7 756.766 15206.8 820.484 15217.9 864.797 15229 911.891 15229 922.969 15229 950.672 15229 1130.73 15054.4 1211.08 14819 1241.55 14904.8 1291.41 14993.5 1380.06 15057.2 1446.55 15190.2 1593.36 15317.6 1712.48 15453.3 1712.48 15470 1712.48 15472.7 1712.48 15478.3 1709.7 15511.5 1704.17 15514.3 1704.17 15536.5 1687.55 15542 1684.78 15542 1682 15547.5 1676.47 15414.6 1668.16 15389.6 1560.13 15389.6 1526.88 15389.6 1482.55 15420.1 1429.92 15494.9 1429.92 15566.9 1429.92 15647.3 1490.86 15647.3 1598.91 15647.3 1682 15583.5 1773.42 15458.9 1773.42 15381.3 1773.42 15253.9 1751.27 15054.4 1529.64 14960.3 1424.38 14852.2 1313.58 14746.9 1272.02L15035 2441.03"/>
<path transform="matrix(.00359712,0,0,-.00359712,0,64)" d="M16661 485.844H16595.1C16589.3 443.188 16569.9 328.813 16544.7 309.422 16529.2 297.797 16379.9 297.797 16352.8 297.797H15996.1C16199.6 478.094 16267.5 532.375 16383.8 623.484 16527.3 737.875 16661 858.078 16661 1042.25 16661 1276.83 16455.5 1420.3 16207.4 1420.3 15967 1420.3 15804.1 1251.63 15804.1 1073.27 15804.1 974.391 15887.5 964.703 15906.9 964.703 15953.4 964.703 16009.6 997.656 16009.6 1067.45 16009.6 1102.34 15996.1 1170.2 15895.3 1170.2 15955.4 1307.86 16087.2 1350.5 16178.3 1350.5 16372.2 1350.5 16473 1199.28 16473 1042.25 16473 873.578 16352.8 739.813 16290.8 670.016L15823.5 208.609C15804.1 191.156 15804.1 187.281 15804.1 133H16602.9L16661 485.844"/>
<path transform="matrix(.00359712,0,0,-.00359712,0,64)" d="M23171.6 8986.11 22617.6 9537.38C22584.3 9570.63 22578.8 9576.16 22556.6 9576.16 22528.9 9576.16 22501.2 9551.23 22501.2 9520.77 22501.2 9501.36 22506.8 9495.83 22537.2 9465.36L23091.3 8908.55 22537.2 8351.73C22506.8 8321.27 22501.2 8315.73 22501.2 8296.33 22501.2 8265.86 22528.9 8240.94 22556.6 8240.94 22578.8 8240.94 22584.3 8246.47 22617.6 8279.72L23168.8 8830.98 23742.3 8257.55C23747.8 8254.78 23767.2 8240.94 23783.8 8240.94 23817.1 8240.94 23839.2 8265.86 23839.2 8296.33 23839.2 8301.88 23839.2 8312.95 23830.9 8326.81 23828.1 8332.34 23387.7 8767.27 23249.2 8908.55L23756.1 9415.48C23770 9432.11 23811.5 9468.13 23825.4 9484.75 23828.1 9490.28 23839.2 9501.36 23839.2 9520.77 23839.2 9551.23 23817.1 9576.16 23783.8 9576.16 23761.7 9576.16 23750.6 9565.08 23720.1 9534.61L23171.6 8986.11"/>
<path transform="matrix(.00359712,0,0,-.00359712,0,64)" d="M29929.7 11821.4C29929.7 11876.8 29891 11921.1 29827.2 11921.1 29752.4 11921.1 29677.6 11849.1 29677.6 11774.3 29677.6 11721.6 29716.4 11674.5 29782.9 11674.5 29846.6 11674.5 29929.7 11738.3 29929.7 11821.4ZM29719.2 10779.8C29752.4 10860.1 29752.4 10865.7 29780.1 10940.5 29802.3 10995.8 29816.2 11034.6 29816.2 11087.3 29816.2 11211.9 29727.5 11314.4 29589 11314.4 29328.6 11314.4 29223.3 10912.8 29223.3 10887.8 29223.3 10860.1 29251 10860.1 29256.6 10860.1 29284.3 10860.1 29287 10865.7 29300.9 10910 29375.7 11170.4 29486.5 11253.5 29580.7 11253.5 29602.8 11253.5 29649.9 11253.5 29649.9 11164.8 29649.9 11106.7 29630.5 11048.5 29619.5 11020.8 29597.3 10948.8 29472.7 10627.4 29428.3 10508.3 29400.6 10436.3 29364.6 10344.9 29364.6 10286.7 29364.6 10156.5 29458.8 10059.5 29591.8 10059.5 29852.2 10059.5 29954.7 10461.2 29954.7 10486.1 29954.7 10513.8 29929.7 10513.8 29921.4 10513.8 29893.7 10513.8 29893.7 10505.5 29879.9 10464 29830 10289.5 29738.6 10120.5 29597.3 10120.5 29550.2 10120.5 29530.8 10148.2 29530.8 10211.9 29530.8 10281.1 29547.5 10319.9 29611.2 10488.9L29719.2 10779.8"/>
<path transform="matrix(.00359712,0,0,-.00359712,0,64)" d="M32090.5 11915.5C32093.3 11926.6 32098.8 11940.5 32098.8 11957.1 32098.8 11982 32085 11982 32029.6 11982H30860.6C30794.1 11982 30791.3 11979.3 30774.7 11926.6L30622.3 11428C30616.8 11414.2 30614 11394.8 30614 11389.2 30614 11386.5 30614 11358.8 30647.3 11358.8 30672.2 11358.8 30677.7 11378.1 30683.3 11386.5 30788.5 11713.3 30932.6 11896.2 31364.8 11896.2H31816.3L30267.8 10164.8C30267.8 10162 30256.7 10123.3 30256.7 10114.9 30256.7 10090 30276.1 10090 30325.9 10090H31531C31597.4 10090 31600.2 10092.8 31616.8 10145.4L31813.5 10757.6C31816.3 10768.7 31824.6 10788.1 31824.6 10799.2 31824.6 10813 31813.5 10829.6 31788.6 10829.6 31763.7 10829.6 31760.9 10818.6 31741.5 10760.4 31619.6 10383.6 31486.6 10184.2 31015.7 10184.2H30542L32090.5 11915.5"/>
<path transform="matrix(.00359712,0,0,-.00359712,0,64)" stroke-width="110.783" stroke-linecap="butt" stroke-miterlimit="10" stroke-linejoin="miter" fill="none" stroke="#000000" d="M25196 8908.51H36133.6"/>
<path transform="matrix(.00359712,0,0,-.00359712,0,64)" d="M25320.7 5978.03C25298.5 5883.84 25293 5864.45 25171.1 5864.45 25137.8 5864.45 25107.4 5864.45 25107.4 5811.83 25107.4 5789.67 25121.2 5778.58 25143.4 5778.58 25218.2 5778.58 25298.5 5786.89 25376.1 5786.89 25467.5 5786.89 25561.7 5778.58 25650.3 5778.58 25664.2 5778.58 25700.2 5778.58 25700.2 5833.98 25700.2 5864.45 25672.5 5864.45 25633.7 5864.45 25495.2 5864.45 25495.2 5883.84 25495.2 5908.78 25495.2 5942.03 25611.5 6393.56 25630.9 6462.81 25666.9 6382.48 25744.5 6285.53 25885.8 6285.53 26207.1 6285.53 26553.4 6689.97 26553.4 7097.19 26553.4 7357.59 26395.5 7540.42 26185 7540.42 26046.5 7540.42 25913.5 7440.7 25822.1 7332.66 25794.4 7482.25 25675.3 7540.42 25572.8 7540.42 25445.3 7540.42 25392.7 7432.39 25367.8 7382.52 25317.9 7288.33 25281.9 7122.13 25281.9 7113.81 25281.9 7086.11 25309.6 7086.11 25315.1 7086.11 25342.8 7086.11 25345.6 7088.88 25362.2 7149.83 25409.3 7346.52 25464.7 7479.48 25564.4 7479.48 25611.5 7479.48 25650.3 7457.31 25650.3 7352.05 25650.3 7288.33 25642 7257.86 25630.9 7210.77L25320.7 5978.03ZM25808.2 7180.3C25827.6 7255.09 25902.4 7332.66 25952.3 7374.22 26049.2 7460.09 26129.5 7479.48 26176.6 7479.48 26287.5 7479.48 26353.9 7382.52 26353.9 7219.08 26353.9 7055.64 26262.5 6737.06 26212.7 6631.8 26118.5 6437.89 25985.5 6346.47 25883 6346.47 25700.2 6346.47 25664.2 6576.39 25664.2 6593.02 25664.2 6598.56 25664.2 6604.09 25672.5 6637.34L25808.2 7180.3"/>
<path transform="matrix(.00359712,0,0,-.00359712,0,64)" d="M27238.5 7134.02C27238.5 7186.36 27234.6 7188.3 27180.3 7188.3 27056.2 7066.16 26879.8 7064.22 26800.3 7064.22V6994.42C26846.8 6994.42 26974.8 6994.42 27081.4 7048.7V6059.97C27081.4 5996 27081.4 5970.8 26887.6 5970.8H26813.9V5901C26848.8 5902.94 27087.3 5908.75 27159 5908.75 27219.1 5908.75 27463.4 5902.94 27506 5901V5970.8H27432.3C27238.5 5970.8 27238.5 5996 27238.5 6059.97V7134.02"/>
<path transform="matrix(.00359712,0,0,-.00359712,0,64)" d="M28811 7469.84H28745.1C28739.3 7427.19 28719.9 7312.81 28694.7 7293.42 28679.2 7281.8 28529.9 7281.8 28502.8 7281.8H28146.1C28349.6 7462.09 28417.5 7516.38 28533.8 7607.48 28677.3 7721.88 28811 7842.08 28811 8026.25 28811 8260.83 28605.5 8404.3 28357.4 8404.3 28117 8404.3 27954.1 8235.63 27954.1 8057.27 27954.1 7958.39 28037.5 7948.7 28056.9 7948.7 28103.4 7948.7 28159.6 7981.66 28159.6 8051.45 28159.6 8086.34 28146.1 8154.2 28045.3 8154.2 28105.4 8291.86 28237.2 8334.5 28328.3 8334.5 28522.2 8334.5 28623 8183.28 28623 8026.25 28623 7857.58 28502.8 7723.81 28440.8 7654.02L27973.5 7192.61C27954.1 7175.16 27954.1 7171.28 27954.1 7117H28752.9L28811 7469.84"/>
<path transform="matrix(.00359712,0,0,-.00359712,0,64)" d="M31515.5 6953.14C31562.6 6953.14 31612.5 6953.14 31612.5 7008.55 31612.5 7063.95 31562.6 7063.95 31515.5 7063.95H30016.9C29969.8 7063.95 29919.9 7063.95 29919.9 7008.55 29919.9 6953.14 29969.8 6953.14 30016.9 6953.14H31515.5"/>
<path transform="matrix(.00359712,0,0,-.00359712,0,64)" d="M32702.8 6479.44C32694.5 6437.89 32677.8 6374.17 32677.8 6360.33 32677.8 6310.45 32716.6 6285.53 32758.2 6285.53 32791.4 6285.53 32841.3 6307.69 32860.7 6363.09 32863.5 6368.64 32896.7 6498.83 32913.3 6568.09L32974.3 6817.41C32990.9 6878.34 33007.5 6939.3 33021.3 7003 33032.4 7050.09 33054.6 7130.44 33057.4 7141.52 33098.9 7227.39 33245.7 7479.48 33508.9 7479.48 33633.6 7479.48 33658.5 7376.98 33658.5 7285.56 33658.5 7216.31 33639.1 7138.75 33616.9 7055.64L33539.4 6734.3 33484 6523.77C33472.9 6468.36 33448 6374.17 33448 6360.33 33448 6310.45 33486.7 6285.53 33528.3 6285.53 33614.2 6285.53 33630.8 6354.78 33653 6443.42 33691.7 6598.56 33794.2 7003 33819.2 7111.05 33827.5 7147.06 33974.3 7479.48 34276.3 7479.48 34395.4 7479.48 34425.8 7385.3 34425.8 7285.56 34425.8 7127.67 34309.5 6811.86 34254.1 6665.05 34229.2 6598.56 34218.1 6568.09 34218.1 6512.69 34218.1 6382.48 34315 6285.53 34445.2 6285.53 34705.6 6285.53 34808.1 6689.97 34808.1 6712.14 34808.1 6739.84 34783.2 6739.84 34774.9 6739.84 34747.2 6739.84 34747.2 6731.53 34733.3 6689.97 34691.8 6543.16 34603.1 6346.47 34450.8 6346.47 34403.7 6346.47 34384.3 6374.17 34384.3 6437.89 34384.3 6507.14 34409.2 6573.63 34434.1 6634.58 34486.8 6778.63 34603.1 7086.11 34603.1 7244.02 34603.1 7424.08 34492.3 7540.42 34284.5 7540.42 34076.8 7540.42 33935.5 7418.53 33833 7271.72 33830.3 7307.73 33821.9 7401.91 33744.4 7468.39 33675.1 7526.58 33586.5 7540.42 33517.2 7540.42 33267.9 7540.42 33132.2 7363.13 33085.1 7299.42 33071.2 7457.31 32954.9 7540.42 32830.2 7540.42 32702.8 7540.42 32650.1 7432.39 32625.2 7382.52 32575.3 7285.56 32539.3 7122.13 32539.3 7113.81 32539.3 7086.11 32567 7086.11 32572.6 7086.11 32600.3 7086.11 32603 7088.88 32619.7 7149.83 32666.8 7346.52 32722.2 7479.48 32821.9 7479.48 32866.2 7479.48 32907.8 7457.31 32907.8 7352.05 32907.8 7293.88 32899.5 7263.41 32863.5 7119.36L32702.8 6479.44"/>
<path transform="matrix(.00359712,0,0,-.00359712,0,64)" d="M35870 7469.84H35804.1C35798.3 7427.19 35778.9 7312.81 35753.7 7293.42 35738.2 7281.8 35588.9 7281.8 35561.8 7281.8H35205.1C35408.6 7462.09 35476.5 7516.38 35592.8 7607.48 35736.3 7721.88 35870 7842.08 35870 8026.25 35870 8260.83 35664.5 8404.3 35416.4 8404.3 35176 8404.3 35013.1 8235.63 35013.1 8057.27 35013.1 7958.39 35096.5 7948.7 35115.9 7948.7 35162.4 7948.7 35218.6 7981.66 35218.6 8051.45 35218.6 8086.34 35205.1 8154.2 35104.3 8154.2 35164.4 8291.86 35296.2 8334.5 35387.3 8334.5 35581.2 8334.5 35682 8183.28 35682 8026.25 35682 7857.58 35561.8 7723.81 35499.8 7654.02L35032.5 7192.61C35013.1 7175.16 35013.1 7171.28 35013.1 7117H35811.9L35870 7469.84"/>
<path transform="matrix(.00359712,0,0,-.00359712,0,64)" d="M41532.7 11821.4C41532.7 11876.8 41494 11921.1 41430.2 11921.1 41355.4 11921.1 41280.6 11849.1 41280.6 11774.3 41280.6 11721.6 41319.4 11674.5 41385.9 11674.5 41449.6 11674.5 41532.7 11738.3 41532.7 11821.4ZM41322.2 10779.8C41355.4 10860.1 41355.4 10865.7 41383.1 10940.5 41405.3 10995.8 41419.2 11034.6 41419.2 11087.3 41419.2 11211.9 41330.5 11314.4 41192 11314.4 40931.6 11314.4 40826.3 10912.8 40826.3 10887.8 40826.3 10860.1 40854 10860.1 40859.6 10860.1 40887.3 10860.1 40890 10865.7 40903.9 10910 40978.7 11170.4 41089.5 11253.5 41183.7 11253.5 41205.8 11253.5 41252.9 11253.5 41252.9 11164.8 41252.9 11106.7 41233.5 11048.5 41222.5 11020.8 41200.3 10948.8 41075.7 10627.4 41031.3 10508.3 41003.6 10436.3 40967.6 10344.9 40967.6 10286.7 40967.6 10156.5 41061.8 10059.5 41194.8 10059.5 41455.2 10059.5 41557.7 10461.2 41557.7 10486.1 41557.7 10513.8 41532.7 10513.8 41524.4 10513.8 41496.7 10513.8 41496.7 10505.5 41482.9 10464 41433 10289.5 41341.6 10120.5 41200.3 10120.5 41153.2 10120.5 41133.8 10148.2 41133.8 10211.9 41133.8 10281.1 41150.5 10319.9 41214.2 10488.9L41322.2 10779.8"/>
<path transform="matrix(.00359712,0,0,-.00359712,0,64)" d="M43692.5 11915.5C43695.3 11926.6 43700.8 11940.5 43700.8 11957.1 43700.8 11982 43687 11982 43631.6 11982H42462.6C42396.1 11982 42393.3 11979.3 42376.7 11926.6L42224.3 11428C42218.8 11414.2 42216 11394.8 42216 11389.2 42216 11386.5 42216 11358.8 42249.3 11358.8 42274.2 11358.8 42279.7 11378.1 42285.3 11386.5 42390.5 11713.3 42534.6 11896.2 42966.8 11896.2H43418.3L41869.8 10164.8C41869.8 10162 41858.7 10123.3 41858.7 10114.9 41858.7 10090 41878.1 10090 41927.9 10090H43133C43199.4 10090 43202.2 10092.8 43218.8 10145.4L43415.5 10757.6C43418.3 10768.7 43426.6 10788.1 43426.6 10799.2 43426.6 10813 43415.5 10829.6 43390.6 10829.6 43365.7 10829.6 43362.9 10818.6 43343.5 10760.4 43221.6 10383.6 43088.6 10184.2 42617.7 10184.2H42144L43692.5 11915.5"/>
<path transform="matrix(.00359712,0,0,-.00359712,0,64)" stroke-width="110.783" stroke-linecap="butt" stroke-miterlimit="10" stroke-linejoin="miter" fill="none" stroke="#000000" d="M36798.3 8908.51H47735.9"/>
<path transform="matrix(.00359712,0,0,-.00359712,0,64)" d="M36922.7 5978.03C36900.5 5883.84 36895 5864.45 36773.1 5864.45 36739.8 5864.45 36709.4 5864.45 36709.4 5811.83 36709.4 5789.67 36723.2 5778.58 36745.4 5778.58 36820.2 5778.58 36900.5 5786.89 36978.1 5786.89 37069.5 5786.89 37163.7 5778.58 37252.3 5778.58 37266.2 5778.58 37302.2 5778.58 37302.2 5833.98 37302.2 5864.45 37274.5 5864.45 37235.7 5864.45 37097.2 5864.45 37097.2 5883.84 37097.2 5908.78 37097.2 5942.03 37213.5 6393.56 37232.9 6462.81 37268.9 6382.48 37346.5 6285.53 37487.8 6285.53 37809.1 6285.53 38155.4 6689.97 38155.4 7097.19 38155.4 7357.59 37997.5 7540.42 37787 7540.42 37648.5 7540.42 37515.5 7440.7 37424.1 7332.66 37396.4 7482.25 37277.3 7540.42 37174.8 7540.42 37047.3 7540.42 36994.7 7432.39 36969.8 7382.52 36919.9 7288.33 36883.9 7122.13 36883.9 7113.81 36883.9 7086.11 36911.6 7086.11 36917.1 7086.11 36944.8 7086.11 36947.6 7088.88 36964.2 7149.83 37011.3 7346.52 37066.7 7479.48 37166.4 7479.48 37213.5 7479.48 37252.3 7457.31 37252.3 7352.05 37252.3 7288.33 37244 7257.86 37232.9 7210.77L36922.7 5978.03ZM37410.2 7180.3C37429.6 7255.09 37504.4 7332.66 37554.3 7374.22 37651.2 7460.09 37731.5 7479.48 37778.6 7479.48 37889.5 7479.48 37955.9 7382.52 37955.9 7219.08 37955.9 7055.64 37864.5 6737.06 37814.7 6631.8 37720.5 6437.89 37587.5 6346.47 37485 6346.47 37302.2 6346.47 37266.2 6576.39 37266.2 6593.02 37266.2 6598.56 37266.2 6604.09 37274.5 6637.34L37410.2 7180.3"/>
<path transform="matrix(.00359712,0,0,-.00359712,0,64)" d="M39171 6253.84H39105.1C39099.3 6211.19 39079.9 6096.81 39054.7 6077.42 39039.2 6065.8 38889.9 6065.8 38862.8 6065.8H38506.1C38709.6 6246.09 38777.5 6300.38 38893.8 6391.48 39037.3 6505.88 39171 6626.08 39171 6810.25 39171 7044.83 38965.5 7188.3 38717.4 7188.3 38477 7188.3 38314.1 7019.63 38314.1 6841.27 38314.1 6742.39 38397.5 6732.7 38416.9 6732.7 38463.4 6732.7 38519.6 6765.66 38519.6 6835.45 38519.6 6870.34 38506.1 6938.2 38405.3 6938.2 38465.4 7075.86 38597.2 7118.5 38688.3 7118.5 38882.2 7118.5 38983 6967.28 38983 6810.25 38983 6641.58 38862.8 6507.81 38800.8 6438.02L38333.5 5976.61C38314.1 5959.16 38314.1 5955.28 38314.1 5901H39112.9L39171 6253.84"/>
<path transform="matrix(.00359712,0,0,-.00359712,0,64)" d="M40413 7469.84H40347.1C40341.3 7427.19 40321.9 7312.81 40296.7 7293.42 40281.2 7281.8 40131.9 7281.8 40104.8 7281.8H39748.1C39951.6 7462.09 40019.5 7516.38 40135.8 7607.48 40279.3 7721.88 40413 7842.08 40413 8026.25 40413 8260.83 40207.5 8404.3 39959.4 8404.3 39719 8404.3 39556.1 8235.63 39556.1 8057.27 39556.1 7958.39 39639.5 7948.7 39658.9 7948.7 39705.4 7948.7 39761.6 7981.66 39761.6 8051.45 39761.6 8086.34 39748.1 8154.2 39647.3 8154.2 39707.4 8291.86 39839.2 8334.5 39930.3 8334.5 40124.2 8334.5 40225 8183.28 40225 8026.25 40225 7857.58 40104.8 7723.81 40042.8 7654.02L39575.5 7192.61C39556.1 7175.16 39556.1 7171.28 39556.1 7117H40354.9L40413 7469.84"/>
<path transform="matrix(.00359712,0,0,-.00359712,0,64)" d="M43117.5 6953.14C43164.6 6953.14 43214.5 6953.14 43214.5 7008.55 43214.5 7063.95 43164.6 7063.95 43117.5 7063.95H41618.9C41571.8 7063.95 41521.9 7063.95 41521.9 7008.55 41521.9 6953.14 41571.8 6953.14 41618.9 6953.14H43117.5"/>
<path transform="matrix(.00359712,0,0,-.00359712,0,64)" d="M44305.8 6479.44C44297.5 6437.89 44280.8 6374.17 44280.8 6360.33 44280.8 6310.45 44319.6 6285.53 44361.2 6285.53 44394.4 6285.53 44444.3 6307.69 44463.7 6363.09 44466.5 6368.64 44499.7 6498.83 44516.3 6568.09L44577.3 6817.41C44593.9 6878.34 44610.5 6939.3 44624.3 7003 44635.4 7050.09 44657.6 7130.44 44660.4 7141.52 44701.9 7227.39 44848.7 7479.48 45111.9 7479.48 45236.6 7479.48 45261.5 7376.98 45261.5 7285.56 45261.5 7216.31 45242.1 7138.75 45219.9 7055.64L45142.4 6734.3 45087 6523.77C45075.9 6468.36 45051 6374.17 45051 6360.33 45051 6310.45 45089.7 6285.53 45131.3 6285.53 45217.2 6285.53 45233.8 6354.78 45256 6443.42 45294.7 6598.56 45397.2 7003 45422.2 7111.05 45430.5 7147.06 45577.3 7479.48 45879.3 7479.48 45998.4 7479.48 46028.8 7385.3 46028.8 7285.56 46028.8 7127.67 45912.5 6811.86 45857.1 6665.05 45832.2 6598.56 45821.1 6568.09 45821.1 6512.69 45821.1 6382.48 45918 6285.53 46048.2 6285.53 46308.6 6285.53 46411.1 6689.97 46411.1 6712.14 46411.1 6739.84 46386.2 6739.84 46377.9 6739.84 46350.2 6739.84 46350.2 6731.53 46336.3 6689.97 46294.8 6543.16 46206.1 6346.47 46053.8 6346.47 46006.7 6346.47 45987.3 6374.17 45987.3 6437.89 45987.3 6507.14 46012.2 6573.63 46037.1 6634.58 46089.8 6778.63 46206.1 7086.11 46206.1 7244.02 46206.1 7424.08 46095.3 7540.42 45887.5 7540.42 45679.8 7540.42 45538.5 7418.53 45436 7271.72 45433.3 7307.73 45424.9 7401.91 45347.4 7468.39 45278.1 7526.58 45189.5 7540.42 45120.2 7540.42 44870.9 7540.42 44735.2 7363.13 44688.1 7299.42 44674.2 7457.31 44557.9 7540.42 44433.2 7540.42 44305.8 7540.42 44253.1 7432.39 44228.2 7382.52 44178.3 7285.56 44142.3 7122.13 44142.3 7113.81 44142.3 7086.11 44170 7086.11 44175.6 7086.11 44203.3 7086.11 44206 7088.88 44222.7 7149.83 44269.8 7346.52 44325.2 7479.48 44424.9 7479.48 44469.2 7479.48 44510.8 7457.31 44510.8 7352.05 44510.8 7293.88 44502.5 7263.41 44466.5 7119.36L44305.8 6479.44"/>
<path transform="matrix(.00359712,0,0,-.00359712,0,64)" d="M47473 7469.84H47407.1C47401.3 7427.19 47381.9 7312.81 47356.7 7293.42 47341.2 7281.8 47191.9 7281.8 47164.8 7281.8H46808.1C47011.6 7462.09 47079.5 7516.38 47195.8 7607.48 47339.3 7721.88 47473 7842.08 47473 8026.25 47473 8260.83 47267.5 8404.3 47019.4 8404.3 46779 8404.3 46616.1 8235.63 46616.1 8057.27 46616.1 7958.39 46699.5 7948.7 46718.9 7948.7 46765.4 7948.7 46821.6 7981.66 46821.6 8051.45 46821.6 8086.34 46808.1 8154.2 46707.3 8154.2 46767.4 8291.86 46899.2 8334.5 46990.3 8334.5 47184.2 8334.5 47285 8183.28 47285 8026.25 47285 7857.58 47164.8 7723.81 47102.8 7654.02L46635.5 7192.61C46616.1 7175.16 46616.1 7171.28 46616.1 7117H47414.9L47473 7469.84"/>
<path transform="matrix(.00359712,0,0,-.00359712,0,64)" d="M53158.7 11821.4C53158.7 11876.8 53120 11921.1 53056.2 11921.1 52981.4 11921.1 52906.6 11849.1 52906.6 11774.3 52906.6 11721.6 52945.4 11674.5 53011.9 11674.5 53075.6 11674.5 53158.7 11738.3 53158.7 11821.4ZM52948.2 10779.8C52981.4 10860.1 52981.4 10865.7 53009.1 10940.5 53031.3 10995.8 53045.2 11034.6 53045.2 11087.3 53045.2 11211.9 52956.5 11314.4 52818 11314.4 52557.6 11314.4 52452.3 10912.8 52452.3 10887.8 52452.3 10860.1 52480 10860.1 52485.6 10860.1 52513.3 10860.1 52516 10865.7 52529.9 10910 52604.7 11170.4 52715.5 11253.5 52809.7 11253.5 52831.8 11253.5 52878.9 11253.5 52878.9 11164.8 52878.9 11106.7 52859.5 11048.5 52848.5 11020.8 52826.3 10948.8 52701.7 10627.4 52657.3 10508.3 52629.6 10436.3 52593.6 10344.9 52593.6 10286.7 52593.6 10156.5 52687.8 10059.5 52820.8 10059.5 53081.2 10059.5 53183.7 10461.2 53183.7 10486.1 53183.7 10513.8 53158.7 10513.8 53150.4 10513.8 53122.7 10513.8 53122.7 10505.5 53108.9 10464 53059 10289.5 52967.6 10120.5 52826.3 10120.5 52779.2 10120.5 52759.8 10148.2 52759.8 10211.9 52759.8 10281.1 52776.5 10319.9 52840.2 10488.9L52948.2 10779.8"/>
<path transform="matrix(.00359712,0,0,-.00359712,0,64)" d="M55319.5 11915.5C55322.3 11926.6 55327.8 11940.5 55327.8 11957.1 55327.8 11982 55314 11982 55258.6 11982H54089.6C54023.1 11982 54020.3 11979.3 54003.7 11926.6L53851.3 11428C53845.8 11414.2 53843 11394.8 53843 11389.2 53843 11386.5 53843 11358.8 53876.3 11358.8 53901.2 11358.8 53906.7 11378.1 53912.3 11386.5 54017.5 11713.3 54161.6 11896.2 54593.8 11896.2H55045.3L53496.8 10164.8C53496.8 10162 53485.7 10123.3 53485.7 10114.9 53485.7 10090 53505.1 10090 53554.9 10090H54760C54826.4 10090 54829.2 10092.8 54845.8 10145.4L55042.5 10757.6C55045.3 10768.7 55053.6 10788.1 55053.6 10799.2 55053.6 10813 55042.5 10829.6 55017.6 10829.6 54992.7 10829.6 54989.9 10818.6 54970.5 10760.4 54848.6 10383.6 54715.6 10184.2 54244.7 10184.2H53771L55319.5 11915.5"/>
<path transform="matrix(.00359712,0,0,-.00359712,0,64)" stroke-width="110.783" stroke-linecap="butt" stroke-miterlimit="10" stroke-linejoin="miter" fill="none" stroke="#000000" d="M48400.6 8908.51H59386.9"/>
<path transform="matrix(.00359712,0,0,-.00359712,0,64)" d="M49196 8208.03C49196 8210.81 49196 8238.52 49160 8238.52 49096.3 8238.52 48894.1 8216.34 48822.1 8210.81 48799.9 8208.03 48769.4 8205.27 48769.4 8155.41 48769.4 8122.16 48794.4 8122.16 48835.9 8122.16 48968.9 8122.16 48974.4 8102.77 48974.4 8075.06L48966.1 8019.67 48564.4 6424.03C48553.4 6385.25 48553.4 6379.72 48553.4 6363.09 48553.4 6299.38 48608.8 6285.53 48633.7 6285.53 48669.7 6285.53 48711.3 6310.45 48727.9 6343.7 48741.7 6368.64 48866.4 6881.13 48883 6950.38 48977.2 6942.06 49204.4 6897.73 49204.4 6714.91 49204.4 6695.52 49204.4 6684.44 49196 6656.73 49190.5 6623.48 49185 6590.25 49185 6559.78 49185 6396.33 49295.8 6285.53 49439.8 6285.53 49522.9 6285.53 49597.7 6329.84 49658.7 6432.34 49727.9 6554.23 49758.4 6706.59 49758.4 6712.14 49758.4 6739.84 49733.5 6739.84 49725.2 6739.84 49697.5 6739.84 49694.7 6728.77 49686.4 6689.97 49631 6487.75 49567.3 6346.47 49445.4 6346.47 49392.7 6346.47 49356.7 6376.94 49356.7 6476.67 49356.7 6523.77 49367.8 6587.48 49378.9 6631.8 49390 6678.89 49390 6689.97 49390 6717.67 49390 6897.73 49215.4 6978.08 48980 7008.55 49065.8 7058.41 49154.5 7147.06 49218.2 7213.55 49351.2 7360.36 49478.6 7479.48 49614.3 7479.48 49631 7479.48 49633.7 7479.48 49639.3 7476.7 49672.5 7471.17 49675.3 7471.17 49697.5 7454.55 49703 7451.78 49703 7449 49708.5 7443.47 49575.6 7435.16 49550.6 7327.13 49550.6 7293.88 49550.6 7249.55 49581.1 7196.92 49655.9 7196.92 49727.9 7196.92 49808.3 7257.86 49808.3 7365.91 49808.3 7449 49744.5 7540.42 49619.9 7540.42 49542.3 7540.42 49414.9 7518.27 49215.4 7296.64 49121.3 7191.38 49013.2 7080.58 48907.9 7039.02L49196 8208.03"/>
<path transform="matrix(.00359712,0,0,-.00359712,0,64)" d="M50492.5 7134.02C50492.5 7186.36 50488.6 7188.3 50434.3 7188.3 50310.2 7066.16 50133.8 7064.22 50054.3 7064.22V6994.42C50100.8 6994.42 50228.8 6994.42 50335.4 7048.7V6059.97C50335.4 5996 50335.4 5970.8 50141.6 5970.8H50067.9V5901C50102.8 5902.94 50341.3 5908.75 50413 5908.75 50473.1 5908.75 50717.4 5902.94 50760 5901V5970.8H50686.3C50492.5 5970.8 50492.5 5996 50492.5 6059.97V7134.02"/>
<path transform="matrix(.00359712,0,0,-.00359712,0,64)" d="M52064 7469.84H51998.1C51992.3 7427.19 51972.9 7312.81 51947.7 7293.42 51932.2 7281.8 51782.9 7281.8 51755.8 7281.8H51399.1C51602.6 7462.09 51670.5 7516.38 51786.8 7607.48 51930.3 7721.88 52064 7842.08 52064 8026.25 52064 8260.83 51858.5 8404.3 51610.4 8404.3 51370 8404.3 51207.1 8235.63 51207.1 8057.27 51207.1 7958.39 51290.5 7948.7 51309.9 7948.7 51356.4 7948.7 51412.6 7981.66 51412.6 8051.45 51412.6 8086.34 51399.1 8154.2 51298.3 8154.2 51358.4 8291.86 51490.2 8334.5 51581.3 8334.5 51775.2 8334.5 51876 8183.28 51876 8026.25 51876 7857.58 51755.8 7723.81 51693.8 7654.02L51226.5 7192.61C51207.1 7175.16 51207.1 7171.28 51207.1 7117H52005.9L52064 7469.84"/>
<path transform="matrix(.00359712,0,0,-.00359712,0,64)" d="M54768.5 6953.14C54815.6 6953.14 54865.5 6953.14 54865.5 7008.55 54865.5 7063.95 54815.6 7063.95 54768.5 7063.95H53269.9C53222.8 7063.95 53172.9 7063.95 53172.9 7008.55 53172.9 6953.14 53222.8 6953.14 53269.9 6953.14H54768.5"/>
<path transform="matrix(.00359712,0,0,-.00359712,0,64)" d="M55956.8 6479.44C55948.5 6437.89 55931.8 6374.17 55931.8 6360.33 55931.8 6310.45 55970.6 6285.53 56012.2 6285.53 56045.4 6285.53 56095.3 6307.69 56114.7 6363.09 56117.5 6368.64 56150.7 6498.83 56167.3 6568.09L56228.3 6817.41C56244.9 6878.34 56261.5 6939.3 56275.3 7003 56286.4 7050.09 56308.6 7130.44 56311.4 7141.52 56352.9 7227.39 56499.7 7479.48 56762.9 7479.48 56887.6 7479.48 56912.5 7376.98 56912.5 7285.56 56912.5 7216.31 56893.1 7138.75 56870.9 7055.64L56793.4 6734.3 56738 6523.77C56726.9 6468.36 56702 6374.17 56702 6360.33 56702 6310.45 56740.7 6285.53 56782.3 6285.53 56868.2 6285.53 56884.8 6354.78 56907 6443.42 56945.7 6598.56 57048.2 7003 57073.2 7111.05 57081.5 7147.06 57228.3 7479.48 57530.3 7479.48 57649.4 7479.48 57679.8 7385.3 57679.8 7285.56 57679.8 7127.67 57563.5 6811.86 57508.1 6665.05 57483.2 6598.56 57472.1 6568.09 57472.1 6512.69 57472.1 6382.48 57569 6285.53 57699.2 6285.53 57959.6 6285.53 58062.1 6689.97 58062.1 6712.14 58062.1 6739.84 58037.2 6739.84 58028.9 6739.84 58001.2 6739.84 58001.2 6731.53 57987.3 6689.97 57945.8 6543.16 57857.1 6346.47 57704.8 6346.47 57657.7 6346.47 57638.3 6374.17 57638.3 6437.89 57638.3 6507.14 57663.2 6573.63 57688.1 6634.58 57740.8 6778.63 57857.1 7086.11 57857.1 7244.02 57857.1 7424.08 57746.3 7540.42 57538.5 7540.42 57330.8 7540.42 57189.5 7418.53 57087 7271.72 57084.3 7307.73 57075.9 7401.91 56998.4 7468.39 56929.1 7526.58 56840.5 7540.42 56771.2 7540.42 56521.9 7540.42 56386.2 7363.13 56339.1 7299.42 56325.2 7457.31 56208.9 7540.42 56084.2 7540.42 55956.8 7540.42 55904.1 7432.39 55879.2 7382.52 55829.3 7285.56 55793.3 7122.13 55793.3 7113.81 55793.3 7086.11 55821 7086.11 55826.6 7086.11 55854.3 7086.11 55857 7088.88 55873.7 7149.83 55920.8 7346.52 55976.2 7479.48 56075.9 7479.48 56120.2 7479.48 56161.8 7457.31 56161.8 7352.05 56161.8 7293.88 56153.5 7263.41 56117.5 7119.36L55956.8 6479.44"/>
<path transform="matrix(.00359712,0,0,-.00359712,0,64)" d="M59124 7469.84H59058.1C59052.3 7427.19 59032.9 7312.81 59007.7 7293.42 58992.2 7281.8 58842.9 7281.8 58815.8 7281.8H58459.1C58662.6 7462.09 58730.5 7516.38 58846.8 7607.48 58990.3 7721.88 59124 7842.08 59124 8026.25 59124 8260.83 58918.5 8404.3 58670.4 8404.3 58430 8404.3 58267.1 8235.63 58267.1 8057.27 58267.1 7958.39 58350.5 7948.7 58369.9 7948.7 58416.4 7948.7 58472.6 7981.66 58472.6 8051.45 58472.6 8086.34 58459.1 8154.2 58358.3 8154.2 58418.4 8291.86 58550.2 8334.5 58641.3 8334.5 58835.2 8334.5 58936 8183.28 58936 8026.25 58936 7857.58 58815.8 7723.81 58753.8 7654.02L58286.5 7192.61C58267.1 7175.16 58267.1 7171.28 58267.1 7117H59065.9L59124 7469.84"/>
<path transform="matrix(.00359712,0,0,-.00359712,0,64)" d="M64809.7 11821.4C64809.7 11876.8 64771 11921.1 64707.2 11921.1 64632.4 11921.1 64557.6 11849.1 64557.6 11774.3 64557.6 11721.6 64596.4 11674.5 64662.9 11674.5 64726.6 11674.5 64809.7 11738.3 64809.7 11821.4ZM64599.2 10779.8C64632.4 10860.1 64632.4 10865.7 64660.1 10940.5 64682.3 10995.8 64696.2 11034.6 64696.2 11087.3 64696.2 11211.9 64607.5 11314.4 64469 11314.4 64208.6 11314.4 64103.3 10912.8 64103.3 10887.8 64103.3 10860.1 64131 10860.1 64136.6 10860.1 64164.3 10860.1 64167 10865.7 64180.9 10910 64255.7 11170.4 64366.5 11253.5 64460.7 11253.5 64482.8 11253.5 64529.9 11253.5 64529.9 11164.8 64529.9 11106.7 64510.5 11048.5 64499.5 11020.8 64477.3 10948.8 64352.7 10627.4 64308.3 10508.3 64280.6 10436.3 64244.6 10344.9 64244.6 10286.7 64244.6 10156.5 64338.8 10059.5 64471.8 10059.5 64732.2 10059.5 64834.7 10461.2 64834.7 10486.1 64834.7 10513.8 64809.7 10513.8 64801.4 10513.8 64773.7 10513.8 64773.7 10505.5 64759.9 10464 64710 10289.5 64618.6 10120.5 64477.3 10120.5 64430.2 10120.5 64410.8 10148.2 64410.8 10211.9 64410.8 10281.1 64427.5 10319.9 64491.2 10488.9L64599.2 10779.8"/>
<path transform="matrix(.00359712,0,0,-.00359712,0,64)" d="M66970.5 11915.5C66973.3 11926.6 66978.8 11940.5 66978.8 11957.1 66978.8 11982 66965 11982 66909.6 11982H65740.6C65674.1 11982 65671.3 11979.3 65654.7 11926.6L65502.3 11428C65496.8 11414.2 65494 11394.8 65494 11389.2 65494 11386.5 65494 11358.8 65527.3 11358.8 65552.2 11358.8 65557.7 11378.1 65563.3 11386.5 65668.5 11713.3 65812.6 11896.2 66244.8 11896.2H66696.3L65147.8 10164.8C65147.8 10162 65136.7 10123.3 65136.7 10114.9 65136.7 10090 65156.1 10090 65205.9 10090H66411C66477.4 10090 66480.2 10092.8 66496.8 10145.4L66693.5 10757.6C66696.3 10768.7 66704.6 10788.1 66704.6 10799.2 66704.6 10813 66693.5 10829.6 66668.6 10829.6 66643.7 10829.6 66640.9 10818.6 66621.5 10760.4 66499.6 10383.6 66366.6 10184.2 65895.7 10184.2H65422L66970.5 11915.5"/>
<path transform="matrix(.00359712,0,0,-.00359712,0,64)" stroke-width="110.783" stroke-linecap="butt" stroke-miterlimit="10" stroke-linejoin="miter" fill="none" stroke="#000000" d="M60051.6 8908.51H71037.6"/>
<path transform="matrix(.00359712,0,0,-.00359712,0,64)" d="M60847 8208.03C60847 8210.81 60847 8238.52 60811 8238.52 60747.3 8238.52 60545.1 8216.34 60473.1 8210.81 60450.9 8208.03 60420.4 8205.27 60420.4 8155.41 60420.4 8122.16 60445.4 8122.16 60486.9 8122.16 60619.9 8122.16 60625.4 8102.77 60625.4 8075.06L60617.1 8019.67 60215.4 6424.03C60204.4 6385.25 60204.4 6379.72 60204.4 6363.09 60204.4 6299.38 60259.8 6285.53 60284.7 6285.53 60320.7 6285.53 60362.3 6310.45 60378.9 6343.7 60392.7 6368.64 60517.4 6881.13 60534 6950.38 60628.2 6942.06 60855.4 6897.73 60855.4 6714.91 60855.4 6695.52 60855.4 6684.44 60847 6656.73 60841.5 6623.48 60836 6590.25 60836 6559.78 60836 6396.33 60946.8 6285.53 61090.8 6285.53 61173.9 6285.53 61248.7 6329.84 61309.7 6432.34 61378.9 6554.23 61409.4 6706.59 61409.4 6712.14 61409.4 6739.84 61384.5 6739.84 61376.2 6739.84 61348.5 6739.84 61345.7 6728.77 61337.4 6689.97 61282 6487.75 61218.3 6346.47 61096.4 6346.47 61043.7 6346.47 61007.7 6376.94 61007.7 6476.67 61007.7 6523.77 61018.8 6587.48 61029.9 6631.8 61041 6678.89 61041 6689.97 61041 6717.67 61041 6897.73 60866.4 6978.08 60631 7008.55 60716.8 7058.41 60805.5 7147.06 60869.2 7213.55 61002.2 7360.36 61129.6 7479.48 61265.3 7479.48 61282 7479.48 61284.7 7479.48 61290.3 7476.7 61323.5 7471.17 61326.3 7471.17 61348.5 7454.55 61354 7451.78 61354 7449 61359.5 7443.47 61226.6 7435.16 61201.6 7327.13 61201.6 7293.88 61201.6 7249.55 61232.1 7196.92 61306.9 7196.92 61378.9 7196.92 61459.3 7257.86 61459.3 7365.91 61459.3 7449 61395.5 7540.42 61270.9 7540.42 61193.3 7540.42 61065.9 7518.27 60866.4 7296.64 60772.3 7191.38 60664.2 7080.58 60558.9 7039.02L60847 8208.03"/>
<path transform="matrix(.00359712,0,0,-.00359712,0,64)" d="M62473 6253.84H62407.1C62401.3 6211.19 62381.9 6096.81 62356.7 6077.42 62341.2 6065.8 62191.9 6065.8 62164.8 6065.8H61808.1C62011.6 6246.09 62079.5 6300.38 62195.8 6391.48 62339.3 6505.88 62473 6626.08 62473 6810.25 62473 7044.83 62267.5 7188.3 62019.4 7188.3 61779 7188.3 61616.1 7019.63 61616.1 6841.27 61616.1 6742.39 61699.5 6732.7 61718.9 6732.7 61765.4 6732.7 61821.6 6765.66 61821.6 6835.45 61821.6 6870.34 61808.1 6938.2 61707.3 6938.2 61767.4 7075.86 61899.2 7118.5 61990.3 7118.5 62184.2 7118.5 62285 6967.28 62285 6810.25 62285 6641.58 62164.8 6507.81 62102.8 6438.02L61635.5 5976.61C61616.1 5959.16 61616.1 5955.28 61616.1 5901H62414.9L62473 6253.84"/>
<path transform="matrix(.00359712,0,0,-.00359712,0,64)" d="M63715 7469.84H63649.1C63643.3 7427.19 63623.9 7312.81 63598.7 7293.42 63583.2 7281.8 63433.9 7281.8 63406.8 7281.8H63050.1C63253.6 7462.09 63321.5 7516.38 63437.8 7607.48 63581.3 7721.88 63715 7842.08 63715 8026.25 63715 8260.83 63509.5 8404.3 63261.4 8404.3 63021 8404.3 62858.1 8235.63 62858.1 8057.27 62858.1 7958.39 62941.5 7948.7 62960.9 7948.7 63007.4 7948.7 63063.6 7981.66 63063.6 8051.45 63063.6 8086.34 63050.1 8154.2 62949.3 8154.2 63009.4 8291.86 63141.2 8334.5 63232.3 8334.5 63426.2 8334.5 63527 8183.28 63527 8026.25 63527 7857.58 63406.8 7723.81 63344.8 7654.02L62877.5 7192.61C62858.1 7175.16 62858.1 7171.28 62858.1 7117H63656.9L63715 7469.84"/>
<path transform="matrix(.00359712,0,0,-.00359712,0,64)" d="M66419.5 6953.14C66466.6 6953.14 66516.5 6953.14 66516.5 7008.55 66516.5 7063.95 66466.6 7063.95 66419.5 7063.95H64920.9C64873.8 7063.95 64823.9 7063.95 64823.9 7008.55 64823.9 6953.14 64873.8 6953.14 64920.9 6953.14H66419.5"/>
<path transform="matrix(.00359712,0,0,-.00359712,0,64)" d="M67607.8 6479.44C67599.5 6437.89 67582.8 6374.17 67582.8 6360.33 67582.8 6310.45 67621.6 6285.53 67663.2 6285.53 67696.4 6285.53 67746.3 6307.69 67765.7 6363.09 67768.5 6368.64 67801.7 6498.83 67818.3 6568.09L67879.3 6817.41C67895.9 6878.34 67912.5 6939.3 67926.3 7003 67937.4 7050.09 67959.6 7130.44 67962.4 7141.52 68003.9 7227.39 68150.7 7479.48 68413.9 7479.48 68538.6 7479.48 68563.5 7376.98 68563.5 7285.56 68563.5 7216.31 68544.1 7138.75 68521.9 7055.64L68444.4 6734.3 68389 6523.77C68377.9 6468.36 68353 6374.17 68353 6360.33 68353 6310.45 68391.7 6285.53 68433.3 6285.53 68519.2 6285.53 68535.8 6354.78 68558 6443.42 68596.7 6598.56 68699.2 7003 68724.2 7111.05 68732.5 7147.06 68879.3 7479.48 69181.3 7479.48 69300.4 7479.48 69330.8 7385.3 69330.8 7285.56 69330.8 7127.67 69214.5 6811.86 69159.1 6665.05 69134.2 6598.56 69123.1 6568.09 69123.1 6512.69 69123.1 6382.48 69220 6285.53 69350.2 6285.53 69610.6 6285.53 69713.1 6689.97 69713.1 6712.14 69713.1 6739.84 69688.2 6739.84 69679.9 6739.84 69652.2 6739.84 69652.2 6731.53 69638.3 6689.97 69596.8 6543.16 69508.1 6346.47 69355.8 6346.47 69308.7 6346.47 69289.3 6374.17 69289.3 6437.89 69289.3 6507.14 69314.2 6573.63 69339.1 6634.58 69391.8 6778.63 69508.1 7086.11 69508.1 7244.02 69508.1 7424.08 69397.3 7540.42 69189.5 7540.42 68981.8 7540.42 68840.5 7418.53 68738 7271.72 68735.3 7307.73 68726.9 7401.91 68649.4 7468.39 68580.1 7526.58 68491.5 7540.42 68422.2 7540.42 68172.9 7540.42 68037.2 7363.13 67990.1 7299.42 67976.2 7457.31 67859.9 7540.42 67735.2 7540.42 67607.8 7540.42 67555.1 7432.39 67530.2 7382.52 67480.3 7285.56 67444.3 7122.13 67444.3 7113.81 67444.3 7086.11 67472 7086.11 67477.6 7086.11 67505.3 7086.11 67508 7088.88 67524.7 7149.83 67571.8 7346.52 67627.2 7479.48 67726.9 7479.48 67771.2 7479.48 67812.8 7457.31 67812.8 7352.05 67812.8 7293.88 67804.5 7263.41 67768.5 7119.36L67607.8 6479.44"/>
<path transform="matrix(.00359712,0,0,-.00359712,0,64)" d="M70774 7469.84H70708.1C70702.3 7427.19 70682.9 7312.81 70657.7 7293.42 70642.2 7281.8 70492.9 7281.8 70465.8 7281.8H70109.1C70312.6 7462.09 70380.5 7516.38 70496.8 7607.48 70640.3 7721.88 70774 7842.08 70774 8026.25 70774 8260.83 70568.5 8404.3 70320.4 8404.3 70080 8404.3 69917.1 8235.63 69917.1 8057.27 69917.1 7958.39 70000.5 7948.7 70019.9 7948.7 70066.4 7948.7 70122.6 7981.66 70122.6 8051.45 70122.6 8086.34 70109.1 8154.2 70008.3 8154.2 70068.4 8291.86 70200.2 8334.5 70291.3 8334.5 70485.2 8334.5 70586 8183.28 70586 8026.25 70586 7857.58 70465.8 7723.81 70403.8 7654.02L69936.5 7192.61C69917.1 7175.16 69917.1 7171.28 69917.1 7117H70715.9L70774 7469.84"/>
<path transform="matrix(.00359712,0,0,-.00359712,0,64)" d="M71901.9 8362.81C71901.9 8443.16 71835.4 8509.64 71755.1 8509.64 71674.7 8509.64 71608.2 8443.16 71608.2 8362.81 71608.2 8282.48 71674.7 8216 71755.1 8216 71835.4 8216 71901.9 8282.48 71901.9 8362.81"/>
</svg>
