<svg xmlns="http://www.w3.org/2000/svg" xmlns:xlink="http://www.w3.org/1999/xlink" version="1.1" width="83pt" height="75pt" viewBox="0 0 83 75">
<path transform="matrix(.00359712,0,0,-.00359712,0,75)" d="M10350.9 18616.6C10240.1 18431 10132 18392.2 10010.1 18383.9 9976.89 18381.1 9951.95 18381.1 9951.95 18328.5 9951.95 18311.8 9965.81 18298 9987.97 18298 10062.8 18298 10148.6 18306.3 10226.2 18306.3 10317.6 18306.3 10414.6 18298 10503.2 18298 10519.8 18298 10555.9 18298 10555.9 18350.6 10555.9 18381.1 10530.9 18383.9 10511.5 18383.9 10447.8 18389.4 10381.3 18411.6 10381.3 18480.8 10381.3 18514.1 10398 18544.5 10420.1 18583.3L10630.7 18937.9H11326C11331.5 18879.7 11370.3 18503 11370.3 18475.3 11370.3 18392.2 11226.3 18383.9 11170.8 18383.9 11132.1 18383.9 11104.4 18383.9 11104.4 18328.5 11104.4 18298 11137.6 18298 11143.1 18298 11256.7 18298 11375.8 18306.3 11489.4 18306.3 11558.7 18306.3 11733.2 18298 11802.4 18298 11819.1 18298 11852.3 18298 11852.3 18353.4 11852.3 18383.9 11824.6 18383.9 11788.6 18383.9 11616.8 18383.9 11616.8 18403.3 11608.5 18483.6L11439.5 20215C11434 20270.4 11434 20281.5 11386.9 20281.5 11342.6 20281.5 11331.5 20262.1 11314.9 20234.4L10350.9 18616.6ZM10683.3 19023.8 11229 19938 11317.7 19023.8H10683.3Z"/>
<path transform="matrix(.00359712,0,0,-.00359712,0,75)" d="M12443.8 20590.3C12445.8 20594.2 12451.6 20619.4 12451.6 20621.3 12451.6 20631 12443.8 20648.5 12420.5 20648.5 12381.8 20648.5 12220.9 20633 12172.4 20629.1 12156.9 20627.1 12129.8 20625.2 12129.8 20584.5 12129.8 20557.3 12156.9 20557.3 12180.2 20557.3 12273.2 20557.3 12273.2 20543.8 12273.2 20528.3 12273.2 20514.7 12253.8 20437.1 12242.2 20392.5L12197.6 20214.2C12180.2 20148.3 12073.5 19723.7 12069.6 19698.5 12060 19652 12060 19626.8 12060 19603.5 12060 19407.7 12184 19283.6 12344.9 19283.6 12587.3 19283.6 12845.1 19547.3 12845.1 19834.2 12845.1 20061 12688.1 20158 12554.3 20158 12453.5 20158 12368.2 20101.8 12310 20051.3L12443.8 20590.3ZM12346.9 19337.9C12251.9 19337.9 12197.6 19421.3 12197.6 19535.6 12197.6 19607.4 12215 19673.3 12269.3 19892.4 12281 19929.2 12281 19933.1 12317.8 19975.7 12391.5 20061 12478.7 20103.7 12548.5 20103.7 12624.1 20103.7 12690 20047.5 12690 19915.6 12690 19836.1 12647.4 19638.4 12589.2 19526 12542.7 19431 12445.8 19337.9 12346.9 19337.9"/>
<path transform="matrix(.00359712,0,0,-.00359712,0,75)" d="M12036.7 17300.9C12028.9 17271.8 12028.9 17262.1 12028.9 17260.2 12028.9 17217.5 12063.8 17198.1 12094.8 17198.1 12164.6 17198.1 12180.2 17262.1 12187.9 17295 12191.8 17304.8 12230.6 17459.8 12277.1 17649.8 12337.2 17609.1 12414.7 17593.6 12484.5 17593.6 12651.3 17593.6 12759.8 17729.3 12763.7 17733.2 12800.5 17599.4 12934.3 17593.6 12963.4 17593.6 13033.2 17593.6 13081.7 17636.3 13116.5 17696.4 13159.2 17772 13184.4 17882.5 13184.4 17890.2 13184.4 17915.4 13159.2 17915.4 13153.4 17915.4 13126.2 17915.4 13124.3 17907.7 13110.7 17855.3 13087.5 17762.3 13050.6 17647.9 12969.2 17647.9 12918.8 17647.9 12905.2 17690.5 12905.2 17742.9 12905.2 17775.8 12920.7 17845.6 12934.3 17896 12947.9 17948.4 12967.3 18027.9 12977 18070.5L13021.5 18243.1C13033.2 18291.5 13054.5 18376.8 13054.5 18386.5 13054.5 18425.3 13023.5 18448.6 12990.5 18448.6 12969.2 18448.6 12932.4 18438.9 12911 18402 12905.2 18390.4 12889.7 18328.4 12880 18289.6L12839.3 18128.7 12779.2 17886.4C12765.6 17837.9 12765.6 17834 12748.2 17808.8 12688.1 17723.5 12602.8 17647.9 12492.3 17647.9 12333.3 17647.9 12333.3 17785.5 12333.3 17820.4 12333.3 17870.8 12339.1 17896 12366.3 18000.7 12385.7 18086 12389.5 18099.6 12408.9 18175.2L12436.1 18283.8C12445.8 18324.5 12465.1 18398.2 12465.1 18405.9 12465.1 18440.8 12438 18468 12399.2 18468 12329.4 18468 12312 18400.1 12306.2 18376.8L12036.7 17300.9"/>
<path transform="matrix(.00359712,0,0,-.00359712,0,75)" d="M1227 1344.67C1182.67 1344.67 1143.89 1344.67 1105.11 1305.89 1060.78 1264.33 1055.25 1217.25 1055.25 1197.84 1055.25 1131.36 1105.11 1100.89 1157.73 1100.89 1238.08 1100.89 1312.88 1167.38 1312.88 1278.19 1312.88 1413.92 1182.67 1516.42 985.984 1516.42 612.016 1516.42 243.578 1120.28 243.578 729.688 243.578 480.375 404.25 261.531 692.344 261.531 1088.48 261.531 1321.19 555.172 1321.19 588.406 1321.19 605.031 1304.56 624.422 1287.94 624.422 1274.09 624.422 1268.55 618.875 1251.92 596.719 1033.08 322.469 731.125 322.469 697.891 322.469 523.359 322.469 448.578 458.219 448.578 624.422 448.578 738 503.969 1006.7 598.156 1178.45 684.031 1336.36 836.391 1455.48 988.766 1455.48 1082.94 1455.48 1188.22 1419.47 1227 1344.67"/>
<path transform="matrix(.00359712,0,0,-.00359712,0,75)" d="M2147.13 2037.58C2106.42 2101.56 2040.5 2151.97 1947.45 2151.97 1699.3 2151.97 1447.27 1878.61 1447.27 1599.44 1447.27 1411.39 1573.28 1277.61 1740 1277.61 1844.69 1277.61 1937.75 1337.72 2015.3 1413.33 2052.14 1297 2164.58 1277.61 2214.98 1277.61 2284.78 1277.61 2333.25 1320.27 2368.14 1380.36 2410.8 1455.97 2436 1566.48 2436 1574.23 2436 1599.44 2410.8 1599.44 2404.98 1599.44 2377.84 1599.44 2375.89 1591.69 2362.33 1539.34 2339.06 1446.28 2302.23 1331.89 2220.8 1331.89 2170.39 1331.89 2156.83 1374.55 2156.83 1426.89 2156.83 1459.84 2172.33 1529.64 2185.91 1580.05 2199.48 1632.39 2218.86 1711.88 2228.56 1754.53L2267.33 1901.88C2278.97 1952.28 2302.23 2043.41 2302.23 2053.09 2302.23 2095.75 2267.33 2115.13 2236.31 2115.13 2203.36 2115.13 2158.77 2091.88 2147.13 2037.58ZM2023.06 1539.34C2009.48 1485.05 1966.83 1446.28 1924.19 1409.44 1906.73 1393.94 1829.19 1331.89 1745.83 1331.89 1674.09 1331.89 1604.3 1382.3 1604.3 1519.95 1604.3 1622.7 1660.52 1835.95 1705.11 1913.5 1794.28 2068.61 1893.16 2097.69 1947.45 2097.69 2083.16 2097.69 2119.98 1950.34 2119.98 1929.02 2119.98 1921.27 2116.11 1907.69 2114.17 1901.88L2023.06 1539.34"/>
<path transform="matrix(.00359712,0,0,-.00359712,0,75)" d="M21962.2 1840.53V1926.41H20962.1V1840.53H21962.2"/>
<path transform="matrix(.00359712,0,0,-.00359712,0,75)" d="M21807 1344.67C21762.7 1344.67 21723.9 1344.67 21685.1 1305.89 21640.8 1264.33 21635.3 1217.25 21635.3 1197.84 21635.3 1131.36 21685.1 1100.89 21737.7 1100.89 21818.1 1100.89 21892.9 1167.38 21892.9 1278.19 21892.9 1413.92 21762.7 1516.42 21566 1516.42 21192 1516.42 20823.6 1120.28 20823.6 729.688 20823.6 480.375 20984.3 261.531 21272.3 261.531 21668.5 261.531 21901.2 555.172 21901.2 588.406 21901.2 605.031 21884.6 624.422 21867.9 624.422 21854.1 624.422 21848.5 618.875 21831.9 596.719 21613.1 322.469 21311.1 322.469 21277.9 322.469 21103.4 322.469 21028.6 458.219 21028.6 624.422 21028.6 738 21084 1006.7 21178.2 1178.45 21264 1336.36 21416.4 1455.48 21568.8 1455.48 21662.9 1455.48 21768.2 1419.47 21807 1344.67"/>
<path transform="matrix(.00359712,0,0,-.00359712,0,75)" d="M22758.2 2039.52C22688.4 2027.89 22659.3 1973.61 22659.3 1930.95 22659.3 1878.61 22700 1859.22 22734.9 1859.22 22777.5 1859.22 22845.4 1890.25 22845.4 1983.3 22845.4 2115.13 22694.2 2151.97 22589.5 2151.97 22298.7 2151.97 22029.2 1884.42 22029.2 1614.95 22029.2 1448.22 22145.5 1277.61 22387.9 1277.61 22715.5 1277.61 22868.7 1469.55 22868.7 1496.69 22868.7 1508.31 22851.2 1529.64 22835.7 1529.64 22824.1 1529.64 22820.2 1525.77 22804.7 1510.25 22653.5 1331.89 22426.6 1331.89 22391.7 1331.89 22252.2 1331.89 22190.1 1426.89 22190.1 1547.09 22190.1 1603.31 22217.3 1814.64 22318.1 1948.41 22391.7 2043.41 22492.5 2097.69 22589.5 2097.69 22616.6 2097.69 22709.7 2093.81 22758.2 2039.52"/>
<path transform="matrix(.00359712,0,0,-.00359712,0,75)" stroke-width="110.783" stroke-linecap="butt" stroke-miterlimit="10" stroke-linejoin="miter" fill="none" stroke="#000000" d="M19699.1 5197.02 14770.2 8042.8"/>
<path transform="matrix(.00359712,0,0,-.00359712,0,75)" d="M14169.1 8389.8 14841.8 7569.43 14746.2 8056.64 15216 8217.39Z"/>
<path transform="matrix(.00359712,0,0,-.00359712,0,75)" stroke-width="110.782" stroke-linecap="butt" stroke-miterlimit="10" stroke-linejoin="miter" fill="none" stroke="#000000" d="M14169.1 8389.8 14841.8 7569.43 14746.2 8056.64 15216 8217.39Z"/>
<path transform="matrix(.00359712,0,0,-.00359712,0,75)" d="M18584 9648.03C18584 9650.81 18584 9678.52 18548 9678.52 18484.3 9678.52 18282.1 9656.34 18210.1 9650.81 18187.9 9648.03 18157.4 9645.27 18157.4 9595.41 18157.4 9562.16 18182.4 9562.16 18223.9 9562.16 18356.9 9562.16 18362.4 9542.77 18362.4 9515.06L18354.1 9459.67 17952.4 7864.03C17941.4 7825.25 17941.4 7819.72 17941.4 7803.09 17941.4 7739.38 17996.8 7725.53 18021.7 7725.53 18057.7 7725.53 18099.3 7750.45 18115.9 7783.7 18129.7 7808.64 18254.4 8321.13 18271 8390.38 18365.2 8382.06 18592.4 8337.73 18592.4 8154.91 18592.4 8135.52 18592.4 8124.44 18584 8096.73 18578.5 8063.48 18573 8030.25 18573 7999.78 18573 7836.33 18683.8 7725.53 18827.8 7725.53 18910.9 7725.53 18985.7 7769.84 19046.7 7872.34 19115.9 7994.23 19146.4 8146.59 19146.4 8152.14 19146.4 8179.84 19121.5 8179.84 19113.2 8179.84 19085.5 8179.84 19082.7 8168.77 19074.4 8129.97 19019 7927.75 18955.3 7786.47 18833.4 7786.47 18780.7 7786.47 18744.7 7816.94 18744.7 7916.67 18744.7 7963.77 18755.8 8027.48 18766.9 8071.8 18778 8118.89 18778 8129.97 18778 8157.67 18778 8337.73 18603.4 8418.08 18368 8448.55 18453.8 8498.41 18542.5 8587.06 18606.2 8653.55 18739.2 8800.36 18866.6 8919.48 19002.3 8919.48 19019 8919.48 19021.7 8919.48 19027.3 8916.7 19060.5 8911.17 19063.3 8911.17 19085.5 8894.55 19091 8891.78 19091 8889 19096.5 8883.47 18963.6 8875.16 18938.6 8767.13 18938.6 8733.88 18938.6 8689.55 18969.1 8636.92 19043.9 8636.92 19115.9 8636.92 19196.3 8697.86 19196.3 8805.91 19196.3 8889 19132.5 8980.42 19007.9 8980.42 18930.3 8980.42 18802.9 8958.27 18603.4 8736.64 18509.3 8631.38 18401.2 8520.58 18295.9 8479.02L18584 9648.03"/>
<path transform="matrix(.00359712,0,0,-.00359712,0,75)" stroke-width="221.569" stroke-linecap="butt" stroke-dasharray="221.569,553.929" stroke-miterlimit="10" stroke-linejoin="miter" fill="none" stroke="#000000" d="M19731.3 2448.63 11636.2 7122.36"/>
<path transform="matrix(.00359712,0,0,-.00359712,0,75)" stroke-width="110.783" stroke-linecap="butt" stroke-miterlimit="10" stroke-linejoin="miter" fill="none" stroke="#000000" d="M11620 4383.14 6765.04 1580.1"/>
<path transform="matrix(.00359712,0,0,-.00359712,0,75)" d="M6164.02 1233.09 7210.84 1405.51 6741.06 1566.25 6836.73 2053.47Z"/>
<path transform="matrix(.00359712,0,0,-.00359712,0,75)" stroke-width="110.782" stroke-linecap="butt" stroke-miterlimit="10" stroke-linejoin="miter" fill="none" stroke="#000000" d="M6164.02 1233.09 7210.84 1405.51 6741.06 1566.25 6836.73 2053.47Z"/>
<path transform="matrix(.00359712,0,0,-.00359712,0,75)" d="M9871.66 315.031C9849.5 220.844 9843.95 201.453 9722.06 201.453 9688.83 201.453 9658.36 201.453 9658.36 148.828 9658.36 126.672 9672.2 115.578 9694.36 115.578 9769.16 115.578 9849.5 123.891 9927.06 123.891 10018.5 123.891 10112.7 115.578 10201.3 115.578 10215.2 115.578 10251.2 115.578 10251.2 170.984 10251.2 201.453 10223.5 201.453 10184.7 201.453 10046.2 201.453 10046.2 220.844 10046.2 245.781 10046.2 279.031 10162.5 730.563 10181.9 799.813 10217.9 719.484 10295.5 622.531 10436.8 622.531 10758.1 622.531 11104.4 1026.97 11104.4 1434.19 11104.4 1694.59 10946.5 1877.42 10736 1877.42 10597.5 1877.42 10464.5 1777.7 10373.1 1669.66 10345.4 1819.25 10226.3 1877.42 10123.8 1877.42 9996.31 1877.42 9943.69 1769.39 9918.75 1719.52 9868.89 1625.33 9832.88 1459.13 9832.88 1450.81 9832.88 1423.11 9860.58 1423.11 9866.13 1423.11 9893.81 1423.11 9896.59 1425.88 9913.22 1486.83 9960.3 1683.52 10015.7 1816.48 10115.4 1816.48 10162.5 1816.48 10201.3 1794.31 10201.3 1689.05 10201.3 1625.33 10193 1594.86 10181.9 1547.77L9871.66 315.031ZM10359.2 1517.3C10378.6 1592.09 10453.4 1669.66 10503.3 1711.22 10600.2 1797.09 10680.5 1816.48 10727.6 1816.48 10838.5 1816.48 10904.9 1719.52 10904.9 1556.08 10904.9 1392.64 10813.5 1074.06 10763.7 968.797 10669.5 774.891 10536.5 683.469 10434 683.469 10251.2 683.469 10215.2 913.391 10215.2 930.016 10215.2 935.563 10215.2 941.094 10223.5 974.344L10359.2 1517.3"/>
<path transform="matrix(.00359712,0,0,-.00359712,0,75)" stroke-width="221.569" stroke-linecap="butt" stroke-dasharray="221.569,553.929" stroke-miterlimit="10" stroke-linejoin="miter" fill="none" stroke="#000000" d="M11636.2 7122.36 3647 2509.7"/>
<path transform="matrix(.00359712,0,0,-.00359712,0,75)" stroke-width="110.783" stroke-linecap="butt" stroke-miterlimit="10" stroke-linejoin="miter" fill="none" stroke="#000000" d="M14000.4 14887.6V9344.41"/>
<path transform="matrix(.00359712,0,0,-.00359712,0,75)" d="M14000.4 8650.39 14374.5 9643.19 14000.4 9316.71 13626.3 9643.19Z"/>
<path transform="matrix(.00359712,0,0,-.00359712,0,75)" stroke-width="110.783" stroke-linecap="butt" stroke-miterlimit="10" stroke-linejoin="miter" fill="none" stroke="#000000" d="M14000.4 8650.39 14374.5 9643.19 14000.4 9316.71 13626.3 9643.19Z"/>
<path transform="matrix(.00359712,0,0,-.00359712,0,75)" d="M16176.1 12557C16176.1 12568 16167.8 12584.7 16148.4 12584.7 16118 12584.7 16007.1 12473.8 15960 12393.5 15899.1 12543.1 15791.1 12587.4 15702.4 12587.4 15375.5 12587.4 15034.8 12177.4 15034.8 11775.8 15034.8 11504.3 15198.3 11332.5 15400.5 11332.5 15519.6 11332.5 15627.6 11399 15727.4 11498.7 15702.4 11401.8 15611 11027.8 15602.7 11002.9 15580.5 10925.3 15558.4 10914.2 15403.3 10911.5 15367.2 10911.5 15339.5 10911.5 15339.5 10856.1 15339.5 10853.3 15339.5 10825.6 15375.5 10825.6 15464.2 10825.6 15561.1 10833.9 15652.6 10833.9 15746.8 10833.9 15846.5 10825.6 15937.9 10825.6 15951.7 10825.6 15987.8 10825.6 15987.8 10881 15987.8 10911.5 15960 10911.5 15915.7 10911.5 15782.8 10911.5 15782.8 10930.8 15782.8 10955.8 15782.8 10975.2 15788.3 10991.8 15793.8 11016.7L16176.1 12557ZM15408.8 11393.5C15242.6 11393.5 15231.5 11606.8 15231.5 11653.9 15231.5 11786.8 15311.8 12088.8 15358.9 12205.1 15444.8 12410.1 15588.8 12526.5 15702.4 12526.5 15882.5 12526.5 15921.3 12302.1 15921.3 12282.7 15921.3 12266.1 15768.9 11659.4 15760.6 11648.3 15719 11570.8 15563.9 11393.5 15408.8 11393.5"/>
<path transform="matrix(.00359712,0,0,-.00359712,0,75)" stroke-width="110.783" stroke-linecap="butt" stroke-miterlimit="10" stroke-linejoin="miter" fill="none" stroke="#000000" d="M11636.2 16257.9V16105.8L11809.3 15953.6 11936.1 15801.5 11982.5 15649.3 11936.1 15497.2 11809.3 15345.1 11636.2 15192.9 11463.1 15040.8 11336.4 14888.6 11290 14736.5 11336.4 14584.4 11463.1 14432.2 11636.2 14280.1 11809.3 14127.9 11936.1 13975.8 11982.5 13823.6 11936.1 13671.5 11809.3 13519.4 11636.2 13367.2 11463.1 13215.1 11336.4 13062.9 11290 12910.8 11336.4 12758.7 11463.1 12606.5 11636.2 12454.4 11809.3 12302.2 11936.1 12150.1 11982.5 11997.9 11936.1 11845.8 11809.3 11693.7 11636.2 11541.5 11463.1 11389.4 11336.4 11237.2 11290 11085.1 11336.4 10933 11463.1 10780.8 11636.2 10628.7 11809.3 10476.5 11936.1 10324.4 11982.5 10172.3 11936.1 10020.1 11809.3 9867.97 11636.2 9715.83 11463.1 9563.69 11336.4 9411.55 11290 9259.41 11336.4 9107.27 11463.1 8955.13 11636.2 8802.98 11809.3 8650.84 11936.1 8498.7 11982.5 8346.55 11936.1 8194.41 11809.3 8042.27 11636.2 7890.13 11463.1 7737.99 11336.4 7585.85 11290 7433.71 11636.2 7122.36"/>
<path transform="matrix(.00359712,0,0,-.00359712,0,75)" d="M13712 5356.67C13667.7 5356.67 13628.9 5356.67 13590.1 5317.89 13545.8 5276.33 13540.3 5229.25 13540.3 5209.84 13540.3 5143.36 13590.1 5112.89 13642.7 5112.89 13723.1 5112.89 13797.9 5179.38 13797.9 5290.19 13797.9 5425.92 13667.7 5528.42 13471 5528.42 13097 5528.42 12728.6 5132.28 12728.6 4741.69 12728.6 4492.38 12889.3 4273.53 13177.3 4273.53 13573.5 4273.53 13806.2 4567.17 13806.2 4600.41 13806.2 4617.03 13789.6 4636.42 13772.9 4636.42 13759.1 4636.42 13753.5 4630.88 13736.9 4608.72 13518.1 4334.47 13216.1 4334.47 13182.9 4334.47 13008.4 4334.47 12933.6 4470.22 12933.6 4636.42 12933.6 4750 12989 5018.7 13083.2 5190.45 13169 5348.36 13321.4 5467.48 13473.8 5467.48 13567.9 5467.48 13673.2 5431.47 13712 5356.67"/>
<path transform="matrix(.00359712,0,0,-.00359712,0,75)" d="M14663.2 6051.52C14593.4 6039.89 14564.3 5985.61 14564.3 5942.95 14564.3 5890.61 14605 5871.22 14639.9 5871.22 14682.5 5871.22 14750.4 5902.25 14750.4 5995.3 14750.4 6127.13 14599.2 6163.97 14494.5 6163.97 14203.7 6163.97 13934.2 5896.42 13934.2 5626.95 13934.2 5460.22 14050.5 5289.61 14292.9 5289.61 14620.5 5289.61 14773.7 5481.55 14773.7 5508.69 14773.7 5520.31 14756.2 5541.64 14740.7 5541.64 14729.1 5541.64 14725.2 5537.77 14709.7 5522.25 14558.5 5343.89 14331.6 5343.89 14296.7 5343.89 14157.2 5343.89 14095.1 5438.89 14095.1 5559.09 14095.1 5615.31 14122.3 5826.64 14223.1 5960.41 14296.7 6055.41 14397.5 6109.69 14494.5 6109.69 14521.6 6109.69 14614.7 6105.81 14663.2 6051.52"/>
<path transform="matrix(.00359712,0,0,-.00359712,0,75)" d="M9371.19 9649.53V9735.41H8371.14V9649.53H9371.19"/>
<path transform="matrix(.00359712,0,0,-.00359712,0,75)" d="M9216 9153.67C9171.67 9153.67 9132.89 9153.67 9094.11 9114.89 9049.78 9073.33 9044.25 9026.25 9044.25 9006.84 9044.25 8940.36 9094.11 8909.89 9146.73 8909.89 9227.08 8909.89 9301.88 8976.38 9301.88 9087.19 9301.88 9222.92 9171.67 9325.42 8974.98 9325.42 8601.02 9325.42 8232.58 8929.28 8232.58 8538.69 8232.58 8289.38 8393.25 8070.53 8681.34 8070.53 9077.48 8070.53 9310.19 8364.17 9310.19 8397.41 9310.19 8414.03 9293.56 8433.42 9276.94 8433.42 9263.09 8433.42 9257.55 8427.88 9240.92 8405.72 9022.08 8131.47 8720.13 8131.47 8686.89 8131.47 8512.36 8131.47 8437.58 8267.22 8437.58 8433.42 8437.58 8547 8492.97 8815.7 8587.16 8987.45 8673.03 9145.36 8825.39 9264.48 8977.77 9264.48 9071.94 9264.48 9177.22 9228.47 9216 9153.67"/>
<path transform="matrix(.00359712,0,0,-.00359712,0,75)" d="M10136.1 9846.58C10095.4 9910.56 10029.5 9960.97 9936.45 9960.97 9688.3 9960.97 9436.27 9687.61 9436.27 9408.44 9436.27 9220.39 9562.28 9086.61 9729 9086.61 9833.69 9086.61 9926.75 9146.72 10004.3 9222.33 10041.1 9106 10153.6 9086.61 10204 9086.61 10273.8 9086.61 10322.3 9129.27 10357.1 9189.36 10399.8 9264.97 10425 9375.48 10425 9383.23 10425 9408.44 10399.8 9408.44 10394 9408.44 10366.8 9408.44 10364.9 9400.69 10351.3 9348.34 10328.1 9255.28 10291.2 9140.89 10209.8 9140.89 10159.4 9140.89 10145.8 9183.55 10145.8 9235.89 10145.8 9268.84 10161.3 9338.64 10174.9 9389.05 10188.5 9441.39 10207.9 9520.88 10217.6 9563.53L10256.3 9710.88C10268 9761.28 10291.2 9852.41 10291.2 9862.09 10291.2 9904.75 10256.3 9924.13 10225.3 9924.13 10192.4 9924.13 10147.8 9900.88 10136.1 9846.58ZM10012.1 9348.34C9998.48 9294.05 9955.83 9255.28 9913.19 9218.44 9895.73 9202.94 9818.19 9140.89 9734.83 9140.89 9663.09 9140.89 9593.3 9191.3 9593.3 9328.95 9593.3 9431.7 9649.52 9644.95 9694.11 9722.5 9783.28 9877.61 9882.16 9906.69 9936.45 9906.69 10072.2 9906.69 10109 9759.34 10109 9738.02 10109 9730.27 10105.1 9716.69 10103.2 9710.88L10012.1 9348.34"/>
</svg>
