<svg xmlns="http://www.w3.org/2000/svg" xmlns:xlink="http://www.w3.org/1999/xlink" version="1.1" width="97pt" height="46pt" viewBox="0 0 97 46">
<path transform="matrix(.00359712,0,0,-.00359712,0,46)" d="M1340.58 4783.03C1340.58 4788.56 1348.88 4819.03 1348.88 4821.81 1348.88 4824.58 1348.88 4849.52 1315.64 4849.52 1287.94 4849.52 1285.17 4841.2 1274.09 4794.11L1113.42 4154.19C672.953 4140.34 265.734 3771.91 265.734 3395.16 265.734 3132 459.656 2913.16 797.609 2893.75 775.453 2807.88 756.063 2719.23 733.906 2633.36 700.656 2503.16 672.953 2397.89 672.953 2389.58 672.953 2361.88 692.344 2359.11 706.203 2359.11 720.047 2359.11 725.594 2361.88 733.906 2370.19 739.438 2375.73 756.063 2442.22 764.375 2481L869.641 2893.75C1315.64 2907.61 1717.31 3281.58 1717.31 3652.8 1717.31 3871.64 1570.5 4126.48 1185.44 4154.19L1340.58 4783.03ZM811.469 2954.7C645.25 2963.02 445.797 3059.97 445.797 3336.98 445.797 3669.41 684.031 4057.23 1096.8 4093.25L811.469 2954.7ZM1168.83 4093.25C1379.36 4082.17 1537.25 3954.73 1537.25 3710.97 1537.25 3384.08 1299.02 2987.94 883.484 2954.7L1168.83 4093.25"/>
<path transform="matrix(.00359712,0,0,-.00359712,0,46)" d="M2678.63 4370.14H3271.86C3297.06 4370.14 3343.59 4370.14 3343.59 4416.67 3343.59 4465.14 3299 4465.14 3271.86 4465.14H2678.63V5060.33C2678.63 5085.53 2678.63 5132.06 2632.09 5132.06 2583.63 5132.06 2583.63 5087.47 2583.63 5060.33V4465.14H1988.44C1963.23 4465.14 1916.7 4465.14 1916.7 4418.61 1916.7 4370.14 1961.3 4370.14 1988.44 4370.14H2583.63V3774.97C2583.63 3749.77 2583.63 3703.23 2630.16 3703.23 2678.63 3703.23 2678.63 3747.83 2678.63 3774.97V4370.14"/>
<path transform="matrix(.00359712,0,0,-.00359712,0,46)" d="M24966.6 4783.03C24966.6 4788.56 24974.9 4819.03 24974.9 4821.81 24974.9 4824.58 24974.9 4849.52 24941.6 4849.52 24913.9 4849.52 24911.2 4841.2 24900.1 4794.11L24739.4 4154.19C24299 4140.34 23891.7 3771.91 23891.7 3395.16 23891.7 3132 24085.7 2913.16 24423.6 2893.75 24401.5 2807.88 24382.1 2719.23 24359.9 2633.36 24326.7 2503.16 24299 2397.89 24299 2389.58 24299 2361.88 24318.3 2359.11 24332.2 2359.11 24346 2359.11 24351.6 2361.88 24359.9 2370.19 24365.4 2375.73 24382.1 2442.22 24390.4 2481L24495.6 2893.75C24941.6 2907.61 25343.3 3281.58 25343.3 3652.8 25343.3 3871.64 25196.5 4126.48 24811.4 4154.19L24966.6 4783.03ZM24437.5 2954.7C24271.3 2963.02 24071.8 3059.97 24071.8 3336.98 24071.8 3669.41 24310 4057.23 24722.8 4093.25L24437.5 2954.7ZM24794.8 4093.25C25005.4 4082.17 25163.3 3954.73 25163.3 3710.97 25163.3 3384.08 24925 2987.94 24509.5 2954.7L24794.8 4093.25"/>
<path transform="matrix(.00359712,0,0,-.00359712,0,46)" d="M26848.4 4370.14C26879.4 4370.14 26925.9 4370.14 26925.9 4416.67 26925.9 4465.14 26881.3 4465.14 26848.4 4465.14H25692.9C25661.9 4465.14 25615.4 4465.14 25615.4 4418.61 25615.4 4370.14 25660 4370.14 25692.9 4370.14H26848.4"/>
<path transform="matrix(.00359712,0,0,-.00359712,0,46)" d="M12409.9 11013.6C12299.1 10828 12191 10789.2 12069.1 10780.9 12035.9 10778.1 12011 10778.1 12011 10725.5 12011 10708.8 12024.8 10695 12047 10695 12121.8 10695 12207.6 10703.3 12285.2 10703.3 12376.6 10703.3 12473.6 10695 12562.2 10695 12578.8 10695 12614.9 10695 12614.9 10747.6 12614.9 10778.1 12589.9 10780.9 12570.5 10780.9 12506.8 10786.4 12440.3 10808.6 12440.3 10877.8 12440.3 10911.1 12457 10941.5 12479.1 10980.3L12689.7 11334.9H13385C13390.5 11276.7 13429.3 10900 13429.3 10872.3 13429.3 10789.2 13285.3 10780.9 13229.8 10780.9 13191.1 10780.9 13163.4 10780.9 13163.4 10725.5 13163.4 10695 13196.6 10695 13202.1 10695 13315.7 10695 13434.8 10703.3 13548.4 10703.3 13617.7 10703.3 13792.2 10695 13861.4 10695 13878.1 10695 13911.3 10695 13911.3 10750.4 13911.3 10780.9 13883.6 10780.9 13847.6 10780.9 13675.8 10780.9 13675.8 10800.3 13667.5 10880.6L13498.5 12612C13493 12667.4 13493 12678.5 13445.9 12678.5 13401.6 12678.5 13390.5 12659.1 13373.9 12631.4L12409.9 11013.6ZM12742.3 11420.8 13288 12335 13376.7 11420.8H12742.3Z"/>
<path transform="matrix(.00359712,0,0,-.00359712,0,46)" d="M14095.7 11387.9C14087.9 11358.8 14087.9 11349.1 14087.9 11347.2 14087.9 11304.5 14122.8 11285.1 14153.8 11285.1 14223.6 11285.1 14239.2 11349.1 14246.9 11382 14250.8 11391.8 14289.6 11546.8 14336.1 11736.8 14396.2 11696.1 14473.7 11680.6 14543.5 11680.6 14710.3 11680.6 14818.8 11816.3 14822.7 11820.2 14859.5 11686.4 14993.3 11680.6 15022.4 11680.6 15092.2 11680.6 15140.7 11723.3 15175.5 11783.4 15218.2 11859 15243.4 11969.5 15243.4 11977.2 15243.4 12002.4 15218.2 12002.4 15212.4 12002.4 15185.2 12002.4 15183.3 11994.7 15169.7 11942.3 15146.5 11849.3 15109.6 11734.9 15028.2 11734.9 14977.8 11734.9 14964.2 11777.5 14964.2 11829.9 14964.2 11862.8 14979.7 11932.6 14993.3 11983 15006.9 12035.4 15026.3 12114.9 15036 12157.5L15080.5 12330.1C15092.2 12378.5 15113.5 12463.8 15113.5 12473.5 15113.5 12512.3 15082.5 12535.6 15049.5 12535.6 15028.2 12535.6 14991.4 12525.9 14970 12489 14964.2 12477.4 14948.7 12415.4 14939 12376.6L14898.3 12215.7 14838.2 11973.4C14824.6 11924.9 14824.6 11921 14807.2 11895.8 14747.1 11810.5 14661.8 11734.9 14551.3 11734.9 14392.3 11734.9 14392.3 11872.5 14392.3 11907.4 14392.3 11957.8 14398.1 11983 14425.3 12087.7 14444.7 12173 14448.5 12186.6 14467.9 12262.2L14495.1 12370.8C14504.8 12411.5 14524.1 12485.2 14524.1 12492.9 14524.1 12527.8 14497 12555 14458.2 12555 14388.4 12555 14371 12487.1 14365.2 12463.8L14095.7 11387.9"/>
<path transform="matrix(.00359712,0,0,-.00359712,0,46)" stroke-width="110.783" stroke-linecap="butt" stroke-dasharray="830.895,830.895" stroke-miterlimit="10" stroke-linejoin="miter" fill="none" stroke="#000000" d="M4597.51 3760.79H13695.1"/>
<path transform="matrix(.00359712,0,0,-.00359712,0,46)" d="M10170.8 3760.79 8336.84 4520.37V3001.2"/>
<path transform="matrix(.00359712,0,0,-.00359712,0,46)" d="M8574.66 4940.03C8552.5 4845.84 8546.95 4826.45 8425.06 4826.45 8391.83 4826.45 8361.36 4826.45 8361.36 4773.83 8361.36 4751.67 8375.2 4740.58 8397.36 4740.58 8472.16 4740.58 8552.5 4748.89 8630.06 4748.89 8721.48 4748.89 8815.67 4740.58 8904.31 4740.58 8918.16 4740.58 8954.17 4740.58 8954.17 4795.98 8954.17 4826.45 8926.47 4826.45 8887.69 4826.45 8749.19 4826.45 8749.19 4845.84 8749.19 4870.78 8749.19 4904.03 8865.53 5355.56 8884.92 5424.81 8920.94 5344.48 8998.5 5247.53 9139.78 5247.53 9461.13 5247.53 9807.39 5651.97 9807.39 6059.19 9807.39 6319.59 9649.48 6502.42 9438.95 6502.42 9300.45 6502.42 9167.48 6402.7 9076.06 6294.66 9048.36 6444.25 8929.25 6502.42 8826.75 6502.42 8699.31 6502.42 8646.69 6394.39 8621.75 6344.52 8571.89 6250.33 8535.88 6084.13 8535.88 6075.81 8535.88 6048.11 8563.58 6048.11 8569.13 6048.11 8596.81 6048.11 8599.59 6050.88 8616.22 6111.83 8663.3 6308.52 8718.7 6441.48 8818.44 6441.48 8865.53 6441.48 8904.31 6419.31 8904.31 6314.05 8904.31 6250.33 8896 6219.86 8884.92 6172.77L8574.66 4940.03ZM9062.22 6142.3C9081.61 6217.09 9156.39 6294.66 9206.27 6336.22 9303.22 6422.09 9383.55 6441.48 9430.64 6441.48 9541.45 6441.48 9607.94 6344.52 9607.94 6181.08 9607.94 6017.64 9516.52 5699.06 9466.66 5593.8 9372.47 5399.89 9239.5 5308.47 9137 5308.47 8954.17 5308.47 8918.16 5538.39 8918.16 5555.02 8918.16 5560.56 8918.16 5566.09 8926.47 5599.34L9062.22 6142.3"/>
<path transform="matrix(.00359712,0,0,-.00359712,0,46)" stroke-width="110.783" stroke-linecap="butt" stroke-dasharray="830.895,830.895" stroke-miterlimit="10" stroke-linejoin="miter" fill="none" stroke="#000000" d="M13695.1 3760.79H22777.3"/>
<path transform="matrix(.00359712,0,0,-.00359712,0,46)" d="M19260.7 3760.79 17426.8 4520.37V3001.2"/>
<path transform="matrix(.00359712,0,0,-.00359712,0,46)" d="M17275.7 4940.03C17253.5 4845.84 17248 4826.45 17126.1 4826.45 17092.8 4826.45 17062.4 4826.45 17062.4 4773.83 17062.4 4751.67 17076.2 4740.58 17098.4 4740.58 17173.2 4740.58 17253.5 4748.89 17331.1 4748.89 17422.5 4748.89 17516.7 4740.58 17605.3 4740.58 17619.2 4740.58 17655.2 4740.58 17655.2 4795.98 17655.2 4826.45 17627.5 4826.45 17588.7 4826.45 17450.2 4826.45 17450.2 4845.84 17450.2 4870.78 17450.2 4904.03 17566.5 5355.56 17585.9 5424.81 17621.9 5344.48 17699.5 5247.53 17840.8 5247.53 18162.1 5247.53 18508.4 5651.97 18508.4 6059.19 18508.4 6319.59 18350.5 6502.42 18140 6502.42 18001.5 6502.42 17868.5 6402.7 17777.1 6294.66 17749.4 6444.25 17630.3 6502.42 17527.8 6502.42 17400.3 6502.42 17347.7 6394.39 17322.8 6344.52 17272.9 6250.33 17236.9 6084.13 17236.9 6075.81 17236.9 6048.11 17264.6 6048.11 17270.1 6048.11 17297.8 6048.11 17300.6 6050.88 17317.2 6111.83 17364.3 6308.52 17419.7 6441.48 17519.4 6441.48 17566.5 6441.48 17605.3 6419.31 17605.3 6314.05 17605.3 6250.33 17597 6219.86 17585.9 6172.77L17275.7 4940.03ZM17763.2 6142.3C17782.6 6217.09 17857.4 6294.66 17907.3 6336.22 18004.2 6422.09 18084.5 6441.48 18131.6 6441.48 18242.5 6441.48 18308.9 6344.52 18308.9 6181.08 18308.9 6017.64 18217.5 5699.06 18167.7 5593.8 18073.5 5399.89 17940.5 5308.47 17838 5308.47 17655.2 5308.47 17619.2 5538.39 17619.2 5555.02 17619.2 5560.56 17619.2 5566.09 17627.5 5599.34L17763.2 6142.3"/>
<path transform="matrix(.00359712,0,0,-.00359712,0,46)" d="M19107.2 7198.06C19122.7 7231.03 19124.7 7246.53 19124.7 7260.11 19124.7 7320.2 19070.4 7366.73 19010.3 7366.73 18936.6 7366.73 18913.4 7306.64 18903.7 7275.61L18647.8 6436.16C18645.8 6432.28 18638.1 6407.08 18638.1 6405.14 18638.1 6381.88 18698.2 6362.48 18713.7 6362.48 18727.2 6362.48 18729.2 6366.36 18742.8 6395.44L19107.2 7198.06"/>
<path transform="matrix(.00359712,0,0,-.00359712,0,46)" stroke-width="110.783" stroke-linecap="butt" stroke-miterlimit="10" stroke-linejoin="miter" fill="none" stroke="#000000" d="M13695.1 3760.79V3926.11L13522 4091.43 13395.3 4256.77 13348.9 4422.09 13395.3 4587.42 13522 4752.74 13695.1 4918.07 13868.2 5083.4 13994.9 5248.73 14041.3 5414.05 13994.9 5579.38 13868.2 5744.71 13695.1 5910.03 13522 6075.36 13395.3 6240.69 13348.9 6406.01 13395.3 6571.34 13522 6736.67 13695.1 6902 13868.2 7067.32 13994.9 7232.65 14041.3 7397.98 13994.9 7563.3 13868.2 7728.63 13695.1 7893.95 13522 8059.29 13395.3 8224.61 13348.9 8389.94 13395.3 8555.27 13522 8720.59 13695.1 8885.92 13868.2 9051.25 13994.9 9216.57 14041.3 9381.9 13695.1 9716.39"/>
<path transform="matrix(.00359712,0,0,-.00359712,0,46)" d="M10407.6 2433.03C10407.6 2438.56 10415.9 2469.03 10415.9 2471.81 10415.9 2474.58 10415.9 2499.52 10382.6 2499.52 10354.9 2499.52 10352.2 2491.2 10341.1 2444.11L10180.4 1804.19C9739.95 1790.34 9332.73 1421.91 9332.73 1045.16 9332.73 782 9526.66 563.156 9864.61 543.75 9842.45 457.875 9823.06 369.234 9800.91 283.359 9767.66 153.156 9739.95 47.8906 9739.95 39.5781 9739.95 11.875 9759.34 9.10938 9773.2 9.10938 9787.05 9.10938 9792.59 11.875 9800.91 20.1875 9806.44 25.7344 9823.06 92.2188 9831.38 131L9936.64 543.75C10382.6 557.609 10784.3 931.578 10784.3 1302.8 10784.3 1521.64 10637.5 1776.48 10252.4 1804.19L10407.6 2433.03ZM9878.47 604.703C9712.25 613.016 9512.8 709.969 9512.8 986.984 9512.8 1319.41 9751.03 1707.23 10163.8 1743.25L9878.47 604.703ZM10235.8 1743.25C10446.4 1732.17 10604.3 1604.73 10604.3 1360.97 10604.3 1034.08 10366 637.938 9950.48 604.703L10235.8 1743.25"/>
<path transform="matrix(.00359712,0,0,-.00359712,0,46)" d="M12289.4 2020.14C12320.4 2020.14 12366.9 2020.14 12366.9 2066.67 12366.9 2115.14 12322.3 2115.14 12289.4 2115.14H11133.9C11102.9 2115.14 11056.4 2115.14 11056.4 2068.61 11056.4 2020.14 11101 2020.14 11133.9 2020.14H12289.4"/>
<path transform="matrix(.00359712,0,0,-.00359712,0,46)" d="M15884.6 2433.03C15884.6 2438.56 15892.9 2469.03 15892.9 2471.81 15892.9 2474.58 15892.9 2499.52 15859.6 2499.52 15831.9 2499.52 15829.2 2491.2 15818.1 2444.11L15657.4 1804.19C15217 1790.34 14809.7 1421.91 14809.7 1045.16 14809.7 782 15003.7 563.156 15341.6 543.75 15319.5 457.875 15300.1 369.234 15277.9 283.359 15244.7 153.156 15217 47.8906 15217 39.5781 15217 11.875 15236.3 9.10938 15250.2 9.10938 15264 9.10938 15269.6 11.875 15277.9 20.1875 15283.4 25.7344 15300.1 92.2188 15308.4 131L15413.6 543.75C15859.6 557.609 16261.3 931.578 16261.3 1302.8 16261.3 1521.64 16114.5 1776.48 15729.4 1804.19L15884.6 2433.03ZM15355.5 604.703C15189.3 613.016 14989.8 709.969 14989.8 986.984 14989.8 1319.41 15228 1707.23 15640.8 1743.25L15355.5 604.703ZM15712.8 1743.25C15923.4 1732.17 16081.3 1604.73 16081.3 1360.97 16081.3 1034.08 15843 637.938 15427.5 604.703L15712.8 1743.25"/>
<path transform="matrix(.00359712,0,0,-.00359712,0,46)" d="M17221.6 2020.14H17814.9C17840.1 2020.14 17886.6 2020.14 17886.6 2066.67 17886.6 2115.14 17842 2115.14 17814.9 2115.14H17221.6V2710.33C17221.6 2735.53 17221.6 2782.06 17175.1 2782.06 17126.6 2782.06 17126.6 2737.47 17126.6 2710.33V2115.14H16531.4C16506.2 2115.14 16459.7 2115.14 16459.7 2068.61 16459.7 2020.14 16504.3 2020.14 16531.4 2020.14H17126.6V1424.97C17126.6 1399.77 17126.6 1353.23 17173.2 1353.23 17221.6 1353.23 17221.6 1397.83 17221.6 1424.97V2020.14"/>
</svg>
