<svg xmlns="http://www.w3.org/2000/svg" xmlns:xlink="http://www.w3.org/1999/xlink" version="1.1" width="97pt" height="47pt" viewBox="0 0 97 47">
<path transform="matrix(.00359712,0,0,-.00359712,0,47)" d="M1340.58 4880.03C1340.58 4885.56 1348.88 4916.03 1348.88 4918.81 1348.88 4921.58 1348.88 4946.52 1315.64 4946.52 1287.94 4946.52 1285.17 4938.2 1274.09 4891.11L1113.42 4251.19C672.953 4237.34 265.734 3868.91 265.734 3492.16 265.734 3229 459.656 3010.16 797.609 2990.75 775.453 2904.88 756.063 2816.23 733.906 2730.36 700.656 2600.16 672.953 2494.89 672.953 2486.58 672.953 2458.88 692.344 2456.11 706.203 2456.11 720.047 2456.11 725.594 2458.88 733.906 2467.19 739.438 2472.73 756.063 2539.22 764.375 2578L869.641 2990.75C1315.64 3004.61 1717.31 3378.58 1717.31 3749.8 1717.31 3968.64 1570.5 4223.48 1185.44 4251.19L1340.58 4880.03ZM811.469 3051.7C645.25 3060.02 445.797 3156.97 445.797 3433.98 445.797 3766.41 684.031 4154.23 1096.8 4190.25L811.469 3051.7ZM1168.83 4190.25C1379.36 4179.17 1537.25 4051.73 1537.25 3807.97 1537.25 3481.08 1299.02 3084.94 883.484 3051.7L1168.83 4190.25"/>
<path transform="matrix(.00359712,0,0,-.00359712,0,47)" d="M2678.63 4467.14H3271.86C3297.06 4467.14 3343.59 4467.14 3343.59 4513.67 3343.59 4562.14 3299 4562.14 3271.86 4562.14H2678.63V5157.33C2678.63 5182.53 2678.63 5229.06 2632.09 5229.06 2583.63 5229.06 2583.63 5184.47 2583.63 5157.33V4562.14H1988.44C1963.23 4562.14 1916.7 4562.14 1916.7 4515.61 1916.7 4467.14 1961.3 4467.14 1988.44 4467.14H2583.63V3871.97C2583.63 3846.77 2583.63 3800.23 2630.16 3800.23 2678.63 3800.23 2678.63 3844.83 2678.63 3871.97V4467.14"/>
<path transform="matrix(.00359712,0,0,-.00359712,0,47)" d="M24966.6 4880.03C24966.6 4885.56 24974.9 4916.03 24974.9 4918.81 24974.9 4921.58 24974.9 4946.52 24941.6 4946.52 24913.9 4946.52 24911.2 4938.2 24900.1 4891.11L24739.4 4251.19C24299 4237.34 23891.7 3868.91 23891.7 3492.16 23891.7 3229 24085.7 3010.16 24423.6 2990.75 24401.5 2904.88 24382.1 2816.23 24359.9 2730.36 24326.7 2600.16 24299 2494.89 24299 2486.58 24299 2458.88 24318.3 2456.11 24332.2 2456.11 24346 2456.11 24351.6 2458.88 24359.9 2467.19 24365.4 2472.73 24382.1 2539.22 24390.4 2578L24495.6 2990.75C24941.6 3004.61 25343.3 3378.58 25343.3 3749.8 25343.3 3968.64 25196.5 4223.48 24811.4 4251.19L24966.6 4880.03ZM24437.5 3051.7C24271.3 3060.02 24071.8 3156.97 24071.8 3433.98 24071.8 3766.41 24310 4154.23 24722.8 4190.25L24437.5 3051.7ZM24794.8 4190.25C25005.4 4179.17 25163.3 4051.73 25163.3 3807.97 25163.3 3481.08 24925 3084.94 24509.5 3051.7L24794.8 4190.25"/>
<path transform="matrix(.00359712,0,0,-.00359712,0,47)" d="M26848.4 4467.14C26879.4 4467.14 26925.9 4467.14 26925.9 4513.67 26925.9 4562.14 26881.3 4562.14 26848.4 4562.14H25692.9C25661.9 4562.14 25615.4 4562.14 25615.4 4515.61 25615.4 4467.14 25660 4467.14 25692.9 4467.14H26848.4"/>
<path transform="matrix(.00359712,0,0,-.00359712,0,47)" d="M13350.5 12436.5C13353.3 12447.6 13358.8 12461.5 13358.8 12478.1 13358.8 12503 13345 12503 13289.6 12503H12120.6C12054.1 12503 12051.3 12500.3 12034.7 12447.6L11882.3 11949C11876.8 11935.2 11874 11915.8 11874 11910.2 11874 11907.5 11874 11879.8 11907.3 11879.8 11932.2 11879.8 11937.7 11899.1 11943.3 11907.5 12048.5 12234.3 12192.6 12417.2 12624.8 12417.2H13076.3L11527.8 10685.8C11527.8 10683 11516.7 10644.3 11516.7 10635.9 11516.7 10611 11536.1 10611 11585.9 10611H12791C12857.4 10611 12860.2 10613.8 12876.8 10666.4L13073.5 11278.6C13076.3 11289.7 13084.6 11309.1 13084.6 11320.2 13084.6 11334 13073.5 11350.6 13048.6 11350.6 13023.7 11350.6 13020.9 11339.6 13001.5 11281.4 12879.6 10904.6 12746.6 10705.2 12275.7 10705.2H11802L13350.5 12436.5"/>
<path transform="matrix(.00359712,0,0,-.00359712,0,47)" d="M14445.4 12234.5C14445.4 12447.7 14420.2 12600.9 14331 12736.6 14270.9 12825.8 14150.7 12903.3 13995.6 12903.3 13545.8 12903.3 13545.8 12374 13545.8 12234.5 13545.8 12094.9 13545.8 11577.2 13995.6 11577.2 14445.4 11577.2 14445.4 12094.9 14445.4 12234.5ZM13995.6 11631.5C13906.4 11631.5 13788.2 11683.9 13749.4 11842.8 13722.2 11957.2 13722.2 12116.2 13722.2 12259.7 13722.2 12401.2 13722.2 12548.5 13751.3 12655.1 13792 12808.3 13916.1 12849 13995.6 12849 14100.3 12849 14201.1 12785 14236 12672.6 14267 12567.9 14269 12428.3 14269 12259.7 14269 12116.2 14269 11972.7 14243.8 11850.6 14205 11674.2 14073.1 11631.5 13995.6 11631.5"/>
<path transform="matrix(.00359712,0,0,-.00359712,0,47)" d="M14653.7 11303.9C14645.9 11274.8 14645.9 11265.1 14645.9 11263.2 14645.9 11220.5 14680.8 11201.1 14711.8 11201.1 14781.6 11201.1 14797.2 11265.1 14804.9 11298 14808.8 11307.8 14847.6 11462.8 14894.1 11652.8 14954.2 11612.1 15031.7 11596.6 15101.5 11596.6 15268.3 11596.6 15376.8 11732.3 15380.7 11736.2 15417.5 11602.4 15551.3 11596.6 15580.4 11596.6 15650.2 11596.6 15698.7 11639.3 15733.5 11699.4 15776.2 11775 15801.4 11885.5 15801.4 11893.2 15801.4 11918.4 15776.2 11918.4 15770.4 11918.4 15743.2 11918.4 15741.3 11910.7 15727.7 11858.3 15704.5 11765.3 15667.6 11650.9 15586.2 11650.9 15535.8 11650.9 15522.2 11693.5 15522.2 11745.9 15522.2 11778.8 15537.7 11848.6 15551.3 11899 15564.9 11951.4 15584.3 12030.9 15594 12073.5L15638.5 12246.1C15650.2 12294.5 15671.5 12379.8 15671.5 12389.5 15671.5 12428.3 15640.5 12451.6 15607.5 12451.6 15586.2 12451.6 15549.4 12441.9 15528 12405 15522.2 12393.4 15506.7 12331.4 15497 12292.6L15456.3 12131.7 15396.2 11889.4C15382.6 11840.9 15382.6 11837 15365.2 11811.8 15305.1 11726.5 15219.8 11650.9 15109.3 11650.9 14950.3 11650.9 14950.3 11788.5 14950.3 11823.4 14950.3 11873.8 14956.1 11899 14983.3 12003.7 15002.7 12089 15006.5 12102.6 15025.9 12178.2L15053.1 12286.8C15062.8 12327.5 15082.1 12401.2 15082.1 12408.9 15082.1 12443.8 15055 12471 15016.2 12471 14946.4 12471 14929 12403.1 14923.2 12379.8L14653.7 11303.9"/>
<path transform="matrix(.00359712,0,0,-.00359712,0,47)" stroke-width="110.783" stroke-linecap="butt" stroke-dasharray="830.895,830.895" stroke-miterlimit="10" stroke-linejoin="miter" fill="none" stroke="#000000" d="M4597.51 3857.8H13695.1"/>
<path transform="matrix(.00359712,0,0,-.00359712,0,47)" d="M10170.8 3857.8 8336.84 4617.39V3098.22"/>
<path transform="matrix(.00359712,0,0,-.00359712,0,47)" d="M8574.66 5037.03C8552.5 4942.84 8546.95 4923.45 8425.06 4923.45 8391.83 4923.45 8361.36 4923.45 8361.36 4870.83 8361.36 4848.67 8375.2 4837.58 8397.36 4837.58 8472.16 4837.58 8552.5 4845.89 8630.06 4845.89 8721.48 4845.89 8815.67 4837.58 8904.31 4837.58 8918.16 4837.58 8954.17 4837.58 8954.17 4892.98 8954.17 4923.45 8926.47 4923.45 8887.69 4923.45 8749.19 4923.45 8749.19 4942.84 8749.19 4967.78 8749.19 5001.03 8865.53 5452.56 8884.92 5521.81 8920.94 5441.48 8998.5 5344.53 9139.78 5344.53 9461.13 5344.53 9807.39 5748.97 9807.39 6156.19 9807.39 6416.59 9649.48 6599.42 9438.95 6599.42 9300.45 6599.42 9167.48 6499.7 9076.06 6391.66 9048.36 6541.25 8929.25 6599.42 8826.75 6599.42 8699.31 6599.42 8646.69 6491.39 8621.75 6441.52 8571.89 6347.33 8535.88 6181.13 8535.88 6172.81 8535.88 6145.11 8563.58 6145.11 8569.13 6145.11 8596.81 6145.11 8599.59 6147.88 8616.22 6208.83 8663.3 6405.52 8718.7 6538.48 8818.44 6538.48 8865.53 6538.48 8904.31 6516.31 8904.31 6411.05 8904.31 6347.33 8896 6316.86 8884.92 6269.77L8574.66 5037.03ZM9062.22 6239.3C9081.61 6314.09 9156.39 6391.66 9206.27 6433.22 9303.22 6519.09 9383.55 6538.48 9430.64 6538.48 9541.45 6538.48 9607.94 6441.52 9607.94 6278.08 9607.94 6114.64 9516.52 5796.06 9466.66 5690.8 9372.47 5496.89 9239.5 5405.47 9137 5405.47 8954.17 5405.47 8918.16 5635.39 8918.16 5652.02 8918.16 5657.56 8918.16 5663.09 8926.47 5696.34L9062.22 6239.3"/>
<path transform="matrix(.00359712,0,0,-.00359712,0,47)" stroke-width="110.783" stroke-linecap="butt" stroke-dasharray="830.895,830.895" stroke-miterlimit="10" stroke-linejoin="miter" fill="none" stroke="#000000" d="M13695.1 3857.8H22777.3"/>
<path transform="matrix(.00359712,0,0,-.00359712,0,47)" d="M19260.7 3857.8 17426.8 4617.39V3098.22"/>
<path transform="matrix(.00359712,0,0,-.00359712,0,47)" d="M17275.7 5037.03C17253.5 4942.84 17248 4923.45 17126.1 4923.45 17092.8 4923.45 17062.4 4923.45 17062.4 4870.83 17062.4 4848.67 17076.2 4837.58 17098.4 4837.58 17173.2 4837.58 17253.5 4845.89 17331.1 4845.89 17422.5 4845.89 17516.7 4837.58 17605.3 4837.58 17619.2 4837.58 17655.2 4837.58 17655.2 4892.98 17655.2 4923.45 17627.5 4923.45 17588.7 4923.45 17450.2 4923.45 17450.2 4942.84 17450.2 4967.78 17450.2 5001.03 17566.5 5452.56 17585.9 5521.81 17621.9 5441.48 17699.5 5344.53 17840.8 5344.53 18162.1 5344.53 18508.4 5748.97 18508.4 6156.19 18508.4 6416.59 18350.5 6599.42 18140 6599.42 18001.5 6599.42 17868.5 6499.7 17777.1 6391.66 17749.4 6541.25 17630.3 6599.42 17527.8 6599.42 17400.3 6599.42 17347.7 6491.39 17322.8 6441.52 17272.9 6347.33 17236.9 6181.13 17236.9 6172.81 17236.9 6145.11 17264.6 6145.11 17270.1 6145.11 17297.8 6145.11 17300.6 6147.88 17317.2 6208.83 17364.3 6405.52 17419.7 6538.48 17519.4 6538.48 17566.5 6538.48 17605.3 6516.31 17605.3 6411.05 17605.3 6347.33 17597 6316.86 17585.9 6269.77L17275.7 5037.03ZM17763.2 6239.3C17782.6 6314.09 17857.4 6391.66 17907.3 6433.22 18004.2 6519.09 18084.5 6538.48 18131.6 6538.48 18242.5 6538.48 18308.9 6441.52 18308.9 6278.08 18308.9 6114.64 18217.5 5796.06 18167.7 5690.8 18073.5 5496.89 17940.5 5405.47 17838 5405.47 17655.2 5405.47 17619.2 5635.39 17619.2 5652.02 17619.2 5657.56 17619.2 5663.09 17627.5 5696.34L17763.2 6239.3"/>
<path transform="matrix(.00359712,0,0,-.00359712,0,47)" d="M19107.2 7295.06C19122.7 7328.03 19124.7 7343.53 19124.7 7357.11 19124.7 7417.2 19070.4 7463.73 19010.3 7463.73 18936.6 7463.73 18913.4 7403.64 18903.7 7372.61L18647.8 6533.16C18645.8 6529.28 18638.1 6504.08 18638.1 6502.14 18638.1 6478.88 18698.2 6459.48 18713.7 6459.48 18727.2 6459.48 18729.2 6463.36 18742.8 6492.44L19107.2 7295.06"/>
<path transform="matrix(.00359712,0,0,-.00359712,0,47)" stroke-width="110.783" stroke-linecap="butt" stroke-miterlimit="10" stroke-linejoin="miter" fill="none" stroke="#000000" d="M13695.1 3857.8V4018.18L13522 4178.57 13395.3 4338.95 13348.9 4499.33 13395.3 4659.71 13522 4820.1 13695.1 4980.48 13868.2 5140.86 13994.9 5301.25 14041.3 5461.63 13994.9 5622.01 13868.2 5782.39 13695.1 5942.78 13522 6103.16 13395.3 6263.54 13348.9 6423.93 13395.3 6584.31 13522 6744.69 13695.1 6905.07 13868.2 7065.45 13994.9 7225.83 14041.3 7386.21 13994.9 7546.6 13868.2 7706.98 13695.1 7867.36 13522 8027.75 13395.3 8188.13 13348.9 8348.51 13395.3 8508.89 13522 8669.28 13695.1 8829.66 13868.2 8990.04 13994.9 9150.43 14041.3 9310.81 13695.1 9632.46"/>
<path transform="matrix(.00359712,0,0,-.00359712,0,47)" d="M10407.6 2530.03C10407.6 2535.56 10415.9 2566.03 10415.9 2568.81 10415.9 2571.58 10415.9 2596.52 10382.6 2596.52 10354.9 2596.52 10352.2 2588.2 10341.1 2541.11L10180.4 1901.19C9739.95 1887.34 9332.73 1518.91 9332.73 1142.16 9332.73 879 9526.66 660.156 9864.61 640.75 9842.45 554.875 9823.06 466.234 9800.91 380.359 9767.66 250.156 9739.95 144.891 9739.95 136.578 9739.95 108.875 9759.34 106.109 9773.2 106.109 9787.05 106.109 9792.59 108.875 9800.91 117.188 9806.44 122.734 9823.06 189.219 9831.38 228L9936.64 640.75C10382.6 654.609 10784.3 1028.58 10784.3 1399.8 10784.3 1618.64 10637.5 1873.48 10252.4 1901.19L10407.6 2530.03ZM9878.47 701.703C9712.25 710.016 9512.8 806.969 9512.8 1083.98 9512.8 1416.41 9751.03 1804.23 10163.8 1840.25L9878.47 701.703ZM10235.8 1840.25C10446.4 1829.17 10604.3 1701.73 10604.3 1457.97 10604.3 1131.08 10366 734.938 9950.48 701.703L10235.8 1840.25"/>
<path transform="matrix(.00359712,0,0,-.00359712,0,47)" d="M12289.4 2117.14C12320.4 2117.14 12366.9 2117.14 12366.9 2163.67 12366.9 2212.14 12322.3 2212.14 12289.4 2212.14H11133.9C11102.9 2212.14 11056.4 2212.14 11056.4 2165.61 11056.4 2117.14 11101 2117.14 11133.9 2117.14H12289.4"/>
<path transform="matrix(.00359712,0,0,-.00359712,0,47)" d="M15884.6 2530.03C15884.6 2535.56 15892.9 2566.03 15892.9 2568.81 15892.9 2571.58 15892.9 2596.52 15859.6 2596.52 15831.9 2596.52 15829.2 2588.2 15818.1 2541.11L15657.4 1901.19C15217 1887.34 14809.7 1518.91 14809.7 1142.16 14809.7 879 15003.7 660.156 15341.6 640.75 15319.5 554.875 15300.1 466.234 15277.9 380.359 15244.7 250.156 15217 144.891 15217 136.578 15217 108.875 15236.3 106.109 15250.2 106.109 15264 106.109 15269.6 108.875 15277.9 117.188 15283.4 122.734 15300.1 189.219 15308.4 228L15413.6 640.75C15859.6 654.609 16261.3 1028.58 16261.3 1399.8 16261.3 1618.64 16114.5 1873.48 15729.4 1901.19L15884.6 2530.03ZM15355.5 701.703C15189.3 710.016 14989.8 806.969 14989.8 1083.98 14989.8 1416.41 15228 1804.23 15640.8 1840.25L15355.5 701.703ZM15712.8 1840.25C15923.4 1829.17 16081.3 1701.73 16081.3 1457.97 16081.3 1131.08 15843 734.938 15427.5 701.703L15712.8 1840.25"/>
<path transform="matrix(.00359712,0,0,-.00359712,0,47)" d="M17221.6 2117.14H17814.9C17840.1 2117.14 17886.6 2117.14 17886.6 2163.67 17886.6 2212.14 17842 2212.14 17814.9 2212.14H17221.6V2807.33C17221.6 2832.53 17221.6 2879.06 17175.1 2879.06 17126.6 2879.06 17126.6 2834.47 17126.6 2807.33V2212.14H16531.4C16506.2 2212.14 16459.7 2212.14 16459.7 2165.61 16459.7 2117.14 16504.3 2117.14 16531.4 2117.14H17126.6V1521.97C17126.6 1496.77 17126.6 1450.23 17173.2 1450.23 17221.6 1450.23 17221.6 1494.83 17221.6 1521.97V2117.14"/>
</svg>
