<svg xmlns="http://www.w3.org/2000/svg" xmlns:xlink="http://www.w3.org/1999/xlink" version="1.1" width="267pt" height="79pt" viewBox="0 0 267 79">
<path transform="matrix(.00359712,0,0,-.00359712,0,79)" d="M577.031 826.906C657.359 826.906 862.359 832.453 1000.86 890.625 1194.78 973.734 1208.63 1137.17 1208.63 1175.95 1208.63 1297.84 1103.36 1411.42 912.219 1411.42 604.734 1411.42 186.422 1142.72 186.422 657.938 186.422 375.375 349.875 156.531 621.344 156.531 1017.48 156.531 1250.19 450.172 1250.19 483.406 1250.19 500.031 1233.56 519.422 1216.94 519.422 1203.09 519.422 1197.55 513.875 1180.92 491.719 962.078 217.469 660.125 217.469 626.891 217.469 410.813 217.469 385.875 450.172 385.875 538.813 385.875 572.063 388.656 657.938 430.203 826.906H577.031ZM446.828 887.859C554.859 1308.92 840.188 1350.48 912.219 1350.48 1042.42 1350.48 1117.22 1270.14 1117.22 1175.95 1117.22 887.859 673.984 887.859 560.406 887.859H446.828"/>
<path transform="matrix(.00359712,0,0,-.00359712,0,79)" d="M18432 11951C18432 11953.8 18432 11981.5 18396 11981.5 18332.3 11981.5 18130.1 11959.3 18058.1 11953.8 18035.9 11951 18005.4 11948.3 18005.4 11898.4 18005.4 11865.2 18030.4 11865.2 18071.9 11865.2 18204.9 11865.2 18210.4 11845.8 18210.4 11818.1L18202.1 11762.7 17800.4 10167C17789.4 10128.3 17789.4 10122.7 17789.4 10106.1 17789.4 10042.4 17844.8 10028.5 17869.7 10028.5 17914 10028.5 17958.3 10061.8 17972.2 10100.5L18024.8 10311.1 18085.8 10560.4C18102.4 10621.3 18119 10682.3 18132.9 10746 18138.4 10762.6 18160.6 10854 18163.3 10870.7 18171.6 10895.6 18257.5 11050.7 18351.7 11125.5 18412.7 11169.8 18498.5 11222.5 18617.6 11222.5 18736.8 11222.5 18767.2 11128.3 18767.2 11028.6 18767.2 10879 18662 10577 18595.5 10408 18573.3 10344.3 18559.5 10311.1 18559.5 10255.7 18559.5 10125.5 18656.4 10028.5 18786.6 10028.5 19047 10028.5 19149.5 10433 19149.5 10455.1 19149.5 10482.8 19124.6 10482.8 19116.3 10482.8 19088.6 10482.8 19088.6 10474.5 19074.7 10433 19033.2 10286.2 18944.5 10089.5 18792.2 10089.5 18745.1 10089.5 18725.7 10117.2 18725.7 10180.9 18725.7 10250.1 18750.6 10316.6 18775.5 10377.6 18819.9 10496.7 18944.5 10826.3 18944.5 10987 18944.5 11167.1 18833.7 11283.4 18626 11283.4 18451.4 11283.4 18318.5 11197.5 18216 11070.1L18432 11951"/>
<path transform="matrix(.00359712,0,0,-.00359712,0,79)" d="M577.031 21300.9C657.359 21300.9 862.359 21306.5 1000.86 21364.6 1194.78 21447.7 1208.63 21611.2 1208.63 21650 1208.63 21771.8 1103.36 21885.4 912.219 21885.4 604.734 21885.4 186.422 21616.7 186.422 21131.9 186.422 20849.4 349.875 20630.5 621.344 20630.5 1017.48 20630.5 1250.19 20924.2 1250.19 20957.4 1250.19 20974 1233.56 20993.4 1216.94 20993.4 1203.09 20993.4 1197.55 20987.9 1180.92 20965.7 962.078 20691.5 660.125 20691.5 626.891 20691.5 410.813 20691.5 385.875 20924.2 385.875 21012.8 385.875 21046.1 388.656 21131.9 430.203 21300.9H577.031ZM446.828 21361.9C554.859 21782.9 840.188 21824.5 912.219 21824.5 1042.42 21824.5 1117.22 21744.1 1117.22 21650 1117.22 21361.9 673.984 21361.9 560.406 21361.9H446.828"/>
<path transform="matrix(.00359712,0,0,-.00359712,0,79)" stroke-width="110.783" stroke-linecap="butt" stroke-miterlimit="10" stroke-linejoin="miter" fill="none" stroke="#000000" d="M1613.28 2358.25 6614.45 11020.5"/>
<path transform="matrix(.00359712,0,0,-.00359712,0,79)" d="M4624.66 7574.22 3049.93 6365.81 4365.56 5606.25"/>
<path transform="matrix(.00359712,0,0,-.00359712,0,79)" stroke-width="110.783" stroke-linecap="butt" stroke-miterlimit="10" stroke-linejoin="miter" fill="none" stroke="#000000" d="M6614.45 11020.5 1613.28 19682.7"/>
<path transform="matrix(.00359712,0,0,-.00359712,0,79)" d="M3603.06 16236.4 3862.18 14268.5 5177.8 15028"/>
<path transform="matrix(.00359712,0,0,-.00359712,0,79)" stroke-width="110.783" stroke-linecap="butt" stroke-dasharray="830.895,830.895" stroke-miterlimit="10" stroke-linejoin="miter" fill="none" stroke="#000000" d="M6614.45 11020.5H16658.7"/>
<path transform="matrix(.00359712,0,0,-.00359712,0,79)" d="M22828.1 11233.8C22869.7 11233.8 22922.3 11233.8 22922.3 11289.3 22922.3 11344.7 22869.7 11344.7 22830.9 11344.7H21171.5C21132.8 11344.7 21080.1 11344.7 21080.1 11289.3 21080.1 11233.8 21132.8 11233.8 21174.3 11233.8H22828.1ZM22830.9 10696.4C22869.7 10696.4 22922.3 10696.4 22922.3 10751.8 22922.3 10807.3 22869.7 10807.3 22828.1 10807.3H21174.3C21132.8 10807.3 21080.1 10807.3 21080.1 10751.8 21080.1 10696.4 21132.8 10696.4 21171.5 10696.4H22830.9"/>
<path transform="matrix(.00359712,0,0,-.00359712,0,79)" d="M25674.5 10965.1C25721.6 10965.1 25771.5 10965.1 25771.5 11020.5 25771.5 11076 25721.6 11076 25674.5 11076H24175.9C24128.8 11076 24078.9 11076 24078.9 11020.5 24078.9 10965.1 24128.8 10965.1 24175.9 10965.1H25674.5"/>
<path transform="matrix(.00359712,0,0,-.00359712,0,79)" d="M26789.7 12059.4C26789.7 12114.8 26751 12159.1 26687.2 12159.1 26612.4 12159.1 26537.6 12087.1 26537.6 12012.3 26537.6 11959.6 26576.4 11912.5 26642.9 11912.5 26706.6 11912.5 26789.7 11976.3 26789.7 12059.4ZM26579.2 11017.8C26612.4 11098.1 26612.4 11103.7 26640.1 11178.5 26662.3 11233.8 26676.2 11272.6 26676.2 11325.3 26676.2 11449.9 26587.5 11552.4 26449 11552.4 26188.6 11552.4 26083.3 11150.8 26083.3 11125.8 26083.3 11098.1 26111 11098.1 26116.6 11098.1 26144.3 11098.1 26147 11103.7 26160.9 11148 26235.7 11408.4 26346.5 11491.5 26440.7 11491.5 26462.8 11491.5 26509.9 11491.5 26509.9 11402.8 26509.9 11344.7 26490.5 11286.5 26479.5 11258.8 26457.3 11186.8 26332.7 10865.4 26288.3 10746.3 26260.6 10674.3 26224.6 10582.9 26224.6 10524.7 26224.6 10394.5 26318.8 10297.5 26451.8 10297.5 26712.2 10297.5 26814.7 10699.2 26814.7 10724.1 26814.7 10751.8 26789.7 10751.8 26781.4 10751.8 26753.7 10751.8 26753.7 10743.5 26739.9 10702 26690 10527.5 26598.6 10358.5 26457.3 10358.5 26410.2 10358.5 26390.8 10386.2 26390.8 10449.9 26390.8 10519.1 26407.5 10557.9 26471.2 10726.9L26579.2 11017.8"/>
<path transform="matrix(.00359712,0,0,-.00359712,0,79)" d="M28594.8 13246.4C28597.5 13263 28603.1 13276.8 28603.1 13296.2 28603.1 13343.3 28569.8 13371 28522.7 13371 28495 13371 28420.2 13351.6 28409.2 13251.9 28359.3 13354.4 28262.3 13426.4 28151.5 13426.4 27835.7 13426.4 27492.2 13038.6 27492.2 12639.7 27492.2 12365.4 27661.2 12202 27860.7 12202 28024.1 12202 28154.3 12332.2 28182 12362.7L28184.8 12359.9C28126.6 12113.4 28093.4 11999.8 28093.4 11994.2 28082.3 11969.3 27988.1 11695.1 27694.5 11695.1 27641.8 11695.1 27550.4 11697.8 27472.8 11722.8 27555.9 11747.7 27586.4 11819.7 27586.4 11866.8 27586.4 11911.1 27555.9 11963.8 27481.1 11963.8 27420.2 11963.8 27331.5 11913.9 27331.5 11803.1 27331.5 11689.5 27434 11634.1 27700 11634.1 28046.3 11634.1 28245.7 11850.2 28287.3 12016.4L28594.8 13246.4ZM28234.6 12556.6C28218 12484.6 28154.3 12415.3 28093.4 12362.7 28035.2 12312.8 27949.3 12262.9 27869 12262.9 27730.5 12262.9 27688.9 12407 27688.9 12517.8 27688.9 12650.8 27769.3 12977.7 27844 13118.9 27918.8 13254.7 28038 13365.5 28154.3 13365.5 28337.1 13365.5 28375.9 13141.1 28375.9 13127.3 28375.9 13113.4 28370.4 13096.8 28367.6 13085.7L28234.6 12556.6"/>
<path transform="matrix(.00359712,0,0,-.00359712,0,79)" stroke-width="110.783" stroke-linecap="butt" stroke-miterlimit="10" stroke-linejoin="miter" fill="none" stroke="#000000" d="M27289.6 11020.5H28709.9"/>
<path transform="matrix(.00359712,0,0,-.00359712,0,79)" d="M27658.8 8641.3 27952.5 8926.64C28384.6 9308.92 28550.8 9458.52 28550.8 9735.53 28550.8 10051.3 28301.5 10272.9 27963.5 10272.9 27650.5 10272.9 27445.5 10018.1 27445.5 9771.55 27445.5 9616.41 27584 9616.41 27592.3 9616.41 27639.4 9616.41 27736.4 9649.66 27736.4 9763.23 27736.4 9835.25 27686.5 9907.28 27589.6 9907.28 27567.4 9907.28 27561.9 9907.28 27553.5 9904.52 27617.3 10084.6 27766.8 10187.1 27927.5 10187.1 28179.6 10187.1 28298.7 9962.69 28298.7 9735.53 28298.7 9513.91 28160.2 9295.06 28007.9 9123.31L27476 8530.5C27445.5 8500.03 27445.5 8494.48 27445.5 8428H28473.3L28550.8 8910.02H28481.6C28467.7 8826.91 28448.3 8705.02 28420.6 8663.47 28401.2 8641.3 28218.4 8641.3 28157.5 8641.3H27658.8"/>
<path transform="matrix(.00359712,0,0,-.00359712,0,79)" d="M30283.8 12365.4C30275.5 12323.9 30258.8 12260.2 30258.8 12246.3 30258.8 12196.5 30297.6 12171.5 30339.2 12171.5 30372.4 12171.5 30422.3 12193.7 30441.7 12249.1 30444.5 12254.6 30477.7 12384.8 30494.3 12454.1L30555.3 12703.4C30571.9 12764.3 30588.5 12825.3 30602.3 12889 30613.4 12936.1 30635.6 13016.4 30638.4 13027.5 30679.9 13113.4 30826.7 13365.5 31089.9 13365.5 31214.6 13365.5 31239.5 13263 31239.5 13171.6 31239.5 13102.3 31220.1 13024.8 31197.9 12941.6L31120.4 12620.3 31065 12409.8C31053.9 12354.4 31029 12260.2 31029 12246.3 31029 12196.5 31067.7 12171.5 31109.3 12171.5 31195.2 12171.5 31211.8 12240.8 31234 12329.4 31272.7 12484.6 31375.2 12889 31400.2 12997 31408.5 13033.1 31555.3 13365.5 31857.3 13365.5 31976.4 13365.5 32006.8 13271.3 32006.8 13171.6 32006.8 13013.7 31890.5 12697.9 31835.1 12551 31810.2 12484.6 31799.1 12454.1 31799.1 12398.7 31799.1 12268.5 31896 12171.5 32026.2 12171.5 32286.6 12171.5 32389.1 12576 32389.1 12598.1 32389.1 12625.8 32364.2 12625.8 32355.9 12625.8 32328.2 12625.8 32328.2 12617.5 32314.3 12576 32272.8 12429.2 32184.1 12232.5 32031.8 12232.5 31984.7 12232.5 31965.3 12260.2 31965.3 12323.9 31965.3 12393.1 31990.2 12459.6 32015.1 12520.6 32067.8 12664.6 32184.1 12972.1 32184.1 13130 32184.1 13310.1 32073.3 13426.4 31865.5 13426.4 31657.8 13426.4 31516.5 13304.5 31414 13157.7 31411.3 13193.7 31402.9 13287.9 31325.4 13354.4 31256.1 13412.6 31167.5 13426.4 31098.2 13426.4 30848.9 13426.4 30713.2 13249.1 30666.1 13185.4 30652.2 13343.3 30535.9 13426.4 30411.2 13426.4 30283.8 13426.4 30231.1 13318.4 30206.2 13268.5 30156.3 13171.6 30120.3 13008.1 30120.3 12999.8 30120.3 12972.1 30148 12972.1 30153.6 12972.1 30181.3 12972.1 30184 12974.9 30200.7 13035.8 30247.8 13232.5 30303.2 13365.5 30402.9 13365.5 30447.2 13365.5 30488.8 13343.3 30488.8 13238 30488.8 13179.9 30480.5 13149.4 30444.5 13005.4L30283.8 12365.4"/>
<path transform="matrix(.00359712,0,0,-.00359712,0,79)" d="M32906.3 12228C32960.5 12228 33113.7 12231.9 33218.4 12268.7 33361.9 12319.1 33389 12412.2 33389 12470.4 33389 12577 33282.4 12641 33148.6 12641 32916 12641 32601.9 12462.6 32601.9 12131.1 32601.9 11935.3 32724 11766.6 32950.9 11766.6 33278.5 11766.6 33431.7 11958.5 33431.7 11985.7 33431.7 11997.3 33414.2 12018.6 33398.7 12018.6 33387.1 12018.6 33383.2 12014.8 33367.7 11999.3 33216.5 11820.9 32989.6 11820.9 32954.7 11820.9 32838.4 11820.9 32760.9 11898.4 32760.9 12055.5 32760.9 12082.6 32760.9 12121.4 32784.1 12228H32906.3ZM32799.6 12282.3C32879.1 12563.4 33094.3 12586.7 33148.6 12586.7 33233.9 12586.7 33305.6 12544 33305.6 12470.4 33305.6 12282.3 32978 12282.3 32894.6 12282.3H32799.6"/>
<path transform="matrix(.00359712,0,0,-.00359712,0,79)" stroke-width="110.783" stroke-linecap="butt" stroke-miterlimit="10" stroke-linejoin="miter" fill="none" stroke="#000000" d="M29374.6 11020.5H34326.1"/>
<path transform="matrix(.00359712,0,0,-.00359712,0,79)" d="M29618.8 8591.44C29610.5 8549.89 29593.8 8486.17 29593.8 8472.33 29593.8 8422.45 29632.6 8397.53 29674.2 8397.53 29707.4 8397.53 29757.3 8419.69 29776.7 8475.09 29779.5 8480.64 29812.7 8610.83 29829.3 8680.09L29890.3 8929.41C29906.9 8990.34 29923.5 9051.3 29937.3 9115 29948.4 9162.09 29970.6 9242.44 29973.4 9253.52 30014.9 9339.39 30161.7 9591.48 30424.9 9591.48 30549.6 9591.48 30574.5 9488.98 30574.5 9397.56 30574.5 9328.31 30555.1 9250.75 30532.9 9167.64L30455.4 8846.3 30400 8635.77C30388.9 8580.36 30364 8486.17 30364 8472.33 30364 8422.45 30402.7 8397.53 30444.3 8397.53 30530.2 8397.53 30546.8 8466.78 30569 8555.42 30607.7 8710.56 30710.2 9115 30735.2 9223.05 30743.5 9259.06 30890.3 9591.48 31192.3 9591.48 31311.4 9591.48 31341.8 9497.3 31341.8 9397.56 31341.8 9239.67 31225.5 8923.86 31170.1 8777.05 31145.2 8710.56 31134.1 8680.09 31134.1 8624.69 31134.1 8494.48 31231 8397.53 31361.2 8397.53 31621.6 8397.53 31724.1 8801.97 31724.1 8824.14 31724.1 8851.84 31699.2 8851.84 31690.9 8851.84 31663.2 8851.84 31663.2 8843.53 31649.3 8801.97 31607.8 8655.16 31519.1 8458.47 31366.8 8458.47 31319.7 8458.47 31300.3 8486.17 31300.3 8549.89 31300.3 8619.14 31325.2 8685.63 31350.1 8746.58 31402.8 8890.63 31519.1 9198.11 31519.1 9356.02 31519.1 9536.08 31408.3 9652.42 31200.5 9652.42 30992.8 9652.42 30851.5 9530.53 30749 9383.72 30746.3 9419.73 30737.9 9513.91 30660.4 9580.39 30591.1 9638.58 30502.5 9652.42 30433.2 9652.42 30183.9 9652.42 30048.2 9475.13 30001.1 9411.42 29987.2 9569.31 29870.9 9652.42 29746.2 9652.42 29618.8 9652.42 29566.1 9544.39 29541.2 9494.52 29491.3 9397.56 29455.3 9234.13 29455.3 9225.81 29455.3 9198.11 29483 9198.11 29488.6 9198.11 29516.3 9198.11 29519 9200.88 29535.7 9261.83 29582.8 9458.52 29638.2 9591.48 29737.9 9591.48 29782.2 9591.48 29823.8 9569.31 29823.8 9464.05 29823.8 9405.88 29815.5 9375.41 29779.5 9231.36L29618.8 8591.44"/>
<path transform="matrix(.00359712,0,0,-.00359712,0,79)" d="M33814.5 9108.36 33849.4 9158.77C33890.1 9211.11 33936.6 9259.58 34031.6 9267.34 34053 9269.28 34076.2 9271.22 34076.2 9309.98 34076.2 9323.56 34064.6 9337.13 34049.1 9337.13 34004.5 9337.13 33948.3 9329.38 33901.7 9329.38 33833.9 9329.38 33750.5 9337.13 33686.5 9337.13 33676.8 9337.13 33645.8 9337.13 33645.8 9294.48 33645.8 9269.28 33673 9267.34 33680.7 9267.34 33723.4 9265.41 33787.4 9253.77 33787.4 9199.48 33787.4 9178.16 33766 9143.27 33758.3 9129.69L33211.6 8232.08 33104.9 9211.11C33104.9 9265.41 33217.4 9267.34 33240.6 9267.34 33265.8 9267.34 33293 9267.34 33293 9309.98 33293 9311.92 33291 9337.13 33260 9337.13 33223.2 9337.13 33176.7 9333.25 33139.8 9331.31 33101 9329.38 33050.6 9329.38 33011.9 9329.38 32967.3 9329.38 32852.9 9337.13 32808.3 9337.13 32798.6 9337.13 32769.5 9337.13 32769.5 9294.48 32769.5 9267.34 32794.7 9267.34 32819.9 9267.34 32903.3 9267.34 32913 9253.77 32918.8 9234.38 32920.8 9222.75 32924.6 9168.47 32932.4 9108.36L32399.3 8232.08 32296.5 9182.03C32296.5 9189.8 32292.6 9209.17 32292.6 9211.11 32292.6 9267.34 32412.8 9267.34 32428.3 9267.34 32453.5 9267.34 32480.7 9267.34 32480.7 9309.98 32480.7 9317.75 32474.9 9337.13 32449.7 9337.13 32393.4 9337.13 32255.8 9329.38 32199.6 9329.38 32135.6 9329.38 32054.2 9337.13 31996 9337.13 31976.6 9337.13 31957.2 9329.38 31957.2 9296.42 31957.2 9267.34 31980.5 9267.34 32011.5 9267.34 32102.6 9267.34 32102.6 9255.7 32108.4 9207.23L32238.3 8026.58C32242.2 7987.8 32244.1 7974.22 32279 7974.22 32312 7974.22 32325.6 7991.67 32337.2 8013L32942.1 9009.48 33048.7 8024.63C33052.6 7983.92 33062.3 7974.22 33091.4 7974.22 33124.3 7974.22 33136 7991.67 33149.5 8014.94L33814.5 9108.36"/>
<path transform="matrix(.00359712,0,0,-.00359712,0,79)" d="M37059.1 7725.83C37059.1 7736.91 37053.6 7742.45 37048 7750.77 36945.5 7853.25 36760 8038.86 36574.3 8338.05 36128.3 9052.75 35926.1 9953.06 35926.1 11019.6 35926.1 11764.8 36025.8 12726 36482.9 13551.5 36701.8 13944.9 36928.9 14172.1 37050.8 14293.9 37059.1 14302.3 37059.1 14307.8 37059.1 14316.1 37059.1 14343.8 37039.7 14343.8 37001 14343.8 36962.2 14343.8 36956.6 14343.8 36915.1 14302.3 35987.1 13457.3 35696.2 12188.6 35696.2 11022.4 35696.2 9933.67 35945.5 8836.67 36649.1 8008.39 36704.5 7944.67 36809.8 7831.09 36923.4 7731.38 36956.6 7698.13 36962.2 7698.13 37001 7698.13 37039.7 7698.13 37059.1 7698.13 37059.1 7725.83"/>
<path transform="matrix(.00359712,0,0,-.00359712,0,79)" d="M38305.4 13974.9C38305.4 14041.4 38305.4 14046.9 38241.7 14046.9 38070 13869.7 37826.2 13869.7 37737.5 13869.7V13783.8C37793 13783.8 37956.4 13783.8 38100.4 13855.8V12420.8C38100.4 12321.1 38092.1 12287.9 37842.8 12287.9H37754.2V12202C37851.1 12210.3 38092.1 12210.3 38202.9 12210.3 38313.8 12210.3 38554.8 12210.3 38651.7 12202V12287.9H38563.1C38313.8 12287.9 38305.4 12318.3 38305.4 12420.8V13974.9"/>
<path transform="matrix(.00359712,0,0,-.00359712,0,79)" d="M40624 12839.1H41396.9C41435.7 12839.1 41488.3 12839.1 41488.3 12894.5 41488.3 12950 41435.7 12950 41396.9 12950H40624V13725.6C40624 13764.4 40624 13817 40568.6 13817 40513.2 13817 40513.2 13764.4 40513.2 13725.6V12950H39737.5C39698.8 12950 39646.1 12950 39646.1 12894.5 39646.1 12839.1 39698.8 12839.1 39737.5 12839.1H40513.2V12063.5C40513.2 12024.7 40513.2 11972.1 40568.6 11972.1 40624 11972.1 40624 12024.7 40624 12063.5V12839.1"/>
<path transform="matrix(.00359712,0,0,-.00359712,0,79)" d="M42374.6 12905.6C42482.6 13224.2 42784.6 13227 42815 13227 43233.3 13227 43263.8 12742.2 43263.8 12523.3 43263.8 12354.4 43250 12307.3 43230.6 12251.9 43169.6 12049.6 43086.5 11728.3 43086.5 11656.3 43086.5 11625.8 43100.4 11606.4 43122.5 11606.4 43158.5 11606.4 43180.7 11667.4 43211.2 11772.6 43274.9 12005.3 43302.6 12163.2 43313.7 12249.1 43319.2 12285.1 43324.8 12321.1 43335.8 12357.1 43424.5 12631.4 43601.8 13044.1 43712.6 13263 43732 13296.2 43765.2 13357.2 43765.2 13368.3 43765.2 13396 43737.5 13396 43732 13396 43723.7 13396 43707 13396 43698.7 13376.6 43554.7 13113.4 43443.9 12836.4 43333.1 12556.6 43330.3 12642.5 43327.5 12853 43219.5 13121.7 43153 13290.7 43042.2 13426.4 42851 13426.4 42504.8 13426.4 42310.9 13005.4 42310.9 12919.5 42310.9 12891.8 42335.8 12891.8 42363.5 12891.8L42374.6 12905.6"/>
<path transform="matrix(.00359712,0,0,-.00359712,0,79)" d="M44149.5 14288.8C44248.4 14263.6 44306.5 14263.6 44337.5 14263.6 44593.5 14263.6 44744.7 14438.1 44744.7 14467.2 44744.7 14488.5 44731.1 14494.3 44721.4 14494.3 44717.5 14494.3 44713.7 14494.3 44705.9 14488.5 44659.4 14471 44556.6 14432.3 44413.2 14432.3 44358.9 14432.3 44256.1 14436.1 44130.1 14484.6 44110.7 14494.3 44106.8 14494.3 44104.9 14494.3 44079.7 14494.3 44079.7 14473 44079.7 14442V13870C44079.7 13837.1 44079.7 13813.8 44110.7 13813.8 44128.2 13813.8 44130.1 13817.7 44149.5 13841 44232.9 13947.6 44351.1 13963.1 44419 13963.1 44535.3 13963.1 44587.6 13870 44597.3 13854.5 44632.2 13790.5 44643.9 13716.9 44643.9 13604.4 44643.9 13546.3 44643.9 13431.9 44585.7 13346.6 44537.2 13276.8 44453.9 13230.3 44358.9 13230.3 44232.9 13230.3 44103 13300.1 44054.5 13428 44128.2 13422.2 44165 13470.7 44165 13523 44165 13606.4 44093.3 13621.9 44068.1 13621.9 44064.2 13621.9 43971.1 13621.9 43971.1 13517.2 43971.1 13342.7 44130.1 13168.2 44362.8 13168.2 44610.9 13168.2 44828 13352.4 44828 13596.7 44828 13815.8 44661.3 14017.4 44420.9 14017.4 44335.6 14017.4 44234.8 13996 44149.5 13922.4V14288.8"/>
<path transform="matrix(.00359712,0,0,-.00359712,0,79)" stroke-width="110.783" stroke-linecap="butt" stroke-miterlimit="10" stroke-linejoin="miter" fill="none" stroke="#000000" d="M37491.1 11020.5H45091"/>
<path transform="matrix(.00359712,0,0,-.00359712,0,79)" d="M40950.8 8641.3 41244.5 8926.64C41676.6 9308.92 41842.8 9458.52 41842.8 9735.53 41842.8 10051.3 41593.5 10272.9 41255.5 10272.9 40942.5 10272.9 40737.5 10018.1 40737.5 9771.55 40737.5 9616.41 40876 9616.41 40884.3 9616.41 40931.4 9616.41 41028.4 9649.66 41028.4 9763.23 41028.4 9835.25 40978.5 9907.28 40881.6 9907.28 40859.4 9907.28 40853.9 9907.28 40845.5 9904.52 40909.3 10084.6 41058.8 10187.1 41219.5 10187.1 41471.6 10187.1 41590.7 9962.69 41590.7 9735.53 41590.7 9513.91 41452.2 9295.06 41299.9 9123.31L40768 8530.5C40737.5 8500.03 40737.5 8494.48 40737.5 8428H41765.3L41842.8 8910.02H41773.6C41759.7 8826.91 41740.3 8705.02 41712.6 8663.47 41693.2 8641.3 41510.4 8641.3 41449.5 8641.3H40950.8"/>
<path transform="matrix(.00359712,0,0,-.00359712,0,79)" d="M47172 10965.1H47944.9C47983.7 10965.1 48036.3 10965.1 48036.3 11020.5 48036.3 11076 47983.7 11076 47944.9 11076H47172V11851.6C47172 11890.4 47172 11943 47116.6 11943 47061.2 11943 47061.2 11890.4 47061.2 11851.6V11076H46285.5C46246.8 11076 46194.1 11076 46194.1 11020.5 46194.1 10965.1 46246.8 10965.1 46285.5 10965.1H47061.2V10189.5C47061.2 10150.7 47061.2 10098.1 47116.6 10098.1 47172 10098.1 47172 10150.7 47172 10189.5V10965.1"/>
<path transform="matrix(.00359712,0,0,-.00359712,0,79)" d="M49955.4 13974.9C49955.4 14041.4 49955.4 14046.9 49891.7 14046.9 49720 13869.7 49476.2 13869.7 49387.5 13869.7V13783.8C49443 13783.8 49606.4 13783.8 49750.4 13855.8V12420.8C49750.4 12321.1 49742.1 12287.9 49492.8 12287.9H49404.2V12202C49501.1 12210.3 49742.1 12210.3 49852.9 12210.3 49963.8 12210.3 50204.8 12210.3 50301.7 12202V12287.9H50213.1C49963.8 12287.9 49955.4 12318.3 49955.4 12420.8V13974.9"/>
<path transform="matrix(.00359712,0,0,-.00359712,0,79)" d="M52966.5 12839.1C53013.6 12839.1 53063.5 12839.1 53063.5 12894.5 53063.5 12950 53013.6 12950 52966.5 12950H51467.9C51420.8 12950 51370.9 12950 51370.9 12894.5 51370.9 12839.1 51420.8 12839.1 51467.9 12839.1H52966.5"/>
<path transform="matrix(.00359712,0,0,-.00359712,0,79)" d="M54024.6 12905.6C54132.6 13224.2 54434.6 13227 54465 13227 54883.3 13227 54913.8 12742.2 54913.8 12523.3 54913.8 12354.4 54900 12307.3 54880.6 12251.9 54819.6 12049.6 54736.5 11728.3 54736.5 11656.3 54736.5 11625.8 54750.4 11606.4 54772.5 11606.4 54808.5 11606.4 54830.7 11667.4 54861.2 11772.6 54924.9 12005.3 54952.6 12163.2 54963.7 12249.1 54969.2 12285.1 54974.8 12321.1 54985.8 12357.1 55074.5 12631.4 55251.8 13044.1 55362.6 13263 55382 13296.2 55415.2 13357.2 55415.2 13368.3 55415.2 13396 55387.5 13396 55382 13396 55373.7 13396 55357 13396 55348.7 13376.6 55204.7 13113.4 55093.9 12836.4 54983.1 12556.6 54980.3 12642.5 54977.5 12853 54869.5 13121.7 54803 13290.7 54692.2 13426.4 54501 13426.4 54154.8 13426.4 53960.9 13005.4 53960.9 12919.5 53960.9 12891.8 53985.8 12891.8 54013.5 12891.8L54024.6 12905.6"/>
<path transform="matrix(.00359712,0,0,-.00359712,0,79)" d="M55799.5 14288.8C55898.4 14263.6 55956.5 14263.6 55987.5 14263.6 56243.5 14263.6 56394.7 14438.1 56394.7 14467.2 56394.7 14488.5 56381.1 14494.3 56371.4 14494.3 56367.5 14494.3 56363.7 14494.3 56355.9 14488.5 56309.4 14471 56206.6 14432.3 56063.2 14432.3 56008.9 14432.3 55906.1 14436.1 55780.1 14484.6 55760.7 14494.3 55756.8 14494.3 55754.9 14494.3 55729.7 14494.3 55729.7 14473 55729.7 14442V13870C55729.7 13837.1 55729.7 13813.8 55760.7 13813.8 55778.2 13813.8 55780.1 13817.7 55799.5 13841 55882.9 13947.6 56001.1 13963.1 56069 13963.1 56185.3 13963.1 56237.6 13870 56247.3 13854.5 56282.2 13790.5 56293.9 13716.9 56293.9 13604.4 56293.9 13546.3 56293.9 13431.9 56235.7 13346.6 56187.2 13276.8 56103.9 13230.3 56008.9 13230.3 55882.9 13230.3 55753 13300.1 55704.5 13428 55778.2 13422.2 55815 13470.7 55815 13523 55815 13606.4 55743.3 13621.9 55718.1 13621.9 55714.2 13621.9 55621.1 13621.9 55621.1 13517.2 55621.1 13342.7 55780.1 13168.2 56012.8 13168.2 56260.9 13168.2 56478 13352.4 56478 13596.7 56478 13815.8 56311.3 14017.4 56070.9 14017.4 55985.6 14017.4 55884.8 13996 55799.5 13922.4V14288.8"/>
<path transform="matrix(.00359712,0,0,-.00359712,0,79)" stroke-width="110.783" stroke-linecap="butt" stroke-miterlimit="10" stroke-linejoin="miter" fill="none" stroke="#000000" d="M49140.9 11020.5H56740.9"/>
<path transform="matrix(.00359712,0,0,-.00359712,0,79)" d="M52599.8 8641.3 52893.5 8926.64C53325.6 9308.92 53491.8 9458.52 53491.8 9735.53 53491.8 10051.3 53242.5 10272.9 52904.5 10272.9 52591.5 10272.9 52386.5 10018.1 52386.5 9771.55 52386.5 9616.41 52525 9616.41 52533.3 9616.41 52580.4 9616.41 52677.4 9649.66 52677.4 9763.23 52677.4 9835.25 52627.5 9907.28 52530.6 9907.28 52508.4 9907.28 52502.9 9907.28 52494.5 9904.52 52558.3 10084.6 52707.8 10187.1 52868.5 10187.1 53120.6 10187.1 53239.7 9962.69 53239.7 9735.53 53239.7 9513.91 53101.2 9295.06 52948.9 9123.31L52417 8530.5C52386.5 8500.03 52386.5 8494.48 52386.5 8428H53414.3L53491.8 8910.02H53422.6C53408.7 8826.91 53389.3 8705.02 53361.6 8663.47 53342.2 8641.3 53159.4 8641.3 53098.5 8641.3H52599.8"/>
<path transform="matrix(.00359712,0,0,-.00359712,0,79)" d="M58532.9 11019.6C58532.9 12108.3 58283.6 13205.3 57579.9 14033.5 57524.5 14097.3 57419.3 14210.8 57305.7 14310.6 57272.5 14343.8 57266.9 14343.8 57228.1 14343.8 57194.9 14343.8 57170 14343.8 57170 14316.1 57170 14305 57181 14293.9 57186.6 14288.4 57283.5 14188.7 57469.1 14003.1 57654.7 13703.9 58100.7 12989.2 58303 12088.9 58303 11022.4 58303 10277.2 58203.2 9315.92 57746.2 8490.41 57527.3 8097.03 57297.4 7867.11 57181 7750.77 57175.5 7742.45 57170 7734.14 57170 7725.83 57170 7698.13 57194.9 7698.13 57228.1 7698.13 57266.9 7698.13 57272.5 7698.13 57314 7739.67 58242 8584.59 58532.9 9853.33 58532.9 11019.6"/>
<path transform="matrix(.00359712,0,0,-.00359712,0,79)" d="M61784.1 11233.8C61825.7 11233.8 61878.3 11233.8 61878.3 11289.3 61878.3 11344.7 61825.7 11344.7 61786.9 11344.7H60127.5C60088.8 11344.7 60036.1 11344.7 60036.1 11289.3 60036.1 11233.8 60088.8 11233.8 60130.3 11233.8H61784.1ZM61786.9 10696.4C61825.7 10696.4 61878.3 10696.4 61878.3 10751.8 61878.3 10807.3 61825.7 10807.3 61784.1 10807.3H60130.3C60088.8 10807.3 60036.1 10807.3 60036.1 10751.8 60036.1 10696.4 60088.8 10696.4 60127.5 10696.4H61786.9"/>
<path transform="matrix(.00359712,0,0,-.00359712,0,79)" d="M64630.5 10965.1C64677.6 10965.1 64727.5 10965.1 64727.5 11020.5 64727.5 11076 64677.6 11076 64630.5 11076H63131.9C63084.8 11076 63034.9 11076 63034.9 11020.5 63034.9 10965.1 63084.8 10965.1 63131.9 10965.1H64630.5"/>
<path transform="matrix(.00359712,0,0,-.00359712,0,79)" d="M65745.7 12059.4C65745.7 12114.8 65707 12159.1 65643.2 12159.1 65568.4 12159.1 65493.6 12087.1 65493.6 12012.3 65493.6 11959.6 65532.4 11912.5 65598.9 11912.5 65662.6 11912.5 65745.7 11976.3 65745.7 12059.4ZM65535.2 11017.8C65568.4 11098.1 65568.4 11103.7 65596.1 11178.5 65618.3 11233.8 65632.2 11272.6 65632.2 11325.3 65632.2 11449.9 65543.5 11552.4 65405 11552.4 65144.6 11552.4 65039.3 11150.8 65039.3 11125.8 65039.3 11098.1 65067 11098.1 65072.6 11098.1 65100.3 11098.1 65103 11103.7 65116.9 11148 65191.7 11408.4 65302.5 11491.5 65396.7 11491.5 65418.8 11491.5 65465.9 11491.5 65465.9 11402.8 65465.9 11344.7 65446.5 11286.5 65435.5 11258.8 65413.3 11186.8 65288.7 10865.4 65244.3 10746.3 65216.6 10674.3 65180.6 10582.9 65180.6 10524.7 65180.6 10394.5 65274.8 10297.5 65407.8 10297.5 65668.2 10297.5 65770.7 10699.2 65770.7 10724.1 65770.7 10751.8 65745.7 10751.8 65737.4 10751.8 65709.7 10751.8 65709.7 10743.5 65695.9 10702 65646 10527.5 65554.6 10358.5 65413.3 10358.5 65366.2 10358.5 65346.8 10386.2 65346.8 10449.9 65346.8 10519.1 65363.5 10557.9 65427.2 10726.9L65535.2 11017.8"/>
<path transform="matrix(.00359712,0,0,-.00359712,0,79)" d="M67549.8 13246.4C67552.5 13263 67558.1 13276.8 67558.1 13296.2 67558.1 13343.3 67524.8 13371 67477.7 13371 67450 13371 67375.2 13351.6 67364.2 13251.9 67314.3 13354.4 67217.3 13426.4 67106.5 13426.4 66790.7 13426.4 66447.2 13038.6 66447.2 12639.7 66447.2 12365.4 66616.2 12202 66815.7 12202 66979.1 12202 67109.3 12332.2 67137 12362.7L67139.8 12359.9C67081.6 12113.4 67048.4 11999.8 67048.4 11994.2 67037.3 11969.3 66943.1 11695.1 66649.5 11695.1 66596.8 11695.1 66505.4 11697.8 66427.8 11722.8 66510.9 11747.7 66541.4 11819.7 66541.4 11866.8 66541.4 11911.1 66510.9 11963.8 66436.1 11963.8 66375.2 11963.8 66286.5 11913.9 66286.5 11803.1 66286.5 11689.5 66389 11634.1 66655 11634.1 67001.3 11634.1 67200.7 11850.2 67242.3 12016.4L67549.8 13246.4ZM67189.6 12556.6C67173 12484.6 67109.3 12415.3 67048.4 12362.7 66990.2 12312.8 66904.3 12262.9 66824 12262.9 66685.5 12262.9 66643.9 12407 66643.9 12517.8 66643.9 12650.8 66724.3 12977.7 66799 13118.9 66873.8 13254.7 66993 13365.5 67109.3 13365.5 67292.1 13365.5 67330.9 13141.1 67330.9 13127.3 67330.9 13113.4 67325.4 13096.8 67322.6 13085.7L67189.6 12556.6"/>
<path transform="matrix(.00359712,0,0,-.00359712,0,79)" stroke-width="110.783" stroke-linecap="butt" stroke-miterlimit="10" stroke-linejoin="miter" fill="none" stroke="#000000" d="M66245.5 11020.5H67666"/>
<path transform="matrix(.00359712,0,0,-.00359712,0,79)" d="M66614.8 8641.3 66908.5 8926.64C67340.6 9308.92 67506.8 9458.52 67506.8 9735.53 67506.8 10051.3 67257.5 10272.9 66919.5 10272.9 66606.5 10272.9 66401.5 10018.1 66401.5 9771.55 66401.5 9616.41 66540 9616.41 66548.3 9616.41 66595.4 9616.41 66692.4 9649.66 66692.4 9763.23 66692.4 9835.25 66642.5 9907.28 66545.6 9907.28 66523.4 9907.28 66517.9 9907.28 66509.5 9904.52 66573.3 10084.6 66722.8 10187.1 66883.5 10187.1 67135.6 10187.1 67254.7 9962.69 67254.7 9735.53 67254.7 9513.91 67116.2 9295.06 66963.9 9123.31L66432 8530.5C66401.5 8500.03 66401.5 8494.48 66401.5 8428H67429.3L67506.8 8910.02H67437.6C67423.7 8826.91 67404.3 8705.02 67376.6 8663.47 67357.2 8641.3 67174.4 8641.3 67113.5 8641.3H66614.8"/>
<path transform="matrix(.00359712,0,0,-.00359712,0,79)" d="M69239.8 12365.4C69231.5 12323.9 69214.8 12260.2 69214.8 12246.3 69214.8 12196.5 69253.6 12171.5 69295.2 12171.5 69328.4 12171.5 69378.3 12193.7 69397.7 12249.1 69400.5 12254.6 69433.7 12384.8 69450.3 12454.1L69511.3 12703.4C69527.9 12764.3 69544.5 12825.3 69558.3 12889 69569.4 12936.1 69591.6 13016.4 69594.4 13027.5 69635.9 13113.4 69782.7 13365.5 70045.9 13365.5 70170.6 13365.5 70195.5 13263 70195.5 13171.6 70195.5 13102.3 70176.1 13024.8 70153.9 12941.6L70076.4 12620.3 70021 12409.8C70009.9 12354.4 69985 12260.2 69985 12246.3 69985 12196.5 70023.7 12171.5 70065.3 12171.5 70151.2 12171.5 70167.8 12240.8 70190 12329.4 70228.7 12484.6 70331.2 12889 70356.2 12997 70364.5 13033.1 70511.3 13365.5 70813.3 13365.5 70932.4 13365.5 70962.8 13271.3 70962.8 13171.6 70962.8 13013.7 70846.5 12697.9 70791.1 12551 70766.2 12484.6 70755.1 12454.1 70755.1 12398.7 70755.1 12268.5 70852 12171.5 70982.2 12171.5 71242.6 12171.5 71345.1 12576 71345.1 12598.1 71345.1 12625.8 71320.2 12625.8 71311.9 12625.8 71284.2 12625.8 71284.2 12617.5 71270.3 12576 71228.8 12429.2 71140.1 12232.5 70987.8 12232.5 70940.7 12232.5 70921.3 12260.2 70921.3 12323.9 70921.3 12393.1 70946.2 12459.6 70971.1 12520.6 71023.8 12664.6 71140.1 12972.1 71140.1 13130 71140.1 13310.1 71029.3 13426.4 70821.5 13426.4 70613.8 13426.4 70472.5 13304.5 70370 13157.7 70367.3 13193.7 70358.9 13287.9 70281.4 13354.4 70212.1 13412.6 70123.5 13426.4 70054.2 13426.4 69804.9 13426.4 69669.2 13249.1 69622.1 13185.4 69608.2 13343.3 69491.9 13426.4 69367.2 13426.4 69239.8 13426.4 69187.1 13318.4 69162.2 13268.5 69112.3 13171.6 69076.3 13008.1 69076.3 12999.8 69076.3 12972.1 69104 12972.1 69109.6 12972.1 69137.3 12972.1 69140 12974.9 69156.7 13035.8 69203.8 13232.5 69259.2 13365.5 69358.9 13365.5 69403.2 13365.5 69444.8 13343.3 69444.8 13238 69444.8 13179.9 69436.5 13149.4 69400.5 13005.4L69239.8 12365.4"/>
<path transform="matrix(.00359712,0,0,-.00359712,0,79)" d="M71862.3 12228C71916.5 12228 72069.7 12231.9 72174.4 12268.7 72317.9 12319.1 72345 12412.2 72345 12470.4 72345 12577 72238.4 12641 72104.6 12641 71872 12641 71557.9 12462.6 71557.9 12131.1 71557.9 11935.3 71680 11766.6 71906.9 11766.6 72234.5 11766.6 72387.7 11958.5 72387.7 11985.7 72387.7 11997.3 72370.2 12018.6 72354.7 12018.6 72343.1 12018.6 72339.2 12014.8 72323.7 11999.3 72172.5 11820.9 71945.6 11820.9 71910.7 11820.9 71794.4 11820.9 71716.9 11898.4 71716.9 12055.5 71716.9 12082.6 71716.9 12121.4 71740.1 12228H71862.3ZM71755.6 12282.3C71835.1 12563.4 72050.3 12586.7 72104.6 12586.7 72189.9 12586.7 72261.6 12544 72261.6 12470.4 72261.6 12282.3 71934 12282.3 71850.6 12282.3H71755.6"/>
<path transform="matrix(.00359712,0,0,-.00359712,0,79)" stroke-width="110.783" stroke-linecap="butt" stroke-miterlimit="10" stroke-linejoin="miter" fill="none" stroke="#000000" d="M68330.7 11020.5H73281.9"/>
<path transform="matrix(.00359712,0,0,-.00359712,0,79)" d="M68574.8 8591.44C68566.5 8549.89 68549.8 8486.17 68549.8 8472.33 68549.8 8422.45 68588.6 8397.53 68630.2 8397.53 68663.4 8397.53 68713.3 8419.69 68732.7 8475.09 68735.5 8480.64 68768.7 8610.83 68785.3 8680.09L68846.3 8929.41C68862.9 8990.34 68879.5 9051.3 68893.3 9115 68904.4 9162.09 68926.6 9242.44 68929.4 9253.52 68970.9 9339.39 69117.7 9591.48 69380.9 9591.48 69505.6 9591.48 69530.5 9488.98 69530.5 9397.56 69530.5 9328.31 69511.1 9250.75 69488.9 9167.64L69411.4 8846.3 69356 8635.77C69344.9 8580.36 69320 8486.17 69320 8472.33 69320 8422.45 69358.7 8397.53 69400.3 8397.53 69486.2 8397.53 69502.8 8466.78 69525 8555.42 69563.7 8710.56 69666.2 9115 69691.2 9223.05 69699.5 9259.06 69846.3 9591.48 70148.3 9591.48 70267.4 9591.48 70297.8 9497.3 70297.8 9397.56 70297.8 9239.67 70181.5 8923.86 70126.1 8777.05 70101.2 8710.56 70090.1 8680.09 70090.1 8624.69 70090.1 8494.48 70187 8397.53 70317.2 8397.53 70577.6 8397.53 70680.1 8801.97 70680.1 8824.14 70680.1 8851.84 70655.2 8851.84 70646.9 8851.84 70619.2 8851.84 70619.2 8843.53 70605.3 8801.97 70563.8 8655.16 70475.1 8458.47 70322.8 8458.47 70275.7 8458.47 70256.3 8486.17 70256.3 8549.89 70256.3 8619.14 70281.2 8685.63 70306.1 8746.58 70358.8 8890.63 70475.1 9198.11 70475.1 9356.02 70475.1 9536.08 70364.3 9652.42 70156.5 9652.42 69948.8 9652.42 69807.5 9530.53 69705 9383.72 69702.3 9419.73 69693.9 9513.91 69616.4 9580.39 69547.1 9638.58 69458.5 9652.42 69389.2 9652.42 69139.9 9652.42 69004.2 9475.13 68957.1 9411.42 68943.2 9569.31 68826.9 9652.42 68702.2 9652.42 68574.8 9652.42 68522.1 9544.39 68497.2 9494.52 68447.3 9397.56 68411.3 9234.13 68411.3 9225.81 68411.3 9198.11 68439 9198.11 68444.6 9198.11 68472.3 9198.11 68475 9200.88 68491.7 9261.83 68538.8 9458.52 68594.2 9591.48 68693.9 9591.48 68738.2 9591.48 68779.8 9569.31 68779.8 9464.05 68779.8 9405.88 68771.5 9375.41 68735.5 9231.36L68574.8 8591.44"/>
<path transform="matrix(.00359712,0,0,-.00359712,0,79)" d="M72770.5 9108.36 72805.4 9158.77C72846.1 9211.11 72892.6 9259.58 72987.6 9267.34 73009 9269.28 73032.2 9271.22 73032.2 9309.98 73032.2 9323.56 73020.6 9337.13 73005.1 9337.13 72960.5 9337.13 72904.3 9329.38 72857.7 9329.38 72789.9 9329.38 72706.5 9337.13 72642.5 9337.13 72632.8 9337.13 72601.8 9337.13 72601.8 9294.48 72601.8 9269.28 72629 9267.34 72636.7 9267.34 72679.4 9265.41 72743.4 9253.77 72743.4 9199.48 72743.4 9178.16 72722 9143.27 72714.3 9129.69L72167.6 8232.08 72060.9 9211.11C72060.9 9265.41 72173.4 9267.34 72196.6 9267.34 72221.8 9267.34 72249 9267.34 72249 9309.98 72249 9311.92 72247 9337.13 72216 9337.13 72179.2 9337.13 72132.7 9333.25 72095.8 9331.31 72057 9329.38 72006.6 9329.38 71967.9 9329.38 71923.3 9329.38 71808.9 9337.13 71764.3 9337.13 71754.6 9337.13 71725.5 9337.13 71725.5 9294.48 71725.5 9267.34 71750.7 9267.34 71775.9 9267.34 71859.3 9267.34 71869 9253.77 71874.8 9234.38 71876.8 9222.75 71880.6 9168.47 71888.4 9108.36L71355.3 8232.08 71252.5 9182.03C71252.5 9189.8 71248.6 9209.17 71248.6 9211.11 71248.6 9267.34 71368.8 9267.34 71384.3 9267.34 71409.5 9267.34 71436.7 9267.34 71436.7 9309.98 71436.7 9317.75 71430.9 9337.13 71405.7 9337.13 71349.4 9337.13 71211.8 9329.38 71155.6 9329.38 71091.6 9329.38 71010.2 9337.13 70952 9337.13 70932.6 9337.13 70913.2 9329.38 70913.2 9296.42 70913.2 9267.34 70936.5 9267.34 70967.5 9267.34 71058.6 9267.34 71058.6 9255.7 71064.4 9207.23L71194.3 8026.58C71198.2 7987.8 71200.1 7974.22 71235 7974.22 71268 7974.22 71281.6 7991.67 71293.2 8013L71898.1 9009.48 72004.7 8024.63C72008.6 7983.92 72018.3 7974.22 72047.4 7974.22 72080.3 7974.22 72092 7991.67 72105.5 8014.94L72770.5 9108.36"/>
<path transform="matrix(.00359712,0,0,-.00359712,0,79)" d="M74145.9 10474.8C74145.9 10555.2 74079.4 10621.6 73999.1 10621.6 73918.7 10621.6 73852.2 10555.2 73852.2 10474.8 73852.2 10394.5 73918.7 10328 73999.1 10328 74079.4 10328 74145.9 10394.5 74145.9 10474.8"/>
</svg>
