<svg xmlns="http://www.w3.org/2000/svg" xmlns:xlink="http://www.w3.org/1999/xlink" version="1.1" width="220pt" height="72pt" viewBox="0 0 220 72">
<path transform="matrix(.00359712,0,0,-.00359712,0,72)" d="M17963.9 17937.6C17853.1 17752 17745 17713.2 17623.1 17704.9 17589.9 17702.1 17565 17702.1 17565 17649.5 17565 17632.8 17578.8 17619 17601 17619 17675.8 17619 17761.6 17627.3 17839.2 17627.3 17930.6 17627.3 18027.6 17619 18116.2 17619 18132.8 17619 18168.9 17619 18168.9 17671.6 18168.9 17702.1 18143.9 17704.9 18124.5 17704.9 18060.8 17710.4 17994.3 17732.6 17994.3 17801.8 17994.3 17835.1 18011 17865.5 18033.1 17904.3L18243.7 18258.9H18939C18944.5 18200.7 18983.3 17824 18983.3 17796.3 18983.3 17713.2 18839.3 17704.9 18783.8 17704.9 18745.1 17704.9 18717.4 17704.9 18717.4 17649.5 18717.4 17619 18750.6 17619 18756.1 17619 18869.7 17619 18988.8 17627.3 19102.4 17627.3 19171.7 17627.3 19346.2 17619 19415.4 17619 19432.1 17619 19465.3 17619 19465.3 17674.4 19465.3 17704.9 19437.6 17704.9 19401.6 17704.9 19229.8 17704.9 19229.8 17724.3 19221.5 17804.6L19052.5 19536C19047 19591.4 19047 19602.5 18999.9 19602.5 18955.6 19602.5 18944.5 19583.1 18927.9 19555.4L17963.9 17937.6ZM18296.3 18344.8 18842 19259 18930.7 18344.8H18296.3Z"/>
<path transform="matrix(.00359712,0,0,-.00359712,0,72)" d="M20031.6 19422.8C20033.5 19430.5 20035.5 19442.1 20035.5 19451.8 20035.5 19453.8 20035.5 19479 20004.5 19479 20002.5 19479 19892 19469.3 19878.5 19469.3 19841.6 19465.4 19806.7 19463.5 19769.9 19459.6 19738.9 19457.6 19715.6 19455.7 19715.6 19415 19715.6 19387.8 19742.8 19387.8 19766 19387.8 19859.1 19387.8 19859.1 19376.2 19859.1 19358.8 19859.1 19347.1 19849.4 19308.4 19841.6 19283.2L19744.7 18891.5C19696.2 18697.7 19686.5 18658.9 19686.5 18651.1 19686.5 18624 19715.6 18624 19723.4 18624H19754.4C19926.9 18651.1 20173.1 18742.3 20380.6 18926.4 20644.3 19161 20683 19413 20683 19416.9 20683 19451.8 20655.9 19479 20617.1 19479 20549.3 19479 20535.7 19424.7 20518.2 19370.4 20440.7 19095.1 20180.9 18798.5 19851.3 18701.5L20031.6 19422.8"/>
<path transform="matrix(.00359712,0,0,-.00359712,0,72)" d="M1193.86 18333.6C1083.06 18148 975.016 18109.2 853.125 18100.9 819.891 18098.1 794.953 18098.1 794.953 18045.5 794.953 18028.8 808.813 18015 830.969 18015 905.766 18015 991.641 18023.3 1069.2 18023.3 1160.63 18023.3 1257.58 18015 1346.22 18015 1362.84 18015 1398.86 18015 1398.86 18067.6 1398.86 18098.1 1373.92 18100.9 1354.53 18100.9 1290.81 18106.4 1224.33 18128.6 1224.33 18197.8 1224.33 18231.1 1240.95 18261.5 1263.13 18300.3L1473.66 18654.9H2168.97C2174.52 18596.7 2213.3 18220 2213.3 18192.3 2213.3 18109.2 2069.25 18100.9 2013.84 18100.9 1975.06 18100.9 1947.36 18100.9 1947.36 18045.5 1947.36 18015 1980.59 18015 1986.14 18015 2099.72 18015 2218.83 18023.3 2332.41 18023.3 2401.67 18023.3 2576.19 18015 2645.44 18015 2662.06 18015 2695.31 18015 2695.31 18070.4 2695.31 18100.9 2667.61 18100.9 2631.59 18100.9 2459.84 18100.9 2459.84 18120.3 2451.53 18200.6L2282.55 19932C2277 19987.4 2277 19998.5 2229.91 19998.5 2185.59 19998.5 2174.52 19979.1 2157.89 19951.4L1193.86 18333.6ZM1526.28 18740.8 2072.02 19655 2160.66 18740.8H1526.28Z"/>
<path transform="matrix(.00359712,0,0,-.00359712,0,72)" d="M2879.69 17286.9C2871.94 17257.8 2871.94 17248.1 2871.94 17246.2 2871.94 17203.5 2906.83 17184.1 2937.84 17184.1 3007.64 17184.1 3023.16 17248.1 3030.91 17281 3034.78 17290.8 3073.56 17445.8 3120.09 17635.8 3180.19 17595.1 3257.73 17579.6 3327.53 17579.6 3494.27 17579.6 3602.83 17715.3 3606.7 17719.2 3643.53 17585.4 3777.31 17579.6 3806.39 17579.6 3876.19 17579.6 3924.66 17622.3 3959.55 17682.4 4002.2 17758 4027.41 17868.5 4027.41 17876.2 4027.41 17901.4 4002.2 17901.4 3996.38 17901.4 3969.23 17901.4 3967.3 17893.7 3953.73 17841.3 3930.47 17748.3 3893.63 17633.9 3812.2 17633.9 3761.8 17633.9 3748.23 17676.5 3748.23 17728.9 3748.23 17761.8 3763.73 17831.6 3777.31 17882 3790.88 17934.4 3810.27 18013.9 3819.95 18056.5L3864.55 18229.1C3876.19 18277.5 3897.5 18362.8 3897.5 18372.5 3897.5 18411.3 3866.48 18434.6 3833.53 18434.6 3812.2 18434.6 3775.38 18424.9 3754.05 18388 3748.23 18376.4 3732.72 18314.4 3723.03 18275.6L3682.31 18114.7 3622.22 17872.4C3608.64 17823.9 3608.64 17820 3591.19 17794.8 3531.09 17709.5 3445.8 17633.9 3335.28 17633.9 3176.31 17633.9 3176.31 17771.5 3176.31 17806.4 3176.31 17856.8 3182.13 17882 3209.27 17986.7 3228.66 18072 3232.53 18085.6 3251.92 18161.2L3279.06 18269.8C3288.75 18310.5 3308.14 18384.2 3308.14 18391.9 3308.14 18426.8 3281 18454 3242.23 18454 3172.44 18454 3154.98 18386.1 3149.17 18362.8L2879.69 17286.9"/>
<path transform="matrix(.00359712,0,0,-.00359712,0,72)" d="M2599.27 2847.7C2668.52 2969.58 2735 3069.31 2909.52 3083.16 2934.45 3085.94 2962.16 3085.94 2962.16 3138.56 2962.16 3149.64 2951.08 3169.03 2928.92 3169.03 2862.44 3169.03 2784.86 3160.73 2715.61 3160.73 2621.42 3160.73 2518.92 3169.03 2427.52 3169.03 2410.89 3169.03 2374.88 3169.03 2374.88 3116.41 2374.88 3085.94 2399.81 3083.16 2416.44 3083.16 2482.92 3080.39 2579.88 3058.23 2579.88 2975.13 2579.88 2944.66 2566.02 2922.48 2543.86 2883.7L1795.91 1578.95 1693.41 2952.97C1690.64 3008.38 1685.09 3080.39 1887.33 3083.16 1934.42 3083.16 1962.13 3083.16 1962.13 3138.56 1962.13 3166.27 1931.64 3169.03 1920.56 3169.03 1809.77 3169.03 1693.41 3160.73 1582.61 3160.73 1518.89 3160.73 1355.45 3169.03 1291.73 3169.03 1275.11 3169.03 1239.09 3169.03 1239.09 3113.64 1239.09 3083.16 1266.8 3083.16 1305.58 3083.16 1427.47 3083.16 1446.86 3066.55 1452.41 3013.91L1469.03 2800.61 768.172 1578.95 662.906 2983.44C662.906 3016.67 662.906 3080.39 873.438 3083.16 901.141 3083.16 931.609 3083.16 931.609 3138.56 931.609 3169.03 898.359 3169.03 892.828 3169.03 782.016 3169.03 665.672 3160.73 552.094 3160.73 455.141 3160.73 355.406 3169.03 261.219 3169.03 247.375 3169.03 211.359 3169.03 211.359 3116.41 211.359 3083.16 236.297 3083.16 280.609 3083.16 419.125 3083.16 421.891 3058.23 427.438 2980.67L552.094 1288.08C554.859 1238.22 557.641 1216.06 596.422 1216.06 629.656 1216.06 637.969 1232.67 662.906 1274.23L1477.34 2687.03 1579.83 1288.08C1585.38 1229.91 1590.91 1216.06 1624.16 1216.06 1660.17 1216.06 1676.8 1243.75 1690.64 1268.69L2599.27 2847.7"/>
<path transform="matrix(.00359712,0,0,-.00359712,0,72)" d="M3957.63 2720.14H4550.86C4576.06 2720.14 4622.59 2720.14 4622.59 2766.67 4622.59 2815.14 4578 2815.14 4550.86 2815.14H3957.63V3410.33C3957.63 3435.53 3957.63 3482.06 3911.09 3482.06 3862.63 3482.06 3862.63 3437.47 3862.63 3410.33V2815.14H3267.44C3242.23 2815.14 3195.7 2815.14 3195.7 2768.61 3195.7 2720.14 3240.3 2720.14 3267.44 2720.14H3862.63V2124.97C3862.63 2099.77 3862.63 2053.23 3909.16 2053.23 3957.63 2053.23 3957.63 2097.83 3957.63 2124.97V2720.14"/>
<path transform="matrix(.00359712,0,0,-.00359712,0,72)" d="M2779.69 279.875C2771.94 250.781 2771.94 241.094 2771.94 239.156 2771.94 196.5 2806.83 177.125 2837.84 177.125 2907.64 177.125 2923.16 235.281 2936.72 297.313 2963.86 398.125 3018.16 619.141 3037.53 692.813 3054.98 663.734 3117.03 572.609 3250.8 572.609 3498.95 572.609 3762.61 836.281 3762.61 1119.33 3762.61 1324.83 3624.97 1446.97 3454.36 1446.97 3264.36 1446.97 3029.78 1280.23 2961.92 1006.88L2779.69 279.875ZM3248.86 626.891C3105.39 626.891 3062.73 770.359 3062.73 795.563 3062.73 799.438 3074.38 842.094 3080.19 865.359 3138.34 1103.81 3149.98 1148.41 3206.2 1233.7 3276 1336.47 3372.94 1392.69 3450.48 1392.69 3529.97 1392.69 3605.58 1336.47 3605.58 1196.88 3605.58 1107.69 3555.17 892.5 3495.08 795.563 3405.89 657.922 3308.95 626.891 3248.86 626.891"/>
<path transform="matrix(.00359712,0,0,-.00359712,0,72)" d="M19301.3 2658.7C19370.5 2780.58 19437 2880.31 19611.5 2894.16 19636.5 2896.94 19664.2 2896.94 19664.2 2949.56 19664.2 2960.64 19653.1 2980.03 19630.9 2980.03 19564.4 2980.03 19486.9 2971.73 19417.6 2971.73 19323.4 2971.73 19220.9 2980.03 19129.5 2980.03 19112.9 2980.03 19076.9 2980.03 19076.9 2927.41 19076.9 2896.94 19101.8 2894.16 19118.4 2894.16 19184.9 2891.39 19281.9 2869.23 19281.9 2786.13 19281.9 2755.66 19268 2733.48 19245.9 2694.7L18497.9 1389.95 18395.4 2763.97C18392.6 2819.38 18387.1 2891.39 18589.3 2894.16 18636.4 2894.16 18664.1 2894.16 18664.1 2949.56 18664.1 2977.27 18633.6 2980.03 18622.6 2980.03 18511.8 2980.03 18395.4 2971.73 18284.6 2971.73 18220.9 2971.73 18057.5 2980.03 17993.7 2980.03 17977.1 2980.03 17941.1 2980.03 17941.1 2924.64 17941.1 2894.16 17968.8 2894.16 18007.6 2894.16 18129.5 2894.16 18148.9 2877.55 18154.4 2824.91L18171 2611.61 17470.2 1389.95 17364.9 2794.44C17364.9 2827.67 17364.9 2891.39 17575.4 2894.16 17603.1 2894.16 17633.6 2894.16 17633.6 2949.56 17633.6 2980.03 17600.4 2980.03 17594.8 2980.03 17484 2980.03 17367.7 2971.73 17254.1 2971.73 17157.1 2971.73 17057.4 2980.03 16963.2 2980.03 16949.4 2980.03 16913.4 2980.03 16913.4 2927.41 16913.4 2894.16 16938.3 2894.16 16982.6 2894.16 17121.1 2894.16 17123.9 2869.23 17129.4 2791.67L17254.1 1099.08C17256.9 1049.22 17259.6 1027.06 17298.4 1027.06 17331.7 1027.06 17340 1043.67 17364.9 1085.23L18179.3 2498.03 18281.8 1099.08C18287.4 1040.91 18292.9 1027.06 18326.2 1027.06 18362.2 1027.06 18378.8 1054.75 18392.6 1079.69L19301.3 2658.7"/>
<path transform="matrix(.00359712,0,0,-.00359712,0,72)" d="M21203.4 2531.14C21234.4 2531.14 21280.9 2531.14 21280.9 2577.67 21280.9 2626.14 21236.3 2626.14 21203.4 2626.14H20047.9C20016.9 2626.14 19970.4 2626.14 19970.4 2579.61 19970.4 2531.14 20015 2531.14 20047.9 2531.14H21203.4"/>
<path transform="matrix(.00359712,0,0,-.00359712,0,72)" d="M20511.1 1106.75C20544.1 1106.75 20561.5 1106.75 20582.9 1122.27 20608.1 1143.58 20613.9 1170.72 20613.9 1184.3 20613.9 1238.58 20563.5 1238.58 20530.5 1238.58H20034.2C19724 1238.58 19491.4 932.266 19491.4 699.625 19491.4 519.328 19625.2 383.609 19822.9 383.609 20067.2 383.609 20346.3 604.625 20346.3 901.25 20346.3 932.266 20346.3 1019.5 20288.2 1106.75H20511.1ZM19824.8 437.891C19720.2 437.891 19632.9 507.688 19632.9 645.344 19632.9 703.5 19667.8 1106.75 20001.3 1106.75 20100.1 1106.75 20201 1069.91 20201 922.578 20201 887.672 20183.5 713.188 20088.5 583.297 20007.1 476.672 19898.5 437.891 19824.8 437.891"/>
<path transform="matrix(.00359712,0,0,-.00359712,0,72)" stroke-width="110.783" stroke-linecap="butt" stroke-miterlimit="10" stroke-linejoin="miter" fill="none" stroke="#000000" d="M4799.23 16244.1 4899.73 16143.7 5122.63 16165.6 5312.73 16154.7 5446.02 16087 5513.73 15953.7 5524.63 15763.6 5502.74 15540.7 5480.86 15317.8 5491.76 15127.7 5559.46 14994.4 5692.77 14926.7 5882.86 14915.9 6105.76 14937.8 6328.65 14959.7 6518.75 14948.8 6652.05 14881.1 6719.75 14747.8 6730.65 14557.7 6708.77 14334.8 6686.89 14111.9 6697.79 13921.9 6765.5 13788.6 6898.79 13720.9 7088.89 13710 7311.78 13731.9 7534.68 13753.8 7724.78 13742.9 7858.07 13675.3 7925.78 13542 7936.68 13351.9 7914.8 13129 7892.91 12906.1 7903.81 12716 7971.52 12582.7 8104.82 12515 8294.92 12504.1 8517.81 12526 8740.71 12548 8930.8 12537.1 9064.11 12469.4 9131.81 12336.1 9142.71 12146 9120.83 11923.1 9098.94 11700.2 9109.84 11510.1 9177.55 11376.8 9310.85 11309.1 9500.95 11298.3 9723.84 11320.2 9946.73 11342.1 10136.8 11331.2 10270.1 11263.5 10337.8 11130.2 10348.7 10940.1 10326.9 10717.2 10305 10494.3 10315.9 10304.2 10383.6 10171 10837.3 10206.8"/>
<path transform="matrix(.00359712,0,0,-.00359712,0,72)" stroke-width="110.783" stroke-linecap="butt" stroke-miterlimit="10" stroke-linejoin="miter" fill="none" stroke="#000000" d="M10837.3 10206.8 10944.4 10313.9 10929.1 10543.4 10946.7 10740.2 11021 10880.1 11160.9 10954.4 11357.7 10971.9 11587.2 10956.6 11816.7 10941.4 12013.5 10958.9 12153.4 11033.2 12227.7 11173.1 12245.3 11369.9 12230 11599.4 12214.8 11828.9 12232.3 12025.7 12306.6 12165.6 12446.6 12239.9 12643.3 12257.4 12872.8 12242.1 13102.4 12226.9 13299.1 12244.4 13439 12318.7 13513.4 12458.6 13530.9 12655.4 13515.6 12884.9 13500.4 13114.4 13517.9 13311.2 13592.2 13451.1 13732.2 13525.4 13928.9 13542.9 14158.4 13527.6 14388 13512.4 14584.7 13529.9 14724.6 13604.2 14799 13744.1 14816.5 13940.9 14801.2 14170.4 14786 14399.9 14803.5 14596.7 14877.9 14736.6 15017.8 14810.9 15214.5 14828.4 15444.1 14813.1 15673.6 14797.9 15870.3 14815.4 16010.2 14889.7 16084.6 15029.6 16102.1 15226.4 16086.9 15455.9 16071.6 15685.4 16089.1 15882.2 16163.5 16022.1 16303.4 16096.4 16500.1 16113.9 16729.7 16098.7 16959.2 16083.4 17155.9 16100.9 17295.9 16175.2 17271.4 16640.4"/>
<path transform="matrix(.00359712,0,0,-.00359712,0,72)" stroke-width="110.783" stroke-linecap="butt" stroke-miterlimit="10" stroke-linejoin="miter" fill="none" stroke="#000000" d="M5090.12 4460.37 5185.77 4556.02 5159.04 4774.07 5165.11 4959.32 5227.97 5087.78 5356.43 5150.63 5541.69 5156.67 5759.74 5129.91 5977.79 5103.15 6163.05 5109.19 6291.5 5172.04 6354.37 5300.49 6360.43 5485.75 6333.71 5703.8 6306.98 5921.85 6313.04 6107.11 6375.9 6235.56 6504.36 6298.41 6689.62 6304.45 6907.67 6277.69 7125.72 6250.94 7310.98 6256.98 7439.44 6319.83 7502.3 6448.27 7508.36 6633.53 7481.64 6851.58 7454.91 7069.64 7460.97 7254.89 7523.84 7383.34 7652.29 7446.2 7837.55 7452.23 8055.61 7425.48 8273.65 7398.71 8458.91 7404.76 8587.37 7467.61 8650.23 7596.05 8656.3 7781.31 8629.57 7999.37 8602.84 8217.42 8608.91 8402.68 8671.77 8531.13 8800.23 8593.97 8985.48 8600.02 9203.54 8573.26 9421.59 8546.5 9606.84 8552.55 9735.3 8615.39 9798.16 8743.84 9804.23 8929.09 9777.5 9147.15 9750.77 9365.2 9756.83 9550.46 9819.7 9678.91 9948.16 9741.76 10133.4 9747.8 10351.5 9721.04 10569.5 9694.29 10754.8 9700.32 10883.2 9763.18 10837.3 10206.8"/>
<path transform="matrix(.00359712,0,0,-.00359712,0,72)" stroke-width="110.783" stroke-linecap="butt" stroke-miterlimit="10" stroke-linejoin="miter" fill="none" stroke="#000000" d="M10837.3 10206.8 10936.1 10108 11157.3 10131.6 11345.7 10122.4 11477.2 10056.4 11543.3 9924.86 11552.4 9736.47 11528.9 9515.27 11505.3 9294.08 11514.5 9105.69 11580.5 8974.1 11712.1 8908.12 11900.5 8898.94 12121.7 8922.55 12342.8 8946.18 12531.2 8937 12662.8 8871.01 12728.8 8739.42 12738 8551.03 12714.4 8329.84 12690.9 8108.65 12700.1 7920.25 12766.1 7788.67 12897.7 7722.68 13086.1 7713.5 13307.2 7737.13 13528.4 7760.74 13716.8 7751.56 13848.4 7685.58 13914.4 7554 13923.6 7365.6 13900 7144.41 13876.4 6923.21 13885.6 6734.82 13951.7 6603.23 14083.2 6537.25 14271.6 6528.07 14492.8 6551.69 14714 6575.31 14902.4 6566.13 15034 6500.14 15100 6368.56 15109.2 6180.17 15085.6 5958.97 15062 5737.78 15071.2 5549.39 15137.2 5417.8 15268.8 5351.82 15457.2 5342.64 15678.4 5366.26 15899.6 5389.88 16088 5380.7 16219.6 5314.71 16285.6 5183.13 16294.8 4994.73 16271.2 4773.54 16247.6 4552.35 16256.8 4363.96 16322.8 4232.37 16772.9 4271.89"/>
<path transform="matrix(.00359712,0,0,-.00359712,0,72)" d="M14356.3 10674.7C14425.5 10796.6 14492 10896.3 14666.5 10910.2 14691.5 10912.9 14719.2 10912.9 14719.2 10965.6 14719.2 10976.6 14708.1 10996 14685.9 10996 14619.4 10996 14541.9 10987.7 14472.6 10987.7 14378.4 10987.7 14275.9 10996 14184.5 10996 14167.9 10996 14131.9 10996 14131.9 10943.4 14131.9 10912.9 14156.8 10910.2 14173.4 10910.2 14239.9 10907.4 14336.9 10885.2 14336.9 10802.1 14336.9 10771.7 14323 10749.5 14300.9 10710.7L13552.9 9405.95 13450.4 10780C13447.6 10835.4 13442.1 10907.4 13644.3 10910.2 13691.4 10910.2 13719.1 10910.2 13719.1 10965.6 13719.1 10993.3 13688.6 10996 13677.6 10996 13566.8 10996 13450.4 10987.7 13339.6 10987.7 13275.9 10987.7 13112.5 10996 13048.7 10996 13032.1 10996 12996.1 10996 12996.1 10940.6 12996.1 10910.2 13023.8 10910.2 13062.6 10910.2 13184.5 10910.2 13203.9 10893.5 13209.4 10840.9L13226 10627.6 12525.2 9405.95 12419.9 10810.4C12419.9 10843.7 12419.9 10907.4 12630.4 10910.2 12658.1 10910.2 12688.6 10910.2 12688.6 10965.6 12688.6 10996 12655.4 10996 12649.8 10996 12539 10996 12422.7 10987.7 12309.1 10987.7 12212.1 10987.7 12112.4 10996 12018.2 10996 12004.4 10996 11968.4 10996 11968.4 10943.4 11968.4 10910.2 11993.3 10910.2 12037.6 10910.2 12176.1 10910.2 12178.9 10885.2 12184.4 10807.7L12309.1 9115.08C12311.9 9065.22 12314.6 9043.06 12353.4 9043.06 12386.7 9043.06 12395 9059.67 12419.9 9101.23L13234.3 10514 13336.8 9115.08C13342.4 9056.91 13347.9 9043.06 13381.2 9043.06 13417.2 9043.06 13433.8 9070.75 13447.6 9095.69L14356.3 10674.7"/>
<path transform="matrix(.00359712,0,0,-.00359712,0,72)" d="M16258.4 10547.1C16289.4 10547.1 16335.9 10547.1 16335.9 10593.7 16335.9 10642.1 16291.3 10642.1 16258.4 10642.1H15102.9C15071.9 10642.1 15025.4 10642.1 15025.4 10595.6 15025.4 10547.1 15070 10547.1 15102.9 10547.1H16258.4"/>
<path transform="matrix(.00359712,0,0,-.00359712,0,72)" d="M7560.27 10674.7C7629.52 10796.6 7696 10896.3 7870.52 10910.2 7895.45 10912.9 7923.16 10912.9 7923.16 10965.6 7923.16 10976.6 7912.08 10996 7889.92 10996 7823.44 10996 7745.86 10987.7 7676.61 10987.7 7582.42 10987.7 7479.92 10996 7388.52 10996 7371.89 10996 7335.88 10996 7335.88 10943.4 7335.88 10912.9 7360.81 10910.2 7377.44 10910.2 7443.92 10907.4 7540.88 10885.2 7540.88 10802.1 7540.88 10771.7 7527.02 10749.5 7504.86 10710.7L6756.91 9405.95 6654.41 10780C6651.64 10835.4 6646.09 10907.4 6848.33 10910.2 6895.42 10910.2 6923.13 10910.2 6923.13 10965.6 6923.13 10993.3 6892.64 10996 6881.56 10996 6770.77 10996 6654.41 10987.7 6543.61 10987.7 6479.89 10987.7 6316.45 10996 6252.73 10996 6236.11 10996 6200.09 10996 6200.09 10940.6 6200.09 10910.2 6227.8 10910.2 6266.58 10910.2 6388.47 10910.2 6407.86 10893.5 6413.41 10840.9L6430.03 10627.6 5729.17 9405.95 5623.91 10810.4C5623.91 10843.7 5623.91 10907.4 5834.44 10910.2 5862.14 10910.2 5892.61 10910.2 5892.61 10965.6 5892.61 10996 5859.36 10996 5853.83 10996 5743.02 10996 5626.67 10987.7 5513.09 10987.7 5416.14 10987.7 5316.41 10996 5222.22 10996 5208.38 10996 5172.36 10996 5172.36 10943.4 5172.36 10910.2 5197.3 10910.2 5241.61 10910.2 5380.13 10910.2 5382.89 10885.2 5388.44 10807.7L5513.09 9115.08C5515.86 9065.22 5518.64 9043.06 5557.42 9043.06 5590.66 9043.06 5598.97 9059.67 5623.91 9101.23L6438.34 10514 6540.83 9115.08C6546.38 9056.91 6551.91 9043.06 6585.16 9043.06 6621.17 9043.06 6637.8 9070.75 6651.64 9095.69L7560.27 10674.7"/>
<path transform="matrix(.00359712,0,0,-.00359712,0,72)" d="M8917.63 10547.1H9510.86C9536.06 10547.1 9582.59 10547.1 9582.59 10593.7 9582.59 10642.1 9538 10642.1 9510.86 10642.1H8917.63V11237.3C8917.63 11262.5 8917.63 11309.1 8871.09 11309.1 8822.63 11309.1 8822.63 11264.5 8822.63 11237.3V10642.1H8227.44C8202.23 10642.1 8155.7 10642.1 8155.7 10595.6 8155.7 10547.1 8200.3 10547.1 8227.44 10547.1H8822.63V9951.97C8822.63 9926.77 8822.63 9880.23 8869.16 9880.23 8917.63 9880.23 8917.63 9924.83 8917.63 9951.97V10547.1"/>
<path transform="matrix(.00359712,0,0,-.00359712,0,72)" d="M25226.1 10274.8C25267.7 10274.8 25320.3 10274.8 25320.3 10330.3 25320.3 10385.7 25267.7 10385.7 25228.9 10385.7H23569.5C23530.8 10385.7 23478.1 10385.7 23478.1 10330.3 23478.1 10274.8 23530.8 10274.8 23572.3 10274.8H25226.1ZM25228.9 9737.44C25267.7 9737.44 25320.3 9737.44 25320.3 9792.84 25320.3 9848.25 25267.7 9848.25 25226.1 9848.25H23572.3C23530.8 9848.25 23478.1 9848.25 23478.1 9792.84 23478.1 9737.44 23530.8 9737.44 23569.5 9737.44H25228.9"/>
<path transform="matrix(.00359712,0,0,-.00359712,0,72)" d="M27033.7 11100.4C27033.7 11155.8 26995 11200.1 26931.2 11200.1 26856.4 11200.1 26781.6 11128.1 26781.6 11053.3 26781.6 11000.6 26820.4 10953.5 26886.9 10953.5 26950.6 10953.5 27033.7 11017.3 27033.7 11100.4ZM26823.2 10058.8C26856.4 10139.1 26856.4 10144.7 26884.1 10219.5 26906.3 10274.8 26920.2 10313.6 26920.2 10366.3 26920.2 10490.9 26831.5 10593.4 26693 10593.4 26432.6 10593.4 26327.3 10191.8 26327.3 10166.8 26327.3 10139.1 26355 10139.1 26360.6 10139.1 26388.3 10139.1 26391 10144.7 26404.9 10189 26479.7 10449.4 26590.5 10532.5 26684.7 10532.5 26706.8 10532.5 26753.9 10532.5 26753.9 10443.8 26753.9 10385.7 26734.5 10327.5 26723.5 10299.8 26701.3 10227.8 26576.7 9906.42 26532.3 9787.3 26504.6 9715.28 26468.6 9623.86 26468.6 9565.69 26468.6 9435.48 26562.8 9338.53 26695.8 9338.53 26956.2 9338.53 27058.7 9740.2 27058.7 9765.14 27058.7 9792.84 27033.7 9792.84 27025.4 9792.84 26997.7 9792.84 26997.7 9784.53 26983.9 9742.97 26934 9568.45 26842.6 9399.47 26701.3 9399.47 26654.2 9399.47 26634.8 9427.17 26634.8 9490.89 26634.8 9560.14 26651.5 9598.92 26715.2 9767.91L26823.2 10058.8"/>
<path transform="matrix(.00359712,0,0,-.00359712,0,72)" d="M27717 10008.9C27797.4 10008.9 28002.4 10014.5 28140.9 10072.6 28334.8 10155.7 28348.6 10319.2 28348.6 10358 28348.6 10479.8 28243.4 10593.4 28052.2 10593.4 27744.7 10593.4 27326.4 10324.7 27326.4 9839.94 27326.4 9557.38 27489.9 9338.53 27761.3 9338.53 28157.5 9338.53 28390.2 9632.17 28390.2 9665.41 28390.2 9682.03 28373.6 9701.42 28356.9 9701.42 28343.1 9701.42 28337.5 9695.88 28320.9 9673.72 28102.1 9399.47 27800.1 9399.47 27766.9 9399.47 27550.8 9399.47 27525.9 9632.17 27525.9 9720.81 27525.9 9754.06 27528.7 9839.94 27570.2 10008.9H27717ZM27586.8 10069.9C27694.9 10490.9 27980.2 10532.5 28052.2 10532.5 28182.4 10532.5 28257.2 10452.1 28257.2 10358 28257.2 10069.9 27814 10069.9 27700.4 10069.9H27586.8"/>
<path transform="matrix(.00359712,0,0,-.00359712,0,72)" d="M29469 10864.8H29403.1C29397.3 10822.2 29377.9 10707.8 29352.7 10688.4 29337.2 10676.8 29187.9 10676.8 29160.8 10676.8H28804.1C29007.6 10857.1 29075.5 10911.4 29191.8 11002.5 29335.3 11116.9 29469 11237.1 29469 11421.3 29469 11655.8 29263.5 11799.3 29015.4 11799.3 28775 11799.3 28612.1 11630.6 28612.1 11452.3 28612.1 11353.4 28695.5 11343.7 28714.9 11343.7 28761.4 11343.7 28817.6 11376.7 28817.6 11446.5 28817.6 11481.3 28804.1 11549.2 28703.3 11549.2 28763.4 11686.9 28895.2 11729.5 28986.3 11729.5 29180.2 11729.5 29281 11578.3 29281 11421.3 29281 11252.6 29160.8 11118.8 29098.8 11049L28631.5 10587.6C28612.1 10570.2 28612.1 10566.3 28612.1 10512H29410.9L29469 10864.8"/>
<path transform="matrix(.00359712,0,0,-.00359712,0,72)" d="M31338.1 8429.05C31338.1 8440.14 31332.5 8445.67 31327 8453.98 31199.6 8589.72 31011.2 8814.11 30894.9 9265.66 30831.1 9517.73 30806.2 9803.06 30806.2 10060.7 30806.2 10789.3 30980.7 11299 31313.2 11659.1 31338.1 11684 31338.1 11689.6 31338.1 11695.1 31338.1 11722.8 31315.9 11722.8 31304.8 11722.8 31263.3 11722.8 31113.7 11556.6 31077.7 11515 30795.1 11179.8 30615.1 10681.2 30615.1 10063.5 30615.1 9670.09 30684.3 9113.3 31047.2 8645.13 31074.9 8611.89 31255 8401.36 31304.8 8401.36 31315.9 8401.36 31338.1 8401.36 31338.1 8429.05"/>
<path transform="matrix(.00359712,0,0,-.00359712,0,72)" d="M32195.3 10579.6C31849.1 10496.5 31580.3 10136.3 31580.3 9801.16 31580.3 9535.22 31757.6 9335.75 32018 9335.75 32342.2 9335.75 32572.1 9770.67 32572.1 10153 32572.1 10405 32461.3 10543.6 32367.1 10668.2 32267.4 10792.9 32103.9 11000.6 32103.9 11122.5 32103.9 11183.5 32159.3 11250 32256.3 11250 32339.4 11250 32394.8 11213.9 32453 11175.2 32508.4 11141.9 32563.8 11105.9 32605.3 11105.9 32674.6 11105.9 32716.1 11172.4 32716.1 11216.7 32716.1 11277.7 32671.8 11286 32572.1 11308.1 32428 11338.6 32389.3 11338.6 32344.9 11338.6 32128.8 11338.6 32029.1 11219.5 32029.1 11053.3 32029.1 10903.7 32109.5 10748.5 32195.3 10579.6ZM32228.6 10518.6C32297.8 10391.2 32380.9 10241.6 32380.9 10042.2 32380.9 9859.33 32275.7 9396.7 32018 9396.7 31865.7 9396.7 31752.1 9513.05 31752.1 9723.58 31752.1 9898.11 31854.6 10418.9 32228.6 10518.6"/>
<path transform="matrix(.00359712,0,0,-.00359712,0,72)" d="M32904.7 10199.9C32896.9 10170.8 32896.9 10161.1 32896.9 10159.2 32896.9 10116.5 32931.8 10097.1 32962.8 10097.1 33032.6 10097.1 33048.2 10161.1 33055.9 10194 33059.8 10203.8 33098.6 10358.8 33145.1 10548.8 33205.2 10508.1 33282.7 10492.6 33352.5 10492.6 33519.3 10492.6 33627.8 10628.3 33631.7 10632.2 33668.5 10498.4 33802.3 10492.6 33831.4 10492.6 33901.2 10492.6 33949.7 10535.3 33984.5 10595.4 34027.2 10671 34052.4 10781.5 34052.4 10789.2 34052.4 10814.4 34027.2 10814.4 34021.4 10814.4 33994.2 10814.4 33992.3 10806.7 33978.7 10754.3 33955.5 10661.3 33918.6 10546.9 33837.2 10546.9 33786.8 10546.9 33773.2 10589.5 33773.2 10641.9 33773.2 10674.8 33788.7 10744.6 33802.3 10795 33815.9 10847.4 33835.3 10926.9 33845 10969.5L33889.5 11142.1C33901.2 11190.5 33922.5 11275.8 33922.5 11285.5 33922.5 11324.3 33891.5 11347.6 33858.5 11347.6 33837.2 11347.6 33800.4 11337.9 33779 11301 33773.2 11289.4 33757.7 11227.4 33748 11188.6L33707.3 11027.7 33647.2 10785.4C33633.6 10736.9 33633.6 10733 33616.2 10707.8 33556.1 10622.5 33470.8 10546.9 33360.3 10546.9 33201.3 10546.9 33201.3 10684.5 33201.3 10719.4 33201.3 10769.8 33207.1 10795 33234.3 10899.7 33253.7 10985 33257.5 10998.6 33276.9 11074.2L33304.1 11182.8C33313.8 11223.5 33333.1 11297.2 33333.1 11304.9 33333.1 11339.8 33306 11367 33267.2 11367 33197.4 11367 33180 11299.1 33174.2 11275.8L32904.7 10199.9"/>
<path transform="matrix(.00359712,0,0,-.00359712,0,72)" d="M32799.7 8371.88C32791.9 8342.78 32791.9 8333.09 32791.9 8331.16 32791.9 8288.5 32826.8 8269.13 32857.8 8269.13 32927.6 8269.13 32943.2 8327.28 32956.7 8389.31 32983.9 8490.13 33038.2 8711.14 33057.5 8784.81 33075 8755.73 33137 8664.61 33270.8 8664.61 33519 8664.61 33782.6 8928.28 33782.6 9211.33 33782.6 9416.83 33645 9538.97 33474.4 9538.97 33284.4 9538.97 33049.8 9372.23 32981.9 9098.88L32799.7 8371.88ZM33268.9 8718.89C33125.4 8718.89 33082.7 8862.36 33082.7 8887.56 33082.7 8891.44 33094.4 8934.09 33100.2 8957.36 33158.3 9195.81 33170 9240.41 33226.2 9325.7 33296 9428.47 33392.9 9484.69 33470.5 9484.69 33550 9484.69 33625.6 9428.47 33625.6 9288.88 33625.6 9199.69 33575.2 8984.5 33515.1 8887.56 33425.9 8749.92 33329 8718.89 33268.9 8718.89"/>
<path transform="matrix(.00359712,0,0,-.00359712,0,72)" d="M35016.3 10579.6C34670.1 10496.5 34401.3 10136.3 34401.3 9801.16 34401.3 9535.22 34578.6 9335.75 34839 9335.75 35163.2 9335.75 35393.1 9770.67 35393.1 10153 35393.1 10405 35282.3 10543.6 35188.1 10668.2 35088.4 10792.9 34924.9 11000.6 34924.9 11122.5 34924.9 11183.5 34980.3 11250 35077.3 11250 35160.4 11250 35215.8 11213.9 35274 11175.2 35329.4 11141.9 35384.8 11105.9 35426.3 11105.9 35495.6 11105.9 35537.1 11172.4 35537.1 11216.7 35537.1 11277.7 35492.8 11286 35393.1 11308.1 35249 11338.6 35210.3 11338.6 35165.9 11338.6 34949.8 11338.6 34850.1 11219.5 34850.1 11053.3 34850.1 10903.7 34930.5 10748.5 35016.3 10579.6ZM35049.6 10518.6C35118.8 10391.2 35201.9 10241.6 35201.9 10042.2 35201.9 9859.33 35096.7 9396.7 34839 9396.7 34686.7 9396.7 34573.1 9513.05 34573.1 9723.58 34573.1 9898.11 34675.6 10418.9 35049.6 10518.6"/>
<path transform="matrix(.00359712,0,0,-.00359712,0,72)" d="M36106.6 11310.8C36108.5 11318.5 36110.5 11330.1 36110.5 11339.8 36110.5 11341.8 36110.5 11367 36079.5 11367 36077.5 11367 35967 11357.3 35953.5 11357.3 35916.6 11353.4 35881.7 11351.5 35844.9 11347.6 35813.9 11345.6 35790.6 11343.7 35790.6 11303 35790.6 11275.8 35817.8 11275.8 35841 11275.8 35934.1 11275.8 35934.1 11264.2 35934.1 11246.8 35934.1 11235.1 35924.4 11196.4 35916.6 11171.2L35819.7 10779.5C35771.2 10585.7 35761.5 10546.9 35761.5 10539.1 35761.5 10512 35790.6 10512 35798.4 10512H35829.4C36001.9 10539.1 36248.1 10630.3 36455.6 10814.4 36719.3 11049 36758 11301 36758 11304.9 36758 11339.8 36730.9 11367 36692.1 11367 36624.3 11367 36610.7 11312.7 36593.2 11258.4 36515.7 10983.1 36255.9 10686.5 35926.3 10589.5L36106.6 11310.8"/>
<path transform="matrix(.00359712,0,0,-.00359712,0,72)" d="M36650.1 9387.75C36683.1 9387.75 36700.5 9387.75 36721.9 9403.27 36747.1 9424.58 36752.9 9451.72 36752.9 9465.3 36752.9 9519.58 36702.5 9519.58 36669.5 9519.58H36173.2C35863 9519.58 35630.4 9213.27 35630.4 8980.63 35630.4 8800.33 35764.2 8664.61 35961.9 8664.61 36206.2 8664.61 36485.3 8885.63 36485.3 9182.25 36485.3 9213.27 36485.3 9300.5 36427.2 9387.75H36650.1ZM35963.8 8718.89C35859.2 8718.89 35771.9 8788.69 35771.9 8926.34 35771.9 8984.5 35806.8 9387.75 36140.3 9387.75 36239.1 9387.75 36340 9350.91 36340 9203.58 36340 9168.67 36322.5 8994.19 36227.5 8864.3 36146.1 8757.67 36037.5 8718.89 35963.8 8718.89"/>
<path transform="matrix(.00359712,0,0,-.00359712,0,72)" d="M38756 10006.1H39528.9C39567.7 10006.1 39620.3 10006.1 39620.3 10061.5 39620.3 10117 39567.7 10117 39528.9 10117H38756V10892.6C38756 10931.4 38756 10984 38700.6 10984 38645.2 10984 38645.2 10931.4 38645.2 10892.6V10117H37869.5C37830.8 10117 37778.1 10117 37778.1 10061.5 37778.1 10006.1 37830.8 10006.1 37869.5 10006.1H38645.2V9230.48C38645.2 9191.7 38645.2 9139.08 38700.6 9139.08 38756 9139.08 38756 9191.7 38756 9230.48V10006.1"/>
<path transform="matrix(.00359712,0,0,-.00359712,0,72)" d="M41123.3 10579.6C40777.1 10496.5 40508.3 10136.3 40508.3 9801.16 40508.3 9535.22 40685.6 9335.75 40946 9335.75 41270.2 9335.75 41500.1 9770.67 41500.1 10153 41500.1 10405 41389.3 10543.6 41295.1 10668.2 41195.4 10792.9 41031.9 11000.6 41031.9 11122.5 41031.9 11183.5 41087.3 11250 41184.3 11250 41267.4 11250 41322.8 11213.9 41381 11175.2 41436.4 11141.9 41491.8 11105.9 41533.3 11105.9 41602.6 11105.9 41644.1 11172.4 41644.1 11216.7 41644.1 11277.7 41599.8 11286 41500.1 11308.1 41356 11338.6 41317.3 11338.6 41272.9 11338.6 41056.8 11338.6 40957.1 11219.5 40957.1 11053.3 40957.1 10903.7 41037.5 10748.5 41123.3 10579.6ZM41156.6 10518.6C41225.8 10391.2 41308.9 10241.6 41308.9 10042.2 41308.9 9859.33 41203.7 9396.7 40946 9396.7 40793.7 9396.7 40680.1 9513.05 40680.1 9723.58 40680.1 9898.11 40782.6 10418.9 41156.6 10518.6"/>
<path transform="matrix(.00359712,0,0,-.00359712,0,72)" d="M41832.7 10199.9C41824.9 10170.8 41824.9 10161.1 41824.9 10159.2 41824.9 10116.5 41859.8 10097.1 41890.8 10097.1 41960.6 10097.1 41976.2 10161.1 41983.9 10194 41987.8 10203.8 42026.6 10358.8 42073.1 10548.8 42133.2 10508.1 42210.7 10492.6 42280.5 10492.6 42447.3 10492.6 42555.8 10628.3 42559.7 10632.2 42596.5 10498.4 42730.3 10492.6 42759.4 10492.6 42829.2 10492.6 42877.7 10535.3 42912.5 10595.4 42955.2 10671 42980.4 10781.5 42980.4 10789.2 42980.4 10814.4 42955.2 10814.4 42949.4 10814.4 42922.2 10814.4 42920.3 10806.7 42906.7 10754.3 42883.5 10661.3 42846.6 10546.9 42765.2 10546.9 42714.8 10546.9 42701.2 10589.5 42701.2 10641.9 42701.2 10674.8 42716.7 10744.6 42730.3 10795 42743.9 10847.4 42763.3 10926.9 42773 10969.5L42817.5 11142.1C42829.2 11190.5 42850.5 11275.8 42850.5 11285.5 42850.5 11324.3 42819.5 11347.6 42786.5 11347.6 42765.2 11347.6 42728.4 11337.9 42707 11301 42701.2 11289.4 42685.7 11227.4 42676 11188.6L42635.3 11027.7 42575.2 10785.4C42561.6 10736.9 42561.6 10733 42544.2 10707.8 42484.1 10622.5 42398.8 10546.9 42288.3 10546.9 42129.3 10546.9 42129.3 10684.5 42129.3 10719.4 42129.3 10769.8 42135.1 10795 42162.3 10899.7 42181.7 10985 42185.5 10998.6 42204.9 11074.2L42232.1 11182.8C42241.8 11223.5 42261.1 11297.2 42261.1 11304.9 42261.1 11339.8 42234 11367 42195.2 11367 42125.4 11367 42108 11299.1 42102.2 11275.8L41832.7 10199.9"/>
<path transform="matrix(.00359712,0,0,-.00359712,0,72)" d="M42757.1 9387.75C42790.1 9387.75 42807.5 9387.75 42828.9 9403.27 42854.1 9424.58 42859.9 9451.72 42859.9 9465.3 42859.9 9519.58 42809.5 9519.58 42776.5 9519.58H42280.2C41970 9519.58 41737.4 9213.27 41737.4 8980.63 41737.4 8800.33 41871.2 8664.61 42068.9 8664.61 42313.2 8664.61 42592.3 8885.63 42592.3 9182.25 42592.3 9213.27 42592.3 9300.5 42534.2 9387.75H42757.1ZM42070.8 8718.89C41966.2 8718.89 41878.9 8788.69 41878.9 8926.34 41878.9 8984.5 41913.8 9387.75 42247.3 9387.75 42346.1 9387.75 42447 9350.91 42447 9203.58 42447 9168.67 42429.5 8994.19 42334.5 8864.3 42253.1 8757.67 42144.5 8718.89 42070.8 8718.89"/>
<path transform="matrix(.00359712,0,0,-.00359712,0,72)" d="M43944.3 10579.6C43598.1 10496.5 43329.3 10136.3 43329.3 9801.16 43329.3 9535.22 43506.6 9335.75 43767 9335.75 44091.2 9335.75 44321.1 9770.67 44321.1 10153 44321.1 10405 44210.3 10543.6 44116.1 10668.2 44016.4 10792.9 43852.9 11000.6 43852.9 11122.5 43852.9 11183.5 43908.3 11250 44005.3 11250 44088.4 11250 44143.8 11213.9 44202 11175.2 44257.4 11141.9 44312.8 11105.9 44354.3 11105.9 44423.6 11105.9 44465.1 11172.4 44465.1 11216.7 44465.1 11277.7 44420.8 11286 44321.1 11308.1 44177 11338.6 44138.3 11338.6 44093.9 11338.6 43877.8 11338.6 43778.1 11219.5 43778.1 11053.3 43778.1 10903.7 43858.5 10748.5 43944.3 10579.6ZM43977.6 10518.6C44046.8 10391.2 44129.9 10241.6 44129.9 10042.2 44129.9 9859.33 44024.7 9396.7 43767 9396.7 43614.7 9396.7 43501.1 9513.05 43501.1 9723.58 43501.1 9898.11 43603.6 10418.9 43977.6 10518.6"/>
<path transform="matrix(.00359712,0,0,-.00359712,0,72)" d="M45035.6 11310.8C45037.5 11318.5 45039.5 11330.1 45039.5 11339.8 45039.5 11341.8 45039.5 11367 45008.5 11367 45006.5 11367 44896 11357.3 44882.5 11357.3 44845.6 11353.4 44810.7 11351.5 44773.9 11347.6 44742.9 11345.6 44719.6 11343.7 44719.6 11303 44719.6 11275.8 44746.8 11275.8 44770 11275.8 44863.1 11275.8 44863.1 11264.2 44863.1 11246.8 44863.1 11235.1 44853.4 11196.4 44845.6 11171.2L44748.7 10779.5C44700.2 10585.7 44690.5 10546.9 44690.5 10539.1 44690.5 10512 44719.6 10512 44727.4 10512H44758.4C44930.9 10539.1 45177.1 10630.3 45384.6 10814.4 45648.3 11049 45687 11301 45687 11304.9 45687 11339.8 45659.9 11367 45621.1 11367 45553.3 11367 45539.7 11312.7 45522.2 11258.4 45444.7 10983.1 45184.9 10686.5 44855.3 10589.5L45035.6 11310.8"/>
<path transform="matrix(.00359712,0,0,-.00359712,0,72)" d="M44548.7 8371.88C44540.9 8342.78 44540.9 8333.09 44540.9 8331.16 44540.9 8288.5 44575.8 8269.13 44606.8 8269.13 44676.6 8269.13 44692.2 8327.28 44705.7 8389.31 44732.9 8490.13 44787.2 8711.14 44806.5 8784.81 44824 8755.73 44886 8664.61 45019.8 8664.61 45268 8664.61 45531.6 8928.28 45531.6 9211.33 45531.6 9416.83 45394 9538.97 45223.4 9538.97 45033.4 9538.97 44798.8 9372.23 44730.9 9098.88L44548.7 8371.88ZM45017.9 8718.89C44874.4 8718.89 44831.7 8862.36 44831.7 8887.56 44831.7 8891.44 44843.4 8934.09 44849.2 8957.36 44907.3 9195.81 44919 9240.41 44975.2 9325.7 45045 9428.47 45141.9 9484.69 45219.5 9484.69 45299 9484.69 45374.6 9428.47 45374.6 9288.88 45374.6 9199.69 45324.2 8984.5 45264.1 8887.56 45174.9 8749.92 45078 8718.89 45017.9 8718.89"/>
<path transform="matrix(.00359712,0,0,-.00359712,0,72)" d="M48367.5 10006.1C48414.6 10006.1 48464.5 10006.1 48464.5 10061.5 48464.5 10117 48414.6 10117 48367.5 10117H46868.9C46821.8 10117 46771.9 10117 46771.9 10061.5 46771.9 10006.1 46821.8 10006.1 46868.9 10006.1H48367.5"/>
<path transform="matrix(.00359712,0,0,-.00359712,0,72)" d="M49663.8 9582.3 49957.5 9867.64C50389.6 10249.9 50555.8 10399.5 50555.8 10676.5 50555.8 10992.3 50306.5 11213.9 49968.5 11213.9 49655.5 11213.9 49450.5 10959.1 49450.5 10712.5 49450.5 10557.4 49589 10557.4 49597.3 10557.4 49644.4 10557.4 49741.4 10590.7 49741.4 10704.2 49741.4 10776.3 49691.5 10848.3 49594.6 10848.3 49572.4 10848.3 49566.9 10848.3 49558.5 10845.5 49622.3 11025.6 49771.8 11128.1 49932.5 11128.1 50184.6 11128.1 50303.7 10903.7 50303.7 10676.5 50303.7 10454.9 50165.2 10236.1 50012.9 10064.3L49481 9471.5C49450.5 9441.03 49450.5 9435.48 49450.5 9369H50478.3L50555.8 9851.02H50486.6C50472.7 9767.91 50453.3 9646.02 50425.6 9604.47 50406.2 9582.3 50223.4 9582.3 50162.5 9582.3H49663.8"/>
<path transform="matrix(.00359712,0,0,-.00359712,0,72)" d="M52001.8 10413.4C52004.5 10430 52010.1 10443.8 52010.1 10463.2 52010.1 10510.3 51976.8 10538 51929.7 10538 51902 10538 51827.2 10518.6 51816.2 10418.9 51766.3 10521.4 51669.3 10593.4 51558.5 10593.4 51242.7 10593.4 50899.2 10205.6 50899.2 9806.69 50899.2 9532.44 51068.2 9369 51267.7 9369 51431.1 9369 51561.3 9499.2 51589 9529.67L51591.8 9526.91C51533.6 9280.36 51500.4 9166.78 51500.4 9161.23 51489.3 9136.3 51395.1 8862.06 51101.5 8862.06 51048.8 8862.06 50957.4 8864.83 50879.8 8889.75 50962.9 8914.69 50993.4 8986.72 50993.4 9033.81 50993.4 9078.13 50962.9 9130.77 50888.1 9130.77 50827.2 9130.77 50738.5 9080.91 50738.5 8970.09 50738.5 8856.52 50841 8801.11 51107 8801.11 51453.3 8801.11 51652.7 9017.19 51694.3 9183.39L52001.8 10413.4ZM51641.6 9723.58C51625 9651.56 51561.3 9582.3 51500.4 9529.67 51442.2 9479.81 51356.3 9429.94 51276 9429.94 51137.5 9429.94 51095.9 9574 51095.9 9684.8 51095.9 9817.77 51176.3 10144.7 51251 10285.9 51325.8 10421.7 51445 10532.5 51561.3 10532.5 51744.1 10532.5 51782.9 10308.1 51782.9 10294.3 51782.9 10280.4 51777.4 10263.8 51774.6 10252.7L51641.6 9723.58"/>
<path transform="matrix(.00359712,0,0,-.00359712,0,72)" d="M52221.7 10199.9C52213.9 10170.8 52213.9 10161.1 52213.9 10159.2 52213.9 10116.5 52248.8 10097.1 52279.8 10097.1 52349.6 10097.1 52365.2 10161.1 52372.9 10194 52376.8 10203.8 52415.6 10358.8 52462.1 10548.8 52522.2 10508.1 52599.7 10492.6 52669.5 10492.6 52836.3 10492.6 52944.8 10628.3 52948.7 10632.2 52985.5 10498.4 53119.3 10492.6 53148.4 10492.6 53218.2 10492.6 53266.7 10535.3 53301.5 10595.4 53344.2 10671 53369.4 10781.5 53369.4 10789.2 53369.4 10814.4 53344.2 10814.4 53338.4 10814.4 53311.2 10814.4 53309.3 10806.7 53295.7 10754.3 53272.5 10661.3 53235.6 10546.9 53154.2 10546.9 53103.8 10546.9 53090.2 10589.5 53090.2 10641.9 53090.2 10674.8 53105.7 10744.6 53119.3 10795 53132.9 10847.4 53152.3 10926.9 53162 10969.5L53206.5 11142.1C53218.2 11190.5 53239.5 11275.8 53239.5 11285.5 53239.5 11324.3 53208.5 11347.6 53175.5 11347.6 53154.2 11347.6 53117.4 11337.9 53096 11301 53090.2 11289.4 53074.7 11227.4 53065 11188.6L53024.3 11027.7 52964.2 10785.4C52950.6 10736.9 52950.6 10733 52933.2 10707.8 52873.1 10622.5 52787.8 10546.9 52677.3 10546.9 52518.3 10546.9 52518.3 10684.5 52518.3 10719.4 52518.3 10769.8 52524.1 10795 52551.3 10899.7 52570.7 10985 52574.5 10998.6 52593.9 11074.2L52621.1 11182.8C52630.8 11223.5 52650.1 11297.2 52650.1 11304.9 52650.1 11339.8 52623 11367 52584.2 11367 52514.4 11367 52497 11299.1 52491.2 11275.8L52221.7 10199.9"/>
<path transform="matrix(.00359712,0,0,-.00359712,0,72)" d="M53949.6 11310.8C53951.5 11318.5 53953.5 11330.1 53953.5 11339.8 53953.5 11341.8 53953.5 11367 53922.5 11367 53920.5 11367 53810 11357.3 53796.5 11357.3 53759.6 11353.4 53724.7 11351.5 53687.9 11347.6 53656.9 11345.6 53633.6 11343.7 53633.6 11303 53633.6 11275.8 53660.8 11275.8 53684 11275.8 53777.1 11275.8 53777.1 11264.2 53777.1 11246.8 53777.1 11235.1 53767.4 11196.4 53759.6 11171.2L53662.7 10779.5C53614.2 10585.7 53604.5 10546.9 53604.5 10539.1 53604.5 10512 53633.6 10512 53641.4 10512H53672.4C53844.9 10539.1 54091.1 10630.3 54298.6 10814.4 54562.3 11049 54601 11301 54601 11304.9 54601 11339.8 54573.9 11367 54535.1 11367 54467.3 11367 54453.7 11312.7 54436.2 11258.4 54358.7 10983.1 54098.9 10686.5 53769.3 10589.5L53949.6 11310.8"/>
<path transform="matrix(.00359712,0,0,-.00359712,0,72)" d="M56146.8 10413.4C56149.5 10430 56155.1 10443.8 56155.1 10463.2 56155.1 10510.3 56121.8 10538 56074.7 10538 56047 10538 55972.2 10518.6 55961.2 10418.9 55911.3 10521.4 55814.3 10593.4 55703.5 10593.4 55387.7 10593.4 55044.2 10205.6 55044.2 9806.69 55044.2 9532.44 55213.2 9369 55412.7 9369 55576.1 9369 55706.3 9499.2 55734 9529.67L55736.8 9526.91C55678.6 9280.36 55645.4 9166.78 55645.4 9161.23 55634.3 9136.3 55540.1 8862.06 55246.5 8862.06 55193.8 8862.06 55102.4 8864.83 55024.8 8889.75 55107.9 8914.69 55138.4 8986.72 55138.4 9033.81 55138.4 9078.13 55107.9 9130.77 55033.1 9130.77 54972.2 9130.77 54883.5 9080.91 54883.5 8970.09 54883.5 8856.52 54986 8801.11 55252 8801.11 55598.3 8801.11 55797.7 9017.19 55839.3 9183.39L56146.8 10413.4ZM55786.6 9723.58C55770 9651.56 55706.3 9582.3 55645.4 9529.67 55587.2 9479.81 55501.3 9429.94 55421 9429.94 55282.5 9429.94 55240.9 9574 55240.9 9684.8 55240.9 9817.77 55321.3 10144.7 55396 10285.9 55470.8 10421.7 55590 10532.5 55706.3 10532.5 55889.1 10532.5 55927.9 10308.1 55927.9 10294.3 55927.9 10280.4 55922.4 10263.8 55919.6 10252.7L55786.6 9723.58"/>
<path transform="matrix(.00359712,0,0,-.00359712,0,72)" d="M56267.7 8641.88C56259.9 8612.78 56259.9 8603.09 56259.9 8601.16 56259.9 8558.5 56294.8 8539.13 56325.8 8539.13 56395.6 8539.13 56411.2 8597.28 56424.7 8659.31 56451.9 8760.13 56506.2 8981.14 56525.5 9054.81 56543 9025.73 56605 8934.61 56738.8 8934.61 56987 8934.61 57250.6 9198.28 57250.6 9481.33 57250.6 9686.83 57113 9808.97 56942.4 9808.97 56752.4 9808.97 56517.8 9642.23 56449.9 9368.88L56267.7 8641.88ZM56736.9 8988.89C56593.4 8988.89 56550.7 9132.36 56550.7 9157.56 56550.7 9161.44 56562.4 9204.09 56568.2 9227.36 56626.3 9465.81 56638 9510.41 56694.2 9595.7 56764 9698.47 56860.9 9754.69 56938.5 9754.69 57018 9754.69 57093.6 9698.47 57093.6 9558.88 57093.6 9469.69 57043.2 9254.5 56983.1 9157.56 56893.9 9019.92 56797 8988.89 56736.9 8988.89"/>
<path transform="matrix(.00359712,0,0,-.00359712,0,72)" d="M58445.1 9657.75C58478.1 9657.75 58495.5 9657.75 58516.9 9673.27 58542.1 9694.58 58547.9 9721.72 58547.9 9735.3 58547.9 9789.58 58497.5 9789.58 58464.5 9789.58H57968.2C57658 9789.58 57425.4 9483.27 57425.4 9250.63 57425.4 9070.33 57559.2 8934.61 57756.9 8934.61 58001.2 8934.61 58280.3 9155.63 58280.3 9452.25 58280.3 9483.27 58280.3 9570.5 58222.2 9657.75H58445.1ZM57758.8 8988.89C57654.2 8988.89 57566.9 9058.69 57566.9 9196.34 57566.9 9254.5 57601.8 9657.75 57935.3 9657.75 58034.1 9657.75 58135 9620.91 58135 9473.58 58135 9438.67 58117.5 9264.19 58022.5 9134.3 57941.1 9027.67 57832.5 8988.89 57758.8 8988.89"/>
<path transform="matrix(.00359712,0,0,-.00359712,0,72)" d="M59647.9 10060.7C59647.9 10454.1 59578.7 11010.9 59215.8 11479 59188.1 11512.3 59008 11722.8 58958.1 11722.8 58944.3 11722.8 58924.9 11717.3 58924.9 11695.1 58924.9 11684 58930.4 11675.7 58941.5 11667.4 59074.5 11523.4 59254.5 11299 59368.1 10858.5 59431.8 10606.4 59456.8 10321.1 59456.8 10063.5 59456.8 9783.67 59431.8 9501.11 59359.8 9229.64 59254.5 8841.81 59091.1 8620.2 58949.8 8465.06 58924.9 8440.14 58924.9 8434.59 58924.9 8429.05 58924.9 8406.89 58944.3 8401.36 58958.1 8401.36 58999.7 8401.36 59152 8570.33 59185.3 8609.11 59467.8 8944.31 59647.9 9442.94 59647.9 10060.7"/>
<path transform="matrix(.00359712,0,0,-.00359712,0,72)" d="M61066.9 9515.81C61066.9 9596.16 61000.4 9662.64 60920.1 9662.64 60839.7 9662.64 60773.2 9596.16 60773.2 9515.81 60773.2 9435.48 60839.7 9369 60920.1 9369 61000.4 9369 61066.9 9435.48 61066.9 9515.81"/>
</svg>
