<svg xmlns="http://www.w3.org/2000/svg" xmlns:xlink="http://www.w3.org/1999/xlink" version="1.1" width="128pt" height="79pt" viewBox="0 0 128 79">
<path transform="matrix(.00359712,0,0,-.00359712,0,79)" d="M1028.56 342.125C1059.03 228.547 1156 156.531 1275.11 156.531 1372.06 156.531 1435.78 220.25 1480.11 308.891 1527.2 408.609 1563.22 577.594 1563.22 583.141 1563.22 610.844 1538.28 610.844 1529.97 610.844 1502.27 610.844 1499.5 599.766 1491.19 560.969 1452.41 405.844 1399.77 217.469 1283.42 217.469 1225.25 217.469 1197.55 253.484 1197.55 344.906 1197.55 405.844 1230.8 536.047 1252.95 633L1330.52 932.188C1338.83 973.734 1366.53 1079 1377.61 1120.55 1391.45 1184.27 1419.16 1289.53 1419.16 1306.16 1419.16 1356.02 1380.38 1380.95 1338.83 1380.95 1324.97 1380.95 1252.95 1378.19 1230.8 1284 1178.16 1081.77 1056.27 596.984 1023.03 450.172 1020.25 439.094 909.453 217.469 707.219 217.469 563.172 217.469 535.469 342.125 535.469 444.625 535.469 599.766 613.031 818.609 685.063 1009.75 718.313 1092.84 732.156 1131.64 732.156 1184.27 732.156 1308.92 643.516 1411.42 505 1411.42 241.828 1411.42 139.328 1009.75 139.328 984.813 139.328 957.109 167.031 957.109 172.578 957.109 200.281 957.109 203.047 962.656 216.906 1006.97 286.156 1247.98 391.422 1350.48 496.688 1350.48 521.625 1350.48 565.938 1347.7 565.938 1259.06 565.938 1192.58 535.469 1112.25 518.844 1070.69 416.359 796.438 358.188 624.688 358.188 488.953 358.188 225.781 549.328 156.531 698.906 156.531 881.75 156.531 981.469 281.188 1028.56 342.125"/>
<path transform="matrix(.00359712,0,0,-.00359712,0,79)" d="M18580 11951C18580 11953.8 18580 11981.5 18544 11981.5 18480.3 11981.5 18278.1 11959.3 18206.1 11953.8 18183.9 11951 18153.4 11948.3 18153.4 11898.4 18153.4 11865.2 18178.4 11865.2 18219.9 11865.2 18352.9 11865.2 18358.4 11845.8 18358.4 11818.1L18350.1 11762.7 17948.4 10167C17937.4 10128.3 17937.4 10122.7 17937.4 10106.1 17937.4 10042.4 17992.8 10028.5 18017.7 10028.5 18062 10028.5 18106.3 10061.8 18120.2 10100.5L18172.8 10311.1 18233.8 10560.4C18250.4 10621.3 18267 10682.3 18280.9 10746 18286.4 10762.6 18308.6 10854 18311.3 10870.7 18319.6 10895.6 18405.5 11050.7 18499.7 11125.5 18560.7 11169.8 18646.5 11222.5 18765.6 11222.5 18884.8 11222.5 18915.2 11128.3 18915.2 11028.6 18915.2 10879 18810 10577 18743.5 10408 18721.3 10344.3 18707.5 10311.1 18707.5 10255.7 18707.5 10125.5 18804.4 10028.5 18934.6 10028.5 19195 10028.5 19297.5 10433 19297.5 10455.1 19297.5 10482.8 19272.6 10482.8 19264.3 10482.8 19236.6 10482.8 19236.6 10474.5 19222.7 10433 19181.2 10286.2 19092.5 10089.5 18940.2 10089.5 18893.1 10089.5 18873.7 10117.2 18873.7 10180.9 18873.7 10250.1 18898.6 10316.6 18923.5 10377.6 18967.9 10496.7 19092.5 10826.3 19092.5 10987 19092.5 11167.1 18981.7 11283.4 18774 11283.4 18599.4 11283.4 18466.5 11197.5 18364 11070.1L18580 11951"/>
<path transform="matrix(.00359712,0,0,-.00359712,0,79)" d="M1028.56 20816.1C1059.03 20702.5 1156 20630.5 1275.11 20630.5 1372.06 20630.5 1435.78 20694.3 1480.11 20782.9 1527.2 20882.6 1563.22 21051.6 1563.22 21057.1 1563.22 21084.8 1538.28 21084.8 1529.97 21084.8 1502.27 21084.8 1499.5 21073.8 1491.19 21035 1452.41 20879.8 1399.77 20691.5 1283.42 20691.5 1225.25 20691.5 1197.55 20727.5 1197.55 20818.9 1197.55 20879.8 1230.8 21010 1252.95 21107L1330.52 21406.2C1338.83 21447.7 1366.53 21553 1377.61 21594.5 1391.45 21658.3 1419.16 21763.5 1419.16 21780.2 1419.16 21830 1380.38 21855 1338.83 21855 1324.97 21855 1252.95 21852.2 1230.8 21758 1178.16 21555.8 1056.27 21071 1023.03 20924.2 1020.25 20913.1 909.453 20691.5 707.219 20691.5 563.172 20691.5 535.469 20816.1 535.469 20918.6 535.469 21073.8 613.031 21292.6 685.063 21483.8 718.313 21566.8 732.156 21605.6 732.156 21658.3 732.156 21782.9 643.516 21885.4 505 21885.4 241.828 21885.4 139.328 21483.8 139.328 21458.8 139.328 21431.1 167.031 21431.1 172.578 21431.1 200.281 21431.1 203.047 21436.7 216.906 21481 286.156 21722 391.422 21824.5 496.688 21824.5 521.625 21824.5 565.938 21821.7 565.938 21733.1 565.938 21666.6 535.469 21586.3 518.844 21544.7 416.359 21270.4 358.188 21098.7 358.188 20963 358.188 20699.8 549.328 20630.5 698.906 20630.5 881.75 20630.5 981.469 20755.2 1028.56 20816.1"/>
<path transform="matrix(.00359712,0,0,-.00359712,0,79)" stroke-width="110.783" stroke-linecap="butt" stroke-miterlimit="10" stroke-linejoin="miter" fill="none" stroke="#000000" d="M1761.45 2358.25 6762.63 11020.5"/>
<path transform="matrix(.00359712,0,0,-.00359712,0,79)" d="M4772.84 7574.22 3198.11 6365.81 4513.73 5606.25"/>
<path transform="matrix(.00359712,0,0,-.00359712,0,79)" stroke-width="110.783" stroke-linecap="butt" stroke-miterlimit="10" stroke-linejoin="miter" fill="none" stroke="#000000" d="M6762.63 11020.5 1761.45 19682.7"/>
<path transform="matrix(.00359712,0,0,-.00359712,0,79)" d="M3751.24 16236.4 4010.35 14268.5 5325.97 15028"/>
<path transform="matrix(.00359712,0,0,-.00359712,0,79)" stroke-width="110.783" stroke-linecap="butt" stroke-dasharray="830.895,830.895" stroke-miterlimit="10" stroke-linejoin="miter" fill="none" stroke="#000000" d="M6762.63 11020.5H16806.9"/>
<path transform="matrix(.00359712,0,0,-.00359712,0,79)" d="M22976.1 11233.8C23017.7 11233.8 23070.3 11233.8 23070.3 11289.3 23070.3 11344.7 23017.7 11344.7 22978.9 11344.7H21319.5C21280.8 11344.7 21228.1 11344.7 21228.1 11289.3 21228.1 11233.8 21280.8 11233.8 21322.3 11233.8H22976.1ZM22978.9 10696.4C23017.7 10696.4 23070.3 10696.4 23070.3 10751.8 23070.3 10807.3 23017.7 10807.3 22976.1 10807.3H21322.3C21280.8 10807.3 21228.1 10807.3 21228.1 10751.8 21228.1 10696.4 21280.8 10696.4 21319.5 10696.4H22978.9"/>
<path transform="matrix(.00359712,0,0,-.00359712,0,79)" d="M25822.5 10965.1C25869.6 10965.1 25919.5 10965.1 25919.5 11020.5 25919.5 11076 25869.6 11076 25822.5 11076H24323.9C24276.8 11076 24226.9 11076 24226.9 11020.5 24226.9 10965.1 24276.8 10965.1 24323.9 10965.1H25822.5"/>
<path transform="matrix(.00359712,0,0,-.00359712,0,79)" d="M26937.7 12059.4C26937.7 12114.8 26899 12159.1 26835.2 12159.1 26760.4 12159.1 26685.6 12087.1 26685.6 12012.3 26685.6 11959.6 26724.4 11912.5 26790.9 11912.5 26854.6 11912.5 26937.7 11976.3 26937.7 12059.4ZM26727.2 11017.8C26760.4 11098.1 26760.4 11103.7 26788.1 11178.5 26810.3 11233.8 26824.2 11272.6 26824.2 11325.3 26824.2 11449.9 26735.5 11552.4 26597 11552.4 26336.6 11552.4 26231.3 11150.8 26231.3 11125.8 26231.3 11098.1 26259 11098.1 26264.6 11098.1 26292.3 11098.1 26295 11103.7 26308.9 11148 26383.7 11408.4 26494.5 11491.5 26588.7 11491.5 26610.8 11491.5 26657.9 11491.5 26657.9 11402.8 26657.9 11344.7 26638.5 11286.5 26627.5 11258.8 26605.3 11186.8 26480.7 10865.4 26436.3 10746.3 26408.6 10674.3 26372.6 10582.9 26372.6 10524.7 26372.6 10394.5 26466.8 10297.5 26599.8 10297.5 26860.2 10297.5 26962.7 10699.2 26962.7 10724.1 26962.7 10751.8 26937.7 10751.8 26929.4 10751.8 26901.7 10751.8 26901.7 10743.5 26887.9 10702 26838 10527.5 26746.6 10358.5 26605.3 10358.5 26558.2 10358.5 26538.8 10386.2 26538.8 10449.9 26538.8 10519.1 26555.5 10557.9 26619.2 10726.9L26727.2 11017.8"/>
<path transform="matrix(.00359712,0,0,-.00359712,0,79)" d="M28741.8 13246.4C28744.5 13263 28750.1 13276.8 28750.1 13296.2 28750.1 13343.3 28716.8 13371 28669.7 13371 28642 13371 28567.2 13351.6 28556.2 13251.9 28506.3 13354.4 28409.3 13426.4 28298.5 13426.4 27982.7 13426.4 27639.2 13038.6 27639.2 12639.7 27639.2 12365.4 27808.2 12202 28007.7 12202 28171.1 12202 28301.3 12332.2 28329 12362.7L28331.8 12359.9C28273.6 12113.4 28240.4 11999.8 28240.4 11994.2 28229.3 11969.3 28135.1 11695.1 27841.5 11695.1 27788.8 11695.1 27697.4 11697.8 27619.8 11722.8 27702.9 11747.7 27733.4 11819.7 27733.4 11866.8 27733.4 11911.1 27702.9 11963.8 27628.1 11963.8 27567.2 11963.8 27478.5 11913.9 27478.5 11803.1 27478.5 11689.5 27581 11634.1 27847 11634.1 28193.3 11634.1 28392.7 11850.2 28434.3 12016.4L28741.8 13246.4ZM28381.6 12556.6C28365 12484.6 28301.3 12415.3 28240.4 12362.7 28182.2 12312.8 28096.3 12262.9 28016 12262.9 27877.5 12262.9 27835.9 12407 27835.9 12517.8 27835.9 12650.8 27916.3 12977.7 27991 13118.9 28065.8 13254.7 28185 13365.5 28301.3 13365.5 28484.1 13365.5 28522.9 13141.1 28522.9 13127.3 28522.9 13113.4 28517.4 13096.8 28514.6 13085.7L28381.6 12556.6"/>
<path transform="matrix(.00359712,0,0,-.00359712,0,79)" stroke-width="110.783" stroke-linecap="butt" stroke-miterlimit="10" stroke-linejoin="miter" fill="none" stroke="#000000" d="M27437.5 11020.5H28857.8"/>
<path transform="matrix(.00359712,0,0,-.00359712,0,79)" d="M27806.8 8641.3 28100.5 8926.64C28532.6 9308.92 28698.8 9458.52 28698.8 9735.53 28698.8 10051.3 28449.5 10272.9 28111.5 10272.9 27798.5 10272.9 27593.5 10018.1 27593.5 9771.55 27593.5 9616.41 27732 9616.41 27740.3 9616.41 27787.4 9616.41 27884.4 9649.66 27884.4 9763.23 27884.4 9835.25 27834.5 9907.28 27737.6 9907.28 27715.4 9907.28 27709.9 9907.28 27701.5 9904.52 27765.3 10084.6 27914.8 10187.1 28075.5 10187.1 28327.6 10187.1 28446.7 9962.69 28446.7 9735.53 28446.7 9513.91 28308.2 9295.06 28155.9 9123.31L27624 8530.5C27593.5 8500.03 27593.5 8494.48 27593.5 8428H28621.3L28698.8 8910.02H28629.6C28615.7 8826.91 28596.3 8705.02 28568.6 8663.47 28549.2 8641.3 28366.4 8641.3 28305.5 8641.3H27806.8"/>
<path transform="matrix(.00359712,0,0,-.00359712,0,79)" d="M30301.8 12365.4C30293.5 12323.9 30276.8 12260.2 30276.8 12246.3 30276.8 12196.5 30315.6 12171.5 30357.2 12171.5 30390.4 12171.5 30440.3 12193.7 30459.7 12249.1 30462.5 12254.6 30495.7 12384.8 30512.3 12454.1L30573.3 12703.4C30589.9 12764.3 30606.5 12825.3 30620.3 12889 30631.4 12936.1 30653.6 13016.4 30656.4 13027.5 30697.9 13113.4 30844.7 13365.5 31107.9 13365.5 31232.6 13365.5 31257.5 13263 31257.5 13171.6 31257.5 13102.3 31238.1 13024.8 31215.9 12941.6L31138.4 12620.3 31083 12409.8C31071.9 12354.4 31047 12260.2 31047 12246.3 31047 12196.5 31085.7 12171.5 31127.3 12171.5 31213.2 12171.5 31229.8 12240.8 31252 12329.4 31290.7 12484.6 31393.2 12889 31418.2 12997 31426.5 13033.1 31573.3 13365.5 31875.3 13365.5 31994.4 13365.5 32024.8 13271.3 32024.8 13171.6 32024.8 13013.7 31908.5 12697.9 31853.1 12551 31828.2 12484.6 31817.1 12454.1 31817.1 12398.7 31817.1 12268.5 31914 12171.5 32044.2 12171.5 32304.6 12171.5 32407.1 12576 32407.1 12598.1 32407.1 12625.8 32382.2 12625.8 32373.9 12625.8 32346.2 12625.8 32346.2 12617.5 32332.3 12576 32290.8 12429.2 32202.1 12232.5 32049.8 12232.5 32002.7 12232.5 31983.3 12260.2 31983.3 12323.9 31983.3 12393.1 32008.2 12459.6 32033.1 12520.6 32085.8 12664.6 32202.1 12972.1 32202.1 13130 32202.1 13310.1 32091.3 13426.4 31883.5 13426.4 31675.8 13426.4 31534.5 13304.5 31432 13157.7 31429.3 13193.7 31420.9 13287.9 31343.4 13354.4 31274.1 13412.6 31185.5 13426.4 31116.2 13426.4 30866.9 13426.4 30731.2 13249.1 30684.1 13185.4 30670.2 13343.3 30553.9 13426.4 30429.2 13426.4 30301.8 13426.4 30249.1 13318.4 30224.2 13268.5 30174.3 13171.6 30138.3 13008.1 30138.3 12999.8 30138.3 12972.1 30166 12972.1 30171.6 12972.1 30199.3 12972.1 30202 12974.9 30218.7 13035.8 30265.8 13232.5 30321.2 13365.5 30420.9 13365.5 30465.2 13365.5 30506.8 13343.3 30506.8 13238 30506.8 13179.9 30498.5 13149.4 30462.5 13005.4L30301.8 12365.4"/>
<path transform="matrix(.00359712,0,0,-.00359712,0,79)" d="M33310.1 12100.1C33300.4 12061.3 33282.9 11987.6 33279 11985.7 33242.2 11925.6 33164.7 11820.9 33044.5 11820.9 32910.7 11820.9 32910.7 11946.9 32910.7 11981.8 32910.7 12096.2 32965 12233.8 33019.3 12375.4 33034.8 12414.1 33046.4 12443.2 33046.4 12474.2 33046.4 12575 32961.1 12641 32862.2 12641 32668.4 12641 32581.1 12375.4 32581.1 12344.3 32581.1 12319.1 32608.3 12319.1 32614.1 12319.1 32641.2 12319.1 32643.2 12328.8 32649 12350.2 32695.5 12509.1 32780.8 12586.7 32856.4 12586.7 32889.4 12586.7 32904.9 12565.4 32904.9 12518.8 32904.9 12474.2 32889.4 12433.5 32870 12388.9 32765.3 12121.4 32765.3 12065.2 32765.3 12012.8 32765.3 11979.9 32765.3 11890.7 32837 11828.7 32893.3 11782.1 32968.9 11766.6 33036.7 11766.6 33158.9 11766.6 33224.8 11832.5 33288.8 11894.6 33331.4 11770.5 33461.3 11766.6 33484.5 11766.6 33550.5 11766.6 33600.9 11805.4 33637.7 11869.4 33680.4 11945 33707.5 12057.4 33707.5 12063.2 33707.5 12088.4 33680.4 12088.4 33674.5 12088.4 33647.4 12088.4 33645.5 12080.7 33631.9 12028.3 33608.6 11937.2 33571.8 11820.9 33490.4 11820.9 33440 11820.9 33426.4 11865.5 33426.4 11915.9 33426.4 11948.8 33441.9 12018.6 33455.5 12069 33469 12121.4 33488.4 12200.9 33498.1 12243.5L33542.7 12416.1C33554.3 12464.5 33575.7 12549.8 33575.7 12559.5 33575.7 12598.3 33544.7 12621.6 33511.7 12621.6 33440 12621.6 33426.4 12565.4 33410.9 12503.3L33310.1 12100.1"/>
<path transform="matrix(.00359712,0,0,-.00359712,0,79)" stroke-width="110.783" stroke-linecap="butt" stroke-miterlimit="10" stroke-linejoin="miter" fill="none" stroke="#000000" d="M29522.5 11020.5H34473.9"/>
<path transform="matrix(.00359712,0,0,-.00359712,0,79)" d="M29765.8 8591.44C29757.5 8549.89 29740.8 8486.17 29740.8 8472.33 29740.8 8422.45 29779.6 8397.53 29821.2 8397.53 29854.4 8397.53 29904.3 8419.69 29923.7 8475.09 29926.5 8480.64 29959.7 8610.83 29976.3 8680.09L30037.3 8929.41C30053.9 8990.34 30070.5 9051.3 30084.3 9115 30095.4 9162.09 30117.6 9242.44 30120.4 9253.52 30161.9 9339.39 30308.7 9591.48 30571.9 9591.48 30696.6 9591.48 30721.5 9488.98 30721.5 9397.56 30721.5 9328.31 30702.1 9250.75 30679.9 9167.64L30602.4 8846.3 30547 8635.77C30535.9 8580.36 30511 8486.17 30511 8472.33 30511 8422.45 30549.7 8397.53 30591.3 8397.53 30677.2 8397.53 30693.8 8466.78 30716 8555.42 30754.7 8710.56 30857.2 9115 30882.2 9223.05 30890.5 9259.06 31037.3 9591.48 31339.3 9591.48 31458.4 9591.48 31488.8 9497.3 31488.8 9397.56 31488.8 9239.67 31372.5 8923.86 31317.1 8777.05 31292.2 8710.56 31281.1 8680.09 31281.1 8624.69 31281.1 8494.48 31378 8397.53 31508.2 8397.53 31768.6 8397.53 31871.1 8801.97 31871.1 8824.14 31871.1 8851.84 31846.2 8851.84 31837.9 8851.84 31810.2 8851.84 31810.2 8843.53 31796.3 8801.97 31754.8 8655.16 31666.1 8458.47 31513.8 8458.47 31466.7 8458.47 31447.3 8486.17 31447.3 8549.89 31447.3 8619.14 31472.2 8685.63 31497.1 8746.58 31549.8 8890.63 31666.1 9198.11 31666.1 9356.02 31666.1 9536.08 31555.3 9652.42 31347.5 9652.42 31139.8 9652.42 30998.5 9530.53 30896 9383.72 30893.3 9419.73 30884.9 9513.91 30807.4 9580.39 30738.1 9638.58 30649.5 9652.42 30580.2 9652.42 30330.9 9652.42 30195.2 9475.13 30148.1 9411.42 30134.2 9569.31 30017.9 9652.42 29893.2 9652.42 29765.8 9652.42 29713.1 9544.39 29688.2 9494.52 29638.3 9397.56 29602.3 9234.13 29602.3 9225.81 29602.3 9198.11 29630 9198.11 29635.6 9198.11 29663.3 9198.11 29666 9200.88 29682.7 9261.83 29729.8 9458.52 29785.2 9591.48 29884.9 9591.48 29929.2 9591.48 29970.8 9569.31 29970.8 9464.05 29970.8 9405.88 29962.5 9375.41 29926.5 9231.36L29765.8 8591.44"/>
<path transform="matrix(.00359712,0,0,-.00359712,0,79)" d="M33962.5 9108.36 33997.4 9158.77C34038.1 9211.11 34084.6 9259.58 34179.6 9267.34 34201 9269.28 34224.2 9271.22 34224.2 9309.98 34224.2 9323.56 34212.6 9337.13 34197.1 9337.13 34152.5 9337.13 34096.3 9329.38 34049.7 9329.38 33981.9 9329.38 33898.5 9337.13 33834.5 9337.13 33824.8 9337.13 33793.8 9337.13 33793.8 9294.48 33793.8 9269.28 33821 9267.34 33828.7 9267.34 33871.4 9265.41 33935.4 9253.77 33935.4 9199.48 33935.4 9178.16 33914 9143.27 33906.3 9129.69L33359.6 8232.08 33252.9 9211.11C33252.9 9265.41 33365.4 9267.34 33388.6 9267.34 33413.8 9267.34 33441 9267.34 33441 9309.98 33441 9311.92 33439 9337.13 33408 9337.13 33371.2 9337.13 33324.7 9333.25 33287.8 9331.31 33249 9329.38 33198.6 9329.38 33159.9 9329.38 33115.3 9329.38 33000.9 9337.13 32956.3 9337.13 32946.6 9337.13 32917.5 9337.13 32917.5 9294.48 32917.5 9267.34 32942.7 9267.34 32967.9 9267.34 33051.3 9267.34 33061 9253.77 33066.8 9234.38 33068.8 9222.75 33072.6 9168.47 33080.4 9108.36L32547.3 8232.08 32444.5 9182.03C32444.5 9189.8 32440.6 9209.17 32440.6 9211.11 32440.6 9267.34 32560.8 9267.34 32576.3 9267.34 32601.5 9267.34 32628.7 9267.34 32628.7 9309.98 32628.7 9317.75 32622.9 9337.13 32597.7 9337.13 32541.4 9337.13 32403.8 9329.38 32347.6 9329.38 32283.6 9329.38 32202.2 9337.13 32144 9337.13 32124.6 9337.13 32105.2 9329.38 32105.2 9296.42 32105.2 9267.34 32128.5 9267.34 32159.5 9267.34 32250.6 9267.34 32250.6 9255.7 32256.4 9207.23L32386.3 8026.58C32390.2 7987.8 32392.1 7974.22 32427 7974.22 32460 7974.22 32473.6 7991.67 32485.2 8013L33090.1 9009.48 33196.7 8024.63C33200.6 7983.92 33210.3 7974.22 33239.4 7974.22 33272.3 7974.22 33284 7991.67 33297.5 8014.94L33962.5 9108.36"/>
<path transform="matrix(.00359712,0,0,-.00359712,0,79)" d="M35337.9 10474.8C35337.9 10555.2 35271.4 10621.6 35191.1 10621.6 35110.7 10621.6 35044.2 10555.2 35044.2 10474.8 35044.2 10394.5 35110.7 10328 35191.1 10328 35271.4 10328 35337.9 10394.5 35337.9 10474.8"/>
</svg>
