<svg xmlns="http://www.w3.org/2000/svg" xmlns:xlink="http://www.w3.org/1999/xlink" version="1.1" width="291pt" height="85pt" viewBox="0 0 291 85">
<path transform="matrix(.00359712,0,0,-.00359712,0,85)" d="M1269.58 2674.03C1269.58 2679.56 1277.88 2710.03 1277.88 2712.81 1277.88 2715.58 1277.88 2740.52 1244.64 2740.52 1216.94 2740.52 1214.17 2732.2 1203.09 2685.11L1042.42 2045.19C601.953 2031.34 194.734 1662.91 194.734 1286.16 194.734 1023 388.656 804.156 726.609 784.75 704.453 698.875 685.063 610.234 662.906 524.359 629.656 394.156 601.953 288.891 601.953 280.578 601.953 252.875 621.344 250.109 635.203 250.109 649.047 250.109 654.594 252.875 662.906 261.188 668.438 266.734 685.063 333.219 693.375 372L798.641 784.75C1244.64 798.609 1646.31 1172.58 1646.31 1543.8 1646.31 1762.64 1499.5 2017.48 1114.44 2045.19L1269.58 2674.03ZM740.469 845.703C574.25 854.016 374.797 950.969 374.797 1227.98 374.797 1560.41 613.031 1948.23 1025.8 1984.25L740.469 845.703ZM1097.83 1984.25C1308.36 1973.17 1466.25 1845.73 1466.25 1601.97 1466.25 1275.08 1228.02 878.938 812.484 845.703L1097.83 1984.25"/>
<path transform="matrix(.00359712,0,0,-.00359712,0,85)" d="M3152.39 2261.14C3183.41 2261.14 3229.94 2261.14 3229.94 2307.67 3229.94 2356.14 3185.34 2356.14 3152.39 2356.14H1996.92C1965.91 2356.14 1919.38 2356.14 1919.38 2309.61 1919.38 2261.14 1963.97 2261.14 1996.92 2261.14H3152.39"/>
<path transform="matrix(.00359712,0,0,-.00359712,0,85)" d="M19547 12819C19547 12821.8 19547 12849.5 19511 12849.5 19447.3 12849.5 19245.1 12827.3 19173.1 12821.8 19150.9 12819 19120.4 12816.3 19120.4 12766.4 19120.4 12733.2 19145.4 12733.2 19186.9 12733.2 19319.9 12733.2 19325.4 12713.8 19325.4 12686.1L19317.1 12630.7 18915.4 11035C18904.4 10996.3 18904.4 10990.7 18904.4 10974.1 18904.4 10910.4 18959.8 10896.5 18984.7 10896.5 19029 10896.5 19073.3 10929.8 19087.2 10968.5L19139.8 11179.1 19200.8 11428.4C19217.4 11489.3 19234 11550.3 19247.9 11614 19253.4 11630.6 19275.6 11722 19278.3 11738.7 19286.6 11763.6 19372.5 11918.7 19466.7 11993.5 19527.7 12037.8 19613.5 12090.5 19732.6 12090.5 19851.8 12090.5 19882.2 11996.3 19882.2 11896.6 19882.2 11747 19777 11445 19710.5 11276 19688.3 11212.3 19674.5 11179.1 19674.5 11123.7 19674.5 10993.5 19771.4 10896.5 19901.6 10896.5 20162 10896.5 20264.5 11301 20264.5 11323.1 20264.5 11350.8 20239.6 11350.8 20231.3 11350.8 20203.6 11350.8 20203.6 11342.5 20189.7 11301 20148.2 11154.2 20059.5 10957.5 19907.2 10957.5 19860.1 10957.5 19840.7 10985.2 19840.7 11048.9 19840.7 11118.1 19865.6 11184.6 19890.5 11245.6 19934.9 11364.7 20059.5 11694.3 20059.5 11855 20059.5 12035.1 19948.7 12151.4 19741 12151.4 19566.4 12151.4 19433.5 12065.5 19331 11938.1L19547 12819"/>
<path transform="matrix(.00359712,0,0,-.00359712,0,85)" d="M1285.58 23148C1285.58 23153.6 1293.88 23184 1293.88 23186.8 1293.88 23189.6 1293.88 23214.5 1260.64 23214.5 1232.94 23214.5 1230.17 23206.2 1219.09 23159.1L1058.42 22519.2C617.953 22505.3 210.734 22136.9 210.734 21760.2 210.734 21497 404.656 21278.2 742.609 21258.8 720.453 21172.9 701.063 21084.2 678.906 20998.4 645.656 20868.2 617.953 20762.9 617.953 20754.6 617.953 20726.9 637.344 20724.1 651.203 20724.1 665.047 20724.1 670.594 20726.9 678.906 20735.2 684.438 20740.7 701.063 20807.2 709.375 20846L814.641 21258.8C1260.64 21272.6 1662.31 21646.6 1662.31 22017.8 1662.31 22236.6 1515.5 22491.5 1130.44 22519.2L1285.58 23148ZM756.469 21319.7C590.25 21328 390.797 21425 390.797 21702 390.797 22034.4 629.031 22422.2 1041.8 22458.3L756.469 21319.7ZM1113.83 22458.3C1324.36 22447.2 1482.25 22319.7 1482.25 22076 1482.25 21749.1 1244.02 21352.9 828.484 21319.7L1113.83 22458.3"/>
<path transform="matrix(.00359712,0,0,-.00359712,0,85)" d="M2622.63 22735.1H3215.86C3241.06 22735.1 3287.59 22735.1 3287.59 22781.7 3287.59 22830.1 3243 22830.1 3215.86 22830.1H2622.63V23425.3C2622.63 23450.5 2622.63 23497.1 2576.09 23497.1 2527.63 23497.1 2527.63 23452.5 2527.63 23425.3V22830.1H1932.44C1907.23 22830.1 1860.7 22830.1 1860.7 22783.6 1860.7 22735.1 1905.3 22735.1 1932.44 22735.1H2527.63V22140C2527.63 22114.8 2527.63 22068.2 2574.16 22068.2 2622.63 22068.2 2622.63 22112.8 2622.63 22140V22735.1"/>
<path transform="matrix(.00359712,0,0,-.00359712,0,85)" stroke-width="110.783" stroke-linecap="butt" stroke-dasharray="830.895,830.895" stroke-miterlimit="10" stroke-linejoin="miter" fill="none" stroke="#000000" d="M3176.14 19774.7 7729.51 11888.1"/>
<path transform="matrix(.00359712,0,0,-.00359712,0,85)" d="M5964.64 14944.9 5705.5 16912.9 4389.88 16153.3"/>
<path transform="matrix(.00359712,0,0,-.00359712,0,85)" stroke-width="110.783" stroke-linecap="butt" stroke-dasharray="830.895,830.895" stroke-miterlimit="10" stroke-linejoin="miter" fill="none" stroke="#000000" d="M7729.51 11888.1 3176.14 4001.55"/>
<path transform="matrix(.00359712,0,0,-.00359712,0,85)" d="M4941.01 7058.36 6515.78 8266.75 5200.16 9026.34"/>
<path transform="matrix(.00359712,0,0,-.00359712,0,85)" stroke-width="110.783" stroke-linecap="butt" stroke-dasharray="830.895,830.895" stroke-miterlimit="10" stroke-linejoin="miter" fill="none" stroke="#000000" d="M7729.51 11888.1H17773.7"/>
<path transform="matrix(.00359712,0,0,-.00359712,0,85)" d="M9918.58 10560C9918.58 10565.6 9926.88 10596 9926.88 10598.8 9926.88 10601.6 9926.88 10626.5 9893.64 10626.5 9865.94 10626.5 9863.17 10618.2 9852.09 10571.1L9691.42 9931.19C9250.95 9917.34 8843.73 9548.91 8843.73 9172.16 8843.73 8909 9037.66 8690.16 9375.61 8670.75 9353.45 8584.88 9334.06 8496.23 9311.91 8410.36 9278.66 8280.16 9250.95 8174.89 9250.95 8166.58 9250.95 8138.88 9270.34 8136.11 9284.2 8136.11 9298.05 8136.11 9303.59 8138.88 9311.91 8147.19 9317.44 8152.73 9334.06 8219.22 9342.38 8258L9447.64 8670.75C9893.64 8684.61 10295.3 9058.58 10295.3 9429.8 10295.3 9648.64 10148.5 9903.48 9763.44 9931.19L9918.58 10560ZM9389.47 8731.7C9223.25 8740.02 9023.8 8836.97 9023.8 9113.98 9023.8 9446.41 9262.03 9834.23 9674.8 9870.25L9389.47 8731.7ZM9746.83 9870.25C9957.36 9859.17 10115.3 9731.73 10115.3 9487.97 10115.3 9161.08 9877.02 8764.94 9461.48 8731.7L9746.83 9870.25"/>
<path transform="matrix(.00359712,0,0,-.00359712,0,85)" d="M11256.6 10147.1H11849.9C11875.1 10147.1 11921.6 10147.1 11921.6 10193.7 11921.6 10242.1 11877 10242.1 11849.9 10242.1H11256.6V10837.3C11256.6 10862.5 11256.6 10909.1 11210.1 10909.1 11161.6 10909.1 11161.6 10864.5 11161.6 10837.3V10242.1H10566.4C10541.2 10242.1 10494.7 10242.1 10494.7 10195.6 10494.7 10147.1 10539.3 10147.1 10566.4 10147.1H11161.6V9551.97C11161.6 9526.77 11161.6 9480.23 11208.2 9480.23 11256.6 9480.23 11256.6 9524.83 11256.6 9551.97V10147.1"/>
<path transform="matrix(.00359712,0,0,-.00359712,0,85)" d="M9918.58 15261C9918.58 15266.6 9926.88 15297 9926.88 15299.8 9926.88 15302.6 9926.88 15327.5 9893.64 15327.5 9865.94 15327.5 9863.17 15319.2 9852.09 15272.1L9691.42 14632.2C9250.95 14618.3 8843.73 14249.9 8843.73 13873.2 8843.73 13610 9037.66 13391.2 9375.61 13371.8 9353.45 13285.9 9334.06 13197.2 9311.91 13111.4 9278.66 12981.2 9250.95 12875.9 9250.95 12867.6 9250.95 12839.9 9270.34 12837.1 9284.2 12837.1 9298.05 12837.1 9303.59 12839.9 9311.91 12848.2 9317.44 12853.7 9334.06 12920.2 9342.38 12959L9447.64 13371.8C9893.64 13385.6 10295.3 13759.6 10295.3 14130.8 10295.3 14349.6 10148.5 14604.5 9763.44 14632.2L9918.58 15261ZM9389.47 13432.7C9223.25 13441 9023.8 13538 9023.8 13815 9023.8 14147.4 9262.03 14535.2 9674.8 14571.3L9389.47 13432.7ZM9746.83 14571.3C9957.36 14560.2 10115.3 14432.7 10115.3 14189 10115.3 13862.1 9877.02 13465.9 9461.48 13432.7L9746.83 14571.3"/>
<path transform="matrix(.00359712,0,0,-.00359712,0,85)" d="M11801.4 14848.1C11832.4 14848.1 11878.9 14848.1 11878.9 14894.7 11878.9 14943.1 11834.3 14943.1 11801.4 14943.1H10645.9C10614.9 14943.1 10568.4 14943.1 10568.4 14896.6 10568.4 14848.1 10613 14848.1 10645.9 14848.1H11801.4"/>
<path transform="matrix(.00359712,0,0,-.00359712,0,85)" d="M23943.1 12101.8C23984.7 12101.8 24037.3 12101.8 24037.3 12157.3 24037.3 12212.7 23984.7 12212.7 23945.9 12212.7H22286.5C22247.8 12212.7 22195.1 12212.7 22195.1 12157.3 22195.1 12101.8 22247.8 12101.8 22289.3 12101.8H23943.1ZM23945.9 11564.4C23984.7 11564.4 24037.3 11564.4 24037.3 11619.8 24037.3 11675.3 23984.7 11675.3 23943.1 11675.3H22289.3C22247.8 11675.3 22195.1 11675.3 22195.1 11619.8 22195.1 11564.4 22247.8 11564.4 22286.5 11564.4H23945.9"/>
<path transform="matrix(.00359712,0,0,-.00359712,0,85)" d="M26789.5 11833.1C26836.6 11833.1 26886.5 11833.1 26886.5 11888.5 26886.5 11944 26836.6 11944 26789.5 11944H25290.9C25243.8 11944 25193.9 11944 25193.9 11888.5 25193.9 11833.1 25243.8 11833.1 25290.9 11833.1H26789.5"/>
<path transform="matrix(.00359712,0,0,-.00359712,0,85)" d="M27904.7 12927.4C27904.7 12982.8 27866 13027.1 27802.2 13027.1 27727.4 13027.1 27652.6 12955.1 27652.6 12880.3 27652.6 12827.6 27691.4 12780.5 27757.9 12780.5 27821.6 12780.5 27904.7 12844.3 27904.7 12927.4ZM27694.2 11885.8C27727.4 11966.1 27727.4 11971.7 27755.1 12046.5 27777.3 12101.8 27791.2 12140.6 27791.2 12193.3 27791.2 12317.9 27702.5 12420.4 27564 12420.4 27303.6 12420.4 27198.3 12018.8 27198.3 11993.8 27198.3 11966.1 27226 11966.1 27231.6 11966.1 27259.3 11966.1 27262 11971.7 27275.9 12016 27350.7 12276.4 27461.5 12359.5 27555.7 12359.5 27577.8 12359.5 27624.9 12359.5 27624.9 12270.8 27624.9 12212.7 27605.5 12154.5 27594.5 12126.8 27572.3 12054.8 27447.7 11733.4 27403.3 11614.3 27375.6 11542.3 27339.6 11450.9 27339.6 11392.7 27339.6 11262.5 27433.8 11165.5 27566.8 11165.5 27827.2 11165.5 27929.7 11567.2 27929.7 11592.1 27929.7 11619.8 27904.7 11619.8 27896.4 11619.8 27868.7 11619.8 27868.7 11611.5 27854.9 11570 27805 11395.5 27713.6 11226.5 27572.3 11226.5 27525.2 11226.5 27505.8 11254.2 27505.8 11317.9 27505.8 11387.1 27522.5 11425.9 27586.2 11594.9L27694.2 11885.8"/>
<path transform="matrix(.00359712,0,0,-.00359712,0,85)" d="M29709.8 14113.4C29712.5 14130 29718.1 14143.8 29718.1 14163.2 29718.1 14210.3 29684.8 14238 29637.7 14238 29610 14238 29535.2 14218.6 29524.2 14118.9 29474.3 14221.4 29377.3 14293.4 29266.5 14293.4 28950.7 14293.4 28607.2 13905.6 28607.2 13506.7 28607.2 13232.4 28776.2 13069 28975.7 13069 29139.1 13069 29269.3 13199.2 29297 13229.7L29299.8 13226.9C29241.6 12980.4 29208.4 12866.8 29208.4 12861.2 29197.3 12836.3 29103.1 12562.1 28809.5 12562.1 28756.8 12562.1 28665.4 12564.8 28587.8 12589.8 28670.9 12614.7 28701.4 12686.7 28701.4 12733.8 28701.4 12778.1 28670.9 12830.8 28596.1 12830.8 28535.2 12830.8 28446.5 12780.9 28446.5 12670.1 28446.5 12556.5 28549 12501.1 28815 12501.1 29161.3 12501.1 29360.7 12717.2 29402.3 12883.4L29709.8 14113.4ZM29349.6 13423.6C29333 13351.6 29269.3 13282.3 29208.4 13229.7 29150.2 13179.8 29064.3 13129.9 28984 13129.9 28845.5 13129.9 28803.9 13274 28803.9 13384.8 28803.9 13517.8 28884.3 13844.7 28959 13985.9 29033.8 14121.7 29153 14232.5 29269.3 14232.5 29452.1 14232.5 29490.9 14008.1 29490.9 13994.3 29490.9 13980.4 29485.4 13963.8 29482.6 13952.7L29349.6 13423.6"/>
<path transform="matrix(.00359712,0,0,-.00359712,0,85)" stroke-width="110.783" stroke-linecap="butt" stroke-miterlimit="10" stroke-linejoin="miter" fill="none" stroke="#000000" d="M28404.7 11888.1H29824.9"/>
<path transform="matrix(.00359712,0,0,-.00359712,0,85)" d="M28773.8 9509.3 29067.5 9794.64C29499.6 10176.9 29665.8 10326.5 29665.8 10603.5 29665.8 10919.3 29416.5 11140.9 29078.5 11140.9 28765.5 11140.9 28560.5 10886.1 28560.5 10639.5 28560.5 10484.4 28699 10484.4 28707.3 10484.4 28754.4 10484.4 28851.4 10517.7 28851.4 10631.2 28851.4 10703.3 28801.5 10775.3 28704.6 10775.3 28682.4 10775.3 28676.9 10775.3 28668.5 10772.5 28732.3 10952.6 28881.8 11055.1 29042.5 11055.1 29294.6 11055.1 29413.7 10830.7 29413.7 10603.5 29413.7 10381.9 29275.2 10163.1 29122.9 9991.31L28591 9398.5C28560.5 9368.03 28560.5 9362.48 28560.5 9296H29588.3L29665.8 9778.02H29596.6C29582.7 9694.91 29563.3 9573.02 29535.6 9531.47 29516.2 9509.3 29333.4 9509.3 29272.5 9509.3H28773.8"/>
<path transform="matrix(.00359712,0,0,-.00359712,0,85)" d="M30733.8 13232.4C30725.5 13190.9 30708.8 13127.2 30708.8 13113.3 30708.8 13063.5 30747.6 13038.5 30789.2 13038.5 30822.4 13038.5 30872.3 13060.7 30891.7 13116.1 30894.5 13121.6 30927.7 13251.8 30944.3 13321.1L31005.3 13570.4C31021.9 13631.3 31038.5 13692.3 31052.3 13756 31063.4 13803.1 31085.6 13883.4 31088.4 13894.5 31129.9 13980.4 31276.7 14232.5 31539.9 14232.5 31664.6 14232.5 31689.5 14130 31689.5 14038.6 31689.5 13969.3 31670.1 13891.8 31647.9 13808.6L31570.4 13487.3 31515 13276.8C31503.9 13221.4 31479 13127.2 31479 13113.3 31479 13063.5 31517.7 13038.5 31559.3 13038.5 31645.2 13038.5 31661.8 13107.8 31684 13196.4 31722.7 13351.6 31825.2 13756 31850.2 13864 31858.5 13900.1 32005.3 14232.5 32307.3 14232.5 32426.4 14232.5 32456.8 14138.3 32456.8 14038.6 32456.8 13880.7 32340.5 13564.9 32285.1 13418 32260.2 13351.6 32249.1 13321.1 32249.1 13265.7 32249.1 13135.5 32346 13038.5 32476.2 13038.5 32736.6 13038.5 32839.1 13443 32839.1 13465.1 32839.1 13492.8 32814.2 13492.8 32805.9 13492.8 32778.2 13492.8 32778.2 13484.5 32764.3 13443 32722.8 13296.2 32634.1 13099.5 32481.8 13099.5 32434.7 13099.5 32415.3 13127.2 32415.3 13190.9 32415.3 13260.1 32440.2 13326.6 32465.1 13387.6 32517.8 13531.6 32634.1 13839.1 32634.1 13997 32634.1 14177.1 32523.3 14293.4 32315.5 14293.4 32107.8 14293.4 31966.5 14171.5 31864 14024.7 31861.3 14060.7 31852.9 14154.9 31775.4 14221.4 31706.1 14279.6 31617.5 14293.4 31548.2 14293.4 31298.9 14293.4 31163.2 14116.1 31116.1 14052.4 31102.2 14210.3 30985.9 14293.4 30861.2 14293.4 30733.8 14293.4 30681.1 14185.4 30656.2 14135.5 30606.3 14038.6 30570.3 13875.1 30570.3 13866.8 30570.3 13839.1 30598 13839.1 30603.6 13839.1 30631.3 13839.1 30634 13841.9 30650.7 13902.8 30697.8 14099.5 30753.2 14232.5 30852.9 14232.5 30897.2 14232.5 30938.8 14210.3 30938.8 14105 30938.8 14046.9 30930.5 14016.4 30894.5 13872.4L30733.8 13232.4"/>
<path transform="matrix(.00359712,0,0,-.00359712,0,85)" d="M33527.8 13941.3C33529.8 13945.2 33535.6 13970.4 33535.6 13972.3 33535.6 13982 33527.8 13999.5 33504.5 13999.5 33465.8 13999.5 33304.9 13984 33256.4 13980.1 33240.9 13978.1 33213.8 13976.2 33213.8 13935.5 33213.8 13908.3 33240.9 13908.3 33264.2 13908.3 33357.2 13908.3 33357.2 13894.8 33357.2 13879.3 33357.2 13865.7 33353.3 13854.1 33349.5 13836.6L33076.1 12739.3C33066.4 12704.4 33066.4 12700.5 33066.4 12696.7 33066.4 12667.6 33089.7 12634.6 33132.3 12634.6 33153.6 12634.6 33190.5 12644.3 33211.8 12685 33217.6 12696.7 33235.1 12766.4 33244.8 12807.2L33289.4 12979.7C33295.2 13008.8 33314.6 13082.5 33320.4 13111.5 33339.8 13185.2 33339.8 13187.1 33378.5 13249.2 33440.6 13344.2 33537.5 13454.7 33688.7 13454.7 33797.3 13454.7 33803.1 13365.5 33803.1 13319 33803.1 13202.7 33719.8 12987.5 33688.7 12906 33667.4 12851.8 33659.6 12834.3 33659.6 12801.3 33659.6 12698.6 33745 12634.6 33843.8 12634.6 34037.7 12634.6 34123 12902.2 34123 12931.2 34123 12956.4 34097.8 12956.4 34092 12956.4 34064.8 12956.4 34062.9 12944.8 34055.1 12923.5 34010.5 12768.4 33925.3 12688.9 33849.6 12688.9 33808.9 12688.9 33801.2 12716 33801.2 12756.8 33801.2 12801.3 33810.9 12826.5 33845.8 12913.8 33869 12973.9 33948.5 13179.4 33948.5 13288 33948.5 13319 33948.5 13400.4 33876.8 13456.6 33843.8 13481.8 33787.6 13509 33696.5 13509 33555 13509 33452.2 13431.4 33380.5 13348.1L33527.8 13941.3"/>
<path transform="matrix(.00359712,0,0,-.00359712,0,85)" d="M35336 14427.8H35270.1C35264.3 14385.2 35244.9 14270.8 35219.7 14251.4 35204.2 14239.8 35054.9 14239.8 35027.8 14239.8H34671.1C34874.6 14420.1 34942.5 14474.4 35058.8 14565.5 35202.3 14679.9 35336 14800.1 35336 14984.3 35336 15218.8 35130.5 15362.3 34882.4 15362.3 34642 15362.3 34479.1 15193.6 34479.1 15015.3 34479.1 14916.4 34562.5 14906.7 34581.9 14906.7 34628.4 14906.7 34684.6 14939.7 34684.6 15009.5 34684.6 15044.3 34671.1 15112.2 34570.3 15112.2 34630.4 15249.9 34762.2 15292.5 34853.3 15292.5 35047.2 15292.5 35148 15141.3 35148 14984.3 35148 14815.6 35027.8 14681.8 34965.8 14612L34498.5 14150.6C34479.1 14133.2 34479.1 14129.3 34479.1 14075H35277.9L35336 14427.8"/>
<path transform="matrix(.00359712,0,0,-.00359712,0,85)" stroke-width="110.783" stroke-linecap="butt" stroke-miterlimit="10" stroke-linejoin="miter" fill="none" stroke="#000000" d="M30489.7 11888.1H35599"/>
<path transform="matrix(.00359712,0,0,-.00359712,0,85)" d="M30812.8 9459.44C30804.5 9417.89 30787.8 9354.17 30787.8 9340.33 30787.8 9290.45 30826.6 9265.53 30868.2 9265.53 30901.4 9265.53 30951.3 9287.69 30970.7 9343.09 30973.5 9348.64 31006.7 9478.83 31023.3 9548.09L31084.3 9797.41C31100.9 9858.34 31117.5 9919.3 31131.3 9983 31142.4 10030.1 31164.6 10110.4 31167.4 10121.5 31208.9 10207.4 31355.7 10459.5 31618.9 10459.5 31743.6 10459.5 31768.5 10357 31768.5 10265.6 31768.5 10196.3 31749.1 10118.8 31726.9 10035.6L31649.4 9714.3 31594 9503.77C31582.9 9448.36 31558 9354.17 31558 9340.33 31558 9290.45 31596.7 9265.53 31638.3 9265.53 31724.2 9265.53 31740.8 9334.78 31763 9423.42 31801.7 9578.56 31904.2 9983 31929.2 10091 31937.5 10127.1 32084.3 10459.5 32386.3 10459.5 32505.4 10459.5 32535.8 10365.3 32535.8 10265.6 32535.8 10107.7 32419.5 9791.86 32364.1 9645.05 32339.2 9578.56 32328.1 9548.09 32328.1 9492.69 32328.1 9362.48 32425 9265.53 32555.2 9265.53 32815.6 9265.53 32918.1 9669.97 32918.1 9692.14 32918.1 9719.84 32893.2 9719.84 32884.9 9719.84 32857.2 9719.84 32857.2 9711.53 32843.3 9669.97 32801.8 9523.16 32713.1 9326.47 32560.8 9326.47 32513.7 9326.47 32494.3 9354.17 32494.3 9417.89 32494.3 9487.14 32519.2 9553.63 32544.1 9614.58 32596.8 9758.63 32713.1 10066.1 32713.1 10224 32713.1 10404.1 32602.3 10520.4 32394.5 10520.4 32186.8 10520.4 32045.5 10398.5 31943 10251.7 31940.3 10287.7 31931.9 10381.9 31854.4 10448.4 31785.1 10506.6 31696.5 10520.4 31627.2 10520.4 31377.9 10520.4 31242.2 10343.1 31195.1 10279.4 31181.2 10437.3 31064.9 10520.4 30940.2 10520.4 30812.8 10520.4 30760.1 10412.4 30735.2 10362.5 30685.3 10265.6 30649.3 10102.1 30649.3 10093.8 30649.3 10066.1 30677 10066.1 30682.6 10066.1 30710.3 10066.1 30713 10068.9 30729.7 10129.8 30776.8 10326.5 30832.2 10459.5 30931.9 10459.5 30976.2 10459.5 31017.8 10437.3 31017.8 10332 31017.8 10273.9 31009.5 10243.4 30973.5 10099.4L30812.8 9459.44"/>
<path transform="matrix(.00359712,0,0,-.00359712,0,85)" d="M35009.5 9975.36 35044.4 10025.8C35085.1 10078.1 35131.6 10126.6 35226.6 10134.3 35248 10136.3 35271.2 10138.2 35271.2 10177 35271.2 10190.6 35259.6 10204.1 35244.1 10204.1 35199.5 10204.1 35143.3 10196.4 35096.7 10196.4 35028.9 10196.4 34945.5 10204.1 34881.5 10204.1 34871.8 10204.1 34840.8 10204.1 34840.8 10161.5 34840.8 10136.3 34868 10134.3 34875.7 10134.3 34918.4 10132.4 34982.4 10120.8 34982.4 10066.5 34982.4 10045.2 34961 10010.3 34953.3 9996.69L34406.6 9099.08 34299.9 10078.1C34299.9 10132.4 34412.4 10134.3 34435.6 10134.3 34460.8 10134.3 34488 10134.3 34488 10177 34488 10178.9 34486 10204.1 34455 10204.1 34418.2 10204.1 34371.7 10200.3 34334.8 10198.3 34296 10196.4 34245.6 10196.4 34206.9 10196.4 34162.3 10196.4 34047.9 10204.1 34003.3 10204.1 33993.6 10204.1 33964.5 10204.1 33964.5 10161.5 33964.5 10134.3 33989.7 10134.3 34014.9 10134.3 34098.3 10134.3 34108 10120.8 34113.8 10101.4 34115.8 10089.8 34119.6 10035.5 34127.4 9975.36L33594.3 9099.08 33491.5 10049C33491.5 10056.8 33487.6 10076.2 33487.6 10078.1 33487.6 10134.3 33607.8 10134.3 33623.3 10134.3 33648.5 10134.3 33675.7 10134.3 33675.7 10177 33675.7 10184.8 33669.9 10204.1 33644.7 10204.1 33588.4 10204.1 33450.8 10196.4 33394.6 10196.4 33330.6 10196.4 33249.2 10204.1 33191 10204.1 33171.6 10204.1 33152.2 10196.4 33152.2 10163.4 33152.2 10134.3 33175.5 10134.3 33206.5 10134.3 33297.6 10134.3 33297.6 10122.7 33303.4 10074.2L33433.3 8893.58C33437.2 8854.8 33439.1 8841.22 33474 8841.22 33507 8841.22 33520.6 8858.67 33532.2 8880L34137.1 9876.48 34243.7 8891.63C34247.6 8850.92 34257.3 8841.22 34286.4 8841.22 34319.3 8841.22 34331 8858.67 34344.5 8881.94L35009.5 9975.36"/>
<path transform="matrix(.00359712,0,0,-.00359712,0,85)" d="M36494.3 11198.8C36494.3 11381.6 36425.1 11489.6 36317.1 11489.6 36225.6 11489.6 36170.2 11420.4 36170.2 11342.8 36170.2 11268 36225.6 11196 36317.1 11196 36350.3 11196 36386.3 11207.1 36414 11232 36422.3 11237.5 36425.1 11240.3 36427.9 11240.3 36430.6 11240.3 36433.4 11237.5 36433.4 11198.8 36433.4 10993.8 36336.5 10827.6 36245 10736.2 36214.6 10705.7 36214.6 10700.1 36214.6 10691.8 36214.6 10672.4 36228.4 10661.4 36242.3 10661.4 36272.7 10661.4 36494.3 10874.7 36494.3 11198.8"/>
<path transform="matrix(.00359712,0,0,-.00359712,0,85)" d="M45758.6 2649.03C45758.6 2654.56 45766.9 2685.03 45766.9 2687.81 45766.9 2690.58 45766.9 2715.52 45733.6 2715.52 45705.9 2715.52 45703.2 2707.2 45692.1 2660.11L45531.4 2020.19C45091 2006.34 44683.7 1637.91 44683.7 1261.16 44683.7 998 44877.7 779.156 45215.6 759.75 45193.5 673.875 45174.1 585.234 45151.9 499.359 45118.7 369.156 45091 263.891 45091 255.578 45091 227.875 45110.3 225.109 45124.2 225.109 45138 225.109 45143.6 227.875 45151.9 236.188 45157.4 241.734 45174.1 308.219 45182.4 347L45287.6 759.75C45733.6 773.609 46135.3 1147.58 46135.3 1518.8 46135.3 1737.64 45988.5 1992.48 45603.4 2020.19L45758.6 2649.03ZM45229.5 820.703C45063.3 829.016 44863.8 925.969 44863.8 1202.98 44863.8 1535.41 45102 1923.23 45514.8 1959.25L45229.5 820.703ZM45586.8 1959.25C45797.4 1948.17 45955.3 1820.73 45955.3 1576.97 45955.3 1250.08 45717 853.938 45301.5 820.703L45586.8 1959.25"/>
<path transform="matrix(.00359712,0,0,-.00359712,0,85)" d="M46727.3 2445.53C46878.5 2445.53 46987 2340.84 46987 2133.39 46987 1893 46847.5 1821.27 46735 1821.27 46657.5 1821.27 46486.9 1842.59 46405.4 1956.97 46496.6 1960.84 46517.9 2024.83 46517.9 2065.55 46517.9 2127.58 46471.4 2172.17 46411.3 2172.17 46357 2172.17 46302.7 2139.22 46302.7 2059.72 46302.7 1877.48 46504.3 1759.22 46738.9 1759.22 47008.4 1759.22 47194.5 1939.53 47194.5 2133.39 47194.5 2284.61 47070.4 2435.83 46857.2 2480.42 47060.7 2554.09 47134.4 2699.5 47134.4 2817.75 47134.4 2970.91 46958 3085.3 46742.8 3085.3 46527.6 3085.3 46362.8 2980.61 46362.8 2825.52 46362.8 2759.59 46405.4 2722.77 46463.6 2722.77 46523.7 2722.77 46562.5 2767.34 46562.5 2821.64 46562.5 2877.86 46523.7 2918.56 46463.6 2922.45 46531.5 3007.75 46665.2 3029.08 46737 3029.08 46824.2 3029.08 46946.3 2986.42 46946.3 2817.75 46946.3 2736.33 46919.2 2647.16 46868.8 2587.05 46804.8 2513.38 46750.5 2509.5 46653.6 2503.69 46605.1 2499.81 46601.3 2499.81 46591.6 2497.88 46587.7 2497.88 46572.2 2494 46572.2 2472.67 46572.2 2445.53 46589.6 2445.53 46622.6 2445.53H46727.3"/>
<path transform="matrix(.00359712,0,0,-.00359712,0,85)" d="M63722 12819C63722 12821.8 63722 12849.5 63686 12849.5 63622.3 12849.5 63420.1 12827.3 63348.1 12821.8 63325.9 12819 63295.4 12816.3 63295.4 12766.4 63295.4 12733.2 63320.4 12733.2 63361.9 12733.2 63494.9 12733.2 63500.4 12713.8 63500.4 12686.1L63492.1 12630.7 63090.4 11035C63079.4 10996.3 63079.4 10990.7 63079.4 10974.1 63079.4 10910.4 63134.8 10896.5 63159.7 10896.5 63204 10896.5 63248.3 10929.8 63262.2 10968.5L63314.8 11179.1 63375.8 11428.4C63392.4 11489.3 63409 11550.3 63422.9 11614 63428.4 11630.6 63450.6 11722 63453.3 11738.7 63461.6 11763.6 63547.5 11918.7 63641.7 11993.5 63702.7 12037.8 63788.5 12090.5 63907.6 12090.5 64026.8 12090.5 64057.2 11996.3 64057.2 11896.6 64057.2 11747 63952 11445 63885.5 11276 63863.3 11212.3 63849.5 11179.1 63849.5 11123.7 63849.5 10993.5 63946.4 10896.5 64076.6 10896.5 64337 10896.5 64439.5 11301 64439.5 11323.1 64439.5 11350.8 64414.6 11350.8 64406.3 11350.8 64378.6 11350.8 64378.6 11342.5 64364.7 11301 64323.2 11154.2 64234.5 10957.5 64082.2 10957.5 64035.1 10957.5 64015.7 10985.2 64015.7 11048.9 64015.7 11118.1 64040.6 11184.6 64065.5 11245.6 64109.9 11364.7 64234.5 11694.3 64234.5 11855 64234.5 12035.1 64123.7 12151.4 63916 12151.4 63741.4 12151.4 63608.5 12065.5 63506 11938.1L63722 12819"/>
<path transform="matrix(.00359712,0,0,-.00359712,0,85)" d="M45758.6 23123C45758.6 23128.6 45766.9 23159 45766.9 23161.8 45766.9 23164.6 45766.9 23189.5 45733.6 23189.5 45705.9 23189.5 45703.2 23181.2 45692.1 23134.1L45531.4 22494.2C45091 22480.3 44683.7 22111.9 44683.7 21735.2 44683.7 21472 44877.7 21253.2 45215.6 21233.8 45193.5 21147.9 45174.1 21059.2 45151.9 20973.4 45118.7 20843.2 45091 20737.9 45091 20729.6 45091 20701.9 45110.3 20699.1 45124.2 20699.1 45138 20699.1 45143.6 20701.9 45151.9 20710.2 45157.4 20715.7 45174.1 20782.2 45182.4 20821L45287.6 21233.8C45733.6 21247.6 46135.3 21621.6 46135.3 21992.8 46135.3 22211.6 45988.5 22466.5 45603.4 22494.2L45758.6 23123ZM45229.5 21294.7C45063.3 21303 44863.8 21400 44863.8 21677 44863.8 22009.4 45102 22397.2 45514.8 22433.3L45229.5 21294.7ZM45586.8 22433.3C45797.4 22422.2 45955.3 22294.7 45955.3 22051 45955.3 21724.1 45717 21327.9 45301.5 21294.7L45586.8 22433.3"/>
<path transform="matrix(.00359712,0,0,-.00359712,0,85)" d="M46727.3 22919.5C46878.5 22919.5 46987 22814.8 46987 22607.4 46987 22367 46847.5 22295.3 46735 22295.3 46657.5 22295.3 46486.9 22316.6 46405.4 22431 46496.6 22434.8 46517.9 22498.8 46517.9 22539.5 46517.9 22601.6 46471.4 22646.2 46411.3 22646.2 46357 22646.2 46302.7 22613.2 46302.7 22533.7 46302.7 22351.5 46504.3 22233.2 46738.9 22233.2 47008.4 22233.2 47194.5 22413.5 47194.5 22607.4 47194.5 22758.6 47070.4 22909.8 46857.2 22954.4 47060.7 23028.1 47134.4 23173.5 47134.4 23291.8 47134.4 23444.9 46958 23559.3 46742.8 23559.3 46527.6 23559.3 46362.8 23454.6 46362.8 23299.5 46362.8 23233.6 46405.4 23196.8 46463.6 23196.8 46523.7 23196.8 46562.5 23241.3 46562.5 23295.6 46562.5 23351.9 46523.7 23392.6 46463.6 23396.5 46531.5 23481.8 46665.2 23503.1 46737 23503.1 46824.2 23503.1 46946.3 23460.4 46946.3 23291.8 46946.3 23210.3 46919.2 23121.2 46868.8 23061 46804.8 22987.4 46750.5 22983.5 46653.6 22977.7 46605.1 22973.8 46601.3 22973.8 46591.6 22971.9 46587.7 22971.9 46572.2 22968 46572.2 22946.7 46572.2 22919.5 46589.6 22919.5 46622.6 22919.5H46727.3"/>
<path transform="matrix(.00359712,0,0,-.00359712,0,85)" stroke-width="110.783" stroke-linecap="butt" stroke-dasharray="830.895,830.895" stroke-miterlimit="10" stroke-linejoin="miter" fill="none" stroke="#000000" d="M47365.4 4026.17 51904.5 11888.1"/>
<path transform="matrix(.00359712,0,0,-.00359712,0,85)" stroke-width="110.783" stroke-linecap="butt" stroke-dasharray="830.895,830.895" stroke-miterlimit="10" stroke-linejoin="miter" fill="none" stroke="#000000" d="M51904.5 11888.1 47365.4 19750.1"/>
<path transform="matrix(.00359712,0,0,-.00359712,0,85)" stroke-width="110.783" stroke-linecap="butt" stroke-dasharray="830.895,830.895" stroke-miterlimit="10" stroke-linejoin="miter" fill="none" stroke="#000000" d="M51904.5 11888.1H61948.8"/>
<path transform="matrix(.00359712,0,0,-.00359712,0,85)" d="M68118.1 12101.8C68159.7 12101.8 68212.3 12101.8 68212.3 12157.3 68212.3 12212.7 68159.7 12212.7 68120.9 12212.7H66461.5C66422.8 12212.7 66370.1 12212.7 66370.1 12157.3 66370.1 12101.8 66422.8 12101.8 66464.3 12101.8H68118.1ZM68120.9 11564.4C68159.7 11564.4 68212.3 11564.4 68212.3 11619.8 68212.3 11675.3 68159.7 11675.3 68118.1 11675.3H66464.3C66422.8 11675.3 66370.1 11675.3 66370.1 11619.8 66370.1 11564.4 66422.8 11564.4 66461.5 11564.4H68120.9"/>
<path transform="matrix(.00359712,0,0,-.00359712,0,85)" d="M70964.5 11833.1C71011.6 11833.1 71061.5 11833.1 71061.5 11888.5 71061.5 11944 71011.6 11944 70964.5 11944H69465.9C69418.8 11944 69368.9 11944 69368.9 11888.5 69368.9 11833.1 69418.8 11833.1 69465.9 11833.1H70964.5"/>
<path transform="matrix(.00359712,0,0,-.00359712,0,85)" d="M72079.7 12927.4C72079.7 12982.8 72041 13027.1 71977.2 13027.1 71902.4 13027.1 71827.6 12955.1 71827.6 12880.3 71827.6 12827.6 71866.4 12780.5 71932.9 12780.5 71996.6 12780.5 72079.7 12844.3 72079.7 12927.4ZM71869.2 11885.8C71902.4 11966.1 71902.4 11971.7 71930.1 12046.5 71952.3 12101.8 71966.2 12140.6 71966.2 12193.3 71966.2 12317.9 71877.5 12420.4 71739 12420.4 71478.6 12420.4 71373.3 12018.8 71373.3 11993.8 71373.3 11966.1 71401 11966.1 71406.6 11966.1 71434.3 11966.1 71437 11971.7 71450.9 12016 71525.7 12276.4 71636.5 12359.5 71730.7 12359.5 71752.8 12359.5 71799.9 12359.5 71799.9 12270.8 71799.9 12212.7 71780.5 12154.5 71769.5 12126.8 71747.3 12054.8 71622.7 11733.4 71578.3 11614.3 71550.6 11542.3 71514.6 11450.9 71514.6 11392.7 71514.6 11262.5 71608.8 11165.5 71741.8 11165.5 72002.2 11165.5 72104.7 11567.2 72104.7 11592.1 72104.7 11619.8 72079.7 11619.8 72071.4 11619.8 72043.7 11619.8 72043.7 11611.5 72029.9 11570 71980 11395.5 71888.6 11226.5 71747.3 11226.5 71700.2 11226.5 71680.8 11254.2 71680.8 11317.9 71680.8 11387.1 71697.5 11425.9 71761.2 11594.9L71869.2 11885.8"/>
<path transform="matrix(.00359712,0,0,-.00359712,0,85)" d="M73883.8 14113.4C73886.5 14130 73892.1 14143.8 73892.1 14163.2 73892.1 14210.3 73858.8 14238 73811.7 14238 73784 14238 73709.2 14218.6 73698.2 14118.9 73648.3 14221.4 73551.3 14293.4 73440.5 14293.4 73124.7 14293.4 72781.2 13905.6 72781.2 13506.7 72781.2 13232.4 72950.2 13069 73149.7 13069 73313.1 13069 73443.3 13199.2 73471 13229.7L73473.8 13226.9C73415.6 12980.4 73382.4 12866.8 73382.4 12861.2 73371.3 12836.3 73277.1 12562.1 72983.5 12562.1 72930.8 12562.1 72839.4 12564.8 72761.8 12589.8 72844.9 12614.7 72875.4 12686.7 72875.4 12733.8 72875.4 12778.1 72844.9 12830.8 72770.1 12830.8 72709.2 12830.8 72620.5 12780.9 72620.5 12670.1 72620.5 12556.5 72723 12501.1 72989 12501.1 73335.3 12501.1 73534.7 12717.2 73576.3 12883.4L73883.8 14113.4ZM73523.6 13423.6C73507 13351.6 73443.3 13282.3 73382.4 13229.7 73324.2 13179.8 73238.3 13129.9 73158 13129.9 73019.5 13129.9 72977.9 13274 72977.9 13384.8 72977.9 13517.8 73058.3 13844.7 73133 13985.9 73207.8 14121.7 73327 14232.5 73443.3 14232.5 73626.1 14232.5 73664.9 14008.1 73664.9 13994.3 73664.9 13980.4 73659.4 13963.8 73656.6 13952.7L73523.6 13423.6"/>
<path transform="matrix(.00359712,0,0,-.00359712,0,85)" stroke-width="110.783" stroke-linecap="butt" stroke-miterlimit="10" stroke-linejoin="miter" fill="none" stroke="#000000" d="M72579.4 11888.1H73999.7"/>
<path transform="matrix(.00359712,0,0,-.00359712,0,85)" d="M72948.8 9509.3 73242.5 9794.64C73674.6 10176.9 73840.8 10326.5 73840.8 10603.5 73840.8 10919.3 73591.5 11140.9 73253.5 11140.9 72940.5 11140.9 72735.5 10886.1 72735.5 10639.5 72735.5 10484.4 72874 10484.4 72882.3 10484.4 72929.4 10484.4 73026.4 10517.7 73026.4 10631.2 73026.4 10703.3 72976.5 10775.3 72879.6 10775.3 72857.4 10775.3 72851.9 10775.3 72843.5 10772.5 72907.3 10952.6 73056.8 11055.1 73217.5 11055.1 73469.6 11055.1 73588.7 10830.7 73588.7 10603.5 73588.7 10381.9 73450.2 10163.1 73297.9 9991.31L72766 9398.5C72735.5 9368.03 72735.5 9362.48 72735.5 9296H73763.3L73840.8 9778.02H73771.6C73757.7 9694.91 73738.3 9573.02 73710.6 9531.47 73691.2 9509.3 73508.4 9509.3 73447.5 9509.3H72948.8"/>
<path transform="matrix(.00359712,0,0,-.00359712,0,85)" d="M74907.8 13232.4C74899.5 13190.9 74882.8 13127.2 74882.8 13113.3 74882.8 13063.5 74921.6 13038.5 74963.2 13038.5 74996.4 13038.5 75046.3 13060.7 75065.7 13116.1 75068.5 13121.6 75101.7 13251.8 75118.3 13321.1L75179.3 13570.4C75195.9 13631.3 75212.5 13692.3 75226.3 13756 75237.4 13803.1 75259.6 13883.4 75262.4 13894.5 75303.9 13980.4 75450.7 14232.5 75713.9 14232.5 75838.6 14232.5 75863.5 14130 75863.5 14038.6 75863.5 13969.3 75844.1 13891.8 75821.9 13808.6L75744.4 13487.3 75689 13276.8C75677.9 13221.4 75653 13127.2 75653 13113.3 75653 13063.5 75691.7 13038.5 75733.3 13038.5 75819.2 13038.5 75835.8 13107.8 75858 13196.4 75896.7 13351.6 75999.2 13756 76024.2 13864 76032.5 13900.1 76179.3 14232.5 76481.3 14232.5 76600.4 14232.5 76630.8 14138.3 76630.8 14038.6 76630.8 13880.7 76514.5 13564.9 76459.1 13418 76434.2 13351.6 76423.1 13321.1 76423.1 13265.7 76423.1 13135.5 76520 13038.5 76650.2 13038.5 76910.6 13038.5 77013.1 13443 77013.1 13465.1 77013.1 13492.8 76988.2 13492.8 76979.9 13492.8 76952.2 13492.8 76952.2 13484.5 76938.3 13443 76896.8 13296.2 76808.1 13099.5 76655.8 13099.5 76608.7 13099.5 76589.3 13127.2 76589.3 13190.9 76589.3 13260.1 76614.2 13326.6 76639.1 13387.6 76691.8 13531.6 76808.1 13839.1 76808.1 13997 76808.1 14177.1 76697.3 14293.4 76489.5 14293.4 76281.8 14293.4 76140.5 14171.5 76038 14024.7 76035.3 14060.7 76026.9 14154.9 75949.4 14221.4 75880.1 14279.6 75791.5 14293.4 75722.2 14293.4 75472.9 14293.4 75337.2 14116.1 75290.1 14052.4 75276.2 14210.3 75159.9 14293.4 75035.2 14293.4 74907.8 14293.4 74855.1 14185.4 74830.2 14135.5 74780.3 14038.6 74744.3 13875.1 74744.3 13866.8 74744.3 13839.1 74772 13839.1 74777.6 13839.1 74805.3 13839.1 74808 13841.9 74824.7 13902.8 74871.8 14099.5 74927.2 14232.5 75026.9 14232.5 75071.2 14232.5 75112.8 14210.3 75112.8 14105 75112.8 14046.9 75104.5 14016.4 75068.5 13872.4L74907.8 13232.4"/>
<path transform="matrix(.00359712,0,0,-.00359712,0,85)" d="M77702.8 13941.3C77704.8 13945.2 77710.6 13970.4 77710.6 13972.3 77710.6 13982 77702.8 13999.5 77679.5 13999.5 77640.8 13999.5 77479.9 13984 77431.4 13980.1 77415.9 13978.1 77388.8 13976.2 77388.8 13935.5 77388.8 13908.3 77415.9 13908.3 77439.2 13908.3 77532.2 13908.3 77532.2 13894.8 77532.2 13879.3 77532.2 13865.7 77528.3 13854.1 77524.5 13836.6L77251.1 12739.3C77241.4 12704.4 77241.4 12700.5 77241.4 12696.7 77241.4 12667.6 77264.7 12634.6 77307.3 12634.6 77328.6 12634.6 77365.5 12644.3 77386.8 12685 77392.6 12696.7 77410.1 12766.4 77419.8 12807.2L77464.4 12979.7C77470.2 13008.8 77489.6 13082.5 77495.4 13111.5 77514.8 13185.2 77514.8 13187.1 77553.5 13249.2 77615.6 13344.2 77712.5 13454.7 77863.7 13454.7 77972.3 13454.7 77978.1 13365.5 77978.1 13319 77978.1 13202.7 77894.8 12987.5 77863.7 12906 77842.4 12851.8 77834.6 12834.3 77834.6 12801.3 77834.6 12698.6 77920 12634.6 78018.8 12634.6 78212.7 12634.6 78298 12902.2 78298 12931.2 78298 12956.4 78272.8 12956.4 78267 12956.4 78239.8 12956.4 78237.9 12944.8 78230.1 12923.5 78185.5 12768.4 78100.3 12688.9 78024.6 12688.9 77983.9 12688.9 77976.2 12716 77976.2 12756.8 77976.2 12801.3 77985.9 12826.5 78020.8 12913.8 78044 12973.9 78123.5 13179.4 78123.5 13288 78123.5 13319 78123.5 13400.4 78051.8 13456.6 78018.8 13481.8 77962.6 13509 77871.5 13509 77730 13509 77627.2 13431.4 77555.5 13348.1L77702.8 13941.3"/>
<path transform="matrix(.00359712,0,0,-.00359712,0,85)" d="M79510 14427.8H79444.1C79438.3 14385.2 79418.9 14270.8 79393.7 14251.4 79378.2 14239.8 79228.9 14239.8 79201.8 14239.8H78845.1C79048.6 14420.1 79116.5 14474.4 79232.8 14565.5 79376.3 14679.9 79510 14800.1 79510 14984.3 79510 15218.8 79304.5 15362.3 79056.4 15362.3 78816 15362.3 78653.1 15193.6 78653.1 15015.3 78653.1 14916.4 78736.5 14906.7 78755.9 14906.7 78802.4 14906.7 78858.6 14939.7 78858.6 15009.5 78858.6 15044.3 78845.1 15112.2 78744.3 15112.2 78804.4 15249.9 78936.2 15292.5 79027.3 15292.5 79221.2 15292.5 79322 15141.3 79322 14984.3 79322 14815.6 79201.8 14681.8 79139.8 14612L78672.5 14150.6C78653.1 14133.2 78653.1 14129.3 78653.1 14075H79451.9L79510 14427.8"/>
<path transform="matrix(.00359712,0,0,-.00359712,0,85)" stroke-width="110.783" stroke-linecap="butt" stroke-miterlimit="10" stroke-linejoin="miter" fill="none" stroke="#000000" d="M74664.4 11888.1H79773.8"/>
<path transform="matrix(.00359712,0,0,-.00359712,0,85)" d="M74986.8 9459.44C74978.5 9417.89 74961.8 9354.17 74961.8 9340.33 74961.8 9290.45 75000.6 9265.53 75042.2 9265.53 75075.4 9265.53 75125.3 9287.69 75144.7 9343.09 75147.5 9348.64 75180.7 9478.83 75197.3 9548.09L75258.3 9797.41C75274.9 9858.34 75291.5 9919.3 75305.3 9983 75316.4 10030.1 75338.6 10110.4 75341.4 10121.5 75382.9 10207.4 75529.7 10459.5 75792.9 10459.5 75917.6 10459.5 75942.5 10357 75942.5 10265.6 75942.5 10196.3 75923.1 10118.8 75900.9 10035.6L75823.4 9714.3 75768 9503.77C75756.9 9448.36 75732 9354.17 75732 9340.33 75732 9290.45 75770.7 9265.53 75812.3 9265.53 75898.2 9265.53 75914.8 9334.78 75937 9423.42 75975.7 9578.56 76078.2 9983 76103.2 10091 76111.5 10127.1 76258.3 10459.5 76560.3 10459.5 76679.4 10459.5 76709.8 10365.3 76709.8 10265.6 76709.8 10107.7 76593.5 9791.86 76538.1 9645.05 76513.2 9578.56 76502.1 9548.09 76502.1 9492.69 76502.1 9362.48 76599 9265.53 76729.2 9265.53 76989.6 9265.53 77092.1 9669.97 77092.1 9692.14 77092.1 9719.84 77067.2 9719.84 77058.9 9719.84 77031.2 9719.84 77031.2 9711.53 77017.3 9669.97 76975.8 9523.16 76887.1 9326.47 76734.8 9326.47 76687.7 9326.47 76668.3 9354.17 76668.3 9417.89 76668.3 9487.14 76693.2 9553.63 76718.1 9614.58 76770.8 9758.63 76887.1 10066.1 76887.1 10224 76887.1 10404.1 76776.3 10520.4 76568.5 10520.4 76360.8 10520.4 76219.5 10398.5 76117 10251.7 76114.3 10287.7 76105.9 10381.9 76028.4 10448.4 75959.1 10506.6 75870.5 10520.4 75801.2 10520.4 75551.9 10520.4 75416.2 10343.1 75369.1 10279.4 75355.2 10437.3 75238.9 10520.4 75114.2 10520.4 74986.8 10520.4 74934.1 10412.4 74909.2 10362.5 74859.3 10265.6 74823.3 10102.1 74823.3 10093.8 74823.3 10066.1 74851 10066.1 74856.6 10066.1 74884.3 10066.1 74887 10068.9 74903.7 10129.8 74950.8 10326.5 75006.2 10459.5 75105.9 10459.5 75150.2 10459.5 75191.8 10437.3 75191.8 10332 75191.8 10273.9 75183.5 10243.4 75147.5 10099.4L74986.8 9459.44"/>
<path transform="matrix(.00359712,0,0,-.00359712,0,85)" d="M79183.5 9975.36 79218.4 10025.8C79259.1 10078.1 79305.6 10126.6 79400.6 10134.3 79422 10136.3 79445.2 10138.2 79445.2 10177 79445.2 10190.6 79433.6 10204.1 79418.1 10204.1 79373.5 10204.1 79317.3 10196.4 79270.7 10196.4 79202.9 10196.4 79119.5 10204.1 79055.5 10204.1 79045.8 10204.1 79014.8 10204.1 79014.8 10161.5 79014.8 10136.3 79042 10134.3 79049.7 10134.3 79092.4 10132.4 79156.4 10120.8 79156.4 10066.5 79156.4 10045.2 79135 10010.3 79127.3 9996.69L78580.6 9099.08 78473.9 10078.1C78473.9 10132.4 78586.4 10134.3 78609.6 10134.3 78634.8 10134.3 78662 10134.3 78662 10177 78662 10178.9 78660 10204.1 78629 10204.1 78592.2 10204.1 78545.7 10200.3 78508.8 10198.3 78470 10196.4 78419.6 10196.4 78380.9 10196.4 78336.3 10196.4 78221.9 10204.1 78177.3 10204.1 78167.6 10204.1 78138.5 10204.1 78138.5 10161.5 78138.5 10134.3 78163.7 10134.3 78188.9 10134.3 78272.3 10134.3 78282 10120.8 78287.8 10101.4 78289.8 10089.8 78293.6 10035.5 78301.4 9975.36L77768.3 9099.08 77665.5 10049C77665.5 10056.8 77661.6 10076.2 77661.6 10078.1 77661.6 10134.3 77781.8 10134.3 77797.3 10134.3 77822.5 10134.3 77849.7 10134.3 77849.7 10177 77849.7 10184.8 77843.9 10204.1 77818.7 10204.1 77762.4 10204.1 77624.8 10196.4 77568.6 10196.4 77504.6 10196.4 77423.2 10204.1 77365 10204.1 77345.6 10204.1 77326.2 10196.4 77326.2 10163.4 77326.2 10134.3 77349.5 10134.3 77380.5 10134.3 77471.6 10134.3 77471.6 10122.7 77477.4 10074.2L77607.3 8893.58C77611.2 8854.8 77613.1 8841.22 77648 8841.22 77681 8841.22 77694.6 8858.67 77706.2 8880L78311.1 9876.48 78417.7 8891.63C78421.6 8850.92 78431.3 8841.22 78460.4 8841.22 78493.3 8841.22 78505 8858.67 78518.5 8881.94L79183.5 9975.36"/>
<path transform="matrix(.00359712,0,0,-.00359712,0,85)" d="M80637.9 11342.8C80637.9 11423.2 80571.4 11489.6 80491.1 11489.6 80410.7 11489.6 80344.2 11423.2 80344.2 11342.8 80344.2 11262.5 80410.7 11196 80491.1 11196 80571.4 11196 80637.9 11262.5 80637.9 11342.8"/>
</svg>
