<svg xmlns="http://www.w3.org/2000/svg" xmlns:xlink="http://www.w3.org/1999/xlink" version="1.1" width="127pt" height="82pt" viewBox="0 0 127 82">
<path transform="matrix(.00359712,0,0,-.00359712,0,82)" d="M1488.42 2182.03C1488.42 2184.81 1488.42 2212.52 1452.41 2212.52 1410.86 2212.52 1147.69 2187.58 1100.59 2182.03 1078.42 2179.27 1061.81 2165.42 1061.81 2129.41 1061.81 2096.16 1086.73 2096.16 1128.3 2096.16 1261.27 2096.16 1266.8 2076.77 1266.8 2049.06L1258.48 1993.67 1092.28 1337.13C1042.42 1439.63 962.078 1514.42 837.422 1514.42 513.313 1514.42 169.813 1107.2 169.813 702.766 169.813 442.359 322.172 259.531 538.25 259.531 593.641 259.531 732.156 270.609 898.359 467.297 920.531 350.938 1017.48 259.531 1150.45 259.531 1247.41 259.531 1311.13 323.25 1355.45 411.891 1402.55 511.609 1438.55 680.594 1438.55 686.141 1438.55 713.844 1413.63 713.844 1405.31 713.844 1377.61 713.844 1374.84 702.766 1366.53 663.969 1319.44 483.906 1269.58 320.469 1156 320.469 1081.2 320.469 1072.89 392.5 1072.89 447.906 1072.89 514.391 1078.42 533.781 1089.52 580.875L1488.42 2182.03ZM912.219 619.656C898.359 569.781 898.359 564.25 856.813 517.156 734.922 364.797 621.344 320.469 543.781 320.469 405.281 320.469 366.484 472.828 366.484 580.875 366.484 719.375 455.141 1060.11 518.844 1187.55 604.734 1350.98 729.391 1453.48 840.188 1453.48 1020.25 1453.48 1059.03 1226.33 1059.03 1209.7 1059.03 1193.08 1053.5 1176.45 1050.73 1162.61L912.219 619.656"/>
<path transform="matrix(.00359712,0,0,-.00359712,0,82)" d="M18508 12419C18508 12421.8 18508 12449.5 18472 12449.5 18408.3 12449.5 18206.1 12427.3 18134.1 12421.8 18111.9 12419 18081.4 12416.3 18081.4 12366.4 18081.4 12333.2 18106.4 12333.2 18147.9 12333.2 18280.9 12333.2 18286.4 12313.8 18286.4 12286.1L18278.1 12230.7 17876.4 10635C17865.4 10596.3 17865.4 10590.7 17865.4 10574.1 17865.4 10510.4 17920.8 10496.5 17945.7 10496.5 17990 10496.5 18034.3 10529.8 18048.2 10568.5L18100.8 10779.1 18161.8 11028.4C18178.4 11089.3 18195 11150.3 18208.9 11214 18214.4 11230.6 18236.6 11322 18239.3 11338.7 18247.6 11363.6 18333.5 11518.7 18427.7 11593.5 18488.7 11637.8 18574.5 11690.5 18693.6 11690.5 18812.8 11690.5 18843.2 11596.3 18843.2 11496.6 18843.2 11347 18738 11045 18671.5 10876 18649.3 10812.3 18635.5 10779.1 18635.5 10723.7 18635.5 10593.5 18732.4 10496.5 18862.6 10496.5 19123 10496.5 19225.5 10901 19225.5 10923.1 19225.5 10950.8 19200.6 10950.8 19192.3 10950.8 19164.6 10950.8 19164.6 10942.5 19150.7 10901 19109.2 10754.2 19020.5 10557.5 18868.2 10557.5 18821.1 10557.5 18801.7 10585.2 18801.7 10648.9 18801.7 10718.1 18826.6 10784.6 18851.5 10845.6 18895.9 10964.7 19020.5 11294.3 19020.5 11455 19020.5 11635.1 18909.7 11751.4 18702 11751.4 18527.4 11751.4 18394.5 11665.5 18292 11538.1L18508 12419"/>
<path transform="matrix(.00359712,0,0,-.00359712,0,82)" d="M1488.42 22656C1488.42 22658.8 1488.42 22686.5 1452.41 22686.5 1410.86 22686.5 1147.69 22661.6 1100.59 22656 1078.42 22653.3 1061.81 22639.4 1061.81 22603.4 1061.81 22570.2 1086.73 22570.2 1128.3 22570.2 1261.27 22570.2 1266.8 22550.8 1266.8 22523.1L1258.48 22467.7 1092.28 21811.1C1042.42 21913.6 962.078 21988.4 837.422 21988.4 513.313 21988.4 169.813 21581.2 169.813 21176.8 169.813 20916.4 322.172 20733.5 538.25 20733.5 593.641 20733.5 732.156 20744.6 898.359 20941.3 920.531 20824.9 1017.48 20733.5 1150.45 20733.5 1247.41 20733.5 1311.13 20797.3 1355.45 20885.9 1402.55 20985.6 1438.55 21154.6 1438.55 21160.1 1438.55 21187.8 1413.63 21187.8 1405.31 21187.8 1377.61 21187.8 1374.84 21176.8 1366.53 21138 1319.44 20957.9 1269.58 20794.5 1156 20794.5 1081.2 20794.5 1072.89 20866.5 1072.89 20921.9 1072.89 20988.4 1078.42 21007.8 1089.52 21054.9L1488.42 22656ZM912.219 21093.7C898.359 21043.8 898.359 21038.3 856.813 20991.2 734.922 20838.8 621.344 20794.5 543.781 20794.5 405.281 20794.5 366.484 20946.8 366.484 21054.9 366.484 21193.4 455.141 21534.1 518.844 21661.5 604.734 21825 729.391 21927.5 840.188 21927.5 1020.25 21927.5 1059.03 21700.3 1059.03 21683.7 1059.03 21667.1 1053.5 21650.5 1050.73 21636.6L912.219 21093.7"/>
<path transform="matrix(.00359712,0,0,-.00359712,0,82)" stroke-width="110.783" stroke-linecap="butt" stroke-miterlimit="10" stroke-linejoin="miter" fill="none" stroke="#000000" d="M1900.43 3192.12 6690.63 11488.9"/>
<path transform="matrix(.00359712,0,0,-.00359712,0,82)" d="M4806.16 8224.92 3231.39 7016.53 4547.02 6256.94"/>
<path transform="matrix(.00359712,0,0,-.00359712,0,82)" stroke-width="110.783" stroke-linecap="butt" stroke-miterlimit="10" stroke-linejoin="miter" fill="none" stroke="#000000" d="M6690.63 11488.9 1900.43 19785.7"/>
<path transform="matrix(.00359712,0,0,-.00359712,0,82)" d="M3784.89 16521.7 4044.04 14553.7 5359.66 15313.3"/>
<path transform="matrix(.00359712,0,0,-.00359712,0,82)" stroke-width="110.783" stroke-linecap="butt" stroke-dasharray="830.895,830.895" stroke-miterlimit="10" stroke-linejoin="miter" fill="none" stroke="#000000" d="M6690.63 11488.9H16734.9"/>
<path transform="matrix(.00359712,0,0,-.00359712,0,82)" d="M22904.1 11702.8C22945.7 11702.8 22998.3 11702.8 22998.3 11758.3 22998.3 11813.7 22945.7 11813.7 22906.9 11813.7H21247.5C21208.8 11813.7 21156.1 11813.7 21156.1 11758.3 21156.1 11702.8 21208.8 11702.8 21250.3 11702.8H22904.1ZM22906.9 11165.4C22945.7 11165.4 22998.3 11165.4 22998.3 11220.8 22998.3 11276.3 22945.7 11276.3 22904.1 11276.3H21250.3C21208.8 11276.3 21156.1 11276.3 21156.1 11220.8 21156.1 11165.4 21208.8 11165.4 21247.5 11165.4H22906.9"/>
<path transform="matrix(.00359712,0,0,-.00359712,0,82)" d="M25750.5 11434.1C25797.6 11434.1 25847.5 11434.1 25847.5 11489.5 25847.5 11545 25797.6 11545 25750.5 11545H24251.9C24204.8 11545 24154.9 11545 24154.9 11489.5 24154.9 11434.1 24204.8 11434.1 24251.9 11434.1H25750.5"/>
<path transform="matrix(.00359712,0,0,-.00359712,0,82)" d="M26865.7 12528.4C26865.7 12583.8 26827 12628.1 26763.2 12628.1 26688.4 12628.1 26613.6 12556.1 26613.6 12481.3 26613.6 12428.6 26652.4 12381.5 26718.9 12381.5 26782.6 12381.5 26865.7 12445.3 26865.7 12528.4ZM26655.2 11486.8C26688.4 11567.1 26688.4 11572.7 26716.1 11647.5 26738.3 11702.8 26752.2 11741.6 26752.2 11794.3 26752.2 11918.9 26663.5 12021.4 26525 12021.4 26264.6 12021.4 26159.3 11619.8 26159.3 11594.8 26159.3 11567.1 26187 11567.1 26192.6 11567.1 26220.3 11567.1 26223 11572.7 26236.9 11617 26311.7 11877.4 26422.5 11960.5 26516.7 11960.5 26538.8 11960.5 26585.9 11960.5 26585.9 11871.8 26585.9 11813.7 26566.5 11755.5 26555.5 11727.8 26533.3 11655.8 26408.7 11334.4 26364.3 11215.3 26336.6 11143.3 26300.6 11051.9 26300.6 10993.7 26300.6 10863.5 26394.8 10766.5 26527.8 10766.5 26788.2 10766.5 26890.7 11168.2 26890.7 11193.1 26890.7 11220.8 26865.7 11220.8 26857.4 11220.8 26829.7 11220.8 26829.7 11212.5 26815.9 11171 26766 10996.5 26674.6 10827.5 26533.3 10827.5 26486.2 10827.5 26466.8 10855.2 26466.8 10918.9 26466.8 10988.1 26483.5 11026.9 26547.2 11195.9L26655.2 11486.8"/>
<path transform="matrix(.00359712,0,0,-.00359712,0,82)" d="M28669.8 13714.4C28672.5 13731 28678.1 13744.8 28678.1 13764.2 28678.1 13811.3 28644.8 13839 28597.7 13839 28570 13839 28495.2 13819.6 28484.2 13719.9 28434.3 13822.4 28337.3 13894.4 28226.5 13894.4 27910.7 13894.4 27567.2 13506.6 27567.2 13107.7 27567.2 12833.4 27736.2 12670 27935.7 12670 28099.1 12670 28229.3 12800.2 28257 12830.7L28259.8 12827.9C28201.6 12581.4 28168.4 12467.8 28168.4 12462.2 28157.3 12437.3 28063.1 12163.1 27769.5 12163.1 27716.8 12163.1 27625.4 12165.8 27547.8 12190.8 27630.9 12215.7 27661.4 12287.7 27661.4 12334.8 27661.4 12379.1 27630.9 12431.8 27556.1 12431.8 27495.2 12431.8 27406.5 12381.9 27406.5 12271.1 27406.5 12157.5 27509 12102.1 27775 12102.1 28121.3 12102.1 28320.7 12318.2 28362.3 12484.4L28669.8 13714.4ZM28309.6 13024.6C28293 12952.6 28229.3 12883.3 28168.4 12830.7 28110.2 12780.8 28024.3 12730.9 27944 12730.9 27805.5 12730.9 27763.9 12875 27763.9 12985.8 27763.9 13118.8 27844.3 13445.7 27919 13586.9 27993.8 13722.7 28113 13833.5 28229.3 13833.5 28412.1 13833.5 28450.9 13609.1 28450.9 13595.3 28450.9 13581.4 28445.4 13564.8 28442.6 13553.7L28309.6 13024.6"/>
<path transform="matrix(.00359712,0,0,-.00359712,0,82)" stroke-width="110.783" stroke-linecap="butt" stroke-miterlimit="10" stroke-linejoin="miter" fill="none" stroke="#000000" d="M27365.5 11488.9H28785.8"/>
<path transform="matrix(.00359712,0,0,-.00359712,0,82)" d="M27734.8 9110.3 28028.5 9395.64C28460.6 9777.92 28626.8 9927.52 28626.8 10204.5 28626.8 10520.3 28377.5 10741.9 28039.5 10741.9 27726.5 10741.9 27521.5 10487.1 27521.5 10240.5 27521.5 10085.4 27660 10085.4 27668.3 10085.4 27715.4 10085.4 27812.4 10118.7 27812.4 10232.2 27812.4 10304.3 27762.5 10376.3 27665.6 10376.3 27643.4 10376.3 27637.9 10376.3 27629.5 10373.5 27693.3 10553.6 27842.8 10656.1 28003.5 10656.1 28255.6 10656.1 28374.7 10431.7 28374.7 10204.5 28374.7 9982.91 28236.2 9764.06 28083.9 9592.31L27552 8999.5C27521.5 8969.03 27521.5 8963.48 27521.5 8897H28549.3L28626.8 9379.02H28557.6C28543.7 9295.91 28524.3 9174.02 28496.6 9132.47 28477.2 9110.3 28294.4 9110.3 28233.5 9110.3H27734.8"/>
<path transform="matrix(.00359712,0,0,-.00359712,0,82)" d="M30308.8 12833.4C30300.5 12791.9 30283.8 12728.2 30283.8 12714.3 30283.8 12664.5 30322.6 12639.5 30364.2 12639.5 30397.4 12639.5 30447.3 12661.7 30466.7 12717.1 30469.5 12722.6 30502.7 12852.8 30519.3 12922.1L30580.3 13171.4C30596.9 13232.3 30613.5 13293.3 30627.3 13357 30638.4 13404.1 30660.6 13484.4 30663.4 13495.5 30704.9 13581.4 30851.7 13833.5 31114.9 13833.5 31239.6 13833.5 31264.5 13731 31264.5 13639.6 31264.5 13570.3 31245.1 13492.8 31222.9 13409.6L31145.4 13088.3 31090 12877.8C31078.9 12822.4 31054 12728.2 31054 12714.3 31054 12664.5 31092.7 12639.5 31134.3 12639.5 31220.2 12639.5 31236.8 12708.8 31259 12797.4 31297.7 12952.6 31400.2 13357 31425.2 13465 31433.5 13501.1 31580.3 13833.5 31882.3 13833.5 32001.4 13833.5 32031.8 13739.3 32031.8 13639.6 32031.8 13481.7 31915.5 13165.9 31860.1 13019 31835.2 12952.6 31824.1 12922.1 31824.1 12866.7 31824.1 12736.5 31921 12639.5 32051.2 12639.5 32311.6 12639.5 32414.1 13044 32414.1 13066.1 32414.1 13093.8 32389.2 13093.8 32380.9 13093.8 32353.2 13093.8 32353.2 13085.5 32339.3 13044 32297.8 12897.2 32209.1 12700.5 32056.8 12700.5 32009.7 12700.5 31990.3 12728.2 31990.3 12791.9 31990.3 12861.1 32015.2 12927.6 32040.1 12988.6 32092.8 13132.6 32209.1 13440.1 32209.1 13598 32209.1 13778.1 32098.3 13894.4 31890.5 13894.4 31682.8 13894.4 31541.5 13772.5 31439 13625.7 31436.3 13661.7 31427.9 13755.9 31350.4 13822.4 31281.1 13880.6 31192.5 13894.4 31123.2 13894.4 30873.9 13894.4 30738.2 13717.1 30691.1 13653.4 30677.2 13811.3 30560.9 13894.4 30436.2 13894.4 30308.8 13894.4 30256.1 13786.4 30231.2 13736.5 30181.3 13639.6 30145.3 13476.1 30145.3 13467.8 30145.3 13440.1 30173 13440.1 30178.6 13440.1 30206.3 13440.1 30209 13442.9 30225.7 13503.8 30272.8 13700.5 30328.2 13833.5 30427.9 13833.5 30472.2 13833.5 30513.8 13811.3 30513.8 13706 30513.8 13647.9 30505.5 13617.4 30469.5 13473.4L30308.8 12833.4"/>
<path transform="matrix(.00359712,0,0,-.00359712,0,82)" d="M33603 13542.3C33604.9 13546.2 33610.8 13571.4 33610.8 13573.3 33610.8 13583 33603 13600.5 33579.7 13600.5 33541 13600.5 33380 13585 33331.6 13581.1 33316.1 13579.1 33288.9 13577.2 33288.9 13536.5 33288.9 13509.3 33316.1 13509.3 33339.3 13509.3 33432.4 13509.3 33432.4 13495.8 33432.4 13480.3 33432.4 13466.7 33428.5 13455.1 33424.6 13437.6L33314.1 12995.6C33273.4 13059.6 33207.5 13110 33114.5 13110 32866.3 13110 32614.3 12836.6 32614.3 12557.4 32614.3 12369.4 32740.3 12235.6 32907 12235.6 33011.7 12235.6 33104.8 12295.7 33182.3 12371.3 33219.1 12255 33331.6 12235.6 33382 12235.6 33451.8 12235.6 33500.3 12278.3 33535.1 12338.4 33577.8 12414 33603 12524.5 33603 12532.2 33603 12557.4 33577.8 12557.4 33572 12557.4 33544.8 12557.4 33542.9 12549.7 33529.3 12497.3 33506.1 12404.3 33469.2 12289.9 33387.8 12289.9 33337.4 12289.9 33323.8 12332.5 33323.8 12384.9 33323.8 12421.7 33327.7 12439.2 33333.5 12464.4L33603 13542.3ZM33190.1 12497.3C33176.5 12443 33133.8 12404.3 33091.2 12367.4 33073.7 12351.9 32996.2 12289.9 32912.8 12289.9 32841.1 12289.9 32771.3 12340.3 32771.3 12478 32771.3 12580.7 32827.5 12794 32872.1 12871.5 32961.3 13026.6 33060.2 13055.7 33114.5 13055.7 33250.2 13055.7 33287 12908.3 33287 12887 33287 12879.3 33283.1 12865.7 33281.2 12859.9L33190.1 12497.3"/>
<path transform="matrix(.00359712,0,0,-.00359712,0,82)" stroke-width="110.783" stroke-linecap="butt" stroke-miterlimit="10" stroke-linejoin="miter" fill="none" stroke="#000000" d="M29450.5 11488.9H34401.9"/>
<path transform="matrix(.00359712,0,0,-.00359712,0,82)" d="M29693.8 9060.44C29685.5 9018.89 29668.8 8955.17 29668.8 8941.33 29668.8 8891.45 29707.6 8866.53 29749.2 8866.53 29782.4 8866.53 29832.3 8888.69 29851.7 8944.09 29854.5 8949.64 29887.7 9079.83 29904.3 9149.09L29965.3 9398.41C29981.9 9459.34 29998.5 9520.3 30012.3 9584 30023.4 9631.09 30045.6 9711.44 30048.4 9722.52 30089.9 9808.39 30236.7 10060.5 30499.9 10060.5 30624.6 10060.5 30649.5 9957.98 30649.5 9866.56 30649.5 9797.31 30630.1 9719.75 30607.9 9636.64L30530.4 9315.3 30475 9104.77C30463.9 9049.36 30439 8955.17 30439 8941.33 30439 8891.45 30477.7 8866.53 30519.3 8866.53 30605.2 8866.53 30621.8 8935.78 30644 9024.42 30682.7 9179.56 30785.2 9584 30810.2 9692.05 30818.5 9728.06 30965.3 10060.5 31267.3 10060.5 31386.4 10060.5 31416.8 9966.3 31416.8 9866.56 31416.8 9708.67 31300.5 9392.86 31245.1 9246.05 31220.2 9179.56 31209.1 9149.09 31209.1 9093.69 31209.1 8963.48 31306 8866.53 31436.2 8866.53 31696.6 8866.53 31799.1 9270.97 31799.1 9293.14 31799.1 9320.84 31774.2 9320.84 31765.9 9320.84 31738.2 9320.84 31738.2 9312.53 31724.3 9270.97 31682.8 9124.16 31594.1 8927.47 31441.8 8927.47 31394.7 8927.47 31375.3 8955.17 31375.3 9018.89 31375.3 9088.14 31400.2 9154.63 31425.1 9215.58 31477.8 9359.63 31594.1 9667.11 31594.1 9825.02 31594.1 10005.1 31483.3 10121.4 31275.5 10121.4 31067.8 10121.4 30926.5 9999.53 30824 9852.72 30821.3 9888.73 30812.9 9982.91 30735.4 10049.4 30666.1 10107.6 30577.5 10121.4 30508.2 10121.4 30258.9 10121.4 30123.2 9944.13 30076.1 9880.42 30062.2 10038.3 29945.9 10121.4 29821.2 10121.4 29693.8 10121.4 29641.1 10013.4 29616.2 9963.52 29566.3 9866.56 29530.3 9703.13 29530.3 9694.81 29530.3 9667.11 29558 9667.11 29563.6 9667.11 29591.3 9667.11 29594 9669.88 29610.7 9730.83 29657.8 9927.52 29713.2 10060.5 29812.9 10060.5 29857.2 10060.5 29898.8 10038.3 29898.8 9933.05 29898.8 9874.88 29890.5 9844.41 29854.5 9700.36L29693.8 9060.44"/>
<path transform="matrix(.00359712,0,0,-.00359712,0,82)" d="M33890.5 9576.36 33925.4 9626.77C33966.1 9679.11 34012.6 9727.58 34107.6 9735.34 34129 9737.28 34152.2 9739.22 34152.2 9777.98 34152.2 9791.56 34140.6 9805.13 34125.1 9805.13 34080.5 9805.13 34024.3 9797.38 33977.7 9797.38 33909.9 9797.38 33826.5 9805.13 33762.5 9805.13 33752.8 9805.13 33721.8 9805.13 33721.8 9762.48 33721.8 9737.28 33749 9735.34 33756.7 9735.34 33799.4 9733.41 33863.4 9721.77 33863.4 9667.48 33863.4 9646.16 33842 9611.27 33834.3 9597.69L33287.6 8700.08 33180.9 9679.11C33180.9 9733.41 33293.4 9735.34 33316.6 9735.34 33341.8 9735.34 33369 9735.34 33369 9777.98 33369 9779.92 33367 9805.13 33336 9805.13 33299.2 9805.13 33252.7 9801.25 33215.8 9799.31 33177 9797.38 33126.6 9797.38 33087.9 9797.38 33043.3 9797.38 32928.9 9805.13 32884.3 9805.13 32874.6 9805.13 32845.5 9805.13 32845.5 9762.48 32845.5 9735.34 32870.7 9735.34 32895.9 9735.34 32979.3 9735.34 32989 9721.77 32994.8 9702.38 32996.8 9690.75 33000.6 9636.47 33008.4 9576.36L32475.3 8700.08 32372.5 9650.03C32372.5 9657.8 32368.6 9677.17 32368.6 9679.11 32368.6 9735.34 32488.8 9735.34 32504.3 9735.34 32529.5 9735.34 32556.7 9735.34 32556.7 9777.98 32556.7 9785.75 32550.9 9805.13 32525.7 9805.13 32469.4 9805.13 32331.8 9797.38 32275.6 9797.38 32211.6 9797.38 32130.2 9805.13 32072 9805.13 32052.6 9805.13 32033.2 9797.38 32033.2 9764.42 32033.2 9735.34 32056.5 9735.34 32087.5 9735.34 32178.6 9735.34 32178.6 9723.7 32184.4 9675.23L32314.3 8494.58C32318.2 8455.8 32320.1 8442.22 32355 8442.22 32388 8442.22 32401.6 8459.67 32413.2 8481L33018.1 9477.48 33124.7 8492.63C33128.6 8451.92 33138.3 8442.22 33167.4 8442.22 33200.3 8442.22 33212 8459.67 33225.5 8482.94L33890.5 9576.36"/>
<path transform="matrix(.00359712,0,0,-.00359712,0,82)" d="M35265.9 10943.8C35265.9 11024.2 35199.4 11090.6 35119.1 11090.6 35038.7 11090.6 34972.2 11024.2 34972.2 10943.8 34972.2 10863.5 35038.7 10797 35119.1 10797 35199.4 10797 35265.9 10863.5 35265.9 10943.8"/>
</svg>
