<svg xmlns="http://www.w3.org/2000/svg" xmlns:xlink="http://www.w3.org/1999/xlink" version="1.1" width="271pt" height="71pt" viewBox="0 0 271 71">
<path transform="matrix(.00359712,0,0,-.00359712,0,71)" d="M18533 19406C18533 19408.8 18533 19436.5 18497 19436.5 18433.3 19436.5 18231.1 19414.3 18159.1 19408.8 18136.9 19406 18106.4 19403.3 18106.4 19353.4 18106.4 19320.2 18131.4 19320.2 18172.9 19320.2 18305.9 19320.2 18311.4 19300.8 18311.4 19273.1L18303.1 19217.7 17901.4 17622C17890.4 17583.3 17890.4 17577.7 17890.4 17561.1 17890.4 17497.4 17945.8 17483.5 17970.7 17483.5 18015 17483.5 18059.3 17516.8 18073.2 17555.5L18125.8 17766.1 18186.8 18015.4C18203.4 18076.3 18220 18137.3 18233.9 18201 18239.4 18217.6 18261.6 18309 18264.3 18325.7 18272.6 18350.6 18358.5 18505.7 18452.7 18580.5 18513.7 18624.8 18599.5 18677.5 18718.6 18677.5 18837.8 18677.5 18868.2 18583.3 18868.2 18483.6 18868.2 18334 18763 18032 18696.5 17863 18674.3 17799.3 18660.5 17766.1 18660.5 17710.7 18660.5 17580.5 18757.4 17483.5 18887.6 17483.5 19148 17483.5 19250.5 17888 19250.5 17910.1 19250.5 17937.8 19225.6 17937.8 19217.3 17937.8 19189.6 17937.8 19189.6 17929.5 19175.7 17888 19134.2 17741.2 19045.5 17544.5 18893.2 17544.5 18846.1 17544.5 18826.7 17572.2 18826.7 17635.9 18826.7 17705.1 18851.6 17771.6 18876.5 17832.6 18920.9 17951.7 19045.5 18281.3 19045.5 18442 19045.5 18622.1 18934.7 18738.4 18727 18738.4 18552.4 18738.4 18419.5 18652.5 18317 18525.1L18533 19406"/>
<path transform="matrix(.00359712,0,0,-.00359712,0,71)" d="M586.859 18055.6C476.063 17870 368.016 17831.2 246.125 17822.9 212.891 17820.1 187.953 17820.1 187.953 17767.5 187.953 17750.8 201.813 17737 223.969 17737 298.766 17737 384.641 17745.3 462.203 17745.3 553.625 17745.3 650.578 17737 739.219 17737 755.844 17737 791.859 17737 791.859 17789.6 791.859 17820.1 766.922 17822.9 747.531 17822.9 683.813 17828.4 617.328 17850.6 617.328 17919.8 617.328 17953.1 633.953 17983.5 656.125 18022.3L866.656 18376.9H1561.97C1567.52 18318.7 1606.3 17942 1606.3 17914.3 1606.3 17831.2 1462.25 17822.9 1406.84 17822.9 1368.06 17822.9 1340.36 17822.9 1340.36 17767.5 1340.36 17737 1373.59 17737 1379.14 17737 1492.72 17737 1611.83 17745.3 1725.41 17745.3 1794.67 17745.3 1969.19 17737 2038.44 17737 2055.06 17737 2088.31 17737 2088.31 17792.4 2088.31 17822.9 2060.61 17822.9 2024.59 17822.9 1852.84 17822.9 1852.84 17842.3 1844.53 17922.6L1675.55 19654C1670 19709.4 1670 19720.5 1622.91 19720.5 1578.59 19720.5 1567.52 19701.1 1550.89 19673.4L586.859 18055.6ZM919.281 18462.8 1465.02 19377 1553.66 18462.8H919.281Z"/>
<path transform="matrix(.00359712,0,0,-.00359712,0,71)" d="M2655.61 18119.8C2657.55 18127.5 2659.48 18139.1 2659.48 18148.8 2659.48 18150.8 2659.48 18176 2628.47 18176 2626.53 18176 2516.03 18166.3 2502.45 18166.3 2465.63 18162.4 2430.72 18160.5 2393.89 18156.6 2362.88 18154.6 2339.61 18152.7 2339.61 18112 2339.61 18084.8 2366.75 18084.8 2390.02 18084.8 2483.06 18084.8 2483.06 18073.2 2483.06 18055.8 2483.06 18044.1 2473.38 18005.4 2465.63 17980.2L2368.69 17588.5C2320.22 17394.7 2310.53 17355.9 2310.53 17348.1 2310.53 17321 2339.61 17321 2347.36 17321H2378.38C2550.92 17348.1 2797.14 17439.3 3004.58 17623.4 3268.25 17858 3307.02 18110 3307.02 18113.9 3307.02 18148.8 3279.88 18176 3241.09 18176 3173.25 18176 3159.67 18121.7 3142.23 18067.4 3064.69 17792.1 2804.89 17495.5 2475.31 17398.5L2655.61 18119.8"/>
<path transform="matrix(.00359712,0,0,-.00359712,0,71)" d="M1269.58 2781.03C1269.58 2786.56 1277.88 2817.03 1277.88 2819.81 1277.88 2822.58 1277.88 2847.52 1244.64 2847.52 1216.94 2847.52 1214.17 2839.2 1203.09 2792.11L1042.42 2152.19C601.953 2138.34 194.734 1769.91 194.734 1393.16 194.734 1130 388.656 911.156 726.609 891.75 704.453 805.875 685.063 717.234 662.906 631.359 629.656 501.156 601.953 395.891 601.953 387.578 601.953 359.875 621.344 357.109 635.203 357.109 649.047 357.109 654.594 359.875 662.906 368.188 668.438 373.734 685.063 440.219 693.375 479L798.641 891.75C1244.64 905.609 1646.31 1279.58 1646.31 1650.8 1646.31 1869.64 1499.5 2124.48 1114.44 2152.19L1269.58 2781.03ZM740.469 952.703C574.25 961.016 374.797 1057.97 374.797 1334.98 374.797 1667.41 613.031 2055.23 1025.8 2091.25L740.469 952.703ZM1097.83 2091.25C1308.36 2080.17 1466.25 1952.73 1466.25 1708.97 1466.25 1382.08 1228.02 985.938 812.484 952.703L1097.83 2091.25"/>
<path transform="matrix(.00359712,0,0,-.00359712,0,71)" d="M2622.13 2189.78H3211.5C3242.52 2189.78 3289.05 2189.78 3289.05 2236.31 3289.05 2284.78 3244.45 2284.78 3211.5 2284.78H2622.13V2856.7H3211.5C3242.52 2856.7 3289.05 2856.7 3289.05 2903.23 3289.05 2951.69 3244.45 2951.69 3211.5 2951.69H1935.83C1902.88 2951.69 1858.28 2951.69 1858.28 2903.23 1858.28 2856.7 1904.81 2856.7 1935.83 2856.7H2527.13V2284.78H1935.83C1902.88 2284.78 1858.28 2284.78 1858.28 2236.31 1858.28 2189.78 1904.81 2189.78 1935.83 2189.78H2527.13V1596.55C2527.13 1567.47 2527.13 1522.88 2573.66 1522.88 2622.13 1522.88 2622.13 1571.34 2622.13 1606.23V2189.78"/>
<path transform="matrix(.00359712,0,0,-.00359712,0,71)" d="M18641.3 2757.7C18710.5 2879.58 18777 2979.31 18951.5 2993.16 18976.5 2995.94 19004.2 2995.94 19004.2 3048.56 19004.2 3059.64 18993.1 3079.03 18970.9 3079.03 18904.4 3079.03 18826.9 3070.73 18757.6 3070.73 18663.4 3070.73 18560.9 3079.03 18469.5 3079.03 18452.9 3079.03 18416.9 3079.03 18416.9 3026.41 18416.9 2995.94 18441.8 2993.16 18458.4 2993.16 18524.9 2990.39 18621.9 2968.23 18621.9 2885.13 18621.9 2854.66 18608 2832.48 18585.9 2793.7L17837.9 1488.95 17735.4 2862.97C17732.6 2918.38 17727.1 2990.39 17929.3 2993.16 17976.4 2993.16 18004.1 2993.16 18004.1 3048.56 18004.1 3076.27 17973.6 3079.03 17962.6 3079.03 17851.8 3079.03 17735.4 3070.73 17624.6 3070.73 17560.9 3070.73 17397.5 3079.03 17333.7 3079.03 17317.1 3079.03 17281.1 3079.03 17281.1 3023.64 17281.1 2993.16 17308.8 2993.16 17347.6 2993.16 17469.5 2993.16 17488.9 2976.55 17494.4 2923.91L17511 2710.61 16810.2 1488.95 16704.9 2893.44C16704.9 2926.67 16704.9 2990.39 16915.4 2993.16 16943.1 2993.16 16973.6 2993.16 16973.6 3048.56 16973.6 3079.03 16940.4 3079.03 16934.8 3079.03 16824 3079.03 16707.7 3070.73 16594.1 3070.73 16497.1 3070.73 16397.4 3079.03 16303.2 3079.03 16289.4 3079.03 16253.4 3079.03 16253.4 3026.41 16253.4 2993.16 16278.3 2993.16 16322.6 2993.16 16461.1 2993.16 16463.9 2968.23 16469.4 2890.67L16594.1 1198.08C16596.9 1148.22 16599.6 1126.06 16638.4 1126.06 16671.7 1126.06 16680 1142.67 16704.9 1184.23L17519.3 2597.03 17621.8 1198.08C17627.4 1139.91 17632.9 1126.06 17666.2 1126.06 17702.2 1126.06 17718.8 1153.75 17732.6 1178.69L18641.3 2757.7"/>
<path transform="matrix(.00359712,0,0,-.00359712,0,71)" d="M20014.1 2451.78H20603.5C20634.5 2451.78 20681 2451.78 20681 2498.31 20681 2546.78 20636.5 2546.78 20603.5 2546.78H20014.1V3118.7H20603.5C20634.5 3118.7 20681 3118.7 20681 3165.23 20681 3213.69 20636.5 3213.69 20603.5 3213.69H19327.8C19294.9 3213.69 19250.3 3213.69 19250.3 3165.23 19250.3 3118.7 19296.8 3118.7 19327.8 3118.7H19919.1V2546.78H19327.8C19294.9 2546.78 19250.3 2546.78 19250.3 2498.31 19250.3 2451.78 19296.8 2451.78 19327.8 2451.78H19919.1V1858.55C19919.1 1829.47 19919.1 1784.88 19965.7 1784.88 20014.1 1784.88 20014.1 1833.34 20014.1 1868.23V2451.78"/>
<path transform="matrix(.00359712,0,0,-.00359712,0,71)" d="M18821.7 189.875C18813.9 160.781 18813.9 151.094 18813.9 149.156 18813.9 106.5 18848.8 87.125 18879.8 87.125 18949.6 87.125 18965.2 151.094 18972.9 184.047 18976.8 193.75 19015.6 348.844 19062.1 538.828 19122.2 498.125 19199.7 482.609 19269.5 482.609 19436.3 482.609 19544.8 618.328 19548.7 622.203 19585.5 488.422 19719.3 482.609 19748.4 482.609 19818.2 482.609 19866.7 525.266 19901.5 585.359 19944.2 660.969 19969.4 771.484 19969.4 779.234 19969.4 804.438 19944.2 804.438 19938.4 804.438 19911.2 804.438 19909.3 796.688 19895.7 744.344 19872.5 651.281 19835.6 536.891 19754.2 536.891 19703.8 536.891 19690.2 579.547 19690.2 631.891 19690.2 664.844 19705.7 734.641 19719.3 785.047 19732.9 837.391 19752.3 916.875 19762 959.531L19806.5 1132.08C19818.2 1180.55 19839.5 1265.84 19839.5 1275.55 19839.5 1314.31 19808.5 1337.58 19775.5 1337.58 19754.2 1337.58 19717.4 1327.89 19696 1291.05 19690.2 1279.42 19674.7 1217.38 19665 1178.61L19624.3 1017.69 19564.2 775.359C19550.6 726.891 19550.6 723.016 19533.2 697.813 19473.1 612.5 19387.8 536.891 19277.3 536.891 19118.3 536.891 19118.3 674.547 19118.3 709.438 19118.3 759.844 19124.1 785.047 19151.3 889.734 19170.7 975.047 19174.5 988.609 19193.9 1064.22L19221.1 1172.8C19230.8 1213.5 19250.1 1287.17 19250.1 1294.92 19250.1 1329.83 19223 1356.97 19184.2 1356.97 19114.4 1356.97 19097 1289.11 19091.2 1265.84L18821.7 189.875"/>
<path transform="matrix(.00359712,0,0,-.00359712,0,71)" stroke-width="110.783" stroke-linecap="butt" stroke-dasharray="830.895,830.895" stroke-miterlimit="10" stroke-linejoin="miter" fill="none" stroke="#000000" d="M16759.6 16699.8 10177.6 10117.3"/>
<path transform="matrix(.00359712,0,0,-.00359712,0,71)" stroke-width="110.783" stroke-linecap="butt" stroke-dasharray="830.895,830.895" stroke-miterlimit="10" stroke-linejoin="miter" fill="none" stroke="#000000" d="M10177.6 10117.3 4168.93 4109.29"/>
<path transform="matrix(.00359712,0,0,-.00359712,0,71)" stroke-width="110.783" stroke-linecap="butt" stroke-miterlimit="10" stroke-linejoin="miter" fill="none" stroke="#000000" d="M3951.1 16343.1 4054.74 16239.5 4280.77 16258.3 4474 16244.2 4610.44 16173.4 4681.28 16037 4695.32 15843.7 4676.56 15617.7 4657.81 15391.7 4671.85 15198.4 4742.69 15062 4879.12 14991.2 5072.36 14977.2 5298.39 14995.9 5524.42 15014.7 5717.66 15000.7 5854.09 14929.9 5924.93 14793.4 5938.98 14600.2 5920.22 14374.2 5901.46 14148.1 5915.5 13954.9 5986.34 13818.5 6122.78 13747.6 6316.01 13733.6 6542.04 13752.4 6768.08 13771.2 6961.32 13757.1 7097.75 13686.3 7168.59 13549.9 7182.63 13356.7 7163.88 13130.6 7145.12 12904.6 7159.16 12711.4 7230 12574.9 7366.43 12504.1 7559.67 12490.1 7785.7 12508.8 8011.73 12527.6 8204.97 12513.6 8341.4 12442.8 8412.25 12306.3 8426.28 12113.1 8407.53 11887.1 8388.77 11661 8402.81 11467.8 8473.66 11331.4 8610.09 11260.5 8803.32 11246.5 9029.36 11265.3 9255.39 11284.1 9448.62 11270 9585.06 11199.2 9655.9 11062.8 9669.95 10869.6 9651.18 10643.5 9632.43 10417.5 9646.47 10224.3 9717.31 10087.8 10177.6 10117.3"/>
<path transform="matrix(.00359712,0,0,-.00359712,0,71)" stroke-width="110.783" stroke-linecap="butt" stroke-miterlimit="10" stroke-linejoin="miter" fill="none" stroke="#000000" d="M10177.6 10117.3 10273.2 10021.6 10491.3 10048.4 10676.6 10042.3 10805 9979.48 10867.9 9851.03 10873.9 9665.77 10847.2 9447.72 10820.5 9229.66 10826.5 9044.41 10889.4 8915.96 11017.9 8853.11 11203.1 8847.07 11421.2 8873.83 11639.2 8900.59 11824.5 8894.54 11952.9 8831.7 12015.8 8703.25 12021.9 8517.99 11995.1 8299.94 11968.4 8081.88 11974.5 7896.63 12037.3 7768.18 12165.8 7705.33 12351.1 7699.29 12569.1 7726.05 12787.2 7752.8 12972.4 7746.76 13100.9 7683.91 13163.7 7555.46 13169.8 7370.21 13143.1 7152.16 13116.3 6934.1 13122.4 6748.84 13185.3 6620.39 13313.7 6557.55 13499 6551.5 13717 6578.26 13935.1 6605.02 14120.3 6598.98 14248.8 6536.13 14311.7 6407.68 14317.7 6222.43 14291 6004.37 14264.3 5786.32 14270.3 5601.05 14333.2 5472.61 14461.6 5409.76 14646.9 5403.72 14865 5430.48 15083 5457.24 15268.3 5451.19 15396.7 5388.34 15459.6 5259.9 15465.7 5074.64 15438.9 4856.59 15412.2 4638.53 15418.3 4453.28 15481.1 4324.83 15924.7 4370.86"/>
<path transform="matrix(.00359712,0,0,-.00359712,0,71)" d="M13696.3 10585.7C13765.5 10707.6 13832 10807.3 14006.5 10821.2 14031.5 10823.9 14059.2 10823.9 14059.2 10876.6 14059.2 10887.6 14048.1 10907 14025.9 10907 13959.4 10907 13881.9 10898.7 13812.6 10898.7 13718.4 10898.7 13615.9 10907 13524.5 10907 13507.9 10907 13471.9 10907 13471.9 10854.4 13471.9 10823.9 13496.8 10821.2 13513.4 10821.2 13579.9 10818.4 13676.9 10796.2 13676.9 10713.1 13676.9 10682.7 13663 10660.5 13640.9 10621.7L12892.9 9316.95 12790.4 10691C12787.6 10746.4 12782.1 10818.4 12984.3 10821.2 13031.4 10821.2 13059.1 10821.2 13059.1 10876.6 13059.1 10904.3 13028.6 10907 13017.6 10907 12906.8 10907 12790.4 10898.7 12679.6 10898.7 12615.9 10898.7 12452.5 10907 12388.7 10907 12372.1 10907 12336.1 10907 12336.1 10851.6 12336.1 10821.2 12363.8 10821.2 12402.6 10821.2 12524.5 10821.2 12543.9 10804.5 12549.4 10751.9L12566 10538.6 11865.2 9316.95 11759.9 10721.4C11759.9 10754.7 11759.9 10818.4 11970.4 10821.2 11998.1 10821.2 12028.6 10821.2 12028.6 10876.6 12028.6 10907 11995.4 10907 11989.8 10907 11879 10907 11762.7 10898.7 11649.1 10898.7 11552.1 10898.7 11452.4 10907 11358.2 10907 11344.4 10907 11308.4 10907 11308.4 10854.4 11308.4 10821.2 11333.3 10821.2 11377.6 10821.2 11516.1 10821.2 11518.9 10796.2 11524.4 10718.7L11649.1 9026.08C11651.9 8976.22 11654.6 8954.06 11693.4 8954.06 11726.7 8954.06 11735 8970.67 11759.9 9012.23L12574.3 10425 12676.8 9026.08C12682.4 8967.91 12687.9 8954.06 12721.2 8954.06 12757.2 8954.06 12773.8 8981.75 12787.6 9006.69L13696.3 10585.7"/>
<path transform="matrix(.00359712,0,0,-.00359712,0,71)" d="M15070.1 10636.5H15659.5C15690.5 10636.5 15737 10636.5 15737 10683 15737 10731.5 15692.5 10731.5 15659.5 10731.5H15070.1V11315C15070.1 11350 15070.1 11398.4 15021.7 11398.4 14975.1 11398.4 14975.1 11353.8 14975.1 11324.8V10731.5H14383.8C14350.9 10731.5 14306.3 10731.5 14306.3 10683 14306.3 10636.5 14352.8 10636.5 14383.8 10636.5H14975.1V10064.6H14383.8C14350.9 10064.6 14306.3 10064.6 14306.3 10016.1 14306.3 9969.59 14352.8 9969.59 14383.8 9969.59H15659.5C15690.5 9969.59 15737 9969.59 15737 10016.1 15737 10064.6 15692.5 10064.6 15659.5 10064.6H15070.1V10636.5"/>
<path transform="matrix(.00359712,0,0,-.00359712,0,71)" d="M6889.58 11140C6889.58 11145.6 6897.88 11176 6897.88 11178.8 6897.88 11181.6 6897.88 11206.5 6864.64 11206.5 6836.94 11206.5 6834.17 11198.2 6823.09 11151.1L6662.42 10511.2C6221.95 10497.3 5814.73 10128.9 5814.73 9752.16 5814.73 9489 6008.66 9270.16 6346.61 9250.75 6324.45 9164.88 6305.06 9076.23 6282.91 8990.36 6249.66 8860.16 6221.95 8754.89 6221.95 8746.58 6221.95 8718.88 6241.34 8716.11 6255.2 8716.11 6269.05 8716.11 6274.59 8718.88 6282.91 8727.19 6288.44 8732.73 6305.06 8799.22 6313.38 8838L6418.64 9250.75C6864.64 9264.61 7266.31 9638.58 7266.31 10009.8 7266.31 10228.6 7119.5 10483.5 6734.44 10511.2L6889.58 11140ZM6360.47 9311.7C6194.25 9320.02 5994.8 9416.97 5994.8 9693.98 5994.8 10026.4 6233.03 10414.2 6645.8 10450.3L6360.47 9311.7ZM6717.83 10450.3C6928.36 10439.2 7086.25 10311.7 7086.25 10068 7086.25 9741.08 6848.02 9344.94 6432.48 9311.7L6717.83 10450.3"/>
<path transform="matrix(.00359712,0,0,-.00359712,0,71)" d="M8242.13 10905.5H8831.5C8862.52 10905.5 8909.05 10905.5 8909.05 10952 8909.05 11000.5 8864.45 11000.5 8831.5 11000.5H8242.13V11584C8242.13 11619 8242.13 11667.4 8193.66 11667.4 8147.13 11667.4 8147.13 11622.8 8147.13 11593.8V11000.5H7555.83C7522.88 11000.5 7478.28 11000.5 7478.28 10952 7478.28 10905.5 7524.81 10905.5 7555.83 10905.5H8147.13V10333.6H7555.83C7522.88 10333.6 7478.28 10333.6 7478.28 10285.1 7478.28 10238.6 7524.81 10238.6 7555.83 10238.6H8831.5C8862.52 10238.6 8909.05 10238.6 8909.05 10285.1 8909.05 10333.6 8864.45 10333.6 8831.5 10333.6H8242.13V10905.5"/>
<path transform="matrix(.00359712,0,0,-.00359712,0,71)" d="M24566.1 10090.8C24607.7 10090.8 24660.3 10090.8 24660.3 10146.3 24660.3 10201.7 24607.7 10201.7 24568.9 10201.7H22909.5C22870.8 10201.7 22818.1 10201.7 22818.1 10146.3 22818.1 10090.8 22870.8 10090.8 22912.3 10090.8H24566.1ZM24568.9 9553.44C24607.7 9553.44 24660.3 9553.44 24660.3 9608.84 24660.3 9664.25 24607.7 9664.25 24566.1 9664.25H22912.3C22870.8 9664.25 22818.1 9664.25 22818.1 9608.84 22818.1 9553.44 22870.8 9553.44 22909.5 9553.44H24568.9"/>
<path transform="matrix(.00359712,0,0,-.00359712,0,71)" d="M26720 9592.22H27490.1C27537.2 9592.22 27587.1 9592.22 27587.1 9647.63 27587.1 9703.03 27537.2 9703.03 27490.1 9703.03H26720V10459.3H27490.1C27537.2 10459.3 27587.1 10459.3 27587.1 10514.7 27587.1 10570.1 27537.2 10570.1 27490.1 10570.1H25836.3C25789.2 10570.1 25739.4 10570.1 25739.4 10514.7 25739.4 10459.3 25789.2 10459.3 25836.3 10459.3H26609.2V9703.03H25836.3C25789.2 9703.03 25739.4 9703.03 25739.4 9647.63 25739.4 9592.22 25789.2 9592.22 25836.3 9592.22H26609.2V8819.33C26609.2 8775.02 26609.2 8725.16 26664.6 8725.16 26720 8725.16 26720 8786.09 26720 8827.64V9592.22"/>
<path transform="matrix(.00359712,0,0,-.00359712,0,71)" d="M29377.8 12103.4C29380.5 12120 29386.1 12133.8 29386.1 12153.2 29386.1 12200.3 29352.8 12228 29305.7 12228 29278 12228 29203.2 12208.6 29192.2 12108.9 29142.3 12211.4 29045.3 12283.4 28934.5 12283.4 28618.7 12283.4 28275.2 11895.6 28275.2 11496.7 28275.2 11222.4 28444.2 11059 28643.7 11059 28807.1 11059 28937.3 11189.2 28965 11219.7L28967.8 11216.9C28909.6 10970.4 28876.4 10856.8 28876.4 10851.2 28865.3 10826.3 28771.1 10552.1 28477.5 10552.1 28424.8 10552.1 28333.4 10554.8 28255.8 10579.8 28338.9 10604.7 28369.4 10676.7 28369.4 10723.8 28369.4 10768.1 28338.9 10820.8 28264.1 10820.8 28203.2 10820.8 28114.5 10770.9 28114.5 10660.1 28114.5 10546.5 28217 10491.1 28483 10491.1 28829.3 10491.1 29028.7 10707.2 29070.3 10873.4L29377.8 12103.4ZM29017.6 11413.6C29001 11341.6 28937.3 11272.3 28876.4 11219.7 28818.2 11169.8 28732.3 11119.9 28652 11119.9 28513.5 11119.9 28471.9 11264 28471.9 11374.8 28471.9 11507.8 28552.3 11834.7 28627 11975.9 28701.8 12111.7 28821 12222.5 28937.3 12222.5 29120.1 12222.5 29158.9 11998.1 29158.9 11984.3 29158.9 11970.4 29153.4 11953.8 29150.6 11942.7L29017.6 11413.6"/>
<path transform="matrix(.00359712,0,0,-.00359712,0,71)" d="M30007 11698.9C30087.4 11698.9 30292.4 11704.5 30430.9 11762.6 30624.8 11845.7 30638.6 12009.2 30638.6 12048 30638.6 12169.8 30533.4 12283.4 30342.2 12283.4 30034.7 12283.4 29616.4 12014.7 29616.4 11529.9 29616.4 11247.4 29779.9 11028.5 30051.3 11028.5 30447.5 11028.5 30680.2 11322.2 30680.2 11355.4 30680.2 11372 30663.6 11391.4 30646.9 11391.4 30633.1 11391.4 30627.5 11385.9 30610.9 11363.7 30392.1 11089.5 30090.1 11089.5 30056.9 11089.5 29840.8 11089.5 29815.9 11322.2 29815.9 11410.8 29815.9 11444.1 29818.7 11529.9 29860.2 11698.9H30007ZM29876.8 11759.9C29984.9 12180.9 30270.2 12222.5 30342.2 12222.5 30472.4 12222.5 30547.2 12142.1 30547.2 12048 30547.2 11759.9 30104 11759.9 29990.4 11759.9H29876.8"/>
<path transform="matrix(.00359712,0,0,-.00359712,0,71)" stroke-width="110.783" stroke-linecap="butt" stroke-miterlimit="10" stroke-linejoin="miter" fill="none" stroke="#000000" d="M28073.3 9877.34H30783.2"/>
<path transform="matrix(.00359712,0,0,-.00359712,0,71)" d="M29087.8 7498.3 29381.5 7783.64C29813.6 8165.92 29979.8 8315.52 29979.8 8592.53 29979.8 8908.33 29730.5 9129.94 29392.5 9129.94 29079.5 9129.94 28874.5 8875.09 28874.5 8628.55 28874.5 8473.41 29013 8473.41 29021.3 8473.41 29068.4 8473.41 29165.4 8506.66 29165.4 8620.23 29165.4 8692.25 29115.5 8764.28 29018.6 8764.28 28996.4 8764.28 28990.9 8764.28 28982.5 8761.52 29046.3 8941.58 29195.8 9044.06 29356.5 9044.06 29608.6 9044.06 29727.7 8819.69 29727.7 8592.53 29727.7 8370.91 29589.2 8152.06 29436.9 7980.31L28905 7387.5C28874.5 7357.03 28874.5 7351.48 28874.5 7285H29902.3L29979.8 7767.02H29910.6C29896.7 7683.91 29877.3 7562.02 29849.6 7520.47 29830.2 7498.3 29647.4 7498.3 29586.5 7498.3H29087.8"/>
<path transform="matrix(.00359712,0,0,-.00359712,0,71)" d="M32420.8 10229.4C32423.5 10246 32429.1 10259.8 32429.1 10279.2 32429.1 10326.3 32395.8 10354 32348.7 10354 32321 10354 32246.2 10334.6 32235.2 10234.9 32185.3 10337.4 32088.3 10409.4 31977.5 10409.4 31661.7 10409.4 31318.2 10021.6 31318.2 9622.69 31318.2 9348.44 31487.2 9185 31686.7 9185 31850.1 9185 31980.3 9315.2 32008 9345.67L32010.8 9342.91C31952.6 9096.36 31919.4 8982.78 31919.4 8977.23 31908.3 8952.3 31814.1 8678.06 31520.5 8678.06 31467.8 8678.06 31376.4 8680.83 31298.8 8705.75 31381.9 8730.69 31412.4 8802.72 31412.4 8849.81 31412.4 8894.13 31381.9 8946.77 31307.1 8946.77 31246.2 8946.77 31157.5 8896.91 31157.5 8786.09 31157.5 8672.52 31260 8617.11 31526 8617.11 31872.3 8617.11 32071.7 8833.19 32113.3 8999.39L32420.8 10229.4ZM32060.6 9539.58C32044 9467.56 31980.3 9398.3 31919.4 9345.67 31861.2 9295.81 31775.3 9245.94 31695 9245.94 31556.5 9245.94 31514.9 9390 31514.9 9500.8 31514.9 9633.77 31595.3 9960.66 31670 10101.9 31744.8 10237.7 31864 10348.5 31980.3 10348.5 32163.1 10348.5 32201.9 10124.1 32201.9 10110.3 32201.9 10096.4 32196.4 10079.8 32193.6 10068.7L32060.6 9539.58"/>
<path transform="matrix(.00359712,0,0,-.00359712,0,71)" d="M32541.7 8457.88C32533.9 8428.78 32533.9 8419.09 32533.9 8417.16 32533.9 8374.5 32568.8 8355.13 32599.8 8355.13 32669.6 8355.13 32685.2 8419.09 32692.9 8452.05 32696.8 8461.75 32735.6 8616.84 32782.1 8806.83 32842.2 8766.13 32919.7 8750.61 32989.5 8750.61 33156.3 8750.61 33264.8 8886.33 33268.7 8890.2 33305.5 8756.42 33439.3 8750.61 33468.4 8750.61 33538.2 8750.61 33586.7 8793.27 33621.5 8853.36 33664.2 8928.97 33689.4 9039.48 33689.4 9047.23 33689.4 9072.44 33664.2 9072.44 33658.4 9072.44 33631.2 9072.44 33629.3 9064.69 33615.7 9012.34 33592.5 8919.28 33555.6 8804.89 33474.2 8804.89 33423.8 8804.89 33410.2 8847.55 33410.2 8899.89 33410.2 8932.84 33425.7 9002.64 33439.3 9053.05 33452.9 9105.39 33472.3 9184.88 33482 9227.53L33526.5 9400.08C33538.2 9448.55 33559.5 9533.84 33559.5 9543.55 33559.5 9582.31 33528.5 9605.58 33495.5 9605.58 33474.2 9605.58 33437.4 9595.89 33416 9559.05 33410.2 9547.42 33394.7 9485.38 33385 9446.61L33344.3 9285.69 33284.2 9043.36C33270.6 8994.89 33270.6 8991.02 33253.2 8965.81 33193.1 8880.5 33107.8 8804.89 32997.3 8804.89 32838.3 8804.89 32838.3 8942.55 32838.3 8977.44 32838.3 9027.84 32844.1 9053.05 32871.3 9157.73 32890.7 9243.05 32894.5 9256.61 32913.9 9332.22L32941.1 9440.8C32950.8 9481.5 32970.1 9555.17 32970.1 9562.92 32970.1 9597.83 32943 9624.97 32904.2 9624.97 32834.4 9624.97 32817 9557.11 32811.2 9533.84L32541.7 8457.88"/>
<path transform="matrix(.00359712,0,0,-.00359712,0,71)" d="M34268.6 9568.75C34270.5 9576.5 34272.5 9588.13 34272.5 9597.83 34272.5 9599.77 34272.5 9624.97 34241.5 9624.97 34239.5 9624.97 34129 9615.28 34115.5 9615.28 34078.6 9611.39 34043.7 9609.45 34006.9 9605.58 33975.9 9603.64 33952.6 9601.7 33952.6 9560.98 33952.6 9533.84 33979.8 9533.84 34003 9533.84 34096.1 9533.84 34096.1 9522.22 34096.1 9504.77 34096.1 9493.14 34086.4 9454.36 34078.6 9429.16L33981.7 9037.55C33933.2 8843.67 33923.5 8804.89 33923.5 8797.14 33923.5 8770 33952.6 8770 33960.4 8770H33991.4C34163.9 8797.14 34410.1 8888.27 34617.6 9072.44 34881.3 9307.02 34920 9559.05 34920 9562.92 34920 9597.83 34892.9 9624.97 34854.1 9624.97 34786.3 9624.97 34772.7 9570.69 34755.2 9516.41 34677.7 9241.11 34417.9 8944.48 34088.3 8847.55L34268.6 9568.75"/>
<path transform="matrix(.00359712,0,0,-.00359712,0,71)" d="M35723.3 9187.77C35723.3 9370.61 35654.1 9478.64 35546.1 9478.64 35454.6 9478.64 35399.2 9409.39 35399.2 9331.81 35399.2 9257.03 35454.6 9185 35546.1 9185 35579.3 9185 35615.3 9196.08 35643 9221.02 35651.3 9226.55 35654.1 9229.33 35656.9 9229.33 35659.6 9229.33 35662.4 9226.55 35662.4 9187.77 35662.4 8982.78 35565.5 8816.56 35474 8725.16 35443.6 8694.67 35443.6 8689.14 35443.6 8680.83 35443.6 8661.44 35457.4 8650.36 35471.3 8650.36 35501.7 8650.36 35723.3 8863.66 35723.3 9187.77"/>
<path transform="matrix(.00359712,0,0,-.00359712,0,71)" d="M58950.6 19258C58950.6 19263.6 58958.9 19294 58958.9 19296.8 58958.9 19299.6 58958.9 19324.5 58925.6 19324.5 58897.9 19324.5 58895.2 19316.2 58884.1 19269.1L58723.4 18629.2C58283 18615.3 57875.7 18246.9 57875.7 17870.2 57875.7 17607 58069.7 17388.2 58407.6 17368.8 58385.5 17282.9 58366.1 17194.2 58343.9 17108.4 58310.7 16978.2 58283 16872.9 58283 16864.6 58283 16836.9 58302.3 16834.1 58316.2 16834.1 58330 16834.1 58335.6 16836.9 58343.9 16845.2 58349.4 16850.7 58366.1 16917.2 58374.4 16956L58479.6 17368.8C58925.6 17382.6 59327.3 17756.6 59327.3 18127.8 59327.3 18346.6 59180.5 18601.5 58795.4 18629.2L58950.6 19258ZM58421.5 17429.7C58255.3 17438 58055.8 17535 58055.8 17812 58055.8 18144.4 58294 18532.2 58706.8 18568.3L58421.5 17429.7ZM58778.8 18568.3C58989.4 18557.2 59147.3 18429.7 59147.3 18186 59147.3 17859.1 58909 17462.9 58493.5 17429.7L58778.8 18568.3"/>
<path transform="matrix(.00359712,0,0,-.00359712,0,71)" d="M60288.6 18845.1H60881.9C60907.1 18845.1 60953.6 18845.1 60953.6 18891.7 60953.6 18940.1 60909 18940.1 60881.9 18940.1H60288.6V19535.3C60288.6 19560.5 60288.6 19607.1 60242.1 19607.1 60193.6 19607.1 60193.6 19562.5 60193.6 19535.3V18940.1H59598.4C59573.2 18940.1 59526.7 18940.1 59526.7 18893.6 59526.7 18845.1 59571.3 18845.1 59598.4 18845.1H60193.6V18250C60193.6 18224.8 60193.6 18178.2 60240.2 18178.2 60288.6 18178.2 60288.6 18222.8 60288.6 18250V18845.1"/>
<path transform="matrix(.00359712,0,0,-.00359712,0,71)" d="M41535.9 17815.6C41425.1 17630 41317 17591.2 41195.1 17582.9 41161.9 17580.1 41137 17580.1 41137 17527.5 41137 17510.8 41150.8 17497 41173 17497 41247.8 17497 41333.6 17505.3 41411.2 17505.3 41502.6 17505.3 41599.6 17497 41688.2 17497 41704.8 17497 41740.9 17497 41740.9 17549.6 41740.9 17580.1 41715.9 17582.9 41696.5 17582.9 41632.8 17588.4 41566.3 17610.6 41566.3 17679.8 41566.3 17713.1 41583 17743.5 41605.1 17782.3L41815.7 18136.9H42511C42516.5 18078.7 42555.3 17702 42555.3 17674.3 42555.3 17591.2 42411.3 17582.9 42355.8 17582.9 42317.1 17582.9 42289.4 17582.9 42289.4 17527.5 42289.4 17497 42322.6 17497 42328.1 17497 42441.7 17497 42560.8 17505.3 42674.4 17505.3 42743.7 17505.3 42918.2 17497 42987.4 17497 43004.1 17497 43037.3 17497 43037.3 17552.4 43037.3 17582.9 43009.6 17582.9 42973.6 17582.9 42801.8 17582.9 42801.8 17602.3 42793.5 17682.6L42624.5 19414C42619 19469.4 42619 19480.5 42571.9 19480.5 42527.6 19480.5 42516.5 19461.1 42499.9 19433.4L41535.9 17815.6ZM41868.3 18222.8 42414 19137 42502.7 18222.8H41868.3Z"/>
<path transform="matrix(.00359712,0,0,-.00359712,0,71)" d="M43604.6 17880.8C43606.5 17888.5 43608.5 17900.1 43608.5 17909.8 43608.5 17911.8 43608.5 17937 43577.5 17937 43575.5 17937 43465 17927.3 43451.5 17927.3 43414.6 17923.4 43379.7 17921.5 43342.9 17917.6 43311.9 17915.6 43288.6 17913.7 43288.6 17873 43288.6 17845.8 43315.8 17845.8 43339 17845.8 43432.1 17845.8 43432.1 17834.2 43432.1 17816.8 43432.1 17805.1 43422.4 17766.4 43414.6 17741.2L43317.7 17349.5C43269.2 17155.7 43259.5 17116.9 43259.5 17109.1 43259.5 17082 43288.6 17082 43296.4 17082H43327.4C43499.9 17109.1 43746.1 17200.3 43953.6 17384.4 44217.3 17619 44256 17871 44256 17874.9 44256 17909.8 44228.9 17937 44190.1 17937 44122.3 17937 44108.7 17882.7 44091.2 17828.4 44013.7 17553.1 43753.9 17256.5 43424.3 17159.5L43604.6 17880.8"/>
<path transform="matrix(.00359712,0,0,-.00359712,0,71)" d="M42218.6 2542.03C42218.6 2547.56 42226.9 2578.03 42226.9 2580.81 42226.9 2583.58 42226.9 2608.52 42193.6 2608.52 42165.9 2608.52 42163.2 2600.2 42152.1 2553.11L41991.4 1913.19C41551 1899.34 41143.7 1530.91 41143.7 1154.16 41143.7 891 41337.7 672.156 41675.6 652.75 41653.5 566.875 41634.1 478.234 41611.9 392.359 41578.7 262.156 41551 156.891 41551 148.578 41551 120.875 41570.3 118.109 41584.2 118.109 41598 118.109 41603.6 120.875 41611.9 129.188 41617.4 134.734 41634.1 201.219 41642.4 240L41747.6 652.75C42193.6 666.609 42595.3 1040.58 42595.3 1411.8 42595.3 1630.64 42448.5 1885.48 42063.4 1913.19L42218.6 2542.03ZM41689.5 713.703C41523.3 722.016 41323.8 818.969 41323.8 1095.98 41323.8 1428.41 41562 1816.23 41974.8 1852.25L41689.5 713.703ZM42046.8 1852.25C42257.4 1841.17 42415.3 1713.73 42415.3 1469.97 42415.3 1143.08 42177 746.938 41761.5 713.703L42046.8 1852.25"/>
<path transform="matrix(.00359712,0,0,-.00359712,0,71)" d="M44100.4 2129.14C44131.4 2129.14 44177.9 2129.14 44177.9 2175.67 44177.9 2224.14 44133.3 2224.14 44100.4 2224.14H42944.9C42913.9 2224.14 42867.4 2224.14 42867.4 2177.61 42867.4 2129.14 42912 2129.14 42944.9 2129.14H44100.4"/>
<path transform="matrix(.00359712,0,0,-.00359712,0,71)" d="M58199.9 1287.58C58089.1 1101.97 57981 1063.19 57859.1 1054.88 57825.9 1052.11 57801 1052.11 57801 999.469 57801 982.844 57814.8 969 57837 969 57911.8 969 57997.6 977.313 58075.2 977.313 58166.6 977.313 58263.6 969 58352.2 969 58368.8 969 58404.9 969 58404.9 1021.64 58404.9 1052.11 58379.9 1054.88 58360.5 1054.88 58296.8 1060.42 58230.3 1082.58 58230.3 1151.83 58230.3 1185.08 58247 1215.55 58269.1 1254.33L58479.7 1608.91H59175C59180.5 1550.73 59219.3 1174 59219.3 1146.3 59219.3 1063.19 59075.3 1054.88 59019.8 1054.88 58981.1 1054.88 58953.4 1054.88 58953.4 999.469 58953.4 969 58986.6 969 58992.1 969 59105.7 969 59224.8 977.313 59338.4 977.313 59407.7 977.313 59582.2 969 59651.4 969 59668.1 969 59701.3 969 59701.3 1024.41 59701.3 1054.88 59673.6 1054.88 59637.6 1054.88 59465.8 1054.88 59465.8 1074.27 59457.5 1154.61L59288.5 2885.97C59283 2941.38 59283 2952.45 59235.9 2952.45 59191.6 2952.45 59180.5 2933.06 59163.9 2905.36L58199.9 1287.58ZM58532.3 1694.8 59078 2608.95 59166.7 1694.8H58532.3Z"/>
<path transform="matrix(.00359712,0,0,-.00359712,0,71)" d="M59885.7 241.875C59877.9 212.781 59877.9 203.094 59877.9 201.156 59877.9 158.5 59912.8 139.125 59943.8 139.125 60013.6 139.125 60029.2 203.094 60036.9 236.047 60040.8 245.75 60079.6 400.844 60126.1 590.828 60186.2 550.125 60263.7 534.609 60333.5 534.609 60500.3 534.609 60608.8 670.328 60612.7 674.203 60649.5 540.422 60783.3 534.609 60812.4 534.609 60882.2 534.609 60930.7 577.266 60965.5 637.359 61008.2 712.969 61033.4 823.484 61033.4 831.234 61033.4 856.438 61008.2 856.438 61002.4 856.438 60975.2 856.438 60973.3 848.688 60959.7 796.344 60936.5 703.281 60899.6 588.891 60818.2 588.891 60767.8 588.891 60754.2 631.547 60754.2 683.891 60754.2 716.844 60769.7 786.641 60783.3 837.047 60796.9 889.391 60816.3 968.875 60826 1011.53L60870.5 1184.08C60882.2 1232.55 60903.5 1317.84 60903.5 1327.55 60903.5 1366.31 60872.5 1389.58 60839.5 1389.58 60818.2 1389.58 60781.4 1379.89 60760 1343.05 60754.2 1331.42 60738.7 1269.38 60729 1230.61L60688.3 1069.69 60628.2 827.359C60614.6 778.891 60614.6 775.016 60597.2 749.813 60537.1 664.5 60451.8 588.891 60341.3 588.891 60182.3 588.891 60182.3 726.547 60182.3 761.438 60182.3 811.844 60188.1 837.047 60215.3 941.734 60234.7 1027.05 60238.5 1040.61 60257.9 1116.22L60285.1 1224.8C60294.8 1265.5 60314.1 1339.17 60314.1 1346.92 60314.1 1381.83 60287 1408.97 60248.2 1408.97 60178.4 1408.97 60161 1341.11 60155.2 1317.84L59885.7 241.875"/>
<path transform="matrix(.00359712,0,0,-.00359712,0,71)" stroke-width="110.783" stroke-linecap="butt" stroke-dasharray="830.895,830.895" stroke-miterlimit="10" stroke-linejoin="miter" fill="none" stroke="#000000" d="M57135.1 15885.3 51126.4 9877.34"/>
<path transform="matrix(.00359712,0,0,-.00359712,0,71)" d="M53409.3 12160 55243.2 12919.5 54169.1 13993.8"/>
<path transform="matrix(.00359712,0,0,-.00359712,0,71)" stroke-width="110.783" stroke-linecap="butt" stroke-dasharray="830.895,830.895" stroke-miterlimit="10" stroke-linejoin="miter" fill="none" stroke="#000000" d="M51126.4 9877.34 45117.8 3869.37"/>
<path transform="matrix(.00359712,0,0,-.00359712,0,71)" d="M47400.7 6152.05 49234.6 6911.57 48160.4 7985.84"/>
<path transform="matrix(.00359712,0,0,-.00359712,0,71)" stroke-width="110.783" stroke-linecap="butt" stroke-miterlimit="10" stroke-linejoin="miter" fill="none" stroke="#000000" d="M44899.9 16103.2 45003.6 15999.6 45229.6 16018.3 45422.9 16004.3 45559.3 15933.5 45630.1 15797.1 45644.2 15603.8 45625.4 15377.8 45606.7 15151.8 45620.7 14958.5 45691.5 14822.1 45828 14751.3 46021.2 14737.3 46247.2 14756 46473.3 14774.8 46666.5 14760.8 46802.9 14689.9 46873.8 14553.5 46887.8 14360.3 46869.1 14134.3 46850.3 13908.2 46864.3 13715 46935.2 13578.6 47071.6 13507.7 47264.9 13493.7 47490.9 13512.5 47716.9 13531.2 47910.2 13517.2 48046.6 13446.4 48117.4 13310 48131.5 13116.7 48112.7 12890.7 48094 12664.7 48108 12471.4 48178.8 12335 48315.3 12264.2 48508.5 12250.2 48734.5 12268.9 48960.6 12287.7 49153.8 12273.7 49290.2 12202.8 49361.1 12066.4 49375.1 11873.2 49356.4 11647.2 49337.6 11421.1 49351.7 11227.9 49422.5 11091.5 49558.9 11020.6 49752.2 11006.6 49978.2 11025.4 50204.2 11044.2 50397.5 11030.1 50533.9 10959.3 50604.7 10822.9 50618.8 10629.6 50600 10403.6 50581.3 10177.6 50595.3 9984.34 50666.2 9847.91 51126.4 9877.34"/>
<path transform="matrix(.00359712,0,0,-.00359712,0,71)" stroke-width="110.783" stroke-linecap="butt" stroke-miterlimit="10" stroke-linejoin="miter" fill="none" stroke="#000000" d="M51126.4 9877.34 51226.9 9776.86 51449.8 9798.77 51639.9 9787.89 51773.2 9720.2 51840.9 9586.91 51851.8 9396.82 51829.9 9173.92 51808.1 8951.03 51819 8760.93 51886.7 8627.64 52020 8559.95 52210.1 8549.07 52432.9 8570.98 52655.8 8592.9 52845.9 8582.02 52979.2 8514.33 53046.9 8381.04 53057.9 8190.94 53036 7968.05 53014.1 7745.15 53025 7555.05 53092.7 7421.77 53226 7354.07 53416.1 7343.2 53639 7365.11 53861.9 7387.03 54052 7376.14 54185.3 7308.46 54253 7175.17 54263.9 6985.07 54242 6762.18 54220.1 6539.28 54231 6349.18 54298.7 6215.89 54432 6148.21 54622.1 6137.32 54845 6159.24 55067.9 6181.16 55258 6170.28 55391.3 6102.59 55459 5969.3 55469.9 5779.2 55448 5556.3 55426.1 5333.41 55437 5143.31 55504.7 5010.02 55638 4942.34 55828.1 4931.46 56051 4953.37 56273.9 4975.29 56464 4964.41 56597.3 4896.71 56665 4763.43 56675.9 4573.33 56654 4350.44 56632.2 4127.54 56643.1 3937.44 56710.8 3804.15 57164.5 3839.98"/>
<path transform="matrix(.00359712,0,0,-.00359712,0,71)" d="M53315.6 10900C53315.6 10905.6 53323.9 10936 53323.9 10938.8 53323.9 10941.6 53323.9 10966.5 53290.6 10966.5 53262.9 10966.5 53260.2 10958.2 53249.1 10911.1L53088.4 10271.2C52648 10257.3 52240.7 9888.91 52240.7 9512.16 52240.7 9249 52434.7 9030.16 52772.6 9010.75 52750.5 8924.88 52731.1 8836.23 52708.9 8750.36 52675.7 8620.16 52648 8514.89 52648 8506.58 52648 8478.88 52667.3 8476.11 52681.2 8476.11 52695 8476.11 52700.6 8478.88 52708.9 8487.19 52714.4 8492.73 52731.1 8559.22 52739.4 8598L52844.6 9010.75C53290.6 9024.61 53692.3 9398.58 53692.3 9769.8 53692.3 9988.64 53545.5 10243.5 53160.4 10271.2L53315.6 10900ZM52786.5 9071.7C52620.3 9080.02 52420.8 9176.97 52420.8 9453.98 52420.8 9786.41 52659 10174.2 53071.8 10210.3L52786.5 9071.7ZM53143.8 10210.3C53354.4 10199.2 53512.3 10071.7 53512.3 9827.97 53512.3 9501.08 53274 9104.94 52858.5 9071.7L53143.8 10210.3"/>
<path transform="matrix(.00359712,0,0,-.00359712,0,71)" d="M55197.4 10487.1C55228.4 10487.1 55274.9 10487.1 55274.9 10533.7 55274.9 10582.1 55230.3 10582.1 55197.4 10582.1H54041.9C54010.9 10582.1 53964.4 10582.1 53964.4 10535.6 53964.4 10487.1 54009 10487.1 54041.9 10487.1H55197.4"/>
<path transform="matrix(.00359712,0,0,-.00359712,0,71)" d="M47869.6 10900C47869.6 10905.6 47877.9 10936 47877.9 10938.8 47877.9 10941.6 47877.9 10966.5 47844.6 10966.5 47816.9 10966.5 47814.2 10958.2 47803.1 10911.1L47642.4 10271.2C47202 10257.3 46794.7 9888.91 46794.7 9512.16 46794.7 9249 46988.7 9030.16 47326.6 9010.75 47304.5 8924.88 47285.1 8836.23 47262.9 8750.36 47229.7 8620.16 47202 8514.89 47202 8506.58 47202 8478.88 47221.3 8476.11 47235.2 8476.11 47249 8476.11 47254.6 8478.88 47262.9 8487.19 47268.4 8492.73 47285.1 8559.22 47293.4 8598L47398.6 9010.75C47844.6 9024.61 48246.3 9398.58 48246.3 9769.8 48246.3 9988.64 48099.5 10243.5 47714.4 10271.2L47869.6 10900ZM47340.5 9071.7C47174.3 9080.02 46974.8 9176.97 46974.8 9453.98 46974.8 9786.41 47213 10174.2 47625.8 10210.3L47340.5 9071.7ZM47697.8 10210.3C47908.4 10199.2 48066.3 10071.7 48066.3 9827.97 48066.3 9501.08 47828 9104.94 47412.5 9071.7L47697.8 10210.3"/>
<path transform="matrix(.00359712,0,0,-.00359712,0,71)" d="M49206.6 10487.1H49799.9C49825.1 10487.1 49871.6 10487.1 49871.6 10533.7 49871.6 10582.1 49827 10582.1 49799.9 10582.1H49206.6V11177.3C49206.6 11202.5 49206.6 11249.1 49160.1 11249.1 49111.6 11249.1 49111.6 11204.5 49111.6 11177.3V10582.1H48516.4C48491.2 10582.1 48444.7 10582.1 48444.7 10535.6 48444.7 10487.1 48489.3 10487.1 48516.4 10487.1H49111.6V9891.97C49111.6 9866.77 49111.6 9820.23 49158.2 9820.23 49206.6 9820.23 49206.6 9864.83 49206.6 9891.97V10487.1"/>
<path transform="matrix(.00359712,0,0,-.00359712,0,71)" d="M64861.1 10090.8C64902.7 10090.8 64955.3 10090.8 64955.3 10146.3 64955.3 10201.7 64902.7 10201.7 64863.9 10201.7H63204.5C63165.8 10201.7 63113.1 10201.7 63113.1 10146.3 63113.1 10090.8 63165.8 10090.8 63207.3 10090.8H64861.1ZM64863.9 9553.44C64902.7 9553.44 64955.3 9553.44 64955.3 9608.84 64955.3 9664.25 64902.7 9664.25 64861.1 9664.25H63207.3C63165.8 9664.25 63113.1 9664.25 63113.1 9608.84 63113.1 9553.44 63165.8 9553.44 63204.5 9553.44H64863.9"/>
<path transform="matrix(.00359712,0,0,-.00359712,0,71)" d="M66229.8 9398.3 66523.5 9683.64C66955.6 10065.9 67121.8 10215.5 67121.8 10492.5 67121.8 10808.3 66872.5 11029.9 66534.5 11029.9 66221.5 11029.9 66016.5 10775.1 66016.5 10528.5 66016.5 10373.4 66155 10373.4 66163.3 10373.4 66210.4 10373.4 66307.4 10406.7 66307.4 10520.2 66307.4 10592.3 66257.5 10664.3 66160.6 10664.3 66138.4 10664.3 66132.9 10664.3 66124.5 10661.5 66188.3 10841.6 66337.8 10944.1 66498.5 10944.1 66750.6 10944.1 66869.7 10719.7 66869.7 10492.5 66869.7 10270.9 66731.2 10052.1 66578.9 9880.31L66047 9287.5C66016.5 9257.03 66016.5 9251.48 66016.5 9185H67044.3L67121.8 9667.02H67052.6C67038.7 9583.91 67019.3 9462.02 66991.6 9420.47 66972.2 9398.3 66789.4 9398.3 66728.5 9398.3H66229.8"/>
<path transform="matrix(.00359712,0,0,-.00359712,0,71)" d="M68053.7 10916.4C68053.7 10971.8 68015 11016.1 67951.2 11016.1 67876.4 11016.1 67801.6 10944.1 67801.6 10869.3 67801.6 10816.6 67840.4 10769.5 67906.9 10769.5 67970.6 10769.5 68053.7 10833.3 68053.7 10916.4ZM67843.2 9874.78C67876.4 9955.11 67876.4 9960.66 67904.1 10035.5 67926.3 10090.8 67940.2 10129.6 67940.2 10182.3 67940.2 10306.9 67851.5 10409.4 67713 10409.4 67452.6 10409.4 67347.3 10007.8 67347.3 9982.81 67347.3 9955.11 67375 9955.11 67380.6 9955.11 67408.3 9955.11 67411 9960.66 67424.9 10005 67499.7 10265.4 67610.5 10348.5 67704.7 10348.5 67726.8 10348.5 67773.9 10348.5 67773.9 10259.8 67773.9 10201.7 67754.5 10143.5 67743.5 10115.8 67721.3 10043.8 67596.7 9722.42 67552.3 9603.3 67524.6 9531.28 67488.6 9439.86 67488.6 9381.69 67488.6 9251.48 67582.8 9154.53 67715.8 9154.53 67976.2 9154.53 68078.7 9556.2 68078.7 9581.14 68078.7 9608.84 68053.7 9608.84 68045.4 9608.84 68017.7 9608.84 68017.7 9600.53 68003.9 9558.97 67954 9384.45 67862.6 9215.47 67721.3 9215.47 67674.2 9215.47 67654.8 9243.17 67654.8 9306.89 67654.8 9376.14 67671.5 9414.92 67735.2 9583.91L67843.2 9874.78"/>
<path transform="matrix(.00359712,0,0,-.00359712,0,71)" d="M68737 9824.91C68817.4 9824.91 69022.4 9830.45 69160.9 9888.63 69354.8 9971.73 69368.6 10135.2 69368.6 10174 69368.6 10295.8 69263.4 10409.4 69072.2 10409.4 68764.7 10409.4 68346.4 10140.7 68346.4 9655.94 68346.4 9373.38 68509.9 9154.53 68781.3 9154.53 69177.5 9154.53 69410.2 9448.17 69410.2 9481.41 69410.2 9498.03 69393.6 9517.42 69376.9 9517.42 69363.1 9517.42 69357.5 9511.88 69340.9 9489.72 69122.1 9215.47 68820.1 9215.47 68786.9 9215.47 68570.8 9215.47 68545.9 9448.17 68545.9 9536.81 68545.9 9570.06 68548.7 9655.94 68590.2 9824.91H68737ZM68606.8 9885.86C68714.9 10306.9 69000.2 10348.5 69072.2 10348.5 69202.4 10348.5 69277.2 10268.1 69277.2 10174 69277.2 9885.86 68834 9885.86 68720.4 9885.86H68606.8"/>
<path transform="matrix(.00359712,0,0,-.00359712,0,71)" d="M70489 10681.8H70423.1C70417.3 10639.2 70397.9 10524.8 70372.7 10505.4 70357.2 10493.8 70207.9 10493.8 70180.8 10493.8H69824.1C70027.6 10674.1 70095.5 10728.4 70211.8 10819.5 70355.3 10933.9 70489 11054.1 70489 11238.3 70489 11472.8 70283.5 11616.3 70035.4 11616.3 69795 11616.3 69632.1 11447.6 69632.1 11269.3 69632.1 11170.4 69715.5 11160.7 69734.9 11160.7 69781.4 11160.7 69837.6 11193.7 69837.6 11263.5 69837.6 11298.3 69824.1 11366.2 69723.3 11366.2 69783.4 11503.9 69915.2 11546.5 70006.3 11546.5 70200.2 11546.5 70301 11395.3 70301 11238.3 70301 11069.6 70180.8 10935.8 70118.8 10866L69651.5 10404.6C69632.1 10387.2 69632.1 10383.3 69632.1 10329H70430.9L70489 10681.8"/>
<path transform="matrix(.00359712,0,0,-.00359712,0,71)" d="M72057.8 10229.4C72060.5 10246 72066.1 10259.8 72066.1 10279.2 72066.1 10326.3 72032.8 10354 71985.7 10354 71958 10354 71883.2 10334.6 71872.2 10234.9 71822.3 10337.4 71725.3 10409.4 71614.5 10409.4 71298.7 10409.4 70955.2 10021.6 70955.2 9622.69 70955.2 9348.44 71124.2 9185 71323.7 9185 71487.1 9185 71617.3 9315.2 71645 9345.67L71647.8 9342.91C71589.6 9096.36 71556.4 8982.78 71556.4 8977.23 71545.3 8952.3 71451.1 8678.06 71157.5 8678.06 71104.8 8678.06 71013.4 8680.83 70935.8 8705.75 71018.9 8730.69 71049.4 8802.72 71049.4 8849.81 71049.4 8894.13 71018.9 8946.77 70944.1 8946.77 70883.2 8946.77 70794.5 8896.91 70794.5 8786.09 70794.5 8672.52 70897 8617.11 71163 8617.11 71509.3 8617.11 71708.7 8833.19 71750.3 8999.39L72057.8 10229.4ZM71697.6 9539.58C71681 9467.56 71617.3 9398.3 71556.4 9345.67 71498.2 9295.81 71412.3 9245.94 71332 9245.94 71193.5 9245.94 71151.9 9390 71151.9 9500.8 71151.9 9633.77 71232.3 9960.66 71307 10101.9 71381.8 10237.7 71501 10348.5 71617.3 10348.5 71800.1 10348.5 71838.9 10124.1 71838.9 10110.3 71838.9 10096.4 71833.4 10079.8 71830.6 10068.7L71697.6 9539.58"/>
<path transform="matrix(.00359712,0,0,-.00359712,0,71)" d="M72178.7 8457.88C72170.9 8428.78 72170.9 8419.09 72170.9 8417.16 72170.9 8374.5 72205.8 8355.13 72236.8 8355.13 72306.6 8355.13 72322.2 8419.09 72329.9 8452.05 72333.8 8461.75 72372.6 8616.84 72419.1 8806.83 72479.2 8766.13 72556.7 8750.61 72626.5 8750.61 72793.3 8750.61 72901.8 8886.33 72905.7 8890.2 72942.5 8756.42 73076.3 8750.61 73105.4 8750.61 73175.2 8750.61 73223.7 8793.27 73258.5 8853.36 73301.2 8928.97 73326.4 9039.48 73326.4 9047.23 73326.4 9072.44 73301.2 9072.44 73295.4 9072.44 73268.2 9072.44 73266.3 9064.69 73252.7 9012.34 73229.5 8919.28 73192.6 8804.89 73111.2 8804.89 73060.8 8804.89 73047.2 8847.55 73047.2 8899.89 73047.2 8932.84 73062.7 9002.64 73076.3 9053.05 73089.9 9105.39 73109.3 9184.88 73119 9227.53L73163.5 9400.08C73175.2 9448.55 73196.5 9533.84 73196.5 9543.55 73196.5 9582.31 73165.5 9605.58 73132.5 9605.58 73111.2 9605.58 73074.4 9595.89 73053 9559.05 73047.2 9547.42 73031.7 9485.38 73022 9446.61L72981.3 9285.69 72921.2 9043.36C72907.6 8994.89 72907.6 8991.02 72890.2 8965.81 72830.1 8880.5 72744.8 8804.89 72634.3 8804.89 72475.3 8804.89 72475.3 8942.55 72475.3 8977.44 72475.3 9027.84 72481.1 9053.05 72508.3 9157.73 72527.7 9243.05 72531.5 9256.61 72550.9 9332.22L72578.1 9440.8C72587.8 9481.5 72607.1 9555.17 72607.1 9562.92 72607.1 9597.83 72580 9624.97 72541.2 9624.97 72471.4 9624.97 72454 9557.11 72448.2 9533.84L72178.7 8457.88"/>
<path transform="matrix(.00359712,0,0,-.00359712,0,71)" d="M73905.6 9568.75C73907.5 9576.5 73909.5 9588.13 73909.5 9597.83 73909.5 9599.77 73909.5 9624.97 73878.5 9624.97 73876.5 9624.97 73766 9615.28 73752.5 9615.28 73715.6 9611.39 73680.7 9609.45 73643.9 9605.58 73612.9 9603.64 73589.6 9601.7 73589.6 9560.98 73589.6 9533.84 73616.8 9533.84 73640 9533.84 73733.1 9533.84 73733.1 9522.22 73733.1 9504.77 73733.1 9493.14 73723.4 9454.36 73715.6 9429.16L73618.7 9037.55C73570.2 8843.67 73560.5 8804.89 73560.5 8797.14 73560.5 8770 73589.6 8770 73597.4 8770H73628.4C73800.9 8797.14 74047.1 8888.27 74254.6 9072.44 74518.3 9307.02 74557 9559.05 74557 9562.92 74557 9597.83 74529.9 9624.97 74491.1 9624.97 74423.3 9624.97 74409.7 9570.69 74392.2 9516.41 74314.7 9241.11 74054.9 8944.48 73725.3 8847.55L73905.6 9568.75"/>
<path transform="matrix(.00359712,0,0,-.00359712,0,71)" d="M75330.9 9331.81C75330.9 9412.16 75264.4 9478.64 75184.1 9478.64 75103.7 9478.64 75037.2 9412.16 75037.2 9331.81 75037.2 9251.48 75103.7 9185 75184.1 9185 75264.4 9185 75330.9 9251.48 75330.9 9331.81"/>
</svg>
