<svg xmlns="http://www.w3.org/2000/svg" xmlns:xlink="http://www.w3.org/1999/xlink" version="1.1" width="128pt" height="83pt" viewBox="0 0 128 83">
<path transform="matrix(.00359712,0,0,-.00359712,0,83)" d="M1075.66 1677.08H1313.89C1369.3 1677.08 1397 1677.08 1397 1732.48 1397 1762.95 1369.3 1762.95 1322.2 1762.95H1092.28L1150.45 2078.75C1161.53 2136.92 1200.31 2333.61 1216.94 2366.86 1241.88 2419.48 1288.97 2461.03 1347.14 2461.03 1358.22 2461.03 1430.25 2461.03 1482.88 2411.17 1360.98 2400.09 1333.28 2303.14 1333.28 2261.58 1333.28 2197.88 1383.16 2164.63 1435.78 2164.63 1507.81 2164.63 1588.14 2225.58 1588.14 2330.84 1588.14 2458.27 1460.72 2521.98 1347.14 2521.98 1252.95 2521.98 1078.42 2472.13 995.328 2197.88 978.703 2139.7 970.391 2112 903.906 1762.95H712.766C660.125 1762.95 629.656 1762.95 629.656 1710.31 629.656 1677.08 654.594 1677.08 707.219 1677.08H890.063L682.297 582.844C632.422 314.141 585.328 62.0625 441.281 62.0625 430.203 62.0625 360.953 62.0625 308.313 111.922 435.75 120.234 460.672 219.953 460.672 261.516 460.672 325.219 410.813 358.469 358.188 358.469 286.156 358.469 205.813 297.516 205.813 192.25 205.813 67.5938 327.703 1.10938 441.281 1.10938 593.641 1.10938 704.453 164.547 754.313 269.813 842.969 444.344 906.672 779.531 909.453 798.922L1075.66 1677.08"/>
<path transform="matrix(.00359712,0,0,-.00359712,0,83)" d="M18615 12428C18615 12430.8 18615 12458.5 18579 12458.5 18515.3 12458.5 18313.1 12436.3 18241.1 12430.8 18218.9 12428 18188.4 12425.3 18188.4 12375.4 18188.4 12342.2 18213.4 12342.2 18254.9 12342.2 18387.9 12342.2 18393.4 12322.8 18393.4 12295.1L18385.1 12239.7 17983.4 10644C17972.4 10605.3 17972.4 10599.7 17972.4 10583.1 17972.4 10519.4 18027.8 10505.5 18052.7 10505.5 18097 10505.5 18141.3 10538.8 18155.2 10577.5L18207.8 10788.1 18268.8 11037.4C18285.4 11098.3 18302 11159.3 18315.9 11223 18321.4 11239.6 18343.6 11331 18346.3 11347.7 18354.6 11372.6 18440.5 11527.7 18534.7 11602.5 18595.7 11646.8 18681.5 11699.5 18800.6 11699.5 18919.8 11699.5 18950.2 11605.3 18950.2 11505.6 18950.2 11356 18845 11054 18778.5 10885 18756.3 10821.3 18742.5 10788.1 18742.5 10732.7 18742.5 10602.5 18839.4 10505.5 18969.6 10505.5 19230 10505.5 19332.5 10910 19332.5 10932.1 19332.5 10959.8 19307.6 10959.8 19299.3 10959.8 19271.6 10959.8 19271.6 10951.5 19257.7 10910 19216.2 10763.2 19127.5 10566.5 18975.2 10566.5 18928.1 10566.5 18908.7 10594.2 18908.7 10657.9 18908.7 10727.1 18933.6 10793.6 18958.5 10854.6 19002.9 10973.7 19127.5 11303.3 19127.5 11464 19127.5 11644.1 19016.7 11760.4 18809 11760.4 18634.4 11760.4 18501.5 11674.5 18399 11547.1L18615 12428"/>
<path transform="matrix(.00359712,0,0,-.00359712,0,83)" d="M1075.66 22150.1H1313.89C1369.3 22150.1 1397 22150.1 1397 22205.5 1397 22236 1369.3 22236 1322.2 22236H1092.28L1150.45 22551.8C1161.53 22609.9 1200.31 22806.6 1216.94 22839.9 1241.88 22892.5 1288.97 22934 1347.14 22934 1358.22 22934 1430.25 22934 1482.88 22884.2 1360.98 22873.1 1333.28 22776.1 1333.28 22734.6 1333.28 22670.9 1383.16 22637.6 1435.78 22637.6 1507.81 22637.6 1588.14 22698.6 1588.14 22803.8 1588.14 22931.3 1460.72 22995 1347.14 22995 1252.95 22995 1078.42 22945.1 995.328 22670.9 978.703 22612.7 970.391 22585 903.906 22236H712.766C660.125 22236 629.656 22236 629.656 22183.3 629.656 22150.1 654.594 22150.1 707.219 22150.1H890.063L682.297 21055.8C632.422 20787.1 585.328 20535.1 441.281 20535.1 430.203 20535.1 360.953 20535.1 308.313 20584.9 435.75 20593.2 460.672 20693 460.672 20734.5 460.672 20798.2 410.813 20831.5 358.188 20831.5 286.156 20831.5 205.813 20770.5 205.813 20665.3 205.813 20540.6 327.703 20474.1 441.281 20474.1 593.641 20474.1 704.453 20637.5 754.313 20742.8 842.969 20917.3 906.672 21252.5 909.453 21271.9L1075.66 22150.1"/>
<path transform="matrix(.00359712,0,0,-.00359712,0,83)" stroke-width="110.783" stroke-linecap="butt" stroke-miterlimit="10" stroke-linejoin="miter" fill="none" stroke="#000000" d="M2162.07 3470.29 6796.82 11497.8"/>
<path transform="matrix(.00359712,0,0,-.00359712,0,83)" d="M4991.6 8371.09 3416.82 7162.7 4732.45 6403.11"/>
<path transform="matrix(.00359712,0,0,-.00359712,0,83)" stroke-width="110.783" stroke-linecap="butt" stroke-miterlimit="10" stroke-linejoin="miter" fill="none" stroke="#000000" d="M6796.82 11497.8 2162.07 19525.3"/>
<path transform="matrix(.00359712,0,0,-.00359712,0,83)" d="M3967.3 16398.6 4226.45 14430.6 5542.07 15190.2"/>
<path transform="matrix(.00359712,0,0,-.00359712,0,83)" stroke-width="110.783" stroke-linecap="butt" stroke-dasharray="830.895,830.895" stroke-miterlimit="10" stroke-linejoin="miter" fill="none" stroke="#000000" d="M6796.82 11497.8H16841.1"/>
<path transform="matrix(.00359712,0,0,-.00359712,0,83)" d="M23011.1 11710.8C23052.7 11710.8 23105.3 11710.8 23105.3 11766.3 23105.3 11821.7 23052.7 11821.7 23013.9 11821.7H21354.5C21315.8 11821.7 21263.1 11821.7 21263.1 11766.3 21263.1 11710.8 21315.8 11710.8 21357.3 11710.8H23011.1ZM23013.9 11173.4C23052.7 11173.4 23105.3 11173.4 23105.3 11228.8 23105.3 11284.3 23052.7 11284.3 23011.1 11284.3H21357.3C21315.8 11284.3 21263.1 11284.3 21263.1 11228.8 21263.1 11173.4 21315.8 11173.4 21354.5 11173.4H23013.9"/>
<path transform="matrix(.00359712,0,0,-.00359712,0,83)" d="M25856.5 11442.1C25903.6 11442.1 25953.5 11442.1 25953.5 11497.5 25953.5 11553 25903.6 11553 25856.5 11553H24357.9C24310.8 11553 24260.9 11553 24260.9 11497.5 24260.9 11442.1 24310.8 11442.1 24357.9 11442.1H25856.5"/>
<path transform="matrix(.00359712,0,0,-.00359712,0,83)" d="M26971.7 12536.4C26971.7 12591.8 26933 12636.1 26869.2 12636.1 26794.4 12636.1 26719.6 12564.1 26719.6 12489.3 26719.6 12436.6 26758.4 12389.5 26824.9 12389.5 26888.6 12389.5 26971.7 12453.3 26971.7 12536.4ZM26761.2 11494.8C26794.4 11575.1 26794.4 11580.7 26822.1 11655.5 26844.3 11710.8 26858.2 11749.6 26858.2 11802.3 26858.2 11926.9 26769.5 12029.4 26631 12029.4 26370.6 12029.4 26265.3 11627.8 26265.3 11602.8 26265.3 11575.1 26293 11575.1 26298.6 11575.1 26326.3 11575.1 26329 11580.7 26342.9 11625 26417.7 11885.4 26528.5 11968.5 26622.7 11968.5 26644.8 11968.5 26691.9 11968.5 26691.9 11879.8 26691.9 11821.7 26672.5 11763.5 26661.5 11735.8 26639.3 11663.8 26514.7 11342.4 26470.3 11223.3 26442.6 11151.3 26406.6 11059.9 26406.6 11001.7 26406.6 10871.5 26500.8 10774.5 26633.8 10774.5 26894.2 10774.5 26996.7 11176.2 26996.7 11201.1 26996.7 11228.8 26971.7 11228.8 26963.4 11228.8 26935.7 11228.8 26935.7 11220.5 26921.9 11179 26872 11004.5 26780.6 10835.5 26639.3 10835.5 26592.2 10835.5 26572.8 10863.2 26572.8 10926.9 26572.8 10996.1 26589.5 11034.9 26653.2 11203.9L26761.2 11494.8"/>
<path transform="matrix(.00359712,0,0,-.00359712,0,83)" d="M28776.8 13723.4C28779.5 13740 28785.1 13753.8 28785.1 13773.2 28785.1 13820.3 28751.8 13848 28704.7 13848 28677 13848 28602.2 13828.6 28591.2 13728.9 28541.3 13831.4 28444.3 13903.4 28333.5 13903.4 28017.7 13903.4 27674.2 13515.6 27674.2 13116.7 27674.2 12842.4 27843.2 12679 28042.7 12679 28206.1 12679 28336.3 12809.2 28364 12839.7L28366.8 12836.9C28308.6 12590.4 28275.4 12476.8 28275.4 12471.2 28264.3 12446.3 28170.1 12172.1 27876.5 12172.1 27823.8 12172.1 27732.4 12174.8 27654.8 12199.8 27737.9 12224.7 27768.4 12296.7 27768.4 12343.8 27768.4 12388.1 27737.9 12440.8 27663.1 12440.8 27602.2 12440.8 27513.5 12390.9 27513.5 12280.1 27513.5 12166.5 27616 12111.1 27882 12111.1 28228.3 12111.1 28427.7 12327.2 28469.3 12493.4L28776.8 13723.4ZM28416.6 13033.6C28400 12961.6 28336.3 12892.3 28275.4 12839.7 28217.2 12789.8 28131.3 12739.9 28051 12739.9 27912.5 12739.9 27870.9 12884 27870.9 12994.8 27870.9 13127.8 27951.3 13454.7 28026 13595.9 28100.8 13731.7 28220 13842.5 28336.3 13842.5 28519.1 13842.5 28557.9 13618.1 28557.9 13604.3 28557.9 13590.4 28552.4 13573.8 28549.6 13562.7L28416.6 13033.6"/>
<path transform="matrix(.00359712,0,0,-.00359712,0,83)" stroke-width="110.783" stroke-linecap="butt" stroke-miterlimit="10" stroke-linejoin="miter" fill="none" stroke="#000000" d="M27471.7 11497.8H28892"/>
<path transform="matrix(.00359712,0,0,-.00359712,0,83)" d="M27840.8 9118.3 28134.5 9403.64C28566.6 9785.92 28732.8 9935.52 28732.8 10212.5 28732.8 10528.3 28483.5 10749.9 28145.5 10749.9 27832.5 10749.9 27627.5 10495.1 27627.5 10248.5 27627.5 10093.4 27766 10093.4 27774.3 10093.4 27821.4 10093.4 27918.4 10126.7 27918.4 10240.2 27918.4 10312.3 27868.5 10384.3 27771.6 10384.3 27749.4 10384.3 27743.9 10384.3 27735.5 10381.5 27799.3 10561.6 27948.8 10664.1 28109.5 10664.1 28361.6 10664.1 28480.7 10439.7 28480.7 10212.5 28480.7 9990.91 28342.2 9772.06 28189.9 9600.31L27658 9007.5C27627.5 8977.03 27627.5 8971.48 27627.5 8905H28655.3L28732.8 9387.02H28663.6C28649.7 9303.91 28630.3 9182.02 28602.6 9140.47 28583.2 9118.3 28400.4 9118.3 28339.5 9118.3H27840.8"/>
<path transform="matrix(.00359712,0,0,-.00359712,0,83)" d="M30342.8 12842.4C30334.5 12800.9 30317.8 12737.2 30317.8 12723.3 30317.8 12673.5 30356.6 12648.5 30398.2 12648.5 30431.4 12648.5 30481.3 12670.7 30500.7 12726.1 30503.5 12731.6 30536.7 12861.8 30553.3 12931.1L30614.3 13180.4C30630.9 13241.3 30647.5 13302.3 30661.3 13366 30672.4 13413.1 30694.6 13493.4 30697.4 13504.5 30738.9 13590.4 30885.7 13842.5 31148.9 13842.5 31273.6 13842.5 31298.5 13740 31298.5 13648.6 31298.5 13579.3 31279.1 13501.8 31256.9 13418.6L31179.4 13097.3 31124 12886.8C31112.9 12831.4 31088 12737.2 31088 12723.3 31088 12673.5 31126.7 12648.5 31168.3 12648.5 31254.2 12648.5 31270.8 12717.8 31293 12806.4 31331.7 12961.6 31434.2 13366 31459.2 13474 31467.5 13510.1 31614.3 13842.5 31916.3 13842.5 32035.4 13842.5 32065.8 13748.3 32065.8 13648.6 32065.8 13490.7 31949.5 13174.9 31894.1 13028 31869.2 12961.6 31858.1 12931.1 31858.1 12875.7 31858.1 12745.5 31955 12648.5 32085.2 12648.5 32345.6 12648.5 32448.1 13053 32448.1 13075.1 32448.1 13102.8 32423.2 13102.8 32414.9 13102.8 32387.2 13102.8 32387.2 13094.5 32373.3 13053 32331.8 12906.2 32243.1 12709.5 32090.8 12709.5 32043.7 12709.5 32024.3 12737.2 32024.3 12800.9 32024.3 12870.1 32049.2 12936.6 32074.1 12997.6 32126.8 13141.6 32243.1 13449.1 32243.1 13607 32243.1 13787.1 32132.3 13903.4 31924.5 13903.4 31716.8 13903.4 31575.5 13781.5 31473 13634.7 31470.3 13670.7 31461.9 13764.9 31384.4 13831.4 31315.1 13889.6 31226.5 13903.4 31157.2 13903.4 30907.9 13903.4 30772.2 13726.1 30725.1 13662.4 30711.2 13820.3 30594.9 13903.4 30470.2 13903.4 30342.8 13903.4 30290.1 13795.4 30265.2 13745.5 30215.3 13648.6 30179.3 13485.1 30179.3 13476.8 30179.3 13449.1 30207 13449.1 30212.6 13449.1 30240.3 13449.1 30243 13451.9 30259.7 13512.8 30306.8 13709.5 30362.2 13842.5 30461.9 13842.5 30506.2 13842.5 30547.8 13820.3 30547.8 13715 30547.8 13656.9 30539.5 13626.4 30503.5 13482.4L30342.8 12842.4"/>
<path transform="matrix(.00359712,0,0,-.00359712,0,83)" d="M33319 13028.8H33509C33547.8 13028.8 33573 13028.8 33573 13071.4 33573 13098.6 33547.8 13098.6 33512.9 13098.6H33332.6C33377.2 13344.8 33392.7 13434 33408.2 13490.2 33417.9 13532.8 33460.6 13573.6 33507.1 13573.6 33509 13573.6 33561.4 13573.6 33598.2 13550.3 33518.7 13525.1 33512.9 13455.3 33512.9 13443.7 33512.9 13401 33545.9 13371.9 33590.5 13371.9 33642.8 13371.9 33701 13416.5 33701 13490.2 33701 13579.4 33606 13627.8 33507.1 13627.8 33421.8 13627.8 33326.8 13579.4 33274.5 13482.4 33235.7 13410.7 33220.2 13323.5 33179.5 13098.6H33026.3C32987.5 13098.6 32962.3 13098.6 32962.3 13055.9 32962.3 13028.8 32987.5 13028.8 33022.4 13028.8H33165.9C33164 13017.2 33041.8 12319.2 32995.3 12111.8 32985.6 12069.1 32952.6 11921.8 32859.6 11921.8 32857.6 11921.8 32811.1 11921.8 32774.3 11945 32853.8 11970.3 32859.6 12040 32859.6 12051.7 32859.6 12094.3 32826.6 12123.4 32782 12123.4 32729.7 12123.4 32671.5 12078.8 32671.5 12005.2 32671.5 11917.9 32762.6 11867.5 32859.6 11867.5 32983.7 11867.5 33069 11995.5 33092.2 12038.1 33162 12168 33206.6 12406.5 33210.5 12429.7L33319 13028.8"/>
<path transform="matrix(.00359712,0,0,-.00359712,0,83)" stroke-width="110.783" stroke-linecap="butt" stroke-miterlimit="10" stroke-linejoin="miter" fill="none" stroke="#000000" d="M29556.7 11497.8H34508.1"/>
<path transform="matrix(.00359712,0,0,-.00359712,0,83)" d="M29800.8 9068.44C29792.5 9026.89 29775.8 8963.17 29775.8 8949.33 29775.8 8899.45 29814.6 8874.53 29856.2 8874.53 29889.4 8874.53 29939.3 8896.69 29958.7 8952.09 29961.5 8957.64 29994.7 9087.83 30011.3 9157.09L30072.3 9406.41C30088.9 9467.34 30105.5 9528.3 30119.3 9592 30130.4 9639.09 30152.6 9719.44 30155.4 9730.52 30196.9 9816.39 30343.7 10068.5 30606.9 10068.5 30731.6 10068.5 30756.5 9965.98 30756.5 9874.56 30756.5 9805.31 30737.1 9727.75 30714.9 9644.64L30637.4 9323.3 30582 9112.77C30570.9 9057.36 30546 8963.17 30546 8949.33 30546 8899.45 30584.7 8874.53 30626.3 8874.53 30712.2 8874.53 30728.8 8943.78 30751 9032.42 30789.7 9187.56 30892.2 9592 30917.2 9700.05 30925.5 9736.06 31072.3 10068.5 31374.3 10068.5 31493.4 10068.5 31523.8 9974.3 31523.8 9874.56 31523.8 9716.67 31407.5 9400.86 31352.1 9254.05 31327.2 9187.56 31316.1 9157.09 31316.1 9101.69 31316.1 8971.48 31413 8874.53 31543.2 8874.53 31803.6 8874.53 31906.1 9278.97 31906.1 9301.14 31906.1 9328.84 31881.2 9328.84 31872.9 9328.84 31845.2 9328.84 31845.2 9320.53 31831.3 9278.97 31789.8 9132.16 31701.1 8935.47 31548.8 8935.47 31501.7 8935.47 31482.3 8963.17 31482.3 9026.89 31482.3 9096.14 31507.2 9162.63 31532.1 9223.58 31584.8 9367.63 31701.1 9675.11 31701.1 9833.02 31701.1 10013.1 31590.3 10129.4 31382.5 10129.4 31174.8 10129.4 31033.5 10007.5 30931 9860.72 30928.3 9896.73 30919.9 9990.91 30842.4 10057.4 30773.1 10115.6 30684.5 10129.4 30615.2 10129.4 30365.9 10129.4 30230.2 9952.13 30183.1 9888.42 30169.2 10046.3 30052.9 10129.4 29928.2 10129.4 29800.8 10129.4 29748.1 10021.4 29723.2 9971.52 29673.3 9874.56 29637.3 9711.13 29637.3 9702.81 29637.3 9675.11 29665 9675.11 29670.6 9675.11 29698.3 9675.11 29701 9677.88 29717.7 9738.83 29764.8 9935.52 29820.2 10068.5 29919.9 10068.5 29964.2 10068.5 30005.8 10046.3 30005.8 9941.05 30005.8 9882.88 29997.5 9852.41 29961.5 9708.36L29800.8 9068.44"/>
<path transform="matrix(.00359712,0,0,-.00359712,0,83)" d="M33997.5 9585.36 34032.4 9635.77C34073.1 9688.11 34119.6 9736.58 34214.6 9744.34 34236 9746.28 34259.2 9748.22 34259.2 9786.98 34259.2 9800.56 34247.6 9814.13 34232.1 9814.13 34187.5 9814.13 34131.3 9806.38 34084.7 9806.38 34016.9 9806.38 33933.5 9814.13 33869.5 9814.13 33859.8 9814.13 33828.8 9814.13 33828.8 9771.48 33828.8 9746.28 33856 9744.34 33863.7 9744.34 33906.4 9742.41 33970.4 9730.77 33970.4 9676.48 33970.4 9655.16 33949 9620.27 33941.3 9606.69L33394.6 8709.08 33287.9 9688.11C33287.9 9742.41 33400.4 9744.34 33423.6 9744.34 33448.8 9744.34 33476 9744.34 33476 9786.98 33476 9788.92 33474 9814.13 33443 9814.13 33406.2 9814.13 33359.7 9810.25 33322.8 9808.31 33284 9806.38 33233.6 9806.38 33194.9 9806.38 33150.3 9806.38 33035.9 9814.13 32991.3 9814.13 32981.6 9814.13 32952.5 9814.13 32952.5 9771.48 32952.5 9744.34 32977.7 9744.34 33002.9 9744.34 33086.3 9744.34 33096 9730.77 33101.8 9711.38 33103.8 9699.75 33107.6 9645.47 33115.4 9585.36L32582.3 8709.08 32479.5 9659.03C32479.5 9666.8 32475.6 9686.17 32475.6 9688.11 32475.6 9744.34 32595.8 9744.34 32611.3 9744.34 32636.5 9744.34 32663.7 9744.34 32663.7 9786.98 32663.7 9794.75 32657.9 9814.13 32632.7 9814.13 32576.4 9814.13 32438.8 9806.38 32382.6 9806.38 32318.6 9806.38 32237.2 9814.13 32179 9814.13 32159.6 9814.13 32140.2 9806.38 32140.2 9773.42 32140.2 9744.34 32163.5 9744.34 32194.5 9744.34 32285.6 9744.34 32285.6 9732.7 32291.4 9684.23L32421.3 8503.58C32425.2 8464.8 32427.1 8451.22 32462 8451.22 32495 8451.22 32508.6 8468.67 32520.2 8490L33125.1 9486.48 33231.7 8501.63C33235.6 8460.92 33245.3 8451.22 33274.4 8451.22 33307.3 8451.22 33319 8468.67 33332.5 8491.94L33997.5 9585.36"/>
<path transform="matrix(.00359712,0,0,-.00359712,0,83)" d="M35372.9 10951.8C35372.9 11032.2 35306.4 11098.6 35226.1 11098.6 35145.7 11098.6 35079.2 11032.2 35079.2 10951.8 35079.2 10871.5 35145.7 10805 35226.1 10805 35306.4 10805 35372.9 10871.5 35372.9 10951.8"/>
</svg>
