<svg xmlns="http://www.w3.org/2000/svg" xmlns:xlink="http://www.w3.org/1999/xlink" version="1.1" width="289pt" height="74pt" viewBox="0 0 289 74">
<path transform="matrix(.00359712,0,0,-.00359712,0,74)" d="M21785.2 1836.53V1922.41H20785.1V1836.53H21785.2"/>
<path transform="matrix(.00359712,0,0,-.00359712,0,74)" d="M21630 1340.67C21585.7 1340.67 21546.9 1340.67 21508.1 1301.89 21463.8 1260.33 21458.3 1213.25 21458.3 1193.84 21458.3 1127.36 21508.1 1096.89 21560.7 1096.89 21641.1 1096.89 21715.9 1163.38 21715.9 1274.19 21715.9 1409.92 21585.7 1512.42 21389 1512.42 21015 1512.42 20646.6 1116.28 20646.6 725.688 20646.6 476.375 20807.3 257.531 21095.3 257.531 21491.5 257.531 21724.2 551.172 21724.2 584.406 21724.2 601.031 21707.6 620.422 21690.9 620.422 21677.1 620.422 21671.5 614.875 21654.9 592.719 21436.1 318.469 21134.1 318.469 21100.9 318.469 20926.4 318.469 20851.6 454.219 20851.6 620.422 20851.6 734 20907 1002.7 21001.2 1174.45 21087 1332.36 21239.4 1451.48 21391.8 1451.48 21485.9 1451.48 21591.2 1415.47 21630 1340.67"/>
<path transform="matrix(.00359712,0,0,-.00359712,0,74)" d="M22645.1 1909.5H23234.5C23265.5 1909.5 23312 1909.5 23312 1956.03 23312 2004.5 23267.5 2004.5 23234.5 2004.5H22645.1V2588.05C22645.1 2622.95 22645.1 2671.42 22596.7 2671.42 22550.1 2671.42 22550.1 2626.83 22550.1 2597.75V2004.5H21958.8C21925.9 2004.5 21881.3 2004.5 21881.3 1956.03 21881.3 1909.5 21927.8 1909.5 21958.8 1909.5H22550.1V1337.59H21958.8C21925.9 1337.59 21881.3 1337.59 21881.3 1289.13 21881.3 1242.59 21927.8 1242.59 21958.8 1242.59H23234.5C23265.5 1242.59 23312 1242.59 23312 1289.13 23312 1337.59 23267.5 1337.59 23234.5 1337.59H22645.1V1909.5"/>
<path transform="matrix(.00359712,0,0,-.00359712,0,74)" d="M10544.9 18889.6C10434.1 18704 10326 18665.2 10204.1 18656.9 10170.9 18654.1 10146 18654.1 10146 18601.5 10146 18584.8 10159.8 18571 10182 18571 10256.8 18571 10342.6 18579.3 10420.2 18579.3 10511.6 18579.3 10608.6 18571 10697.2 18571 10713.8 18571 10749.9 18571 10749.9 18623.6 10749.9 18654.1 10724.9 18656.9 10705.5 18656.9 10641.8 18662.4 10575.3 18684.6 10575.3 18753.8 10575.3 18787.1 10592 18817.5 10614.1 18856.3L10824.7 19210.9H11520C11525.5 19152.7 11564.3 18776 11564.3 18748.3 11564.3 18665.2 11420.3 18656.9 11364.8 18656.9 11326.1 18656.9 11298.4 18656.9 11298.4 18601.5 11298.4 18571 11331.6 18571 11337.1 18571 11450.7 18571 11569.8 18579.3 11683.4 18579.3 11752.7 18579.3 11927.2 18571 11996.4 18571 12013.1 18571 12046.3 18571 12046.3 18626.4 12046.3 18656.9 12018.6 18656.9 11982.6 18656.9 11810.8 18656.9 11810.8 18676.3 11802.5 18756.6L11633.5 20488C11628 20543.4 11628 20554.5 11580.9 20554.5 11536.6 20554.5 11525.5 20535.1 11508.9 20507.4L10544.9 18889.6ZM10877.3 19296.8 11423 20211 11511.7 19296.8H10877.3Z"/>
<path transform="matrix(.00359712,0,0,-.00359712,0,74)" d="M12230.7 17843.9C12222.9 17814.8 12222.9 17805.1 12222.9 17803.2 12222.9 17760.5 12257.8 17741.1 12288.8 17741.1 12358.6 17741.1 12374.2 17805.1 12381.9 17838 12385.8 17847.8 12424.6 18002.8 12471.1 18192.8 12531.2 18152.1 12608.7 18136.6 12678.5 18136.6 12845.3 18136.6 12953.8 18272.3 12957.7 18276.2 12994.5 18142.4 13128.3 18136.6 13157.4 18136.6 13227.2 18136.6 13275.7 18179.3 13310.5 18239.4 13353.2 18315 13378.4 18425.5 13378.4 18433.2 13378.4 18458.4 13353.2 18458.4 13347.4 18458.4 13320.2 18458.4 13318.3 18450.7 13304.7 18398.3 13281.5 18305.3 13244.6 18190.9 13163.2 18190.9 13112.8 18190.9 13099.2 18233.5 13099.2 18285.9 13099.2 18318.8 13114.7 18388.6 13128.3 18439 13141.9 18491.4 13161.3 18570.9 13171 18613.5L13215.5 18786.1C13227.2 18834.5 13248.5 18919.8 13248.5 18929.5 13248.5 18968.3 13217.5 18991.6 13184.5 18991.6 13163.2 18991.6 13126.4 18981.9 13105 18945 13099.2 18933.4 13083.7 18871.4 13074 18832.6L13033.3 18671.7 12973.2 18429.4C12959.6 18380.9 12959.6 18377 12942.2 18351.8 12882.1 18266.5 12796.8 18190.9 12686.3 18190.9 12527.3 18190.9 12527.3 18328.5 12527.3 18363.4 12527.3 18413.8 12533.1 18439 12560.3 18543.7 12579.7 18629 12583.5 18642.6 12602.9 18718.2L12630.1 18826.8C12639.8 18867.5 12659.1 18941.2 12659.1 18948.9 12659.1 18983.8 12632 19011 12593.2 19011 12523.4 19011 12506 18943.1 12500.2 18919.8L12230.7 17843.9"/>
<path transform="matrix(.00359712,0,0,-.00359712,0,74)" d="M1156 1340.67C1111.67 1340.67 1072.89 1340.67 1034.11 1301.89 989.781 1260.33 984.25 1213.25 984.25 1193.84 984.25 1127.36 1034.11 1096.89 1086.73 1096.89 1167.08 1096.89 1241.88 1163.38 1241.88 1274.19 1241.88 1409.92 1111.67 1512.42 914.984 1512.42 541.016 1512.42 172.578 1116.28 172.578 725.688 172.578 476.375 333.25 257.531 621.344 257.531 1017.48 257.531 1250.19 551.172 1250.19 584.406 1250.19 601.031 1233.56 620.422 1216.94 620.422 1203.09 620.422 1197.55 614.875 1180.92 592.719 962.078 318.469 660.125 318.469 626.891 318.469 452.359 318.469 377.578 454.219 377.578 620.422 377.578 734 432.969 1002.7 527.156 1174.45 613.031 1332.36 765.391 1451.48 917.766 1451.48 1011.94 1451.48 1117.22 1415.47 1156 1340.67"/>
<path transform="matrix(.00359712,0,0,-.00359712,0,74)" d="M2171.13 1909.5H2760.5C2791.52 1909.5 2838.05 1909.5 2838.05 1956.03 2838.05 2004.5 2793.45 2004.5 2760.5 2004.5H2171.13V2588.05C2171.13 2622.95 2171.13 2671.42 2122.66 2671.42 2076.13 2671.42 2076.13 2626.83 2076.13 2597.75V2004.5H1484.83C1451.88 2004.5 1407.28 2004.5 1407.28 1956.03 1407.28 1909.5 1453.81 1909.5 1484.83 1909.5H2076.13V1337.59H1484.83C1451.88 1337.59 1407.28 1337.59 1407.28 1289.13 1407.28 1242.59 1453.81 1242.59 1484.83 1242.59H2760.5C2791.52 1242.59 2838.05 1242.59 2838.05 1289.13 2838.05 1337.59 2793.45 1337.59 2760.5 1337.59H2171.13V1909.5"/>
<path transform="matrix(.00359712,0,0,-.00359712,0,74)" stroke-width="221.569" stroke-linecap="butt" stroke-dasharray="221.569,553.929" stroke-miterlimit="10" stroke-linejoin="miter" fill="none" stroke="#000000" d="M19554.7 2840.79 11830.3 7300.56"/>
<path transform="matrix(.00359712,0,0,-.00359712,0,74)" stroke-width="110.783" stroke-linecap="butt" stroke-miterlimit="10" stroke-linejoin="miter" fill="none" stroke="#000000" d="M11853.7 4584.27 7184.15 1888.25"/>
<path transform="matrix(.00359712,0,0,-.00359712,0,74)" d="M6583.13 1541.25 7629.95 1713.64 7160.17 1874.4 7255.85 2361.61Z"/>
<path transform="matrix(.00359712,0,0,-.00359712,0,74)" stroke-width="110.78" stroke-linecap="butt" stroke-miterlimit="10" stroke-linejoin="miter" fill="none" stroke="#000000" d="M6583.13 1541.25 7629.95 1713.64 7160.17 1874.4 7255.85 2361.61Z"/>
<path transform="matrix(.00359712,0,0,-.00359712,0,74)" d="M10197.7 570.031C10175.5 475.844 10170 456.453 10048.1 456.453 10014.8 456.453 9984.36 456.453 9984.36 403.828 9984.36 381.672 9998.2 370.578 10020.4 370.578 10095.2 370.578 10175.5 378.891 10253.1 378.891 10344.5 378.891 10438.7 370.578 10527.3 370.578 10541.2 370.578 10577.2 370.578 10577.2 425.984 10577.2 456.453 10549.5 456.453 10510.7 456.453 10372.2 456.453 10372.2 475.844 10372.2 500.781 10372.2 534.031 10488.5 985.563 10507.9 1054.81 10543.9 974.484 10621.5 877.531 10762.8 877.531 11084.1 877.531 11430.4 1281.97 11430.4 1689.19 11430.4 1949.59 11272.5 2132.42 11062 2132.42 10923.5 2132.42 10790.5 2032.7 10699.1 1924.66 10671.4 2074.25 10552.3 2132.42 10449.8 2132.42 10322.3 2132.42 10269.7 2024.39 10244.8 1974.52 10194.9 1880.33 10158.9 1714.13 10158.9 1705.81 10158.9 1678.11 10186.6 1678.11 10192.1 1678.11 10219.8 1678.11 10222.6 1680.88 10239.2 1741.83 10286.3 1938.52 10341.7 2071.48 10441.4 2071.48 10488.5 2071.48 10527.3 2049.31 10527.3 1944.05 10527.3 1880.33 10519 1849.86 10507.9 1802.77L10197.7 570.031ZM10685.2 1772.3C10704.6 1847.09 10779.4 1924.66 10829.3 1966.22 10926.2 2052.09 11006.5 2071.48 11053.6 2071.48 11164.5 2071.48 11230.9 1974.52 11230.9 1811.08 11230.9 1647.64 11139.5 1329.06 11089.7 1223.8 10995.5 1029.89 10862.5 938.469 10760 938.469 10577.2 938.469 10541.2 1168.39 10541.2 1185.02 10541.2 1190.56 10541.2 1196.09 10549.5 1229.34L10685.2 1772.3"/>
<path transform="matrix(.00359712,0,0,-.00359712,0,74)" stroke-width="221.569" stroke-linecap="butt" stroke-dasharray="221.569,553.929" stroke-miterlimit="10" stroke-linejoin="miter" fill="none" stroke="#000000" d="M11830.3 7300.56 4105.87 2840.79"/>
<path transform="matrix(.00359712,0,0,-.00359712,0,74)" stroke-width="110.783" stroke-linecap="butt" stroke-miterlimit="10" stroke-linejoin="miter" fill="none" stroke="#000000" d="M11830.3 7300.56V7432.41L11657.2 7564.27 11530.5 7696.13 11484.1 7827.98 11530.5 7959.84 11657.2 8091.7 11830.3 8223.55 12003.4 8355.4 12130.1 8487.26 12176.5 8619.12 12130.1 8750.97 12003.4 8882.83 11830.3 9014.68 11657.2 9146.54 11530.5 9278.39 11484.1 9410.25 11530.5 9542.11 11657.2 9673.96 11830.3 9805.82 12003.4 9937.67 12130.1 10069.5 12176.5 10201.4 12130.1 10333.2 12003.4 10465.1 11830.3 10597 11657.2 10728.8 11530.5 10860.7 11484.1 10992.5 11530.5 11124.4 11657.2 11256.2 11830.3 11388.1 12003.4 11519.9 12130.1 11651.8 12176.5 11783.7 12130.1 11915.5 12003.4 12047.4 11830.3 12179.2 11657.2 12311.1 11530.5 12442.9 11484.1 12574.8 11530.5 12706.6 11657.2 12838.5 11830.3 12970.4 12003.4 13102.2 12130.1 13234.1 12176.5 13365.9 12130.1 13497.8 12003.4 13629.6 11830.3 13761.5 11657.2 13893.3 11530.5 14025.2 11484.1 14157.1 11530.5 14288.9 11657.2 14420.8 11830.3 14552.6 12003.4 14684.5 12130.1 14816.3 12176.5 14948.2 12130.1 15080.1 12003.4 15211.9 11830.3 15343.8 11657.2 15475.6 11530.5 15607.5 11484.1 15739.3 11530.5 15871.2 11657.2 16003 11830.3 16134.9 12003.4 16266.8 12130.1 16398.6 12176.5 16530.5 11830.3 16800.2"/>
<path transform="matrix(.00359712,0,0,-.00359712,0,74)" d="M13906 9331.67C13861.7 9331.67 13822.9 9331.67 13784.1 9292.89 13739.8 9251.33 13734.3 9204.25 13734.3 9184.84 13734.3 9118.36 13784.1 9087.89 13836.7 9087.89 13917.1 9087.89 13991.9 9154.38 13991.9 9265.19 13991.9 9400.92 13861.7 9503.42 13665 9503.42 13291 9503.42 12922.6 9107.28 12922.6 8716.69 12922.6 8467.38 13083.3 8248.53 13371.3 8248.53 13767.5 8248.53 14000.2 8542.17 14000.2 8575.41 14000.2 8592.03 13983.6 8611.42 13966.9 8611.42 13953.1 8611.42 13947.5 8605.88 13930.9 8583.72 13712.1 8309.47 13410.1 8309.47 13376.9 8309.47 13202.4 8309.47 13127.6 8445.22 13127.6 8611.42 13127.6 8725 13183 8993.7 13277.2 9165.45 13363 9323.36 13515.4 9442.48 13667.8 9442.48 13761.9 9442.48 13867.2 9406.47 13906 9331.67"/>
<path transform="matrix(.00359712,0,0,-.00359712,0,74)" d="M14921.1 9900.5H15510.5C15541.5 9900.5 15588 9900.5 15588 9947.03 15588 9995.5 15543.5 9995.5 15510.5 9995.5H14921.1V10579C14921.1 10614 14921.1 10662.4 14872.7 10662.4 14826.1 10662.4 14826.1 10617.8 14826.1 10588.8V9995.5H14234.8C14201.9 9995.5 14157.3 9995.5 14157.3 9947.03 14157.3 9900.5 14203.8 9900.5 14234.8 9900.5H14826.1V9328.59H14234.8C14201.9 9328.59 14157.3 9328.59 14157.3 9280.13 14157.3 9233.59 14203.8 9233.59 14234.8 9233.59H15510.5C15541.5 9233.59 15588 9233.59 15588 9280.13 15588 9328.59 15543.5 9328.59 15510.5 9328.59H14921.1V9900.5"/>
<path transform="matrix(.00359712,0,0,-.00359712,0,74)" d="M9036.19 9827.53V9913.41H8036.14V9827.53H9036.19"/>
<path transform="matrix(.00359712,0,0,-.00359712,0,74)" d="M8881 9331.67C8836.67 9331.67 8797.89 9331.67 8759.11 9292.89 8714.78 9251.33 8709.25 9204.25 8709.25 9184.84 8709.25 9118.36 8759.11 9087.89 8811.73 9087.89 8892.08 9087.89 8966.88 9154.38 8966.88 9265.19 8966.88 9400.92 8836.67 9503.42 8639.98 9503.42 8266.02 9503.42 7897.58 9107.28 7897.58 8716.69 7897.58 8467.38 8058.25 8248.53 8346.34 8248.53 8742.48 8248.53 8975.19 8542.17 8975.19 8575.41 8975.19 8592.03 8958.56 8611.42 8941.94 8611.42 8928.09 8611.42 8922.55 8605.88 8905.92 8583.72 8687.08 8309.47 8385.13 8309.47 8351.89 8309.47 8177.36 8309.47 8102.58 8445.22 8102.58 8611.42 8102.58 8725 8157.97 8993.7 8252.16 9165.45 8338.03 9323.36 8490.39 9442.48 8642.77 9442.48 8736.94 9442.48 8842.22 9406.47 8881 9331.67"/>
<path transform="matrix(.00359712,0,0,-.00359712,0,74)" d="M9895.13 9900.5H10484.5C10515.5 9900.5 10562 9900.5 10562 9947.03 10562 9995.5 10517.5 9995.5 10484.5 9995.5H9895.13V10579C9895.13 10614 9895.13 10662.4 9846.66 10662.4 9800.13 10662.4 9800.13 10617.8 9800.13 10588.8V9995.5H9208.83C9175.88 9995.5 9131.28 9995.5 9131.28 9947.03 9131.28 9900.5 9177.81 9900.5 9208.83 9900.5H9800.13V9328.59H9208.83C9175.88 9328.59 9131.28 9328.59 9131.28 9280.13 9131.28 9233.59 9177.81 9233.59 9208.83 9233.59H10484.5C10515.5 9233.59 10562 9233.59 10562 9280.13 10562 9328.59 10517.5 9328.59 10484.5 9328.59H9895.13V9900.5"/>
<path transform="matrix(.00359712,0,0,-.00359712,0,74)" d="M27197.1 10588.8C27238.7 10588.8 27291.3 10588.8 27291.3 10644.3 27291.3 10699.7 27238.7 10699.7 27199.9 10699.7H25540.5C25501.8 10699.7 25449.1 10699.7 25449.1 10644.3 25449.1 10588.8 25501.8 10588.8 25543.3 10588.8H27197.1ZM27199.9 10051.4C27238.7 10051.4 27291.3 10051.4 27291.3 10106.8 27291.3 10162.3 27238.7 10162.3 27197.1 10162.3H25543.3C25501.8 10162.3 25449.1 10162.3 25449.1 10106.8 25449.1 10051.4 25501.8 10051.4 25540.5 10051.4H27199.9"/>
<path transform="matrix(.00359712,0,0,-.00359712,0,74)" d="M29350 10090.2H30120.1C30167.2 10090.2 30217.1 10090.2 30217.1 10145.6 30217.1 10201 30167.2 10201 30120.1 10201H29350V10957.3H30120.1C30167.2 10957.3 30217.1 10957.3 30217.1 11012.7 30217.1 11068.1 30167.2 11068.1 30120.1 11068.1H28466.3C28419.2 11068.1 28369.4 11068.1 28369.4 11012.7 28369.4 10957.3 28419.2 10957.3 28466.3 10957.3H29239.2V10201H28466.3C28419.2 10201 28369.4 10201 28369.4 10145.6 28369.4 10090.2 28419.2 10090.2 28466.3 10090.2H29239.2V9317.33C29239.2 9273.02 29239.2 9223.16 29294.6 9223.16 29350 9223.16 29350 9284.09 29350 9325.64V10090.2"/>
<path transform="matrix(.00359712,0,0,-.00359712,0,74)" d="M31157.7 11414.4C31157.7 11469.8 31119 11514.1 31055.2 11514.1 30980.4 11514.1 30905.6 11442.1 30905.6 11367.3 30905.6 11314.6 30944.4 11267.5 31010.9 11267.5 31074.6 11267.5 31157.7 11331.3 31157.7 11414.4ZM30947.2 10372.8C30980.4 10453.1 30980.4 10458.7 31008.1 10533.5 31030.3 10588.8 31044.2 10627.6 31044.2 10680.3 31044.2 10804.9 30955.5 10907.4 30817 10907.4 30556.6 10907.4 30451.3 10505.8 30451.3 10480.8 30451.3 10453.1 30479 10453.1 30484.6 10453.1 30512.3 10453.1 30515 10458.7 30528.9 10503 30603.7 10763.4 30714.5 10846.5 30808.7 10846.5 30830.8 10846.5 30877.9 10846.5 30877.9 10757.8 30877.9 10699.7 30858.5 10641.5 30847.5 10613.8 30825.3 10541.8 30700.7 10220.4 30656.3 10101.3 30628.6 10029.3 30592.6 9937.86 30592.6 9879.69 30592.6 9749.48 30686.8 9652.53 30819.8 9652.53 31080.2 9652.53 31182.7 10054.2 31182.7 10079.1 31182.7 10106.8 31157.7 10106.8 31149.4 10106.8 31121.7 10106.8 31121.7 10098.5 31107.9 10057 31058 9882.45 30966.6 9713.47 30825.3 9713.47 30778.2 9713.47 30758.8 9741.17 30758.8 9804.89 30758.8 9874.14 30775.5 9912.92 30839.2 10081.9L30947.2 10372.8"/>
<path transform="matrix(.00359712,0,0,-.00359712,0,74)" d="M31842 10322.9C31922.4 10322.9 32127.4 10328.5 32265.9 10386.6 32459.8 10469.7 32473.6 10633.2 32473.6 10672 32473.6 10793.8 32368.4 10907.4 32177.2 10907.4 31869.7 10907.4 31451.4 10638.7 31451.4 10153.9 31451.4 9871.38 31614.9 9652.53 31886.3 9652.53 32282.5 9652.53 32515.2 9946.17 32515.2 9979.41 32515.2 9996.03 32498.6 10015.4 32481.9 10015.4 32468.1 10015.4 32462.5 10009.9 32445.9 9987.72 32227.1 9713.47 31925.1 9713.47 31891.9 9713.47 31675.8 9713.47 31650.9 9946.17 31650.9 10034.8 31650.9 10068.1 31653.7 10153.9 31695.2 10322.9H31842ZM31711.8 10383.9C31819.9 10804.9 32105.2 10846.5 32177.2 10846.5 32307.4 10846.5 32382.2 10766.1 32382.2 10672 32382.2 10383.9 31939 10383.9 31825.4 10383.9H31711.8"/>
<path transform="matrix(.00359712,0,0,-.00359712,0,74)" d="M32736.7 9345.03C32714.5 9250.84 32709 9231.45 32587.1 9231.45 32553.8 9231.45 32523.4 9231.45 32523.4 9178.83 32523.4 9156.67 32537.2 9145.58 32559.4 9145.58 32634.2 9145.58 32714.5 9153.89 32792.1 9153.89 32883.5 9153.89 32977.7 9145.58 33066.3 9145.58 33080.2 9145.58 33116.2 9145.58 33116.2 9200.98 33116.2 9231.45 33088.5 9231.45 33049.7 9231.45 32911.2 9231.45 32911.2 9250.84 32911.2 9275.78 32911.2 9309.03 33027.5 9760.56 33046.9 9829.81 33082.9 9749.48 33160.5 9652.53 33301.8 9652.53 33623.1 9652.53 33969.4 10057 33969.4 10464.2 33969.4 10724.6 33811.5 10907.4 33601 10907.4 33462.5 10907.4 33329.5 10807.7 33238.1 10699.7 33210.4 10849.3 33091.3 10907.4 32988.8 10907.4 32861.3 10907.4 32808.7 10799.4 32783.8 10749.5 32733.9 10655.3 32697.9 10489.1 32697.9 10480.8 32697.9 10453.1 32725.6 10453.1 32731.1 10453.1 32758.8 10453.1 32761.6 10455.9 32778.2 10516.8 32825.3 10713.5 32880.7 10846.5 32980.4 10846.5 33027.5 10846.5 33066.3 10824.3 33066.3 10719 33066.3 10655.3 33058 10624.9 33046.9 10577.8L32736.7 9345.03ZM33224.2 10547.3C33243.6 10622.1 33318.4 10699.7 33368.3 10741.2 33465.2 10827.1 33545.5 10846.5 33592.6 10846.5 33703.5 10846.5 33769.9 10749.5 33769.9 10586.1 33769.9 10422.6 33678.5 10104.1 33628.7 9998.8 33534.5 9804.89 33401.5 9713.47 33299 9713.47 33116.2 9713.47 33080.2 9943.39 33080.2 9960.02 33080.2 9965.56 33080.2 9971.09 33088.5 10004.3L33224.2 10547.3"/>
<path transform="matrix(.00359712,0,0,-.00359712,0,74)" d="M34113.7 8955.88C34105.9 8926.78 34105.9 8917.09 34105.9 8915.16 34105.9 8872.5 34140.8 8853.13 34171.8 8853.13 34241.6 8853.13 34257.2 8917.09 34264.9 8950.05 34268.8 8959.75 34307.6 9114.84 34354.1 9304.83 34414.2 9264.13 34491.7 9248.61 34561.5 9248.61 34728.3 9248.61 34836.8 9384.33 34840.7 9388.2 34877.5 9254.42 35011.3 9248.61 35040.4 9248.61 35110.2 9248.61 35158.7 9291.27 35193.5 9351.36 35236.2 9426.97 35261.4 9537.48 35261.4 9545.23 35261.4 9570.44 35236.2 9570.44 35230.4 9570.44 35203.2 9570.44 35201.3 9562.69 35187.7 9510.34 35164.5 9417.28 35127.6 9302.89 35046.2 9302.89 34995.8 9302.89 34982.2 9345.55 34982.2 9397.89 34982.2 9430.84 34997.7 9500.64 35011.3 9551.05 35024.9 9603.39 35044.3 9682.88 35054 9725.53L35098.5 9898.08C35110.2 9946.55 35131.5 10031.8 35131.5 10041.5 35131.5 10080.3 35100.5 10103.6 35067.5 10103.6 35046.2 10103.6 35009.4 10093.9 34988 10057 34982.2 10045.4 34966.7 9983.38 34957 9944.61L34916.3 9783.69 34856.2 9541.36C34842.6 9492.89 34842.6 9489.02 34825.2 9463.81 34765.1 9378.5 34679.8 9302.89 34569.3 9302.89 34410.3 9302.89 34410.3 9440.55 34410.3 9475.44 34410.3 9525.84 34416.1 9551.05 34443.3 9655.73 34462.7 9741.05 34466.5 9754.61 34485.9 9830.22L34513.1 9938.8C34522.8 9979.5 34542.1 10053.2 34542.1 10060.9 34542.1 10095.8 34515 10123 34476.2 10123 34406.4 10123 34389 10055.1 34383.2 10031.8L34113.7 8955.88"/>
<path transform="matrix(.00359712,0,0,-.00359712,0,74)" d="M36056.3 9685.77C36056.3 9868.61 35987.1 9976.64 35879.1 9976.64 35787.6 9976.64 35732.2 9907.39 35732.2 9829.81 35732.2 9755.03 35787.6 9683 35879.1 9683 35912.3 9683 35948.3 9694.08 35976 9719.02 35984.3 9724.55 35987.1 9727.33 35989.9 9727.33 35992.6 9727.33 35995.4 9724.55 35995.4 9685.77 35995.4 9480.78 35898.5 9314.56 35807 9223.16 35776.6 9192.67 35776.6 9187.14 35776.6 9178.83 35776.6 9159.44 35790.4 9148.36 35804.3 9148.36 35834.7 9148.36 36056.3 9361.66 36056.3 9685.77"/>
<path transform="matrix(.00359712,0,0,-.00359712,0,74)" d="M63066.2 2026.53V2112.41H62066.1V2026.53H63066.2"/>
<path transform="matrix(.00359712,0,0,-.00359712,0,74)" d="M62911 1530.67C62866.7 1530.67 62827.9 1530.67 62789.1 1491.89 62744.8 1450.33 62739.3 1403.25 62739.3 1383.84 62739.3 1317.36 62789.1 1286.89 62841.7 1286.89 62922.1 1286.89 62996.9 1353.38 62996.9 1464.19 62996.9 1599.92 62866.7 1702.42 62670 1702.42 62296 1702.42 61927.6 1306.28 61927.6 915.688 61927.6 666.375 62088.3 447.531 62376.3 447.531 62772.5 447.531 63005.2 741.172 63005.2 774.406 63005.2 791.031 62988.6 810.422 62971.9 810.422 62958.1 810.422 62952.5 804.875 62935.9 782.719 62717.1 508.469 62415.1 508.469 62381.9 508.469 62207.4 508.469 62132.6 644.219 62132.6 810.422 62132.6 924 62188 1192.7 62282.2 1364.45 62368 1522.36 62520.4 1641.48 62672.8 1641.48 62766.9 1641.48 62872.2 1605.47 62911 1530.67"/>
<path transform="matrix(.00359712,0,0,-.00359712,0,74)" d="M63926.1 2099.5H64515.5C64546.5 2099.5 64593 2099.5 64593 2146.03 64593 2194.5 64548.5 2194.5 64515.5 2194.5H63926.1V2778.05C63926.1 2812.95 63926.1 2861.42 63877.7 2861.42 63831.1 2861.42 63831.1 2816.83 63831.1 2787.75V2194.5H63239.8C63206.9 2194.5 63162.3 2194.5 63162.3 2146.03 63162.3 2099.5 63208.8 2099.5 63239.8 2099.5H63831.1V1527.59H63239.8C63206.9 1527.59 63162.3 1527.59 63162.3 1479.13 63162.3 1432.59 63208.8 1432.59 63239.8 1432.59H64515.5C64546.5 1432.59 64593 1432.59 64593 1479.13 64593 1527.59 64548.5 1527.59 64515.5 1527.59H63926.1V2099.5"/>
<path transform="matrix(.00359712,0,0,-.00359712,0,74)" d="M53109 20242C53109 20244.8 53109 20272.5 53073 20272.5 53009.3 20272.5 52807.1 20250.3 52735.1 20244.8 52712.9 20242 52682.4 20239.3 52682.4 20189.4 52682.4 20156.2 52707.4 20156.2 52748.9 20156.2 52881.9 20156.2 52887.4 20136.8 52887.4 20109.1L52879.1 20053.7 52477.4 18458C52466.4 18419.3 52466.4 18413.7 52466.4 18397.1 52466.4 18333.4 52521.8 18319.5 52546.7 18319.5 52591 18319.5 52635.3 18352.8 52649.2 18391.5L52701.8 18602.1 52762.8 18851.4C52779.4 18912.3 52796 18973.3 52809.9 19037 52815.4 19053.6 52837.6 19145 52840.3 19161.7 52848.6 19186.6 52934.5 19341.7 53028.7 19416.5 53089.7 19460.8 53175.5 19513.5 53294.6 19513.5 53413.8 19513.5 53444.2 19419.3 53444.2 19319.6 53444.2 19170 53339 18868 53272.5 18699 53250.3 18635.3 53236.5 18602.1 53236.5 18546.7 53236.5 18416.5 53333.4 18319.5 53463.6 18319.5 53724 18319.5 53826.5 18724 53826.5 18746.1 53826.5 18773.8 53801.6 18773.8 53793.3 18773.8 53765.6 18773.8 53765.6 18765.5 53751.7 18724 53710.2 18577.2 53621.5 18380.5 53469.2 18380.5 53422.1 18380.5 53402.7 18408.2 53402.7 18471.9 53402.7 18541.1 53427.6 18607.6 53452.5 18668.6 53496.9 18787.7 53621.5 19117.3 53621.5 19278 53621.5 19458.1 53510.7 19574.4 53303 19574.4 53128.4 19574.4 52995.5 19488.5 52893 19361.1L53109 20242"/>
<path transform="matrix(.00359712,0,0,-.00359712,0,74)" d="M42438 1530.67C42393.7 1530.67 42354.9 1530.67 42316.1 1491.89 42271.8 1450.33 42266.3 1403.25 42266.3 1383.84 42266.3 1317.36 42316.1 1286.89 42368.7 1286.89 42449.1 1286.89 42523.9 1353.38 42523.9 1464.19 42523.9 1599.92 42393.7 1702.42 42197 1702.42 41823 1702.42 41454.6 1306.28 41454.6 915.688 41454.6 666.375 41615.3 447.531 41903.3 447.531 42299.5 447.531 42532.2 741.172 42532.2 774.406 42532.2 791.031 42515.6 810.422 42498.9 810.422 42485.1 810.422 42479.5 804.875 42462.9 782.719 42244.1 508.469 41942.1 508.469 41908.9 508.469 41734.4 508.469 41659.6 644.219 41659.6 810.422 41659.6 924 41715 1192.7 41809.2 1364.45 41895 1522.36 42047.4 1641.48 42199.8 1641.48 42293.9 1641.48 42399.2 1605.47 42438 1530.67"/>
<path transform="matrix(.00359712,0,0,-.00359712,0,74)" d="M43452.1 2099.5H44041.5C44072.5 2099.5 44119 2099.5 44119 2146.03 44119 2194.5 44074.5 2194.5 44041.5 2194.5H43452.1V2778.05C43452.1 2812.95 43452.1 2861.42 43403.7 2861.42 43357.1 2861.42 43357.1 2816.83 43357.1 2787.75V2194.5H42765.8C42732.9 2194.5 42688.3 2194.5 42688.3 2146.03 42688.3 2099.5 42734.8 2099.5 42765.8 2099.5H43357.1V1527.59H42765.8C42732.9 1527.59 42688.3 1527.59 42688.3 1479.13 42688.3 1432.59 42734.8 1432.59 42765.8 1432.59H44041.5C44072.5 1432.59 44119 1432.59 44119 1479.13 44119 1527.59 44074.5 1527.59 44041.5 1527.59H43452.1V2099.5"/>
<path transform="matrix(.00359712,0,0,-.00359712,0,74)" stroke-width="221.569" stroke-linecap="butt" stroke-dasharray="221.569,553.929" stroke-miterlimit="10" stroke-linejoin="miter" fill="none" stroke="#000000" d="M60836 3031.22 53111.6 7490.99"/>
<path transform="matrix(.00359712,0,0,-.00359712,0,74)" stroke-width="221.569" stroke-linecap="butt" stroke-dasharray="221.569,553.929" stroke-miterlimit="10" stroke-linejoin="miter" fill="none" stroke="#000000" d="M53111.6 7490.99 45387.2 3031.22"/>
<path transform="matrix(.00359712,0,0,-.00359712,0,74)" stroke-width="110.783" stroke-linecap="butt" stroke-dasharray="830.895,830.895" stroke-miterlimit="10" stroke-linejoin="miter" fill="none" stroke="#000000" d="M53111.6 7490.99V17371.4"/>
<path transform="matrix(.00359712,0,0,-.00359712,0,74)" d="M55187 9522.67C55142.7 9522.67 55103.9 9522.67 55065.1 9483.89 55020.8 9442.33 55015.3 9395.25 55015.3 9375.84 55015.3 9309.36 55065.1 9278.89 55117.7 9278.89 55198.1 9278.89 55272.9 9345.38 55272.9 9456.19 55272.9 9591.92 55142.7 9694.42 54946 9694.42 54572 9694.42 54203.6 9298.28 54203.6 8907.69 54203.6 8658.38 54364.3 8439.53 54652.3 8439.53 55048.5 8439.53 55281.2 8733.17 55281.2 8766.41 55281.2 8783.03 55264.6 8802.42 55247.9 8802.42 55234.1 8802.42 55228.5 8796.88 55211.9 8774.72 54993.1 8500.47 54691.1 8500.47 54657.9 8500.47 54483.4 8500.47 54408.6 8636.22 54408.6 8802.42 54408.6 8916 54464 9184.7 54558.2 9356.45 54644 9514.36 54796.4 9633.48 54948.8 9633.48 55042.9 9633.48 55148.2 9597.47 55187 9522.67"/>
<path transform="matrix(.00359712,0,0,-.00359712,0,74)" d="M56202.1 10091.5H56791.5C56822.5 10091.5 56869 10091.5 56869 10138 56869 10186.5 56824.5 10186.5 56791.5 10186.5H56202.1V10770C56202.1 10805 56202.1 10853.4 56153.7 10853.4 56107.1 10853.4 56107.1 10808.8 56107.1 10779.8V10186.5H55515.8C55482.9 10186.5 55438.3 10186.5 55438.3 10138 55438.3 10091.5 55484.8 10091.5 55515.8 10091.5H56107.1V9519.59H55515.8C55482.9 9519.59 55438.3 9519.59 55438.3 9471.13 55438.3 9424.59 55484.8 9424.59 55515.8 9424.59H56791.5C56822.5 9424.59 56869 9424.59 56869 9471.13 56869 9519.59 56824.5 9519.59 56791.5 9519.59H56202.1V10091.5"/>
<path transform="matrix(.00359712,0,0,-.00359712,0,74)" d="M50317.2 10018.5V10104.4H49317.1V10018.5H50317.2"/>
<path transform="matrix(.00359712,0,0,-.00359712,0,74)" d="M50162 9522.67C50117.7 9522.67 50078.9 9522.67 50040.1 9483.89 49995.8 9442.33 49990.3 9395.25 49990.3 9375.84 49990.3 9309.36 50040.1 9278.89 50092.7 9278.89 50173.1 9278.89 50247.9 9345.38 50247.9 9456.19 50247.9 9591.92 50117.7 9694.42 49921 9694.42 49547 9694.42 49178.6 9298.28 49178.6 8907.69 49178.6 8658.38 49339.3 8439.53 49627.3 8439.53 50023.5 8439.53 50256.2 8733.17 50256.2 8766.41 50256.2 8783.03 50239.6 8802.42 50222.9 8802.42 50209.1 8802.42 50203.5 8796.88 50186.9 8774.72 49968.1 8500.47 49666.1 8500.47 49632.9 8500.47 49458.4 8500.47 49383.6 8636.22 49383.6 8802.42 49383.6 8916 49439 9184.7 49533.2 9356.45 49619 9514.36 49771.4 9633.48 49923.8 9633.48 50017.9 9633.48 50123.2 9597.47 50162 9522.67"/>
<path transform="matrix(.00359712,0,0,-.00359712,0,74)" d="M51177.1 10091.5H51766.5C51797.5 10091.5 51844 10091.5 51844 10138 51844 10186.5 51799.5 10186.5 51766.5 10186.5H51177.1V10770C51177.1 10805 51177.1 10853.4 51128.7 10853.4 51082.1 10853.4 51082.1 10808.8 51082.1 10779.8V10186.5H50490.8C50457.9 10186.5 50413.3 10186.5 50413.3 10138 50413.3 10091.5 50459.8 10091.5 50490.8 10091.5H51082.1V9519.59H50490.8C50457.9 9519.59 50413.3 9519.59 50413.3 9471.13 50413.3 9424.59 50459.8 9424.59 50490.8 9424.59H51766.5C51797.5 9424.59 51844 9424.59 51844 9471.13 51844 9519.59 51799.5 9519.59 51766.5 9519.59H51177.1V10091.5"/>
<path transform="matrix(.00359712,0,0,-.00359712,0,74)" d="M68478.1 10588.8C68519.7 10588.8 68572.3 10588.8 68572.3 10644.3 68572.3 10699.7 68519.7 10699.7 68480.9 10699.7H66821.5C66782.8 10699.7 66730.1 10699.7 66730.1 10644.3 66730.1 10588.8 66782.8 10588.8 66824.3 10588.8H68478.1ZM68480.9 10051.4C68519.7 10051.4 68572.3 10051.4 68572.3 10106.8 68572.3 10162.3 68519.7 10162.3 68478.1 10162.3H66824.3C66782.8 10162.3 66730.1 10162.3 66730.1 10106.8 66730.1 10051.4 66782.8 10051.4 66821.5 10051.4H68480.9"/>
<path transform="matrix(.00359712,0,0,-.00359712,0,74)" d="M71323.5 10320.1C71370.6 10320.1 71420.5 10320.1 71420.5 10375.5 71420.5 10431 71370.6 10431 71323.5 10431H69824.9C69777.8 10431 69727.9 10431 69727.9 10375.5 69727.9 10320.1 69777.8 10320.1 69824.9 10320.1H71323.5"/>
<path transform="matrix(.00359712,0,0,-.00359712,0,74)" d="M72438.7 11414.4C72438.7 11469.8 72400 11514.1 72336.2 11514.1 72261.4 11514.1 72186.6 11442.1 72186.6 11367.3 72186.6 11314.6 72225.4 11267.5 72291.9 11267.5 72355.6 11267.5 72438.7 11331.3 72438.7 11414.4ZM72228.2 10372.8C72261.4 10453.1 72261.4 10458.7 72289.1 10533.5 72311.3 10588.8 72325.2 10627.6 72325.2 10680.3 72325.2 10804.9 72236.5 10907.4 72098 10907.4 71837.6 10907.4 71732.3 10505.8 71732.3 10480.8 71732.3 10453.1 71760 10453.1 71765.6 10453.1 71793.3 10453.1 71796 10458.7 71809.9 10503 71884.7 10763.4 71995.5 10846.5 72089.7 10846.5 72111.8 10846.5 72158.9 10846.5 72158.9 10757.8 72158.9 10699.7 72139.5 10641.5 72128.5 10613.8 72106.3 10541.8 71981.7 10220.4 71937.3 10101.3 71909.6 10029.3 71873.6 9937.86 71873.6 9879.69 71873.6 9749.48 71967.8 9652.53 72100.8 9652.53 72361.2 9652.53 72463.7 10054.2 72463.7 10079.1 72463.7 10106.8 72438.7 10106.8 72430.4 10106.8 72402.7 10106.8 72402.7 10098.5 72388.9 10057 72339 9882.45 72247.6 9713.47 72106.3 9713.47 72059.2 9713.47 72039.8 9741.17 72039.8 9804.89 72039.8 9874.14 72056.5 9912.92 72120.2 10081.9L72228.2 10372.8"/>
<path transform="matrix(.00359712,0,0,-.00359712,0,74)" d="M74243.8 12601.4C74246.5 12618 74252.1 12631.8 74252.1 12651.2 74252.1 12698.3 74218.8 12726 74171.7 12726 74144 12726 74069.2 12706.6 74058.2 12606.9 74008.3 12709.4 73911.3 12781.4 73800.5 12781.4 73484.7 12781.4 73141.2 12393.6 73141.2 11994.7 73141.2 11720.4 73310.2 11557 73509.7 11557 73673.1 11557 73803.3 11687.2 73831 11717.7L73833.8 11714.9C73775.6 11468.4 73742.4 11354.8 73742.4 11349.2 73731.3 11324.3 73637.1 11050.1 73343.5 11050.1 73290.8 11050.1 73199.4 11052.8 73121.8 11077.8 73204.9 11102.7 73235.4 11174.7 73235.4 11221.8 73235.4 11266.1 73204.9 11318.8 73130.1 11318.8 73069.2 11318.8 72980.5 11268.9 72980.5 11158.1 72980.5 11044.5 73083 10989.1 73349 10989.1 73695.3 10989.1 73894.7 11205.2 73936.3 11371.4L74243.8 12601.4ZM73883.6 11911.6C73867 11839.6 73803.3 11770.3 73742.4 11717.7 73684.2 11667.8 73598.3 11617.9 73518 11617.9 73379.5 11617.9 73337.9 11762 73337.9 11872.8 73337.9 12005.8 73418.3 12332.7 73493 12473.9 73567.8 12609.7 73687 12720.5 73803.3 12720.5 73986.1 12720.5 74024.9 12496.1 74024.9 12482.3 74024.9 12468.4 74019.4 12451.8 74016.6 12440.7L73883.6 11911.6"/>
<path transform="matrix(.00359712,0,0,-.00359712,0,74)" stroke-width="110.783" stroke-linecap="butt" stroke-miterlimit="10" stroke-linejoin="miter" fill="none" stroke="#000000" d="M72938.9 10375.5H74359.4"/>
<path transform="matrix(.00359712,0,0,-.00359712,0,74)" d="M73308.8 7996.3 73602.5 8281.64C74034.6 8663.92 74200.8 8813.52 74200.8 9090.53 74200.8 9406.33 73951.5 9627.94 73613.5 9627.94 73300.5 9627.94 73095.5 9373.09 73095.5 9126.55 73095.5 8971.41 73234 8971.41 73242.3 8971.41 73289.4 8971.41 73386.4 9004.66 73386.4 9118.23 73386.4 9190.25 73336.5 9262.28 73239.6 9262.28 73217.4 9262.28 73211.9 9262.28 73203.5 9259.52 73267.3 9439.58 73416.8 9542.06 73577.5 9542.06 73829.6 9542.06 73948.7 9317.69 73948.7 9090.53 73948.7 8868.91 73810.2 8650.06 73657.9 8478.31L73126 7885.5C73095.5 7855.03 73095.5 7849.48 73095.5 7783H74123.3L74200.8 8265.02H74131.6C74117.7 8181.91 74098.3 8060.02 74070.6 8018.47 74051.2 7996.3 73868.4 7996.3 73807.5 7996.3H73308.8"/>
<path transform="matrix(.00359712,0,0,-.00359712,0,74)" d="M74935.8 9846.44C74927.5 9804.89 74910.8 9741.17 74910.8 9727.33 74910.8 9677.45 74949.6 9652.53 74991.2 9652.53 75024.4 9652.53 75074.3 9674.69 75093.7 9730.09 75096.5 9735.64 75129.7 9865.83 75146.3 9935.09L75207.3 10184.4C75223.9 10245.3 75240.5 10306.3 75254.3 10370 75265.4 10417.1 75287.6 10497.4 75290.4 10508.5 75331.9 10594.4 75478.7 10846.5 75741.9 10846.5 75866.6 10846.5 75891.5 10744 75891.5 10652.6 75891.5 10583.3 75872.1 10505.8 75849.9 10422.6L75772.4 10101.3 75717 9890.77C75705.9 9835.36 75681 9741.17 75681 9727.33 75681 9677.45 75719.7 9652.53 75761.3 9652.53 75847.2 9652.53 75863.8 9721.78 75886 9810.42 75924.7 9965.56 76027.2 10370 76052.2 10478 76060.5 10514.1 76207.3 10846.5 76509.3 10846.5 76628.4 10846.5 76658.8 10752.3 76658.8 10652.6 76658.8 10494.7 76542.5 10178.9 76487.1 10032 76462.2 9965.56 76451.1 9935.09 76451.1 9879.69 76451.1 9749.48 76548 9652.53 76678.2 9652.53 76938.6 9652.53 77041.1 10057 77041.1 10079.1 77041.1 10106.8 77016.2 10106.8 77007.9 10106.8 76980.2 10106.8 76980.2 10098.5 76966.3 10057 76924.8 9910.16 76836.1 9713.47 76683.8 9713.47 76636.7 9713.47 76617.3 9741.17 76617.3 9804.89 76617.3 9874.14 76642.2 9940.63 76667.1 10001.6 76719.8 10145.6 76836.1 10453.1 76836.1 10611 76836.1 10791.1 76725.3 10907.4 76517.5 10907.4 76309.8 10907.4 76168.5 10785.5 76066 10638.7 76063.3 10674.7 76054.9 10768.9 75977.4 10835.4 75908.1 10893.6 75819.5 10907.4 75750.2 10907.4 75500.9 10907.4 75365.2 10730.1 75318.1 10666.4 75304.2 10824.3 75187.9 10907.4 75063.2 10907.4 74935.8 10907.4 74883.1 10799.4 74858.2 10749.5 74808.3 10652.6 74772.3 10489.1 74772.3 10480.8 74772.3 10453.1 74800 10453.1 74805.6 10453.1 74833.3 10453.1 74836 10455.9 74852.7 10516.8 74899.8 10713.5 74955.2 10846.5 75054.9 10846.5 75099.2 10846.5 75140.8 10824.3 75140.8 10719 75140.8 10660.9 75132.5 10630.4 75096.5 10486.4L74935.8 9846.44"/>
<path transform="matrix(.00359712,0,0,-.00359712,0,74)" d="M79131.5 10363.4 79166.4 10413.8C79207.1 10466.1 79253.6 10514.6 79348.6 10522.3 79370 10524.3 79393.2 10526.2 79393.2 10565 79393.2 10578.6 79381.6 10592.1 79366.1 10592.1 79321.5 10592.1 79265.3 10584.4 79218.7 10584.4 79150.9 10584.4 79067.5 10592.1 79003.5 10592.1 78993.8 10592.1 78962.8 10592.1 78962.8 10549.5 78962.8 10524.3 78990 10522.3 78997.7 10522.3 79040.4 10520.4 79104.4 10508.8 79104.4 10454.5 79104.4 10433.2 79083 10398.3 79075.3 10384.7L78528.6 9487.08 78421.9 10466.1C78421.9 10520.4 78534.4 10522.3 78557.6 10522.3 78582.8 10522.3 78610 10522.3 78610 10565 78610 10566.9 78608 10592.1 78577 10592.1 78540.2 10592.1 78493.7 10588.3 78456.8 10586.3 78418 10584.4 78367.6 10584.4 78328.9 10584.4 78284.3 10584.4 78169.9 10592.1 78125.3 10592.1 78115.6 10592.1 78086.5 10592.1 78086.5 10549.5 78086.5 10522.3 78111.7 10522.3 78136.9 10522.3 78220.3 10522.3 78230 10508.8 78235.8 10489.4 78237.8 10477.8 78241.6 10423.5 78249.4 10363.4L77716.3 9487.08 77613.5 10437C77613.5 10444.8 77609.6 10464.2 77609.6 10466.1 77609.6 10522.3 77729.8 10522.3 77745.3 10522.3 77770.5 10522.3 77797.7 10522.3 77797.7 10565 77797.7 10572.8 77791.9 10592.1 77766.7 10592.1 77710.4 10592.1 77572.8 10584.4 77516.6 10584.4 77452.6 10584.4 77371.2 10592.1 77313 10592.1 77293.6 10592.1 77274.2 10584.4 77274.2 10551.4 77274.2 10522.3 77297.5 10522.3 77328.5 10522.3 77419.6 10522.3 77419.6 10510.7 77425.4 10462.2L77555.3 9281.58C77559.2 9242.8 77561.1 9229.22 77596 9229.22 77629 9229.22 77642.6 9246.67 77654.2 9268L78259.1 10264.5 78365.7 9279.63C78369.6 9238.92 78379.3 9229.22 78408.4 9229.22 78441.3 9229.22 78453 9246.67 78466.5 9269.94L79131.5 10363.4"/>
<path transform="matrix(.00359712,0,0,-.00359712,0,74)" d="M80174.9 9829.81C80174.9 9910.16 80108.4 9976.64 80028.1 9976.64 79947.7 9976.64 79881.2 9910.16 79881.2 9829.81 79881.2 9749.48 79947.7 9683 80028.1 9683 80108.4 9683 80174.9 9749.48 80174.9 9829.81"/>
</svg>
