<?xml version="1.0" standalone="no"?>
<!DOCTYPE svg PUBLIC "-//W3C//DTD SVG 1.1//EN" "http://www.w3.org/Graphics/SVG/1.1/DTD/svg11.dtd">
<svg xmlns="http://www.w3.org/2000/svg" xmlns:xlink="http://www.w3.org/1999/xlink" version="1.1" width="3.0804556cm" height="1.9177cm" viewBox="0 0 87.32 54.36">
<path transform="matrix(.00359712,0,0,-.00359712,0,54.36)" stroke-width="110.783" stroke-linecap="butt" stroke-miterlimit="10" stroke-linejoin="miter" fill="none" stroke="rgb(0,0,0)" d="M 5765.52 5043.48 C 5765.52 5913.93 5059.91 6619.54 4189.46 6619.54 C 3319.02 6619.54 2613.41 5913.93 2613.41 5043.48 C 2613.41 4173.04 3319.02 3467.43 4189.46 3467.43 C 5059.91 3467.43 5765.52 4173.04 5765.52 5043.48 Z M 4189.46 5043.48 "/>
<path transform="matrix(.00359712,0,0,-.00359712,0,54.36)" d="M 4245 4988.14048 L 5017.89 4988.14048 C 5056.67 4988.14048 5109.31 4988.14048 5109.31 5043.55 C 5109.31 5098.95 5056.67 5098.95 5017.89 5098.95 L 4245 5098.95 L 4245 5874.61 C 4245 5913.39053 4245 5966.02 4189.61 5966.02 C 4134.2 5966.02 4134.2 5913.39053 4134.2 5874.61 L 4134.2 5098.95 L 3358.55021 5098.95 C 3319.77 5098.95 3267.13 5098.95 3267.13 5043.55 C 3267.13 4988.14048 3319.77 4988.14048 3358.55021 4988.14048 L 4134.2 4988.14048 L 4134.2 4212.48 C 4134.2 4173.7 4134.2 4121.08 4189.61 4121.08 C 4245 4121.08 4245 4173.7 4245 4212.48 L 4245 4988.14048 "/>
<path transform="matrix(.00359712,0,0,-.00359712,0,54.36)" stroke-width="332.357" stroke-linecap="butt" stroke-miterlimit="10" stroke-linejoin="miter" fill="none" stroke="rgb(0,0,0)" d="M 3778.95011 7371.68063 L 3248.64 10379.2 "/>
<path transform="matrix(.00359712,0,0,-.00359712,0,54.36)" d="M 3094.75 11252 L 2642.72 9732.39 L 3248.64 10379.2 L 4039.22023 9978.61 "/>
<path transform="matrix(.00359712,0,0,-.00359712,0,54.36)" d="M 567.438 14806.9 C 567.438 14873.4 567.438 14878.9 503.719 14878.9 C 331.969 14701.7 88.1875 14701.7 -.453125 14701.7 L -.453125 14615.8 C 54.9531 14615.8 218.391 14615.8 362.438 14687.8 L 362.438 13252.8 C 362.438 13153.1 354.125 13119.9 104.813 13119.9 L 16.1719 13119.9 L 16.1719 13034 C 113.125 13042.3 354.125 13042.3 464.938 13042.3 C 575.75 13042.3 816.749964 13042.3 913.703 13034 L 913.703 13119.9 L 825.063 13119.9 C 575.75 13119.9 567.438 13150.3 567.438 13252.8 L 567.438 14806.9 "/>
<path transform="matrix(.00359712,0,0,-.00359712,0,54.36)" d="M 2354.11 15006.4 C 2367.97 15042.4 2367.97 15053.5 2367.97 15056.2 C 2367.97 15086.7 2343.03 15111.6 2312.56 15111.6 C 2293.17 15111.6 2273.78 15103.3 2265.47 15086.7 L 1304.22 12446.7 C 1290.36 12410.7 1290.36 12399.6 1290.36 12396.9 C 1290.36 12366.4 1315.3 12341.5 1345.77 12341.5 C 1381.78 12341.5 1390.09 12360.8 1406.7 12407.9 L 2354.11 15006.4 "/>
<path transform="matrix(.00359712,0,0,-.00359712,0,54.36)" d="M 2874.81 13247.3 L 3168.45 13532.6 C 3600.61 13914.9 3766.81 14064.5 3766.81 14341.5 C 3766.81 14657.3 3517.5 14878.9 3179.53 14878.9 C 2866.5 14878.9 2661.52 14624.1 2661.52 14377.5 C 2661.52 14222.4 2800.02 14222.4 2808.33 14222.4 C 2855.42 14222.4 2952.38 14255.7 2952.38 14369.2 C 2952.38 14441.3 2902.52 14513.3 2805.56 14513.3 C 2783.39 14513.3 2777.86 14513.3 2769.55 14510.5 C 2833.27 14690.6 2982.84 14793.1 3143.52 14793.1 C 3395.61 14793.1 3514.73 14568.7 3514.73 14341.5 C 3514.73 14119.9 3376.22012 13901.1 3223.86 13729.3 L 2691.98 13136.5 C 2661.52 13106 2661.52 13100.5 2661.52 13034 L 3689.25 13034 L 3766.81 13516 L 3697.56021 13516 C 3683.7 13432.9 3664.31 13311 3636.61 13269.5 C 3617.22 13247.3 3434.39 13247.3 3373.45 13247.3 L 2874.81 13247.3 "/>
<path transform="matrix(.00359712,0,0,-.00359712,0,54.36)" d="M 4469.34 13036.8 C 4469.34 13219.6 4400.09011 13327.6 4292.06 13327.6 C 4200.64 13327.6 4145.23 13258.4 4145.23 13180.8 C 4145.23 13106 4200.64 13034 4292.06 13034 C 4325.30011 13034 4361.31 13045.1 4389.02034 13070 C 4397.33 13075.5 4400.09011 13078.3 4402.86 13078.3 C 4405.64 13078.3 4408.41 13075.5 4408.41 13036.8 C 4408.41 12831.8 4311.45 12665.6 4220.03 12574.2 C 4189.56 12543.7 4189.56 12538.1 4189.56 12529.8 C 4189.56 12510.4 4203.41 12499.4 4217.27 12499.4 C 4247.73 12499.4 4469.34 12712.7 4469.34 13036.8 "/>
<path transform="matrix(.00359712,0,0,-.00359712,0,54.36)" d="M 6217.14 14070 C 6139.58 14067.3 6084.17024 14006.3 6084.17024 13945.4 C 6084.17024 13906.6 6109.11025 13865.1 6170.05 13865.1 C 6231.00032 13865.1 6297.48 13912.2 6297.48 14020.2 C 6297.48 14144.8 6178.36 14258.4 5967.83 14258.4 C 5602.16 14258.4 5499.67 13975.9 5499.67 13854 C 5499.67 13637.9 5704.66 13596.3 5785 13579.7 C 5929.05 13552 6073.09 13521.5 6073.09 13369.2 C 6073.09 13297.2 6009.38024 13064.5 5676.95 13064.5 C 5638.17 13064.5 5424.88 13064.5 5361.16 13211.3 C 5466.42 13197.4 5535.67 13280.5 5535.67 13358.1 C 5535.67 13421.8 5491.36 13455.1 5433.19024 13455.1 C 5361.16 13455.1 5278.05 13396.9 5278.05 13272.2 C 5278.05 13114.3 5435.95 13003.5 5674.19 13003.5 C 6122.95 13003.5 6231.00032 13338.7 6231.00032 13463.4 C 6231.00032 13563.1 6178.36 13632.4 6145.13 13665.6 C 6070.33 13743.2 5989.98 13757 5868.09 13782 C 5768.38 13804.1 5657.56 13823.5 5657.56 13948.2 C 5657.56 14028.5 5724.05 14197.5 5967.83 14197.5 C 6037.08 14197.5 6175.59 14178.1 6217.14 14070 "/>
<path transform="matrix(.00359712,0,0,-.00359712,0,54.36)" stroke-width="110.783" stroke-linecap="butt" stroke-miterlimit="10" stroke-linejoin="miter" fill="none" stroke="rgb(0,0,0)" d="M 21526.4 5043.48 C 21526.4 5913.93 20820.7 6619.54 19950.3 6619.54 C 19079.9 6619.54 18374.2 5913.93 18374.2 5043.48 C 18374.2 4173.04 19079.9 3467.43 19950.3 3467.43 C 20820.7 3467.43 21526.4 4173.04 21526.4 5043.48 Z M 19950.3 5043.48 "/>
<path transform="matrix(.00359712,0,0,-.00359712,0,54.36)" d="M 20698.5 4988.14048 C 20745.6 4988.14048 20795.5 4988.14048 20795.5 5043.55 C 20795.5 5098.95 20745.6 5098.95 20698.5 5098.95 L 19199.9 5098.95 C 19152.8 5098.95 19102.9 5098.95 19102.9 5043.55 C 19102.9 4988.14048 19152.8 4988.14048 19199.9 4988.14048 L 20698.5 4988.14048 "/>
<path transform="matrix(.00359712,0,0,-.00359712,0,54.36)" stroke-width="332.357" stroke-linecap="butt" stroke-miterlimit="10" stroke-linejoin="miter" fill="none" stroke="rgb(0,0,0)" d="M 20360.8 7371.68063 L 20891.1 10379.2 "/>
<path transform="matrix(.00359712,0,0,-.00359712,0,54.36)" d="M 21045 11252 L 20100.5 9978.61 L 20891.1 10379.2 L 21497 9732.39 "/>
<path transform="matrix(.00359712,0,0,-.00359712,0,54.36)" d="M 18503.4 14806.9 C 18503.4 14873.4 18503.4 14878.9 18439.7 14878.9 C 18268 14701.7 18024.2 14701.7 17935.5 14701.7 L 17935.5 14615.8 C 17991 14615.8 18154.4 14615.8 18298.4 14687.8 L 18298.4 13252.8 C 18298.4 13153.1 18290.1 13119.9 18040.8 13119.9 L 17952.2 13119.9 L 17952.2 13034 C 18049.1 13042.3 18290.1 13042.3 18400.9 13042.3 C 18511.8 13042.3 18752.8 13042.3 18849.7 13034 L 18849.7 13119.9 L 18761.1 13119.9 C 18511.8 13119.9 18503.4 13150.3 18503.4 13252.8 L 18503.4 14806.9 "/>
<path transform="matrix(.00359712,0,0,-.00359712,0,54.36)" d="M 20290.1 15006.4 C 20304 15042.4 20304 15053.5 20304 15056.2 C 20304 15086.7 20279 15111.6 20248.6 15111.6 C 20229.2 15111.6 20209.8 15103.3 20201.5 15086.7 L 19240.2 12446.7 C 19226.4 12410.7 19226.4 12399.6 19226.4 12396.9 C 19226.4 12366.4 19251.3 12341.5 19281.8 12341.5 C 19317.8 12341.5 19326.1 12360.8 19342.7 12407.9 L 20290.1 15006.4 "/>
<path transform="matrix(.00359712,0,0,-.00359712,0,54.36)" d="M 20810.8 13247.3 L 21104.5 13532.6 C 21536.6 13914.9 21702.8 14064.5 21702.8 14341.5 C 21702.8 14657.3 21453.5 14878.9 21115.5 14878.9 C 20802.5 14878.9 20597.5 14624.1 20597.5 14377.5 C 20597.5 14222.4 20736 14222.4 20744.3 14222.4 C 20791.4 14222.4 20888.4 14255.7 20888.4 14369.2 C 20888.4 14441.3 20838.5 14513.3 20741.6 14513.3 C 20719.4 14513.3 20713.9 14513.3 20705.5 14510.5 C 20769.3 14690.6 20918.8 14793.1 21079.5 14793.1 C 21331.6 14793.1 21450.7 14568.7 21450.7 14341.5 C 21450.7 14119.9 21312.2 13901.1 21159.9 13729.3 L 20628 13136.5 C 20597.5 13106 20597.5 13100.5 20597.5 13034 L 21625.3 13034 L 21702.8 13516 L 21633.6 13516 C 21619.7 13432.9 21600.3 13311 21572.6 13269.5 C 21553.2 13247.3 21370.4 13247.3 21309.5 13247.3 L 20810.8 13247.3 "/>
<path transform="matrix(.00359712,0,0,-.00359712,0,54.36)" d="M 22406.3 13036.8 C 22406.3 13219.6 22337.1 13327.6 22229.1 13327.6 C 22137.6 13327.6 22082.2 13258.4 22082.2 13180.8 C 22082.2 13106 22137.6 13034 22229.1 13034 C 22262.3 13034 22298.3 13045.1 22326 13070 C 22334.3 13075.5 22337.1 13078.3 22339.9 13078.3 C 22342.6 13078.3 22345.4 13075.5 22345.4 13036.8 C 22345.4 12831.8 22248.5 12665.6 22157 12574.2 C 22126.6 12543.7 22126.6 12538.1 22126.6 12529.8 C 22126.6 12510.4 22140.4 12499.4 22154.3 12499.4 C 22184.7 12499.4 22406.3 12712.7 22406.3 13036.8 "/>
<path transform="matrix(.00359712,0,0,-.00359712,0,54.36)" d="M 23314.8 13197.4 C 23306.5 13155.9 23289.8 13092.2 23289.8 13078.3 C 23289.8 13028.5 23328.6 13003.5 23370.2 13003.5 C 23403.4 13003.5 23453.3 13025.7 23472.7 13081.1 C 23478.2 13092.2 23572.4 13468.9 23583.5 13518.8 C 23605.6 13610.2 23655.5 13804.1 23672.1 13878.9 C 23683.2 13914.9 23760.8 14045.1 23827.3 14106.1 C 23849.4 14125.5 23929.8 14197.5 24048.9 14197.5 C 24120.9 14197.5 24162.5 14164.2 24165.2 14164.2 C 24082.1 14150.4 24021.2 14083.9 24021.2 14011.9 C 24021.2 13967.5 24051.6 13914.9 24126.4 13914.9 C 24201.2 13914.9 24278.8 13978.6 24278.8 14078.4 C 24278.8 14175.3 24190.2 14258.4 24048.9 14258.4 C 23868.8 14258.4 23746.9 14122.7 23694.3 14045.1 C 23672.1 14169.8 23572.4 14258.4 23442.2 14258.4 C 23314.8 14258.4 23262.1 14150.4 23237.2 14100.5 C 23187.3 14006.3 23151.3 13840.1 23151.3 13831.8 C 23151.3 13804.1 23179 13804.1 23184.6 13804.1 C 23212.3 13804.1 23215 13806.9 23231.7 13867.8 C 23278.8 14064.5 23334.2 14197.5 23433.9 14197.5 C 23481 14197.5 23519.8 14175.3 23519.8 14070 C 23519.8 14011.9 23511.5 13981.4 23475.5 13837.4 L 23314.8 13197.4 "/>
<path transform="matrix(.00359712,0,0,-.00359712,0,54.36)" stroke-width="332.357" stroke-linecap="butt" stroke-miterlimit="10" stroke-linejoin="miter" fill="none" stroke="rgb(0,0,0)" d="M 5765.52 3467.43 C 8224.04 -790.859 15915.7 -790.859 17931.1 2699.89 "/>
<path transform="matrix(.00359712,0,0,-.00359712,0,54.36)" d="M 18374.2 3467.43 L 17051.2 2593.88 L 17931.1 2699.89 L 18279.2 1884.88 "/>
<path transform="matrix(.00359712,0,0,-.00359712,0,54.36)" stroke-width="332.357" stroke-linecap="butt" stroke-miterlimit="10" stroke-linejoin="miter" fill="none" stroke="rgb(0,0,0)" d="M 18374.2 6619.54 C 15915.7 10877.8 8224.04 10877.8 6208.65 7387.07 "/>
<path transform="matrix(.00359712,0,0,-.00359712,0,54.36)" d="M 5765.53 6619.54 L 7088.55 7493.09 L 6208.65 7387.08 L 5860.5 8202.09 "/>
<path transform="matrix(.00359712,0,0,-.00359712,0,54.36)" d="M 10512.7 3879.03 C 10512.7 3881.81 10512.7 3909.52 10476.7 3909.52 C 10413 3909.52 10210.8 3887.34 10138.7 3881.81 C 10116.6 3879.03 10086.1 3876.27 10086.1 3823.64 C 10086.1 3793.16 10113.8 3793.16 10155.4 3793.16 C 10288.3 3793.16 10291.1 3768.23 10291.1 3746.06 L 10282.8 3690.67 L 9933.73 2305.58 C 9925.42066 2275.09 9919.89 2255.7 9919.89 2211.39 C 9919.89 2053.48 10041.8 1956.53 10172 1956.53 C 10263.4 1956.53 10332.6 2011.94 10379.7 2111.66 C 10429.6 2216.92 10462.8 2377.59 10462.8 2383.14 C 10462.8 2410.84 10437.9 2410.84 10429.6 2410.84 C 10401.9 2410.84 10399.1 2399.77 10390.8 2360.97 C 10343.7 2180.91 10291.1 2017.47 10180.3 2017.47 C 10097.2 2017.47 10097.2 2106.13 10097.2 2144.91 C 10097.2 2211.39 10100 2225.23 10113.8 2277.88 L 10512.7 3879.03 "/>
<path transform="matrix(.00359712,0,0,-.00359712,0,54.36)" d="M 11238.3 1989.77 C 11238.3 2172.61 11169.1 2280.64 11061.1 2280.64 C 10969.6 2280.64 10914.2 2211.39 10914.2 2133.81 C 10914.2 2059.03 10969.6 1987 11061.1 1987 C 11094.3 1987 11130.3 1998.08 11158 2023.02 C 11166.3 2028.55 11169.1 2031.33 11171.9 2031.33 C 11174.6 2031.33 11177.4 2028.55 11177.4 1989.77 C 11177.4 1784.78 11080.5 1618.56 10989 1527.16 C 10958.6 1496.67 10958.6 1491.14 10958.6 1482.83 C 10958.6 1463.44 10972.4 1452.36 10986.3 1452.36 C 11016.7 1452.36 11238.3 1665.66 11238.3 1989.77 "/>
<path transform="matrix(.00359712,0,0,-.00359712,0,54.36)" d="M 12149.8 2150.44 C 12141.5 2108.89 12124.8 2045.17 12124.8 2031.33 C 12124.8 1981.45 12163.6 1956.53 12205.2 1956.53 C 12238.4 1956.53 12288.3 1978.69 12307.7 2034.09 C 12310.5 2039.64 12343.7 2169.83 12360.3 2239.09 L 12421.3 2488.41 C 12437.9 2549.34 12454.5 2610.3 12468.3 2674 C 12479.4 2721.09 12501.6 2801.44 12504.4 2812.52 C 12545.9 2898.39 12692.7 3150.48 12955.9 3150.48 C 13080.6 3150.48 13105.5 3047.98 13105.5 2956.56 C 13105.5 2887.31 13086.1 2809.75 13063.9 2726.64 L 12986.4 2405.3 L 12931 2194.77 C 12919.9 2139.36 12895 2045.17 12895 2031.33 C 12895 1981.45 12933.7 1956.53 12975.3 1956.53 C 13061.2 1956.53 13077.8 2025.78 13100 2114.42 C 13138.7 2269.56 13241.2 2674 13266.2 2782.05 C 13274.5 2818.06 13421.3 3150.48 13723.3 3150.48 C 13842.4 3150.48 13872.8 3056.3 13872.8 2956.56 C 13872.8 2798.67 13756.5 2482.86 13701.1 2336.05 C 13676.2 2269.56 13665.1 2239.09 13665.1 2183.69 C 13665.1 2053.48 13762 1956.53 13892.2 1956.53 C 14152.6 1956.53 14255.1 2360.97 14255.1 2383.14 C 14255.1 2410.84 14230.2 2410.84 14221.9 2410.84 C 14194.2 2410.84 14194.2 2402.53 14180.3 2360.97 C 14138.8 2214.16 14050.1 2017.47 13897.8 2017.47 C 13850.7 2017.47 13831.3 2045.17 13831.3 2108.89 C 13831.3 2178.14 13856.2 2244.63 13881.1 2305.58 C 13933.8 2449.63 14050.1 2757.11 14050.1 2915.02 C 14050.1 3095.08 13939.3 3211.42 13731.5 3211.42 C 13523.8 3211.42 13382.5 3089.53 13280 2942.72012 C 13277.3 2978.73 13268.9 3072.91 13191.4 3139.39 C 13122.1 3197.58 13033.5 3211.42 12964.2 3211.42 C 12714.9 3211.42 12579.2 3034.13 12532.1 2970.42 C 12518.2 3128.31 12401.9 3211.42 12277.2 3211.42 C 12149.8 3211.42 12097.1 3103.39 12072.2 3053.52 C 12022.3 2956.56 11986.3 2793.13 11986.3 2784.81 C 11986.3 2757.11 12014 2757.11 12019.6 2757.11 C 12047.3 2757.11 12050 2759.88 12066.7 2820.83 C 12113.8 3017.52 12169.2 3150.48 12268.9 3150.48 C 12313.2 3150.48 12354.8 3128.31 12354.8 3023.05 C 12354.8 2964.88 12346.5 2934.41 12310.5 2790.36 L 12149.8 2150.44 "/>
</svg>
