<svg xmlns="http://www.w3.org/2000/svg" xmlns:xlink="http://www.w3.org/1999/xlink" version="1.1" width="347pt" height="83pt" viewBox="0 0 347 83">
<path transform="matrix(.00359712,0,0,-.00359712,0,83)" d="M769.031 1370.91C849.359 1370.91 1054.36 1376.45 1192.86 1434.63 1386.78 1517.73 1400.63 1681.17 1400.63 1719.95 1400.63 1841.84 1295.36 1955.42 1104.22 1955.42 796.734 1955.42 378.422 1686.72 378.422 1201.94 378.422 919.375 541.875 700.531 813.344 700.531 1209.48 700.531 1442.19 994.172 1442.19 1027.41 1442.19 1044.03 1425.56 1063.42 1408.94 1063.42 1395.09 1063.42 1389.55 1057.88 1372.92 1035.72 1154.08 761.469 852.125 761.469 818.891 761.469 602.813 761.469 577.875 994.172 577.875 1082.81 577.875 1116.06 580.656 1201.94 622.203 1370.91H769.031ZM638.828 1431.86C746.859 1852.92 1032.19 1894.48 1104.22 1894.48 1234.42 1894.48 1309.22 1814.14 1309.22 1719.95 1309.22 1431.86 865.984 1431.86 752.406 1431.86H638.828"/>
<path transform="matrix(.00359712,0,0,-.00359712,0,83)" d="M2340.69 1504.42C2354.25 1558.7 2358.13 1564.52 2400.78 1570.34H2524.86C2705.16 1570.34 2928.11 1570.34 2928.11 1370.66 2928.11 1291.17 2891.28 1169.03 2800.16 1099.23 2720.67 1037.2 2600.47 1006.17 2466.7 1006.17H2216.61L2340.69 1504.42ZM2691.59 975.156C2922.3 1029.44 3127.8 1169.03 3127.8 1341.58 3127.8 1508.3 2930.05 1640.13 2648.94 1640.13H2053.75C2016.92 1640.13 1991.72 1640.13 1991.72 1597.48 1991.72 1570.34 2014.98 1570.34 2053.75 1570.34 2055.69 1570.34 2092.53 1570.34 2127.42 1566.47 2168.14 1562.58 2172.02 1558.7 2172.02 1539.31 2172.02 1535.44 2172.02 1525.75 2164.27 1496.67L1906.42 467.219C1890.91 401.297 1887.03 385.797 1735.81 385.797 1702.84 385.797 1677.64 385.797 1677.64 345.078 1677.64 325.688 1691.22 316 1708.67 316 1745.5 316 1790.09 321.813 1828.86 321.813 1865.7 321.813 1921.92 323.75 1956.83 323.75 1995.59 323.75 2040.19 321.813 2080.89 321.813 2121.61 321.813 2170.08 316 2210.8 316 2220.48 316 2251.5 316 2251.5 356.719 2251.5 385.797 2232.11 385.797 2187.53 385.797 2156.5 385.797 2148.75 385.797 2113.86 389.672 2071.2 395.484 2071.2 399.359 2071.2 418.75 2071.2 420.688 2071.2 432.328 2078.95 461.406L2201.09 951.891H2464.77C2631.48 951.891 2703.22 868.531 2703.22 777.406 2703.22 752.203 2685.77 686.297 2676.08 641.703 2652.81 552.516 2645.06 523.438 2645.06 490.484 2645.06 337.328 2786.58 277.219 2930.05 277.219 3108.41 277.219 3185.95 467.219 3185.95 502.109 3185.95 507.938 3182.08 529.25 3153 529.25 3127.8 529.25 3123.92 515.688 3118.11 496.297 3090.95 411 3019.23 331.516 2937.8 331.516 2887.39 331.516 2850.56 352.828 2850.56 457.531 2850.56 506 2862.19 606.813 2869.95 659.156 2877.7 711.5 2877.7 730.875 2877.7 750.266 2877.7 773.531 2877.7 835.578 2823.42 893.734 2786.58 934.453 2734.23 959.656 2691.59 975.156"/>
<path transform="matrix(.00359712,0,0,-.00359712,0,83)" d="M18642.5 12162C18642.5 12164.7 18642.5 12192.4 18606.5 12192.4 18542.8 12192.4 18340.6 12170.3 18268.5 12164.7 18246.4 12162 18215.9 12159.2 18215.9 12109.3 18215.9 12076.1 18240.8 12076.1 18282.4 12076.1 18415.4 12076.1 18420.9 12056.7 18420.9 12029 18420.9 12009.6 18387.7 11879.4 18368.3 11804.6L18199.3 11125.9C18188.2 11084.3 18168.8 11006.8 18168.8 11001.3 18168.8 10970.8 18196.5 10968 18213.1 10968H18251.9C18445.8 11001.3 18747.8 11109.3 19033.1 11375.2 19398.8 11716 19473.6 12092.7 19473.6 12117.6 19473.6 12164.7 19440.3 12192.4 19393.3 12192.4 19371.1 12192.4 19307.4 12181.3 19285.2 12101 19107.9 11472.2 18686.8 11161.9 18371 11059.4L18642.5 12162"/>
<path transform="matrix(.00359712,0,0,-.00359712,0,83)" d="M20188.8 11718.2C20206.2 11788 20212 11807.3 20390.4 11807.3 20450.5 11807.3 20469.9 11807.3 20469.9 11850 20469.9 11851.9 20467.9 11877.1 20436.9 11877.1 20392.3 11877.1 20340 11873.3 20293.4 11871.3 20245 11869.4 20186.8 11869.4 20138.3 11869.4 20097.6 11869.4 20045.3 11871.3 20004.6 11871.3 19963.9 11871.3 19917.3 11877.1 19878.5 11877.1 19866.9 11877.1 19837.8 11877.1 19837.8 11834.5 19837.8 11807.3 19861.1 11807.3 19899.9 11807.3 19901.8 11807.3 19938.7 11807.3 19973.5 11803.5 20014.3 11799.6 20018.1 11795.7 20018.1 11776.3 20018.1 11772.4 20018.1 11762.8 20010.4 11733.7L19752.5 10704.2C19735.1 10638.3 19731.2 10622.8 19581.9 10622.8 19549 10622.8 19523.8 10622.8 19523.8 10582.1 19523.8 10553 19547 10553 19581.9 10553H20557.1C20605.6 10553 20607.5 10554.9 20623 10591.8 20642.4 10644.1 20787.8 11020.2 20787.8 11035.7 20787.8 11041.5 20783.9 11062.9 20754.8 11062.9 20731.6 11062.9 20727.7 11053.2 20716.1 11022.2 20642.4 10838 20557.1 10622.8 20202.3 10622.8H19983.3C19923.1 10622.8 19921.2 10624.7 19921.2 10642.2 19921.2 10644.1 19921.2 10653.8 19929 10682.9L20188.8 11718.2"/>
<path transform="matrix(.00359712,0,0,-.00359712,0,83)" d="M1269.58 22616C1269.58 22621.6 1277.88 22652 1277.88 22654.8 1277.88 22657.6 1277.88 22682.5 1244.64 22682.5 1216.94 22682.5 1214.17 22674.2 1203.09 22627.1L1042.42 21987.2C601.953 21973.3 194.734 21604.9 194.734 21228.2 194.734 20965 388.656 20746.2 726.609 20726.8 704.453 20640.9 685.063 20552.2 662.906 20466.4 629.656 20336.2 601.953 20230.9 601.953 20222.6 601.953 20194.9 621.344 20192.1 635.203 20192.1 649.047 20192.1 654.594 20194.9 662.906 20203.2 668.438 20208.7 685.063 20275.2 693.375 20314L798.641 20726.8C1244.64 20740.6 1646.31 21114.6 1646.31 21485.8 1646.31 21704.6 1499.5 21959.5 1114.44 21987.2L1269.58 22616ZM740.469 20787.7C574.25 20796 374.797 20893 374.797 21170 374.797 21502.4 613.031 21890.2 1025.8 21926.3L740.469 20787.7ZM1097.83 21926.3C1308.36 21915.2 1466.25 21787.7 1466.25 21544 1466.25 21217.1 1228.02 20820.9 812.484 20787.7L1097.83 21926.3"/>
<path transform="matrix(.00359712,0,0,-.00359712,0,83)" d="M2607.63 22203.1H3200.86C3226.06 22203.1 3272.59 22203.1 3272.59 22249.7 3272.59 22298.1 3228 22298.1 3200.86 22298.1H2607.63V22893.3C2607.63 22918.5 2607.63 22965.1 2561.09 22965.1 2512.63 22965.1 2512.63 22920.5 2512.63 22893.3V22298.1H1917.44C1892.23 22298.1 1845.7 22298.1 1845.7 22251.6 1845.7 22203.1 1890.3 22203.1 1917.44 22203.1H2512.63V21608C2512.63 21582.8 2512.63 21536.2 2559.16 21536.2 2607.63 21536.2 2607.63 21580.8 2607.63 21608V22203.1"/>
<path transform="matrix(.00359712,0,0,-.00359712,0,83)" stroke-width="110.783" stroke-linecap="butt" stroke-miterlimit="10" stroke-linejoin="miter" fill="none" stroke="#000000" d="M2832.96 2902.35 7714.22 11356.9"/>
<path transform="matrix(.00359712,0,0,-.00359712,0,83)" d="M5784.68 8014.8 4209.91 6806.4 5525.54 6046.81"/>
<path transform="matrix(.00359712,0,0,-.00359712,0,83)" stroke-width="110.783" stroke-linecap="butt" stroke-miterlimit="10" stroke-linejoin="miter" fill="none" stroke="#000000" d="M7714.22 11356.9H17043.3"/>
<path transform="matrix(.00359712,0,0,-.00359712,0,83)" d="M13403.2 11356.9 11569.3 12116.4V10597.3"/>
<path transform="matrix(.00359712,0,0,-.00359712,0,83)" stroke-width="110.783" stroke-linecap="butt" stroke-dasharray="830.895,830.895" stroke-miterlimit="10" stroke-linejoin="miter" fill="none" stroke="#000000" d="M3160.85 19243.4 7714.22 11356.9"/>
<path transform="matrix(.00359712,0,0,-.00359712,0,83)" d="M5949.35 14413.7 5690.21 16381.6 4374.58 15622.1"/>
<path transform="matrix(.00359712,0,0,-.00359712,0,83)" d="M9903.58 14730C9903.58 14735.6 9911.88 14766 9911.88 14768.8 9911.88 14771.6 9911.88 14796.5 9878.64 14796.5 9850.94 14796.5 9848.17 14788.2 9837.09 14741.1L9676.42 14101.2C9235.95 14087.3 8828.73 13718.9 8828.73 13342.2 8828.73 13079 9022.66 12860.2 9360.61 12840.8 9338.45 12754.9 9319.06 12666.2 9296.91 12580.4 9263.66 12450.2 9235.95 12344.9 9235.95 12336.6 9235.95 12308.9 9255.34 12306.1 9269.2 12306.1 9283.05 12306.1 9288.59 12308.9 9296.91 12317.2 9302.44 12322.7 9319.06 12389.2 9327.38 12428L9432.64 12840.8C9878.64 12854.6 10280.3 13228.6 10280.3 13599.8 10280.3 13818.6 10133.5 14073.5 9748.44 14101.2L9903.58 14730ZM9374.47 12901.7C9208.25 12910 9008.8 13007 9008.8 13284 9008.8 13616.4 9247.03 14004.2 9659.8 14040.3L9374.47 12901.7ZM9731.83 14040.3C9942.36 14029.2 10100.3 13901.7 10100.3 13658 10100.3 13331.1 9862.02 12934.9 9446.48 12901.7L9731.83 14040.3"/>
<path transform="matrix(.00359712,0,0,-.00359712,0,83)" d="M11785.4 14317.1C11816.4 14317.1 11862.9 14317.1 11862.9 14363.7 11862.9 14412.1 11818.3 14412.1 11785.4 14412.1H10629.9C10598.9 14412.1 10552.4 14412.1 10552.4 14365.6 10552.4 14317.1 10597 14317.1 10629.9 14317.1H11785.4"/>
<path transform="matrix(.00359712,0,0,-.00359712,0,83)" d="M24643.1 11853.8C24684.7 11853.8 24737.3 11853.8 24737.3 11909.3 24737.3 11964.7 24684.7 11964.7 24645.9 11964.7H22986.5C22947.8 11964.7 22895.1 11964.7 22895.1 11909.3 22895.1 11853.8 22947.8 11853.8 22989.3 11853.8H24643.1ZM24645.9 11316.4C24684.7 11316.4 24737.3 11316.4 24737.3 11371.8 24737.3 11427.3 24684.7 11427.3 24643.1 11427.3H22989.3C22947.8 11427.3 22895.1 11427.3 22895.1 11371.8 22895.1 11316.4 22947.8 11316.4 22986.5 11316.4H24645.9"/>
<path transform="matrix(.00359712,0,0,-.00359712,0,83)" d="M27489.5 11585.1C27536.6 11585.1 27586.5 11585.1 27586.5 11640.5 27586.5 11696 27536.6 11696 27489.5 11696H25990.9C25943.8 11696 25893.9 11696 25893.9 11640.5 25893.9 11585.1 25943.8 11585.1 25990.9 11585.1H27489.5"/>
<path transform="matrix(.00359712,0,0,-.00359712,0,83)" d="M30590.8 13866.4C30593.5 13883 30599.1 13896.8 30599.1 13916.2 30599.1 13963.3 30565.8 13991 30518.7 13991 30491 13991 30416.2 13971.6 30405.2 13871.9 30355.3 13974.4 30258.3 14046.4 30147.5 14046.4 29831.7 14046.4 29488.2 13658.6 29488.2 13259.7 29488.2 12985.4 29657.2 12822 29856.7 12822 30020.1 12822 30150.3 12952.2 30178 12982.7L30180.8 12979.9C30122.6 12733.4 30089.4 12619.8 30089.4 12614.2 30078.3 12589.3 29984.1 12315.1 29690.5 12315.1 29637.8 12315.1 29546.4 12317.8 29468.8 12342.8 29551.9 12367.7 29582.4 12439.7 29582.4 12486.8 29582.4 12531.1 29551.9 12583.8 29477.1 12583.8 29416.2 12583.8 29327.5 12533.9 29327.5 12423.1 29327.5 12309.5 29430 12254.1 29696 12254.1 30042.3 12254.1 30241.7 12470.2 30283.3 12636.4L30590.8 13866.4ZM30230.6 13176.6C30214 13104.6 30150.3 13035.3 30089.4 12982.7 30031.2 12932.8 29945.3 12882.9 29865 12882.9 29726.5 12882.9 29684.9 13027 29684.9 13137.8 29684.9 13270.8 29765.3 13597.7 29840 13738.9 29914.8 13874.7 30034 13985.5 30150.3 13985.5 30333.1 13985.5 30371.9 13761.1 30371.9 13747.3 30371.9 13733.4 30366.4 13716.8 30363.6 13705.7L30230.6 13176.6"/>
<path transform="matrix(.00359712,0,0,-.00359712,0,83)" stroke-width="110.783" stroke-linecap="butt" stroke-miterlimit="10" stroke-linejoin="miter" fill="none" stroke="#000000" d="M28150.3 11640.7H31843"/>
<path transform="matrix(.00359712,0,0,-.00359712,0,83)" d="M29227.6 8662.48 28740 9740.09C28720.7 9784.42 28706.8 9784.42 28698.5 9784.42 28695.7 9784.42 28681.9 9784.42 28651.4 9762.25L28388.2 9562.8C28352.2 9535.09 28352.2 9526.78 28352.2 9518.48 28352.2 9504.63 28360.5 9488 28379.9 9488 28396.5 9488 28443.6 9526.78 28474.1 9548.95 28490.7 9562.8 28532.3 9593.27 28562.8 9615.44L29108.5 8415.94C29127.9 8371.63 29141.7 8371.63 29166.7 8371.63 29208.2 8371.63 29216.5 8388.23 29235.9 8427.02L30493.6 11031C30513 11069.8 30513 11080.9 30513 11086.4 30513 11114.1 30490.8 11141.8 30457.6 11141.8 30435.4 11141.8 30416 11128 30393.9 11083.6L29227.6 8662.48"/>
<path transform="matrix(.00359712,0,0,-.00359712,0,83)" stroke-width="110.783" stroke-linecap="butt" stroke-miterlimit="10" stroke-linejoin="miter" fill="none" stroke="#000000" d="M30458.2 11086.9H31843"/>
<path transform="matrix(.00359712,0,0,-.00359712,0,83)" d="M30809.8 8953.3 31103.5 9238.64C31535.6 9620.92 31701.8 9770.52 31701.8 10047.5 31701.8 10363.3 31452.5 10584.9 31114.5 10584.9 30801.5 10584.9 30596.5 10330.1 30596.5 10083.5 30596.5 9928.41 30735 9928.41 30743.3 9928.41 30790.4 9928.41 30887.4 9961.66 30887.4 10075.2 30887.4 10147.3 30837.5 10219.3 30740.6 10219.3 30718.4 10219.3 30712.9 10219.3 30704.5 10216.5 30768.3 10396.6 30917.8 10499.1 31078.5 10499.1 31330.6 10499.1 31449.7 10274.7 31449.7 10047.5 31449.7 9825.91 31311.2 9607.06 31158.9 9435.31L30627 8842.5C30596.5 8812.03 30596.5 8806.48 30596.5 8740H31624.3L31701.8 9222.02H31632.6C31618.7 9138.91 31599.3 9017.02 31571.6 8975.47 31552.2 8953.3 31369.4 8953.3 31308.5 8953.3H30809.8"/>
<path transform="matrix(.00359712,0,0,-.00359712,0,83)" d="M33416.8 12985.4C33408.5 12943.9 33391.8 12880.2 33391.8 12866.3 33391.8 12816.5 33430.6 12791.5 33472.2 12791.5 33505.4 12791.5 33555.3 12813.7 33574.7 12869.1 33577.5 12874.6 33610.7 13004.8 33627.3 13074.1L33688.3 13323.4C33704.9 13384.3 33721.5 13445.3 33735.3 13509 33746.4 13556.1 33768.6 13636.4 33771.4 13647.5 33812.9 13733.4 33959.7 13985.5 34222.9 13985.5 34347.6 13985.5 34372.5 13883 34372.5 13791.6 34372.5 13722.3 34353.1 13644.8 34330.9 13561.6L34253.4 13240.3 34198 13029.8C34186.9 12974.4 34162 12880.2 34162 12866.3 34162 12816.5 34200.7 12791.5 34242.3 12791.5 34328.2 12791.5 34344.8 12860.8 34367 12949.4 34405.7 13104.6 34508.2 13509 34533.2 13617 34541.5 13653.1 34688.3 13985.5 34990.3 13985.5 35109.4 13985.5 35139.8 13891.3 35139.8 13791.6 35139.8 13633.7 35023.5 13317.9 34968.1 13171 34943.2 13104.6 34932.1 13074.1 34932.1 13018.7 34932.1 12888.5 35029 12791.5 35159.2 12791.5 35419.6 12791.5 35522.1 13196 35522.1 13218.1 35522.1 13245.8 35497.2 13245.8 35488.9 13245.8 35461.2 13245.8 35461.2 13237.5 35447.3 13196 35405.8 13049.2 35317.1 12852.5 35164.8 12852.5 35117.7 12852.5 35098.3 12880.2 35098.3 12943.9 35098.3 13013.1 35123.2 13079.6 35148.1 13140.6 35200.8 13284.6 35317.1 13592.1 35317.1 13750 35317.1 13930.1 35206.3 14046.4 34998.5 14046.4 34790.8 14046.4 34649.5 13924.5 34547 13777.7 34544.3 13813.7 34535.9 13907.9 34458.4 13974.4 34389.1 14032.6 34300.5 14046.4 34231.2 14046.4 33981.9 14046.4 33846.2 13869.1 33799.1 13805.4 33785.2 13963.3 33668.9 14046.4 33544.2 14046.4 33416.8 14046.4 33364.1 13938.4 33339.2 13888.5 33289.3 13791.6 33253.3 13628.1 33253.3 13619.8 33253.3 13592.1 33281 13592.1 33286.6 13592.1 33314.3 13592.1 33317 13594.9 33333.7 13655.8 33380.8 13852.5 33436.2 13985.5 33535.9 13985.5 33580.2 13985.5 33621.8 13963.3 33621.8 13858 33621.8 13799.9 33613.5 13769.4 33577.5 13625.4L33416.8 12985.4"/>
<path transform="matrix(.00359712,0,0,-.00359712,0,83)" d="M36039.3 12849C36093.5 12849 36246.7 12852.9 36351.4 12889.7 36494.9 12940.1 36522 13033.2 36522 13091.4 36522 13198 36415.4 13262 36281.6 13262 36049 13262 35734.9 13083.6 35734.9 12752.1 35734.9 12556.3 35857 12387.6 36083.9 12387.6 36411.5 12387.6 36564.7 12579.5 36564.7 12606.7 36564.7 12618.3 36547.2 12639.6 36531.7 12639.6 36520.1 12639.6 36516.2 12635.8 36500.7 12620.3 36349.5 12441.9 36122.6 12441.9 36087.7 12441.9 35971.4 12441.9 35893.9 12519.4 35893.9 12676.5 35893.9 12703.6 35893.9 12742.4 35917.1 12849H36039.3ZM35932.6 12903.3C36012.1 13184.4 36227.3 13207.7 36281.6 13207.7 36366.9 13207.7 36438.6 13165 36438.6 13091.4 36438.6 12903.3 36111 12903.3 36027.6 12903.3H35932.6"/>
<path transform="matrix(.00359712,0,0,-.00359712,0,83)" stroke-width="110.783" stroke-linecap="butt" stroke-miterlimit="10" stroke-linejoin="miter" fill="none" stroke="#000000" d="M32507.7 11640.7H37459.1"/>
<path transform="matrix(.00359712,0,0,-.00359712,0,83)" d="M32751.8 9212.44C32743.5 9170.89 32726.8 9107.17 32726.8 9093.33 32726.8 9043.45 32765.6 9018.53 32807.2 9018.53 32840.4 9018.53 32890.3 9040.69 32909.7 9096.09 32912.5 9101.64 32945.7 9231.83 32962.3 9301.09L33023.3 9550.41C33039.9 9611.34 33056.5 9672.3 33070.3 9736 33081.4 9783.09 33103.6 9863.44 33106.4 9874.52 33147.9 9960.39 33294.7 10212.5 33557.9 10212.5 33682.6 10212.5 33707.5 10110 33707.5 10018.6 33707.5 9949.31 33688.1 9871.75 33665.9 9788.64L33588.4 9467.3 33533 9256.77C33521.9 9201.36 33497 9107.17 33497 9093.33 33497 9043.45 33535.7 9018.53 33577.3 9018.53 33663.2 9018.53 33679.8 9087.78 33702 9176.42 33740.7 9331.56 33843.2 9736 33868.2 9844.05 33876.5 9880.06 34023.3 10212.5 34325.3 10212.5 34444.4 10212.5 34474.8 10118.3 34474.8 10018.6 34474.8 9860.67 34358.5 9544.86 34303.1 9398.05 34278.2 9331.56 34267.1 9301.09 34267.1 9245.69 34267.1 9115.48 34364 9018.53 34494.2 9018.53 34754.6 9018.53 34857.1 9422.97 34857.1 9445.14 34857.1 9472.84 34832.2 9472.84 34823.9 9472.84 34796.2 9472.84 34796.2 9464.53 34782.3 9422.97 34740.8 9276.16 34652.1 9079.47 34499.8 9079.47 34452.7 9079.47 34433.3 9107.17 34433.3 9170.89 34433.3 9240.14 34458.2 9306.63 34483.1 9367.58 34535.8 9511.63 34652.1 9819.11 34652.1 9977.02 34652.1 10157.1 34541.3 10273.4 34333.5 10273.4 34125.8 10273.4 33984.5 10151.5 33882 10004.7 33879.3 10040.7 33870.9 10134.9 33793.4 10201.4 33724.1 10259.6 33635.5 10273.4 33566.2 10273.4 33316.9 10273.4 33181.2 10096.1 33134.1 10032.4 33120.2 10190.3 33003.9 10273.4 32879.2 10273.4 32751.8 10273.4 32699.1 10165.4 32674.2 10115.5 32624.3 10018.6 32588.3 9855.13 32588.3 9846.81 32588.3 9819.11 32616 9819.11 32621.6 9819.11 32649.3 9819.11 32652 9821.88 32668.7 9882.83 32715.8 10079.5 32771.2 10212.5 32870.9 10212.5 32915.2 10212.5 32956.8 10190.3 32956.8 10085 32956.8 10026.9 32948.5 9996.41 32912.5 9852.36L32751.8 9212.44"/>
<path transform="matrix(.00359712,0,0,-.00359712,0,83)" d="M36947.5 9728.36 36982.4 9778.77C37023.1 9831.11 37069.6 9879.58 37164.6 9887.34 37186 9889.28 37209.2 9891.22 37209.2 9929.98 37209.2 9943.56 37197.6 9957.13 37182.1 9957.13 37137.5 9957.13 37081.3 9949.38 37034.7 9949.38 36966.9 9949.38 36883.5 9957.13 36819.5 9957.13 36809.8 9957.13 36778.8 9957.13 36778.8 9914.48 36778.8 9889.28 36806 9887.34 36813.7 9887.34 36856.4 9885.41 36920.4 9873.77 36920.4 9819.48 36920.4 9798.16 36899 9763.27 36891.3 9749.69L36344.6 8852.08 36237.9 9831.11C36237.9 9885.41 36350.4 9887.34 36373.6 9887.34 36398.8 9887.34 36426 9887.34 36426 9929.98 36426 9931.92 36424 9957.13 36393 9957.13 36356.2 9957.13 36309.7 9953.25 36272.8 9951.31 36234 9949.38 36183.6 9949.38 36144.9 9949.38 36100.3 9949.38 35985.9 9957.13 35941.3 9957.13 35931.6 9957.13 35902.5 9957.13 35902.5 9914.48 35902.5 9887.34 35927.7 9887.34 35952.9 9887.34 36036.3 9887.34 36046 9873.77 36051.8 9854.38 36053.8 9842.75 36057.6 9788.47 36065.4 9728.36L35532.3 8852.08 35429.5 9802.03C35429.5 9809.8 35425.6 9829.17 35425.6 9831.11 35425.6 9887.34 35545.8 9887.34 35561.3 9887.34 35586.5 9887.34 35613.7 9887.34 35613.7 9929.98 35613.7 9937.75 35607.9 9957.13 35582.7 9957.13 35526.4 9957.13 35388.8 9949.38 35332.6 9949.38 35268.6 9949.38 35187.2 9957.13 35129 9957.13 35109.6 9957.13 35090.2 9949.38 35090.2 9916.42 35090.2 9887.34 35113.5 9887.34 35144.5 9887.34 35235.6 9887.34 35235.6 9875.7 35241.4 9827.23L35371.3 8646.58C35375.2 8607.8 35377.1 8594.22 35412 8594.22 35445 8594.22 35458.6 8611.67 35470.2 8633L36075.1 9629.48 36181.7 8644.63C36185.6 8603.92 36195.3 8594.22 36224.4 8594.22 36257.3 8594.22 36269 8611.67 36282.5 8634.94L36947.5 9728.36"/>
<path transform="matrix(.00359712,0,0,-.00359712,0,83)" d="M38938.4 14594.9C38938.4 14661.4 38938.4 14666.9 38874.7 14666.9 38703 14489.7 38459.2 14489.7 38370.5 14489.7V14403.8C38426 14403.8 38589.4 14403.8 38733.4 14475.8V13040.8C38733.4 12941.1 38725.1 12907.9 38475.8 12907.9H38387.2V12822C38484.1 12830.3 38725.1 12830.3 38835.9 12830.3 38946.8 12830.3 39187.8 12830.3 39284.7 12822V12907.9H39196.1C38946.8 12907.9 38938.4 12938.3 38938.4 13040.8V14594.9"/>
<path transform="matrix(.00359712,0,0,-.00359712,0,83)" d="M41256 13459.1H42028.9C42067.7 13459.1 42120.3 13459.1 42120.3 13514.5 42120.3 13570 42067.7 13570 42028.9 13570H41256V14345.6C41256 14384.4 41256 14437 41200.6 14437 41145.2 14437 41145.2 14384.4 41145.2 14345.6V13570H40369.5C40330.8 13570 40278.1 13570 40278.1 13514.5 40278.1 13459.1 40330.8 13459.1 40369.5 13459.1H41145.2V12683.5C41145.2 12644.7 41145.2 12592.1 41200.6 12592.1 41256 12592.1 41256 12644.7 41256 12683.5V13459.1"/>
<path transform="matrix(.00359712,0,0,-.00359712,0,83)" d="M43007.6 13525.6C43115.6 13844.2 43417.6 13847 43448 13847 43866.3 13847 43896.8 13362.2 43896.8 13143.3 43896.8 12974.4 43883 12927.3 43863.6 12871.9 43802.6 12669.6 43719.5 12348.3 43719.5 12276.3 43719.5 12245.8 43733.4 12226.4 43755.5 12226.4 43791.5 12226.4 43813.7 12287.4 43844.2 12392.6 43907.9 12625.3 43935.6 12783.2 43946.7 12869.1 43952.2 12905.1 43957.8 12941.1 43968.8 12977.1 44057.5 13251.4 44234.8 13664.1 44345.6 13883 44365 13916.2 44398.2 13977.2 44398.2 13988.3 44398.2 14016 44370.5 14016 44365 14016 44356.7 14016 44340 14016 44331.7 13996.6 44187.7 13733.4 44076.9 13456.4 43966.1 13176.6 43963.3 13262.5 43960.5 13473 43852.5 13741.7 43786 13910.7 43675.2 14046.4 43484 14046.4 43137.8 14046.4 42943.9 13625.4 42943.9 13539.5 42943.9 13511.8 42968.8 13511.8 42996.5 13511.8L43007.6 13525.6"/>
<path transform="matrix(.00359712,0,0,-.00359712,0,83)" d="M44781.5 14908.8C44880.4 14883.6 44938.5 14883.6 44969.5 14883.6 45225.5 14883.6 45376.7 15058.1 45376.7 15087.2 45376.7 15108.5 45363.1 15114.3 45353.4 15114.3 45349.5 15114.3 45345.7 15114.3 45337.9 15108.5 45291.4 15091 45188.6 15052.3 45045.2 15052.3 44990.9 15052.3 44888.1 15056.1 44762.1 15104.6 44742.7 15114.3 44738.8 15114.3 44736.9 15114.3 44711.7 15114.3 44711.7 15093 44711.7 15062V14490C44711.7 14457.1 44711.7 14433.8 44742.7 14433.8 44760.2 14433.8 44762.1 14437.7 44781.5 14461 44864.9 14567.6 44983.1 14583.1 45051 14583.1 45167.3 14583.1 45219.6 14490 45229.3 14474.5 45264.2 14410.5 45275.9 14336.9 45275.9 14224.4 45275.9 14166.3 45275.9 14051.9 45217.7 13966.6 45169.2 13896.8 45085.9 13850.3 44990.9 13850.3 44864.9 13850.3 44735 13920.1 44686.5 14048 44760.2 14042.2 44797 14090.7 44797 14143 44797 14226.4 44725.3 14241.9 44700.1 14241.9 44696.2 14241.9 44603.1 14241.9 44603.1 14137.2 44603.1 13962.7 44762.1 13788.2 44994.8 13788.2 45242.9 13788.2 45460 13972.4 45460 14216.7 45460 14435.8 45293.3 14637.4 45052.9 14637.4 44967.6 14637.4 44866.8 14616 44781.5 14542.4V14908.8"/>
<path transform="matrix(.00359712,0,0,-.00359712,0,83)" stroke-width="110.783" stroke-linecap="butt" stroke-miterlimit="10" stroke-linejoin="miter" fill="none" stroke="#000000" d="M38123.8 11640.7H45723.8"/>
<path transform="matrix(.00359712,0,0,-.00359712,0,83)" d="M41582.8 9262.3 41876.5 9547.64C42308.6 9929.92 42474.8 10079.5 42474.8 10356.5 42474.8 10672.3 42225.5 10893.9 41887.5 10893.9 41574.5 10893.9 41369.5 10639.1 41369.5 10392.5 41369.5 10237.4 41508 10237.4 41516.3 10237.4 41563.4 10237.4 41660.4 10270.7 41660.4 10384.2 41660.4 10456.3 41610.5 10528.3 41513.6 10528.3 41491.4 10528.3 41485.9 10528.3 41477.5 10525.5 41541.3 10705.6 41690.8 10808.1 41851.5 10808.1 42103.6 10808.1 42222.7 10583.7 42222.7 10356.5 42222.7 10134.9 42084.2 9916.06 41931.9 9744.31L41400 9151.5C41369.5 9121.03 41369.5 9115.48 41369.5 9049H42397.3L42474.8 9531.02H42405.6C42391.7 9447.91 42372.3 9326.02 42344.6 9284.47 42325.2 9262.3 42142.4 9262.3 42081.5 9262.3H41582.8"/>
<path transform="matrix(.00359712,0,0,-.00359712,0,83)" d="M46618.3 10950.8C46618.3 11133.6 46549.1 11241.6 46441.1 11241.6 46349.6 11241.6 46294.2 11172.4 46294.2 11094.8 46294.2 11020 46349.6 10948 46441.1 10948 46474.3 10948 46510.3 10959.1 46538 10984 46546.3 10989.5 46549.1 10992.3 46551.9 10992.3 46554.6 10992.3 46557.4 10989.5 46557.4 10950.8 46557.4 10745.8 46460.5 10579.6 46369 10488.2 46338.6 10457.7 46338.6 10452.1 46338.6 10443.8 46338.6 10424.4 46352.4 10413.4 46366.3 10413.4 46396.7 10413.4 46618.3 10626.7 46618.3 10950.8"/>
<path transform="matrix(.00359712,0,0,-.00359712,0,83)" d="M52770.5 1924.95C52770.5 1927.72 52770.5 1955.42 52734.5 1955.42 52670.8 1955.42 52468.6 1933.27 52396.5 1927.72 52374.4 1924.95 52343.9 1922.19 52343.9 1872.31 52343.9 1839.08 52368.8 1839.08 52410.4 1839.08 52543.4 1839.08 52548.9 1819.69 52548.9 1791.98 52548.9 1772.59 52515.7 1642.39 52496.3 1567.59L52327.3 888.906C52316.2 847.344 52296.8 769.781 52296.8 764.25 52296.8 733.766 52324.5 731 52341.1 731H52379.9C52573.8 764.25 52875.8 872.281 53161.1 1138.22 53526.8 1478.95 53601.6 1855.7 53601.6 1880.63 53601.6 1927.72 53568.3 1955.42 53521.3 1955.42 53499.1 1955.42 53435.4 1944.34 53413.2 1864 53235.9 1235.17 52814.8 924.906 52499 822.422L52770.5 1924.95"/>
<path transform="matrix(.00359712,0,0,-.00359712,0,83)" d="M54316.8 1481.16C54334.2 1550.95 54340 1570.34 54518.4 1570.34 54578.5 1570.34 54597.9 1570.34 54597.9 1612.98 54597.9 1614.92 54595.9 1640.13 54564.9 1640.13 54520.3 1640.13 54468 1636.25 54421.4 1634.31 54373 1632.38 54314.8 1632.38 54266.3 1632.38 54225.6 1632.38 54173.3 1634.31 54132.6 1634.31 54091.9 1634.31 54045.3 1640.13 54006.5 1640.13 53994.9 1640.13 53965.8 1640.13 53965.8 1597.48 53965.8 1570.34 53989.1 1570.34 54027.9 1570.34 54029.8 1570.34 54066.7 1570.34 54101.5 1566.47 54142.3 1562.58 54146.1 1558.7 54146.1 1539.31 54146.1 1535.44 54146.1 1525.75 54138.4 1496.67L53880.5 467.219C53863.1 401.297 53859.2 385.797 53709.9 385.797 53677 385.797 53651.8 385.797 53651.8 345.078 53651.8 316 53675 316 53709.9 316H54685.1C54733.6 316 54735.5 317.938 54751 354.781 54770.4 407.125 54915.8 783.234 54915.8 798.734 54915.8 804.547 54911.9 825.875 54882.8 825.875 54859.6 825.875 54855.7 816.188 54844.1 785.172 54770.4 600.984 54685.1 385.797 54330.3 385.797H54111.3C54051.1 385.797 54049.2 387.734 54049.2 405.188 54049.2 407.125 54049.2 416.813 54057 445.891L54316.8 1481.16"/>
<path transform="matrix(.00359712,0,0,-.00359712,0,83)" d="M70359 11607.9C70439.4 11607.9 70644.4 11613.5 70782.9 11671.6 70976.8 11754.7 70990.6 11918.2 70990.6 11957 70990.6 12078.8 70885.4 12192.4 70694.2 12192.4 70386.7 12192.4 69968.4 11923.7 69968.4 11438.9 69968.4 11156.4 70131.9 10937.5 70403.3 10937.5 70799.5 10937.5 71032.2 11231.2 71032.2 11264.4 71032.2 11281 71015.6 11300.4 70998.9 11300.4 70985.1 11300.4 70979.5 11294.9 70962.9 11272.7 70744.1 10998.5 70442.1 10998.5 70408.9 10998.5 70192.8 10998.5 70167.9 11231.2 70167.9 11319.8 70167.9 11353.1 70170.7 11438.9 70212.2 11607.9H70359ZM70228.8 11668.9C70336.9 12089.9 70622.2 12131.5 70694.2 12131.5 70824.4 12131.5 70899.2 12051.1 70899.2 11957 70899.2 11668.9 70456 11668.9 70342.4 11668.9H70228.8"/>
<path transform="matrix(.00359712,0,0,-.00359712,0,83)" d="M71930.7 11741.4C71944.3 11795.7 71948.1 11801.5 71990.8 11807.3H72114.9C72295.2 11807.3 72518.1 11807.3 72518.1 11607.7 72518.1 11528.2 72481.3 11406 72390.2 11336.2 72310.7 11274.2 72190.5 11243.2 72056.7 11243.2H71806.6L71930.7 11741.4ZM72281.6 11212.2C72512.3 11266.4 72717.8 11406 72717.8 11578.6 72717.8 11745.3 72520 11877.1 72238.9 11877.1H71643.8C71606.9 11877.1 71581.7 11877.1 71581.7 11834.5 71581.7 11807.3 71605 11807.3 71643.8 11807.3 71645.7 11807.3 71682.5 11807.3 71717.4 11803.5 71758.1 11799.6 71762 11795.7 71762 11776.3 71762 11772.4 71762 11762.8 71754.3 11733.7L71496.4 10704.2C71480.9 10638.3 71477 10622.8 71325.8 10622.8 71292.8 10622.8 71267.6 10622.8 71267.6 10582.1 71267.6 10562.7 71281.2 10553 71298.7 10553 71335.5 10553 71380.1 10558.8 71418.9 10558.8 71455.7 10558.8 71511.9 10560.8 71546.8 10560.8 71585.6 10560.8 71630.2 10558.8 71670.9 10558.8 71711.6 10558.8 71760.1 10553 71800.8 10553 71810.5 10553 71841.5 10553 71841.5 10593.7 71841.5 10622.8 71822.1 10622.8 71777.5 10622.8 71746.5 10622.8 71738.8 10622.8 71703.9 10626.7 71661.2 10632.5 71661.2 10636.4 71661.2 10655.8 71661.2 10657.7 71661.2 10669.3 71669 10698.4L71791.1 11188.9H72054.8C72221.5 11188.9 72293.2 11105.5 72293.2 11014.4 72293.2 10989.2 72275.8 10923.3 72266.1 10878.7 72242.8 10789.5 72235.1 10760.4 72235.1 10727.5 72235.1 10574.3 72376.6 10514.2 72520 10514.2 72698.4 10514.2 72776 10704.2 72776 10739.1 72776 10744.9 72772.1 10766.3 72743 10766.3 72717.8 10766.3 72713.9 10752.7 72708.1 10733.3 72681 10648 72609.2 10568.5 72527.8 10568.5 72477.4 10568.5 72440.6 10589.8 72440.6 10694.5 72440.6 10743 72452.2 10843.8 72460 10896.2 72467.7 10948.5 72467.7 10967.9 72467.7 10987.3 72467.7 11010.5 72467.7 11072.6 72413.4 11130.7 72376.6 11171.5 72324.2 11196.7 72281.6 11212.2"/>
<path transform="matrix(.00359712,0,0,-.00359712,0,83)" d="M53113.6 22616C53113.6 22621.6 53121.9 22652 53121.9 22654.8 53121.9 22657.6 53121.9 22682.5 53088.6 22682.5 53060.9 22682.5 53058.2 22674.2 53047.1 22627.1L52886.4 21987.2C52446 21973.3 52038.7 21604.9 52038.7 21228.2 52038.7 20965 52232.7 20746.2 52570.6 20726.8 52548.5 20640.9 52529.1 20552.2 52506.9 20466.4 52473.7 20336.2 52446 20230.9 52446 20222.6 52446 20194.9 52465.3 20192.1 52479.2 20192.1 52493 20192.1 52498.6 20194.9 52506.9 20203.2 52512.4 20208.7 52529.1 20275.2 52537.4 20314L52642.6 20726.8C53088.6 20740.6 53490.3 21114.6 53490.3 21485.8 53490.3 21704.6 53343.5 21959.5 52958.4 21987.2L53113.6 22616ZM52584.5 20787.7C52418.3 20796 52218.8 20893 52218.8 21170 52218.8 21502.4 52457 21890.2 52869.8 21926.3L52584.5 20787.7ZM52941.8 21926.3C53152.4 21915.2 53310.3 21787.7 53310.3 21544 53310.3 21217.1 53072 20820.9 52656.5 20787.7L52941.8 21926.3"/>
<path transform="matrix(.00359712,0,0,-.00359712,0,83)" d="M54995.4 22203.1C55026.4 22203.1 55072.9 22203.1 55072.9 22249.7 55072.9 22298.1 55028.3 22298.1 54995.4 22298.1H53839.9C53808.9 22298.1 53762.4 22298.1 53762.4 22251.6 53762.4 22203.1 53807 22203.1 53839.9 22203.1H54995.4"/>
<path transform="matrix(.00359712,0,0,-.00359712,0,83)" stroke-width="110.783" stroke-linecap="butt" stroke-miterlimit="10" stroke-linejoin="miter" fill="none" stroke="#000000" d="M54691.9 2902.35 59573.2 11356.9"/>
<path transform="matrix(.00359712,0,0,-.00359712,0,83)" d="M57643.6 8014.8 56068.9 6806.4 57384.5 6046.81"/>
<path transform="matrix(.00359712,0,0,-.00359712,0,83)" stroke-width="110.783" stroke-linecap="butt" stroke-miterlimit="10" stroke-linejoin="miter" fill="none" stroke="#000000" d="M59573.2 11356.9H68862"/>
<path transform="matrix(.00359712,0,0,-.00359712,0,83)" d="M65242 11356.9 63408.1 12116.4V10597.3"/>
<path transform="matrix(.00359712,0,0,-.00359712,0,83)" stroke-width="110.783" stroke-linecap="butt" stroke-dasharray="830.895,830.895" stroke-miterlimit="10" stroke-linejoin="miter" fill="none" stroke="#000000" d="M59573.2 11356.9 55019.8 19243.4"/>
<path transform="matrix(.00359712,0,0,-.00359712,0,83)" d="M56784.7 16186.6 57043.8 14218.6 58359.5 14978.2"/>
<path transform="matrix(.00359712,0,0,-.00359712,0,83)" d="M61762.6 14730C61762.6 14735.6 61770.9 14766 61770.9 14768.8 61770.9 14771.6 61770.9 14796.5 61737.6 14796.5 61709.9 14796.5 61707.2 14788.2 61696.1 14741.1L61535.4 14101.2C61095 14087.3 60687.7 13718.9 60687.7 13342.2 60687.7 13079 60881.7 12860.2 61219.6 12840.8 61197.5 12754.9 61178.1 12666.2 61155.9 12580.4 61122.7 12450.2 61095 12344.9 61095 12336.6 61095 12308.9 61114.3 12306.1 61128.2 12306.1 61142 12306.1 61147.6 12308.9 61155.9 12317.2 61161.4 12322.7 61178.1 12389.2 61186.4 12428L61291.6 12840.8C61737.6 12854.6 62139.3 13228.6 62139.3 13599.8 62139.3 13818.6 61992.5 14073.5 61607.4 14101.2L61762.6 14730ZM61233.5 12901.7C61067.3 12910 60867.8 13007 60867.8 13284 60867.8 13616.4 61106 14004.2 61518.8 14040.3L61233.5 12901.7ZM61590.8 14040.3C61801.4 14029.2 61959.3 13901.7 61959.3 13658 61959.3 13331.1 61721 12934.9 61305.5 12901.7L61590.8 14040.3"/>
<path transform="matrix(.00359712,0,0,-.00359712,0,83)" d="M63099.6 14317.1H63692.9C63718.1 14317.1 63764.6 14317.1 63764.6 14363.7 63764.6 14412.1 63720 14412.1 63692.9 14412.1H63099.6V15007.3C63099.6 15032.5 63099.6 15079.1 63053.1 15079.1 63004.6 15079.1 63004.6 15034.5 63004.6 15007.3V14412.1H62409.4C62384.2 14412.1 62337.7 14412.1 62337.7 14365.6 62337.7 14317.1 62382.3 14317.1 62409.4 14317.1H63004.6V13722C63004.6 13696.8 63004.6 13650.2 63051.2 13650.2 63099.6 13650.2 63099.6 13694.8 63099.6 13722V14317.1"/>
<path transform="matrix(.00359712,0,0,-.00359712,0,83)" d="M76542.1 11853.8C76583.7 11853.8 76636.3 11853.8 76636.3 11909.3 76636.3 11964.7 76583.7 11964.7 76544.9 11964.7H74885.5C74846.8 11964.7 74794.1 11964.7 74794.1 11909.3 74794.1 11853.8 74846.8 11853.8 74888.3 11853.8H76542.1ZM76544.9 11316.4C76583.7 11316.4 76636.3 11316.4 76636.3 11371.8 76636.3 11427.3 76583.7 11427.3 76542.1 11427.3H74888.3C74846.8 11427.3 74794.1 11427.3 74794.1 11371.8 74794.1 11316.4 74846.8 11316.4 74885.5 11316.4H76544.9"/>
<path transform="matrix(.00359712,0,0,-.00359712,0,83)" d="M80335.8 13866.4C80338.5 13883 80344.1 13896.8 80344.1 13916.2 80344.1 13963.3 80310.8 13991 80263.7 13991 80236 13991 80161.2 13971.6 80150.2 13871.9 80100.3 13974.4 80003.3 14046.4 79892.5 14046.4 79576.7 14046.4 79233.2 13658.6 79233.2 13259.7 79233.2 12985.4 79402.2 12822 79601.7 12822 79765.1 12822 79895.3 12952.2 79923 12982.7L79925.8 12979.9C79867.6 12733.4 79834.4 12619.8 79834.4 12614.2 79823.3 12589.3 79729.1 12315.1 79435.5 12315.1 79382.8 12315.1 79291.4 12317.8 79213.8 12342.8 79296.9 12367.7 79327.4 12439.7 79327.4 12486.8 79327.4 12531.1 79296.9 12583.8 79222.1 12583.8 79161.2 12583.8 79072.5 12533.9 79072.5 12423.1 79072.5 12309.5 79175 12254.1 79441 12254.1 79787.3 12254.1 79986.7 12470.2 80028.3 12636.4L80335.8 13866.4ZM79975.6 13176.6C79959 13104.6 79895.3 13035.3 79834.4 12982.7 79776.2 12932.8 79690.3 12882.9 79610 12882.9 79471.5 12882.9 79429.9 13027 79429.9 13137.8 79429.9 13270.8 79510.3 13597.7 79585 13738.9 79659.8 13874.7 79779 13985.5 79895.3 13985.5 80078.1 13985.5 80116.9 13761.1 80116.9 13747.3 80116.9 13733.4 80111.4 13716.8 80108.6 13705.7L79975.6 13176.6"/>
<path transform="matrix(.00359712,0,0,-.00359712,0,83)" stroke-width="110.783" stroke-linecap="butt" stroke-miterlimit="10" stroke-linejoin="miter" fill="none" stroke="#000000" d="M77895 11640.7H81588"/>
<path transform="matrix(.00359712,0,0,-.00359712,0,83)" d="M78972.6 8662.48 78485 9740.09C78465.7 9784.42 78451.8 9784.42 78443.5 9784.42 78440.7 9784.42 78426.9 9784.42 78396.4 9762.25L78133.2 9562.8C78097.2 9535.09 78097.2 9526.78 78097.2 9518.48 78097.2 9504.63 78105.5 9488 78124.9 9488 78141.5 9488 78188.6 9526.78 78219.1 9548.95 78235.7 9562.8 78277.3 9593.27 78307.8 9615.44L78853.5 8415.94C78872.9 8371.63 78886.7 8371.63 78911.7 8371.63 78953.2 8371.63 78961.5 8388.23 78980.9 8427.02L80238.6 11031C80258 11069.8 80258 11080.9 80258 11086.4 80258 11114.1 80235.8 11141.8 80202.6 11141.8 80180.4 11141.8 80161 11128 80138.9 11083.6L78972.6 8662.48"/>
<path transform="matrix(.00359712,0,0,-.00359712,0,83)" stroke-width="110.783" stroke-linecap="butt" stroke-miterlimit="10" stroke-linejoin="miter" fill="none" stroke="#000000" d="M80203.3 11086.9H81588"/>
<path transform="matrix(.00359712,0,0,-.00359712,0,83)" d="M80554.8 8953.3 80848.5 9238.64C81280.6 9620.92 81446.8 9770.52 81446.8 10047.5 81446.8 10363.3 81197.5 10584.9 80859.5 10584.9 80546.5 10584.9 80341.5 10330.1 80341.5 10083.5 80341.5 9928.41 80480 9928.41 80488.3 9928.41 80535.4 9928.41 80632.4 9961.66 80632.4 10075.2 80632.4 10147.3 80582.5 10219.3 80485.6 10219.3 80463.4 10219.3 80457.9 10219.3 80449.5 10216.5 80513.3 10396.6 80662.8 10499.1 80823.5 10499.1 81075.6 10499.1 81194.7 10274.7 81194.7 10047.5 81194.7 9825.91 81056.2 9607.06 80903.9 9435.31L80372 8842.5C80341.5 8812.03 80341.5 8806.48 80341.5 8740H81369.3L81446.8 9222.02H81377.6C81363.7 9138.91 81344.3 9017.02 81316.6 8975.47 81297.2 8953.3 81114.4 8953.3 81053.5 8953.3H80554.8"/>
<path transform="matrix(.00359712,0,0,-.00359712,0,83)" d="M83161.8 12985.4C83153.5 12943.9 83136.8 12880.2 83136.8 12866.3 83136.8 12816.5 83175.6 12791.5 83217.2 12791.5 83250.4 12791.5 83300.3 12813.7 83319.7 12869.1 83322.5 12874.6 83355.7 13004.8 83372.3 13074.1L83433.3 13323.4C83449.9 13384.3 83466.5 13445.3 83480.3 13509 83491.4 13556.1 83513.6 13636.4 83516.4 13647.5 83557.9 13733.4 83704.7 13985.5 83967.9 13985.5 84092.6 13985.5 84117.5 13883 84117.5 13791.6 84117.5 13722.3 84098.1 13644.8 84075.9 13561.6L83998.4 13240.3 83943 13029.8C83931.9 12974.4 83907 12880.2 83907 12866.3 83907 12816.5 83945.7 12791.5 83987.3 12791.5 84073.2 12791.5 84089.8 12860.8 84112 12949.4 84150.7 13104.6 84253.2 13509 84278.2 13617 84286.5 13653.1 84433.3 13985.5 84735.3 13985.5 84854.4 13985.5 84884.8 13891.3 84884.8 13791.6 84884.8 13633.7 84768.5 13317.9 84713.1 13171 84688.2 13104.6 84677.1 13074.1 84677.1 13018.7 84677.1 12888.5 84774 12791.5 84904.2 12791.5 85164.6 12791.5 85267.1 13196 85267.1 13218.1 85267.1 13245.8 85242.2 13245.8 85233.9 13245.8 85206.2 13245.8 85206.2 13237.5 85192.3 13196 85150.8 13049.2 85062.1 12852.5 84909.8 12852.5 84862.7 12852.5 84843.3 12880.2 84843.3 12943.9 84843.3 13013.1 84868.2 13079.6 84893.1 13140.6 84945.8 13284.6 85062.1 13592.1 85062.1 13750 85062.1 13930.1 84951.3 14046.4 84743.5 14046.4 84535.8 14046.4 84394.5 13924.5 84292 13777.7 84289.3 13813.7 84280.9 13907.9 84203.4 13974.4 84134.1 14032.6 84045.5 14046.4 83976.2 14046.4 83726.9 14046.4 83591.2 13869.1 83544.1 13805.4 83530.2 13963.3 83413.9 14046.4 83289.2 14046.4 83161.8 14046.4 83109.1 13938.4 83084.2 13888.5 83034.3 13791.6 82998.3 13628.1 82998.3 13619.8 82998.3 13592.1 83026 13592.1 83031.6 13592.1 83059.3 13592.1 83062 13594.9 83078.7 13655.8 83125.8 13852.5 83181.2 13985.5 83280.9 13985.5 83325.2 13985.5 83366.8 13963.3 83366.8 13858 83366.8 13799.9 83358.5 13769.4 83322.5 13625.4L83161.8 12985.4"/>
<path transform="matrix(.00359712,0,0,-.00359712,0,83)" d="M85784.3 12849C85838.5 12849 85991.7 12852.9 86096.4 12889.7 86239.9 12940.1 86267 13033.2 86267 13091.4 86267 13198 86160.4 13262 86026.6 13262 85794 13262 85479.9 13083.6 85479.9 12752.1 85479.9 12556.3 85602 12387.6 85828.9 12387.6 86156.5 12387.6 86309.7 12579.5 86309.7 12606.7 86309.7 12618.3 86292.2 12639.6 86276.7 12639.6 86265.1 12639.6 86261.2 12635.8 86245.7 12620.3 86094.5 12441.9 85867.6 12441.9 85832.7 12441.9 85716.4 12441.9 85638.9 12519.4 85638.9 12676.5 85638.9 12703.6 85638.9 12742.4 85662.1 12849H85784.3ZM85677.6 12903.3C85757.1 13184.4 85972.3 13207.7 86026.6 13207.7 86111.9 13207.7 86183.6 13165 86183.6 13091.4 86183.6 12903.3 85856 12903.3 85772.6 12903.3H85677.6"/>
<path transform="matrix(.00359712,0,0,-.00359712,0,83)" stroke-width="110.783" stroke-linecap="butt" stroke-miterlimit="10" stroke-linejoin="miter" fill="none" stroke="#000000" d="M82252.7 11640.7H87204.1"/>
<path transform="matrix(.00359712,0,0,-.00359712,0,83)" d="M82496.8 9212.44C82488.5 9170.89 82471.8 9107.17 82471.8 9093.33 82471.8 9043.45 82510.6 9018.53 82552.2 9018.53 82585.4 9018.53 82635.3 9040.69 82654.7 9096.09 82657.5 9101.64 82690.7 9231.83 82707.3 9301.09L82768.3 9550.41C82784.9 9611.34 82801.5 9672.3 82815.3 9736 82826.4 9783.09 82848.6 9863.44 82851.4 9874.52 82892.9 9960.39 83039.7 10212.5 83302.9 10212.5 83427.6 10212.5 83452.5 10110 83452.5 10018.6 83452.5 9949.31 83433.1 9871.75 83410.9 9788.64L83333.4 9467.3 83278 9256.77C83266.9 9201.36 83242 9107.17 83242 9093.33 83242 9043.45 83280.7 9018.53 83322.3 9018.53 83408.2 9018.53 83424.8 9087.78 83447 9176.42 83485.7 9331.56 83588.2 9736 83613.2 9844.05 83621.5 9880.06 83768.3 10212.5 84070.3 10212.5 84189.4 10212.5 84219.8 10118.3 84219.8 10018.6 84219.8 9860.67 84103.5 9544.86 84048.1 9398.05 84023.2 9331.56 84012.1 9301.09 84012.1 9245.69 84012.1 9115.48 84109 9018.53 84239.2 9018.53 84499.6 9018.53 84602.1 9422.97 84602.1 9445.14 84602.1 9472.84 84577.2 9472.84 84568.9 9472.84 84541.2 9472.84 84541.2 9464.53 84527.3 9422.97 84485.8 9276.16 84397.1 9079.47 84244.8 9079.47 84197.7 9079.47 84178.3 9107.17 84178.3 9170.89 84178.3 9240.14 84203.2 9306.63 84228.1 9367.58 84280.8 9511.63 84397.1 9819.11 84397.1 9977.02 84397.1 10157.1 84286.3 10273.4 84078.5 10273.4 83870.8 10273.4 83729.5 10151.5 83627 10004.7 83624.3 10040.7 83615.9 10134.9 83538.4 10201.4 83469.1 10259.6 83380.5 10273.4 83311.2 10273.4 83061.9 10273.4 82926.2 10096.1 82879.1 10032.4 82865.2 10190.3 82748.9 10273.4 82624.2 10273.4 82496.8 10273.4 82444.1 10165.4 82419.2 10115.5 82369.3 10018.6 82333.3 9855.13 82333.3 9846.81 82333.3 9819.11 82361 9819.11 82366.6 9819.11 82394.3 9819.11 82397 9821.88 82413.7 9882.83 82460.8 10079.5 82516.2 10212.5 82615.9 10212.5 82660.2 10212.5 82701.8 10190.3 82701.8 10085 82701.8 10026.9 82693.5 9996.41 82657.5 9852.36L82496.8 9212.44"/>
<path transform="matrix(.00359712,0,0,-.00359712,0,83)" d="M86692.5 9728.36 86727.4 9778.77C86768.1 9831.11 86814.6 9879.58 86909.6 9887.34 86931 9889.28 86954.2 9891.22 86954.2 9929.98 86954.2 9943.56 86942.6 9957.13 86927.1 9957.13 86882.5 9957.13 86826.3 9949.38 86779.7 9949.38 86711.9 9949.38 86628.5 9957.13 86564.5 9957.13 86554.8 9957.13 86523.8 9957.13 86523.8 9914.48 86523.8 9889.28 86551 9887.34 86558.7 9887.34 86601.4 9885.41 86665.4 9873.77 86665.4 9819.48 86665.4 9798.16 86644 9763.27 86636.3 9749.69L86089.6 8852.08 85982.9 9831.11C85982.9 9885.41 86095.4 9887.34 86118.6 9887.34 86143.8 9887.34 86171 9887.34 86171 9929.98 86171 9931.92 86169 9957.13 86138 9957.13 86101.2 9957.13 86054.7 9953.25 86017.8 9951.31 85979 9949.38 85928.6 9949.38 85889.9 9949.38 85845.3 9949.38 85730.9 9957.13 85686.3 9957.13 85676.6 9957.13 85647.5 9957.13 85647.5 9914.48 85647.5 9887.34 85672.7 9887.34 85697.9 9887.34 85781.3 9887.34 85791 9873.77 85796.8 9854.38 85798.8 9842.75 85802.6 9788.47 85810.4 9728.36L85277.3 8852.08 85174.5 9802.03C85174.5 9809.8 85170.6 9829.17 85170.6 9831.11 85170.6 9887.34 85290.8 9887.34 85306.3 9887.34 85331.5 9887.34 85358.7 9887.34 85358.7 9929.98 85358.7 9937.75 85352.9 9957.13 85327.7 9957.13 85271.4 9957.13 85133.8 9949.38 85077.6 9949.38 85013.6 9949.38 84932.2 9957.13 84874 9957.13 84854.6 9957.13 84835.2 9949.38 84835.2 9916.42 84835.2 9887.34 84858.5 9887.34 84889.5 9887.34 84980.6 9887.34 84980.6 9875.7 84986.4 9827.23L85116.3 8646.58C85120.2 8607.8 85122.1 8594.22 85157 8594.22 85190 8594.22 85203.6 8611.67 85215.2 8633L85820.1 9629.48 85926.7 8644.63C85930.6 8603.92 85940.3 8594.22 85969.4 8594.22 86002.3 8594.22 86014 8611.67 86027.5 8634.94L86692.5 9728.36"/>
<path transform="matrix(.00359712,0,0,-.00359712,0,83)" d="M88683.4 14594.9C88683.4 14661.4 88683.4 14666.9 88619.7 14666.9 88448 14489.7 88204.2 14489.7 88115.5 14489.7V14403.8C88171 14403.8 88334.4 14403.8 88478.4 14475.8V13040.8C88478.4 12941.1 88470.1 12907.9 88220.8 12907.9H88132.2V12822C88229.1 12830.3 88470.1 12830.3 88580.9 12830.3 88691.8 12830.3 88932.8 12830.3 89029.7 12822V12907.9H88941.1C88691.8 12907.9 88683.4 12938.3 88683.4 13040.8V14594.9"/>
<path transform="matrix(.00359712,0,0,-.00359712,0,83)" d="M91694.5 13459.1C91741.6 13459.1 91791.5 13459.1 91791.5 13514.5 91791.5 13570 91741.6 13570 91694.5 13570H90195.9C90148.8 13570 90098.9 13570 90098.9 13514.5 90098.9 13459.1 90148.8 13459.1 90195.9 13459.1H91694.5"/>
<path transform="matrix(.00359712,0,0,-.00359712,0,83)" d="M92751.6 13525.6C92859.6 13844.2 93161.6 13847 93192 13847 93610.3 13847 93640.8 13362.2 93640.8 13143.3 93640.8 12974.4 93627 12927.3 93607.6 12871.9 93546.6 12669.6 93463.5 12348.3 93463.5 12276.3 93463.5 12245.8 93477.4 12226.4 93499.5 12226.4 93535.5 12226.4 93557.7 12287.4 93588.2 12392.6 93651.9 12625.3 93679.6 12783.2 93690.7 12869.1 93696.2 12905.1 93701.8 12941.1 93712.8 12977.1 93801.5 13251.4 93978.8 13664.1 94089.6 13883 94109 13916.2 94142.2 13977.2 94142.2 13988.3 94142.2 14016 94114.5 14016 94109 14016 94100.7 14016 94084 14016 94075.7 13996.6 93931.7 13733.4 93820.9 13456.4 93710.1 13176.6 93707.3 13262.5 93704.5 13473 93596.5 13741.7 93530 13910.7 93419.2 14046.4 93228 14046.4 92881.8 14046.4 92687.9 13625.4 92687.9 13539.5 92687.9 13511.8 92712.8 13511.8 92740.5 13511.8L92751.6 13525.6"/>
<path transform="matrix(.00359712,0,0,-.00359712,0,83)" d="M94526.5 14908.8C94625.4 14883.6 94683.5 14883.6 94714.5 14883.6 94970.5 14883.6 95121.7 15058.1 95121.7 15087.2 95121.7 15108.5 95108.1 15114.3 95098.4 15114.3 95094.5 15114.3 95090.7 15114.3 95082.9 15108.5 95036.4 15091 94933.6 15052.3 94790.2 15052.3 94735.9 15052.3 94633.1 15056.1 94507.1 15104.6 94487.7 15114.3 94483.8 15114.3 94481.9 15114.3 94456.7 15114.3 94456.7 15093 94456.7 15062V14490C94456.7 14457.1 94456.7 14433.8 94487.7 14433.8 94505.2 14433.8 94507.1 14437.7 94526.5 14461 94609.9 14567.6 94728.1 14583.1 94796 14583.1 94912.3 14583.1 94964.6 14490 94974.3 14474.5 95009.2 14410.5 95020.9 14336.9 95020.9 14224.4 95020.9 14166.3 95020.9 14051.9 94962.7 13966.6 94914.2 13896.8 94830.9 13850.3 94735.9 13850.3 94609.9 13850.3 94480 13920.1 94431.5 14048 94505.2 14042.2 94542 14090.7 94542 14143 94542 14226.4 94470.3 14241.9 94445.1 14241.9 94441.2 14241.9 94348.1 14241.9 94348.1 14137.2 94348.1 13962.7 94507.1 13788.2 94739.8 13788.2 94987.9 13788.2 95205 13972.4 95205 14216.7 95205 14435.8 95038.3 14637.4 94797.9 14637.4 94712.6 14637.4 94611.8 14616 94526.5 14542.4V14908.8"/>
<path transform="matrix(.00359712,0,0,-.00359712,0,83)" stroke-width="110.783" stroke-linecap="butt" stroke-miterlimit="10" stroke-linejoin="miter" fill="none" stroke="#000000" d="M87868.9 11640.7H95468.8"/>
<path transform="matrix(.00359712,0,0,-.00359712,0,83)" d="M91327.8 9262.3 91621.5 9547.64C92053.6 9929.92 92219.8 10079.5 92219.8 10356.5 92219.8 10672.3 91970.5 10893.9 91632.5 10893.9 91319.5 10893.9 91114.5 10639.1 91114.5 10392.5 91114.5 10237.4 91253 10237.4 91261.3 10237.4 91308.4 10237.4 91405.4 10270.7 91405.4 10384.2 91405.4 10456.3 91355.5 10528.3 91258.6 10528.3 91236.4 10528.3 91230.9 10528.3 91222.5 10525.5 91286.3 10705.6 91435.8 10808.1 91596.5 10808.1 91848.6 10808.1 91967.7 10583.7 91967.7 10356.5 91967.7 10134.9 91829.2 9916.06 91676.9 9744.31L91145 9151.5C91114.5 9121.03 91114.5 9115.48 91114.5 9049H92142.3L92219.8 9531.02H92150.6C92136.7 9447.91 92117.3 9326.02 92089.6 9284.47 92070.2 9262.3 91887.4 9262.3 91826.5 9262.3H91327.8"/>
<path transform="matrix(.00359712,0,0,-.00359712,0,83)" d="M96332.9 11094.8C96332.9 11175.2 96266.4 11241.6 96186.1 11241.6 96105.7 11241.6 96039.2 11175.2 96039.2 11094.8 96039.2 11014.5 96105.7 10948 96186.1 10948 96266.4 10948 96332.9 11014.5 96332.9 11094.8"/>
</svg>
