<svg xmlns="http://www.w3.org/2000/svg" xmlns:xlink="http://www.w3.org/1999/xlink" version="1.1" width="182pt" height="71pt" viewBox="0 0 182 71">
<path transform="matrix(.00359712,0,0,-.00359712,0,71)" d="M19208 19598C19208 19600.8 19208 19628.5 19172 19628.5 19108.3 19628.5 18906.1 19606.3 18834.1 19600.8 18811.9 19598 18781.4 19595.3 18781.4 19545.4 18781.4 19512.2 18806.4 19512.2 18847.9 19512.2 18980.9 19512.2 18986.4 19492.8 18986.4 19465.1L18978.1 19409.7 18576.4 17814C18565.4 17775.3 18565.4 17769.7 18565.4 17753.1 18565.4 17689.4 18620.8 17675.5 18645.7 17675.5 18690 17675.5 18734.3 17708.8 18748.2 17747.5L18800.8 17958.1 18861.8 18207.4C18878.4 18268.3 18895 18329.3 18908.9 18393 18914.4 18409.6 18936.6 18501 18939.3 18517.7 18947.6 18542.6 19033.5 18697.7 19127.7 18772.5 19188.7 18816.8 19274.5 18869.5 19393.6 18869.5 19512.8 18869.5 19543.2 18775.3 19543.2 18675.6 19543.2 18526 19438 18224 19371.5 18055 19349.3 17991.3 19335.5 17958.1 19335.5 17902.7 19335.5 17772.5 19432.4 17675.5 19562.6 17675.5 19823 17675.5 19925.5 18080 19925.5 18102.1 19925.5 18129.8 19900.6 18129.8 19892.3 18129.8 19864.6 18129.8 19864.6 18121.5 19850.7 18080 19809.2 17933.2 19720.5 17736.5 19568.2 17736.5 19521.1 17736.5 19501.7 17764.2 19501.7 17827.9 19501.7 17897.1 19526.6 17963.6 19551.5 18024.6 19595.9 18143.7 19720.5 18473.3 19720.5 18634 19720.5 18814.1 19609.7 18930.4 19402 18930.4 19227.4 18930.4 19094.5 18844.5 18992 18717.1L19208 19598"/>
<path transform="matrix(.00359712,0,0,-.00359712,0,71)" d="M2492.05 19598C2492.05 19600.8 2492.05 19628.5 2456.03 19628.5 2392.31 19628.5 2190.09 19606.3 2118.06 19600.8 2095.91 19598 2065.44 19595.3 2065.44 19545.4 2065.44 19512.2 2090.36 19512.2 2131.92 19512.2 2264.89 19512.2 2270.42 19492.8 2270.42 19465.1L2262.13 19409.7 1860.44 17814C1849.36 17775.3 1849.36 17769.7 1849.36 17753.1 1849.36 17689.4 1904.77 17675.5 1929.7 17675.5 1974.02 17675.5 2018.34 17708.8 2032.19 17747.5L2084.83 17958.1 2145.77 18207.4C2162.39 18268.3 2179.02 18329.3 2192.86 18393 2198.41 18409.6 2220.56 18501 2223.33 18517.7 2231.64 18542.6 2317.52 18697.7 2411.7 18772.5 2472.66 18816.8 2558.53 18869.5 2677.64 18869.5 2796.77 18869.5 2827.23 18775.3 2827.23 18675.6 2827.23 18526 2721.97 18224 2655.48 18055 2633.33 17991.3 2619.47 17958.1 2619.47 17902.7 2619.47 17772.5 2716.42 17675.5 2846.63 17675.5 3107.03 17675.5 3209.52 18080 3209.52 18102.1 3209.52 18129.8 3184.59 18129.8 3176.28 18129.8 3148.58 18129.8 3148.58 18121.5 3134.73 18080 3093.17 17933.2 3004.53 17736.5 2852.17 17736.5 2805.08 17736.5 2785.69 17764.2 2785.69 17827.9 2785.69 17897.1 2810.61 17963.6 2835.55 18024.6 2879.88 18143.7 3004.53 18473.3 3004.53 18634 3004.53 18814.1 2893.72 18930.4 2685.95 18930.4 2511.44 18930.4 2378.47 18844.5 2275.97 18717.1L2492.05 19598"/>
<path transform="matrix(.00359712,0,0,-.00359712,0,71)" d="M2599.27 2761.7C2668.52 2883.58 2735 2983.31 2909.52 2997.16 2934.45 2999.94 2962.16 2999.94 2962.16 3052.56 2962.16 3063.64 2951.08 3083.03 2928.92 3083.03 2862.44 3083.03 2784.86 3074.73 2715.61 3074.73 2621.42 3074.73 2518.92 3083.03 2427.52 3083.03 2410.89 3083.03 2374.88 3083.03 2374.88 3030.41 2374.88 2999.94 2399.81 2997.16 2416.44 2997.16 2482.92 2994.39 2579.88 2972.23 2579.88 2889.13 2579.88 2858.66 2566.02 2836.48 2543.86 2797.7L1795.91 1492.95 1693.41 2866.97C1690.64 2922.38 1685.09 2994.39 1887.33 2997.16 1934.42 2997.16 1962.13 2997.16 1962.13 3052.56 1962.13 3080.27 1931.64 3083.03 1920.56 3083.03 1809.77 3083.03 1693.41 3074.73 1582.61 3074.73 1518.89 3074.73 1355.45 3083.03 1291.73 3083.03 1275.11 3083.03 1239.09 3083.03 1239.09 3027.64 1239.09 2997.16 1266.8 2997.16 1305.58 2997.16 1427.47 2997.16 1446.86 2980.55 1452.41 2927.91L1469.03 2714.61 768.172 1492.95 662.906 2897.44C662.906 2930.67 662.906 2994.39 873.438 2997.16 901.141 2997.16 931.609 2997.16 931.609 3052.56 931.609 3083.03 898.359 3083.03 892.828 3083.03 782.016 3083.03 665.672 3074.73 552.094 3074.73 455.141 3074.73 355.406 3083.03 261.219 3083.03 247.375 3083.03 211.359 3083.03 211.359 3030.41 211.359 2997.16 236.297 2997.16 280.609 2997.16 419.125 2997.16 421.891 2972.23 427.438 2894.67L552.094 1202.08C554.859 1152.22 557.641 1130.06 596.422 1130.06 629.656 1130.06 637.969 1146.67 662.906 1188.23L1477.34 2601.03 1579.83 1202.08C1585.38 1143.91 1590.91 1130.06 1624.16 1130.06 1660.17 1130.06 1676.8 1157.75 1690.64 1182.69L2599.27 2761.7"/>
<path transform="matrix(.00359712,0,0,-.00359712,0,71)" d="M4502.39 2634.14C4533.41 2634.14 4579.94 2634.14 4579.94 2680.67 4579.94 2729.14 4535.34 2729.14 4502.39 2729.14H3346.92C3315.91 2729.14 3269.38 2729.14 3269.38 2682.61 3269.38 2634.14 3313.97 2634.14 3346.92 2634.14H4502.39"/>
<path transform="matrix(.00359712,0,0,-.00359712,0,71)" d="M3161.61 1304.75C3163.55 1312.5 3165.48 1324.13 3165.48 1333.83 3165.48 1335.77 3165.48 1360.97 3134.47 1360.97 3132.53 1360.97 3022.03 1351.28 3008.45 1351.28 2971.63 1347.39 2936.72 1345.45 2899.89 1341.58 2868.88 1339.64 2845.61 1337.7 2845.61 1296.98 2845.61 1269.84 2872.75 1269.84 2896.02 1269.84 2989.06 1269.84 2989.06 1258.22 2989.06 1240.77 2989.06 1229.14 2979.38 1190.36 2971.63 1165.16L2874.69 773.547C2826.22 579.672 2816.53 540.891 2816.53 533.141 2816.53 506 2845.61 506 2853.36 506H2884.38C3056.92 533.141 3303.14 624.266 3510.58 808.438 3774.25 1043.02 3813.02 1295.05 3813.02 1298.92 3813.02 1333.83 3785.88 1360.97 3747.09 1360.97 3679.25 1360.97 3665.67 1306.69 3648.23 1252.41 3570.69 977.109 3310.89 680.484 2981.31 583.547L3161.61 1304.75"/>
<path transform="matrix(.00359712,0,0,-.00359712,0,71)" d="M19332.3 2949.7C19401.5 3071.58 19468 3171.31 19642.5 3185.16 19667.5 3187.94 19695.2 3187.94 19695.2 3240.56 19695.2 3251.64 19684.1 3271.03 19661.9 3271.03 19595.4 3271.03 19517.9 3262.73 19448.6 3262.73 19354.4 3262.73 19251.9 3271.03 19160.5 3271.03 19143.9 3271.03 19107.9 3271.03 19107.9 3218.41 19107.9 3187.94 19132.8 3185.16 19149.4 3185.16 19215.9 3182.39 19312.9 3160.23 19312.9 3077.13 19312.9 3046.66 19299 3024.48 19276.9 2985.7L18528.9 1680.95 18426.4 3054.97C18423.6 3110.38 18418.1 3182.39 18620.3 3185.16 18667.4 3185.16 18695.1 3185.16 18695.1 3240.56 18695.1 3268.27 18664.6 3271.03 18653.6 3271.03 18542.8 3271.03 18426.4 3262.73 18315.6 3262.73 18251.9 3262.73 18088.5 3271.03 18024.7 3271.03 18008.1 3271.03 17972.1 3271.03 17972.1 3215.64 17972.1 3185.16 17999.8 3185.16 18038.6 3185.16 18160.5 3185.16 18179.9 3168.55 18185.4 3115.91L18202 2902.61 17501.2 1680.95 17395.9 3085.44C17395.9 3118.67 17395.9 3182.39 17606.4 3185.16 17634.1 3185.16 17664.6 3185.16 17664.6 3240.56 17664.6 3271.03 17631.4 3271.03 17625.8 3271.03 17515 3271.03 17398.7 3262.73 17285.1 3262.73 17188.1 3262.73 17088.4 3271.03 16994.2 3271.03 16980.4 3271.03 16944.4 3271.03 16944.4 3218.41 16944.4 3185.16 16969.3 3185.16 17013.6 3185.16 17152.1 3185.16 17154.9 3160.23 17160.4 3082.67L17285.1 1390.08C17287.9 1340.22 17290.6 1318.06 17329.4 1318.06 17362.7 1318.06 17371 1334.67 17395.9 1376.23L18210.3 2789.03 18312.8 1390.08C18318.4 1331.91 18323.9 1318.06 18357.2 1318.06 18393.2 1318.06 18409.8 1345.75 18423.6 1370.69L19332.3 2949.7"/>
<path transform="matrix(.00359712,0,0,-.00359712,0,71)" d="M20689.6 2822.14H21282.9C21308.1 2822.14 21354.6 2822.14 21354.6 2868.67 21354.6 2917.14 21310 2917.14 21282.9 2917.14H20689.6V3512.33C20689.6 3537.53 20689.6 3584.06 20643.1 3584.06 20594.6 3584.06 20594.6 3539.47 20594.6 3512.33V2917.14H19999.4C19974.2 2917.14 19927.7 2917.14 19927.7 2870.61 19927.7 2822.14 19972.3 2822.14 19999.4 2822.14H20594.6V2226.97C20594.6 2201.77 20594.6 2155.23 20641.2 2155.23 20689.6 2155.23 20689.6 2199.83 20689.6 2226.97V2822.14"/>
<path transform="matrix(.00359712,0,0,-.00359712,0,71)" d="M19511.7 382.875C19503.9 353.781 19503.9 344.094 19503.9 342.156 19503.9 299.5 19538.8 280.125 19569.8 280.125 19639.6 280.125 19655.2 344.094 19662.9 377.047 19666.8 386.75 19705.6 541.844 19752.1 731.828 19812.2 691.125 19889.7 675.609 19959.5 675.609 20126.3 675.609 20234.8 811.328 20238.7 815.203 20275.5 681.422 20409.3 675.609 20438.4 675.609 20508.2 675.609 20556.7 718.266 20591.5 778.359 20634.2 853.969 20659.4 964.484 20659.4 972.234 20659.4 997.438 20634.2 997.438 20628.4 997.438 20601.2 997.438 20599.3 989.688 20585.7 937.344 20562.5 844.281 20525.6 729.891 20444.2 729.891 20393.8 729.891 20380.2 772.547 20380.2 824.891 20380.2 857.844 20395.7 927.641 20409.3 978.047 20422.9 1030.39 20442.3 1109.88 20452 1152.53L20496.5 1325.08C20508.2 1373.55 20529.5 1458.84 20529.5 1468.55 20529.5 1507.31 20498.5 1530.58 20465.5 1530.58 20444.2 1530.58 20407.4 1520.89 20386 1484.05 20380.2 1472.42 20364.7 1410.38 20355 1371.61L20314.3 1210.69 20254.2 968.359C20240.6 919.891 20240.6 916.016 20223.2 890.813 20163.1 805.5 20077.8 729.891 19967.3 729.891 19808.3 729.891 19808.3 867.547 19808.3 902.438 19808.3 952.844 19814.1 978.047 19841.3 1082.73 19860.7 1168.05 19864.5 1181.61 19883.9 1257.22L19911.1 1365.8C19920.8 1406.5 19940.1 1480.17 19940.1 1487.92 19940.1 1522.83 19913 1549.97 19874.2 1549.97 19804.4 1549.97 19787 1482.11 19781.2 1458.84L19511.7 382.875"/>
<path transform="matrix(.00359712,0,0,-.00359712,0,71)" stroke-width="110.783" stroke-linecap="butt" stroke-dasharray="830.895,830.895" stroke-miterlimit="10" stroke-linejoin="miter" fill="none" stroke="#000000" d="M4270.84 16892.1 10852.8 10309.6"/>
<path transform="matrix(.00359712,0,0,-.00359712,0,71)" stroke-width="110.783" stroke-linecap="butt" stroke-dasharray="830.895,830.895" stroke-miterlimit="10" stroke-linejoin="miter" fill="none" stroke="#000000" d="M10852.8 10309.6 17434.8 16892.1"/>
<path transform="matrix(.00359712,0,0,-.00359712,0,71)" stroke-width="110.783" stroke-linecap="butt" stroke-miterlimit="10" stroke-linejoin="miter" fill="none" stroke="#000000" d="M16600 4563.23 16504.3 4658.88 16286.3 4632.12 16101 4638.16 15972.6 4701.02 15909.7 4829.45 15903.7 5014.71 15930.4 5232.77 15957.1 5450.82 15951 5636.08 15888.2 5764.53 15759.7 5827.38 15574.5 5833.41 15356.4 5806.66 15138.4 5779.9 14953.1 5785.95 14824.6 5848.79 14761.8 5977.24 14755.7 6162.5 14782.4 6380.55 14809.2 6598.61 14803.1 6783.86 14740.2 6912.31 14611.8 6975.16 14426.5 6981.2 14208.5 6954.44 13990.4 6927.68 13805.2 6933.73 13676.7 6996.57 13613.8 7125.03 13607.8 7310.28 13634.5 7528.34 13661.2 7746.39 13655.2 7931.64 13592.3 8060.09 13463.9 8122.95 13278.6 8128.99 13060.6 8102.23 12842.5 8075.47 12657.2 8081.51 12528.8 8144.36 12465.9 8272.81 12459.9 8458.06 12486.6 8676.12 12513.3 8894.17 12507.3 9079.43 12444.4 9207.88 12315.9 9270.73 12130.7 9276.76 11912.6 9250.01 11694.6 9223.25 11509.3 9229.29 11380.8 9292.14 11318 9420.59 11311.9 9605.85 11338.7 9823.9 11365.4 10042 11359.3 10227.2 11296.5 10355.7 10852.8 10309.6"/>
<path transform="matrix(.00359712,0,0,-.00359712,0,71)" stroke-width="110.783" stroke-linecap="butt" stroke-miterlimit="10" stroke-linejoin="miter" fill="none" stroke="#000000" d="M10852.8 10309.6 10754.1 10210.9 10777.6 9989.66 10768.4 9801.26 10702.4 9669.68 10570.8 9603.69 10382.4 9594.52 10161.3 9618.13 9940.07 9641.75 9751.68 9632.57 9620.08 9566.59 9554.07 9435 9544.87 9246.61 9568.46 9025.41 9592.05 8804.22 9582.85 8615.83 9516.85 8484.25 9385.25 8418.26 9196.86 8409.08 8975.67 8432.7 8754.48 8456.32 8566.09 8447.14 8434.49 8381.15 8368.48 8249.56 8359.29 8061.18 8382.88 7839.98 8406.47 7618.79 8397.27 7430.4 8331.27 7298.81 8199.67 7232.83 8011.27 7223.65 7790.08 7247.27 7568.89 7270.89 7380.5 7261.71 7248.9 7195.72 7182.9 7064.14 7173.7 6875.74 7197.29 6654.55 7220.88 6433.36 7211.68 6244.96 7145.68 6113.38 7014.08 6047.39 6825.68 6038.21 6604.5 6061.83 6383.3 6085.45 6194.91 6076.27 6063.32 6010.29 5997.31 5878.7 5988.11 5690.31 6011.7 5469.12 6035.29 5247.93 6026.09 5059.54 5960.09 4927.95 5828.49 4861.96 5640.09 4852.78 5418.91 4876.4 5197.72 4900.02 5009.32 4890.84 4877.73 4824.85 4917.25 4374.75"/>
<path transform="matrix(.00359712,0,0,-.00359712,0,71)" d="M14371.3 10777.7C14440.5 10899.6 14507 10999.3 14681.5 11013.2 14706.5 11015.9 14734.2 11015.9 14734.2 11068.6 14734.2 11079.6 14723.1 11099 14700.9 11099 14634.4 11099 14556.9 11090.7 14487.6 11090.7 14393.4 11090.7 14290.9 11099 14199.5 11099 14182.9 11099 14146.9 11099 14146.9 11046.4 14146.9 11015.9 14171.8 11013.2 14188.4 11013.2 14254.9 11010.4 14351.9 10988.2 14351.9 10905.1 14351.9 10874.7 14338 10852.5 14315.9 10813.7L13567.9 9508.95 13465.4 10883C13462.6 10938.4 13457.1 11010.4 13659.3 11013.2 13706.4 11013.2 13734.1 11013.2 13734.1 11068.6 13734.1 11096.3 13703.6 11099 13692.6 11099 13581.8 11099 13465.4 11090.7 13354.6 11090.7 13290.9 11090.7 13127.5 11099 13063.7 11099 13047.1 11099 13011.1 11099 13011.1 11043.6 13011.1 11013.2 13038.8 11013.2 13077.6 11013.2 13199.5 11013.2 13218.9 10996.5 13224.4 10943.9L13241 10730.6 12540.2 9508.95 12434.9 10913.4C12434.9 10946.7 12434.9 11010.4 12645.4 11013.2 12673.1 11013.2 12703.6 11013.2 12703.6 11068.6 12703.6 11099 12670.4 11099 12664.8 11099 12554 11099 12437.7 11090.7 12324.1 11090.7 12227.1 11090.7 12127.4 11099 12033.2 11099 12019.4 11099 11983.4 11099 11983.4 11046.4 11983.4 11013.2 12008.3 11013.2 12052.6 11013.2 12191.1 11013.2 12193.9 10988.2 12199.4 10910.7L12324.1 9218.08C12326.9 9168.22 12329.6 9146.06 12368.4 9146.06 12401.7 9146.06 12410 9162.67 12434.9 9204.23L13249.3 10617 13351.8 9218.08C13357.4 9159.91 13362.9 9146.06 13396.2 9146.06 13432.2 9146.06 13448.8 9173.75 13462.6 9198.69L14371.3 10777.7"/>
<path transform="matrix(.00359712,0,0,-.00359712,0,71)" d="M16274.4 10650.1C16305.4 10650.1 16351.9 10650.1 16351.9 10696.7 16351.9 10745.1 16307.3 10745.1 16274.4 10745.1H15118.9C15087.9 10745.1 15041.4 10745.1 15041.4 10698.6 15041.4 10650.1 15086 10650.1 15118.9 10650.1H16274.4"/>
<path transform="matrix(.00359712,0,0,-.00359712,0,71)" d="M7575.27 10777.7C7644.52 10899.6 7711 10999.3 7885.52 11013.2 7910.45 11015.9 7938.16 11015.9 7938.16 11068.6 7938.16 11079.6 7927.08 11099 7904.92 11099 7838.44 11099 7760.86 11090.7 7691.61 11090.7 7597.42 11090.7 7494.92 11099 7403.52 11099 7386.89 11099 7350.88 11099 7350.88 11046.4 7350.88 11015.9 7375.81 11013.2 7392.44 11013.2 7458.92 11010.4 7555.88 10988.2 7555.88 10905.1 7555.88 10874.7 7542.02 10852.5 7519.86 10813.7L6771.91 9508.95 6669.41 10883C6666.64 10938.4 6661.09 11010.4 6863.33 11013.2 6910.42 11013.2 6938.13 11013.2 6938.13 11068.6 6938.13 11096.3 6907.64 11099 6896.56 11099 6785.77 11099 6669.41 11090.7 6558.61 11090.7 6494.89 11090.7 6331.45 11099 6267.73 11099 6251.11 11099 6215.09 11099 6215.09 11043.6 6215.09 11013.2 6242.8 11013.2 6281.58 11013.2 6403.47 11013.2 6422.86 10996.5 6428.41 10943.9L6445.03 10730.6 5744.17 9508.95 5638.91 10913.4C5638.91 10946.7 5638.91 11010.4 5849.44 11013.2 5877.14 11013.2 5907.61 11013.2 5907.61 11068.6 5907.61 11099 5874.36 11099 5868.83 11099 5758.02 11099 5641.67 11090.7 5528.09 11090.7 5431.14 11090.7 5331.41 11099 5237.22 11099 5223.38 11099 5187.36 11099 5187.36 11046.4 5187.36 11013.2 5212.3 11013.2 5256.61 11013.2 5395.13 11013.2 5397.89 10988.2 5403.44 10910.7L5528.09 9218.08C5530.86 9168.22 5533.64 9146.06 5572.42 9146.06 5605.66 9146.06 5613.97 9162.67 5638.91 9204.23L6453.34 10617 6555.83 9218.08C6561.38 9159.91 6566.91 9146.06 6600.16 9146.06 6636.17 9146.06 6652.8 9173.75 6666.64 9198.69L7575.27 10777.7"/>
<path transform="matrix(.00359712,0,0,-.00359712,0,71)" d="M8933.63 10650.1H9526.86C9552.06 10650.1 9598.59 10650.1 9598.59 10696.7 9598.59 10745.1 9554 10745.1 9526.86 10745.1H8933.63V11340.3C8933.63 11365.5 8933.63 11412.1 8887.09 11412.1 8838.63 11412.1 8838.63 11367.5 8838.63 11340.3V10745.1H8243.44C8218.23 10745.1 8171.7 10745.1 8171.7 10698.6 8171.7 10650.1 8216.3 10650.1 8243.44 10650.1H8838.63V10055C8838.63 10029.8 8838.63 9983.23 8885.16 9983.23 8933.63 9983.23 8933.63 10027.8 8933.63 10055V10650.1"/>
<path transform="matrix(.00359712,0,0,-.00359712,0,71)" d="M25226.1 10186.8C25267.7 10186.8 25320.3 10186.8 25320.3 10242.3 25320.3 10297.7 25267.7 10297.7 25228.9 10297.7H23569.5C23530.8 10297.7 23478.1 10297.7 23478.1 10242.3 23478.1 10186.8 23530.8 10186.8 23572.3 10186.8H25226.1ZM25228.9 9649.44C25267.7 9649.44 25320.3 9649.44 25320.3 9704.84 25320.3 9760.25 25267.7 9760.25 25226.1 9760.25H23572.3C23530.8 9760.25 23478.1 9760.25 23478.1 9704.84 23478.1 9649.44 23530.8 9649.44 23569.5 9649.44H25228.9"/>
<path transform="matrix(.00359712,0,0,-.00359712,0,71)" d="M26593.8 9494.3 26887.5 9779.64C27319.6 10161.9 27485.8 10311.5 27485.8 10588.5 27485.8 10904.3 27236.5 11125.9 26898.5 11125.9 26585.5 11125.9 26380.5 10871.1 26380.5 10624.5 26380.5 10469.4 26519 10469.4 26527.3 10469.4 26574.4 10469.4 26671.4 10502.7 26671.4 10616.2 26671.4 10688.3 26621.5 10760.3 26524.6 10760.3 26502.4 10760.3 26496.9 10760.3 26488.5 10757.5 26552.3 10937.6 26701.8 11040.1 26862.5 11040.1 27114.6 11040.1 27233.7 10815.7 27233.7 10588.5 27233.7 10366.9 27095.2 10148.1 26942.9 9976.31L26411 9383.5C26380.5 9353.03 26380.5 9347.48 26380.5 9281H27408.3L27485.8 9763.02H27416.6C27402.7 9679.91 27383.3 9558.02 27355.6 9516.47 27336.2 9494.3 27153.4 9494.3 27092.5 9494.3H26593.8"/>
<path transform="matrix(.00359712,0,0,-.00359712,0,71)" d="M28778.9 9973.55C28778.9 10053.9 28712.4 10120.4 28632.1 10120.4 28551.7 10120.4 28485.2 10053.9 28485.2 9973.55 28485.2 9893.22 28551.7 9826.73 28632.1 9826.73 28712.4 9826.73 28778.9 9893.22 28778.9 9973.55"/>
<path transform="matrix(.00359712,0,0,-.00359712,0,71)" d="M30417.7 11012.4C30417.7 11067.8 30379 11112.1 30315.2 11112.1 30240.4 11112.1 30165.6 11040.1 30165.6 10965.3 30165.6 10912.6 30204.4 10865.5 30270.9 10865.5 30334.6 10865.5 30417.7 10929.3 30417.7 11012.4ZM30207.2 9970.78C30240.4 10051.1 30240.4 10056.7 30268.1 10131.5 30290.3 10186.8 30304.2 10225.6 30304.2 10278.3 30304.2 10402.9 30215.5 10505.4 30077 10505.4 29816.6 10505.4 29711.3 10103.8 29711.3 10078.8 29711.3 10051.1 29739 10051.1 29744.6 10051.1 29772.3 10051.1 29775 10056.7 29788.9 10101 29863.7 10361.4 29974.5 10444.5 30068.7 10444.5 30090.8 10444.5 30137.9 10444.5 30137.9 10355.8 30137.9 10297.7 30118.5 10239.5 30107.5 10211.8 30085.3 10139.8 29960.7 9818.42 29916.3 9699.3 29888.6 9627.28 29852.6 9535.86 29852.6 9477.69 29852.6 9347.48 29946.8 9250.53 30079.8 9250.53 30340.2 9250.53 30442.7 9652.2 30442.7 9677.14 30442.7 9704.84 30417.7 9704.84 30409.4 9704.84 30381.7 9704.84 30381.7 9696.53 30367.9 9654.97 30318 9480.45 30226.6 9311.47 30085.3 9311.47 30038.2 9311.47 30018.8 9339.17 30018.8 9402.89 30018.8 9472.14 30035.5 9510.92 30099.2 9679.91L30207.2 9970.78"/>
<path transform="matrix(.00359712,0,0,-.00359712,0,71)" d="M32222.8 12199.4C32225.5 12216 32231.1 12229.8 32231.1 12249.2 32231.1 12296.3 32197.8 12324 32150.7 12324 32123 12324 32048.2 12304.6 32037.2 12204.9 31987.3 12307.4 31890.3 12379.4 31779.5 12379.4 31463.7 12379.4 31120.2 11991.6 31120.2 11592.7 31120.2 11318.4 31289.2 11155 31488.7 11155 31652.1 11155 31782.3 11285.2 31810 11315.7L31812.8 11312.9C31754.6 11066.4 31721.4 10952.8 31721.4 10947.2 31710.3 10922.3 31616.1 10648.1 31322.5 10648.1 31269.8 10648.1 31178.4 10650.8 31100.8 10675.8 31183.9 10700.7 31214.4 10772.7 31214.4 10819.8 31214.4 10864.1 31183.9 10916.8 31109.1 10916.8 31048.2 10916.8 30959.5 10866.9 30959.5 10756.1 30959.5 10642.5 31062 10587.1 31328 10587.1 31674.3 10587.1 31873.7 10803.2 31915.3 10969.4L32222.8 12199.4ZM31862.6 11509.6C31846 11437.6 31782.3 11368.3 31721.4 11315.7 31663.2 11265.8 31577.3 11215.9 31497 11215.9 31358.5 11215.9 31316.9 11360 31316.9 11470.8 31316.9 11603.8 31397.3 11930.7 31472 12071.9 31546.8 12207.7 31666 12318.5 31782.3 12318.5 31965.1 12318.5 32003.9 12094.1 32003.9 12080.3 32003.9 12066.4 31998.4 12049.8 31995.6 12038.7L31862.6 11509.6"/>
<path transform="matrix(.00359712,0,0,-.00359712,0,71)" d="M33318 12512.8H33252.1C33246.3 12470.2 33226.9 12355.8 33201.7 12336.4 33186.2 12324.8 33036.9 12324.8 33009.8 12324.8H32653.1C32856.6 12505.1 32924.5 12559.4 33040.8 12650.5 33184.3 12764.9 33318 12885.1 33318 13069.3 33318 13303.8 33112.5 13447.3 32864.4 13447.3 32624 13447.3 32461.1 13278.6 32461.1 13100.3 32461.1 13001.4 32544.5 12991.7 32563.9 12991.7 32610.4 12991.7 32666.6 13024.7 32666.6 13094.5 32666.6 13129.3 32653.1 13197.2 32552.3 13197.2 32612.4 13334.9 32744.2 13377.5 32835.3 13377.5 33029.2 13377.5 33130 13226.3 33130 13069.3 33130 12900.6 33009.8 12766.8 32947.8 12697L32480.5 12235.6C32461.1 12218.2 32461.1 12214.3 32461.1 12160H33259.9L33318 12512.8"/>
<path transform="matrix(.00359712,0,0,-.00359712,0,71)" stroke-width="110.783" stroke-linecap="butt" stroke-miterlimit="10" stroke-linejoin="miter" fill="none" stroke="#000000" d="M30918.1 9973.53H33581"/>
<path transform="matrix(.00359712,0,0,-.00359712,0,71)" d="M32371.4 7838.08V7597.08C32371.4 7497.34 32365.9 7466.88 32160.9 7466.88H32102.7V7381C32216.3 7389.31 32360.4 7389.31 32476.7 7389.31 32593 7389.31 32739.9 7389.31 32853.5 7381V7466.88H32795.3C32590.3 7466.88 32584.7 7497.34 32584.7 7597.08V7838.08H32861.8V7923.95H32584.7V9184.39C32584.7 9239.8 32584.7 9256.42 32540.4 9256.42 32515.5 9256.42 32507.2 9256.42 32485 9223.17L31634.6 7923.95V7838.08H32371.4ZM32388.1 7923.95H31712.1L32388.1 8957.23V7923.95Z"/>
<path transform="matrix(.00359712,0,0,-.00359712,0,71)" d="M35217.8 10325.4C35220.5 10342 35226.1 10355.8 35226.1 10375.2 35226.1 10422.3 35192.8 10450 35145.7 10450 35118 10450 35043.2 10430.6 35032.2 10330.9 34982.3 10433.4 34885.3 10505.4 34774.5 10505.4 34458.7 10505.4 34115.2 10117.6 34115.2 9718.69 34115.2 9444.44 34284.2 9281 34483.7 9281 34647.1 9281 34777.3 9411.2 34805 9441.67L34807.8 9438.91C34749.6 9192.36 34716.4 9078.78 34716.4 9073.23 34705.3 9048.3 34611.1 8774.06 34317.5 8774.06 34264.8 8774.06 34173.4 8776.83 34095.8 8801.75 34178.9 8826.69 34209.4 8898.72 34209.4 8945.81 34209.4 8990.13 34178.9 9042.77 34104.1 9042.77 34043.2 9042.77 33954.5 8992.91 33954.5 8882.09 33954.5 8768.52 34057 8713.11 34323 8713.11 34669.3 8713.11 34868.7 8929.19 34910.3 9095.39L35217.8 10325.4ZM34857.6 9635.58C34841 9563.56 34777.3 9494.3 34716.4 9441.67 34658.2 9391.81 34572.3 9341.94 34492 9341.94 34353.5 9341.94 34311.9 9486 34311.9 9596.8 34311.9 9729.77 34392.3 10056.7 34467 10197.9 34541.8 10333.7 34661 10444.5 34777.3 10444.5 34960.1 10444.5 34998.9 10220.1 34998.9 10206.3 34998.9 10192.4 34993.4 10175.8 34990.6 10164.7L34857.6 9635.58"/>
<path transform="matrix(.00359712,0,0,-.00359712,0,71)" d="M35338.7 8553.88C35330.9 8524.78 35330.9 8515.09 35330.9 8513.16 35330.9 8470.5 35365.8 8451.13 35396.8 8451.13 35466.6 8451.13 35482.2 8515.09 35489.9 8548.05 35493.8 8557.75 35532.6 8712.84 35579.1 8902.83 35639.2 8862.13 35716.7 8846.61 35786.5 8846.61 35953.3 8846.61 36061.8 8982.33 36065.7 8986.2 36102.5 8852.42 36236.3 8846.61 36265.4 8846.61 36335.2 8846.61 36383.7 8889.27 36418.5 8949.36 36461.2 9024.97 36486.4 9135.48 36486.4 9143.23 36486.4 9168.44 36461.2 9168.44 36455.4 9168.44 36428.2 9168.44 36426.3 9160.69 36412.7 9108.34 36389.5 9015.28 36352.6 8900.89 36271.2 8900.89 36220.8 8900.89 36207.2 8943.55 36207.2 8995.89 36207.2 9028.84 36222.7 9098.64 36236.3 9149.05 36249.9 9201.39 36269.3 9280.88 36279 9323.53L36323.5 9496.08C36335.2 9544.55 36356.5 9629.84 36356.5 9639.55 36356.5 9678.31 36325.5 9701.58 36292.5 9701.58 36271.2 9701.58 36234.4 9691.89 36213 9655.05 36207.2 9643.42 36191.7 9581.38 36182 9542.61L36141.3 9381.69 36081.2 9139.36C36067.6 9090.89 36067.6 9087.02 36050.2 9061.81 35990.1 8976.5 35904.8 8900.89 35794.3 8900.89 35635.3 8900.89 35635.3 9038.55 35635.3 9073.44 35635.3 9123.84 35641.1 9149.05 35668.3 9253.73 35687.7 9339.05 35691.5 9352.61 35710.9 9428.22L35738.1 9536.8C35747.8 9577.5 35767.1 9651.17 35767.1 9658.92 35767.1 9693.83 35740 9720.97 35701.2 9720.97 35631.4 9720.97 35614 9653.11 35608.2 9629.84L35338.7 8553.88"/>
<path transform="matrix(.00359712,0,0,-.00359712,0,71)" d="M37066.6 9664.75C37068.5 9672.5 37070.5 9684.13 37070.5 9693.83 37070.5 9695.77 37070.5 9720.97 37039.5 9720.97 37037.5 9720.97 36927 9711.28 36913.5 9711.28 36876.6 9707.39 36841.7 9705.45 36804.9 9701.58 36773.9 9699.64 36750.6 9697.7 36750.6 9656.98 36750.6 9629.84 36777.8 9629.84 36801 9629.84 36894.1 9629.84 36894.1 9618.22 36894.1 9600.77 36894.1 9589.14 36884.4 9550.36 36876.6 9525.16L36779.7 9133.55C36731.2 8939.67 36721.5 8900.89 36721.5 8893.14 36721.5 8866 36750.6 8866 36758.4 8866H36789.4C36961.9 8893.14 37208.1 8984.27 37415.6 9168.44 37679.3 9403.02 37718 9655.05 37718 9658.92 37718 9693.83 37690.9 9720.97 37652.1 9720.97 37584.3 9720.97 37570.7 9666.69 37553.2 9612.41 37475.7 9337.11 37215.9 9040.48 36886.3 8943.55L37066.6 9664.75"/>
<path transform="matrix(.00359712,0,0,-.00359712,0,71)" d="M40631.1 10186.8C40672.7 10186.8 40725.3 10186.8 40725.3 10242.3 40725.3 10297.7 40672.7 10297.7 40633.9 10297.7H38974.5C38935.8 10297.7 38883.1 10297.7 38883.1 10242.3 38883.1 10186.8 38935.8 10186.8 38977.3 10186.8H40631.1ZM40633.9 9649.44C40672.7 9649.44 40725.3 9649.44 40725.3 9704.84 40725.3 9760.25 40672.7 9760.25 40631.1 9760.25H38977.3C38935.8 9760.25 38883.1 9760.25 38883.1 9704.84 38883.1 9649.44 38935.8 9649.44 38974.5 9649.44H40633.9"/>
<path transform="matrix(.00359712,0,0,-.00359712,0,71)" d="M42438.7 11012.4C42438.7 11067.8 42400 11112.1 42336.2 11112.1 42261.4 11112.1 42186.6 11040.1 42186.6 10965.3 42186.6 10912.6 42225.4 10865.5 42291.9 10865.5 42355.6 10865.5 42438.7 10929.3 42438.7 11012.4ZM42228.2 9970.78C42261.4 10051.1 42261.4 10056.7 42289.1 10131.5 42311.3 10186.8 42325.2 10225.6 42325.2 10278.3 42325.2 10402.9 42236.5 10505.4 42098 10505.4 41837.6 10505.4 41732.3 10103.8 41732.3 10078.8 41732.3 10051.1 41760 10051.1 41765.6 10051.1 41793.3 10051.1 41796 10056.7 41809.9 10101 41884.7 10361.4 41995.5 10444.5 42089.7 10444.5 42111.8 10444.5 42158.9 10444.5 42158.9 10355.8 42158.9 10297.7 42139.5 10239.5 42128.5 10211.8 42106.3 10139.8 41981.7 9818.42 41937.3 9699.3 41909.6 9627.28 41873.6 9535.86 41873.6 9477.69 41873.6 9347.48 41967.8 9250.53 42100.8 9250.53 42361.2 9250.53 42463.7 9652.2 42463.7 9677.14 42463.7 9704.84 42438.7 9704.84 42430.4 9704.84 42402.7 9704.84 42402.7 9696.53 42388.9 9654.97 42339 9480.45 42247.6 9311.47 42106.3 9311.47 42059.2 9311.47 42039.8 9339.17 42039.8 9402.89 42039.8 9472.14 42056.5 9510.92 42120.2 9679.91L42228.2 9970.78"/>
<path transform="matrix(.00359712,0,0,-.00359712,0,71)" d="M44242.8 12199.4C44245.5 12216 44251.1 12229.8 44251.1 12249.2 44251.1 12296.3 44217.8 12324 44170.7 12324 44143 12324 44068.2 12304.6 44057.2 12204.9 44007.3 12307.4 43910.3 12379.4 43799.5 12379.4 43483.7 12379.4 43140.2 11991.6 43140.2 11592.7 43140.2 11318.4 43309.2 11155 43508.7 11155 43672.1 11155 43802.3 11285.2 43830 11315.7L43832.8 11312.9C43774.6 11066.4 43741.4 10952.8 43741.4 10947.2 43730.3 10922.3 43636.1 10648.1 43342.5 10648.1 43289.8 10648.1 43198.4 10650.8 43120.8 10675.8 43203.9 10700.7 43234.4 10772.7 43234.4 10819.8 43234.4 10864.1 43203.9 10916.8 43129.1 10916.8 43068.2 10916.8 42979.5 10866.9 42979.5 10756.1 42979.5 10642.5 43082 10587.1 43348 10587.1 43694.3 10587.1 43893.7 10803.2 43935.3 10969.4L44242.8 12199.4ZM43882.6 11509.6C43866 11437.6 43802.3 11368.3 43741.4 11315.7 43683.2 11265.8 43597.3 11215.9 43517 11215.9 43378.5 11215.9 43336.9 11360 43336.9 11470.8 43336.9 11603.8 43417.3 11930.7 43492 12071.9 43566.8 12207.7 43686 12318.5 43802.3 12318.5 43985.1 12318.5 44023.9 12094.1 44023.9 12080.3 44023.9 12066.4 44018.4 12049.8 44015.6 12038.7L43882.6 11509.6"/>
<path transform="matrix(.00359712,0,0,-.00359712,0,71)" d="M45338 12512.8H45272.1C45266.3 12470.2 45246.9 12355.8 45221.7 12336.4 45206.2 12324.8 45056.9 12324.8 45029.8 12324.8H44673.1C44876.6 12505.1 44944.5 12559.4 45060.8 12650.5 45204.3 12764.9 45338 12885.1 45338 13069.3 45338 13303.8 45132.5 13447.3 44884.4 13447.3 44644 13447.3 44481.1 13278.6 44481.1 13100.3 44481.1 13001.4 44564.5 12991.7 44583.9 12991.7 44630.4 12991.7 44686.6 13024.7 44686.6 13094.5 44686.6 13129.3 44673.1 13197.2 44572.3 13197.2 44632.4 13334.9 44764.2 13377.5 44855.3 13377.5 45049.2 13377.5 45150 13226.3 45150 13069.3 45150 12900.6 45029.8 12766.8 44967.8 12697L44500.5 12235.6C44481.1 12218.2 44481.1 12214.3 44481.1 12160H45279.9L45338 12512.8"/>
<path transform="matrix(.00359712,0,0,-.00359712,0,71)" stroke-width="110.783" stroke-linecap="butt" stroke-miterlimit="10" stroke-linejoin="miter" fill="none" stroke="#000000" d="M42938.5 9973.53H45601.2"/>
<path transform="matrix(.00359712,0,0,-.00359712,0,71)" d="M43928.8 7594.3 44222.5 7879.64C44654.6 8261.92 44820.8 8411.52 44820.8 8688.53 44820.8 9004.33 44571.5 9225.94 44233.5 9225.94 43920.5 9225.94 43715.5 8971.09 43715.5 8724.55 43715.5 8569.41 43854 8569.41 43862.3 8569.41 43909.4 8569.41 44006.4 8602.66 44006.4 8716.23 44006.4 8788.25 43956.5 8860.28 43859.6 8860.28 43837.4 8860.28 43831.9 8860.28 43823.5 8857.52 43887.3 9037.58 44036.8 9140.06 44197.5 9140.06 44449.6 9140.06 44568.7 8915.69 44568.7 8688.53 44568.7 8466.91 44430.2 8248.06 44277.9 8076.31L43746 7483.5C43715.5 7453.03 43715.5 7447.48 43715.5 7381H44743.3L44820.8 7863.02H44751.6C44737.7 7779.91 44718.3 7658.02 44690.6 7616.47 44671.2 7594.3 44488.4 7594.3 44427.5 7594.3H43928.8"/>
<path transform="matrix(.00359712,0,0,-.00359712,0,71)" d="M47238.8 10325.4C47241.5 10342 47247.1 10355.8 47247.1 10375.2 47247.1 10422.3 47213.8 10450 47166.7 10450 47139 10450 47064.2 10430.6 47053.2 10330.9 47003.3 10433.4 46906.3 10505.4 46795.5 10505.4 46479.7 10505.4 46136.2 10117.6 46136.2 9718.69 46136.2 9444.44 46305.2 9281 46504.7 9281 46668.1 9281 46798.3 9411.2 46826 9441.67L46828.8 9438.91C46770.6 9192.36 46737.4 9078.78 46737.4 9073.23 46726.3 9048.3 46632.1 8774.06 46338.5 8774.06 46285.8 8774.06 46194.4 8776.83 46116.8 8801.75 46199.9 8826.69 46230.4 8898.72 46230.4 8945.81 46230.4 8990.13 46199.9 9042.77 46125.1 9042.77 46064.2 9042.77 45975.5 8992.91 45975.5 8882.09 45975.5 8768.52 46078 8713.11 46344 8713.11 46690.3 8713.11 46889.7 8929.19 46931.3 9095.39L47238.8 10325.4ZM46878.6 9635.58C46862 9563.56 46798.3 9494.3 46737.4 9441.67 46679.2 9391.81 46593.3 9341.94 46513 9341.94 46374.5 9341.94 46332.9 9486 46332.9 9596.8 46332.9 9729.77 46413.3 10056.7 46488 10197.9 46562.8 10333.7 46682 10444.5 46798.3 10444.5 46981.1 10444.5 47019.9 10220.1 47019.9 10206.3 47019.9 10192.4 47014.4 10175.8 47011.6 10164.7L46878.6 9635.58"/>
<path transform="matrix(.00359712,0,0,-.00359712,0,71)" d="M47359.7 8553.88C47351.9 8524.78 47351.9 8515.09 47351.9 8513.16 47351.9 8470.5 47386.8 8451.13 47417.8 8451.13 47487.6 8451.13 47503.2 8515.09 47510.9 8548.05 47514.8 8557.75 47553.6 8712.84 47600.1 8902.83 47660.2 8862.13 47737.7 8846.61 47807.5 8846.61 47974.3 8846.61 48082.8 8982.33 48086.7 8986.2 48123.5 8852.42 48257.3 8846.61 48286.4 8846.61 48356.2 8846.61 48404.7 8889.27 48439.5 8949.36 48482.2 9024.97 48507.4 9135.48 48507.4 9143.23 48507.4 9168.44 48482.2 9168.44 48476.4 9168.44 48449.2 9168.44 48447.3 9160.69 48433.7 9108.34 48410.5 9015.28 48373.6 8900.89 48292.2 8900.89 48241.8 8900.89 48228.2 8943.55 48228.2 8995.89 48228.2 9028.84 48243.7 9098.64 48257.3 9149.05 48270.9 9201.39 48290.3 9280.88 48300 9323.53L48344.5 9496.08C48356.2 9544.55 48377.5 9629.84 48377.5 9639.55 48377.5 9678.31 48346.5 9701.58 48313.5 9701.58 48292.2 9701.58 48255.4 9691.89 48234 9655.05 48228.2 9643.42 48212.7 9581.38 48203 9542.61L48162.3 9381.69 48102.2 9139.36C48088.6 9090.89 48088.6 9087.02 48071.2 9061.81 48011.1 8976.5 47925.8 8900.89 47815.3 8900.89 47656.3 8900.89 47656.3 9038.55 47656.3 9073.44 47656.3 9123.84 47662.1 9149.05 47689.3 9253.73 47708.7 9339.05 47712.5 9352.61 47731.9 9428.22L47759.1 9536.8C47768.8 9577.5 47788.1 9651.17 47788.1 9658.92 47788.1 9693.83 47761 9720.97 47722.2 9720.97 47652.4 9720.97 47635 9653.11 47629.2 9629.84L47359.7 8553.88"/>
<path transform="matrix(.00359712,0,0,-.00359712,0,71)" d="M49086.6 9664.75C49088.5 9672.5 49090.5 9684.13 49090.5 9693.83 49090.5 9695.77 49090.5 9720.97 49059.5 9720.97 49057.5 9720.97 48947 9711.28 48933.5 9711.28 48896.6 9707.39 48861.7 9705.45 48824.9 9701.58 48793.9 9699.64 48770.6 9697.7 48770.6 9656.98 48770.6 9629.84 48797.8 9629.84 48821 9629.84 48914.1 9629.84 48914.1 9618.22 48914.1 9600.77 48914.1 9589.14 48904.4 9550.36 48896.6 9525.16L48799.7 9133.55C48751.2 8939.67 48741.5 8900.89 48741.5 8893.14 48741.5 8866 48770.6 8866 48778.4 8866H48809.4C48981.9 8893.14 49228.1 8984.27 49435.6 9168.44 49699.3 9403.02 49738 9655.05 49738 9658.92 49738 9693.83 49710.9 9720.97 49672.1 9720.97 49604.3 9720.97 49590.7 9666.69 49573.2 9612.41 49495.7 9337.11 49235.9 9040.48 48906.3 8943.55L49086.6 9664.75"/>
<path transform="matrix(.00359712,0,0,-.00359712,0,71)" d="M50510.9 9427.81C50510.9 9508.16 50444.4 9574.64 50364.1 9574.64 50283.7 9574.64 50217.2 9508.16 50217.2 9427.81 50217.2 9347.48 50283.7 9281 50364.1 9281 50444.4 9281 50510.9 9347.48 50510.9 9427.81"/>
</svg>
