<svg xmlns="http://www.w3.org/2000/svg" xmlns:xlink="http://www.w3.org/1999/xlink" version="1.1" width="165pt" height="83pt" viewBox="0 0 165 83">
<path transform="matrix(.00359712,0,0,-.00359712,0,83)" d="M1503.05 2025.03C1503.05 2027.81 1503.05 2055.52 1467.03 2055.52 1403.31 2055.52 1201.09 2033.34 1129.06 2027.81 1106.91 2025.03 1076.44 2022.27 1076.44 1972.41 1076.44 1939.16 1101.36 1939.16 1142.92 1939.16 1275.89 1939.16 1281.42 1919.77 1281.42 1892.06L1273.13 1836.67 871.438 241.031C860.359 202.25 860.359 196.719 860.359 180.094 860.359 116.375 915.766 102.531 940.703 102.531 985.016 102.531 1029.34 135.766 1043.19 174.547L1095.83 385.094 1156.77 634.406C1173.39 695.344 1190.02 756.297 1203.86 820 1209.41 836.625 1231.56 928.047 1234.33 944.672 1242.64 969.594 1328.52 1124.73 1422.7 1199.52 1483.66 1243.84 1569.53 1296.48 1688.64 1296.48 1807.77 1296.48 1838.23 1202.3 1838.23 1102.56 1838.23 952.969 1732.97 651.031 1666.48 482.047 1644.33 418.328 1630.47 385.094 1630.47 329.688 1630.47 199.484 1727.42 102.531 1857.63 102.531 2118.03 102.531 2220.52 506.969 2220.52 529.141 2220.52 556.844 2195.59 556.844 2187.28 556.844 2159.58 556.844 2159.58 548.531 2145.73 506.969 2104.17 360.156 2015.53 163.469 1863.17 163.469 1816.08 163.469 1796.69 191.172 1796.69 254.891 1796.69 324.141 1821.61 390.625 1846.55 451.578 1890.88 570.688 2015.53 900.344 2015.53 1061.02 2015.53 1241.08 1904.72 1357.42 1696.95 1357.42 1522.44 1357.42 1389.47 1271.55 1286.97 1144.13L1503.05 2025.03"/>
<path transform="matrix(.00359712,0,0,-.00359712,0,83)" d="M19543.5 12561.5C19546.3 12572.6 19551.8 12586.5 19551.8 12603.1 19551.8 12628 19538 12628 19482.6 12628H18313.6C18247.1 12628 18244.3 12625.3 18227.7 12572.6L18075.3 12074C18069.8 12060.2 18067 12040.8 18067 12035.2 18067 12032.5 18067 12004.8 18100.3 12004.8 18125.2 12004.8 18130.7 12024.1 18136.3 12032.5 18241.5 12359.3 18385.6 12542.2 18817.8 12542.2H19269.3L17720.8 10810.8C17720.8 10808 17709.7 10769.3 17709.7 10760.9 17709.7 10736 17729.1 10736 17778.9 10736H18984C19050.4 10736 19053.2 10738.8 19069.8 10791.4L19266.5 11403.6C19269.3 11414.7 19277.6 11434.1 19277.6 11445.2 19277.6 11459 19266.5 11475.6 19241.6 11475.6 19216.7 11475.6 19213.9 11464.6 19194.5 11406.4 19072.6 11029.6 18939.6 10830.2 18468.7 10830.2H17995L19543.5 12561.5"/>
<path transform="matrix(.00359712,0,0,-.00359712,0,83)" d="M20638.4 12359.5C20638.4 12572.7 20613.2 12725.9 20524 12861.6 20463.9 12950.8 20343.7 13028.3 20188.6 13028.3 19738.8 13028.3 19738.8 12499 19738.8 12359.5 19738.8 12219.9 19738.8 11702.2 20188.6 11702.2 20638.4 11702.2 20638.4 12219.9 20638.4 12359.5ZM20188.6 11756.5C20099.4 11756.5 19981.2 11808.9 19942.4 11967.8 19915.2 12082.2 19915.2 12241.2 19915.2 12384.7 19915.2 12526.2 19915.2 12673.5 19944.3 12780.1 19985 12933.3 20109.1 12974 20188.6 12974 20293.3 12974 20394.1 12910 20429 12797.6 20460 12692.9 20462 12553.3 20462 12384.7 20462 12241.2 20462 12097.7 20436.8 11975.6 20398 11799.2 20266.1 11756.5 20188.6 11756.5"/>
<path transform="matrix(.00359712,0,0,-.00359712,0,83)" d="M19544.7 9738.88C19536.9 9709.78 19536.9 9700.09 19536.9 9698.16 19536.9 9655.5 19571.8 9636.13 19602.8 9636.13 19672.6 9636.13 19688.2 9700.09 19695.9 9733.05 19699.8 9742.75 19738.6 9897.84 19785.1 10087.8 19845.2 10047.1 19922.7 10031.6 19992.5 10031.6 20159.3 10031.6 20267.8 10167.3 20271.7 10171.2 20308.5 10037.4 20442.3 10031.6 20471.4 10031.6 20541.2 10031.6 20589.7 10074.3 20624.5 10134.4 20667.2 10210 20692.4 10320.5 20692.4 10328.2 20692.4 10353.4 20667.2 10353.4 20661.4 10353.4 20634.2 10353.4 20632.3 10345.7 20618.7 10293.3 20595.5 10200.3 20558.6 10085.9 20477.2 10085.9 20426.8 10085.9 20413.2 10128.5 20413.2 10180.9 20413.2 10213.8 20428.7 10283.6 20442.3 10334 20455.9 10386.4 20475.3 10465.9 20485 10508.5L20529.5 10681.1C20541.2 10729.5 20562.5 10814.8 20562.5 10824.5 20562.5 10863.3 20531.5 10886.6 20498.5 10886.6 20477.2 10886.6 20440.4 10876.9 20419 10840 20413.2 10828.4 20397.7 10766.4 20388 10727.6L20347.3 10566.7 20287.2 10324.4C20273.6 10275.9 20273.6 10272 20256.2 10246.8 20196.1 10161.5 20110.8 10085.9 20000.3 10085.9 19841.3 10085.9 19841.3 10223.5 19841.3 10258.4 19841.3 10308.8 19847.1 10334 19874.3 10438.7 19893.7 10524 19897.5 10537.6 19916.9 10613.2L19944.1 10721.8C19953.8 10762.5 19973.1 10836.2 19973.1 10843.9 19973.1 10878.8 19946 10906 19907.2 10906 19837.4 10906 19820 10838.1 19814.2 10814.8L19544.7 9738.88"/>
<path transform="matrix(.00359712,0,0,-.00359712,0,83)" d="M1269.58 22567C1269.58 22572.6 1277.88 22603 1277.88 22605.8 1277.88 22608.6 1277.88 22633.5 1244.64 22633.5 1216.94 22633.5 1214.17 22625.2 1203.09 22578.1L1042.42 21938.2C601.953 21924.3 194.734 21555.9 194.734 21179.2 194.734 20916 388.656 20697.2 726.609 20677.8 704.453 20591.9 685.063 20503.2 662.906 20417.4 629.656 20287.2 601.953 20181.9 601.953 20173.6 601.953 20145.9 621.344 20143.1 635.203 20143.1 649.047 20143.1 654.594 20145.9 662.906 20154.2 668.438 20159.7 685.063 20226.2 693.375 20265L798.641 20677.8C1244.64 20691.6 1646.31 21065.6 1646.31 21436.8 1646.31 21655.6 1499.5 21910.5 1114.44 21938.2L1269.58 22567ZM740.469 20738.7C574.25 20747 374.797 20844 374.797 21121 374.797 21453.4 613.031 21841.2 1025.8 21877.3L740.469 20738.7ZM1097.83 21877.3C1308.36 21866.2 1466.25 21738.7 1466.25 21495 1466.25 21168.1 1228.02 20771.9 812.484 20738.7L1097.83 21877.3"/>
<path transform="matrix(.00359712,0,0,-.00359712,0,83)" d="M2239.27 22363.5C2390.48 22363.5 2499.05 22258.8 2499.05 22051.4 2499.05 21811 2359.47 21739.3 2247.02 21739.3 2169.47 21739.3 1998.86 21760.6 1917.44 21875 2008.56 21878.8 2029.89 21942.8 2029.89 21983.5 2029.89 22045.6 1983.36 22090.2 1923.25 22090.2 1868.97 22090.2 1814.69 22057.2 1814.69 21977.7 1814.69 21795.5 2016.31 21677.2 2250.89 21677.2 2520.38 21677.2 2706.48 21857.5 2706.48 22051.4 2706.48 22202.6 2582.42 22353.8 2369.16 22398.4 2572.72 22472.1 2646.39 22617.5 2646.39 22735.8 2646.39 22888.9 2469.97 23003.3 2254.78 23003.3 2039.58 23003.3 1874.8 22898.6 1874.8 22743.5 1874.8 22677.6 1917.44 22640.8 1975.61 22640.8 2035.7 22640.8 2074.47 22685.3 2074.47 22739.6 2074.47 22795.9 2035.7 22836.6 1975.61 22840.5 2043.45 22925.8 2177.23 22947.1 2248.95 22947.1 2336.2 22947.1 2458.34 22904.4 2458.34 22735.8 2458.34 22654.3 2431.2 22565.2 2380.8 22505 2316.81 22431.4 2262.53 22427.5 2165.59 22421.7 2117.13 22417.8 2113.25 22417.8 2103.56 22415.9 2099.67 22415.9 2084.17 22412 2084.17 22390.7 2084.17 22363.5 2101.63 22363.5 2134.58 22363.5H2239.27"/>
<path transform="matrix(.00359712,0,0,-.00359712,0,83)" stroke-width="110.783" stroke-linecap="butt" stroke-miterlimit="10" stroke-linejoin="miter" fill="none" stroke="#000000" d="M5391.86 3097.77 8319.19 8167.98"/>
<path transform="matrix(.00359712,0,0,-.00359712,0,83)" d="M8666.18 8769 7845.82 8096.28 8333.03 8191.96 8493.79 7722.19Z"/>
<path transform="matrix(.00359712,0,0,-.00359712,0,83)" stroke-width="110.78" stroke-linecap="butt" stroke-miterlimit="10" stroke-linejoin="miter" fill="none" stroke="#000000" d="M8666.18 8769 7845.82 8096.28 8333.03 8191.96 8493.79 7722.19Z"/>
<path transform="matrix(.00359712,0,0,-.00359712,0,83)" d="M8787.05 5047.03C8787.05 5049.81 8787.05 5077.52 8751.03 5077.52 8687.31 5077.52 8485.09 5055.34 8413.06 5049.81 8390.91 5047.03 8360.44 5044.27 8360.44 4994.41 8360.44 4961.16 8385.36 4961.16 8426.92 4961.16 8559.89 4961.16 8565.42 4941.77 8565.42 4914.06L8557.13 4858.67 8155.44 3263.03C8144.36 3224.25 8144.36 3218.72 8144.36 3202.09 8144.36 3138.38 8199.77 3124.53 8224.7 3124.53 8260.7 3124.53 8302.27 3149.45 8318.88 3182.7 8332.73 3207.64 8457.39 3720.13 8474.02 3789.38 8568.2 3781.06 8795.36 3736.73 8795.36 3553.91 8795.36 3534.52 8795.36 3523.44 8787.05 3495.73 8781.5 3462.48 8775.97 3429.25 8775.97 3398.78 8775.97 3235.33 8886.77 3124.53 9030.83 3124.53 9113.92 3124.53 9188.72 3168.84 9249.67 3271.34 9318.92 3393.23 9349.39 3545.59 9349.39 3551.14 9349.39 3578.84 9324.45 3578.84 9316.16 3578.84 9288.45 3578.84 9285.67 3567.77 9277.36 3528.97 9221.97 3326.75 9158.25 3185.47 9036.36 3185.47 8983.73 3185.47 8947.72 3215.94 8947.72 3315.67 8947.72 3362.77 8958.8 3426.48 8969.88 3470.8 8980.95 3517.89 8980.95 3528.97 8980.95 3556.67 8980.95 3736.73 8806.44 3817.08 8570.97 3847.55 8656.84 3897.41 8745.48 3986.06 8809.2 4052.55 8942.17 4199.36 9069.61 4318.48 9205.34 4318.48 9221.97 4318.48 9224.73 4318.48 9230.28 4315.7 9263.52 4310.17 9266.28 4310.17 9288.45 4293.55 9293.98 4290.78 9293.98 4288 9299.53 4282.47 9166.56 4274.16 9141.63 4166.13 9141.63 4132.88 9141.63 4088.55 9172.09 4035.92 9246.89 4035.92 9318.92 4035.92 9399.25 4096.86 9399.25 4204.91 9399.25 4288 9335.55 4379.42 9210.88 4379.42 9133.31 4379.42 9005.89 4357.27 8806.44 4135.64 8712.25 4030.38 8604.22 3919.58 8498.94 3878.02L8787.05 5047.03"/>
<path transform="matrix(.00359712,0,0,-.00359712,0,83)" stroke-width="110.783" stroke-linecap="butt" stroke-dasharray="830.895,830.895" stroke-miterlimit="10" stroke-linejoin="miter" fill="none" stroke="#000000" d="M2626 3035.33 7416.21 11332.1"/>
<path transform="matrix(.00359712,0,0,-.00359712,0,83)" stroke-width="110.783" stroke-linecap="butt" stroke-miterlimit="10" stroke-linejoin="miter" fill="none" stroke="#000000" d="M5605.25 19196.9 8356.83 14431.1"/>
<path transform="matrix(.00359712,0,0,-.00359712,0,83)" d="M8703.84 13830 8531.42 14876.9 8370.68 14407.1 7883.45 14502.8Z"/>
<path transform="matrix(.00359712,0,0,-.00359712,0,83)" stroke-width="110.782" stroke-linecap="butt" stroke-miterlimit="10" stroke-linejoin="miter" fill="none" stroke="#000000" d="M8703.84 13830 8531.42 14876.9 8370.68 14407.1 7883.45 14502.8Z"/>
<path transform="matrix(.00359712,0,0,-.00359712,0,83)" d="M8241.66 17569C8219.5 17474.8 8213.95 17455.5 8092.06 17455.5 8058.83 17455.5 8028.36 17455.5 8028.36 17402.8 8028.36 17380.7 8042.2 17369.6 8064.36 17369.6 8139.16 17369.6 8219.5 17377.9 8297.06 17377.9 8388.48 17377.9 8482.67 17369.6 8571.31 17369.6 8585.16 17369.6 8621.17 17369.6 8621.17 17425 8621.17 17455.5 8593.47 17455.5 8554.69 17455.5 8416.19 17455.5 8416.19 17474.8 8416.19 17499.8 8416.19 17533 8532.53 17984.6 8551.92 18053.8 8587.94 17973.5 8665.5 17876.5 8806.78 17876.5 9128.13 17876.5 9474.39 18281 9474.39 18688.2 9474.39 18948.6 9316.48 19131.4 9105.95 19131.4 8967.45 19131.4 8834.48 19031.7 8743.06 18923.7 8715.36 19073.3 8596.25 19131.4 8493.75 19131.4 8366.31 19131.4 8313.69 19023.4 8288.75 18973.5 8238.89 18879.3 8202.88 18713.1 8202.88 18704.8 8202.88 18677.1 8230.58 18677.1 8236.13 18677.1 8263.81 18677.1 8266.59 18679.9 8283.22 18740.8 8330.3 18937.5 8385.7 19070.5 8485.44 19070.5 8532.53 19070.5 8571.31 19048.3 8571.31 18943 8571.31 18879.3 8563 18848.9 8551.92 18801.8L8241.66 17569ZM8729.22 18771.3C8748.61 18846.1 8823.39 18923.7 8873.27 18965.2 8970.22 19051.1 9050.55 19070.5 9097.64 19070.5 9208.45 19070.5 9274.94 18973.5 9274.94 18810.1 9274.94 18646.6 9183.52 18328.1 9133.66 18222.8 9039.47 18028.9 8906.5 17937.5 8804 17937.5 8621.17 17937.5 8585.16 18167.4 8585.16 18184 8585.16 18189.6 8585.16 18195.1 8593.47 18228.3L8729.22 18771.3"/>
<path transform="matrix(.00359712,0,0,-.00359712,0,83)" stroke-width="110.783" stroke-linecap="butt" stroke-dasharray="830.895,830.895" stroke-miterlimit="10" stroke-linejoin="miter" fill="none" stroke="#000000" d="M7416.21 11332.1 2877.04 19194.1"/>
<path transform="matrix(.00359712,0,0,-.00359712,0,83)" stroke-width="110.783" stroke-linecap="butt" stroke-miterlimit="10" stroke-linejoin="miter" fill="none" stroke="#000000" d="M7416.21 11332.1H7568.73L7721.25 11505.2 7873.77 11631.9 8026.29 11678.3 8178.82 11631.9 8331.33 11505.2 8483.86 11332.1 8636.38 11159 8788.9 11032.3 8941.42 10985.9 9093.94 11032.3 9246.46 11159 9398.99 11332.1 9551.51 11505.2 9704.03 11631.9 9856.55 11678.3 10009.1 11631.9 10161.6 11505.2 10314.1 11332.1 10466.6 11159 10619.2 11032.3 10771.7 10985.9 10924.2 11032.3 11076.7 11159 11229.2 11332.1 11381.8 11505.2 11534.3 11631.9 11686.8 11678.3 11839.3 11631.9 11991.9 11505.2 12144.4 11332.1 12296.9 11159 12449.4 11032.3 12601.9 10985.9 12754.5 11032.3 12907 11159 13059.5 11332.1 13212 11505.2 13364.6 11631.9 13517.1 11678.3 13669.6 11631.9 13822.1 11505.2 13974.6 11332.1 14127.2 11159 14279.7 11032.3 14432.2 10985.9 14584.7 11032.3 14737.3 11159 14889.8 11332.1 15042.3 11505.2 15194.8 11631.9 15347.3 11678.3 15499.9 11631.9 15652.4 11505.2 15804.9 11332.1 15957.4 11159 16109.9 11032.3 16262.5 10985.9 16570.4 11332.1"/>
<path transform="matrix(.00359712,0,0,-.00359712,0,83)" d="M24520.1 11762.8C24561.7 11762.8 24614.3 11762.8 24614.3 11818.3 24614.3 11873.7 24561.7 11873.7 24522.9 11873.7H22863.5C22824.8 11873.7 22772.1 11873.7 22772.1 11818.3 22772.1 11762.8 22824.8 11762.8 22866.3 11762.8H24520.1ZM24522.9 11225.4C24561.7 11225.4 24614.3 11225.4 24614.3 11280.8 24614.3 11336.3 24561.7 11336.3 24520.1 11336.3H22866.3C22824.8 11336.3 22772.1 11336.3 22772.1 11280.8 22772.1 11225.4 22824.8 11225.4 22863.5 11225.4H24522.9"/>
<path transform="matrix(.00359712,0,0,-.00359712,0,83)" d="M31021.8 13775.4C31024.5 13792 31030.1 13805.8 31030.1 13825.2 31030.1 13872.3 30996.8 13900 30949.7 13900 30922 13900 30847.2 13880.6 30836.2 13780.9 30786.3 13883.4 30689.3 13955.4 30578.5 13955.4 30262.7 13955.4 29919.2 13567.6 29919.2 13168.7 29919.2 12894.4 30088.2 12731 30287.7 12731 30451.1 12731 30581.3 12861.2 30609 12891.7L30611.8 12888.9C30553.6 12642.4 30520.4 12528.8 30520.4 12523.2 30509.3 12498.3 30415.1 12224.1 30121.5 12224.1 30068.8 12224.1 29977.4 12226.8 29899.8 12251.8 29982.9 12276.7 30013.4 12348.7 30013.4 12395.8 30013.4 12440.1 29982.9 12492.8 29908.1 12492.8 29847.2 12492.8 29758.5 12442.9 29758.5 12332.1 29758.5 12218.5 29861 12163.1 30127 12163.1 30473.3 12163.1 30672.7 12379.2 30714.3 12545.4L31021.8 13775.4ZM30661.6 13085.6C30645 13013.6 30581.3 12944.3 30520.4 12891.7 30462.2 12841.8 30376.3 12791.9 30296 12791.9 30157.5 12791.9 30115.9 12936 30115.9 13046.8 30115.9 13179.8 30196.3 13506.7 30271 13647.9 30345.8 13783.7 30465 13894.5 30581.3 13894.5 30764.1 13894.5 30802.9 13670.1 30802.9 13656.3 30802.9 13642.4 30797.4 13625.8 30794.6 13614.7L30661.6 13085.6"/>
<path transform="matrix(.00359712,0,0,-.00359712,0,83)" stroke-width="110.783" stroke-linecap="butt" stroke-miterlimit="10" stroke-linejoin="miter" fill="none" stroke="#000000" d="M25872.6 11549.5H34982.1"/>
<path transform="matrix(.00359712,0,0,-.00359712,0,83)" d="M26224.8 9170.3 26518.5 9455.64C26950.6 9837.92 27116.8 9987.52 27116.8 10264.5 27116.8 10580.3 26867.5 10801.9 26529.5 10801.9 26216.5 10801.9 26011.5 10547.1 26011.5 10300.5 26011.5 10145.4 26150 10145.4 26158.3 10145.4 26205.4 10145.4 26302.4 10178.7 26302.4 10292.2 26302.4 10364.3 26252.5 10436.3 26155.6 10436.3 26133.4 10436.3 26127.9 10436.3 26119.5 10433.5 26183.3 10613.6 26332.8 10716.1 26493.5 10716.1 26745.6 10716.1 26864.7 10491.7 26864.7 10264.5 26864.7 10042.9 26726.2 9824.06 26573.9 9652.31L26042 9059.5C26011.5 9029.03 26011.5 9023.48 26011.5 8957H27039.3L27116.8 9439.02H27047.6C27033.7 9355.91 27014.3 9234.02 26986.6 9192.47 26967.2 9170.3 26784.4 9170.3 26723.5 9170.3H26224.8"/>
<path transform="matrix(.00359712,0,0,-.00359712,0,83)" d="M28041.1 9560.91C28041.1 10012.4 28268.3 10128.8 28415.1 10128.8 28440 10128.8 28614.5 10126 28711.5 10026.3 28597.9 10018 28581.3 9934.88 28581.3 9898.86 28581.3 9826.84 28631.2 9771.44 28708.7 9771.44 28780.8 9771.44 28836.2 9818.53 28836.2 9901.64 28836.2 10090 28625.6 10198 28412.3 10198 28066 10198 27811.2 9898.86 27811.2 9555.36 27811.2 9200.78 28085.4 8926.53 28406.8 8926.53 28778 8926.53 28866.6 9258.95 28866.6 9286.66 28866.6 9314.36 28838.9 9314.36 28830.6 9314.36 28805.7 9314.36 28800.1 9303.28 28794.6 9286.66 28714.3 9029.03 28534.2 8995.78 28431.7 8995.78 28284.9 8995.78 28041.1 9114.91 28041.1 9560.91"/>
<path transform="matrix(.00359712,0,0,-.00359712,0,83)" d="M30251.8 9549.81C30251.8 9904.41 29974.7 10198 29639.5 10198 29293.3 10198 29024.6 9896.09 29024.6 9549.81 29024.6 9192.47 29312.7 8926.53 29636.8 8926.53 29972 8926.53 30251.8 9198 30251.8 9549.81ZM29639.5 8995.78C29520.4 8995.78 29398.5 9053.95 29323.8 9181.39 29254.5 9303.28 29254.5 9472.25 29254.5 9571.98 29254.5 9680.02 29254.5 9829.61 29321 9951.5 29395.8 10078.9 29526 10137.1 29636.8 10137.1 29758.7 10137.1 29877.8 10076.2 29949.8 9957.03 30021.8 9837.92 30021.8 9677.25 30021.8 9571.98 30021.8 9472.25 30021.8 9322.67 29960.9 9200.78 29899.9 9076.13 29778.1 8995.78 29639.5 8995.78"/>
<path transform="matrix(.00359712,0,0,-.00359712,0,83)" d="M30908.2 9494.42C30969.1 9483.33 31196.3 9439.02 31196.3 9239.56 31196.3 9098.28 31099.3 8987.47 30883.3 8987.47 30650.6 8987.47 30550.8 9145.38 30498.2 9380.84 30489.9 9416.84 30487.1 9427.94 30459.4 9427.94 30423.4 9427.94 30423.4 9408.55 30423.4 9358.67V8993.02C30423.4 8945.92 30423.4 8926.53 30453.9 8926.53 30467.7 8926.53 30470.5 8929.3 30523.1 8981.94 30528.7 8987.47 30528.7 8993.02 30578.5 9045.64 30700.4 8929.3 30825.1 8926.53 30883.3 8926.53 31201.8 8926.53 31329.3 9112.13 31329.3 9311.58 31329.3 9458.41 31246.2 9541.52 31212.9 9574.75 31121.5 9663.39 31013.5 9685.56 30897.1 9707.72 30742 9738.19 30556.4 9774.2 30556.4 9934.88 30556.4 10031.8 30628.4 10145.4 30866.6 10145.4 31171.4 10145.4 31185.2 9896.09 31190.8 9810.22 31193.5 9785.28 31218.5 9785.28 31224 9785.28 31260 9785.28 31260 9799.14 31260 9851.77V10131.6C31260 10178.7 31260 10198 31229.5 10198 31215.7 10198 31210.2 10198 31174.1 10164.8 31165.8 10153.7 31138.1 10128.8 31127 10120.5 31021.8 10198 30908.2 10198 30866.6 10198 30528.7 10198 30423.4 10012.4 30423.4 9857.31 30423.4 9760.36 30467.7 9682.8 30542.5 9621.84 30631.2 9549.81 30708.8 9533.2 30908.2 9494.42"/>
<path transform="matrix(.00359712,0,0,-.00359712,0,83)" d="M33149.4 10342.1C33149.4 10524.9 33099.6 10910 32817 10910 32432 10910 32005.3 10128.8 32005.3 9494.42 32005.3 9234.02 32085.7 8926.53 32337.8 8926.53 32728.4 8926.53 33149.4 9721.58 33149.4 10342.1ZM32299 9962.58C32346.1 10139.9 32401.5 10361.5 32512.3 10558.2 32587.1 10693.9 32689.6 10849 32814.3 10849 32950 10849 32966.6 10671.8 32966.6 10513.8 32966.6 10378.1 32944.4 10236.8 32878 9962.58H32299ZM32853 9873.94C32822.5 9746.5 32764.4 9511.03 32659.1 9311.58 32562.2 9123.22 32456.9 8987.47 32337.8 8987.47 32246.4 8987.47 32188.2 9067.81 32188.2 9325.44 32188.2 9441.78 32204.8 9602.45 32276.8 9873.94H32853"/>
<path transform="matrix(.00359712,0,0,-.00359712,0,83)" d="M34208.8 9160.45C34222.3 9212.8 34245.6 9305.84 34245.6 9315.55 34245.6 9354.31 34214.6 9377.58 34181.6 9377.58 34144.8 9377.58 34109.9 9354.31 34098.3 9321.36 34092.4 9305.84 34073 9224.42 34059.5 9175.95 34032.3 9065.45 34032.3 9061.58 34003.3 8953 33978 8846.38 33974.2 8830.86 33972.2 8774.64 33980 8735.88 33964.5 8699.03 33918 8640.88 33892.8 8609.86 33854 8576.89 33788.1 8576.89 33712.5 8576.89 33613.6 8604.03 33613.6 8755.25 33613.6 8854.13 33667.9 8997.59 33706.6 9096.47 33739.6 9181.77 33747.3 9199.22 33747.3 9232.17 33747.3 9325.23 33667.9 9396.97 33563.2 9396.97 33367.4 9396.97 33280.1 9133.3 33280.1 9100.34 33280.1 9075.14 33307.3 9075.14 33313.1 9075.14 33340.2 9075.14 33342.2 9084.84 33348 9106.16 33396.4 9267.08 33479.8 9342.69 33557.4 9342.69 33590.3 9342.69 33605.8 9321.36 33605.8 9274.83 33605.8 9230.23 33588.4 9187.59 33578.7 9162.39 33468.2 8879.33 33468.2 8840.56 33468.2 8780.45 33468.2 8551.69 33675.6 8522.61 33780.3 8522.61 33817.1 8522.61 33912.1 8522.61 33999.4 8652.5 34044 8565.27 34150.6 8522.61 34268.9 8522.61 34441.4 8522.61 34526.7 8671.89 34565.5 8751.38 34648.8 8914.23 34701.2 9156.56 34701.2 9245.75 34701.2 9391.16 34617.8 9398.91 34604.3 9398.91 34553.8 9398.91 34499.6 9346.56 34499.6 9296.16 34499.6 9263.2 34519 9247.69 34532.5 9236.06 34579 9197.28 34604.3 9143 34604.3 9080.95 34604.3 9055.75 34522.8 8576.89 34276.6 8576.89 34119.6 8576.89 34119.6 8716.48 34119.6 8749.44 34119.6 8801.78 34127.3 8832.81 34154.5 8943.31L34208.8 9160.45"/>
<path transform="matrix(.00359712,0,0,-.00359712,0,83)" d="M36230.9 10192.2C36230.9 10200.5 36230.9 10206 36183.8 10253.1 35837.6 10602.1 35748.9 11125.7 35748.9 11549.5 35748.9 12031.6 35854.2 12513.6 36194.9 12859.8 36230.9 12893.1 36230.9 12898.6 36230.9 12906.9 36230.9 12926.3 36219.8 12934.6 36203.2 12934.6 36175.5 12934.6 35926.2 12746.3 35762.8 12394.5 35621.5 12089.7 35588.3 11782.3 35588.3 11549.5 35588.3 11333.5 35618.7 10998.3 35771.1 10685.3 35937.3 10344.5 36175.5 10164.5 36203.2 10164.5 36219.8 10164.5 36230.9 10172.8 36230.9 10192.2"/>
<path transform="matrix(.00359712,0,0,-.00359712,0,83)" d="M36515.7 10519C36493.5 10424.8 36488 10405.5 36366.1 10405.5 36332.8 10405.5 36302.4 10405.5 36302.4 10352.8 36302.4 10330.7 36316.2 10319.6 36338.4 10319.6 36413.2 10319.6 36493.5 10327.9 36571.1 10327.9 36662.5 10327.9 36756.7 10319.6 36845.3 10319.6 36859.2 10319.6 36895.2 10319.6 36895.2 10375 36895.2 10405.5 36867.5 10405.5 36828.7 10405.5 36690.2 10405.5 36690.2 10424.8 36690.2 10449.8 36690.2 10483 36806.5 10934.6 36825.9 11003.8 36861.9 10923.5 36939.5 10826.5 37080.8 10826.5 37402.1 10826.5 37748.4 11231 37748.4 11638.2 37748.4 11898.6 37590.5 12081.4 37380 12081.4 37241.5 12081.4 37108.5 11981.7 37017.1 11873.7 36989.4 12023.3 36870.3 12081.4 36767.8 12081.4 36640.3 12081.4 36587.7 11973.4 36562.8 11923.5 36512.9 11829.3 36476.9 11663.1 36476.9 11654.8 36476.9 11627.1 36504.6 11627.1 36510.1 11627.1 36537.8 11627.1 36540.6 11629.9 36557.2 11690.8 36604.3 11887.5 36659.7 12020.5 36759.4 12020.5 36806.5 12020.5 36845.3 11998.3 36845.3 11893 36845.3 11829.3 36837 11798.9 36825.9 11751.8L36515.7 10519ZM37003.2 11721.3C37022.6 11796.1 37097.4 11873.7 37147.3 11915.2 37244.2 12001.1 37324.5 12020.5 37371.6 12020.5 37482.5 12020.5 37548.9 11923.5 37548.9 11760.1 37548.9 11596.6 37457.5 11278.1 37407.7 11172.8 37313.5 10978.9 37180.5 10887.5 37078 10887.5 36895.2 10887.5 36859.2 11117.4 36859.2 11134 36859.2 11139.6 36859.2 11145.1 36867.5 11178.3L37003.2 11721.3"/>
<path transform="matrix(.00359712,0,0,-.00359712,0,83)" d="M40225.5 11494.1C40272.6 11494.1 40322.5 11494.1 40322.5 11549.5 40322.5 11605 40272.6 11605 40225.5 11605H38726.9C38679.8 11605 38629.9 11605 38629.9 11549.5 38629.9 11494.1 38679.8 11494.1 38726.9 11494.1H40225.5"/>
<path transform="matrix(.00359712,0,0,-.00359712,0,83)" d="M41965 12749C41965 12751.8 41965 12779.5 41929 12779.5 41865.3 12779.5 41663.1 12757.3 41591.1 12751.8 41568.9 12749 41538.4 12746.3 41538.4 12696.4 41538.4 12663.2 41563.4 12663.2 41604.9 12663.2 41737.9 12663.2 41743.4 12643.8 41743.4 12616.1L41735.1 12560.7 41333.4 10965C41322.4 10926.3 41322.4 10920.7 41322.4 10904.1 41322.4 10840.4 41377.8 10826.5 41402.7 10826.5 41438.7 10826.5 41480.3 10851.5 41496.9 10884.7 41510.7 10909.6 41635.4 11422.1 41652 11491.4 41746.2 11483.1 41973.4 11438.7 41973.4 11255.9 41973.4 11236.5 41973.4 11225.4 41965 11197.7 41959.5 11164.5 41954 11131.3 41954 11100.8 41954 10937.3 42064.8 10826.5 42208.8 10826.5 42291.9 10826.5 42366.7 10870.8 42427.7 10973.3 42496.9 11095.2 42527.4 11247.6 42527.4 11253.1 42527.4 11280.8 42502.5 11280.8 42494.2 11280.8 42466.5 11280.8 42463.7 11269.8 42455.4 11231 42400 11028.8 42336.3 10887.5 42214.4 10887.5 42161.7 10887.5 42125.7 10917.9 42125.7 11017.7 42125.7 11064.8 42136.8 11128.5 42147.9 11172.8 42159 11219.9 42159 11231 42159 11258.7 42159 11438.7 41984.4 11519.1 41749 11549.5 41834.8 11599.4 41923.5 11688.1 41987.2 11754.5 42120.2 11901.4 42247.6 12020.5 42383.3 12020.5 42400 12020.5 42402.7 12020.5 42408.3 12017.7 42441.5 12012.2 42444.3 12012.2 42466.5 11995.5 42472 11992.8 42472 11990 42477.5 11984.5 42344.6 11976.2 42319.6 11868.1 42319.6 11834.9 42319.6 11790.5 42350.1 11737.9 42424.9 11737.9 42496.9 11737.9 42577.3 11798.9 42577.3 11906.9 42577.3 11990 42513.5 12081.4 42388.9 12081.4 42311.3 12081.4 42183.9 12059.3 41984.4 11837.6 41890.3 11732.4 41782.2 11621.6 41676.9 11580L41965 12749"/>
<path transform="matrix(.00359712,0,0,-.00359712,0,83)" d="M43499.6 11549.5C43499.6 11765.6 43469.1 12100.8 43316.8 12413.8 43150.5 12754.6 42912.3 12934.6 42884.6 12934.6 42868 12934.6 42856.9 12923.6 42856.9 12906.9 42856.9 12898.6 42856.9 12893.1 42909.5 12843.2 43181 12569 43338.9 12128.5 43338.9 11549.5 43338.9 11075.8 43236.4 10588.3 42892.9 10239.3 42856.9 10206 42856.9 10200.5 42856.9 10192.2 42856.9 10175.5 42868 10164.5 42884.6 10164.5 42912.3 10164.5 43161.6 10352.8 43325.1 10704.6 43466.3 11009.4 43499.6 11316.8 43499.6 11549.5"/>
<path transform="matrix(.00359712,0,0,-.00359712,0,83)" d="M43880.7 10129.9C43872.9 10100.8 43872.9 10091.1 43872.9 10089.2 43872.9 10046.5 43907.8 10027.1 43938.8 10027.1 44008.6 10027.1 44024.2 10091.1 44031.9 10124 44035.8 10133.8 44074.6 10288.8 44121.1 10478.8 44181.2 10438.1 44258.7 10422.6 44328.5 10422.6 44495.3 10422.6 44603.8 10558.3 44607.7 10562.2 44644.5 10428.4 44778.3 10422.6 44807.4 10422.6 44877.2 10422.6 44925.7 10465.3 44960.5 10525.4 45003.2 10601 45028.4 10711.5 45028.4 10719.2 45028.4 10744.4 45003.2 10744.4 44997.4 10744.4 44970.2 10744.4 44968.3 10736.7 44954.7 10684.3 44931.5 10591.3 44894.6 10476.9 44813.2 10476.9 44762.8 10476.9 44749.2 10519.5 44749.2 10571.9 44749.2 10604.8 44764.7 10674.6 44778.3 10725 44791.9 10777.4 44811.3 10856.9 44821 10899.5L44865.5 11072.1C44877.2 11120.5 44898.5 11205.8 44898.5 11215.5 44898.5 11254.3 44867.5 11277.6 44834.5 11277.6 44813.2 11277.6 44776.4 11267.9 44755 11231 44749.2 11219.4 44733.7 11157.4 44724 11118.6L44683.3 10957.7 44623.2 10715.4C44609.6 10666.9 44609.6 10663 44592.2 10637.8 44532.1 10552.5 44446.8 10476.9 44336.3 10476.9 44177.3 10476.9 44177.3 10614.5 44177.3 10649.4 44177.3 10699.8 44183.1 10725 44210.3 10829.7 44229.7 10915 44233.5 10928.6 44252.9 11004.2L44280.1 11112.8C44289.8 11153.5 44309.1 11227.2 44309.1 11234.9 44309.1 11269.8 44282 11297 44243.2 11297 44173.4 11297 44156 11229.1 44150.2 11205.8L43880.7 10129.9"/>
<path transform="matrix(.00359712,0,0,-.00359712,0,83)" d="M45792.9 11003.8C45792.9 11084.2 45726.4 11150.6 45646.1 11150.6 45565.7 11150.6 45499.2 11084.2 45499.2 11003.8 45499.2 10923.5 45565.7 10857 45646.1 10857 45726.4 10857 45792.9 10923.5 45792.9 11003.8"/>
</svg>
