<svg xmlns="http://www.w3.org/2000/svg" xmlns:xlink="http://www.w3.org/1999/xlink" version="1.1" width="297pt" height="64pt" viewBox="0 0 297 64">
<path transform="matrix(.00359712,0,0,-.00359712,0,64)" d="M769.734 2161.38C769.734 2216.77 730.953 2261.09 667.234 2261.09 592.438 2261.09 517.641 2189.06 517.641 2114.28 517.641 2061.64 556.422 2014.55 622.906 2014.55 686.625 2014.55 769.734 2078.27 769.734 2161.38ZM559.203 1119.78C592.438 1200.11 592.438 1205.66 620.141 1280.45 642.313 1335.84 656.156 1374.64 656.156 1427.27 656.156 1551.92 567.516 1654.42 429 1654.42 168.609 1654.42 63.3281 1252.75 63.3281 1227.81 63.3281 1200.11 91.0313 1200.11 96.5781 1200.11 124.281 1200.11 127.047 1205.66 140.906 1249.97 215.703 1510.38 326.5 1593.48 420.688 1593.48 442.844 1593.48 489.938 1593.48 489.938 1504.83 489.938 1446.66 470.547 1388.48 459.469 1360.78 437.313 1288.77 312.656 967.422 268.328 848.297 240.625 776.281 204.609 684.859 204.609 626.688 204.609 496.484 298.797 399.531 431.766 399.531 692.172 399.531 794.672 801.203 794.672 826.141 794.672 853.844 769.734 853.844 761.422 853.844 733.719 853.844 733.719 845.531 719.875 803.969 670 629.453 578.594 460.469 437.313 460.469 390.219 460.469 370.828 488.172 370.828 551.891 370.828 621.141 387.453 659.922 451.156 828.906L559.203 1119.78"/>
<path transform="matrix(.00359712,0,0,-.00359712,0,64)" d="M2257.38 1083.77C2257.38 1518.69 1999.75 1654.42 1794.77 1654.42 1415.25 1654.42 1049.58 1258.28 1049.58 867.688 1049.58 610.063 1215.78 399.531 1498.34 399.531 1672.88 399.531 1872.33 463.25 2082.86 632.219 2118.88 485.406 2210.28 399.531 2334.94 399.531 2481.77 399.531 2567.64 551.891 2567.64 596.219 2567.64 615.609 2551.02 623.906 2534.39 623.906 2515 623.906 2506.7 615.609 2498.39 596.219 2448.52 460.469 2348.8 460.469 2343.25 460.469 2257.38 460.469 2257.38 676.547 2257.38 743.031 2257.38 801.203 2257.38 806.75 2285.08 839.984 2545.48 1166.88 2603.66 1488.22 2603.66 1490.98 2603.66 1496.52 2600.89 1518.69 2570.41 1518.69 2542.7 1518.69 2542.7 1510.38 2528.86 1460.52 2479 1285.98 2387.58 1075.45 2257.38 912.016V1083.77ZM2071.78 704.25C1828 490.938 1614.7 460.469 1503.89 460.469 1337.67 460.469 1254.58 585.125 1254.58 762.422 1254.58 898.156 1326.59 1197.34 1415.25 1338.63 1545.44 1540.84 1695.03 1593.48 1791.98 1593.48 2066.23 1593.48 2066.23 1230.58 2066.23 1014.52 2066.23 912.016 2066.23 751.344 2071.78 704.25"/>
<path transform="matrix(.00359712,0,0,-.00359712,0,64)" d="M24585.8 2382.38C24585.8 2435 24547 2482.09 24480.5 2482.09 24416.8 2482.09 24333.7 2418.38 24333.7 2335.28 24333.7 2279.88 24372.5 2235.55 24436.2 2235.55 24511 2235.55 24585.8 2307.58 24585.8 2382.38ZM24029 512.484C23976.3 301.953 23843.4 144.063 23688.2 144.063 23671.6 144.063 23630 144.063 23580.2 168.984 23663.3 188.375 23704.8 260.406 23704.8 315.813 23704.8 360.125 23674.4 412.766 23599.6 412.766 23530.3 412.766 23450 354.594 23450 254.859 23450 144.063 23560.8 83.1094 23693.8 83.1094 23887.7 83.1094 24145.3 229.938 24214.6 504.188L24469.4 1518.06C24483.3 1573.47 24483.3 1612.25 24483.3 1620.56 24483.3 1778.47 24366.9 1875.42 24228.4 1875.42 23945.8 1875.42 23788 1473.75 23788 1448.81 23788 1421.11 23815.7 1421.11 23821.2 1421.11 23846.1 1421.11 23848.9 1423.88 23871.1 1476.52 23940.3 1645.5 24067.7 1814.48 24220.1 1814.48 24258.9 1814.48 24308.8 1803.39 24308.8 1687.05 24308.8 1623.33 24300.4 1592.86 24289.4 1545.77L24029 512.484"/>
<path transform="matrix(.00359712,0,0,-.00359712,0,64)" d="M26374.9 2227.23C26374.9 2435 26222.5 2606.75 25998.1 2606.75 25837.4 2606.75 25759.9 2562.42 25662.9 2490.41 25510.6 2379.59 25358.2 2110.89 25305.6 1900.36L24865.1 141.281C24862.3 130.203 24876.2 113.578 24898.3 113.578 24920.5 113.578 24928.8 119.125 24931.6 127.438L25125.5 892C25178.1 725.797 25300 623.297 25502.3 623.297 25704.5 623.297 25912.2 720.25 26036.9 842.141 26169.9 969.578 26258.5 1146.86 26258.5 1351.86 26258.5 1551.31 26156 1695.36 26056.3 1764.61 26217 1856.03 26374.9 2027.78 26374.9 2227.23ZM25876.2 1767.39C25840.2 1753.53 25809.7 1748 25743.3 1748 25704.5 1748 25649.1 1745.22 25621.4 1759.08 25626.9 1786.78 25726.6 1781.23 25757.1 1781.23 25815.3 1781.23 25840.2 1781.23 25876.2 1767.39ZM26219.7 2290.95C26219.7 2097.03 26114.5 1897.58 25970.4 1811.7 25895.6 1839.41 25840.2 1844.95 25757.1 1844.95 25698.9 1844.95 25543.8 1847.72 25543.8 1756.31 25541 1678.73 25685.1 1687.05 25734.9 1687.05 25837.4 1687.05 25879 1689.83 25962.1 1723.06 26067.4 1623.33 26081.2 1537.45 26084 1410.03 26089.5 1249.36 26023 1041.59 25945.5 933.563 25837.4 783.969 25651.8 684.25 25493.9 684.25 25283.4 684.25 25178.1 844.906 25178.1 1041.59 25178.1 1069.3 25178.1 1110.84 25192 1163.48L25369.3 1864.34C25430.2 2102.58 25629.7 2543.03 25962.1 2543.03 26122.8 2543.03 26219.7 2457.16 26219.7 2290.95"/>
<path transform="matrix(.00359712,0,0,-.00359712,0,64)" stroke-width="110.783" stroke-linecap="butt" stroke-miterlimit="10" stroke-linejoin="miter" fill="none" stroke="#000000" d="M3697.4 2125.64 13171.4 5283.95"/>
<path transform="matrix(.00359712,0,0,-.00359712,0,64)" d="M9405.46 4028.39 7425.55 4169.04 7905.94 2727.89"/>
<path transform="matrix(.00359712,0,0,-.00359712,0,64)" d="M9537.66 1196.03C9515.5 1101.84 9509.95 1082.45 9388.06 1082.45 9354.83 1082.45 9324.36 1082.45 9324.36 1029.83 9324.36 1007.67 9338.2 996.578 9360.36 996.578 9435.16 996.578 9515.5 1004.89 9593.06 1004.89 9684.48 1004.89 9778.67 996.578 9867.31 996.578 9881.16 996.578 9917.17 996.578 9917.17 1051.98 9917.17 1082.45 9889.47 1082.45 9850.69 1082.45 9712.19 1082.45 9712.19 1101.84 9712.19 1126.78 9712.19 1160.03 9828.53 1611.56 9847.92 1680.81 9883.94 1600.48 9961.5 1503.53 10102.8 1503.53 10424.1 1503.53 10770.4 1907.97 10770.4 2315.19 10770.4 2575.59 10612.5 2758.42 10402 2758.42 10263.5 2758.42 10130.5 2658.7 10039.1 2550.66 10011.4 2700.25 9892.25 2758.42 9789.75 2758.42 9662.31 2758.42 9609.69 2650.39 9584.75 2600.52 9534.89 2506.33 9498.88 2340.13 9498.88 2331.81 9498.88 2304.11 9526.58 2304.11 9532.13 2304.11 9559.81 2304.11 9562.59 2306.88 9579.22 2367.83 9626.3 2564.52 9681.7 2697.48 9781.44 2697.48 9828.53 2697.48 9867.31 2675.31 9867.31 2570.05 9867.31 2506.33 9859 2475.86 9847.92 2428.77L9537.66 1196.03ZM10025.2 2398.3C10044.6 2473.09 10119.4 2550.66 10169.3 2592.22 10266.2 2678.09 10346.5 2697.48 10393.6 2697.48 10504.5 2697.48 10570.9 2600.52 10570.9 2437.08 10570.9 2273.64 10479.5 1955.06 10429.7 1849.8 10335.5 1655.89 10202.5 1564.47 10100 1564.47 9917.17 1564.47 9881.16 1794.39 9881.16 1811.02 9881.16 1816.56 9881.16 1822.09 9889.47 1855.34L10025.2 2398.3"/>
<path transform="matrix(.00359712,0,0,-.00359712,0,64)" stroke-width="110.783" stroke-linecap="butt" stroke-miterlimit="10" stroke-linejoin="miter" fill="none" stroke="#000000" d="M13171.4 5283.95 22507.6 2171.57"/>
<path transform="matrix(.00359712,0,0,-.00359712,0,64)" d="M18809.9 3404.26 17310.5 4704.77 16830 3263.64"/>
<path transform="matrix(.00359712,0,0,-.00359712,0,64)" stroke-width="110.783" stroke-linecap="butt" stroke-miterlimit="10" stroke-linejoin="miter" fill="none" stroke="#000000" d="M13171.4 5283.95C28263.1 17947.6-1920.3 17947.6 13171.4 5283.95"/>
<path transform="matrix(.00359712,0,0,-.00359712,0,64)" d="M12135.9 14780 13971 14023.4 13968.6 15542.6"/>
<path transform="matrix(.00359712,0,0,-.00359712,0,64)" d="M13202 17652C13202 17654.8 13202 17682.5 13166 17682.5 13102.3 17682.5 12900.1 17660.3 12828.1 17654.8 12805.9 17652 12775.4 17649.3 12775.4 17599.4 12775.4 17566.2 12800.4 17566.2 12841.9 17566.2 12974.9 17566.2 12980.4 17546.8 12980.4 17519.1L12972.1 17463.7 12570.4 15868C12559.4 15829.3 12559.4 15823.7 12559.4 15807.1 12559.4 15743.4 12614.8 15729.5 12639.7 15729.5 12675.7 15729.5 12717.3 15754.5 12733.9 15787.7 12747.7 15812.6 12872.4 16325.1 12889 16394.4 12983.2 16386.1 13210.4 16341.7 13210.4 16158.9 13210.4 16139.5 13210.4 16128.4 13202 16100.7 13196.5 16067.5 13191 16034.3 13191 16003.8 13191 15840.3 13301.8 15729.5 13445.8 15729.5 13528.9 15729.5 13603.7 15773.8 13664.7 15876.3 13733.9 15998.2 13764.4 16150.6 13764.4 16156.1 13764.4 16183.8 13739.5 16183.8 13731.2 16183.8 13703.5 16183.8 13700.7 16172.8 13692.4 16134 13637 15931.8 13573.3 15790.5 13451.4 15790.5 13398.7 15790.5 13362.7 15820.9 13362.7 15920.7 13362.7 15967.8 13373.8 16031.5 13384.9 16075.8 13396 16122.9 13396 16134 13396 16161.7 13396 16341.7 13221.4 16422.1 12986 16452.5 13071.8 16502.4 13160.5 16591.1 13224.2 16657.5 13357.2 16804.4 13484.6 16923.5 13620.3 16923.5 13637 16923.5 13639.7 16923.5 13645.3 16920.7 13678.5 16915.2 13681.3 16915.2 13703.5 16898.5 13709 16895.8 13709 16893 13714.5 16887.5 13581.6 16879.2 13556.6 16771.1 13556.6 16737.9 13556.6 16693.5 13587.1 16640.9 13661.9 16640.9 13733.9 16640.9 13814.3 16701.9 13814.3 16809.9 13814.3 16893 13750.5 16984.4 13625.9 16984.4 13548.3 16984.4 13420.9 16962.3 13221.4 16740.6 13127.3 16635.4 13019.2 16524.6 12913.9 16483L13202 17652"/>
<path transform="matrix(.00359712,0,0,-.00359712,0,64)" d="M7680.05 8848.03C7680.05 8850.81 7680.05 8878.52 7644.03 8878.52 7580.31 8878.52 7378.09 8856.34 7306.06 8850.81 7283.91 8848.03 7253.44 8845.27 7253.44 8795.41 7253.44 8762.16 7278.36 8762.16 7319.92 8762.16 7452.89 8762.16 7458.42 8742.77 7458.42 8715.06L7450.13 8659.67 7048.44 7064.03C7037.36 7025.25 7037.36 7019.72 7037.36 7003.09 7037.36 6939.38 7092.77 6925.53 7117.7 6925.53 7153.7 6925.53 7195.27 6950.45 7211.88 6983.7 7225.73 7008.64 7350.39 7521.13 7367.02 7590.38 7461.2 7582.06 7688.36 7537.73 7688.36 7354.91 7688.36 7335.52 7688.36 7324.44 7680.05 7296.73 7674.5 7263.48 7668.97 7230.25 7668.97 7199.78 7668.97 7036.33 7779.77 6925.53 7923.83 6925.53 8006.92 6925.53 8081.72 6969.84 8142.67 7072.34 8211.92 7194.23 8242.39 7346.59 8242.39 7352.14 8242.39 7379.84 8217.45 7379.84 8209.16 7379.84 8181.45 7379.84 8178.67 7368.77 8170.36 7329.97 8114.97 7127.75 8051.25 6986.47 7929.36 6986.47 7876.73 6986.47 7840.72 7016.94 7840.72 7116.67 7840.72 7163.77 7851.8 7227.48 7862.88 7271.8 7873.95 7318.89 7873.95 7329.97 7873.95 7357.67 7873.95 7537.73 7699.44 7618.08 7463.97 7648.55 7549.84 7698.41 7638.48 7787.06 7702.2 7853.55 7835.17 8000.36 7962.61 8119.48 8098.34 8119.48 8114.97 8119.48 8117.73 8119.48 8123.28 8116.7 8156.52 8111.17 8159.28 8111.17 8181.45 8094.55 8186.98 8091.78 8186.98 8089 8192.53 8083.47 8059.56 8075.16 8034.63 7967.13 8034.63 7933.88 8034.63 7889.55 8065.09 7836.92 8139.89 7836.92 8211.92 7836.92 8292.25 7897.86 8292.25 8005.91 8292.25 8089 8228.55 8180.42 8103.88 8180.42 8026.31 8180.42 7898.89 8158.27 7699.44 7936.64 7605.25 7831.38 7497.22 7720.58 7391.94 7679.02L7680.05 8848.03"/>
<path transform="matrix(.00359712,0,0,-.00359712,0,64)" d="M8524.58 7659.63C8632.61 7978.2 8934.56 7980.97 8965.03 7980.97 9383.33 7980.97 9413.81 7496.19 9413.81 7277.34 9413.81 7108.36 9399.95 7061.27 9380.56 7005.86 9319.63 6803.64 9236.52 6482.3 9236.52 6410.27 9236.52 6379.8 9250.36 6360.41 9272.53 6360.41 9308.55 6360.41 9330.7 6421.36 9361.17 6526.63 9424.89 6759.31 9452.59 6917.22 9463.67 7003.09 9469.22 7039.11 9474.75 7075.13 9485.83 7111.13 9574.48 7385.38 9751.77 7798.14 9862.58 8016.98 9881.97 8050.22 9915.22 8111.17 9915.22 8122.25 9915.22 8149.95 9887.52 8149.95 9881.97 8149.95 9873.66 8149.95 9857.03 8149.95 9848.73 8130.56 9704.67 7867.39 9593.88 7590.38 9483.06 7310.58 9480.3 7396.45 9477.52 7607 9369.48 7875.7 9303 8044.69 9192.19 8180.42 9001.05 8180.42 8654.78 8180.42 8460.86 7759.36 8460.86 7673.48 8460.86 7645.78 8485.8 7645.78 8513.5 7645.78L8524.58 7659.63"/>
<path transform="matrix(.00359712,0,0,-.00359712,0,64)" d="M17505.7 8578.03C17505.7 8580.81 17505.7 8608.52 17469.7 8608.52 17406 8608.52 17203.8 8586.34 17131.7 8580.81 17109.6 8578.03 17079.1 8575.27 17079.1 8522.64 17079.1 8492.16 17106.8 8492.16 17148.4 8492.16 17281.3 8492.16 17284.1 8467.23 17284.1 8445.06L17275.8 8389.67 16926.7 7004.58C16918.4 6974.09 16912.9 6954.7 16912.9 6910.39 16912.9 6752.48 17034.8 6655.53 17165 6655.53 17256.4 6655.53 17325.6 6710.94 17372.7 6810.66 17422.6 6915.92 17455.8 7076.59 17455.8 7082.14 17455.8 7109.84 17430.9 7109.84 17422.6 7109.84 17394.9 7109.84 17392.1 7098.77 17383.8 7059.97 17336.7 6879.91 17284.1 6716.47 17173.3 6716.47 17090.2 6716.47 17090.2 6805.13 17090.2 6843.91 17090.2 6910.39 17093 6924.23 17106.8 6976.88L17505.7 8578.03"/>
<path transform="matrix(.00359712,0,0,-.00359712,0,64)" d="M18400.3 7896.58C18054.1 7813.47 17785.3 7453.34 17785.3 7118.16 17785.3 6852.22 17962.6 6652.75 18223 6652.75 18547.2 6652.75 18777.1 7087.67 18777.1 7469.97 18777.1 7722.05 18666.3 7860.56 18572.1 7985.22 18472.4 8109.88 18308.9 8317.64 18308.9 8439.53 18308.9 8500.47 18364.3 8566.95 18461.3 8566.95 18544.4 8566.95 18599.8 8530.94 18658 8492.16 18713.4 8458.92 18768.8 8422.91 18810.3 8422.91 18879.6 8422.91 18921.1 8489.39 18921.1 8533.72 18921.1 8594.66 18876.8 8602.97 18777.1 8625.13 18633 8655.61 18594.3 8655.61 18549.9 8655.61 18333.8 8655.61 18234.1 8536.48 18234.1 8370.28 18234.1 8220.69 18314.5 8065.55 18400.3 7896.58ZM18433.6 7835.63C18502.8 7708.2 18585.9 7558.61 18585.9 7359.16 18585.9 7176.33 18480.7 6713.7 18223 6713.7 18070.7 6713.7 17957.1 6830.05 17957.1 7040.58 17957.1 7215.11 18059.6 7735.91 18433.6 7835.63"/>
<path transform="matrix(.00359712,0,0,-.00359712,0,64)" d="M31914.1 9111.84C31955.7 9111.84 32008.3 9111.84 32008.3 9167.25 32008.3 9222.66 31955.7 9222.66 31916.9 9222.66H30257.5C30218.8 9222.66 30166.1 9222.66 30166.1 9167.25 30166.1 9111.84 30218.8 9111.84 30260.3 9111.84H31914.1ZM31916.9 8574.44C31955.7 8574.44 32008.3 8574.44 32008.3 8629.84 32008.3 8685.25 31955.7 8685.25 31914.1 8685.25H30260.3C30218.8 8685.25 30166.1 8685.25 30166.1 8629.84 30166.1 8574.44 30218.8 8574.44 30257.5 8574.44H31916.9"/>
<path transform="matrix(.00359712,0,0,-.00359712,0,64)" d="M34759.5 8843.14C34806.6 8843.14 34856.5 8843.14 34856.5 8898.55 34856.5 8953.95 34806.6 8953.95 34759.5 8953.95H33260.9C33213.8 8953.95 33163.9 8953.95 33163.9 8898.55 33163.9 8843.14 33213.8 8843.14 33260.9 8843.14H34759.5"/>
<path transform="matrix(.00359712,0,0,-.00359712,0,64)" d="M35874.7 9937.38C35874.7 9992.77 35836 10037.1 35772.2 10037.1 35697.4 10037.1 35622.6 9965.06 35622.6 9890.28 35622.6 9837.64 35661.4 9790.55 35727.9 9790.55 35791.6 9790.55 35874.7 9854.27 35874.7 9937.38ZM35664.2 8895.78C35697.4 8976.11 35697.4 8981.66 35725.1 9056.45 35747.3 9111.84 35761.2 9150.64 35761.2 9203.27 35761.2 9327.92 35672.5 9430.42 35534 9430.42 35273.6 9430.42 35168.3 9028.75 35168.3 9003.81 35168.3 8976.11 35196 8976.11 35201.6 8976.11 35229.3 8976.11 35232 8981.66 35245.9 9025.97 35320.7 9286.38 35431.5 9369.48 35525.7 9369.48 35547.8 9369.48 35594.9 9369.48 35594.9 9280.83 35594.9 9222.66 35575.5 9164.48 35564.5 9136.78 35542.3 9064.77 35417.7 8743.42 35373.3 8624.3 35345.6 8552.28 35309.6 8460.86 35309.6 8402.69 35309.6 8272.48 35403.8 8175.53 35536.8 8175.53 35797.2 8175.53 35899.7 8577.2 35899.7 8602.14 35899.7 8629.84 35874.7 8629.84 35866.4 8629.84 35838.7 8629.84 35838.7 8621.53 35824.9 8579.97 35775 8405.45 35683.6 8236.47 35542.3 8236.47 35495.2 8236.47 35475.8 8264.17 35475.8 8327.89 35475.8 8397.14 35492.5 8435.92 35556.2 8604.91L35664.2 8895.78"/>
<path transform="matrix(.00359712,0,0,-.00359712,0,64)" d="M37345.8 9250.36C37348.5 9266.98 37354.1 9280.83 37354.1 9300.22 37354.1 9347.31 37320.8 9375.02 37273.7 9375.02 37246 9375.02 37171.2 9355.63 37160.2 9255.91 37110.3 9358.39 37013.3 9430.42 36902.5 9430.42 36586.7 9430.42 36243.2 9042.59 36243.2 8643.69 36243.2 8369.44 36412.2 8206 36611.7 8206 36775.1 8206 36905.3 8336.2 36933 8366.67L36935.8 8363.91C36877.6 8117.36 36844.4 8003.78 36844.4 7998.23 36833.3 7973.3 36739.1 7699.06 36445.5 7699.06 36392.8 7699.06 36301.4 7701.83 36223.8 7726.75 36306.9 7751.69 36337.4 7823.72 36337.4 7870.81 36337.4 7915.13 36306.9 7967.77 36232.1 7967.77 36171.2 7967.77 36082.5 7917.91 36082.5 7807.09 36082.5 7693.52 36185 7638.11 36451 7638.11 36797.3 7638.11 36996.7 7854.19 37038.3 8020.39L37345.8 9250.36ZM36985.6 8560.58C36969 8488.56 36905.3 8419.3 36844.4 8366.67 36786.2 8316.81 36700.3 8266.94 36620 8266.94 36481.5 8266.94 36439.9 8411 36439.9 8521.8 36439.9 8654.77 36520.3 8981.66 36595 9122.94 36669.8 9258.67 36789 9369.48 36905.3 9369.48 37088.1 9369.48 37126.9 9145.09 37126.9 9131.25 37126.9 9117.39 37121.4 9100.77 37118.6 9089.69L36985.6 8560.58"/>
<path transform="matrix(.00359712,0,0,-.00359712,0,64)" d="M38442 9701.84H38376.1C38370.3 9659.19 38350.9 9544.81 38325.7 9525.42 38310.2 9513.8 38160.9 9513.8 38133.8 9513.8H37777.1C37980.6 9694.09 38048.5 9748.38 38164.8 9839.48 38308.3 9953.88 38442 10074.1 38442 10258.3 38442 10492.8 38236.5 10636.3 37988.4 10636.3 37748 10636.3 37585.1 10467.6 37585.1 10289.3 37585.1 10190.4 37668.5 10180.7 37687.9 10180.7 37734.4 10180.7 37790.6 10213.7 37790.6 10283.5 37790.6 10318.3 37777.1 10386.2 37676.3 10386.2 37736.4 10523.9 37868.2 10566.5 37959.3 10566.5 38153.2 10566.5 38254 10415.3 38254 10258.3 38254 10089.6 38133.8 9955.81 38071.8 9886.02L37604.5 9424.61C37585.1 9407.16 37585.1 9403.28 37585.1 9349H38383.9L38442 9701.84"/>
<path transform="matrix(.00359712,0,0,-.00359712,0,64)" d="M42674.1 6958.73 43009.3 7845.2H42940C42832 7557.09 42538.3 7368.72 42219.8 7285.63 42161.6 7271.77 41890.1 7199.75 41358.2 7199.75H39687.8L41097.8 8853.55C41117.2 8875.7 41122.8 8884.02 41122.8 8897.88 41122.8 8903.41 41122.8 8911.72 41103.4 8939.42L39812.5 10704H41330.5C41701.7 10704 41953.8 10665.3 41978.7 10659.7 42128.3 10637.5 42369.3 10590.5 42588.2 10451.9 42657.4 10407.6 42845.8 10283 42940 10058.6H43009.3L42674.1 10837H39399.7C39336 10837 39333.2 10834.2 39324.9 10817.6 39322.1 10809.3 39322.1 10756.7 39322.1 10726.2L40787.6 8720.58 39352.6 7039.08C39324.9 7005.83 39324.9 6991.98 39324.9 6989.2 39324.9 6958.73 39349.8 6958.73 39399.7 6958.73H42674.1"/>
<path transform="matrix(.00359712,0,0,-.00359712,0,64)" d="M40805.8 6161.3C40807.8 6165.17 40813.6 6190.38 40813.6 6192.31 40813.6 6202.02 40805.8 6219.45 40782.5 6219.45 40743.8 6219.45 40582.9 6203.95 40534.4 6200.08 40518.9 6198.13 40491.8 6196.19 40491.8 6155.48 40491.8 6128.34 40518.9 6128.34 40542.2 6128.34 40635.2 6128.34 40635.2 6114.77 40635.2 6099.27 40635.2 6085.69 40631.3 6074.06 40627.5 6056.61L40354.1 4959.3C40344.4 4924.41 40344.4 4920.53 40344.4 4916.66 40344.4 4887.58 40367.7 4854.61 40410.3 4854.61 40462.7 4854.61 40487.9 4893.39 40499.5 4936.03 40503.4 4943.8 40586.7 5285 40594.5 5312.14 40732.1 5298.58 40842.7 5253.98 40842.7 5153.17 40842.7 5143.48 40842.7 5133.78 40838.8 5114.41 40831 5085.31 40831 5075.63 40831 5054.3 40831 4916.66 40943.5 4854.61 41036.5 4854.61 41224.6 4854.61 41282.7 5149.3 41282.7 5151.23 41282.7 5176.44 41257.5 5176.44 41251.7 5176.44 41224.6 5176.44 41222.6 5166.75 41212.9 5129.91 41189.7 5046.55 41137.3 4908.89 41042.3 4908.89 40990 4908.89 40974.5 4957.36 40974.5 5009.7 40974.5 5042.67 40974.5 5046.55 40986.1 5096.95 40988 5102.77 40995.8 5135.72 40995.8 5157.05 40995.8 5329.59 40763.2 5356.73 40681.7 5362.55 40738 5397.45 40809.7 5461.42 40842.7 5490.5 40941.5 5583.56 41038.5 5674.69 41147 5674.69 41170.3 5674.69 41195.5 5668.88 41211 5649.48 41127.6 5635.91 41110.2 5570 41110.2 5540.91 41110.2 5498.27 41143.1 5469.19 41187.7 5469.19 41240.1 5469.19 41298.3 5511.83 41298.3 5593.27 41298.3 5657.23 41251.7 5728.97 41149 5728.97 41038.5 5728.97 40937.6 5649.48 40838.8 5558.36 40757.3 5480.81 40693.4 5420.72 40613.9 5387.75L40805.8 6161.3"/>
<path transform="matrix(.00359712,0,0,-.00359712,0,64)" d="M41969.7 6161.3C41971.7 6165.17 41977.5 6190.38 41977.5 6192.31 41977.5 6202.02 41969.7 6219.45 41946.5 6219.45 41907.7 6219.45 41746.8 6203.95 41698.3 6200.08 41684.7 6198.13 41657.6 6196.19 41657.6 6155.48 41657.6 6128.34 41684.7 6128.34 41706 6128.34 41799.1 6128.34 41799.1 6114.77 41799.1 6099.27 41799.1 6085.69 41795.2 6074.06 41791.4 6056.61L41551 5098.89C41545.1 5079.5 41543.2 5058.17 41543.2 5038.8 41543.2 4914.72 41653.7 4854.61 41746.8 4854.61 41793.3 4854.61 41851.5 4870.13 41901.9 4957.36 41942.6 5029.09 41969.7 5143.48 41969.7 5151.23 41969.7 5176.44 41944.5 5176.44 41938.7 5176.44 41911.5 5176.44 41907.7 5164.81 41899.9 5129.91 41874.7 5032.97 41837.9 4908.89 41754.5 4908.89 41702.2 4908.89 41688.6 4957.36 41688.6 5003.89 41688.6 5025.22 41694.4 5062.05 41700.2 5083.38L41969.7 6161.3"/>
<path transform="matrix(.00359712,0,0,-.00359712,0,64)" d="M47136.1 6958.73 47471.3 7845.2H47402C47294 7557.09 47000.3 7368.72 46681.8 7285.63 46623.6 7271.77 46352.1 7199.75 45820.2 7199.75H44149.8L45559.8 8853.55C45579.2 8875.7 45584.8 8884.02 45584.8 8897.88 45584.8 8903.41 45584.8 8911.72 45565.4 8939.42L44274.5 10704H45792.5C46163.7 10704 46415.8 10665.3 46440.7 10659.7 46590.3 10637.5 46831.3 10590.5 47050.2 10451.9 47119.4 10407.6 47307.8 10283 47402 10058.6H47471.3L47136.1 10837H43861.7C43798 10837 43795.2 10834.2 43786.9 10817.6 43784.1 10809.3 43784.1 10756.7 43784.1 10726.2L45249.6 8720.58 43814.6 7039.08C43786.9 7005.83 43786.9 6991.98 43786.9 6989.2 43786.9 6958.73 43811.8 6958.73 43861.7 6958.73H47136.1"/>
<path transform="matrix(.00359712,0,0,-.00359712,0,64)" d="M45316.6 5145.42C45306.9 5257.86 45241 5728.97 44925 5728.97 44810.6 5728.97 44711.7 5666.92 44657.4 5616.52 44539.2 5509.89 44515.9 5385.81 44515.9 5380 44515.9 5356.73 44541.1 5356.73 44546.9 5356.73 44572.1 5356.73 44574.1 5360.61 44583.8 5389.69 44624.5 5504.08 44768 5573.88 44897.8 5573.88 45210 5573.88 45250.7 5261.73 45250.7 5064 45250.7 4967.06 45244.9 4945.73 45237.1 4924.41 45192.5 4779 45134.4 4563.81 45134.4 4505.64 45134.4 4484.33 45142.1 4459.13 45167.3 4459.13 45180.9 4459.13 45202.2 4459.13 45233.2 4559.94 45256.5 4635.55 45293.3 4779 45308.8 4918.59 45316.6 4986.44 45425.2 5248.17 45465.9 5341.23 45493 5401.33 45533.7 5492.45 45624.9 5661.11 45630.7 5670.81 45634.5 5678.56 45634.5 5686.31 45634.5 5709.58 45609.3 5709.58 45603.5 5709.58 45597.7 5709.58 45580.3 5709.58 45574.5 5699.89 45551.2 5659.17 45403.8 5381.94 45316.6 5145.42"/>
<path transform="matrix(.00359712,0,0,-.00359712,0,64)" d="M46302.9 5717.33C46012.1 5643.67 45849.3 5393.58 45849.3 5190.02 45849.3 4984.5 46006.3 4850.73 46198.2 4850.73 46432.8 4850.73 46615 5126.03 46615 5409.08 46615 5597.14 46514.2 5707.64 46454.1 5773.56 46382.4 5854.98 46237 6013.95 46237 6103.14 46237 6128.34 46264.1 6184.56 46343.6 6184.56 46409.5 6184.56 46463.8 6153.55 46506.5 6130.28 46523.9 6120.58 46593.7 6079.88 46622.8 6079.88 46669.3 6079.88 46704.2 6122.52 46704.2 6161.3 46704.2 6209.77 46679 6213.64 46574.3 6234.97 46551.1 6238.84 46461.9 6258.23 46399.9 6258.23 46254.5 6258.23 46173 6172.92 46173 6054.67 46173 5951.92 46235.1 5833.66 46302.9 5717.33ZM46335.9 5664.98C46390.2 5577.75 46460 5465.3 46460 5325.72 46460 5166.75 46365 4905.02 46202.1 4905.02 46095.5 4905.02 45990.8 4974.81 45990.8 5135.72 45990.8 5263.67 46064.5 5599.08 46335.9 5664.98"/>
<path transform="matrix(.00359712,0,0,-.00359712,0,64)" d="M48379.1 5945.3C48467.8 5950.84 48514.8 6011.78 48514.8 6081.05 48514.8 6172.45 48445.6 6216.78 48381.9 6216.78 48315.4 6216.78 48246.1 6175.23 48246.1 6078.27 48246.1 5936.98 48384.6 5820.64 48553.6 5820.64 48974.7 5820.64 49132.6 6468.86 49329.3 7272.22 49542.6 8147.59 49722.6 9031.3 49872.2 9920.52 49974.7 10510.6 50077.2 11064.6 50171.4 11422 50204.7 11557.7 50298.8 11915.1 50406.9 11915.1 50492.8 11915.1 50562 11862.4 50573.1 11851.3 50481.7 11845.8 50434.6 11784.9 50434.6 11715.6 50434.6 11624.2 50503.8 11579.9 50567.5 11579.9 50634 11579.9 50703.3 11621.4 50703.3 11718.4 50703.3 11868 50553.7 11976 50401.3 11976 50190.8 11976 50035.7 11674 49883.3 11108.9 49875 11078.5 49498.3 9687.83 49193.5 7876.13 49121.5 7452.28 49041.2 6989.66 48949.8 6604.61 48899.9 6402.38 48772.5 5881.59 48548.1 5881.59 48448.4 5881.59 48381.9 5945.3 48379.1 5945.3"/>
<path transform="matrix(.00359712,0,0,-.00359712,0,64)" d="M54207.4 11971C54207.4 11973.8 54207.4 12001.5 54171.4 12001.5 54129.9 12001.5 53866.7 11976.6 53819.6 11971 53797.4 11968.3 53780.8 11954.4 53780.8 11918.4 53780.8 11885.2 53805.7 11885.2 53847.3 11885.2 53980.3 11885.2 53985.8 11865.8 53985.8 11838.1L53977.5 11782.7 53811.3 11126.1C53761.4 11228.6 53681.1 11303.4 53556.4 11303.4 53232.3 11303.4 52888.8 10896.2 52888.8 10491.8 52888.8 10231.4 53041.2 10048.5 53257.3 10048.5 53312.6 10048.5 53451.2 10059.6 53617.4 10256.3 53639.5 10139.9 53736.5 10048.5 53869.5 10048.5 53966.4 10048.5 54030.1 10112.3 54074.5 10200.9 54121.5 10300.6 54157.5 10469.6 54157.5 10475.1 54157.5 10502.8 54132.6 10502.8 54124.3 10502.8 54096.6 10502.8 54093.8 10491.8 54085.5 10453 54038.4 10272.9 53988.6 10109.5 53875 10109.5 53800.2 10109.5 53791.9 10181.5 53791.9 10236.9 53791.9 10303.4 53797.4 10322.8 53808.5 10369.9L54207.4 11971ZM53631.2 10408.7C53617.4 10358.8 53617.4 10353.3 53575.8 10306.2 53453.9 10153.8 53340.3 10109.5 53262.8 10109.5 53124.3 10109.5 53085.5 10261.8 53085.5 10369.9 53085.5 10508.4 53174.1 10849.1 53237.8 10976.5 53323.7 11140 53448.4 11242.5 53559.2 11242.5 53739.3 11242.5 53778 11015.3 53778 10998.7 53778 10982.1 53772.5 10965.5 53769.7 10951.6L53631.2 10408.7"/>
<path transform="matrix(.00359712,0,0,-.00359712,0,64)" d="M55327 12371.3C55328.9 12375.2 55334.8 12400.4 55334.8 12402.3 55334.8 12412 55327 12429.5 55303.7 12429.5 55265 12429.5 55104 12414 55055.6 12410.1 55040.1 12408.1 55012.9 12406.2 55012.9 12365.5 55012.9 12338.3 55040.1 12338.3 55063.3 12338.3 55156.4 12338.3 55156.4 12324.8 55156.4 12309.3 55156.4 12295.7 55152.5 12284.1 55148.6 12266.6L55038.1 11824.6C54997.4 11888.6 54931.5 11939 54838.5 11939 54590.3 11939 54338.3 11665.6 54338.3 11386.4 54338.3 11198.4 54464.3 11064.6 54631 11064.6 54735.7 11064.6 54828.8 11124.7 54906.3 11200.3 54943.1 11084 55055.6 11064.6 55106 11064.6 55175.8 11064.6 55224.3 11107.3 55259.1 11167.4 55301.8 11243 55327 11353.5 55327 11361.2 55327 11386.4 55301.8 11386.4 55296 11386.4 55268.8 11386.4 55266.9 11378.7 55253.3 11326.3 55230.1 11233.3 55193.2 11118.9 55111.8 11118.9 55061.4 11118.9 55047.8 11161.5 55047.8 11213.9 55047.8 11250.7 55051.7 11268.2 55057.5 11293.4L55327 12371.3ZM54914.1 11326.3C54900.5 11272 54857.8 11233.3 54815.2 11196.4 54797.7 11180.9 54720.2 11118.9 54636.8 11118.9 54565.1 11118.9 54495.3 11169.3 54495.3 11307 54495.3 11409.7 54551.5 11623 54596.1 11700.5 54685.3 11855.6 54784.2 11884.7 54838.5 11884.7 54974.2 11884.7 55011 11737.3 55011 11716 55011 11708.3 55007.1 11694.7 55005.2 11688.9L54914.1 11326.3"/>
<path transform="matrix(.00359712,0,0,-.00359712,0,64)" d="M56306 11971C56306 11973.8 56306 12001.5 56270 12001.5 56206.3 12001.5 56004.1 11979.3 55932.1 11973.8 55909.9 11971 55879.4 11968.3 55879.4 11918.4 55879.4 11885.2 55904.4 11885.2 55945.9 11885.2 56078.9 11885.2 56084.4 11865.8 56084.4 11838.1L56076.1 11782.7 55674.4 10187C55663.4 10148.3 55663.4 10142.7 55663.4 10126.1 55663.4 10062.4 55718.8 10048.5 55743.7 10048.5 55779.7 10048.5 55821.3 10073.5 55837.9 10106.7 55851.7 10131.6 55976.4 10644.1 55993 10713.4 56087.2 10705.1 56314.4 10660.7 56314.4 10477.9 56314.4 10458.5 56314.4 10447.4 56306 10419.7 56300.5 10386.5 56295 10353.3 56295 10322.8 56295 10159.3 56405.8 10048.5 56549.8 10048.5 56632.9 10048.5 56707.7 10092.8 56768.7 10195.3 56837.9 10317.2 56868.4 10469.6 56868.4 10475.1 56868.4 10502.8 56843.5 10502.8 56835.2 10502.8 56807.5 10502.8 56804.7 10491.8 56796.4 10453 56741 10250.8 56677.3 10109.5 56555.4 10109.5 56502.7 10109.5 56466.7 10139.9 56466.7 10239.7 56466.7 10286.8 56477.8 10350.5 56488.9 10394.8 56500 10441.9 56500 10453 56500 10480.7 56500 10660.7 56325.4 10741.1 56090 10771.5 56175.8 10821.4 56264.5 10910.1 56328.2 10976.5 56461.2 11123.4 56588.6 11242.5 56724.3 11242.5 56741 11242.5 56743.7 11242.5 56749.3 11239.7 56782.5 11234.2 56785.3 11234.2 56807.5 11217.5 56813 11214.8 56813 11212 56818.5 11206.5 56685.6 11198.2 56660.6 11090.1 56660.6 11056.9 56660.6 11012.5 56691.1 10959.9 56765.9 10959.9 56837.9 10959.9 56918.3 11020.9 56918.3 11128.9 56918.3 11212 56854.5 11303.4 56729.9 11303.4 56652.3 11303.4 56524.9 11281.3 56325.4 11059.6 56231.3 10954.4 56123.2 10843.6 56017.9 10802L56306 11971"/>
<path transform="matrix(.00359712,0,0,-.00359712,0,64)" stroke-width="110.783" stroke-linecap="butt" stroke-miterlimit="10" stroke-linejoin="miter" fill="none" stroke="#000000" d="M51654.9 8898.22H58163.4"/>
<path transform="matrix(.00359712,0,0,-.00359712,0,64)" d="M52571.9 5641.16C52571.9 5649.47 52571.9 5655 52524.8 5702.09 52178.6 6051.14 52089.9 6574.7 52089.9 6998.55 52089.9 7480.56 52195.2 7962.58 52535.9 8308.84 52571.9 8342.09 52571.9 8347.63 52571.9 8355.94 52571.9 8375.33 52560.8 8383.64 52544.2 8383.64 52516.5 8383.64 52267.2 8195.27 52103.8 7843.45 51962.5 7538.73 51929.3 7231.25 51929.3 6998.55 51929.3 6782.47 51959.7 6447.28 52112.1 6134.25 52278.3 5793.52 52516.5 5613.45 52544.2 5613.45 52560.8 5613.45 52571.9 5621.77 52571.9 5641.16"/>
<path transform="matrix(.00359712,0,0,-.00359712,0,64)" d="M53081.8 6519.3 53375.5 6804.64C53807.6 7186.92 53973.8 7336.52 53973.8 7613.53 53973.8 7929.33 53724.5 8150.94 53386.5 8150.94 53073.5 8150.94 52868.5 7896.09 52868.5 7649.55 52868.5 7494.41 53007 7494.41 53015.3 7494.41 53062.4 7494.41 53159.4 7527.66 53159.4 7641.23 53159.4 7713.25 53109.5 7785.28 53012.6 7785.28 52990.4 7785.28 52984.9 7785.28 52976.5 7782.52 53040.3 7962.58 53189.8 8065.06 53350.5 8065.06 53602.6 8065.06 53721.7 7840.69 53721.7 7613.53 53721.7 7391.91 53583.2 7173.06 53430.9 7001.31L52899 6408.5C52868.5 6378.03 52868.5 6372.48 52868.5 6306H53896.3L53973.8 6788.02H53904.6C53890.7 6704.91 53871.3 6583.02 53843.6 6541.47 53824.2 6519.3 53641.4 6519.3 53580.5 6519.3H53081.8"/>
<path transform="matrix(.00359712,0,0,-.00359712,0,64)" d="M54851.1 7339.28H55164.1C55072.7 6929.3 55047.8 6810.17 55047.8 6624.58 55047.8 6583.02 55047.8 6508.22 55069.9 6414.03 55097.6 6292.16 55128.1 6275.53 55169.7 6275.53 55225.1 6275.53 55283.3 6325.39 55283.3 6380.8 55283.3 6397.42 55283.3 6402.95 55266.6 6441.73 55186.3 6641.19 55186.3 6821.25 55186.3 6898.81 55186.3 7045.64 55205.7 7195.23 55236.2 7339.28H55552C55588 7339.28 55687.7 7339.28 55687.7 7433.47 55687.7 7499.95 55629.5 7499.95 55576.9 7499.95H54648.9C54587.9 7499.95 54482.7 7499.95 54360.8 7369.75 54263.8 7261.72 54191.8 7134.28 54191.8 7120.44 54191.8 7117.67 54191.8 7092.73 54225 7092.73 54247.2 7092.73 54252.7 7103.81 54269.4 7125.97 54405.1 7339.28 54565.8 7339.28 54621.2 7339.28H54779.1C54690.4 7004.09 54540.8 6668.89 54424.5 6416.81 54402.3 6375.25 54402.3 6369.72 54402.3 6350.33 54402.3 6297.69 54446.7 6275.53 54482.7 6275.53 54565.8 6275.53 54587.9 6353.09 54621.2 6455.59 54660 6583.02 54660 6588.56 54696 6727.06L54851.1 7339.28"/>
<path transform="matrix(.00359712,0,0,-.00359712,0,64)" d="M56595.6 6998.55C56595.6 7214.63 56565.1 7549.81 56412.8 7862.84 56246.5 8203.58 56008.3 8383.64 55980.6 8383.64 55964 8383.64 55952.9 8372.56 55952.9 8355.94 55952.9 8347.63 55952.9 8342.09 56005.5 8292.22 56277 8017.97 56434.9 7577.52 56434.9 6998.55 56434.9 6524.84 56332.4 6037.3 55988.9 5688.25 55952.9 5655 55952.9 5649.47 55952.9 5641.16 55952.9 5624.53 55964 5613.45 55980.6 5613.45 56008.3 5613.45 56257.6 5801.83 56421.1 6153.64 56562.3 6458.36 56595.6 6765.84 56595.6 6998.55"/>
<path transform="matrix(.00359712,0,0,-.00359712,0,64)" d="M57979 8393.3C57980.9 8397.17 57986.8 8422.38 57986.8 8424.31 57986.8 8434.02 57979 8451.45 57955.7 8451.45 57917 8451.45 57756 8435.95 57707.6 8432.08 57692.1 8430.13 57664.9 8428.19 57664.9 8387.48 57664.9 8360.34 57692.1 8360.34 57715.3 8360.34 57808.4 8360.34 57808.4 8346.77 57808.4 8331.27 57808.4 8317.69 57804.5 8306.06 57800.6 8288.61L57690.1 7846.58C57649.4 7910.56 57583.5 7960.97 57490.5 7960.97 57242.3 7960.97 56990.3 7687.61 56990.3 7408.44 56990.3 7220.39 57116.3 7086.61 57283 7086.61 57387.7 7086.61 57480.8 7146.72 57558.3 7222.33 57595.1 7106 57707.6 7086.61 57758 7086.61 57827.8 7086.61 57876.3 7129.27 57911.1 7189.36 57953.8 7264.97 57979 7375.48 57979 7383.23 57979 7408.44 57953.8 7408.44 57948 7408.44 57920.8 7408.44 57918.9 7400.69 57905.3 7348.34 57882.1 7255.28 57845.2 7140.89 57763.8 7140.89 57713.4 7140.89 57699.8 7183.55 57699.8 7235.89 57699.8 7272.73 57703.7 7290.17 57709.5 7315.38L57979 8393.3ZM57566.1 7348.34C57552.5 7294.05 57509.8 7255.28 57467.2 7218.44 57449.7 7202.94 57372.2 7140.89 57288.8 7140.89 57217.1 7140.89 57147.3 7191.3 57147.3 7328.95 57147.3 7431.7 57203.5 7644.95 57248.1 7722.5 57337.3 7877.61 57436.2 7906.69 57490.5 7906.69 57626.2 7906.69 57663 7759.34 57663 7738.02 57663 7730.27 57659.1 7716.69 57657.2 7710.88L57566.1 7348.34"/>
<path transform="matrix(.00359712,0,0,-.00359712,0,64)" d="M59412.9 7541.16C59412.9 7549.47 59412.9 7555 59365.8 7602.09 59019.6 7951.14 58930.9 8474.7 58930.9 8898.55 58930.9 9380.56 59036.2 9862.58 59376.9 10208.8 59412.9 10242.1 59412.9 10247.6 59412.9 10255.9 59412.9 10275.3 59401.8 10283.6 59385.2 10283.6 59357.5 10283.6 59108.2 10095.3 58944.8 9743.45 58803.5 9438.73 58770.3 9131.25 58770.3 8898.55 58770.3 8682.47 58800.7 8347.28 58953.1 8034.25 59119.3 7693.52 59357.5 7513.45 59385.2 7513.45 59401.8 7513.45 59412.9 7521.77 59412.9 7541.16"/>
<path transform="matrix(.00359712,0,0,-.00359712,0,64)" d="M60104.9 8898.55C60104.9 8978.88 60038.4 9045.36 59958.1 9045.36 59877.7 9045.36 59811.2 8978.88 59811.2 8898.55 59811.2 8818.22 59877.7 8751.73 59958.1 8751.73 60038.4 8751.73 60104.9 8818.22 60104.9 8898.55"/>
<path transform="matrix(.00359712,0,0,-.00359712,0,64)" d="M61331.9 8898.55C61331.9 8978.88 61265.4 9045.36 61185.1 9045.36 61104.7 9045.36 61038.2 8978.88 61038.2 8898.55 61038.2 8818.22 61104.7 8751.73 61185.1 8751.73 61265.4 8751.73 61331.9 8818.22 61331.9 8898.55"/>
<path transform="matrix(.00359712,0,0,-.00359712,0,64)" d="M62561.9 8898.55C62561.9 8978.88 62495.4 9045.36 62415.1 9045.36 62334.7 9045.36 62268.2 8978.88 62268.2 8898.55 62268.2 8818.22 62334.7 8751.73 62415.1 8751.73 62495.4 8751.73 62561.9 8818.22 62561.9 8898.55"/>
<path transform="matrix(.00359712,0,0,-.00359712,0,64)" d="M64066.6 8898.55C64066.6 9114.63 64036.1 9449.81 63883.8 9762.84 63717.5 10103.6 63479.3 10283.6 63451.6 10283.6 63435 10283.6 63423.9 10272.6 63423.9 10255.9 63423.9 10247.6 63423.9 10242.1 63476.5 10192.2 63748 9917.97 63905.9 9477.52 63905.9 8898.55 63905.9 8424.84 63803.4 7937.3 63459.9 7588.25 63423.9 7555 63423.9 7549.47 63423.9 7541.16 63423.9 7524.53 63435 7513.45 63451.6 7513.45 63479.3 7513.45 63728.6 7701.83 63892.1 8053.64 64033.3 8358.36 64066.6 8665.84 64066.6 8898.55"/>
<path transform="matrix(.00359712,0,0,-.00359712,0,64)" d="M66743.1 5603.83C66743.1 5614.91 66737.6 5620.45 66732 5628.77 66629.5 5731.25 66444 5916.86 66258.3 6216.05 65812.3 6930.75 65610.1 7831.06 65610.1 8897.58 65610.1 9642.77 65709.8 10604 66166.9 11429.5 66385.8 11822.9 66612.9 12050.1 66734.8 12171.9 66743.1 12180.3 66743.1 12185.8 66743.1 12194.1 66743.1 12221.8 66723.7 12221.8 66685 12221.8 66646.2 12221.8 66640.6 12221.8 66599.1 12180.3 65671.1 11335.3 65380.2 10066.6 65380.2 8900.36 65380.2 7811.67 65629.5 6714.67 66333.1 5886.39 66388.5 5822.67 66493.8 5709.09 66607.4 5609.38 66640.6 5576.13 66646.2 5576.13 66685 5576.13 66723.7 5576.13 66743.1 5576.13 66743.1 5603.83"/>
<path transform="matrix(.00359712,0,0,-.00359712,0,64)" d="M68249.7 11810.4C68249.7 11865.8 68211 11910.1 68147.2 11910.1 68072.4 11910.1 67997.6 11838.1 67997.6 11763.3 67997.6 11710.6 68036.4 11663.5 68102.9 11663.5 68166.6 11663.5 68249.7 11727.3 68249.7 11810.4ZM68039.2 10768.8C68072.4 10849.1 68072.4 10854.7 68100.1 10929.5 68122.3 10984.8 68136.2 11023.6 68136.2 11076.3 68136.2 11200.9 68047.5 11303.4 67909 11303.4 67648.6 11303.4 67543.3 10901.8 67543.3 10876.8 67543.3 10849.1 67571 10849.1 67576.6 10849.1 67604.3 10849.1 67607 10854.7 67620.9 10899 67695.7 11159.4 67806.5 11242.5 67900.7 11242.5 67922.8 11242.5 67969.9 11242.5 67969.9 11153.8 67969.9 11095.7 67950.5 11037.5 67939.5 11009.8 67917.3 10937.8 67792.7 10616.4 67748.3 10497.3 67720.6 10425.3 67684.6 10333.9 67684.6 10275.7 67684.6 10145.5 67778.8 10048.5 67911.8 10048.5 68172.2 10048.5 68274.7 10450.2 68274.7 10475.1 68274.7 10502.8 68249.7 10502.8 68241.4 10502.8 68213.7 10502.8 68213.7 10494.5 68199.9 10453 68150 10278.5 68058.6 10109.5 67917.3 10109.5 67870.2 10109.5 67850.8 10137.2 67850.8 10200.9 67850.8 10270.1 67867.5 10308.9 67931.2 10477.9L68039.2 10768.8"/>
<path transform="matrix(.00359712,0,0,-.00359712,0,64)" stroke-width="110.783" stroke-linecap="butt" stroke-miterlimit="10" stroke-linejoin="miter" fill="none" stroke="#000000" d="M67175.4 8898.22H68704.4"/>
<path transform="matrix(.00359712,0,0,-.00359712,0,64)" d="M68464.1 8405.38C68478 8441.39 68478 8452.47 68478 8455.23 68478 8485.7 68453 8510.64 68422.6 8510.64 68403.2 8510.64 68383.8 8502.33 68375.5 8485.7L67414.2 5845.72C67400.4 5809.7 67400.4 5798.63 67400.4 5795.86 67400.4 5765.39 67425.3 5740.45 67455.8 5740.45 67491.8 5740.45 67500.1 5759.84 67516.7 5806.94L68464.1 8405.38"/>
<path transform="matrix(.00359712,0,0,-.00359712,0,64)" d="M67970 8195.03C67970 8197.81 67970 8225.52 67934 8225.52 67870.3 8225.52 67668.1 8203.34 67596.1 8197.81 67573.9 8195.03 67543.4 8192.27 67543.4 8142.41 67543.4 8109.16 67568.4 8109.16 67609.9 8109.16 67742.9 8109.16 67748.4 8089.77 67748.4 8062.06L67740.1 8006.67 67338.4 6411.03C67327.4 6372.25 67327.4 6366.72 67327.4 6350.09 67327.4 6286.38 67382.8 6272.53 67407.7 6272.53 67443.7 6272.53 67485.3 6297.45 67501.9 6330.7 67515.7 6355.64 67640.4 6868.13 67657 6937.38 67751.2 6929.06 67978.4 6884.73 67978.4 6701.91 67978.4 6682.52 67978.4 6671.44 67970 6643.73 67964.5 6610.48 67959 6577.25 67959 6546.78 67959 6383.33 68069.8 6272.53 68213.8 6272.53 68296.9 6272.53 68371.7 6316.84 68432.7 6419.34 68501.9 6541.23 68532.4 6693.59 68532.4 6699.14 68532.4 6726.84 68507.5 6726.84 68499.2 6726.84 68471.5 6726.84 68468.7 6715.77 68460.4 6676.97 68405 6474.75 68341.3 6333.47 68219.4 6333.47 68166.7 6333.47 68130.7 6363.94 68130.7 6463.67 68130.7 6510.77 68141.8 6574.48 68152.9 6618.8 68164 6665.89 68164 6676.97 68164 6704.67 68164 6884.73 67989.4 6965.08 67754 6995.55 67839.8 7045.41 67928.5 7134.06 67992.2 7200.55 68125.2 7347.36 68252.6 7466.48 68388.3 7466.48 68405 7466.48 68407.7 7466.48 68413.3 7463.7 68446.5 7458.17 68449.3 7458.17 68471.5 7441.55 68477 7438.78 68477 7436 68482.5 7430.47 68349.6 7422.16 68324.6 7314.13 68324.6 7280.88 68324.6 7236.55 68355.1 7183.92 68429.9 7183.92 68501.9 7183.92 68582.3 7244.86 68582.3 7352.91 68582.3 7436 68518.5 7527.42 68393.9 7527.42 68316.3 7527.42 68188.9 7505.27 67989.4 7283.64 67895.3 7178.38 67787.2 7067.58 67681.9 7026.02L67970 8195.03"/>
<path transform="matrix(.00359712,0,0,-.00359712,0,64)" d="M70496.9 8897.58C70496.9 9986.27 70247.6 11083.3 69543.9 11911.5 69488.5 11975.3 69383.3 12088.8 69269.7 12188.6 69236.5 12221.8 69230.9 12221.8 69192.1 12221.8 69158.9 12221.8 69134 12221.8 69134 12194.1 69134 12183 69145 12171.9 69150.6 12166.4 69247.5 12066.7 69433.1 11881.1 69618.7 11581.9 70064.7 10867.2 70267 9966.88 70267 8900.36 70267 8155.17 70167.2 7193.92 69710.2 6368.41 69491.3 5975.03 69261.4 5745.11 69145 5628.77 69139.5 5620.45 69134 5612.14 69134 5603.83 69134 5576.13 69158.9 5576.13 69192.1 5576.13 69230.9 5576.13 69236.5 5576.13 69278 5617.67 70206 6462.59 70496.9 7731.33 70496.9 8897.58"/>
<path transform="matrix(.00359712,0,0,-.00359712,0,64)" d="M71942.6 5707.42C71932.9 5819.86 71867 6290.97 71551 6290.97 71436.6 6290.97 71337.7 6228.92 71283.4 6178.52 71165.2 6071.89 71141.9 5947.81 71141.9 5942 71141.9 5918.73 71167.1 5918.73 71172.9 5918.73 71198.1 5918.73 71200.1 5922.61 71209.8 5951.69 71250.5 6066.08 71394 6135.88 71523.8 6135.88 71836 6135.88 71876.7 5823.73 71876.7 5626 71876.7 5529.06 71870.9 5507.73 71863.1 5486.41 71818.5 5341 71760.4 5125.81 71760.4 5067.64 71760.4 5046.33 71768.1 5021.13 71793.3 5021.13 71806.9 5021.13 71828.2 5021.13 71859.2 5121.94 71882.5 5197.55 71919.3 5341 71934.8 5480.59 71942.6 5548.44 72051.2 5810.17 72091.9 5903.23 72119 5963.33 72159.7 6054.45 72250.9 6223.11 72256.7 6232.81 72260.5 6240.56 72260.5 6248.31 72260.5 6271.58 72235.3 6271.58 72229.5 6271.58 72223.7 6271.58 72206.3 6271.58 72200.5 6261.89 72177.2 6221.17 72029.8 5943.94 71942.6 5707.42"/>
<path transform="matrix(.00359712,0,0,-.00359712,0,64)" d="M72928.9 6279.33C72638.1 6205.67 72475.3 5955.58 72475.3 5752.02 72475.3 5546.5 72632.3 5412.73 72824.2 5412.73 73058.8 5412.73 73241 5688.03 73241 5971.08 73241 6159.14 73140.2 6269.64 73080.1 6335.56 73008.4 6416.98 72863 6575.95 72863 6665.14 72863 6690.34 72890.1 6746.56 72969.6 6746.56 73035.5 6746.56 73089.8 6715.55 73132.5 6692.28 73149.9 6682.58 73219.7 6641.88 73248.8 6641.88 73295.3 6641.88 73330.2 6684.52 73330.2 6723.3 73330.2 6771.77 73305 6775.64 73200.3 6796.97 73177.1 6800.84 73087.9 6820.23 73025.9 6820.23 72880.5 6820.23 72799 6734.92 72799 6616.67 72799 6513.92 72861.1 6395.66 72928.9 6279.33ZM72961.9 6226.98C73016.2 6139.75 73086 6027.3 73086 5887.72 73086 5728.75 72991 5467.02 72828.1 5467.02 72721.5 5467.02 72616.8 5536.81 72616.8 5697.72 72616.8 5825.67 72690.5 6161.08 72961.9 6226.98"/>
<path transform="matrix(.00359712,0,0,-.00359712,0,64)" d="M74766.3 9416.58C74420.1 9333.47 74151.3 8973.34 74151.3 8638.16 74151.3 8372.22 74328.6 8172.75 74589 8172.75 74913.2 8172.75 75143.1 8607.67 75143.1 8989.97 75143.1 9242.05 75032.3 9380.56 74938.1 9505.22 74838.4 9629.88 74674.9 9837.64 74674.9 9959.53 74674.9 10020.5 74730.3 10087 74827.3 10087 74910.4 10087 74965.8 10050.9 75024 10012.2 75079.4 9978.92 75134.8 9942.91 75176.3 9942.91 75245.6 9942.91 75287.1 10009.4 75287.1 10053.7 75287.1 10114.7 75242.8 10123 75143.1 10145.1 74999 10175.6 74960.3 10175.6 74915.9 10175.6 74699.8 10175.6 74600.1 10056.5 74600.1 9890.28 74600.1 9740.69 74680.5 9585.55 74766.3 9416.58ZM74799.6 9355.63C74868.8 9228.2 74951.9 9078.61 74951.9 8879.16 74951.9 8696.33 74846.7 8233.7 74589 8233.7 74436.7 8233.7 74323.1 8350.05 74323.1 8560.58 74323.1 8735.11 74425.6 9255.91 74799.6 9355.63"/>
<path transform="matrix(.00359712,0,0,-.00359712,0,64)" d="M75872.8 9077.3C75874.8 9081.17 75880.6 9106.38 75880.6 9108.31 75880.6 9118.02 75872.8 9135.45 75849.5 9135.45 75810.8 9135.45 75649.9 9119.95 75601.4 9116.08 75585.9 9114.13 75558.8 9112.19 75558.8 9071.48 75558.8 9044.34 75585.9 9044.34 75609.2 9044.34 75702.2 9044.34 75702.2 9030.77 75702.2 9015.27 75702.2 9001.69 75698.3 8990.06 75694.5 8972.61L75421.1 7875.3C75411.4 7840.41 75411.4 7836.53 75411.4 7832.66 75411.4 7803.58 75434.7 7770.61 75477.3 7770.61 75529.7 7770.61 75554.9 7809.39 75566.5 7852.03 75570.4 7859.8 75653.7 8201 75661.5 8228.14 75799.1 8214.58 75909.7 8169.98 75909.7 8069.17 75909.7 8059.48 75909.7 8049.78 75905.8 8030.41 75898 8001.31 75898 7991.63 75898 7970.3 75898 7832.66 76010.5 7770.61 76103.5 7770.61 76291.6 7770.61 76349.7 8065.3 76349.7 8067.23 76349.7 8092.44 76324.5 8092.44 76318.7 8092.44 76291.6 8092.44 76289.6 8082.75 76279.9 8045.91 76256.7 7962.55 76204.3 7824.89 76109.3 7824.89 76057 7824.89 76041.5 7873.36 76041.5 7925.7 76041.5 7958.67 76041.5 7962.55 76053.1 8012.95 76055 8018.77 76062.8 8051.72 76062.8 8073.05 76062.8 8245.59 75830.2 8272.73 75748.7 8278.55 75805 8313.45 75876.7 8377.42 75909.7 8406.5 76008.5 8499.56 76105.5 8590.69 76214 8590.69 76237.3 8590.69 76262.5 8584.88 76278 8565.48 76194.6 8551.91 76177.2 8486 76177.2 8456.91 76177.2 8414.27 76210.1 8385.19 76254.7 8385.19 76307.1 8385.19 76365.3 8427.83 76365.3 8509.27 76365.3 8573.23 76318.7 8644.97 76216 8644.97 76105.5 8644.97 76004.6 8565.48 75905.8 8474.36 75824.3 8396.81 75760.4 8336.72 75680.9 8303.75L75872.8 9077.3"/>
<path transform="matrix(.00359712,0,0,-.00359712,0,64)" d="M77036.7 9077.3C77038.7 9081.17 77044.5 9106.38 77044.5 9108.31 77044.5 9118.02 77036.7 9135.45 77013.5 9135.45 76974.7 9135.45 76813.8 9119.95 76765.3 9116.08 76751.7 9114.13 76724.6 9112.19 76724.6 9071.48 76724.6 9044.34 76751.7 9044.34 76773 9044.34 76866.1 9044.34 76866.1 9030.77 76866.1 9015.27 76866.1 9001.69 76862.2 8990.06 76858.4 8972.61L76618 8014.89C76612.1 7995.5 76610.2 7974.17 76610.2 7954.8 76610.2 7830.72 76720.7 7770.61 76813.8 7770.61 76860.3 7770.61 76918.5 7786.13 76968.9 7873.36 77009.6 7945.09 77036.7 8059.48 77036.7 8067.23 77036.7 8092.44 77011.5 8092.44 77005.7 8092.44 76978.5 8092.44 76974.7 8080.81 76966.9 8045.91 76941.7 7948.97 76904.9 7824.89 76821.5 7824.89 76769.2 7824.89 76755.6 7873.36 76755.6 7919.89 76755.6 7941.22 76761.4 7978.05 76767.2 7999.38L77036.7 9077.3"/>
<path transform="matrix(.00359712,0,0,-.00359712,0,64)" d="M80013.1 9111.84C80054.7 9111.84 80107.3 9111.84 80107.3 9167.25 80107.3 9222.66 80054.7 9222.66 80015.9 9222.66H78356.5C78317.8 9222.66 78265.1 9222.66 78265.1 9167.25 78265.1 9111.84 78317.8 9111.84 78359.3 9111.84H80013.1ZM80015.9 8574.44C80054.7 8574.44 80107.3 8574.44 80107.3 8629.84 80107.3 8685.25 80054.7 8685.25 80013.1 8685.25H78359.3C78317.8 8685.25 78265.1 8685.25 78265.1 8629.84 78265.1 8574.44 78317.8 8574.44 78356.5 8574.44H80015.9"/>
<path transform="matrix(.00359712,0,0,-.00359712,0,64)" d="M82303.3 9092.45C82303.3 9314.08 82289.4 9535.69 82192.5 9740.69 82065 10006.6 81837.9 10050.9 81721.5 10050.9 81555.3 10050.9 81353.1 9978.92 81239.5 9721.3 81150.9 9530.16 81137 9314.08 81137 9092.45 81137 8884.7 81148.1 8635.38 81261.7 8424.84 81380.8 8200.45 81583 8145.06 81718.8 8145.06 81868.4 8145.06 82078.9 8203.23 82200.8 8466.39 82289.4 8657.55 82303.3 8873.61 82303.3 9092.45ZM81718.8 8206C81610.7 8206 81447.3 8275.25 81397.4 8541.19 81367 8707.41 81367 8962.27 81367 9125.7 81367 9303 81367 9485.83 81389.1 9635.42 81441.8 9965.06 81649.5 9990 81718.8 9990 81810.2 9990 81993 9940.14 82045.7 9665.89 82073.4 9510.77 82073.4 9300.22 82073.4 9125.7 82073.4 8917.94 82073.4 8729.56 82042.9 8552.28 82001.3 8289.11 81843.4 8206 81718.8 8206"/>
</svg>
