<svg xmlns="http://www.w3.org/2000/svg" xmlns:xlink="http://www.w3.org/1999/xlink" version="1.1" width="287pt" height="81pt" viewBox="0 0 287 81">
<path transform="matrix(.00359712,0,0,-.00359712,0,81)" d="M2340.73 2295.38C2340.73 2350.77 2301.95 2395.09 2238.23 2395.09 2163.44 2395.09 2088.64 2323.06 2088.64 2248.28 2088.64 2195.64 2127.42 2148.55 2193.91 2148.55 2257.63 2148.55 2340.73 2212.27 2340.73 2295.38ZM2130.2 1253.78C2163.44 1334.11 2163.44 1339.66 2191.14 1414.45 2213.31 1469.84 2227.16 1508.64 2227.16 1561.27 2227.16 1685.92 2138.52 1788.42 2000 1788.42 1739.61 1788.42 1634.33 1386.75 1634.33 1361.81 1634.33 1334.11 1662.03 1334.11 1667.58 1334.11 1695.28 1334.11 1698.05 1339.66 1711.91 1383.97 1786.7 1644.38 1897.5 1727.48 1991.69 1727.48 2013.84 1727.48 2060.94 1727.48 2060.94 1638.83 2060.94 1580.66 2041.55 1522.48 2030.47 1494.78 2008.31 1422.77 1883.66 1101.42 1839.33 982.297 1811.63 910.281 1775.61 818.859 1775.61 760.688 1775.61 630.484 1869.8 533.531 2002.77 533.531 2263.17 533.531 2365.67 935.203 2365.67 960.141 2365.67 987.844 2340.73 987.844 2332.42 987.844 2304.72 987.844 2304.72 979.531 2290.88 937.969 2241 763.453 2149.59 594.469 2008.31 594.469 1961.22 594.469 1941.83 622.172 1941.83 685.891 1941.83 755.141 1958.45 793.922 2022.16 962.906L2130.2 1253.78"/>
<path transform="matrix(.00359712,0,0,-.00359712,0,81)" d="M3828.38 1217.77C3828.38 1652.69 3570.75 1788.42 3365.77 1788.42 2986.25 1788.42 2620.58 1392.28 2620.58 1001.69 2620.58 744.063 2786.78 533.531 3069.34 533.531 3243.88 533.531 3443.33 597.25 3653.86 766.219 3689.88 619.406 3781.28 533.531 3905.94 533.531 4052.77 533.531 4138.64 685.891 4138.64 730.219 4138.64 749.609 4122.02 757.906 4105.39 757.906 4086 757.906 4077.7 749.609 4069.39 730.219 4019.52 594.469 3919.8 594.469 3914.25 594.469 3828.38 594.469 3828.38 810.547 3828.38 877.031 3828.38 935.203 3828.38 940.75 3856.08 973.984 4116.48 1300.88 4174.66 1622.22 4174.66 1624.98 4174.66 1630.52 4171.89 1652.69 4141.41 1652.69 4113.7 1652.69 4113.7 1644.38 4099.86 1594.52 4050 1419.98 3958.58 1209.45 3828.38 1046.02V1217.77ZM3642.78 838.25C3399 624.938 3185.7 594.469 3074.89 594.469 2908.67 594.469 2825.58 719.125 2825.58 896.422 2825.58 1032.16 2897.59 1331.34 2986.25 1472.63 3116.44 1674.84 3266.03 1727.48 3362.98 1727.48 3637.23 1727.48 3637.23 1364.58 3637.23 1148.52 3637.23 1046.02 3637.23 885.344 3642.78 838.25"/>
<path transform="matrix(.00359712,0,0,-.00359712,0,81)" d="M18276.8 2516.38C18276.8 2569 18238 2616.09 18171.5 2616.09 18107.8 2616.09 18024.7 2552.38 18024.7 2469.28 18024.7 2413.88 18063.5 2369.55 18127.2 2369.55 18202 2369.55 18276.8 2441.58 18276.8 2516.38ZM17720 646.484C17667.3 435.953 17534.4 278.063 17379.2 278.063 17362.6 278.063 17321 278.063 17271.2 302.984 17354.3 322.375 17395.8 394.406 17395.8 449.813 17395.8 494.125 17365.4 546.766 17290.6 546.766 17221.3 546.766 17141 488.594 17141 388.859 17141 278.063 17251.8 217.109 17384.8 217.109 17578.7 217.109 17836.3 363.938 17905.6 638.188L18160.4 1652.06C18174.3 1707.47 18174.3 1746.25 18174.3 1754.56 18174.3 1912.47 18057.9 2009.42 17919.4 2009.42 17636.8 2009.42 17479 1607.75 17479 1582.81 17479 1555.11 17506.7 1555.11 17512.2 1555.11 17537.1 1555.11 17539.9 1557.88 17562.1 1610.52 17631.3 1779.5 17758.7 1948.48 17911.1 1948.48 17949.9 1948.48 17999.8 1937.39 17999.8 1821.05 17999.8 1757.33 17991.4 1726.86 17980.4 1679.77L17720 646.484"/>
<path transform="matrix(.00359712,0,0,-.00359712,0,81)" d="M20066.9 2361.23C20066.9 2569 19914.5 2740.75 19690.1 2740.75 19529.4 2740.75 19451.9 2696.42 19354.9 2624.41 19202.6 2513.59 19050.2 2244.89 18997.6 2034.36L18557.1 275.281C18554.3 264.203 18568.2 247.578 18590.3 247.578 18612.5 247.578 18620.8 253.125 18623.6 261.438L18817.5 1026C18870.1 859.797 18992 757.297 19194.3 757.297 19396.5 757.297 19604.2 854.25 19728.9 976.141 19861.9 1103.58 19950.5 1280.86 19950.5 1485.86 19950.5 1685.31 19848 1829.36 19748.3 1898.61 19909 1990.03 20066.9 2161.78 20066.9 2361.23ZM19568.2 1901.39C19532.2 1887.53 19501.7 1882 19435.3 1882 19396.5 1882 19341.1 1879.22 19313.4 1893.08 19318.9 1920.78 19418.6 1915.23 19449.1 1915.23 19507.3 1915.23 19532.2 1915.23 19568.2 1901.39ZM19911.7 2424.95C19911.7 2231.03 19806.5 2031.58 19662.4 1945.7 19587.6 1973.41 19532.2 1978.95 19449.1 1978.95 19390.9 1978.95 19235.8 1981.72 19235.8 1890.31 19233 1812.73 19377.1 1821.05 19426.9 1821.05 19529.4 1821.05 19571 1823.83 19654.1 1857.06 19759.4 1757.33 19773.2 1671.45 19776 1544.03 19781.5 1383.36 19715 1175.59 19637.5 1067.56 19529.4 917.969 19343.8 818.25 19185.9 818.25 18975.4 818.25 18870.1 978.906 18870.1 1175.59 18870.1 1203.3 18870.1 1244.84 18884 1297.48L19061.3 1998.34C19122.2 2236.58 19321.7 2677.03 19654.1 2677.03 19814.8 2677.03 19911.7 2591.16 19911.7 2424.95"/>
<path transform="matrix(.00359712,0,0,-.00359712,0,81)" d="M2159.05 22378C2159.05 22380.8 2159.05 22408.5 2123.03 22408.5 2059.31 22408.5 1857.09 22386.3 1785.06 22380.8 1762.91 22378 1732.44 22375.3 1732.44 22325.4 1732.44 22292.2 1757.36 22292.2 1798.92 22292.2 1931.89 22292.2 1937.42 22272.8 1937.42 22245.1L1929.13 22189.7 1527.44 20594C1516.36 20555.3 1516.36 20549.7 1516.36 20533.1 1516.36 20469.4 1571.77 20455.5 1596.7 20455.5 1632.7 20455.5 1674.27 20480.5 1690.88 20513.7 1704.73 20538.6 1829.39 21051.1 1846.02 21120.4 1940.2 21112.1 2167.36 21067.7 2167.36 20884.9 2167.36 20865.5 2167.36 20854.4 2159.05 20826.7 2153.5 20793.5 2147.97 20760.3 2147.97 20729.8 2147.97 20566.3 2258.77 20455.5 2402.83 20455.5 2485.92 20455.5 2560.72 20499.8 2621.67 20602.3 2690.92 20724.2 2721.39 20876.6 2721.39 20882.1 2721.39 20909.8 2696.45 20909.8 2688.16 20909.8 2660.45 20909.8 2657.67 20898.8 2649.36 20860 2593.97 20657.8 2530.25 20516.5 2408.36 20516.5 2355.73 20516.5 2319.72 20546.9 2319.72 20646.7 2319.72 20693.8 2330.8 20757.5 2341.88 20801.8 2352.95 20848.9 2352.95 20860 2352.95 20887.7 2352.95 21067.7 2178.44 21148.1 1942.97 21178.5 2028.84 21228.4 2117.48 21317.1 2181.2 21383.5 2314.17 21530.4 2441.61 21649.5 2577.34 21649.5 2593.97 21649.5 2596.73 21649.5 2602.28 21646.7 2635.52 21641.2 2638.28 21641.2 2660.45 21624.5 2665.98 21621.8 2665.98 21619 2671.53 21613.5 2538.56 21605.2 2513.63 21497.1 2513.63 21463.9 2513.63 21419.5 2544.09 21366.9 2618.89 21366.9 2690.92 21366.9 2771.25 21427.9 2771.25 21535.9 2771.25 21619 2707.55 21710.4 2582.88 21710.4 2505.31 21710.4 2377.89 21688.3 2178.44 21466.6 2084.25 21361.4 1976.22 21250.6 1870.94 21209L2159.05 22378"/>
<path transform="matrix(.00359712,0,0,-.00359712,0,81)" d="M3003.58 21189.6C3111.61 21508.2 3413.56 21511 3444.03 21511 3862.33 21511 3892.81 21026.2 3892.81 20807.3 3892.81 20638.4 3878.95 20591.3 3859.56 20535.9 3798.63 20333.6 3715.52 20012.3 3715.52 19940.3 3715.52 19909.8 3729.36 19890.4 3751.53 19890.4 3787.55 19890.4 3809.7 19951.4 3840.17 20056.6 3903.89 20289.3 3931.59 20447.2 3942.67 20533.1 3948.22 20569.1 3953.75 20605.1 3964.83 20641.1 4053.48 20915.4 4230.77 21328.1 4341.58 21547 4360.97 21580.2 4394.22 21641.2 4394.22 21652.3 4394.22 21680 4366.52 21680 4360.97 21680 4352.66 21680 4336.03 21680 4327.73 21660.6 4183.67 21397.4 4072.88 21120.4 3962.06 20840.6 3959.3 20926.5 3956.52 21137 3848.48 21405.7 3782 21574.7 3671.19 21710.4 3480.05 21710.4 3133.78 21710.4 2939.86 21289.4 2939.86 21203.5 2939.86 21175.8 2964.8 21175.8 2992.5 21175.8L3003.58 21189.6"/>
<path transform="matrix(.00359712,0,0,-.00359712,0,81)" d="M18289.7 22109C18289.7 22111.8 18289.7 22139.5 18253.7 22139.5 18190 22139.5 17987.8 22117.3 17915.7 22111.8 17893.6 22109 17863.1 22106.3 17863.1 22053.6 17863.1 22023.2 17890.8 22023.2 17932.4 22023.2 18065.3 22023.2 18068.1 21998.2 18068.1 21976.1L18059.8 21920.7 17710.7 20535.6C17702.4 20505.1 17696.9 20485.7 17696.9 20441.4 17696.9 20283.5 17818.8 20186.5 17949 20186.5 18040.4 20186.5 18109.6 20241.9 18156.7 20341.7 18206.6 20446.9 18239.8 20607.6 18239.8 20613.1 18239.8 20640.8 18214.9 20640.8 18206.6 20640.8 18178.9 20640.8 18176.1 20629.8 18167.8 20591 18120.7 20410.9 18068.1 20247.5 17957.3 20247.5 17874.2 20247.5 17874.2 20336.1 17874.2 20374.9 17874.2 20441.4 17877 20455.2 17890.8 20507.9L18289.7 22109"/>
<path transform="matrix(.00359712,0,0,-.00359712,0,81)" d="M19184.3 21427.6C18838.1 21344.5 18569.3 20984.3 18569.3 20649.2 18569.3 20383.2 18746.6 20183.8 19007 20183.8 19331.2 20183.8 19561.1 20618.7 19561.1 21001 19561.1 21253 19450.3 21391.6 19356.1 21516.2 19256.4 21640.9 19092.9 21848.6 19092.9 21970.5 19092.9 22031.5 19148.3 22098 19245.3 22098 19328.4 22098 19383.8 22061.9 19442 22023.2 19497.4 21989.9 19552.8 21953.9 19594.3 21953.9 19663.6 21953.9 19705.1 22020.4 19705.1 22064.7 19705.1 22125.7 19660.8 22134 19561.1 22156.1 19417 22186.6 19378.3 22186.6 19333.9 22186.6 19117.8 22186.6 19018.1 22067.5 19018.1 21901.3 19018.1 21751.7 19098.5 21596.5 19184.3 21427.6ZM19217.6 21366.6C19286.8 21239.2 19369.9 21089.6 19369.9 20890.2 19369.9 20707.3 19264.7 20244.7 19007 20244.7 18854.7 20244.7 18741.1 20361 18741.1 20571.6 18741.1 20746.1 18843.6 21266.9 19217.6 21366.6"/>
<path transform="matrix(.00359712,0,0,-.00359712,0,81)" stroke-width="110.783" stroke-linecap="butt" stroke-miterlimit="10" stroke-linejoin="miter" fill="none" stroke="#000000" d="M5268.99 2650.86 10802.8 5417.94"/>
<path transform="matrix(.00359712,0,0,-.00359712,0,81)" d="M8951.51 4492.18 6971.61 4351.41 7650.99 2992.69"/>
<path transform="matrix(.00359712,0,0,-.00359712,0,81)" stroke-width="110.783" stroke-linecap="butt" stroke-miterlimit="10" stroke-linejoin="miter" fill="none" stroke="#000000" d="M10802.8 5417.94 16198.8 2719.77"/>
<path transform="matrix(.00359712,0,0,-.00359712,0,81)" d="M11879.3 4879.67 13179.8 3380.18 13859.2 4738.9"/>
<path transform="matrix(.00359712,0,0,-.00359712,0,81)" stroke-width="110.783" stroke-linecap="butt" stroke-miterlimit="10" stroke-linejoin="miter" fill="none" stroke="#000000" d="M10802.8 5417.94C6193.12 5417.94 6193.12 17238.6 10802.8 17238.6"/>
<path transform="matrix(.00359712,0,0,-.00359712,0,81)" d="M7345.72 12354.8 6585.84 10521.1 8104.99 10520.8"/>
<path transform="matrix(.00359712,0,0,-.00359712,0,81)" d="M854.047 12528C854.047 12530.8 854.047 12558.5 818.031 12558.5 754.313 12558.5 552.094 12536.3 480.063 12530.8 457.906 12528 427.438 12525.3 427.438 12475.4 427.438 12442.2 452.359 12442.2 493.922 12442.2 626.891 12442.2 632.422 12422.8 632.422 12395.1L624.125 12339.7 222.438 10744C211.359 10705.3 211.359 10699.7 211.359 10683.1 211.359 10619.4 266.766 10605.5 291.703 10605.5 327.703 10605.5 369.266 10630.5 385.875 10663.7 399.734 10688.6 524.391 11201.1 541.016 11270.4 635.203 11262.1 862.359 11217.7 862.359 11034.9 862.359 11015.5 862.359 11004.4 854.047 10976.7 848.5 10943.5 842.969 10910.3 842.969 10879.8 842.969 10716.3 953.766 10605.5 1097.83 10605.5 1180.92 10605.5 1255.72 10649.8 1316.67 10752.3 1385.92 10874.2 1416.39 11026.6 1416.39 11032.1 1416.39 11059.8 1391.45 11059.8 1383.16 11059.8 1355.45 11059.8 1352.67 11048.8 1344.36 11010 1288.97 10807.8 1225.25 10666.5 1103.36 10666.5 1050.73 10666.5 1014.72 10696.9 1014.72 10796.7 1014.72 10843.8 1025.8 10907.5 1036.88 10951.8 1047.95 10998.9 1047.95 11010 1047.95 11037.7 1047.95 11217.7 873.438 11298.1 637.969 11328.5 723.844 11378.4 812.484 11467.1 876.203 11533.5 1009.17 11680.4 1136.61 11799.5 1272.34 11799.5 1288.97 11799.5 1291.73 11799.5 1297.28 11796.7 1330.52 11791.2 1333.28 11791.2 1355.45 11774.5 1360.98 11771.8 1360.98 11769 1366.53 11763.5 1233.56 11755.2 1208.63 11647.1 1208.63 11613.9 1208.63 11569.5 1239.09 11516.9 1313.89 11516.9 1385.92 11516.9 1466.25 11577.9 1466.25 11685.9 1466.25 11769 1402.55 11860.4 1277.88 11860.4 1200.31 11860.4 1072.89 11838.3 873.438 11616.6 779.25 11511.4 671.219 11400.6 565.938 11359L854.047 12528"/>
<path transform="matrix(.00359712,0,0,-.00359712,0,81)" d="M3337 11273.1H4109.89C4148.67 11273.1 4201.31 11273.1 4201.31 11328.5 4201.31 11384 4148.67 11384 4109.89 11384H3337V12159.6C3337 12198.4 3337 12251 3281.61 12251 3226.2 12251 3226.2 12198.4 3226.2 12159.6V11384H2450.55C2411.77 11384 2359.13 11384 2359.13 11328.5 2359.13 11273.1 2411.77 11273.1 2450.55 11273.1H3226.2V10497.5C3226.2 10458.7 3226.2 10406.1 3281.61 10406.1 3337 10406.1 3337 10458.7 3337 10497.5V11273.1"/>
<path transform="matrix(.00359712,0,0,-.00359712,0,81)" d="M5098.66 10298C5076.5 10203.8 5070.95 10184.5 4949.06 10184.5 4915.83 10184.5 4885.36 10184.5 4885.36 10131.8 4885.36 10109.7 4899.2 10098.6 4921.36 10098.6 4996.16 10098.6 5076.5 10106.9 5154.06 10106.9 5245.48 10106.9 5339.67 10098.6 5428.31 10098.6 5442.16 10098.6 5478.17 10098.6 5478.17 10154 5478.17 10184.5 5450.47 10184.5 5411.69 10184.5 5273.19 10184.5 5273.19 10203.8 5273.19 10228.8 5273.19 10262 5389.53 10713.6 5408.92 10782.8 5444.94 10702.5 5522.5 10605.5 5663.78 10605.5 5985.13 10605.5 6331.39 11010 6331.39 11417.2 6331.39 11677.6 6173.48 11860.4 5962.95 11860.4 5824.45 11860.4 5691.48 11760.7 5600.06 11652.7 5572.36 11802.3 5453.25 11860.4 5350.75 11860.4 5223.31 11860.4 5170.69 11752.4 5145.75 11702.5 5095.89 11608.3 5059.88 11442.1 5059.88 11433.8 5059.88 11406.1 5087.58 11406.1 5093.13 11406.1 5120.81 11406.1 5123.59 11408.9 5140.22 11469.8 5187.3 11666.5 5242.7 11799.5 5342.44 11799.5 5389.53 11799.5 5428.31 11777.3 5428.31 11672 5428.31 11608.3 5420 11577.9 5408.92 11530.8L5098.66 10298ZM5586.22 11500.3C5605.61 11575.1 5680.39 11652.7 5730.27 11694.2 5827.22 11780.1 5907.55 11799.5 5954.64 11799.5 6065.45 11799.5 6131.94 11702.5 6131.94 11539.1 6131.94 11375.6 6040.52 11057.1 5990.66 10951.8 5896.47 10757.9 5763.5 10666.5 5661 10666.5 5478.17 10666.5 5442.16 10896.4 5442.16 10913 5442.16 10918.6 5442.16 10924.1 5450.47 10957.3L5586.22 11500.3"/>
<path transform="matrix(.00359712,0,0,-.00359712,0,81)" stroke-width="110.783" stroke-linecap="butt" stroke-miterlimit="10" stroke-linejoin="miter" fill="none" stroke="#000000" d="M10802.8 5417.94C15412.5 5417.94 15412.5 17238.6 10802.8 17238.6"/>
<path transform="matrix(.00359712,0,0,-.00359712,0,81)" d="M14259.9 12354.8 13500.6 10520.8 15019.8 10521.1"/>
<path transform="matrix(.00359712,0,0,-.00359712,0,81)" d="M17064.5 11119.1C17111.6 11119.1 17161.5 11119.1 17161.5 11174.5 17161.5 11230 17111.6 11230 17064.5 11230H15565.9C15518.8 11230 15468.9 11230 15468.9 11174.5 15468.9 11119.1 15518.8 11119.1 15565.9 11119.1H17064.5"/>
<path transform="matrix(.00359712,0,0,-.00359712,0,81)" d="M18188 12374C18188 12376.8 18188 12404.5 18152 12404.5 18088.3 12404.5 17886.1 12382.3 17814.1 12376.8 17791.9 12374 17761.4 12371.3 17761.4 12321.4 17761.4 12288.2 17786.4 12288.2 17827.9 12288.2 17960.9 12288.2 17966.4 12268.8 17966.4 12241.1L17958.1 12185.7 17556.4 10590C17545.4 10551.3 17545.4 10545.7 17545.4 10529.1 17545.4 10465.4 17600.8 10451.5 17625.7 10451.5 17661.7 10451.5 17703.3 10476.5 17719.9 10509.7 17733.7 10534.6 17858.4 11047.1 17875 11116.4 17969.2 11108.1 18196.4 11063.7 18196.4 10880.9 18196.4 10861.5 18196.4 10850.4 18188 10822.7 18182.5 10789.5 18177 10756.3 18177 10725.8 18177 10562.3 18287.8 10451.5 18431.8 10451.5 18514.9 10451.5 18589.7 10495.8 18650.7 10598.3 18719.9 10720.2 18750.4 10872.6 18750.4 10878.1 18750.4 10905.8 18725.5 10905.8 18717.2 10905.8 18689.5 10905.8 18686.7 10894.8 18678.4 10856 18623 10653.8 18559.3 10512.5 18437.4 10512.5 18384.7 10512.5 18348.7 10542.9 18348.7 10642.7 18348.7 10689.8 18359.8 10753.5 18370.9 10797.8 18382 10844.9 18382 10856 18382 10883.7 18382 11063.7 18207.4 11144.1 17972 11174.5 18057.8 11224.4 18146.5 11313.1 18210.2 11379.5 18343.2 11526.4 18470.6 11645.5 18606.3 11645.5 18623 11645.5 18625.7 11645.5 18631.3 11642.7 18664.5 11637.2 18667.3 11637.2 18689.5 11620.5 18695 11617.8 18695 11615 18700.5 11609.5 18567.6 11601.2 18542.6 11493.1 18542.6 11459.9 18542.6 11415.5 18573.1 11362.9 18647.9 11362.9 18719.9 11362.9 18800.3 11423.9 18800.3 11531.9 18800.3 11615 18736.5 11706.4 18611.9 11706.4 18534.3 11706.4 18406.9 11684.3 18207.4 11462.6 18113.3 11357.4 18005.2 11246.6 17899.9 11205L18188 12374"/>
<path transform="matrix(.00359712,0,0,-.00359712,0,81)" stroke-width="110.783" stroke-linecap="butt" stroke-miterlimit="10" stroke-linejoin="miter" fill="none" stroke="#000000" d="M5459.34 19910.5 10802.8 17238.6"/>
<path transform="matrix(.00359712,0,0,-.00359712,0,81)" d="M6509.61 19385.3 7810.13 17885.8 8489.51 19244.6"/>
<path transform="matrix(.00359712,0,0,-.00359712,0,81)" stroke-width="110.783" stroke-linecap="butt" stroke-miterlimit="10" stroke-linejoin="miter" fill="none" stroke="#000000" d="M10802.8 17238.6 16596.4 20135.5"/>
<path transform="matrix(.00359712,0,0,-.00359712,0,81)" d="M14615.7 19145.1 12635.8 19004.3 13315.2 17645.6"/>
<path transform="matrix(.00359712,0,0,-.00359712,0,81)" d="M5541.28 7714.13C5491.42 7816.63 5411.08 7891.42 5286.42 7891.42 4962.31 7891.42 4618.81 7484.2 4618.81 7079.77 4618.81 6819.36 4771.17 6636.53 4987.25 6636.53 5042.64 6636.53 5181.16 6647.61 5347.36 6844.3 5369.53 6727.94 5466.48 6636.53 5599.45 6636.53 5696.41 6636.53 5760.13 6700.25 5804.45 6788.89 5851.55 6888.61 5887.55 7057.59 5887.55 7063.14 5887.55 7090.84 5862.63 7090.84 5854.31 7090.84 5826.61 7090.84 5823.84 7079.77 5815.53 7040.97 5768.44 6860.91 5718.58 6697.47 5605 6697.47 5530.2 6697.47 5521.89 6769.5 5521.89 6824.91 5521.89 6885.84 5527.42 6908 5557.91 7029.89 5588.38 7146.25 5593.91 7173.94 5618.84 7279.22L5718.58 7667.03C5737.97 7744.61 5737.97 7750.14 5737.97 7761.22 5737.97 7808.31 5704.72 7836.02 5657.63 7836.02 5591.14 7836.02 5549.59 7775.08 5541.28 7714.13ZM5361.22 6996.66C5347.36 6946.78 5347.36 6941.25 5305.81 6894.16 5183.92 6741.8 5070.34 6697.47 4992.78 6697.47 4854.28 6697.47 4815.48 6849.83 4815.48 6957.88 4815.48 7096.38 4904.14 7437.11 4967.84 7564.55 5053.73 7727.98 5178.39 7830.48 5289.19 7830.48 5469.25 7830.48 5508.03 7603.33 5508.03 7586.7 5508.03 7570.08 5502.5 7553.45 5499.73 7539.61L5361.22 6996.66"/>
<path transform="matrix(.00359712,0,0,-.00359712,0,81)" d="M6609.91 7639.33C6623.77 7697.52 6651.47 7802.78 6651.47 7816.63 6651.47 7863.72 6618.22 7891.42 6571.13 7891.42 6562.81 7891.42 6485.25 7888.66 6460.33 7791.7L6061.42 6187.75C6053.11 6154.52 6053.11 6148.97 6053.11 6143.44 6053.11 6101.88 6083.58 6068.64 6130.67 6068.64 6188.84 6068.64 6222.09 6118.5 6227.63 6126.81 6238.7 6151.75 6274.72 6295.8 6379.98 6722.41 6468.64 6647.61 6593.3 6636.53 6648.7 6636.53 6842.61 6636.53 6950.64 6761.19 7017.13 6838.75 7042.06 6714.09 7144.56 6636.53 7266.45 6636.53 7363.41 6636.53 7427.13 6700.25 7471.44 6788.89 7518.53 6888.61 7554.55 7057.59 7554.55 7063.14 7554.55 7090.84 7529.61 7090.84 7521.31 7090.84 7493.61 7090.84 7490.83 7079.77 7482.52 7040.97 7435.42 6860.91 7385.56 6697.47 7271.98 6697.47 7197.19 6697.47 7188.88 6769.5 7188.88 6824.91 7188.88 6885.84 7222.13 7016.05 7244.28 7113L7321.86 7412.19C7330.16 7453.73 7357.86 7559 7368.94 7600.55 7382.8 7664.27 7410.5 7769.53 7410.5 7786.16 7410.5 7836.02 7371.72 7860.95 7330.16 7860.95 7316.31 7860.95 7244.28 7858.19 7222.13 7764L7091.92 7245.97C7058.69 7107.45 7028.22 6991.11 7019.91 6963.41 7017.13 6949.56 6884.16 6697.47 6659.78 6697.47 6521.27 6697.47 6454.78 6788.89 6454.78 6938.48 6454.78 7018.81 6474.17 7096.38 6493.56 7173.94L6609.91 7639.33"/>
<path transform="matrix(.00359712,0,0,-.00359712,0,81)" d="M14827.1 7924.03C14827.1 7926.81 14827.1 7954.52 14791.1 7954.52 14727.3 7954.52 14525.1 7932.34 14453.1 7926.81 14430.9 7924.03 14400.5 7921.27 14400.5 7871.41 14400.5 7838.16 14425.4 7838.16 14467 7838.16 14599.9 7838.16 14605.5 7818.77 14605.5 7791.06 14605.5 7771.67 14580.5 7677.48 14566.7 7619.31L14339.5 6716.23C14306.3 6577.73 14295.2 6533.41 14295.2 6436.45 14295.2 6173.28 14442 6001.53 14647 6001.53 14973.9 6001.53 15314.6 6414.28 15314.6 6813.19 15314.6 7065.28 15167.8 7256.42 14946.2 7256.42 14818.8 7256.42 14705.2 7176.09 14622.1 7090.22L14827.1 7924.03ZM14566.7 6876.91C14583.3 6937.84 14583.3 6943.39 14608.2 6973.86 14744 7153.92 14868.6 7195.48 14940.7 7195.48 15040.4 7195.48 15115.2 7112.38 15115.2 6935.08 15115.2 6771.64 15023.8 6453.06 14973.9 6347.8 14882.5 6162.2 14755 6062.47 14647 6062.47 14552.8 6062.47 14461.4 6137.27 14461.4 6342.27 14461.4 6394.89 14461.4 6447.53 14505.7 6622.05L14566.7 6876.91"/>
<path transform="matrix(.00359712,0,0,-.00359712,0,81)" d="M15973.5 7225.95C15973.5 7228.72 15973.5 7256.42 15937.5 7256.42 15873.8 7256.42 15671.6 7234.27 15599.5 7228.72 15577.4 7225.95 15546.9 7223.19 15546.9 7173.31 15546.9 7140.08 15571.8 7140.08 15613.4 7140.08 15746.4 7140.08 15751.9 7120.69 15751.9 7092.98 15751.9 7073.59 15718.7 6943.39 15699.3 6868.59L15530.3 6189.91C15519.2 6148.34 15499.8 6070.78 15499.8 6065.25 15499.8 6034.77 15527.5 6032 15544.1 6032H15582.9C15776.8 6065.25 16078.8 6173.28 16364.1 6439.22 16729.8 6779.95 16804.6 7156.7 16804.6 7181.63 16804.6 7228.72 16771.3 7256.42 16724.3 7256.42 16702.1 7256.42 16638.4 7245.34 16616.2 7165 16438.9 6536.17 16017.8 6225.91 15702 6123.42L15973.5 7225.95"/>
<path transform="matrix(.00359712,0,0,-.00359712,0,81)" d="M5856 16388.7C5811.67 16388.7 5772.89 16388.7 5734.11 16349.9 5689.78 16308.3 5684.25 16261.3 5684.25 16241.8 5684.25 16175.4 5734.11 16144.9 5786.73 16144.9 5867.08 16144.9 5941.88 16211.4 5941.88 16322.2 5941.88 16457.9 5811.67 16560.4 5614.98 16560.4 5241.02 16560.4 4872.58 16164.3 4872.58 15773.7 4872.58 15524.4 5033.25 15305.5 5321.34 15305.5 5717.48 15305.5 5950.19 15599.2 5950.19 15632.4 5950.19 15649 5933.56 15668.4 5916.94 15668.4 5903.09 15668.4 5897.55 15662.9 5880.92 15640.7 5662.08 15366.5 5360.13 15366.5 5326.89 15366.5 5152.36 15366.5 5077.58 15502.2 5077.58 15668.4 5077.58 15782 5132.97 16050.7 5227.16 16222.5 5313.03 16380.4 5465.39 16499.5 5617.77 16499.5 5711.94 16499.5 5817.22 16463.5 5856 16388.7"/>
<path transform="matrix(.00359712,0,0,-.00359712,0,81)" d="M6047.42 14856.8C6039.11 14823.5 6039.11 14818 6039.11 14812.4 6039.11 14770.9 6069.58 14737.6 6116.67 14737.6 6174.84 14737.6 6208.09 14787.5 6213.63 14795.8 6227.48 14820.8 6316.13 15192 6390.92 15491.1 6446.33 15380.3 6534.97 15305.5 6665.17 15305.5 6989.28 15305.5 7346.64 15696.1 7346.64 16108.9 7346.64 16402.5 7163.8 16560.4 6961.58 16560.4 6692.88 16560.4 6402 16283.4 6318.89 15945.4L6047.42 14856.8ZM6662.39 15366.5C6468.48 15366.5 6424.16 15588.1 6424.16 15613 6424.16 15624.1 6438.02 15679.5 6446.33 15715.5 6523.89 16025.8 6551.59 16125.5 6612.53 16236.3 6731.66 16438.5 6870.16 16499.5 6956.03 16499.5 7058.53 16499.5 7147.19 16419.1 7147.19 16228 7147.19 16075.6 7066.84 15765.4 6992.05 15629.6 6900.64 15455.1 6767.67 15366.5 6662.39 15366.5"/>
<path transform="matrix(.00359712,0,0,-.00359712,0,81)" d="M15398.4 16593C15398.4 16595.8 15398.4 16623.5 15362.4 16623.5 15320.9 16623.5 15057.7 16598.6 15010.6 16593 14988.4 16590.3 14971.8 16576.4 14971.8 16540.4 14971.8 16507.2 14996.7 16507.2 15038.3 16507.2 15171.3 16507.2 15176.8 16487.8 15176.8 16460.1L15168.5 16404.7 15002.3 15748.1C14952.4 15850.6 14872.1 15925.4 14747.4 15925.4 14423.3 15925.4 14079.8 15518.2 14079.8 15113.8 14079.8 14853.4 14232.2 14670.5 14448.3 14670.5 14503.6 14670.5 14642.2 14681.6 14808.4 14878.3 14830.5 14761.9 14927.5 14670.5 15060.5 14670.5 15157.4 14670.5 15221.1 14734.3 15265.5 14822.9 15312.5 14922.6 15348.5 15091.6 15348.5 15097.1 15348.5 15124.8 15323.6 15124.8 15315.3 15124.8 15287.6 15124.8 15284.8 15113.8 15276.5 15075 15229.4 14894.9 15179.6 14731.5 15066 14731.5 14991.2 14731.5 14982.9 14803.5 14982.9 14858.9 14982.9 14925.4 14988.4 14944.8 14999.5 14991.9L15398.4 16593ZM14822.2 15030.7C14808.4 14980.8 14808.4 14975.3 14766.8 14928.2 14644.9 14775.8 14531.3 14731.5 14453.8 14731.5 14315.3 14731.5 14276.5 14883.8 14276.5 14991.9 14276.5 15130.4 14365.1 15471.1 14428.8 15598.5 14514.7 15762 14639.4 15864.5 14750.2 15864.5 14930.3 15864.5 14969 15637.3 14969 15620.7 14969 15604.1 14963.5 15587.5 14960.7 15573.6L14822.2 15030.7"/>
<path transform="matrix(.00359712,0,0,-.00359712,0,81)" d="M16844 15734.3C16880 15734.3 16979.7 15734.3 16979.7 15828.5 16979.7 15895 16921.5 15895 16871.7 15895H16240.1C15821.8 15895 15514.3 15437.9 15514.3 15108.2 15514.3 14864.4 15677.7 14670.5 15929.8 14670.5 16256.7 14670.5 16625.1 15005.7 16625.1 15432.3 16625.1 15479.4 16625.1 15612.4 16539.2 15734.3H16844ZM15932.6 14731.5C15796.8 14731.5 15686 14831.2 15686 15030.7 15686 15113.8 15719.3 15340.9 15816.2 15504.4 15932.6 15695.5 16098.8 15734.3 16193 15734.3 16425.7 15734.3 16447.8 15551.5 16447.8 15465.6 16447.8 15335.4 16392.4 15108.2 16298.2 14966.9 16190.2 14803.5 16040.6 14731.5 15932.6 14731.5"/>
<path transform="matrix(.00359712,0,0,-.00359712,0,81)" d="M23784 11273.1H24556.9C24595.7 11273.1 24648.3 11273.1 24648.3 11328.5 24648.3 11384 24595.7 11384 24556.9 11384H23784V12159.6C23784 12198.4 23784 12251 23728.6 12251 23673.2 12251 23673.2 12198.4 23673.2 12159.6V11384H22897.5C22858.8 11384 22806.1 11384 22806.1 11328.5 22806.1 11273.1 22858.8 11273.1 22897.5 11273.1H23673.2V10497.5C23673.2 10458.7 23673.2 10406.1 23728.6 10406.1 23784 10406.1 23784 10458.7 23784 10497.5V11273.1"/>
<path transform="matrix(.00359712,0,0,-.00359712,0,81)" d="M28243.7 4266.38C28243.7 4321.77 28205 4366.09 28141.2 4366.09 28066.4 4366.09 27991.6 4294.06 27991.6 4219.28 27991.6 4166.64 28030.4 4119.55 28096.9 4119.55 28160.6 4119.55 28243.7 4183.27 28243.7 4266.38ZM28033.2 3224.78C28066.4 3305.11 28066.4 3310.66 28094.1 3385.45 28116.3 3440.84 28130.2 3479.64 28130.2 3532.27 28130.2 3656.92 28041.5 3759.42 27903 3759.42 27642.6 3759.42 27537.3 3357.75 27537.3 3332.81 27537.3 3305.11 27565 3305.11 27570.6 3305.11 27598.3 3305.11 27601 3310.66 27614.9 3354.97 27689.7 3615.38 27800.5 3698.48 27894.7 3698.48 27916.8 3698.48 27963.9 3698.48 27963.9 3609.83 27963.9 3551.66 27944.5 3493.48 27933.5 3465.78 27911.3 3393.77 27786.7 3072.42 27742.3 2953.3 27714.6 2881.28 27678.6 2789.86 27678.6 2731.69 27678.6 2601.48 27772.8 2504.53 27905.8 2504.53 28166.2 2504.53 28268.7 2906.2 28268.7 2931.14 28268.7 2958.84 28243.7 2958.84 28235.4 2958.84 28207.7 2958.84 28207.7 2950.53 28193.9 2908.97 28144 2734.45 28052.6 2565.47 27911.3 2565.47 27864.2 2565.47 27844.8 2593.17 27844.8 2656.89 27844.8 2726.14 27861.5 2764.92 27925.2 2933.91L28033.2 3224.78"/>
<path transform="matrix(.00359712,0,0,-.00359712,0,81)" d="M29731.4 3188.77C29731.4 3623.69 29473.8 3759.42 29268.8 3759.42 28889.3 3759.42 28523.6 3363.28 28523.6 2972.69 28523.6 2715.06 28689.8 2504.53 28972.3 2504.53 29146.9 2504.53 29346.3 2568.25 29556.9 2737.22 29592.9 2590.41 29684.3 2504.53 29808.9 2504.53 29955.8 2504.53 30041.6 2656.89 30041.6 2701.22 30041.6 2720.61 30025 2728.91 30008.4 2728.91 29989 2728.91 29980.7 2720.61 29972.4 2701.22 29922.5 2565.47 29822.8 2565.47 29817.3 2565.47 29731.4 2565.47 29731.4 2781.55 29731.4 2848.03 29731.4 2906.2 29731.4 2911.75 29759.1 2944.98 30019.5 3271.88 30077.7 3593.22 30077.7 3595.98 30077.7 3601.52 30074.9 3623.69 30044.4 3623.69 30016.7 3623.69 30016.7 3615.38 30002.9 3565.52 29953 3390.98 29861.6 3180.45 29731.4 3017.02V3188.77ZM29545.8 2809.25C29302 2595.94 29088.7 2565.47 28977.9 2565.47 28811.7 2565.47 28728.6 2690.13 28728.6 2867.42 28728.6 3003.16 28800.6 3302.34 28889.3 3443.63 29019.4 3645.84 29169 3698.48 29266 3698.48 29540.2 3698.48 29540.2 3335.58 29540.2 3119.52 29540.2 3017.02 29540.2 2856.34 29545.8 2809.25"/>
<path transform="matrix(.00359712,0,0,-.00359712,0,81)" d="M48119.8 4487.38C48119.8 4540 48081 4587.09 48014.5 4587.09 47950.8 4587.09 47867.7 4523.38 47867.7 4440.28 47867.7 4384.88 47906.5 4340.55 47970.2 4340.55 48045 4340.55 48119.8 4412.58 48119.8 4487.38ZM47563 2617.48C47510.3 2406.95 47377.4 2249.06 47222.2 2249.06 47205.6 2249.06 47164 2249.06 47114.2 2273.98 47197.3 2293.38 47238.8 2365.41 47238.8 2420.81 47238.8 2465.13 47208.4 2517.77 47133.6 2517.77 47064.3 2517.77 46984 2459.59 46984 2359.86 46984 2249.06 47094.8 2188.11 47227.8 2188.11 47421.7 2188.11 47679.3 2334.94 47748.6 2609.19L48003.4 3623.06C48017.3 3678.47 48017.3 3717.25 48017.3 3725.56 48017.3 3883.47 47900.9 3980.42 47762.4 3980.42 47479.8 3980.42 47322 3578.75 47322 3553.81 47322 3526.11 47349.7 3526.11 47355.2 3526.11 47380.1 3526.11 47382.9 3528.88 47405.1 3581.52 47474.3 3750.5 47601.7 3919.48 47754.1 3919.48 47792.9 3919.48 47842.8 3908.39 47842.8 3792.05 47842.8 3728.33 47834.4 3697.86 47823.4 3650.77L47563 2617.48"/>
<path transform="matrix(.00359712,0,0,-.00359712,0,81)" d="M49909.9 4332.23C49909.9 4540 49757.5 4711.75 49533.1 4711.75 49372.4 4711.75 49294.9 4667.42 49197.9 4595.41 49045.6 4484.59 48893.2 4215.89 48840.6 4005.36L48400.1 2246.28C48397.3 2235.2 48411.2 2218.58 48433.3 2218.58 48455.5 2218.58 48463.8 2224.13 48466.6 2232.44L48660.5 2997C48713.1 2830.8 48835 2728.3 49037.3 2728.3 49239.5 2728.3 49447.2 2825.25 49571.9 2947.14 49704.9 3074.58 49793.5 3251.86 49793.5 3456.86 49793.5 3656.31 49691 3800.36 49591.3 3869.61 49752 3961.03 49909.9 4132.78 49909.9 4332.23ZM49411.2 3872.39C49375.2 3858.53 49344.7 3853 49278.3 3853 49239.5 3853 49184.1 3850.22 49156.4 3864.08 49161.9 3891.78 49261.6 3886.23 49292.1 3886.23 49350.3 3886.23 49375.2 3886.23 49411.2 3872.39ZM49754.7 4395.95C49754.7 4202.03 49649.5 4002.58 49505.4 3916.7 49430.6 3944.41 49375.2 3949.95 49292.1 3949.95 49233.9 3949.95 49078.8 3952.72 49078.8 3861.31 49076 3783.73 49220.1 3792.05 49269.9 3792.05 49372.4 3792.05 49414 3794.83 49497.1 3828.06 49602.4 3728.33 49616.2 3642.45 49619 3515.03 49624.5 3354.36 49558 3146.59 49480.5 3038.56 49372.4 2888.97 49186.8 2789.25 49028.9 2789.25 48818.4 2789.25 48713.1 2949.91 48713.1 3146.59 48713.1 3174.3 48713.1 3215.84 48727 3268.48L48904.3 3969.34C48965.2 4207.58 49164.7 4648.03 49497.1 4648.03 49657.8 4648.03 49754.7 4562.16 49754.7 4395.95"/>
<path transform="matrix(.00359712,0,0,-.00359712,0,81)" d="M28062 20408C28062 20410.8 28062 20438.5 28026 20438.5 27962.3 20438.5 27760.1 20416.3 27688.1 20410.8 27665.9 20408 27635.4 20405.3 27635.4 20355.4 27635.4 20322.2 27660.4 20322.2 27701.9 20322.2 27834.9 20322.2 27840.4 20302.8 27840.4 20275.1L27832.1 20219.7 27430.4 18624C27419.4 18585.3 27419.4 18579.7 27419.4 18563.1 27419.4 18499.4 27474.8 18485.5 27499.7 18485.5 27535.7 18485.5 27577.3 18510.5 27593.9 18543.7 27607.7 18568.6 27732.4 19081.1 27749 19150.4 27843.2 19142.1 28070.4 19097.7 28070.4 18914.9 28070.4 18895.5 28070.4 18884.4 28062 18856.7 28056.5 18823.5 28051 18790.3 28051 18759.8 28051 18596.3 28161.8 18485.5 28305.8 18485.5 28388.9 18485.5 28463.7 18529.8 28524.7 18632.3 28593.9 18754.2 28624.4 18906.6 28624.4 18912.1 28624.4 18939.8 28599.5 18939.8 28591.2 18939.8 28563.5 18939.8 28560.7 18928.8 28552.4 18890 28497 18687.8 28433.3 18546.5 28311.4 18546.5 28258.7 18546.5 28222.7 18576.9 28222.7 18676.7 28222.7 18723.8 28233.8 18787.5 28244.9 18831.8 28256 18878.9 28256 18890 28256 18917.7 28256 19097.7 28081.4 19178.1 27846 19208.5 27931.8 19258.4 28020.5 19347.1 28084.2 19413.5 28217.2 19560.4 28344.6 19679.5 28480.3 19679.5 28497 19679.5 28499.7 19679.5 28505.3 19676.7 28538.5 19671.2 28541.3 19671.2 28563.5 19654.5 28569 19651.8 28569 19649 28574.5 19643.5 28441.6 19635.2 28416.6 19527.1 28416.6 19493.9 28416.6 19449.5 28447.1 19396.9 28521.9 19396.9 28593.9 19396.9 28674.3 19457.9 28674.3 19565.9 28674.3 19649 28610.5 19740.4 28485.9 19740.4 28408.3 19740.4 28280.9 19718.3 28081.4 19496.6 27987.3 19391.4 27879.2 19280.6 27773.9 19239L28062 20408"/>
<path transform="matrix(.00359712,0,0,-.00359712,0,81)" d="M28906.6 19219.6C29014.6 19538.2 29316.6 19541 29347 19541 29765.3 19541 29795.8 19056.2 29795.8 18837.3 29795.8 18668.4 29782 18621.3 29762.6 18565.9 29701.6 18363.6 29618.5 18042.3 29618.5 17970.3 29618.5 17939.8 29632.4 17920.4 29654.5 17920.4 29690.5 17920.4 29712.7 17981.4 29743.2 18086.6 29806.9 18319.3 29834.6 18477.2 29845.7 18563.1 29851.2 18599.1 29856.8 18635.1 29867.8 18671.1 29956.5 18945.4 30133.8 19358.1 30244.6 19577 30264 19610.2 30297.2 19671.2 30297.2 19682.3 30297.2 19710 30269.5 19710 30264 19710 30255.7 19710 30239 19710 30230.7 19690.6 30086.7 19427.4 29975.9 19150.4 29865.1 18870.6 29862.3 18956.5 29859.5 19167 29751.5 19435.7 29685 19604.7 29574.2 19740.4 29383 19740.4 29036.8 19740.4 28842.9 19319.4 28842.9 19233.5 28842.9 19205.8 28867.8 19205.8 28895.5 19205.8L28906.6 19219.6"/>
<path transform="matrix(.00359712,0,0,-.00359712,0,81)" d="M48132.7 20139C48132.7 20141.8 48132.7 20169.5 48096.7 20169.5 48033 20169.5 47830.8 20147.3 47758.7 20141.8 47736.6 20139 47706.1 20136.3 47706.1 20083.6 47706.1 20053.2 47733.8 20053.2 47775.4 20053.2 47908.3 20053.2 47911.1 20028.2 47911.1 20006.1L47902.8 19950.7 47553.7 18565.6C47545.4 18535.1 47539.9 18515.7 47539.9 18471.4 47539.9 18313.5 47661.8 18216.5 47792 18216.5 47883.4 18216.5 47952.6 18271.9 47999.7 18371.7 48049.6 18476.9 48082.8 18637.6 48082.8 18643.1 48082.8 18670.8 48057.9 18670.8 48049.6 18670.8 48021.9 18670.8 48019.1 18659.8 48010.8 18621 47963.7 18440.9 47911.1 18277.5 47800.3 18277.5 47717.2 18277.5 47717.2 18366.1 47717.2 18404.9 47717.2 18471.4 47720 18485.2 47733.8 18537.9L48132.7 20139"/>
<path transform="matrix(.00359712,0,0,-.00359712,0,81)" d="M49027.3 19457.6C48681.1 19374.5 48412.3 19014.3 48412.3 18679.2 48412.3 18413.2 48589.6 18213.8 48850 18213.8 49174.2 18213.8 49404.1 18648.7 49404.1 19031 49404.1 19283 49293.3 19421.6 49199.1 19546.2 49099.4 19670.9 48935.9 19878.6 48935.9 20000.5 48935.9 20061.5 48991.3 20128 49088.3 20128 49171.4 20128 49226.8 20091.9 49285 20053.2 49340.4 20019.9 49395.8 19983.9 49437.3 19983.9 49506.6 19983.9 49548.1 20050.4 49548.1 20094.7 49548.1 20155.7 49503.8 20164 49404.1 20186.1 49260 20216.6 49221.3 20216.6 49176.9 20216.6 48960.8 20216.6 48861.1 20097.5 48861.1 19931.3 48861.1 19781.7 48941.5 19626.5 49027.3 19457.6ZM49060.6 19396.6C49129.8 19269.2 49212.9 19119.6 49212.9 18920.2 49212.9 18737.3 49107.7 18274.7 48850 18274.7 48697.7 18274.7 48584.1 18391 48584.1 18601.6 48584.1 18776.1 48686.6 19296.9 49060.6 19396.6"/>
<path transform="matrix(.00359712,0,0,-.00359712,0,81)" stroke-width="110.783" stroke-linecap="butt" stroke-miterlimit="10" stroke-linejoin="miter" fill="none" stroke="#000000" d="M29770.9 5339.64 32765.4 11328.2"/>
<path transform="matrix(.00359712,0,0,-.00359712,0,81)" d="M31725.9 9249.46 30226.4 7948.94 31585.1 7269.56"/>
<path transform="matrix(.00359712,0,0,-.00359712,0,81)" stroke-width="110.783" stroke-linecap="butt" stroke-miterlimit="10" stroke-linejoin="miter" fill="none" stroke="#000000" d="M32765.4 11328.2 29929.7 16999.2"/>
<path transform="matrix(.00359712,0,0,-.00359712,0,81)" d="M30889.7 15079.3 31030.5 13099.4 32389.2 13778.8"/>
<path transform="matrix(.00359712,0,0,-.00359712,0,81)" stroke-width="110.783" stroke-linecap="butt" stroke-miterlimit="10" stroke-linejoin="miter" fill="none" stroke="#000000" d="M32765.4 11328.2C32765.4 18242.8 44586 18242.8 44586 11328.2"/>
<path transform="matrix(.00359712,0,0,-.00359712,0,81)" d="M39702.8 16513.8 37869.2 17274 37868.7 15754.8"/>
<path transform="matrix(.00359712,0,0,-.00359712,0,81)" d="M36317 19923C36317 19925.8 36317 19953.5 36281 19953.5 36217.3 19953.5 36015.1 19931.3 35943.1 19925.8 35920.9 19923 35890.4 19920.3 35890.4 19870.4 35890.4 19837.2 35915.4 19837.2 35956.9 19837.2 36089.9 19837.2 36095.4 19817.8 36095.4 19790.1L36087.1 19734.7 35685.4 18139C35674.4 18100.3 35674.4 18094.7 35674.4 18078.1 35674.4 18014.4 35729.8 18000.5 35754.7 18000.5 35790.7 18000.5 35832.3 18025.5 35848.9 18058.7 35862.7 18083.6 35987.4 18596.1 36004 18665.4 36098.2 18657.1 36325.4 18612.7 36325.4 18429.9 36325.4 18410.5 36325.4 18399.4 36317 18371.7 36311.5 18338.5 36306 18305.3 36306 18274.8 36306 18111.3 36416.8 18000.5 36560.8 18000.5 36643.9 18000.5 36718.7 18044.8 36779.7 18147.3 36848.9 18269.2 36879.4 18421.6 36879.4 18427.1 36879.4 18454.8 36854.5 18454.8 36846.2 18454.8 36818.5 18454.8 36815.7 18443.8 36807.4 18405 36752 18202.8 36688.3 18061.5 36566.4 18061.5 36513.7 18061.5 36477.7 18091.9 36477.7 18191.7 36477.7 18238.8 36488.8 18302.5 36499.9 18346.8 36511 18393.9 36511 18405 36511 18432.7 36511 18612.7 36336.4 18693.1 36101 18723.5 36186.8 18773.4 36275.5 18862.1 36339.2 18928.5 36472.2 19075.4 36599.6 19194.5 36735.3 19194.5 36752 19194.5 36754.7 19194.5 36760.3 19191.7 36793.5 19186.2 36796.3 19186.2 36818.5 19169.5 36824 19166.8 36824 19164 36829.5 19158.5 36696.6 19150.2 36671.6 19042.1 36671.6 19008.9 36671.6 18964.5 36702.1 18911.9 36776.9 18911.9 36848.9 18911.9 36929.3 18972.9 36929.3 19080.9 36929.3 19164 36865.5 19255.4 36740.9 19255.4 36663.3 19255.4 36535.9 19233.3 36336.4 19011.6 36242.3 18906.4 36134.2 18795.6 36028.9 18754L36317 19923"/>
<path transform="matrix(.00359712,0,0,-.00359712,0,81)" d="M38799 18668.1H39571.9C39610.7 18668.1 39663.3 18668.1 39663.3 18723.5 39663.3 18779 39610.7 18779 39571.9 18779H38799V19554.6C38799 19593.4 38799 19646 38743.6 19646 38688.2 19646 38688.2 19593.4 38688.2 19554.6V18779H37912.5C37873.8 18779 37821.1 18779 37821.1 18723.5 37821.1 18668.1 37873.8 18668.1 37912.5 18668.1H38688.2V17892.5C38688.2 17853.7 38688.2 17801.1 38743.6 17801.1 38799 17801.1 38799 17853.7 38799 17892.5V18668.1"/>
<path transform="matrix(.00359712,0,0,-.00359712,0,81)" d="M40560.7 17693C40538.5 17598.8 40533 17579.5 40411.1 17579.5 40377.8 17579.5 40347.4 17579.5 40347.4 17526.8 40347.4 17504.7 40361.2 17493.6 40383.4 17493.6 40458.2 17493.6 40538.5 17501.9 40616.1 17501.9 40707.5 17501.9 40801.7 17493.6 40890.3 17493.6 40904.2 17493.6 40940.2 17493.6 40940.2 17549 40940.2 17579.5 40912.5 17579.5 40873.7 17579.5 40735.2 17579.5 40735.2 17598.8 40735.2 17623.8 40735.2 17657 40851.5 18108.6 40870.9 18177.8 40906.9 18097.5 40984.5 18000.5 41125.8 18000.5 41447.1 18000.5 41793.4 18405 41793.4 18812.2 41793.4 19072.6 41635.5 19255.4 41425 19255.4 41286.5 19255.4 41153.5 19155.7 41062.1 19047.7 41034.4 19197.3 40915.3 19255.4 40812.8 19255.4 40685.3 19255.4 40632.7 19147.4 40607.8 19097.5 40557.9 19003.3 40521.9 18837.1 40521.9 18828.8 40521.9 18801.1 40549.6 18801.1 40555.1 18801.1 40582.8 18801.1 40585.6 18803.9 40602.2 18864.8 40649.3 19061.5 40704.7 19194.5 40804.4 19194.5 40851.5 19194.5 40890.3 19172.3 40890.3 19067 40890.3 19003.3 40882 18972.9 40870.9 18925.8L40560.7 17693ZM41048.2 18895.3C41067.6 18970.1 41142.4 19047.7 41192.3 19089.2 41289.2 19175.1 41369.5 19194.5 41416.6 19194.5 41527.5 19194.5 41593.9 19097.5 41593.9 18934.1 41593.9 18770.6 41502.5 18452.1 41452.7 18346.8 41358.5 18152.9 41225.5 18061.5 41123 18061.5 40940.2 18061.5 40904.2 18291.4 40904.2 18308 40904.2 18313.6 40904.2 18319.1 40912.5 18352.3L41048.2 18895.3"/>
<path transform="matrix(.00359712,0,0,-.00359712,0,81)" stroke-width="110.783" stroke-linecap="butt" stroke-miterlimit="10" stroke-linejoin="miter" fill="none" stroke="#000000" d="M32765.4 11328.2C32765.4 4413.69 44586 4413.69 44586 11328.2"/>
<path transform="matrix(.00359712,0,0,-.00359712,0,81)" d="M36865.9 6141.73 38700 5382.77 38699.5 6901.92"/>
<path transform="matrix(.00359712,0,0,-.00359712,0,81)" d="M38706 5132.03C38706 5134.81 38706 5162.52 38670 5162.52 38606.3 5162.52 38404.1 5140.34 38332.1 5134.81 38309.9 5132.03 38279.4 5129.27 38279.4 5079.41 38279.4 5046.16 38304.4 5046.16 38345.9 5046.16 38478.9 5046.16 38484.4 5026.77 38484.4 4999.06L38476.1 4943.67 38074.4 3348.03C38063.4 3309.25 38063.4 3303.72 38063.4 3287.09 38063.4 3223.38 38118.8 3209.53 38143.7 3209.53 38179.7 3209.53 38221.3 3234.45 38237.9 3267.7 38251.7 3292.64 38376.4 3805.13 38393 3874.38 38487.2 3866.06 38714.4 3821.73 38714.4 3638.91 38714.4 3619.52 38714.4 3608.44 38706 3580.73 38700.5 3547.48 38695 3514.25 38695 3483.78 38695 3320.33 38805.8 3209.53 38949.8 3209.53 39032.9 3209.53 39107.7 3253.84 39168.7 3356.34 39237.9 3478.23 39268.4 3630.59 39268.4 3636.14 39268.4 3663.84 39243.5 3663.84 39235.2 3663.84 39207.5 3663.84 39204.7 3652.77 39196.4 3613.97 39141 3411.75 39077.3 3270.47 38955.4 3270.47 38902.7 3270.47 38866.7 3300.94 38866.7 3400.67 38866.7 3447.77 38877.8 3511.48 38888.9 3555.8 38900 3602.89 38900 3613.97 38900 3641.67 38900 3821.73 38725.4 3902.08 38490 3932.55 38575.8 3982.41 38664.5 4071.06 38728.2 4137.55 38861.2 4284.36 38988.6 4403.48 39124.3 4403.48 39141 4403.48 39143.7 4403.48 39149.3 4400.7 39182.5 4395.17 39185.3 4395.17 39207.5 4378.55 39213 4375.78 39213 4373 39218.5 4367.47 39085.6 4359.16 39060.6 4251.13 39060.6 4217.88 39060.6 4173.55 39091.1 4120.92 39165.9 4120.92 39237.9 4120.92 39318.3 4181.86 39318.3 4289.91 39318.3 4373 39254.5 4464.42 39129.9 4464.42 39052.3 4464.42 38924.9 4442.27 38725.4 4220.64 38631.3 4115.38 38523.2 4004.58 38417.9 3963.02L38706 5132.03"/>
<path transform="matrix(.00359712,0,0,-.00359712,0,81)" stroke-width="110.783" stroke-linecap="butt" stroke-miterlimit="10" stroke-linejoin="miter" fill="none" stroke="#000000" d="M47421.6 5657.27 44586 11328.2"/>
<path transform="matrix(.00359712,0,0,-.00359712,0,81)" d="M45546 9408.39 45686.8 7428.49 47045.5 8107.87"/>
<path transform="matrix(.00359712,0,0,-.00359712,0,81)" stroke-width="110.783" stroke-linecap="butt" stroke-miterlimit="10" stroke-linejoin="miter" fill="none" stroke="#000000" d="M44586 11328.2 47556.2 17268.4"/>
<path transform="matrix(.00359712,0,0,-.00359712,0,81)" d="M46529 15214.1 45029.5 13913.6 46388.2 13234.2"/>
<path transform="matrix(.00359712,0,0,-.00359712,0,81)" d="M34596.3 9684.13C34546.4 9786.63 34466.1 9861.42 34341.4 9861.42 34017.3 9861.42 33673.8 9454.2 33673.8 9049.77 33673.8 8789.36 33826.2 8606.53 34042.3 8606.53 34097.6 8606.53 34236.2 8617.61 34402.4 8814.3 34424.5 8697.94 34521.5 8606.53 34654.5 8606.53 34751.4 8606.53 34815.1 8670.25 34859.5 8758.89 34906.5 8858.61 34942.5 9027.59 34942.5 9033.14 34942.5 9060.84 34917.6 9060.84 34909.3 9060.84 34881.6 9060.84 34878.8 9049.77 34870.5 9010.97 34823.4 8830.91 34773.6 8667.47 34660 8667.47 34585.2 8667.47 34576.9 8739.5 34576.9 8794.91 34576.9 8855.84 34582.4 8878 34612.9 8999.89 34643.4 9116.25 34648.9 9143.94 34673.8 9249.22L34773.6 9637.03C34793 9714.61 34793 9720.14 34793 9731.22 34793 9778.31 34759.7 9806.02 34712.6 9806.02 34646.1 9806.02 34604.6 9745.08 34596.3 9684.13ZM34416.2 8966.66C34402.4 8916.78 34402.4 8911.25 34360.8 8864.16 34238.9 8711.8 34125.3 8667.47 34047.8 8667.47 33909.3 8667.47 33870.5 8819.83 33870.5 8927.88 33870.5 9066.38 33959.1 9407.11 34022.8 9534.55 34108.7 9697.98 34233.4 9800.48 34344.2 9800.48 34524.3 9800.48 34563 9573.33 34563 9556.7 34563 9540.08 34557.5 9523.45 34554.7 9509.61L34416.2 8966.66"/>
<path transform="matrix(.00359712,0,0,-.00359712,0,81)" d="M35664.9 9609.33C35678.8 9667.52 35706.5 9772.78 35706.5 9786.63 35706.5 9833.72 35673.2 9861.42 35626.1 9861.42 35617.8 9861.42 35540.3 9858.66 35515.3 9761.7L35116.4 8157.75C35108.1 8124.52 35108.1 8118.97 35108.1 8113.44 35108.1 8071.88 35138.6 8038.64 35185.7 8038.64 35243.8 8038.64 35277.1 8088.5 35282.6 8096.81 35293.7 8121.75 35329.7 8265.8 35435 8692.41 35523.6 8617.61 35648.3 8606.53 35703.7 8606.53 35897.6 8606.53 36005.6 8731.19 36072.1 8808.75 36097.1 8684.09 36199.6 8606.53 36321.5 8606.53 36418.4 8606.53 36482.1 8670.25 36526.4 8758.89 36573.5 8858.61 36609.5 9027.59 36609.5 9033.14 36609.5 9060.84 36584.6 9060.84 36576.3 9060.84 36548.6 9060.84 36545.8 9049.77 36537.5 9010.97 36490.4 8830.91 36440.6 8667.47 36327 8667.47 36252.2 8667.47 36243.9 8739.5 36243.9 8794.91 36243.9 8855.84 36277.1 8986.05 36299.3 9083L36376.9 9382.19C36385.2 9423.73 36412.9 9529 36423.9 9570.55 36437.8 9634.27 36465.5 9739.53 36465.5 9756.16 36465.5 9806.02 36426.7 9830.95 36385.2 9830.95 36371.3 9830.95 36299.3 9828.19 36277.1 9734L36146.9 9215.97C36113.7 9077.45 36083.2 8961.11 36074.9 8933.41 36072.1 8919.56 35939.2 8667.47 35714.8 8667.47 35576.3 8667.47 35509.8 8758.89 35509.8 8908.48 35509.8 8988.81 35529.2 9066.38 35548.6 9143.94L35664.9 9609.33"/>
<path transform="matrix(.00359712,0,0,-.00359712,0,81)" d="M41517.1 9895.03C41517.1 9897.81 41517.1 9925.52 41481.1 9925.52 41417.3 9925.52 41215.1 9903.34 41143.1 9897.81 41120.9 9895.03 41090.5 9892.27 41090.5 9842.41 41090.5 9809.16 41115.4 9809.16 41157 9809.16 41289.9 9809.16 41295.5 9789.77 41295.5 9762.06 41295.5 9742.67 41270.5 9648.48 41256.7 9590.31L41029.5 8687.23C40996.3 8548.73 40985.2 8504.41 40985.2 8407.45 40985.2 8144.28 41132 7972.53 41337 7972.53 41663.9 7972.53 42004.6 8385.28 42004.6 8784.19 42004.6 9036.28 41857.8 9227.42 41636.2 9227.42 41508.8 9227.42 41395.2 9147.09 41312.1 9061.22L41517.1 9895.03ZM41256.7 8847.91C41273.3 8908.84 41273.3 8914.39 41298.2 8944.86 41434 9124.92 41558.6 9166.48 41630.7 9166.48 41730.4 9166.48 41805.2 9083.38 41805.2 8906.08 41805.2 8742.64 41713.8 8424.06 41663.9 8318.8 41572.5 8133.2 41445 8033.47 41337 8033.47 41242.8 8033.47 41151.4 8108.27 41151.4 8313.27 41151.4 8365.89 41151.4 8418.53 41195.7 8593.05L41256.7 8847.91"/>
<path transform="matrix(.00359712,0,0,-.00359712,0,81)" d="M42663.5 9196.95C42663.5 9199.72 42663.5 9227.42 42627.5 9227.42 42563.8 9227.42 42361.6 9205.27 42289.5 9199.72 42267.4 9196.95 42236.9 9194.19 42236.9 9144.31 42236.9 9111.08 42261.8 9111.08 42303.4 9111.08 42436.4 9111.08 42441.9 9091.69 42441.9 9063.98 42441.9 9044.59 42408.7 8914.39 42389.3 8839.59L42220.3 8160.91C42209.2 8119.34 42189.8 8041.78 42189.8 8036.25 42189.8 8005.77 42217.5 8003 42234.1 8003H42272.9C42466.8 8036.25 42768.8 8144.28 43054.1 8410.22 43419.8 8750.95 43494.6 9127.7 43494.6 9152.63 43494.6 9199.72 43461.3 9227.42 43414.3 9227.42 43392.1 9227.42 43328.4 9216.34 43306.2 9136 43128.9 8507.17 42707.8 8196.91 42392 8094.42L42663.5 9196.95"/>
<path transform="matrix(.00359712,0,0,-.00359712,0,81)" d="M34911 14417.7C34866.7 14417.7 34827.9 14417.7 34789.1 14378.9 34744.8 14337.3 34739.3 14290.3 34739.3 14270.8 34739.3 14204.4 34789.1 14173.9 34841.7 14173.9 34922.1 14173.9 34996.9 14240.4 34996.9 14351.2 34996.9 14486.9 34866.7 14589.4 34670 14589.4 34296 14589.4 33927.6 14193.3 33927.6 13802.7 33927.6 13553.4 34088.3 13334.5 34376.3 13334.5 34772.5 13334.5 35005.2 13628.2 35005.2 13661.4 35005.2 13678 34988.6 13697.4 34971.9 13697.4 34958.1 13697.4 34952.5 13691.9 34935.9 13669.7 34717.1 13395.5 34415.1 13395.5 34381.9 13395.5 34207.4 13395.5 34132.6 13531.2 34132.6 13697.4 34132.6 13811 34188 14079.7 34282.2 14251.5 34368 14409.4 34520.4 14528.5 34672.8 14528.5 34766.9 14528.5 34872.2 14492.5 34911 14417.7"/>
<path transform="matrix(.00359712,0,0,-.00359712,0,81)" d="M35102.4 12885.8C35094.1 12852.5 35094.1 12847 35094.1 12841.4 35094.1 12799.9 35124.6 12766.6 35171.7 12766.6 35229.8 12766.6 35263.1 12816.5 35268.6 12824.8 35282.5 12849.8 35371.1 13221 35445.9 13520.1 35501.3 13409.3 35590 13334.5 35720.2 13334.5 36044.3 13334.5 36401.6 13725.1 36401.6 14137.9 36401.6 14431.5 36218.8 14589.4 36016.6 14589.4 35747.9 14589.4 35457 14312.4 35373.9 13974.4L35102.4 12885.8ZM35717.4 13395.5C35523.5 13395.5 35479.2 13617.1 35479.2 13642 35479.2 13653.1 35493 13708.5 35501.3 13744.5 35578.9 14054.8 35606.6 14154.5 35667.5 14265.3 35786.7 14467.5 35925.2 14528.5 36011 14528.5 36113.5 14528.5 36202.2 14448.1 36202.2 14257 36202.2 14104.6 36121.8 13794.4 36047 13658.6 35955.6 13484.1 35822.7 13395.5 35717.4 13395.5"/>
<path transform="matrix(.00359712,0,0,-.00359712,0,81)" d="M42089.4 14623C42089.4 14625.8 42089.4 14653.5 42053.4 14653.5 42011.9 14653.5 41748.7 14628.6 41701.6 14623 41679.4 14620.3 41662.8 14606.4 41662.8 14570.4 41662.8 14537.2 41687.7 14537.2 41729.3 14537.2 41862.3 14537.2 41867.8 14517.8 41867.8 14490.1L41859.5 14434.7 41693.3 13778.1C41643.4 13880.6 41563.1 13955.4 41438.4 13955.4 41114.3 13955.4 40770.8 13548.2 40770.8 13143.8 40770.8 12883.4 40923.2 12700.5 41139.3 12700.5 41194.6 12700.5 41333.2 12711.6 41499.4 12908.3 41521.5 12791.9 41618.5 12700.5 41751.5 12700.5 41848.4 12700.5 41912.1 12764.3 41956.5 12852.9 42003.5 12952.6 42039.5 13121.6 42039.5 13127.1 42039.5 13154.8 42014.6 13154.8 42006.3 13154.8 41978.6 13154.8 41975.8 13143.8 41967.5 13105 41920.4 12924.9 41870.6 12761.5 41757 12761.5 41682.2 12761.5 41673.9 12833.5 41673.9 12888.9 41673.9 12955.4 41679.4 12974.8 41690.5 13021.9L42089.4 14623ZM41513.2 13060.7C41499.4 13010.8 41499.4 13005.3 41457.8 12958.2 41335.9 12805.8 41222.3 12761.5 41144.8 12761.5 41006.3 12761.5 40967.5 12913.8 40967.5 13021.9 40967.5 13160.4 41056.1 13501.1 41119.8 13628.5 41205.7 13792 41330.4 13894.5 41441.2 13894.5 41621.3 13894.5 41660 13667.3 41660 13650.7 41660 13634.1 41654.5 13617.5 41651.7 13603.6L41513.2 13060.7"/>
<path transform="matrix(.00359712,0,0,-.00359712,0,81)" d="M43535 13764.3C43571 13764.3 43670.7 13764.3 43670.7 13858.5 43670.7 13925 43612.5 13925 43562.7 13925H42931.1C42512.8 13925 42205.3 13467.9 42205.3 13138.2 42205.3 12894.4 42368.7 12700.5 42620.8 12700.5 42947.7 12700.5 43316.1 13035.7 43316.1 13462.3 43316.1 13509.4 43316.1 13642.4 43230.2 13764.3H43535ZM42623.6 12761.5C42487.8 12761.5 42377 12861.2 42377 13060.7 42377 13143.8 42410.3 13370.9 42507.2 13534.4 42623.6 13725.5 42789.8 13764.3 42884 13764.3 43116.7 13764.3 43138.8 13581.5 43138.8 13495.6 43138.8 13365.4 43083.4 13138.2 42989.2 12996.9 42881.2 12833.5 42731.6 12761.5 42623.6 12761.5"/>
<path transform="matrix(.00359712,0,0,-.00359712,0,81)" d="M53627 11273.1H54399.9C54438.7 11273.1 54491.3 11273.1 54491.3 11328.5 54491.3 11384 54438.7 11384 54399.9 11384H53627V12159.6C53627 12198.4 53627 12251 53571.6 12251 53516.2 12251 53516.2 12198.4 53516.2 12159.6V11384H52740.5C52701.8 11384 52649.1 11384 52649.1 11328.5 52649.1 11273.1 52701.8 11273.1 52740.5 11273.1H53516.2V10497.5C53516.2 10458.7 53516.2 10406.1 53571.6 10406.1 53627 10406.1 53627 10458.7 53627 10497.5V11273.1"/>
<path transform="matrix(.00359712,0,0,-.00359712,0,81)" d="M57895.7 4266.38C57895.7 4321.77 57857 4366.09 57793.2 4366.09 57718.4 4366.09 57643.6 4294.06 57643.6 4219.28 57643.6 4166.64 57682.4 4119.55 57748.9 4119.55 57812.6 4119.55 57895.7 4183.27 57895.7 4266.38ZM57685.2 3224.78C57718.4 3305.11 57718.4 3310.66 57746.1 3385.45 57768.3 3440.84 57782.2 3479.64 57782.2 3532.27 57782.2 3656.92 57693.5 3759.42 57555 3759.42 57294.6 3759.42 57189.3 3357.75 57189.3 3332.81 57189.3 3305.11 57217 3305.11 57222.6 3305.11 57250.3 3305.11 57253 3310.66 57266.9 3354.97 57341.7 3615.38 57452.5 3698.48 57546.7 3698.48 57568.8 3698.48 57615.9 3698.48 57615.9 3609.83 57615.9 3551.66 57596.5 3493.48 57585.5 3465.78 57563.3 3393.77 57438.7 3072.42 57394.3 2953.3 57366.6 2881.28 57330.6 2789.86 57330.6 2731.69 57330.6 2601.48 57424.8 2504.53 57557.8 2504.53 57818.2 2504.53 57920.7 2906.2 57920.7 2931.14 57920.7 2958.84 57895.7 2958.84 57887.4 2958.84 57859.7 2958.84 57859.7 2950.53 57845.9 2908.97 57796 2734.45 57704.6 2565.47 57563.3 2565.47 57516.2 2565.47 57496.8 2593.17 57496.8 2656.89 57496.8 2726.14 57513.5 2764.92 57577.2 2933.91L57685.2 3224.78"/>
<path transform="matrix(.00359712,0,0,-.00359712,0,81)" d="M59383.4 3188.77C59383.4 3623.69 59125.8 3759.42 58920.8 3759.42 58541.3 3759.42 58175.6 3363.28 58175.6 2972.69 58175.6 2715.06 58341.8 2504.53 58624.3 2504.53 58798.9 2504.53 58998.3 2568.25 59208.9 2737.22 59244.9 2590.41 59336.3 2504.53 59460.9 2504.53 59607.8 2504.53 59693.6 2656.89 59693.6 2701.22 59693.6 2720.61 59677 2728.91 59660.4 2728.91 59641 2728.91 59632.7 2720.61 59624.4 2701.22 59574.5 2565.47 59474.8 2565.47 59469.3 2565.47 59383.4 2565.47 59383.4 2781.55 59383.4 2848.03 59383.4 2906.2 59383.4 2911.75 59411.1 2944.98 59671.5 3271.88 59729.7 3593.22 59729.7 3595.98 59729.7 3601.52 59726.9 3623.69 59696.4 3623.69 59668.7 3623.69 59668.7 3615.38 59654.9 3565.52 59605 3390.98 59513.6 3180.45 59383.4 3017.02V3188.77ZM59197.8 2809.25C58954 2595.94 58740.7 2565.47 58629.9 2565.47 58463.7 2565.47 58380.6 2690.13 58380.6 2867.42 58380.6 3003.16 58452.6 3302.34 58541.3 3443.63 58671.4 3645.84 58821 3698.48 58918 3698.48 59192.2 3698.48 59192.2 3335.58 59192.2 3119.52 59192.2 3017.02 59192.2 2856.34 59197.8 2809.25"/>
<path transform="matrix(.00359712,0,0,-.00359712,0,81)" d="M77772.8 4487.38C77772.8 4540 77734 4587.09 77667.5 4587.09 77603.8 4587.09 77520.7 4523.38 77520.7 4440.28 77520.7 4384.88 77559.5 4340.55 77623.2 4340.55 77698 4340.55 77772.8 4412.58 77772.8 4487.38ZM77216 2617.48C77163.3 2406.95 77030.4 2249.06 76875.2 2249.06 76858.6 2249.06 76817 2249.06 76767.2 2273.98 76850.3 2293.38 76891.8 2365.41 76891.8 2420.81 76891.8 2465.13 76861.4 2517.77 76786.6 2517.77 76717.3 2517.77 76637 2459.59 76637 2359.86 76637 2249.06 76747.8 2188.11 76880.8 2188.11 77074.7 2188.11 77332.3 2334.94 77401.6 2609.19L77656.4 3623.06C77670.3 3678.47 77670.3 3717.25 77670.3 3725.56 77670.3 3883.47 77553.9 3980.42 77415.4 3980.42 77132.8 3980.42 76975 3578.75 76975 3553.81 76975 3526.11 77002.7 3526.11 77008.2 3526.11 77033.1 3526.11 77035.9 3528.88 77058.1 3581.52 77127.3 3750.5 77254.7 3919.48 77407.1 3919.48 77445.9 3919.48 77495.8 3908.39 77495.8 3792.05 77495.8 3728.33 77487.4 3697.86 77476.4 3650.77L77216 2617.48"/>
<path transform="matrix(.00359712,0,0,-.00359712,0,81)" d="M79561.9 4332.23C79561.9 4540 79409.5 4711.75 79185.1 4711.75 79024.4 4711.75 78946.9 4667.42 78849.9 4595.41 78697.6 4484.59 78545.2 4215.89 78492.6 4005.36L78052.1 2246.28C78049.3 2235.2 78063.2 2218.58 78085.3 2218.58 78107.5 2218.58 78115.8 2224.13 78118.6 2232.44L78312.5 2997C78365.1 2830.8 78487 2728.3 78689.3 2728.3 78891.5 2728.3 79099.2 2825.25 79223.9 2947.14 79356.9 3074.58 79445.5 3251.86 79445.5 3456.86 79445.5 3656.31 79343 3800.36 79243.3 3869.61 79404 3961.03 79561.9 4132.78 79561.9 4332.23ZM79063.2 3872.39C79027.2 3858.53 78996.7 3853 78930.3 3853 78891.5 3853 78836.1 3850.22 78808.4 3864.08 78813.9 3891.78 78913.6 3886.23 78944.1 3886.23 79002.3 3886.23 79027.2 3886.23 79063.2 3872.39ZM79406.7 4395.95C79406.7 4202.03 79301.5 4002.58 79157.4 3916.7 79082.6 3944.41 79027.2 3949.95 78944.1 3949.95 78885.9 3949.95 78730.8 3952.72 78730.8 3861.31 78728 3783.73 78872.1 3792.05 78921.9 3792.05 79024.4 3792.05 79066 3794.83 79149.1 3828.06 79254.4 3728.33 79268.2 3642.45 79271 3515.03 79276.5 3354.36 79210 3146.59 79132.5 3038.56 79024.4 2888.97 78838.8 2789.25 78680.9 2789.25 78470.4 2789.25 78365.1 2949.91 78365.1 3146.59 78365.1 3174.3 78365.1 3215.84 78379 3268.48L78556.3 3969.34C78617.2 4207.58 78816.7 4648.03 79149.1 4648.03 79309.8 4648.03 79406.7 4562.16 79406.7 4395.95"/>
<path transform="matrix(.00359712,0,0,-.00359712,0,81)" d="M58083.7 20139C58083.7 20141.8 58083.7 20169.5 58047.7 20169.5 57984 20169.5 57781.8 20147.3 57709.7 20141.8 57687.6 20139 57657.1 20136.3 57657.1 20083.6 57657.1 20053.2 57684.8 20053.2 57726.4 20053.2 57859.3 20053.2 57862.1 20028.2 57862.1 20006.1L57853.8 19950.7 57504.7 18565.6C57496.4 18535.1 57490.9 18515.7 57490.9 18471.4 57490.9 18313.5 57612.8 18216.5 57743 18216.5 57834.4 18216.5 57903.6 18271.9 57950.7 18371.7 58000.6 18476.9 58033.8 18637.6 58033.8 18643.1 58033.8 18670.8 58008.9 18670.8 58000.6 18670.8 57972.9 18670.8 57970.1 18659.8 57961.8 18621 57914.7 18440.9 57862.1 18277.5 57751.3 18277.5 57668.2 18277.5 57668.2 18366.1 57668.2 18404.9 57668.2 18471.4 57671 18485.2 57684.8 18537.9L58083.7 20139"/>
<path transform="matrix(.00359712,0,0,-.00359712,0,81)" d="M58978.3 19457.6C58632.1 19374.5 58363.3 19014.3 58363.3 18679.2 58363.3 18413.2 58540.6 18213.8 58801 18213.8 59125.2 18213.8 59355.1 18648.7 59355.1 19031 59355.1 19283 59244.3 19421.6 59150.1 19546.2 59050.4 19670.9 58886.9 19878.6 58886.9 20000.5 58886.9 20061.5 58942.3 20128 59039.3 20128 59122.4 20128 59177.8 20091.9 59236 20053.2 59291.4 20019.9 59346.8 19983.9 59388.3 19983.9 59457.6 19983.9 59499.1 20050.4 59499.1 20094.7 59499.1 20155.7 59454.8 20164 59355.1 20186.1 59211 20216.6 59172.3 20216.6 59127.9 20216.6 58911.8 20216.6 58812.1 20097.5 58812.1 19931.3 58812.1 19781.7 58892.5 19626.5 58978.3 19457.6ZM59011.6 19396.6C59080.8 19269.2 59163.9 19119.6 59163.9 18920.2 59163.9 18737.3 59058.7 18274.7 58801 18274.7 58648.7 18274.7 58535.1 18391 58535.1 18601.6 58535.1 18776.1 58637.6 19296.9 59011.6 19396.6"/>
<path transform="matrix(.00359712,0,0,-.00359712,0,81)" d="M77415 20408C77415 20410.8 77415 20438.5 77379 20438.5 77315.3 20438.5 77113.1 20416.3 77041.1 20410.8 77018.9 20408 76988.4 20405.3 76988.4 20355.4 76988.4 20322.2 77013.4 20322.2 77054.9 20322.2 77187.9 20322.2 77193.4 20302.8 77193.4 20275.1L77185.1 20219.7 76783.4 18624C76772.4 18585.3 76772.4 18579.7 76772.4 18563.1 76772.4 18499.4 76827.8 18485.5 76852.7 18485.5 76888.7 18485.5 76930.3 18510.5 76946.9 18543.7 76960.7 18568.6 77085.4 19081.1 77102 19150.4 77196.2 19142.1 77423.4 19097.7 77423.4 18914.9 77423.4 18895.5 77423.4 18884.4 77415 18856.7 77409.5 18823.5 77404 18790.3 77404 18759.8 77404 18596.3 77514.8 18485.5 77658.8 18485.5 77741.9 18485.5 77816.7 18529.8 77877.7 18632.3 77946.9 18754.2 77977.4 18906.6 77977.4 18912.1 77977.4 18939.8 77952.5 18939.8 77944.2 18939.8 77916.5 18939.8 77913.7 18928.8 77905.4 18890 77850 18687.8 77786.3 18546.5 77664.4 18546.5 77611.7 18546.5 77575.7 18576.9 77575.7 18676.7 77575.7 18723.8 77586.8 18787.5 77597.9 18831.8 77609 18878.9 77609 18890 77609 18917.7 77609 19097.7 77434.4 19178.1 77199 19208.5 77284.8 19258.4 77373.5 19347.1 77437.2 19413.5 77570.2 19560.4 77697.6 19679.5 77833.3 19679.5 77850 19679.5 77852.7 19679.5 77858.3 19676.7 77891.5 19671.2 77894.3 19671.2 77916.5 19654.5 77922 19651.8 77922 19649 77927.5 19643.5 77794.6 19635.2 77769.6 19527.1 77769.6 19493.9 77769.6 19449.5 77800.1 19396.9 77874.9 19396.9 77946.9 19396.9 78027.3 19457.9 78027.3 19565.9 78027.3 19649 77963.5 19740.4 77838.9 19740.4 77761.3 19740.4 77633.9 19718.3 77434.4 19496.6 77340.3 19391.4 77232.2 19280.6 77126.9 19239L77415 20408"/>
<path transform="matrix(.00359712,0,0,-.00359712,0,81)" d="M78259.6 19219.6C78367.6 19538.2 78669.6 19541 78700 19541 79118.3 19541 79148.8 19056.2 79148.8 18837.3 79148.8 18668.4 79135 18621.3 79115.6 18565.9 79054.6 18363.6 78971.5 18042.3 78971.5 17970.3 78971.5 17939.8 78985.4 17920.4 79007.5 17920.4 79043.5 17920.4 79065.7 17981.4 79096.2 18086.6 79159.9 18319.3 79187.6 18477.2 79198.7 18563.1 79204.2 18599.1 79209.8 18635.1 79220.8 18671.1 79309.5 18945.4 79486.8 19358.1 79597.6 19577 79617 19610.2 79650.2 19671.2 79650.2 19682.3 79650.2 19710 79622.5 19710 79617 19710 79608.7 19710 79592 19710 79583.7 19690.6 79439.7 19427.4 79328.9 19150.4 79218.1 18870.6 79215.3 18956.5 79212.5 19167 79104.5 19435.7 79038 19604.7 78927.2 19740.4 78736 19740.4 78389.8 19740.4 78195.9 19319.4 78195.9 19233.5 78195.9 19205.8 78220.8 19205.8 78248.5 19205.8L78259.6 19219.6"/>
<path transform="matrix(.00359712,0,0,-.00359712,0,81)" stroke-width="110.783" stroke-linecap="butt" stroke-miterlimit="10" stroke-linejoin="miter" fill="none" stroke="#000000" d="M59423.2 5339.64 62417.7 11328.2"/>
<path transform="matrix(.00359712,0,0,-.00359712,0,81)" d="M61378.2 9249.46 59878.7 7948.94 61237.4 7269.56"/>
<path transform="matrix(.00359712,0,0,-.00359712,0,81)" stroke-width="110.783" stroke-linecap="butt" stroke-miterlimit="10" stroke-linejoin="miter" fill="none" stroke="#000000" d="M62417.7 11328.2 59447.4 17268.4"/>
<path transform="matrix(.00359712,0,0,-.00359712,0,81)" d="M60474.7 15214.1 60615.4 13234.2 61974.2 13913.6"/>
<path transform="matrix(.00359712,0,0,-.00359712,0,81)" stroke-width="110.783" stroke-linecap="butt" stroke-miterlimit="10" stroke-linejoin="miter" fill="none" stroke="#000000" d="M62417.7 11328.2C62417.7 18242.8 74238.3 18242.8 74238.3 11328.2"/>
<path transform="matrix(.00359712,0,0,-.00359712,0,81)" d="M69355.1 16513.8 67521.5 17274 67521 15754.8"/>
<path transform="matrix(.00359712,0,0,-.00359712,0,81)" d="M65969 19923C65969 19925.8 65969 19953.5 65933 19953.5 65869.3 19953.5 65667.1 19931.3 65595.1 19925.8 65572.9 19923 65542.4 19920.3 65542.4 19870.4 65542.4 19837.2 65567.4 19837.2 65608.9 19837.2 65741.9 19837.2 65747.4 19817.8 65747.4 19790.1L65739.1 19734.7 65337.4 18139C65326.4 18100.3 65326.4 18094.7 65326.4 18078.1 65326.4 18014.4 65381.8 18000.5 65406.7 18000.5 65442.7 18000.5 65484.3 18025.5 65500.9 18058.7 65514.7 18083.6 65639.4 18596.1 65656 18665.4 65750.2 18657.1 65977.4 18612.7 65977.4 18429.9 65977.4 18410.5 65977.4 18399.4 65969 18371.7 65963.5 18338.5 65958 18305.3 65958 18274.8 65958 18111.3 66068.8 18000.5 66212.8 18000.5 66295.9 18000.5 66370.7 18044.8 66431.7 18147.3 66500.9 18269.2 66531.4 18421.6 66531.4 18427.1 66531.4 18454.8 66506.5 18454.8 66498.2 18454.8 66470.5 18454.8 66467.7 18443.8 66459.4 18405 66404 18202.8 66340.3 18061.5 66218.4 18061.5 66165.7 18061.5 66129.7 18091.9 66129.7 18191.7 66129.7 18238.8 66140.8 18302.5 66151.9 18346.8 66163 18393.9 66163 18405 66163 18432.7 66163 18612.7 65988.4 18693.1 65753 18723.5 65838.8 18773.4 65927.5 18862.1 65991.2 18928.5 66124.2 19075.4 66251.6 19194.5 66387.3 19194.5 66404 19194.5 66406.7 19194.5 66412.3 19191.7 66445.5 19186.2 66448.3 19186.2 66470.5 19169.5 66476 19166.8 66476 19164 66481.5 19158.5 66348.6 19150.2 66323.6 19042.1 66323.6 19008.9 66323.6 18964.5 66354.1 18911.9 66428.9 18911.9 66500.9 18911.9 66581.3 18972.9 66581.3 19080.9 66581.3 19164 66517.5 19255.4 66392.9 19255.4 66315.3 19255.4 66187.9 19233.3 65988.4 19011.6 65894.3 18906.4 65786.2 18795.6 65680.9 18754L65969 19923"/>
<path transform="matrix(.00359712,0,0,-.00359712,0,81)" d="M68452 18668.1H69224.9C69263.7 18668.1 69316.3 18668.1 69316.3 18723.5 69316.3 18779 69263.7 18779 69224.9 18779H68452V19554.6C68452 19593.4 68452 19646 68396.6 19646 68341.2 19646 68341.2 19593.4 68341.2 19554.6V18779H67565.5C67526.8 18779 67474.1 18779 67474.1 18723.5 67474.1 18668.1 67526.8 18668.1 67565.5 18668.1H68341.2V17892.5C68341.2 17853.7 68341.2 17801.1 68396.6 17801.1 68452 17801.1 68452 17853.7 68452 17892.5V18668.1"/>
<path transform="matrix(.00359712,0,0,-.00359712,0,81)" d="M70212.7 17693C70190.5 17598.8 70185 17579.5 70063.1 17579.5 70029.8 17579.5 69999.4 17579.5 69999.4 17526.8 69999.4 17504.7 70013.2 17493.6 70035.4 17493.6 70110.2 17493.6 70190.5 17501.9 70268.1 17501.9 70359.5 17501.9 70453.7 17493.6 70542.3 17493.6 70556.2 17493.6 70592.2 17493.6 70592.2 17549 70592.2 17579.5 70564.5 17579.5 70525.7 17579.5 70387.2 17579.5 70387.2 17598.8 70387.2 17623.8 70387.2 17657 70503.5 18108.6 70522.9 18177.8 70558.9 18097.5 70636.5 18000.5 70777.8 18000.5 71099.1 18000.5 71445.4 18405 71445.4 18812.2 71445.4 19072.6 71287.5 19255.4 71077 19255.4 70938.5 19255.4 70805.5 19155.7 70714.1 19047.7 70686.4 19197.3 70567.3 19255.4 70464.8 19255.4 70337.3 19255.4 70284.7 19147.4 70259.8 19097.5 70209.9 19003.3 70173.9 18837.1 70173.9 18828.8 70173.9 18801.1 70201.6 18801.1 70207.1 18801.1 70234.8 18801.1 70237.6 18803.9 70254.2 18864.8 70301.3 19061.5 70356.7 19194.5 70456.4 19194.5 70503.5 19194.5 70542.3 19172.3 70542.3 19067 70542.3 19003.3 70534 18972.9 70522.9 18925.8L70212.7 17693ZM70700.2 18895.3C70719.6 18970.1 70794.4 19047.7 70844.3 19089.2 70941.2 19175.1 71021.5 19194.5 71068.6 19194.5 71179.5 19194.5 71245.9 19097.5 71245.9 18934.1 71245.9 18770.6 71154.5 18452.1 71104.7 18346.8 71010.5 18152.9 70877.5 18061.5 70775 18061.5 70592.2 18061.5 70556.2 18291.4 70556.2 18308 70556.2 18313.6 70556.2 18319.1 70564.5 18352.3L70700.2 18895.3"/>
<path transform="matrix(.00359712,0,0,-.00359712,0,81)" stroke-width="110.783" stroke-linecap="butt" stroke-miterlimit="10" stroke-linejoin="miter" fill="none" stroke="#000000" d="M62417.7 11328.2C62417.7 4413.69 74238.3 4413.69 74238.3 11328.2"/>
<path transform="matrix(.00359712,0,0,-.00359712,0,81)" d="M66518.2 6141.73 68352.4 5382.77 68351.9 6901.92"/>
<path transform="matrix(.00359712,0,0,-.00359712,0,81)" d="M68358 5132.03C68358 5134.81 68358 5162.52 68322 5162.52 68258.3 5162.52 68056.1 5140.34 67984.1 5134.81 67961.9 5132.03 67931.4 5129.27 67931.4 5079.41 67931.4 5046.16 67956.4 5046.16 67997.9 5046.16 68130.9 5046.16 68136.4 5026.77 68136.4 4999.06L68128.1 4943.67 67726.4 3348.03C67715.4 3309.25 67715.4 3303.72 67715.4 3287.09 67715.4 3223.38 67770.8 3209.53 67795.7 3209.53 67831.7 3209.53 67873.3 3234.45 67889.9 3267.7 67903.7 3292.64 68028.4 3805.13 68045 3874.38 68139.2 3866.06 68366.4 3821.73 68366.4 3638.91 68366.4 3619.52 68366.4 3608.44 68358 3580.73 68352.5 3547.48 68347 3514.25 68347 3483.78 68347 3320.33 68457.8 3209.53 68601.8 3209.53 68684.9 3209.53 68759.7 3253.84 68820.7 3356.34 68889.9 3478.23 68920.4 3630.59 68920.4 3636.14 68920.4 3663.84 68895.5 3663.84 68887.2 3663.84 68859.5 3663.84 68856.7 3652.77 68848.4 3613.97 68793 3411.75 68729.3 3270.47 68607.4 3270.47 68554.7 3270.47 68518.7 3300.94 68518.7 3400.67 68518.7 3447.77 68529.8 3511.48 68540.9 3555.8 68552 3602.89 68552 3613.97 68552 3641.67 68552 3821.73 68377.4 3902.08 68142 3932.55 68227.8 3982.41 68316.5 4071.06 68380.2 4137.55 68513.2 4284.36 68640.6 4403.48 68776.3 4403.48 68793 4403.48 68795.7 4403.48 68801.3 4400.7 68834.5 4395.17 68837.3 4395.17 68859.5 4378.55 68865 4375.78 68865 4373 68870.5 4367.47 68737.6 4359.16 68712.6 4251.13 68712.6 4217.88 68712.6 4173.55 68743.1 4120.92 68817.9 4120.92 68889.9 4120.92 68970.3 4181.86 68970.3 4289.91 68970.3 4373 68906.5 4464.42 68781.9 4464.42 68704.3 4464.42 68576.9 4442.27 68377.4 4220.64 68283.3 4115.38 68175.2 4004.58 68069.9 3963.02L68358 5132.03"/>
<path transform="matrix(.00359712,0,0,-.00359712,0,81)" stroke-width="110.783" stroke-linecap="butt" stroke-miterlimit="10" stroke-linejoin="miter" fill="none" stroke="#000000" d="M77073.9 5657.27 74238.3 11328.2"/>
<path transform="matrix(.00359712,0,0,-.00359712,0,81)" d="M75198.3 9408.39 75339.1 7428.49 76697.8 8107.87"/>
<path transform="matrix(.00359712,0,0,-.00359712,0,81)" stroke-width="110.783" stroke-linecap="butt" stroke-miterlimit="10" stroke-linejoin="miter" fill="none" stroke="#000000" d="M74238.3 11328.2 77073.9 16999.2"/>
<path transform="matrix(.00359712,0,0,-.00359712,0,81)" d="M76113.9 15079.3 74614.4 13778.8 75973.1 13099.4"/>
<path transform="matrix(.00359712,0,0,-.00359712,0,81)" d="M64248.3 9684.13C64198.4 9786.63 64118.1 9861.42 63993.4 9861.42 63669.3 9861.42 63325.8 9454.2 63325.8 9049.77 63325.8 8789.36 63478.2 8606.53 63694.3 8606.53 63749.6 8606.53 63888.2 8617.61 64054.4 8814.3 64076.5 8697.94 64173.5 8606.53 64306.5 8606.53 64403.4 8606.53 64467.1 8670.25 64511.5 8758.89 64558.5 8858.61 64594.5 9027.59 64594.5 9033.14 64594.5 9060.84 64569.6 9060.84 64561.3 9060.84 64533.6 9060.84 64530.8 9049.77 64522.5 9010.97 64475.4 8830.91 64425.6 8667.47 64312 8667.47 64237.2 8667.47 64228.9 8739.5 64228.9 8794.91 64228.9 8855.84 64234.4 8878 64264.9 8999.89 64295.4 9116.25 64300.9 9143.94 64325.8 9249.22L64425.6 9637.03C64445 9714.61 64445 9720.14 64445 9731.22 64445 9778.31 64411.7 9806.02 64364.6 9806.02 64298.1 9806.02 64256.6 9745.08 64248.3 9684.13ZM64068.2 8966.66C64054.4 8916.78 64054.4 8911.25 64012.8 8864.16 63890.9 8711.8 63777.3 8667.47 63699.8 8667.47 63561.3 8667.47 63522.5 8819.83 63522.5 8927.88 63522.5 9066.38 63611.1 9407.11 63674.8 9534.55 63760.7 9697.98 63885.4 9800.48 63996.2 9800.48 64176.3 9800.48 64215 9573.33 64215 9556.7 64215 9540.08 64209.5 9523.45 64206.7 9509.61L64068.2 8966.66"/>
<path transform="matrix(.00359712,0,0,-.00359712,0,81)" d="M65317.9 9609.33C65331.8 9667.52 65359.5 9772.78 65359.5 9786.63 65359.5 9833.72 65326.2 9861.42 65279.1 9861.42 65270.8 9861.42 65193.3 9858.66 65168.3 9761.7L64769.4 8157.75C64761.1 8124.52 64761.1 8118.97 64761.1 8113.44 64761.1 8071.88 64791.6 8038.64 64838.7 8038.64 64896.8 8038.64 64930.1 8088.5 64935.6 8096.81 64946.7 8121.75 64982.7 8265.8 65088 8692.41 65176.6 8617.61 65301.3 8606.53 65356.7 8606.53 65550.6 8606.53 65658.6 8731.19 65725.1 8808.75 65750.1 8684.09 65852.6 8606.53 65974.5 8606.53 66071.4 8606.53 66135.1 8670.25 66179.4 8758.89 66226.5 8858.61 66262.5 9027.59 66262.5 9033.14 66262.5 9060.84 66237.6 9060.84 66229.3 9060.84 66201.6 9060.84 66198.8 9049.77 66190.5 9010.97 66143.4 8830.91 66093.6 8667.47 65980 8667.47 65905.2 8667.47 65896.9 8739.5 65896.9 8794.91 65896.9 8855.84 65930.1 8986.05 65952.3 9083L66029.9 9382.19C66038.2 9423.73 66065.9 9529 66076.9 9570.55 66090.8 9634.27 66118.5 9739.53 66118.5 9756.16 66118.5 9806.02 66079.7 9830.95 66038.2 9830.95 66024.3 9830.95 65952.3 9828.19 65930.1 9734L65799.9 9215.97C65766.7 9077.45 65736.2 8961.11 65727.9 8933.41 65725.1 8919.56 65592.2 8667.47 65367.8 8667.47 65229.3 8667.47 65162.8 8758.89 65162.8 8908.48 65162.8 8988.81 65182.2 9066.38 65201.6 9143.94L65317.9 9609.33"/>
<path transform="matrix(.00359712,0,0,-.00359712,0,81)" d="M71169.1 9895.03C71169.1 9897.81 71169.1 9925.52 71133.1 9925.52 71069.3 9925.52 70867.1 9903.34 70795.1 9897.81 70772.9 9895.03 70742.5 9892.27 70742.5 9842.41 70742.5 9809.16 70767.4 9809.16 70809 9809.16 70941.9 9809.16 70947.5 9789.77 70947.5 9762.06 70947.5 9742.67 70922.5 9648.48 70908.7 9590.31L70681.5 8687.23C70648.3 8548.73 70637.2 8504.41 70637.2 8407.45 70637.2 8144.28 70784 7972.53 70989 7972.53 71315.9 7972.53 71656.6 8385.28 71656.6 8784.19 71656.6 9036.28 71509.8 9227.42 71288.2 9227.42 71160.8 9227.42 71047.2 9147.09 70964.1 9061.22L71169.1 9895.03ZM70908.7 8847.91C70925.3 8908.84 70925.3 8914.39 70950.2 8944.86 71086 9124.92 71210.6 9166.48 71282.7 9166.48 71382.4 9166.48 71457.2 9083.38 71457.2 8906.08 71457.2 8742.64 71365.8 8424.06 71315.9 8318.8 71224.5 8133.2 71097 8033.47 70989 8033.47 70894.8 8033.47 70803.4 8108.27 70803.4 8313.27 70803.4 8365.89 70803.4 8418.53 70847.7 8593.05L70908.7 8847.91"/>
<path transform="matrix(.00359712,0,0,-.00359712,0,81)" d="M72316.5 9196.95C72316.5 9199.72 72316.5 9227.42 72280.5 9227.42 72216.8 9227.42 72014.6 9205.27 71942.5 9199.72 71920.4 9196.95 71889.9 9194.19 71889.9 9144.31 71889.9 9111.08 71914.8 9111.08 71956.4 9111.08 72089.4 9111.08 72094.9 9091.69 72094.9 9063.98 72094.9 9044.59 72061.7 8914.39 72042.3 8839.59L71873.3 8160.91C71862.2 8119.34 71842.8 8041.78 71842.8 8036.25 71842.8 8005.77 71870.5 8003 71887.1 8003H71925.9C72119.8 8036.25 72421.8 8144.28 72707.1 8410.22 73072.8 8750.95 73147.6 9127.7 73147.6 9152.63 73147.6 9199.72 73114.3 9227.42 73067.3 9227.42 73045.1 9227.42 72981.4 9216.34 72959.2 9136 72781.9 8507.17 72360.8 8196.91 72045 8094.42L72316.5 9196.95"/>
<path transform="matrix(.00359712,0,0,-.00359712,0,81)" d="M64649.4 14623C64649.4 14625.8 64649.4 14653.5 64613.4 14653.5 64571.9 14653.5 64308.7 14628.6 64261.6 14623 64239.4 14620.3 64222.8 14606.4 64222.8 14570.4 64222.8 14537.2 64247.7 14537.2 64289.3 14537.2 64422.3 14537.2 64427.8 14517.8 64427.8 14490.1L64419.5 14434.7 64253.3 13778.1C64203.4 13880.6 64123.1 13955.4 63998.4 13955.4 63674.3 13955.4 63330.8 13548.2 63330.8 13143.8 63330.8 12883.4 63483.2 12700.5 63699.3 12700.5 63754.6 12700.5 63893.2 12711.6 64059.4 12908.3 64081.5 12791.9 64178.5 12700.5 64311.5 12700.5 64408.4 12700.5 64472.1 12764.3 64516.5 12852.9 64563.5 12952.6 64599.5 13121.6 64599.5 13127.1 64599.5 13154.8 64574.6 13154.8 64566.3 13154.8 64538.6 13154.8 64535.8 13143.8 64527.5 13105 64480.4 12924.9 64430.6 12761.5 64317 12761.5 64242.2 12761.5 64233.9 12833.5 64233.9 12888.9 64233.9 12955.4 64239.4 12974.8 64250.5 13021.9L64649.4 14623ZM64073.2 13060.7C64059.4 13010.8 64059.4 13005.3 64017.8 12958.2 63895.9 12805.8 63782.3 12761.5 63704.8 12761.5 63566.3 12761.5 63527.5 12913.8 63527.5 13021.9 63527.5 13160.4 63616.1 13501.1 63679.8 13628.5 63765.7 13792 63890.4 13894.5 64001.2 13894.5 64181.3 13894.5 64220 13667.3 64220 13650.7 64220 13634.1 64214.5 13617.5 64211.7 13603.6L64073.2 13060.7"/>
<path transform="matrix(.00359712,0,0,-.00359712,0,81)" d="M66095 13764.3C66131 13764.3 66230.7 13764.3 66230.7 13858.5 66230.7 13925 66172.5 13925 66122.7 13925H65491.1C65072.8 13925 64765.3 13467.9 64765.3 13138.2 64765.3 12894.4 64928.7 12700.5 65180.8 12700.5 65507.7 12700.5 65876.1 13035.7 65876.1 13462.3 65876.1 13509.4 65876.1 13642.4 65790.2 13764.3H66095ZM65183.6 12761.5C65047.8 12761.5 64937 12861.2 64937 13060.7 64937 13143.8 64970.3 13370.9 65067.2 13534.4 65183.6 13725.5 65349.8 13764.3 65444 13764.3 65676.7 13764.3 65698.8 13581.5 65698.8 13495.6 65698.8 13365.4 65643.4 13138.2 65549.2 12996.9 65441.2 12833.5 65291.6 12761.5 65183.6 12761.5"/>
<path transform="matrix(.00359712,0,0,-.00359712,0,81)" d="M71656 14417.7C71611.7 14417.7 71572.9 14417.7 71534.1 14378.9 71489.8 14337.3 71484.3 14290.3 71484.3 14270.8 71484.3 14204.4 71534.1 14173.9 71586.7 14173.9 71667.1 14173.9 71741.9 14240.4 71741.9 14351.2 71741.9 14486.9 71611.7 14589.4 71415 14589.4 71041 14589.4 70672.6 14193.3 70672.6 13802.7 70672.6 13553.4 70833.3 13334.5 71121.3 13334.5 71517.5 13334.5 71750.2 13628.2 71750.2 13661.4 71750.2 13678 71733.6 13697.4 71716.9 13697.4 71703.1 13697.4 71697.5 13691.9 71680.9 13669.7 71462.1 13395.5 71160.1 13395.5 71126.9 13395.5 70952.4 13395.5 70877.6 13531.2 70877.6 13697.4 70877.6 13811 70933 14079.7 71027.2 14251.5 71113 14409.4 71265.4 14528.5 71417.8 14528.5 71511.9 14528.5 71617.2 14492.5 71656 14417.7"/>
<path transform="matrix(.00359712,0,0,-.00359712,0,81)" d="M71846.4 12885.8C71838.1 12852.5 71838.1 12847 71838.1 12841.4 71838.1 12799.9 71868.6 12766.6 71915.7 12766.6 71973.8 12766.6 72007.1 12816.5 72012.6 12824.8 72026.5 12849.8 72115.1 13221 72189.9 13520.1 72245.3 13409.3 72334 13334.5 72464.2 13334.5 72788.3 13334.5 73145.6 13725.1 73145.6 14137.9 73145.6 14431.5 72962.8 14589.4 72760.6 14589.4 72491.9 14589.4 72201 14312.4 72117.9 13974.4L71846.4 12885.8ZM72461.4 13395.5C72267.5 13395.5 72223.2 13617.1 72223.2 13642 72223.2 13653.1 72237 13708.5 72245.3 13744.5 72322.9 14054.8 72350.6 14154.5 72411.5 14265.3 72530.7 14467.5 72669.2 14528.5 72755 14528.5 72857.5 14528.5 72946.2 14448.1 72946.2 14257 72946.2 14104.6 72865.8 13794.4 72791 13658.6 72699.6 13484.1 72566.7 13395.5 72461.4 13395.5"/>
</svg>
