<svg xmlns="http://www.w3.org/2000/svg" xmlns:xlink="http://www.w3.org/1999/xlink" version="1.1" width="69pt" height="22pt" viewBox="0 0 69 22">
<path transform="matrix(.00359712,0,0,-.00359712,0,22)" d="M1376.23 3040.48C1379 3051.56 1384.55 3068.19 1384.55 3082.03 1384.55 3109.73 1365.16 3112.52 1351.3 3112.52 1323.59 3112.52 1320.83 3106.97 1309.75 3057.11L849.891 1226.02C639.359 1250.94 534.094 1353.44 534.094 1536.28 534.094 1591.67 534.094 1663.7 683.688 2051.53 694.766 2084.77 714.156 2131.86 714.156 2187.27 714.156 2311.92 625.516 2414.42 487 2414.42 223.828 2414.42 121.328 2012.75 121.328 1987.81 121.328 1960.11 149.031 1960.11 154.578 1960.11 182.281 1960.11 185.047 1965.66 198.906 2009.97 273.703 2273.14 384.5 2353.48 478.688 2353.48 500.844 2353.48 547.938 2353.48 547.938 2264.83 547.938 2192.81 520.25 2123.55 484.234 2026.59 351.266 1677.55 351.266 1605.53 351.266 1558.44 351.266 1295.27 567.328 1181.69 833.281 1165.06 811.109 1065.34 811.109 1059.8 772.328 912.984 764.016 882.516 708.609 658.125 708.609 649.813 708.609 647.047 708.609 622.109 741.859 622.109 747.391 622.109 761.25 622.109 766.797 633.188 775.094 638.734 791.719 707.984 800.031 746.766L905.297 1159.53C1007.8 1159.53 1251.58 1159.53 1511.97 1455.94 1625.55 1583.36 1683.72 1705.25 1714.19 1788.36 1739.13 1857.61 1800.06 2098.63 1800.06 2220.52 1800.06 2375.64 1725.28 2414.42 1678.19 2414.42 1608.92 2414.42 1539.67 2342.39 1539.67 2281.45 1539.67 2245.44 1556.3 2228.83 1581.22 2206.66 1611.7 2176.19 1680.95 2104.16 1680.95 1971.19 1680.95 1793.91 1536.91 1566.75 1439.94 1467.02 1196.17 1220.47 1018.88 1220.47 919.156 1220.47L1376.23 3040.48"/>
<path transform="matrix(.00359712,0,0,-.00359712,0,22)" d="M2573.14 1724.69C2573.14 1755.7 2549.88 1798.36 2495.59 1798.36 2443.25 1798.36 2387.03 1747.95 2387.03 1691.73 2387.03 1658.77 2412.23 1618.06 2464.58 1618.06 2520.8 1618.06 2573.14 1672.34 2573.14 1724.69ZM2177.64 739.828C2169.89 714.625 2160.2 691.359 2160.2 658.406 2160.2 567.281 2237.75 493.609 2344.38 493.609 2538.25 493.609 2623.55 761.156 2623.55 790.234 2623.55 815.438 2598.34 815.438 2592.53 815.438 2565.39 815.438 2563.45 803.813 2555.69 782.484 2511.09 627.391 2425.8 547.891 2350.19 547.891 2311.42 547.891 2301.72 573.094 2301.72 615.75 2301.72 660.344 2315.3 697.172 2332.73 739.828 2352.13 792.172 2373.45 844.516 2394.78 894.922 2412.23 941.453 2482.02 1117.88 2489.78 1141.14 2495.59 1160.53 2501.41 1183.8 2501.41 1203.17 2501.41 1294.3 2423.86 1367.97 2317.23 1367.97 2125.3 1367.97 2036.13 1104.3 2036.13 1071.34 2036.13 1046.14 2063.27 1046.14 2069.08 1046.14 2096.22 1046.14 2098.16 1055.84 2103.97 1077.16 2154.38 1243.89 2239.69 1313.69 2311.42 1313.69 2342.44 1313.69 2359.88 1298.17 2359.88 1245.83 2359.88 1201.23 2348.25 1172.16 2299.78 1051.95L2177.64 739.828"/>
<path transform="matrix(.00359712,0,0,-.00359712,0,22)" d="M3788.47 786.359C3966.83 970.531 4038.56 1228.38 4038.56 1249.7 4038.56 1274.91 4015.3 1274.91 4005.61 1274.91 3978.47 1274.91 3978.47 1269.09 3964.89 1226.44 3930 1098.48 3866.02 980.234 3784.59 875.531 3782.66 904.625 3778.78 1034.52 3774.89 1051.95 3745.81 1243.89 3600.42 1367.97 3406.55 1367.97 3121.56 1367.97 2848.2 1102.36 2848.2 830.953 2848.2 652.594 2978.09 493.609 3202.98 493.609 3381.34 493.609 3542.25 575.031 3650.83 658.406 3695.41 516.875 3794.28 493.609 3852.45 493.609 3964.89 493.609 4034.69 588.609 4034.69 629.328 4034.69 652.594 4011.42 652.594 4001.72 652.594 3976.52 652.594 3972.64 644.828 3968.77 633.203 3941.63 559.531 3881.53 547.891 3858.27 547.891 3831.13 547.891 3798.16 547.891 3788.47 786.359ZM3637.25 720.438C3447.27 565.344 3282.47 547.891 3208.8 547.891 3080.84 547.891 3009.11 633.203 3009.11 763.094 3009.11 819.313 3036.25 1030.64 3137.06 1164.41 3226.25 1280.72 3336.75 1313.69 3404.61 1313.69 3559.7 1313.69 3604.3 1164.41 3619.8 1044.2 3631.44 960.844 3627.56 823.188 3637.25 720.438"/>
<path transform="matrix(.00359712,0,0,-.00359712,0,22)" d="M6065.19 3469.53V3555.41H5065.14V3469.53H6065.19"/>
<path transform="matrix(.00359712,0,0,-.00359712,0,22)" d="M5642.23 3040.48C5645 3051.56 5650.55 3068.19 5650.55 3082.03 5650.55 3109.73 5631.16 3112.52 5617.3 3112.52 5589.59 3112.52 5586.83 3106.97 5575.75 3057.11L5115.89 1226.02C4905.36 1250.94 4800.09 1353.44 4800.09 1536.28 4800.09 1591.67 4800.09 1663.7 4949.69 2051.53 4960.77 2084.77 4980.16 2131.86 4980.16 2187.27 4980.16 2311.92 4891.52 2414.42 4753 2414.42 4489.83 2414.42 4387.33 2012.75 4387.33 1987.81 4387.33 1960.11 4415.03 1960.11 4420.58 1960.11 4448.28 1960.11 4451.05 1965.66 4464.91 2009.97 4539.7 2273.14 4650.5 2353.48 4744.69 2353.48 4766.84 2353.48 4813.94 2353.48 4813.94 2264.83 4813.94 2192.81 4786.25 2123.55 4750.23 2026.59 4617.27 1677.55 4617.27 1605.53 4617.27 1558.44 4617.27 1295.27 4833.33 1181.69 5099.28 1165.06 5077.11 1065.34 5077.11 1059.8 5038.33 912.984 5030.02 882.516 4974.61 658.125 4974.61 649.813 4974.61 647.047 4974.61 622.109 5007.86 622.109 5013.39 622.109 5027.25 622.109 5032.8 633.188 5041.09 638.734 5057.72 707.984 5066.03 746.766L5171.3 1159.53C5273.8 1159.53 5517.58 1159.53 5777.97 1455.94 5891.55 1583.36 5949.72 1705.25 5980.19 1788.36 6005.13 1857.61 6066.06 2098.63 6066.06 2220.52 6066.06 2375.64 5991.28 2414.42 5944.19 2414.42 5874.92 2414.42 5805.67 2342.39 5805.67 2281.45 5805.67 2245.44 5822.3 2228.83 5847.22 2206.66 5877.7 2176.19 5946.95 2104.16 5946.95 1971.19 5946.95 1793.91 5802.91 1566.75 5705.94 1467.02 5462.17 1220.47 5284.88 1220.47 5185.16 1220.47L5642.23 3040.48"/>
<path transform="matrix(.00359712,0,0,-.00359712,0,22)" d="M6816.81 1800.3C6818.75 1804.17 6824.56 1829.38 6824.56 1831.31 6824.56 1841.02 6816.81 1858.45 6793.55 1858.45 6754.78 1858.45 6593.86 1842.95 6545.39 1839.08 6529.89 1837.13 6502.75 1835.19 6502.75 1794.48 6502.75 1767.34 6529.89 1767.34 6553.16 1767.34 6646.2 1767.34 6646.2 1753.77 6646.2 1738.27 6646.2 1724.69 6642.33 1713.06 6638.45 1695.61L6365.09 598.297C6355.41 563.406 6355.41 559.531 6355.41 555.656 6355.41 526.578 6378.67 493.609 6421.31 493.609 6473.66 493.609 6498.86 532.391 6510.5 575.031 6514.38 582.797 6597.73 924 6605.5 951.141 6743.14 937.578 6853.66 892.984 6853.66 792.172 6853.66 782.484 6853.66 772.781 6849.77 753.406 6842.02 724.313 6842.02 714.625 6842.02 693.297 6842.02 555.656 6954.47 493.609 7047.52 493.609 7235.58 493.609 7293.73 788.297 7293.73 790.234 7293.73 815.438 7268.53 815.438 7262.72 815.438 7235.58 815.438 7233.64 805.75 7223.94 768.906 7200.67 685.547 7148.33 547.891 7053.33 547.891 7000.98 547.891 6985.48 596.359 6985.48 648.703 6985.48 681.672 6985.48 685.547 6997.11 735.953 6999.05 741.766 7006.81 774.719 7006.81 796.047 7006.81 968.594 6774.16 995.734 6692.73 1001.55 6748.95 1036.45 6820.69 1100.42 6853.66 1129.5 6952.52 1222.56 7049.45 1313.69 7158.03 1313.69 7181.28 1313.69 7206.48 1307.88 7222 1288.48 7138.64 1274.91 7121.19 1209 7121.19 1179.91 7121.19 1137.27 7154.14 1108.19 7198.73 1108.19 7251.08 1108.19 7309.25 1150.83 7309.25 1232.27 7309.25 1296.23 7262.72 1367.97 7159.97 1367.97 7049.45 1367.97 6948.64 1288.48 6849.77 1197.36 6768.34 1119.81 6704.38 1059.72 6624.88 1026.75L6816.81 1800.3"/>
<path transform="matrix(.00359712,0,0,-.00359712,0,22)" d="M8299.59 784.422C8289.91 896.859 8223.98 1367.97 7907.98 1367.97 7793.59 1367.97 7694.72 1305.92 7640.44 1255.52 7522.19 1148.89 7498.92 1024.81 7498.92 1019 7498.92 995.734 7524.13 995.734 7529.94 995.734 7555.14 995.734 7557.08 999.609 7566.77 1028.69 7607.48 1143.08 7750.95 1212.88 7880.84 1212.88 8192.97 1212.88 8233.69 900.734 8233.69 703 8233.69 606.063 8227.88 584.734 8220.11 563.406 8175.52 418 8117.36 202.813 8117.36 144.641 8117.36 123.328 8125.11 98.125 8150.31 98.125 8163.89 98.125 8185.22 98.125 8216.23 198.938 8239.5 274.547 8276.33 418 8291.84 557.594 8299.59 625.438 8408.17 887.172 8448.88 980.234 8476.02 1040.33 8516.73 1131.45 8607.86 1300.11 8613.67 1309.81 8617.55 1317.56 8617.55 1325.31 8617.55 1348.58 8592.34 1348.58 8586.53 1348.58 8580.7 1348.58 8563.27 1348.58 8557.45 1338.89 8534.19 1298.17 8386.84 1020.94 8299.59 784.422"/>
<path transform="matrix(.00359712,0,0,-.00359712,0,22)" d="M10613.2 3469.53V3555.41H9613.14V3469.53H10613.2"/>
<path transform="matrix(.00359712,0,0,-.00359712,0,22)" d="M10190.2 3040.48C10193 3051.56 10198.5 3068.19 10198.5 3082.03 10198.5 3109.73 10179.2 3112.52 10165.3 3112.52 10137.6 3112.52 10134.8 3106.97 10123.8 3057.11L9663.89 1226.02C9453.36 1250.94 9348.09 1353.44 9348.09 1536.28 9348.09 1591.67 9348.09 1663.7 9497.69 2051.53 9508.77 2084.77 9528.16 2131.86 9528.16 2187.27 9528.16 2311.92 9439.52 2414.42 9301 2414.42 9037.83 2414.42 8935.33 2012.75 8935.33 1987.81 8935.33 1960.11 8963.03 1960.11 8968.58 1960.11 8996.28 1960.11 8999.05 1965.66 9012.91 2009.97 9087.7 2273.14 9198.5 2353.48 9292.69 2353.48 9314.84 2353.48 9361.94 2353.48 9361.94 2264.83 9361.94 2192.81 9334.25 2123.55 9298.23 2026.59 9165.27 1677.55 9165.27 1605.53 9165.27 1558.44 9165.27 1295.27 9381.33 1181.69 9647.28 1165.06 9625.11 1065.34 9625.11 1059.8 9586.33 912.984 9578.02 882.516 9522.61 658.125 9522.61 649.813 9522.61 647.047 9522.61 622.109 9555.86 622.109 9561.39 622.109 9575.25 622.109 9580.8 633.188 9589.09 638.734 9605.72 707.984 9614.03 746.766L9719.3 1159.53C9821.8 1159.53 10065.6 1159.53 10326 1455.94 10439.5 1583.36 10497.7 1705.25 10528.2 1788.36 10553.1 1857.61 10614.1 2098.63 10614.1 2220.52 10614.1 2375.64 10539.3 2414.42 10492.2 2414.42 10422.9 2414.42 10353.7 2342.39 10353.7 2281.45 10353.7 2245.44 10370.3 2228.83 10395.2 2206.66 10425.7 2176.19 10495 2104.16 10495 1971.19 10495 1793.91 10350.9 1566.75 10253.9 1467.02 10010.2 1220.47 9832.88 1220.47 9733.16 1220.47L10190.2 3040.48"/>
<path transform="matrix(.00359712,0,0,-.00359712,0,22)" stroke-width="110.783" stroke-linecap="butt" stroke-miterlimit="10" stroke-linejoin="miter" fill="none" stroke="#000000" d="M992.82 3944.66V5173.46H9807.13V4324.71"/>
<path transform="matrix(.00359712,0,0,-.00359712,0,22)" d="M11600.4 932.031C11590.7 893.266 11573.3 827.344 11573.3 817.656 11573.3 775 11608.2 755.609 11639.2 755.609 11674.1 755.609 11705.1 780.813 11714.8 798.266 11724.5 815.719 11740 877.75 11749.7 918.469 11759.4 955.297 11780.7 1044.48 11792.3 1092.95 11804 1135.59 11815.6 1178.25 11825.3 1222.84 11846.6 1306.2 11846.6 1310.08 11885.4 1370.19 11947.4 1465.17 12044.4 1575.69 12195.6 1575.69 12304.1 1575.69 12310 1486.5 12310 1439.97 12310 1323.66 12226.6 1108.45 12195.6 1027.03 12174.3 972.75 12166.5 955.297 12166.5 922.344 12166.5 819.594 12251.8 755.609 12350.7 755.609 12544.5 755.609 12629.8 1023.16 12629.8 1052.23 12629.8 1077.44 12604.6 1077.44 12598.8 1077.44 12571.7 1077.44 12569.8 1065.81 12562 1044.48 12517.4 889.391 12434 809.891 12356.5 809.891 12315.8 809.891 12308 837.031 12308 877.75 12308 922.344 12317.7 947.547 12352.6 1034.78 12375.9 1094.89 12455.4 1300.39 12455.4 1408.95 12455.4 1439.97 12455.4 1521.41 12383.6 1577.63 12350.7 1602.83 12294.5 1629.97 12203.3 1629.97 12028.8 1629.97 11922.2 1515.58 11860.2 1434.16 11844.7 1598.95 11707 1629.97 11608.2 1629.97 11447.2 1629.97 11338.7 1531.09 11280.5 1453.55 11266.9 1587.31 11152.6 1629.97 11073.1 1629.97 10989.7 1629.97 10945.1 1569.88 10919.9 1525.28 10877.3 1453.55 10850.1 1343.05 10850.1 1333.34 10850.1 1308.14 10877.3 1308.14 10883.1 1308.14 10910.2 1308.14 10912.2 1313.95 10925.7 1366.3 10954.8 1480.69 10991.6 1575.69 11067.3 1575.69 11117.7 1575.69 11131.2 1533.03 11131.2 1480.69 11131.2 1443.86 11113.8 1372.13 11100.2 1319.78 11086.6 1267.44 11067.3 1187.94 11057.6 1145.3L10995.5 897.141C10987.8 871.938 10976.1 823.469 10976.1 817.656 10976.1 775 11011 755.609 11042 755.609 11077 755.609 11108 780.813 11117.7 798.266 11127.4 815.719 11142.9 877.75 11152.6 918.469 11162.3 955.297 11183.6 1044.48 11195.2 1092.95 11206.8 1135.59 11218.5 1178.25 11228.2 1222.84 11249.5 1302.33 11253.4 1317.84 11309.6 1397.33 11363.9 1474.88 11455 1575.69 11600.4 1575.69 11712.8 1575.69 11714.8 1476.81 11714.8 1439.97 11714.8 1391.5 11709 1366.3 11681.8 1257.73L11600.4 932.031"/>
<path transform="matrix(.00359712,0,0,-.00359712,0,22)" d="M12827.7 462.875C12819.9 433.781 12819.9 424.094 12819.9 422.156 12819.9 379.5 12854.8 360.125 12885.8 360.125 12955.6 360.125 12971.2 418.281 12984.7 480.313 13011.9 581.125 13066.2 802.141 13085.5 875.813 13103 846.734 13165 755.609 13298.8 755.609 13547 755.609 13810.6 1019.28 13810.6 1302.33 13810.6 1507.83 13673 1629.97 13502.4 1629.97 13312.4 1629.97 13077.8 1463.23 13009.9 1189.88L12827.7 462.875ZM13296.9 809.891C13153.4 809.891 13110.7 953.359 13110.7 978.563 13110.7 982.438 13122.4 1025.09 13128.2 1048.36 13186.3 1286.81 13198 1331.41 13254.2 1416.7 13324 1519.47 13420.9 1575.69 13498.5 1575.69 13578 1575.69 13653.6 1519.47 13653.6 1379.88 13653.6 1290.69 13603.2 1075.5 13543.1 978.563 13453.9 840.922 13357 809.891 13296.9 809.891"/>
<path transform="matrix(.00359712,0,0,-.00359712,0,22)" d="M15347.2 3040.48C15350 3051.56 15355.5 3068.19 15355.5 3082.03 15355.5 3109.73 15336.2 3112.52 15322.3 3112.52 15294.6 3112.52 15291.8 3106.97 15280.8 3057.11L14820.9 1226.02C14610.4 1250.94 14505.1 1353.44 14505.1 1536.28 14505.1 1591.67 14505.1 1663.7 14654.7 2051.53 14665.8 2084.77 14685.2 2131.86 14685.2 2187.27 14685.2 2311.92 14596.5 2414.42 14458 2414.42 14194.8 2414.42 14092.3 2012.75 14092.3 1987.81 14092.3 1960.11 14120 1960.11 14125.6 1960.11 14153.3 1960.11 14156 1965.66 14169.9 2009.97 14244.7 2273.14 14355.5 2353.48 14449.7 2353.48 14471.8 2353.48 14518.9 2353.48 14518.9 2264.83 14518.9 2192.81 14491.3 2123.55 14455.2 2026.59 14322.3 1677.55 14322.3 1605.53 14322.3 1558.44 14322.3 1295.27 14538.3 1181.69 14804.3 1165.06 14782.1 1065.34 14782.1 1059.8 14743.3 912.984 14735 882.516 14679.6 658.125 14679.6 649.813 14679.6 647.047 14679.6 622.109 14712.9 622.109 14718.4 622.109 14732.3 622.109 14737.8 633.188 14746.1 638.734 14762.7 707.984 14771 746.766L14876.3 1159.53C14978.8 1159.53 15222.6 1159.53 15483 1455.94 15596.5 1583.36 15654.7 1705.25 15685.2 1788.36 15710.1 1857.61 15771.1 2098.63 15771.1 2220.52 15771.1 2375.64 15696.3 2414.42 15649.2 2414.42 15579.9 2414.42 15510.7 2342.39 15510.7 2281.45 15510.7 2245.44 15527.3 2228.83 15552.2 2206.66 15582.7 2176.19 15652 2104.16 15652 1971.19 15652 1793.91 15507.9 1566.75 15410.9 1467.02 15167.2 1220.47 14989.9 1220.47 14890.2 1220.47L15347.2 3040.48"/>
<path transform="matrix(.00359712,0,0,-.00359712,0,22)" stroke-width="110.783" stroke-linecap="butt" stroke-miterlimit="10" stroke-linejoin="miter" fill="none" stroke="#000000" d="M5258.15 4324.71V6004.35H14963.5V3944.66"/>
<path transform="matrix(.00359712,0,0,-.00359712,0,22)" d="M16756.4 932.031C16746.7 893.266 16729.3 827.344 16729.3 817.656 16729.3 775 16764.2 755.609 16795.2 755.609 16830.1 755.609 16861.1 780.813 16870.8 798.266 16880.5 815.719 16896 877.75 16905.7 918.469 16915.4 955.297 16936.7 1044.48 16948.3 1092.95 16960 1135.59 16971.6 1178.25 16981.3 1222.84 17002.6 1306.2 17002.6 1310.08 17041.4 1370.19 17103.4 1465.17 17200.4 1575.69 17351.6 1575.69 17460.1 1575.69 17466 1486.5 17466 1439.97 17466 1323.66 17382.6 1108.45 17351.6 1027.03 17330.3 972.75 17322.5 955.297 17322.5 922.344 17322.5 819.594 17407.8 755.609 17506.7 755.609 17700.5 755.609 17785.8 1023.16 17785.8 1052.23 17785.8 1077.44 17760.6 1077.44 17754.8 1077.44 17727.7 1077.44 17725.8 1065.81 17718 1044.48 17673.4 889.391 17590 809.891 17512.5 809.891 17471.8 809.891 17464 837.031 17464 877.75 17464 922.344 17473.7 947.547 17508.6 1034.78 17531.9 1094.89 17611.4 1300.39 17611.4 1408.95 17611.4 1439.97 17611.4 1521.41 17539.6 1577.63 17506.7 1602.83 17450.5 1629.97 17359.3 1629.97 17184.8 1629.97 17078.2 1515.58 17016.2 1434.16 17000.7 1598.95 16863 1629.97 16764.2 1629.97 16603.2 1629.97 16494.7 1531.09 16436.5 1453.55 16422.9 1587.31 16308.6 1629.97 16229.1 1629.97 16145.7 1629.97 16101.1 1569.88 16075.9 1525.28 16033.3 1453.55 16006.1 1343.05 16006.1 1333.34 16006.1 1308.14 16033.3 1308.14 16039.1 1308.14 16066.2 1308.14 16068.2 1313.95 16081.7 1366.3 16110.8 1480.69 16147.6 1575.69 16223.3 1575.69 16273.7 1575.69 16287.2 1533.03 16287.2 1480.69 16287.2 1443.86 16269.8 1372.13 16256.2 1319.78 16242.6 1267.44 16223.3 1187.94 16213.6 1145.3L16151.5 897.141C16143.8 871.938 16132.1 823.469 16132.1 817.656 16132.1 775 16167 755.609 16198 755.609 16233 755.609 16264 780.813 16273.7 798.266 16283.4 815.719 16298.9 877.75 16308.6 918.469 16318.3 955.297 16339.6 1044.48 16351.2 1092.95 16362.8 1135.59 16374.5 1178.25 16384.2 1222.84 16405.5 1302.33 16409.4 1317.84 16465.6 1397.33 16519.9 1474.88 16611 1575.69 16756.4 1575.69 16868.8 1575.69 16870.8 1476.81 16870.8 1439.97 16870.8 1391.5 16865 1366.3 16837.8 1257.73L16756.4 932.031"/>
<path transform="matrix(.00359712,0,0,-.00359712,0,22)" d="M17983.7 462.875C17975.9 433.781 17975.9 424.094 17975.9 422.156 17975.9 379.5 18010.8 360.125 18041.8 360.125 18111.6 360.125 18127.2 418.281 18140.7 480.313 18167.9 581.125 18222.2 802.141 18241.5 875.813 18259 846.734 18321 755.609 18454.8 755.609 18703 755.609 18966.6 1019.28 18966.6 1302.33 18966.6 1507.83 18829 1629.97 18658.4 1629.97 18468.4 1629.97 18233.8 1463.23 18165.9 1189.88L17983.7 462.875ZM18452.9 809.891C18309.4 809.891 18266.7 953.359 18266.7 978.563 18266.7 982.438 18278.4 1025.09 18284.2 1048.36 18342.3 1286.81 18354 1331.41 18410.2 1416.7 18480 1519.47 18576.9 1575.69 18654.5 1575.69 18734 1575.69 18809.6 1519.47 18809.6 1379.88 18809.6 1290.69 18759.2 1075.5 18699.1 978.563 18609.9 840.922 18513 809.891 18452.9 809.891"/>
</svg>
