<?xml version="1.0" standalone="no"?>
<!DOCTYPE svg PUBLIC "-//W3C//DTD SVG 1.1//EN" "http://www.w3.org/Graphics/SVG/1.1/DTD/svg11.dtd">
<svg xmlns="http://www.w3.org/2000/svg" xmlns:xlink="http://www.w3.org/1999/xlink" version="1.1" width="6.9017444cm" height="1.8527889cm" viewBox="0 0 195.64 52.52">
<path transform="matrix(.00359712,0,0,-.00359712,0,52.52)" stroke-width="637.012" stroke-linecap="butt" stroke-miterlimit="10" stroke-linejoin="miter" fill="none" stroke="rgb(0,0,0)" d="M 2.50391 11177 L 7882.91062 11177 "/>
<path transform="matrix(.00359712,0,0,-.00359712,0,52.52)" stroke-width="415.449" stroke-linecap="butt" stroke-miterlimit="10" stroke-linejoin="miter" fill="none" stroke="rgb(255,255,255)" d="M 2.50391 11177 L 7882.91062 11177 "/>
<path transform="matrix(.00359712,0,0,-.00359712,0,52.52)" d="M 4967.15 11177 L 3133.23 11936.6 L 3133.23 10417.4 "/>
<path transform="matrix(.00359712,0,0,-.00359712,0,52.52)" d="M 10874.1 11323.8 C 10915.7 11323.8 10968.3 11323.8 10968.3 11379.3 C 10968.3 11434.7 10915.7 11434.7 10876.9 11434.7 L 9217.55 11434.7 C 9178.77 11434.7 9126.13 11434.7 9126.13 11379.3 C 9126.13 11323.8 9178.77 11323.8 9220.31011 11323.8 L 10874.1 11323.8 Z M 10876.9 10786.4 C 10915.7 10786.4 10968.3 10786.4 10968.3 10841.8 C 10968.3 10897.3 10915.7 10897.3 10874.1 10897.3 L 9220.31011 10897.3 C 9178.77 10897.3 9126.13 10897.3 9126.13 10841.8 C 9126.13 10786.4 9178.77 10786.4 9217.55 10786.4 L 10876.9 10786.4 "/>
<path transform="matrix(.00359712,0,0,-.00359712,0,52.52)" d="M 12182.1 8156.30044 C 12270.8 8161.84033 12317.8 8222.78 12317.8 8292.05 C 12317.8 8383.45 12248.6 8427.78 12184.9 8427.78 C 12118.4 8427.78 12049.1 8386.23 12049.1 8289.27 C 12049.1 8147.98059 12187.6 8031.64 12356.6 8031.64 C 12777.7 8031.64 12935.6 8679.86096 13132.3 9483.22 C 13345.6 10358.6 13525.6 11242.3 13675.2 12131.5 C 13777.7 12721.6 13880.2 13275.6 13974.4 13633 C 14007.7 13768.7 14101.8 14126.1 14209.9 14126.1 C 14295.8 14126.1 14365 14073.4 14376.1 14062.3 C 14284.7 14056.8 14237.6 13995.9 14237.6 13926.6 C 14237.6 13835.2 14306.8 13790.9 14370.5 13790.9 C 14437 13790.9 14506.3 13832.4 14506.3 13929.4 C 14506.3 14079 14356.7 14187 14204.3 14187 C 13993.8 14187 13838.7 13885 13686.3 13319.9 C 13678 13289.5 13301.3 11898.8 12996.5 10087.1 C 12924.5 9663.28 12844.2 9200.66 12752.8 8815.61 C 12702.9 8613.38 12575.5 8092.59023 12351.1 8092.59023 C 12251.4 8092.59023 12184.9 8156.30044 12182.1 8156.30044 "/>
<path transform="matrix(.00359712,0,0,-.00359712,0,52.52)" d="M 18078.4 14183 C 18078.4 14185.8 18078.4 14213.5 18042.4 14213.5 C 18000.9 14213.5 17737.7 14188.6 17690.6 14183 C 17668.4 14180.3 17651.8 14166.4 17651.8 14130.4 C 17651.8 14097.2 17676.7 14097.2 17718.3 14097.2 C 17851.3 14097.2 17856.8 14077.8 17856.8 14050.1 L 17848.5 13994.7 L 17682.3 13338.1 C 17632.4 13440.6 17552.1 13515.4 17427.4 13515.4 C 17103.3 13515.4 16759.8 13108.2 16759.8 12703.8 C 16759.8 12443.4 16912.2 12260.5 17128.3 12260.5 C 17183.6 12260.5 17322.2 12271.6 17488.4 12468.3 C 17510.5 12351.9 17607.5 12260.5 17740.5 12260.5 C 17837.4 12260.5 17901.1 12324.3 17945.5 12412.9 C 17992.5 12512.6 18028.5 12681.6 18028.5 12687.1 C 18028.5 12714.8 18003.6 12714.8 17995.3 12714.8 C 17967.6 12714.8 17964.8 12703.8 17956.5 12665 C 17909.4 12484.9 17859.6 12321.5 17746 12321.5 C 17671.2 12321.5 17662.9 12393.5 17662.9 12448.9 C 17662.9 12515.4 17668.4 12534.8 17679.5 12581.9 L 18078.4 14183 Z M 17502.2 12620.7 C 17488.4 12570.8 17488.4 12565.3 17446.8 12518.2 C 17324.9 12365.8 17211.3 12321.5 17133.8 12321.5 C 16995.3 12321.5 16956.5 12473.8 16956.5 12581.9 C 16956.5 12720.4 17045.1 13061.1 17108.8 13188.5 C 17194.7 13352 17319.4 13454.5 17430.2 13454.5 C 17610.3 13454.5 17649 13227.3 17649 13210.7 C 17649 13194.1 17643.5 13177.5 17640.7 13163.6 L 17502.2 12620.7 "/>
<path transform="matrix(.00359712,0,0,-.00359712,0,52.52)" d="M 19115.6 13614 L 19115.6 13683.7 L 18900.4 13683.7 L 18900.4 14548.4 C 18900.4 14589.1 18900.4 14602.7 18857.7 14602.7 C 18834.5 14602.7 18826.7 14602.7 18807.3 14575.5 L 18165.6 13683.7 L 18165.6 13614 L 18735.6 13614 L 18735.6 13455 C 18735.6 13389.1 18735.6 13365.8 18578.5 13365.8 L 18526.2 13365.8 L 18526.2 13296 C 18623.1 13299.9 18747.2 13303.8 18817 13303.8 C 18888.8 13303.8 19012.8 13299.9 19109.8 13296 L 19109.8 13365.8 L 19057.4 13365.8 C 18900.4 13365.8 18900.4 13389.1 18900.4 13455 L 18900.4 13614 L 19115.6 13614 Z M 18749.2 14393.3 L 18749.2 13683.7 L 18237.3 13683.7 L 18749.2 14393.3 Z "/>
<path transform="matrix(.00359712,0,0,-.00359712,0,52.52)" d="M 19457.7 11953 C 19435.5 11858.8 19430 11839.5 19308.1 11839.5 C 19274.8 11839.5 19244.4 11839.5 19244.4 11786.8 C 19244.4 11764.7 19258.2 11753.6 19280.4 11753.6 C 19355.2 11753.6 19435.5 11761.9 19513.1 11761.9 C 19604.5 11761.9 19698.7 11753.6 19787.3 11753.6 C 19801.2 11753.6 19837.2 11753.6 19837.2 11809 C 19837.2 11839.5 19809.5 11839.5 19770.7 11839.5 C 19632.2 11839.5 19632.2 11858.8 19632.2 11883.8 C 19632.2 11917 19748.5 12368.6 19767.9 12437.8 C 19803.9 12357.5 19881.5 12260.5 20022.8 12260.5 C 20344.1 12260.5 20690.4 12665 20690.4 13072.2 C 20690.4 13332.6 20532.5 13515.4 20322 13515.4 C 20183.5 13515.4 20050.5 13415.7 19959.1 13307.7 C 19931.4 13457.3 19812.3 13515.4 19709.8 13515.4 C 19582.3 13515.4 19529.7 13407.4 19504.8 13357.5 C 19454.9 13263.3 19418.9 13097.1 19418.9 13088.8 C 19418.9 13061.1 19446.6 13061.1 19452.1 13061.1 C 19479.8 13061.1 19482.6 13063.9 19499.2 13124.8 C 19546.3 13321.5 19601.7 13454.5 19701.4 13454.5 C 19748.5 13454.5 19787.3 13432.3 19787.3 13327 C 19787.3 13263.3 19779 13232.9 19767.9 13185.8 L 19457.7 11953 Z M 19945.2 13155.3 C 19964.6 13230.1 20039.4 13307.7 20089.3 13349.2 C 20186.2 13435.1 20266.5 13454.5 20313.6 13454.5 C 20424.5 13454.5 20490.9 13357.5 20490.9 13194.1 C 20490.9 13030.6 20399.5 12712.1 20349.7 12606.8 C 20255.5 12412.9 20122.5 12321.5 20020 12321.5 C 19837.2 12321.5 19801.2 12551.4 19801.2 12568 C 19801.2 12573.6 19801.2 12579.1 19809.5 12612.3 L 19945.2 13155.3 "/>
<path transform="matrix(.00359712,0,0,-.00359712,0,52.52)" stroke-width="110.783" stroke-linecap="butt" stroke-miterlimit="10" stroke-linejoin="miter" fill="none" stroke="rgb(0,0,0)" d="M 15457.9 11109.7 L 21917.2 11109.7 "/>
<path transform="matrix(.00359712,0,0,-.00359712,0,52.52)" d="M 16374.9 7853.16 C 16374.9 7861.47059 16374.9 7867.00047 16327.8 7914.09 C 15981.6 8263.14 15892.9 8786.7 15892.9 9210.55 C 15892.9 9692.56 15998.2 10174.6 16338.9 10520.8 C 16374.9 10554.1 16374.9 10559.6 16374.9 10567.9 C 16374.9 10587.3 16363.8 10595.6 16347.2 10595.6 C 16319.5 10595.6 16070.2 10407.3 15906.8 10055.5 C 15765.5 9750.73 15732.3 9443.25055 15732.3 9210.55 C 15732.3 8994.47049 15762.7 8659.28 15915.1 8346.25 C 16081.3 8005.52072 16319.5 7825.45 16347.2 7825.45 C 16363.8 7825.45 16374.9 7833.77 16374.9 7853.16 "/>
<path transform="matrix(.00359712,0,0,-.00359712,0,52.52)" d="M 16884.8 8731.3 L 17178.5 9016.64 C 17610.6 9398.92 17776.8 9548.52 17776.8 9825.53 C 17776.8 10141.3 17527.5 10362.9 17189.5 10362.9 C 16876.5 10362.9 16671.5 10108.1 16671.5 9861.55 C 16671.5 9706.41 16810 9706.41 16818.3 9706.41 C 16865.4 9706.41 16962.4 9739.66 16962.4 9853.23 C 16962.4 9925.25 16912.5 9997.28097 16815.6 9997.28097 C 16793.4 9997.28097 16787.9 9997.28097 16779.5 9994.52 C 16843.3 10174.6 16992.8 10277.1 17153.5 10277.1 C 17405.6 10277.1 17524.7 10052.7 17524.7 9825.53 C 17524.7 9603.91 17386.2 9385.06021 17233.9 9213.31014 L 16702 8620.5 C 16671.5 8590.03 16671.5 8584.48113 16671.5 8518 L 17699.3 8518 L 17776.8 9000.02 L 17707.6 9000.02 C 17693.7 8916.91 17674.3 8795.02 17646.6 8753.47032 C 17627.2 8731.3 17444.4 8731.3 17383.5 8731.3 L 16884.8 8731.3 "/>
<path transform="matrix(.00359712,0,0,-.00359712,0,52.52)" d="M 18654.1 9551.28087 L 18967.1 9551.28087 C 18875.7 9141.3 18850.8 9022.17 18850.8 8836.58 C 18850.8 8795.02 18850.8 8720.22046 18872.9 8626.03082 C 18900.6 8504.16078 18931.1 8487.53 18972.7 8487.53 C 19028.1 8487.53 19086.3 8537.39 19086.3 8592.8 C 19086.3 8609.42067 19086.3 8614.95 19069.6 8653.73124 C 18989.3 8853.19 18989.3 9033.25 18989.3 9110.81017 C 18989.3 9257.64 19008.7 9407.23123 19039.2 9551.28087 L 19355 9551.28087 C 19391 9551.28087 19490.7 9551.28087 19490.7 9645.47051 C 19490.7 9711.95 19432.5 9711.95 19379.9 9711.95 L 18451.9 9711.95 C 18390.9 9711.95 18285.7 9711.95 18163.8 9581.75076 C 18066.8 9473.72045 17994.8 9346.28095 17994.8 9332.44122 C 17994.8 9329.67 17994.8 9304.73126 18028 9304.73126 C 18050.2 9304.73126 18055.7 9315.81 18072.4 9337.97 C 18208.1 9551.28087 18368.8 9551.28087 18424.2 9551.28087 L 18582.1 9551.28087 C 18493.4 9216.09 18343.8 8880.89 18227.5 8628.81 C 18205.3 8587.25 18205.3 8581.72 18205.3 8562.33 C 18205.3 8509.69113 18249.7 8487.53 18285.7 8487.53 C 18368.8 8487.53 18390.9 8565.09 18424.2 8667.59 C 18463 8795.02 18463 8800.56 18499 8939.06011 L 18654.1 9551.28087 "/>
<path transform="matrix(.00359712,0,0,-.00359712,0,52.52)" d="M 20398.6 9210.55 C 20398.6 9426.63 20368.1 9761.81 20215.8 10074.8 C 20049.5 10415.6 19811.3 10595.6 19783.6 10595.6 C 19767 10595.6 19755.9 10584.6 19755.9 10567.9 C 19755.9 10559.6 19755.9 10554.1 19808.5 10504.2 C 20080 10230 20237.9 9789.52016 20237.9 9210.55 C 20237.9 8736.84 20135.4 8249.3 19791.9 7900.25033 C 19755.9 7867.00047 19755.9 7861.47059 19755.9 7853.16 C 19755.9 7836.53 19767 7825.45 19783.6 7825.45 C 19811.3 7825.45 20060.6 8013.83 20224.1 8365.64 C 20365.3 8670.36 20398.6 8977.84 20398.6 9210.55 "/>
<path transform="matrix(.00359712,0,0,-.00359712,0,52.52)" d="M 21700.6 9635.95094 L 21700.6 9705.73129 L 21485.4 9705.73129 L 21485.4 10570.4 C 21485.4 10611.1 21485.4 10624.7 21442.7 10624.7 C 21419.5 10624.7 21411.7 10624.7 21392.3 10597.5 L 20750.6 9705.73129 L 20750.6 9635.95094 L 21320.6 9635.95094 L 21320.6 9476.97 C 21320.6 9411.06023 21320.6 9387.8 21163.5 9387.8 L 21111.2 9387.8 L 21111.2 9318.00069 C 21208.1 9321.88 21332.2 9325.75 21402 9325.75 C 21473.8 9325.75 21597.8 9321.88 21694.8 9318.00069 L 21694.8 9387.8 L 21642.4 9387.8 C 21485.4 9387.8 21485.4 9411.06023 21485.4 9476.97 L 21485.4 9635.95094 L 21700.6 9635.95094 Z M 21334.2 10415.3 L 21334.2 9705.73129 L 20822.3 9705.73129 L 21334.2 10415.3 Z "/>
<path transform="matrix(.00359712,0,0,-.00359712,0,52.52)" d="M 31216.7 14022.4 C 31216.7 14077.8 31178 14122.1 31114.2 14122.1 C 31039.4 14122.1 30964.6 14050.1 30964.6 13975.3 C 30964.6 13922.6 31003.4 13875.5 31069.9 13875.5 C 31133.6 13875.5 31216.7 13939.3 31216.7 14022.4 Z M 31006.2 12980.8 C 31039.4 13061.1 31039.4 13066.7 31067.1 13141.5 C 31089.3 13196.8 31103.2 13235.6 31103.2 13288.3 C 31103.2 13412.9 31014.5 13515.4 30876 13515.4 C 30615.6 13515.4 30510.3 13113.8 30510.3 13088.8 C 30510.3 13061.1 30538 13061.1 30543.6 13061.1 C 30571.3 13061.1 30574 13066.7 30587.9 13111 C 30662.7 13371.4 30773.5 13454.5 30867.7 13454.5 C 30889.8 13454.5 30936.9 13454.5 30936.9 13365.8 C 30936.9 13307.7 30917.5 13249.5 30906.5 13221.8 C 30884.3 13149.8 30759.7 12828.4 30715.3 12709.3 C 30687.6 12637.3 30651.6 12545.9 30651.6 12487.7 C 30651.6 12357.5 30745.8 12260.5 30878.8 12260.5 C 31139.2 12260.5 31241.7 12662.2 31241.7 12687.1 C 31241.7 12714.8 31216.7 12714.8 31208.4 12714.8 C 31180.7 12714.8 31180.7 12706.5 31166.9 12665 C 31117 12490.5 31025.6 12321.5 30884.3 12321.5 C 30837.2 12321.5 30817.8 12349.2 30817.8 12412.9 C 30817.8 12482.1 30834.5 12520.9 30898.2 12689.9 L 31006.2 12980.8 "/>
<path transform="matrix(.00359712,0,0,-.00359712,0,52.52)" stroke-width="110.783" stroke-linecap="butt" stroke-miterlimit="10" stroke-linejoin="miter" fill="none" stroke="rgb(0,0,0)" d="M 22582.2 11109.7 L 39232.2 11109.7 "/>
<path transform="matrix(.00359712,0,0,-.00359712,0,52.52)" d="M 22706.7 8180.03 C 22684.5 8085.84012 22679 8066.45 22557.1 8066.45 C 22523.8 8066.45 22493.4 8066.45 22493.4 8013.83 C 22493.4 7991.67 22507.2 7980.58 22529.4 7980.58 C 22604.2 7980.58 22684.5 7988.89054 22762.1 7988.89054 C 22853.5 7988.89054 22947.7 7980.58 23036.3 7980.58 C 23050.2 7980.58 23086.2 7980.58 23086.2 8035.98 C 23086.2 8066.45 23058.5 8066.45 23019.7 8066.45 C 22881.2 8066.45 22881.2 8085.84012 22881.2 8110.78 C 22881.2 8144.03047 22997.5 8595.56 23016.9 8664.81 C 23052.9 8584.48113 23130.5 8487.53 23271.8 8487.53 C 23593.1 8487.53 23939.4 8891.97 23939.4 9299.19 C 23939.4 9559.59 23781.5 9742.42 23571 9742.42 C 23432.5 9742.42 23299.5 9642.7 23208.1 9534.66 C 23180.4 9684.25073 23061.3 9742.42 22958.8 9742.42 C 22831.3 9742.42 22778.7 9634.39 22753.8 9584.52023 C 22703.9 9490.33 22667.9 9324.13 22667.9 9315.81 C 22667.9 9288.11 22695.6 9288.11 22701.1 9288.11 C 22728.8 9288.11 22731.6 9290.88 22748.2 9351.83 C 22795.3 9548.52 22850.7 9681.48126 22950.4 9681.48126 C 22997.5 9681.48126 23036.3 9659.31024 23036.3 9554.05034 C 23036.3 9490.33 23028 9459.86 23016.9 9412.77017 L 22706.7 8180.03 Z M 23194.2 9382.3 C 23213.6 9457.09 23288.4 9534.66 23338.3 9576.22041 C 23435.2 9662.09 23515.5 9681.48126 23562.6 9681.48126 C 23673.5 9681.48126 23739.9 9584.52023 23739.9 9421.08 C 23739.9 9257.64 23648.5 8939.06011 23598.7 8833.8 C 23504.5 8639.89 23371.5 8548.47039 23269 8548.47039 C 23086.2 8548.47039 23050.2 8778.39 23050.2 8795.02 C 23050.2 8800.56 23050.2 8806.09 23058.5 8839.34 L 23194.2 9382.3 "/>
<path transform="matrix(.00359712,0,0,-.00359712,0,52.52)" d="M 24955 9670.84 L 24889.1 9670.84 C 24883.3 9628.19 24863.9 9513.81 24838.7 9494.42 C 24823.2 9482.80038 24673.9 9482.80038 24646.8 9482.80038 L 24290.1 9482.80038 C 24493.6 9663.09 24561.5 9717.38042 24677.8 9808.48111 C 24821.3 9922.88 24955 10043.1 24955 10227.3 C 24955 10461.8 24749.5 10605.3 24501.4 10605.3 C 24261 10605.3 24098.1 10436.6 24098.1 10258.3 C 24098.1 10159.4 24181.5 10149.7 24200.9 10149.7 C 24247.4 10149.7 24303.6 10182.7 24303.6 10252.5 C 24303.6 10287.3 24290.1 10355.2 24189.3 10355.2 C 24249.4 10492.9 24381.2 10535.5 24472.3 10535.5 C 24666.2 10535.5 24767 10384.3 24767 10227.3 C 24767 10058.6 24646.8 9924.81 24584.8 9855.02 L 24117.5 9393.61 C 24098.1 9376.16 24098.1 9372.28097 24098.1 9318.00069 L 24896.9 9318.00069 L 24955 9670.84 "/>
<path transform="matrix(.00359712,0,0,-.00359712,0,52.52)" d="M 27658.5 9155.14 C 27705.6 9155.14 27755.5 9155.14 27755.5 9210.55 C 27755.5 9265.95 27705.6 9265.95 27658.5 9265.95 L 26159.9 9265.95 C 26112.8 9265.95 26062.9 9265.95 26062.9 9210.55 C 26062.9 9155.14 26112.8 9155.14 26159.9 9155.14 L 27658.5 9155.14 "/>
<path transform="matrix(.00359712,0,0,-.00359712,0,52.52)" d="M 28846.8 8681.4412 C 28838.5 8639.89 28821.8 8576.17 28821.8 8562.33 C 28821.8 8512.45 28860.6 8487.53 28902.2 8487.53 C 28935.4 8487.53 28985.3 8509.69113 29004.7 8565.09 C 29007.5 8570.64 29040.7 8700.83 29057.3 8770.09 L 29118.3 9019.41 C 29134.9 9080.34 29151.5 9141.3 29165.3 9205.00077 C 29176.4 9252.09 29198.6 9332.44122 29201.4 9343.52 C 29242.9 9429.39 29389.7 9681.48126 29652.9 9681.48126 C 29777.6 9681.48126 29802.5 9578.98129 29802.5 9487.56017 C 29802.5 9418.31 29783.1 9340.75059 29760.9 9257.64 L 29683.4 8936.3 L 29628 8725.77 C 29616.9 8670.36 29592 8576.17 29592 8562.33 C 29592 8512.45 29630.7 8487.53 29672.3 8487.53 C 29758.2 8487.53 29774.8 8556.78 29797 8645.42 C 29835.7 8800.56 29938.2 9205.00077 29963.2 9313.05 C 29971.5 9349.06 30118.3 9681.48126 30420.3 9681.48126 C 30539.4 9681.48126 30569.8 9587.3 30569.8 9487.56017 C 30569.8 9329.67 30453.5 9013.86 30398.1 8867.05 C 30373.2 8800.56 30362.1 8770.09 30362.1 8714.69106 C 30362.1 8584.48113 30459 8487.53 30589.2 8487.53 C 30849.6 8487.53 30952.1 8891.97 30952.1 8914.14 C 30952.1 8941.84 30927.2 8941.84 30918.9 8941.84 C 30891.2 8941.84 30891.2 8933.53 30877.3 8891.97 C 30835.8 8745.16 30747.1 8548.47039 30594.8 8548.47039 C 30547.7 8548.47039 30528.3 8576.17 30528.3 8639.89 C 30528.3 8709.14 30553.2 8775.63 30578.1 8836.58 C 30630.8 8980.63 30747.1 9288.11 30747.1 9446.02 C 30747.1 9626.08 30636.3 9742.42 30428.5 9742.42 C 30220.8 9742.42 30079.5 9620.53098 29977 9473.72045 C 29974.3 9509.73119 29965.9 9603.91 29888.4 9670.39 C 29819.1 9728.58 29730.5 9742.42 29661.2 9742.42 C 29411.9 9742.42 29276.2 9565.13 29229.1 9501.42 C 29215.2 9659.31024 29098.9 9742.42 28974.2 9742.42 C 28846.8 9742.42 28794.1 9634.39 28769.2 9584.52023 C 28719.3 9487.56017 28683.3 9324.13 28683.3 9315.81 C 28683.3 9288.11 28711 9288.11 28716.6 9288.11 C 28744.3 9288.11 28746.9988 9290.88 28763.7 9351.83 C 28810.8 9548.52 28866.2 9681.48126 28965.9 9681.48126 C 29010.2 9681.48126 29051.8 9659.31024 29051.8 9554.05034 C 29051.8 9495.88 29043.5 9465.41 29007.5 9321.36 L 28846.8 8681.4412 "/>
<path transform="matrix(.00359712,0,0,-.00359712,0,52.52)" d="M 32169.1 8805.75074 C 32202.1 8805.75074 32219.5 8805.75074 32240.9 8821.27 C 32266.1 8842.58069 32271.9 8869.72035 32271.9 8883.3 C 32271.9 8937.58 32221.5 8937.58 32188.5 8937.58 L 31692.2 8937.58 C 31382 8937.58 31149.4 8631.27 31149.4 8398.63 C 31149.4 8218.33 31283.2 8082.61 31480.9 8082.61 C 31725.2 8082.61 32004.3 8303.63 32004.3 8600.25 C 32004.3 8631.27 32004.3 8718.5 31946.2 8805.75074 L 32169.1 8805.75074 Z M 31482.8 8136.89 C 31378.2 8136.89 31290.9 8206.69 31290.9 8344.34 C 31290.9 8402.5 31325.8 8805.75074 31659.3 8805.75074 C 31758.1 8805.75074 31859 8768.91 31859 8621.58 C 31859 8586.67 31841.5 8412.19 31746.5 8282.3 C 31665.1 8175.67052 31556.5 8136.89 31482.8 8136.89 "/>
<path transform="matrix(.00359712,0,0,-.00359712,0,52.52)" d="M 33505 9670.84 L 33439.1 9670.84 C 33433.3 9628.19 33413.9 9513.81 33388.7 9494.42 C 33373.2 9482.80038 33223.9 9482.80038 33196.8 9482.80038 L 32840.1 9482.80038 C 33043.6 9663.09 33111.5 9717.38042 33227.8 9808.48111 C 33371.3 9922.88 33505 10043.1 33505 10227.3 C 33505 10461.8 33299.5 10605.3 33051.4 10605.3 C 32811 10605.3 32648.1 10436.6 32648.1 10258.3 C 32648.1 10159.4 32731.5 10149.7 32750.9 10149.7 C 32797.4 10149.7 32853.6 10182.7 32853.6 10252.5 C 32853.6 10287.3 32840.1 10355.2 32739.3 10355.2 C 32799.4 10492.9 32931.2 10535.5 33022.3 10535.5 C 33216.2 10535.5 33317 10384.3 33317 10227.3 C 33317 10058.6 33196.8 9924.81 33134.8 9855.02 L 32667.5 9393.61 C 32648.1 9376.16 32648.1 9372.28097 32648.1 9318.00069 L 33446.9 9318.00069 L 33505 9670.84 "/>
<path transform="matrix(.00359712,0,0,-.00359712,0,52.52)" d="M 35517 9155.14 L 36289.9 9155.14 C 36328.7 9155.14 36381.3 9155.14 36381.3 9210.55 C 36381.3 9265.95 36328.7 9265.95 36289.9 9265.95 L 35517 9265.95 L 35517 10041.6 C 35517 10080.4 35517 10133 35461.6 10133 C 35406.2 10133 35406.2 10080.4 35406.2 10041.6 L 35406.2 9265.95 L 34630.5 9265.95 C 34591.8 9265.95 34539.1 9265.95 34539.1 9210.55 C 34539.1 9155.14 34591.8 9155.14 34630.5 9155.14 L 35406.2 9155.14 L 35406.2 8379.48121 C 35406.2 8340.7 35406.2 8288.08 35461.6 8288.08 C 35517 8288.08 35517 8340.7 35517 8379.48121 L 35517 9155.14 "/>
<path transform="matrix(.00359712,0,0,-.00359712,0,52.52)" d="M 37940.7 10249.4 C 37940.7 10304.8 37902 10349.1 37838.2 10349.1 C 37763.4 10349.1 37688.6 10277.1 37688.6 10202.3 C 37688.6 10149.6 37727.4 10102.5 37793.9 10102.5 C 37857.6 10102.5 37940.7 10166.3 37940.7 10249.4 Z M 37730.2 9207.78 C 37763.4 9288.11 37763.4 9293.66 37791.1 9368.45 C 37813.3 9423.84042 37827.2 9462.64 37827.2 9515.27013 C 37827.2 9639.92 37738.5 9742.42 37600 9742.42 C 37339.6 9742.42 37234.3 9340.75059 37234.3 9315.81 C 37234.3 9288.11 37262 9288.11 37267.6 9288.11 C 37295.3 9288.11 37298 9293.66 37311.9 9337.97 C 37386.7 9598.38 37497.5 9681.48126 37591.7 9681.48126 C 37613.8 9681.48126 37660.9 9681.48126 37660.9 9592.83 C 37660.9 9534.66 37641.5 9476.48 37630.5 9448.78091 C 37608.3 9376.77 37483.7 9055.42 37439.3 8936.3 C 37411.6 8864.28 37375.6 8772.86 37375.6 8714.69106 C 37375.6 8584.48113 37469.8 8487.53 37602.8 8487.53 C 37863.2 8487.53 37965.7 8889.2 37965.7 8914.14 C 37965.7 8941.84 37940.7 8941.84 37932.4 8941.84 C 37904.7 8941.84 37904.7 8933.53 37890.9 8891.97 C 37841 8717.45 37749.6 8548.47039 37608.3 8548.47039 C 37561.2 8548.47039 37541.8 8576.17 37541.8 8639.89 C 37541.8 8709.14 37558.5 8747.92 37622.2 8916.91 L 37730.2 9207.78 "/>
<path transform="matrix(.00359712,0,0,-.00359712,0,52.52)" d="M 38932.5 9144.06 C 38976.8 9144.06 39026.7 9144.06 39026.7 9191.16 C 39026.7 9229.94 38993.5 9229.94 38946.4 9229.94 L 38497.6 9229.94 C 38564.1 9465.41 38719.2 9626.08 38971.3 9626.08 L 39057.2 9626.08 C 39104.3 9626.08 39148.6 9626.08 39148.6 9673.17 C 39148.6 9711.95 39112.6 9711.95 39065.5 9711.95 L 38968.5 9711.95 C 38608.4 9711.95 38237.2 9434.94119 38237.2 9011.09 C 38237.2 8706.38 38445 8487.53 38738.6 8487.53 C 38918.7 8487.53 39098.7 8598.33 39098.7 8628.81 C 39098.7 8637.13063 39096 8667.59 39071 8667.59 C 39065.5 8667.59 39059.9 8667.59 39035 8650.97035 C 38949.1 8595.56 38846.6 8548.47039 38744.1 8548.47039 C 38583.5 8548.47039 38445 8664.81 38445 8908.59 C 38445 9005.55 38467.1 9110.81017 38475.4 9144.06 L 38932.5 9144.06 "/>
<path transform="matrix(.00359712,0,0,-.00359712,0,52.52)" d="M 40083 11057.9 C 40163.4 11057.9 40368.4 11063.5 40506.9 11121.6 C 40700.8 11204.7 40714.6 11368.2 40714.6 11407 C 40714.6 11528.8 40609.4 11642.4 40418.2 11642.4 C 40110.7 11642.4 39692.4 11373.7 39692.4 10888.9 C 39692.4 10606.4 39855.9 10387.5 40127.3 10387.5 C 40523.5 10387.5 40756.2 10681.2 40756.2 10714.4 C 40756.2 10731 40739.6 10750.4 40722.9 10750.4 C 40709.1 10750.4 40703.5 10744.9 40686.9 10722.7 C 40468.1 10448.5 40166.1 10448.5 40132.9 10448.5 C 39916.8 10448.5 39891.9 10681.2 39891.9 10769.8 C 39891.9 10803.1 39894.7 10888.9 39936.2 11057.9 L 40083 11057.9 Z M 39952.8 11118.9 C 40060.9 11539.9 40346.2 11581.5 40418.2 11581.5 C 40548.4 11581.5 40623.2 11501.1 40623.2 11407 C 40623.2 11118.9 40180 11118.9 40066.4 11118.9 L 39952.8 11118.9 "/>
<path transform="matrix(.00359712,0,0,-.00359712,0,52.52)" d="M 42296.4 11999.1 C 42327.4 11999.1 42373.9 11999.1 42373.9 12045.7 C 42373.9 12094.1 42329.3 12094.1 42296.4 12094.1 L 41140.9 12094.1 C 41109.9 12094.1 41063.4 12094.1 41063.4 12047.6 C 41063.4 11999.1 41108 11999.1 41140.9 11999.1 L 42296.4 11999.1 "/>
<path transform="matrix(.00359712,0,0,-.00359712,0,52.52)" d="M 43213.1 12772.7 C 43213.1 12803.7 43189.9 12846.4 43135.6 12846.4 C 43083.3 12846.4 43027 12796 43027 12739.7 C 43027 12706.8 43052.2 12666.1 43104.6 12666.1 C 43160.8 12666.1 43213.1 12720.3 43213.1 12772.7 Z M 42817.6 11787.8 C 42809.9 11762.6 42800.2 11739.4 42800.2 11706.4 C 42800.2 11615.3 42877.8 11541.6 42984.4 11541.6 C 43178.3 11541.6 43263.5 11809.2 43263.5 11838.2 C 43263.5 11863.4 43238.3 11863.4 43232.5 11863.4 C 43205.4 11863.4 43203.5 11851.8 43195.6968 11830.5 C 43151.1 11675.4 43065.8 11595.9 42990.2 11595.9 C 42951.4 11595.9 42941.7 11621.1 42941.7 11663.8 C 42941.7 11708.3 42955.3 11745.2 42972.7 11787.8 C 42992.1 11840.2 43013.5 11892.5 43034.8 11942.9 C 43052.2 11989.5 43122 12165.9 43129.8 12189.1 C 43135.6 12208.5 43141.4 12231.8 43141.4 12251.2 C 43141.4 12342.3 43063.9 12416 42957.2 12416 C 42765.3 12416 42676.1 12152.3 42676.1 12119.3 C 42676.1 12094.1 42703.3 12094.1 42709.1 12094.1 C 42736.2 12094.1 42738.2 12103.8 42744 12125.2 C 42794.4 12291.9 42879.6968 12361.7 42951.4 12361.7 C 42982.4 12361.7 42999.9 12346.2 42999.9 12293.8 C 42999.9 12249.2 42988.3 12220.2 42939.8 12100 L 42817.6 11787.8 "/>
<path transform="matrix(.00359712,0,0,-.00359712,0,52.52)" d="M 43513.4 11324.5 C 43499.8 11270.2 43496 11254.7 43418.4 11254.7 C 43393.2 11254.7 43366.1 11254.7 43366.1 11214 C 43366.1 11192.6 43383.5 11184.9 43393.2 11184.9 C 43443.6 11184.9 43507.6 11192.6 43559.9 11192.6 C 43625.8 11192.6 43699.5 11184.9 43763.5 11184.9 C 43780.9 11184.9 43802.3 11190.7 43802.3 11227.5 C 43802.3 11254.7 43775.1 11254.7 43751.9 11254.7 C 43709.2 11254.7 43656.9 11254.7 43656.9 11278 C 43656.9 11287.6 43670.4 11338 43678.2 11367.1 C 43701.5 11469.9 43728.6 11574.6 43749.9 11656 C 43773.2 11617.2 43833.3 11541.6 43949.6 11541.6 C 44186.1 11541.6 44447.9 11803.3 44447.9 12092.2 C 44447.9 12319 44290.8 12416 44157 12416 C 44036.9 12416 43934.1 12334.5 43881.8 12280.3 C 43848.8 12390.8 43740.2 12416 43682.1 12416 C 43606.5 12416 43559.9 12365.6 43528.9 12313.2 C 43490.1 12247.3 43459.1 12131 43459.1 12119.3 C 43459.1 12094.1 43486.3 12094.1 43492.1 12094.1 C 43519.2 12094.1 43521.2 12100 43534.7 12152.3 C 43563.8 12264.8 43600.6 12361.7 43676.3 12361.7 C 43726.7 12361.7 43740.2 12319 43740.2 12266.7 C 43740.2 12245.4 43736.4 12220.2 43734.4 12208.5 L 43513.4 11324.5 Z M 43879.8 12183.3 C 43992.3 12332.6 44089.2 12361.7 44151.2 12361.7 C 44226.8 12361.7 44292.8 12305.5 44292.8 12173.6 C 44292.8 12094.1 44250.1 11896.4 44192 11784 C 44143.5 11689 44048.5 11595.9 43949.6 11595.9 C 43812 11595.9 43777.1 11745.2 43777.1 11764.6 C 43777.1 11772.3 43780.9 11785.9 43782.9 11793.6 L 43879.8 12183.3 "/>
<path transform="matrix(.00359712,0,0,-.00359712,0,52.52)" d="M 45199.2 13015 C 44830.9 12755.2 44734 12344.2 44734 12047.6 C 44734 11774.3 44815.4 11349.7 45199.2 11078.3 C 45214.8 11078.3 45238 11078.3 45238 11101.5 C 45238 11113.2 45232.1968 11117 45218.6 11130.6 C 44960.8 11363.3 44865.8 11692.8 44865.8 12045.7 C 44865.8 12569.1 45065.5 12825 45224.4 12968.5 C 45232.1968 12976.3 45238 12982.1 45238 12991.8 C 45238 13015 45214.8 13015 45199.2 13015 "/>
<path transform="matrix(.00359712,0,0,-.00359712,0,52.52)" d="M 45858.7 11766.5 C 45839.3 11700.6 45775.4 11595.9 45676.5 11595.9 C 45670.7 11595.9 45612.5 11595.9 45571.8 11623 C 45651.3 11648.2 45657.1 11718 45657.1 11729.7 C 45657.1 11772.3 45624.2 11801.4 45579.6 11801.4 C 45525.3 11801.4 45469.1 11754.9 45469.1 11683.1 C 45469.1 11586.2 45577.6 11541.6 45672.6 11541.6 C 45761.8 11541.6 45841.3 11597.8 45889.8 11679.3 C 45936.3 11576.5 46042.9 11541.6 46120.5 11541.6 C 46343.4 11541.6 46461.7 11784 46461.7 11838.2 C 46461.7 11863.4 46436.5 11863.4 46430.7 11863.4 C 46403.5 11863.4 46401.6 11853.8 46393.8 11830.5 C 46353.1 11696.7 46236.8 11595.9 46128.2 11595.9 C 46050.7 11595.9 46010 11648.2 46010 11721.9 C 46010 11772.3 46056.5 11948.7 46110.8 12163.9 C 46149.5 12313.2 46236.8 12361.7 46300.8 12361.7 C 46304.6 12361.7 46364.7 12361.7 46405.4975 12334.5 C 46343.4 12317.1 46320.1 12262.8 46320.1 12227.9 C 46320.1 12185.3 46353.1 12156.2 46397.7 12156.2 C 46442.3 12156.2 46506.3 12193 46506.3 12274.4 C 46506.3 12383 46382.2 12416 46304.6 12416 C 46207.7 12416 46130.2 12352 46087.5 12278.3 C 46052.6 12357.8 45963.4 12416 45854.9 12416 C 45637.7 12416 45513.6 12177.5 45513.6 12119.3 C 45513.6 12094.1 45540.8 12094.1 45546.6 12094.1 C 45571.8 12094.1 45573.8 12101.9 45583.4 12127.1 C 45631.9 12278.3 45754 12361.7 45849 12361.7 C 45913 12361.7 45965.4 12326.8 45965.4 12233.7 C 45965.4 12195 45942.1 12098 45924.7 12032.1 L 45858.7 11766.5 "/>
<path transform="matrix(.00359712,0,0,-.00359712,0,52.52)" d="M 48074.4 11999.1 C 48105.4 11999.1 48151.9 11999.1 48151.9 12045.7 C 48151.9 12094.1 48107.3 12094.1 48074.4 12094.1 L 46918.9 12094.1 C 46887.9 12094.1 46841.4 12094.1 46841.4 12047.6 C 46841.4 11999.1 46886 11999.1 46918.9 11999.1 L 48074.4 11999.1 "/>
<path transform="matrix(.00359712,0,0,-.00359712,0,52.52)" d="M 49440.9 12291.9 C 49448.7 12319 49448.7 12322.9 49448.7 12334.5 C 49448.7 12373.3 49417.7 12396.6 49384.7 12396.6 C 49363.4 12396.6 49326.5 12386.9 49305.1968 12350 C 49299.4 12338.4 49283.9 12276.4 49274.2 12237.6 L 49233.5 12076.7 C 49221.8 12030.2 49161.8 11785.9 49155.9 11764.6 C 49154 11764.6 49068.7 11595.9 48917.5 11595.9 C 48785.6 11595.9 48785.6 11721.9 48785.6 11756.8 C 48785.6 11861.5 48830.2 11983.6 48888.4 12132.9 C 48911.7 12195 48921.3 12218.2 48921.3 12251.2 C 48921.3 12344.2 48841.9 12416 48737.2 12416 C 48541.4 12416 48454.1 12152.3 48454.1 12119.3 C 48454.1 12094.1 48481.3 12094.1 48487.1 12094.1 C 48514.2 12094.1 48516.2 12103.8 48522 12125.2 C 48570.4 12286.1 48653.8 12361.7 48731.4 12361.7 C 48764.3 12361.7 48779.8 12340.4 48779.8 12293.8 C 48779.8 12249.2 48762.4 12206.6 48752.7 12181.4 C 48659.6 11944.9 48640.2 11873.1 48640.2 11787.8 C 48640.2 11754.9 48640.2 11663.8 48715.8 11601.7 C 48775.9 11551.3 48857.4 11541.6 48909.7 11541.6 C 48987.3 11541.6 49057.1 11570.7 49121 11628.9 C 49095.8 11522.2 49074.5 11440.8 48993.1 11343.9 C 48940.7 11283.8 48863.2 11219.8 48760.4 11219.8 C 48746.9 11219.8 48655.8 11219.8 48615 11283.8 C 48719.7 11295.4 48719.7 11388.5 48719.7 11390.4 C 48719.7 11452.4 48663.5 11464.1 48644.1 11464.1 C 48595.6 11464.1 48531.7 11425.3 48531.7 11336.1 C 48531.7 11237.2 48624.7 11165.5 48762.4 11165.5 C 48958.2 11165.5 49196.6 11316.7 49256.7 11559.1 L 49440.9 12291.9 "/>
<path transform="matrix(.00359712,0,0,-.00359712,0,52.52)" d="M 49730.4974 13015 C 49716.9 13015 49693.6 13015 49693.6 12991.8 C 49693.6 12982.1 49699.5 12976.3 49711.1 12962.7 C 49877.8 12809.5 50063.9 12547.8 50063.9 12047.6 C 50063.9 11642.4 49937.9 11336.1 49728.5 11146.1 C 49695.6 11113.2 49693.6 11111.2 49693.6 11101.5 C 49693.6 11091.8 49699.5 11078.3 49718.8 11078.3 C 49742.1 11078.3 49926.3 11206.2 50054.3 11448.6 C 50139.5 11609.5 50195.8 11818.8 50195.8 12045.7 C 50195.8 12319 50114.3 12743.6 49730.4974 13015 "/>
<path transform="matrix(.00359712,0,0,-.00359712,0,52.52)" d="M 51122.3 10420.8 C 51122.3 10603.6 51053.1 10711.6 50945.1 10711.6 C 50853.6 10711.6 50798.2 10642.4 50798.2 10564.8 C 50798.2 10490 50853.6 10418 50945.1 10418 C 50978.3 10418 51014.3 10429.1 51042 10454 C 51050.3 10459.5 51053.1 10462.3 51055.9 10462.3 C 51058.6 10462.3 51061.4 10459.5 51061.4 10420.8 C 51061.4 10215.8 50964.5 10049.6 50873 9958.16 C 50842.6 9927.67 50842.6 9922.14 50842.6 9913.83065 C 50842.6 9894.44 50856.4 9883.36 50870.3 9883.36 C 50900.7 9883.36 51122.3 10096.7 51122.3 10420.8 "/>
<path transform="matrix(.00359712,0,0,-.00359712,0,52.52)" stroke-width="110.783" stroke-linecap="butt" stroke-miterlimit="10" stroke-linejoin="miter" fill="none" stroke="rgb(0,0,0)" d="M 265.77 3348.8 L 8146.18 3348.8 "/>
<path transform="matrix(.00359712,0,0,-.00359712,0,52.52)" d="M 5230.41 3348.8 L 3396.5 4108.39 L 3396.5 2589.21 "/>
<path transform="matrix(.00359712,0,0,-.00359712,0,52.52)" d="M 10874.1 3494.84 C 10915.7 3494.84 10968.3 3494.84 10968.3 3550.25 C 10968.3 3605.66 10915.7 3605.66 10876.9 3605.66 L 9217.55 3605.66 C 9178.77 3605.66 9126.13 3605.66 9126.13 3550.25 C 9126.13 3494.84 9178.77 3494.84 9220.31011 3494.84 L 10874.1 3494.84 Z M 10876.9 2957.44 C 10915.7 2957.44 10968.3 2957.44 10968.3 3012.84 C 10968.3 3068.25 10915.7 3068.25 10874.1 3068.25 L 9220.31011 3068.25 C 9178.77 3068.25 9126.13 3068.25 9126.13 3012.84 C 9126.13 2957.44 9178.77 2957.44 9217.55 2957.44 L 10876.9 2957.44 "/>
<path transform="matrix(.00359712,0,0,-.00359712,0,52.52)" d="M 12182.1 328.297 C 12270.8 333.844 12317.8 394.781 12317.8 464.047 C 12317.8 555.453 12248.6 599.781 12184.9 599.781 C 12118.4 599.781 12049.1 558.234 12049.1 461.266 C 12049.1 319.984 12187.6 203.641 12356.6 203.641 C 12777.7 203.641 12935.6 851.859 13132.3 1655.22 C 13345.6 2530.59 13525.6 3414.3 13675.2 4303.52 C 13777.7 4893.58 13880.2 5447.61 13974.4 5804.97 C 14007.7 5940.7 14101.8 6298.06 14209.9 6298.06 C 14295.8 6298.06 14365 6245.42035 14376.1 6234.34 C 14284.7 6228.80019 14237.6 6167.86 14237.6 6098.61 C 14237.6 6007.19 14306.8 5962.86 14370.5 5962.86 C 14437 5962.86 14506.3 6004.42 14506.3 6101.38024 C 14506.3 6250.97 14356.7 6359 14204.3 6359 C 13993.8 6359 13838.7 6057.05012 13686.3 5491.94 C 13678 5461.45 13301.3 4070.83 12996.5 2259.13 C 12924.5 1835.28 12844.2 1372.66 12752.8 987.609 C 12702.9 785.375 12575.5 264.594 12351.1 264.594 C 12251.4 264.594 12184.9 328.297 12182.1 328.297 "/>
<path transform="matrix(.00359712,0,0,-.00359712,0,52.52)" d="M 18078.4 6355.03 C 18078.4 6357.81 18078.4 6385.52035 18042.4 6385.52035 C 18000.9 6385.52035 17737.7 6360.58 17690.6 6355.03 C 17668.4 6352.27 17651.8 6338.42029 17651.8 6302.41 C 17651.8 6269.16 17676.7 6269.16 17718.3 6269.16 C 17851.3 6269.16 17856.8 6249.77 17856.8 6222.06 L 17848.5 6166.67022 L 17682.3 5510.13 C 17632.4 5612.63026 17552.1 5687.42026 17427.4 5687.42026 C 17103.3 5687.42026 16759.8 5280.2 16759.8 4875.77 C 16759.8 4615.36 16912.2 4432.53 17128.3 4432.53 C 17183.6 4432.53 17322.2 4443.61 17488.4 4640.3 C 17510.5 4523.94 17607.5 4432.53 17740.5 4432.53 C 17837.4 4432.53 17901.1 4496.25 17945.5 4584.89 C 17992.5 4684.61 18028.5 4853.59 18028.5 4859.14 C 18028.5 4886.84 18003.6 4886.84 17995.3 4886.84 C 17967.6 4886.84 17964.8 4875.77 17956.5 4836.97 C 17909.4 4656.91 17859.6 4493.47 17746 4493.47 C 17671.2 4493.47 17662.9 4565.5 17662.9 4620.91 C 17662.9 4687.39 17668.4 4706.78 17679.5 4753.88 L 18078.4 6355.03 Z M 17502.2 4792.66 C 17488.4 4742.78 17488.4 4737.25 17446.8 4690.16 C 17324.9 4537.8 17211.3 4493.47 17133.8 4493.47 C 16995.3 4493.47 16956.5 4645.83 16956.5 4753.88 C 16956.5 4892.38 17045.1 5233.11 17108.8 5360.55 C 17194.7 5523.98 17319.4 5626.48 17430.2 5626.48 C 17610.3 5626.48 17649 5399.33 17649 5382.7 C 17649 5366.08 17643.5 5349.45 17640.7 5335.61 L 17502.2 4792.66 "/>
<path transform="matrix(.00359712,0,0,-.00359712,0,52.52)" d="M 19115.6 5785.95056 L 19115.6 5855.73 L 18900.4 5855.73 L 18900.4 6720.41 C 18900.4 6761.11 18900.4 6774.69 18857.7 6774.69 C 18834.5 6774.69 18826.7 6774.69 18807.3 6747.55 L 18165.6 5855.73 L 18165.6 5785.95056 L 18735.6 5785.95056 L 18735.6 5626.97 C 18735.6 5561.06 18735.6 5537.8 18578.5 5537.8 L 18526.2 5537.8 L 18526.2 5468.00031 C 18623.1 5471.88 18747.2 5475.75034 18817 5475.75034 C 18888.8 5475.75034 19012.8 5471.88 19109.8 5468.00031 L 19109.8 5537.8 L 19057.4 5537.8 C 18900.4 5537.8 18900.4 5561.06 18900.4 5626.97 L 18900.4 5785.95056 L 19115.6 5785.95056 Z M 18749.2 6565.3 L 18749.2 5855.73 L 18237.3 5855.73 L 18749.2 6565.3 Z "/>
<path transform="matrix(.00359712,0,0,-.00359712,0,52.52)" d="M 19457.7 4125.03 C 19435.5 4030.84 19430 4011.45019 19308.1 4011.45019 C 19274.8 4011.45019 19244.4 4011.45019 19244.4 3958.83 C 19244.4 3936.67 19258.2 3925.58 19280.4 3925.58 C 19355.2 3925.58 19435.5 3933.89 19513.1 3933.89 C 19604.5 3933.89 19698.7 3925.58 19787.3 3925.58 C 19801.2 3925.58 19837.2 3925.58 19837.2 3980.98 C 19837.2 4011.45019 19809.5 4011.45019 19770.7 4011.45019 C 19632.2 4011.45019 19632.2 4030.84 19632.2 4055.78031 C 19632.2 4089.03 19748.5 4540.56 19767.9 4609.81 C 19803.9 4529.48 19881.5 4432.53 20022.8 4432.53 C 20344.1 4432.53 20690.4 4836.97 20690.4 5244.19 C 20690.4 5504.59 20532.5 5687.42026 20322 5687.42026 C 20183.5 5687.42026 20050.5 5587.7 19959.1 5479.66 C 19931.4 5629.25 19812.3 5687.42026 19709.8 5687.42026 C 19582.3 5687.42026 19529.7 5579.39042 19504.8 5529.52041 C 19454.9 5435.33 19418.9 5269.13 19418.9 5260.81 C 19418.9 5233.11 19446.6 5233.11 19452.1 5233.11 C 19479.8 5233.11 19482.6 5235.88 19499.2 5296.83 C 19546.3 5493.52 19601.7 5626.48 19701.4 5626.48 C 19748.5 5626.48 19787.3 5604.31041 19787.3 5499.05 C 19787.3 5435.33 19779 5404.86 19767.9 5357.77034 L 19457.7 4125.03 Z M 19945.2 5327.3 C 19964.6 5402.09 20039.4 5479.66 20089.3 5521.22058 C 20186.2 5607.09 20266.5 5626.48 20313.6 5626.48 C 20424.5 5626.48 20490.9 5529.52041 20490.9 5366.08 C 20490.9 5202.64043 20399.5 4884.06 20349.7 4778.8 C 20255.5 4584.89 20122.5 4493.47 20020 4493.47 C 19837.2 4493.47 19801.2 4723.39047 19801.2 4740.02 C 19801.2 4745.56 19801.2 4751.09 19809.5 4784.34 L 19945.2 5327.3 "/>
<path transform="matrix(.00359712,0,0,-.00359712,0,52.52)" stroke-width="110.783" stroke-linecap="butt" stroke-miterlimit="10" stroke-linejoin="miter" fill="none" stroke="rgb(0,0,0)" d="M 15457.9 3281.53 L 21917.2 3281.53 "/>
<path transform="matrix(.00359712,0,0,-.00359712,0,52.52)" d="M 16374.9 24.1563 C 16374.9 32.4688 16374.9 38 16327.8 85.0938 C 15981.6 434.141 15892.9 957.703 15892.9 1381.55 C 15892.9 1863.56 15998.2 2345.58 16338.9 2691.84 C 16374.9 2725.09 16374.9 2730.63 16374.9 2738.94 C 16374.9 2758.33 16363.8 2766.64 16347.2 2766.64 C 16319.5 2766.64 16070.2 2578.27 15906.8 2226.45 C 15765.5 1921.73 15732.3 1614.25 15732.3 1381.55 C 15732.3 1165.47 15762.7 830.281 15915.1 517.25 C 16081.3 176.516 16319.5 -3.54688 16347.2 -3.54688 C 16363.8 -3.54688 16374.9 4.76563 16374.9 24.1563 "/>
<path transform="matrix(.00359712,0,0,-.00359712,0,52.52)" d="M 16884.8 902.297 L 17178.5 1187.64 C 17610.6 1569.92 17776.8 1719.52 17776.8 1996.53 C 17776.8 2312.33 17527.5 2533.94 17189.5 2533.94 C 16876.5 2533.94 16671.5 2279.09 16671.5 2032.55 C 16671.5 1877.41 16810 1877.41 16818.3 1877.41 C 16865.4 1877.41 16962.4 1910.66 16962.4 2024.23 C 16962.4 2096.25 16912.5 2168.28 16815.6 2168.28 C 16793.4 2168.28 16787.9 2168.28 16779.5 2165.52 C 16843.3 2345.58 16992.8 2448.06 17153.5 2448.06 C 17405.6 2448.06 17524.7 2223.69 17524.7 1996.53 C 17524.7 1774.91 17386.2 1556.06 17233.9 1384.31 L 16702 791.5 C 16671.5 761.031 16671.5 755.484 16671.5 689 L 17699.3 689 L 17776.8 1171.02 L 17707.6 1171.02 C 17693.7 1087.91 17674.3 966.016 17646.6 924.469 C 17627.2 902.297 17444.4 902.297 17383.5 902.297 L 16884.8 902.297 "/>
<path transform="matrix(.00359712,0,0,-.00359712,0,52.52)" d="M 18654.1 1722.28 L 18967.1 1722.28 C 18875.7 1312.3 18850.8 1193.17 18850.8 1007.58 C 18850.8 966.016 18850.8 891.218958 18872.9 797.031 C 18900.6 675.156 18931.1 658.531 18972.7 658.531 C 19028.1 658.531 19086.3 708.391 19086.3 763.797 C 19086.3 780.422 19086.3 785.953 19069.6 824.734 C 18989.3 1024.19 18989.3 1204.25 18989.3 1281.81 C 18989.3 1428.64 19008.7 1578.23 19039.2 1722.28 L 19355 1722.28 C 19391 1722.28 19490.7 1722.28 19490.7 1816.47 C 19490.7 1882.95 19432.5 1882.95 19379.9 1882.95 L 18451.9 1882.95 C 18390.9 1882.95 18285.7 1882.95 18163.8 1752.75 C 18066.8 1644.72 17994.8 1517.28 17994.8 1503.44 C 17994.8 1500.67 17994.8 1475.73 18028 1475.73 C 18050.2 1475.73 18055.7 1486.81 18072.4 1508.97 C 18208.1 1722.28 18368.8 1722.28 18424.2 1722.28 L 18582.1 1722.28 C 18493.4 1387.09 18343.8 1051.89 18227.5 799.813 C 18205.3 758.25 18205.3 752.719 18205.3 733.328 C 18205.3 680.688 18249.7 658.531 18285.7 658.531 C 18368.8 658.531 18390.9 736.094 18424.2 838.594 C 18463 966.016 18463 971.563 18499 1110.06 L 18654.1 1722.28 "/>
<path transform="matrix(.00359712,0,0,-.00359712,0,52.52)" d="M 20398.6 1381.55 C 20398.6 1597.63 20368.1 1932.81 20215.8 2245.84 C 20049.5 2586.58 19811.3 2766.64 19783.6 2766.64 C 19767 2766.64 19755.9 2755.56 19755.9 2738.94 C 19755.9 2730.63 19755.9 2725.09 19808.5 2675.22 C 20080 2400.97 20237.9 1960.52 20237.9 1381.55 C 20237.9 907.844 20135.4 420.297 19791.9 71.25 C 19755.9 38 19755.9 32.4688 19755.9 24.1563 C 19755.9 7.53125 19767 -3.54688 19783.6 -3.54688 C 19811.3 -3.54688 20060.6 184.828 20224.1 536.641 C 20365.3 841.358957 20398.6 1148.84 20398.6 1381.55 "/>
<path transform="matrix(.00359712,0,0,-.00359712,0,52.52)" d="M 21700.6 1807.95 L 21700.6 1877.73 L 21485.4 1877.73 L 21485.4 2742.41 C 21485.4 2783.11 21485.4 2796.69 21442.7 2796.69 C 21419.5 2796.69 21411.7 2796.69 21392.3 2769.55 L 20750.6 1877.73 L 20750.6 1807.95 L 21320.6 1807.95 L 21320.6 1648.97 C 21320.6 1583.06 21320.6 1559.8 21163.5 1559.8 L 21111.2 1559.8 L 21111.2 1490 C 21208.1 1493.88 21332.2 1497.75 21402 1497.75 C 21473.8 1497.75 21597.8 1493.88 21694.8 1490 L 21694.8 1559.8 L 21642.4 1559.8 C 21485.4 1559.8 21485.4 1583.06 21485.4 1648.97 L 21485.4 1807.95 L 21700.6 1807.95 Z M 21334.2 2587.3 L 21334.2 1877.73 L 20822.3 1877.73 L 21334.2 2587.3 Z "/>
<path transform="matrix(.00359712,0,0,-.00359712,0,52.52)" d="M 31222.7 6194.38 C 31222.7 6249.77 31184 6294.09017 31120.2 6294.09017 C 31045.4 6294.09017 30970.6 6222.06 30970.6 6147.28011 C 30970.6 6094.64 31009.4 6047.55 31075.9 6047.55 C 31139.6 6047.55 31222.7 6111.27032 31222.7 6194.38 Z M 31012.2 5152.78 C 31045.4 5233.11 31045.4 5238.66 31073.1 5313.45 C 31095.3 5368.84011 31109.2 5407.64 31109.2 5460.27 C 31109.2 5584.92 31020.5 5687.42026 30882 5687.42026 C 30621.6 5687.42026 30516.3 5285.75 30516.3 5260.81 C 30516.3 5233.11 30544 5233.11 30549.6 5233.11 C 30577.3 5233.11 30580 5238.66 30593.9 5282.97 C 30668.7 5543.38 30779.5 5626.48 30873.7 5626.48 C 30895.8 5626.48 30942.9 5626.48 30942.9 5537.83 C 30942.9 5479.66 30923.5 5421.48 30912.5 5393.78013 C 30890.3 5321.77 30765.7 5000.42 30721.3 4881.3 C 30693.6 4809.28 30657.6 4717.86 30657.6 4659.69028 C 30657.6 4529.48 30751.8 4432.53 30884.8 4432.53 C 31145.2 4432.53 31247.7 4834.2 31247.7 4859.14 C 31247.7 4886.84 31222.7 4886.84 31214.4 4886.84 C 31186.7 4886.84 31186.7 4878.53 31172.9 4836.97 C 31123 4662.45 31031.6 4493.47 30890.3 4493.47 C 30843.2 4493.47 30823.8 4521.17 30823.8 4584.89 C 30823.8 4654.14 30840.5 4692.92 30904.2 4861.91 L 31012.2 5152.78 "/>
<path transform="matrix(.00359712,0,0,-.00359712,0,52.52)" stroke-width="110.783" stroke-linecap="butt" stroke-miterlimit="10" stroke-linejoin="miter" fill="none" stroke="rgb(0,0,0)" d="M 22582.2 3281.53 L 39243.9 3281.53 "/>
<path transform="matrix(.00359712,0,0,-.00359712,0,52.52)" d="M 22706.7 351.031 C 22684.5 256.844 22679 237.453 22557.1 237.453 C 22523.8 237.453 22493.4 237.453 22493.4 184.828 C 22493.4 162.672 22507.2 151.578 22529.4 151.578 C 22604.2 151.578 22684.5 159.891 22762.1 159.891 C 22853.5 159.891 22947.7 151.578 23036.3 151.578 C 23050.2 151.578 23086.2 151.578 23086.2 206.984 C 23086.2 237.453 23058.5 237.453 23019.7 237.453 C 22881.2 237.453 22881.2 256.844 22881.2 281.781 C 22881.2 315.031 22997.5 766.563 23016.9 835.813 C 23052.9 755.484 23130.5 658.531 23271.8 658.531 C 23593.1 658.531 23939.4 1062.97 23939.4 1470.19 C 23939.4 1730.59 23781.5 1913.42 23571 1913.42 C 23432.5 1913.42 23299.5 1813.7 23208.1 1705.66 C 23180.4 1855.25 23061.3 1913.42 22958.8 1913.42 C 22831.3 1913.42 22778.7 1805.39 22753.8 1755.52 C 22703.9 1661.33 22667.9 1495.13 22667.9 1486.81 C 22667.9 1459.11 22695.6 1459.11 22701.1 1459.11 C 22728.8 1459.11 22731.6 1461.88 22748.2 1522.83 C 22795.3 1719.52 22850.7 1852.48 22950.4 1852.48 C 22997.5 1852.48 23036.3 1830.31 23036.3 1725.05 C 23036.3 1661.33 23028 1630.86 23016.9 1583.77 L 22706.7 351.031 Z M 23194.2 1553.3 C 23213.6 1628.09 23288.4 1705.66 23338.3 1747.22 C 23435.2 1833.09 23515.5 1852.48 23562.6 1852.48 C 23673.5 1852.48 23739.9 1755.52 23739.9 1592.08 C 23739.9 1428.64 23648.5 1110.06 23598.7 1004.8 C 23504.5 810.891 23371.5 719.469 23269 719.469 C 23086.2 719.469 23050.2 949.391 23050.2 966.016 C 23050.2 971.563 23050.2 977.094 23058.5 1010.34 L 23194.2 1553.3 "/>
<path transform="matrix(.00359712,0,0,-.00359712,0,52.52)" d="M 24955 1842.84 L 24889.1 1842.84 C 24883.3 1800.19 24863.9 1685.81 24838.7 1666.42 C 24823.2 1654.8 24673.9 1654.8 24646.8 1654.8 L 24290.1 1654.8 C 24493.6 1835.09 24561.5 1889.38 24677.8 1980.48 C 24821.3 2094.88 24955 2215.08 24955 2399.25 C 24955 2633.83 24749.5 2777.3 24501.4 2777.3 C 24261 2777.3 24098.1 2608.63 24098.1 2430.27 C 24098.1 2331.39 24181.5 2321.7 24200.9 2321.7 C 24247.4 2321.7 24303.6 2354.66 24303.6 2424.45 C 24303.6 2459.34 24290.1 2527.2 24189.3 2527.2 C 24249.4 2664.86 24381.2 2707.5 24472.3 2707.5 C 24666.2 2707.5 24767 2556.28 24767 2399.25 C 24767 2230.58 24646.8 2096.81 24584.8 2027.02011 L 24117.5 1565.61 C 24098.1 1548.16 24098.1 1544.28 24098.1 1490 L 24896.9 1490 L 24955 1842.84 "/>
<path transform="matrix(.00359712,0,0,-.00359712,0,52.52)" d="M 27658.5 1326.14 C 27705.6 1326.14 27755.5 1326.14 27755.5 1381.55 C 27755.5 1436.95 27705.6 1436.95 27658.5 1436.95 L 26159.9 1436.95 C 26112.8 1436.95 26062.9 1436.95 26062.9 1381.55 C 26062.9 1326.14 26112.8 1326.14 26159.9 1326.14 L 27658.5 1326.14 "/>
<path transform="matrix(.00359712,0,0,-.00359712,0,52.52)" d="M 28846.8 852.438 C 28838.5 810.891 28821.8 747.172 28821.8 733.328 C 28821.8 683.453 28860.6 658.531 28902.2 658.531 C 28935.4 658.531 28985.3 680.688 29004.7 736.094 C 29007.5 741.641 29040.7 871.828 29057.3 941.094 L 29118.3 1190.41 C 29134.9 1251.34 29151.5 1312.3 29165.3 1376 C 29176.4 1423.09 29198.6 1503.44 29201.4 1514.52 C 29242.9 1600.39 29389.7 1852.48 29652.9 1852.48 C 29777.6 1852.48 29802.5 1749.98 29802.5 1658.56 C 29802.5 1589.31 29783.1 1511.75 29760.9 1428.64 L 29683.4 1107.3 L 29628 896.766 C 29616.9 841.358957 29592 747.172 29592 733.328 C 29592 683.453 29630.7 658.531 29672.3 658.531 C 29758.2 658.531 29774.8 727.781 29797 816.422 C 29835.7 971.563 29938.2 1376 29963.2 1484.05 C 29971.5 1520.06 30118.3 1852.48 30420.3 1852.48 C 30539.4 1852.48 30569.8 1758.3 30569.8 1658.56 C 30569.8 1500.67 30453.5 1184.86 30398.1 1038.05 C 30373.2 971.563 30362.1 941.094 30362.1 885.687933 C 30362.1 755.484 30459 658.531 30589.2 658.531 C 30849.6 658.531 30952.1 1062.97 30952.1 1085.14 C 30952.1 1112.84 30927.2 1112.84 30918.9 1112.84 C 30891.2 1112.84 30891.2 1104.53 30877.3 1062.97 C 30835.8 916.156 30747.1 719.469 30594.8 719.469 C 30547.7 719.469 30528.3 747.172 30528.3 810.891 C 30528.3 880.141 30553.2 946.624956 30578.1 1007.58 C 30630.8 1151.63 30747.1 1459.11 30747.1 1617.02 C 30747.1 1797.08 30636.3 1913.42 30428.5 1913.42 C 30220.8 1913.42 30079.5 1791.53 29977 1644.72 C 29974.3 1680.73 29965.9 1774.91 29888.4 1841.39 C 29819.1 1899.58 29730.5 1913.42 29661.2 1913.42 C 29411.9 1913.42 29276.2 1736.13 29229.1 1672.42 C 29215.2 1830.31 29098.9 1913.42 28974.2 1913.42 C 28846.8 1913.42 28794.1 1805.39 28769.2 1755.52 C 28719.3 1658.56 28683.3 1495.13 28683.3 1486.81 C 28683.3 1459.11 28711 1459.11 28716.6 1459.11 C 28744.3 1459.11 28746.9988 1461.88 28763.7 1522.83 C 28810.8 1719.52 28866.2 1852.48 28965.9 1852.48 C 29010.2 1852.48 29051.8 1830.31 29051.8 1725.05 C 29051.8 1666.88 29043.5 1636.41 29007.5 1492.36 L 28846.8 852.438 "/>
<path transform="matrix(.00359712,0,0,-.00359712,0,52.52)" d="M 31637.9 977.75 L 31868.6 977.75 C 31839.6 861.422 31796.9 685 31796.9 531.844 C 31796.9 454.297 31806.6 401.953 31818.2 359.297 C 31849.3 262.375 31874.5 254.609 31905.5 254.609 C 31950.1 254.609 31996.6 295.328 31996.6 341.859 C 31996.6 357.359 31992.7 365.125 31981.1 384.5 C 31944.3 456.233988 31909.4 566.75 31909.4 725.719 C 31909.4 762.547 31909.4 840.094 31936.5 977.75 L 32178.8 977.75 C 32213.7 977.75 32229.2 977.75 32250.6 993.266 C 32277.7 1012.64 32283.5 1043.67 32283.5 1053.36 C 32283.5 1109.58 32233.1 1109.58 32200.2 1109.58 L 31469.3 1109.58 C 31389.8 1109.58 31335.5 1092.13 31248.3 1010.7 C 31197.8 966.109 31122.2 861.422 31122.2 843.984 C 31122.2 820.719 31147.4 820.719 31155.2 820.719 C 31176.5 820.719 31178.5 824.594 31190.1 842.047 C 31289 977.75 31409.2 977.75 31451.8 977.75 L 31570.1 977.75 C 31510 764.484 31405.3 535.719 31347.1 419.406 C 31335.5 394.203 31316.1 353.484 31310.3 345.734 C 31308.4 337.984 31304.5 330.219 31304.5 316.656 C 31304.5 285.625 31327.8 254.609 31372.3 254.609 C 31449.9 254.609 31471.2 341.859 31517.7 516.344 L 31637.9 977.75 "/>
<path transform="matrix(.00359712,0,0,-.00359712,0,52.52)" d="M 33517 1842.84 L 33451.1 1842.84 C 33445.3 1800.19 33425.9 1685.81 33400.7 1666.42 C 33385.2 1654.8 33235.9 1654.8 33208.8 1654.8 L 32852.1 1654.8 C 33055.6 1835.09 33123.5 1889.38 33239.8 1980.48 C 33383.3 2094.88 33517 2215.08 33517 2399.25 C 33517 2633.83 33311.5 2777.3 33063.4 2777.3 C 32823 2777.3 32660.1 2608.63 32660.1 2430.27 C 32660.1 2331.39 32743.5 2321.7 32762.9 2321.7 C 32809.4 2321.7 32865.6 2354.66 32865.6 2424.45 C 32865.6 2459.34 32852.1 2527.2 32751.3 2527.2 C 32811.4 2664.86 32943.2 2707.5 33034.3 2707.5 C 33228.2 2707.5 33329 2556.28 33329 2399.25 C 33329 2230.58 33208.8 2096.81 33146.8 2027.02011 L 32679.5 1565.61 C 32660.1 1548.16 32660.1 1544.28 32660.1 1490 L 33458.9 1490 L 33517 1842.84 "/>
<path transform="matrix(.00359712,0,0,-.00359712,0,52.52)" d="M 35529 1326.14 L 36301.9 1326.14 C 36340.7 1326.14 36393.3 1326.14 36393.3 1381.55 C 36393.3 1436.95 36340.7 1436.95 36301.9 1436.95 L 35529 1436.95 L 35529 2212.61 C 35529 2251.39 35529 2304.02 35473.6 2304.02 C 35418.2 2304.02 35418.2 2251.39 35418.2 2212.61 L 35418.2 1436.95 L 34642.5 1436.95 C 34603.8 1436.95 34551.1 1436.95 34551.1 1381.55 C 34551.1 1326.14 34603.8 1326.14 34642.5 1326.14 L 35418.2 1326.14 L 35418.2 550.484 C 35418.2 511.703 35418.2 459.078 35473.6 459.078 C 35529 459.078 35529 511.703 35529 550.484 L 35529 1326.14 "/>
<path transform="matrix(.00359712,0,0,-.00359712,0,52.52)" d="M 37952.7 2420.38 C 37952.7 2475.77 37914 2520.09 37850.2 2520.09 C 37775.4 2520.09 37700.6 2448.06 37700.6 2373.28 C 37700.6 2320.64 37739.4 2273.55 37805.9 2273.55 C 37869.6 2273.55 37952.7 2337.27 37952.7 2420.38 Z M 37742.2 1378.78 C 37775.4 1459.11 37775.4 1464.66 37803.1 1539.45 C 37825.3 1594.84 37839.2 1633.64 37839.2 1686.27 C 37839.2 1810.92 37750.5 1913.42 37612 1913.42 C 37351.6 1913.42 37246.3 1511.75 37246.3 1486.81 C 37246.3 1459.11 37274 1459.11 37279.6 1459.11 C 37307.3 1459.11 37310 1464.66 37323.9 1508.97 C 37398.7 1769.38 37509.5 1852.48 37603.7 1852.48 C 37625.8 1852.48 37672.9 1852.48 37672.9 1763.83 C 37672.9 1705.66 37653.5 1647.48 37642.5 1619.78 C 37620.3 1547.77 37495.7 1226.42 37451.3 1107.3 C 37423.6 1035.28 37387.6 943.859 37387.6 885.687933 C 37387.6 755.484 37481.8 658.531 37614.8 658.531 C 37875.2 658.531 37977.7 1060.2 37977.7 1085.14 C 37977.7 1112.84 37952.7 1112.84 37944.4 1112.84 C 37916.7 1112.84 37916.7 1104.53 37902.9 1062.97 C 37853 888.453 37761.6 719.469 37620.3 719.469 C 37573.2 719.469 37553.8 747.172 37553.8 810.891 C 37553.8 880.141 37570.5 918.921957 37634.2 1087.91 L 37742.2 1378.78 "/>
<path transform="matrix(.00359712,0,0,-.00359712,0,52.52)" d="M 38943.5 1315.06 C 38987.8 1315.06 39037.7 1315.06 39037.7 1362.16 C 39037.7 1400.94 39004.5 1400.94 38957.4 1400.94 L 38508.6 1400.94 C 38575.1 1636.41 38730.2 1797.08 38982.3 1797.08 L 39068.2 1797.08 C 39115.3 1797.08 39159.6 1797.08 39159.6 1844.17 C 39159.6 1882.95 39123.6 1882.95 39076.5 1882.95 L 38979.5 1882.95 C 38619.4 1882.95 38248.2 1605.94 38248.2 1182.09 C 38248.2 877.374945 38456 658.531 38749.6 658.531 C 38929.7 658.531 39109.7 769.328 39109.7 799.813 C 39109.7 808.125 39107 838.594 39082 838.594 C 39076.5 838.594 39070.9 838.594 39046 821.968946 C 38960.1 766.563 38857.6 719.469 38755.1 719.469 C 38594.5 719.469 38456 835.813 38456 1079.59 C 38456 1176.55 38478.1 1281.81 38486.4 1315.06 L 38943.5 1315.06 "/>
<path transform="matrix(.00359712,0,0,-.00359712,0,52.52)" d="M 40094 3228.91 C 40174.4 3228.91 40379.4 3234.45 40517.9 3292.63 C 40711.8 3375.73 40725.6 3539.17 40725.6 3577.95013 C 40725.6 3699.84 40620.4 3813.42 40429.2 3813.42 C 40121.7 3813.42 39703.4 3544.72 39703.4 3059.94 C 39703.4 2777.38 39866.9 2558.53 40138.3 2558.53 C 40534.5 2558.53 40767.2 2852.17 40767.2 2885.41 C 40767.2 2902.03 40750.6 2921.42 40733.9 2921.42 C 40720.1 2921.42 40714.5 2915.88 40697.9 2893.72 C 40479.1 2619.47 40177.1 2619.47 40143.9 2619.47 C 39927.8 2619.47 39902.9 2852.17 39902.9 2940.81 C 39902.9 2974.06 39905.7 3059.94 39947.2 3228.91 L 40094 3228.91 Z M 39963.8 3289.86 C 40071.9 3710.92 40357.2 3752.48 40429.2 3752.48 C 40559.4 3752.48 40634.2 3672.14 40634.2 3577.95013 C 40634.2 3289.86 40191 3289.86 40077.4 3289.86 L 39963.8 3289.86 "/>
<path transform="matrix(.00359712,0,0,-.00359712,0,52.52)" d="M 42308.4 4171.14 C 42339.4 4171.14 42385.9 4171.14 42385.9 4217.67 C 42385.9 4266.14 42341.3 4266.14 42308.4 4266.14 L 41152.9 4266.14 C 41121.9 4266.14 41075.4 4266.14 41075.4 4219.61 C 41075.4 4171.14 41120 4171.14 41152.9 4171.14 L 42308.4 4171.14 "/>
<path transform="matrix(.00359712,0,0,-.00359712,0,52.52)" d="M 43225.1 4944.69 C 43225.1 4975.7 43201.9 5018.36 43147.6 5018.36 C 43095.3 5018.36 43039 4967.95 43039 4911.73 C 43039 4878.77 43064.2 4838.06 43116.6 4838.06 C 43172.8 4838.06 43225.1 4892.34 43225.1 4944.69 Z M 42829.6 3959.83 C 42821.9 3934.63 42812.2 3911.36 42812.2 3878.41 C 42812.2 3787.28022 42889.8 3713.61 42996.4 3713.61 C 43190.3 3713.61 43275.5 3981.16 43275.5 4010.23 C 43275.5 4035.44 43250.3 4035.44 43244.5 4035.44 C 43217.4 4035.44 43215.5 4023.81028 43207.7 4002.48 C 43163.1 3847.39 43077.8 3767.89 43002.2 3767.89 C 42963.4 3767.89 42953.7 3793.09 42953.7 3835.75 C 42953.7 3880.34 42967.3 3917.17 42984.7 3959.83 C 43004.1 4012.17021 43025.5 4064.52025 43046.8 4114.92 C 43064.2 4161.45 43134 4337.88 43141.8 4361.14 C 43147.6 4380.53 43153.4 4403.8 43153.4 4423.17 C 43153.4 4514.3 43075.9 4587.97 42969.2 4587.97 C 42777.3 4587.97 42688.1 4324.3 42688.1 4291.34 C 42688.1 4266.14 42715.3 4266.14 42721.1 4266.14 C 42748.2 4266.14 42750.2 4275.84018 42756 4297.16 C 42806.4 4463.89045 42891.7 4533.69 42963.4 4533.69 C 42994.4 4533.69 43011.9 4518.17025 43011.9 4465.83 C 43011.9 4421.23 43000.3 4392.16 42951.8 4271.95 L 42829.6 3959.83 "/>
<path transform="matrix(.00359712,0,0,-.00359712,0,52.52)" d="M 43525.4 3496.48 C 43511.8 3442.19 43508 3426.69 43430.4 3426.69 C 43405.2 3426.69 43378.1 3426.69 43378.1 3385.97 C 43378.1 3364.64 43395.5 3356.89 43405.2 3356.89 C 43455.6 3356.89 43519.6 3364.64 43571.9 3364.64 C 43637.8 3364.64 43711.5 3356.89 43775.5 3356.89 C 43792.9 3356.89 43814.3 3362.70012 43814.3 3399.55 C 43814.3 3426.69 43787.1 3426.69 43763.9 3426.69 C 43721.2 3426.69 43668.9 3426.69 43668.9 3449.95011 C 43668.9 3459.64 43682.4 3510.05 43690.2 3539.13 C 43713.5 3641.88 43740.6 3746.58 43761.9 3828 C 43785.2 3789.22 43845.3 3713.61 43961.6 3713.61 C 44198.1 3713.61 44459.9 3975.34 44459.9 4264.2 C 44459.9 4491.03011 44302.8 4587.97 44168.9978 4587.97 C 44048.9 4587.97 43946.1 4506.55 43893.8 4452.27 C 43860.8 4562.77 43752.2 4587.97 43694.1 4587.97 C 43618.5 4587.97 43571.9 4537.56 43540.9 4485.22 C 43502.1 4419.3 43471.1 4302.98032 43471.1 4291.34 C 43471.1 4266.14 43498.3 4266.14 43504.1 4266.14 C 43531.2 4266.14 43533.2 4271.95 43546.7 4324.3 C 43575.8 4436.75031 43612.6 4533.69 43688.3 4533.69 C 43738.7 4533.69 43752.2 4491.03011 43752.2 4438.69 C 43752.2 4417.36 43748.4 4392.16 43746.4 4380.53 L 43525.4 3496.48 Z M 43891.8 4355.33 C 44004.3 4504.61 44101.2 4533.69 44163.2 4533.69 C 44238.8 4533.69 44304.8 4477.47 44304.8 4345.63 C 44304.8 4266.14 44262.1 4068.39 44203.9976 3955.95 C 44155.5 3860.95017 44060.5 3767.89 43961.6 3767.89 C 43824 3767.89 43789.1 3917.17 43789.1 3936.56 C 43789.1 3944.31 43792.9 3957.89 43794.9 3965.64 L 43891.8 4355.33 "/>
<path transform="matrix(.00359712,0,0,-.00359712,0,52.52)" d="M 45210.2 5187.03 C 44841.9 4927.23 44745 4516.23 44745 4219.61 C 44745 3946.25 44826.4 3521.69 45210.2 3250.27 C 45225.8 3250.27 45249 3250.27 45249 3273.53 C 45249 3285.16 45243.2 3289.03 45229.6 3302.61 C 44971.8 3535.25 44876.8 3864.83 44876.8 4217.67 C 44876.8 4741.13 45076.5 4997.03015 45235.4 5140.5 C 45243.2 5148.25 45249 5154.06 45249 5163.77 C 45249 5187.03 45225.8 5187.03 45210.2 5187.03 "/>
<path transform="matrix(.00359712,0,0,-.00359712,0,52.52)" d="M 45870.7 3938.5 C 45851.3 3872.59 45787.4 3767.89 45688.5 3767.89 C 45682.7 3767.89 45624.5 3767.89 45583.8 3795.03 C 45663.3 3820.23 45669.1 3890.03 45669.1 3901.67016 C 45669.1 3944.31 45636.2 3973.41 45591.6 3973.41 C 45537.3 3973.41 45481.1 3926.88 45481.1 3855.14 C 45481.1 3758.2 45589.6 3713.61 45684.6 3713.61 C 45773.8 3713.61 45853.3 3769.83 45901.8 3851.27 C 45948.3 3748.52 46054.9 3713.61 46132.5 3713.61 C 46355.4 3713.61 46473.7 3955.95 46473.7 4010.23 C 46473.7 4035.44 46448.5 4035.44 46442.7 4035.44 C 46415.5 4035.44 46413.6 4025.75 46405.8 4002.48 C 46365.1 3868.7 46248.8 3767.89 46140.2 3767.89 C 46062.7 3767.89 46022 3820.23 46022 3893.91011 C 46022 3944.31 46068.4977 4120.73 46122.8 4335.94026 C 46161.5 4485.22 46248.8 4533.69 46312.8 4533.69 C 46316.6 4533.69 46376.7 4533.69 46417.5 4506.55 C 46355.4 4489.09 46332.1 4434.81 46332.1 4399.91 C 46332.1 4357.27 46365.1 4328.19022 46409.7 4328.19022 C 46454.3 4328.19022 46518.3 4365.02 46518.3 4446.44 C 46518.3 4555.02 46394.2 4587.97 46316.6 4587.97 C 46219.7 4587.97 46142.2 4523.98 46099.5 4450.31 C 46064.6 4529.81 45975.4 4587.97 45866.9 4587.97 C 45649.7 4587.97 45525.6 4349.5 45525.6 4291.34 C 45525.6 4266.14 45552.8 4266.14 45558.6 4266.14 C 45583.8 4266.14 45585.8 4273.89 45595.4 4299.09 C 45643.9 4450.31 45766 4533.69 45861 4533.69 C 45925 4533.69 45977.4 4498.78 45977.4 4405.73 C 45977.4 4366.95 45954.1 4270.02 45936.7 4204.11 L 45870.7 3938.5 "/>
<path transform="matrix(.00359712,0,0,-.00359712,0,52.52)" d="M 48086.4 4171.14 C 48117.4 4171.14 48163.9 4171.14 48163.9 4217.67 C 48163.9 4266.14 48119.3 4266.14 48086.4 4266.14 L 46930.9 4266.14 C 46899.9 4266.14 46853.4 4266.14 46853.4 4219.61 C 46853.4 4171.14 46898 4171.14 46930.9 4171.14 L 48086.4 4171.14 "/>
<path transform="matrix(.00359712,0,0,-.00359712,0,52.52)" d="M 49452.9 4463.89045 C 49460.7 4491.03011 49460.7 4494.91 49460.7 4506.55 C 49460.7 4545.31 49429.7 4568.58 49396.7 4568.58 C 49375.4 4568.58 49338.5 4558.89 49317.2 4522.05 C 49311.4 4510.42022 49295.9 4448.38 49286.2 4409.61 L 49245.5 4248.69 C 49233.8 4202.17 49173.8 3957.89 49167.9 3936.56 C 49166 3936.56 49080.7 3767.89 48929.5 3767.89 C 48797.6 3767.89 48797.6 3893.91011 48797.6 3928.81021 C 48797.6 4033.5 48842.2 4155.64 48900.4 4304.92 C 48923.7 4366.95 48933.3 4390.22054 48933.3 4423.17 C 48933.3 4516.23 48853.9 4587.97 48749.2 4587.97 C 48553.4 4587.97 48466.1 4324.3 48466.1 4291.34 C 48466.1 4266.14 48493.3 4266.14 48499.1 4266.14 C 48526.2 4266.14 48528.2 4275.84018 48534 4297.16 C 48582.4 4458.08 48665.8 4533.69 48743.4 4533.69 C 48776.3 4533.69 48791.8 4512.36 48791.8 4465.83 C 48791.8 4421.23 48774.4 4378.59 48764.7 4353.39 C 48671.6 4116.86 48652.2 4045.13015 48652.2 3959.83 C 48652.2 3926.88 48652.2 3835.75 48727.8 3773.72016 C 48787.9 3723.31 48869.4 3713.61 48921.7 3713.61 C 48999.3 3713.61 49069.1 3742.69 49133 3800.86 C 49107.8 3694.22 49086.5 3612.8 49005.1 3515.86 C 48952.7 3455.77 48875.2 3391.78 48772.4 3391.78 C 48758.9 3391.78 48667.8 3391.78 48627 3455.77 C 48731.7 3467.39 48731.7 3560.45 48731.7 3562.39 C 48731.7 3624.44 48675.5 3636.06 48656.1 3636.06 C 48607.6 3636.06 48543.7 3597.3 48543.7 3508.11 C 48543.7 3409.23 48636.7 3337.5 48774.4 3337.5 C 48970.2 3337.5 49208.6 3488.72 49268.7 3731.06 L 49452.9 4463.89045 "/>
<path transform="matrix(.00359712,0,0,-.00359712,0,52.52)" d="M 49742.5 5187.03 C 49728.9 5187.03 49705.6 5187.03 49705.6 5163.77 C 49705.6 5154.06 49711.5 5148.25 49723.1 5134.69 C 49889.8 4981.52 50075.9 4719.8 50075.9 4219.61 C 50075.9 3814.42 49949.9 3508.11 49740.5 3318.13 C 49707.6 3285.16 49705.6 3283.22 49705.6 3273.53 C 49705.6 3263.83 49711.5 3250.27 49730.8 3250.27 C 49754.1 3250.27 49938.3 3378.22 50066.3 3620.56 C 50151.5 3781.47 50207.8 3990.84 50207.8 4217.67 C 50207.8 4491.03011 50126.3 4915.61021 49742.5 5187.03 "/>
<path transform="matrix(.00359712,0,0,-.00359712,0,52.52)" d="M 51303.3 3799.58 C 50957.1 3716.47014 50688.3 3356.34 50688.3 3021.16 C 50688.3 2755.22 50865.6 2555.75 51126 2555.75 C 51450.2 2555.75 51680.1 2990.67 51680.1 3372.97 C 51680.1 3625.05 51569.3 3763.56 51475.1 3888.22 C 51375.4 4012.88 51211.9 4220.64 51211.9 4342.53 C 51211.9 4403.47 51267.3 4469.95 51364.3 4469.95 C 51447.4 4469.95 51502.8 4433.94 51561 4395.16 C 51616.4 4361.92025 51671.8 4325.91 51713.3 4325.91 C 51782.6 4325.91 51824.1 4392.39 51824.1 4436.72 C 51824.1 4497.66 51779.8 4505.97 51680.1 4528.13 C 51536 4558.61 51497.3 4558.61 51452.9 4558.61 C 51236.8 4558.61 51137.1 4439.48 51137.1 4273.28 C 51137.1 4123.69 51217.5 3968.55 51303.3 3799.58 Z M 51336.6 3738.63 C 51405.8 3611.2 51488.9 3461.61 51488.9 3262.16 C 51488.9 3079.33 51383.6966 2616.7 51126 2616.7 C 50973.7 2616.7 50860.1 2733.05 50860.1 2943.58 C 50860.1 3118.11 50962.6 3638.91 51336.6 3738.63 "/>
<path transform="matrix(.00359712,0,0,-.00359712,0,52.52)" d="M 52535.1 4944.69 C 52535.1 4975.7 52511.9 5018.36 52457.6 5018.36 C 52405.3 5018.36 52349 4967.95 52349 4911.73 C 52349 4878.77 52374.2 4838.06 52426.6 4838.06 C 52482.8 4838.06 52535.1 4892.34 52535.1 4944.69 Z M 52139.6 3959.83 C 52131.9 3934.63 52122.2 3911.36 52122.2 3878.41 C 52122.2 3787.28022 52199.8 3713.61 52306.4 3713.61 C 52500.3 3713.61 52585.5 3981.16 52585.5 4010.23 C 52585.5 4035.44 52560.3 4035.44 52554.5 4035.44 C 52527.4 4035.44 52525.4974 4023.81028 52517.7 4002.48 C 52473.1 3847.39 52387.8 3767.89 52312.2 3767.89 C 52273.4 3767.89 52263.7 3793.09 52263.7 3835.75 C 52263.7 3880.34 52277.3 3917.17 52294.7 3959.83 C 52314.1 4012.17021 52335.5 4064.52025 52356.8 4114.92 C 52374.2 4161.45 52444 4337.88 52451.8 4361.14 C 52457.6 4380.53 52463.4 4403.8 52463.4 4423.17 C 52463.4 4514.3 52385.9 4587.97 52279.1967 4587.97 C 52087.3 4587.97 51998.1 4324.3 51998.1 4291.34 C 51998.1 4266.14 52025.3 4266.14 52031.1 4266.14 C 52058.2 4266.14 52060.2 4275.84018 52066 4297.16 C 52116.4 4463.89045 52201.7 4533.69 52273.4 4533.69 C 52304.4 4533.69 52321.9 4518.17025 52321.9 4465.83 C 52321.9 4421.23 52310.3 4392.16 52261.8 4271.95 L 52139.6 3959.83 "/>
<path transform="matrix(.00359712,0,0,-.00359712,0,52.52)" d="M 53542.1 4944.69 C 53542.1 4977.64 53516.9 5018.36 53464.5 5018.36 C 53408.3 5018.36 53356 4964.08 53356 4911.73 C 53356 4880.7 53379.2 4838.06 53433.5 4838.06 C 53485.9 4838.06 53542.1 4888.47054 53542.1 4944.69 Z M 53131.1 3638 C 53098.1 3504.23 52995.4 3391.78 52881 3391.78 C 52855.8 3391.78 52832.5 3395.67 52811.2 3403.42 C 52861.6 3426.69 52877.1 3473.22 52877.1 3502.3 C 52877.1 3548.83 52840.3 3574.03 52801.5 3574.03 C 52741.4 3574.03 52691 3521.69 52691 3459.64 C 52691 3385.97 52766.6 3337.5 52882.9 3337.5 C 52999.3 3337.5 53226.1 3407.3 53286.2 3643.81 L 53460.7 4337.88 C 53466.4974 4359.2 53470.4 4376.66 53470.4 4405.73 C 53470.4 4512.36 53379.2 4587.97 53262.9 4587.97 C 53047.7 4587.97 52923.6 4318.48 52923.6 4291.34 C 52923.6 4266.14 52950.8 4266.14 52956.6 4266.14 C 52979.9 4266.14 52981.8 4271.95 52995.4 4301.05 C 53043.8 4413.48 53144.7 4533.69 53257.1 4533.69 C 53305.6 4533.69 53323 4500.72 53323 4438.69 C 53323 4417.36 53319.1 4390.22054 53317.2 4380.53 L 53131.1 3638 "/>
<path transform="matrix(.00359712,0,0,-.00359712,0,52.52)" d="M 54389.9 2735.81 C 54389.9 2816.16 54323.4 2882.64 54243.1 2882.64 C 54162.7 2882.64 54096.2 2816.16 54096.2 2735.81 C 54096.2 2655.48 54162.7 2589 54243.1 2589 C 54323.4 2589 54389.9 2655.48 54389.9 2735.81 "/>
</svg>
