<svg xmlns="http://www.w3.org/2000/svg" xmlns:xlink="http://www.w3.org/1999/xlink" version="1.1" width="297pt" height="85pt" viewBox="0 0 297 85">
<path transform="matrix(.00359712,0,0,-.00359712,0,85)" d="M1944.58 2626.03C1944.58 2631.56 1952.88 2662.03 1952.88 2664.81 1952.88 2667.58 1952.88 2692.52 1919.64 2692.52 1891.94 2692.52 1889.17 2684.2 1878.09 2637.11L1717.42 1997.19C1276.95 1983.34 869.734 1614.91 869.734 1238.16 869.734 975 1063.66 756.156 1401.61 736.75 1379.45 650.875 1360.06 562.234 1337.91 476.359 1304.66 346.156 1276.95 240.891 1276.95 232.578 1276.95 204.875 1296.34 202.109 1310.2 202.109 1324.05 202.109 1329.59 204.875 1337.91 213.188 1343.44 218.734 1360.06 285.219 1368.38 324L1473.64 736.75C1919.64 750.609 2321.31 1124.58 2321.31 1495.8 2321.31 1714.64 2174.5 1969.48 1789.44 1997.19L1944.58 2626.03ZM1415.47 797.703C1249.25 806.016 1049.8 902.969 1049.8 1179.98 1049.8 1512.41 1288.03 1900.23 1700.8 1936.25L1415.47 797.703ZM1772.83 1936.25C1983.36 1925.17 2141.25 1797.73 2141.25 1553.97 2141.25 1227.08 1903.02 830.938 1487.48 797.703L1772.83 1936.25"/>
<path transform="matrix(.00359712,0,0,-.00359712,0,85)" d="M3827.39 2212.14C3858.41 2212.14 3904.94 2212.14 3904.94 2258.67 3904.94 2307.14 3860.34 2307.14 3827.39 2307.14H2671.92C2640.91 2307.14 2594.38 2307.14 2594.38 2260.61 2594.38 2212.14 2638.97 2212.14 2671.92 2212.14H3827.39"/>
<path transform="matrix(.00359712,0,0,-.00359712,0,85)" d="M18939.9 11608.6C18829.1 11423 18721 11384.2 18599.1 11375.9 18565.9 11373.1 18541 11373.1 18541 11320.5 18541 11303.8 18554.8 11290 18577 11290 18651.8 11290 18737.6 11298.3 18815.2 11298.3 18906.6 11298.3 19003.6 11290 19092.2 11290 19108.8 11290 19144.9 11290 19144.9 11342.6 19144.9 11373.1 19119.9 11375.9 19100.5 11375.9 19036.8 11381.4 18970.3 11403.6 18970.3 11472.8 18970.3 11506.1 18987 11536.5 19009.1 11575.3L19219.7 11929.9H19915C19920.5 11871.7 19959.3 11495 19959.3 11467.3 19959.3 11384.2 19815.3 11375.9 19759.8 11375.9 19721.1 11375.9 19693.4 11375.9 19693.4 11320.5 19693.4 11290 19726.6 11290 19732.1 11290 19845.7 11290 19964.8 11298.3 20078.4 11298.3 20147.7 11298.3 20322.2 11290 20391.4 11290 20408.1 11290 20441.3 11290 20441.3 11345.4 20441.3 11375.9 20413.6 11375.9 20377.6 11375.9 20205.8 11375.9 20205.8 11395.3 20197.5 11475.6L20028.5 13207C20023 13262.4 20023 13273.5 19975.9 13273.5 19931.6 13273.5 19920.5 13254.1 19903.9 13226.4L18939.9 11608.6ZM19272.3 12015.8 19818 12930 19906.7 12015.8H19272.3Z"/>
<path transform="matrix(.00359712,0,0,-.00359712,0,85)" d="M20625.7 10561.9C20617.9 10532.8 20617.9 10523.1 20617.9 10521.2 20617.9 10478.5 20652.8 10459.1 20683.8 10459.1 20753.6 10459.1 20769.2 10523.1 20776.9 10556 20780.8 10565.8 20819.6 10720.8 20866.1 10910.8 20926.2 10870.1 21003.7 10854.6 21073.5 10854.6 21240.3 10854.6 21348.8 10990.3 21352.7 10994.2 21389.5 10860.4 21523.3 10854.6 21552.4 10854.6 21622.2 10854.6 21670.7 10897.3 21705.5 10957.4 21748.2 11033 21773.4 11143.5 21773.4 11151.2 21773.4 11176.4 21748.2 11176.4 21742.4 11176.4 21715.2 11176.4 21713.3 11168.7 21699.7 11116.3 21676.5 11023.3 21639.6 10908.9 21558.2 10908.9 21507.8 10908.9 21494.2 10951.5 21494.2 11003.9 21494.2 11036.8 21509.7 11106.6 21523.3 11157 21536.9 11209.4 21556.3 11288.9 21566 11331.5L21610.5 11504.1C21622.2 11552.5 21643.5 11637.8 21643.5 11647.5 21643.5 11686.3 21612.5 11709.6 21579.5 11709.6 21558.2 11709.6 21521.4 11699.9 21500 11663 21494.2 11651.4 21478.7 11589.4 21469 11550.6L21428.3 11389.7 21368.2 11147.4C21354.6 11098.9 21354.6 11095 21337.2 11069.8 21277.1 10984.5 21191.8 10908.9 21081.3 10908.9 20922.3 10908.9 20922.3 11046.5 20922.3 11081.4 20922.3 11131.8 20928.1 11157 20955.3 11261.7 20974.7 11347 20978.5 11360.6 20997.9 11436.2L21025.1 11544.8C21034.8 11585.5 21054.1 11659.2 21054.1 11666.9 21054.1 11701.8 21027 11729 20988.2 11729 20918.4 11729 20901 11661.1 20895.2 11637.8L20625.7 10561.9"/>
<path transform="matrix(.00359712,0,0,-.00359712,0,85)" d="M2599.27 22886.7C2668.52 23008.6 2735 23108.3 2909.52 23122.2 2934.45 23124.9 2962.16 23124.9 2962.16 23177.6 2962.16 23188.6 2951.08 23208 2928.92 23208 2862.44 23208 2784.86 23199.7 2715.61 23199.7 2621.42 23199.7 2518.92 23208 2427.52 23208 2410.89 23208 2374.88 23208 2374.88 23155.4 2374.88 23124.9 2399.81 23122.2 2416.44 23122.2 2482.92 23119.4 2579.88 23097.2 2579.88 23014.1 2579.88 22983.7 2566.02 22961.5 2543.86 22922.7L1795.91 21618 1693.41 22992C1690.64 23047.4 1685.09 23119.4 1887.33 23122.2 1934.42 23122.2 1962.13 23122.2 1962.13 23177.6 1962.13 23205.3 1931.64 23208 1920.56 23208 1809.77 23208 1693.41 23199.7 1582.61 23199.7 1518.89 23199.7 1355.45 23208 1291.73 23208 1275.11 23208 1239.09 23208 1239.09 23152.6 1239.09 23122.2 1266.8 23122.2 1305.58 23122.2 1427.47 23122.2 1446.86 23105.5 1452.41 23052.9L1469.03 22839.6 768.172 21618 662.906 23022.4C662.906 23055.7 662.906 23119.4 873.438 23122.2 901.141 23122.2 931.609 23122.2 931.609 23177.6 931.609 23208 898.359 23208 892.828 23208 782.016 23208 665.672 23199.7 552.094 23199.7 455.141 23199.7 355.406 23208 261.219 23208 247.375 23208 211.359 23208 211.359 23155.4 211.359 23122.2 236.297 23122.2 280.609 23122.2 419.125 23122.2 421.891 23097.2 427.438 23019.7L552.094 21327.1C554.859 21277.2 557.641 21255.1 596.422 21255.1 629.656 21255.1 637.969 21271.7 662.906 21313.2L1477.34 22726 1579.83 21327.1C1585.38 21268.9 1590.91 21255.1 1624.16 21255.1 1660.17 21255.1 1676.8 21282.8 1690.64 21307.7L2599.27 22886.7"/>
<path transform="matrix(.00359712,0,0,-.00359712,0,85)" d="M4502.39 22759.1C4533.41 22759.1 4579.94 22759.1 4579.94 22805.7 4579.94 22854.1 4535.34 22854.1 4502.39 22854.1H3346.92C3315.91 22854.1 3269.38 22854.1 3269.38 22807.6 3269.38 22759.1 3313.97 22759.1 3346.92 22759.1H4502.39"/>
<path transform="matrix(.00359712,0,0,-.00359712,0,85)" d="M3161.61 21430.8C3163.55 21438.5 3165.48 21450.1 3165.48 21459.8 3165.48 21461.8 3165.48 21487 3134.47 21487 3132.53 21487 3022.03 21477.3 3008.45 21477.3 2971.63 21473.4 2936.72 21471.5 2899.89 21467.6 2868.88 21465.6 2845.61 21463.7 2845.61 21423 2845.61 21395.8 2872.75 21395.8 2896.02 21395.8 2989.06 21395.8 2989.06 21384.2 2989.06 21366.8 2989.06 21355.1 2979.38 21316.4 2971.63 21291.2L2874.69 20899.5C2826.22 20705.7 2816.53 20666.9 2816.53 20659.1 2816.53 20632 2845.61 20632 2853.36 20632H2884.38C3056.92 20659.1 3303.14 20750.3 3510.58 20934.4 3774.25 21169 3813.02 21421 3813.02 21424.9 3813.02 21459.8 3785.88 21487 3747.09 21487 3679.25 21487 3665.67 21432.7 3648.23 21378.4 3570.69 21103.1 3310.89 20806.5 2981.31 20709.5L3161.61 21430.8"/>
<path transform="matrix(.00359712,0,0,-.00359712,0,85)" stroke-width="110.783" stroke-linecap="butt" stroke-dasharray="830.895,830.895" stroke-miterlimit="10" stroke-linejoin="miter" fill="none" stroke="#000000" d="M3851.4 3953.18 8404.77 11839.7"/>
<path transform="matrix(.00359712,0,0,-.00359712,0,85)" d="M5221.44 6326.13 6796.21 7534.52 5480.58 8294.11"/>
<path transform="matrix(.00359712,0,0,-.00359712,0,85)" stroke-width="110.783" stroke-linecap="butt" stroke-miterlimit="10" stroke-linejoin="miter" fill="none" stroke="#000000" d="M8404.77 11839.7H8555.77L8706.77 12012.8 8857.77 12139.6 9008.77 12185.9 9159.77 12139.6 9310.77 12012.8 9461.77 11839.7 9612.77 11666.6 9763.77 11539.9 9914.78 11493.5 10065.8 11539.9 10216.8 11666.6 10367.8 11839.7 10518.8 12012.8 10669.8 12139.6 10820.8 12185.9 10971.8 12139.6 11122.8 12012.8 11273.8 11839.7 11424.8 11666.6 11575.8 11539.9 11726.8 11493.5 11877.8 11539.9 12028.8 11666.6 12179.8 11839.7 12330.8 12012.8 12481.8 12139.6 12632.8 12185.9 12783.8 12139.6 12934.8 12012.8 13085.8 11839.7 13236.8 11666.6 13387.8 11539.9 13538.8 11493.5 13689.8 11539.9 13840.8 11666.6 13991.8 11839.7 14142.8 12012.8 14293.8 12139.6 14444.8 12185.9 14595.8 12139.6 14746.8 12012.8 14897.8 11839.7 15048.8 11666.6 15199.8 11539.9 15350.8 11493.5 15501.8 11539.9 15652.8 11666.6 15803.8 11839.7 15954.8 12012.8 16105.8 12139.6 16256.8 12185.9 16407.8 12139.6 16558.8 12012.8 16709.8 11839.7 16860.8 11666.6 17011.8 11539.9 17162.8 11493.5 17465.7 11839.7"/>
<path transform="matrix(.00359712,0,0,-.00359712,0,85)" stroke-width="110.783" stroke-linecap="butt" stroke-miterlimit="10" stroke-linejoin="miter" fill="none" stroke="#000000" d="M8404.77 11839.7 8329.66 11969.8 8104.63 12013.4 7919.77 12080.2 7804.48 12187.1 7769.53 12340.4 7804.16 12533.8 7878.94 12750.5 7953.73 12967.2 7988.35 13160.6 7953.39 13313.9 7838.11 13420.9 7653.25 13487.6 7428.22 13531.2 7203.19 13574.7 7018.33 13641.5 6903.04 13748.4 6868.09 13901.7 6902.71 14095.2 6977.5 14311.8 7052.29 14528.5 7086.91 14721.9 7051.95 14875.2 6936.67 14982.2 6751.81 15048.9 6526.78 15092.5 6301.75 15136 6116.89 15202.8 6001.61 15309.7 5966.65 15463 6001.28 15656.5 6076.06 15873.1 6150.85 16089.8 6185.47 16283.3 6150.52 16436.6 6035.23 16543.5 5850.37 16610.2 5625.34 16653.8 5400.32 16697.3 5215.45 16764.1 5100.17 16871 5065.21 17024.3 5099.84 17217.8 5174.63 17434.4 5249.41 17651.1 5284.04 17844.6 5249.08 17997.9 5133.8 18104.8 4948.93 18171.5 4723.91 18215.1 4498.88 18258.7 4314.01 18325.4 4198.73 18432.3 4163.78 18585.6 4198.4 18779.1 4273.19 18995.8 4347.97 19212.4 4382.6 19405.9 4347.64 19559.2 3893.59 19653.2"/>
<path transform="matrix(.00359712,0,0,-.00359712,0,85)" d="M11923.3 14388.7C11992.5 14510.6 12059 14610.3 12233.5 14624.2 12258.5 14626.9 12286.2 14626.9 12286.2 14679.6 12286.2 14690.6 12275.1 14710 12252.9 14710 12186.4 14710 12108.9 14701.7 12039.6 14701.7 11945.4 14701.7 11842.9 14710 11751.5 14710 11734.9 14710 11698.9 14710 11698.9 14657.4 11698.9 14626.9 11723.8 14624.2 11740.4 14624.2 11806.9 14621.4 11903.9 14599.2 11903.9 14516.1 11903.9 14485.7 11890 14463.5 11867.9 14424.7L11119.9 13120 11017.4 14494C11014.6 14549.4 11009.1 14621.4 11211.3 14624.2 11258.4 14624.2 11286.1 14624.2 11286.1 14679.6 11286.1 14707.3 11255.6 14710 11244.6 14710 11133.8 14710 11017.4 14701.7 10906.6 14701.7 10842.9 14701.7 10679.5 14710 10615.7 14710 10599.1 14710 10563.1 14710 10563.1 14654.6 10563.1 14624.2 10590.8 14624.2 10629.6 14624.2 10751.5 14624.2 10770.9 14607.5 10776.4 14554.9L10793 14341.6 10092.2 13120 9986.91 14524.4C9986.91 14557.7 9986.91 14621.4 10197.4 14624.2 10225.1 14624.2 10255.6 14624.2 10255.6 14679.6 10255.6 14710 10222.4 14710 10216.8 14710 10106 14710 9989.67 14701.7 9876.09 14701.7 9779.14 14701.7 9679.41 14710 9585.22 14710 9571.38 14710 9535.36 14710 9535.36 14657.4 9535.36 14624.2 9560.3 14624.2 9604.61 14624.2 9743.13 14624.2 9745.89 14599.2 9751.44 14521.7L9876.09 12829.1C9878.86 12779.2 9881.64 12757.1 9920.42 12757.1 9953.66 12757.1 9961.97 12773.7 9986.91 12815.2L10801.3 14228 10903.8 12829.1C10909.4 12770.9 10914.9 12757.1 10948.2 12757.1 10984.2 12757.1 11000.8 12784.8 11014.6 12809.7L11923.3 14388.7"/>
<path transform="matrix(.00359712,0,0,-.00359712,0,85)" d="M13281.6 14261.1H13874.9C13900.1 14261.1 13946.6 14261.1 13946.6 14307.7 13946.6 14356.1 13902 14356.1 13874.9 14356.1H13281.6V14951.3C13281.6 14976.5 13281.6 15023.1 13235.1 15023.1 13186.6 15023.1 13186.6 14978.5 13186.6 14951.3V14356.1H12591.4C12566.2 14356.1 12519.7 14356.1 12519.7 14309.6 12519.7 14261.1 12564.3 14261.1 12591.4 14261.1H13186.6V13666C13186.6 13640.8 13186.6 13594.2 13233.2 13594.2 13281.6 13594.2 13281.6 13638.8 13281.6 13666V14261.1"/>
<path transform="matrix(.00359712,0,0,-.00359712,0,85)" d="M10593.6 10512C10593.6 10517.6 10601.9 10548 10601.9 10550.8 10601.9 10553.6 10601.9 10578.5 10568.6 10578.5 10540.9 10578.5 10538.2 10570.2 10527.1 10523.1L10366.4 9883.19C9925.95 9869.34 9518.73 9500.91 9518.73 9124.16 9518.73 8861 9712.66 8642.16 10050.6 8622.75 10028.5 8536.88 10009.1 8448.23 9986.91 8362.36 9953.66 8232.16 9925.95 8126.89 9925.95 8118.58 9925.95 8090.88 9945.34 8088.11 9959.2 8088.11 9973.05 8088.11 9978.59 8090.88 9986.91 8099.19 9992.44 8104.73 10009.1 8171.22 10017.4 8210L10122.6 8622.75C10568.6 8636.61 10970.3 9010.58 10970.3 9381.8 10970.3 9600.64 10823.5 9855.48 10438.4 9883.19L10593.6 10512ZM10064.5 8683.7C9898.25 8692.02 9698.8 8788.97 9698.8 9065.98 9698.8 9398.41 9937.03 9786.23 10349.8 9822.25L10064.5 8683.7ZM10421.8 9822.25C10632.4 9811.17 10790.3 9683.73 10790.3 9439.97 10790.3 9113.08 10552 8716.94 10136.5 8683.7L10421.8 9822.25"/>
<path transform="matrix(.00359712,0,0,-.00359712,0,85)" d="M11931.6 10099.1H12524.9C12550.1 10099.1 12596.6 10099.1 12596.6 10145.7 12596.6 10194.1 12552 10194.1 12524.9 10194.1H11931.6V10789.3C11931.6 10814.5 11931.6 10861.1 11885.1 10861.1 11836.6 10861.1 11836.6 10816.5 11836.6 10789.3V10194.1H11241.4C11216.2 10194.1 11169.7 10194.1 11169.7 10147.6 11169.7 10099.1 11214.3 10099.1 11241.4 10099.1H11836.6V9503.97C11836.6 9478.77 11836.6 9432.23 11883.2 9432.23 11931.6 9432.23 11931.6 9476.83 11931.6 9503.97V10099.1"/>
<path transform="matrix(.00359712,0,0,-.00359712,0,85)" d="M25602.1 12089.8C25643.7 12089.8 25696.3 12089.8 25696.3 12145.3 25696.3 12200.7 25643.7 12200.7 25604.9 12200.7H23945.5C23906.8 12200.7 23854.1 12200.7 23854.1 12145.3 23854.1 12089.8 23906.8 12089.8 23948.3 12089.8H25602.1ZM25604.9 11552.4C25643.7 11552.4 25696.3 11552.4 25696.3 11607.8 25696.3 11663.3 25643.7 11663.3 25602.1 11663.3H23948.3C23906.8 11663.3 23854.1 11663.3 23854.1 11607.8 23854.1 11552.4 23906.8 11552.4 23945.5 11552.4H25604.9"/>
<path transform="matrix(.00359712,0,0,-.00359712,0,85)" d="M28447.5 11821.1C28494.6 11821.1 28544.5 11821.1 28544.5 11876.5 28544.5 11932 28494.6 11932 28447.5 11932H26948.9C26901.8 11932 26851.9 11932 26851.9 11876.5 26851.9 11821.1 26901.8 11821.1 26948.9 11821.1H28447.5"/>
<path transform="matrix(.00359712,0,0,-.00359712,0,85)" d="M29294 11823.9C29374.4 11823.9 29579.4 11829.5 29717.9 11887.6 29911.8 11970.7 29925.6 12134.2 29925.6 12173 29925.6 12294.8 29820.4 12408.4 29629.2 12408.4 29321.7 12408.4 28903.4 12139.7 28903.4 11654.9 28903.4 11372.4 29066.9 11153.5 29338.3 11153.5 29734.5 11153.5 29967.2 11447.2 29967.2 11480.4 29967.2 11497 29950.6 11516.4 29933.9 11516.4 29920.1 11516.4 29914.5 11510.9 29897.9 11488.7 29679.1 11214.5 29377.1 11214.5 29343.9 11214.5 29127.8 11214.5 29102.9 11447.2 29102.9 11535.8 29102.9 11569.1 29105.7 11654.9 29147.2 11823.9H29294ZM29163.8 11884.9C29271.9 12305.9 29557.2 12347.5 29629.2 12347.5 29759.4 12347.5 29834.2 12267.1 29834.2 12173 29834.2 11884.9 29391 11884.9 29277.4 11884.9H29163.8"/>
<path transform="matrix(.00359712,0,0,-.00359712,0,85)" d="M30307.8 11347.4C30299.5 11305.9 30282.8 11242.2 30282.8 11228.3 30282.8 11178.5 30321.6 11153.5 30363.2 11153.5 30396.4 11153.5 30446.3 11175.7 30465.7 11231.1 30468.5 11236.6 30501.7 11366.8 30518.3 11436.1L30579.3 11685.4C30595.9 11746.3 30612.5 11807.3 30626.3 11871 30637.4 11918.1 30659.6 11998.4 30662.4 12009.5 30703.9 12095.4 30850.7 12347.5 31113.9 12347.5 31238.6 12347.5 31263.5 12245 31263.5 12153.6 31263.5 12084.3 31244.1 12006.8 31221.9 11923.6L31144.4 11602.3 31089 11391.8C31077.9 11336.4 31053 11242.2 31053 11228.3 31053 11178.5 31091.7 11153.5 31133.3 11153.5 31219.2 11153.5 31235.8 11222.8 31258 11311.4 31296.7 11466.6 31399.2 11871 31424.2 11979 31432.5 12015.1 31579.3 12347.5 31881.3 12347.5 32000.4 12347.5 32030.8 12253.3 32030.8 12153.6 32030.8 11995.7 31914.5 11679.9 31859.1 11533 31834.2 11466.6 31823.1 11436.1 31823.1 11380.7 31823.1 11250.5 31920 11153.5 32050.2 11153.5 32310.6 11153.5 32413.1 11558 32413.1 11580.1 32413.1 11607.8 32388.2 11607.8 32379.9 11607.8 32352.2 11607.8 32352.2 11599.5 32338.3 11558 32296.8 11411.2 32208.1 11214.5 32055.8 11214.5 32008.7 11214.5 31989.3 11242.2 31989.3 11305.9 31989.3 11375.1 32014.2 11441.6 32039.1 11502.6 32091.8 11646.6 32208.1 11954.1 32208.1 12112 32208.1 12292.1 32097.3 12408.4 31889.5 12408.4 31681.8 12408.4 31540.5 12286.5 31438 12139.7 31435.3 12175.7 31426.9 12269.9 31349.4 12336.4 31280.1 12394.6 31191.5 12408.4 31122.2 12408.4 30872.9 12408.4 30737.2 12231.1 30690.1 12167.4 30676.2 12325.3 30559.9 12408.4 30435.2 12408.4 30307.8 12408.4 30255.1 12300.4 30230.2 12250.5 30180.3 12153.6 30144.3 11990.1 30144.3 11981.8 30144.3 11954.1 30172 11954.1 30177.6 11954.1 30205.3 11954.1 30208 11956.9 30224.7 12017.8 30271.8 12214.5 30327.2 12347.5 30426.9 12347.5 30471.2 12347.5 30512.8 12325.3 30512.8 12220 30512.8 12161.9 30504.5 12131.4 30468.5 11987.4L30307.8 11347.4"/>
<path transform="matrix(.00359712,0,0,-.00359712,0,85)" d="M34506.5 11863.4 34541.4 11913.8C34582.1 11966.1 34628.6 12014.6 34723.6 12022.3 34745 12024.3 34768.2 12026.2 34768.2 12065 34768.2 12078.6 34756.6 12092.1 34741.1 12092.1 34696.5 12092.1 34640.3 12084.4 34593.7 12084.4 34525.9 12084.4 34442.5 12092.1 34378.5 12092.1 34368.8 12092.1 34337.8 12092.1 34337.8 12049.5 34337.8 12024.3 34365 12022.3 34372.7 12022.3 34415.4 12020.4 34479.4 12008.8 34479.4 11954.5 34479.4 11933.2 34458 11898.3 34450.3 11884.7L33903.6 10987.1 33796.9 11966.1C33796.9 12020.4 33909.4 12022.3 33932.6 12022.3 33957.8 12022.3 33985 12022.3 33985 12065 33985 12066.9 33983 12092.1 33952 12092.1 33915.2 12092.1 33868.7 12088.3 33831.8 12086.3 33793 12084.4 33742.6 12084.4 33703.9 12084.4 33659.3 12084.4 33544.9 12092.1 33500.3 12092.1 33490.6 12092.1 33461.5 12092.1 33461.5 12049.5 33461.5 12022.3 33486.7 12022.3 33511.9 12022.3 33595.3 12022.3 33605 12008.8 33610.8 11989.4 33612.8 11977.8 33616.6 11923.5 33624.4 11863.4L33091.3 10987.1 32988.5 11937C32988.5 11944.8 32984.6 11964.2 32984.6 11966.1 32984.6 12022.3 33104.8 12022.3 33120.3 12022.3 33145.5 12022.3 33172.7 12022.3 33172.7 12065 33172.7 12072.8 33166.9 12092.1 33141.7 12092.1 33085.4 12092.1 32947.8 12084.4 32891.6 12084.4 32827.6 12084.4 32746.2 12092.1 32688 12092.1 32668.6 12092.1 32649.2 12084.4 32649.2 12051.4 32649.2 12022.3 32672.5 12022.3 32703.5 12022.3 32794.6 12022.3 32794.6 12010.7 32800.4 11962.2L32930.3 10781.6C32934.2 10742.8 32936.1 10729.2 32971 10729.2 33004 10729.2 33017.6 10746.7 33029.2 10768L33634.1 11764.5 33740.7 10779.6C33744.6 10738.9 33754.3 10729.2 33783.4 10729.2 33816.3 10729.2 33828 10746.7 33841.5 10769.9L34506.5 11863.4"/>
<path transform="matrix(.00359712,0,0,-.00359712,0,85)" d="M36321.8 12228.4C36324.5 12245 36330.1 12258.8 36330.1 12278.2 36330.1 12325.3 36296.8 12353 36249.7 12353 36222 12353 36147.2 12333.6 36136.2 12233.9 36086.3 12336.4 35989.3 12408.4 35878.5 12408.4 35562.7 12408.4 35219.2 12020.6 35219.2 11621.7 35219.2 11347.4 35388.2 11184 35587.7 11184 35751.1 11184 35881.3 11314.2 35909 11344.7L35911.8 11341.9C35853.6 11095.4 35820.4 10981.8 35820.4 10976.2 35809.3 10951.3 35715.1 10677.1 35421.5 10677.1 35368.8 10677.1 35277.4 10679.8 35199.8 10704.8 35282.9 10729.7 35313.4 10801.7 35313.4 10848.8 35313.4 10893.1 35282.9 10945.8 35208.1 10945.8 35147.2 10945.8 35058.5 10895.9 35058.5 10785.1 35058.5 10671.5 35161 10616.1 35427 10616.1 35773.3 10616.1 35972.7 10832.2 36014.3 10998.4L36321.8 12228.4ZM35961.6 11538.6C35945 11466.6 35881.3 11397.3 35820.4 11344.7 35762.2 11294.8 35676.3 11244.9 35596 11244.9 35457.5 11244.9 35415.9 11389 35415.9 11499.8 35415.9 11632.8 35496.3 11959.7 35571 12100.9 35645.8 12236.7 35765 12347.5 35881.3 12347.5 36064.1 12347.5 36102.9 12123.1 36102.9 12109.3 36102.9 12095.4 36097.4 12078.8 36094.6 12067.7L35961.6 11538.6"/>
<path transform="matrix(.00359712,0,0,-.00359712,0,85)" d="M36542.7 12014.9C36534.9 11985.8 36534.9 11976.1 36534.9 11974.2 36534.9 11931.5 36569.8 11912.1 36600.8 11912.1 36670.6 11912.1 36686.2 11976.1 36693.9 12009 36697.8 12018.8 36736.6 12173.8 36783.1 12363.8 36843.2 12323.1 36920.7 12307.6 36990.5 12307.6 37157.3 12307.6 37265.8 12443.3 37269.7 12447.2 37306.5 12313.4 37440.3 12307.6 37469.4 12307.6 37539.2 12307.6 37587.7 12350.3 37622.5 12410.4 37665.2 12486 37690.4 12596.5 37690.4 12604.2 37690.4 12629.4 37665.2 12629.4 37659.4 12629.4 37632.2 12629.4 37630.3 12621.7 37616.7 12569.3 37593.5 12476.3 37556.6 12361.9 37475.2 12361.9 37424.8 12361.9 37411.2 12404.5 37411.2 12456.9 37411.2 12489.8 37426.7 12559.6 37440.3 12610 37453.9 12662.4 37473.3 12741.9 37483 12784.5L37527.5 12957.1C37539.2 13005.5 37560.5 13090.8 37560.5 13100.5 37560.5 13139.3 37529.5 13162.6 37496.5 13162.6 37475.2 13162.6 37438.4 13152.9 37417 13116 37411.2 13104.4 37395.7 13042.4 37386 13003.6L37345.3 12842.7 37285.2 12600.4C37271.6 12551.9 37271.6 12548 37254.2 12522.8 37194.1 12437.5 37108.8 12361.9 36998.3 12361.9 36839.3 12361.9 36839.3 12499.5 36839.3 12534.4 36839.3 12584.8 36845.1 12610 36872.3 12714.7 36891.7 12800 36895.5 12813.6 36914.9 12889.2L36942.1 12997.8C36951.8 13038.5 36971.1 13112.2 36971.1 13119.9 36971.1 13154.8 36944 13182 36905.2 13182 36835.4 13182 36818 13114.1 36812.2 13090.8L36542.7 12014.9"/>
<path transform="matrix(.00359712,0,0,-.00359712,0,85)" d="M38269.6 13125.8C38271.5 13133.5 38273.5 13145.1 38273.5 13154.8 38273.5 13156.8 38273.5 13182 38242.5 13182 38240.5 13182 38130 13172.3 38116.5 13172.3 38079.6 13168.4 38044.7 13166.5 38007.9 13162.6 37976.9 13160.6 37953.6 13158.7 37953.6 13118 37953.6 13090.8 37980.8 13090.8 38004 13090.8 38097.1 13090.8 38097.1 13079.2 38097.1 13061.8 38097.1 13050.1 38087.4 13011.4 38079.6 12986.2L37982.7 12594.5C37934.2 12400.7 37924.5 12361.9 37924.5 12354.1 37924.5 12327 37953.6 12327 37961.4 12327H37992.4C38164.9 12354.1 38411.1 12445.3 38618.6 12629.4 38882.3 12864 38921 13116 38921 13119.9 38921 13154.8 38893.9 13182 38855.1 13182 38787.3 13182 38773.7 13127.7 38756.2 13073.4 38678.7 12798.1 38418.9 12501.5 38089.3 12404.5L38269.6 13125.8"/>
<path transform="matrix(.00359712,0,0,-.00359712,0,85)" d="M39724.3 11186.8C39724.3 11369.6 39655.1 11477.6 39547.1 11477.6 39455.6 11477.6 39400.2 11408.4 39400.2 11330.8 39400.2 11256 39455.6 11184 39547.1 11184 39580.3 11184 39616.3 11195.1 39644 11220 39652.3 11225.5 39655.1 11228.3 39657.9 11228.3 39660.6 11228.3 39663.4 11225.5 39663.4 11186.8 39663.4 10981.8 39566.5 10815.6 39475 10724.2 39444.6 10693.7 39444.6 10688.1 39444.6 10679.8 39444.6 10660.4 39458.4 10649.4 39472.3 10649.4 39502.7 10649.4 39724.3 10862.7 39724.3 11186.8"/>
<path transform="matrix(.00359712,0,0,-.00359712,0,85)" d="M46895.6 2626.03C46895.6 2631.56 46903.9 2662.03 46903.9 2664.81 46903.9 2667.58 46903.9 2692.52 46870.6 2692.52 46842.9 2692.52 46840.2 2684.2 46829.1 2637.11L46668.4 1997.19C46228 1983.34 45820.7 1614.91 45820.7 1238.16 45820.7 975 46014.7 756.156 46352.6 736.75 46330.5 650.875 46311.1 562.234 46288.9 476.359 46255.7 346.156 46228 240.891 46228 232.578 46228 204.875 46247.3 202.109 46261.2 202.109 46275 202.109 46280.6 204.875 46288.9 213.188 46294.4 218.734 46311.1 285.219 46319.4 324L46424.6 736.75C46870.6 750.609 47272.3 1124.58 47272.3 1495.8 47272.3 1714.64 47125.5 1969.48 46740.4 1997.19L46895.6 2626.03ZM46366.5 797.703C46200.3 806.016 46000.8 902.969 46000.8 1179.98 46000.8 1512.41 46239 1900.23 46651.8 1936.25L46366.5 797.703ZM46723.8 1936.25C46934.4 1925.17 47092.3 1797.73 47092.3 1553.97 47092.3 1227.08 46854 830.938 46438.5 797.703L46723.8 1936.25"/>
<path transform="matrix(.00359712,0,0,-.00359712,0,85)" d="M48232.6 2212.14H48825.9C48851.1 2212.14 48897.6 2212.14 48897.6 2258.67 48897.6 2307.14 48853 2307.14 48825.9 2307.14H48232.6V2902.33C48232.6 2927.53 48232.6 2974.06 48186.1 2974.06 48137.6 2974.06 48137.6 2929.47 48137.6 2902.33V2307.14H47542.4C47517.2 2307.14 47470.7 2307.14 47470.7 2260.61 47470.7 2212.14 47515.3 2212.14 47542.4 2212.14H48137.6V1616.97C48137.6 1591.77 48137.6 1545.23 48184.2 1545.23 48232.6 1545.23 48232.6 1589.83 48232.6 1616.97V2212.14"/>
<path transform="matrix(.00359712,0,0,-.00359712,0,85)" d="M63874.9 11608.6C63764.1 11423 63656 11384.2 63534.1 11375.9 63500.9 11373.1 63476 11373.1 63476 11320.5 63476 11303.8 63489.8 11290 63512 11290 63586.8 11290 63672.6 11298.3 63750.2 11298.3 63841.6 11298.3 63938.6 11290 64027.2 11290 64043.8 11290 64079.9 11290 64079.9 11342.6 64079.9 11373.1 64054.9 11375.9 64035.5 11375.9 63971.8 11381.4 63905.3 11403.6 63905.3 11472.8 63905.3 11506.1 63922 11536.5 63944.1 11575.3L64154.7 11929.9H64850C64855.5 11871.7 64894.3 11495 64894.3 11467.3 64894.3 11384.2 64750.3 11375.9 64694.8 11375.9 64656.1 11375.9 64628.4 11375.9 64628.4 11320.5 64628.4 11290 64661.6 11290 64667.1 11290 64780.7 11290 64899.8 11298.3 65013.4 11298.3 65082.7 11298.3 65257.2 11290 65326.4 11290 65343.1 11290 65376.3 11290 65376.3 11345.4 65376.3 11375.9 65348.6 11375.9 65312.6 11375.9 65140.8 11375.9 65140.8 11395.3 65132.5 11475.6L64963.5 13207C64958 13262.4 64958 13273.5 64910.9 13273.5 64866.6 13273.5 64855.5 13254.1 64838.9 13226.4L63874.9 11608.6ZM64207.3 12015.8 64753 12930 64841.7 12015.8H64207.3Z"/>
<path transform="matrix(.00359712,0,0,-.00359712,0,85)" d="M65560.7 10561.9C65552.9 10532.8 65552.9 10523.1 65552.9 10521.2 65552.9 10478.5 65587.8 10459.1 65618.8 10459.1 65688.6 10459.1 65704.2 10523.1 65711.9 10556 65715.8 10565.8 65754.6 10720.8 65801.1 10910.8 65861.2 10870.1 65938.7 10854.6 66008.5 10854.6 66175.3 10854.6 66283.8 10990.3 66287.7 10994.2 66324.5 10860.4 66458.3 10854.6 66487.4 10854.6 66557.2 10854.6 66605.7 10897.3 66640.5 10957.4 66683.2 11033 66708.4 11143.5 66708.4 11151.2 66708.4 11176.4 66683.2 11176.4 66677.4 11176.4 66650.2 11176.4 66648.3 11168.7 66634.7 11116.3 66611.5 11023.3 66574.6 10908.9 66493.2 10908.9 66442.8 10908.9 66429.2 10951.5 66429.2 11003.9 66429.2 11036.8 66444.7 11106.6 66458.3 11157 66471.9 11209.4 66491.3 11288.9 66501 11331.5L66545.5 11504.1C66557.2 11552.5 66578.5 11637.8 66578.5 11647.5 66578.5 11686.3 66547.5 11709.6 66514.5 11709.6 66493.2 11709.6 66456.4 11699.9 66435 11663 66429.2 11651.4 66413.7 11589.4 66404 11550.6L66363.3 11389.7 66303.2 11147.4C66289.6 11098.9 66289.6 11095 66272.2 11069.8 66212.1 10984.5 66126.8 10908.9 66016.3 10908.9 65857.3 10908.9 65857.3 11046.5 65857.3 11081.4 65857.3 11131.8 65863.1 11157 65890.3 11261.7 65909.7 11347 65913.5 11360.6 65932.9 11436.2L65960.1 11544.8C65969.8 11585.5 65989.1 11659.2 65989.1 11666.9 65989.1 11701.8 65962 11729 65923.2 11729 65853.4 11729 65836 11661.1 65830.2 11637.8L65560.7 10561.9"/>
<path transform="matrix(.00359712,0,0,-.00359712,0,85)" d="M47549.3 22886.7C47618.5 23008.6 47685 23108.3 47859.5 23122.2 47884.5 23124.9 47912.2 23124.9 47912.2 23177.6 47912.2 23188.6 47901.1 23208 47878.9 23208 47812.4 23208 47734.9 23199.7 47665.6 23199.7 47571.4 23199.7 47468.9 23208 47377.5 23208 47360.9 23208 47324.9 23208 47324.9 23155.4 47324.9 23124.9 47349.8 23122.2 47366.4 23122.2 47432.9 23119.4 47529.9 23097.2 47529.9 23014.1 47529.9 22983.7 47516 22961.5 47493.9 22922.7L46745.9 21618 46643.4 22992C46640.6 23047.4 46635.1 23119.4 46837.3 23122.2 46884.4 23122.2 46912.1 23122.2 46912.1 23177.6 46912.1 23205.3 46881.6 23208 46870.6 23208 46759.8 23208 46643.4 23199.7 46532.6 23199.7 46468.9 23199.7 46305.5 23208 46241.7 23208 46225.1 23208 46189.1 23208 46189.1 23152.6 46189.1 23122.2 46216.8 23122.2 46255.6 23122.2 46377.5 23122.2 46396.9 23105.5 46402.4 23052.9L46419 22839.6 45718.2 21618 45612.9 23022.4C45612.9 23055.7 45612.9 23119.4 45823.4 23122.2 45851.1 23122.2 45881.6 23122.2 45881.6 23177.6 45881.6 23208 45848.4 23208 45842.8 23208 45732 23208 45615.7 23199.7 45502.1 23199.7 45405.1 23199.7 45305.4 23208 45211.2 23208 45197.4 23208 45161.4 23208 45161.4 23155.4 45161.4 23122.2 45186.3 23122.2 45230.6 23122.2 45369.1 23122.2 45371.9 23097.2 45377.4 23019.7L45502.1 21327.1C45504.9 21277.2 45507.6 21255.1 45546.4 21255.1 45579.7 21255.1 45588 21271.7 45612.9 21313.2L46427.3 22726 46529.8 21327.1C46535.4 21268.9 46540.9 21255.1 46574.2 21255.1 46610.2 21255.1 46626.8 21282.8 46640.6 21307.7L47549.3 22886.7"/>
<path transform="matrix(.00359712,0,0,-.00359712,0,85)" d="M48906.6 22759.1H49499.9C49525.1 22759.1 49571.6 22759.1 49571.6 22805.7 49571.6 22854.1 49527 22854.1 49499.9 22854.1H48906.6V23449.3C48906.6 23474.5 48906.6 23521.1 48860.1 23521.1 48811.6 23521.1 48811.6 23476.5 48811.6 23449.3V22854.1H48216.4C48191.2 22854.1 48144.7 22854.1 48144.7 22807.6 48144.7 22759.1 48189.3 22759.1 48216.4 22759.1H48811.6V22164C48811.6 22138.8 48811.6 22092.2 48858.2 22092.2 48906.6 22092.2 48906.6 22136.8 48906.6 22164V22759.1"/>
<path transform="matrix(.00359712,0,0,-.00359712,0,85)" d="M48111.6 21430.8C48113.5 21438.5 48115.5 21450.1 48115.5 21459.8 48115.5 21461.8 48115.5 21487 48084.5 21487 48082.5 21487 47972 21477.3 47958.5 21477.3 47921.6 21473.4 47886.7 21471.5 47849.9 21467.6 47818.9 21465.6 47795.6 21463.7 47795.6 21423 47795.6 21395.8 47822.8 21395.8 47846 21395.8 47939.1 21395.8 47939.1 21384.2 47939.1 21366.8 47939.1 21355.1 47929.4 21316.4 47921.6 21291.2L47824.7 20899.5C47776.2 20705.7 47766.5 20666.9 47766.5 20659.1 47766.5 20632 47795.6 20632 47803.4 20632H47834.4C48006.9 20659.1 48253.1 20750.3 48460.6 20934.4 48724.3 21169 48763 21421 48763 21424.9 48763 21459.8 48735.9 21487 48697.1 21487 48629.3 21487 48615.7 21432.7 48598.2 21378.4 48520.7 21103.1 48260.9 20806.5 47931.3 20709.5L48111.6 21430.8"/>
<path transform="matrix(.00359712,0,0,-.00359712,0,85)" stroke-width="110.783" stroke-linecap="butt" stroke-dasharray="830.895,830.895" stroke-miterlimit="10" stroke-linejoin="miter" fill="none" stroke="#000000" d="M48785.9 3953.18 53339.3 11839.7"/>
<path transform="matrix(.00359712,0,0,-.00359712,0,85)" d="M51574.4 8782.93 49999.7 7574.54 51315.3 6814.95"/>
<path transform="matrix(.00359712,0,0,-.00359712,0,85)" stroke-width="110.783" stroke-linecap="butt" stroke-miterlimit="10" stroke-linejoin="miter" fill="none" stroke="#000000" d="M53339.3 11839.7H53490.3L53641.3 12012.8 53792.3 12139.6 53943.3 12185.9 54094.3 12139.6 54245.3 12012.8 54396.3 11839.7 54547.3 11666.6 54698.3 11539.9 54849.3 11493.5 55000.3 11539.9 55151.3 11666.6 55302.3 11839.7 55453.3 12012.8 55604.3 12139.6 55755.3 12185.9 55906.3 12139.6 56057.3 12012.8 56208.3 11839.7 56359.3 11666.6 56510.3 11539.9 56661.3 11493.5 56812.3 11539.9 56963.3 11666.6 57114.3 11839.7 57265.3 12012.8 57416.3 12139.6 57567.3 12185.9 57718.3 12139.6 57869.3 12012.8 58020.3 11839.7 58171.3 11666.6 58322.3 11539.9 58473.3 11493.5 58624.3 11539.9 58775.3 11666.6 58926.3 11839.7 59077.3 12012.8 59228.3 12139.6 59379.3 12185.9 59530.3 12139.6 59681.3 12012.8 59832.3 11839.7 59983.3 11666.6 60134.3 11539.9 60285.3 11493.5 60436.3 11539.9 60587.3 11666.6 60738.3 11839.7 60889.3 12012.8 61040.3 12139.6 61191.3 12185.9 61342.3 12139.6 61493.3 12012.8 61644.3 11839.7 61795.3 11666.6 61946.3 11539.9 62097.3 11493.5 62400.2 11839.7"/>
<path transform="matrix(.00359712,0,0,-.00359712,0,85)" stroke-width="110.783" stroke-linecap="butt" stroke-miterlimit="10" stroke-linejoin="miter" fill="none" stroke="#000000" d="M53339.3 11839.7 53264.2 11969.8 53039.2 12013.4 52854.3 12080.2 52739 12187.1 52704.1 12340.4 52738.7 12533.8 52813.5 12750.5 52888.3 12967.2 52922.9 13160.6 52887.9 13313.9 52772.6 13420.9 52587.8 13487.6 52362.8 13531.2 52137.7 13574.7 51952.9 13641.5 51837.6 13748.4 51802.6 13901.7 51837.2 14095.2 51912 14311.8 51986.8 14528.5 52021.4 14721.9 51986.5 14875.2 51871.2 14982.2 51686.3 15048.9 51461.3 15092.5 51236.3 15136 51051.4 15202.8 50936.1 15309.7 50901.2 15463 50935.8 15656.5 51010.6 15873.1 51085.4 16089.8 51120 16283.3 51085 16436.6 50969.8 16543.5 50784.9 16610.2 50559.9 16653.8 50334.8 16697.3 50150 16764.1 50034.7 16871 49999.7 17024.3 50034.4 17217.8 50109.2 17434.4 50183.9 17651.1 50218.6 17844.6 50183.6 17997.9 50068.3 18104.8 49883.5 18171.5 49658.4 18215.1 49433.4 18258.7 49248.5 18325.4 49133.3 18432.3 49098.3 18585.6 49132.9 18779.1 49207.7 18995.8 49282.5 19212.4 49317.1 19405.9 49282.2 19559.2 48828.1 19653.2"/>
<path transform="matrix(.00359712,0,0,-.00359712,0,85)" d="M56858.3 14388.7C56927.5 14510.6 56994 14610.3 57168.5 14624.2 57193.5 14626.9 57221.2 14626.9 57221.2 14679.6 57221.2 14690.6 57210.1 14710 57187.9 14710 57121.4 14710 57043.9 14701.7 56974.6 14701.7 56880.4 14701.7 56777.9 14710 56686.5 14710 56669.9 14710 56633.9 14710 56633.9 14657.4 56633.9 14626.9 56658.8 14624.2 56675.4 14624.2 56741.9 14621.4 56838.9 14599.2 56838.9 14516.1 56838.9 14485.7 56825 14463.5 56802.9 14424.7L56054.9 13120 55952.4 14494C55949.6 14549.4 55944.1 14621.4 56146.3 14624.2 56193.4 14624.2 56221.1 14624.2 56221.1 14679.6 56221.1 14707.3 56190.6 14710 56179.6 14710 56068.8 14710 55952.4 14701.7 55841.6 14701.7 55777.9 14701.7 55614.5 14710 55550.7 14710 55534.1 14710 55498.1 14710 55498.1 14654.6 55498.1 14624.2 55525.8 14624.2 55564.6 14624.2 55686.5 14624.2 55705.9 14607.5 55711.4 14554.9L55728 14341.6 55027.2 13120 54921.9 14524.4C54921.9 14557.7 54921.9 14621.4 55132.4 14624.2 55160.1 14624.2 55190.6 14624.2 55190.6 14679.6 55190.6 14710 55157.4 14710 55151.8 14710 55041 14710 54924.7 14701.7 54811.1 14701.7 54714.1 14701.7 54614.4 14710 54520.2 14710 54506.4 14710 54470.4 14710 54470.4 14657.4 54470.4 14624.2 54495.3 14624.2 54539.6 14624.2 54678.1 14624.2 54680.9 14599.2 54686.4 14521.7L54811.1 12829.1C54813.9 12779.2 54816.6 12757.1 54855.4 12757.1 54888.7 12757.1 54897 12773.7 54921.9 12815.2L55736.3 14228 55838.8 12829.1C55844.4 12770.9 55849.9 12757.1 55883.2 12757.1 55919.2 12757.1 55935.8 12784.8 55949.6 12809.7L56858.3 14388.7"/>
<path transform="matrix(.00359712,0,0,-.00359712,0,85)" d="M58760.4 14261.1C58791.4 14261.1 58837.9 14261.1 58837.9 14307.7 58837.9 14356.1 58793.3 14356.1 58760.4 14356.1H57604.9C57573.9 14356.1 57527.4 14356.1 57527.4 14309.6 57527.4 14261.1 57572 14261.1 57604.9 14261.1H58760.4"/>
<path transform="matrix(.00359712,0,0,-.00359712,0,85)" d="M55528.6 10512C55528.6 10517.6 55536.9 10548 55536.9 10550.8 55536.9 10553.6 55536.9 10578.5 55503.6 10578.5 55475.9 10578.5 55473.2 10570.2 55462.1 10523.1L55301.4 9883.19C54861 9869.34 54453.7 9500.91 54453.7 9124.16 54453.7 8861 54647.7 8642.16 54985.6 8622.75 54963.5 8536.88 54944.1 8448.23 54921.9 8362.36 54888.7 8232.16 54861 8126.89 54861 8118.58 54861 8090.88 54880.3 8088.11 54894.2 8088.11 54908 8088.11 54913.6 8090.88 54921.9 8099.19 54927.4 8104.73 54944.1 8171.22 54952.4 8210L55057.6 8622.75C55503.6 8636.61 55905.3 9010.58 55905.3 9381.8 55905.3 9600.64 55758.5 9855.48 55373.4 9883.19L55528.6 10512ZM54999.5 8683.7C54833.3 8692.02 54633.8 8788.97 54633.8 9065.98 54633.8 9398.41 54872 9786.23 55284.8 9822.25L54999.5 8683.7ZM55356.8 9822.25C55567.4 9811.17 55725.3 9683.73 55725.3 9439.97 55725.3 9113.08 55487 8716.94 55071.5 8683.7L55356.8 9822.25"/>
<path transform="matrix(.00359712,0,0,-.00359712,0,85)" d="M57410.4 10099.1C57441.4 10099.1 57487.9 10099.1 57487.9 10145.7 57487.9 10194.1 57443.3 10194.1 57410.4 10194.1H56254.9C56223.9 10194.1 56177.4 10194.1 56177.4 10147.6 56177.4 10099.1 56222 10099.1 56254.9 10099.1H57410.4"/>
<path transform="matrix(.00359712,0,0,-.00359712,0,85)" d="M70536.1 12089.8C70577.7 12089.8 70630.3 12089.8 70630.3 12145.3 70630.3 12200.7 70577.7 12200.7 70538.9 12200.7H68879.5C68840.8 12200.7 68788.1 12200.7 68788.1 12145.3 68788.1 12089.8 68840.8 12089.8 68882.3 12089.8H70536.1ZM70538.9 11552.4C70577.7 11552.4 70630.3 11552.4 70630.3 11607.8 70630.3 11663.3 70577.7 11663.3 70536.1 11663.3H68882.3C68840.8 11663.3 68788.1 11663.3 68788.1 11607.8 68788.1 11552.4 68840.8 11552.4 68879.5 11552.4H70538.9"/>
<path transform="matrix(.00359712,0,0,-.00359712,0,85)" d="M72075 11823.9C72155.4 11823.9 72360.4 11829.5 72498.9 11887.6 72692.8 11970.7 72706.6 12134.2 72706.6 12173 72706.6 12294.8 72601.4 12408.4 72410.2 12408.4 72102.7 12408.4 71684.4 12139.7 71684.4 11654.9 71684.4 11372.4 71847.9 11153.5 72119.3 11153.5 72515.5 11153.5 72748.2 11447.2 72748.2 11480.4 72748.2 11497 72731.6 11516.4 72714.9 11516.4 72701.1 11516.4 72695.5 11510.9 72678.9 11488.7 72460.1 11214.5 72158.1 11214.5 72124.9 11214.5 71908.8 11214.5 71883.9 11447.2 71883.9 11535.8 71883.9 11569.1 71886.7 11654.9 71928.2 11823.9H72075ZM71944.8 11884.9C72052.9 12305.9 72338.2 12347.5 72410.2 12347.5 72540.4 12347.5 72615.2 12267.1 72615.2 12173 72615.2 11884.9 72172 11884.9 72058.4 11884.9H71944.8"/>
<path transform="matrix(.00359712,0,0,-.00359712,0,85)" d="M73088.8 11347.4C73080.5 11305.9 73063.8 11242.2 73063.8 11228.3 73063.8 11178.5 73102.6 11153.5 73144.2 11153.5 73177.4 11153.5 73227.3 11175.7 73246.7 11231.1 73249.5 11236.6 73282.7 11366.8 73299.3 11436.1L73360.3 11685.4C73376.9 11746.3 73393.5 11807.3 73407.3 11871 73418.4 11918.1 73440.6 11998.4 73443.4 12009.5 73484.9 12095.4 73631.7 12347.5 73894.9 12347.5 74019.6 12347.5 74044.5 12245 74044.5 12153.6 74044.5 12084.3 74025.1 12006.8 74002.9 11923.6L73925.4 11602.3 73870 11391.8C73858.9 11336.4 73834 11242.2 73834 11228.3 73834 11178.5 73872.7 11153.5 73914.3 11153.5 74000.2 11153.5 74016.8 11222.8 74039 11311.4 74077.7 11466.6 74180.2 11871 74205.2 11979 74213.5 12015.1 74360.3 12347.5 74662.3 12347.5 74781.4 12347.5 74811.8 12253.3 74811.8 12153.6 74811.8 11995.7 74695.5 11679.9 74640.1 11533 74615.2 11466.6 74604.1 11436.1 74604.1 11380.7 74604.1 11250.5 74701 11153.5 74831.2 11153.5 75091.6 11153.5 75194.1 11558 75194.1 11580.1 75194.1 11607.8 75169.2 11607.8 75160.9 11607.8 75133.2 11607.8 75133.2 11599.5 75119.3 11558 75077.8 11411.2 74989.1 11214.5 74836.8 11214.5 74789.7 11214.5 74770.3 11242.2 74770.3 11305.9 74770.3 11375.1 74795.2 11441.6 74820.1 11502.6 74872.8 11646.6 74989.1 11954.1 74989.1 12112 74989.1 12292.1 74878.3 12408.4 74670.5 12408.4 74462.8 12408.4 74321.5 12286.5 74219 12139.7 74216.3 12175.7 74207.9 12269.9 74130.4 12336.4 74061.1 12394.6 73972.5 12408.4 73903.2 12408.4 73653.9 12408.4 73518.2 12231.1 73471.1 12167.4 73457.2 12325.3 73340.9 12408.4 73216.2 12408.4 73088.8 12408.4 73036.1 12300.4 73011.2 12250.5 72961.3 12153.6 72925.3 11990.1 72925.3 11981.8 72925.3 11954.1 72953 11954.1 72958.6 11954.1 72986.3 11954.1 72989 11956.9 73005.7 12017.8 73052.8 12214.5 73108.2 12347.5 73207.9 12347.5 73252.2 12347.5 73293.8 12325.3 73293.8 12220 73293.8 12161.9 73285.5 12131.4 73249.5 11987.4L73088.8 11347.4"/>
<path transform="matrix(.00359712,0,0,-.00359712,0,85)" d="M77286.5 11863.4 77321.4 11913.8C77362.1 11966.1 77408.6 12014.6 77503.6 12022.3 77525 12024.3 77548.2 12026.2 77548.2 12065 77548.2 12078.6 77536.6 12092.1 77521.1 12092.1 77476.5 12092.1 77420.3 12084.4 77373.7 12084.4 77305.9 12084.4 77222.5 12092.1 77158.5 12092.1 77148.8 12092.1 77117.8 12092.1 77117.8 12049.5 77117.8 12024.3 77145 12022.3 77152.7 12022.3 77195.4 12020.4 77259.4 12008.8 77259.4 11954.5 77259.4 11933.2 77238 11898.3 77230.3 11884.7L76683.6 10987.1 76576.9 11966.1C76576.9 12020.4 76689.4 12022.3 76712.6 12022.3 76737.8 12022.3 76765 12022.3 76765 12065 76765 12066.9 76763 12092.1 76732 12092.1 76695.2 12092.1 76648.7 12088.3 76611.8 12086.3 76573 12084.4 76522.6 12084.4 76483.9 12084.4 76439.3 12084.4 76324.9 12092.1 76280.3 12092.1 76270.6 12092.1 76241.5 12092.1 76241.5 12049.5 76241.5 12022.3 76266.7 12022.3 76291.9 12022.3 76375.3 12022.3 76385 12008.8 76390.8 11989.4 76392.8 11977.8 76396.6 11923.5 76404.4 11863.4L75871.3 10987.1 75768.5 11937C75768.5 11944.8 75764.6 11964.2 75764.6 11966.1 75764.6 12022.3 75884.8 12022.3 75900.3 12022.3 75925.5 12022.3 75952.7 12022.3 75952.7 12065 75952.7 12072.8 75946.9 12092.1 75921.7 12092.1 75865.4 12092.1 75727.8 12084.4 75671.6 12084.4 75607.6 12084.4 75526.2 12092.1 75468 12092.1 75448.6 12092.1 75429.2 12084.4 75429.2 12051.4 75429.2 12022.3 75452.5 12022.3 75483.5 12022.3 75574.6 12022.3 75574.6 12010.7 75580.4 11962.2L75710.3 10781.6C75714.2 10742.8 75716.1 10729.2 75751 10729.2 75784 10729.2 75797.6 10746.7 75809.2 10768L76414.1 11764.5 76520.7 10779.6C76524.6 10738.9 76534.3 10729.2 76563.4 10729.2 76596.3 10729.2 76608 10746.7 76621.5 10769.9L77286.5 11863.4"/>
<path transform="matrix(.00359712,0,0,-.00359712,0,85)" d="M79102.8 12228.4C79105.5 12245 79111.1 12258.8 79111.1 12278.2 79111.1 12325.3 79077.8 12353 79030.7 12353 79003 12353 78928.2 12333.6 78917.2 12233.9 78867.3 12336.4 78770.3 12408.4 78659.5 12408.4 78343.7 12408.4 78000.2 12020.6 78000.2 11621.7 78000.2 11347.4 78169.2 11184 78368.7 11184 78532.1 11184 78662.3 11314.2 78690 11344.7L78692.8 11341.9C78634.6 11095.4 78601.4 10981.8 78601.4 10976.2 78590.3 10951.3 78496.1 10677.1 78202.5 10677.1 78149.8 10677.1 78058.4 10679.8 77980.8 10704.8 78063.9 10729.7 78094.4 10801.7 78094.4 10848.8 78094.4 10893.1 78063.9 10945.8 77989.1 10945.8 77928.2 10945.8 77839.5 10895.9 77839.5 10785.1 77839.5 10671.5 77942 10616.1 78208 10616.1 78554.3 10616.1 78753.7 10832.2 78795.3 10998.4L79102.8 12228.4ZM78742.6 11538.6C78726 11466.6 78662.3 11397.3 78601.4 11344.7 78543.2 11294.8 78457.3 11244.9 78377 11244.9 78238.5 11244.9 78196.9 11389 78196.9 11499.8 78196.9 11632.8 78277.3 11959.7 78352 12100.9 78426.8 12236.7 78546 12347.5 78662.3 12347.5 78845.1 12347.5 78883.9 12123.1 78883.9 12109.3 78883.9 12095.4 78878.4 12078.8 78875.6 12067.7L78742.6 11538.6"/>
<path transform="matrix(.00359712,0,0,-.00359712,0,85)" d="M79322.7 12014.9C79314.9 11985.8 79314.9 11976.1 79314.9 11974.2 79314.9 11931.5 79349.8 11912.1 79380.8 11912.1 79450.6 11912.1 79466.2 11976.1 79473.9 12009 79477.8 12018.8 79516.6 12173.8 79563.1 12363.8 79623.2 12323.1 79700.7 12307.6 79770.5 12307.6 79937.3 12307.6 80045.8 12443.3 80049.7 12447.2 80086.5 12313.4 80220.3 12307.6 80249.4 12307.6 80319.2 12307.6 80367.7 12350.3 80402.5 12410.4 80445.2 12486 80470.4 12596.5 80470.4 12604.2 80470.4 12629.4 80445.2 12629.4 80439.4 12629.4 80412.2 12629.4 80410.3 12621.7 80396.7 12569.3 80373.5 12476.3 80336.6 12361.9 80255.2 12361.9 80204.8 12361.9 80191.2 12404.5 80191.2 12456.9 80191.2 12489.8 80206.7 12559.6 80220.3 12610 80233.9 12662.4 80253.3 12741.9 80263 12784.5L80307.5 12957.1C80319.2 13005.5 80340.5 13090.8 80340.5 13100.5 80340.5 13139.3 80309.5 13162.6 80276.5 13162.6 80255.2 13162.6 80218.4 13152.9 80197 13116 80191.2 13104.4 80175.7 13042.4 80166 13003.6L80125.3 12842.7 80065.2 12600.4C80051.6 12551.9 80051.6 12548 80034.2 12522.8 79974.1 12437.5 79888.8 12361.9 79778.3 12361.9 79619.3 12361.9 79619.3 12499.5 79619.3 12534.4 79619.3 12584.8 79625.1 12610 79652.3 12714.7 79671.7 12800 79675.5 12813.6 79694.9 12889.2L79722.1 12997.8C79731.8 13038.5 79751.1 13112.2 79751.1 13119.9 79751.1 13154.8 79724 13182 79685.2 13182 79615.4 13182 79598 13114.1 79592.2 13090.8L79322.7 12014.9"/>
<path transform="matrix(.00359712,0,0,-.00359712,0,85)" d="M81050.6 13125.8C81052.5 13133.5 81054.5 13145.1 81054.5 13154.8 81054.5 13156.8 81054.5 13182 81023.5 13182 81021.5 13182 80911 13172.3 80897.5 13172.3 80860.6 13168.4 80825.7 13166.5 80788.9 13162.6 80757.9 13160.6 80734.6 13158.7 80734.6 13118 80734.6 13090.8 80761.8 13090.8 80785 13090.8 80878.1 13090.8 80878.1 13079.2 80878.1 13061.8 80878.1 13050.1 80868.4 13011.4 80860.6 12986.2L80763.7 12594.5C80715.2 12400.7 80705.5 12361.9 80705.5 12354.1 80705.5 12327 80734.6 12327 80742.4 12327H80773.4C80945.9 12354.1 81192.1 12445.3 81399.6 12629.4 81663.3 12864 81702 13116 81702 13119.9 81702 13154.8 81674.9 13182 81636.1 13182 81568.3 13182 81554.7 13127.7 81537.2 13073.4 81459.7 12798.1 81199.9 12501.5 80870.3 12404.5L81050.6 13125.8"/>
<path transform="matrix(.00359712,0,0,-.00359712,0,85)" d="M82474.9 11330.8C82474.9 11411.2 82408.4 11477.6 82328.1 11477.6 82247.7 11477.6 82181.2 11411.2 82181.2 11330.8 82181.2 11250.5 82247.7 11184 82328.1 11184 82408.4 11184 82474.9 11250.5 82474.9 11330.8"/>
</svg>
