<svg xmlns="http://www.w3.org/2000/svg" xmlns:xlink="http://www.w3.org/1999/xlink" version="1.1" width="443pt" height="83pt" viewBox="0 0 443 83">
<path transform="matrix(.00359712,0,0,-.00359712,0,83)" d="M1701.05 2050.03C1701.05 2052.81 1701.05 2080.52 1665.03 2080.52 1601.31 2080.52 1399.09 2058.34 1327.06 2052.81 1304.91 2050.03 1274.44 2047.27 1274.44 1997.41 1274.44 1964.16 1299.36 1964.16 1340.92 1964.16 1473.89 1964.16 1479.42 1944.77 1479.42 1917.06L1471.13 1861.67 1069.44 266.031C1058.36 227.25 1058.36 221.719 1058.36 205.094 1058.36 141.375 1113.77 127.531 1138.7 127.531 1183.02 127.531 1227.34 160.766 1241.19 199.547L1293.83 410.094 1354.77 659.406C1371.39 720.344 1388.02 781.297 1401.86 845 1407.41 861.625 1429.56 953.047 1432.33 969.672 1440.64 994.594 1526.52 1149.73 1620.7 1224.52 1681.66 1268.84 1767.53 1321.48 1886.64 1321.48 2005.77 1321.48 2036.23 1227.3 2036.23 1127.56 2036.23 977.969 1930.97 676.031 1864.48 507.047 1842.33 443.328 1828.47 410.094 1828.47 354.688 1828.47 224.484 1925.42 127.531 2055.63 127.531 2316.03 127.531 2418.52 531.969 2418.52 554.141 2418.52 581.844 2393.59 581.844 2385.28 581.844 2357.58 581.844 2357.58 573.531 2343.73 531.969 2302.17 385.156 2213.53 188.469 2061.17 188.469 2014.08 188.469 1994.69 216.172 1994.69 279.891 1994.69 349.141 2019.61 415.625 2044.55 476.578 2088.88 595.688 2213.53 925.344 2213.53 1086.02 2213.53 1266.08 2102.72 1382.42 1894.95 1382.42 1720.44 1382.42 1587.47 1296.55 1484.97 1169.13L1701.05 2050.03"/>
<path transform="matrix(.00359712,0,0,-.00359712,0,83)" d="M19539.3 12355.7C19608.5 12477.6 19675 12577.3 19849.5 12591.2 19874.5 12593.9 19902.2 12593.9 19902.2 12646.6 19902.2 12657.6 19891.1 12677 19868.9 12677 19802.4 12677 19724.9 12668.7 19655.6 12668.7 19561.4 12668.7 19458.9 12677 19367.5 12677 19350.9 12677 19314.9 12677 19314.9 12624.4 19314.9 12593.9 19339.8 12591.2 19356.4 12591.2 19422.9 12588.4 19519.9 12566.2 19519.9 12483.1 19519.9 12452.7 19506 12430.5 19483.9 12391.7L18735.9 11087 18633.4 12461C18630.6 12516.4 18625.1 12588.4 18827.3 12591.2 18874.4 12591.2 18902.1 12591.2 18902.1 12646.6 18902.1 12674.3 18871.6 12677 18860.6 12677 18749.8 12677 18633.4 12668.7 18522.6 12668.7 18458.9 12668.7 18295.5 12677 18231.7 12677 18215.1 12677 18179.1 12677 18179.1 12621.6 18179.1 12591.2 18206.8 12591.2 18245.6 12591.2 18367.5 12591.2 18386.9 12574.5 18392.4 12521.9L18409 12308.6 17708.2 11087 17602.9 12491.4C17602.9 12524.7 17602.9 12588.4 17813.4 12591.2 17841.1 12591.2 17871.6 12591.2 17871.6 12646.6 17871.6 12677 17838.4 12677 17832.8 12677 17722 12677 17605.7 12668.7 17492.1 12668.7 17395.1 12668.7 17295.4 12677 17201.2 12677 17187.4 12677 17151.4 12677 17151.4 12624.4 17151.4 12591.2 17176.3 12591.2 17220.6 12591.2 17359.1 12591.2 17361.9 12566.2 17367.4 12488.7L17492.1 10796.1C17494.9 10746.2 17497.6 10724.1 17536.4 10724.1 17569.7 10724.1 17578 10740.7 17602.9 10782.2L18417.3 12195 18519.8 10796.1C18525.4 10737.9 18530.9 10724.1 18564.2 10724.1 18600.2 10724.1 18616.8 10751.8 18630.6 10776.7L19539.3 12355.7"/>
<path transform="matrix(.00359712,0,0,-.00359712,0,83)" d="M21442.4 12228.1C21473.4 12228.1 21519.9 12228.1 21519.9 12274.7 21519.9 12323.1 21475.3 12323.1 21442.4 12323.1H20286.9C20255.9 12323.1 20209.4 12323.1 20209.4 12276.6 20209.4 12228.1 20254 12228.1 20286.9 12228.1H21442.4"/>
<path transform="matrix(.00359712,0,0,-.00359712,0,83)" d="M19719.7 9787.88C19711.9 9758.78 19711.9 9749.09 19711.9 9747.16 19711.9 9704.5 19746.8 9685.13 19777.8 9685.13 19847.6 9685.13 19863.2 9749.09 19870.9 9782.05 19874.8 9791.75 19913.6 9946.84 19960.1 10136.8 20020.2 10096.1 20097.7 10080.6 20167.5 10080.6 20334.3 10080.6 20442.8 10216.3 20446.7 10220.2 20483.5 10086.4 20617.3 10080.6 20646.4 10080.6 20716.2 10080.6 20764.7 10123.3 20799.5 10183.4 20842.2 10259 20867.4 10369.5 20867.4 10377.2 20867.4 10402.4 20842.2 10402.4 20836.4 10402.4 20809.2 10402.4 20807.3 10394.7 20793.7 10342.3 20770.5 10249.3 20733.6 10134.9 20652.2 10134.9 20601.8 10134.9 20588.2 10177.5 20588.2 10229.9 20588.2 10262.8 20603.7 10332.6 20617.3 10383 20630.9 10435.4 20650.3 10514.9 20660 10557.5L20704.5 10730.1C20716.2 10778.5 20737.5 10863.8 20737.5 10873.5 20737.5 10912.3 20706.5 10935.6 20673.5 10935.6 20652.2 10935.6 20615.4 10925.9 20594 10889 20588.2 10877.4 20572.7 10815.4 20563 10776.6L20522.3 10615.7 20462.2 10373.4C20448.6 10324.9 20448.6 10321 20431.2 10295.8 20371.1 10210.5 20285.8 10134.9 20175.3 10134.9 20016.3 10134.9 20016.3 10272.5 20016.3 10307.4 20016.3 10357.8 20022.1 10383 20049.3 10487.7 20068.7 10573 20072.5 10586.6 20091.9 10662.2L20119.1 10770.8C20128.8 10811.5 20148.1 10885.2 20148.1 10892.9 20148.1 10927.8 20121 10955 20082.2 10955 20012.4 10955 19995 10887.1 19989.2 10863.8L19719.7 9787.88"/>
<path transform="matrix(.00359712,0,0,-.00359712,0,83)" d="M1154.58 22616C1154.58 22621.6 1162.88 22652 1162.88 22654.8 1162.88 22657.6 1162.88 22682.5 1129.64 22682.5 1101.94 22682.5 1099.17 22674.2 1088.09 22627.1L927.422 21987.2C486.953 21973.3 79.7344 21604.9 79.7344 21228.2 79.7344 20965 273.656 20746.2 611.609 20726.8 589.453 20640.9 570.063 20552.2 547.906 20466.4 514.656 20336.2 486.953 20230.9 486.953 20222.6 486.953 20194.9 506.344 20192.1 520.203 20192.1 534.047 20192.1 539.594 20194.9 547.906 20203.2 553.438 20208.7 570.063 20275.2 578.375 20314L683.641 20726.8C1129.64 20740.6 1531.31 21114.6 1531.31 21485.8 1531.31 21704.6 1384.5 21959.5 999.438 21987.2L1154.58 22616ZM625.469 20787.7C459.25 20796 259.797 20893 259.797 21170 259.797 21502.4 498.031 21890.2 910.797 21926.3L625.469 20787.7ZM982.828 21926.3C1193.36 21915.2 1351.25 21787.7 1351.25 21544 1351.25 21217.1 1113.02 20820.9 697.484 20787.7L982.828 21926.3"/>
<path transform="matrix(.00359712,0,0,-.00359712,0,83)" d="M3036.39 22203.1C3067.41 22203.1 3113.94 22203.1 3113.94 22249.7 3113.94 22298.1 3069.34 22298.1 3036.39 22298.1H1880.92C1849.91 22298.1 1803.38 22298.1 1803.38 22251.6 1803.38 22203.1 1847.97 22203.1 1880.92 22203.1H3036.39"/>
<path transform="matrix(.00359712,0,0,-.00359712,0,83)" stroke-width="110.783" stroke-linecap="butt" stroke-miterlimit="10" stroke-linejoin="miter" fill="none" stroke="#000000" d="M5589.52 3122.52 8516.85 8192.73"/>
<path transform="matrix(.00359712,0,0,-.00359712,0,83)" d="M8863.84 8793.74 8043.48 8121.02 8530.69 8216.71 8691.44 7746.93Z"/>
<path transform="matrix(.00359712,0,0,-.00359712,0,83)" stroke-width="110.78" stroke-linecap="butt" stroke-miterlimit="10" stroke-linejoin="miter" fill="none" stroke="#000000" d="M8863.84 8793.74 8043.48 8121.02 8530.69 8216.71 8691.44 7746.93Z"/>
<path transform="matrix(.00359712,0,0,-.00359712,0,83)" d="M8984.05 5072.03C8984.05 5074.81 8984.05 5102.52 8948.03 5102.52 8884.31 5102.52 8682.09 5080.34 8610.06 5074.81 8587.91 5072.03 8557.44 5069.27 8557.44 5019.41 8557.44 4986.16 8582.36 4986.16 8623.92 4986.16 8756.89 4986.16 8762.42 4966.77 8762.42 4939.06L8754.13 4883.67 8352.44 3288.03C8341.36 3249.25 8341.36 3243.72 8341.36 3227.09 8341.36 3163.38 8396.77 3149.53 8421.7 3149.53 8457.7 3149.53 8499.27 3174.45 8515.88 3207.7 8529.73 3232.64 8654.39 3745.13 8671.02 3814.38 8765.2 3806.06 8992.36 3761.73 8992.36 3578.91 8992.36 3559.52 8992.36 3548.44 8984.05 3520.73 8978.5 3487.48 8972.97 3454.25 8972.97 3423.78 8972.97 3260.33 9083.77 3149.53 9227.83 3149.53 9310.92 3149.53 9385.72 3193.84 9446.67 3296.34 9515.92 3418.23 9546.39 3570.59 9546.39 3576.14 9546.39 3603.84 9521.45 3603.84 9513.16 3603.84 9485.45 3603.84 9482.67 3592.77 9474.36 3553.97 9418.97 3351.75 9355.25 3210.47 9233.36 3210.47 9180.73 3210.47 9144.72 3240.94 9144.72 3340.67 9144.72 3387.77 9155.8 3451.48 9166.88 3495.8 9177.95 3542.89 9177.95 3553.97 9177.95 3581.67 9177.95 3761.73 9003.44 3842.08 8767.97 3872.55 8853.84 3922.41 8942.48 4011.06 9006.2 4077.55 9139.17 4224.36 9266.61 4343.48 9402.34 4343.48 9418.97 4343.48 9421.73 4343.48 9427.28 4340.7 9460.52 4335.17 9463.28 4335.17 9485.45 4318.55 9490.98 4315.78 9490.98 4313 9496.53 4307.47 9363.56 4299.16 9338.63 4191.13 9338.63 4157.88 9338.63 4113.55 9369.09 4060.92 9443.89 4060.92 9515.92 4060.92 9596.25 4121.86 9596.25 4229.91 9596.25 4313 9532.55 4404.42 9407.88 4404.42 9330.31 4404.42 9202.89 4382.27 9003.44 4160.64 8909.25 4055.38 8801.22 3944.58 8695.94 3903.02L8984.05 5072.03"/>
<path transform="matrix(.00359712,0,0,-.00359712,0,83)" stroke-width="110.783" stroke-linecap="butt" stroke-dasharray="830.895,830.895" stroke-miterlimit="10" stroke-linejoin="miter" fill="none" stroke="#000000" d="M2823.66 3060.07 7613.86 11356.9"/>
<path transform="matrix(.00359712,0,0,-.00359712,0,83)" stroke-width="110.783" stroke-linecap="butt" stroke-miterlimit="10" stroke-linejoin="miter" fill="none" stroke="#000000" d="M5790.82 19242.5 8552.36 14459.5"/>
<path transform="matrix(.00359712,0,0,-.00359712,0,83)" d="M8899.36 13858.5 8726.95 14905.3 8566.2 14435.5 8078.98 14531.2Z"/>
<path transform="matrix(.00359712,0,0,-.00359712,0,83)" stroke-width="110.782" stroke-linecap="butt" stroke-miterlimit="10" stroke-linejoin="miter" fill="none" stroke="#000000" d="M8899.36 13858.5 8726.95 14905.3 8566.2 14435.5 8078.98 14531.2Z"/>
<path transform="matrix(.00359712,0,0,-.00359712,0,83)" d="M8432.66 17606C8410.5 17511.8 8404.95 17492.5 8283.06 17492.5 8249.83 17492.5 8219.36 17492.5 8219.36 17439.8 8219.36 17417.7 8233.2 17406.6 8255.36 17406.6 8330.16 17406.6 8410.5 17414.9 8488.06 17414.9 8579.48 17414.9 8673.67 17406.6 8762.31 17406.6 8776.16 17406.6 8812.17 17406.6 8812.17 17462 8812.17 17492.5 8784.47 17492.5 8745.69 17492.5 8607.19 17492.5 8607.19 17511.8 8607.19 17536.8 8607.19 17570 8723.53 18021.6 8742.92 18090.8 8778.94 18010.5 8856.5 17913.5 8997.78 17913.5 9319.13 17913.5 9665.39 18318 9665.39 18725.2 9665.39 18985.6 9507.48 19168.4 9296.95 19168.4 9158.45 19168.4 9025.48 19068.7 8934.06 18960.7 8906.36 19110.3 8787.25 19168.4 8684.75 19168.4 8557.31 19168.4 8504.69 19060.4 8479.75 19010.5 8429.89 18916.3 8393.88 18750.1 8393.88 18741.8 8393.88 18714.1 8421.58 18714.1 8427.13 18714.1 8454.81 18714.1 8457.59 18716.9 8474.22 18777.8 8521.3 18974.5 8576.7 19107.5 8676.44 19107.5 8723.53 19107.5 8762.31 19085.3 8762.31 18980 8762.31 18916.3 8754 18885.9 8742.92 18838.8L8432.66 17606ZM8920.22 18808.3C8939.61 18883.1 9014.39 18960.7 9064.27 19002.2 9161.22 19088.1 9241.55 19107.5 9288.64 19107.5 9399.45 19107.5 9465.94 19010.5 9465.94 18847.1 9465.94 18683.6 9374.52 18365.1 9324.66 18259.8 9230.47 18065.9 9097.5 17974.5 8995 17974.5 8812.17 17974.5 8776.16 18204.4 8776.16 18221 8776.16 18226.6 8776.16 18232.1 8784.47 18265.3L8920.22 18808.3"/>
<path transform="matrix(.00359712,0,0,-.00359712,0,83)" stroke-width="110.783" stroke-linecap="butt" stroke-dasharray="830.895,830.895" stroke-miterlimit="10" stroke-linejoin="miter" fill="none" stroke="#000000" d="M7613.86 11356.9 3060.49 19243.4"/>
<path transform="matrix(.00359712,0,0,-.00359712,0,83)" d="M4825.36 16186.6 5084.51 14218.6 6400.13 14978.2"/>
<path transform="matrix(.00359712,0,0,-.00359712,0,83)" stroke-width="110.783" stroke-linecap="butt" stroke-miterlimit="10" stroke-linejoin="miter" fill="none" stroke="#000000" d="M7613.86 11356.9H7753.96L7894.06 11530 8034.15 11656.7 8174.25 11703.1 8314.34 11656.7 8454.45 11530 8594.54 11356.9 8734.64 11183.8 8874.73 11057 9014.83 11010.6 9154.93 11057 9295.02 11183.8 9435.12 11356.9 9575.22 11530 9715.31 11656.7 9855.41 11703.1 9995.51 11656.7 10135.6 11530 10275.7 11356.9 10415.8 11183.8 10555.9 11057 10696 11010.6 10836.1 11057 10976.2 11183.8 11116.3 11356.9 11256.4 11530 11396.5 11656.7 11536.6 11703.1 11676.7 11656.7 11816.8 11530 11956.9 11356.9 12097 11183.8 12237.1 11057 12377.2 11010.6 12517.3 11057 12657.3 11183.8 12797.4 11356.9 12937.5 11530 13077.6 11656.7 13217.7 11703.1 13357.8 11656.7 13497.9 11530 13638 11356.9 13778.1 11183.8 13918.2 11057 14058.3 11010.6 14198.4 11057 14338.5 11183.8 14478.6 11356.9 14618.7 11530 14758.8 11656.7 14898.9 11703.1 15039 11656.7 15179.1 11530 15319.2 11356.9 15459.3 11183.8 15599.4 11057 15739.5 11010.6 16021 11356.9"/>
<path transform="matrix(.00359712,0,0,-.00359712,0,83)" d="M4356.58 12379C4356.58 12384.6 4364.88 12415 4364.88 12417.8 4364.88 12420.6 4364.88 12445.5 4331.64 12445.5 4303.94 12445.5 4301.17 12437.2 4290.09 12390.1L4129.42 11750.2C3688.95 11736.3 3281.73 11367.9 3281.73 10991.2 3281.73 10728 3475.66 10509.2 3813.61 10489.8 3791.45 10403.9 3772.06 10315.2 3749.91 10229.4 3716.66 10099.2 3688.95 9993.89 3688.95 9985.58 3688.95 9957.88 3708.34 9955.11 3722.2 9955.11 3736.05 9955.11 3741.59 9957.88 3749.91 9966.19 3755.44 9971.73 3772.06 10038.2 3780.38 10077L3885.64 10489.8C4331.64 10503.6 4733.31 10877.6 4733.31 11248.8 4733.31 11467.6 4586.5 11722.5 4201.44 11750.2L4356.58 12379ZM3827.47 10550.7C3661.25 10559 3461.8 10656 3461.8 10933 3461.8 11265.4 3700.03 11653.2 4112.8 11689.3L3827.47 10550.7ZM4184.83 11689.3C4395.36 11678.2 4553.25 11550.7 4553.25 11307 4553.25 10980.1 4315.02 10583.9 3899.48 10550.7L4184.83 11689.3"/>
<path transform="matrix(.00359712,0,0,-.00359712,0,83)" d="M5694.63 11966.1H6287.86C6313.06 11966.1 6359.59 11966.1 6359.59 12012.7 6359.59 12061.1 6315 12061.1 6287.86 12061.1H5694.63V12656.3C5694.63 12681.5 5694.63 12728.1 5648.09 12728.1 5599.63 12728.1 5599.63 12683.5 5599.63 12656.3V12061.1H5004.44C4979.23 12061.1 4932.7 12061.1 4932.7 12014.6 4932.7 11966.1 4977.3 11966.1 5004.44 11966.1H5599.63V11371C5599.63 11345.8 5599.63 11299.2 5646.16 11299.2 5694.63 11299.2 5694.63 11343.8 5694.63 11371V11966.1"/>
<path transform="matrix(.00359712,0,0,-.00359712,0,83)" d="M11132.3 13905.7C11201.5 14027.6 11268 14127.3 11442.5 14141.2 11467.5 14143.9 11495.2 14143.9 11495.2 14196.6 11495.2 14207.6 11484.1 14227 11461.9 14227 11395.4 14227 11317.9 14218.7 11248.6 14218.7 11154.4 14218.7 11051.9 14227 10960.5 14227 10943.9 14227 10907.9 14227 10907.9 14174.4 10907.9 14143.9 10932.8 14141.2 10949.4 14141.2 11015.9 14138.4 11112.9 14116.2 11112.9 14033.1 11112.9 14002.7 11099 13980.5 11076.9 13941.7L10328.9 12637 10226.4 14011C10223.6 14066.4 10218.1 14138.4 10420.3 14141.2 10467.4 14141.2 10495.1 14141.2 10495.1 14196.6 10495.1 14224.3 10464.6 14227 10453.6 14227 10342.8 14227 10226.4 14218.7 10115.6 14218.7 10051.9 14218.7 9888.45 14227 9824.73 14227 9808.11 14227 9772.09 14227 9772.09 14171.6 9772.09 14141.2 9799.8 14141.2 9838.58 14141.2 9960.47 14141.2 9979.86 14124.5 9985.41 14071.9L10002 13858.6 9301.17 12637 9195.91 14041.4C9195.91 14074.7 9195.91 14138.4 9406.44 14141.2 9434.14 14141.2 9464.61 14141.2 9464.61 14196.6 9464.61 14227 9431.36 14227 9425.83 14227 9315.02 14227 9198.67 14218.7 9085.09 14218.7 8988.14 14218.7 8888.41 14227 8794.22 14227 8780.38 14227 8744.36 14227 8744.36 14174.4 8744.36 14141.2 8769.3 14141.2 8813.61 14141.2 8952.13 14141.2 8954.89 14116.2 8960.44 14038.7L9085.09 12346.1C9087.86 12296.2 9090.64 12274.1 9129.42 12274.1 9162.66 12274.1 9170.97 12290.7 9195.91 12332.2L10010.3 13745 10112.8 12346.1C10118.4 12287.9 10123.9 12274.1 10157.2 12274.1 10193.2 12274.1 10209.8 12301.8 10223.6 12326.7L11132.3 13905.7"/>
<path transform="matrix(.00359712,0,0,-.00359712,0,83)" d="M12490.6 13778.1H13083.9C13109.1 13778.1 13155.6 13778.1 13155.6 13824.7 13155.6 13873.1 13111 13873.1 13083.9 13873.1H12490.6V14468.3C12490.6 14493.5 12490.6 14540.1 12444.1 14540.1 12395.6 14540.1 12395.6 14495.5 12395.6 14468.3V13873.1H11800.4C11775.2 13873.1 11728.7 13873.1 11728.7 13826.6 11728.7 13778.1 11773.3 13778.1 11800.4 13778.1H12395.6V13183C12395.6 13157.8 12395.6 13111.2 12442.2 13111.2 12490.6 13111.2 12490.6 13155.8 12490.6 13183V13778.1"/>
<path transform="matrix(.00359712,0,0,-.00359712,0,83)" d="M25465.1 11775.8C25506.7 11775.8 25559.3 11775.8 25559.3 11831.3 25559.3 11886.7 25506.7 11886.7 25467.9 11886.7H23808.5C23769.8 11886.7 23717.1 11886.7 23717.1 11831.3 23717.1 11775.8 23769.8 11775.8 23811.3 11775.8H25465.1ZM25467.9 11238.4C25506.7 11238.4 25559.3 11238.4 25559.3 11293.8 25559.3 11349.3 25506.7 11349.3 25465.1 11349.3H23811.3C23769.8 11349.3 23717.1 11349.3 23717.1 11293.8 23717.1 11238.4 23769.8 11238.4 23808.5 11238.4H25467.9"/>
<path transform="matrix(.00359712,0,0,-.00359712,0,83)" d="M27271.7 12601.4C27271.7 12656.8 27233 12701.1 27169.2 12701.1 27094.4 12701.1 27019.6 12629.1 27019.6 12554.3 27019.6 12501.6 27058.4 12454.5 27124.9 12454.5 27188.6 12454.5 27271.7 12518.3 27271.7 12601.4ZM27061.2 11559.8C27094.4 11640.1 27094.4 11645.7 27122.1 11720.5 27144.3 11775.8 27158.2 11814.6 27158.2 11867.3 27158.2 11991.9 27069.5 12094.4 26931 12094.4 26670.6 12094.4 26565.3 11692.8 26565.3 11667.8 26565.3 11640.1 26593 11640.1 26598.6 11640.1 26626.3 11640.1 26629 11645.7 26642.9 11690 26717.7 11950.4 26828.5 12033.5 26922.7 12033.5 26944.8 12033.5 26991.9 12033.5 26991.9 11944.8 26991.9 11886.7 26972.5 11828.5 26961.5 11800.8 26939.3 11728.8 26814.7 11407.4 26770.3 11288.3 26742.6 11216.3 26706.6 11124.9 26706.6 11066.7 26706.6 10936.5 26800.8 10839.5 26933.8 10839.5 27194.2 10839.5 27296.7 11241.2 27296.7 11266.1 27296.7 11293.8 27271.7 11293.8 27263.4 11293.8 27235.7 11293.8 27235.7 11285.5 27221.9 11244 27172 11069.5 27080.6 10900.5 26939.3 10900.5 26892.2 10900.5 26872.8 10928.2 26872.8 10991.9 26872.8 11061.1 26889.5 11099.9 26953.2 11268.9L27061.2 11559.8"/>
<path transform="matrix(.00359712,0,0,-.00359712,0,83)" d="M29076.8 13787.4C29079.5 13804 29085.1 13817.8 29085.1 13837.2 29085.1 13884.3 29051.8 13912 29004.7 13912 28977 13912 28902.2 13892.6 28891.2 13792.9 28841.3 13895.4 28744.3 13967.4 28633.5 13967.4 28317.7 13967.4 27974.2 13579.6 27974.2 13180.7 27974.2 12906.4 28143.2 12743 28342.7 12743 28506.1 12743 28636.3 12873.2 28664 12903.7L28666.8 12900.9C28608.6 12654.4 28575.4 12540.8 28575.4 12535.2 28564.3 12510.3 28470.1 12236.1 28176.5 12236.1 28123.8 12236.1 28032.4 12238.8 27954.8 12263.8 28037.9 12288.7 28068.4 12360.7 28068.4 12407.8 28068.4 12452.1 28037.9 12504.8 27963.1 12504.8 27902.2 12504.8 27813.5 12454.9 27813.5 12344.1 27813.5 12230.5 27916 12175.1 28182 12175.1 28528.3 12175.1 28727.7 12391.2 28769.3 12557.4L29076.8 13787.4ZM28716.6 13097.6C28700 13025.6 28636.3 12956.3 28575.4 12903.7 28517.2 12853.8 28431.3 12803.9 28351 12803.9 28212.5 12803.9 28170.9 12948 28170.9 13058.8 28170.9 13191.8 28251.3 13518.7 28326 13659.9 28400.8 13795.7 28520 13906.5 28636.3 13906.5 28819.1 13906.5 28857.9 13682.1 28857.9 13668.3 28857.9 13654.4 28852.4 13637.8 28849.6 13626.7L28716.6 13097.6"/>
<path transform="matrix(.00359712,0,0,-.00359712,0,83)" stroke-width="110.783" stroke-linecap="butt" stroke-miterlimit="10" stroke-linejoin="miter" fill="none" stroke="#000000" d="M27771.6 11561.7H29191.9"/>
<path transform="matrix(.00359712,0,0,-.00359712,0,83)" d="M28140.8 9183.3 28434.5 9468.64C28866.6 9850.92 29032.8 10000.5 29032.8 10277.5 29032.8 10593.3 28783.5 10814.9 28445.5 10814.9 28132.5 10814.9 27927.5 10560.1 27927.5 10313.5 27927.5 10158.4 28066 10158.4 28074.3 10158.4 28121.4 10158.4 28218.4 10191.7 28218.4 10305.2 28218.4 10377.3 28168.5 10449.3 28071.6 10449.3 28049.4 10449.3 28043.9 10449.3 28035.5 10446.5 28099.3 10626.6 28248.8 10729.1 28409.5 10729.1 28661.6 10729.1 28780.7 10504.7 28780.7 10277.5 28780.7 10055.9 28642.2 9837.06 28489.9 9665.31L27958 9072.5C27927.5 9042.03 27927.5 9036.48 27927.5 8970H28955.3L29032.8 9452.02H28963.6C28949.7 9368.91 28930.3 9247.02 28902.6 9205.47 28883.2 9183.3 28700.4 9183.3 28639.5 9183.3H28140.8"/>
<path transform="matrix(.00359712,0,0,-.00359712,0,83)" d="M30440.9 10205.2C30440.9 10213.5 30440.9 10219 30393.8 10266.1 30047.6 10615.1 29958.9 11138.7 29958.9 11562.5 29958.9 12044.6 30064.2 12526.6 30404.9 12872.8 30440.9 12906.1 30440.9 12911.6 30440.9 12919.9 30440.9 12939.3 30429.8 12947.6 30413.2 12947.6 30385.5 12947.6 30136.2 12759.3 29972.8 12407.5 29831.5 12102.7 29798.3 11795.3 29798.3 11562.5 29798.3 11346.5 29828.7 11011.3 29981.1 10698.3 30147.3 10357.5 30385.5 10177.5 30413.2 10177.5 30429.8 10177.5 30440.9 10185.8 30440.9 10205.2"/>
<path transform="matrix(.00359712,0,0,-.00359712,0,83)" d="M32426.5 11507.1C32473.6 11507.1 32523.5 11507.1 32523.5 11562.5 32523.5 11618 32473.6 11618 32426.5 11618H30927.9C30880.8 11618 30830.9 11618 30830.9 11562.5 30830.9 11507.1 30880.8 11507.1 30927.9 11507.1H32426.5"/>
<path transform="matrix(.00359712,0,0,-.00359712,0,83)" d="M33542.7 12601.4C33542.7 12656.8 33504 12701.1 33440.2 12701.1 33365.4 12701.1 33290.6 12629.1 33290.6 12554.3 33290.6 12501.6 33329.4 12454.5 33395.9 12454.5 33459.6 12454.5 33542.7 12518.3 33542.7 12601.4ZM33332.2 11559.8C33365.4 11640.1 33365.4 11645.7 33393.1 11720.5 33415.3 11775.8 33429.2 11814.6 33429.2 11867.3 33429.2 11991.9 33340.5 12094.4 33202 12094.4 32941.6 12094.4 32836.3 11692.8 32836.3 11667.8 32836.3 11640.1 32864 11640.1 32869.6 11640.1 32897.3 11640.1 32900 11645.7 32913.9 11690 32988.7 11950.4 33099.5 12033.5 33193.7 12033.5 33215.8 12033.5 33262.9 12033.5 33262.9 11944.8 33262.9 11886.7 33243.5 11828.5 33232.5 11800.8 33210.3 11728.8 33085.7 11407.4 33041.3 11288.3 33013.6 11216.3 32977.6 11124.9 32977.6 11066.7 32977.6 10936.5 33071.8 10839.5 33204.8 10839.5 33465.2 10839.5 33567.7 11241.2 33567.7 11266.1 33567.7 11293.8 33542.7 11293.8 33534.4 11293.8 33506.7 11293.8 33506.7 11285.5 33492.9 11244 33443 11069.5 33351.6 10900.5 33210.3 10900.5 33163.2 10900.5 33143.8 10928.2 33143.8 10991.9 33143.8 11061.1 33160.5 11099.9 33224.2 11268.9L33332.2 11559.8"/>
<path transform="matrix(.00359712,0,0,-.00359712,0,83)" d="M33832.7 10532C33810.5 10437.8 33805 10418.5 33683.1 10418.5 33649.8 10418.5 33619.4 10418.5 33619.4 10365.8 33619.4 10343.7 33633.2 10332.6 33655.4 10332.6 33730.2 10332.6 33810.5 10340.9 33888.1 10340.9 33979.5 10340.9 34073.7 10332.6 34162.3 10332.6 34176.2 10332.6 34212.2 10332.6 34212.2 10388 34212.2 10418.5 34184.5 10418.5 34145.7 10418.5 34007.2 10418.5 34007.2 10437.8 34007.2 10462.8 34007.2 10496 34123.5 10947.6 34142.9 11016.8 34178.9 10936.5 34256.5 10839.5 34397.8 10839.5 34719.1 10839.5 35065.4 11244 35065.4 11651.2 35065.4 11911.6 34907.5 12094.4 34697 12094.4 34558.5 12094.4 34425.5 11994.7 34334.1 11886.7 34306.4 12036.3 34187.3 12094.4 34084.8 12094.4 33957.3 12094.4 33904.7 11986.4 33879.8 11936.5 33829.9 11842.3 33793.9 11676.1 33793.9 11667.8 33793.9 11640.1 33821.6 11640.1 33827.1 11640.1 33854.8 11640.1 33857.6 11642.9 33874.2 11703.8 33921.3 11900.5 33976.7 12033.5 34076.4 12033.5 34123.5 12033.5 34162.3 12011.3 34162.3 11906 34162.3 11842.3 34154 11811.9 34142.9 11764.8L33832.7 10532ZM34320.2 11734.3C34339.6 11809.1 34414.4 11886.7 34464.3 11928.2 34561.2 12014.1 34641.5 12033.5 34688.6 12033.5 34799.5 12033.5 34865.9 11936.5 34865.9 11773.1 34865.9 11609.6 34774.5 11291.1 34724.7 11185.8 34630.5 10991.9 34497.5 10900.5 34395 10900.5 34212.2 10900.5 34176.2 11130.4 34176.2 11147 34176.2 11152.6 34176.2 11158.1 34184.5 11191.3L34320.2 11734.3"/>
<path transform="matrix(.00359712,0,0,-.00359712,0,83)" d="M35207.7 10141.9C35199.9 10112.8 35199.9 10103.1 35199.9 10101.2 35199.9 10058.5 35234.8 10039.1 35265.8 10039.1 35335.6 10039.1 35351.2 10103.1 35358.9 10136 35362.8 10145.8 35401.6 10300.8 35448.1 10490.8 35508.2 10450.1 35585.7 10434.6 35655.5 10434.6 35822.3 10434.6 35930.8 10570.3 35934.7 10574.2 35971.5 10440.4 36105.3 10434.6 36134.4 10434.6 36204.2 10434.6 36252.7 10477.3 36287.5 10537.4 36330.2 10613 36355.4 10723.5 36355.4 10731.2 36355.4 10756.4 36330.2 10756.4 36324.4 10756.4 36297.2 10756.4 36295.3 10748.7 36281.7 10696.3 36258.5 10603.3 36221.6 10488.9 36140.2 10488.9 36089.8 10488.9 36076.2 10531.5 36076.2 10583.9 36076.2 10616.8 36091.7 10686.6 36105.3 10737 36118.9 10789.4 36138.3 10868.9 36148 10911.5L36192.5 11084.1C36204.2 11132.5 36225.5 11217.8 36225.5 11227.5 36225.5 11266.3 36194.5 11289.6 36161.5 11289.6 36140.2 11289.6 36103.4 11279.9 36082 11243 36076.2 11231.4 36060.7 11169.4 36051 11130.6L36010.3 10969.7 35950.2 10727.4C35936.6 10678.9 35936.6 10675 35919.2 10649.8 35859.1 10564.5 35773.8 10488.9 35663.3 10488.9 35504.3 10488.9 35504.3 10626.5 35504.3 10661.4 35504.3 10711.8 35510.1 10737 35537.3 10841.7 35556.7 10927 35560.5 10940.6 35579.9 11016.2L35607.1 11124.8C35616.8 11165.5 35636.1 11239.2 35636.1 11246.9 35636.1 11281.8 35609 11309 35570.2 11309 35500.4 11309 35483 11241.1 35477.2 11217.8L35207.7 10141.9"/>
<path transform="matrix(.00359712,0,0,-.00359712,0,83)" d="M37749 11507.1H38521.9C38560.7 11507.1 38613.3 11507.1 38613.3 11562.5 38613.3 11618 38560.7 11618 38521.9 11618H37749V12393.6C37749 12432.4 37749 12485 37693.6 12485 37638.2 12485 37638.2 12432.4 37638.2 12393.6V11618H36862.5C36823.8 11618 36771.1 11618 36771.1 11562.5 36771.1 11507.1 36823.8 11507.1 36862.5 11507.1H37638.2V10731.5C37638.2 10692.7 37638.2 10640.1 37693.6 10640.1 37749 10640.1 37749 10692.7 37749 10731.5V11507.1"/>
<path transform="matrix(.00359712,0,0,-.00359712,0,83)" d="M39583.7 12601.4C39583.7 12656.8 39545 12701.1 39481.2 12701.1 39406.4 12701.1 39331.6 12629.1 39331.6 12554.3 39331.6 12501.6 39370.4 12454.5 39436.9 12454.5 39500.6 12454.5 39583.7 12518.3 39583.7 12601.4ZM39373.2 11559.8C39406.4 11640.1 39406.4 11645.7 39434.1 11720.5 39456.3 11775.8 39470.2 11814.6 39470.2 11867.3 39470.2 11991.9 39381.5 12094.4 39243 12094.4 38982.6 12094.4 38877.3 11692.8 38877.3 11667.8 38877.3 11640.1 38905 11640.1 38910.6 11640.1 38938.3 11640.1 38941 11645.7 38954.9 11690 39029.7 11950.4 39140.5 12033.5 39234.7 12033.5 39256.8 12033.5 39303.9 12033.5 39303.9 11944.8 39303.9 11886.7 39284.5 11828.5 39273.5 11800.8 39251.3 11728.8 39126.7 11407.4 39082.3 11288.3 39054.6 11216.3 39018.6 11124.9 39018.6 11066.7 39018.6 10936.5 39112.8 10839.5 39245.8 10839.5 39506.2 10839.5 39608.7 11241.2 39608.7 11266.1 39608.7 11293.8 39583.7 11293.8 39575.4 11293.8 39547.7 11293.8 39547.7 11285.5 39533.9 11244 39484 11069.5 39392.6 10900.5 39251.3 10900.5 39204.2 10900.5 39184.8 10928.2 39184.8 10991.9 39184.8 11061.1 39201.5 11099.9 39265.2 11268.9L39373.2 11559.8"/>
<path transform="matrix(.00359712,0,0,-.00359712,0,83)" d="M40545 12762C40545 12764.8 40545 12792.5 40509 12792.5 40445.3 12792.5 40243.1 12770.3 40171.1 12764.8 40148.9 12762 40118.4 12759.3 40118.4 12709.4 40118.4 12676.2 40143.4 12676.2 40184.9 12676.2 40317.9 12676.2 40323.4 12656.8 40323.4 12629.1L40315.1 12573.7 39913.4 10978C39902.4 10939.3 39902.4 10933.7 39902.4 10917.1 39902.4 10853.4 39957.8 10839.5 39982.7 10839.5 40018.7 10839.5 40060.3 10864.5 40076.9 10897.7 40090.7 10922.6 40215.4 11435.1 40232 11504.4 40326.2 11496.1 40553.4 11451.7 40553.4 11268.9 40553.4 11249.5 40553.4 11238.4 40545 11210.7 40539.5 11177.5 40534 11144.3 40534 11113.8 40534 10950.3 40644.8 10839.5 40788.8 10839.5 40871.9 10839.5 40946.7 10883.8 41007.7 10986.3 41076.9 11108.2 41107.4 11260.6 41107.4 11266.1 41107.4 11293.8 41082.5 11293.8 41074.2 11293.8 41046.5 11293.8 41043.7 11282.8 41035.4 11244 40980 11041.8 40916.3 10900.5 40794.4 10900.5 40741.7 10900.5 40705.7 10930.9 40705.7 11030.7 40705.7 11077.8 40716.8 11141.5 40727.9 11185.8 40739 11232.9 40739 11244 40739 11271.7 40739 11451.7 40564.4 11532.1 40329 11562.5 40414.8 11612.4 40503.5 11701.1 40567.2 11767.5 40700.2 11914.4 40827.6 12033.5 40963.3 12033.5 40980 12033.5 40982.7 12033.5 40988.3 12030.7 41021.5 12025.2 41024.3 12025.2 41046.5 12008.5 41052 12005.8 41052 12003 41057.5 11997.5 40924.6 11989.2 40899.6 11881.1 40899.6 11847.9 40899.6 11803.5 40930.1 11750.9 41004.9 11750.9 41076.9 11750.9 41157.3 11811.9 41157.3 11919.9 41157.3 12003 41093.5 12094.4 40968.9 12094.4 40891.3 12094.4 40763.9 12072.3 40564.4 11850.6 40470.3 11745.4 40362.2 11634.6 40256.9 11593L40545 12762"/>
<path transform="matrix(.00359712,0,0,-.00359712,0,83)" d="M41297.7 10141.9C41289.9 10112.8 41289.9 10103.1 41289.9 10101.2 41289.9 10058.5 41324.8 10039.1 41355.8 10039.1 41425.6 10039.1 41441.2 10103.1 41448.9 10136 41452.8 10145.8 41491.6 10300.8 41538.1 10490.8 41598.2 10450.1 41675.7 10434.6 41745.5 10434.6 41912.3 10434.6 42020.8 10570.3 42024.7 10574.2 42061.5 10440.4 42195.3 10434.6 42224.4 10434.6 42294.2 10434.6 42342.7 10477.3 42377.5 10537.4 42420.2 10613 42445.4 10723.5 42445.4 10731.2 42445.4 10756.4 42420.2 10756.4 42414.4 10756.4 42387.2 10756.4 42385.3 10748.7 42371.7 10696.3 42348.5 10603.3 42311.6 10488.9 42230.2 10488.9 42179.8 10488.9 42166.2 10531.5 42166.2 10583.9 42166.2 10616.8 42181.7 10686.6 42195.3 10737 42208.9 10789.4 42228.3 10868.9 42238 10911.5L42282.5 11084.1C42294.2 11132.5 42315.5 11217.8 42315.5 11227.5 42315.5 11266.3 42284.5 11289.6 42251.5 11289.6 42230.2 11289.6 42193.4 11279.9 42172 11243 42166.2 11231.4 42150.7 11169.4 42141 11130.6L42100.3 10969.7 42040.2 10727.4C42026.6 10678.9 42026.6 10675 42009.2 10649.8 41949.1 10564.5 41863.8 10488.9 41753.3 10488.9 41594.3 10488.9 41594.3 10626.5 41594.3 10661.4 41594.3 10711.8 41600.1 10737 41627.3 10841.7 41646.7 10927 41650.5 10940.6 41669.9 11016.2L41697.1 11124.8C41706.8 11165.5 41726.1 11239.2 41726.1 11246.9 41726.1 11281.8 41699 11309 41660.2 11309 41590.4 11309 41573 11241.1 41567.2 11217.8L41297.7 10141.9"/>
<path transform="matrix(.00359712,0,0,-.00359712,0,83)" d="M43478.6 11562.5C43478.6 11778.6 43448.1 12113.8 43295.8 12426.8 43129.5 12767.6 42891.3 12947.6 42863.6 12947.6 42847 12947.6 42835.9 12936.6 42835.9 12919.9 42835.9 12911.6 42835.9 12906.1 42888.5 12856.2 43160 12582 43317.9 12141.5 43317.9 11562.5 43317.9 11088.8 43215.4 10601.3 42871.9 10252.3 42835.9 10219 42835.9 10213.5 42835.9 10205.2 42835.9 10188.5 42847 10177.5 42863.6 10177.5 42891.3 10177.5 43140.6 10365.8 43304.1 10717.6 43445.3 11022.4 43478.6 11329.8 43478.6 11562.5"/>
<path transform="matrix(.00359712,0,0,-.00359712,0,83)" d="M46423.1 11775.8C46464.7 11775.8 46517.3 11775.8 46517.3 11831.3 46517.3 11886.7 46464.7 11886.7 46425.9 11886.7H44766.5C44727.8 11886.7 44675.1 11886.7 44675.1 11831.3 44675.1 11775.8 44727.8 11775.8 44769.3 11775.8H46423.1ZM46425.9 11238.4C46464.7 11238.4 46517.3 11238.4 46517.3 11293.8 46517.3 11349.3 46464.7 11349.3 46423.1 11349.3H44769.3C44727.8 11349.3 44675.1 11349.3 44675.1 11293.8 44675.1 11238.4 44727.8 11238.4 44766.5 11238.4H46425.9"/>
<path transform="matrix(.00359712,0,0,-.00359712,0,83)" d="M49084.8 13787.4C49087.5 13804 49093.1 13817.8 49093.1 13837.2 49093.1 13884.3 49059.8 13912 49012.7 13912 48985 13912 48910.2 13892.6 48899.2 13792.9 48849.3 13895.4 48752.3 13967.4 48641.5 13967.4 48325.7 13967.4 47982.2 13579.6 47982.2 13180.7 47982.2 12906.4 48151.2 12743 48350.7 12743 48514.1 12743 48644.3 12873.2 48672 12903.7L48674.8 12900.9C48616.6 12654.4 48583.4 12540.8 48583.4 12535.2 48572.3 12510.3 48478.1 12236.1 48184.5 12236.1 48131.8 12236.1 48040.4 12238.8 47962.8 12263.8 48045.9 12288.7 48076.4 12360.7 48076.4 12407.8 48076.4 12452.1 48045.9 12504.8 47971.1 12504.8 47910.2 12504.8 47821.5 12454.9 47821.5 12344.1 47821.5 12230.5 47924 12175.1 48190 12175.1 48536.3 12175.1 48735.7 12391.2 48777.3 12557.4L49084.8 13787.4ZM48724.6 13097.6C48708 13025.6 48644.3 12956.3 48583.4 12903.7 48525.2 12853.8 48439.3 12803.9 48359 12803.9 48220.5 12803.9 48178.9 12948 48178.9 13058.8 48178.9 13191.8 48259.3 13518.7 48334 13659.9 48408.8 13795.7 48528 13906.5 48644.3 13906.5 48827.1 13906.5 48865.9 13682.1 48865.9 13668.3 48865.9 13654.4 48860.4 13637.8 48857.6 13626.7L48724.6 13097.6"/>
<path transform="matrix(.00359712,0,0,-.00359712,0,83)" stroke-width="110.783" stroke-linecap="butt" stroke-miterlimit="10" stroke-linejoin="miter" fill="none" stroke="#000000" d="M47780.4 11561.7H49200.7"/>
<path transform="matrix(.00359712,0,0,-.00359712,0,83)" d="M48149.8 9183.3 48443.5 9468.64C48875.6 9850.92 49041.8 10000.5 49041.8 10277.5 49041.8 10593.3 48792.5 10814.9 48454.5 10814.9 48141.5 10814.9 47936.5 10560.1 47936.5 10313.5 47936.5 10158.4 48075 10158.4 48083.3 10158.4 48130.4 10158.4 48227.4 10191.7 48227.4 10305.2 48227.4 10377.3 48177.5 10449.3 48080.6 10449.3 48058.4 10449.3 48052.9 10449.3 48044.5 10446.5 48108.3 10626.6 48257.8 10729.1 48418.5 10729.1 48670.6 10729.1 48789.7 10504.7 48789.7 10277.5 48789.7 10055.9 48651.2 9837.06 48498.9 9665.31L47967 9072.5C47936.5 9042.03 47936.5 9036.48 47936.5 8970H48964.3L49041.8 9452.02H48972.6C48958.7 9368.91 48939.3 9247.02 48911.6 9205.47 48892.2 9183.3 48709.4 9183.3 48648.5 9183.3H48149.8"/>
<path transform="matrix(.00359712,0,0,-.00359712,0,83)" d="M50449.9 10205.2C50449.9 10213.5 50449.9 10219 50402.8 10266.1 50056.6 10615.1 49967.9 11138.7 49967.9 11562.5 49967.9 12044.6 50073.2 12526.6 50413.9 12872.8 50449.9 12906.1 50449.9 12911.6 50449.9 12919.9 50449.9 12939.3 50438.8 12947.6 50422.2 12947.6 50394.5 12947.6 50145.2 12759.3 49981.8 12407.5 49840.5 12102.7 49807.3 11795.3 49807.3 11562.5 49807.3 11346.5 49837.7 11011.3 49990.1 10698.3 50156.3 10357.5 50394.5 10177.5 50422.2 10177.5 50438.8 10177.5 50449.9 10185.8 50449.9 10205.2"/>
<path transform="matrix(.00359712,0,0,-.00359712,0,83)" d="M50734.7 10532C50712.5 10437.8 50707 10418.5 50585.1 10418.5 50551.8 10418.5 50521.4 10418.5 50521.4 10365.8 50521.4 10343.7 50535.2 10332.6 50557.4 10332.6 50632.2 10332.6 50712.5 10340.9 50790.1 10340.9 50881.5 10340.9 50975.7 10332.6 51064.3 10332.6 51078.2 10332.6 51114.2 10332.6 51114.2 10388 51114.2 10418.5 51086.5 10418.5 51047.7 10418.5 50909.2 10418.5 50909.2 10437.8 50909.2 10462.8 50909.2 10496 51025.5 10947.6 51044.9 11016.8 51080.9 10936.5 51158.5 10839.5 51299.8 10839.5 51621.1 10839.5 51967.4 11244 51967.4 11651.2 51967.4 11911.6 51809.5 12094.4 51599 12094.4 51460.5 12094.4 51327.5 11994.7 51236.1 11886.7 51208.4 12036.3 51089.3 12094.4 50986.8 12094.4 50859.3 12094.4 50806.7 11986.4 50781.8 11936.5 50731.9 11842.3 50695.9 11676.1 50695.9 11667.8 50695.9 11640.1 50723.6 11640.1 50729.1 11640.1 50756.8 11640.1 50759.6 11642.9 50776.2 11703.8 50823.3 11900.5 50878.7 12033.5 50978.4 12033.5 51025.5 12033.5 51064.3 12011.3 51064.3 11906 51064.3 11842.3 51056 11811.9 51044.9 11764.8L50734.7 10532ZM51222.2 11734.3C51241.6 11809.1 51316.4 11886.7 51366.3 11928.2 51463.2 12014.1 51543.5 12033.5 51590.6 12033.5 51701.5 12033.5 51767.9 11936.5 51767.9 11773.1 51767.9 11609.6 51676.5 11291.1 51626.7 11185.8 51532.5 10991.9 51399.5 10900.5 51297 10900.5 51114.2 10900.5 51078.2 11130.4 51078.2 11147 51078.2 11152.6 51078.2 11158.1 51086.5 11191.3L51222.2 11734.3"/>
<path transform="matrix(.00359712,0,0,-.00359712,0,83)" d="M53856.5 11507.1C53903.6 11507.1 53953.5 11507.1 53953.5 11562.5 53953.5 11618 53903.6 11618 53856.5 11618H52357.9C52310.8 11618 52260.9 11618 52260.9 11562.5 52260.9 11507.1 52310.8 11507.1 52357.9 11507.1H53856.5"/>
<path transform="matrix(.00359712,0,0,-.00359712,0,83)" d="M55007 12762C55007 12764.8 55007 12792.5 54971 12792.5 54907.3 12792.5 54705.1 12770.3 54633.1 12764.8 54610.9 12762 54580.4 12759.3 54580.4 12709.4 54580.4 12676.2 54605.4 12676.2 54646.9 12676.2 54779.9 12676.2 54785.4 12656.8 54785.4 12629.1L54777.1 12573.7 54375.4 10978C54364.4 10939.3 54364.4 10933.7 54364.4 10917.1 54364.4 10853.4 54419.8 10839.5 54444.7 10839.5 54480.7 10839.5 54522.3 10864.5 54538.9 10897.7 54552.7 10922.6 54677.4 11435.1 54694 11504.4 54788.2 11496.1 55015.4 11451.7 55015.4 11268.9 55015.4 11249.5 55015.4 11238.4 55007 11210.7 55001.5 11177.5 54996 11144.3 54996 11113.8 54996 10950.3 55106.8 10839.5 55250.8 10839.5 55333.9 10839.5 55408.7 10883.8 55469.7 10986.3 55538.9 11108.2 55569.4 11260.6 55569.4 11266.1 55569.4 11293.8 55544.5 11293.8 55536.2 11293.8 55508.5 11293.8 55505.7 11282.8 55497.4 11244 55442 11041.8 55378.3 10900.5 55256.4 10900.5 55203.7 10900.5 55167.7 10930.9 55167.7 11030.7 55167.7 11077.8 55178.8 11141.5 55189.9 11185.8 55201 11232.9 55201 11244 55201 11271.7 55201 11451.7 55026.4 11532.1 54791 11562.5 54876.8 11612.4 54965.5 11701.1 55029.2 11767.5 55162.2 11914.4 55289.6 12033.5 55425.3 12033.5 55442 12033.5 55444.7 12033.5 55450.3 12030.7 55483.5 12025.2 55486.3 12025.2 55508.5 12008.5 55514 12005.8 55514 12003 55519.5 11997.5 55386.6 11989.2 55361.6 11881.1 55361.6 11847.9 55361.6 11803.5 55392.1 11750.9 55466.9 11750.9 55538.9 11750.9 55619.3 11811.9 55619.3 11919.9 55619.3 12003 55555.5 12094.4 55430.9 12094.4 55353.3 12094.4 55225.9 12072.3 55026.4 11850.6 54932.3 11745.4 54824.2 11634.6 54718.9 11593L55007 12762"/>
<path transform="matrix(.00359712,0,0,-.00359712,0,83)" d="M56541.6 11562.5C56541.6 11778.6 56511.1 12113.8 56358.8 12426.8 56192.5 12767.6 55954.3 12947.6 55926.6 12947.6 55910 12947.6 55898.9 12936.6 55898.9 12919.9 55898.9 12911.6 55898.9 12906.1 55951.5 12856.2 56223 12582 56380.9 12141.5 56380.9 11562.5 56380.9 11088.8 56278.4 10601.3 55934.9 10252.3 55898.9 10219 55898.9 10213.5 55898.9 10205.2 55898.9 10188.5 55910 10177.5 55926.6 10177.5 55954.3 10177.5 56203.6 10365.8 56367.1 10717.6 56508.3 11022.4 56541.6 11329.8 56541.6 11562.5"/>
<path transform="matrix(.00359712,0,0,-.00359712,0,83)" d="M56922.7 10141.9C56914.9 10112.8 56914.9 10103.1 56914.9 10101.2 56914.9 10058.5 56949.8 10039.1 56980.8 10039.1 57050.6 10039.1 57066.2 10103.1 57073.9 10136 57077.8 10145.8 57116.6 10300.8 57163.1 10490.8 57223.2 10450.1 57300.7 10434.6 57370.5 10434.6 57537.3 10434.6 57645.8 10570.3 57649.7 10574.2 57686.5 10440.4 57820.3 10434.6 57849.4 10434.6 57919.2 10434.6 57967.7 10477.3 58002.5 10537.4 58045.2 10613 58070.4 10723.5 58070.4 10731.2 58070.4 10756.4 58045.2 10756.4 58039.4 10756.4 58012.2 10756.4 58010.3 10748.7 57996.7 10696.3 57973.5 10603.3 57936.6 10488.9 57855.2 10488.9 57804.8 10488.9 57791.2 10531.5 57791.2 10583.9 57791.2 10616.8 57806.7 10686.6 57820.3 10737 57833.9 10789.4 57853.3 10868.9 57863 10911.5L57907.5 11084.1C57919.2 11132.5 57940.5 11217.8 57940.5 11227.5 57940.5 11266.3 57909.5 11289.6 57876.5 11289.6 57855.2 11289.6 57818.4 11279.9 57797 11243 57791.2 11231.4 57775.7 11169.4 57766 11130.6L57725.3 10969.7 57665.2 10727.4C57651.6 10678.9 57651.6 10675 57634.2 10649.8 57574.1 10564.5 57488.8 10488.9 57378.3 10488.9 57219.3 10488.9 57219.3 10626.5 57219.3 10661.4 57219.3 10711.8 57225.1 10737 57252.3 10841.7 57271.7 10927 57275.5 10940.6 57294.9 11016.2L57322.1 11124.8C57331.8 11165.5 57351.1 11239.2 57351.1 11246.9 57351.1 11281.8 57324 11309 57285.2 11309 57215.4 11309 57198 11241.1 57192.2 11217.8L56922.7 10141.9"/>
<path transform="matrix(.00359712,0,0,-.00359712,0,83)" d="M58865.3 10872.8C58865.3 11055.6 58796.1 11163.6 58688.1 11163.6 58596.6 11163.6 58541.2 11094.4 58541.2 11016.8 58541.2 10942 58596.6 10870 58688.1 10870 58721.3 10870 58757.3 10881.1 58785 10906 58793.3 10911.5 58796.1 10914.3 58798.9 10914.3 58801.6 10914.3 58804.4 10911.5 58804.4 10872.8 58804.4 10667.8 58707.5 10501.6 58616 10410.2 58585.6 10379.7 58585.6 10374.1 58585.6 10365.8 58585.6 10346.4 58599.4 10335.4 58613.3 10335.4 58643.7 10335.4 58865.3 10548.7 58865.3 10872.8"/>
<path transform="matrix(.00359712,0,0,-.00359712,0,83)" d="M65892 2050.03C65892 2052.81 65892 2080.52 65856 2080.52 65792.3 2080.52 65590.1 2058.34 65518.1 2052.81 65495.9 2050.03 65465.4 2047.27 65465.4 1997.41 65465.4 1964.16 65490.4 1964.16 65531.9 1964.16 65664.9 1964.16 65670.4 1944.77 65670.4 1917.06L65662.1 1861.67 65260.4 266.031C65249.4 227.25 65249.4 221.719 65249.4 205.094 65249.4 141.375 65304.8 127.531 65329.7 127.531 65374 127.531 65418.3 160.766 65432.2 199.547L65484.8 410.094 65545.8 659.406C65562.4 720.344 65579 781.297 65592.9 845 65598.4 861.625 65620.6 953.047 65623.3 969.672 65631.6 994.594 65717.5 1149.73 65811.7 1224.52 65872.7 1268.84 65958.5 1321.48 66077.6 1321.48 66196.8 1321.48 66227.2 1227.3 66227.2 1127.56 66227.2 977.969 66122 676.031 66055.5 507.047 66033.3 443.328 66019.5 410.094 66019.5 354.688 66019.5 224.484 66116.4 127.531 66246.6 127.531 66507 127.531 66609.5 531.969 66609.5 554.141 66609.5 581.844 66584.6 581.844 66576.3 581.844 66548.6 581.844 66548.6 573.531 66534.7 531.969 66493.2 385.156 66404.5 188.469 66252.2 188.469 66205.1 188.469 66185.7 216.172 66185.7 279.891 66185.7 349.141 66210.6 415.625 66235.5 476.578 66279.9 595.688 66404.5 925.344 66404.5 1086.02 66404.5 1266.08 66293.7 1382.42 66086 1382.42 65911.4 1382.42 65778.5 1296.55 65676 1169.13L65892 2050.03"/>
<path transform="matrix(.00359712,0,0,-.00359712,0,83)" d="M83746.3 12355.7C83815.5 12477.6 83882 12577.3 84056.5 12591.2 84081.5 12593.9 84109.2 12593.9 84109.2 12646.6 84109.2 12657.6 84098.1 12677 84075.9 12677 84009.4 12677 83931.9 12668.7 83862.6 12668.7 83768.4 12668.7 83665.9 12677 83574.5 12677 83557.9 12677 83521.9 12677 83521.9 12624.4 83521.9 12593.9 83546.8 12591.2 83563.4 12591.2 83629.9 12588.4 83726.9 12566.2 83726.9 12483.1 83726.9 12452.7 83713 12430.5 83690.9 12391.7L82942.9 11087 82840.4 12461C82837.6 12516.4 82832.1 12588.4 83034.3 12591.2 83081.4 12591.2 83109.1 12591.2 83109.1 12646.6 83109.1 12674.3 83078.6 12677 83067.6 12677 82956.8 12677 82840.4 12668.7 82729.6 12668.7 82665.9 12668.7 82502.5 12677 82438.7 12677 82422.1 12677 82386.1 12677 82386.1 12621.6 82386.1 12591.2 82413.8 12591.2 82452.6 12591.2 82574.5 12591.2 82593.9 12574.5 82599.4 12521.9L82616 12308.6 81915.2 11087 81809.9 12491.4C81809.9 12524.7 81809.9 12588.4 82020.4 12591.2 82048.1 12591.2 82078.6 12591.2 82078.6 12646.6 82078.6 12677 82045.4 12677 82039.8 12677 81929 12677 81812.7 12668.7 81699.1 12668.7 81602.1 12668.7 81502.4 12677 81408.2 12677 81394.4 12677 81358.4 12677 81358.4 12624.4 81358.4 12591.2 81383.3 12591.2 81427.6 12591.2 81566.1 12591.2 81568.9 12566.2 81574.4 12488.7L81699.1 10796.1C81701.9 10746.2 81704.6 10724.1 81743.4 10724.1 81776.7 10724.1 81785 10740.7 81809.9 10782.2L82624.3 12195 82726.8 10796.1C82732.4 10737.9 82737.9 10724.1 82771.2 10724.1 82807.2 10724.1 82823.8 10751.8 82837.6 10776.7L83746.3 12355.7"/>
<path transform="matrix(.00359712,0,0,-.00359712,0,83)" d="M85103.6 12228.1H85696.9C85722.1 12228.1 85768.6 12228.1 85768.6 12274.7 85768.6 12323.1 85724 12323.1 85696.9 12323.1H85103.6V12918.3C85103.6 12943.5 85103.6 12990.1 85057.1 12990.1 85008.6 12990.1 85008.6 12945.5 85008.6 12918.3V12323.1H84413.4C84388.2 12323.1 84341.7 12323.1 84341.7 12276.6 84341.7 12228.1 84386.3 12228.1 84413.4 12228.1H85008.6V11633C85008.6 11607.8 85008.6 11561.2 85055.2 11561.2 85103.6 11561.2 85103.6 11605.8 85103.6 11633V12228.1"/>
<path transform="matrix(.00359712,0,0,-.00359712,0,83)" d="M83926.7 9787.88C83918.9 9758.78 83918.9 9749.09 83918.9 9747.16 83918.9 9704.5 83953.8 9685.13 83984.8 9685.13 84054.6 9685.13 84070.2 9749.09 84077.9 9782.05 84081.8 9791.75 84120.6 9946.84 84167.1 10136.8 84227.2 10096.1 84304.7 10080.6 84374.5 10080.6 84541.3 10080.6 84649.8 10216.3 84653.7 10220.2 84690.5 10086.4 84824.3 10080.6 84853.4 10080.6 84923.2 10080.6 84971.7 10123.3 85006.5 10183.4 85049.2 10259 85074.4 10369.5 85074.4 10377.2 85074.4 10402.4 85049.2 10402.4 85043.4 10402.4 85016.2 10402.4 85014.3 10394.7 85000.7 10342.3 84977.5 10249.3 84940.6 10134.9 84859.2 10134.9 84808.8 10134.9 84795.2 10177.5 84795.2 10229.9 84795.2 10262.8 84810.7 10332.6 84824.3 10383 84837.9 10435.4 84857.3 10514.9 84867 10557.5L84911.5 10730.1C84923.2 10778.5 84944.5 10863.8 84944.5 10873.5 84944.5 10912.3 84913.5 10935.6 84880.5 10935.6 84859.2 10935.6 84822.4 10925.9 84801 10889 84795.2 10877.4 84779.7 10815.4 84770 10776.6L84729.3 10615.7 84669.2 10373.4C84655.6 10324.9 84655.6 10321 84638.2 10295.8 84578.1 10210.5 84492.8 10134.9 84382.3 10134.9 84223.3 10134.9 84223.3 10272.5 84223.3 10307.4 84223.3 10357.8 84229.1 10383 84256.3 10487.7 84275.7 10573 84279.5 10586.6 84298.9 10662.2L84326.1 10770.8C84335.8 10811.5 84355.1 10885.2 84355.1 10892.9 84355.1 10927.8 84328 10955 84289.2 10955 84219.4 10955 84202 10887.1 84196.2 10863.8L83926.7 9787.88"/>
<path transform="matrix(.00359712,0,0,-.00359712,0,83)" d="M65360.6 22616C65360.6 22621.6 65368.9 22652 65368.9 22654.8 65368.9 22657.6 65368.9 22682.5 65335.6 22682.5 65307.9 22682.5 65305.2 22674.2 65294.1 22627.1L65133.4 21987.2C64693 21973.3 64285.7 21604.9 64285.7 21228.2 64285.7 20965 64479.7 20746.2 64817.6 20726.8 64795.5 20640.9 64776.1 20552.2 64753.9 20466.4 64720.7 20336.2 64693 20230.9 64693 20222.6 64693 20194.9 64712.3 20192.1 64726.2 20192.1 64740 20192.1 64745.6 20194.9 64753.9 20203.2 64759.4 20208.7 64776.1 20275.2 64784.4 20314L64889.6 20726.8C65335.6 20740.6 65737.3 21114.6 65737.3 21485.8 65737.3 21704.6 65590.5 21959.5 65205.4 21987.2L65360.6 22616ZM64831.5 20787.7C64665.3 20796 64465.8 20893 64465.8 21170 64465.8 21502.4 64704 21890.2 65116.8 21926.3L64831.5 20787.7ZM65188.8 21926.3C65399.4 21915.2 65557.3 21787.7 65557.3 21544 65557.3 21217.1 65319 20820.9 64903.5 20787.7L65188.8 21926.3"/>
<path transform="matrix(.00359712,0,0,-.00359712,0,83)" d="M66697.6 22203.1H67290.9C67316.1 22203.1 67362.6 22203.1 67362.6 22249.7 67362.6 22298.1 67318 22298.1 67290.9 22298.1H66697.6V22893.3C66697.6 22918.5 66697.6 22965.1 66651.1 22965.1 66602.6 22965.1 66602.6 22920.5 66602.6 22893.3V22298.1H66007.4C65982.2 22298.1 65935.7 22298.1 65935.7 22251.6 65935.7 22203.1 65980.3 22203.1 66007.4 22203.1H66602.6V21608C66602.6 21582.8 66602.6 21536.2 66649.2 21536.2 66697.6 21536.2 66697.6 21580.8 66697.6 21608V22203.1"/>
<path transform="matrix(.00359712,0,0,-.00359712,0,83)" stroke-width="110.783" stroke-linecap="butt" stroke-miterlimit="10" stroke-linejoin="miter" fill="none" stroke="#000000" d="M69780.5 3122.52 72707.9 8192.73"/>
<path transform="matrix(.00359712,0,0,-.00359712,0,83)" d="M73054.9 8793.74 72234.5 8121.02 72721.7 8216.71 72882.5 7746.93Z"/>
<path transform="matrix(.00359712,0,0,-.00359712,0,83)" stroke-width="110.78" stroke-linecap="butt" stroke-miterlimit="10" stroke-linejoin="miter" fill="none" stroke="#000000" d="M73054.9 8793.74 72234.5 8121.02 72721.7 8216.71 72882.5 7746.93Z"/>
<path transform="matrix(.00359712,0,0,-.00359712,0,83)" d="M73175 5072.03C73175 5074.81 73175 5102.52 73139 5102.52 73075.3 5102.52 72873.1 5080.34 72801.1 5074.81 72778.9 5072.03 72748.4 5069.27 72748.4 5019.41 72748.4 4986.16 72773.4 4986.16 72814.9 4986.16 72947.9 4986.16 72953.4 4966.77 72953.4 4939.06L72945.1 4883.67 72543.4 3288.03C72532.4 3249.25 72532.4 3243.72 72532.4 3227.09 72532.4 3163.38 72587.8 3149.53 72612.7 3149.53 72648.7 3149.53 72690.3 3174.45 72706.9 3207.7 72720.7 3232.64 72845.4 3745.13 72862 3814.38 72956.2 3806.06 73183.4 3761.73 73183.4 3578.91 73183.4 3559.52 73183.4 3548.44 73175 3520.73 73169.5 3487.48 73164 3454.25 73164 3423.78 73164 3260.33 73274.8 3149.53 73418.8 3149.53 73501.9 3149.53 73576.7 3193.84 73637.7 3296.34 73706.9 3418.23 73737.4 3570.59 73737.4 3576.14 73737.4 3603.84 73712.5 3603.84 73704.2 3603.84 73676.5 3603.84 73673.7 3592.77 73665.4 3553.97 73610 3351.75 73546.3 3210.47 73424.4 3210.47 73371.7 3210.47 73335.7 3240.94 73335.7 3340.67 73335.7 3387.77 73346.8 3451.48 73357.9 3495.8 73369 3542.89 73369 3553.97 73369 3581.67 73369 3761.73 73194.4 3842.08 72959 3872.55 73044.8 3922.41 73133.5 4011.06 73197.2 4077.55 73330.2 4224.36 73457.6 4343.48 73593.3 4343.48 73610 4343.48 73612.7 4343.48 73618.3 4340.7 73651.5 4335.17 73654.3 4335.17 73676.5 4318.55 73682 4315.78 73682 4313 73687.5 4307.47 73554.6 4299.16 73529.6 4191.13 73529.6 4157.88 73529.6 4113.55 73560.1 4060.92 73634.9 4060.92 73706.9 4060.92 73787.3 4121.86 73787.3 4229.91 73787.3 4313 73723.5 4404.42 73598.9 4404.42 73521.3 4404.42 73393.9 4382.27 73194.4 4160.64 73100.3 4055.38 72992.2 3944.58 72886.9 3903.02L73175 5072.03"/>
<path transform="matrix(.00359712,0,0,-.00359712,0,83)" stroke-width="110.783" stroke-linecap="butt" stroke-dasharray="830.895,830.895" stroke-miterlimit="10" stroke-linejoin="miter" fill="none" stroke="#000000" d="M67014.7 3060.07 71804.9 11356.9"/>
<path transform="matrix(.00359712,0,0,-.00359712,0,83)" stroke-width="110.783" stroke-linecap="butt" stroke-dasharray="830.895,830.895" stroke-miterlimit="10" stroke-linejoin="miter" fill="none" stroke="#000000" d="M71804.9 11356.9 67251.5 19243.4"/>
<path transform="matrix(.00359712,0,0,-.00359712,0,83)" d="M70434.9 13729.8 70175.7 15697.8 68860.1 14938.2"/>
<path transform="matrix(.00359712,0,0,-.00359712,0,83)" d="M70631.7 16479C70609.5 16384.8 70604 16365.5 70482.1 16365.5 70448.8 16365.5 70418.4 16365.5 70418.4 16312.8 70418.4 16290.7 70432.2 16279.6 70454.4 16279.6 70529.2 16279.6 70609.5 16287.9 70687.1 16287.9 70778.5 16287.9 70872.7 16279.6 70961.3 16279.6 70975.2 16279.6 71011.2 16279.6 71011.2 16335 71011.2 16365.5 70983.5 16365.5 70944.7 16365.5 70806.2 16365.5 70806.2 16384.8 70806.2 16409.8 70806.2 16443 70922.5 16894.6 70941.9 16963.8 70977.9 16883.5 71055.5 16786.5 71196.8 16786.5 71518.1 16786.5 71864.4 17191 71864.4 17598.2 71864.4 17858.6 71706.5 18041.4 71496 18041.4 71357.5 18041.4 71224.5 17941.7 71133.1 17833.7 71105.4 17983.3 70986.3 18041.4 70883.8 18041.4 70756.3 18041.4 70703.7 17933.4 70678.8 17883.5 70628.9 17789.3 70592.9 17623.1 70592.9 17614.8 70592.9 17587.1 70620.6 17587.1 70626.1 17587.1 70653.8 17587.1 70656.6 17589.9 70673.2 17650.8 70720.3 17847.5 70775.7 17980.5 70875.4 17980.5 70922.5 17980.5 70961.3 17958.3 70961.3 17853 70961.3 17789.3 70953 17758.9 70941.9 17711.8L70631.7 16479ZM71119.2 17681.3C71138.6 17756.1 71213.4 17833.7 71263.3 17875.2 71360.2 17961.1 71440.5 17980.5 71487.6 17980.5 71598.5 17980.5 71664.9 17883.5 71664.9 17720.1 71664.9 17556.6 71573.5 17238.1 71523.7 17132.8 71429.5 16938.9 71296.5 16847.5 71194 16847.5 71011.2 16847.5 70975.2 17077.4 70975.2 17094 70975.2 17099.6 70975.2 17105.1 70983.5 17138.3L71119.2 17681.3"/>
<path transform="matrix(.00359712,0,0,-.00359712,0,83)" stroke-width="110.783" stroke-linecap="butt" stroke-miterlimit="10" stroke-linejoin="miter" fill="none" stroke="#000000" d="M71804.9 11356.9H71945.2L72085.6 11530 72225.9 11656.7 72366.3 11703.1 72506.6 11656.7 72647 11530 72787.3 11356.9 72927.7 11183.8 73068 11057 73208.4 11010.6 73348.7 11057 73489.1 11183.8 73629.4 11356.9 73769.8 11530 73910.1 11656.7 74050.5 11703.1 74190.8 11656.7 74331.2 11530 74471.5 11356.9 74611.9 11183.8 74752.3 11057 74892.6 11010.6 75032.9 11057 75173.3 11183.8 75313.6 11356.9 75454 11530 75594.4 11656.7 75734.7 11703.1 75875.1 11656.7 76015.4 11530 76155.8 11356.9 76296.1 11183.8 76436.5 11057 76576.8 11010.6 76717.2 11057 76857.5 11183.8 76997.9 11356.9 77138.2 11530 77278.6 11656.7 77418.9 11703.1 77559.3 11656.7 77699.6 11530 77840 11356.9 77980.3 11183.8 78120.7 11057 78261 11010.6 78401.4 11057 78541.7 11183.8 78682.1 11356.9 78822.4 11530 78962.8 11656.7 79103.1 11703.1 79243.5 11656.7 79383.8 11530 79524.2 11356.9 79664.5 11183.8 79804.9 11057 79945.2 11010.6 80227.4 11356.9"/>
<path transform="matrix(.00359712,0,0,-.00359712,0,83)" d="M68517.6 12379C68517.6 12384.6 68525.9 12415 68525.9 12417.8 68525.9 12420.6 68525.9 12445.5 68492.6 12445.5 68464.9 12445.5 68462.2 12437.2 68451.1 12390.1L68290.4 11750.2C67850 11736.3 67442.7 11367.9 67442.7 10991.2 67442.7 10728 67636.7 10509.2 67974.6 10489.8 67952.5 10403.9 67933.1 10315.2 67910.9 10229.4 67877.7 10099.2 67850 9993.89 67850 9985.58 67850 9957.88 67869.3 9955.11 67883.2 9955.11 67897 9955.11 67902.6 9957.88 67910.9 9966.19 67916.4 9971.73 67933.1 10038.2 67941.4 10077L68046.6 10489.8C68492.6 10503.6 68894.3 10877.6 68894.3 11248.8 68894.3 11467.6 68747.5 11722.5 68362.4 11750.2L68517.6 12379ZM67988.5 10550.7C67822.3 10559 67622.8 10656 67622.8 10933 67622.8 11265.4 67861 11653.2 68273.8 11689.3L67988.5 10550.7ZM68345.8 11689.3C68556.4 11678.2 68714.3 11550.7 68714.3 11307 68714.3 10980.1 68476 10583.9 68060.5 10550.7L68345.8 11689.3"/>
<path transform="matrix(.00359712,0,0,-.00359712,0,83)" d="M70399.4 11966.1C70430.4 11966.1 70476.9 11966.1 70476.9 12012.7 70476.9 12061.1 70432.3 12061.1 70399.4 12061.1H69243.9C69212.9 12061.1 69166.4 12061.1 69166.4 12014.6 69166.4 11966.1 69211 11966.1 69243.9 11966.1H70399.4"/>
<path transform="matrix(.00359712,0,0,-.00359712,0,83)" d="M75323.3 13905.7C75392.5 14027.6 75459 14127.3 75633.5 14141.2 75658.5 14143.9 75686.2 14143.9 75686.2 14196.6 75686.2 14207.6 75675.1 14227 75652.9 14227 75586.4 14227 75508.9 14218.7 75439.6 14218.7 75345.4 14218.7 75242.9 14227 75151.5 14227 75134.9 14227 75098.9 14227 75098.9 14174.4 75098.9 14143.9 75123.8 14141.2 75140.4 14141.2 75206.9 14138.4 75303.9 14116.2 75303.9 14033.1 75303.9 14002.7 75290 13980.5 75267.9 13941.7L74519.9 12637 74417.4 14011C74414.6 14066.4 74409.1 14138.4 74611.3 14141.2 74658.4 14141.2 74686.1 14141.2 74686.1 14196.6 74686.1 14224.3 74655.6 14227 74644.6 14227 74533.8 14227 74417.4 14218.7 74306.6 14218.7 74242.9 14218.7 74079.5 14227 74015.7 14227 73999.1 14227 73963.1 14227 73963.1 14171.6 73963.1 14141.2 73990.8 14141.2 74029.6 14141.2 74151.5 14141.2 74170.9 14124.5 74176.4 14071.9L74193 13858.6 73492.2 12637 73386.9 14041.4C73386.9 14074.7 73386.9 14138.4 73597.4 14141.2 73625.1 14141.2 73655.6 14141.2 73655.6 14196.6 73655.6 14227 73622.4 14227 73616.8 14227 73506 14227 73389.7 14218.7 73276.1 14218.7 73179.1 14218.7 73079.4 14227 72985.2 14227 72971.4 14227 72935.4 14227 72935.4 14174.4 72935.4 14141.2 72960.3 14141.2 73004.6 14141.2 73143.1 14141.2 73145.9 14116.2 73151.4 14038.7L73276.1 12346.1C73278.9 12296.2 73281.6 12274.1 73320.4 12274.1 73353.7 12274.1 73362 12290.7 73386.9 12332.2L74201.3 13745 74303.8 12346.1C74309.4 12287.9 74314.9 12274.1 74348.2 12274.1 74384.2 12274.1 74400.8 12301.8 74414.6 12326.7L75323.3 13905.7"/>
<path transform="matrix(.00359712,0,0,-.00359712,0,83)" d="M77226.4 13778.1C77257.4 13778.1 77303.9 13778.1 77303.9 13824.7 77303.9 13873.1 77259.3 13873.1 77226.4 13873.1H76070.9C76039.9 13873.1 75993.4 13873.1 75993.4 13826.6 75993.4 13778.1 76038 13778.1 76070.9 13778.1H77226.4"/>
<path transform="matrix(.00359712,0,0,-.00359712,0,83)" d="M89640.1 11775.8C89681.7 11775.8 89734.3 11775.8 89734.3 11831.3 89734.3 11886.7 89681.7 11886.7 89642.9 11886.7H87983.5C87944.8 11886.7 87892.1 11886.7 87892.1 11831.3 87892.1 11775.8 87944.8 11775.8 87986.3 11775.8H89640.1ZM89642.9 11238.4C89681.7 11238.4 89734.3 11238.4 89734.3 11293.8 89734.3 11349.3 89681.7 11349.3 89640.1 11349.3H87986.3C87944.8 11349.3 87892.1 11349.3 87892.1 11293.8 87892.1 11238.4 87944.8 11238.4 87983.5 11238.4H89642.9"/>
<path transform="matrix(.00359712,0,0,-.00359712,0,83)" d="M91447.7 12601.4C91447.7 12656.8 91409 12701.1 91345.2 12701.1 91270.4 12701.1 91195.6 12629.1 91195.6 12554.3 91195.6 12501.6 91234.4 12454.5 91300.9 12454.5 91364.6 12454.5 91447.7 12518.3 91447.7 12601.4ZM91237.2 11559.8C91270.4 11640.1 91270.4 11645.7 91298.1 11720.5 91320.3 11775.8 91334.2 11814.6 91334.2 11867.3 91334.2 11991.9 91245.5 12094.4 91107 12094.4 90846.6 12094.4 90741.3 11692.8 90741.3 11667.8 90741.3 11640.1 90769 11640.1 90774.6 11640.1 90802.3 11640.1 90805 11645.7 90818.9 11690 90893.7 11950.4 91004.5 12033.5 91098.7 12033.5 91120.8 12033.5 91167.9 12033.5 91167.9 11944.8 91167.9 11886.7 91148.5 11828.5 91137.5 11800.8 91115.3 11728.8 90990.7 11407.4 90946.3 11288.3 90918.6 11216.3 90882.6 11124.9 90882.6 11066.7 90882.6 10936.5 90976.8 10839.5 91109.8 10839.5 91370.2 10839.5 91472.7 11241.2 91472.7 11266.1 91472.7 11293.8 91447.7 11293.8 91439.4 11293.8 91411.7 11293.8 91411.7 11285.5 91397.9 11244 91348 11069.5 91256.6 10900.5 91115.3 10900.5 91068.2 10900.5 91048.8 10928.2 91048.8 10991.9 91048.8 11061.1 91065.5 11099.9 91129.2 11268.9L91237.2 11559.8"/>
<path transform="matrix(.00359712,0,0,-.00359712,0,83)" d="M93251.8 13787.4C93254.5 13804 93260.1 13817.8 93260.1 13837.2 93260.1 13884.3 93226.8 13912 93179.7 13912 93152 13912 93077.2 13892.6 93066.2 13792.9 93016.3 13895.4 92919.3 13967.4 92808.5 13967.4 92492.7 13967.4 92149.2 13579.6 92149.2 13180.7 92149.2 12906.4 92318.2 12743 92517.7 12743 92681.1 12743 92811.3 12873.2 92839 12903.7L92841.8 12900.9C92783.6 12654.4 92750.4 12540.8 92750.4 12535.2 92739.3 12510.3 92645.1 12236.1 92351.5 12236.1 92298.8 12236.1 92207.4 12238.8 92129.8 12263.8 92212.9 12288.7 92243.4 12360.7 92243.4 12407.8 92243.4 12452.1 92212.9 12504.8 92138.1 12504.8 92077.2 12504.8 91988.5 12454.9 91988.5 12344.1 91988.5 12230.5 92091 12175.1 92357 12175.1 92703.3 12175.1 92902.7 12391.2 92944.3 12557.4L93251.8 13787.4ZM92891.6 13097.6C92875 13025.6 92811.3 12956.3 92750.4 12903.7 92692.2 12853.8 92606.3 12803.9 92526 12803.9 92387.5 12803.9 92345.9 12948 92345.9 13058.8 92345.9 13191.8 92426.3 13518.7 92501 13659.9 92575.8 13795.7 92695 13906.5 92811.3 13906.5 92994.1 13906.5 93032.9 13682.1 93032.9 13668.3 93032.9 13654.4 93027.4 13637.8 93024.6 13626.7L92891.6 13097.6"/>
<path transform="matrix(.00359712,0,0,-.00359712,0,83)" stroke-width="110.783" stroke-linecap="butt" stroke-miterlimit="10" stroke-linejoin="miter" fill="none" stroke="#000000" d="M91947.4 11561.7H93367.7"/>
<path transform="matrix(.00359712,0,0,-.00359712,0,83)" d="M92316.8 9183.3 92610.5 9468.64C93042.6 9850.92 93208.8 10000.5 93208.8 10277.5 93208.8 10593.3 92959.5 10814.9 92621.5 10814.9 92308.5 10814.9 92103.5 10560.1 92103.5 10313.5 92103.5 10158.4 92242 10158.4 92250.3 10158.4 92297.4 10158.4 92394.4 10191.7 92394.4 10305.2 92394.4 10377.3 92344.5 10449.3 92247.6 10449.3 92225.4 10449.3 92219.9 10449.3 92211.5 10446.5 92275.3 10626.6 92424.8 10729.1 92585.5 10729.1 92837.6 10729.1 92956.7 10504.7 92956.7 10277.5 92956.7 10055.9 92818.2 9837.06 92665.9 9665.31L92134 9072.5C92103.5 9042.03 92103.5 9036.48 92103.5 8970H93131.3L93208.8 9452.02H93139.6C93125.7 9368.91 93106.3 9247.02 93078.6 9205.47 93059.2 9183.3 92876.4 9183.3 92815.5 9183.3H92316.8"/>
<path transform="matrix(.00359712,0,0,-.00359712,0,83)" d="M94616.9 10205.2C94616.9 10213.5 94616.9 10219 94569.8 10266.1 94223.6 10615.1 94134.9 11138.7 94134.9 11562.5 94134.9 12044.6 94240.2 12526.6 94580.9 12872.8 94616.9 12906.1 94616.9 12911.6 94616.9 12919.9 94616.9 12939.3 94605.8 12947.6 94589.2 12947.6 94561.5 12947.6 94312.2 12759.3 94148.8 12407.5 94007.5 12102.7 93974.3 11795.3 93974.3 11562.5 93974.3 11346.5 94004.7 11011.3 94157.1 10698.3 94323.3 10357.5 94561.5 10177.5 94589.2 10177.5 94605.8 10177.5 94616.9 10185.8 94616.9 10205.2"/>
<path transform="matrix(.00359712,0,0,-.00359712,0,83)" d="M96602.5 11507.1C96649.6 11507.1 96699.5 11507.1 96699.5 11562.5 96699.5 11618 96649.6 11618 96602.5 11618H95103.9C95056.8 11618 95006.9 11618 95006.9 11562.5 95006.9 11507.1 95056.8 11507.1 95103.9 11507.1H96602.5"/>
<path transform="matrix(.00359712,0,0,-.00359712,0,83)" d="M97717.7 12601.4C97717.7 12656.8 97679 12701.1 97615.2 12701.1 97540.4 12701.1 97465.6 12629.1 97465.6 12554.3 97465.6 12501.6 97504.4 12454.5 97570.9 12454.5 97634.6 12454.5 97717.7 12518.3 97717.7 12601.4ZM97507.2 11559.8C97540.4 11640.1 97540.4 11645.7 97568.1 11720.5 97590.3 11775.8 97604.2 11814.6 97604.2 11867.3 97604.2 11991.9 97515.5 12094.4 97377 12094.4 97116.6 12094.4 97011.3 11692.8 97011.3 11667.8 97011.3 11640.1 97039 11640.1 97044.6 11640.1 97072.3 11640.1 97075 11645.7 97088.9 11690 97163.7 11950.4 97274.5 12033.5 97368.7 12033.5 97390.8 12033.5 97437.9 12033.5 97437.9 11944.8 97437.9 11886.7 97418.5 11828.5 97407.5 11800.8 97385.3 11728.8 97260.7 11407.4 97216.3 11288.3 97188.6 11216.3 97152.6 11124.9 97152.6 11066.7 97152.6 10936.5 97246.8 10839.5 97379.8 10839.5 97640.2 10839.5 97742.7 11241.2 97742.7 11266.1 97742.7 11293.8 97717.7 11293.8 97709.4 11293.8 97681.7 11293.8 97681.7 11285.5 97667.9 11244 97618 11069.5 97526.6 10900.5 97385.3 10900.5 97338.2 10900.5 97318.8 10928.2 97318.8 10991.9 97318.8 11061.1 97335.5 11099.9 97399.2 11268.9L97507.2 11559.8"/>
<path transform="matrix(.00359712,0,0,-.00359712,0,83)" d="M98008.7 10532C97986.5 10437.8 97981 10418.5 97859.1 10418.5 97825.8 10418.5 97795.4 10418.5 97795.4 10365.8 97795.4 10343.7 97809.2 10332.6 97831.4 10332.6 97906.2 10332.6 97986.5 10340.9 98064.1 10340.9 98155.5 10340.9 98249.7 10332.6 98338.3 10332.6 98352.2 10332.6 98388.2 10332.6 98388.2 10388 98388.2 10418.5 98360.5 10418.5 98321.7 10418.5 98183.2 10418.5 98183.2 10437.8 98183.2 10462.8 98183.2 10496 98299.5 10947.6 98318.9 11016.8 98354.9 10936.5 98432.5 10839.5 98573.8 10839.5 98895.1 10839.5 99241.4 11244 99241.4 11651.2 99241.4 11911.6 99083.5 12094.4 98873 12094.4 98734.5 12094.4 98601.5 11994.7 98510.1 11886.7 98482.4 12036.3 98363.3 12094.4 98260.8 12094.4 98133.3 12094.4 98080.7 11986.4 98055.8 11936.5 98005.9 11842.3 97969.9 11676.1 97969.9 11667.8 97969.9 11640.1 97997.6 11640.1 98003.1 11640.1 98030.8 11640.1 98033.6 11642.9 98050.2 11703.8 98097.3 11900.5 98152.7 12033.5 98252.4 12033.5 98299.5 12033.5 98338.3 12011.3 98338.3 11906 98338.3 11842.3 98330 11811.9 98318.9 11764.8L98008.7 10532ZM98496.2 11734.3C98515.6 11809.1 98590.4 11886.7 98640.3 11928.2 98737.2 12014.1 98817.5 12033.5 98864.6 12033.5 98975.5 12033.5 99041.9 11936.5 99041.9 11773.1 99041.9 11609.6 98950.5 11291.1 98900.7 11185.8 98806.5 10991.9 98673.5 10900.5 98571 10900.5 98388.2 10900.5 98352.2 11130.4 98352.2 11147 98352.2 11152.6 98352.2 11158.1 98360.5 11191.3L98496.2 11734.3"/>
<path transform="matrix(.00359712,0,0,-.00359712,0,83)" d="M99383.7 10141.9C99375.9 10112.8 99375.9 10103.1 99375.9 10101.2 99375.9 10058.5 99410.8 10039.1 99441.8 10039.1 99511.6 10039.1 99527.2 10103.1 99534.9 10136 99538.8 10145.8 99577.6 10300.8 99624.1 10490.8 99684.2 10450.1 99761.7 10434.6 99831.5 10434.6 99998.3 10434.6 100107 10570.3 100111 10574.2 100148 10440.4 100281 10434.6 100310 10434.6 100380 10434.6 100429 10477.3 100464 10537.4 100506 10613 100531 10723.5 100531 10731.2 100531 10756.4 100506 10756.4 100500 10756.4 100473 10756.4 100471 10748.7 100458 10696.3 100434 10603.3 100398 10488.9 100316 10488.9 100266 10488.9 100252 10531.5 100252 10583.9 100252 10616.8 100268 10686.6 100281 10737 100295 10789.4 100314 10868.9 100324 10911.5L100369 11084.1C100380 11132.5 100402 11217.8 100402 11227.5 100402 11266.3 100370 11289.6 100338 11289.6 100316 11289.6 100279 11279.9 100258 11243 100252 11231.4 100237 11169.4 100227 11130.6L100186 10969.7 100126 10727.4C100113 10678.9 100113 10675 100095 10649.8 100035 10564.5 99949.8 10488.9 99839.3 10488.9 99680.3 10488.9 99680.3 10626.5 99680.3 10661.4 99680.3 10711.8 99686.1 10737 99713.3 10841.7 99732.7 10927 99736.5 10940.6 99755.9 11016.2L99783.1 11124.8C99792.8 11165.5 99812.1 11239.2 99812.1 11246.9 99812.1 11281.8 99785 11309 99746.2 11309 99676.4 11309 99659 11241.1 99653.2 11217.8L99383.7 10141.9"/>
<path transform="matrix(.00359712,0,0,-.00359712,0,83)" d="M101924 11507.1H102697C102736 11507.1 102788 11507.1 102788 11562.5 102788 11618 102736 11618 102697 11618H101924V12393.6C101924 12432.4 101924 12485 101869 12485 101813 12485 101813 12432.4 101813 12393.6V11618H101038C100999 11618 100946 11618 100946 11562.5 100946 11507.1 100999 11507.1 101038 11507.1H101813V10731.5C101813 10692.7 101813 10640.1 101869 10640.1 101924 10640.1 101924 10692.7 101924 10731.5V11507.1"/>
<path transform="matrix(.00359712,0,0,-.00359712,0,83)" d="M103760 12601.4C103760 12656.8 103721 12701.1 103657 12701.1 103582 12701.1 103508 12629.1 103508 12554.3 103508 12501.6 103546 12454.5 103613 12454.5 103677 12454.5 103760 12518.3 103760 12601.4ZM103549 11559.8C103582 11640.1 103582 11645.7 103610 11720.5 103632 11775.8 103646 11814.6 103646 11867.3 103646 11991.9 103558 12094.4 103419 12094.4 103159 12094.4 103053 11692.8 103053 11667.8 103053 11640.1 103081 11640.1 103087 11640.1 103114 11640.1 103117 11645.7 103131 11690 103206 11950.4 103317 12033.5 103411 12033.5 103433 12033.5 103480 12033.5 103480 11944.8 103480 11886.7 103461 11828.5 103449 11800.8 103427 11728.8 103303 11407.4 103258 11288.3 103231 11216.3 103195 11124.9 103195 11066.7 103195 10936.5 103289 10839.5 103422 10839.5 103682 10839.5 103785 11241.2 103785 11266.1 103785 11293.8 103760 11293.8 103751 11293.8 103724 11293.8 103724 11285.5 103710 11244 103660 11069.5 103569 10900.5 103427 10900.5 103380 10900.5 103361 10928.2 103361 10991.9 103361 11061.1 103377 11099.9 103441 11268.9L103549 11559.8"/>
<path transform="matrix(.00359712,0,0,-.00359712,0,83)" d="M104720 12762C104720 12764.8 104720 12792.5 104684 12792.5 104620 12792.5 104418 12770.3 104346 12764.8 104324 12762 104293 12759.3 104293 12709.4 104293 12676.2 104318 12676.2 104360 12676.2 104493 12676.2 104498 12656.8 104498 12629.1L104490 12573.7 104088 10978C104077 10939.3 104077 10933.7 104077 10917.1 104077 10853.4 104133 10839.5 104158 10839.5 104194 10839.5 104235 10864.5 104252 10897.7 104266 10922.6 104390 11435.1 104407 11504.4 104501 11496.1 104728 11451.7 104728 11268.9 104728 11249.5 104728 11238.4 104720 11210.7 104715 11177.5 104709 11144.3 104709 11113.8 104709 10950.3 104820 10839.5 104964 10839.5 105047 10839.5 105122 10883.8 105183 10986.3 105252 11108.2 105282 11260.6 105282 11266.1 105282 11293.8 105257 11293.8 105249 11293.8 105221 11293.8 105219 11282.8 105210 11244 105155 11041.8 105091 10900.5 104969 10900.5 104917 10900.5 104881 10930.9 104881 11030.7 104881 11077.8 104892 11141.5 104903 11185.8 104914 11232.9 104914 11244 104914 11271.7 104914 11451.7 104739 11532.1 104504 11562.5 104590 11612.4 104678 11701.1 104742 11767.5 104875 11914.4 105003 12033.5 105138 12033.5 105155 12033.5 105158 12033.5 105163 12030.7 105197 12025.2 105199 12025.2 105221 12008.5 105227 12005.8 105227 12003 105233 11997.5 105100 11989.2 105075 11881.1 105075 11847.9 105075 11803.5 105105 11750.9 105180 11750.9 105252 11750.9 105332 11811.9 105332 11919.9 105332 12003 105269 12094.4 105144 12094.4 105066 12094.4 104939 12072.3 104739 11850.6 104645 11745.4 104537 11634.6 104432 11593L104720 12762"/>
<path transform="matrix(.00359712,0,0,-.00359712,0,83)" d="M105474 10141.9C105466 10112.8 105466 10103.1 105466 10101.2 105466 10058.5 105501 10039.1 105532 10039.1 105602 10039.1 105617 10103.1 105625 10136 105629 10145.8 105668 10300.8 105714 10490.8 105774 10450.1 105852 10434.6 105922 10434.6 106088 10434.6 106197 10570.3 106201 10574.2 106238 10440.4 106371 10434.6 106400 10434.6 106470 10434.6 106519 10477.3 106554 10537.4 106596 10613 106621 10723.5 106621 10731.2 106621 10756.4 106596 10756.4 106590 10756.4 106563 10756.4 106561 10748.7 106548 10696.3 106524 10603.3 106488 10488.9 106406 10488.9 106356 10488.9 106342 10531.5 106342 10583.9 106342 10616.8 106358 10686.6 106371 10737 106385 10789.4 106404 10868.9 106414 10911.5L106459 11084.1C106470 11132.5 106492 11217.8 106492 11227.5 106492 11266.3 106460 11289.6 106428 11289.6 106406 11289.6 106369 11279.9 106348 11243 106342 11231.4 106327 11169.4 106317 11130.6L106276 10969.7 106216 10727.4C106203 10678.9 106203 10675 106185 10649.8 106125 10564.5 106040 10488.9 105929 10488.9 105770 10488.9 105770 10626.5 105770 10661.4 105770 10711.8 105776 10737 105803 10841.7 105823 10927 105827 10940.6 105846 11016.2L105873 11124.8C105883 11165.5 105902 11239.2 105902 11246.9 105902 11281.8 105875 11309 105836 11309 105766 11309 105749 11241.1 105743 11217.8L105474 10141.9"/>
<path transform="matrix(.00359712,0,0,-.00359712,0,83)" d="M107655 11562.5C107655 11778.6 107624 12113.8 107472 12426.8 107306 12767.6 107067 12947.6 107040 12947.6 107023 12947.6 107012 12936.6 107012 12919.9 107012 12911.6 107012 12906.1 107065 12856.2 107336 12582 107494 12141.5 107494 11562.5 107494 11088.8 107391 10601.3 107048 10252.3 107012 10219 107012 10213.5 107012 10205.2 107012 10188.5 107023 10177.5 107040 10177.5 107067 10177.5 107317 10365.8 107480 10717.6 107621 11022.4 107655 11329.8 107655 11562.5"/>
<path transform="matrix(.00359712,0,0,-.00359712,0,83)" d="M110599 11775.8C110641 11775.8 110693 11775.8 110693 11831.3 110693 11886.7 110641 11886.7 110602 11886.7H108943C108904 11886.7 108851 11886.7 108851 11831.3 108851 11775.8 108904 11775.8 108945 11775.8H110599ZM110602 11238.4C110641 11238.4 110693 11238.4 110693 11293.8 110693 11349.3 110641 11349.3 110599 11349.3H108945C108904 11349.3 108851 11349.3 108851 11293.8 108851 11238.4 108904 11238.4 108943 11238.4H110602"/>
<path transform="matrix(.00359712,0,0,-.00359712,0,83)" d="M113261 13787.4C113264 13804 113269 13817.8 113269 13837.2 113269 13884.3 113236 13912 113189 13912 113161 13912 113086 13892.6 113075 13792.9 113025 13895.4 112928 13967.4 112818 13967.4 112502 13967.4 112158 13579.6 112158 13180.7 112158 12906.4 112327 12743 112527 12743 112690 12743 112820 12873.2 112848 12903.7L112851 12900.9C112793 12654.4 112759 12540.8 112759 12535.2 112748 12510.3 112654 12236.1 112360 12236.1 112308 12236.1 112216 12238.8 112139 12263.8 112222 12288.7 112252 12360.7 112252 12407.8 112252 12452.1 112222 12504.8 112147 12504.8 112086 12504.8 111998 12454.9 111998 12344.1 111998 12230.5 112100 12175.1 112366 12175.1 112712 12175.1 112912 12391.2 112953 12557.4L113261 13787.4ZM112901 13097.6C112884 13025.6 112820 12956.3 112759 12903.7 112701 12853.8 112615 12803.9 112535 12803.9 112396 12803.9 112355 12948 112355 13058.8 112355 13191.8 112435 13518.7 112510 13659.9 112585 13795.7 112704 13906.5 112820 13906.5 113003 13906.5 113042 13682.1 113042 13668.3 113042 13654.4 113036 13637.8 113034 13626.7L112901 13097.6"/>
<path transform="matrix(.00359712,0,0,-.00359712,0,83)" stroke-width="110.783" stroke-linecap="butt" stroke-miterlimit="10" stroke-linejoin="miter" fill="none" stroke="#000000" d="M111956 11561.7H113376"/>
<path transform="matrix(.00359712,0,0,-.00359712,0,83)" d="M112326 9183.3 112619 9468.64C113052 9850.92 113218 10000.5 113218 10277.5 113218 10593.3 112969 10814.9 112631 10814.9 112318 10814.9 112113 10560.1 112113 10313.5 112113 10158.4 112251 10158.4 112259 10158.4 112306 10158.4 112403 10191.7 112403 10305.2 112403 10377.3 112354 10449.3 112257 10449.3 112234 10449.3 112229 10449.3 112221 10446.5 112284 10626.6 112434 10729.1 112595 10729.1 112847 10729.1 112966 10504.7 112966 10277.5 112966 10055.9 112827 9837.06 112675 9665.31L112143 9072.5C112113 9042.03 112113 9036.48 112113 8970H113140L113218 9452.02H113149C113135 9368.91 113115 9247.02 113088 9205.47 113068 9183.3 112885 9183.3 112824 9183.3H112326"/>
<path transform="matrix(.00359712,0,0,-.00359712,0,83)" d="M114626 10205.2C114626 10213.5 114626 10219 114579 10266.1 114233 10615.1 114144 11138.7 114144 11562.5 114144 12044.6 114249 12526.6 114590 12872.8 114626 12906.1 114626 12911.6 114626 12919.9 114626 12939.3 114615 12947.6 114598 12947.6 114571 12947.6 114321 12759.3 114158 12407.5 114016 12102.7 113983 11795.3 113983 11562.5 113983 11346.5 114014 11011.3 114166 10698.3 114332 10357.5 114571 10177.5 114598 10177.5 114615 10177.5 114626 10185.8 114626 10205.2"/>
<path transform="matrix(.00359712,0,0,-.00359712,0,83)" d="M114911 10532C114889 10437.8 114883 10418.5 114761 10418.5 114728 10418.5 114697 10418.5 114697 10365.8 114697 10343.7 114711 10332.6 114733 10332.6 114808 10332.6 114889 10340.9 114966 10340.9 115057 10340.9 115152 10332.6 115240 10332.6 115254 10332.6 115290 10332.6 115290 10388 115290 10418.5 115262 10418.5 115224 10418.5 115085 10418.5 115085 10437.8 115085 10462.8 115085 10496 115202 10947.6 115221 11016.8 115257 10936.5 115335 10839.5 115476 10839.5 115797 10839.5 116143 11244 116143 11651.2 116143 11911.6 115985 12094.4 115775 12094.4 115636 12094.4 115503 11994.7 115412 11886.7 115384 12036.3 115265 12094.4 115163 12094.4 115035 12094.4 114983 11986.4 114958 11936.5 114908 11842.3 114872 11676.1 114872 11667.8 114872 11640.1 114900 11640.1 114905 11640.1 114933 11640.1 114936 11642.9 114952 11703.8 114999 11900.5 115055 12033.5 115154 12033.5 115202 12033.5 115240 12011.3 115240 11906 115240 11842.3 115232 11811.9 115221 11764.8L114911 10532ZM115398 11734.3C115418 11809.1 115492 11886.7 115542 11928.2 115639 12014.1 115720 12033.5 115767 12033.5 115877 12033.5 115944 11936.5 115944 11773.1 115944 11609.6 115853 11291.1 115803 11185.8 115708 10991.9 115576 10900.5 115473 10900.5 115290 10900.5 115254 11130.4 115254 11147 115254 11152.6 115254 11158.1 115262 11191.3L115398 11734.3"/>
<path transform="matrix(.00359712,0,0,-.00359712,0,83)" d="M118033 11507.1C118080 11507.1 118130 11507.1 118130 11562.5 118130 11618 118080 11618 118033 11618H116534C116487 11618 116437 11618 116437 11562.5 116437 11507.1 116487 11507.1 116534 11507.1H118033"/>
<path transform="matrix(.00359712,0,0,-.00359712,0,83)" d="M119183 12762C119183 12764.8 119183 12792.5 119147 12792.5 119083 12792.5 118881 12770.3 118809 12764.8 118787 12762 118756 12759.3 118756 12709.4 118756 12676.2 118781 12676.2 118823 12676.2 118956 12676.2 118961 12656.8 118961 12629.1L118953 12573.7 118551 10978C118540 10939.3 118540 10933.7 118540 10917.1 118540 10853.4 118596 10839.5 118621 10839.5 118657 10839.5 118698 10864.5 118715 10897.7 118729 10922.6 118853 11435.1 118870 11504.4 118964 11496.1 119191 11451.7 119191 11268.9 119191 11249.5 119191 11238.4 119183 11210.7 119178 11177.5 119172 11144.3 119172 11113.8 119172 10950.3 119283 10839.5 119427 10839.5 119510 10839.5 119585 10883.8 119646 10986.3 119715 11108.2 119745 11260.6 119745 11266.1 119745 11293.8 119720 11293.8 119712 11293.8 119684 11293.8 119682 11282.8 119673 11244 119618 11041.8 119554 10900.5 119432 10900.5 119380 10900.5 119344 10930.9 119344 11030.7 119344 11077.8 119355 11141.5 119366 11185.8 119377 11232.9 119377 11244 119377 11271.7 119377 11451.7 119202 11532.1 118967 11562.5 119053 11612.4 119141 11701.1 119205 11767.5 119338 11914.4 119466 12033.5 119601 12033.5 119618 12033.5 119621 12033.5 119626 12030.7 119660 12025.2 119662 12025.2 119684 12008.5 119690 12005.8 119690 12003 119696 11997.5 119563 11989.2 119538 11881.1 119538 11847.9 119538 11803.5 119568 11750.9 119643 11750.9 119715 11750.9 119795 11811.9 119795 11919.9 119795 12003 119732 12094.4 119607 12094.4 119529 12094.4 119402 12072.3 119202 11850.6 119108 11745.4 119000 11634.6 118895 11593L119183 12762"/>
<path transform="matrix(.00359712,0,0,-.00359712,0,83)" d="M120718 11562.5C120718 11778.6 120687 12113.8 120535 12426.8 120369 12767.6 120130 12947.6 120103 12947.6 120086 12947.6 120075 12936.6 120075 12919.9 120075 12911.6 120075 12906.1 120128 12856.2 120399 12582 120557 12141.5 120557 11562.5 120557 11088.8 120454 10601.3 120111 10252.3 120075 10219 120075 10213.5 120075 10205.2 120075 10188.5 120086 10177.5 120103 10177.5 120130 10177.5 120380 10365.8 120543 10717.6 120684 11022.4 120718 11329.8 120718 11562.5"/>
<path transform="matrix(.00359712,0,0,-.00359712,0,83)" d="M121099 10141.9C121091 10112.8 121091 10103.1 121091 10101.2 121091 10058.5 121126 10039.1 121157 10039.1 121227 10039.1 121242 10103.1 121250 10136 121254 10145.8 121293 10300.8 121339 10490.8 121399 10450.1 121477 10434.6 121547 10434.6 121713 10434.6 121822 10570.3 121826 10574.2 121863 10440.4 121996 10434.6 122025 10434.6 122095 10434.6 122144 10477.3 122179 10537.4 122221 10613 122246 10723.5 122246 10731.2 122246 10756.4 122221 10756.4 122215 10756.4 122188 10756.4 122186 10748.7 122173 10696.3 122149 10603.3 122113 10488.9 122031 10488.9 121981 10488.9 121967 10531.5 121967 10583.9 121967 10616.8 121983 10686.6 121996 10737 122010 10789.4 122029 10868.9 122039 10911.5L122084 11084.1C122095 11132.5 122117 11217.8 122117 11227.5 122117 11266.3 122085 11289.6 122053 11289.6 122031 11289.6 121994 11279.9 121973 11243 121967 11231.4 121952 11169.4 121942 11130.6L121901 10969.7 121841 10727.4C121828 10678.9 121828 10675 121810 10649.8 121750 10564.5 121665 10488.9 121554 10488.9 121395 10488.9 121395 10626.5 121395 10661.4 121395 10711.8 121401 10737 121428 10841.7 121448 10927 121452 10940.6 121471 11016.2L121498 11124.8C121508 11165.5 121527 11239.2 121527 11246.9 121527 11281.8 121500 11309 121461 11309 121391 11309 121374 11241.1 121368 11217.8L121099 10141.9"/>
<path transform="matrix(.00359712,0,0,-.00359712,0,83)" d="M123011 11016.8C123011 11097.2 122944 11163.6 122864 11163.6 122784 11163.6 122717 11097.2 122717 11016.8 122717 10936.5 122784 10870 122864 10870 122944 10870 123011 10936.5 123011 11016.8"/>
</svg>
