<svg xmlns="http://www.w3.org/2000/svg" xmlns:xlink="http://www.w3.org/1999/xlink" version="1.1" width="212pt" height="84pt" viewBox="0 0 212 84">
<path transform="matrix(.00359712,0,0,-.00359712,0,84)" d="M1745.05 2042.03C1745.05 2044.81 1745.05 2072.52 1709.03 2072.52 1645.31 2072.52 1443.09 2050.34 1371.06 2044.81 1348.91 2042.03 1318.44 2039.27 1318.44 1989.41 1318.44 1956.16 1343.36 1956.16 1384.92 1956.16 1517.89 1956.16 1523.42 1936.77 1523.42 1909.06L1515.13 1853.67 1113.44 258.031C1102.36 219.25 1102.36 213.719 1102.36 197.094 1102.36 133.375 1157.77 119.531 1182.7 119.531 1227.02 119.531 1271.34 152.766 1285.19 191.547L1337.83 402.094 1398.77 651.406C1415.39 712.344 1432.02 773.297 1445.86 837 1451.41 853.625 1473.56 945.047 1476.33 961.672 1484.64 986.594 1570.52 1141.73 1664.7 1216.52 1725.66 1260.84 1811.53 1313.48 1930.64 1313.48 2049.77 1313.48 2080.23 1219.3 2080.23 1119.56 2080.23 969.969 1974.97 668.031 1908.48 499.047 1886.33 435.328 1872.47 402.094 1872.47 346.688 1872.47 216.484 1969.42 119.531 2099.63 119.531 2360.03 119.531 2462.52 523.969 2462.52 546.141 2462.52 573.844 2437.59 573.844 2429.28 573.844 2401.58 573.844 2401.58 565.531 2387.73 523.969 2346.17 377.156 2257.53 180.469 2105.17 180.469 2058.08 180.469 2038.69 208.172 2038.69 271.891 2038.69 341.141 2063.61 407.625 2088.55 468.578 2132.88 587.688 2257.53 917.344 2257.53 1078.02 2257.53 1258.08 2146.72 1374.42 1938.95 1374.42 1764.44 1374.42 1631.47 1288.55 1528.97 1161.13L1745.05 2042.03"/>
<path transform="matrix(.00359712,0,0,-.00359712,0,84)" d="M19807.5 12389.5C19810.3 12400.6 19815.8 12414.5 19815.8 12431.1 19815.8 12456 19802 12456 19746.6 12456H18577.6C18511.1 12456 18508.3 12453.3 18491.7 12400.6L18339.3 11902C18333.8 11888.2 18331 11868.8 18331 11863.2 18331 11860.5 18331 11832.8 18364.3 11832.8 18389.2 11832.8 18394.7 11852.1 18400.3 11860.5 18505.5 12187.3 18649.6 12370.2 19081.8 12370.2H19533.3L17984.8 10638.8C17984.8 10636 17973.7 10597.3 17973.7 10588.9 17973.7 10564 17993.1 10564 18042.9 10564H19248C19314.4 10564 19317.2 10566.8 19333.8 10619.4L19530.5 11231.6C19533.3 11242.7 19541.6 11262.1 19541.6 11273.2 19541.6 11287 19530.5 11303.6 19505.6 11303.6 19480.7 11303.6 19477.9 11292.6 19458.5 11234.4 19336.6 10857.6 19203.6 10658.2 18732.7 10658.2H18259L19807.5 12389.5"/>
<path transform="matrix(.00359712,0,0,-.00359712,0,84)" d="M20901.4 12187.5C20901.4 12400.7 20876.2 12553.9 20787 12689.6 20726.9 12778.8 20606.7 12856.3 20451.6 12856.3 20001.8 12856.3 20001.8 12327 20001.8 12187.5 20001.8 12047.9 20001.8 11530.2 20451.6 11530.2 20901.4 11530.2 20901.4 12047.9 20901.4 12187.5ZM20451.6 11584.5C20362.4 11584.5 20244.2 11636.9 20205.4 11795.8 20178.2 11910.2 20178.2 12069.2 20178.2 12212.7 20178.2 12354.2 20178.2 12501.5 20207.3 12608.1 20248 12761.3 20372.1 12802 20451.6 12802 20556.3 12802 20657.1 12738 20692 12625.6 20723 12520.9 20725 12381.3 20725 12212.7 20725 12069.2 20725 11925.7 20699.8 11803.6 20661 11627.2 20529.1 11584.5 20451.6 11584.5"/>
<path transform="matrix(.00359712,0,0,-.00359712,0,84)" d="M20190.6 10677.8C20192.5 10685.5 20194.5 10697.1 20194.5 10706.8 20194.5 10708.8 20194.5 10734 20163.5 10734 20161.5 10734 20051 10724.3 20037.5 10724.3 20000.6 10720.4 19965.7 10718.5 19928.9 10714.6 19897.9 10712.6 19874.6 10710.7 19874.6 10670 19874.6 10642.8 19901.8 10642.8 19925 10642.8 20018.1 10642.8 20018.1 10631.2 20018.1 10613.8 20018.1 10602.1 20008.4 10563.4 20000.6 10538.2L19903.7 10146.5C19855.2 9952.67 19845.5 9913.89 19845.5 9906.14 19845.5 9879 19874.6 9879 19882.4 9879H19913.4C20085.9 9906.14 20332.1 9997.27 20539.6 10181.4 20803.3 10416 20842 10668 20842 10671.9 20842 10706.8 20814.9 10734 20776.1 10734 20708.3 10734 20694.7 10679.7 20677.2 10625.4 20599.7 10350.1 20339.9 10053.5 20010.3 9956.55L20190.6 10677.8"/>
<path transform="matrix(.00359712,0,0,-.00359712,0,84)" d="M2053.53 22814.5C2056.31 22825.6 2061.84 22839.5 2061.84 22856.1 2061.84 22881 2048 22881 1992.59 22881H823.578C757.094 22881 754.313 22878.3 737.703 22825.6L585.328 22327C579.797 22313.2 577.031 22293.8 577.031 22288.2 577.031 22285.5 577.031 22257.8 610.266 22257.8 635.203 22257.8 640.734 22277.1 646.281 22285.5 751.547 22612.3 895.594 22795.2 1327.75 22795.2H1779.28L230.75 21063.8C230.75 21061 219.672 21022.3 219.672 21013.9 219.672 20989 239.063 20989 288.922 20989H1493.95C1560.44 20989 1563.22 20991.8 1579.83 21044.4L1776.52 21656.6C1779.28 21667.7 1787.59 21687.1 1787.59 21698.2 1787.59 21712 1776.52 21728.6 1751.58 21728.6 1726.66 21728.6 1723.89 21717.6 1704.48 21659.4 1582.61 21282.6 1449.64 21083.2 978.703 21083.2H505L2053.53 22814.5"/>
<path transform="matrix(.00359712,0,0,-.00359712,0,84)" d="M3148.38 22612.5C3148.38 22825.7 3123.17 22978.9 3033.98 23114.6 2973.89 23203.8 2853.69 23281.3 2698.59 23281.3 2248.81 23281.3 2248.81 22752 2248.81 22612.5 2248.81 22472.9 2248.81 21955.2 2698.59 21955.2 3148.38 21955.2 3148.38 22472.9 3148.38 22612.5ZM2698.59 22009.5C2609.41 22009.5 2491.16 22061.9 2452.38 22220.8 2425.23 22335.2 2425.23 22494.2 2425.23 22637.7 2425.23 22779.2 2425.23 22926.5 2454.31 23033.1 2495.03 23186.3 2619.11 23227 2698.59 23227 2803.28 23227 2904.09 23163 2938.98 23050.6 2970.02 22945.9 2971.95 22806.3 2971.95 22637.7 2971.95 22494.2 2971.95 22350.7 2946.75 22228.6 2907.97 22052.2 2776.14 22009.5 2698.59 22009.5"/>
<path transform="matrix(.00359712,0,0,-.00359712,0,84)" d="M2054.69 19991.9C2046.94 19962.8 2046.94 19953.1 2046.94 19951.2 2046.94 19908.5 2081.83 19889.1 2112.84 19889.1 2182.64 19889.1 2198.16 19953.1 2205.91 19986 2209.78 19995.8 2248.56 20150.8 2295.09 20340.8 2355.19 20300.1 2432.73 20284.6 2502.53 20284.6 2669.27 20284.6 2777.83 20420.3 2781.7 20424.2 2818.53 20290.4 2952.31 20284.6 2981.39 20284.6 3051.19 20284.6 3099.66 20327.3 3134.55 20387.4 3177.2 20463 3202.41 20573.5 3202.41 20581.2 3202.41 20606.4 3177.2 20606.4 3171.38 20606.4 3144.23 20606.4 3142.3 20598.7 3128.73 20546.3 3105.47 20453.3 3068.63 20338.9 2987.2 20338.9 2936.8 20338.9 2923.23 20381.5 2923.23 20433.9 2923.23 20466.8 2938.73 20536.6 2952.31 20587 2965.88 20639.4 2985.27 20718.9 2994.95 20761.5L3039.55 20934.1C3051.19 20982.5 3072.5 21067.8 3072.5 21077.5 3072.5 21116.3 3041.48 21139.6 3008.53 21139.6 2987.2 21139.6 2950.38 21129.9 2929.05 21093 2923.23 21081.4 2907.72 21019.4 2898.03 20980.6L2857.31 20819.7 2797.22 20577.4C2783.64 20528.9 2783.64 20525 2766.19 20499.8 2706.09 20414.5 2620.8 20338.9 2510.28 20338.9 2351.31 20338.9 2351.31 20476.5 2351.31 20511.4 2351.31 20561.8 2357.13 20587 2384.27 20691.7 2403.66 20777 2407.53 20790.6 2426.92 20866.2L2454.06 20974.8C2463.75 21015.5 2483.14 21089.2 2483.14 21096.9 2483.14 21131.8 2456 21159 2417.23 21159 2347.44 21159 2329.98 21091.1 2324.17 21067.8L2054.69 19991.9"/>
<path transform="matrix(.00359712,0,0,-.00359712,0,84)" stroke-width="110.783" stroke-linecap="butt" stroke-dasharray="830.895,830.895" stroke-miterlimit="10" stroke-linejoin="miter" fill="none" stroke="#000000" d="M2867.59 3051.73 7657.79 11348.5"/>
<path transform="matrix(.00359712,0,0,-.00359712,0,84)" stroke-width="110.783" stroke-linecap="butt" stroke-miterlimit="10" stroke-linejoin="miter" fill="none" stroke="#000000" d="M7657.79 11348.5 7584.7 11475.1 7361.7 11515.2 7178.86 11578.4 7065.61 11681.8 7032.68 11831.6 7069.34 12021.5 7146.15 12234.7 7222.97 12447.8 7259.62 12637.8 7226.7 12787.6 7113.44 12891 6930.6 12954.2 6707.61 12994.3 6484.61 13034.3 6301.77 13097.5 6188.52 13200.9 6155.59 13350.7 6192.25 13540.7 6269.05 13753.8 6345.87 13967 6382.52 14156.9 6349.6 14306.7 6236.34 14410.1 6053.51 14473.4 5830.51 14513.4 5607.51 14553.5 5424.68 14616.7 5311.42 14720.1 5278.5 14869.9 5315.14 15059.8 5391.96 15273 5468.77 15486.1 5505.43 15676.1 5472.5 15825.9 5359.25 15929.3 5176.41 15992.5 4953.41 16032.6 4730.41 16072.6 4547.58 16135.8 4434.32 16239.2 4401.39 16389 4438.05 16579 4514.86 16792.1 4591.68 17005.3 4628.33 17195.2 4595.41 17345 4482.15 17448.4 4299.32 17511.7 4076.32 17551.7 3853.32 17591.8 3670.48 17655 3557.23 17758.4 3524.3 17908.2 3560.96 18098.1 3637.77 18311.3 3714.58 18524.4 3751.24 18714.4 3718.31 18864.2 3269.63 18948.9"/>
<path transform="matrix(.00359712,0,0,-.00359712,0,84)" stroke-width="110.783" stroke-linecap="butt" stroke-miterlimit="10" stroke-linejoin="miter" fill="none" stroke="#000000" d="M7657.79 11348.5H7810.69L7963.59 11521.6 8116.49 11648.3 8269.4 11694.7 8422.3 11648.3 8575.2 11521.6 8728.1 11348.5 8881 11175.4 9033.91 11048.7 9186.8 11002.3 9339.71 11048.7 9492.61 11175.4 9645.52 11348.5 9798.42 11521.6 9951.32 11648.3 10104.2 11694.7 10257.1 11648.3 10410 11521.6 10562.9 11348.5 10715.8 11175.4 10868.7 11048.7 11021.6 11002.3 11174.5 11048.7 11327.4 11175.4 11480.3 11348.5 11633.2 11521.6 11786.1 11648.3 11939 11694.7 12091.9 11648.3 12244.8 11521.6 12397.8 11348.5 12550.7 11175.4 12703.6 11048.7 12856.5 11002.3 13009.4 11048.7 13162.3 11175.4 13315.2 11348.5 13468.1 11521.6 13621 11648.3 13773.9 11694.7 13926.8 11648.3 14079.7 11521.6 14232.6 11348.5 14385.5 11175.4 14538.4 11048.7 14691.3 11002.3 14844.2 11048.7 14997.1 11175.4 15150 11348.5 15302.9 11521.6 15455.8 11648.3 15608.7 11694.7 15761.6 11648.3 15914.5 11521.6 16067.4 11348.5 16220.3 11175.4 16373.2 11048.7 16526.1 11002.3 16834.3 11348.5"/>
<path transform="matrix(.00359712,0,0,-.00359712,0,84)" d="M24739.1 11909.8C24780.7 11909.8 24833.3 11909.8 24833.3 11965.3 24833.3 12020.7 24780.7 12020.7 24741.9 12020.7H23082.5C23043.8 12020.7 22991.1 12020.7 22991.1 11965.3 22991.1 11909.8 23043.8 11909.8 23085.3 11909.8H24739.1ZM24741.9 11372.4C24780.7 11372.4 24833.3 11372.4 24833.3 11427.8 24833.3 11483.3 24780.7 11483.3 24739.1 11483.3H23085.3C23043.8 11483.3 22991.1 11483.3 22991.1 11427.8 22991.1 11372.4 23043.8 11372.4 23082.5 11372.4H24741.9"/>
<path transform="matrix(.00359712,0,0,-.00359712,0,84)" d="M26546.7 12735.4C26546.7 12790.8 26508 12835.1 26444.2 12835.1 26369.4 12835.1 26294.6 12763.1 26294.6 12688.3 26294.6 12635.6 26333.4 12588.5 26399.9 12588.5 26463.6 12588.5 26546.7 12652.3 26546.7 12735.4ZM26336.2 11693.8C26369.4 11774.1 26369.4 11779.7 26397.1 11854.5 26419.3 11909.8 26433.2 11948.6 26433.2 12001.3 26433.2 12125.9 26344.5 12228.4 26206 12228.4 25945.6 12228.4 25840.3 11826.8 25840.3 11801.8 25840.3 11774.1 25868 11774.1 25873.6 11774.1 25901.3 11774.1 25904 11779.7 25917.9 11824 25992.7 12084.4 26103.5 12167.5 26197.7 12167.5 26219.8 12167.5 26266.9 12167.5 26266.9 12078.8 26266.9 12020.7 26247.5 11962.5 26236.5 11934.8 26214.3 11862.8 26089.7 11541.4 26045.3 11422.3 26017.6 11350.3 25981.6 11258.9 25981.6 11200.7 25981.6 11070.5 26075.8 10973.5 26208.8 10973.5 26469.2 10973.5 26571.7 11375.2 26571.7 11400.1 26571.7 11427.8 26546.7 11427.8 26538.4 11427.8 26510.7 11427.8 26510.7 11419.5 26496.9 11378 26447 11203.5 26355.6 11034.5 26214.3 11034.5 26167.2 11034.5 26147.8 11062.2 26147.8 11125.9 26147.8 11195.1 26164.5 11233.9 26228.2 11402.9L26336.2 11693.8"/>
<path transform="matrix(.00359712,0,0,-.00359712,0,84)" d="M31474.8 13922.4C31477.5 13939 31483.1 13952.8 31483.1 13972.2 31483.1 14019.3 31449.8 14047 31402.7 14047 31375 14047 31300.2 14027.6 31289.2 13927.9 31239.3 14030.4 31142.3 14102.4 31031.5 14102.4 30715.7 14102.4 30372.2 13714.6 30372.2 13315.7 30372.2 13041.4 30541.2 12878 30740.7 12878 30904.1 12878 31034.3 13008.2 31062 13038.7L31064.8 13035.9C31006.6 12789.4 30973.4 12675.8 30973.4 12670.2 30962.3 12645.3 30868.1 12371.1 30574.5 12371.1 30521.8 12371.1 30430.4 12373.8 30352.8 12398.8 30435.9 12423.7 30466.4 12495.7 30466.4 12542.8 30466.4 12587.1 30435.9 12639.8 30361.1 12639.8 30300.2 12639.8 30211.5 12589.9 30211.5 12479.1 30211.5 12365.5 30314 12310.1 30580 12310.1 30926.3 12310.1 31125.7 12526.2 31167.3 12692.4L31474.8 13922.4ZM31114.6 13232.6C31098 13160.6 31034.3 13091.3 30973.4 13038.7 30915.2 12988.8 30829.3 12938.9 30749 12938.9 30610.5 12938.9 30568.9 13083 30568.9 13193.8 30568.9 13326.8 30649.3 13653.7 30724 13794.9 30798.8 13930.7 30918 14041.5 31034.3 14041.5 31217.1 14041.5 31255.9 13817.1 31255.9 13803.3 31255.9 13789.4 31250.4 13772.8 31247.6 13761.7L31114.6 13232.6"/>
<path transform="matrix(.00359712,0,0,-.00359712,0,84)" d="M32569 14235.8H32503.1C32497.3 14193.2 32477.9 14078.8 32452.7 14059.4 32437.2 14047.8 32287.9 14047.8 32260.8 14047.8H31904.1C32107.6 14228.1 32175.5 14282.4 32291.8 14373.5 32435.3 14487.9 32569 14608.1 32569 14792.3 32569 15026.8 32363.5 15170.3 32115.4 15170.3 31875 15170.3 31712.1 15001.6 31712.1 14823.3 31712.1 14724.4 31795.5 14714.7 31814.9 14714.7 31861.4 14714.7 31917.6 14747.7 31917.6 14817.5 31917.6 14852.3 31904.1 14920.2 31803.3 14920.2 31863.4 15057.9 31995.2 15100.5 32086.3 15100.5 32280.2 15100.5 32381 14949.3 32381 14792.3 32381 14623.6 32260.8 14489.8 32198.8 14420L31731.5 13958.6C31712.1 13941.2 31712.1 13937.3 31712.1 13883H32510.9L32569 14235.8"/>
<path transform="matrix(.00359712,0,0,-.00359712,0,84)" d="M34129.5 13908.5C34129.5 14058.1 34057.4 14102.4 34007.6 14102.4 33938.3 14102.4 33871.8 14030.4 33871.8 13969.5 33871.8 13933.4 33885.7 13916.8 33916.1 13886.3 33974.3 13830.9 34010.3 13758.9 34010.3 13659.2 34010.3 13542.8 33841.3 12908.5 33517.2 12908.5 33376 12908.5 33312.3 13005.4 33312.3 13149.5 33312.3 13304.6 33387 13506.8 33472.9 13736.8 33492.3 13783.8 33506.2 13822.6 33506.2 13875.3 33506.2 13999.9 33417.5 14102.4 33279 14102.4 33018.6 14102.4 32913.3 13700.8 32913.3 13675.8 32913.3 13648.1 32941 13648.1 32946.6 13648.1 32974.3 13648.1 32977 13653.7 32990.9 13698 33071.2 13977.8 33190.4 14041.5 33270.7 14041.5 33292.8 14041.5 33339.9 14041.5 33339.9 13952.8 33339.9 13883.6 33312.3 13808.8 33292.8 13758.9 33171 13437.6 33135 13310.2 33135 13191 33135 12891.8 33378.7 12847.5 33506.2 12847.5 33971.5 12847.5 34129.5 13764.5 34129.5 13908.5"/>
<path transform="matrix(.00359712,0,0,-.00359712,0,84)" stroke-width="110.783" stroke-linecap="butt" stroke-miterlimit="10" stroke-linejoin="miter" fill="none" stroke="#000000" d="M27046.1 11696.8H37397.9"/>
<path transform="matrix(.00359712,0,0,-.00359712,0,84)" d="M27397.8 9318.3 27691.5 9603.64C28123.6 9985.92 28289.8 10135.5 28289.8 10412.5 28289.8 10728.3 28040.5 10949.9 27702.5 10949.9 27389.5 10949.9 27184.5 10695.1 27184.5 10448.5 27184.5 10293.4 27323 10293.4 27331.3 10293.4 27378.4 10293.4 27475.4 10326.7 27475.4 10440.2 27475.4 10512.3 27425.5 10584.3 27328.6 10584.3 27306.4 10584.3 27300.9 10584.3 27292.5 10581.5 27356.3 10761.6 27505.8 10864.1 27666.5 10864.1 27918.6 10864.1 28037.7 10639.7 28037.7 10412.5 28037.7 10190.9 27899.2 9972.06 27746.9 9800.31L27215 9207.5C27184.5 9177.03 27184.5 9171.48 27184.5 9105H28212.3L28289.8 9587.02H28220.6C28206.7 9503.91 28187.3 9382.02 28159.6 9340.47 28140.2 9318.3 27957.4 9318.3 27896.5 9318.3H27397.8"/>
<path transform="matrix(.00359712,0,0,-.00359712,0,84)" d="M29215.1 9708.91C29215.1 10160.4 29442.3 10276.8 29589.1 10276.8 29614 10276.8 29788.5 10274 29885.5 10174.3 29771.9 10166 29755.3 10082.9 29755.3 10046.9 29755.3 9974.84 29805.2 9919.44 29882.7 9919.44 29954.8 9919.44 30010.2 9966.53 30010.2 10049.6 30010.2 10238 29799.6 10346 29586.3 10346 29240 10346 28985.2 10046.9 28985.2 9703.36 28985.2 9348.78 29259.4 9074.53 29580.8 9074.53 29952 9074.53 30040.6 9406.95 30040.6 9434.66 30040.6 9462.36 30012.9 9462.36 30004.6 9462.36 29979.7 9462.36 29974.1 9451.28 29968.6 9434.66 29888.3 9177.03 29708.2 9143.78 29605.7 9143.78 29458.9 9143.78 29215.1 9262.91 29215.1 9708.91"/>
<path transform="matrix(.00359712,0,0,-.00359712,0,84)" d="M31424.8 9697.81C31424.8 10052.4 31147.7 10346 30812.5 10346 30466.3 10346 30197.6 10044.1 30197.6 9697.81 30197.6 9340.47 30485.7 9074.53 30809.8 9074.53 31145 9074.53 31424.8 9346 31424.8 9697.81ZM30812.5 9143.78C30693.4 9143.78 30571.5 9201.95 30496.8 9329.39 30427.5 9451.28 30427.5 9620.25 30427.5 9719.98 30427.5 9828.02 30427.5 9977.61 30494 10099.5 30568.8 10226.9 30699 10285.1 30809.8 10285.1 30931.7 10285.1 31050.8 10224.2 31122.8 10105 31194.8 9985.92 31194.8 9825.25 31194.8 9719.98 31194.8 9620.25 31194.8 9470.67 31133.9 9348.78 31072.9 9224.13 30951.1 9143.78 30812.5 9143.78"/>
<path transform="matrix(.00359712,0,0,-.00359712,0,84)" d="M32081.2 9642.42C32142.1 9631.33 32369.3 9587.02 32369.3 9387.56 32369.3 9246.28 32272.3 9135.47 32056.3 9135.47 31823.6 9135.47 31723.8 9293.38 31671.2 9528.84 31662.9 9564.84 31660.1 9575.94 31632.4 9575.94 31596.4 9575.94 31596.4 9556.55 31596.4 9506.67V9141.02C31596.4 9093.92 31596.4 9074.53 31626.9 9074.53 31640.7 9074.53 31643.5 9077.3 31696.1 9129.94 31701.7 9135.47 31701.7 9141.02 31751.5 9193.64 31873.4 9077.3 31998.1 9074.53 32056.3 9074.53 32374.8 9074.53 32502.3 9260.13 32502.3 9459.58 32502.3 9606.41 32419.2 9689.52 32385.9 9722.75 32294.5 9811.39 32186.5 9833.56 32070.1 9855.72 31915 9886.19 31729.4 9922.2 31729.4 10082.9 31729.4 10179.8 31801.4 10293.4 32039.6 10293.4 32344.4 10293.4 32358.2 10044.1 32363.8 9958.22 32366.5 9933.28 32391.5 9933.28 32397 9933.28 32433 9933.28 32433 9947.14 32433 9999.77V10279.6C32433 10326.7 32433 10346 32402.5 10346 32388.7 10346 32383.2 10346 32347.1 10312.8 32338.8 10301.7 32311.1 10276.8 32300 10268.5 32194.8 10346 32081.2 10346 32039.6 10346 31701.7 10346 31596.4 10160.4 31596.4 10005.3 31596.4 9908.36 31640.7 9830.8 31715.5 9769.84 31804.2 9697.81 31881.8 9681.2 32081.2 9642.42"/>
<path transform="matrix(.00359712,0,0,-.00359712,0,84)" d="M33580 10257.8H33514.1C33508.3 10215.2 33488.9 10100.8 33463.7 10081.4 33448.2 10069.8 33298.9 10069.8 33271.8 10069.8H32915.1C33118.6 10250.1 33186.5 10304.4 33302.8 10395.5 33446.3 10509.9 33580 10630.1 33580 10814.3 33580 11048.8 33374.5 11192.3 33126.4 11192.3 32886 11192.3 32723.1 11023.6 32723.1 10845.3 32723.1 10746.4 32806.5 10736.7 32825.9 10736.7 32872.4 10736.7 32928.6 10769.7 32928.6 10839.5 32928.6 10874.3 32915.1 10942.2 32814.3 10942.2 32874.4 11079.9 33006.2 11122.5 33097.3 11122.5 33291.2 11122.5 33392 10971.3 33392 10814.3 33392 10645.6 33271.8 10511.8 33209.8 10442L32742.5 9980.61C32723.1 9963.16 32723.1 9959.28 32723.1 9905H33521.9L33580 10257.8"/>
<path transform="matrix(.00359712,0,0,-.00359712,0,84)" d="M35565.4 10490.1C35565.4 10672.9 35515.6 11058 35233 11058 34848 11058 34421.3 10276.8 34421.3 9642.42 34421.3 9382.02 34501.7 9074.53 34753.8 9074.53 35144.4 9074.53 35565.4 9869.58 35565.4 10490.1ZM34715 10110.6C34762.1 10287.9 34817.5 10509.5 34928.3 10706.2 35003.1 10841.9 35105.6 10997 35230.3 10997 35366 10997 35382.6 10819.8 35382.6 10661.8 35382.6 10526.1 35360.4 10384.8 35294 10110.6H34715ZM35269 10021.9C35238.5 9894.5 35180.4 9659.03 35075.1 9459.58 34978.2 9271.22 34872.9 9135.47 34753.8 9135.47 34662.4 9135.47 34604.2 9215.81 34604.2 9473.44 34604.2 9589.78 34620.8 9750.45 34692.8 10021.9H35269"/>
<path transform="matrix(.00359712,0,0,-.00359712,0,84)" d="M36624.8 9307.45C36638.3 9359.8 36661.6 9452.84 36661.6 9462.55 36661.6 9501.31 36630.6 9524.58 36597.6 9524.58 36560.8 9524.58 36525.9 9501.31 36514.3 9468.36 36508.4 9452.84 36489 9371.42 36475.5 9322.95 36448.3 9212.45 36448.3 9208.58 36419.3 9100 36394 8993.38 36390.2 8977.86 36388.2 8921.64 36396 8882.88 36380.5 8846.03 36334 8787.88 36308.8 8756.86 36270 8723.89 36204.1 8723.89 36128.5 8723.89 36029.6 8751.03 36029.6 8902.25 36029.6 9001.13 36083.9 9144.59 36122.6 9243.47 36155.6 9328.77 36163.3 9346.22 36163.3 9379.17 36163.3 9472.23 36083.9 9543.97 35979.2 9543.97 35783.4 9543.97 35696.1 9280.3 35696.1 9247.34 35696.1 9222.14 35723.3 9222.14 35729.1 9222.14 35756.2 9222.14 35758.2 9231.84 35764 9253.16 35812.4 9414.08 35895.8 9489.69 35973.4 9489.69 36006.3 9489.69 36021.8 9468.36 36021.8 9421.83 36021.8 9377.23 36004.4 9334.59 35994.7 9309.39 35884.2 9026.33 35884.2 8987.56 35884.2 8927.45 35884.2 8698.69 36091.6 8669.61 36196.3 8669.61 36233.1 8669.61 36328.1 8669.61 36415.4 8799.5 36460 8712.27 36566.6 8669.61 36684.9 8669.61 36857.4 8669.61 36942.7 8818.89 36981.5 8898.38 37064.8 9061.23 37117.2 9303.56 37117.2 9392.75 37117.2 9538.16 37033.8 9545.91 37020.3 9545.91 36969.8 9545.91 36915.6 9493.56 36915.6 9443.16 36915.6 9410.2 36935 9394.69 36948.5 9383.06 36995 9344.28 37020.3 9290 37020.3 9227.95 37020.3 9202.75 36938.8 8723.89 36692.6 8723.89 36535.6 8723.89 36535.6 8863.48 36535.6 8896.44 36535.6 8948.78 36543.3 8979.81 36570.5 9090.31L36624.8 9307.45"/>
<path transform="matrix(.00359712,0,0,-.00359712,0,84)" d="M39034.8 12048.4C39037.5 12065 39043.1 12078.8 39043.1 12098.2 39043.1 12145.3 39009.8 12173 38962.7 12173 38935 12173 38860.2 12153.6 38849.2 12053.9 38799.3 12156.4 38702.3 12228.4 38591.5 12228.4 38275.7 12228.4 37932.2 11840.6 37932.2 11441.7 37932.2 11167.4 38101.2 11004 38300.7 11004 38464.1 11004 38594.3 11134.2 38622 11164.7L38624.8 11161.9C38566.6 10915.4 38533.4 10801.8 38533.4 10796.2 38522.3 10771.3 38428.1 10497.1 38134.5 10497.1 38081.8 10497.1 37990.4 10499.8 37912.8 10524.8 37995.9 10549.7 38026.4 10621.7 38026.4 10668.8 38026.4 10713.1 37995.9 10765.8 37921.1 10765.8 37860.2 10765.8 37771.5 10715.9 37771.5 10605.1 37771.5 10491.5 37874 10436.1 38140 10436.1 38486.3 10436.1 38685.7 10652.2 38727.3 10818.4L39034.8 12048.4ZM38674.6 11358.6C38658 11286.6 38594.3 11217.3 38533.4 11164.7 38475.2 11114.8 38389.3 11064.9 38309 11064.9 38170.5 11064.9 38128.9 11209 38128.9 11319.8 38128.9 11452.8 38209.3 11779.7 38284 11920.9 38358.8 12056.7 38478 12167.5 38594.3 12167.5 38777.1 12167.5 38815.9 11943.1 38815.9 11929.3 38815.9 11915.4 38810.4 11898.8 38807.6 11887.7L38674.6 11358.6"/>
<path transform="matrix(.00359712,0,0,-.00359712,0,84)" d="M39155.7 10276.9C39147.9 10247.8 39147.9 10238.1 39147.9 10236.2 39147.9 10193.5 39182.8 10174.1 39213.8 10174.1 39283.6 10174.1 39299.2 10238.1 39306.9 10271 39310.8 10280.8 39349.6 10435.8 39396.1 10625.8 39456.2 10585.1 39533.7 10569.6 39603.5 10569.6 39770.3 10569.6 39878.8 10705.3 39882.7 10709.2 39919.5 10575.4 40053.3 10569.6 40082.4 10569.6 40152.2 10569.6 40200.7 10612.3 40235.5 10672.4 40278.2 10748 40303.4 10858.5 40303.4 10866.2 40303.4 10891.4 40278.2 10891.4 40272.4 10891.4 40245.2 10891.4 40243.3 10883.7 40229.7 10831.3 40206.5 10738.3 40169.6 10623.9 40088.2 10623.9 40037.8 10623.9 40024.2 10666.5 40024.2 10718.9 40024.2 10751.8 40039.7 10821.6 40053.3 10872 40066.9 10924.4 40086.3 11003.9 40096 11046.5L40140.5 11219.1C40152.2 11267.5 40173.5 11352.8 40173.5 11362.5 40173.5 11401.3 40142.5 11424.6 40109.5 11424.6 40088.2 11424.6 40051.4 11414.9 40030 11378 40024.2 11366.4 40008.7 11304.4 39999 11265.6L39958.3 11104.7 39898.2 10862.4C39884.6 10813.9 39884.6 10810 39867.2 10784.8 39807.1 10699.5 39721.8 10623.9 39611.3 10623.9 39452.3 10623.9 39452.3 10761.5 39452.3 10796.4 39452.3 10846.8 39458.1 10872 39485.3 10976.7 39504.7 11062 39508.5 11075.6 39527.9 11151.2L39555.1 11259.8C39564.8 11300.5 39584.1 11374.2 39584.1 11381.9 39584.1 11416.8 39557 11444 39518.2 11444 39448.4 11444 39431 11376.1 39425.2 11352.8L39155.7 10276.9"/>
<path transform="matrix(.00359712,0,0,-.00359712,0,84)" d="M40883.6 11387.8C40885.5 11395.5 40887.5 11407.1 40887.5 11416.8 40887.5 11418.8 40887.5 11444 40856.5 11444 40854.5 11444 40744 11434.3 40730.5 11434.3 40693.6 11430.4 40658.7 11428.5 40621.9 11424.6 40590.9 11422.6 40567.6 11420.7 40567.6 11380 40567.6 11352.8 40594.8 11352.8 40618 11352.8 40711.1 11352.8 40711.1 11341.2 40711.1 11323.8 40711.1 11312.1 40701.4 11273.4 40693.6 11248.2L40596.7 10856.5C40548.2 10662.7 40538.5 10623.9 40538.5 10616.1 40538.5 10589 40567.6 10589 40575.4 10589H40606.4C40778.9 10616.1 41025.1 10707.3 41232.6 10891.4 41496.3 11126 41535 11378 41535 11381.9 41535 11416.8 41507.9 11444 41469.1 11444 41401.3 11444 41387.7 11389.7 41370.2 11335.4 41292.7 11060.1 41032.9 10763.5 40703.3 10666.5L40883.6 11387.8"/>
<path transform="matrix(.00359712,0,0,-.00359712,0,84)" d="M44448.1 11909.8C44489.7 11909.8 44542.3 11909.8 44542.3 11965.3 44542.3 12020.7 44489.7 12020.7 44450.9 12020.7H42791.5C42752.8 12020.7 42700.1 12020.7 42700.1 11965.3 42700.1 11909.8 42752.8 11909.8 42794.3 11909.8H44448.1ZM44450.9 11372.4C44489.7 11372.4 44542.3 11372.4 44542.3 11427.8 44542.3 11483.3 44489.7 11483.3 44448.1 11483.3H42794.3C42752.8 11483.3 42700.1 11483.3 42700.1 11427.8 42700.1 11372.4 42752.8 11372.4 42791.5 11372.4H44450.9"/>
<path transform="matrix(.00359712,0,0,-.00359712,0,84)" d="M46255.7 12735.4C46255.7 12790.8 46217 12835.1 46153.2 12835.1 46078.4 12835.1 46003.6 12763.1 46003.6 12688.3 46003.6 12635.6 46042.4 12588.5 46108.9 12588.5 46172.6 12588.5 46255.7 12652.3 46255.7 12735.4ZM46045.2 11693.8C46078.4 11774.1 46078.4 11779.7 46106.1 11854.5 46128.3 11909.8 46142.2 11948.6 46142.2 12001.3 46142.2 12125.9 46053.5 12228.4 45915 12228.4 45654.6 12228.4 45549.3 11826.8 45549.3 11801.8 45549.3 11774.1 45577 11774.1 45582.6 11774.1 45610.3 11774.1 45613 11779.7 45626.9 11824 45701.7 12084.4 45812.5 12167.5 45906.7 12167.5 45928.8 12167.5 45975.9 12167.5 45975.9 12078.8 45975.9 12020.7 45956.5 11962.5 45945.5 11934.8 45923.3 11862.8 45798.7 11541.4 45754.3 11422.3 45726.6 11350.3 45690.6 11258.9 45690.6 11200.7 45690.6 11070.5 45784.8 10973.5 45917.8 10973.5 46178.2 10973.5 46280.7 11375.2 46280.7 11400.1 46280.7 11427.8 46255.7 11427.8 46247.4 11427.8 46219.7 11427.8 46219.7 11419.5 46205.9 11378 46156 11203.5 46064.6 11034.5 45923.3 11034.5 45876.2 11034.5 45856.8 11062.2 45856.8 11125.9 45856.8 11195.1 45873.5 11233.9 45937.2 11402.9L46045.2 11693.8"/>
<path transform="matrix(.00359712,0,0,-.00359712,0,84)" d="M48873.8 13922.4C48876.5 13939 48882.1 13952.8 48882.1 13972.2 48882.1 14019.3 48848.8 14047 48801.7 14047 48774 14047 48699.2 14027.6 48688.2 13927.9 48638.3 14030.4 48541.3 14102.4 48430.5 14102.4 48114.7 14102.4 47771.2 13714.6 47771.2 13315.7 47771.2 13041.4 47940.2 12878 48139.7 12878 48303.1 12878 48433.3 13008.2 48461 13038.7L48463.8 13035.9C48405.6 12789.4 48372.4 12675.8 48372.4 12670.2 48361.3 12645.3 48267.1 12371.1 47973.5 12371.1 47920.8 12371.1 47829.4 12373.8 47751.8 12398.8 47834.9 12423.7 47865.4 12495.7 47865.4 12542.8 47865.4 12587.1 47834.9 12639.8 47760.1 12639.8 47699.2 12639.8 47610.5 12589.9 47610.5 12479.1 47610.5 12365.5 47713 12310.1 47979 12310.1 48325.3 12310.1 48524.7 12526.2 48566.3 12692.4L48873.8 13922.4ZM48513.6 13232.6C48497 13160.6 48433.3 13091.3 48372.4 13038.7 48314.2 12988.8 48228.3 12938.9 48148 12938.9 48009.5 12938.9 47967.9 13083 47967.9 13193.8 47967.9 13326.8 48048.3 13653.7 48123 13794.9 48197.8 13930.7 48317 14041.5 48433.3 14041.5 48616.1 14041.5 48654.9 13817.1 48654.9 13803.3 48654.9 13789.4 48649.4 13772.8 48646.6 13761.7L48513.6 13232.6"/>
<path transform="matrix(.00359712,0,0,-.00359712,0,84)" d="M49227.8 13041.4C49219.5 12999.9 49202.8 12936.2 49202.8 12922.3 49202.8 12872.5 49241.6 12847.5 49283.2 12847.5 49316.4 12847.5 49366.3 12869.7 49385.7 12925.1 49388.5 12930.6 49421.7 13060.8 49438.3 13130.1L49499.3 13379.4C49515.9 13440.3 49532.5 13501.3 49546.3 13565 49557.4 13612.1 49579.6 13692.4 49582.4 13703.5 49623.9 13789.4 49770.7 14041.5 50033.9 14041.5 50158.6 14041.5 50183.5 13939 50183.5 13847.6 50183.5 13778.3 50164.1 13700.8 50141.9 13617.6L50064.4 13296.3 50009 13085.8C49997.9 13030.4 49973 12936.2 49973 12922.3 49973 12872.5 50011.7 12847.5 50053.3 12847.5 50139.2 12847.5 50155.8 12916.8 50178 13005.4 50216.7 13160.6 50319.2 13565 50344.2 13673 50352.5 13709.1 50499.3 14041.5 50801.3 14041.5 50920.4 14041.5 50950.8 13947.3 50950.8 13847.6 50950.8 13689.7 50834.5 13373.9 50779.1 13227 50754.2 13160.6 50743.1 13130.1 50743.1 13074.7 50743.1 12944.5 50840 12847.5 50970.2 12847.5 51230.6 12847.5 51333.1 13252 51333.1 13274.1 51333.1 13301.8 51308.2 13301.8 51299.9 13301.8 51272.2 13301.8 51272.2 13293.5 51258.3 13252 51216.8 13105.2 51128.1 12908.5 50975.8 12908.5 50928.7 12908.5 50909.3 12936.2 50909.3 12999.9 50909.3 13069.1 50934.2 13135.6 50959.1 13196.6 51011.8 13340.6 51128.1 13648.1 51128.1 13806 51128.1 13986.1 51017.3 14102.4 50809.5 14102.4 50601.8 14102.4 50460.5 13980.5 50358 13833.7 50355.3 13869.7 50346.9 13963.9 50269.4 14030.4 50200.1 14088.6 50111.5 14102.4 50042.2 14102.4 49792.9 14102.4 49657.2 13925.1 49610.1 13861.4 49596.2 14019.3 49479.9 14102.4 49355.2 14102.4 49227.8 14102.4 49175.1 13994.4 49150.2 13944.5 49100.3 13847.6 49064.3 13684.1 49064.3 13675.8 49064.3 13648.1 49092 13648.1 49097.6 13648.1 49125.3 13648.1 49128 13650.9 49144.7 13711.8 49191.8 13908.5 49247.2 14041.5 49346.9 14041.5 49391.2 14041.5 49432.8 14019.3 49432.8 13914 49432.8 13855.9 49424.5 13825.4 49388.5 13681.4L49227.8 13041.4"/>
<path transform="matrix(.00359712,0,0,-.00359712,0,84)" d="M52939 13710.5C52954.5 13726 52966.1 13739.6 52966.1 13764.8 52966.1 13786.1 52950.6 13786.1 52913.8 13786.1H52008.4C51958 13786.1 51956.1 13784.2 51944.5 13747.4L51835.9 13398.4C51828.1 13375.1 51828.1 13373.2 51828.1 13367.4 51828.1 13357.7 51835.9 13340.2 51861.1 13340.2 51886.3 13340.2 51890.2 13351.9 51896 13371.3 51989 13644.6 52140.3 13716.3 52390.3 13716.3H52739.3L51609 12547.3C51595.5 12533.7 51576.1 12514.3 51576.1 12483.3 51576.1 12462 51593.5 12462 51628.4 12462H52566.8C52617.2 12462 52619.1 12463.9 52630.8 12500.8L52770.3 12933.1C52778.1 12958.3 52778.1 12962.2 52778.1 12964.1 52778.1 12966.1 52778.1 12991.3 52747.1 12991.3 52721.9 12991.3 52718 12983.5 52704.4 12940.9 52615.2 12675.3 52516.4 12539.5 52179 12539.5H51808.7L52939 13710.5"/>
<path transform="matrix(.00359712,0,0,-.00359712,0,84)" stroke-width="110.783" stroke-linecap="butt" stroke-miterlimit="10" stroke-linejoin="miter" fill="none" stroke="#000000" d="M46755.4 11696.8H54018.2"/>
<path transform="matrix(.00359712,0,0,-.00359712,0,84)" d="M47079.1 9708.91C47079.1 10160.4 47306.3 10276.8 47453.1 10276.8 47478 10276.8 47652.5 10274 47749.5 10174.3 47635.9 10166 47619.3 10082.9 47619.3 10046.9 47619.3 9974.84 47669.2 9919.44 47746.7 9919.44 47818.8 9919.44 47874.2 9966.53 47874.2 10049.6 47874.2 10238 47663.6 10346 47450.3 10346 47104 10346 46849.2 10046.9 46849.2 9703.36 46849.2 9348.78 47123.4 9074.53 47444.8 9074.53 47816 9074.53 47904.6 9406.95 47904.6 9434.66 47904.6 9462.36 47876.9 9462.36 47868.6 9462.36 47843.7 9462.36 47838.1 9451.28 47832.6 9434.66 47752.3 9177.03 47572.2 9143.78 47469.7 9143.78 47322.9 9143.78 47079.1 9262.91 47079.1 9708.91"/>
<path transform="matrix(.00359712,0,0,-.00359712,0,84)" d="M49289.8 9697.81C49289.8 10052.4 49012.7 10346 48677.5 10346 48331.3 10346 48062.6 10044.1 48062.6 9697.81 48062.6 9340.47 48350.7 9074.53 48674.8 9074.53 49010 9074.53 49289.8 9346 49289.8 9697.81ZM48677.5 9143.78C48558.4 9143.78 48436.5 9201.95 48361.8 9329.39 48292.5 9451.28 48292.5 9620.25 48292.5 9719.98 48292.5 9828.02 48292.5 9977.61 48359 10099.5 48433.8 10226.9 48564 10285.1 48674.8 10285.1 48796.7 10285.1 48915.8 10224.2 48987.8 10105 49059.8 9985.92 49059.8 9825.25 49059.8 9719.98 49059.8 9620.25 49059.8 9470.67 48998.9 9348.78 48937.9 9224.13 48816.1 9143.78 48677.5 9143.78"/>
<path transform="matrix(.00359712,0,0,-.00359712,0,84)" d="M49946.2 9642.42C50007.1 9631.33 50234.3 9587.02 50234.3 9387.56 50234.3 9246.28 50137.3 9135.47 49921.3 9135.47 49688.6 9135.47 49588.8 9293.38 49536.2 9528.84 49527.9 9564.84 49525.1 9575.94 49497.4 9575.94 49461.4 9575.94 49461.4 9556.55 49461.4 9506.67V9141.02C49461.4 9093.92 49461.4 9074.53 49491.9 9074.53 49505.7 9074.53 49508.5 9077.3 49561.1 9129.94 49566.7 9135.47 49566.7 9141.02 49616.5 9193.64 49738.4 9077.3 49863.1 9074.53 49921.3 9074.53 50239.8 9074.53 50367.3 9260.13 50367.3 9459.58 50367.3 9606.41 50284.2 9689.52 50250.9 9722.75 50159.5 9811.39 50051.5 9833.56 49935.1 9855.72 49780 9886.19 49594.4 9922.2 49594.4 10082.9 49594.4 10179.8 49666.4 10293.4 49904.6 10293.4 50209.4 10293.4 50223.2 10044.1 50228.8 9958.22 50231.5 9933.28 50256.5 9933.28 50262 9933.28 50298 9933.28 50298 9947.14 50298 9999.77V10279.6C50298 10326.7 50298 10346 50267.5 10346 50253.7 10346 50248.2 10346 50212.1 10312.8 50203.8 10301.7 50176.1 10276.8 50165 10268.5 50059.8 10346 49946.2 10346 49904.6 10346 49566.7 10346 49461.4 10160.4 49461.4 10005.3 49461.4 9908.36 49505.7 9830.8 49580.5 9769.84 49669.2 9697.81 49746.8 9681.2 49946.2 9642.42"/>
<path transform="matrix(.00359712,0,0,-.00359712,0,84)" d="M52185.4 10490.1C52185.4 10672.9 52135.6 11058 51853 11058 51468 11058 51041.3 10276.8 51041.3 9642.42 51041.3 9382.02 51121.7 9074.53 51373.8 9074.53 51764.4 9074.53 52185.4 9869.58 52185.4 10490.1ZM51335 10110.6C51382.1 10287.9 51437.5 10509.5 51548.3 10706.2 51623.1 10841.9 51725.6 10997 51850.3 10997 51986 10997 52002.6 10819.8 52002.6 10661.8 52002.6 10526.1 51980.4 10384.8 51914 10110.6H51335ZM51889 10021.9C51858.5 9894.5 51800.4 9659.03 51695.1 9459.58 51598.2 9271.22 51492.9 9135.47 51373.8 9135.47 51282.4 9135.47 51224.2 9215.81 51224.2 9473.44 51224.2 9589.78 51240.8 9750.45 51312.8 10021.9H51889"/>
<path transform="matrix(.00359712,0,0,-.00359712,0,84)" d="M53244.8 9307.45C53258.3 9359.8 53281.6 9452.84 53281.6 9462.55 53281.6 9501.31 53250.6 9524.58 53217.6 9524.58 53180.8 9524.58 53145.9 9501.31 53134.3 9468.36 53128.4 9452.84 53109 9371.42 53095.5 9322.95 53068.3 9212.45 53068.3 9208.58 53039.3 9100 53014 8993.38 53010.2 8977.86 53008.2 8921.64 53016 8882.88 53000.5 8846.03 52954 8787.88 52928.8 8756.86 52890 8723.89 52824.1 8723.89 52748.5 8723.89 52649.6 8751.03 52649.6 8902.25 52649.6 9001.13 52703.9 9144.59 52742.6 9243.47 52775.6 9328.77 52783.3 9346.22 52783.3 9379.17 52783.3 9472.23 52703.9 9543.97 52599.2 9543.97 52403.4 9543.97 52316.1 9280.3 52316.1 9247.34 52316.1 9222.14 52343.3 9222.14 52349.1 9222.14 52376.2 9222.14 52378.2 9231.84 52384 9253.16 52432.4 9414.08 52515.8 9489.69 52593.4 9489.69 52626.3 9489.69 52641.8 9468.36 52641.8 9421.83 52641.8 9377.23 52624.4 9334.59 52614.7 9309.39 52504.2 9026.33 52504.2 8987.56 52504.2 8927.45 52504.2 8698.69 52711.6 8669.61 52816.3 8669.61 52853.1 8669.61 52948.1 8669.61 53035.4 8799.5 53080 8712.27 53186.6 8669.61 53304.9 8669.61 53477.4 8669.61 53562.7 8818.89 53601.5 8898.38 53684.8 9061.23 53737.2 9303.56 53737.2 9392.75 53737.2 9538.16 53653.8 9545.91 53640.3 9545.91 53589.8 9545.91 53535.6 9493.56 53535.6 9443.16 53535.6 9410.2 53555 9394.69 53568.5 9383.06 53615 9344.28 53640.3 9290 53640.3 9227.95 53640.3 9202.75 53558.8 8723.89 53312.6 8723.89 53155.6 8723.89 53155.6 8863.48 53155.6 8896.44 53155.6 8948.78 53163.3 8979.81 53190.5 9090.31L53244.8 9307.45"/>
<path transform="matrix(.00359712,0,0,-.00359712,0,84)" d="M55655.8 12048.4C55658.5 12065 55664.1 12078.8 55664.1 12098.2 55664.1 12145.3 55630.8 12173 55583.7 12173 55556 12173 55481.2 12153.6 55470.2 12053.9 55420.3 12156.4 55323.3 12228.4 55212.5 12228.4 54896.7 12228.4 54553.2 11840.6 54553.2 11441.7 54553.2 11167.4 54722.2 11004 54921.7 11004 55085.1 11004 55215.3 11134.2 55243 11164.7L55245.8 11161.9C55187.6 10915.4 55154.4 10801.8 55154.4 10796.2 55143.3 10771.3 55049.1 10497.1 54755.5 10497.1 54702.8 10497.1 54611.4 10499.8 54533.8 10524.8 54616.9 10549.7 54647.4 10621.7 54647.4 10668.8 54647.4 10713.1 54616.9 10765.8 54542.1 10765.8 54481.2 10765.8 54392.5 10715.9 54392.5 10605.1 54392.5 10491.5 54495 10436.1 54761 10436.1 55107.3 10436.1 55306.7 10652.2 55348.3 10818.4L55655.8 12048.4ZM55295.6 11358.6C55279 11286.6 55215.3 11217.3 55154.4 11164.7 55096.2 11114.8 55010.3 11064.9 54930 11064.9 54791.5 11064.9 54749.9 11209 54749.9 11319.8 54749.9 11452.8 54830.3 11779.7 54905 11920.9 54979.8 12056.7 55099 12167.5 55215.3 12167.5 55398.1 12167.5 55436.9 11943.1 55436.9 11929.3 55436.9 11915.4 55431.4 11898.8 55428.6 11887.7L55295.6 11358.6"/>
<path transform="matrix(.00359712,0,0,-.00359712,0,84)" d="M55776.7 10276.9C55768.9 10247.8 55768.9 10238.1 55768.9 10236.2 55768.9 10193.5 55803.8 10174.1 55834.8 10174.1 55904.6 10174.1 55920.2 10238.1 55927.9 10271 55931.8 10280.8 55970.6 10435.8 56017.1 10625.8 56077.2 10585.1 56154.7 10569.6 56224.5 10569.6 56391.3 10569.6 56499.8 10705.3 56503.7 10709.2 56540.5 10575.4 56674.3 10569.6 56703.4 10569.6 56773.2 10569.6 56821.7 10612.3 56856.5 10672.4 56899.2 10748 56924.4 10858.5 56924.4 10866.2 56924.4 10891.4 56899.2 10891.4 56893.4 10891.4 56866.2 10891.4 56864.3 10883.7 56850.7 10831.3 56827.5 10738.3 56790.6 10623.9 56709.2 10623.9 56658.8 10623.9 56645.2 10666.5 56645.2 10718.9 56645.2 10751.8 56660.7 10821.6 56674.3 10872 56687.9 10924.4 56707.3 11003.9 56717 11046.5L56761.5 11219.1C56773.2 11267.5 56794.5 11352.8 56794.5 11362.5 56794.5 11401.3 56763.5 11424.6 56730.5 11424.6 56709.2 11424.6 56672.4 11414.9 56651 11378 56645.2 11366.4 56629.7 11304.4 56620 11265.6L56579.3 11104.7 56519.2 10862.4C56505.6 10813.9 56505.6 10810 56488.2 10784.8 56428.1 10699.5 56342.8 10623.9 56232.3 10623.9 56073.3 10623.9 56073.3 10761.5 56073.3 10796.4 56073.3 10846.8 56079.1 10872 56106.3 10976.7 56125.7 11062 56129.5 11075.6 56148.9 11151.2L56176.1 11259.8C56185.8 11300.5 56205.1 11374.2 56205.1 11381.9 56205.1 11416.8 56178 11444 56139.2 11444 56069.4 11444 56052 11376.1 56046.2 11352.8L55776.7 10276.9"/>
<path transform="matrix(.00359712,0,0,-.00359712,0,84)" d="M57503.6 11387.8C57505.5 11395.5 57507.5 11407.1 57507.5 11416.8 57507.5 11418.8 57507.5 11444 57476.5 11444 57474.5 11444 57364 11434.3 57350.5 11434.3 57313.6 11430.4 57278.7 11428.5 57241.9 11424.6 57210.9 11422.6 57187.6 11420.7 57187.6 11380 57187.6 11352.8 57214.8 11352.8 57238 11352.8 57331.1 11352.8 57331.1 11341.2 57331.1 11323.8 57331.1 11312.1 57321.4 11273.4 57313.6 11248.2L57216.7 10856.5C57168.2 10662.7 57158.5 10623.9 57158.5 10616.1 57158.5 10589 57187.6 10589 57195.4 10589H57226.4C57398.9 10616.1 57645.1 10707.3 57852.6 10891.4 58116.3 11126 58155 11378 58155 11381.9 58155 11416.8 58127.9 11444 58089.1 11444 58021.3 11444 58007.7 11389.7 57990.2 11335.4 57912.7 11060.1 57652.9 10763.5 57323.3 10666.5L57503.6 11387.8"/>
<path transform="matrix(.00359712,0,0,-.00359712,0,84)" d="M58927.9 11150.8C58927.9 11231.2 58861.4 11297.6 58781.1 11297.6 58700.7 11297.6 58634.2 11231.2 58634.2 11150.8 58634.2 11070.5 58700.7 11004 58781.1 11004 58861.4 11004 58927.9 11070.5 58927.9 11150.8"/>
</svg>
