<?xml version="1.0" standalone="no"?>
<!DOCTYPE svg PUBLIC "-//W3C//DTD SVG 1.1//EN" "http://www.w3.org/Graphics/SVG/1.1/DTD/svg11.dtd">
<svg xmlns="http://www.w3.org/2000/svg" xmlns:xlink="http://www.w3.org/1999/xlink" version="1.1" width="12.832644cm" height="2.6842859cm" viewBox="0 0 363.76 76.09">
<path transform="matrix(.00359712,0,0,-.00359712,0,76.09)" d="M 392.031 667.906 C 472.359 667.906 677.359 673.453 815.859 731.625 C 1009.78 814.734 1023.63 978.172 1023.63 1016.95 C 1023.63 1138.84 918.359 1252.42 727.219 1252.42 C 419.734 1252.42 1.42188 983.719 1.42188 498.938 C 1.42188 216.375 164.875 -2.46875 436.344 -2.46875 C 832.484 -2.46875 1065.19 291.172 1065.19 324.406 C 1065.19 341.031 1048.56 360.422 1031.94 360.422 C 1018.09 360.422 1012.55 354.875 995.922 332.719 C 777.078 58.4688 475.125 58.4688 441.891 58.4688 C 225.813 58.4688 200.875 291.172 200.875 379.813 C 200.875 413.063 203.656 498.938 245.203 667.906 L 392.031 667.906 Z M 261.828 728.859 C 369.859 1149.92 655.188 1191.48 727.219 1191.48 C 857.422 1191.48 932.218943 1111.14 932.218943 1016.95 C 932.218943 728.859 488.984 728.859 375.406 728.859 L 261.828 728.859 "/>
<path transform="matrix(.00359712,0,0,-.00359712,0,76.09)" d="M 2606.39 1470.14 C 2637.41 1470.14 2683.94 1470.14 2683.94 1516.67 C 2683.94 1565.14 2639.34 1565.14 2606.39 1565.14 L 1450.92 1565.14 C 1419.91 1565.14 1373.38 1565.14 1373.38 1518.61 C 1373.38 1470.14 1417.97 1470.14 1450.92 1470.14 L 2606.39 1470.14 "/>
<path transform="matrix(.00359712,0,0,-.00359712,0,76.09)" d="M 34046 667.906 C 34126.4 667.906 34331.4 673.453 34469.9 731.625 C 34663.8 814.734 34677.6 978.172 34677.6 1016.95 C 34677.6 1138.84 34572.4 1252.42 34381.2 1252.42 C 34073.7 1252.42 33655.4 983.719 33655.4 498.938 C 33655.4 216.375 33818.9 -2.46875 34090.3 -2.46875 C 34486.5 -2.46875 34719.2 291.172 34719.2 324.406 C 34719.2 341.031 34702.6 360.422 34685.9 360.422 C 34672.1 360.422 34666.5 354.875 34649.9 332.719 C 34431.1 58.4688 34129.1 58.4688 34095.9 58.4688 C 33879.8 58.4688 33854.9 291.172 33854.9 379.813 C 33854.9 413.063 33857.7 498.938 33899.2 667.906 L 34046 667.906 Z M 33915.8 728.859 C 34023.9 1149.92 34309.2 1191.48 34381.2 1191.48 C 34511.4 1191.48 34586.2 1111.14 34586.2 1016.95 C 34586.2 728.859 34143 728.859 34029.4 728.859 L 33915.8 728.859 "/>
<path transform="matrix(.00359712,0,0,-.00359712,0,76.09)" d="M 35714.6 1470.14 L 36307.9 1470.14 C 36333.1 1470.14 36379.6 1470.14 36379.6 1516.67 C 36379.6 1565.14 36335 1565.14 36307.9 1565.14 L 35714.6 1565.14 L 35714.6 2160.33 C 35714.6 2185.53 35714.6 2232.06 35668.1 2232.06 C 35619.6 2232.06 35619.6 2187.47 35619.6 2160.33 L 35619.6 1565.14 L 35024.4 1565.14 C 34999.2 1565.14 34952.7 1565.14 34952.7 1518.61 C 34952.7 1470.14 34997.3 1470.14 35024.4 1470.14 L 35619.6 1470.14 L 35619.6 874.969 C 35619.6 849.766 35619.6 803.234 35666.2 803.234 C 35714.6 803.234 35714.6 847.828 35714.6 874.969 L 35714.6 1470.14 "/>
<path transform="matrix(.00359712,0,0,-.00359712,0,76.09)" stroke-width="110.783" stroke-linecap="butt" stroke-miterlimit="10" stroke-linejoin="miter" fill="none" stroke="rgb(0,0,0)" d="M 3628.96 3211.36 L 12370.2 11569.8 "/>
<path transform="matrix(.00359712,0,0,-.00359712,0,76.09)" d="M 8734.27 8093.01 L 6883.92 7374.63035 L 7933.78 6276.67035 "/>
<path transform="matrix(.00359712,0,0,-.00359712,0,76.09)" d="M 4509.66 8570.03 C 4487.5 8475.84046 4481.95 8456.45 4360.06 8456.45 C 4326.83 8456.45 4296.36 8456.45 4296.36 8403.83 C 4296.36 8381.67 4310.2 8370.58 4332.36 8370.58 C 4407.16 8370.58 4487.5 8378.89 4565.06 8378.89 C 4656.48 8378.89 4750.67 8370.58 4839.31 8370.58 C 4853.16 8370.58 4889.17 8370.58 4889.17 8425.98 C 4889.17 8456.45 4861.47 8456.45 4822.69 8456.45 C 4684.19 8456.45 4684.19 8475.84046 4684.19 8500.78095 C 4684.19 8534.03081 4800.53 8985.56031 4819.92 9054.81 C 4855.94024 8974.48 4933.5 8877.53095 5074.78 8877.53095 C 5396.13 8877.53095 5742.39053 9281.97 5742.39053 9689.19 C 5742.39053 9949.59058 5584.48 10132.4 5373.95 10132.4 C 5235.45 10132.4 5102.48031 10032.7 5011.06 9924.66 C 4983.36 10074.3 4864.25 10132.4 4761.75 10132.4 C 4634.31 10132.4 4581.69021 10024.4 4556.75 9974.52 C 4506.89 9880.33 4470.88 9714.13 4470.88 9705.81 C 4470.88 9678.11097 4498.58 9678.11097 4504.13 9678.11097 C 4531.81 9678.11097 4534.59014 9680.88044 4551.22 9741.83072 C 4598.3 9938.52033 4653.7 10071.5 4753.44028 10071.5 C 4800.53 10071.5 4839.31 10049.3 4839.31 9944.05 C 4839.31 9880.33 4831 9849.86104 4819.92 9802.77 L 4509.66 8570.03 Z M 4997.22 9772.30062 C 5016.61 9847.09062 5091.39 9924.66 5141.27 9966.22 C 5238.22059 10052.1 5318.55 10071.5 5365.64 10071.5 C 5476.45 10071.5 5542.94 9974.52 5542.94 9811.08083 C 5542.94 9647.64 5451.52034 9329.06 5401.66 9223.80055 C 5307.47 9029.89 5174.50036 8938.47 5072 8938.47 C 4889.17 8938.47 4853.16 9168.39 4853.16 9185.02 C 4853.16 9190.56024 4853.16 9196.09059 4861.47 9229.34045 L 4997.22 9772.30062 "/>
<path transform="matrix(.00359712,0,0,-.00359712,0,76.09)" d="M 6428.47051 9725.02 C 6428.47051 9777.36 6424.59 9779.30058 6370.30019 9779.30058 C 6246.23 9657.16 6069.81 9655.22 5990.31 9655.22 L 5990.31 9585.42 C 6036.84 9585.42 6164.8 9585.42 6271.44 9639.70078 L 6271.44 8650.97035 C 6271.44 8587.00074 6271.44 8561.8 6077.56 8561.8 L 6003.89041 8561.8 L 6003.89041 8492 C 6038.78011 8493.9412 6277.25 8499.75 6348.98032 8499.75 C 6409.08 8499.75 6653.36026 8493.9412 6696 8492 L 6696 8561.8 L 6622.33 8561.8 C 6428.47051 8561.8 6428.47051 8587.00074 6428.47051 8650.97035 L 6428.47051 9725.02 "/>
<path transform="matrix(.00359712,0,0,-.00359712,0,76.09)" stroke-width="110.783" stroke-linecap="butt" stroke-miterlimit="10" stroke-linejoin="miter" fill="none" stroke="rgb(0,0,0)" d="M 33245.3 6172.51 L 27750.2 11434.5 "/>
<path transform="matrix(.00359712,0,0,-.00359712,0,76.09)" d="M 27249 11914.4 L 27707.3 10957.6 L 27730.2 11453.6 L 28224.7 11498 Z "/>
<path transform="matrix(.00359712,0,0,-.00359712,0,76.09)" stroke-width="110.777" stroke-linecap="butt" stroke-miterlimit="10" stroke-linejoin="miter" fill="none" stroke="rgb(0,0,0)" d="M 27249 11914.4 L 27707.3 10957.6 L 27730.2 11453.6 L 28224.7 11498 Z "/>
<path transform="matrix(.00359712,0,0,-.00359712,0,76.09)" d="M 31237.7 10222 C 31215.5 10127.8 31210 10108.5 31088.1 10108.5 C 31054.8 10108.5 31024.4 10108.5 31024.4 10055.8 C 31024.4 10033.7 31038.2 10022.6 31060.4 10022.6 C 31135.2 10022.6 31215.5 10030.9 31293.1 10030.9 C 31384.5 10030.9 31478.7 10022.6 31567.3 10022.6 C 31581.2 10022.6 31617.2 10022.6 31617.2 10078 C 31617.2 10108.5 31589.5 10108.5 31550.7 10108.5 C 31412.2 10108.5 31412.2 10127.8 31412.2 10152.8 C 31412.2 10186 31528.5 10637.6 31547.9 10706.8 C 31583.9 10626.5 31661.5 10529.5 31802.8 10529.5 C 32124.1 10529.5 32470.4 10934 32470.4 11341.2 C 32470.4 11601.6 32312.5 11784.4 32102 11784.4 C 31963.5 11784.4 31830.5 11684.7 31739.1 11576.7 C 31711.4 11726.3 31592.3 11784.4 31489.8 11784.4 C 31362.3 11784.4 31309.7 11676.4 31284.8 11626.5 C 31234.9 11532.3 31198.9 11366.1 31198.9 11357.8 C 31198.9 11330.1 31226.6 11330.1 31232.1 11330.1 C 31259.8 11330.1 31262.6 11332.9 31279.2 11393.8 C 31326.3 11590.5 31381.7 11723.5 31481.4 11723.5 C 31528.5 11723.5 31567.3 11701.3 31567.3 11596 C 31567.3 11532.3 31559 11501.9 31547.9 11454.8 L 31237.7 10222 Z M 31725.2 11424.3 C 31744.6 11499.1 31819.4 11576.7 31869.3 11618.2 C 31966.2 11704.1 32046.5 11723.5 32093.6 11723.5 C 32204.5 11723.5 32270.9 11626.5 32270.9 11463.1 C 32270.9 11299.6 32179.5 10981.1 32129.7 10875.8 C 32035.5 10681.9 31902.5 10590.5 31800 10590.5 C 31617.2 10590.5 31581.2 10820.4 31581.2 10837 C 31581.2 10842.6 31581.2 10848.1 31589.5 10881.3 L 31725.2 11424.3 "/>
<path transform="matrix(.00359712,0,0,-.00359712,0,76.09)" d="M 33486 10496.8 L 33420.1 10496.8 C 33414.3 10454.2 33394.9 10339.8 33369.7 10320.4 C 33354.2 10308.8 33204.9 10308.8 33177.8 10308.8 L 32821.1 10308.8 C 33024.6 10489.1 33092.5 10543.4 33208.8 10634.5 C 33352.3 10748.9 33486 10869.1 33486 11053.3 C 33486 11287.8 33280.5 11431.3 33032.4 11431.3 C 32792 11431.3 32629.1 11262.6 32629.1 11084.3 C 32629.1 10985.4 32712.5 10975.7 32731.9 10975.7 C 32778.4 10975.7 32834.6 11008.7 32834.6 11078.5 C 32834.6 11113.3 32821.1 11181.2 32720.3 11181.2 C 32780.4 11318.9 32912.2 11361.5 33003.3 11361.5 C 33197.2 11361.5 33298 11210.3 33298 11053.3 C 33298 10884.6 33177.8 10750.8 33115.8 10681 L 32648.5 10219.6 C 32629.1 10202.2 32629.1 10198.3 32629.1 10144 L 33427.9 10144 L 33486 10496.8 "/>
<path transform="matrix(.00359712,0,0,-.00359712,0,76.09)" stroke-width="110.783" stroke-linecap="butt" stroke-miterlimit="10" stroke-linejoin="miter" fill="none" stroke="rgb(0,0,0)" d="M 32919.6 3211.36 L 24190.8 11569.8 "/>
<path transform="matrix(.00359712,0,0,-.00359712,0,76.09)" d="M 29867 6134.49 L 29067.8 7951.36 L 28017.1 6854.17022 "/>
<path transform="matrix(.00359712,0,0,-.00359712,0,76.09)" stroke-width="110.783" stroke-linecap="butt" stroke-miterlimit="10" stroke-linejoin="miter" fill="none" stroke="rgb(0,0,0)" d="M 12370.2 11569.8 L 24190.8 11569.8 "/>
<path transform="matrix(.00359712,0,0,-.00359712,0,76.09)" d="M 19304.9 11569.8 L 17471 12329.4 L 17471 10810.2 "/>
<path transform="matrix(.00359712,0,0,-.00359712,0,76.09)" d="M 14052.7 8330.03 C 14030.5 8235.84 14025 8216.45 13903.1 8216.45 C 13869.8 8216.45 13839.4 8216.45 13839.4 8163.83065 C 13839.4 8141.67 13853.2 8130.58 13875.4 8130.58 C 13950.2 8130.58 14030.5 8138.89 14108.1 8138.89 C 14199.5 8138.89 14293.7 8130.58 14382.3 8130.58 C 14396.2 8130.58 14432.2 8130.58 14432.2 8185.98069 C 14432.2 8216.45 14404.5 8216.45 14365.7 8216.45 C 14227.2 8216.45 14227.2 8235.84 14227.2 8260.78 C 14227.2 8294.03104 14343.5 8745.56 14362.9 8814.81 C 14398.9 8734.48 14476.5 8637.53 14617.8 8637.53 C 14939.1 8637.53 15285.4 9041.97 15285.4 9449.19 C 15285.4 9709.59 15127.5 9892.42066 14917 9892.42066 C 14778.5 9892.42066 14645.5 9792.7 14554.1 9684.66081 C 14526.4 9834.25 14407.3 9892.42066 14304.8 9892.42066 C 14177.3 9892.42066 14124.7 9784.39034 14099.8 9734.52 C 14049.9 9640.33 14013.9 9474.13053 14013.9 9465.81 C 14013.9 9438.11 14041.6 9438.11 14047.1 9438.11 C 14074.8 9438.11 14077.6 9440.88067 14094.2 9501.83 C 14141.3 9698.52 14196.7 9831.48 14296.4 9831.48 C 14343.5 9831.48 14382.3 9809.31 14382.3 9704.05 C 14382.3 9640.33 14374 9609.86 14362.9 9562.77 L 14052.7 8330.03 Z M 14540.2 9532.3 C 14559.6 9607.09 14634.4 9684.66081 14684.3 9726.22 C 14781.2 9812.09 14861.5 9831.48 14908.6 9831.48 C 15019.5 9831.48 15085.9 9734.52 15085.9 9571.08 C 15085.9 9407.64035 14994.5 9089.06 14944.7 8983.8 C 14850.5 8789.89 14717.5 8698.47 14615 8698.47 C 14432.2 8698.47 14396.2 8928.39 14396.2 8945.02 C 14396.2 8950.56 14396.2 8956.09 14404.5 8989.34 L 14540.2 9532.3 "/>
<path transform="matrix(.00359712,0,0,-.00359712,0,76.09)" d="M 15970.5 9485.02 C 15970.5 9537.36104 15966.6 9539.3 15912.3 9539.3 C 15788.2 9417.16088 15611.8 9415.22 15532.3 9415.22 L 15532.3 9345.42073 C 15578.8 9345.42073 15706.8 9345.42073 15813.4 9399.70101 L 15813.4 8410.97 C 15813.4 8347 15813.4 8321.8 15619.6 8321.8 L 15545.9 8321.8 L 15545.9 8252 C 15580.8 8253.94 15819.3 8259.75 15891 8259.75 C 15951.1 8259.75 16195.4 8253.94 16238 8252 L 16238 8321.8 L 16164.3 8321.8 C 15970.5 8321.8 15970.5 8347 15970.5 8410.97 L 15970.5 9485.02 "/>
<path transform="matrix(.00359712,0,0,-.00359712,0,76.09)" d="M 19004.5 9305.14039 C 19051.6 9305.14039 19101.5 9305.14039 19101.5 9360.55 C 19101.5 9415.95 19051.6 9415.95 19004.5 9415.95 L 17505.9 9415.95 C 17458.8 9415.95 17408.9 9415.95 17408.9 9360.55 C 17408.9 9305.14039 17458.8 9305.14039 17505.9 9305.14039 L 19004.5 9305.14039 "/>
<path transform="matrix(.00359712,0,0,-.00359712,0,76.09)" d="M 20744 10560 C 20744 10562.8 20744 10590.5 20708 10590.5 C 20644.3 10590.5 20442.1 10568.3 20370.1 10562.8 C 20347.9 10560 20317.4 10557.3 20317.4 10507.4 C 20317.4 10474.2 20342.4 10474.2 20383.9 10474.2 C 20516.9 10474.2 20522.4 10454.8 20522.4 10427.1 L 20514.1 10371.7 L 20112.4 8776.03 C 20101.4 8737.25 20101.4 8731.72 20101.4 8715.09 C 20101.4 8651.38043 20156.8 8637.53 20181.7 8637.53 C 20217.7 8637.53 20259.3 8662.45 20275.9 8695.7 C 20289.7 8720.64 20414.4 9233.13 20431 9302.38046 C 20525.2 9294.06 20752.4 9249.73 20752.4 9066.91 C 20752.4 9047.52 20752.4 9036.44 20744 9008.73 C 20738.5 8975.48 20733 8942.25 20733 8911.78 C 20733 8748.33 20843.8 8637.53 20987.8 8637.53 C 21070.9 8637.53 21145.7 8681.84 21206.7 8784.34 C 21275.9 8906.23 21306.4 9058.59 21306.4 9064.14021 C 21306.4 9091.84064 21281.5 9091.84064 21273.2 9091.84064 C 21245.5 9091.84064 21242.7 9080.77 21234.4 9041.97 C 21179 8839.75 21115.3 8698.47 20993.4 8698.47 C 20940.7 8698.47 20904.7 8728.94 20904.7 8828.67 C 20904.7 8875.77 20915.8 8939.48 20926.9 8983.8 C 20938 9030.89036 20938 9041.97 20938 9069.67057 C 20938 9249.73 20763.4 9330.08088 20528 9360.55 C 20613.8 9410.41078 20702.5 9499.06 20766.2 9565.55 C 20899.2 9712.36 21026.6 9831.48 21162.3 9831.48 C 21179 9831.48 21181.7 9831.48 21187.3 9828.70091 C 21220.5 9823.17056 21223.3 9823.17056 21245.5 9806.55 C 21251 9803.78 21251 9801 21256.5 9795.47 C 21123.6 9787.16077 21098.6 9679.13045 21098.6 9645.88059 C 21098.6 9601.55 21129.1 9548.92053 21203.9 9548.92053 C 21275.9 9548.92053 21356.3 9609.86 21356.3 9717.91 C 21356.3 9801 21292.5 9892.42066 21167.9 9892.42066 C 21090.3 9892.42066 20962.9 9870.27 20763.4 9648.64 C 20669.3 9543.38063 20561.2 9432.58084 20455.9 9391.02 L 20744 10560 "/>
<path transform="matrix(.00359712,0,0,-.00359712,0,76.09)" d="M 22040.5 9485.02 C 22040.5 9537.36104 22036.6 9539.3 21982.3 9539.3 C 21858.2 9417.16088 21681.8 9415.22 21602.3 9415.22 L 21602.3 9345.42073 C 21648.8 9345.42073 21776.8 9345.42073 21883.4 9399.70101 L 21883.4 8410.97 C 21883.4 8347 21883.4 8321.8 21689.6 8321.8 L 21615.9 8321.8 L 21615.9 8252 C 21650.8 8253.94 21889.3 8259.75 21961 8259.75 C 22021.1 8259.75 22265.4 8253.94 22308 8252 L 22308 8321.8 L 22234.3 8321.8 C 22040.5 8321.8 22040.5 8347 22040.5 8410.97 L 22040.5 9485.02 "/>
<path transform="matrix(.00359712,0,0,-.00359712,0,76.09)" stroke-width="110.783" stroke-linecap="butt" stroke-miterlimit="10" stroke-linejoin="miter" fill="none" stroke="rgb(0,0,0)" d="M 12788.1 14495.2 L 7539.41 19743.9 "/>
<path transform="matrix(.00359712,0,0,-.00359712,0,76.09)" d="M 7048.68 20234.7 L 7486.15 19268.1 L 7519.84014 19763.5 L 8015.22054 19797.2 Z "/>
<path transform="matrix(.00359712,0,0,-.00359712,0,76.09)" stroke-width="110.782" stroke-linecap="butt" stroke-miterlimit="10" stroke-linejoin="miter" fill="none" stroke="rgb(0,0,0)" d="M 7048.68 20234.7 L 7486.15 19268.1 L 7519.84014 19763.5 L 8015.22054 19797.2 Z "/>
<path transform="matrix(.00359712,0,0,-.00359712,0,76.09)" d="M 11581 20651 C 11581 20653.8 11581 20681.5 11545 20681.5 C 11481.3 20681.5 11279.1 20659.3 11207.1 20653.8 C 11184.9 20651 11154.4 20648.3 11154.4 20598.4 C 11154.4 20565.2 11179.4 20565.2 11220.9 20565.2 C 11353.9 20565.2 11359.4 20545.8 11359.4 20518.1 L 11351.1 20462.7 L 10949.4 18867 C 10938.4 18828.3 10938.4 18822.7 10938.4 18806.1 C 10938.4 18742.4 10993.8 18728.5 11018.7 18728.5 C 11054.7 18728.5 11096.3 18753.5 11112.9 18786.7 C 11126.7 18811.6 11251.4 19324.1 11268 19393.4 C 11362.2 19385.1 11589.4 19340.7 11589.4 19157.9 C 11589.4 19138.5 11589.4 19127.4 11581 19099.7 C 11575.5 19066.5 11570 19033.3 11570 19002.8 C 11570 18839.3 11680.8 18728.5 11824.8 18728.5 C 11907.9 18728.5 11982.7 18772.8 12043.7 18875.3 C 12112.9 18997.2 12143.4 19149.6 12143.4 19155.1 C 12143.4 19182.8 12118.5 19182.8 12110.2 19182.8 C 12082.5 19182.8 12079.7 19171.8 12071.4 19133 C 12016 18930.8 11952.3 18789.5 11830.4 18789.5 C 11777.7 18789.5 11741.7 18819.9 11741.7 18919.7 C 11741.7 18966.8 11752.8 19030.5 11763.9 19074.8 C 11775 19121.9 11775 19133 11775 19160.7 C 11775 19340.7 11600.4 19421.1 11365 19451.5 C 11450.8 19501.4 11539.5 19590.1 11603.2 19656.5 C 11736.2 19803.4 11863.6 19922.5 11999.3 19922.5 C 12016 19922.5 12018.7 19922.5 12024.3 19919.7 C 12057.5 19914.2 12060.3 19914.2 12082.5 19897.5 C 12088 19894.8 12088 19892 12093.5 19886.5 C 11960.6 19878.2 11935.6 19770.1 11935.6 19736.9 C 11935.6 19692.5 11966.1 19639.9 12040.9 19639.9 C 12112.9 19639.9 12193.3 19700.9 12193.3 19808.9 C 12193.3 19892 12129.5 19983.4 12004.9 19983.4 C 11927.3 19983.4 11799.9 19961.3 11600.4 19739.6 C 11506.3 19634.4 11398.2 19523.6 11292.9 19482 L 11581 20651 "/>
<path transform="matrix(.00359712,0,0,-.00359712,0,76.09)" d="M 12877.5 19577 C 12877.5 19629.4 12873.6 19631.3 12819.3 19631.3 C 12695.2 19509.2 12518.8 19507.2 12439.3 19507.2 L 12439.3 19437.4 C 12485.8 19437.4 12613.8 19437.4 12720.4 19491.7 L 12720.4 18503 C 12720.4 18439 12720.4 18413.8 12526.6 18413.8 L 12452.9 18413.8 L 12452.9 18344 C 12487.8 18345.9 12726.3 18351.8 12798 18351.8 C 12858.1 18351.8 13102.4 18345.9 13145 18344 L 13145 18413.8 L 13071.3 18413.8 C 12877.5 18413.8 12877.5 18439 12877.5 18503 L 12877.5 19577 "/>
<path transform="matrix(.00359712,0,0,-.00359712,0,76.09)" stroke-width="110.783" stroke-linecap="butt" stroke-miterlimit="10" stroke-linejoin="miter" fill="none" stroke="rgb(0,0,0)" d="M 12370.2 11569.8 L 12270.8 11669.2 L 12048.9 11646.2 L 11859.9 11656.1 L 11727.7 11722.7 L 11661.1 11854.9 L 11651.2 12043.9 L 11674.2 12265.8 L 11697.2 12487.6 L 11687.4 12676.6 L 11620.8 12808.8 L 11488.5 12875.5 L 11299.5 12885.3 L 11077.7 12862.3 L 10855.9 12839.3 L 10666.8 12849.1 L 10534.6 12915.8 L 10468 13048 L 10458.2 13237 L 10481.2 13458.8 L 10504.1 13680.7 L 10494.3 13869.7 L 10427.7 14001.9 L 10295.5 14068.5 L 10106.4 14078.3 L 9884.62 14055.4 L 9662.79 14032.4 L 9473.77 14042.2 L 9341.55 14108.8 L 9274.92 14241 L 9265.10037 14430.1 L 9288.09 14651.9 L 9311.07 14873.7 L 9301.24082 15062.7 L 9234.63048 15195 L 9102.4 15261.6 L 8913.38052 15271.4 L 8691.55 15248.4 L 8469.73123 15225.4 L 8280.7 15235.3 L 8148.48031 15301.9 L 8081.86044 15434.1 L 8072.04045 15623.1 L 8095.02 15845 L 8118 16066.8 L 8108.18089 16255.8 L 8041.55053 16388 L 7909.33 16454.6 L 7720.31 16464.5 L 7498.48 16441.5 L 7276.66 16418.5 L 7087.64 16428.3 L 6955.41 16495 L 6888.79 16627.2 L 6878.97052 16816.2 L 6901.95 17038 L 6924.93 17259.8 L 6915.11 17448.9 L 6848.49061 17581.1 L 6716.27034 17647.7 L 6527.24065 17657.5 L 6305.42029 17634.6 L 6083.59 17611.6 L 5894.57 17621.4 L 5762.35045 17688 L 5695.73 17820.2 L 5685.91 18009.3 L 5708.89 18231.1 L 5731.87 18452.9 L 5722.04 18641.9 L 5655.43 18774.2 L 5523.2 18840.8 L 5334.18 18850.6 L 5112.35 18827.6 L 4890.53 18804.6 L 4701.50031 18814.5 L 4569.29 18881.1 L 4502.66 19013.3 L 4492.84019 19202.3 L 4515.82 19424.2 L 4538.80013 19646 L 4528.98 19835 L 4462.36 19967.2 L 4011.72 19928.3 "/>
<path transform="matrix(.00359712,0,0,-.00359712,0,76.09)" stroke-width="110.783" stroke-linecap="butt" stroke-miterlimit="10" stroke-linejoin="miter" fill="none" stroke="rgb(0,0,0)" d="M 23772.8 14495.2 L 29021.5 19743.9 "/>
<path transform="matrix(.00359712,0,0,-.00359712,0,76.09)" d="M 29512.3 20234.7 L 28545.7 19797.2 L 29041.1 19763.5 L 29074.8 19268.1 Z "/>
<path transform="matrix(.00359712,0,0,-.00359712,0,76.09)" stroke-width="110.782" stroke-linecap="butt" stroke-miterlimit="10" stroke-linejoin="miter" fill="none" stroke="rgb(0,0,0)" d="M 29512.3 20234.7 L 28545.7 19797.2 L 29041.1 19763.5 L 29074.8 19268.1 Z "/>
<path transform="matrix(.00359712,0,0,-.00359712,0,76.09)" d="M 23886 20651 C 23886 20653.8 23886 20681.5 23850 20681.5 C 23786.3 20681.5 23584.1 20659.3 23512.1 20653.8 C 23489.9 20651 23459.4 20648.3 23459.4 20598.4 C 23459.4 20565.2 23484.4 20565.2 23525.9 20565.2 C 23658.9 20565.2 23664.4 20545.8 23664.4 20518.1 L 23656.1 20462.7 L 23254.4 18867 C 23243.4 18828.3 23243.4 18822.7 23243.4 18806.1 C 23243.4 18742.4 23298.8 18728.5 23323.7 18728.5 C 23359.7 18728.5 23401.3 18753.5 23417.9 18786.7 C 23431.7 18811.6 23556.4 19324.1 23573 19393.4 C 23667.2 19385.1 23894.4 19340.7 23894.4 19157.9 C 23894.4 19138.5 23894.4 19127.4 23886 19099.7 C 23880.5 19066.5 23875 19033.3 23875 19002.8 C 23875 18839.3 23985.8 18728.5 24129.8 18728.5 C 24212.9 18728.5 24287.7 18772.8 24348.7 18875.3 C 24417.9 18997.2 24448.4 19149.6 24448.4 19155.1 C 24448.4 19182.8 24423.5 19182.8 24415.2 19182.8 C 24387.5 19182.8 24384.7 19171.8 24376.4 19133 C 24321 18930.8 24257.3 18789.5 24135.4 18789.5 C 24082.7 18789.5 24046.7 18819.9 24046.7 18919.7 C 24046.7 18966.8 24057.8 19030.5 24068.9 19074.8 C 24080 19121.9 24080 19133 24080 19160.7 C 24080 19340.7 23905.4 19421.1 23670 19451.5 C 23755.8 19501.4 23844.5 19590.1 23908.2 19656.5 C 24041.2 19803.4 24168.6 19922.5 24304.3 19922.5 C 24321 19922.5 24323.7 19922.5 24329.3 19919.7 C 24362.5 19914.2 24365.3 19914.2 24387.5 19897.5 C 24393 19894.8 24393 19892 24398.5 19886.5 C 24265.6 19878.2 24240.6 19770.1 24240.6 19736.9 C 24240.6 19692.5 24271.1 19639.9 24345.9 19639.9 C 24417.9 19639.9 24498.3 19700.9 24498.3 19808.9 C 24498.3 19892 24434.5 19983.4 24309.9 19983.4 C 24232.3 19983.4 24104.9 19961.3 23905.4 19739.6 C 23811.3 19634.4 23703.2 19523.6 23597.9 19482 L 23886 20651 "/>
<path transform="matrix(.00359712,0,0,-.00359712,0,76.09)" d="M 25511 18696.8 L 25445.1 18696.8 C 25439.3 18654.2 25419.9 18539.8 25394.7 18520.4 C 25379.2 18508.8 25229.9 18508.8 25202.8 18508.8 L 24846.1 18508.8 C 25049.6 18689.1 25117.5 18743.4 25233.8 18834.5 C 25377.3 18948.9 25511 19069.1 25511 19253.3 C 25511 19487.8 25305.5 19631.3 25057.4 19631.3 C 24817 19631.3 24654.1 19462.6 24654.1 19284.3 C 24654.1 19185.4 24737.5 19175.7 24756.9 19175.7 C 24803.4 19175.7 24859.6 19208.7 24859.6 19278.5 C 24859.6 19313.3 24846.1 19381.2 24745.3 19381.2 C 24805.4 19518.9 24937.2 19561.5 25028.3 19561.5 C 25222.2 19561.5 25323 19410.3 25323 19253.3 C 25323 19084.6 25202.8 18950.8 25140.8 18881 L 24673.5 18419.6 C 24654.1 18402.2 24654.1 18398.3 24654.1 18344 L 25452.9 18344 L 25511 18696.8 "/>
<path transform="matrix(.00359712,0,0,-.00359712,0,76.09)" stroke-width="110.783" stroke-linecap="butt" stroke-miterlimit="10" stroke-linejoin="miter" fill="none" stroke="rgb(0,0,0)" d="M 24190.8 11569.8 L 24290.2 11669.2 L 24267.2 11891 L 24277 12080.1 L 24343.7 12212.3 L 24475.9 12278.9 L 24664.9 12288.7 L 24886.7 12265.8 L 25108.6 12242.8 L 25297.6 12252.6 L 25429.8 12319.2 L 25496.4 12451.4 L 25506.3 12640.5 L 25483.3 12862.3 L 25460.3 13084.1 L 25470.1 13273.1 L 25536.7 13405.4 L 25669 13472 L 25858 13481.8 L 26079.8 13458.8 L 26301.6 13435.8 L 26490.7 13445.7 L 26622.9 13512.3 L 26689.5 13644.5 L 26699.3 13833.5 L 26676.3 14055.4 L 26653.4 14277.2 L 26663.2 14466.2 L 26729.8 14598.4 L 26862 14665.1 L 27051.1 14674.9 L 27272.9 14651.9 L 27494.7 14628.9 L 27683.7 14638.7 L 27815.9 14705.4 L 27882.6 14837.6 L 27892.4 15026.6 L 27869.4 15248.4 L 27846.4 15470.2 L 27856.2 15659.3 L 27922.9 15791.5 L 28055.1 15858.1 L 28244.1 15867.9 L 28465.9 15845 L 28687.8 15822 L 28876.8 15831.8 L 29009 15898.4 L 29075.6 16030.6 L 29085.4 16219.7 L 29062.5 16441.5 L 29039.5 16663.3 L 29049.3 16852.3 L 29115.9 16984.6 L 29248.1 17051.2 L 29437.2 17061 L 29659 17038 L 29880.8 17015 L 30069.8 17024.9 L 30202.1 17091.5 L 30268.7 17223.7 L 30278.5 17412.7 L 30255.5 17634.6 L 30232.6 17856.4 L 30242.4 18045.4 L 30309 18177.6 L 30441.2 18244.2 L 30630.2 18254.1 L 30852.1 18231.1 L 31073.9 18208.1 L 31262.9 18217.9 L 31395.1 18284.6 L 31461.8 18416.8 L 31471.6 18605.8 L 31448.6 18827.6 L 31425.6 19049.4 L 31435.4 19238.5 L 31502.1 19370.7 L 31634.3 19437.3 L 31823.3 19447.1 L 32045.1 19424.2 L 32267 19401.2 L 32456 19411 L 32588.2 19477.6 L 32549.2 19928.3 "/>
<path transform="matrix(.00359712,0,0,-.00359712,0,76.09)" d="M 50693 12207.1 L 51465.9 12207.1 C 51504.7 12207.1 51557.3 12207.1 51557.3 12262.5 C 51557.3 12318 51504.7 12318 51465.9 12318 L 50693 12318 L 50693 13093.6 C 50693 13132.4 50693 13185 50637.6 13185 C 50582.2 13185 50582.2 13132.4 50582.2 13093.6 L 50582.2 12318 L 49806.5 12318 C 49767.8 12318 49715.1 12318 49715.1 12262.5 C 49715.1 12207.1 49767.8 12207.1 49806.5 12207.1 L 50582.2 12207.1 L 50582.2 11431.5 C 50582.2 11392.7 50582.2 11340.1 50637.6 11340.1 C 50693 11340.1 50693 11392.7 50693 11431.5 L 50693 12207.1 "/>
<path transform="matrix(.00359712,0,0,-.00359712,0,76.09)" d="M 65137 667.906 C 65217.3958 667.906 65422.4 673.453 65560.9 731.625 C 65754.8 814.734 65768.6 978.172 65768.6 1016.95 C 65768.6 1138.84 65663.4 1252.42 65472.2 1252.42 C 65164.7 1252.42 64746.4 983.719 64746.4 498.938 C 64746.4 216.375 64909.9 -2.46875 65181.3 -2.46875 C 65577.5 -2.46875 65810.2 291.172 65810.2 324.406 C 65810.2 341.031 65793.6 360.422 65776.9 360.422 C 65763.1 360.422 65757.5 354.875 65740.9 332.719 C 65522.1 58.4688 65220.1 58.4688 65186.9 58.4688 C 64970.8 58.4688 64945.9 291.172 64945.9 379.813 C 64945.9 413.063 64948.7 498.938 64990.2 667.906 L 65137 667.906 Z M 65006.8 728.859 C 65114.9 1149.92 65400.2 1191.48 65472.2 1191.48 C 65602.4 1191.48 65677.2 1111.14 65677.2 1016.95 C 65677.2 728.859 65234 728.859 65120.4 728.859 L 65006.8 728.859 "/>
<path transform="matrix(.00359712,0,0,-.00359712,0,76.09)" d="M 67351.4 1470.14 C 67382.4 1470.14 67428.9 1470.14 67428.9 1516.67 C 67428.9 1565.14 67384.3 1565.14 67351.4 1565.14 L 66195.9 1565.14 C 66164.9 1565.14 66118.4 1565.14 66118.4 1518.61 C 66118.4 1470.14 66163 1470.14 66195.9 1470.14 L 67351.4 1470.14 "/>
<path transform="matrix(.00359712,0,0,-.00359712,0,76.09)" d="M 98791 667.906 C 98871.4 667.906 99076.4 673.453 99214.9 731.625 C 99408.8 814.734 99422.6 978.172 99422.6 1016.95 C 99422.6 1138.84 99317.4 1252.42 99126.2 1252.42 C 98818.7 1252.42 98400.3935 983.719 98400.3935 498.938 C 98400.3935 216.375 98563.9 -2.46875 98835.3 -2.46875 C 99231.5 -2.46875 99464.1981 291.172 99464.1981 324.406 C 99464.1981 341.031 99447.6 360.422 99430.9 360.422 C 99417.0961 360.422 99411.5 354.875 99394.9 332.719 C 99176.1 58.4688 98874.1 58.4688 98840.9 58.4688 C 98624.8 58.4688 98599.8926 291.172 98599.8926 379.813 C 98599.8926 413.063 98602.7 498.938 98644.2 667.906 L 98791 667.906 Z M 98660.8 728.859 C 98768.8932 1149.92 99054.2 1191.48 99126.2 1191.48 C 99256.3925 1191.48 99331.1987 1111.14 99331.1987 1016.95 C 99331.1987 728.859 98888 728.859 98774.4 728.859 L 98660.8 728.859 "/>
<path transform="matrix(.00359712,0,0,-.00359712,0,76.09)" d="M 100461 1470.14 L 101054 1470.14 C 101079 1470.14 101126 1470.14 101126 1516.67 C 101126 1565.14 101081 1565.14 101054 1565.14 L 100461 1565.14 L 100461 2160.33 C 100461 2185.53 100461 2232.06 100414 2232.06 C 100366 2232.06 100366 2187.47 100366 2160.33 L 100366 1565.14 L 99770.4 1565.14 C 99745.1982 1565.14 99698.6971 1565.14 99698.6971 1518.61 C 99698.6971 1470.14 99743.3 1470.14 99770.4 1470.14 L 100366 1470.14 L 100366 874.969 C 100366 849.766 100366 803.234 100412 803.234 C 100461 803.234 100461 847.828 100461 874.969 L 100461 1470.14 "/>
<path transform="matrix(.00359712,0,0,-.00359712,0,76.09)" stroke-width="110.783" stroke-linecap="butt" stroke-miterlimit="10" stroke-linejoin="miter" fill="none" stroke="rgb(0,0,0)" d="M 68374.3 3211.36 L 77115.5 11569.8 "/>
<path transform="matrix(.00359712,0,0,-.00359712,0,76.09)" d="M 73479.6 8093.01 L 71629.3 7374.63035 L 72679.1 6276.67035 "/>
<path transform="matrix(.00359712,0,0,-.00359712,0,76.09)" d="M 69255.7 8570.03 C 69233.5 8475.84046 69228 8456.45 69106.1 8456.45 C 69072.8 8456.45 69042.4 8456.45 69042.4 8403.83 C 69042.4 8381.67 69056.2 8370.58 69078.4 8370.58 C 69153.2 8370.58 69233.5 8378.89 69311.1 8378.89 C 69402.5 8378.89 69496.7 8370.58 69585.3 8370.58 C 69599.2 8370.58 69635.2 8370.58 69635.2 8425.98 C 69635.2 8456.45 69607.5 8456.45 69568.7 8456.45 C 69430.2 8456.45 69430.2 8475.84046 69430.2 8500.78095 C 69430.2 8534.03081 69546.5 8985.56031 69565.9 9054.81 C 69601.9 8974.48 69679.5 8877.53095 69820.8 8877.53095 C 70142.1 8877.53095 70488.4 9281.97 70488.4 9689.19 C 70488.4 9949.59058 70330.5 10132.4 70120 10132.4 C 69981.5 10132.4 69848.5 10032.7 69757.1 9924.66 C 69729.4 10074.3 69610.3 10132.4 69507.8 10132.4 C 69380.3 10132.4 69327.7 10024.4 69302.8 9974.52 C 69252.9 9880.33 69216.9 9714.13 69216.9 9705.81 C 69216.9 9678.11097 69244.6 9678.11097 69250.1 9678.11097 C 69277.8 9678.11097 69280.6 9680.88044 69297.2 9741.83072 C 69344.3 9938.52033 69399.7 10071.5 69499.4 10071.5 C 69546.5 10071.5 69585.3 10049.3 69585.3 9944.05 C 69585.3 9880.33 69577 9849.86104 69565.9 9802.77 L 69255.7 8570.03 Z M 69743.2 9772.30062 C 69762.6 9847.09062 69837.4 9924.66 69887.3 9966.22 C 69984.2 10052.1 70064.5 10071.5 70111.6 10071.5 C 70222.5 10071.5 70288.9 9974.52 70288.9 9811.08083 C 70288.9 9647.64 70197.5 9329.06 70147.7 9223.80055 C 70053.5 9029.89 69920.5 8938.47 69818 8938.47 C 69635.2 8938.47 69599.2 9168.39 69599.2 9185.02 C 69599.2 9190.56024 69599.2 9196.09059 69607.5 9229.34045 L 69743.2 9772.30062 "/>
<path transform="matrix(.00359712,0,0,-.00359712,0,76.09)" d="M 71173.5 9725.02 C 71173.5 9777.36 71169.6 9779.30058 71115.3 9779.30058 C 70991.2 9657.16 70814.8 9655.22 70735.3 9655.22 L 70735.3 9585.42 C 70781.8 9585.42 70909.8 9585.42 71016.4 9639.70078 L 71016.4 8650.97035 C 71016.4 8587.00074 71016.4 8561.8 70822.6 8561.8 L 70748.9 8561.8 L 70748.9 8492 C 70783.8 8493.9412 71022.3 8499.75 71094 8499.75 C 71154.1 8499.75 71398.4 8493.9412 71441 8492 L 71441 8561.8 L 71367.3 8561.8 C 71173.5 8561.8 71173.5 8587.00074 71173.5 8650.97035 L 71173.5 9725.02 "/>
<path transform="matrix(.00359712,0,0,-.00359712,0,76.09)" stroke-width="110.783" stroke-linecap="butt" stroke-miterlimit="10" stroke-linejoin="miter" fill="none" stroke="rgb(0,0,0)" d="M 97990.7 6172.51 L 92495.6 11434.5 "/>
<path transform="matrix(.00359712,0,0,-.00359712,0,76.09)" d="M 91994.3 11914.4 L 92452.6 10957.6 L 92475.5964 11453.6 L 92970.0956 11498 Z "/>
<path transform="matrix(.00359712,0,0,-.00359712,0,76.09)" stroke-width="110.777" stroke-linecap="butt" stroke-miterlimit="10" stroke-linejoin="miter" fill="none" stroke="rgb(0,0,0)" d="M 91994.3 11914.4 L 92452.6 10957.6 L 92475.5964 11453.6 L 92970.0956 11498 Z "/>
<path transform="matrix(.00359712,0,0,-.00359712,0,76.09)" d="M 95983.7 10222 C 95961.4954 10127.8 95956 10108.5 95834.1 10108.5 C 95800.7917 10108.5 95770.4 10108.5 95770.4 10055.8 C 95770.4 10033.7 95784.1978 10022.6 95806.4 10022.6 C 95881.2 10022.6 95961.4954 10030.9 96039.1 10030.9 C 96130.5 10030.9 96224.7 10022.6 96313.3 10022.6 C 96327.2 10022.6 96363.2 10022.6 96363.2 10078 C 96363.2 10108.5 96335.5 10108.5 96296.7 10108.5 C 96158.2 10108.5 96158.2 10127.8 96158.2 10152.8 C 96158.2 10186 96274.5 10637.6 96293.9 10706.8 C 96329.9 10626.5 96407.5 10529.5 96548.8 10529.5 C 96870.1 10529.5 97216.4 10934 97216.4 11341.2 C 97216.4 11601.6 97058.5 11784.4 96848 11784.4 C 96709.5 11784.4 96576.5 11684.7 96485.1 11576.7 C 96457.4 11726.3 96338.2921 11784.4 96235.7912 11784.4 C 96108.3 11784.4 96055.7 11676.4 96030.8 11626.5 C 95980.8931 11532.3 95944.9 11366.1 95944.9 11357.8 C 95944.9 11330.1 95972.5962 11330.1 95978.1 11330.1 C 96005.8 11330.1 96008.6 11332.9 96025.2 11393.8 C 96072.3 11590.5 96127.7 11723.5 96227.4 11723.5 C 96274.5 11723.5 96313.3 11701.3 96313.3 11596 C 96313.3 11532.3 96305 11501.9 96293.9 11454.8 L 95983.7 10222 Z M 96471.2 11424.3 C 96490.6 11499.1 96565.4 11576.7 96615.3 11618.2 C 96712.2 11704.1 96792.5 11723.5 96839.6 11723.5 C 96950.4938 11723.5 97016.9 11626.5 97016.9 11463.1 C 97016.9 11299.6 96925.5 10981.1 96875.6971 10875.8 C 96781.5 10681.9 96648.4938 10590.5 96546 10590.5 C 96363.2 10590.5 96327.2 10820.4 96327.2 10837 C 96327.2 10842.6 96327.2 10848.1 96335.5 10881.3 L 96471.2 11424.3 "/>
<path transform="matrix(.00359712,0,0,-.00359712,0,76.09)" d="M 98231 10496.8 L 98165.1 10496.8 C 98159.3 10454.2 98139.9 10339.8 98114.7 10320.4 C 98099.2 10308.8 97949.9 10308.8 97922.8 10308.8 L 97566.1 10308.8 C 97769.6 10489.1 97837.5 10543.4 97953.8 10634.5 C 98097.3 10748.9 98231 10869.1 98231 11053.3 C 98231 11287.8 98025.4946 11431.3 97777.4 11431.3 C 97536.994 11431.3 97374.1 11262.6 97374.1 11084.3 C 97374.1 10985.4 97457.4957 10975.7 97476.8934 10975.7 C 97523.4 10975.7 97579.6 11008.7 97579.6 11078.5 C 97579.6 11113.3 97566.1 11181.2 97465.3 11181.2 C 97525.4 11318.9 97657.2 11361.5 97748.3 11361.5 C 97942.2 11361.5 98042.9945 11210.3 98042.9945 11053.3 C 98042.9945 10884.6 97922.8 10750.8 97860.8 10681 L 97393.4946 10219.6 C 97374.1 10202.2 97374.1 10198.3 97374.1 10144 L 98172.9 10144 L 98231 10496.8 "/>
<path transform="matrix(.00359712,0,0,-.00359712,0,76.09)" stroke-width="110.783" stroke-linecap="butt" stroke-miterlimit="10" stroke-linejoin="miter" fill="none" stroke="rgb(0,0,0)" d="M 97665 3211.36 L 88936.2 11569.8 "/>
<path transform="matrix(.00359712,0,0,-.00359712,0,76.09)" d="M 94612.3 6134.49 L 93813.096 7951.36 L 92762.5 6854.17022 "/>
<path transform="matrix(.00359712,0,0,-.00359712,0,76.09)" stroke-width="110.783" stroke-linecap="butt" stroke-miterlimit="10" stroke-linejoin="miter" fill="none" stroke="rgb(0,0,0)" d="M 77115.5 11569.8 L 88936.2 11569.8 "/>
<path transform="matrix(.00359712,0,0,-.00359712,0,76.09)" d="M 84050.3 11569.8 L 82216.4 12329.4 L 82216.4 10810.2 "/>
<path transform="matrix(.00359712,0,0,-.00359712,0,76.09)" d="M 78797.7 8330.03 C 78775.5 8235.84 78770 8216.45 78648.1 8216.45 C 78614.8 8216.45 78584.4 8216.45 78584.4 8163.83065 C 78584.4 8141.67 78598.2 8130.58 78620.4 8130.58 C 78695.2 8130.58 78775.5 8138.89 78853.1 8138.89 C 78944.5 8138.89 79038.7 8130.58 79127.3 8130.58 C 79141.2 8130.58 79177.2 8130.58 79177.2 8185.98069 C 79177.2 8216.45 79149.5 8216.45 79110.7 8216.45 C 78972.2 8216.45 78972.2 8235.84 78972.2 8260.78 C 78972.2 8294.03104 79088.5 8745.56 79107.9 8814.81 C 79143.9 8734.48 79221.5 8637.53 79362.8 8637.53 C 79684.1 8637.53 80030.4 9041.97 80030.4 9449.19 C 80030.4 9709.59 79872.5 9892.42066 79662 9892.42066 C 79523.5 9892.42066 79390.5 9792.7 79299.1 9684.66081 C 79271.4 9834.25 79152.3 9892.42066 79049.8 9892.42066 C 78922.3 9892.42066 78869.7 9784.39034 78844.8 9734.52 C 78794.9 9640.33 78758.9 9474.13053 78758.9 9465.81 C 78758.9 9438.11 78786.6 9438.11 78792.1 9438.11 C 78819.8 9438.11 78822.6 9440.88067 78839.2 9501.83 C 78886.3 9698.52 78941.7 9831.48 79041.4 9831.48 C 79088.5 9831.48 79127.3 9809.31 79127.3 9704.05 C 79127.3 9640.33 79119 9609.86 79107.9 9562.77 L 78797.7 8330.03 Z M 79285.2 9532.3 C 79304.6 9607.09 79379.4 9684.66081 79429.3 9726.22 C 79526.2 9812.09 79606.5 9831.48 79653.6 9831.48 C 79764.5 9831.48 79830.9 9734.52 79830.9 9571.08 C 79830.9 9407.64035 79739.5 9089.06 79689.7 8983.8 C 79595.5 8789.89 79462.5 8698.47 79360 8698.47 C 79177.2 8698.47 79141.2 8928.39 79141.2 8945.02 C 79141.2 8950.56 79141.2 8956.09 79149.5 8989.34 L 79285.2 9532.3 "/>
<path transform="matrix(.00359712,0,0,-.00359712,0,76.09)" d="M 80716.5 9485.02 C 80716.5 9537.36104 80712.6 9539.3 80658.3 9539.3 C 80534.2 9417.16088 80357.8 9415.22 80278.2927 9415.22 L 80278.2927 9345.42073 C 80324.8 9345.42073 80452.8 9345.42073 80559.4 9399.70101 L 80559.4 8410.97 C 80559.4 8347 80559.4 8321.8 80365.6 8321.8 L 80291.9 8321.8 L 80291.9 8252 C 80326.8 8253.94 80565.2914 8259.75 80637 8259.75 C 80697.1 8259.75 80941.4 8253.94 80984 8252 L 80984 8321.8 L 80910.2926 8321.8 C 80716.5 8321.8 80716.5 8347 80716.5 8410.97 L 80716.5 9485.02 "/>
<path transform="matrix(.00359712,0,0,-.00359712,0,76.09)" d="M 83750.5 9305.14039 C 83797.6 9305.14039 83847.4951 9305.14039 83847.4951 9360.55 C 83847.4951 9415.95 83797.6 9415.95 83750.5 9415.95 L 82251.893 9415.95 C 82204.7911 9415.95 82154.9 9415.95 82154.9 9360.55 C 82154.9 9305.14039 82204.7911 9305.14039 82251.893 9305.14039 L 83750.5 9305.14039 "/>
<path transform="matrix(.00359712,0,0,-.00359712,0,76.09)" d="M 85489 10560 C 85489 10562.8 85489 10590.5 85453 10590.5 C 85389.3 10590.5 85187.1 10568.3 85115.1 10562.8 C 85092.9 10560 85062.4 10557.3 85062.4 10507.4 C 85062.4 10474.2 85087.4 10474.2 85128.9 10474.2 C 85261.9 10474.2 85267.4 10454.8 85267.4 10427.1 L 85259.1 10371.7 L 84857.4 8776.03 C 84846.3926 8737.25 84846.3926 8731.72 84846.3926 8715.09 C 84846.3926 8651.38043 84901.7916 8637.53 84926.7 8637.53 C 84962.7 8637.53 85004.2925 8662.45 85020.9 8695.7 C 85034.7 8720.64 85159.4 9233.13 85176 9302.38046 C 85270.2 9294.06 85497.4 9249.73 85497.4 9066.91 C 85497.4 9047.52 85497.4 9036.44 85489 9008.73 C 85483.4948 8975.48 85478 8942.25 85478 8911.78 C 85478 8748.33 85588.8 8637.53 85732.8 8637.53 C 85815.9 8637.53 85890.7 8681.84 85951.7 8784.34 C 86020.9 8906.23 86051.4 9058.59 86051.4 9064.14021 C 86051.4 9091.84064 86026.5 9091.84064 86018.2 9091.84064 C 85990.5 9091.84064 85987.7 9080.77 85979.4 9041.97 C 85924 8839.75 85860.2915 8698.47 85738.3928 8698.47 C 85685.7 8698.47 85649.7 8728.94 85649.7 8828.67 C 85649.7 8875.77 85660.7923 8939.48 85671.8931 8983.8 C 85683 9030.89036 85683 9041.97 85683 9069.67057 C 85683 9249.73 85508.4 9330.08088 85273 9360.55 C 85358.7923 9410.41078 85447.5 9499.06 85511.2 9565.55 C 85644.1984 9712.36 85771.6 9831.48 85907.3 9831.48 C 85924 9831.48 85926.7 9831.48 85932.3 9828.70091 C 85965.5 9823.17056 85968.3 9823.17056 85990.5 9806.55 C 85996 9803.78 85996 9801 86001.5 9795.47 C 85868.6 9787.16077 85843.6 9679.13045 85843.6 9645.88059 C 85843.6 9601.55 85874.1 9548.92053 85948.9 9548.92053 C 86020.9 9548.92053 86101.3 9609.86 86101.3 9717.91 C 86101.3 9801 86037.5 9892.42066 85912.9 9892.42066 C 85835.3 9892.42066 85707.9 9870.27 85508.4 9648.64 C 85414.3 9543.38063 85306.1972 9432.58084 85200.9 9391.02 L 85489 10560 "/>
<path transform="matrix(.00359712,0,0,-.00359712,0,76.09)" d="M 87115 8604.84 L 87049.1 8604.84 C 87043.3 8562.19 87023.9 8447.81 86998.7 8428.42 C 86983.2 8416.80039 86833.9 8416.80039 86806.8 8416.80039 L 86450.1 8416.80039 C 86653.6 8597.09062 86721.5 8651.38043 86837.8 8742.48113 C 86981.3 8856.88 87115 8977.08 87115 9161.25 C 87115 9395.83 86909.4954 9539.3 86661.4 9539.3 C 86420.9948 9539.3 86258.1 9370.63 86258.1 9192.27017 C 86258.1 9093.39036 86341.5 9083.7 86360.9 9083.7 C 86407.4 9083.7 86463.6 9116.66 86463.6 9186.45085 C 86463.6 9221.34 86450.1 9289.2 86349.3 9289.2 C 86409.4 9426.86 86541.2 9469.5 86632.3 9469.5 C 86826.2 9469.5 86926.9953 9318.28107 86926.9953 9161.25 C 86926.9953 8992.58 86806.8 8858.81032 86744.8 8789.02 L 86277.4954 8327.61 C 86258.1 8310.16 86258.1 8306.28098 86258.1 8252 L 87056.9 8252 L 87115 8604.84 "/>
<path transform="matrix(.00359712,0,0,-.00359712,0,76.09)" stroke-width="110.783" stroke-linecap="butt" stroke-miterlimit="10" stroke-linejoin="miter" fill="none" stroke="rgb(0,0,0)" d="M 84129.4 15754.4 L 88589.2 17601.8 "/>
<path transform="matrix(.00359712,0,0,-.00359712,0,76.09)" d="M 89230.4 17867.3 L 88169.9953 17833 L 88614.8 17612.3 L 88456.3932 17141.8 Z "/>
<path transform="matrix(.00359712,0,0,-.00359712,0,76.09)" stroke-width="110.777" stroke-linecap="butt" stroke-miterlimit="10" stroke-linejoin="miter" fill="none" stroke="rgb(0,0,0)" d="M 89230.4 17867.3 L 88169.9953 17833 L 88614.8 17612.3 L 88456.3932 17141.8 Z "/>
<path transform="matrix(.00359712,0,0,-.00359712,0,76.09)" stroke-width="110.783" stroke-linecap="butt" stroke-miterlimit="10" stroke-linejoin="miter" fill="none" stroke="rgb(0,0,0)" d="M 77115.5 11569.8 L 77244.8 11623.4 L 77307.9 11836.8 L 77388.7 12007.5 L 77500.3 12103.9 L 77647.3 12114.6 L 77825.1 12051.1 L 78020.7 11944.7 L 78216.2 11838.4 L 78394 11774.9 L 78541.1 11785.6 L 78652.6 11882 L 78733.5 12052.6 L 78796.5 12266.1 L 78859.6 12479.6 L 78940.4 12650.2 L 79052 12746.6 L 79199 12757.3 L 79376.8 12693.8 L 79572.4 12587.5 L 79767.9 12481.1 L 79945.7 12417.6 L 80092.8 12428.3 L 80204.3 12524.7 L 80285.2 12695.3 L 80348.2 12908.8 L 80411.2921 13122.3 L 80492.1 13292.9 L 80603.7 13389.3 L 80750.7 13400.1 L 80928.5 13336.6 L 81124.1 13230.2 L 81319.6 13123.8 L 81497.3936 13060.3 L 81644.5 13071 L 81756 13167.5 L 81836.9 13338.1 L 81899.9 13551.6 L 81963 13765 L 82043.7918 13935.7 L 82155.4 14032.1 L 82302.4 14042.8 L 82480.2 13979.3 L 82675.7917 13872.9 L 82871.3 13766.6 L 83049.1 13703.1 L 83196.2 13713.8 L 83307.7 13810.2 L 83388.5965 13980.8 L 83451.5963 14194.3 L 83514.7 14407.8 L 83595.5 14578.4 L 83707.1 14674.8 L 83854.1 14685.5 L 84031.9 14622 L 84227.5 14515.7 L 84423 14409.3 L 84600.8 14345.8 L 84747.9 14356.5 L 84859.4 14452.9 L 84940.2914 14623.5 L 85003.2911 14837 L 85066.4 15050.5 L 85147.2 15221.1 L 85258.8 15317.5 L 85405.8 15328.2 L 85583.6 15264.7 L 85779.2 15158.4 L 85974.7 15052 L 86152.5 14988.5 L 86299.6 14999.2 L 86411.0956 15095.6 L 86491.9958 15266.3 L 86554.9955 15479.8 L 86618.1 15693.2 L 86698.9 15863.9 L 86810.4944 15960.3 L 86957.5 15971 L 87135.3 15907.5 L 87330.9 15801.1 L 87526.4 15694.8 L 87704.2 15631.3 L 87851.3 15642 L 87962.8 15738.4 L 88043.7 15909 L 88106.7 16122.5 L 88169.8 16336 L 88250.6 16506.6 L 88362.1988 16603 L 88509.1982 16613.7 L 88687 16550.2 L 88882.6 16443.9 L 89078.1 16337.5 L 89255.9 16274 L 89403 16284.7 L 89514.5 16381.1 L 89595.4 16551.7 L 89658.4 16765.2 L 89721.5 16978.7 L 89802.3 17149.3 L 89913.8937 17245.7 L 90060.8931 17256.4 L 90238.7 17192.9 L 90434.3 17086.6 L 90629.8 16980.2 L 90807.6 16916.7 L 90954.7 16927.4 L 91066.2 17023.8 L 91147.1 17194.5 L 91210.1 17407.9 L 91273.2 17621.4 L 91354 17792.1 L 91465.6 17888.5 L 91612.6 17899.2 L 91790.4 17835.7 L 91986 17729.3 L 92181.5 17623 L 92359.3 17559.5 L 92506.4 17570.2 L 92617.9 17666.6 L 92698.8 17837.2 L 92761.8 18050.7 L 92824.9 18264.2 L 92905.7 18434.8 L 93017.3 18531.2 L 93164.2923 18541.9 L 93342.1 18478.4 L 93537.7 18372 L 93733.1972 18265.7 L 93911 18202.2 L 94058.1 18212.9 L 94169.6 18309.3 L 94250.5 18479.9 L 94313.5 18693.4 L 94376.6 18906.9 L 94457.4 19077.5 L 94569 19173.9 L 94716 19184.6 L 94893.8 19121.1 L 95089.4 19014.8 L 95284.9 18908.4 L 95462.7 18844.9 L 95609.8 18855.6 L 95721.3 18952 L 95802.2 19122.7 L 95865.2 19336.1 L 95928.3 19549.6 L 96009.1 19720.2 L 96120.7 19816.7 L 96267.7 19827.4 L 96445.4946 19763.9 L 96641.1 19657.5 L 96836.5965 19551.1 L 97014.4 19487.6 L 97161.4943 19498.4 L 97294.6 19928.3 "/>
<path transform="matrix(.00359712,0,0,-.00359712,0,76.09)" d="M 89382 21125 C 89382 21127.8 89382 21155.5 89346 21155.5 C 89282.3 21155.5 89080.0962 21133.3 89008.1 21127.8 C 88985.9 21125 88955.3938 21122.3 88955.3938 21072.4 C 88955.3938 21039.2 88980.4 21039.2 89021.8935 21039.2 C 89154.9 21039.2 89160.4 21019.8 89160.4 20992.1 L 89152.1 20936.7 L 88750.4 19341 C 88739.4 19302.3 88739.4 19296.7 88739.4 19280.1 C 88739.4 19216.4 88794.8 19202.5 88819.7 19202.5 C 88855.7 19202.5 88897.3 19227.5 88913.9 19260.7 C 88927.7 19285.6 89052.4 19798.1 89068.9955 19867.4 C 89163.2 19859.1 89390.3933 19814.7 89390.3933 19631.9 C 89390.3933 19612.5 89390.3933 19601.4 89382 19573.7 C 89376.5 19540.5 89370.9955 19507.3 89370.9955 19476.8 C 89370.9955 19313.3 89481.8 19202.5 89625.8 19202.5 C 89708.9 19202.5 89783.6981 19246.8 89844.7 19349.3 C 89913.8937 19471.2 89944.4 19623.6 89944.4 19629.1 C 89944.4 19656.8 89919.5 19656.8 89911.2 19656.8 C 89883.5 19656.8 89880.7 19645.8 89872.4 19607 C 89817 19404.8 89753.3 19263.5 89631.4 19263.5 C 89578.7 19263.5 89542.7 19293.9 89542.7 19393.7 C 89542.7 19440.8 89553.8 19504.5 89564.9 19548.8 C 89576 19595.9 89576 19607 89576 19634.7 C 89576 19814.7 89401.4 19895.1 89166 19925.5 C 89251.8 19975.4 89340.5 20064.1 89404.2 20130.5 C 89537.2 20277.4 89664.6 20396.5 89800.292 20396.5 C 89817 20396.5 89819.7 20396.5 89825.3 20393.7 C 89858.4948 20388.2 89861.3 20388.2 89883.5 20371.5 C 89889 20368.8 89889 20366 89894.5 20360.5 C 89761.6 20352.2 89736.5961 20244.1 89736.5961 20210.9 C 89736.5961 20166.5 89767.1 20113.9 89841.9 20113.9 C 89913.8937 20113.9 89994.3 20174.9 89994.3 20282.9 C 89994.3 20366 89930.5 20457.4 89805.9 20457.4 C 89728.3 20457.4 89600.9 20435.3 89401.4 20213.6 C 89307.3 20108.4 89199.2 19997.6 89093.9 19956 L 89382 21125 "/>
<path transform="matrix(.00359712,0,0,-.00359712,0,76.09)" d="M 91008 19169.8 L 90942.1 19169.8 C 90936.3 19127.2 90916.9 19012.8 90891.7 18993.4 C 90876.1988 18981.8 90726.9 18981.8 90699.8 18981.8 L 90343.1 18981.8 C 90546.6 19162.1 90614.5 19216.4 90730.792 19307.5 C 90874.2914 19421.9 91008 19542.1 91008 19726.3 C 91008 19960.8 90802.5 20104.3 90554.4 20104.3 C 90314 20104.3 90151.1 19935.6 90151.1 19757.3 C 90151.1 19658.4 90234.5 19648.7 90253.9 19648.7 C 90300.4 19648.7 90356.6 19681.7 90356.6 19751.5 C 90356.6 19786.3 90343.1 19854.2 90242.2914 19854.2 C 90302.4 19991.9 90434.2 20034.5 90525.3 20034.5 C 90719.2 20034.5 90820 19883.3 90820 19726.3 C 90820 19557.6 90699.8 19423.8 90637.8 19354 L 90170.5 18892.6 C 90151.1 18875.2 90151.1 18871.3 90151.1 18817 L 90949.9 18817 L 91008 19169.8 "/>
<path transform="matrix(.00359712,0,0,-.00359712,0,76.09)" stroke-width="110.783" stroke-linecap="butt" stroke-miterlimit="10" stroke-linejoin="miter" fill="none" stroke="rgb(0,0,0)" d="M 81922.3 15754.4 L 77462.5 17601.8 "/>
<path transform="matrix(.00359712,0,0,-.00359712,0,76.09)" d="M 76821.3 17867.3 L 77595.3 17141.8 L 77436.9 17612.3 L 77881.6 17833 Z "/>
<path transform="matrix(.00359712,0,0,-.00359712,0,76.09)" stroke-width="110.777" stroke-linecap="butt" stroke-miterlimit="10" stroke-linejoin="miter" fill="none" stroke="rgb(0,0,0)" d="M 76821.3 17867.3 L 77595.3 17141.8 L 77436.9 17612.3 L 77881.6 17833 Z "/>
<path transform="matrix(.00359712,0,0,-.00359712,0,76.09)" stroke-width="110.783" stroke-linecap="butt" stroke-miterlimit="10" stroke-linejoin="miter" fill="none" stroke="rgb(0,0,0)" d="M 88936.2 11569.8 L 88806.7923 11623.4 L 88611.3 11517 L 88433.4955 11453.5 L 88286.4 11464.2 L 88174.9 11560.6 L 88094.1 11731.3 L 88031 11944.7 L 87967.8926 12158.2 L 87887.1 12328.8 L 87775.5 12425.3 L 87628.5 12436 L 87450.7 12372.4 L 87255.1 12266.1 L 87059.6 12159.7 L 86881.7911 12096.2 L 86734.7 12106.9 L 86623.2 12203.4 L 86542.4 12374 L 86479.3 12587.5 L 86416.1978 12800.9 L 86335.4 12971.6 L 86223.8 13068 L 86076.8 13078.7 L 85899 13015.2 L 85703.393 12908.8 L 85507.9 12802.5 L 85330.0962 12739 L 85183 12749.7 L 85071.5 12846.1 L 84990.7 13016.7 L 84927.6 13230.2 L 84864.5 13443.7 L 84783.6981 13614.3 L 84672.1 13710.7 L 84525.1 13721.4 L 84347.3 13657.9 L 84151.8 13551.6 L 83956.2 13445.2 L 83778.4 13381.7 L 83631.3 13392.4 L 83519.8 13488.8 L 83439 13659.5 L 83375.8936 13872.9 L 83312.8 14086.4 L 83232 14257 L 83120.4 14353.4 L 82973.4 14364.2 L 82795.6 14300.6 L 82600 14194.3 L 82404.5 14087.9 L 82226.7 14024.4 L 82079.6 14035.1 L 81968.1 14131.6 L 81887.3 14302.2 L 81824.1987 14515.7 L 81761.1 14729.1 L 81680.3 14899.8 L 81568.8 14996.2 L 81421.7 15006.9 L 81243.9 14943.4 L 81048.3 14837 L 80852.8 14730.7 L 80675 14667.2 L 80527.9 14677.9 L 80416.4 14774.3 L 80335.6 14944.9 L 80272.4943 15158.4 L 80209.4 15371.9 L 80128.6 15542.5 L 80016.9954 15638.9 L 79870 15649.6 L 79692.2 15586.1 L 79496.6 15479.8 L 79301.1 15373.4 L 79123.3 15309.9 L 78976.2 15320.6 L 78864.7 15417 L 78783.9 15587.6 L 78720.8 15801.1 L 78657.7 16014.6 L 78576.9 16185.2 L 78465.3 16281.6 L 78318.3 16292.3 L 78140.5 16228.8 L 77945 16122.5 L 77749.4 16016.1 L 77571.6 15952.6 L 77424.5 15963.3 L 77313 16059.7 L 77232.2 16230.4 L 77169.1 16443.9 L 77106 16657.3 L 77025.2 16828 L 76913.7 16924.4 L 76766.6 16935.1 L 76588.8 16871.6 L 76393.3 16765.2 L 76197.7 16658.9 L 76019.9 16595.4 L 75872.9 16606.1 L 75761.3 16702.5 L 75680.5 16873.1 L 75617.4 17086.6 L 75554.3 17300.1 L 75473.5 17470.7 L 75362 17567.1 L 75214.9 17577.8 L 75037.1 17514.3 L 74841.6 17407.9 L 74646 17301.6 L 74468.2 17238.1 L 74321.1 17248.8 L 74209.6 17345.2 L 74128.8 17515.8 L 74065.7 17729.3 L 74002.6 17942.8 L 73921.8 18113.4 L 73810.3 18209.8 L 73663.2 18220.5 L 73485.4 18157 L 73289.9 18050.7 L 73094.3 17944.3 L 72916.5 17880.8 L 72769.4 17891.5 L 72657.9 17987.9 L 72577.1 18158.6 L 72514 18372 L 72450.9 18585.5 L 72370.1 18756.1 L 72258.6 18852.6 L 72111.5 18863.3 L 71933.7 18799.8 L 71738.2 18693.4 L 71542.6 18587.1 L 71364.8 18523.5 L 71217.8 18534.3 L 71106.2 18630.7 L 71025.4 18801.3 L 70962.3 19014.8 L 70899.2 19228.3 L 70818.4 19398.9 L 70706.9 19495.3 L 70559.8 19506 L 70382 19442.5 L 70186.5 19336.1 L 69990.9 19229.8 L 69813.1 19166.3 L 69666.1 19177 L 69554.5 19273.4 L 69473.7 19444 L 69410.6 19657.5 L 69347.5 19871 L 69266.7 20041.6 L 69155.2 20138 L 68757.1 19928.3 "/>
<path transform="matrix(.00359712,0,0,-.00359712,0,76.09)" d="M 75575 21125 C 75575 21127.8 75575 21155.5 75539 21155.5 C 75475.3 21155.5 75273.1 21133.3 75201.1 21127.8 C 75178.9 21125 75148.4 21122.3 75148.4 21072.4 C 75148.4 21039.2 75173.4 21039.2 75214.9 21039.2 C 75347.9 21039.2 75353.4 21019.8 75353.4 20992.1 L 75345.1 20936.7 L 74943.4 19341 C 74932.4 19302.3 74932.4 19296.7 74932.4 19280.1 C 74932.4 19216.4 74987.8 19202.5 75012.7 19202.5 C 75048.7 19202.5 75090.3 19227.5 75106.9 19260.7 C 75120.7 19285.6 75245.4 19798.1 75262 19867.4 C 75356.2 19859.1 75583.4 19814.7 75583.4 19631.9 C 75583.4 19612.5 75583.4 19601.4 75575 19573.7 C 75569.5 19540.5 75564 19507.3 75564 19476.8 C 75564 19313.3 75674.8 19202.5 75818.8 19202.5 C 75901.9 19202.5 75976.7 19246.8 76037.7 19349.3 C 76106.9 19471.2 76137.4 19623.6 76137.4 19629.1 C 76137.4 19656.8 76112.5 19656.8 76104.2 19656.8 C 76076.5 19656.8 76073.7 19645.8 76065.4 19607 C 76010 19404.8 75946.3 19263.5 75824.4 19263.5 C 75771.7 19263.5 75735.7 19293.9 75735.7 19393.7 C 75735.7 19440.8 75746.8 19504.5 75757.9 19548.8 C 75769 19595.9 75769 19607 75769 19634.7 C 75769 19814.7 75594.4 19895.1 75359 19925.5 C 75444.8 19975.4 75533.5 20064.1 75597.2 20130.5 C 75730.2 20277.4 75857.6 20396.5 75993.3 20396.5 C 76010 20396.5 76012.7 20396.5 76018.3 20393.7 C 76051.5 20388.2 76054.3 20388.2 76076.5 20371.5 C 76082 20368.8 76082 20366 76087.5 20360.5 C 75954.6 20352.2 75929.6 20244.1 75929.6 20210.9 C 75929.6 20166.5 75960.1 20113.9 76034.9 20113.9 C 76106.9 20113.9 76187.3 20174.9 76187.3 20282.9 C 76187.3 20366 76123.5 20457.4 75998.9 20457.4 C 75921.3 20457.4 75793.9 20435.3 75594.4 20213.6 C 75500.3 20108.4 75392.2 19997.6 75286.9 19956 L 75575 21125 "/>
<path transform="matrix(.00359712,0,0,-.00359712,0,76.09)" d="M 76871.5 20050 C 76871.5 20102.4 76867.6 20104.3 76813.3 20104.3 C 76689.2 19982.2 76512.8 19980.2 76433.3 19980.2 L 76433.3 19910.4 C 76479.8 19910.4 76607.8 19910.4 76714.4 19964.7 L 76714.4 18976 C 76714.4 18912 76714.4 18886.8 76520.6 18886.8 L 76446.9 18886.8 L 76446.9 18817 C 76481.8 18818.9 76720.3 18824.8 76792 18824.8 C 76852.1 18824.8 77096.4 18818.9 77139 18817 L 77139 18886.8 L 77065.3 18886.8 C 76871.5 18886.8 76871.5 18912 76871.5 18976 L 76871.5 20050 "/>
</svg>
