<svg xmlns="http://www.w3.org/2000/svg" xmlns:xlink="http://www.w3.org/1999/xlink" version="1.1" width="190pt" height="84pt" viewBox="0 0 190 84">
<path transform="matrix(.00359712,0,0,-.00359712,0,84)" d="M2476.05 2067.03C2476.05 2069.81 2476.05 2097.52 2440.03 2097.52 2376.31 2097.52 2174.09 2075.34 2102.06 2069.81 2079.91 2067.03 2049.44 2064.27 2049.44 2014.41 2049.44 1981.16 2074.36 1981.16 2115.92 1981.16 2248.89 1981.16 2254.42 1961.77 2254.42 1934.06L2246.13 1878.67 1844.44 283.031C1833.36 244.25 1833.36 238.719 1833.36 222.094 1833.36 158.375 1888.77 144.531 1913.7 144.531 1958.02 144.531 2002.34 177.766 2016.19 216.547L2068.83 427.094 2129.77 676.406C2146.39 737.344 2163.02 798.297 2176.86 862 2182.41 878.625 2204.56 970.047 2207.33 986.672 2215.64 1011.59 2301.52 1166.73 2395.7 1241.52 2456.66 1285.84 2542.53 1338.48 2661.64 1338.48 2780.77 1338.48 2811.23 1244.3 2811.23 1144.56 2811.23 994.969 2705.97 693.031 2639.48 524.047 2617.33 460.328 2603.47 427.094 2603.47 371.688 2603.47 241.484 2700.42 144.531 2830.63 144.531 3091.03 144.531 3193.52 548.969 3193.52 571.141 3193.52 598.844 3168.59 598.844 3160.28 598.844 3132.58 598.844 3132.58 590.531 3118.73 548.969 3077.17 402.156 2988.53 205.469 2836.17 205.469 2789.08 205.469 2769.69 233.172 2769.69 296.891 2769.69 366.141 2794.61 432.625 2819.55 493.578 2863.88 612.688 2988.53 942.344 2988.53 1103.02 2988.53 1283.08 2877.72 1399.42 2669.95 1399.42 2495.44 1399.42 2362.47 1313.55 2259.97 1186.13L2476.05 2067.03"/>
<path transform="matrix(.00359712,0,0,-.00359712,0,84)" d="M20315.3 12183.7C20384.5 12305.6 20451 12405.3 20625.5 12419.2 20650.5 12421.9 20678.2 12421.9 20678.2 12474.6 20678.2 12485.6 20667.1 12505 20644.9 12505 20578.4 12505 20500.9 12496.7 20431.6 12496.7 20337.4 12496.7 20234.9 12505 20143.5 12505 20126.9 12505 20090.9 12505 20090.9 12452.4 20090.9 12421.9 20115.8 12419.2 20132.4 12419.2 20198.9 12416.4 20295.9 12394.2 20295.9 12311.1 20295.9 12280.7 20282 12258.5 20259.9 12219.7L19511.9 10915 19409.4 12289C19406.6 12344.4 19401.1 12416.4 19603.3 12419.2 19650.4 12419.2 19678.1 12419.2 19678.1 12474.6 19678.1 12502.3 19647.6 12505 19636.6 12505 19525.8 12505 19409.4 12496.7 19298.6 12496.7 19234.9 12496.7 19071.5 12505 19007.7 12505 18991.1 12505 18955.1 12505 18955.1 12449.6 18955.1 12419.2 18982.8 12419.2 19021.6 12419.2 19143.5 12419.2 19162.9 12402.5 19168.4 12349.9L19185 12136.6 18484.2 10915 18378.9 12319.4C18378.9 12352.7 18378.9 12416.4 18589.4 12419.2 18617.1 12419.2 18647.6 12419.2 18647.6 12474.6 18647.6 12505 18614.4 12505 18608.8 12505 18498 12505 18381.7 12496.7 18268.1 12496.7 18171.1 12496.7 18071.4 12505 17977.2 12505 17963.4 12505 17927.4 12505 17927.4 12452.4 17927.4 12419.2 17952.3 12419.2 17996.6 12419.2 18135.1 12419.2 18137.9 12394.2 18143.4 12316.7L18268.1 10624.1C18270.9 10574.2 18273.6 10552.1 18312.4 10552.1 18345.7 10552.1 18354 10568.7 18378.9 10610.2L19193.3 12023 19295.8 10624.1C19301.4 10565.9 19306.9 10552.1 19340.2 10552.1 19376.2 10552.1 19392.8 10579.8 19406.6 10604.7L20315.3 12183.7"/>
<path transform="matrix(.00359712,0,0,-.00359712,0,84)" d="M22217.4 12056.1C22248.4 12056.1 22294.9 12056.1 22294.9 12102.7 22294.9 12151.1 22250.3 12151.1 22217.4 12151.1H21061.9C21030.9 12151.1 20984.4 12151.1 20984.4 12104.6 20984.4 12056.1 21029 12056.1 21061.9 12056.1H22217.4"/>
<path transform="matrix(.00359712,0,0,-.00359712,0,84)" d="M20877.6 10726.8C20879.5 10734.5 20881.5 10746.1 20881.5 10755.8 20881.5 10757.8 20881.5 10783 20850.5 10783 20848.5 10783 20738 10773.3 20724.5 10773.3 20687.6 10769.4 20652.7 10767.5 20615.9 10763.6 20584.9 10761.6 20561.6 10759.7 20561.6 10719 20561.6 10691.8 20588.8 10691.8 20612 10691.8 20705.1 10691.8 20705.1 10680.2 20705.1 10662.8 20705.1 10651.1 20695.4 10612.4 20687.6 10587.2L20590.7 10195.5C20542.2 10001.7 20532.5 9962.89 20532.5 9955.14 20532.5 9928 20561.6 9928 20569.4 9928H20600.4C20772.9 9955.14 21019.1 10046.3 21226.6 10230.4 21490.3 10465 21529 10717 21529 10720.9 21529 10755.8 21501.9 10783 21463.1 10783 21395.3 10783 21381.7 10728.7 21364.2 10674.4 21286.7 10399.1 21026.9 10102.5 20697.3 10005.5L20877.6 10726.8"/>
<path transform="matrix(.00359712,0,0,-.00359712,0,84)" d="M2599.27 22608.7C2668.52 22730.6 2735 22830.3 2909.52 22844.2 2934.45 22846.9 2962.16 22846.9 2962.16 22899.6 2962.16 22910.6 2951.08 22930 2928.92 22930 2862.44 22930 2784.86 22921.7 2715.61 22921.7 2621.42 22921.7 2518.92 22930 2427.52 22930 2410.89 22930 2374.88 22930 2374.88 22877.4 2374.88 22846.9 2399.81 22844.2 2416.44 22844.2 2482.92 22841.4 2579.88 22819.2 2579.88 22736.1 2579.88 22705.7 2566.02 22683.5 2543.86 22644.7L1795.91 21340 1693.41 22714C1690.64 22769.4 1685.09 22841.4 1887.33 22844.2 1934.42 22844.2 1962.13 22844.2 1962.13 22899.6 1962.13 22927.3 1931.64 22930 1920.56 22930 1809.77 22930 1693.41 22921.7 1582.61 22921.7 1518.89 22921.7 1355.45 22930 1291.73 22930 1275.11 22930 1239.09 22930 1239.09 22874.6 1239.09 22844.2 1266.8 22844.2 1305.58 22844.2 1427.47 22844.2 1446.86 22827.5 1452.41 22774.9L1469.03 22561.6 768.172 21340 662.906 22744.4C662.906 22777.7 662.906 22841.4 873.438 22844.2 901.141 22844.2 931.609 22844.2 931.609 22899.6 931.609 22930 898.359 22930 892.828 22930 782.016 22930 665.672 22921.7 552.094 22921.7 455.141 22921.7 355.406 22930 261.219 22930 247.375 22930 211.359 22930 211.359 22877.4 211.359 22844.2 236.297 22844.2 280.609 22844.2 419.125 22844.2 421.891 22819.2 427.438 22741.7L552.094 21049.1C554.859 20999.2 557.641 20977.1 596.422 20977.1 629.656 20977.1 637.969 20993.7 662.906 21035.2L1477.34 22448 1579.83 21049.1C1585.38 20990.9 1590.91 20977.1 1624.16 20977.1 1660.17 20977.1 1676.8 21004.8 1690.64 21029.7L2599.27 22608.7"/>
<path transform="matrix(.00359712,0,0,-.00359712,0,84)" d="M3957.63 22481.1H4550.86C4576.06 22481.1 4622.59 22481.1 4622.59 22527.7 4622.59 22576.1 4578 22576.1 4550.86 22576.1H3957.63V23171.3C3957.63 23196.5 3957.63 23243.1 3911.09 23243.1 3862.63 23243.1 3862.63 23198.5 3862.63 23171.3V22576.1H3267.44C3242.23 22576.1 3195.7 22576.1 3195.7 22529.6 3195.7 22481.1 3240.3 22481.1 3267.44 22481.1H3862.63V21886C3862.63 21860.8 3862.63 21814.2 3909.16 21814.2 3957.63 21814.2 3957.63 21858.8 3957.63 21886V22481.1"/>
<path transform="matrix(.00359712,0,0,-.00359712,0,84)" d="M2779.69 20041.9C2771.94 20012.8 2771.94 20003.1 2771.94 20001.2 2771.94 19958.5 2806.83 19939.1 2837.84 19939.1 2907.64 19939.1 2923.16 20003.1 2930.91 20036 2934.78 20045.8 2973.56 20200.8 3020.09 20390.8 3080.19 20350.1 3157.73 20334.6 3227.53 20334.6 3394.27 20334.6 3502.83 20470.3 3506.7 20474.2 3543.53 20340.4 3677.31 20334.6 3706.39 20334.6 3776.19 20334.6 3824.66 20377.3 3859.55 20437.4 3902.2 20513 3927.41 20623.5 3927.41 20631.2 3927.41 20656.4 3902.2 20656.4 3896.38 20656.4 3869.23 20656.4 3867.3 20648.7 3853.73 20596.3 3830.47 20503.3 3793.63 20388.9 3712.2 20388.9 3661.8 20388.9 3648.23 20431.5 3648.23 20483.9 3648.23 20516.8 3663.73 20586.6 3677.31 20637 3690.88 20689.4 3710.27 20768.9 3719.95 20811.5L3764.55 20984.1C3776.19 21032.5 3797.5 21117.8 3797.5 21127.5 3797.5 21166.3 3766.48 21189.6 3733.53 21189.6 3712.2 21189.6 3675.38 21179.9 3654.05 21143 3648.23 21131.4 3632.72 21069.4 3623.03 21030.6L3582.31 20869.7 3522.22 20627.4C3508.64 20578.9 3508.64 20575 3491.19 20549.8 3431.09 20464.5 3345.8 20388.9 3235.28 20388.9 3076.31 20388.9 3076.31 20526.5 3076.31 20561.4 3076.31 20611.8 3082.13 20637 3109.27 20741.7 3128.66 20827 3132.53 20840.6 3151.92 20916.2L3179.06 21024.8C3188.75 21065.5 3208.14 21139.2 3208.14 21146.9 3208.14 21181.8 3181 21209 3142.23 21209 3072.44 21209 3054.98 21141.1 3049.17 21117.8L2779.69 20041.9"/>
<path transform="matrix(.00359712,0,0,-.00359712,0,84)" stroke-width="110.783" stroke-linecap="butt" stroke-dasharray="830.895,830.895" stroke-miterlimit="10" stroke-linejoin="miter" fill="none" stroke="#000000" d="M3599.28 3076.47 8389.48 11373.3"/>
<path transform="matrix(.00359712,0,0,-.00359712,0,84)" stroke-width="110.783" stroke-linecap="butt" stroke-miterlimit="10" stroke-linejoin="miter" fill="none" stroke="#000000" d="M8389.48 11373.3 8316.14 11500.3 8092.89 11540.8 7909.8 11604.4 7796.29 11708.3 7763.11 11858.5 7799.51 12048.9 7876.07 12262.5 7952.63 12476.1 7989.03 12666.5 7955.86 12816.7 7842.35 12920.6 7659.25 12984.2 7436 13024.7 7212.75 13065.2 7029.66 13128.9 6916.15 13232.7 6882.97 13382.9 6919.38 13573.3 6995.93 13786.9 7072.5 14000.5 7108.89 14190.9 7075.72 14341.1 6962.2 14445 6779.11 14508.6 6555.87 14549.1 6332.62 14589.6 6149.53 14653.3 6036.02 14757.1 6002.84 14907.4 6039.23 15097.8 6115.8 15311.3 6192.36 15524.9 6228.76 15715.3 6195.58 15865.6 6082.07 15969.4 5898.98 16033.1 5675.73 16073.6 5452.48 16114 5269.39 16177.7 5155.88 16281.6 5122.7 16431.8 5159.1 16622.2 5235.66 16835.8 5312.22 17049.4 5348.62 17239.7 5315.44 17390 5201.93 17493.8 5018.84 17557.5 4795.59 17598 4572.34 17638.5 4389.25 17702.1 4275.74 17806 4242.56 17956.2 4278.96 18146.6 4355.52 18360.2 4432.08 18573.8 4468.48 18764.2 4435.3 18914.4 3987.13 18998.3"/>
<path transform="matrix(.00359712,0,0,-.00359712,0,84)" stroke-width="110.783" stroke-linecap="butt" stroke-miterlimit="10" stroke-linejoin="miter" fill="none" stroke="#000000" d="M8389.48 11373.3H8529.58L8669.68 11546.4 8809.77 11673.1 8949.87 11719.5 9089.96 11673.1 9230.06 11546.4 9370.16 11373.3 9510.26 11200.2 9650.35 11073.4 9790.45 11027.1 9930.55 11073.4 10070.6 11200.2 10210.7 11373.3 10350.8 11546.4 10490.9 11673.1 10631 11719.5 10771.1 11673.1 10911.2 11546.4 11051.3 11373.3 11191.4 11200.2 11331.5 11073.4 11471.6 11027.1 11611.7 11073.4 11751.8 11200.2 11891.9 11373.3 12032 11546.4 12172.1 11673.1 12312.2 11719.5 12452.3 11673.1 12592.4 11546.4 12732.5 11373.3 12872.6 11200.2 13012.7 11073.4 13152.8 11027.1 13292.9 11073.4 13433 11200.2 13573.1 11373.3 13713.2 11546.4 13853.3 11673.1 13993.4 11719.5 14133.5 11673.1 14273.6 11546.4 14413.6 11373.3 14553.7 11200.2 14693.8 11073.4 14833.9 11027.1 14974 11073.4 15114.1 11200.2 15254.2 11373.3 15394.3 11546.4 15534.4 11673.1 15674.5 11719.5 15814.6 11673.1 15954.7 11546.4 16094.8 11373.3 16234.9 11200.2 16375 11073.4 16515.1 11027.1 16796.6 11373.3"/>
<path transform="matrix(.00359712,0,0,-.00359712,0,84)" d="M5081.27 11841.7C5150.52 11963.6 5217 12063.3 5391.52 12077.2 5416.45 12079.9 5444.16 12079.9 5444.16 12132.6 5444.16 12143.6 5433.08 12163 5410.92 12163 5344.44 12163 5266.86 12154.7 5197.61 12154.7 5103.42 12154.7 5000.92 12163 4909.52 12163 4892.89 12163 4856.88 12163 4856.88 12110.4 4856.88 12079.9 4881.81 12077.2 4898.44 12077.2 4964.92 12074.4 5061.88 12052.2 5061.88 11969.1 5061.88 11938.7 5048.02 11916.5 5025.86 11877.7L4277.91 10573 4175.41 11947C4172.64 12002.4 4167.09 12074.4 4369.33 12077.2 4416.42 12077.2 4444.13 12077.2 4444.13 12132.6 4444.13 12160.3 4413.64 12163 4402.56 12163 4291.77 12163 4175.41 12154.7 4064.61 12154.7 4000.89 12154.7 3837.45 12163 3773.73 12163 3757.11 12163 3721.09 12163 3721.09 12107.6 3721.09 12077.2 3748.8 12077.2 3787.58 12077.2 3909.47 12077.2 3928.86 12060.5 3934.41 12007.9L3951.03 11794.6 3250.17 10573 3144.91 11977.4C3144.91 12010.7 3144.91 12074.4 3355.44 12077.2 3383.14 12077.2 3413.61 12077.2 3413.61 12132.6 3413.61 12163 3380.36 12163 3374.83 12163 3264.02 12163 3147.67 12154.7 3034.09 12154.7 2937.14 12154.7 2837.41 12163 2743.22 12163 2729.38 12163 2693.36 12163 2693.36 12110.4 2693.36 12077.2 2718.3 12077.2 2762.61 12077.2 2901.13 12077.2 2903.89 12052.2 2909.44 11974.7L3034.09 10282.1C3036.86 10232.2 3039.64 10210.1 3078.42 10210.1 3111.66 10210.1 3119.97 10226.7 3144.91 10268.2L3959.34 11681 4061.83 10282.1C4067.38 10223.9 4072.91 10210.1 4106.16 10210.1 4142.17 10210.1 4158.8 10237.8 4172.64 10262.7L5081.27 11841.7"/>
<path transform="matrix(.00359712,0,0,-.00359712,0,84)" d="M6983.39 11714.1C7014.41 11714.1 7060.94 11714.1 7060.94 11760.7 7060.94 11809.1 7016.34 11809.1 6983.39 11809.1H5827.92C5796.91 11809.1 5750.38 11809.1 5750.38 11762.6 5750.38 11714.1 5794.97 11714.1 5827.92 11714.1H6983.39"/>
<path transform="matrix(.00359712,0,0,-.00359712,0,84)" d="M11908.3 9760.7C11977.5 9882.58 12044 9982.31 12218.5 9996.16 12243.5 9998.94 12271.2 9998.94 12271.2 10051.6 12271.2 10062.6 12260.1 10082 12237.9 10082 12171.4 10082 12093.9 10073.7 12024.6 10073.7 11930.4 10073.7 11827.9 10082 11736.5 10082 11719.9 10082 11683.9 10082 11683.9 10029.4 11683.9 9998.94 11708.8 9996.16 11725.4 9996.16 11791.9 9993.39 11888.9 9971.23 11888.9 9888.13 11888.9 9857.66 11875 9835.48 11852.9 9796.7L11104.9 8491.95 11002.4 9865.97C10999.6 9921.38 10994.1 9993.39 11196.3 9996.16 11243.4 9996.16 11271.1 9996.16 11271.1 10051.6 11271.1 10079.3 11240.6 10082 11229.6 10082 11118.8 10082 11002.4 10073.7 10891.6 10073.7 10827.9 10073.7 10664.5 10082 10600.7 10082 10584.1 10082 10548.1 10082 10548.1 10026.6 10548.1 9996.16 10575.8 9996.16 10614.6 9996.16 10736.5 9996.16 10755.9 9979.55 10761.4 9926.91L10778 9713.61 10077.2 8491.95 9971.91 9896.44C9971.91 9929.67 9971.91 9993.39 10182.4 9996.16 10210.1 9996.16 10240.6 9996.16 10240.6 10051.6 10240.6 10082 10207.4 10082 10201.8 10082 10091 10082 9974.67 10073.7 9861.09 10073.7 9764.14 10073.7 9664.41 10082 9570.22 10082 9556.38 10082 9520.36 10082 9520.36 10029.4 9520.36 9996.16 9545.3 9996.16 9589.61 9996.16 9728.13 9996.16 9730.89 9971.23 9736.44 9893.67L9861.09 8201.08C9863.86 8151.22 9866.64 8129.06 9905.42 8129.06 9938.66 8129.06 9946.97 8145.67 9971.91 8187.23L10786.3 9600.03 10888.8 8201.08C10894.4 8142.91 10899.9 8129.06 10933.2 8129.06 10969.2 8129.06 10985.8 8156.75 10999.6 8181.69L11908.3 9760.7"/>
<path transform="matrix(.00359712,0,0,-.00359712,0,84)" d="M13265.6 9633.14H13858.9C13884.1 9633.14 13930.6 9633.14 13930.6 9679.67 13930.6 9728.14 13886 9728.14 13858.9 9728.14H13265.6V10323.3C13265.6 10348.5 13265.6 10395.1 13219.1 10395.1 13170.6 10395.1 13170.6 10350.5 13170.6 10323.3V9728.14H12575.4C12550.2 9728.14 12503.7 9728.14 12503.7 9681.61 12503.7 9633.14 12548.3 9633.14 12575.4 9633.14H13170.6V9037.97C13170.6 9012.77 13170.6 8966.23 13217.2 8966.23 13265.6 8966.23 13265.6 9010.83 13265.6 9037.97V9633.14"/>
<path transform="matrix(.00359712,0,0,-.00359712,0,84)" d="M26240.1 11922.8C26281.7 11922.8 26334.3 11922.8 26334.3 11978.3 26334.3 12033.7 26281.7 12033.7 26242.9 12033.7H24583.5C24544.8 12033.7 24492.1 12033.7 24492.1 11978.3 24492.1 11922.8 24544.8 11922.8 24586.3 11922.8H26240.1ZM26242.9 11385.4C26281.7 11385.4 26334.3 11385.4 26334.3 11440.8 26334.3 11496.3 26281.7 11496.3 26240.1 11496.3H24586.3C24544.8 11496.3 24492.1 11496.3 24492.1 11440.8 24492.1 11385.4 24544.8 11385.4 24583.5 11385.4H26242.9"/>
<path transform="matrix(.00359712,0,0,-.00359712,0,84)" d="M28047.7 12748.4C28047.7 12803.8 28009 12848.1 27945.2 12848.1 27870.4 12848.1 27795.6 12776.1 27795.6 12701.3 27795.6 12648.6 27834.4 12601.5 27900.9 12601.5 27964.6 12601.5 28047.7 12665.3 28047.7 12748.4ZM27837.2 11706.8C27870.4 11787.1 27870.4 11792.7 27898.1 11867.5 27920.3 11922.8 27934.2 11961.6 27934.2 12014.3 27934.2 12138.9 27845.5 12241.4 27707 12241.4 27446.6 12241.4 27341.3 11839.8 27341.3 11814.8 27341.3 11787.1 27369 11787.1 27374.6 11787.1 27402.3 11787.1 27405 11792.7 27418.9 11837 27493.7 12097.4 27604.5 12180.5 27698.7 12180.5 27720.8 12180.5 27767.9 12180.5 27767.9 12091.8 27767.9 12033.7 27748.5 11975.5 27737.5 11947.8 27715.3 11875.8 27590.7 11554.4 27546.3 11435.3 27518.6 11363.3 27482.6 11271.9 27482.6 11213.7 27482.6 11083.5 27576.8 10986.5 27709.8 10986.5 27970.2 10986.5 28072.7 11388.2 28072.7 11413.1 28072.7 11440.8 28047.7 11440.8 28039.4 11440.8 28011.7 11440.8 28011.7 11432.5 27997.9 11391 27948 11216.5 27856.6 11047.5 27715.3 11047.5 27668.2 11047.5 27648.8 11075.2 27648.8 11138.9 27648.8 11208.1 27665.5 11246.9 27729.2 11415.9L27837.2 11706.8"/>
<path transform="matrix(.00359712,0,0,-.00359712,0,84)" d="M29851.8 13934.4C29854.5 13951 29860.1 13964.8 29860.1 13984.2 29860.1 14031.3 29826.8 14059 29779.7 14059 29752 14059 29677.2 14039.6 29666.2 13939.9 29616.3 14042.4 29519.3 14114.4 29408.5 14114.4 29092.7 14114.4 28749.2 13726.6 28749.2 13327.7 28749.2 13053.4 28918.2 12890 29117.7 12890 29281.1 12890 29411.3 13020.2 29439 13050.7L29441.8 13047.9C29383.6 12801.4 29350.4 12687.8 29350.4 12682.2 29339.3 12657.3 29245.1 12383.1 28951.5 12383.1 28898.8 12383.1 28807.4 12385.8 28729.8 12410.8 28812.9 12435.7 28843.4 12507.7 28843.4 12554.8 28843.4 12599.1 28812.9 12651.8 28738.1 12651.8 28677.2 12651.8 28588.5 12601.9 28588.5 12491.1 28588.5 12377.5 28691 12322.1 28957 12322.1 29303.3 12322.1 29502.7 12538.2 29544.3 12704.4L29851.8 13934.4ZM29491.6 13244.6C29475 13172.6 29411.3 13103.3 29350.4 13050.7 29292.2 13000.8 29206.3 12950.9 29126 12950.9 28987.5 12950.9 28945.9 13095 28945.9 13205.8 28945.9 13338.8 29026.3 13665.7 29101 13806.9 29175.8 13942.7 29295 14053.5 29411.3 14053.5 29594.1 14053.5 29632.9 13829.1 29632.9 13815.3 29632.9 13801.4 29627.4 13784.8 29624.6 13773.7L29491.6 13244.6"/>
<path transform="matrix(.00359712,0,0,-.00359712,0,84)" d="M30947 14247.8H30881.1C30875.3 14205.2 30855.9 14090.8 30830.7 14071.4 30815.2 14059.8 30665.9 14059.8 30638.8 14059.8H30282.1C30485.6 14240.1 30553.5 14294.4 30669.8 14385.5 30813.3 14499.9 30947 14620.1 30947 14804.3 30947 15038.8 30741.5 15182.3 30493.4 15182.3 30253 15182.3 30090.1 15013.6 30090.1 14835.3 30090.1 14736.4 30173.5 14726.7 30192.9 14726.7 30239.4 14726.7 30295.6 14759.7 30295.6 14829.5 30295.6 14864.3 30282.1 14932.2 30181.3 14932.2 30241.4 15069.9 30373.2 15112.5 30464.3 15112.5 30658.2 15112.5 30759 14961.3 30759 14804.3 30759 14635.6 30638.8 14501.8 30576.8 14432L30109.5 13970.6C30090.1 13953.2 30090.1 13949.3 30090.1 13895H30888.9L30947 14247.8"/>
<path transform="matrix(.00359712,0,0,-.00359712,0,84)" d="M32506.5 13920.5C32506.5 14070.1 32434.4 14114.4 32384.6 14114.4 32315.3 14114.4 32248.8 14042.4 32248.8 13981.5 32248.8 13945.4 32262.7 13928.8 32293.1 13898.3 32351.3 13842.9 32387.3 13770.9 32387.3 13671.2 32387.3 13554.8 32218.3 12920.5 31894.2 12920.5 31753 12920.5 31689.3 13017.4 31689.3 13161.5 31689.3 13316.6 31764 13518.8 31849.9 13748.8 31869.3 13795.8 31883.2 13834.6 31883.2 13887.3 31883.2 14011.9 31794.5 14114.4 31656 14114.4 31395.6 14114.4 31290.3 13712.8 31290.3 13687.8 31290.3 13660.1 31318 13660.1 31323.6 13660.1 31351.3 13660.1 31354 13665.7 31367.9 13710 31448.2 13989.8 31567.4 14053.5 31647.7 14053.5 31669.8 14053.5 31716.9 14053.5 31716.9 13964.8 31716.9 13895.6 31689.3 13820.8 31669.8 13770.9 31548 13449.6 31512 13322.2 31512 13203 31512 12903.8 31755.7 12859.5 31883.2 12859.5 32348.5 12859.5 32506.5 13776.5 32506.5 13920.5"/>
<path transform="matrix(.00359712,0,0,-.00359712,0,84)" stroke-width="110.783" stroke-linecap="butt" stroke-miterlimit="10" stroke-linejoin="miter" fill="none" stroke="#000000" d="M28547.3 11709.1H32651.9"/>
<path transform="matrix(.00359712,0,0,-.00359712,0,84)" d="M30258.8 9330.3 30552.5 9615.64C30984.6 9997.92 31150.8 10147.5 31150.8 10424.5 31150.8 10740.3 30901.5 10961.9 30563.5 10961.9 30250.5 10961.9 30045.5 10707.1 30045.5 10460.5 30045.5 10305.4 30184 10305.4 30192.3 10305.4 30239.4 10305.4 30336.4 10338.7 30336.4 10452.2 30336.4 10524.3 30286.5 10596.3 30189.6 10596.3 30167.4 10596.3 30161.9 10596.3 30153.5 10593.5 30217.3 10773.6 30366.8 10876.1 30527.5 10876.1 30779.6 10876.1 30898.7 10651.7 30898.7 10424.5 30898.7 10202.9 30760.2 9984.06 30607.9 9812.31L30076 9219.5C30045.5 9189.03 30045.5 9183.48 30045.5 9117H31073.3L31150.8 9599.02H31081.6C31067.7 9515.91 31048.3 9394.02 31020.6 9352.47 31001.2 9330.3 30818.4 9330.3 30757.5 9330.3H30258.8"/>
<path transform="matrix(.00359712,0,0,-.00359712,0,84)" d="M34288.8 12061.4C34291.5 12078 34297.1 12091.8 34297.1 12111.2 34297.1 12158.3 34263.8 12186 34216.7 12186 34189 12186 34114.2 12166.6 34103.2 12066.9 34053.3 12169.4 33956.3 12241.4 33845.5 12241.4 33529.7 12241.4 33186.2 11853.6 33186.2 11454.7 33186.2 11180.4 33355.2 11017 33554.7 11017 33718.1 11017 33848.3 11147.2 33876 11177.7L33878.8 11174.9C33820.6 10928.4 33787.4 10814.8 33787.4 10809.2 33776.3 10784.3 33682.1 10510.1 33388.5 10510.1 33335.8 10510.1 33244.4 10512.8 33166.8 10537.8 33249.9 10562.7 33280.4 10634.7 33280.4 10681.8 33280.4 10726.1 33249.9 10778.8 33175.1 10778.8 33114.2 10778.8 33025.5 10728.9 33025.5 10618.1 33025.5 10504.5 33128 10449.1 33394 10449.1 33740.3 10449.1 33939.7 10665.2 33981.3 10831.4L34288.8 12061.4ZM33928.6 11371.6C33912 11299.6 33848.3 11230.3 33787.4 11177.7 33729.2 11127.8 33643.3 11077.9 33563 11077.9 33424.5 11077.9 33382.9 11222 33382.9 11332.8 33382.9 11465.8 33463.3 11792.7 33538 11933.9 33612.8 12069.7 33732 12180.5 33848.3 12180.5 34031.1 12180.5 34069.9 11956.1 34069.9 11942.3 34069.9 11928.4 34064.4 11911.8 34061.6 11900.7L33928.6 11371.6"/>
<path transform="matrix(.00359712,0,0,-.00359712,0,84)" d="M34409.7 10288.9C34401.9 10259.8 34401.9 10250.1 34401.9 10248.2 34401.9 10205.5 34436.8 10186.1 34467.8 10186.1 34537.6 10186.1 34553.2 10250.1 34560.9 10283 34564.8 10292.8 34603.6 10447.8 34650.1 10637.8 34710.2 10597.1 34787.7 10581.6 34857.5 10581.6 35024.3 10581.6 35132.8 10717.3 35136.7 10721.2 35173.5 10587.4 35307.3 10581.6 35336.4 10581.6 35406.2 10581.6 35454.7 10624.3 35489.5 10684.4 35532.2 10760 35557.4 10870.5 35557.4 10878.2 35557.4 10903.4 35532.2 10903.4 35526.4 10903.4 35499.2 10903.4 35497.3 10895.7 35483.7 10843.3 35460.5 10750.3 35423.6 10635.9 35342.2 10635.9 35291.8 10635.9 35278.2 10678.5 35278.2 10730.9 35278.2 10763.8 35293.7 10833.6 35307.3 10884 35320.9 10936.4 35340.3 11015.9 35350 11058.5L35394.5 11231.1C35406.2 11279.5 35427.5 11364.8 35427.5 11374.5 35427.5 11413.3 35396.5 11436.6 35363.5 11436.6 35342.2 11436.6 35305.4 11426.9 35284 11390 35278.2 11378.4 35262.7 11316.4 35253 11277.6L35212.3 11116.7 35152.2 10874.4C35138.6 10825.9 35138.6 10822 35121.2 10796.8 35061.1 10711.5 34975.8 10635.9 34865.3 10635.9 34706.3 10635.9 34706.3 10773.5 34706.3 10808.4 34706.3 10858.8 34712.1 10884 34739.3 10988.7 34758.7 11074 34762.5 11087.6 34781.9 11163.2L34809.1 11271.8C34818.8 11312.5 34838.1 11386.2 34838.1 11393.9 34838.1 11428.8 34811 11456 34772.2 11456 34702.4 11456 34685 11388.1 34679.2 11364.8L34409.7 10288.9"/>
<path transform="matrix(.00359712,0,0,-.00359712,0,84)" d="M36137.6 11399.8C36139.5 11407.5 36141.5 11419.1 36141.5 11428.8 36141.5 11430.8 36141.5 11456 36110.5 11456 36108.5 11456 35998 11446.3 35984.5 11446.3 35947.6 11442.4 35912.7 11440.5 35875.9 11436.6 35844.9 11434.6 35821.6 11432.7 35821.6 11392 35821.6 11364.8 35848.8 11364.8 35872 11364.8 35965.1 11364.8 35965.1 11353.2 35965.1 11335.8 35965.1 11324.1 35955.4 11285.4 35947.6 11260.2L35850.7 10868.5C35802.2 10674.7 35792.5 10635.9 35792.5 10628.1 35792.5 10601 35821.6 10601 35829.4 10601H35860.4C36032.9 10628.1 36279.1 10719.3 36486.6 10903.4 36750.3 11138 36789 11390 36789 11393.9 36789 11428.8 36761.9 11456 36723.1 11456 36655.3 11456 36641.7 11401.7 36624.2 11347.4 36546.7 11072.1 36286.9 10775.5 35957.3 10678.5L36137.6 11399.8"/>
<path transform="matrix(.00359712,0,0,-.00359712,0,84)" d="M39702.1 11922.8C39743.7 11922.8 39796.3 11922.8 39796.3 11978.3 39796.3 12033.7 39743.7 12033.7 39704.9 12033.7H38045.5C38006.8 12033.7 37954.1 12033.7 37954.1 11978.3 37954.1 11922.8 38006.8 11922.8 38048.3 11922.8H39702.1ZM39704.9 11385.4C39743.7 11385.4 39796.3 11385.4 39796.3 11440.8 39796.3 11496.3 39743.7 11496.3 39702.1 11496.3H38048.3C38006.8 11496.3 37954.1 11496.3 37954.1 11440.8 37954.1 11385.4 38006.8 11385.4 38045.5 11385.4H39704.9"/>
<path transform="matrix(.00359712,0,0,-.00359712,0,84)" d="M41509.7 12748.4C41509.7 12803.8 41471 12848.1 41407.2 12848.1 41332.4 12848.1 41257.6 12776.1 41257.6 12701.3 41257.6 12648.6 41296.4 12601.5 41362.9 12601.5 41426.6 12601.5 41509.7 12665.3 41509.7 12748.4ZM41299.2 11706.8C41332.4 11787.1 41332.4 11792.7 41360.1 11867.5 41382.3 11922.8 41396.2 11961.6 41396.2 12014.3 41396.2 12138.9 41307.5 12241.4 41169 12241.4 40908.6 12241.4 40803.3 11839.8 40803.3 11814.8 40803.3 11787.1 40831 11787.1 40836.6 11787.1 40864.3 11787.1 40867 11792.7 40880.9 11837 40955.7 12097.4 41066.5 12180.5 41160.7 12180.5 41182.8 12180.5 41229.9 12180.5 41229.9 12091.8 41229.9 12033.7 41210.5 11975.5 41199.5 11947.8 41177.3 11875.8 41052.7 11554.4 41008.3 11435.3 40980.6 11363.3 40944.6 11271.9 40944.6 11213.7 40944.6 11083.5 41038.8 10986.5 41171.8 10986.5 41432.2 10986.5 41534.7 11388.2 41534.7 11413.1 41534.7 11440.8 41509.7 11440.8 41501.4 11440.8 41473.7 11440.8 41473.7 11432.5 41459.9 11391 41410 11216.5 41318.6 11047.5 41177.3 11047.5 41130.2 11047.5 41110.8 11075.2 41110.8 11138.9 41110.8 11208.1 41127.5 11246.9 41191.2 11415.9L41299.2 11706.8"/>
<path transform="matrix(.00359712,0,0,-.00359712,0,84)" d="M42980.8 12061.4C42983.5 12078 42989.1 12091.8 42989.1 12111.2 42989.1 12158.3 42955.8 12186 42908.7 12186 42881 12186 42806.2 12166.6 42795.2 12066.9 42745.3 12169.4 42648.3 12241.4 42537.5 12241.4 42221.7 12241.4 41878.2 11853.6 41878.2 11454.7 41878.2 11180.4 42047.2 11017 42246.7 11017 42410.1 11017 42540.3 11147.2 42568 11177.7L42570.8 11174.9C42512.6 10928.4 42479.4 10814.8 42479.4 10809.2 42468.3 10784.3 42374.1 10510.1 42080.5 10510.1 42027.8 10510.1 41936.4 10512.8 41858.8 10537.8 41941.9 10562.7 41972.4 10634.7 41972.4 10681.8 41972.4 10726.1 41941.9 10778.8 41867.1 10778.8 41806.2 10778.8 41717.5 10728.9 41717.5 10618.1 41717.5 10504.5 41820 10449.1 42086 10449.1 42432.3 10449.1 42631.7 10665.2 42673.3 10831.4L42980.8 12061.4ZM42620.6 11371.6C42604 11299.6 42540.3 11230.3 42479.4 11177.7 42421.2 11127.8 42335.3 11077.9 42255 11077.9 42116.5 11077.9 42074.9 11222 42074.9 11332.8 42074.9 11465.8 42155.3 11792.7 42230 11933.9 42304.8 12069.7 42424 12180.5 42540.3 12180.5 42723.1 12180.5 42761.9 11956.1 42761.9 11942.3 42761.9 11928.4 42756.4 11911.8 42753.6 11900.7L42620.6 11371.6"/>
<path transform="matrix(.00359712,0,0,-.00359712,0,84)" d="M43334.8 11180.4C43326.5 11138.9 43309.8 11075.2 43309.8 11061.3 43309.8 11011.5 43348.6 10986.5 43390.2 10986.5 43423.4 10986.5 43473.3 11008.7 43492.7 11064.1 43495.5 11069.6 43528.7 11199.8 43545.3 11269.1L43606.3 11518.4C43622.9 11579.3 43639.5 11640.3 43653.3 11704 43664.4 11751.1 43686.6 11831.4 43689.4 11842.5 43730.9 11928.4 43877.7 12180.5 44140.9 12180.5 44265.6 12180.5 44290.5 12078 44290.5 11986.6 44290.5 11917.3 44271.1 11839.8 44248.9 11756.6L44171.4 11435.3 44116 11224.8C44104.9 11169.4 44080 11075.2 44080 11061.3 44080 11011.5 44118.7 10986.5 44160.3 10986.5 44246.2 10986.5 44262.8 11055.8 44285 11144.4 44323.7 11299.6 44426.2 11704 44451.2 11812 44459.5 11848.1 44606.3 12180.5 44908.3 12180.5 45027.4 12180.5 45057.8 12086.3 45057.8 11986.6 45057.8 11828.7 44941.5 11512.9 44886.1 11366 44861.2 11299.6 44850.1 11269.1 44850.1 11213.7 44850.1 11083.5 44947 10986.5 45077.2 10986.5 45337.6 10986.5 45440.1 11391 45440.1 11413.1 45440.1 11440.8 45415.2 11440.8 45406.9 11440.8 45379.2 11440.8 45379.2 11432.5 45365.3 11391 45323.8 11244.2 45235.1 11047.5 45082.8 11047.5 45035.7 11047.5 45016.3 11075.2 45016.3 11138.9 45016.3 11208.1 45041.2 11274.6 45066.1 11335.6 45118.8 11479.6 45235.1 11787.1 45235.1 11945 45235.1 12125.1 45124.3 12241.4 44916.5 12241.4 44708.8 12241.4 44567.5 12119.5 44465 11972.7 44462.3 12008.7 44453.9 12102.9 44376.4 12169.4 44307.1 12227.6 44218.5 12241.4 44149.2 12241.4 43899.9 12241.4 43764.2 12064.1 43717.1 12000.4 43703.2 12158.3 43586.9 12241.4 43462.2 12241.4 43334.8 12241.4 43282.1 12133.4 43257.2 12083.5 43207.3 11986.6 43171.3 11823.1 43171.3 11814.8 43171.3 11787.1 43199 11787.1 43204.6 11787.1 43232.3 11787.1 43235 11789.9 43251.7 11850.8 43298.8 12047.5 43354.2 12180.5 43453.9 12180.5 43498.2 12180.5 43539.8 12158.3 43539.8 12053 43539.8 11994.9 43531.5 11964.4 43495.5 11820.4L43334.8 11180.4"/>
<path transform="matrix(.00359712,0,0,-.00359712,0,84)" d="M47537.5 11696.4 47572.4 11746.8C47613.1 11799.1 47659.6 11847.6 47754.6 11855.3 47776 11857.3 47799.2 11859.2 47799.2 11898 47799.2 11911.6 47787.6 11925.1 47772.1 11925.1 47727.5 11925.1 47671.3 11917.4 47624.7 11917.4 47556.9 11917.4 47473.5 11925.1 47409.5 11925.1 47399.8 11925.1 47368.8 11925.1 47368.8 11882.5 47368.8 11857.3 47396 11855.3 47403.7 11855.3 47446.4 11853.4 47510.4 11841.8 47510.4 11787.5 47510.4 11766.2 47489 11731.3 47481.3 11717.7L46934.6 10820.1 46827.9 11799.1C46827.9 11853.4 46940.4 11855.3 46963.6 11855.3 46988.8 11855.3 47016 11855.3 47016 11898 47016 11899.9 47014 11925.1 46983 11925.1 46946.2 11925.1 46899.7 11921.3 46862.8 11919.3 46824 11917.4 46773.6 11917.4 46734.9 11917.4 46690.3 11917.4 46575.9 11925.1 46531.3 11925.1 46521.6 11925.1 46492.5 11925.1 46492.5 11882.5 46492.5 11855.3 46517.7 11855.3 46542.9 11855.3 46626.3 11855.3 46636 11841.8 46641.8 11822.4 46643.8 11810.8 46647.6 11756.5 46655.4 11696.4L46122.3 10820.1 46019.5 11770C46019.5 11777.8 46015.6 11797.2 46015.6 11799.1 46015.6 11855.3 46135.8 11855.3 46151.3 11855.3 46176.5 11855.3 46203.7 11855.3 46203.7 11898 46203.7 11905.8 46197.9 11925.1 46172.7 11925.1 46116.4 11925.1 45978.8 11917.4 45922.6 11917.4 45858.6 11917.4 45777.2 11925.1 45719 11925.1 45699.6 11925.1 45680.2 11917.4 45680.2 11884.4 45680.2 11855.3 45703.5 11855.3 45734.5 11855.3 45825.6 11855.3 45825.6 11843.7 45831.4 11795.2L45961.3 10614.6C45965.2 10575.8 45967.1 10562.2 46002 10562.2 46035 10562.2 46048.6 10579.7 46060.2 10601L46665.1 11597.5 46771.7 10612.6C46775.6 10571.9 46785.3 10562.2 46814.4 10562.2 46847.3 10562.2 46859 10579.7 46872.5 10602.9L47537.5 11696.4"/>
<path transform="matrix(.00359712,0,0,-.00359712,0,84)" d="M49353.8 12061.4C49356.5 12078 49362.1 12091.8 49362.1 12111.2 49362.1 12158.3 49328.8 12186 49281.7 12186 49254 12186 49179.2 12166.6 49168.2 12066.9 49118.3 12169.4 49021.3 12241.4 48910.5 12241.4 48594.7 12241.4 48251.2 11853.6 48251.2 11454.7 48251.2 11180.4 48420.2 11017 48619.7 11017 48783.1 11017 48913.3 11147.2 48941 11177.7L48943.8 11174.9C48885.6 10928.4 48852.4 10814.8 48852.4 10809.2 48841.3 10784.3 48747.1 10510.1 48453.5 10510.1 48400.8 10510.1 48309.4 10512.8 48231.8 10537.8 48314.9 10562.7 48345.4 10634.7 48345.4 10681.8 48345.4 10726.1 48314.9 10778.8 48240.1 10778.8 48179.2 10778.8 48090.5 10728.9 48090.5 10618.1 48090.5 10504.5 48193 10449.1 48459 10449.1 48805.3 10449.1 49004.7 10665.2 49046.3 10831.4L49353.8 12061.4ZM48993.6 11371.6C48977 11299.6 48913.3 11230.3 48852.4 11177.7 48794.2 11127.8 48708.3 11077.9 48628 11077.9 48489.5 11077.9 48447.9 11222 48447.9 11332.8 48447.9 11465.8 48528.3 11792.7 48603 11933.9 48677.8 12069.7 48797 12180.5 48913.3 12180.5 49096.1 12180.5 49134.9 11956.1 49134.9 11942.3 49134.9 11928.4 49129.4 11911.8 49126.6 11900.7L48993.6 11371.6"/>
<path transform="matrix(.00359712,0,0,-.00359712,0,84)" d="M49474.7 10288.9C49466.9 10259.8 49466.9 10250.1 49466.9 10248.2 49466.9 10205.5 49501.8 10186.1 49532.8 10186.1 49602.6 10186.1 49618.2 10250.1 49625.9 10283 49629.8 10292.8 49668.6 10447.8 49715.1 10637.8 49775.2 10597.1 49852.7 10581.6 49922.5 10581.6 50089.3 10581.6 50197.8 10717.3 50201.7 10721.2 50238.5 10587.4 50372.3 10581.6 50401.4 10581.6 50471.2 10581.6 50519.7 10624.3 50554.5 10684.4 50597.2 10760 50622.4 10870.5 50622.4 10878.2 50622.4 10903.4 50597.2 10903.4 50591.4 10903.4 50564.2 10903.4 50562.3 10895.7 50548.7 10843.3 50525.5 10750.3 50488.6 10635.9 50407.2 10635.9 50356.8 10635.9 50343.2 10678.5 50343.2 10730.9 50343.2 10763.8 50358.7 10833.6 50372.3 10884 50385.9 10936.4 50405.3 11015.9 50415 11058.5L50459.5 11231.1C50471.2 11279.5 50492.5 11364.8 50492.5 11374.5 50492.5 11413.3 50461.5 11436.6 50428.5 11436.6 50407.2 11436.6 50370.4 11426.9 50349 11390 50343.2 11378.4 50327.7 11316.4 50318 11277.6L50277.3 11116.7 50217.2 10874.4C50203.6 10825.9 50203.6 10822 50186.2 10796.8 50126.1 10711.5 50040.8 10635.9 49930.3 10635.9 49771.3 10635.9 49771.3 10773.5 49771.3 10808.4 49771.3 10858.8 49777.1 10884 49804.3 10988.7 49823.7 11074 49827.5 11087.6 49846.9 11163.2L49874.1 11271.8C49883.8 11312.5 49903.1 11386.2 49903.1 11393.9 49903.1 11428.8 49876 11456 49837.2 11456 49767.4 11456 49750 11388.1 49744.2 11364.8L49474.7 10288.9"/>
<path transform="matrix(.00359712,0,0,-.00359712,0,84)" d="M51201.6 11399.8C51203.5 11407.5 51205.5 11419.1 51205.5 11428.8 51205.5 11430.8 51205.5 11456 51174.5 11456 51172.5 11456 51062 11446.3 51048.5 11446.3 51011.6 11442.4 50976.7 11440.5 50939.9 11436.6 50908.9 11434.6 50885.6 11432.7 50885.6 11392 50885.6 11364.8 50912.8 11364.8 50936 11364.8 51029.1 11364.8 51029.1 11353.2 51029.1 11335.8 51029.1 11324.1 51019.4 11285.4 51011.6 11260.2L50914.7 10868.5C50866.2 10674.7 50856.5 10635.9 50856.5 10628.1 50856.5 10601 50885.6 10601 50893.4 10601H50924.4C51096.9 10628.1 51343.1 10719.3 51550.6 10903.4 51814.3 11138 51853 11390 51853 11393.9 51853 11428.8 51825.9 11456 51787.1 11456 51719.3 11456 51705.7 11401.7 51688.2 11347.4 51610.7 11072.1 51350.9 10775.5 51021.3 10678.5L51201.6 11399.8"/>
<path transform="matrix(.00359712,0,0,-.00359712,0,84)" d="M52625.9 11163.8C52625.9 11244.2 52559.4 11310.6 52479.1 11310.6 52398.7 11310.6 52332.2 11244.2 52332.2 11163.8 52332.2 11083.5 52398.7 11017 52479.1 11017 52559.4 11017 52625.9 11083.5 52625.9 11163.8"/>
</svg>
