<svg xmlns="http://www.w3.org/2000/svg" xmlns:xlink="http://www.w3.org/1999/xlink" version="1.1" width="270pt" height="70pt" viewBox="0 0 270 70">
<defs>
<clipPath id="clip_1">
<path transform="matrix(.00359712,0,0,-.00359712,0,70)" d="M12931.5 9762.25C12931.5 11394.4 11608.4 12717.4 9976.31 12717.4 8344.2 12717.4 7021.16 11394.4 7021.16 9762.25 7021.16 8130.14 8344.2 6807.1 9976.31 6807.1 11608.4 6807.1 12931.5 8130.14 12931.5 9762.25ZM9976.31 9762.25"/>
</clipPath>
<g id="pattern_tile_2">
<clipPath id="clip_3">
<path transform="matrix(.00359712,0,0,-.00359712,-106,702)" d="M-277-277V1108H1108V-277Z"/>
</clipPath>
<g clip-path="url(#clip_3)">
<path transform="matrix(.00359712,0,0,-.00359712,-106,702)" stroke-width="110.783" stroke-linecap="butt" stroke-miterlimit="10" stroke-linejoin="miter" fill="none" stroke="#000000" d="M0 830.895 858.594-27.6953"/>
</g>
</g>
<pattern id="pattern_2" patternUnits="userSpaceOnUse" patternContentUnits="userSpaceOnUse" x="0" y="0" width="2.98883" height="2.98883">
<clipPath id="clip_4">
<path d="M -.99628 -.99628 L 3.9851 -.99628 L 3.9851 3.9851 L -.99628 3.9851 Z"/>
</clipPath>
<g clip-path="url(#clip_4)">
<g transform="matrix(1,0,0,-1,106,702)">
<use x="0" y="0" xlink:href="#pattern_tile_2"/>
<use x="0" y="-2.98883" xlink:href="#pattern_tile_2"/>
<use x="-2.98883" y="0" xlink:href="#pattern_tile_2"/>
<use x="-2.98883" y="-2.98883" xlink:href="#pattern_tile_2"/>
</g>
</g>
</pattern>
</defs>
<g clip-path="url(#clip_1)">
<rect transform="matrix(1,0,0,-1,-106,702)" fill="url(#pattern_2)" x="127.27096" y="652.501" width="29.230202" height="29.230042"/>
</g>
<path transform="matrix(.00359712,0,0,-.00359712,0,70)" stroke-width="110.783" stroke-linecap="butt" stroke-miterlimit="10" stroke-linejoin="miter" fill="none" stroke="#000000" d="M12931.5 9762.25C12931.5 11394.4 11608.4 12717.4 9976.31 12717.4 8344.2 12717.4 7021.16 11394.4 7021.16 9762.25 7021.16 8130.14 8344.2 6807.1 9976.31 6807.1 11608.4 6807.1 12931.5 8130.14 12931.5 9762.25ZM9976.31 9762.25"/>
<path transform="matrix(.00359712,0,0,-.00359712,0,70)" d="M17940.7 19051C17940.7 19053.8 17940.7 19081.5 17904.7 19081.5 17841 19081.5 17638.8 19059.3 17566.7 19053.8 17544.6 19051 17514.1 19048.3 17514.1 18995.6 17514.1 18965.2 17541.8 18965.2 17583.4 18965.2 17716.3 18965.2 17719.1 18940.2 17719.1 18918.1L17710.8 18862.7 17361.7 17477.6C17353.4 17447.1 17347.9 17427.7 17347.9 17383.4 17347.9 17225.5 17469.8 17128.5 17600 17128.5 17691.4 17128.5 17760.6 17183.9 17807.7 17283.7 17857.6 17388.9 17890.8 17549.6 17890.8 17555.1 17890.8 17582.8 17865.9 17582.8 17857.6 17582.8 17829.9 17582.8 17827.1 17571.8 17818.8 17533 17771.7 17352.9 17719.1 17189.5 17608.3 17189.5 17525.2 17189.5 17525.2 17278.1 17525.2 17316.9 17525.2 17383.4 17528 17397.2 17541.8 17449.9L17940.7 19051"/>
<path transform="matrix(.00359712,0,0,-.00359712,0,70)" d="M18835.3 18369.6C18489.1 18286.5 18220.3 17926.3 18220.3 17591.2 18220.3 17325.2 18397.6 17125.8 18658 17125.8 18982.2 17125.8 19212.1 17560.7 19212.1 17943 19212.1 18195 19101.3 18333.6 19007.1 18458.2 18907.4 18582.9 18743.9 18790.6 18743.9 18912.5 18743.9 18973.5 18799.3 19040 18896.3 19040 18979.4 19040 19034.8 19003.9 19093 18965.2 19148.4 18931.9 19203.8 18895.9 19245.3 18895.9 19314.6 18895.9 19356.1 18962.4 19356.1 19006.7 19356.1 19067.7 19311.8 19076 19212.1 19098.1 19068 19128.6 19029.3 19128.6 18984.9 19128.6 18768.8 19128.6 18669.1 19009.5 18669.1 18843.3 18669.1 18693.7 18749.5 18538.5 18835.3 18369.6ZM18868.6 18308.6C18937.8 18181.2 19020.9 18031.6 19020.9 17832.2 19020.9 17649.3 18915.7 17186.7 18658 17186.7 18505.7 17186.7 18392.1 17303 18392.1 17513.6 18392.1 17688.1 18494.6 18208.9 18868.6 18308.6"/>
<path transform="matrix(.00359712,0,0,-.00359712,0,70)" d="M854.047 19320C854.047 19322.8 854.047 19350.5 818.031 19350.5 754.313 19350.5 552.094 19328.3 480.063 19322.8 457.906 19320 427.438 19317.3 427.438 19267.4 427.438 19234.2 452.359 19234.2 493.922 19234.2 626.891 19234.2 632.422 19214.8 632.422 19187.1L624.125 19131.7 222.438 17536C211.359 17497.3 211.359 17491.7 211.359 17475.1 211.359 17411.4 266.766 17397.5 291.703 17397.5 327.703 17397.5 369.266 17422.5 385.875 17455.7 399.734 17480.6 524.391 17993.1 541.016 18062.4 635.203 18054.1 862.359 18009.7 862.359 17826.9 862.359 17807.5 862.359 17796.4 854.047 17768.7 848.5 17735.5 842.969 17702.3 842.969 17671.8 842.969 17508.3 953.766 17397.5 1097.83 17397.5 1180.92 17397.5 1255.72 17441.8 1316.67 17544.3 1385.92 17666.2 1416.39 17818.6 1416.39 17824.1 1416.39 17851.8 1391.45 17851.8 1383.16 17851.8 1355.45 17851.8 1352.67 17840.8 1344.36 17802 1288.97 17599.8 1225.25 17458.5 1103.36 17458.5 1050.73 17458.5 1014.72 17488.9 1014.72 17588.7 1014.72 17635.8 1025.8 17699.5 1036.88 17743.8 1047.95 17790.9 1047.95 17802 1047.95 17829.7 1047.95 18009.7 873.438 18090.1 637.969 18120.5 723.844 18170.4 812.484 18259.1 876.203 18325.5 1009.17 18472.4 1136.61 18591.5 1272.34 18591.5 1288.97 18591.5 1291.73 18591.5 1297.28 18588.7 1330.52 18583.2 1333.28 18583.2 1355.45 18566.5 1360.98 18563.8 1360.98 18561 1366.53 18555.5 1233.56 18547.2 1208.63 18439.1 1208.63 18405.9 1208.63 18361.5 1239.09 18308.9 1313.89 18308.9 1385.92 18308.9 1466.25 18369.9 1466.25 18477.9 1466.25 18561 1402.55 18652.4 1277.88 18652.4 1200.31 18652.4 1072.89 18630.3 873.438 18408.6 779.25 18303.4 671.219 18192.6 565.938 18151L854.047 19320"/>
<path transform="matrix(.00359712,0,0,-.00359712,0,70)" d="M1699.58 18131.6C1807.61 18450.2 2109.56 18453 2140.03 18453 2558.33 18453 2588.81 17968.2 2588.81 17749.3 2588.81 17580.4 2574.95 17533.3 2555.56 17477.9 2494.63 17275.6 2411.52 16954.3 2411.52 16882.3 2411.52 16851.8 2425.36 16832.4 2447.53 16832.4 2483.55 16832.4 2505.7 16893.4 2536.17 16998.6 2599.89 17231.3 2627.59 17389.2 2638.67 17475.1 2644.22 17511.1 2649.75 17547.1 2660.83 17583.1 2749.48 17857.4 2926.77 18270.1 3037.58 18489 3056.97 18522.2 3090.22 18583.2 3090.22 18594.3 3090.22 18622 3062.52 18622 3056.97 18622 3048.66 18622 3032.03 18622 3023.73 18602.6 2879.67 18339.4 2768.88 18062.4 2658.06 17782.6 2655.3 17868.5 2652.52 18079 2544.48 18347.7 2478 18516.7 2367.19 18652.4 2176.05 18652.4 1829.78 18652.4 1635.86 18231.4 1635.86 18145.5 1635.86 18117.8 1660.8 18117.8 1688.5 18117.8L1699.58 18131.6"/>
<path transform="matrix(.00359712,0,0,-.00359712,0,70)" d="M1036.73 2222.38C1036.73 2277.77 997.953 2322.09 934.234 2322.09 859.438 2322.09 784.641 2250.06 784.641 2175.28 784.641 2122.64 823.422 2075.55 889.906 2075.55 953.625 2075.55 1036.73 2139.27 1036.73 2222.38ZM826.203 1180.78C859.438 1261.11 859.438 1266.66 887.141 1341.45 909.313 1396.84 923.156 1435.64 923.156 1488.27 923.156 1612.92 834.516 1715.42 696 1715.42 435.609 1715.42 330.328 1313.75 330.328 1288.81 330.328 1261.11 358.031 1261.11 363.578 1261.11 391.281 1261.11 394.047 1266.66 407.906 1310.97 482.703 1571.38 593.5 1654.48 687.688 1654.48 709.844 1654.48 756.938 1654.48 756.938 1565.83 756.938 1507.66 737.547 1449.48 726.469 1421.78 704.313 1349.77 579.656 1028.42 535.328 909.297 507.625 837.281 471.609 745.859 471.609 687.688 471.609 557.484 565.797 460.531 698.766 460.531 959.172 460.531 1061.67 862.203 1061.67 887.141 1061.67 914.844 1036.73 914.844 1028.42 914.844 1000.72 914.844 1000.72 906.531 986.875 864.969 937 690.453 845.594 521.469 704.313 521.469 657.219 521.469 637.828 549.172 637.828 612.891 637.828 682.141 654.453 720.922 718.156 889.906L826.203 1180.78"/>
<path transform="matrix(.00359712,0,0,-.00359712,0,70)" d="M2524.38 1144.77C2524.38 1579.69 2266.75 1715.42 2061.77 1715.42 1682.25 1715.42 1316.58 1319.28 1316.58 928.688 1316.58 671.063 1482.78 460.531 1765.34 460.531 1939.88 460.531 2139.33 524.25 2349.86 693.219 2385.88 546.406 2477.28 460.531 2601.94 460.531 2748.77 460.531 2834.64 612.891 2834.64 657.219 2834.64 676.609 2818.02 684.906 2801.39 684.906 2782 684.906 2773.7 676.609 2765.39 657.219 2715.52 521.469 2615.8 521.469 2610.25 521.469 2524.38 521.469 2524.38 737.547 2524.38 804.031 2524.38 862.203 2524.38 867.75 2552.08 900.984 2812.48 1227.88 2870.66 1549.22 2870.66 1551.98 2870.66 1557.52 2867.89 1579.69 2837.41 1579.69 2809.7 1579.69 2809.7 1571.38 2795.86 1521.52 2746 1346.98 2654.58 1136.45 2524.38 973.016V1144.77ZM2338.78 765.25C2095 551.938 1881.7 521.469 1770.89 521.469 1604.67 521.469 1521.58 646.125 1521.58 823.422 1521.58 959.156 1593.59 1258.34 1682.25 1399.63 1812.44 1601.84 1962.03 1654.48 2058.98 1654.48 2333.23 1654.48 2333.23 1291.58 2333.23 1075.52 2333.23 973.016 2333.23 812.344 2338.78 765.25"/>
<path transform="matrix(.00359712,0,0,-.00359712,0,70)" d="M17928.8 2442.38C17928.8 2495 17890 2542.09 17823.5 2542.09 17759.8 2542.09 17676.7 2478.38 17676.7 2395.28 17676.7 2339.88 17715.5 2295.55 17779.2 2295.55 17854 2295.55 17928.8 2367.58 17928.8 2442.38ZM17372 572.484C17319.3 361.953 17186.4 204.063 17031.2 204.063 17014.6 204.063 16973 204.063 16923.2 228.984 17006.3 248.375 17047.8 320.406 17047.8 375.813 17047.8 420.125 17017.4 472.766 16942.6 472.766 16873.3 472.766 16793 414.594 16793 314.859 16793 204.063 16903.8 143.109 17036.8 143.109 17230.7 143.109 17488.3 289.938 17557.6 564.188L17812.4 1578.06C17826.3 1633.47 17826.3 1672.25 17826.3 1680.56 17826.3 1838.47 17709.9 1935.42 17571.4 1935.42 17288.8 1935.42 17131 1533.75 17131 1508.81 17131 1481.11 17158.7 1481.11 17164.2 1481.11 17189.1 1481.11 17191.9 1483.88 17214.1 1536.52 17283.3 1705.5 17410.7 1874.48 17563.1 1874.48 17601.9 1874.48 17651.8 1863.39 17651.8 1747.05 17651.8 1683.33 17643.4 1652.86 17632.4 1605.77L17372 572.484"/>
<path transform="matrix(.00359712,0,0,-.00359712,0,70)" d="M19717.9 2287.23C19717.9 2495 19565.5 2666.75 19341.1 2666.75 19180.4 2666.75 19102.9 2622.42 19005.9 2550.41 18853.6 2439.59 18701.2 2170.89 18648.6 1960.36L18208.1 201.281C18205.3 190.203 18219.2 173.578 18241.3 173.578 18263.5 173.578 18271.8 179.125 18274.6 187.438L18468.5 952C18521.1 785.797 18643 683.297 18845.3 683.297 19047.5 683.297 19255.2 780.25 19379.9 902.141 19512.9 1029.58 19601.5 1206.86 19601.5 1411.86 19601.5 1611.31 19499 1755.36 19399.3 1824.61 19560 1916.03 19717.9 2087.78 19717.9 2287.23ZM19219.2 1827.39C19183.2 1813.53 19152.7 1808 19086.3 1808 19047.5 1808 18992.1 1805.22 18964.4 1819.08 18969.9 1846.78 19069.6 1841.23 19100.1 1841.23 19158.3 1841.23 19183.2 1841.23 19219.2 1827.39ZM19562.7 2350.95C19562.7 2157.03 19457.5 1957.58 19313.4 1871.7 19238.6 1899.41 19183.2 1904.95 19100.1 1904.95 19041.9 1904.95 18886.8 1907.72 18886.8 1816.31 18884 1738.73 19028.1 1747.05 19077.9 1747.05 19180.4 1747.05 19222 1749.83 19305.1 1783.06 19410.4 1683.33 19424.2 1597.45 19427 1470.03 19432.5 1309.36 19366 1101.59 19288.5 993.563 19180.4 843.969 18994.8 744.25 18836.9 744.25 18626.4 744.25 18521.1 904.906 18521.1 1101.59 18521.1 1129.3 18521.1 1170.84 18535 1223.48L18712.3 1924.34C18773.2 2162.58 18972.7 2603.03 19305.1 2603.03 19465.8 2603.03 19562.7 2517.16 19562.7 2350.95"/>
<path transform="matrix(.00359712,0,0,-.00359712,0,70)" stroke-width="110.783" stroke-linecap="butt" stroke-miterlimit="10" stroke-linejoin="miter" fill="none" stroke="#000000" d="M3509.3 3295.7 7847.54 7633.47"/>
<path transform="matrix(.00359712,0,0,-.00359712,0,70)" d="M6402.19 6188.35 4568.32 5428.79 5642.47 4354.54"/>
<path transform="matrix(.00359712,0,0,-.00359712,0,70)" stroke-width="110.783" stroke-linecap="butt" stroke-miterlimit="10" stroke-linejoin="miter" fill="none" stroke="#000000" d="M12105.1 11890.9 16395.1 16180.4"/>
<path transform="matrix(.00359712,0,0,-.00359712,0,70)" d="M14973.7 14759.2 13139.8 13999.6 14213.9 12925.4"/>
<path transform="matrix(.00359712,0,0,-.00359712,0,70)" stroke-width="110.783" stroke-linecap="butt" stroke-miterlimit="10" stroke-linejoin="miter" fill="none" stroke="#000000" d="M16125.8 3613.33 12105.1 7633.47"/>
<path transform="matrix(.00359712,0,0,-.00359712,0,70)" d="M13392.3 6346.46 14152 4512.67 15226.2 5586.94"/>
<path transform="matrix(.00359712,0,0,-.00359712,0,70)" stroke-width="110.783" stroke-linecap="butt" stroke-miterlimit="10" stroke-linejoin="miter" fill="none" stroke="#000000" d="M7847.44 11890.9 3826.75 15911.2"/>
<path transform="matrix(.00359712,0,0,-.00359712,0,70)" d="M5113.93 14624.1 5873.68 12790.3 6947.83 13864.6"/>
<path transform="matrix(.00359712,0,0,-.00359712,0,70)" d="M24359.1 9975.84C24400.7 9975.84 24453.3 9975.84 24453.3 10031.3 24453.3 10086.7 24400.7 10086.7 24361.9 10086.7H22702.5C22663.8 10086.7 22611.1 10086.7 22611.1 10031.3 22611.1 9975.84 22663.8 9975.84 22705.3 9975.84H24359.1ZM24361.9 9438.44C24400.7 9438.44 24453.3 9438.44 24453.3 9493.84 24453.3 9549.25 24400.7 9549.25 24359.1 9549.25H22705.3C22663.8 9549.25 22611.1 9549.25 22611.1 9493.84 22611.1 9438.44 22663.8 9438.44 22702.5 9438.44H24361.9"/>
<path transform="matrix(.00359712,0,0,-.00359712,0,70)" d="M26287.6 11042.4C26301.5 11072.8 26301.5 11078.4 26301.5 11092.2 26301.5 11122.7 26276.5 11147.6 26246.1 11147.6 26221.1 11147.6 26201.8 11133.8 26182.4 11083.9L25697.6 9812.41C25692 9795.8 25683.7 9779.17 25683.7 9762.55 25683.7 9754.23 25683.7 9748.7 25697.6 9715.45L26182.4 8443.94C26193.4 8413.47 26207.3 8377.45 26246.1 8377.45 26276.5 8377.45 26301.5 8402.39 26301.5 8432.86 26301.5 8441.17 26301.5 8446.7 26287.6 8477.19L25797.3 9762.55 26287.6 11042.4"/>
<path transform="matrix(.00359712,0,0,-.00359712,0,70)" d="M28332.4 9518.77H28263.2C28249.3 9446.75 28238.2 9383.03 28213.3 9316.55 28199.5 9272.22 28191.1 9250.06 28030.5 9250.06H27808.9C27844.9 9405.19 27930.7 9538.16 28055.4 9721 28185.6 9917.67 28299.2 10108.8 28299.2 10327.7 28299.2 10712.7 27925.2 11023 27457 11023 26980.6 11023 26612.1 10707.2 26612.1 10327.7 26612.1 10108.8 26725.7 9917.67 26855.9 9721 26977.8 9538.16 27066.4 9405.19 27102.5 9250.06H26880.8C26720.2 9250.06 26711.9 9272.22 26698 9313.78 26675.8 9377.48 26662 9449.52 26648.1 9518.77H26578.9L26670.3 9070H27113.5C27174.5 9070 27182.8 9070 27182.8 9128.17 27182.8 9322.09 27096.9 9565.86 27033.2 9743.16 26975 9903.83 26897.5 10122.7 26897.5 10330.4 26897.5 10773.7 27202.2 10962 27454.3 10962 27720.2 10962 28013.8 10762.6 28013.8 10330.4 28013.8 10122.7 27939 9912.14 27858.7 9684.98 27817.2 9568.64 27728.5 9319.31 27728.5 9128.17 27728.5 9070 27736.8 9070 27800.5 9070H28241L28332.4 9518.77"/>
<path transform="matrix(.00359712,0,0,-.00359712,0,70)" d="M28897.5 11047.9C28897.5 11097.8 28897.5 11147.6 28842.1 11147.6 28786.7 11147.6 28786.7 11097.8 28786.7 11047.9V8477.19C28786.7 8427.31 28786.7 8377.45 28842.1 8377.45 28897.5 8377.45 28897.5 8427.31 28897.5 8477.19V11047.9"/>
<path transform="matrix(.00359712,0,0,-.00359712,0,70)" d="M30870.9 10751.5C30890.3 10829.1 30901.3 10845.7 30934.6 10854 30959.5 10859.5 31050.9 10859.5 31109.1 10859.5 31388.9 10859.5 31513.5 10848.5 31513.5 10632.4 31513.5 10590.8 31502.5 10482.8 31491.4 10410.8 31488.6 10399.7 31483.1 10366.5 31483.1 10358.1 31483.1 10341.5 31491.4 10322.1 31516.3 10322.1 31546.8 10322.1 31552.3 10344.3 31557.9 10385.8L31632.7 10867.9C31635.4 10878.9 31638.2 10906.6 31638.2 10914.9 31638.2 10945.4 31610.5 10945.4 31563.4 10945.4H30026C29959.5 10945.4 29956.7 10942.6 29937.3 10890L29771.1 10402.5C29768.3 10396.9 29754.5 10358.1 29754.5 10352.6 29754.5 10336 29768.3 10322.1 29787.7 10322.1 29815.4 10322.1 29818.2 10336 29834.8 10380.3 29984.4 10809.7 30056.4 10859.5 30466.4 10859.5H30574.5C30652 10859.5 30652 10848.5 30652 10826.3 30652 10809.7 30643.7 10776.4 30640.9 10768.1L30269.7 9288.84C30244.8 9186.34 30236.5 9155.88 29940.1 9155.88 29840.4 9155.88 29823.7 9155.88 29823.7 9103.25 29823.7 9070 29854.2 9070 29870.8 9070 29945.6 9070 30023.2 9075.55 30098 9075.55 30175.5 9075.55 30255.9 9078.31 30333.5 9078.31 30411 9078.31 30488.6 9075.55 30563.4 9075.55 30643.7 9075.55 30726.8 9070 30804.4 9070 30832.1 9070 30865.3 9070 30865.3 9125.41 30865.3 9155.88 30843.2 9155.88 30771.1 9155.88 30701.9 9155.88 30665.9 9155.88 30593.8 9161.42 30513.5 9169.73 30491.4 9178.03 30491.4 9222.36 30491.4 9225.13 30491.4 9238.98 30502.4 9280.53L30870.9 10751.5"/>
<path transform="matrix(.00359712,0,0,-.00359712,0,70)" d="M32475 10779.2C32475 10890 32547 11067.3 32848.9 11086.7 32862.8 11089.5 32873.9 11100.5 32873.9 11117.2 32873.9 11147.6 32851.7 11147.6 32821.2 11147.6 32544.2 11147.6 32292.1 11006.4 32289.4 10801.4V10169.8C32289.4 10061.7 32289.4 9973.08 32178.5 9881.67 32081.6 9801.33 31976.3 9795.8 31915.4 9793.02 31901.5 9790.25 31890.5 9779.17 31890.5 9762.55 31890.5 9734.84 31907.1 9734.84 31934.8 9732.08 32117.6 9721 32250.6 9621.27 32281 9485.53 32289.4 9455.06 32289.4 9449.52 32289.4 9349.78V8801.3C32289.4 8684.94 32289.4 8596.3 32422.3 8491.03 32530.4 8407.92 32713.2 8377.45 32821.2 8377.45 32851.7 8377.45 32873.9 8377.45 32873.9 8407.92 32873.9 8435.63 32857.3 8435.63 32829.5 8438.39 32655 8449.48 32519.3 8538.13 32483.3 8679.41 32475 8704.33 32475 8709.88 32475 8809.61V9391.34C32475 9518.77 32452.8 9565.86 32364.2 9654.52 32306 9712.69 32225.6 9740.39 32148.1 9762.55 32375.2 9826.27 32475 9953.69 32475 10114.4V10779.2"/>
<path transform="matrix(.00359712,0,0,-.00359712,0,70)" d="M34411.2 10920.5C34414 10931.6 34419.5 10948.2 34419.5 10962 34419.5 10989.7 34400.2 10992.5 34386.3 10992.5 34358.6 10992.5 34355.8 10987 34344.8 10937.1L33884.9 9106.02C33674.4 9130.94 33569.1 9233.44 33569.1 9416.28 33569.1 9471.67 33569.1 9543.7 33718.7 9931.53 33729.8 9964.77 33749.2 10011.9 33749.2 10067.3 33749.2 10191.9 33660.5 10294.4 33522 10294.4 33258.8 10294.4 33156.3 9892.75 33156.3 9867.81 33156.3 9840.11 33184 9840.11 33189.6 9840.11 33217.3 9840.11 33220 9845.66 33233.9 9889.97 33308.7 10153.1 33419.5 10233.5 33513.7 10233.5 33535.8 10233.5 33582.9 10233.5 33582.9 10144.8 33582.9 10072.8 33555.3 10003.5 33519.2 9906.59 33386.3 9557.55 33386.3 9485.53 33386.3 9438.44 33386.3 9175.27 33602.3 9061.69 33868.3 9045.06 33846.1 8945.34 33846.1 8939.8 33807.3 8792.98 33799 8762.52 33743.6 8538.13 33743.6 8529.81 33743.6 8527.05 33743.6 8502.11 33776.9 8502.11 33782.4 8502.11 33796.3 8502.11 33801.8 8513.19 33810.1 8518.73 33826.7 8587.98 33835 8626.77L33940.3 9039.53C34042.8 9039.53 34286.6 9039.53 34547 9335.94 34660.5 9463.36 34718.7 9585.25 34749.2 9668.36 34774.1 9737.61 34835.1 9978.63 34835.1 10100.5 34835.1 10255.6 34760.3 10294.4 34713.2 10294.4 34643.9 10294.4 34574.7 10222.4 34574.7 10161.5 34574.7 10125.4 34591.3 10108.8 34616.2 10086.7 34646.7 10056.2 34716 9984.16 34716 9851.19 34716 9673.91 34571.9 9446.75 34474.9 9347.02 34231.2 9100.47 34053.9 9100.47 33954.2 9100.47L34411.2 10920.5"/>
<path transform="matrix(.00359712,0,0,-.00359712,0,70)" d="M35508.1 9865.69C35508.1 9896.7 35484.9 9939.36 35430.6 9939.36 35378.3 9939.36 35322 9888.95 35322 9832.73 35322 9799.77 35347.2 9759.06 35399.6 9759.06 35455.8 9759.06 35508.1 9813.34 35508.1 9865.69ZM35112.6 8880.83C35104.9 8855.63 35095.2 8832.36 35095.2 8799.41 35095.2 8708.28 35172.8 8634.61 35279.4 8634.61 35473.3 8634.61 35558.5 8902.16 35558.5 8931.23 35558.5 8956.44 35533.3 8956.44 35527.5 8956.44 35500.4 8956.44 35498.5 8944.81 35490.7 8923.48 35446.1 8768.39 35360.8 8688.89 35285.2 8688.89 35246.4 8688.89 35236.7 8714.09 35236.7 8756.75 35236.7 8801.34 35250.3 8838.17 35267.7 8880.83 35287.1 8933.17 35308.5 8985.52 35329.8 9035.92 35347.2 9082.45 35417 9258.88 35424.8 9282.14 35430.6 9301.53 35436.4 9324.8 35436.4 9344.17 35436.4 9435.3 35358.9 9508.97 35252.2 9508.97 35060.3 9508.97 34971.1 9245.3 34971.1 9212.34 34971.1 9187.14 34998.3 9187.14 35004.1 9187.14 35031.2 9187.14 35033.2 9196.84 35039 9218.16 35089.4 9384.89 35174.7 9454.69 35246.4 9454.69 35277.4 9454.69 35294.9 9439.17 35294.9 9386.83 35294.9 9342.23 35283.3 9313.16 35234.8 9192.95L35112.6 8880.83"/>
<path transform="matrix(.00359712,0,0,-.00359712,0,70)" d="M36723.5 8927.36C36901.8 9111.53 36973.6 9369.38 36973.6 9390.7 36973.6 9415.91 36950.3 9415.91 36940.6 9415.91 36913.5 9415.91 36913.5 9410.09 36899.9 9367.44 36865 9239.48 36801 9121.23 36719.6 9016.53 36717.7 9045.63 36713.8 9175.52 36709.9 9192.95 36680.8 9384.89 36535.4 9508.97 36341.5 9508.97 36056.6 9508.97 35783.2 9243.36 35783.2 8971.95 35783.2 8793.59 35913.1 8634.61 36138 8634.61 36316.3 8634.61 36477.3 8716.03 36585.8 8799.41 36630.4 8657.88 36729.3 8634.61 36787.5 8634.61 36899.9 8634.61 36969.7 8729.61 36969.7 8770.33 36969.7 8793.59 36946.4 8793.59 36936.7 8793.59 36911.5 8793.59 36907.6 8785.83 36903.8 8774.2 36876.6 8700.53 36816.5 8688.89 36793.3 8688.89 36766.1 8688.89 36733.2 8688.89 36723.5 8927.36ZM36572.3 8861.44C36382.3 8706.34 36217.5 8688.89 36143.8 8688.89 36015.8 8688.89 35944.1 8774.2 35944.1 8904.09 35944.1 8960.31 35971.3 9171.64 36072.1 9305.41 36161.3 9421.72 36271.8 9454.69 36339.6 9454.69 36494.7 9454.69 36539.3 9305.41 36554.8 9185.2 36566.4 9101.84 36562.6 8964.19 36572.3 8861.44"/>
<path transform="matrix(.00359712,0,0,-.00359712,0,70)" d="M38158.9 8405.16C38158.9 8413.47 38158.9 8419 38111.8 8466.09 37765.6 8815.14 37676.9 9338.7 37676.9 9762.55 37676.9 10244.6 37782.2 10726.6 38122.9 11072.8 38158.9 11106.1 38158.9 11111.6 38158.9 11119.9 38158.9 11139.3 38147.8 11147.6 38131.2 11147.6 38103.5 11147.6 37854.2 10959.3 37690.8 10607.5 37549.5 10302.7 37516.3 9995.25 37516.3 9762.55 37516.3 9546.47 37546.7 9211.28 37699.1 8898.25 37865.3 8557.52 38103.5 8377.45 38131.2 8377.45 38147.8 8377.45 38158.9 8385.77 38158.9 8405.16"/>
<path transform="matrix(.00359712,0,0,-.00359712,0,70)" d="M39244.3 9906.59C39260.9 9978.63 39324.6 10233.5 39518.5 10233.5 39532.3 10233.5 39598.8 10233.5 39657 10197.5 39579.4 10183.6 39524 10114.4 39524 10047.9 39524 10003.5 39554.5 9950.92 39629.3 9950.92 39690.3 9950.92 39778.9 10000.8 39778.9 10111.6 39778.9 10255.6 39615.5 10294.4 39521.3 10294.4 39360.6 10294.4 39263.6 10147.6 39230.4 10083.9 39161.1 10266.7 39011.5 10294.4 38931.2 10294.4 38643.1 10294.4 38485.2 9937.06 38485.2 9867.81 38485.2 9840.11 38512.9 9840.11 38518.5 9840.11 38540.6 9840.11 38548.9 9845.66 38554.5 9870.58 38648.7 10164.2 38831.5 10233.5 38925.7 10233.5 38978.3 10233.5 39075.3 10208.5 39075.3 10047.9 39075.3 9962 39028.2 9776.39 38925.7 9388.58 38881.3 9216.81 38784.4 9100.47 38662.5 9100.47 38645.9 9100.47 38582.2 9100.47 38524 9136.48 38593.3 9150.33 38654.2 9208.52 38654.2 9286.08 38654.2 9360.88 38593.3 9383.03 38551.7 9383.03 38468.6 9383.03 38399.3 9311 38399.3 9222.36 38399.3 9094.94 38537.8 9039.53 38659.7 9039.53 38842.6 9039.53 38942.3 9233.44 38950.6 9250.06 38983.8 9147.56 39083.6 9039.53 39249.8 9039.53 39535.1 9039.53 39693 9396.88 39693 9466.14 39693 9493.84 39668.1 9493.84 39659.8 9493.84 39634.8 9493.84 39629.3 9482.77 39623.8 9463.36 39532.3 9166.95 39344 9100.47 39255.3 9100.47 39147.3 9100.47 39103 9189.13 39103 9283.3 39103 9344.25 39119.6 9405.19 39150.1 9527.08L39244.3 9906.59"/>
<path transform="matrix(.00359712,0,0,-.00359712,0,70)" d="M40551.5 9887.02C40551.5 9939.36 40547.6 9941.3 40493.3 9941.3 40369.2 9819.16 40192.8 9817.22 40113.3 9817.22V9747.42C40159.8 9747.42 40287.8 9747.42 40394.4 9801.7V8812.97C40394.4 8749 40394.4 8723.8 40200.6 8723.8H40126.9V8654C40161.8 8655.94 40400.3 8661.75 40472 8661.75 40532.1 8661.75 40776.4 8655.94 40819 8654V8723.8H40745.3C40551.5 8723.8 40551.5 8749 40551.5 8812.97V9887.02"/>
<path transform="matrix(.00359712,0,0,-.00359712,0,70)" d="M41944.6 9762.55C41944.6 9978.63 41914.1 10313.8 41761.8 10626.8 41595.5 10967.6 41357.3 11147.6 41329.6 11147.6 41313 11147.6 41301.9 11136.6 41301.9 11119.9 41301.9 11111.6 41301.9 11106.1 41354.5 11056.2 41626 10782 41783.9 10341.5 41783.9 9762.55 41783.9 9288.84 41681.4 8801.3 41337.9 8452.25 41301.9 8419 41301.9 8413.47 41301.9 8405.16 41301.9 8388.53 41313 8377.45 41329.6 8377.45 41357.3 8377.45 41606.6 8565.83 41770.1 8917.64 41911.3 9222.36 41944.6 9529.84 41944.6 9762.55"/>
<path transform="matrix(.00359712,0,0,-.00359712,0,70)" d="M43556.2 10920.5C43559 10931.6 43564.5 10948.2 43564.5 10962 43564.5 10989.7 43545.2 10992.5 43531.3 10992.5 43503.6 10992.5 43500.8 10987 43489.8 10937.1L43029.9 9106.02C42819.4 9130.94 42714.1 9233.44 42714.1 9416.28 42714.1 9471.67 42714.1 9543.7 42863.7 9931.53 42874.8 9964.77 42894.2 10011.9 42894.2 10067.3 42894.2 10191.9 42805.5 10294.4 42667 10294.4 42403.8 10294.4 42301.3 9892.75 42301.3 9867.81 42301.3 9840.11 42329 9840.11 42334.6 9840.11 42362.3 9840.11 42365 9845.66 42378.9 9889.97 42453.7 10153.1 42564.5 10233.5 42658.7 10233.5 42680.8 10233.5 42727.9 10233.5 42727.9 10144.8 42727.9 10072.8 42700.3 10003.5 42664.2 9906.59 42531.3 9557.55 42531.3 9485.53 42531.3 9438.44 42531.3 9175.27 42747.3 9061.69 43013.3 9045.06 42991.1 8945.34 42991.1 8939.8 42952.3 8792.98 42944 8762.52 42888.6 8538.13 42888.6 8529.81 42888.6 8527.05 42888.6 8502.11 42921.9 8502.11 42927.4 8502.11 42941.3 8502.11 42946.8 8513.19 42955.1 8518.73 42971.7 8587.98 42980 8626.77L43085.3 9039.53C43187.8 9039.53 43431.6 9039.53 43692 9335.94 43805.5 9463.36 43863.7 9585.25 43894.2 9668.36 43919.1 9737.61 43980.1 9978.63 43980.1 10100.5 43980.1 10255.6 43905.3 10294.4 43858.2 10294.4 43788.9 10294.4 43719.7 10222.4 43719.7 10161.5 43719.7 10125.4 43736.3 10108.8 43761.2 10086.7 43791.7 10056.2 43861 9984.16 43861 9851.19 43861 9673.91 43716.9 9446.75 43619.9 9347.02 43376.2 9100.47 43198.9 9100.47 43099.2 9100.47L43556.2 10920.5"/>
<path transform="matrix(.00359712,0,0,-.00359712,0,70)" d="M44876.1 9865.69C44876.1 9898.64 44850.9 9939.36 44798.5 9939.36 44742.3 9939.36 44690 9885.08 44690 9832.73 44690 9801.7 44713.2 9759.06 44767.5 9759.06 44819.9 9759.06 44876.1 9809.47 44876.1 9865.69ZM44465.1 8559C44432.1 8425.23 44329.4 8312.78 44215 8312.78 44189.8 8312.78 44166.5 8316.67 44145.2 8324.42 44195.6 8347.69 44211.1 8394.22 44211.1 8423.3 44211.1 8469.83 44174.3 8495.03 44135.5 8495.03 44075.4 8495.03 44025 8442.69 44025 8380.64 44025 8306.97 44100.6 8258.5 44216.9 8258.5 44333.3 8258.5 44560.1 8328.3 44620.2 8564.81L44794.7 9258.88C44800.5 9280.2 44804.4 9297.66 44804.4 9326.73 44804.4 9433.36 44713.2 9508.97 44596.9 9508.97 44381.7 9508.97 44257.6 9239.48 44257.6 9212.34 44257.6 9187.14 44284.8 9187.14 44290.6 9187.14 44313.9 9187.14 44315.8 9192.95 44329.4 9222.05 44377.8 9334.48 44478.7 9454.69 44591.1 9454.69 44639.6 9454.69 44657 9421.72 44657 9359.69 44657 9338.36 44653.1 9311.22 44651.2 9301.53L44465.1 8559"/>
<path transform="matrix(.00359712,0,0,-.00359712,0,70)" d="M46278.2 9751.3C46278.2 9921.91 46130.9 10020.8 45960.3 10020.8 45694.7 10020.8 45498.8 9718.34 45450.4 9522.53L45146 8301.16C45142.1 8287.58 45161.5 8277.89 45173.1 8277.89 45190.6 8277.89 45206.1 8279.83 45210 8291.47L45339.9 8809.09C45380.6 8719.92 45473.6 8636.55 45630.7 8636.55 45902.1 8636.55 46208.4 8832.36 46208.4 9128.98 46208.4 9243.36 46156.1 9359.69 46057.2 9423.67 46152.2 9483.77 46278.2 9594.27 46278.2 9751.3ZM45894.3 9425.61C45865.3 9419.78 45851.7 9412.03 45795.5 9412.03 45764.4 9412.03 45717.9 9413.97 45704.3 9421.72 45723.7 9433.36 45778 9435.3 45795.5 9435.3 45824.5 9435.3 45867.2 9433.36 45894.3 9425.61ZM46150.3 9786.2C46150.3 9683.45 46099.8 9532.23 45979.6 9464.38 45942.8 9476.02 45906 9489.58 45797.4 9489.58 45729.5 9489.58 45632.6 9485.7 45632.6 9415.91 45632.6 9367.44 45692.7 9359.69 45791.6 9359.69 45857.5 9359.69 45915.7 9369.38 45975.8 9386.83 46033.9 9346.11 46064.9 9266.63 46064.9 9181.33 46064.9 8900.22 45873 8690.83 45636.5 8690.83 45487.2 8690.83 45380.6 8781.95 45380.6 8935.11 45380.6 8954.5 45382.5 8973.89 45386.4 8991.33L45514.3 9507.03C45560.9 9691.2 45731.5 9966.5 45956.4 9966.5 46070.8 9966.5 46150.3 9904.47 46150.3 9786.2"/>
<path transform="matrix(.00359712,0,0,-.00359712,0,70)" d="M47464.9 8405.16C47464.9 8413.47 47464.9 8419 47417.8 8466.09 47071.6 8815.14 46982.9 9338.7 46982.9 9762.55 46982.9 10244.6 47088.2 10726.6 47428.9 11072.8 47464.9 11106.1 47464.9 11111.6 47464.9 11119.9 47464.9 11139.3 47453.8 11147.6 47437.2 11147.6 47409.5 11147.6 47160.2 10959.3 46996.8 10607.5 46855.5 10302.7 46822.3 9995.25 46822.3 9762.55 46822.3 9546.47 46852.7 9211.28 47005.1 8898.25 47171.3 8557.52 47409.5 8377.45 47437.2 8377.45 47453.8 8377.45 47464.9 8385.77 47464.9 8405.16"/>
<path transform="matrix(.00359712,0,0,-.00359712,0,70)" d="M48550.3 9906.59C48566.9 9978.63 48630.6 10233.5 48824.5 10233.5 48838.3 10233.5 48904.8 10233.5 48963 10197.5 48885.4 10183.6 48830 10114.4 48830 10047.9 48830 10003.5 48860.5 9950.92 48935.3 9950.92 48996.3 9950.92 49084.9 10000.8 49084.9 10111.6 49084.9 10255.6 48921.5 10294.4 48827.3 10294.4 48666.6 10294.4 48569.6 10147.6 48536.4 10083.9 48467.1 10266.7 48317.5 10294.4 48237.2 10294.4 47949.1 10294.4 47791.2 9937.06 47791.2 9867.81 47791.2 9840.11 47818.9 9840.11 47824.5 9840.11 47846.6 9840.11 47854.9 9845.66 47860.5 9870.58 47954.7 10164.2 48137.5 10233.5 48231.7 10233.5 48284.3 10233.5 48381.3 10208.5 48381.3 10047.9 48381.3 9962 48334.2 9776.39 48231.7 9388.58 48187.3 9216.81 48090.4 9100.47 47968.5 9100.47 47951.9 9100.47 47888.2 9100.47 47830 9136.48 47899.3 9150.33 47960.2 9208.52 47960.2 9286.08 47960.2 9360.88 47899.3 9383.03 47857.7 9383.03 47774.6 9383.03 47705.3 9311 47705.3 9222.36 47705.3 9094.94 47843.8 9039.53 47965.7 9039.53 48148.6 9039.53 48248.3 9233.44 48256.6 9250.06 48289.8 9147.56 48389.6 9039.53 48555.8 9039.53 48841.1 9039.53 48999 9396.88 48999 9466.14 48999 9493.84 48974.1 9493.84 48965.8 9493.84 48940.8 9493.84 48935.3 9482.77 48929.8 9463.36 48838.3 9166.95 48650 9100.47 48561.3 9100.47 48453.3 9100.47 48409 9189.13 48409 9283.3 48409 9344.25 48425.6 9405.19 48456.1 9527.08L48550.3 9906.59"/>
<path transform="matrix(.00359712,0,0,-.00359712,0,70)" d="M50187 9006.84H50121.1C50115.3 8964.19 50095.9 8849.81 50070.7 8830.42 50055.2 8818.8 49905.9 8818.8 49878.8 8818.8H49522.1C49725.6 8999.09 49793.5 9053.38 49909.8 9144.48 50053.3 9258.88 50187 9379.08 50187 9563.25 50187 9797.83 49981.5 9941.3 49733.4 9941.3 49493 9941.3 49330.1 9772.63 49330.1 9594.27 49330.1 9495.39 49413.5 9485.7 49432.9 9485.7 49479.4 9485.7 49535.6 9518.66 49535.6 9588.45 49535.6 9623.34 49522.1 9691.2 49421.3 9691.2 49481.4 9828.86 49613.2 9871.5 49704.3 9871.5 49898.2 9871.5 49999 9720.28 49999 9563.25 49999 9394.58 49878.8 9260.81 49816.8 9191.02L49349.5 8729.61C49330.1 8712.16 49330.1 8708.28 49330.1 8654H50128.9L50187 9006.84"/>
<path transform="matrix(.00359712,0,0,-.00359712,0,70)" d="M51250.6 9762.55C51250.6 9978.63 51220.1 10313.8 51067.8 10626.8 50901.5 10967.6 50663.3 11147.6 50635.6 11147.6 50619 11147.6 50607.9 11136.6 50607.9 11119.9 50607.9 11111.6 50607.9 11106.1 50660.5 11056.2 50932 10782 51089.9 10341.5 51089.9 9762.55 51089.9 9288.84 50987.4 8801.3 50643.9 8452.25 50607.9 8419 50607.9 8413.47 50607.9 8405.16 50607.9 8388.53 50619 8377.45 50635.6 8377.45 50663.3 8377.45 50912.6 8565.83 51076.1 8917.64 51217.3 9222.36 51250.6 9529.84 51250.6 9762.55"/>
<path transform="matrix(.00359712,0,0,-.00359712,0,70)" d="M53286.2 11349.5V11435.4H52286.1V11349.5H53286.2"/>
<path transform="matrix(.00359712,0,0,-.00359712,0,70)" d="M52863.2 10920.5C52866 10931.6 52871.5 10948.2 52871.5 10962 52871.5 10989.7 52852.2 10992.5 52838.3 10992.5 52810.6 10992.5 52807.8 10987 52796.8 10937.1L52336.9 9106.02C52126.4 9130.94 52021.1 9233.44 52021.1 9416.28 52021.1 9471.67 52021.1 9543.7 52170.7 9931.53 52181.8 9964.77 52201.2 10011.9 52201.2 10067.3 52201.2 10191.9 52112.5 10294.4 51974 10294.4 51710.8 10294.4 51608.3 9892.75 51608.3 9867.81 51608.3 9840.11 51636 9840.11 51641.6 9840.11 51669.3 9840.11 51672 9845.66 51685.9 9889.97 51760.7 10153.1 51871.5 10233.5 51965.7 10233.5 51987.8 10233.5 52034.9 10233.5 52034.9 10144.8 52034.9 10072.8 52007.3 10003.5 51971.2 9906.59 51838.3 9557.55 51838.3 9485.53 51838.3 9438.44 51838.3 9175.27 52054.3 9061.69 52320.3 9045.06 52298.1 8945.34 52298.1 8939.8 52259.3 8792.98 52251 8762.52 52195.6 8538.13 52195.6 8529.81 52195.6 8527.05 52195.6 8502.11 52228.9 8502.11 52234.4 8502.11 52248.3 8502.11 52253.8 8513.19 52262.1 8518.73 52278.7 8587.98 52287 8626.77L52392.3 9039.53C52494.8 9039.53 52738.6 9039.53 52999 9335.94 53112.5 9463.36 53170.7 9585.25 53201.2 9668.36 53226.1 9737.61 53287.1 9978.63 53287.1 10100.5 53287.1 10255.6 53212.3 10294.4 53165.2 10294.4 53095.9 10294.4 53026.7 10222.4 53026.7 10161.5 53026.7 10125.4 53043.3 10108.8 53068.2 10086.7 53098.7 10056.2 53168 9984.16 53168 9851.19 53168 9673.91 53023.9 9446.75 52926.9 9347.02 52683.2 9100.47 52505.9 9100.47 52406.2 9100.47L52863.2 10920.5"/>
<path transform="matrix(.00359712,0,0,-.00359712,0,70)" d="M53938.8 9941.3C53940.8 9945.17 53946.6 9970.38 53946.6 9972.31 53946.6 9982.02 53938.8 9999.45 53915.5 9999.45 53876.8 9999.45 53715.9 9983.95 53667.4 9980.08 53651.9 9978.13 53624.8 9976.19 53624.8 9935.48 53624.8 9908.34 53651.9 9908.34 53675.2 9908.34 53768.2 9908.34 53768.2 9894.77 53768.2 9879.27 53768.2 9865.69 53764.3 9854.06 53760.5 9836.61L53487.1 8739.3C53477.4 8704.41 53477.4 8700.53 53477.4 8696.66 53477.4 8667.58 53500.7 8634.61 53543.3 8634.61 53595.7 8634.61 53620.9 8673.39 53632.5 8716.03 53636.4 8723.8 53719.7 9065 53727.5 9092.14 53865.1 9078.58 53975.7 9033.98 53975.7 8933.17 53975.7 8923.48 53975.7 8913.78 53971.8 8894.41 53964 8865.31 53964 8855.63 53964 8834.3 53964 8696.66 54076.5 8634.61 54169.5 8634.61 54357.6 8634.61 54415.7 8929.3 54415.7 8931.23 54415.7 8956.44 54390.5 8956.44 54384.7 8956.44 54357.6 8956.44 54355.6 8946.75 54345.9 8909.91 54322.7 8826.55 54270.3 8688.89 54175.3 8688.89 54123 8688.89 54107.5 8737.36 54107.5 8789.7 54107.5 8822.67 54107.5 8826.55 54119.1 8876.95 54121 8882.77 54128.8 8915.72 54128.8 8937.05 54128.8 9109.59 53896.2 9136.73 53814.7 9142.55 53871 9177.45 53942.7 9241.42 53975.7 9270.5 54074.5 9363.56 54171.5 9454.69 54280 9454.69 54303.3 9454.69 54328.5 9448.88 54344 9429.48 54260.6 9415.91 54243.2 9350 54243.2 9320.91 54243.2 9278.27 54276.1 9249.19 54320.7 9249.19 54373.1 9249.19 54431.3 9291.83 54431.3 9373.27 54431.3 9437.23 54384.7 9508.97 54282 9508.97 54171.5 9508.97 54070.6 9429.48 53971.8 9338.36 53890.3 9260.81 53826.4 9200.72 53746.9 9167.75L53938.8 9941.3"/>
<path transform="matrix(.00359712,0,0,-.00359712,0,70)" d="M55421.6 8925.42C55411.9 9037.86 55346 9508.97 55030 9508.97 54915.6 9508.97 54816.7 9446.92 54762.4 9396.52 54644.2 9289.89 54620.9 9165.81 54620.9 9160 54620.9 9136.73 54646.1 9136.73 54651.9 9136.73 54677.1 9136.73 54679.1 9140.61 54688.8 9169.69 54729.5 9284.08 54873 9353.88 55002.8 9353.88 55315 9353.88 55355.7 9041.73 55355.7 8844 55355.7 8747.06 55349.9 8725.73 55342.1 8704.41 55297.5 8559 55239.4 8343.81 55239.4 8285.64 55239.4 8264.33 55247.1 8239.13 55272.3 8239.13 55285.9 8239.13 55307.2 8239.13 55338.2 8339.94 55361.5 8415.55 55398.3 8559 55413.8 8698.59 55421.6 8766.44 55530.2 9028.17 55570.9 9121.23 55598 9181.33 55638.7 9272.45 55729.9 9441.11 55735.7 9450.81 55739.5 9458.56 55739.5 9466.31 55739.5 9489.58 55714.3 9489.58 55708.5 9489.58 55702.7 9489.58 55685.3 9489.58 55679.5 9479.89 55656.2 9439.17 55508.8 9161.94 55421.6 8925.42"/>
<path transform="matrix(.00359712,0,0,-.00359712,0,70)" d="M56893.9 8405.16C56893.9 8413.47 56893.9 8419 56846.8 8466.09 56500.6 8815.14 56411.9 9338.7 56411.9 9762.55 56411.9 10244.6 56517.2 10726.6 56857.9 11072.8 56893.9 11106.1 56893.9 11111.6 56893.9 11119.9 56893.9 11139.3 56882.8 11147.6 56866.2 11147.6 56838.5 11147.6 56589.2 10959.3 56425.8 10607.5 56284.5 10302.7 56251.3 9995.25 56251.3 9762.55 56251.3 9546.47 56281.7 9211.28 56434.1 8898.25 56600.3 8557.52 56838.5 8377.45 56866.2 8377.45 56882.8 8377.45 56893.9 8385.77 56893.9 8405.16"/>
<path transform="matrix(.00359712,0,0,-.00359712,0,70)" d="M57979.3 9906.59C57995.9 9978.63 58059.6 10233.5 58253.5 10233.5 58267.3 10233.5 58333.8 10233.5 58392 10197.5 58314.4 10183.6 58259 10114.4 58259 10047.9 58259 10003.5 58289.5 9950.92 58364.3 9950.92 58425.3 9950.92 58513.9 10000.8 58513.9 10111.6 58513.9 10255.6 58350.5 10294.4 58256.3 10294.4 58095.6 10294.4 57998.6 10147.6 57965.4 10083.9 57896.1 10266.7 57746.5 10294.4 57666.2 10294.4 57378.1 10294.4 57220.2 9937.06 57220.2 9867.81 57220.2 9840.11 57247.9 9840.11 57253.5 9840.11 57275.6 9840.11 57283.9 9845.66 57289.5 9870.58 57383.7 10164.2 57566.5 10233.5 57660.7 10233.5 57713.3 10233.5 57810.3 10208.5 57810.3 10047.9 57810.3 9962 57763.2 9776.39 57660.7 9388.58 57616.3 9216.81 57519.4 9100.47 57397.5 9100.47 57380.9 9100.47 57317.2 9100.47 57259 9136.48 57328.3 9150.33 57389.2 9208.52 57389.2 9286.08 57389.2 9360.88 57328.3 9383.03 57286.7 9383.03 57203.6 9383.03 57134.3 9311 57134.3 9222.36 57134.3 9094.94 57272.8 9039.53 57394.7 9039.53 57577.6 9039.53 57677.3 9233.44 57685.6 9250.06 57718.8 9147.56 57818.6 9039.53 57984.8 9039.53 58270.1 9039.53 58428 9396.88 58428 9466.14 58428 9493.84 58403.1 9493.84 58394.8 9493.84 58369.8 9493.84 58364.3 9482.77 58358.8 9463.36 58267.3 9166.95 58079 9100.47 57990.3 9100.47 57882.3 9100.47 57838 9189.13 57838 9283.3 57838 9344.25 57854.6 9405.19 57885.1 9527.08L57979.3 9906.59"/>
<path transform="matrix(.00359712,0,0,-.00359712,0,70)" d="M59166.3 9301.53C59317.5 9301.53 59426 9196.84 59426 8989.39 59426 8749 59286.5 8677.27 59174 8677.27 59096.5 8677.27 58925.9 8698.59 58844.4 8812.97 58935.6 8816.84 58956.9 8880.83 58956.9 8921.55 58956.9 8983.58 58910.4 9028.17 58850.3 9028.17 58796 9028.17 58741.7 8995.22 58741.7 8915.72 58741.7 8733.48 58943.3 8615.22 59177.9 8615.22 59447.4 8615.22 59633.5 8795.53 59633.5 8989.39 59633.5 9140.61 59509.4 9291.83 59296.2 9336.42 59499.7 9410.09 59573.4 9555.5 59573.4 9673.75 59573.4 9826.91 59397 9941.3 59181.8 9941.3 58966.6 9941.3 58801.8 9836.61 58801.8 9681.52 58801.8 9615.59 58844.4 9578.77 58902.6 9578.77 58962.7 9578.77 59001.5 9623.34 59001.5 9677.64 59001.5 9733.86 58962.7 9774.56 58902.6 9778.45 58970.5 9863.75 59104.2 9885.08 59176 9885.08 59263.2 9885.08 59385.3 9842.42 59385.3 9673.75 59385.3 9592.33 59358.2 9503.16 59307.8 9443.05 59243.8 9369.38 59189.5 9365.5 59092.6 9359.69 59044.1 9355.81 59040.3 9355.81 59030.6 9353.88 59026.7 9353.88 59011.2 9350 59011.2 9328.67 59011.2 9301.53 59028.6 9301.53 59061.6 9301.53H59166.3"/>
<path transform="matrix(.00359712,0,0,-.00359712,0,70)" d="M60680.6 9762.55C60680.6 9978.63 60650.1 10313.8 60497.8 10626.8 60331.5 10967.6 60093.3 11147.6 60065.6 11147.6 60049 11147.6 60037.9 11136.6 60037.9 11119.9 60037.9 11111.6 60037.9 11106.1 60090.5 11056.2 60362 10782 60519.9 10341.5 60519.9 9762.55 60519.9 9288.84 60417.4 8801.3 60073.9 8452.25 60037.9 8419 60037.9 8413.47 60037.9 8405.16 60037.9 8388.53 60049 8377.45 60065.6 8377.45 60093.3 8377.45 60342.6 8565.83 60506.1 8917.64 60647.3 9222.36 60680.6 9529.84 60680.6 9762.55"/>
<path transform="matrix(.00359712,0,0,-.00359712,0,70)" d="M62715.2 11349.5V11435.4H61715.1V11349.5H62715.2"/>
<path transform="matrix(.00359712,0,0,-.00359712,0,70)" d="M62292.2 10920.5C62295 10931.6 62300.5 10948.2 62300.5 10962 62300.5 10989.7 62281.2 10992.5 62267.3 10992.5 62239.6 10992.5 62236.8 10987 62225.8 10937.1L61765.9 9106.02C61555.4 9130.94 61450.1 9233.44 61450.1 9416.28 61450.1 9471.67 61450.1 9543.7 61599.7 9931.53 61610.8 9964.77 61630.2 10011.9 61630.2 10067.3 61630.2 10191.9 61541.5 10294.4 61403 10294.4 61139.8 10294.4 61037.3 9892.75 61037.3 9867.81 61037.3 9840.11 61065 9840.11 61070.6 9840.11 61098.3 9840.11 61101 9845.66 61114.9 9889.97 61189.7 10153.1 61300.5 10233.5 61394.7 10233.5 61416.8 10233.5 61463.9 10233.5 61463.9 10144.8 61463.9 10072.8 61436.3 10003.5 61400.2 9906.59 61267.3 9557.55 61267.3 9485.53 61267.3 9438.44 61267.3 9175.27 61483.3 9061.69 61749.3 9045.06 61727.1 8945.34 61727.1 8939.8 61688.3 8792.98 61680 8762.52 61624.6 8538.13 61624.6 8529.81 61624.6 8527.05 61624.6 8502.11 61657.9 8502.11 61663.4 8502.11 61677.3 8502.11 61682.8 8513.19 61691.1 8518.73 61707.7 8587.98 61716 8626.77L61821.3 9039.53C61923.8 9039.53 62167.6 9039.53 62428 9335.94 62541.5 9463.36 62599.7 9585.25 62630.2 9668.36 62655.1 9737.61 62716.1 9978.63 62716.1 10100.5 62716.1 10255.6 62641.3 10294.4 62594.2 10294.4 62524.9 10294.4 62455.7 10222.4 62455.7 10161.5 62455.7 10125.4 62472.3 10108.8 62497.2 10086.7 62527.7 10056.2 62597 9984.16 62597 9851.19 62597 9673.91 62452.9 9446.75 62355.9 9347.02 62112.2 9100.47 61934.9 9100.47 61835.2 9100.47L62292.2 10920.5"/>
<path transform="matrix(.00359712,0,0,-.00359712,0,70)" d="M63307.7 9941.3C63309.7 9945.17 63315.5 9970.38 63315.5 9972.31 63315.5 9982.02 63307.7 9999.45 63284.5 9999.45 63245.7 9999.45 63084.8 9983.95 63036.3 9980.08 63022.7 9978.13 62995.6 9976.19 62995.6 9935.48 62995.6 9908.34 63022.7 9908.34 63044 9908.34 63137.1 9908.34 63137.1 9894.77 63137.1 9879.27 63137.1 9865.69 63133.2 9854.06 63129.4 9836.61L62889 8878.89C62883.1 8859.5 62881.2 8838.17 62881.2 8818.8 62881.2 8694.72 62991.7 8634.61 63084.8 8634.61 63131.3 8634.61 63189.5 8650.13 63239.9 8737.36 63280.6 8809.09 63307.7 8923.48 63307.7 8931.23 63307.7 8956.44 63282.5 8956.44 63276.7 8956.44 63249.5 8956.44 63245.7 8944.81 63237.9 8909.91 63212.7 8812.97 63175.9 8688.89 63092.5 8688.89 63040.2 8688.89 63026.6 8737.36 63026.6 8783.89 63026.6 8805.22 63032.4 8842.05 63038.2 8863.38L63307.7 9941.3"/>
<path transform="matrix(.00359712,0,0,-.00359712,0,70)" d="M64041.9 9497.33C63751.1 9423.67 63588.3 9173.58 63588.3 8970.02 63588.3 8764.5 63745.3 8630.73 63937.2 8630.73 64171.8 8630.73 64354 8906.03 64354 9189.08 64354 9377.14 64253.2 9487.64 64193.1 9553.56 64121.4 9634.98 63976 9793.95 63976 9883.14 63976 9908.34 64003.1 9964.56 64082.6 9964.56 64148.5 9964.56 64202.8 9933.55 64245.5 9910.28 64262.9 9900.58 64332.7 9859.88 64361.8 9859.88 64408.3 9859.88 64443.2 9902.52 64443.2 9941.3 64443.2 9989.77 64418 9993.64 64313.3 10015 64290.1 10018.8 64200.9 10038.2 64138.9 10038.2 63993.5 10038.2 63912 9952.92 63912 9834.67 63912 9731.92 63974.1 9613.66 64041.9 9497.33ZM64074.9 9444.98C64129.2 9357.75 64199 9245.3 64199 9105.72 64199 8946.75 64104 8685.02 63941.1 8685.02 63834.5 8685.02 63729.8 8754.81 63729.8 8915.72 63729.8 9043.67 63803.5 9379.08 64074.9 9444.98"/>
<path transform="matrix(.00359712,0,0,-.00359712,0,70)" d="M65604.9 8405.16C65604.9 8413.47 65604.9 8419 65557.8 8466.09 65211.6 8815.14 65122.9 9338.7 65122.9 9762.55 65122.9 10244.6 65228.2 10726.6 65568.9 11072.8 65604.9 11106.1 65604.9 11111.6 65604.9 11119.9 65604.9 11139.3 65593.8 11147.6 65577.2 11147.6 65549.5 11147.6 65300.2 10959.3 65136.8 10607.5 64995.5 10302.7 64962.3 9995.25 64962.3 9762.55 64962.3 9546.47 64992.7 9211.28 65145.1 8898.25 65311.3 8557.52 65549.5 8377.45 65577.2 8377.45 65593.8 8377.45 65604.9 8385.77 65604.9 8405.16"/>
<path transform="matrix(.00359712,0,0,-.00359712,0,70)" d="M66690.3 9906.59C66706.9 9978.63 66770.6 10233.5 66964.5 10233.5 66978.3 10233.5 67044.8 10233.5 67103 10197.5 67025.4 10183.6 66970 10114.4 66970 10047.9 66970 10003.5 67000.5 9950.92 67075.3 9950.92 67136.3 9950.92 67224.9 10000.8 67224.9 10111.6 67224.9 10255.6 67061.5 10294.4 66967.3 10294.4 66806.6 10294.4 66709.6 10147.6 66676.4 10083.9 66607.1 10266.7 66457.5 10294.4 66377.2 10294.4 66089.1 10294.4 65931.2 9937.06 65931.2 9867.81 65931.2 9840.11 65958.9 9840.11 65964.5 9840.11 65986.6 9840.11 65994.9 9845.66 66000.5 9870.58 66094.7 10164.2 66277.5 10233.5 66371.7 10233.5 66424.3 10233.5 66521.3 10208.5 66521.3 10047.9 66521.3 9962 66474.2 9776.39 66371.7 9388.58 66327.3 9216.81 66230.4 9100.47 66108.5 9100.47 66091.9 9100.47 66028.2 9100.47 65970 9136.48 66039.3 9150.33 66100.2 9208.52 66100.2 9286.08 66100.2 9360.88 66039.3 9383.03 65997.7 9383.03 65914.6 9383.03 65845.3 9311 65845.3 9222.36 65845.3 9094.94 65983.8 9039.53 66105.7 9039.53 66288.6 9039.53 66388.3 9233.44 66396.6 9250.06 66429.8 9147.56 66529.6 9039.53 66695.8 9039.53 66981.1 9039.53 67139 9396.88 67139 9466.14 67139 9493.84 67114.1 9493.84 67105.8 9493.84 67080.8 9493.84 67075.3 9482.77 67069.8 9463.36 66978.3 9166.95 66790 9100.47 66701.3 9100.47 66593.3 9100.47 66549 9189.13 66549 9283.3 66549 9344.25 66565.6 9405.19 66596.1 9527.08L66690.3 9906.59"/>
<path transform="matrix(.00359712,0,0,-.00359712,0,70)" d="M68373.6 8971.95V9041.73H68158.4V9906.41C68158.4 9947.11 68158.4 9960.69 68115.7 9960.69 68092.5 9960.69 68084.7 9960.69 68065.3 9933.55L67423.6 9041.73V8971.95H67993.6V8812.97C67993.6 8747.06 67993.6 8723.8 67836.5 8723.8H67784.2V8654C67881.1 8657.88 68005.2 8661.75 68075 8661.75 68146.8 8661.75 68270.8 8657.88 68367.8 8654V8723.8H68315.4C68158.4 8723.8 68158.4 8747.06 68158.4 8812.97V8971.95H68373.6ZM68007.2 9751.3V9041.73H67495.3L68007.2 9751.3Z"/>
<path transform="matrix(.00359712,0,0,-.00359712,0,70)" d="M69390.6 9762.55C69390.6 9978.63 69360.1 10313.8 69207.8 10626.8 69041.5 10967.6 68803.3 11147.6 68775.6 11147.6 68759 11147.6 68747.9 11136.6 68747.9 11119.9 68747.9 11111.6 68747.9 11106.1 68800.5 11056.2 69072 10782 69229.9 10341.5 69229.9 9762.55 69229.9 9288.84 69127.4 8801.3 68783.9 8452.25 68747.9 8419 68747.9 8413.47 68747.9 8405.16 68747.9 8388.53 68759 8377.45 68775.6 8377.45 68803.3 8377.45 69052.6 8565.83 69216.1 8917.64 69357.3 9222.36 69390.6 9529.84 69390.6 9762.55"/>
<path transform="matrix(.00359712,0,0,-.00359712,0,70)" d="M70265.4 8745.89C70265.4 8635.08 70193.3 8457.78 69891.4 8438.39 69877.5 8435.63 69866.5 8424.55 69866.5 8407.92 69866.5 8377.45 69896.9 8377.45 69921.9 8377.45 70190.6 8377.45 70448.2 8513.19 70451 8723.72V9355.33C70451 9463.36 70451 9552.02 70561.8 9643.42 70658.7 9723.77 70764 9729.31 70824.9 9732.08 70838.8 9734.84 70849.9 9745.92 70849.9 9762.55 70849.9 9790.25 70833.3 9790.25 70805.5 9793.02 70622.7 9804.09 70489.8 9903.83 70459.3 10039.6 70451 10070 70451 10075.6 70451 10175.3V10723.8C70451 10840.2 70451 10928.8 70318 11034.1 70207.2 11119.9 70016 11147.6 69921.9 11147.6 69896.9 11147.6 69866.5 11147.6 69866.5 11117.2 69866.5 11089.5 69883.1 11089.5 69910.8 11086.7 70085.3 11075.6 70221 10987 70257 10845.7 70265.4 10820.8 70265.4 10815.2 70265.4 10715.5V10133.8C70265.4 10006.3 70287.5 9959.23 70376.2 9870.58 70434.3 9812.41 70514.7 9784.7 70592.3 9762.55 70365.1 9698.83 70265.4 9571.41 70265.4 9410.73V8745.89"/>
<path transform="matrix(.00359712,0,0,-.00359712,0,70)" d="M71952.5 11047.9C71952.5 11097.8 71952.5 11147.6 71897.1 11147.6 71841.7 11147.6 71841.7 11097.8 71841.7 11047.9V8477.19C71841.7 8427.31 71841.7 8377.45 71897.1 8377.45 71952.5 8377.45 71952.5 8427.31 71952.5 8477.19V11047.9"/>
<path transform="matrix(.00359712,0,0,-.00359712,0,70)" d="M74158.4 9518.77H74089.2C74075.3 9446.75 74064.2 9383.03 74039.3 9316.55 74025.5 9272.22 74017.1 9250.06 73856.5 9250.06H73634.9C73670.9 9405.19 73756.7 9538.16 73881.4 9721 74011.6 9917.67 74125.2 10108.8 74125.2 10327.7 74125.2 10712.7 73751.2 11023 73283 11023 72806.6 11023 72438.1 10707.2 72438.1 10327.7 72438.1 10108.8 72551.7 9917.67 72681.9 9721 72803.8 9538.16 72892.4 9405.19 72928.5 9250.06H72706.8C72546.2 9250.06 72537.9 9272.22 72524 9313.78 72501.8 9377.48 72488 9449.52 72474.1 9518.77H72404.9L72496.3 9070H72939.5C73000.5 9070 73008.8 9070 73008.8 9128.17 73008.8 9322.09 72922.9 9565.86 72859.2 9743.16 72801 9903.83 72723.5 10122.7 72723.5 10330.4 72723.5 10773.7 73028.2 10962 73280.3 10962 73546.2 10962 73839.8 10762.6 73839.8 10330.4 73839.8 10122.7 73765 9912.14 73684.7 9684.98 73643.2 9568.64 73554.5 9319.31 73554.5 9128.17 73554.5 9070 73562.8 9070 73626.5 9070H74067L74158.4 9518.77"/>
<path transform="matrix(.00359712,0,0,-.00359712,0,70)" d="M75039.3 9715.45C75053.1 9748.7 75053.1 9754.23 75053.1 9762.55 75053.1 9770.86 75053.1 9776.39 75039.3 9809.64L74554.5 11083.9C74537.9 11131 74521.2 11147.6 74490.8 11147.6 74460.3 11147.6 74435.4 11122.7 74435.4 11092.2 74435.4 11083.9 74435.4 11078.4 74449.2 11047.9L74939.5 9762.55 74449.2 8482.72C74435.4 8452.25 74435.4 8446.7 74435.4 8432.86 74435.4 8402.39 74460.3 8377.45 74490.8 8377.45 74526.8 8377.45 74537.9 8405.16 74548.9 8432.86L75039.3 9715.45"/>
</svg>
