<svg xmlns="http://www.w3.org/2000/svg" xmlns:xlink="http://www.w3.org/1999/xlink" version="1.1" width="67pt" height="22pt" viewBox="0 0 67 22">
<path transform="matrix(.00359712,0,0,-.00359712,0,22)" d="M1376.23 3040.48C1379 3051.56 1384.55 3068.19 1384.55 3082.03 1384.55 3109.73 1365.16 3112.52 1351.3 3112.52 1323.59 3112.52 1320.83 3106.97 1309.75 3057.11L849.891 1226.02C639.359 1250.94 534.094 1353.44 534.094 1536.28 534.094 1591.67 534.094 1663.7 683.688 2051.53 694.766 2084.77 714.156 2131.86 714.156 2187.27 714.156 2311.92 625.516 2414.42 487 2414.42 223.828 2414.42 121.328 2012.75 121.328 1987.81 121.328 1960.11 149.031 1960.11 154.578 1960.11 182.281 1960.11 185.047 1965.66 198.906 2009.97 273.703 2273.14 384.5 2353.48 478.688 2353.48 500.844 2353.48 547.938 2353.48 547.938 2264.83 547.938 2192.81 520.25 2123.55 484.234 2026.59 351.266 1677.55 351.266 1605.53 351.266 1558.44 351.266 1295.27 567.328 1181.69 833.281 1165.06 811.109 1065.34 811.109 1059.8 772.328 912.984 764.016 882.516 708.609 658.125 708.609 649.813 708.609 647.047 708.609 622.109 741.859 622.109 747.391 622.109 761.25 622.109 766.797 633.188 775.094 638.734 791.719 707.984 800.031 746.766L905.297 1159.53C1007.8 1159.53 1251.58 1159.53 1511.97 1455.94 1625.55 1583.36 1683.72 1705.25 1714.19 1788.36 1739.13 1857.61 1800.06 2098.63 1800.06 2220.52 1800.06 2375.64 1725.28 2414.42 1678.19 2414.42 1608.92 2414.42 1539.67 2342.39 1539.67 2281.45 1539.67 2245.44 1556.3 2228.83 1581.22 2206.66 1611.7 2176.19 1680.95 2104.16 1680.95 1971.19 1680.95 1793.91 1536.91 1566.75 1439.94 1467.02 1196.17 1220.47 1018.88 1220.47 919.156 1220.47L1376.23 3040.48"/>
<path transform="matrix(.00359712,0,0,-.00359712,0,22)" d="M2796.09 1724.69C2796.09 1757.64 2770.89 1798.36 2718.55 1798.36 2662.31 1798.36 2609.97 1744.08 2609.97 1691.73 2609.97 1660.7 2633.23 1618.06 2687.52 1618.06 2739.88 1618.06 2796.09 1668.47 2796.09 1724.69ZM2385.08 418C2352.13 284.234 2249.38 171.781 2135 171.781 2109.8 171.781 2086.53 175.672 2065.2 183.422 2115.61 206.688 2131.11 253.219 2131.11 282.297 2131.11 328.828 2094.28 354.031 2055.5 354.031 1995.41 354.031 1945 301.688 1945 239.641 1945 165.969 2020.61 117.5 2136.94 117.5 2253.25 117.5 2480.08 187.297 2540.19 423.813L2714.67 1117.88C2720.48 1139.2 2724.36 1156.66 2724.36 1185.73 2724.36 1292.36 2633.23 1367.97 2516.92 1367.97 2301.72 1367.97 2177.64 1098.48 2177.64 1071.34 2177.64 1046.14 2204.78 1046.14 2210.61 1046.14 2233.86 1046.14 2235.81 1051.95 2249.38 1081.05 2297.84 1193.48 2398.66 1313.69 2511.09 1313.69 2559.56 1313.69 2577.02 1280.72 2577.02 1218.69 2577.02 1197.36 2573.14 1170.22 2571.2 1160.53L2385.08 418"/>
<path transform="matrix(.00359712,0,0,-.00359712,0,22)" d="M4197.2 1610.3C4197.2 1780.91 4049.86 1879.78 3879.25 1879.78 3613.66 1879.78 3417.84 1577.34 3369.38 1381.53L3065 160.156C3061.13 146.578 3080.5 136.891 3092.14 136.891 3109.59 136.891 3125.09 138.828 3128.97 150.469L3258.86 668.094C3299.58 578.922 3392.64 495.547 3549.67 495.547 3821.09 495.547 4127.41 691.359 4127.41 987.984 4127.41 1102.36 4075.06 1218.69 3976.19 1282.67 4071.19 1342.77 4197.2 1453.27 4197.2 1610.3ZM3813.33 1284.61C3784.25 1278.78 3770.69 1271.03 3714.47 1271.03 3683.44 1271.03 3636.91 1272.97 3623.34 1280.72 3642.73 1292.36 3697.02 1294.3 3714.47 1294.3 3743.55 1294.3 3786.19 1292.36 3813.33 1284.61ZM4069.25 1645.2C4069.25 1542.45 4018.84 1391.23 3898.64 1323.38 3861.8 1335.02 3824.97 1348.58 3716.41 1348.58 3648.55 1348.58 3551.61 1344.7 3551.61 1274.91 3551.61 1226.44 3611.7 1218.69 3710.58 1218.69 3776.5 1218.69 3834.66 1228.38 3894.77 1245.83 3952.92 1205.11 3983.94 1125.63 3983.94 1040.33 3983.94 759.219 3792.02 549.828 3555.48 549.828 3406.2 549.828 3299.58 640.953 3299.58 794.109 3299.58 813.5 3301.52 832.891 3305.39 850.328L3433.34 1366.03C3479.88 1550.2 3650.48 1825.5 3875.38 1825.5 3989.75 1825.5 4069.25 1763.47 4069.25 1645.2"/>
<path transform="matrix(.00359712,0,0,-.00359712,0,22)" d="M6225.19 3469.53V3555.41H5225.14V3469.53H6225.19"/>
<path transform="matrix(.00359712,0,0,-.00359712,0,22)" d="M5802.23 3040.48C5805 3051.56 5810.55 3068.19 5810.55 3082.03 5810.55 3109.73 5791.16 3112.52 5777.3 3112.52 5749.59 3112.52 5746.83 3106.97 5735.75 3057.11L5275.89 1226.02C5065.36 1250.94 4960.09 1353.44 4960.09 1536.28 4960.09 1591.67 4960.09 1663.7 5109.69 2051.53 5120.77 2084.77 5140.16 2131.86 5140.16 2187.27 5140.16 2311.92 5051.52 2414.42 4913 2414.42 4649.83 2414.42 4547.33 2012.75 4547.33 1987.81 4547.33 1960.11 4575.03 1960.11 4580.58 1960.11 4608.28 1960.11 4611.05 1965.66 4624.91 2009.97 4699.7 2273.14 4810.5 2353.48 4904.69 2353.48 4926.84 2353.48 4973.94 2353.48 4973.94 2264.83 4973.94 2192.81 4946.25 2123.55 4910.23 2026.59 4777.27 1677.55 4777.27 1605.53 4777.27 1558.44 4777.27 1295.27 4993.33 1181.69 5259.28 1165.06 5237.11 1065.34 5237.11 1059.8 5198.33 912.984 5190.02 882.516 5134.61 658.125 5134.61 649.813 5134.61 647.047 5134.61 622.109 5167.86 622.109 5173.39 622.109 5187.25 622.109 5192.8 633.188 5201.09 638.734 5217.72 707.984 5226.03 746.766L5331.3 1159.53C5433.8 1159.53 5677.58 1159.53 5937.97 1455.94 6051.55 1583.36 6109.72 1705.25 6140.19 1788.36 6165.13 1857.61 6226.06 2098.63 6226.06 2220.52 6226.06 2375.64 6151.28 2414.42 6104.19 2414.42 6034.92 2414.42 5965.67 2342.39 5965.67 2281.45 5965.67 2245.44 5982.3 2228.83 6007.22 2206.66 6037.7 2176.19 6106.95 2104.16 6106.95 1971.19 6106.95 1793.91 5962.91 1566.75 5865.94 1467.02 5622.17 1220.47 5444.88 1220.47 5345.16 1220.47L5802.23 3040.48"/>
<path transform="matrix(.00359712,0,0,-.00359712,0,22)" d="M6917.72 1800.3C6919.66 1804.17 6925.47 1829.38 6925.47 1831.31 6925.47 1841.02 6917.72 1858.45 6894.45 1858.45 6855.67 1858.45 6694.77 1842.95 6646.3 1839.08 6632.72 1837.13 6605.58 1835.19 6605.58 1794.48 6605.58 1767.34 6632.72 1767.34 6654.05 1767.34 6747.11 1767.34 6747.11 1753.77 6747.11 1738.27 6747.11 1724.69 6743.23 1713.06 6739.36 1695.61L6498.95 737.891C6493.14 718.5 6491.2 697.172 6491.2 677.797 6491.2 553.719 6601.7 493.609 6694.77 493.609 6741.3 493.609 6799.45 509.125 6849.86 596.359 6890.58 668.094 6917.72 782.484 6917.72 790.234 6917.72 815.438 6892.52 815.438 6886.69 815.438 6859.55 815.438 6855.67 803.813 6847.92 768.906 6822.72 671.969 6785.88 547.891 6702.52 547.891 6650.17 547.891 6636.61 596.359 6636.61 642.891 6636.61 664.219 6642.42 701.047 6648.23 722.375L6917.72 1800.3"/>
<path transform="matrix(.00359712,0,0,-.00359712,0,22)" d="M7651.92 1356.33C7361.11 1282.67 7198.27 1032.58 7198.27 829.016 7198.27 623.5 7355.3 489.734 7547.23 489.734 7781.81 489.734 7964.05 765.031 7964.05 1048.08 7964.05 1236.14 7863.23 1346.64 7803.14 1412.56 7731.41 1493.98 7586 1652.95 7586 1742.14 7586 1767.34 7613.14 1823.56 7692.63 1823.56 7758.55 1823.56 7812.83 1792.55 7855.48 1769.28 7872.92 1759.58 7942.72 1718.88 7971.8 1718.88 8018.33 1718.88 8053.23 1761.52 8053.23 1800.3 8053.23 1848.77 8028.03 1852.64 7923.33 1873.97 7900.08 1877.84 7810.89 1897.23 7748.86 1897.23 7603.45 1897.23 7522.03 1811.92 7522.03 1693.67 7522.03 1590.92 7584.06 1472.66 7651.92 1356.33ZM7684.88 1303.98C7739.16 1216.75 7808.95 1104.3 7808.95 964.719 7808.95 805.75 7713.95 544.016 7551.11 544.016 7444.47 544.016 7339.78 613.813 7339.78 774.719 7339.78 902.672 7413.45 1238.08 7684.88 1303.98"/>
<path transform="matrix(.00359712,0,0,-.00359712,0,22)" d="M10056.2 3469.53V3555.41H9056.14V3469.53H10056.2"/>
<path transform="matrix(.00359712,0,0,-.00359712,0,22)" d="M9632.23 3040.48C9635 3051.56 9640.55 3068.19 9640.55 3082.03 9640.55 3109.73 9621.16 3112.52 9607.3 3112.52 9579.59 3112.52 9576.83 3106.97 9565.75 3057.11L9105.89 1226.02C8895.36 1250.94 8790.09 1353.44 8790.09 1536.28 8790.09 1591.67 8790.09 1663.7 8939.69 2051.53 8950.77 2084.77 8970.16 2131.86 8970.16 2187.27 8970.16 2311.92 8881.52 2414.42 8743 2414.42 8479.83 2414.42 8377.33 2012.75 8377.33 1987.81 8377.33 1960.11 8405.03 1960.11 8410.58 1960.11 8438.28 1960.11 8441.05 1965.66 8454.91 2009.97 8529.7 2273.14 8640.5 2353.48 8734.69 2353.48 8756.84 2353.48 8803.94 2353.48 8803.94 2264.83 8803.94 2192.81 8776.25 2123.55 8740.23 2026.59 8607.27 1677.55 8607.27 1605.53 8607.27 1558.44 8607.27 1295.27 8823.33 1181.69 9089.28 1165.06 9067.11 1065.34 9067.11 1059.8 9028.33 912.984 9020.02 882.516 8964.61 658.125 8964.61 649.813 8964.61 647.047 8964.61 622.109 8997.86 622.109 9003.39 622.109 9017.25 622.109 9022.8 633.188 9031.09 638.734 9047.72 707.984 9056.03 746.766L9161.3 1159.53C9263.8 1159.53 9507.58 1159.53 9767.97 1455.94 9881.55 1583.36 9939.72 1705.25 9970.19 1788.36 9995.13 1857.61 10056.1 2098.63 10056.1 2220.52 10056.1 2375.64 9981.28 2414.42 9934.19 2414.42 9864.92 2414.42 9795.67 2342.39 9795.67 2281.45 9795.67 2245.44 9812.3 2228.83 9837.22 2206.66 9867.7 2176.19 9936.95 2104.16 9936.95 1971.19 9936.95 1793.91 9792.91 1566.75 9695.94 1467.02 9452.17 1220.47 9274.88 1220.47 9175.16 1220.47L9632.23 3040.48"/>
<path transform="matrix(.00359712,0,0,-.00359712,0,22)" stroke-width="110.783" stroke-linecap="butt" stroke-miterlimit="10" stroke-linejoin="miter" fill="none" stroke="#000000" d="M992.848 3944.66V5173.46H9249.46V4324.71"/>
<path transform="matrix(.00359712,0,0,-.00359712,0,22)" d="M11042.4 932.031C11032.7 893.266 11015.3 827.344 11015.3 817.656 11015.3 775 11050.2 755.609 11081.2 755.609 11116.1 755.609 11147.1 780.813 11156.8 798.266 11166.5 815.719 11182 877.75 11191.7 918.469 11201.4 955.297 11222.7 1044.48 11234.3 1092.95 11246 1135.59 11257.6 1178.25 11267.3 1222.84 11288.6 1306.2 11288.6 1310.08 11327.4 1370.19 11389.4 1465.17 11486.4 1575.69 11637.6 1575.69 11746.1 1575.69 11752 1486.5 11752 1439.97 11752 1323.66 11668.6 1108.45 11637.6 1027.03 11616.3 972.75 11608.5 955.297 11608.5 922.344 11608.5 819.594 11693.8 755.609 11792.7 755.609 11986.5 755.609 12071.8 1023.16 12071.8 1052.23 12071.8 1077.44 12046.6 1077.44 12040.8 1077.44 12013.7 1077.44 12011.8 1065.81 12004 1044.48 11959.4 889.391 11876 809.891 11798.5 809.891 11757.8 809.891 11750 837.031 11750 877.75 11750 922.344 11759.7 947.547 11794.6 1034.78 11817.9 1094.89 11897.4 1300.39 11897.4 1408.95 11897.4 1439.97 11897.4 1521.41 11825.6 1577.63 11792.7 1602.83 11736.5 1629.97 11645.3 1629.97 11470.8 1629.97 11364.2 1515.58 11302.2 1434.16 11286.7 1598.95 11149 1629.97 11050.2 1629.97 10889.2 1629.97 10780.7 1531.09 10722.5 1453.55 10708.9 1587.31 10594.6 1629.97 10515.1 1629.97 10431.7 1629.97 10387.1 1569.88 10361.9 1525.28 10319.3 1453.55 10292.1 1343.05 10292.1 1333.34 10292.1 1308.14 10319.3 1308.14 10325.1 1308.14 10352.2 1308.14 10354.2 1313.95 10367.7 1366.3 10396.8 1480.69 10433.6 1575.69 10509.3 1575.69 10559.7 1575.69 10573.2 1533.03 10573.2 1480.69 10573.2 1443.86 10555.8 1372.13 10542.2 1319.78 10528.6 1267.44 10509.3 1187.94 10499.6 1145.3L10437.5 897.141C10429.8 871.938 10418.1 823.469 10418.1 817.656 10418.1 775 10453 755.609 10484 755.609 10519 755.609 10550 780.813 10559.7 798.266 10569.4 815.719 10584.9 877.75 10594.6 918.469 10604.3 955.297 10625.6 1044.48 10637.2 1092.95 10648.8 1135.59 10660.5 1178.25 10670.2 1222.84 10691.5 1302.33 10695.4 1317.84 10751.6 1397.33 10805.9 1474.88 10897 1575.69 11042.4 1575.69 11154.8 1575.69 11156.8 1476.81 11156.8 1439.97 11156.8 1391.5 11151 1366.3 11123.8 1257.73L11042.4 932.031"/>
<path transform="matrix(.00359712,0,0,-.00359712,0,22)" d="M12269.7 462.875C12261.9 433.781 12261.9 424.094 12261.9 422.156 12261.9 379.5 12296.8 360.125 12327.8 360.125 12397.6 360.125 12413.2 418.281 12426.7 480.313 12453.9 581.125 12508.2 802.141 12527.5 875.813 12545 846.734 12607 755.609 12740.8 755.609 12989 755.609 13252.6 1019.28 13252.6 1302.33 13252.6 1507.83 13115 1629.97 12944.4 1629.97 12754.4 1629.97 12519.8 1463.23 12451.9 1189.88L12269.7 462.875ZM12738.9 809.891C12595.4 809.891 12552.7 953.359 12552.7 978.563 12552.7 982.438 12564.4 1025.09 12570.2 1048.36 12628.3 1286.81 12640 1331.41 12696.2 1416.7 12766 1519.47 12862.9 1575.69 12940.5 1575.69 13020 1575.69 13095.6 1519.47 13095.6 1379.88 13095.6 1290.69 13045.2 1075.5 12985.1 978.563 12895.9 840.922 12799 809.891 12738.9 809.891"/>
<path transform="matrix(.00359712,0,0,-.00359712,0,22)" d="M14789.2 3040.48C14792 3051.56 14797.5 3068.19 14797.5 3082.03 14797.5 3109.73 14778.2 3112.52 14764.3 3112.52 14736.6 3112.52 14733.8 3106.97 14722.8 3057.11L14262.9 1226.02C14052.4 1250.94 13947.1 1353.44 13947.1 1536.28 13947.1 1591.67 13947.1 1663.7 14096.7 2051.53 14107.8 2084.77 14127.2 2131.86 14127.2 2187.27 14127.2 2311.92 14038.5 2414.42 13900 2414.42 13636.8 2414.42 13534.3 2012.75 13534.3 1987.81 13534.3 1960.11 13562 1960.11 13567.6 1960.11 13595.3 1960.11 13598 1965.66 13611.9 2009.97 13686.7 2273.14 13797.5 2353.48 13891.7 2353.48 13913.8 2353.48 13960.9 2353.48 13960.9 2264.83 13960.9 2192.81 13933.3 2123.55 13897.2 2026.59 13764.3 1677.55 13764.3 1605.53 13764.3 1558.44 13764.3 1295.27 13980.3 1181.69 14246.3 1165.06 14224.1 1065.34 14224.1 1059.8 14185.3 912.984 14177 882.516 14121.6 658.125 14121.6 649.813 14121.6 647.047 14121.6 622.109 14154.9 622.109 14160.4 622.109 14174.3 622.109 14179.8 633.188 14188.1 638.734 14204.7 707.984 14213 746.766L14318.3 1159.53C14420.8 1159.53 14664.6 1159.53 14925 1455.94 15038.5 1583.36 15096.7 1705.25 15127.2 1788.36 15152.1 1857.61 15213.1 2098.63 15213.1 2220.52 15213.1 2375.64 15138.3 2414.42 15091.2 2414.42 15021.9 2414.42 14952.7 2342.39 14952.7 2281.45 14952.7 2245.44 14969.3 2228.83 14994.2 2206.66 15024.7 2176.19 15094 2104.16 15094 1971.19 15094 1793.91 14949.9 1566.75 14852.9 1467.02 14609.2 1220.47 14431.9 1220.47 14332.2 1220.47L14789.2 3040.48"/>
<path transform="matrix(.00359712,0,0,-.00359712,0,22)" stroke-width="110.783" stroke-linecap="butt" stroke-miterlimit="10" stroke-linejoin="miter" fill="none" stroke="#000000" d="M5418.72 4324.71V6004.35H14405.8V3944.66"/>
<path transform="matrix(.00359712,0,0,-.00359712,0,22)" d="M16199.4 932.031C16189.7 893.266 16172.3 827.344 16172.3 817.656 16172.3 775 16207.2 755.609 16238.2 755.609 16273.1 755.609 16304.1 780.813 16313.8 798.266 16323.5 815.719 16339 877.75 16348.7 918.469 16358.4 955.297 16379.7 1044.48 16391.3 1092.95 16403 1135.59 16414.6 1178.25 16424.3 1222.84 16445.6 1306.2 16445.6 1310.08 16484.4 1370.19 16546.4 1465.17 16643.4 1575.69 16794.6 1575.69 16903.1 1575.69 16909 1486.5 16909 1439.97 16909 1323.66 16825.6 1108.45 16794.6 1027.03 16773.3 972.75 16765.5 955.297 16765.5 922.344 16765.5 819.594 16850.8 755.609 16949.7 755.609 17143.5 755.609 17228.8 1023.16 17228.8 1052.23 17228.8 1077.44 17203.6 1077.44 17197.8 1077.44 17170.7 1077.44 17168.8 1065.81 17161 1044.48 17116.4 889.391 17033 809.891 16955.5 809.891 16914.8 809.891 16907 837.031 16907 877.75 16907 922.344 16916.7 947.547 16951.6 1034.78 16974.9 1094.89 17054.4 1300.39 17054.4 1408.95 17054.4 1439.97 17054.4 1521.41 16982.6 1577.63 16949.7 1602.83 16893.5 1629.97 16802.3 1629.97 16627.8 1629.97 16521.2 1515.58 16459.2 1434.16 16443.7 1598.95 16306 1629.97 16207.2 1629.97 16046.2 1629.97 15937.7 1531.09 15879.5 1453.55 15865.9 1587.31 15751.6 1629.97 15672.1 1629.97 15588.7 1629.97 15544.1 1569.88 15518.9 1525.28 15476.3 1453.55 15449.1 1343.05 15449.1 1333.34 15449.1 1308.14 15476.3 1308.14 15482.1 1308.14 15509.2 1308.14 15511.2 1313.95 15524.7 1366.3 15553.8 1480.69 15590.6 1575.69 15666.3 1575.69 15716.7 1575.69 15730.2 1533.03 15730.2 1480.69 15730.2 1443.86 15712.8 1372.13 15699.2 1319.78 15685.6 1267.44 15666.3 1187.94 15656.6 1145.3L15594.5 897.141C15586.8 871.938 15575.1 823.469 15575.1 817.656 15575.1 775 15610 755.609 15641 755.609 15676 755.609 15707 780.813 15716.7 798.266 15726.4 815.719 15741.9 877.75 15751.6 918.469 15761.3 955.297 15782.6 1044.48 15794.2 1092.95 15805.8 1135.59 15817.5 1178.25 15827.2 1222.84 15848.5 1302.33 15852.4 1317.84 15908.6 1397.33 15962.9 1474.88 16054 1575.69 16199.4 1575.69 16311.8 1575.69 16313.8 1476.81 16313.8 1439.97 16313.8 1391.5 16308 1366.3 16280.8 1257.73L16199.4 932.031"/>
<path transform="matrix(.00359712,0,0,-.00359712,0,22)" d="M17425.7 462.875C17417.9 433.781 17417.9 424.094 17417.9 422.156 17417.9 379.5 17452.8 360.125 17483.8 360.125 17553.6 360.125 17569.2 418.281 17582.7 480.313 17609.9 581.125 17664.2 802.141 17683.5 875.813 17701 846.734 17763 755.609 17896.8 755.609 18145 755.609 18408.6 1019.28 18408.6 1302.33 18408.6 1507.83 18271 1629.97 18100.4 1629.97 17910.4 1629.97 17675.8 1463.23 17607.9 1189.88L17425.7 462.875ZM17894.9 809.891C17751.4 809.891 17708.7 953.359 17708.7 978.563 17708.7 982.438 17720.4 1025.09 17726.2 1048.36 17784.3 1286.81 17796 1331.41 17852.2 1416.7 17922 1519.47 18018.9 1575.69 18096.5 1575.69 18176 1575.69 18251.6 1519.47 18251.6 1379.88 18251.6 1290.69 18201.2 1075.5 18141.1 978.563 18051.9 840.922 17955 809.891 17894.9 809.891"/>
</svg>
