<?xml version="1.0" standalone="no"?>
<!DOCTYPE svg PUBLIC "-//W3C//DTD SVG 1.1//EN" "http://www.w3.org/Graphics/SVG/1.1/DTD/svg11.dtd">
<svg xmlns="http://www.w3.org/2000/svg" xmlns:xlink="http://www.w3.org/1999/xlink" version="1.1" width="7.256639cm" height="8.031339cm" viewBox="0 0 205.7 227.66">
<path transform="matrix(.00359712,0,0,-.00359712,0,227.66)" d="M 1238.77 60360.4 C 1238.77 60413 1199.98 60460.1 1133.5 60460.1 C 1069.78 60460.1 986.672 60396.3957 986.672 60313.3 C 986.672 60257.9 1025.45 60213.5 1089.17 60213.5 C 1163.97 60213.5 1238.77 60285.6 1238.77 60360.4 Z M 681.953 58490.5 C 629.328 58280 496.359 58122.1 341.219 58122.1 C 324.609 58122.1 283.047 58122.1 233.188 58146.9974 C 316.297 58166.4 357.844 58238.4 357.844 58293.8 C 357.844 58338.1 327.375 58390.8 252.578 58390.8 C 183.328 58390.8 102.984 58332.6 102.984 58232.9 C 102.984 58122.1 213.797 58061.1 346.766 58061.1 C 540.672 58061.1 798.313 58207.9 867.563 58482.2 L 1122.42 59496.1 C 1136.27 59551.4975 1136.27 59590.3 1136.27 59598.6 C 1136.27 59756.5 1019.92 59853.4 881.406 59853.4 C 598.844 59853.4 440.953 59451.8 440.953 59426.8 C 440.953 59399.1 468.656 59399.1 474.188 59399.1 C 499.125 59399.1 501.891 59401.9 524.063 59454.5 C 593.313 59623.5 720.734 59792.5 873.094 59792.5 C 911.875 59792.5 961.749945 59781.4 961.749945 59665 C 961.749945 59601.3 953.438 59570.9 942.359 59523.8 L 681.953 58490.5 "/>
<path transform="matrix(.00359712,0,0,-.00359712,0,227.66)" stroke-width="110.783" stroke-linecap="butt" stroke-miterlimit="10" stroke-linejoin="miter" fill="none" stroke="rgb(0,0,0)" d="M 2416.46 59273.5 L 8668.82 59273.5 "/>
<path transform="matrix(.00359712,0,0,-.00359712,0,227.66)" d="M 16858.7 60091.4 C 16858.7 60146.8 16820 60191.1 16756.2 60191.1 C 16681.4 60191.1 16606.6 60119.1 16606.6 60044.3 C 16606.6 59991.6 16645.4 59944.4971 16711.9 59944.4971 C 16775.6 59944.4971 16858.7 60008.3 16858.7 60091.4 Z M 16648.2 59049.8 C 16681.4 59130.1 16681.4 59135.7 16709.1 59210.5 C 16731.3 59265.8 16745.2 59304.6 16745.2 59357.3 C 16745.2 59481.9 16656.5 59584.4 16518 59584.4 C 16257.6 59584.4 16152.3 59182.8 16152.3 59157.8 C 16152.3 59130.1 16180 59130.1 16185.6 59130.1 C 16213.3 59130.1 16216 59135.7 16229.9 59180 C 16304.7 59440.4 16415.5 59523.4976 16509.7 59523.4976 C 16531.8 59523.4976 16578.9 59523.4976 16578.9 59434.8 C 16578.9 59376.7 16559.5 59318.5 16548.5 59290.8 C 16526.3 59218.8 16401.7 58897.4 16357.3 58778.3 C 16329.6 58706.3 16293.6 58614.9 16293.6 58556.7 C 16293.6 58426.5 16387.8 58329.4973 16520.8 58329.4973 C 16781.2 58329.4973 16883.7 58731.2 16883.7 58756.1 C 16883.7 58783.8 16858.7 58783.8 16850.4 58783.8 C 16822.7 58783.8 16822.7 58775.4974 16808.9 58734 C 16759 58559.5 16667.6 58390.5 16526.3 58390.5 C 16479.2 58390.5 16459.8 58418.2 16459.8 58481.9 C 16459.8 58551.1 16476.5 58589.9 16540.2 58758.9 L 16648.2 59049.8 "/>
<path transform="matrix(.00359712,0,0,-.00359712,0,227.66)" stroke-width="110.783" stroke-linecap="butt" stroke-miterlimit="10" stroke-linejoin="miter" fill="none" stroke="rgb(0,0,0)" d="M 8668.82 59273.5 L 15093.6 59273.5 "/>
<path transform="matrix(.00359712,0,0,-.00359712,0,227.66)" stroke-width="637.012" stroke-linecap="butt" stroke-miterlimit="10" stroke-linejoin="miter" fill="none" stroke="rgb(0,0,0)" d="M 788.406 51393.1 L 8668.82 59273.5 "/>
<path transform="matrix(.00359712,0,0,-.00359712,0,227.66)" stroke-width="415.449" stroke-linecap="butt" stroke-miterlimit="10" stroke-linejoin="miter" fill="none" stroke="rgb(255,255,255)" d="M 788.406 51393.1 L 8668.82 59273.5 "/>
<path transform="matrix(.00359712,0,0,-.00359712,0,227.66)" d="M 20622.1 60178.8 C 20663.7 60178.8 20716.3 60178.8 20716.3 60234.3 C 20716.3 60289.7 20663.7 60289.7 20624.9 60289.7 L 18965.5 60289.7 C 18926.8 60289.7 18874.1 60289.7 18874.1 60234.3 C 18874.1 60178.8 18926.8 60178.8 18968.3 60178.8 L 20622.1 60178.8 Z M 20624.9 59641.3956 C 20663.7 59641.3956 20716.3 59641.3956 20716.3 59696.8 C 20716.3 59752.3 20663.7 59752.3 20622.1 59752.3 L 18968.3 59752.3 C 18926.8 59752.3 18874.1 59752.3 18874.1 59696.8 C 18874.1 59641.3956 18926.8 59641.3956 18965.5 59641.3956 L 20624.9 59641.3956 "/>
<path transform="matrix(.00359712,0,0,-.00359712,0,227.66)" d="M 23467.5 59910.1 C 23514.6 59910.1 23564.5 59910.1 23564.5 59965.5 C 23564.5 60021 23514.6 60021 23467.5 60021 L 21968.9 60021 C 21921.8 60021 21871.9 60021 21871.9 59965.5 C 21871.9 59910.1 21921.8 59910.1 21968.9 59910.1 L 23467.5 59910.1 "/>
<path transform="matrix(.00359712,0,0,-.00359712,0,227.66)" d="M 24147.8 59486.3 L 24441.5 59771.6 C 24873.6 60153.9 25039.8 60303.5 25039.8 60580.4977 C 25039.8 60896.3 24790.5 61117.9 24452.5 61117.9 C 24139.5 61117.9 23934.5 60863.1 23934.5 60616.5 C 23934.5 60461.4 24073 60461.4 24081.3 60461.4 C 24128.4 60461.4 24225.4 60494.7 24225.4 60608.2 C 24225.4 60680.3 24175.5 60752.3 24078.6 60752.3 C 24056.4 60752.3 24050.9 60752.3 24042.5 60749.5 C 24106.3 60929.6 24255.8 61032.1 24416.5 61032.1 C 24668.6 61032.1 24787.7 60807.6963 24787.7 60580.4977 C 24787.7 60358.9 24649.2 60140.1 24496.9 59968.3 L 23965 59375.5 C 23934.5 59345 23934.5 59339.5 23934.5 59273 L 24962.3 59273 L 25039.8 59754.9972 L 24970.6 59754.9972 C 24956.7 59671.9 24937.3 59550 24909.6 59508.5 C 24890.2 59486.3 24707.4 59486.3 24646.5 59486.3 L 24147.8 59486.3 "/>
<path transform="matrix(.00359712,0,0,-.00359712,0,227.66)" d="M 25967.7 61004.4 C 25967.7 61059.8 25929 61104.1 25865.2 61104.1 C 25790.4 61104.1 25715.6 61032.1 25715.6 60957.3 C 25715.6 60904.6 25754.4 60857.4972 25820.9 60857.4972 C 25884.6 60857.4972 25967.7 60921.3 25967.7 61004.4 Z M 25757.2 59962.8 C 25790.4 60043.1 25790.4 60048.7 25818.1 60123.5 C 25840.3 60178.8 25854.2 60217.6 25854.2 60270.3 C 25854.2 60394.9 25765.5 60497.4 25627 60497.4 C 25366.6 60497.4 25261.3 60095.8 25261.3 60070.8 C 25261.3 60043.1 25289 60043.1 25294.6 60043.1 C 25322.3 60043.1 25325 60048.7 25338.9 60093 C 25413.7 60353.4 25524.5 60436.4977 25618.7 60436.4977 C 25640.8 60436.4977 25687.9 60436.4977 25687.9 60347.8 C 25687.9 60289.7 25668.5 60231.5 25657.5 60203.8 C 25635.3 60131.8 25510.7 59810.4 25466.3 59691.3 C 25438.6 59619.3 25402.6 59527.9 25402.6 59469.7 C 25402.6 59339.5 25496.8 59242.4974 25629.8 59242.4974 C 25890.2 59242.4974 25992.7 59644.2 25992.7 59669.1 C 25992.7 59696.8 25967.7 59696.8 25959.4 59696.8 C 25931.7 59696.8 25931.7 59688.4975 25917.9 59647 C 25868 59472.5 25776.6 59303.5 25635.3 59303.5 C 25588.2 59303.5 25568.8 59331.2 25568.8 59394.9 C 25568.8 59464.1 25585.5 59502.9 25649.2 59671.9 L 25757.2 59962.8 "/>
<path transform="matrix(.00359712,0,0,-.00359712,0,227.66)" d="M 28536.1 56671.8 C 28536.1 56682.9 28530.6 56688.5 28525 56696.8 C 28422.5 56799.3 28237 56984.9 28051.3 57284 C 27605.3 57998.8 27403.1 58899.1 27403.1 59965.6 C 27403.1 60710.8 27502.8 61671.9971 27959.9 62497.4976 C 28178.8 62890.9 28405.9 63118.1 28527.8 63239.9 C 28536.1 63248.3 28536.1 63253.8 28536.1 63262.1 C 28536.1 63289.8 28516.7 63289.8 28478 63289.8 C 28439.2 63289.8 28433.6 63289.8 28392.1 63248.3 C 27464.1 62403.3 27173.2 61134.6 27173.2 59968.4 C 27173.2 58879.7 27422.5 57782.7 28126.1 56954.4 C 28181.5 56890.7 28286.8 56777.1 28400.4 56677.4 C 28433.6 56644.1 28439.2 56644.1 28478 56644.1 C 28516.7 56644.1 28536.1 56644.1 28536.1 56671.8 "/>
<path transform="matrix(.00359712,0,0,-.00359712,0,227.66)" d="M 29712.6 59400.4974 L 29225 60478.1 C 29205.7 60522.4 29191.8 60522.4 29183.5 60522.4 C 29180.7 60522.4 29166.9 60522.4 29136.4 60500.3 L 28873.2 60300.8 C 28837.2 60273.1 28837.2 60264.8 28837.2 60256.5 C 28837.2 60242.6 28845.5 60226 28864.9 60226 C 28881.5 60226 28928.6 60264.8 28959.1 60287 C 28975.7 60300.8 29017.3 60331.3 29047.8 60353.4 L 29593.5 59153.9 C 29612.9 59109.6 29626.7 59109.6 29651.7 59109.6 C 29693.2 59109.6 29701.5 59126.2 29720.9 59164.9971 L 30978.6 61769 C 30998 61807.8 30998 61818.9 30998 61824.4 C 30998 61852.1 30975.8 61879.8 30942.6 61879.8 C 30920.4 61879.8 30901 61866 30878.9 61821.6 L 29712.6 59400.4974 "/>
<path transform="matrix(.00359712,0,0,-.00359712,0,227.66)" stroke-width="110.783" stroke-linecap="butt" stroke-miterlimit="10" stroke-linejoin="miter" fill="none" stroke="rgb(0,0,0)" d="M 30943.3 61824.4 L 32559.1 61824.4 "/>
<path transform="matrix(.00359712,0,0,-.00359712,0,227.66)" d="M 31932 60081.9 C 32045.5 59791 32178.5 59367.2 32222.8 59303.5 C 32267.2 59242.4974 32294.9 59242.4974 32369.6 59242.4974 L 32430.6 59242.4974 C 32458.3 59245.3 32461.1 59261.9 32461.1 59270.2 C 32461.1 59278.5 32455.5 59284.1 32447.2 59295.2 C 32419.5 59325.6 32402.9 59367.2 32383.5 59422.5988 L 31818.4 60998.8 C 31760.2 61159.4973 31610.6 61195.5 31480.4 61195.5 C 31466.6 61195.5 31430.5 61195.5 31430.5 61165 C 31430.5 61142.9 31452.7 61137.3 31455.5 61137.3 C 31546.9 61120.7 31566.3 61104.1 31635.5 60915.7 L 31904.3 60162.2 L 31139.7 59403.1963 C 31106.4 59370 31089.8 59353.3 31089.8 59317.3 C 31089.8 59270.2 31128.6 59237 31172.9 59237 C 31217.3 59237 31242.2 59267.5 31264.3 59295.2 L 31932 60081.9 "/>
<path transform="matrix(.00359712,0,0,-.00359712,0,227.66)" d="M 33197.9 60245.3 C 33211.8 60303.5 33239.5 60408.8 33239.5 60422.6 C 33239.5 60469.7 33206.2 60497.4 33159.1 60497.4 C 33150.8 60497.4 33073.3 60494.7 33048.3 60397.7 L 32649.4 58793.8 C 32641.1 58760.5 32641.1 58755 32641.1 58749.4 C 32641.1 58707.9 32671.6 58674.5987 32718.7 58674.5987 C 32776.8 58674.5987 32810.1 58724.5 32815.6 58732.8 C 32826.7 58757.8 32862.7 58901.8 32968 59328.4 C 33056.6 59253.6 33181.3 59242.4974 33236.7 59242.4974 C 33430.6 59242.4974 33538.6 59367.2 33605.1 59444.8 C 33630.1 59320.1 33732.6 59242.4974 33854.5 59242.4974 C 33951.4 59242.4974 34015.1 59306.3 34059.4 59394.9 C 34106.5 59494.6 34142.5 59663.6 34142.5 59669.1 C 34142.5 59696.8 34117.6 59696.8 34109.3 59696.8 C 34081.6 59696.8 34078.8 59685.8 34070.5 59647 C 34023.4 59466.9 33973.6 59303.5 33860 59303.5 C 33785.2 59303.5 33776.9 59375.5 33776.9 59430.8958 C 33776.9 59491.8 33810.1 59621.9978 33832.3 59719 L 33909.9 60018.2 C 33918.2 60059.7 33945.9 60165 33956.9 60206.5 C 33970.8 60270.3 33998.5 60375.5 33998.5 60392.2 C 33998.5 60442 33959.7 60467 33918.2 60467 C 33904.3 60467 33832.3 60464.2 33810.1 60370 L 33679.9 59852 C 33646.7 59713.5 33616.2 59597.1 33607.9 59569.4 C 33605.1 59555.6 33472.2 59303.5 33247.8 59303.5 C 33109.3 59303.5 33042.8 59394.9 33042.8 59544.4975 C 33042.8 59624.8 33062.2 59702.4 33081.6 59779.9 L 33197.9 60245.3 "/>
<path transform="matrix(.00359712,0,0,-.00359712,0,227.66)" d="M 35976 59910.1 L 36748.9 59910.1 C 36787.7 59910.1 36840.3 59910.1 36840.3 59965.5 C 36840.3 60021 36787.7 60021 36748.9 60021 L 35976 60021 L 35976 60796.6 C 35976 60835.3958 35976 60888 35920.6 60888 C 35865.2 60888 35865.2 60835.3958 35865.2 60796.6 L 35865.2 60021 L 35089.5 60021 C 35050.8 60021 34998.1 60021 34998.1 59965.5 C 34998.1 59910.1 35050.8 59910.1 35089.5 59910.1 L 35865.2 59910.1 L 35865.2 59134.5 C 35865.2 59095.7 35865.2 59043.1 35920.6 59043.1 C 35976 59043.1 35976 59095.7 35976 59134.5 L 35976 59910.1 "/>
<path transform="matrix(.00359712,0,0,-.00359712,0,227.66)" d="M 39587.3 62194.1 C 39537.4 62296.6 39457.1 62371.4 39332.4 62371.4 C 39008.3 62371.4 38664.8 61964.2 38664.8 61559.8 C 38664.8 61299.4 38817.2 61116.5 39033.3 61116.5 C 39088.6 61116.5 39227.2 61127.6 39393.4 61324.3 C 39415.5 61207.9 39512.5 61116.5 39645.5 61116.5 C 39742.4 61116.5 39806.1 61180.3 39850.5 61268.9 C 39897.5 61368.6 39933.5 61537.6 39933.5 61543.1 C 39933.5 61570.8 39908.6 61570.8 39900.3 61570.8 C 39872.6 61570.8 39869.8 61559.8 39861.5 61520.997 C 39814.4 61340.8956 39764.6 61177.5 39651 61177.5 C 39576.2 61177.5 39567.9 61249.5 39567.9 61304.9 C 39567.9 61365.8 39573.4 61387.9976 39603.9 61509.9 C 39634.4 61626.3 39639.9 61653.9 39664.8 61759.1963 L 39764.6 62147 C 39784 62224.6 39784 62230.1 39784 62241.2 C 39784 62288.3 39750.7 62316 39703.6 62316 C 39637.1 62316 39595.6 62255.1 39587.3 62194.1 Z M 39407.2 61476.7 C 39393.4 61426.8 39393.4 61421.3 39351.8 61374.2 C 39229.9 61221.8 39116.3 61177.5 39038.8 61177.5 C 38900.3 61177.5 38861.5 61329.8 38861.5 61437.9 C 38861.5 61576.4 38950.1 61917.1 39013.8 62044.4975 C 39099.7 62208 39224.4 62310.5 39335.2 62310.5 C 39515.3 62310.5 39554 62083.3 39554 62066.7 C 39554 62050.1 39548.5 62033.5 39545.7 62019.6 L 39407.2 61476.7 "/>
<path transform="matrix(.00359712,0,0,-.00359712,0,227.66)" d="M 41005 61955.9 C 41118.5 61664.9971 41251.5 61241.2 41295.8 61177.5 C 41340.2 61116.5 41367.9 61116.5 41442.6 61116.5 L 41503.6 61116.5 C 41531.3 61119.3 41534.1 61135.9 41534.1 61144.2 C 41534.1 61152.4973 41528.4977 61158.1 41520.2 61169.2 C 41492.5 61199.6 41475.9 61241.2 41456.5 61296.6 L 40891.4 62872.8 C 40833.2 63033.5 40683.6 63069.4971 40553.4 63069.4971 C 40539.6 63069.4971 40503.5 63069.4971 40503.5 63039 C 40503.5 63016.9 40525.7 63011.3 40528.5 63011.3 C 40619.9 62994.7 40639.3 62978.1 40708.5 62789.7 L 40977.3 62036.2 L 40212.7 61277.2 C 40179.4 61243.9976 40162.8 61227.3 40162.8 61191.3 C 40162.8 61144.2 40201.6 61111 40245.9 61111 C 40290.3 61111 40315.2 61141.5 40337.3 61169.2 L 41005 61955.9 "/>
<path transform="matrix(.00359712,0,0,-.00359712,0,227.66)" stroke-width="110.783" stroke-linecap="butt" stroke-miterlimit="10" stroke-linejoin="miter" fill="none" stroke="rgb(0,0,0)" d="M 37945.3 59965.9977 L 42241.5 59965.9977 "/>
<path transform="matrix(.00359712,0,0,-.00359712,0,227.66)" d="M 38296.8 57587.3 L 38590.5 57872.6 C 39022.6 58254.9 39188.8 58404.5 39188.8 58681.5 C 39188.8 58997.3 38939.5 59218.9 38601.5 59218.9 C 38288.5 59218.9 38083.5 58964.1 38083.5 58717.5 C 38083.5 58562.4 38222 58562.4 38230.3 58562.4 C 38277.4 58562.4 38374.4 58595.6964 38374.4 58709.2 C 38374.4 58781.3 38324.5 58853.3 38227.6 58853.3 C 38205.4 58853.3 38199.9 58853.3 38191.5 58850.5 C 38255.3 59030.6 38404.8 59133.1 38565.5 59133.1 C 38817.6 59133.1 38936.7 58908.7 38936.7 58681.5 C 38936.7 58459.9 38798.2 58241.1 38645.9 58069.3 L 38114 57476.4976 C 38083.5 57446 38083.5 57440.5 38083.5 57374 L 39111.3 57374 L 39188.8 57856 L 39119.6 57856 C 39105.7 57772.9 39086.3 57651 39058.6 57609.5 C 39039.2 57587.3 38856.4 57587.3 38795.5 57587.3 L 38296.8 57587.3 "/>
<path transform="matrix(.00359712,0,0,-.00359712,0,227.66)" d="M 39969.9 58346.3 C 39983.8 58404.5 40011.5 58509.8 40011.5 58523.5987 C 40011.5 58570.7 39978.2 58598.4 39931.1 58598.4 C 39922.8 58598.4 39845.3 58595.6964 39820.3 58498.7 L 39421.4 56894.8 C 39413.1 56861.5 39413.1 56856 39413.1 56850.4 C 39413.1 56808.9 39443.6 56775.6 39490.7 56775.6 C 39548.8 56775.6 39582.1 56825.5 39587.6 56833.8 C 39598.7 56858.8 39634.7 57002.8 39740 57429.3957 C 39828.6 57354.6 39953.3 57343.5 40008.7 57343.5 C 40202.6 57343.5 40310.6 57468.2 40377.1 57545.8 C 40402.1 57421.0987 40504.6 57343.5 40626.5 57343.5 C 40723.4 57343.5 40787.1 57407.3 40831.4 57495.9 C 40878.5 57595.6 40914.5 57764.6 40914.5 57770.1 C 40914.5 57797.8 40889.6 57797.8 40881.3 57797.8 C 40853.6 57797.8 40850.8 57786.8 40842.5 57748 C 40795.4 57567.9 40745.6 57404.5 40632 57404.5 C 40557.2 57404.5 40548.9 57476.4976 40548.9 57531.9 C 40548.9 57592.8 40582.1 57723 40604.3 57820 L 40681.9 58119.2 C 40690.2 58160.7 40717.9 58266 40728.9 58307.5 C 40742.8 58371.3 40770.5 58476.5 40770.5 58493.2 C 40770.5 58543 40731.7 58568 40690.2 58568 C 40676.3 58568 40604.3 58565.2 40582.1 58471 L 40451.9 57953 C 40418.7 57814.5 40388.2 57698.1 40379.9 57670.4 C 40377.1 57656.6 40244.2 57404.5 40019.8 57404.5 C 39881.3 57404.5 39814.8 57495.9 39814.8 57645.5 C 39814.8 57725.8 39834.2 57803.4 39853.6 57880.9 L 39969.9 58346.3 "/>
<path transform="matrix(.00359712,0,0,-.00359712,0,227.66)" d="M 41977.9978 58526.8 L 41912.1 58526.8 C 41906.3 58484.2 41886.9 58369.8 41861.7 58350.4 C 41846.2 58338.8 41696.9 58338.8 41669.8 58338.8 L 41313.1 58338.8 C 41516.6 58519.1 41584.5 58573.4 41700.8 58664.5 C 41844.3 58778.9 41977.9978 58899.1 41977.9978 59083.3 C 41977.9978 59317.8 41772.5 59461.3 41524.4 59461.3 C 41284 59461.3 41121.1 59292.5987 41121.1 59114.3 C 41121.1 59015.4 41204.5 59005.7 41223.9 59005.7 C 41270.4 59005.7 41326.6 59038.7 41326.6 59108.5 C 41326.6 59143.3 41313.1 59211.2 41212.3 59211.2 C 41272.4 59348.9 41404.2 59391.5 41495.3 59391.5 C 41689.2 59391.5 41790 59240.3 41790 59083.3 C 41790 58914.6 41669.8 58780.8 41607.8 58711 L 41140.5 58249.6 C 41121.1 58232.2 41121.1 58228.3 41121.1 58174 L 41919.9 58174 L 41977.9978 58526.8 "/>
<path transform="matrix(.00359712,0,0,-.00359712,0,227.66)" d="M 44033.9 59965.6 C 44033.9 61054.3 43784.6 62151.3 43080.9 62979.5 C 43025.5 63043.3 42920.3 63156.8 42806.7 63256.6 C 42773.5 63289.8 42767.9 63289.8 42729.1 63289.8 C 42695.9 63289.8 42671 63289.8 42671 63262.1 C 42671 63251 42682 63239.9 42687.6 63234.4 C 42784.5 63134.7 42970.1 62949.1 43155.7 62649.9 C 43601.7 61935.2 43804 61034.9 43804 59968.4 C 43804 59223.2 43704.2 58261.9 43247.2 57436.3956 C 43028.3 57043 42798.4 56813.1 42682 56696.8 C 42676.5 56688.5 42671 56680.1 42671 56671.8 C 42671 56644.1 42695.9 56644.1 42729.1 56644.1 C 42767.9 56644.1 42773.5 56644.1 42815 56685.6966 C 43743 57530.6 44033.9 58799.3 44033.9 59965.6 "/>
<path transform="matrix(.00359712,0,0,-.00359712,0,227.66)" d="M 45805.3 60483.6 C 45459.1 60400.5 45190.3 60040.3 45190.3 59705.1964 C 45190.3 59439.2 45367.6 59239.8 45628 59239.8 C 45952.2 59239.8 46182.1 59674.7 46182.1 60056.9973 C 46182.1 60309 46071.3 60447.6 45977.1 60572.2 C 45877.4 60696.9 45713.9 60904.6 45713.9 61026.4978 C 45713.9 61087.5 45769.3 61154 45866.3 61154 C 45949.4 61154 46004.8 61117.9 46063 61079.2 C 46118.4 61045.8956 46173.8 61009.9 46215.3 61009.9 C 46284.6 61009.9 46326.1 61076.4 46326.1 61120.7 C 46326.1 61181.7 46281.8 61190 46182.1 61212.1 C 46038 61242.6 45999.3 61242.6 45954.9 61242.6 C 45738.8 61242.6 45639.1 61123.5 45639.1 60957.3 C 45639.1 60807.6963 45719.5 60652.5 45805.3 60483.6 Z M 45838.6 60422.6 C 45907.8 60295.1965 45990.9 60145.6 45990.9 59946.2 C 45990.9 59763.3 45885.7 59300.7 45628 59300.7 C 45475.7 59300.7 45362.1 59417 45362.1 59627.6 C 45362.1 59802.1 45464.6 60322.9 45838.6 60422.6 "/>
<path transform="matrix(.00359712,0,0,-.00359712,0,227.66)" d="M 47038.1 61628.7 C 47038.1 61659.7 47014.9 61702.4 46960.6 61702.4 C 46908.3 61702.4 46852 61652 46852 61595.7 C 46852 61562.8 46877.2 61522.1 46929.6 61522.1 C 46985.8 61522.1 47038.1 61576.3 47038.1 61628.7 Z M 46642.6 60643.8 C 46634.9 60618.6 46625.2 60595.4 46625.2 60562.4 C 46625.2 60471.3 46702.8 60397.6 46809.4 60397.6 C 47003.3 60397.6 47088.5 60665.2 47088.5 60694.2 C 47088.5 60719.3956 47063.3 60719.3956 47057.5 60719.3956 C 47030.4 60719.3956 47028.5 60707.8 47020.7 60686.5 C 46976.1 60531.4 46890.8 60451.9 46815.2 60451.9 C 46776.4 60451.9 46766.7 60477.1 46766.7 60519.8 C 46766.7 60564.3 46780.3 60601.2 46797.7 60643.8 C 46817.1 60696.2 46838.5 60748.5 46859.8 60798.9 C 46877.2 60845.5 46947 61021.9 46954.8 61045.1 C 46960.6 61064.5 46966.4 61087.8 46966.4 61107.2 C 46966.4 61198.3 46888.9 61271.9974 46782.2 61271.9974 C 46590.3 61271.9974 46501.1 61008.3 46501.1 60975.3 C 46501.1 60950.1 46528.3 60950.1 46534.1 60950.1 C 46561.2 60950.1 46563.2 60959.8 46569 60981.2 C 46619.4 61147.8958 46704.7 61217.7 46776.4 61217.7 C 46807.4 61217.7 46824.9 61202.2 46824.9 61149.8 C 46824.9 61105.2 46813.3 61076.2 46764.8 60955.9975 L 46642.6 60643.8 "/>
<path transform="matrix(.00359712,0,0,-.00359712,0,227.66)" d="M 48044.1 61628.7 C 48044.1 61661.6 48018.9 61702.4 47966.5 61702.4 C 47910.3 61702.4 47858 61648.1 47858 61595.7 C 47858 61564.7 47881.2 61522.1 47935.5 61522.1 C 47987.9 61522.1 48044.1 61572.5 48044.1 61628.7 Z M 47633.1 60322 C 47600.1 60188.2 47497.4 60075.8 47383 60075.8 C 47357.8 60075.8 47334.5 60079.7 47313.2 60087.3957 C 47363.6 60110.7 47379.1 60157.2 47379.1 60186.3 C 47379.1 60232.8 47342.3 60258 47303.5 60258 C 47243.4 60258 47193 60205.7 47193 60143.6 C 47193 60070 47268.6 60021.5 47384.9 60021.5 C 47501.3 60021.5 47728.1 60091.3 47788.2 60327.8 L 47962.7 61021.9 C 47968.5 61043.1967 47972.4 61060.6966 47972.4 61089.7 C 47972.4 61196.4 47881.2 61271.9974 47764.9 61271.9974 C 47549.7 61271.9974 47425.6 61002.5 47425.6 60975.3 C 47425.6 60950.1 47452.8 60950.1 47458.6 60950.1 C 47481.9 60950.1 47483.8 60955.9975 47497.4 60985 C 47545.8 61097.5 47646.7 61217.7 47759.1 61217.7 C 47807.6 61217.7 47825 61184.7 47825 61122.7 C 47825 61101.4 47821.1 61074.2 47819.2 61064.5 L 47633.1 60322 "/>
<path transform="matrix(.00359712,0,0,-.00359712,0,227.66)" stroke-width="637.012" stroke-linecap="butt" stroke-miterlimit="10" stroke-linejoin="miter" fill="none" stroke="rgb(0,0,0)" d="M 1870.11 45950.9 L 9750.52 45950.9 "/>
<path transform="matrix(.00359712,0,0,-.00359712,0,227.66)" stroke-width="415.449" stroke-linecap="butt" stroke-miterlimit="10" stroke-linejoin="miter" fill="none" stroke="rgb(255,255,255)" d="M 1870.11 45950.9 L 9750.52 45950.9 "/>
<path transform="matrix(.00359712,0,0,-.00359712,0,227.66)" stroke-width="637.012" stroke-linecap="butt" stroke-miterlimit="10" stroke-linejoin="miter" fill="none" stroke="rgb(0,0,0)" d="M 9750.52 45950.9 L 17630.9 45950.9 "/>
<path transform="matrix(.00359712,0,0,-.00359712,0,227.66)" stroke-width="415.449" stroke-linecap="butt" stroke-miterlimit="10" stroke-linejoin="miter" fill="none" stroke="rgb(255,255,255)" d="M 9750.52 45950.9 L 17630.9 45950.9 "/>
<path transform="matrix(.00359712,0,0,-.00359712,0,227.66)" stroke-width="637.012" stroke-linecap="butt" stroke-miterlimit="10" stroke-linejoin="miter" fill="none" stroke="rgb(0,0,0)" d="M 1870.11 38070.5 L 9750.52 45950.9 "/>
<path transform="matrix(.00359712,0,0,-.00359712,0,227.66)" stroke-width="415.449" stroke-linecap="butt" stroke-miterlimit="10" stroke-linejoin="miter" fill="none" stroke="rgb(255,255,255)" d="M 1870.11 38070.5 L 9750.52 45950.9 "/>
<path transform="matrix(.00359712,0,0,-.00359712,0,227.66)" d="M 20622.1 46856.8 C 20663.7 46856.8 20716.3 46856.8 20716.3 46912.3 C 20716.3 46967.7 20663.7 46967.7 20624.9 46967.7 L 18965.5 46967.7 C 18926.8 46967.7 18874.1 46967.7 18874.1 46912.3 C 18874.1 46856.8 18926.8 46856.8 18968.3 46856.8 L 20622.1 46856.8 Z M 20624.9 46319.4 C 20663.7 46319.4 20716.3 46319.4 20716.3 46374.8 C 20716.3 46430.3 20663.7 46430.3 20622.1 46430.3 L 18968.3 46430.3 C 18926.8 46430.3 18874.1 46430.3 18874.1 46374.8 C 18874.1 46319.4 18926.8 46319.4 18965.5 46319.4 L 20624.9 46319.4 "/>
<path transform="matrix(.00359712,0,0,-.00359712,0,227.66)" d="M 23467.5 46588.1 C 23514.6 46588.1 23564.5 46588.1 23564.5 46643.5 C 23564.5 46699 23514.6 46699 23467.5 46699 L 21968.9 46699 C 21921.8 46699 21871.9 46699 21871.9 46643.5 C 21871.9 46588.1 21921.8 46588.1 21968.9 46588.1 L 23467.5 46588.1 "/>
<path transform="matrix(.00359712,0,0,-.00359712,0,227.66)" d="M 24161.7 46859.6 L 24161.7 46926.1 C 24161.7 47627 24505.2 47726.7 24646.5 47726.7 C 24712.9 47726.7 24829.3 47710.1 24890.2 47615.9 C 24848.7 47615.9 24737.9 47615.9 24737.9 47491.2 C 24737.9 47405.3 24804.3 47363.8 24865.3 47363.8 C 24909.6 47363.8 24992.7 47388.7 24992.7 47496.8 C 24992.7 47663 24870.8 47795.9 24640.9 47795.9 C 24286.3 47795.9 23912.3 47438.6 23912.3 46826.4 C 23912.3 46086.7 24233.7 45890.1 24491.3 45890.1 C 24798.8 45890.1 25062 46150.5 25062 46516.1 C 25062 46867.9 24815.4 47133.9 24507.9 47133.9 C 24319.6 47133.9 24217.1 46992.6 24161.7 46859.6 Z M 24491.3 45967.6 C 24316.8 45967.6 24233.7 46133.8 24217.1 46175.4 C 24167.2 46305.6 24167.2 46527.2 24167.2 46577.1 C 24167.2 46793.1 24255.8 47070.2 24505.2 47070.2 C 24549.5 47070.2 24676.9 47070.2 24762.8 46898.4 C 24812.7 46795.9 24812.7 46654.6 24812.7 46518.9 C 24812.7 46385.9 24812.7 46247.4 24765.6 46147.7 C 24682.5 45981.5 24555 45967.6 24491.3 45967.6 "/>
<path transform="matrix(.00359712,0,0,-.00359712,0,227.66)" d="M 25967.7 47682.4 C 25967.7 47737.8 25929 47782.1 25865.2 47782.1 C 25790.4 47782.1 25715.6 47710.1 25715.6 47635.3 C 25715.6 47582.6 25754.4 47535.5 25820.9 47535.5 C 25884.6 47535.5 25967.7 47599.3 25967.7 47682.4 Z M 25757.2 46640.8 C 25790.4 46721.1 25790.4 46726.7 25818.1 46801.5 C 25840.3 46856.8 25854.2 46895.6 25854.2 46948.3 C 25854.2 47072.9 25765.5 47175.4 25627 47175.4 C 25366.6 47175.4 25261.3 46773.8 25261.3 46748.8 C 25261.3 46721.1 25289 46721.1 25294.6 46721.1 C 25322.3 46721.1 25325 46726.7 25338.9 46771 C 25413.7 47031.4 25524.5 47114.5 25618.7 47114.5 C 25640.8 47114.5 25687.9 47114.5 25687.9 47025.8 C 25687.9 46967.7 25668.5 46909.5 25657.5 46881.8 C 25635.3 46809.8 25510.7 46488.4 25466.3 46369.3 C 25438.6 46297.3 25402.6 46205.9 25402.6 46147.7 C 25402.6 46017.5 25496.8 45920.5 25629.8 45920.5 C 25890.2 45920.5 25992.7 46322.2 25992.7 46347.1 C 25992.7 46374.8 25967.7 46374.8 25959.4 46374.8 C 25931.7 46374.8 25931.7 46366.5 25917.9 46325 C 25868 46150.5 25776.6 45981.5 25635.3 45981.5 C 25588.2 45981.5 25568.8 46009.2 25568.8 46072.9 C 25568.8 46142.1 25585.5 46180.9 25649.2 46349.9 L 25757.2 46640.8 "/>
<path transform="matrix(.00359712,0,0,-.00359712,0,227.66)" d="M 28536.1 43348.8 C 28536.1 43359.9 28530.6 43365.5 28525 43373.8 C 28422.5 43476.3 28237 43661.9 28051.3 43961 C 27605.3 44675.8 27403.1 45576.1 27403.1 46642.6 C 27403.1 47387.8 27502.8 48349 27959.9 49174.5 C 28178.8 49567.9 28405.9 49795.1 28527.8 49916.9 C 28536.1 49925.3 28536.1 49930.8 28536.1 49939.1 C 28536.1 49966.8 28516.7 49966.8 28478 49966.8 C 28439.2 49966.8 28433.6 49966.8 28392.1 49925.3 C 27464.1 49080.3 27173.2 47811.6 27173.2 46645.4 C 27173.2 45556.7 27422.5 44459.6968 28126.1 43631.4 C 28181.5 43567.7 28286.8 43454.1 28400.4 43354.4 C 28433.6 43321.1 28439.2 43321.1 28478 43321.1 C 28516.7 43321.1 28536.1 43321.1 28536.1 43348.8 "/>
<path transform="matrix(.00359712,0,0,-.00359712,0,227.66)" d="M 29712.6 46078.5 L 29225 47156.1 C 29205.7 47200.4 29191.8 47200.4 29183.5 47200.4 C 29180.7 47200.4 29166.9 47200.4 29136.4 47178.3 L 28873.2 46978.8 C 28837.2 46951.1 28837.2 46942.8 28837.2 46934.5 C 28837.2 46920.6 28845.5 46903.9974 28864.9 46903.9974 C 28881.5 46903.9974 28928.6 46942.8 28959.1 46965 C 28975.7 46978.8 29017.3 47009.3 29047.8 47031.4 L 29593.5 45831.9 C 29612.9 45787.6 29626.7 45787.6 29651.7 45787.6 C 29693.2 45787.6 29701.5 45804.2 29720.9 45843 L 30978.6 48447 C 30998 48485.8 30998 48496.8958 30998 48502.4 C 30998 48530.1 30975.8 48557.8 30942.6 48557.8 C 30920.4 48557.8 30901 48543.9978 30878.9 48499.6 L 29712.6 46078.5 "/>
<path transform="matrix(.00359712,0,0,-.00359712,0,227.66)" stroke-width="110.783" stroke-linecap="butt" stroke-miterlimit="10" stroke-linejoin="miter" fill="none" stroke="rgb(0,0,0)" d="M 30943.3 48501.8 L 32559.1 48501.8 "/>
<path transform="matrix(.00359712,0,0,-.00359712,0,227.66)" d="M 31932 46759.9 C 32045.5 46469 32178.5 46045.2 32222.8 45981.5 C 32267.2 45920.5 32294.9 45920.5 32369.6 45920.5 L 32430.6 45920.5 C 32458.3 45923.3 32461.1 45939.9 32461.1 45948.2 C 32461.1 45956.5 32455.5 45962.1 32447.2 45973.2 C 32419.5 46003.6 32402.9 46045.2 32383.5 46100.6 L 31818.4 47676.8 C 31760.2 47837.5 31610.6 47873.5 31480.4 47873.5 C 31466.6 47873.5 31430.5 47873.5 31430.5 47843 C 31430.5 47820.9 31452.7 47815.3 31455.5 47815.3 C 31546.9 47798.7 31566.3 47782.1 31635.5 47593.7 L 31904.3 46840.1966 L 31139.7 46081.2 C 31106.4 46048 31089.8 46031.3 31089.8 45995.3 C 31089.8 45948.2 31128.6 45915 31172.9 45915 C 31217.3 45915 31242.2 45945.4975 31264.3 45973.2 L 31932 46759.9 "/>
<path transform="matrix(.00359712,0,0,-.00359712,0,227.66)" d="M 33197.9 46923.3 C 33211.8 46981.4978 33239.5 47086.8 33239.5 47100.6 C 33239.5 47147.7 33206.2 47175.4 33159.1 47175.4 C 33150.8 47175.4 33073.3 47172.7 33048.3 47075.7 L 32649.4 45471.8 C 32641.1 45438.5 32641.1 45432.9977 32641.1 45427.4 C 32641.1 45385.9 32671.6 45352.6 32718.7 45352.6 C 32776.8 45352.6 32810.1 45402.5 32815.6 45410.8 C 32826.7 45435.8 32862.7 45579.8 32968 46006.4 C 33056.6 45931.6 33181.3 45920.5 33236.7 45920.5 C 33430.6 45920.5 33538.6 46045.2 33605.1 46122.8 C 33630.1 45998.1 33732.6 45920.5 33854.5 45920.5 C 33951.4 45920.5 34015.1 45984.3 34059.4 46072.9 C 34106.5 46172.6 34142.5 46341.6 34142.5 46347.1 C 34142.5 46374.8 34117.6 46374.8 34109.3 46374.8 C 34081.6 46374.8 34078.8 46363.8 34070.5 46325 C 34023.4 46144.9 33973.6 45981.5 33860 45981.5 C 33785.2 45981.5 33776.9 46053.5 33776.9 46108.9 C 33776.9 46169.8 33810.1 46300 33832.3 46397 L 33909.9 46696.2 C 33918.2 46737.7 33945.9 46843 33956.9 46884.5 C 33970.8 46948.3 33998.5 47053.5 33998.5 47070.2 C 33998.5 47120 33959.7 47145 33918.2 47145 C 33904.3 47145 33832.3 47142.1967 33810.1 47047.9975 L 33679.9 46530 C 33646.7 46391.4976 33616.2 46275.1 33607.9 46247.4 C 33605.1 46233.6 33472.2 45981.5 33247.8 45981.5 C 33109.3 45981.5 33042.8 46072.9 33042.8 46222.5 C 33042.8 46302.8 33062.2 46380.4 33081.6 46457.9 L 33197.9 46923.3 "/>
<path transform="matrix(.00359712,0,0,-.00359712,0,227.66)" d="M 35976 46588.1 L 36748.9 46588.1 C 36787.7 46588.1 36840.3 46588.1 36840.3 46643.5 C 36840.3 46699 36787.7 46699 36748.9 46699 L 35976 46699 L 35976 47474.6 C 35976 47513.4 35976 47566 35920.6 47566 C 35865.2 47566 35865.2 47513.4 35865.2 47474.6 L 35865.2 46699 L 35089.5 46699 C 35050.8 46699 34998.1 46699 34998.1 46643.5 C 34998.1 46588.1 35050.8 46588.1 35089.5 46588.1 L 35865.2 46588.1 L 35865.2 45812.5 C 35865.2 45773.7 35865.2 45721.1 35920.6 45721.1 C 35976 45721.1 35976 45773.7 35976 45812.5 L 35976 46588.1 "/>
<path transform="matrix(.00359712,0,0,-.00359712,0,227.66)" d="M 39587.3 48872.1 C 39537.4 48974.6 39457.1 49049.4 39332.4 49049.4 C 39008.3 49049.4 38664.8 48642.2 38664.8 48237.8 C 38664.8 47977.4 38817.2 47794.5 39033.3 47794.5 C 39088.6 47794.5 39227.2 47805.6 39393.4 48002.3 C 39415.5 47885.9 39512.5 47794.5 39645.5 47794.5 C 39742.4 47794.5 39806.1 47858.3 39850.5 47946.9 C 39897.5 48046.6 39933.5 48215.6 39933.5 48221.1 C 39933.5 48248.8 39908.6 48248.8 39900.3 48248.8 C 39872.6 48248.8 39869.8 48237.8 39861.5 48199 C 39814.4 48018.9 39764.6 47855.5 39651 47855.5 C 39576.2 47855.5 39567.9 47927.5 39567.9 47982.9 C 39567.9 48043.8 39573.4 48066 39603.9 48187.9 C 39634.4 48304.3 39639.9 48331.8958 39664.8 48437.2 L 39764.6 48825 C 39784 48902.6 39784 48908.1 39784 48919.2 C 39784 48966.3 39750.7 48994 39703.6 48994 C 39637.1 48994 39595.6 48933.1 39587.3 48872.1 Z M 39407.2 48154.7 C 39393.4 48104.8 39393.4 48099.3 39351.8 48052.2 C 39229.9 47899.8 39116.3 47855.5 39038.8 47855.5 C 38900.3 47855.5 38861.5 48007.8 38861.5 48115.9 C 38861.5 48254.4 38950.1 48595.1 39013.8 48722.5 C 39099.7 48886 39224.4 48988.5 39335.2 48988.5 C 39515.3 48988.5 39554 48761.3 39554 48744.7 C 39554 48728.1 39548.5 48711.5 39545.7 48697.6 L 39407.2 48154.7 "/>
<path transform="matrix(.00359712,0,0,-.00359712,0,227.66)" d="M 41005 48633.9 C 41118.5 48343 41251.5 47919.2 41295.8 47855.5 C 41340.2 47794.5 41367.9 47794.5 41442.6 47794.5 L 41503.6 47794.5 C 41531.3 47797.3 41534.1 47813.9 41534.1 47822.2 C 41534.1 47830.5 41528.4977 47836.1 41520.2 47847.2 C 41492.5 47877.6 41475.9 47919.2 41456.5 47974.6 L 40891.4 49550.8 C 40833.2 49711.5 40683.6 49747.5 40553.4 49747.5 C 40539.6 49747.5 40503.5 49747.5 40503.5 49717 C 40503.5 49694.9 40525.7 49689.3 40528.5 49689.3 C 40619.9 49672.7 40639.3 49656.1 40708.5 49467.7 L 40977.3 48714.2 L 40212.7 47955.2 C 40179.4 47922 40162.8 47905.3 40162.8 47869.3 C 40162.8 47822.2 40201.6 47788.9976 40245.9 47788.9976 C 40290.3 47788.9976 40315.2 47819.5 40337.3 47847.2 L 41005 48633.9 "/>
<path transform="matrix(.00359712,0,0,-.00359712,0,227.66)" stroke-width="110.783" stroke-linecap="butt" stroke-miterlimit="10" stroke-linejoin="miter" fill="none" stroke="rgb(0,0,0)" d="M 37945.3 46643.4 L 42241.5 46643.4 "/>
<path transform="matrix(.00359712,0,0,-.00359712,0,227.66)" d="M 38296.8 44264.3 L 38590.5 44549.6 C 39022.6 44931.9 39188.8 45081.5 39188.8 45358.5 C 39188.8 45674.3 38939.5 45895.9 38601.5 45895.9 C 38288.5 45895.9 38083.5 45641.1 38083.5 45394.5 C 38083.5 45239.4 38222 45239.4 38230.3 45239.4 C 38277.4 45239.4 38374.4 45272.7 38374.4 45386.2 C 38374.4 45458.3 38324.5 45530.3 38227.6 45530.3 C 38205.4 45530.3 38199.9 45530.3 38191.5 45527.5 C 38255.3 45707.6 38404.8 45810.1 38565.5 45810.1 C 38817.6 45810.1 38936.7 45585.7 38936.7 45358.5 C 38936.7 45136.9 38798.2 44918.1 38645.9 44746.3 L 38114 44153.5 C 38083.5 44123 38083.5 44117.5 38083.5 44051 L 39111.3 44051 L 39188.8 44533 L 39119.6 44533 C 39105.7 44449.9 39086.3 44328 39058.6 44286.5 C 39039.2 44264.3 38856.4 44264.3 38795.5 44264.3 L 38296.8 44264.3 "/>
<path transform="matrix(.00359712,0,0,-.00359712,0,227.66)" d="M 39969.9 45023.3 C 39983.8 45081.5 40011.5 45186.8 40011.5 45200.6 C 40011.5 45247.7 39978.2 45275.4 39931.1 45275.4 C 39922.8 45275.4 39845.3 45272.7 39820.3 45175.7 L 39421.4 43571.8 C 39413.1 43538.5 39413.1 43533 39413.1 43527.4 C 39413.1 43485.9 39443.6 43452.6 39490.7 43452.6 C 39548.8 43452.6 39582.1 43502.5 39587.6 43510.8 C 39598.7 43535.8 39634.7 43679.8 39740 44106.4 C 39828.6 44031.6 39953.3 44020.5 40008.7 44020.5 C 40202.6 44020.5 40310.6 44145.2 40377.1 44222.8 C 40402.1 44098.1 40504.6 44020.5 40626.5 44020.5 C 40723.4 44020.5 40787.1 44084.3 40831.4 44172.9 C 40878.5 44272.6 40914.5 44441.6 40914.5 44447.1 C 40914.5 44474.8 40889.6 44474.8 40881.3 44474.8 C 40853.6 44474.8 40850.8 44463.8 40842.5 44425 C 40795.4 44244.9 40745.6 44081.5 40632 44081.5 C 40557.2 44081.5 40548.9 44153.5 40548.9 44208.9 C 40548.9 44269.8 40582.1 44400 40604.3 44497 L 40681.9 44796.2 C 40690.2 44837.7 40717.9 44943 40728.9 44984.5 C 40742.8 45048.3 40770.5 45153.5 40770.5 45170.2 C 40770.5 45220 40731.7 45245 40690.2 45245 C 40676.3 45245 40604.3 45242.2 40582.1 45148 L 40451.9 44630 C 40418.7 44491.5 40388.2 44375.1 40379.9 44347.4 C 40377.1 44333.6 40244.2 44081.5 40019.8 44081.5 C 39881.3 44081.5 39814.8 44172.9 39814.8 44322.5 C 39814.8 44402.8 39834.2 44480.4 39853.6 44557.9 L 39969.9 45023.3 "/>
<path transform="matrix(.00359712,0,0,-.00359712,0,227.66)" d="M 41977.9978 45203.8 L 41912.1 45203.8 C 41906.3 45161.2 41886.9 45046.8 41861.7 45027.4 C 41846.2 45015.8 41696.9 45015.8 41669.8 45015.8 L 41313.1 45015.8 C 41516.6 45196.1 41584.5 45250.4 41700.8 45341.5 C 41844.3 45455.9 41977.9978 45576.1 41977.9978 45760.3 C 41977.9978 45994.8 41772.5 46138.3 41524.4 46138.3 C 41284 46138.3 41121.1 45969.6 41121.1 45791.3 C 41121.1 45692.4 41204.5 45682.7 41223.9 45682.7 C 41270.4 45682.7 41326.6 45715.7 41326.6 45785.5 C 41326.6 45820.3 41313.1 45888.2 41212.3 45888.2 C 41272.4 46025.9 41404.2 46068.4977 41495.3 46068.4977 C 41689.2 46068.4977 41790 45917.3 41790 45760.3 C 41790 45591.6 41669.8 45457.8 41607.8 45388 L 41140.5 44926.6 C 41121.1 44909.1968 41121.1 44905.3 41121.1 44851 L 41919.9 44851 L 41977.9978 45203.8 "/>
<path transform="matrix(.00359712,0,0,-.00359712,0,227.66)" d="M 44033.9 46642.6 C 44033.9 47731.3 43784.6 48828.3 43080.9 49656.5 C 43025.5 49720.3 42920.3 49833.8 42806.7 49933.6 C 42773.5 49966.8 42767.9 49966.8 42729.1 49966.8 C 42695.9 49966.8 42671 49966.8 42671 49939.1 C 42671 49928 42682 49916.9 42687.6 49911.4 C 42784.5 49811.7 42970.1 49626.1 43155.7 49326.9 C 43601.7 48612.2 43804 47711.9 43804 46645.4 C 43804 45900.2 43704.2 44938.9 43247.2 44113.4 C 43028.3 43720 42798.4 43490.1 42682 43373.8 C 42676.5 43365.5 42671 43357.1 42671 43348.8 C 42671 43321.1 42695.9 43321.1 42729.1 43321.1 C 42767.9 43321.1 42773.5 43321.1 42815 43362.7 C 43743 44207.6 44033.9 45476.3 44033.9 46642.6 "/>
<path transform="matrix(.00359712,0,0,-.00359712,0,227.66)" d="M 646.047 35085 C 646.047 35087.8 646.047 35115.5 610.031 35115.5 C 546.313 35115.5 344.094 35093.3 272.063 35087.8 C 249.906 35085 219.438 35082.3 219.438 35032.4 C 219.438 34999.2 244.359 34999.2 285.922 34999.2 C 418.891 34999.2 424.422 34979.8 424.422 34952.1 L 416.125 34896.7 L 14.4375 33301 C 3.35938 33262.3 3.35938 33256.7 3.35938 33240.1 C 3.35938 33176.4 58.7656 33162.5 83.7031068 33162.5 C 119.703 33162.5 161.266 33187.5 177.875 33220.7 C 191.734 33245.6 316.391 33758.1 333.016 33827.4 C 427.203 33819.1 654.359 33774.7 654.359 33591.9 C 654.359 33572.5 654.359 33561.4 646.047 33533.7 C 640.5 33500.5 634.969 33467.3 634.969 33436.8 C 634.969 33273.3 745.766 33162.5 889.828 33162.5 C 972.921953 33162.5 1047.72 33206.8 1108.67 33309.3 C 1177.92 33431.2 1208.39 33583.6 1208.39 33589.1 C 1208.39 33616.8 1183.45 33616.8 1175.16 33616.8 C 1147.45 33616.8 1144.67 33605.8 1136.36 33567 C 1080.97 33364.8 1017.25 33223.5 895.358953 33223.5 C 842.733965 33223.5 806.719 33253.9 806.719 33353.7 C 806.719 33400.8 817.797 33464.5 828.875 33508.8 C 839.952955 33555.9 839.952955 33567 839.952955 33594.7 C 839.952955 33774.7 665.438 33855.1 429.969 33885.5 C 515.844 33935.4 604.484 34024.1 668.203 34090.5 C 801.172 34237.4 928.609 34356.5 1064.34 34356.5 C 1080.97 34356.5 1083.73 34356.5 1089.28 34353.7 C 1122.52 34348.2 1125.28 34348.2 1147.45 34331.5 C 1152.98 34328.8 1152.98 34326 1158.53 34320.5 C 1025.56 34312.2 1000.63 34204.1 1000.63 34170.9 C 1000.63 34126.5 1031.09 34073.9 1105.89 34073.9 C 1177.92 34073.9 1258.25 34134.9 1258.25 34242.9 C 1258.25 34326 1194.55 34417.4 1069.88 34417.4 C 992.313 34417.4 864.891 34395.3 665.438 34173.6 C 571.25 34068.4 463.219 33957.6 357.938 33916 L 646.047 35085 "/>
<path transform="matrix(.00359712,0,0,-.00359712,0,227.66)" d="M 8890.2 34154.2 C 8890.2 34371.9 8713.79079 34548.3 8496.18043 34548.3 C 8278.57102 34548.3 8102.16 34371.9 8102.16 34154.2 C 8102.16 33936.6 8278.57102 33760.2 8496.18043 33760.2 C 8713.79079 33760.2 8890.2 33936.6 8890.2 34154.2 Z M 8496.18043 34154.2 "/>
<path transform="matrix(.00359712,0,0,-.00359712,0,227.66)" stroke-width="110.783" stroke-linecap="butt" stroke-miterlimit="10" stroke-linejoin="miter" fill="none" stroke="rgb(0,0,0)" d="M 8890.2 34154.2 C 8890.2 34371.9 8713.79079 34548.3 8496.18043 34548.3 C 8278.57102 34548.3 8102.16 34371.9 8102.16 34154.2 C 8102.16 33936.6 8278.57102 33760.2 8496.18043 33760.2 C 8713.79079 33760.2 8890.2 33936.6 8890.2 34154.2 Z M 8496.18043 34154.2 "/>
<path transform="matrix(.00359712,0,0,-.00359712,0,227.66)" stroke-width="110.783" stroke-linecap="butt" stroke-miterlimit="10" stroke-linejoin="miter" fill="none" stroke="rgb(0,0,0)" d="M 2358.82 34154.2 L 8102.16 34154.2 "/>
<path transform="matrix(.00359712,0,0,-.00359712,0,227.66)" d="M 16826.8 35241.4 C 16826.8 35294 16788 35341.1 16721.5 35341.1 C 16657.8 35341.1 16574.7 35277.4 16574.7 35194.3 C 16574.7 35138.9 16613.5 35094.5 16677.2 35094.5 C 16752 35094.5 16826.8 35166.6 16826.8 35241.4 Z M 16270 33371.5 C 16217.3 33161 16084.4 33003.1 15929.2 33003.1 C 15912.6 33003.1 15871 33003.1 15821.2 33028 C 15904.3 33047.4 15945.8 33119.4 15945.8 33174.8 C 15945.8 33219.1 15915.4 33271.8 15840.6 33271.8 C 15771.3 33271.8 15691 33213.6 15691 33113.9 C 15691 33003.1 15801.8 32942.1 15934.8 32942.1 C 16128.7 32942.1 16386.3 33088.9 16455.6 33363.2 L 16710.4 34377.1 C 16724.3 34432.5 16724.3 34471.3 16724.3 34479.6 C 16724.3 34637.5 16607.9 34734.4 16469.4 34734.4 C 16186.8 34734.4 16029 34332.8 16029 34307.8 C 16029 34280.1 16056.7 34280.1 16062.2 34280.1 C 16087.1 34280.1 16089.9 34282.9 16112.1 34335.5 C 16181.3 34504.5 16308.7 34673.5 16461.1 34673.5 C 16499.9 34673.5 16549.8 34662.4 16549.8 34546 C 16549.8 34482.3 16541.4 34451.9 16530.4 34404.8 L 16270 33371.5 "/>
<path transform="matrix(.00359712,0,0,-.00359712,0,227.66)" stroke-width="110.783" stroke-linecap="butt" stroke-miterlimit="10" stroke-linejoin="miter" fill="none" stroke="rgb(0,0,0)" d="M 8890.2 34154.2 L 14748.5 34154.2 "/>
<path transform="matrix(.00359712,0,0,-.00359712,0,227.66)" d="M 889.703 27204 C 889.703 27206.8 889.703 27234.5 853.703 27234.5 C 789.984 27234.5 587.766 27212.3 515.734 27206.8 C 493.578 27204 463.094 27201.3 463.094 27148.6 C 463.094 27118.2 490.797 27118.2 532.359 27118.2 C 665.328 27118.2 668.094 27093.2 668.094 27071.1 L 659.781 27015.7 L 310.734 25630.6 C 302.422 25600.1 296.891 25580.7 296.891 25536.4 C 296.891 25378.5 418.781 25281.5 548.969 25281.5 C 640.391 25281.5 709.641 25336.9 756.734 25436.7 C 806.609 25541.9 839.84395 25702.6 839.84395 25708.1 C 839.84395 25735.8 814.906 25735.8 806.609 25735.8 C 778.906 25735.8 776.125 25724.8 767.813 25686 C 720.734 25505.9 668.094 25342.5 557.281 25342.5 C 474.188 25342.5 474.188 25431.1 474.188 25469.9 C 474.188 25536.4 476.953 25550.2 490.797 25602.9 L 889.703 27204 "/>
<path transform="matrix(.00359712,0,0,-.00359712,0,227.66)" stroke-width="110.783" stroke-linecap="butt" stroke-miterlimit="10" stroke-linejoin="miter" fill="none" stroke="rgb(0,0,0)" d="M 2034.73 27692.3 L 8217.57 33875.6 "/>
<path transform="matrix(.00359712,0,0,-.00359712,0,227.66)" d="M 8805.73 27092.4 C 8805.73 27147.8 8766.95 27192.1 8703.23 27192.1 C 8628.44 27192.1 8553.64026 27120.1 8553.64026 27045.3 C 8553.64026 26992.6 8592.42 26945.5 8658.91 26945.5 C 8722.63 26945.5 8805.73 27009.3 8805.73 27092.4 Z M 8595.2 26050.8 C 8628.44 26131.1 8628.44 26136.7 8656.14022 26211.5 C 8678.31029 26266.8 8692.16 26305.6 8692.16 26358.3 C 8692.16 26482.9 8603.52029 26585.4 8465 26585.4 C 8204.61 26585.4 8099.33 26183.8 8099.33 26158.8 C 8099.33 26131.1 8127.03027 26131.1 8132.58065 26131.1 C 8160.28012 26131.1 8163.05055 26136.7 8176.91 26181 C 8251.7 26441.4 8362.5 26524.5 8456.69 26524.5 C 8478.84 26524.5 8525.94 26524.5 8525.94 26435.8 C 8525.94 26377.7 8506.55 26319.5 8495.47 26291.8 C 8473.31 26219.8 8348.66 25898.4 8304.33072 25779.3 C 8276.63 25707.3 8240.61097 25615.9 8240.61097 25557.7 C 8240.61097 25427.5 8334.8 25330.5 8467.77 25330.5 C 8728.17 25330.5 8830.67 25732.2 8830.67 25757.1 C 8830.67 25784.8 8805.73 25784.8 8797.42 25784.8 C 8769.72 25784.8 8769.72 25776.5 8755.88 25735 C 8706 25560.5 8614.59054 25391.5 8473.31 25391.5 C 8426.22 25391.5 8406.83068 25419.2 8406.83068 25482.9 C 8406.83068 25552.1 8423.45 25590.9 8487.16 25759.9 L 8595.2 26050.8 "/>
<path transform="matrix(.00359712,0,0,-.00359712,0,227.66)" stroke-width="110.783" stroke-linecap="butt" stroke-miterlimit="10" stroke-linejoin="miter" fill="none" stroke="rgb(0,0,0)" d="M 8496.18043 33760.2 L 8496.18043 28165.7 "/>
<path transform="matrix(.00359712,0,0,-.00359712,0,227.66)" d="M 20622.1 35059.8 C 20663.7 35059.8 20716.3 35059.8 20716.3 35115.3 C 20716.3 35170.7 20663.7 35170.7 20624.9 35170.7 L 18965.5 35170.7 C 18926.8 35170.7 18874.1 35170.7 18874.1 35115.3 C 18874.1 35059.8 18926.8 35059.8 18968.3 35059.8 L 20622.1 35059.8 Z M 20624.9 34522.4 C 20663.7 34522.4 20716.3 34522.4 20716.3 34577.8 C 20716.3 34633.3 20663.7 34633.3 20622.1 34633.3 L 18968.3 34633.3 C 18926.8 34633.3 18874.1 34633.3 18874.1 34577.8 C 18874.1 34522.4 18926.8 34522.4 18965.5 34522.4 L 20624.9 34522.4 "/>
<path transform="matrix(.00359712,0,0,-.00359712,0,227.66)" d="M 23467.5 34791.1 C 23514.6 34791.1 23564.5 34791.1 23564.5 34846.5 C 23564.5 34902 23514.6 34902 23467.5 34902 L 21968.9 34902 C 21921.8 34902 21871.9 34902 21871.9 34846.5 C 21871.9 34791.1 21921.8 34791.1 21968.9 34791.1 L 23467.5 34791.1 "/>
<path transform="matrix(.00359712,0,0,-.00359712,0,227.66)" d="M 24147.8 34367.3 L 24441.5 34652.6 C 24873.6 35034.9 25039.8 35184.5 25039.8 35461.5 C 25039.8 35777.3 24790.5 35998.9 24452.5 35998.9 C 24139.5 35998.9 23934.5 35744.1 23934.5 35497.5 C 23934.5 35342.4 24073 35342.4 24081.3 35342.4 C 24128.4 35342.4 24225.4 35375.7 24225.4 35489.2 C 24225.4 35561.3 24175.5 35633.3 24078.6 35633.3 C 24056.4 35633.3 24050.9 35633.3 24042.5 35630.5 C 24106.3 35810.6 24255.8 35913.1 24416.5 35913.1 C 24668.6 35913.1 24787.7 35688.7 24787.7 35461.5 C 24787.7 35239.9 24649.2 35021.1 24496.9 34849.3 L 23965 34256.5 C 23934.5 34226 23934.5 34220.5 23934.5 34154 L 24962.3 34154 L 25039.8 34636 L 24970.6 34636 C 24956.7 34552.9 24937.3 34431 24909.6 34389.5 C 24890.2 34367.3 24707.4 34367.3 24646.5 34367.3 L 24147.8 34367.3 "/>
<path transform="matrix(.00359712,0,0,-.00359712,0,227.66)" d="M 25967.7 35885.4 C 25967.7 35940.8 25929 35985.1 25865.2 35985.1 C 25790.4 35985.1 25715.6 35913.1 25715.6 35838.3 C 25715.6 35785.6 25754.4 35738.5 25820.9 35738.5 C 25884.6 35738.5 25967.7 35802.3 25967.7 35885.4 Z M 25757.2 34843.8 C 25790.4 34924.1 25790.4 34929.7 25818.1 35004.5 C 25840.3 35059.8 25854.2 35098.6 25854.2 35151.3 C 25854.2 35275.9 25765.5 35378.4 25627 35378.4 C 25366.6 35378.4 25261.3 34976.8 25261.3 34951.8 C 25261.3 34924.1 25289 34924.1 25294.6 34924.1 C 25322.3 34924.1 25325 34929.7 25338.9 34974 C 25413.7 35234.4 25524.5 35317.5 25618.7 35317.5 C 25640.8 35317.5 25687.9 35317.5 25687.9 35228.8 C 25687.9 35170.7 25668.5 35112.5 25657.5 35084.8 C 25635.3 35012.8 25510.7 34691.4 25466.3 34572.3 C 25438.6 34500.3 25402.6 34408.9 25402.6 34350.7 C 25402.6 34220.5 25496.8 34123.5 25629.8 34123.5 C 25890.2 34123.5 25992.7 34525.2 25992.7 34550.1 C 25992.7 34577.8 25967.7 34577.8 25959.4 34577.8 C 25931.7 34577.8 25931.7 34569.5 25917.9 34528 C 25868 34353.5 25776.6 34184.5 25635.3 34184.5 C 25588.2 34184.5 25568.8 34212.2 25568.8 34275.9 C 25568.8 34345.1 25585.5 34383.9 25649.2 34552.9 L 25757.2 34843.8 "/>
<path transform="matrix(.00359712,0,0,-.00359712,0,227.66)" d="M 27123 34962.9 C 27236.5 34672 27369.5 34248.2 27413.8 34184.5 C 27458.2 34123.5 27485.9 34123.5 27560.6 34123.5 L 27621.6 34123.5 C 27649.3 34126.3 27652.1 34142.9 27652.1 34151.2 C 27652.1 34159.5 27646.5 34165.1 27638.2 34176.2 C 27610.5 34206.6 27593.9 34248.2 27574.5 34303.6 L 27009.4 35879.8 C 26951.2 36040.5 26801.6 36076.5 26671.4 36076.5 C 26657.6 36076.5 26621.5 36076.5 26621.5 36046 C 26621.5 36023.9 26643.7 36018.3 26646.5 36018.3 C 26737.9 36001.7 26757.3 35985.1 26826.5 35796.7 L 27095.3 35043.2 L 26330.7 34284.2 C 26297.4 34251 26280.8 34234.3 26280.8 34198.3 C 26280.8 34151.2 26319.6 34118 26363.9 34118 C 26408.3 34118 26433.2 34148.5 26455.3 34176.2 L 27123 34962.9 "/>
<path transform="matrix(.00359712,0,0,-.00359712,0,227.66)" d="M 29356.1 33215 C 29356.1 33226.1 29350.5 33231.7 29345 33240 C 29217.6 33375.7 29029.2 33600.1 28912.9 34051.7 C 28849.1 34303.7 28824.2 34589.1 28824.2 34846.7 C 28824.2 35575.3 28998.7 36085 29331.2 36445.1 C 29356.1 36470 29356.1 36475.6 29356.1 36481.1 C 29356.1 36508.8 29333.9 36508.8 29322.8 36508.8 C 29281.3 36508.8 29131.7 36342.6 29095.7 36301 C 28813.1 35965.8 28633.1 35467.2 28633.1 34849.5 C 28633.1 34456.1 28702.3 33899.3 29065.2 33431.1 C 29092.9 33397.9 29273 33187.4 29322.8 33187.4 C 29333.9 33187.4 29356.1 33187.4 29356.1 33215 "/>
<path transform="matrix(.00359712,0,0,-.00359712,0,227.66)" d="M 30213.3 35364.6 C 29867.1 35281.5 29598.3 34921.3 29598.3 34586.2 C 29598.3 34320.2 29775.6 34120.8 30036 34120.8 C 30360.2 34120.8 30590.1 34555.7 30590.1 34938 C 30590.1 35190 30479.3 35328.6 30385.1 35453.2 C 30285.4 35577.9 30121.9 35785.6 30121.9 35907.5 C 30121.9 35968.5 30177.3 36035 30274.3 36035 C 30357.4 36035 30412.8 35998.9 30471 35960.2 C 30526.4 35926.9 30581.8 35890.9 30623.3 35890.9 C 30692.6 35890.9 30734.1 35957.4 30734.1 36001.7 C 30734.1 36062.7 30689.8 36071 30590.1 36093.1 C 30446 36123.6 30407.3 36123.6 30362.9 36123.6 C 30146.8 36123.6 30047.1 36004.5 30047.1 35838.3 C 30047.1 35688.7 30127.5 35533.5 30213.3 35364.6 Z M 30246.6 35303.6 C 30315.8 35176.2 30398.9 35026.6 30398.9 34827.2 C 30398.9 34644.3 30293.7 34181.7 30036 34181.7 C 29883.7 34181.7 29770.1 34298 29770.1 34508.6 C 29770.1 34683.1 29872.6 35203.9 30246.6 35303.6 "/>
<path transform="matrix(.00359712,0,0,-.00359712,0,227.66)" d="M 31445.1 36509.7 C 31445.1 36540.7 31421.9 36583.4 31367.6 36583.4 C 31315.3 36583.4 31259 36533 31259 36476.7 C 31259 36443.8 31284.2 36403.1 31336.6 36403.1 C 31392.8 36403.1 31445.1 36457.3 31445.1 36509.7 Z M 31049.6 35524.8 C 31041.9 35499.6 31032.2 35476.4 31032.2 35443.4 C 31032.2 35352.3 31109.8 35278.6 31216.4 35278.6 C 31410.3 35278.6 31495.5 35546.2 31495.5 35575.2 C 31495.5 35600.4 31470.3 35600.4 31464.5 35600.4 C 31437.4 35600.4 31435.5 35588.8 31427.7 35567.5 C 31383.1 35412.4 31297.8 35332.9 31222.2 35332.9 C 31183.4 35332.9 31173.7 35358.1 31173.7 35400.8 C 31173.7 35445.3 31187.3 35482.2 31204.7 35524.8 C 31224.1 35577.2 31245.5 35629.5 31266.8 35679.9 C 31284.2 35726.5 31354 35902.9 31361.8 35926.1 C 31367.6 35945.5 31373.4 35968.8 31373.4 35988.2 C 31373.4 36079.3 31295.9 36153 31189.2 36153 C 30997.3 36153 30908.1 35889.3 30908.1 35856.3 C 30908.1 35831.1 30935.3 35831.1 30941.1 35831.1 C 30968.2 35831.1 30970.2 35840.8 30976 35862.2 C 31026.4 36028.9 31111.7 36098.7 31183.4 36098.7 C 31214.4 36098.7 31231.9 36083.2 31231.9 36030.8 C 31231.9 35986.2 31220.3 35957.2 31171.8 35837 L 31049.6 35524.8 "/>
<path transform="matrix(.00359712,0,0,-.00359712,0,227.66)" d="M 32452.1 36509.7 C 32452.1 36542.6 32426.9 36583.4 32374.5 36583.4 C 32318.3 36583.4 32266 36529.1 32266 36476.7 C 32266 36445.7 32289.2 36403.1 32343.5 36403.1 C 32395.9 36403.1 32452.1 36453.5 32452.1 36509.7 Z M 32041.1 35203 C 32008.1 35069.2 31905.4 34956.8 31791 34956.8 C 31765.8 34956.8 31742.5 34960.7 31721.2 34968.4 C 31771.6 34991.7 31787.1 35038.2 31787.1 35067.3 C 31787.1 35113.8 31750.3 35139 31711.5 35139 C 31651.4 35139 31601 35086.7 31601 35024.6 C 31601 34951 31676.6 34902.5 31792.9 34902.5 C 31909.3 34902.5 32136.1 34972.3 32196.2 35208.8 L 32370.7 35902.9 C 32376.5 35924.2 32380.4 35941.7 32380.4 35970.7 C 32380.4 36077.4 32289.2 36153 32172.9 36153 C 31957.7 36153 31833.6 35883.5 31833.6 35856.3 C 31833.6 35831.1 31860.8 35831.1 31866.6 35831.1 C 31889.9 35831.1 31891.8 35837 31905.4 35866 C 31953.8 35978.5 32054.7 36098.7 32167.1 36098.7 C 32215.6 36098.7 32233 36065.7 32233 36003.7 C 32233 35982.4 32229.1 35955.2 32227.2 35945.5 L 32041.1 35203 "/>
<path transform="matrix(.00359712,0,0,-.00359712,0,227.66)" d="M 33499.3 35364.6 C 33153.1 35281.5 32884.3 34921.3 32884.3 34586.2 C 32884.3 34320.2 33061.6 34120.8 33322 34120.8 C 33646.2 34120.8 33876.1 34555.7 33876.1 34938 C 33876.1 35190 33765.3 35328.6 33671.1 35453.2 C 33571.4 35577.9 33407.9 35785.6 33407.9 35907.5 C 33407.9 35968.5 33463.3 36035 33560.3 36035 C 33643.4 36035 33698.8 35998.9 33757 35960.2 C 33812.4 35926.9 33867.8 35890.9 33909.3 35890.9 C 33978.6 35890.9 34020.1 35957.4 34020.1 36001.7 C 34020.1 36062.7 33975.8 36071 33876.1 36093.1 C 33732 36123.6 33693.3 36123.6 33648.9 36123.6 C 33432.8 36123.6 33333.1 36004.5 33333.1 35838.3 C 33333.1 35688.7 33413.5 35533.5 33499.3 35364.6 Z M 33532.6 35303.6 C 33601.8 35176.2 33684.9 35026.6 33684.9 34827.2 C 33684.9 34644.3 33579.7 34181.7 33322 34181.7 C 33169.7 34181.7 33056.1 34298 33056.1 34508.6 C 33056.1 34683.1 33158.6 35203.9 33532.6 35303.6 "/>
<path transform="matrix(.00359712,0,0,-.00359712,0,227.66)" d="M 34710.8 36585.3 C 34712.8 36589.2 34718.6 36614.4 34718.6 36616.3 C 34718.6 36626 34710.8 36643.5 34687.5 36643.5 C 34648.8 36643.5 34487.9 36628 34439.4 36624.1 C 34423.9 36622.1 34396.8 36620.2 34396.8 36579.5 C 34396.8 36552.3 34423.9 36552.3 34447.2 36552.3 C 34540.2 36552.3 34540.2 36538.8 34540.2 36523.3 C 34540.2 36509.7 34536.3 36498.1 34532.5 36480.6 L 34259.1 35383.3 C 34249.4 35348.4 34249.4 35344.5 34249.4 35340.7 C 34249.4 35311.6 34272.7 35278.6 34315.3 35278.6 C 34367.7 35278.6 34392.9 35317.4 34404.5 35360 C 34408.4 35367.8 34491.7 35709 34499.5 35736.1 C 34637.1 35722.6 34747.7 35678 34747.7 35577.2 C 34747.7 35567.5 34747.7 35557.8 34743.8 35538.4 C 34736 35509.3 34736 35499.6 34736 35478.3 C 34736 35340.7 34848.5 35278.6 34941.5 35278.6 C 35129.6 35278.6 35187.7 35573.3 35187.7 35575.2 C 35187.7 35600.4 35162.5 35600.4 35156.7 35600.4 C 35129.6 35600.4 35127.6 35590.8 35117.9 35553.9 C 35094.7 35470.5 35042.3 35332.9 34947.3 35332.9 C 34895 35332.9 34879.5 35381.4 34879.5 35433.7 C 34879.5 35466.7 34879.5 35470.5 34891.1 35521 C 34893 35526.8 34900.8 35559.7 34900.8 35581 C 34900.8 35753.6 34668.2 35780.7 34586.7 35786.5 C 34643 35821.5 34714.7 35885.4 34747.7 35914.5 C 34846.5 36007.6 34943.5 36098.7 35052 36098.7 C 35075.3 36098.7 35100.5 36092.9 35116 36073.5 C 35032.6 36059.9 35015.2 35994 35015.2 35964.9 C 35015.2 35922.3 35048.1 35893.2 35092.7 35893.2 C 35145.1 35893.2 35203.3 35935.8 35203.3 36017.3 C 35203.3 36081.2 35156.7 36153 35054 36153 C 34943.5 36153 34842.6 36073.5 34743.8 35982.4 C 34662.3 35904.8 34598.4 35844.7 34518.9 35811.8 L 34710.8 36585.3 "/>
<path transform="matrix(.00359712,0,0,-.00359712,0,227.66)" d="M 35873.7 36585.3 C 35875.7 36589.2 35881.5 36614.4 35881.5 36616.3 C 35881.5 36626 35873.7 36643.5 35850.5 36643.5 C 35811.7 36643.5 35650.8 36628 35602.3 36624.1 C 35588.7 36622.1 35561.6 36620.2 35561.6 36579.5 C 35561.6 36552.3 35588.7 36552.3 35610 36552.3 C 35703.1 36552.3 35703.1 36538.8 35703.1 36523.3 C 35703.1 36509.7 35699.2 36498.1 35695.4 36480.6 L 35455 35522.9 C 35449.1 35503.5 35447.2 35482.2 35447.2 35462.8 C 35447.2 35338.7 35557.7 35278.6 35650.8 35278.6 C 35697.3 35278.6 35755.5 35294.1 35805.9 35381.4 C 35846.6 35453.1 35873.7 35567.5 35873.7 35575.2 C 35873.7 35600.4 35848.5 35600.4 35842.7 35600.4 C 35815.5 35600.4 35811.7 35588.8 35803.9 35553.9 C 35778.7 35457 35741.9 35332.9 35658.5 35332.9 C 35606.2 35332.9 35592.6 35381.4 35592.6 35427.9 C 35592.6 35449.2 35598.4 35486 35604.2 35507.4 L 35873.7 36585.3 "/>
<path transform="matrix(.00359712,0,0,-.00359712,0,227.66)" d="M 37927 34791.1 L 38699.9 34791.1 C 38738.7 34791.1 38791.3 34791.1 38791.3 34846.5 C 38791.3 34902 38738.7 34902 38699.9 34902 L 37927 34902 L 37927 35677.6 C 37927 35716.4 37927 35769 37871.6 35769 C 37816.2 35769 37816.2 35716.4 37816.2 35677.6 L 37816.2 34902 L 37040.5 34902 C 37001.8 34902 36949.1 34902 36949.1 34846.5 C 36949.1 34791.1 37001.8 34791.1 37040.5 34791.1 L 37816.2 34791.1 L 37816.2 34015.5 C 37816.2 33976.7 37816.2 33924.1 37871.6 33924.1 C 37927 33924.1 37927 33976.7 37927 34015.5 L 37927 34791.1 "/>
<path transform="matrix(.00359712,0,0,-.00359712,0,227.66)" d="M 40294.3 35364.6 C 39948.1 35281.5 39679.3 34921.3 39679.3 34586.2 C 39679.3 34320.2 39856.6 34120.8 40116.9977 34120.8 C 40441.2 34120.8 40671.1 34555.7 40671.1 34938 C 40671.1 35190 40560.3 35328.6 40466.1 35453.2 C 40366.4 35577.9 40202.9 35785.6 40202.9 35907.5 C 40202.9 35968.5 40258.3 36035 40355.3 36035 C 40438.4 36035 40493.8 35998.9 40552 35960.2 C 40607.4 35926.9 40662.8 35890.9 40704.3 35890.9 C 40773.6 35890.9 40815.1 35957.4 40815.1 36001.7 C 40815.1 36062.7 40770.8 36071 40671.1 36093.1 C 40527 36123.6 40488.3 36123.6 40443.9 36123.6 C 40227.8 36123.6 40128.1 36004.5 40128.1 35838.3 C 40128.1 35688.7 40208.5 35533.5 40294.3 35364.6 Z M 40327.6 35303.6 C 40396.8 35176.2 40479.9 35026.6 40479.9 34827.2 C 40479.9 34644.3 40374.7 34181.7 40116.9977 34181.7 C 39964.7 34181.7 39851.1 34298 39851.1 34508.6 C 39851.1 34683.1 39953.6 35203.9 40327.6 35303.6 "/>
<path transform="matrix(.00359712,0,0,-.00359712,0,227.66)" d="M 41527.1 36509.7 C 41527.1 36540.7 41503.9 36583.4 41449.6 36583.4 C 41397.3 36583.4 41341 36533 41341 36476.7 C 41341 36443.8 41366.2 36403.1 41418.6 36403.1 C 41474.8 36403.1 41527.1 36457.3 41527.1 36509.7 Z M 41131.6 35524.8 C 41123.9 35499.6 41114.2 35476.4 41114.2 35443.4 C 41114.2 35352.3 41191.8 35278.6 41298.4 35278.6 C 41492.3 35278.6 41577.5 35546.2 41577.5 35575.2 C 41577.5 35600.4 41552.3 35600.4 41546.5 35600.4 C 41519.4 35600.4 41517.5 35588.8 41509.7 35567.5 C 41465.1 35412.4 41379.8 35332.9 41304.2 35332.9 C 41265.4 35332.9 41255.7 35358.1 41255.7 35400.8 C 41255.7 35445.3 41269.3 35482.2 41286.7 35524.8 C 41306.1 35577.2 41327.5 35629.5 41348.8 35679.9 C 41366.2 35726.5 41436 35902.9 41443.8 35926.1 C 41449.6 35945.5 41455.4 35968.8 41455.4 35988.2 C 41455.4 36079.3 41377.9 36153 41271.2 36153 C 41079.3 36153 40990.1 35889.3 40990.1 35856.3 C 40990.1 35831.1 41017.3 35831.1 41023.1 35831.1 C 41050.2 35831.1 41052.2 35840.8 41057.9977 35862.2 C 41108.4 36028.9 41193.7 36098.7 41265.4 36098.7 C 41296.4 36098.7 41313.9 36083.2 41313.9 36030.8 C 41313.9 35986.2 41302.3 35957.2 41253.8 35837 L 41131.6 35524.8 "/>
<path transform="matrix(.00359712,0,0,-.00359712,0,227.66)" d="M 42228.7 36585.3 C 42230.7 36589.2 42236.5 36614.4 42236.5 36616.3 C 42236.5 36626 42228.7 36643.5 42205.5 36643.5 C 42166.7 36643.5 42005.8 36628 41957.3 36624.1 C 41943.7 36622.1 41916.6 36620.2 41916.6 36579.5 C 41916.6 36552.3 41943.7 36552.3 41965 36552.3 C 42058.1 36552.3 42058.1 36538.8 42058.1 36523.3 C 42058.1 36509.7 42054.2 36498.1 42050.4 36480.6 L 41810 35522.9 C 41804.1 35503.5 41802.2 35482.2 41802.2 35462.8 C 41802.2 35338.7 41912.7 35278.6 42005.8 35278.6 C 42052.3 35278.6 42110.5 35294.1 42160.9 35381.4 C 42201.6 35453.1 42228.7 35567.5 42228.7 35575.2 C 42228.7 35600.4 42203.5 35600.4 42197.7 35600.4 C 42170.5 35600.4 42166.7 35588.8 42158.9 35553.9 C 42133.7 35457 42096.9 35332.9 42013.5 35332.9 C 41961.2 35332.9 41947.6 35381.4 41947.6 35427.9 C 41947.6 35449.2 41953.4 35486 41959.2 35507.4 L 42228.7 36585.3 "/>
<path transform="matrix(.00359712,0,0,-.00359712,0,227.66)" d="M 43264.3 35364.6 C 42918.1 35281.5 42649.3 34921.3 42649.3 34586.2 C 42649.3 34320.2 42826.6 34120.8 43087 34120.8 C 43411.2 34120.8 43641.1 34555.7 43641.1 34938 C 43641.1 35190 43530.3 35328.6 43436.1 35453.2 C 43336.4 35577.9 43172.9 35785.6 43172.9 35907.5 C 43172.9 35968.5 43228.3 36035 43325.3 36035 C 43408.4 36035 43463.8 35998.9 43522 35960.2 C 43577.4 35926.9 43632.8 35890.9 43674.3 35890.9 C 43743.6 35890.9 43785.1 35957.4 43785.1 36001.7 C 43785.1 36062.7 43740.8 36071 43641.1 36093.1 C 43497 36123.6 43458.3 36123.6 43413.9 36123.6 C 43197.8 36123.6 43098.1 36004.5 43098.1 35838.3 C 43098.1 35688.7 43178.5 35533.5 43264.3 35364.6 Z M 43297.6 35303.6 C 43366.8 35176.2 43449.9 35026.6 43449.9 34827.2 C 43449.9 34644.3 43344.7 34181.7 43087 34181.7 C 42934.7 34181.7 42821.1 34298 42821.1 34508.6 C 42821.1 34683.1 42923.6 35203.9 43297.6 35303.6 "/>
<path transform="matrix(.00359712,0,0,-.00359712,0,227.66)" d="M 44719.1 36509.7 C 44719.1 36542.6 44693.9 36583.4 44641.5 36583.4 C 44585.3 36583.4 44533 36529.1 44533 36476.7 C 44533 36445.7 44556.2 36403.1 44610.5 36403.1 C 44662.9 36403.1 44719.1 36453.5 44719.1 36509.7 Z M 44308.1 35203 C 44275.1 35069.2 44172.4 34956.8 44058 34956.8 C 44032.8 34956.8 44009.5 34960.7 43988.2 34968.4 C 44038.6 34991.7 44054.1 35038.2 44054.1 35067.3 C 44054.1 35113.8 44017.3 35139 43978.5 35139 C 43918.4 35139 43868 35086.7 43868 35024.6 C 43868 34951 43943.6 34902.5 44059.9 34902.5 C 44176.3 34902.5 44403.1 34972.3 44463.1968 35208.8 L 44637.7 35902.9 C 44643.5 35924.2 44647.4 35941.7 44647.4 35970.7 C 44647.4 36077.4 44556.2 36153 44439.9 36153 C 44224.7 36153 44100.6 35883.5 44100.6 35856.3 C 44100.6 35831.1 44127.8 35831.1 44133.6 35831.1 C 44156.9 35831.1 44158.8 35837 44172.4 35866 C 44220.8 35978.5 44321.7 36098.7 44434.1 36098.7 C 44482.6 36098.7 44500 36065.7 44500 36003.7 C 44500 35982.4 44496.1 35955.2 44494.2 35945.5 L 44308.1 35203 "/>
<path transform="matrix(.00359712,0,0,-.00359712,0,227.66)" d="M 45500.8 36585.3 C 45502.8 36589.2 45508.6 36614.4 45508.6 36616.3 C 45508.6 36626 45500.8 36643.5 45477.5 36643.5 C 45438.8 36643.5 45277.9 36628 45229.4 36624.1 C 45213.9 36622.1 45186.8 36620.2 45186.8 36579.5 C 45186.8 36552.3 45213.9 36552.3 45237.2 36552.3 C 45330.2 36552.3 45330.2 36538.8 45330.2 36523.3 C 45330.2 36509.7 45326.3 36498.1 45322.5 36480.6 L 45049.1 35383.3 C 45039.4 35348.4 45039.4 35344.5 45039.4 35340.7 C 45039.4 35311.6 45062.7 35278.6 45105.3 35278.6 C 45157.7 35278.6 45182.9 35317.4 45194.5 35360 C 45198.4 35367.8 45281.7 35709 45289.5 35736.1 C 45427.1 35722.6 45537.6968 35678 45537.6968 35577.2 C 45537.6968 35567.5 45537.6968 35557.8 45533.8 35538.4 C 45526 35509.3 45526 35499.6 45526 35478.3 C 45526 35340.7 45638.5 35278.6 45731.4978 35278.6 C 45919.6 35278.6 45977.7 35573.3 45977.7 35575.2 C 45977.7 35600.4 45952.4975 35600.4 45946.7 35600.4 C 45919.6 35600.4 45917.6 35590.8 45907.9 35553.9 C 45884.7 35470.5 45832.3 35332.9 45737.3 35332.9 C 45685 35332.9 45669.5 35381.4 45669.5 35433.7 C 45669.5 35466.7 45669.5 35470.5 45681.1 35521 C 45683 35526.8 45690.8 35559.7 45690.8 35581 C 45690.8 35753.6 45458.2 35780.7 45376.7 35786.5 C 45432.9977 35821.5 45504.7 35885.4 45537.6968 35914.5 C 45636.4975 36007.6 45733.5 36098.7 45842 36098.7 C 45865.3 36098.7 45890.5 36092.9 45906 36073.5 C 45822.6 36059.9 45805.2 35994 45805.2 35964.9 C 45805.2 35922.3 45838.1 35893.2 45882.7 35893.2 C 45935.1 35893.2 45993.3 35935.8 45993.3 36017.3 C 45993.3 36081.2 45946.7 36153 45844 36153 C 45733.5 36153 45632.6 36073.5 45533.8 35982.4 C 45452.3 35904.8 45388.4 35844.7 45308.9 35811.8 L 45500.8 36585.3 "/>
<path transform="matrix(.00359712,0,0,-.00359712,0,227.66)" d="M 48008 34791.1 L 48780.9 34791.1 C 48819.7 34791.1 48872.3 34791.1 48872.3 34846.5 C 48872.3 34902 48819.7 34902 48780.9 34902 L 48008 34902 L 48008 35677.6 C 48008 35716.4 48008 35769 47952.6 35769 C 47897.1968 35769 47897.1968 35716.4 47897.1968 35677.6 L 47897.1968 34902 L 47121.5 34902 C 47082.8 34902 47030.1 34902 47030.1 34846.5 C 47030.1 34791.1 47082.8 34791.1 47121.5 34791.1 L 47897.1968 34791.1 L 47897.1968 34015.5 C 47897.1968 33976.7 47897.1968 33924.1 47952.6 33924.1 C 48008 33924.1 48008 33976.7 48008 34015.5 L 48008 34791.1 "/>
<path transform="matrix(.00359712,0,0,-.00359712,0,227.66)" d="M 50376.3 35364.6 C 50030.1 35281.5 49761.3 34921.3 49761.3 34586.2 C 49761.3 34320.2 49938.6 34120.8 50199 34120.8 C 50523.2 34120.8 50753.1 34555.7 50753.1 34938 C 50753.1 35190 50642.3 35328.6 50548.1 35453.2 C 50448.4 35577.9 50284.9 35785.6 50284.9 35907.5 C 50284.9 35968.5 50340.3 36035 50437.3 36035 C 50520.4 36035 50575.8 35998.9 50634 35960.2 C 50689.4 35926.9 50744.8 35890.9 50786.3 35890.9 C 50855.6 35890.9 50897.1 35957.4 50897.1 36001.7 C 50897.1 36062.7 50852.8 36071 50753.1 36093.1 C 50609 36123.6 50570.3 36123.6 50525.9 36123.6 C 50309.8 36123.6 50210.1 36004.5 50210.1 35838.3 C 50210.1 35688.7 50290.5 35533.5 50376.3 35364.6 Z M 50409.6 35303.6 C 50478.8 35176.2 50561.9 35026.6 50561.9 34827.2 C 50561.9 34644.3 50456.7 34181.7 50199 34181.7 C 50046.7 34181.7 49933.1 34298 49933.1 34508.6 C 49933.1 34683.1 50035.6 35203.9 50409.6 35303.6 "/>
<path transform="matrix(.00359712,0,0,-.00359712,0,227.66)" d="M 51608.1 36509.7 C 51608.1 36540.7 51584.9 36583.4 51530.6 36583.4 C 51478.3 36583.4 51422 36533 51422 36476.7 C 51422 36443.8 51447.2 36403.1 51499.6 36403.1 C 51555.8 36403.1 51608.1 36457.3 51608.1 36509.7 Z M 51212.6 35524.8 C 51204.9 35499.6 51195.2 35476.4 51195.2 35443.4 C 51195.2 35352.3 51272.8 35278.6 51379.4 35278.6 C 51573.3 35278.6 51658.4978 35546.2 51658.4978 35575.2 C 51658.4978 35600.4 51633.3 35600.4 51627.5 35600.4 C 51600.4 35600.4 51598.4974 35588.8 51590.7 35567.5 C 51546.1 35412.4 51460.8 35332.9 51385.2 35332.9 C 51346.4 35332.9 51336.7 35358.1 51336.7 35400.8 C 51336.7 35445.3 51350.3 35482.2 51367.7 35524.8 C 51387.1 35577.2 51408.5 35629.5 51429.8 35679.9 C 51447.2 35726.5 51517 35902.9 51524.8 35926.1 C 51530.6 35945.5 51536.4 35968.8 51536.4 35988.2 C 51536.4 36079.3 51458.9 36153 51352.1967 36153 C 51160.3 36153 51071.1 35889.3 51071.1 35856.3 C 51071.1 35831.1 51098.3 35831.1 51104.1 35831.1 C 51131.2 35831.1 51133.2 35840.8 51139 35862.2 C 51189.4 36028.9 51274.7 36098.7 51346.4 36098.7 C 51377.4 36098.7 51394.9 36083.2 51394.9 36030.8 C 51394.9 35986.2 51383.3 35957.2 51334.8 35837 L 51212.6 35524.8 "/>
<path transform="matrix(.00359712,0,0,-.00359712,0,227.66)" d="M 52370.8 36585.3 C 52372.8 36589.2 52378.6 36614.4 52378.6 36616.3 C 52378.6 36626 52370.8 36643.5 52347.5 36643.5 C 52308.8 36643.5 52147.9 36628 52099.3957 36624.1 C 52083.9 36622.1 52056.8 36620.2 52056.8 36579.5 C 52056.8 36552.3 52083.9 36552.3 52107.1968 36552.3 C 52200.2 36552.3 52200.2 36538.8 52200.2 36523.3 C 52200.2 36509.7 52196.3 36498.1 52192.5 36480.6 L 51919.1 35383.3 C 51909.4 35348.4 51909.4 35344.5 51909.4 35340.7 C 51909.4 35311.6 51932.7 35278.6 51975.3 35278.6 C 52027.7 35278.6 52052.9 35317.4 52064.5 35360 C 52068.4 35367.8 52151.7 35709 52159.5 35736.1 C 52297.1 35722.6 52407.7 35678 52407.7 35577.2 C 52407.7 35567.5 52407.7 35557.8 52403.8 35538.4 C 52396 35509.3 52396 35499.6 52396 35478.3 C 52396 35340.7 52508.5 35278.6 52601.5 35278.6 C 52789.6 35278.6 52847.7 35573.3 52847.7 35575.2 C 52847.7 35600.4 52822.5 35600.4 52816.7 35600.4 C 52789.6 35600.4 52787.6 35590.8 52777.9 35553.9 C 52754.7 35470.5 52702.3 35332.9 52607.3 35332.9 C 52555 35332.9 52539.4974 35381.4 52539.4974 35433.7 C 52539.4974 35466.7 52539.4974 35470.5 52551.0988 35521 C 52553 35526.8 52560.8 35559.7 52560.8 35581 C 52560.8 35753.6 52328.1965 35780.7 52246.7 35786.5 C 52303 35821.5 52374.7 35885.4 52407.7 35914.5 C 52506.5 36007.6 52603.5 36098.7 52712 36098.7 C 52735.3 36098.7 52760.5 36092.9 52776 36073.5 C 52692.6 36059.9 52675.2 35994 52675.2 35964.9 C 52675.2 35922.3 52708.1 35893.2 52752.7 35893.2 C 52805.1 35893.2 52863.3 35935.8 52863.3 36017.3 C 52863.3 36081.2 52816.7 36153 52714 36153 C 52603.5 36153 52502.6 36073.5 52403.8 35982.4 C 52322.3 35904.8 52258.4 35844.7 52178.9 35811.8 L 52370.8 36585.3 "/>
<path transform="matrix(.00359712,0,0,-.00359712,0,227.66)" d="M 53858.3 35364.6 C 53512.1 35281.5 53243.3 34921.3 53243.3 34586.2 C 53243.3 34320.2 53420.6 34120.8 53680.9978 34120.8 C 54005.2 34120.8 54235.1 34555.7 54235.1 34938 C 54235.1 35190 54124.3 35328.6 54030.1 35453.2 C 53930.4 35577.9 53766.9 35785.6 53766.9 35907.5 C 53766.9 35968.5 53822.3 36035 53919.3 36035 C 54002.4 36035 54057.8 35998.9 54115.9973 35960.2 C 54171.4 35926.9 54226.8 35890.9 54268.3 35890.9 C 54337.6 35890.9 54379.1 35957.4 54379.1 36001.7 C 54379.1 36062.7 54334.8 36071 54235.1 36093.1 C 54091 36123.6 54052.3 36123.6 54007.9 36123.6 C 53791.8 36123.6 53692.1 36004.5 53692.1 35838.3 C 53692.1 35688.7 53772.5 35533.5 53858.3 35364.6 Z M 53891.6 35303.6 C 53960.8 35176.2 54043.9 35026.6 54043.9 34827.2 C 54043.9 34644.3 53938.7 34181.7 53680.9978 34181.7 C 53528.7 34181.7 53415.1 34298 53415.1 34508.6 C 53415.1 34683.1 53517.6 35203.9 53891.6 35303.6 "/>
<path transform="matrix(.00359712,0,0,-.00359712,0,227.66)" d="M 55313.1 36509.7 C 55313.1 36542.6 55287.9 36583.4 55235.5 36583.4 C 55179.3 36583.4 55127 36529.1 55127 36476.7 C 55127 36445.7 55150.2 36403.1 55204.4973 36403.1 C 55256.9 36403.1 55313.1 36453.5 55313.1 36509.7 Z M 54902.1 35203 C 54869.1 35069.2 54766.4 34956.8 54652 34956.8 C 54626.8 34956.8 54603.5 34960.7 54582.2 34968.4 C 54632.6 34991.7 54648.1 35038.2 54648.1 35067.3 C 54648.1 35113.8 54611.3 35139 54572.4974 35139 C 54512.4 35139 54462 35086.7 54462 35024.6 C 54462 34951 54537.6 34902.5 54653.9 34902.5 C 54770.3 34902.5 54997.1 34972.3 55057.2 35208.8 L 55231.7 35902.9 C 55237.5 35924.2 55241.4 35941.7 55241.4 35970.7 C 55241.4 36077.4 55150.2 36153 55033.9 36153 C 54818.7 36153 54694.6 35883.5 54694.6 35856.3 C 54694.6 35831.1 54721.8 35831.1 54727.6 35831.1 C 54750.9 35831.1 54752.8 35837 54766.4 35866 C 54814.8 35978.5 54915.7 36098.7 55028.1 36098.7 C 55076.6 36098.7 55094 36065.7 55094 36003.7 C 55094 35982.4 55090.1 35955.2 55088.1968 35945.5 L 54902.1 35203 "/>
<path transform="matrix(.00359712,0,0,-.00359712,0,227.66)" d="M 56034.7 36585.3 C 56036.7 36589.2 56042.5 36614.4 56042.5 36616.3 C 56042.5 36626 56034.7 36643.5 56011.5 36643.5 C 55972.7 36643.5 55811.8 36628 55763.3 36624.1 C 55749.7 36622.1 55722.6 36620.2 55722.6 36579.5 C 55722.6 36552.3 55749.7 36552.3 55771 36552.3 C 55864.1 36552.3 55864.1 36538.8 55864.1 36523.3 C 55864.1 36509.7 55860.2 36498.1 55856.3957 36480.6 L 55616 35522.9 C 55610.1 35503.5 55608.2 35482.2 55608.2 35462.8 C 55608.2 35338.7 55718.7 35278.6 55811.8 35278.6 C 55858.3 35278.6 55916.5 35294.1 55966.9 35381.4 C 56007.6 35453.1 56034.7 35567.5 56034.7 35575.2 C 56034.7 35600.4 56009.5 35600.4 56003.7 35600.4 C 55976.5 35600.4 55972.7 35588.8 55964.9 35553.9 C 55939.7 35457 55902.9 35332.9 55819.5 35332.9 C 55767.2 35332.9 55753.6 35381.4 55753.6 35427.9 C 55753.6 35449.2 55759.4 35486 55765.2 35507.4 L 56034.7 36585.3 "/>
<path transform="matrix(.00359712,0,0,-.00359712,0,227.66)" d="M 57185.9 34846.7 C 57185.9 35240.1 57116.7 35796.9 56753.8 36265 C 56726.1 36298.3 56545.9976 36508.8 56496.1 36508.8 C 56482.3 36508.8 56462.9 36503.3 56462.9 36481.1 C 56462.9 36470 56468.4 36461.7 56479.5 36453.4 C 56612.4973 36309.4 56792.5 36085 56906.1 35644.5 C 56969.8 35392.4 56994.8 35107.1 56994.8 34849.5 C 56994.8 34569.7 56969.8 34287.1 56897.8 34015.6 C 56792.5 33627.8 56629.1 33406.2 56487.8 33251.1 C 56462.9 33226.1 56462.9 33220.6 56462.9 33215 C 56462.9 33192.9 56482.3 33187.4 56496.1 33187.4 C 56537.7 33187.4 56689.9977 33356.3 56723.3 33395.1 C 57005.8 33730.3 57185.9 34228.9 57185.9 34846.7 "/>
<path transform="matrix(.00359712,0,0,-.00359712,0,227.66)" d="M 8890.2 20855 C 8890.2 21072.6 8713.79079 21249 8496.18043 21249 C 8278.57102 21249 8102.16 21072.6 8102.16 20855 C 8102.16 20637.4 8278.57102 20461 8496.18043 20461 C 8713.79079 20461 8890.2 20637.4 8890.2 20855 Z M 8496.18043 20855 "/>
<path transform="matrix(.00359712,0,0,-.00359712,0,227.66)" stroke-width="110.783" stroke-linecap="butt" stroke-miterlimit="10" stroke-linejoin="miter" fill="none" stroke="rgb(0,0,0)" d="M 8890.2 20855 C 8890.2 21072.6 8713.79079 21249 8496.18043 21249 C 8278.57102 21249 8102.16 21072.6 8102.16 20855 C 8102.16 20637.4 8278.57102 20461 8496.18043 20461 C 8713.79079 20461 8890.2 20637.4 8890.2 20855 Z M 8496.18043 20855 "/>
<path transform="matrix(.00359712,0,0,-.00359712,0,227.66)" stroke-width="637.012" stroke-linecap="butt" stroke-miterlimit="10" stroke-linejoin="miter" fill="none" stroke="rgb(0,0,0)" d="M 615.77 20855 L 8102.16 20855 "/>
<path transform="matrix(.00359712,0,0,-.00359712,0,227.66)" stroke-width="415.449" stroke-linecap="butt" stroke-miterlimit="10" stroke-linejoin="miter" fill="none" stroke="rgb(255,255,255)" d="M 615.77 20855 L 8102.16 20855 "/>
<path transform="matrix(.00359712,0,0,-.00359712,0,227.66)" d="M 16826.8 21942.4 C 16826.8 21995 16788 22042.1 16721.5 22042.1 C 16657.8 22042.1 16574.7 21978.4 16574.7 21895.3 C 16574.7 21839.9 16613.5 21795.5 16677.2 21795.5 C 16752 21795.5 16826.8 21867.6 16826.8 21942.4 Z M 16270 20072.5 C 16217.3 19862 16084.4 19704.1 15929.2 19704.1 C 15912.6 19704.1 15871 19704.1 15821.2 19729 C 15904.3 19748.4 15945.8 19820.4 15945.8 19875.8 C 15945.8 19920.1 15915.4 19972.8 15840.6 19972.8 C 15771.3 19972.8 15691 19914.6 15691 19814.9 C 15691 19704.1 15801.8 19643.1 15934.8 19643.1 C 16128.7 19643.1 16386.3 19789.9 16455.6 20064.2 L 16710.4 21078.1 C 16724.3 21133.5 16724.3 21172.3 16724.3 21180.6 C 16724.3 21338.5 16607.9 21435.4 16469.4 21435.4 C 16186.8 21435.4 16029 21033.8 16029 21008.8 C 16029 20981.1 16056.7 20981.1 16062.2 20981.1 C 16087.1 20981.1 16089.9 20983.9 16112.1 21036.5 C 16181.3 21205.5 16308.7 21374.5 16461.1 21374.5 C 16499.9 21374.5 16549.8 21363.4 16549.8 21247 C 16549.8 21183.3 16541.4 21152.9 16530.4 21105.8 L 16270 20072.5 "/>
<path transform="matrix(.00359712,0,0,-.00359712,0,227.66)" stroke-width="110.783" stroke-linecap="butt" stroke-miterlimit="10" stroke-linejoin="miter" fill="none" stroke="rgb(0,0,0)" d="M 8890.2 20855 L 14748.5 20855 "/>
<path transform="matrix(.00359712,0,0,-.00359712,0,227.66)" stroke-width="637.012" stroke-linecap="butt" stroke-miterlimit="10" stroke-linejoin="miter" fill="none" stroke="rgb(0,0,0)" d="M 615.77 12974.6 L 8217.57 20576.4 "/>
<path transform="matrix(.00359712,0,0,-.00359712,0,227.66)" stroke-width="415.449" stroke-linecap="butt" stroke-miterlimit="10" stroke-linejoin="miter" fill="none" stroke="rgb(255,255,255)" d="M 615.77 12974.6 L 8217.57 20576.4 "/>
<path transform="matrix(.00359712,0,0,-.00359712,0,227.66)" d="M 8805.73 13792.4 C 8805.73 13847.8 8766.95 13892.1 8703.23 13892.1 C 8628.44 13892.1 8553.64026 13820.1 8553.64026 13745.3 C 8553.64026 13692.6 8592.42 13645.5 8658.91 13645.5 C 8722.63 13645.5 8805.73 13709.3 8805.73 13792.4 Z M 8595.2 12750.8 C 8628.44 12831.1 8628.44 12836.7 8656.14022 12911.5 C 8678.31029 12966.8 8692.16 13005.6 8692.16 13058.3 C 8692.16 13182.9 8603.52029 13285.4 8465 13285.4 C 8204.61 13285.4 8099.33 12883.8 8099.33 12858.8 C 8099.33 12831.1 8127.03027 12831.1 8132.58065 12831.1 C 8160.28012 12831.1 8163.05055 12836.7 8176.91 12881 C 8251.7 13141.4 8362.5 13224.5 8456.69 13224.5 C 8478.84 13224.5 8525.94 13224.5 8525.94 13135.8 C 8525.94 13077.7 8506.55 13019.5 8495.47 12991.8 C 8473.31 12919.8 8348.66 12598.4 8304.33072 12479.3 C 8276.63 12407.3 8240.61097 12315.9 8240.61097 12257.7 C 8240.61097 12127.5 8334.8 12030.5 8467.77 12030.5 C 8728.17 12030.5 8830.67 12432.2 8830.67 12457.1 C 8830.67 12484.8 8805.73 12484.8 8797.42 12484.8 C 8769.72 12484.8 8769.72 12476.5 8755.88 12435 C 8706 12260.5 8614.59054 12091.5 8473.31 12091.5 C 8426.22 12091.5 8406.83068 12119.2 8406.83068 12182.9 C 8406.83068 12252.1 8423.45 12290.9 8487.16 12459.9 L 8595.2 12750.8 "/>
<path transform="matrix(.00359712,0,0,-.00359712,0,227.66)" stroke-width="110.783" stroke-linecap="butt" stroke-miterlimit="10" stroke-linejoin="miter" fill="none" stroke="rgb(0,0,0)" d="M 8496.18043 20461 L 8496.18043 14866.4 "/>
<path transform="matrix(.00359712,0,0,-.00359712,0,227.66)" d="M 20622.1 21760.8 C 20663.7 21760.8 20716.3 21760.8 20716.3 21816.3 C 20716.3 21871.7 20663.7 21871.7 20624.9 21871.7 L 18965.5 21871.7 C 18926.8 21871.7 18874.1 21871.7 18874.1 21816.3 C 18874.1 21760.8 18926.8 21760.8 18968.3 21760.8 L 20622.1 21760.8 Z M 20624.9 21223.4 C 20663.7 21223.4 20716.3 21223.4 20716.3 21278.8 C 20716.3 21334.3 20663.7 21334.3 20622.1 21334.3 L 18968.3 21334.3 C 18926.8 21334.3 18874.1 21334.3 18874.1 21278.8 C 18874.1 21223.4 18926.8 21223.4 18965.5 21223.4 L 20624.9 21223.4 "/>
<path transform="matrix(.00359712,0,0,-.00359712,0,227.66)" d="M 23467.5 21492.1 C 23514.6 21492.1 23564.5 21492.1 23564.5 21547.5 C 23564.5 21603 23514.6 21603 23467.5 21603 L 21968.9 21603 C 21921.8 21603 21871.9 21603 21871.9 21547.5 C 21871.9 21492.1 21921.8 21492.1 21968.9 21492.1 L 23467.5 21492.1 "/>
<path transform="matrix(.00359712,0,0,-.00359712,0,227.66)" d="M 24147.8 21068.3 L 24441.5 21353.6 C 24873.6 21735.9 25039.8 21885.5 25039.8 22162.5 C 25039.8 22478.3 24790.5 22699.9 24452.5 22699.9 C 24139.5 22699.9 23934.5 22445.1 23934.5 22198.5 C 23934.5 22043.4 24073 22043.4 24081.3 22043.4 C 24128.4 22043.4 24225.4 22076.7 24225.4 22190.2 C 24225.4 22262.3 24175.5 22334.3 24078.6 22334.3 C 24056.4 22334.3 24050.9 22334.3 24042.5 22331.5 C 24106.3 22511.6 24255.8 22614.1 24416.5 22614.1 C 24668.6 22614.1 24787.7 22389.7 24787.7 22162.5 C 24787.7 21940.9 24649.2 21722.1 24496.9 21550.3 L 23965 20957.5 C 23934.5 20927 23934.5 20921.5 23934.5 20855 L 24962.3 20855 L 25039.8 21337 L 24970.6 21337 C 24956.7 21253.9 24937.3 21132 24909.6 21090.5 C 24890.2 21068.3 24707.4 21068.3 24646.5 21068.3 L 24147.8 21068.3 "/>
<path transform="matrix(.00359712,0,0,-.00359712,0,227.66)" d="M 25967.7 22586.4 C 25967.7 22641.8 25929 22686.1 25865.2 22686.1 C 25790.4 22686.1 25715.6 22614.1 25715.6 22539.3 C 25715.6 22486.6 25754.4 22439.5 25820.9 22439.5 C 25884.6 22439.5 25967.7 22503.3 25967.7 22586.4 Z M 25757.2 21544.8 C 25790.4 21625.1 25790.4 21630.7 25818.1 21705.5 C 25840.3 21760.8 25854.2 21799.6 25854.2 21852.3 C 25854.2 21976.9 25765.5 22079.4 25627 22079.4 C 25366.6 22079.4 25261.3 21677.8 25261.3 21652.8 C 25261.3 21625.1 25289 21625.1 25294.6 21625.1 C 25322.3 21625.1 25325 21630.7 25338.9 21675 C 25413.7 21935.4 25524.5 22018.5 25618.7 22018.5 C 25640.8 22018.5 25687.9 22018.5 25687.9 21929.8 C 25687.9 21871.7 25668.5 21813.5 25657.5 21785.8 C 25635.3 21713.8 25510.7 21392.4 25466.3 21273.3 C 25438.6 21201.3 25402.6 21109.9 25402.6 21051.7 C 25402.6 20921.5 25496.8 20824.5 25629.8 20824.5 C 25890.2 20824.5 25992.7 21226.2 25992.7 21251.1 C 25992.7 21278.8 25967.7 21278.8 25959.4 21278.8 C 25931.7 21278.8 25931.7 21270.5 25917.9 21229 C 25868 21054.5 25776.6 20885.5 25635.3 20885.5 C 25588.2 20885.5 25568.8 20913.2 25568.8 20976.9 C 25568.8 21046.1 25585.5 21084.9 25649.2 21253.9 L 25757.2 21544.8 "/>
<path transform="matrix(.00359712,0,0,-.00359712,0,227.66)" d="M 27123 21663.9 C 27236.5 21373 27369.5 20949.2 27413.8 20885.5 C 27458.2 20824.5 27485.9 20824.5 27560.6 20824.5 L 27621.6 20824.5 C 27649.3 20827.3 27652.1 20843.9 27652.1 20852.2 C 27652.1 20860.5 27646.5 20866.1 27638.2 20877.2 C 27610.5 20907.6 27593.9 20949.2 27574.5 21004.6 L 27009.4 22580.8 C 26951.2 22741.5 26801.6 22777.5 26671.4 22777.5 C 26657.6 22777.5 26621.5 22777.5 26621.5 22747 C 26621.5 22724.9 26643.7 22719.3 26646.5 22719.3 C 26737.9 22702.7 26757.3 22686.1 26826.5 22497.7 L 27095.3 21744.2 L 26330.7 20985.2 C 26297.4 20952 26280.8 20935.3 26280.8 20899.3 C 26280.8 20852.2 26319.6 20819 26363.9 20819 C 26408.3 20819 26433.2 20849.5 26455.3 20877.2 L 27123 21663.9 "/>
<path transform="matrix(.00359712,0,0,-.00359712,0,227.66)" d="M 28479.3 22065.6 C 28133.1 21982.5 27864.3 21622.3 27864.3 21287.2 C 27864.3 21021.2 28041.6 20821.8 28302 20821.8 C 28626.2 20821.8 28856.1 21256.7 28856.1 21639 C 28856.1 21891 28745.3 22029.6 28651.1 22154.2 C 28551.4 22278.9 28387.9 22486.6 28387.9 22608.5 C 28387.9 22669.5 28443.3 22736 28540.3 22736 C 28623.4 22736 28678.8 22699.9 28737 22661.2 C 28792.4 22627.9 28847.8 22591.9 28889.3 22591.9 C 28958.6 22591.9 29000.1 22658.4 29000.1 22702.7 C 29000.1 22763.7 28955.8 22772 28856.1 22794.1 C 28712 22824.6 28673.3 22824.6 28628.9 22824.6 C 28412.8 22824.6 28313.1 22705.5 28313.1 22539.3 C 28313.1 22389.7 28393.5 22234.5 28479.3 22065.6 Z M 28512.6 22004.6 C 28581.8 21877.2 28664.9 21727.6 28664.9 21528.2 C 28664.9 21345.3 28559.7 20882.7 28302 20882.7 C 28149.7 20882.7 28036.1 20999 28036.1 21209.6 C 28036.1 21384.1 28138.6 21904.9 28512.6 22004.6 "/>
<path transform="matrix(.00359712,0,0,-.00359712,0,227.66)" d="M 29715.1 23210.7 C 29715.1 23241.7 29691.9 23284.4 29637.6 23284.4 C 29585.3 23284.4 29529 23234 29529 23177.7 C 29529 23144.8 29554.2 23104.1 29606.6 23104.1 C 29662.8 23104.1 29715.1 23158.3 29715.1 23210.7 Z M 29319.6 22225.8 C 29311.9 22200.6 29302.2 22177.4 29302.2 22144.4 C 29302.2 22053.3 29379.8 21979.6 29486.4 21979.6 C 29680.3 21979.6 29765.5 22247.2 29765.5 22276.2 C 29765.5 22301.4 29740.3 22301.4 29734.5 22301.4 C 29707.4 22301.4 29705.4987 22289.8 29697.7 22268.5 C 29653.1 22113.4 29567.8 22033.9 29492.2 22033.9 C 29453.4 22033.9 29443.7 22059.1 29443.7 22101.8 C 29443.7 22146.3 29457.3 22183.2 29474.7 22225.8 C 29494.1 22278.2 29515.5 22330.5 29536.8 22380.9 C 29554.2 22427.5 29624 22603.9 29631.8 22627.1 C 29637.6 22646.5 29643.4 22669.8 29643.4 22689.2 C 29643.4 22780.3 29565.9 22854 29459.2 22854 C 29267.3 22854 29178.1 22590.3 29178.1 22557.3 C 29178.1 22532.1 29205.3 22532.1 29211.1 22532.1 C 29238.2 22532.1 29240.2 22541.8 29246 22563.2 C 29296.4 22729.9 29381.7 22799.7 29453.4 22799.7 C 29484.4 22799.7 29501.9 22784.2 29501.9 22731.8 C 29501.9 22687.2 29490.3 22658.2 29441.8 22538 L 29319.6 22225.8 "/>
<path transform="matrix(.00359712,0,0,-.00359712,0,227.66)" d="M 30721.1 23210.7 C 30721.1 23243.6 30695.9 23284.4 30643.5 23284.4 C 30587.3 23284.4 30535 23230.1 30535 23177.7 C 30535 23146.7 30558.2 23104.1 30612.5 23104.1 C 30664.9 23104.1 30721.1 23154.5 30721.1 23210.7 Z M 30310.1 21904 C 30277.1 21770.2 30174.4 21657.8 30060 21657.8 C 30034.8 21657.8 30011.5 21661.7 29990.2 21669.4 C 30040.6 21692.7 30056.1 21739.2 30056.1 21768.3 C 30056.1 21814.8 30019.3 21840 29980.5 21840 C 29920.4 21840 29870 21787.7 29870 21725.6 C 29870 21652 29945.6 21603.5 30061.9 21603.5 C 30178.3 21603.5 30405.1 21673.3 30465.2 21909.8 L 30639.7 22603.9 C 30645.5 22625.2 30649.4 22642.7 30649.4 22671.7 C 30649.4 22778.4 30558.2 22854 30441.9 22854 C 30226.7 22854 30102.6 22584.5 30102.6 22557.3 C 30102.6 22532.1 30129.8 22532.1 30135.6 22532.1 C 30158.9 22532.1 30160.8 22538 30174.4 22567 C 30222.8 22679.5 30323.7 22799.7 30436.1 22799.7 C 30484.6 22799.7 30502 22766.7 30502 22704.7 C 30502 22683.4 30498.1 22656.2 30496.2 22646.5 L 30310.1 21904 "/>
<path transform="matrix(.00359712,0,0,-.00359712,0,227.66)" d="M 10144.5 8107.04 C 10144.5 8324.64 9968.13 8501.05 9750.52 8501.05 C 9532.91 8501.05 9356.50052 8324.64 9356.50052 8107.04 C 9356.50052 7889.43 9532.91 7713.02 9750.52 7713.02 C 9968.13 7713.02 10144.5 7889.43 10144.5 8107.04 Z M 9750.52 8107.04 "/>
<path transform="matrix(.00359712,0,0,-.00359712,0,227.66)" stroke-width="110.783" stroke-linecap="butt" stroke-miterlimit="10" stroke-linejoin="miter" fill="none" stroke="rgb(0,0,0)" d="M 10144.5 8107.04 C 10144.5 8324.64 9968.13 8501.05 9750.52 8501.05 C 9532.91 8501.05 9356.50052 8324.64 9356.50052 8107.04 C 9356.50052 7889.43 9532.91 7713.02 9750.52 7713.02 C 9968.13 7713.02 10144.5 7889.43 10144.5 8107.04 Z M 9750.52 8107.04 "/>
<path transform="matrix(.00359712,0,0,-.00359712,0,227.66)" stroke-width="637.012" stroke-linecap="butt" stroke-miterlimit="10" stroke-linejoin="miter" fill="none" stroke="rgb(0,0,0)" d="M 1870.11 8107.04 L 9356.50052 8107.04 "/>
<path transform="matrix(.00359712,0,0,-.00359712,0,227.66)" stroke-width="415.449" stroke-linecap="butt" stroke-miterlimit="10" stroke-linejoin="miter" fill="none" stroke="rgb(255,255,255)" d="M 1870.11 8107.04 L 9356.50052 8107.04 "/>
<path transform="matrix(.00359712,0,0,-.00359712,0,227.66)" stroke-width="637.012" stroke-linecap="butt" stroke-miterlimit="10" stroke-linejoin="miter" fill="none" stroke="rgb(0,0,0)" d="M 10144.5 8107.04 L 17630.9 8107.04 "/>
<path transform="matrix(.00359712,0,0,-.00359712,0,227.66)" stroke-width="415.449" stroke-linecap="butt" stroke-miterlimit="10" stroke-linejoin="miter" fill="none" stroke="rgb(255,255,255)" d="M 10144.5 8107.04 L 17630.9 8107.04 "/>
<path transform="matrix(.00359712,0,0,-.00359712,0,227.66)" stroke-width="637.012" stroke-linecap="butt" stroke-miterlimit="10" stroke-linejoin="miter" fill="none" stroke="rgb(0,0,0)" d="M 1870.11 226.625 L 9471.91 7828.43055 "/>
<path transform="matrix(.00359712,0,0,-.00359712,0,227.66)" stroke-width="415.449" stroke-linecap="butt" stroke-miterlimit="10" stroke-linejoin="miter" fill="none" stroke="rgb(255,255,255)" d="M 1870.11 226.625 L 9471.91 7828.43055 "/>
<path transform="matrix(.00359712,0,0,-.00359712,0,227.66)" stroke-width="637.012" stroke-linecap="butt" stroke-miterlimit="10" stroke-linejoin="miter" fill="none" stroke="rgb(0,0,0)" d="M 9750.52 7713.02 L 9750.52 226.625 "/>
<path transform="matrix(.00359712,0,0,-.00359712,0,227.66)" stroke-width="415.449" stroke-linecap="butt" stroke-miterlimit="10" stroke-linejoin="miter" fill="none" stroke="rgb(255,255,255)" d="M 9750.52 7713.02 L 9750.52 226.625 "/>
<path transform="matrix(.00359712,0,0,-.00359712,0,227.66)" d="M 20622.1 9012.84 C 20663.7 9012.84 20716.3 9012.84 20716.3 9068.25055 C 20716.3 9123.66094 20663.7 9123.66094 20624.9 9123.66094 L 18965.5 9123.66094 C 18926.8 9123.66094 18874.1 9123.66094 18874.1 9068.25055 C 18874.1 9012.84 18926.8 9012.84 18968.3 9012.84 L 20622.1 9012.84 Z M 20624.9 8475.44 C 20663.7 8475.44 20716.3 8475.44 20716.3 8530.84 C 20716.3 8586.25 20663.7 8586.25 20622.1 8586.25 L 18968.3 8586.25 C 18926.8 8586.25 18874.1 8586.25 18874.1 8530.84 C 18874.1 8475.44 18926.8 8475.44 18965.5 8475.44 L 20624.9 8475.44 "/>
<path transform="matrix(.00359712,0,0,-.00359712,0,227.66)" d="M 23467.5 8744.14 C 23514.6 8744.14 23564.5 8744.14 23564.5 8799.55 C 23564.5 8854.95 23514.6 8854.95 23467.5 8854.95 L 21968.9 8854.95 C 21921.8 8854.95 21871.9 8854.95 21871.9 8799.55 C 21871.9 8744.14 21921.8 8744.14 21968.9 8744.14 L 23467.5 8744.14 "/>
<path transform="matrix(.00359712,0,0,-.00359712,0,227.66)" d="M 24161.7 9015.63062 L 24161.7 9082.11 C 24161.7 9782.97032 24505.2 9882.69 24646.5 9882.69 C 24712.9 9882.69 24829.3 9866.06015 24890.2 9771.89 C 24848.7 9771.89 24737.9 9771.89 24737.9 9647.22051 C 24737.9 9561.34 24804.3 9519.8 24865.3 9519.8 C 24909.6 9519.8 24992.7 9544.73104 24992.7 9652.77 C 24992.7 9818.97 24870.8 9951.94 24640.9 9951.94 C 24286.3 9951.94 23912.3 9594.59 23912.3 8982.38 C 23912.3 8242.73 24233.7 8046.06046 24491.3 8046.06046 C 24798.8 8046.06046 25062 8306.45074 25062 8672.13048 C 25062 9023.94 24815.4 9289.88065 24507.9 9289.88065 C 24319.6 9289.88065 24217.1 9148.59 24161.7 9015.63062 Z M 24491.3 8123.63042 C 24316.8 8123.63042 24233.7 8289.83 24217.1 8331.39028 C 24167.2 8461.58 24167.2 8683.20073 24167.2 8733.06 C 24167.2 8949.14044 24255.8 9226.16 24505.2 9226.16 C 24549.5 9226.16 24676.9 9226.16 24762.8 9054.41083 C 24812.7 8951.91087 24812.7 8810.63 24812.7 8674.89041 C 24812.7 8541.92056 24812.7 8403.41081 24765.6 8303.69 C 24682.5 8137.47 24555 8123.63042 24491.3 8123.63042 "/>
<path transform="matrix(.00359712,0,0,-.00359712,0,227.66)" d="M 25967.7 9838.38071 C 25967.7 9893.77011 25929 9938.09 25865.2 9938.09 C 25790.4 9938.09 25715.6 9866.06015 25715.6 9791.28 C 25715.6 9738.64 25754.4 9691.55 25820.9 9691.55 C 25884.6 9691.55 25967.7 9755.27 25967.7 9838.38071 Z M 25757.2 8796.78 C 25790.4 8877.11 25790.4 8882.66076 25818.1 8957.45076 C 25840.3 9012.84 25854.2 9051.64041 25854.2 9104.27 C 25854.2 9228.92 25765.5 9331.42 25627 9331.42 C 25366.6 9331.42 25261.3 8929.75 25261.3 8904.81 C 25261.3 8877.11 25289 8877.11 25294.6 8877.11 C 25322.3 8877.11 25325 8882.66076 25338.9 8926.97038 C 25413.7 9187.38069 25524.5 9270.48 25618.7 9270.48 C 25640.8 9270.48 25687.9 9270.48 25687.9 9181.83 C 25687.9 9123.66094 25668.5 9065.48108 25657.5 9037.78 C 25635.3 8965.77 25510.7 8644.42052 25466.3 8525.3 C 25438.6 8453.28 25402.6 8361.86 25402.6 8303.69 C 25402.6 8173.48 25496.8 8076.53035 25629.8 8076.53035 C 25890.2 8076.53035 25992.7 8478.20081 25992.7 8503.14034 C 25992.7 8530.84 25967.7 8530.84 25959.4 8530.84 C 25931.7 8530.84 25931.7 8522.53 25917.9 8480.97 C 25868 8306.45074 25776.6 8137.47 25635.3 8137.47 C 25588.2 8137.47 25568.8 8165.17056 25568.8 8228.89031 C 25568.8 8298.14 25585.5 8336.92063 25649.2 8505.91077 L 25757.2 8796.78 "/>
<path transform="matrix(.00359712,0,0,-.00359712,0,227.66)" d="M 27123 8915.89 C 27236.5 8625.03 27369.5 8201.19 27413.8 8137.47 C 27458.2 8076.53035 27485.9 8076.53035 27560.6 8076.53035 L 27621.6 8076.53035 C 27649.3 8079.3 27652.1 8095.92046 27652.1 8104.23 C 27652.1 8112.55 27646.5 8118.08 27638.2 8129.16078 C 27610.5 8159.64 27593.9 8201.19 27574.5 8256.59 L 27009.4 9832.83 C 26951.2 9993.5 26801.6 10029.5 26671.4 10029.5 C 26657.6 10029.5 26621.5 10029.5 26621.5 9999.03096 C 26621.5 9976.88 26643.7 9971.34 26646.5 9971.34 C 26737.9 9954.72039 26757.3 9938.09 26826.5 9749.72047 L 27095.3 8996.23 L 26330.7 8237.2 C 26297.4 8203.95078 26280.8 8187.33 26280.8 8151.33 C 26280.8 8104.23 26319.6 8070.98 26363.9 8070.98 C 26408.3 8070.98 26433.2 8101.45082 26455.3 8129.16078 L 27123 8915.89 "/>
</svg>
