<svg xmlns="http://www.w3.org/2000/svg" xmlns:xlink="http://www.w3.org/1999/xlink" version="1.1" width="66pt" height="21pt" viewBox="0 0 66 21">
<path transform="matrix(.00359712,0,0,-.00359712,0,21)" d="M1376.23 2762.48C1379 2773.56 1384.55 2790.19 1384.55 2804.03 1384.55 2831.73 1365.16 2834.52 1351.3 2834.52 1323.59 2834.52 1320.83 2828.97 1309.75 2779.11L849.891 948.016C639.359 972.938 534.094 1075.44 534.094 1258.28 534.094 1313.67 534.094 1385.7 683.688 1773.53 694.766 1806.77 714.156 1853.86 714.156 1909.27 714.156 2033.92 625.516 2136.42 487 2136.42 223.828 2136.42 121.328 1734.75 121.328 1709.81 121.328 1682.11 149.031 1682.11 154.578 1682.11 182.281 1682.11 185.047 1687.66 198.906 1731.97 273.703 1995.14 384.5 2075.48 478.688 2075.48 500.844 2075.48 547.938 2075.48 547.938 1986.83 547.938 1914.81 520.25 1845.55 484.234 1748.59 351.266 1399.55 351.266 1327.53 351.266 1280.44 351.266 1017.27 567.328 903.688 833.281 887.063 811.109 787.344 811.109 781.797 772.328 634.984 764.016 604.516 708.609 380.125 708.609 371.813 708.609 369.047 708.609 344.109 741.859 344.109 747.391 344.109 761.25 344.109 766.797 355.188 775.094 360.734 791.719 429.984 800.031 468.766L905.297 881.531C1007.8 881.531 1251.58 881.531 1511.97 1177.94 1625.55 1305.36 1683.72 1427.25 1714.19 1510.36 1739.13 1579.61 1800.06 1820.63 1800.06 1942.52 1800.06 2097.64 1725.28 2136.42 1678.19 2136.42 1608.92 2136.42 1539.67 2064.39 1539.67 2003.45 1539.67 1967.44 1556.3 1950.83 1581.22 1928.66 1611.7 1898.19 1680.95 1826.16 1680.95 1693.19 1680.95 1515.91 1536.91 1288.75 1439.94 1189.02 1196.17 942.469 1018.88 942.469 919.156 942.469L1376.23 2762.48"/>
<path transform="matrix(.00359712,0,0,-.00359712,0,21)" d="M2573.14 1446.69C2573.14 1477.7 2549.88 1520.36 2495.59 1520.36 2443.25 1520.36 2387.03 1469.95 2387.03 1413.73 2387.03 1380.77 2412.23 1340.06 2464.58 1340.06 2520.8 1340.06 2573.14 1394.34 2573.14 1446.69ZM2177.64 461.828C2169.89 436.625 2160.2 413.359 2160.2 380.406 2160.2 289.281 2237.75 215.609 2344.38 215.609 2538.25 215.609 2623.55 483.156 2623.55 512.234 2623.55 537.438 2598.34 537.438 2592.53 537.438 2565.39 537.438 2563.45 525.813 2555.69 504.484 2511.09 349.391 2425.8 269.891 2350.19 269.891 2311.42 269.891 2301.72 295.094 2301.72 337.75 2301.72 382.344 2315.3 419.172 2332.73 461.828 2352.13 514.172 2373.45 566.516 2394.78 616.922 2412.23 663.453 2482.02 839.875 2489.78 863.141 2495.59 882.531 2501.41 905.797 2501.41 925.172 2501.41 1016.3 2423.86 1089.97 2317.23 1089.97 2125.3 1089.97 2036.13 826.297 2036.13 793.344 2036.13 768.141 2063.27 768.141 2069.08 768.141 2096.22 768.141 2098.16 777.844 2103.97 799.156 2154.38 965.891 2239.69 1035.69 2311.42 1035.69 2342.44 1035.69 2359.88 1020.17 2359.88 967.828 2359.88 923.234 2348.25 894.156 2299.78 773.953L2177.64 461.828"/>
<path transform="matrix(.00359712,0,0,-.00359712,0,21)" d="M3788.47 508.359C3966.83 692.531 4038.56 950.375 4038.56 971.703 4038.56 996.906 4015.3 996.906 4005.61 996.906 3978.47 996.906 3978.47 991.094 3964.89 948.438 3930 820.484 3866.02 702.234 3784.59 597.531 3782.66 626.625 3778.78 756.516 3774.89 773.953 3745.81 965.891 3600.42 1089.97 3406.55 1089.97 3121.56 1089.97 2848.2 824.359 2848.2 552.953 2848.2 374.594 2978.09 215.609 3202.98 215.609 3381.34 215.609 3542.25 297.031 3650.83 380.406 3695.41 238.875 3794.28 215.609 3852.45 215.609 3964.89 215.609 4034.69 310.609 4034.69 351.328 4034.69 374.594 4011.42 374.594 4001.72 374.594 3976.52 374.594 3972.64 366.828 3968.77 355.203 3941.63 281.531 3881.53 269.891 3858.27 269.891 3831.13 269.891 3798.16 269.891 3788.47 508.359ZM3637.25 442.438C3447.27 287.344 3282.47 269.891 3208.8 269.891 3080.84 269.891 3009.11 355.203 3009.11 485.094 3009.11 541.313 3036.25 752.641 3137.06 886.406 3226.25 1002.72 3336.75 1035.69 3404.61 1035.69 3559.7 1035.69 3604.3 886.406 3619.8 766.203 3631.44 682.844 3627.56 545.188 3637.25 442.438"/>
<path transform="matrix(.00359712,0,0,-.00359712,0,21)" d="M6065.19 3191.53V3277.41H5065.14V3191.53H6065.19"/>
<path transform="matrix(.00359712,0,0,-.00359712,0,21)" d="M5642.23 2762.48C5645 2773.56 5650.55 2790.19 5650.55 2804.03 5650.55 2831.73 5631.16 2834.52 5617.3 2834.52 5589.59 2834.52 5586.83 2828.97 5575.75 2779.11L5115.89 948.016C4905.36 972.938 4800.09 1075.44 4800.09 1258.28 4800.09 1313.67 4800.09 1385.7 4949.69 1773.53 4960.77 1806.77 4980.16 1853.86 4980.16 1909.27 4980.16 2033.92 4891.52 2136.42 4753 2136.42 4489.83 2136.42 4387.33 1734.75 4387.33 1709.81 4387.33 1682.11 4415.03 1682.11 4420.58 1682.11 4448.28 1682.11 4451.05 1687.66 4464.91 1731.97 4539.7 1995.14 4650.5 2075.48 4744.69 2075.48 4766.84 2075.48 4813.94 2075.48 4813.94 1986.83 4813.94 1914.81 4786.25 1845.55 4750.23 1748.59 4617.27 1399.55 4617.27 1327.53 4617.27 1280.44 4617.27 1017.27 4833.33 903.688 5099.28 887.063 5077.11 787.344 5077.11 781.797 5038.33 634.984 5030.02 604.516 4974.61 380.125 4974.61 371.813 4974.61 369.047 4974.61 344.109 5007.86 344.109 5013.39 344.109 5027.25 344.109 5032.8 355.188 5041.09 360.734 5057.72 429.984 5066.03 468.766L5171.3 881.531C5273.8 881.531 5517.58 881.531 5777.97 1177.94 5891.55 1305.36 5949.72 1427.25 5980.19 1510.36 6005.13 1579.61 6066.06 1820.63 6066.06 1942.52 6066.06 2097.64 5991.28 2136.42 5944.19 2136.42 5874.92 2136.42 5805.67 2064.39 5805.67 2003.45 5805.67 1967.44 5822.3 1950.83 5847.22 1928.66 5877.7 1898.19 5946.95 1826.16 5946.95 1693.19 5946.95 1515.91 5802.91 1288.75 5705.94 1189.02 5462.17 942.469 5284.88 942.469 5185.16 942.469L5642.23 2762.48"/>
<path transform="matrix(.00359712,0,0,-.00359712,0,21)" d="M6756.72 1522.3C6758.66 1526.17 6764.47 1551.38 6764.47 1553.31 6764.47 1563.02 6756.72 1580.45 6733.45 1580.45 6694.67 1580.45 6533.77 1564.95 6485.3 1561.08 6471.72 1559.13 6444.58 1557.19 6444.58 1516.48 6444.58 1489.34 6471.72 1489.34 6493.05 1489.34 6586.11 1489.34 6586.11 1475.77 6586.11 1460.27 6586.11 1446.69 6582.23 1435.06 6578.36 1417.61L6337.95 459.891C6332.14 440.5 6330.2 419.172 6330.2 399.797 6330.2 275.719 6440.7 215.609 6533.77 215.609 6580.3 215.609 6638.45 231.125 6688.86 318.359 6729.58 390.094 6756.72 504.484 6756.72 512.234 6756.72 537.438 6731.52 537.438 6725.69 537.438 6698.55 537.438 6694.67 525.813 6686.92 490.906 6661.72 393.969 6624.88 269.891 6541.52 269.891 6489.17 269.891 6475.61 318.359 6475.61 364.891 6475.61 386.219 6481.42 423.047 6487.23 444.375L6756.72 1522.3"/>
<path transform="matrix(.00359712,0,0,-.00359712,0,21)" d="M7491.92 1078.33C7201.11 1004.67 7038.27 754.578 7038.27 551.016 7038.27 345.5 7195.3 211.734 7387.23 211.734 7621.81 211.734 7804.05 487.031 7804.05 770.078 7804.05 958.141 7703.23 1068.64 7643.14 1134.56 7571.41 1215.98 7426 1374.95 7426 1464.14 7426 1489.34 7453.14 1545.56 7532.63 1545.56 7598.55 1545.56 7652.83 1514.55 7695.48 1491.28 7712.92 1481.58 7782.72 1440.88 7811.8 1440.88 7858.33 1440.88 7893.23 1483.52 7893.23 1522.3 7893.23 1570.77 7868.03 1574.64 7763.33 1595.97 7740.08 1599.84 7650.89 1619.23 7588.86 1619.23 7443.45 1619.23 7362.03 1533.92 7362.03 1415.67 7362.03 1312.92 7424.06 1194.66 7491.92 1078.33ZM7524.88 1025.98C7579.16 938.75 7648.95 826.297 7648.95 686.719 7648.95 527.75 7553.95 266.016 7391.11 266.016 7284.47 266.016 7179.78 335.813 7179.78 496.719 7179.78 624.672 7253.45 960.078 7524.88 1025.98"/>
<path transform="matrix(.00359712,0,0,-.00359712,0,21)" d="M9895.19 3191.53V3277.41H8895.14V3191.53H9895.19"/>
<path transform="matrix(.00359712,0,0,-.00359712,0,21)" d="M9472.23 2762.48C9475 2773.56 9480.55 2790.19 9480.55 2804.03 9480.55 2831.73 9461.16 2834.52 9447.3 2834.52 9419.59 2834.52 9416.83 2828.97 9405.75 2779.11L8945.89 948.016C8735.36 972.938 8630.09 1075.44 8630.09 1258.28 8630.09 1313.67 8630.09 1385.7 8779.69 1773.53 8790.77 1806.77 8810.16 1853.86 8810.16 1909.27 8810.16 2033.92 8721.52 2136.42 8583 2136.42 8319.83 2136.42 8217.33 1734.75 8217.33 1709.81 8217.33 1682.11 8245.03 1682.11 8250.58 1682.11 8278.28 1682.11 8281.05 1687.66 8294.91 1731.97 8369.7 1995.14 8480.5 2075.48 8574.69 2075.48 8596.84 2075.48 8643.94 2075.48 8643.94 1986.83 8643.94 1914.81 8616.25 1845.55 8580.23 1748.59 8447.27 1399.55 8447.27 1327.53 8447.27 1280.44 8447.27 1017.27 8663.33 903.688 8929.28 887.063 8907.11 787.344 8907.11 781.797 8868.33 634.984 8860.02 604.516 8804.61 380.125 8804.61 371.813 8804.61 369.047 8804.61 344.109 8837.86 344.109 8843.39 344.109 8857.25 344.109 8862.8 355.188 8871.09 360.734 8887.72 429.984 8896.03 468.766L9001.3 881.531C9103.8 881.531 9347.58 881.531 9607.97 1177.94 9721.55 1305.36 9779.72 1427.25 9810.19 1510.36 9835.13 1579.61 9896.06 1820.63 9896.06 1942.52 9896.06 2097.64 9821.28 2136.42 9774.19 2136.42 9704.92 2136.42 9635.67 2064.39 9635.67 2003.45 9635.67 1967.44 9652.3 1950.83 9677.22 1928.66 9707.7 1898.19 9776.95 1826.16 9776.95 1693.19 9776.95 1515.91 9632.91 1288.75 9535.94 1189.02 9292.17 942.469 9114.88 942.469 9015.16 942.469L9472.23 2762.48"/>
<path transform="matrix(.00359712,0,0,-.00359712,0,21)" stroke-width="110.783" stroke-linecap="butt" stroke-miterlimit="10" stroke-linejoin="miter" fill="none" stroke="#000000" d="M992.703 3666.66V4895.46H9088.78V4046.71"/>
<path transform="matrix(.00359712,0,0,-.00359712,0,21)" d="M10882.4 654.031C10872.7 615.266 10855.3 549.344 10855.3 539.656 10855.3 497 10890.2 477.609 10921.2 477.609 10956.1 477.609 10987.1 502.813 10996.8 520.266 11006.5 537.719 11022 599.75 11031.7 640.469 11041.4 677.297 11062.7 766.484 11074.3 814.953 11086 857.594 11097.6 900.25 11107.3 944.844 11128.6 1028.2 11128.6 1032.08 11167.4 1092.19 11229.4 1187.17 11326.4 1297.69 11477.6 1297.69 11586.1 1297.69 11592 1208.5 11592 1161.97 11592 1045.66 11508.6 830.453 11477.6 749.031 11456.3 694.75 11448.5 677.297 11448.5 644.344 11448.5 541.594 11533.8 477.609 11632.7 477.609 11826.5 477.609 11911.8 745.156 11911.8 774.234 11911.8 799.438 11886.6 799.438 11880.8 799.438 11853.7 799.438 11851.8 787.813 11844 766.484 11799.4 611.391 11716 531.891 11638.5 531.891 11597.8 531.891 11590 559.031 11590 599.75 11590 644.344 11599.7 669.547 11634.6 756.781 11657.9 816.891 11737.4 1022.39 11737.4 1130.95 11737.4 1161.97 11737.4 1243.41 11665.6 1299.63 11632.7 1324.83 11576.5 1351.97 11485.3 1351.97 11310.8 1351.97 11204.2 1237.58 11142.2 1156.16 11126.7 1320.95 10989 1351.97 10890.2 1351.97 10729.2 1351.97 10620.7 1253.09 10562.5 1175.55 10548.9 1309.31 10434.6 1351.97 10355.1 1351.97 10271.7 1351.97 10227.1 1291.88 10201.9 1247.28 10159.3 1175.55 10132.1 1065.05 10132.1 1055.34 10132.1 1030.14 10159.3 1030.14 10165.1 1030.14 10192.2 1030.14 10194.2 1035.95 10207.7 1088.3 10236.8 1202.69 10273.6 1297.69 10349.3 1297.69 10399.7 1297.69 10413.2 1255.03 10413.2 1202.69 10413.2 1165.86 10395.8 1094.13 10382.2 1041.78 10368.6 989.438 10349.3 909.938 10339.6 867.297L10277.5 619.141C10269.8 593.938 10258.1 545.469 10258.1 539.656 10258.1 497 10293 477.609 10324 477.609 10359 477.609 10390 502.813 10399.7 520.266 10409.4 537.719 10424.9 599.75 10434.6 640.469 10444.3 677.297 10465.6 766.484 10477.2 814.953 10488.8 857.594 10500.5 900.25 10510.2 944.844 10531.5 1024.33 10535.4 1039.84 10591.6 1119.33 10645.9 1196.88 10737 1297.69 10882.4 1297.69 10994.8 1297.69 10996.8 1198.81 10996.8 1161.97 10996.8 1113.5 10991 1088.3 10963.8 979.734L10882.4 654.031"/>
<path transform="matrix(.00359712,0,0,-.00359712,0,21)" d="M12108.7 184.875C12100.9 155.781 12100.9 146.094 12100.9 144.156 12100.9 101.5 12135.8 82.125 12166.8 82.125 12236.6 82.125 12252.2 140.281 12265.7 202.313 12292.9 303.125 12347.2 524.141 12366.5 597.813 12384 568.734 12446 477.609 12579.8 477.609 12828 477.609 13091.6 741.281 13091.6 1024.33 13091.6 1229.83 12954 1351.97 12783.4 1351.97 12593.4 1351.97 12358.8 1185.23 12290.9 911.875L12108.7 184.875ZM12577.9 531.891C12434.4 531.891 12391.7 675.359 12391.7 700.563 12391.7 704.438 12403.4 747.094 12409.2 770.359 12467.3 1008.81 12479 1053.41 12535.2 1138.7 12605 1241.47 12701.9 1297.69 12779.5 1297.69 12859 1297.69 12934.6 1241.47 12934.6 1101.88 12934.6 1012.69 12884.2 797.5 12824.1 700.563 12734.9 562.922 12638 531.891 12577.9 531.891"/>
<path transform="matrix(.00359712,0,0,-.00359712,0,21)" d="M14628.2 2762.48C14631 2773.56 14636.5 2790.19 14636.5 2804.03 14636.5 2831.73 14617.2 2834.52 14603.3 2834.52 14575.6 2834.52 14572.8 2828.97 14561.8 2779.11L14101.9 948.016C13891.4 972.938 13786.1 1075.44 13786.1 1258.28 13786.1 1313.67 13786.1 1385.7 13935.7 1773.53 13946.8 1806.77 13966.2 1853.86 13966.2 1909.27 13966.2 2033.92 13877.5 2136.42 13739 2136.42 13475.8 2136.42 13373.3 1734.75 13373.3 1709.81 13373.3 1682.11 13401 1682.11 13406.6 1682.11 13434.3 1682.11 13437 1687.66 13450.9 1731.97 13525.7 1995.14 13636.5 2075.48 13730.7 2075.48 13752.8 2075.48 13799.9 2075.48 13799.9 1986.83 13799.9 1914.81 13772.3 1845.55 13736.2 1748.59 13603.3 1399.55 13603.3 1327.53 13603.3 1280.44 13603.3 1017.27 13819.3 903.688 14085.3 887.063 14063.1 787.344 14063.1 781.797 14024.3 634.984 14016 604.516 13960.6 380.125 13960.6 371.813 13960.6 369.047 13960.6 344.109 13993.9 344.109 13999.4 344.109 14013.3 344.109 14018.8 355.188 14027.1 360.734 14043.7 429.984 14052 468.766L14157.3 881.531C14259.8 881.531 14503.6 881.531 14764 1177.94 14877.5 1305.36 14935.7 1427.25 14966.2 1510.36 14991.1 1579.61 15052.1 1820.63 15052.1 1942.52 15052.1 2097.64 14977.3 2136.42 14930.2 2136.42 14860.9 2136.42 14791.7 2064.39 14791.7 2003.45 14791.7 1967.44 14808.3 1950.83 14833.2 1928.66 14863.7 1898.19 14933 1826.16 14933 1693.19 14933 1515.91 14788.9 1288.75 14691.9 1189.02 14448.2 942.469 14270.9 942.469 14171.2 942.469L14628.2 2762.48"/>
<path transform="matrix(.00359712,0,0,-.00359712,0,21)" stroke-width="110.783" stroke-linecap="butt" stroke-miterlimit="10" stroke-linejoin="miter" fill="none" stroke="#000000" d="M5258.32 4046.71V5726.35H14245.4V3666.66"/>
<path transform="matrix(.00359712,0,0,-.00359712,0,21)" d="M16038.4 654.031C16028.7 615.266 16011.3 549.344 16011.3 539.656 16011.3 497 16046.2 477.609 16077.2 477.609 16112.1 477.609 16143.1 502.813 16152.8 520.266 16162.5 537.719 16178 599.75 16187.7 640.469 16197.4 677.297 16218.7 766.484 16230.3 814.953 16242 857.594 16253.6 900.25 16263.3 944.844 16284.6 1028.2 16284.6 1032.08 16323.4 1092.19 16385.4 1187.17 16482.4 1297.69 16633.6 1297.69 16742.1 1297.69 16748 1208.5 16748 1161.97 16748 1045.66 16664.6 830.453 16633.6 749.031 16612.3 694.75 16604.5 677.297 16604.5 644.344 16604.5 541.594 16689.8 477.609 16788.7 477.609 16982.5 477.609 17067.8 745.156 17067.8 774.234 17067.8 799.438 17042.6 799.438 17036.8 799.438 17009.7 799.438 17007.8 787.813 17000 766.484 16955.4 611.391 16872 531.891 16794.5 531.891 16753.8 531.891 16746 559.031 16746 599.75 16746 644.344 16755.7 669.547 16790.6 756.781 16813.9 816.891 16893.4 1022.39 16893.4 1130.95 16893.4 1161.97 16893.4 1243.41 16821.6 1299.63 16788.7 1324.83 16732.5 1351.97 16641.3 1351.97 16466.8 1351.97 16360.2 1237.58 16298.2 1156.16 16282.7 1320.95 16145 1351.97 16046.2 1351.97 15885.2 1351.97 15776.7 1253.09 15718.5 1175.55 15704.9 1309.31 15590.6 1351.97 15511.1 1351.97 15427.7 1351.97 15383.1 1291.88 15357.9 1247.28 15315.3 1175.55 15288.1 1065.05 15288.1 1055.34 15288.1 1030.14 15315.3 1030.14 15321.1 1030.14 15348.2 1030.14 15350.2 1035.95 15363.7 1088.3 15392.8 1202.69 15429.6 1297.69 15505.3 1297.69 15555.7 1297.69 15569.2 1255.03 15569.2 1202.69 15569.2 1165.86 15551.8 1094.13 15538.2 1041.78 15524.6 989.438 15505.3 909.938 15495.6 867.297L15433.5 619.141C15425.8 593.938 15414.1 545.469 15414.1 539.656 15414.1 497 15449 477.609 15480 477.609 15515 477.609 15546 502.813 15555.7 520.266 15565.4 537.719 15580.9 599.75 15590.6 640.469 15600.3 677.297 15621.6 766.484 15633.2 814.953 15644.8 857.594 15656.5 900.25 15666.2 944.844 15687.5 1024.33 15691.4 1039.84 15747.6 1119.33 15801.9 1196.88 15893 1297.69 16038.4 1297.69 16150.8 1297.69 16152.8 1198.81 16152.8 1161.97 16152.8 1113.5 16147 1088.3 16119.8 979.734L16038.4 654.031"/>
<path transform="matrix(.00359712,0,0,-.00359712,0,21)" d="M17265.7 184.875C17257.9 155.781 17257.9 146.094 17257.9 144.156 17257.9 101.5 17292.8 82.125 17323.8 82.125 17393.6 82.125 17409.2 140.281 17422.7 202.313 17449.9 303.125 17504.2 524.141 17523.5 597.813 17541 568.734 17603 477.609 17736.8 477.609 17985 477.609 18248.6 741.281 18248.6 1024.33 18248.6 1229.83 18111 1351.97 17940.4 1351.97 17750.4 1351.97 17515.8 1185.23 17447.9 911.875L17265.7 184.875ZM17734.9 531.891C17591.4 531.891 17548.7 675.359 17548.7 700.563 17548.7 704.438 17560.4 747.094 17566.2 770.359 17624.3 1008.81 17636 1053.41 17692.2 1138.7 17762 1241.47 17858.9 1297.69 17936.5 1297.69 18016 1297.69 18091.6 1241.47 18091.6 1101.88 18091.6 1012.69 18041.2 797.5 17981.1 700.563 17891.9 562.922 17795 531.891 17734.9 531.891"/>
</svg>
