<svg xmlns="http://www.w3.org/2000/svg" xmlns:xlink="http://www.w3.org/1999/xlink" version="1.1" width="149pt" height="71pt" viewBox="0 0 149 71">
<path transform="matrix(.00359712,0,0,-.00359712,0,71)" d="M18439 19598C18439 19600.8 18439 19628.5 18403 19628.5 18339.3 19628.5 18137.1 19606.3 18065.1 19600.8 18042.9 19598 18012.4 19595.3 18012.4 19545.4 18012.4 19512.2 18037.4 19512.2 18078.9 19512.2 18211.9 19512.2 18217.4 19492.8 18217.4 19465.1L18209.1 19409.7 17807.4 17814C17796.4 17775.3 17796.4 17769.7 17796.4 17753.1 17796.4 17689.4 17851.8 17675.5 17876.7 17675.5 17921 17675.5 17965.3 17708.8 17979.2 17747.5L18031.8 17958.1 18092.8 18207.4C18109.4 18268.3 18126 18329.3 18139.9 18393 18145.4 18409.6 18167.6 18501 18170.3 18517.7 18178.6 18542.6 18264.5 18697.7 18358.7 18772.5 18419.7 18816.8 18505.5 18869.5 18624.6 18869.5 18743.8 18869.5 18774.2 18775.3 18774.2 18675.6 18774.2 18526 18669 18224 18602.5 18055 18580.3 17991.3 18566.5 17958.1 18566.5 17902.7 18566.5 17772.5 18663.4 17675.5 18793.6 17675.5 19054 17675.5 19156.5 18080 19156.5 18102.1 19156.5 18129.8 19131.6 18129.8 19123.3 18129.8 19095.6 18129.8 19095.6 18121.5 19081.7 18080 19040.2 17933.2 18951.5 17736.5 18799.2 17736.5 18752.1 17736.5 18732.7 17764.2 18732.7 17827.9 18732.7 17897.1 18757.6 17963.6 18782.5 18024.6 18826.9 18143.7 18951.5 18473.3 18951.5 18634 18951.5 18814.1 18840.7 18930.4 18633 18930.4 18458.4 18930.4 18325.5 18844.5 18223 18717.1L18439 19598"/>
<path transform="matrix(.00359712,0,0,-.00359712,0,71)" d="M1722.05 19598C1722.05 19600.8 1722.05 19628.5 1686.03 19628.5 1622.31 19628.5 1420.09 19606.3 1348.06 19600.8 1325.91 19598 1295.44 19595.3 1295.44 19545.4 1295.44 19512.2 1320.36 19512.2 1361.92 19512.2 1494.89 19512.2 1500.42 19492.8 1500.42 19465.1L1492.13 19409.7 1090.44 17814C1079.36 17775.3 1079.36 17769.7 1079.36 17753.1 1079.36 17689.4 1134.77 17675.5 1159.7 17675.5 1204.02 17675.5 1248.34 17708.8 1262.19 17747.5L1314.83 17958.1 1375.77 18207.4C1392.39 18268.3 1409.02 18329.3 1422.86 18393 1428.41 18409.6 1450.56 18501 1453.33 18517.7 1461.64 18542.6 1547.52 18697.7 1641.7 18772.5 1702.66 18816.8 1788.53 18869.5 1907.64 18869.5 2026.77 18869.5 2057.23 18775.3 2057.23 18675.6 2057.23 18526 1951.97 18224 1885.48 18055 1863.33 17991.3 1849.47 17958.1 1849.47 17902.7 1849.47 17772.5 1946.42 17675.5 2076.63 17675.5 2337.03 17675.5 2439.52 18080 2439.52 18102.1 2439.52 18129.8 2414.59 18129.8 2406.28 18129.8 2378.58 18129.8 2378.58 18121.5 2364.73 18080 2323.17 17933.2 2234.53 17736.5 2082.17 17736.5 2035.08 17736.5 2015.69 17764.2 2015.69 17827.9 2015.69 17897.1 2040.61 17963.6 2065.55 18024.6 2109.88 18143.7 2234.53 18473.3 2234.53 18634 2234.53 18814.1 2123.72 18930.4 1915.95 18930.4 1741.44 18930.4 1608.47 18844.5 1505.97 18717.1L1722.05 19598"/>
<path transform="matrix(.00359712,0,0,-.00359712,0,71)" d="M2053.53 2991.55C2056.31 3002.64 2061.84 3016.48 2061.84 3033.11 2061.84 3058.03 2048 3058.03 1992.59 3058.03H823.578C757.094 3058.03 754.313 3055.27 737.703 3002.64L585.328 2504C579.797 2490.16 577.031 2470.77 577.031 2465.22 577.031 2462.45 577.031 2434.75 610.266 2434.75 635.203 2434.75 640.734 2454.14 646.281 2462.45 751.547 2789.33 895.594 2972.16 1327.75 2972.16H1779.28L230.75 1240.8C230.75 1238.03 219.672 1199.25 219.672 1190.94 219.672 1166 239.063 1166 288.922 1166H1493.95C1560.44 1166 1563.22 1168.77 1579.83 1221.41L1776.52 1833.61C1779.28 1844.7 1787.59 1864.09 1787.59 1875.17 1787.59 1889.02 1776.52 1905.64 1751.58 1905.64 1726.66 1905.64 1723.89 1894.56 1704.48 1836.39 1582.61 1459.64 1449.64 1260.19 978.703 1260.19H505L2053.53 2991.55"/>
<path transform="matrix(.00359712,0,0,-.00359712,0,71)" d="M3148.38 2789.45C3148.38 3002.7 3123.17 3155.86 3033.98 3291.56 2973.89 3380.75 2853.69 3458.3 2698.59 3458.3 2248.81 3458.3 2248.81 2929.03 2248.81 2789.45 2248.81 2649.86 2248.81 2132.22 2698.59 2132.22 3148.38 2132.22 3148.38 2649.86 3148.38 2789.45ZM2698.59 2186.52C2609.41 2186.52 2491.16 2238.86 2452.38 2397.83 2425.23 2512.22 2425.23 2671.19 2425.23 2814.66 2425.23 2956.17 2425.23 3103.52 2454.31 3210.14 2495.03 3363.3 2619.11 3404.02 2698.59 3404.02 2803.28 3404.02 2904.09 3340.03 2938.98 3227.59 2970.02 3122.91 2971.95 2983.31 2971.95 2814.66 2971.95 2671.19 2971.95 2527.72 2946.75 2405.58 2907.97 2229.16 2776.14 2186.52 2698.59 2186.52"/>
<path transform="matrix(.00359712,0,0,-.00359712,0,71)" d="M2436.61 1280.75C2438.55 1288.5 2440.48 1300.13 2440.48 1309.83 2440.48 1311.77 2440.48 1336.97 2409.47 1336.97 2407.53 1336.97 2297.03 1327.28 2283.45 1327.28 2246.63 1323.39 2211.72 1321.45 2174.89 1317.58 2143.88 1315.64 2120.61 1313.7 2120.61 1272.98 2120.61 1245.84 2147.75 1245.84 2171.02 1245.84 2264.06 1245.84 2264.06 1234.22 2264.06 1216.77 2264.06 1205.14 2254.38 1166.36 2246.63 1141.16L2149.69 749.547C2101.22 555.672 2091.53 516.891 2091.53 509.141 2091.53 482 2120.61 482 2128.36 482H2159.38C2331.92 509.141 2578.14 600.266 2785.58 784.438 3049.25 1019.02 3088.02 1271.05 3088.02 1274.92 3088.02 1309.83 3060.88 1336.97 3022.09 1336.97 2954.25 1336.97 2940.67 1282.69 2923.23 1228.41 2845.69 953.109 2585.89 656.484 2256.31 559.547L2436.61 1280.75"/>
<path transform="matrix(.00359712,0,0,-.00359712,0,71)" d="M18748.5 3180.55C18751.3 3191.64 18756.8 3205.48 18756.8 3222.11 18756.8 3247.03 18743 3247.03 18687.6 3247.03H17518.6C17452.1 3247.03 17449.3 3244.27 17432.7 3191.64L17280.3 2693C17274.8 2679.16 17272 2659.77 17272 2654.22 17272 2651.45 17272 2623.75 17305.3 2623.75 17330.2 2623.75 17335.7 2643.14 17341.3 2651.45 17446.5 2978.33 17590.6 3161.16 18022.8 3161.16H18474.3L16925.8 1429.8C16925.8 1427.03 16914.7 1388.25 16914.7 1379.94 16914.7 1355 16934.1 1355 16983.9 1355H18189C18255.4 1355 18258.2 1357.77 18274.8 1410.41L18471.5 2022.61C18474.3 2033.7 18482.6 2053.09 18482.6 2064.17 18482.6 2078.02 18471.5 2094.64 18446.6 2094.64 18421.7 2094.64 18418.9 2083.56 18399.5 2025.39 18277.6 1648.64 18144.6 1449.19 17673.7 1449.19H17200L18748.5 3180.55"/>
<path transform="matrix(.00359712,0,0,-.00359712,0,71)" d="M19843.4 2978.45C19843.4 3191.7 19818.2 3344.86 19729 3480.56 19668.9 3569.75 19548.7 3647.3 19393.6 3647.3 18943.8 3647.3 18943.8 3118.03 18943.8 2978.45 18943.8 2838.86 18943.8 2321.22 19393.6 2321.22 19843.4 2321.22 19843.4 2838.86 19843.4 2978.45ZM19393.6 2375.52C19304.4 2375.52 19186.2 2427.86 19147.4 2586.83 19120.2 2701.22 19120.2 2860.19 19120.2 3003.66 19120.2 3145.17 19120.2 3292.52 19149.3 3399.14 19190 3552.3 19314.1 3593.02 19393.6 3593.02 19498.3 3593.02 19599.1 3529.03 19634 3416.59 19665 3311.91 19667 3172.31 19667 3003.66 19667 2860.19 19667 2716.72 19641.8 2594.58 19603 2418.16 19471.1 2375.52 19393.6 2375.52"/>
<path transform="matrix(.00359712,0,0,-.00359712,0,71)" d="M18748.7 357.875C18740.9 328.781 18740.9 319.094 18740.9 317.156 18740.9 274.5 18775.8 255.125 18806.8 255.125 18876.6 255.125 18892.2 319.094 18899.9 352.047 18903.8 361.75 18942.6 516.844 18989.1 706.828 19049.2 666.125 19126.7 650.609 19196.5 650.609 19363.3 650.609 19471.8 786.328 19475.7 790.203 19512.5 656.422 19646.3 650.609 19675.4 650.609 19745.2 650.609 19793.7 693.266 19828.5 753.359 19871.2 828.969 19896.4 939.484 19896.4 947.234 19896.4 972.438 19871.2 972.438 19865.4 972.438 19838.2 972.438 19836.3 964.688 19822.7 912.344 19799.5 819.281 19762.6 704.891 19681.2 704.891 19630.8 704.891 19617.2 747.547 19617.2 799.891 19617.2 832.844 19632.7 902.641 19646.3 953.047 19659.9 1005.39 19679.3 1084.88 19689 1127.53L19733.5 1300.08C19745.2 1348.55 19766.5 1433.84 19766.5 1443.55 19766.5 1482.31 19735.5 1505.58 19702.5 1505.58 19681.2 1505.58 19644.4 1495.89 19623 1459.05 19617.2 1447.42 19601.7 1385.38 19592 1346.61L19551.3 1185.69 19491.2 943.359C19477.6 894.891 19477.6 891.016 19460.2 865.813 19400.1 780.5 19314.8 704.891 19204.3 704.891 19045.3 704.891 19045.3 842.547 19045.3 877.438 19045.3 927.844 19051.1 953.047 19078.3 1057.73 19097.7 1143.05 19101.5 1156.61 19120.9 1232.22L19148.1 1340.8C19157.8 1381.5 19177.1 1455.17 19177.1 1462.92 19177.1 1497.83 19150 1524.97 19111.2 1524.97 19041.4 1524.97 19024 1457.11 19018.2 1433.84L18748.7 357.875"/>
<path transform="matrix(.00359712,0,0,-.00359712,0,71)" stroke-width="110.783" stroke-linecap="butt" stroke-dasharray="830.895,830.895" stroke-miterlimit="10" stroke-linejoin="miter" fill="none" stroke="#000000" d="M3501.34 16892.1 10083.3 10309.6"/>
<path transform="matrix(.00359712,0,0,-.00359712,0,71)" stroke-width="110.783" stroke-linecap="butt" stroke-dasharray="830.895,830.895" stroke-miterlimit="10" stroke-linejoin="miter" fill="none" stroke="#000000" d="M10083.3 10309.6 16665.3 16892.1"/>
<path transform="matrix(.00359712,0,0,-.00359712,0,71)" stroke-width="110.783" stroke-linecap="butt" stroke-miterlimit="10" stroke-linejoin="miter" fill="none" stroke="#000000" d="M15805.9 4587.85 15710.7 4683.04 15493.1 4655.84 15308.3 4661.43 15180.3 4723.84 15117.8 4851.84 15112.2 5036.64 15139.4 5254.25 15166.6 5471.86 15161 5656.66 15098.5 5784.66 14970.5 5847.06 14785.7 5852.66 14568.1 5825.45 14350.5 5798.25 14165.7 5803.84 14037.7 5866.24 13975.3 5994.23 13969.7 6179.05 13996.9 6396.66 14024 6614.26 14018.4 6799.07 13956 6927.07 13828 6989.46 13643.2 6995.06 13425.6 6967.86 13208 6940.65 13023.2 6946.25 12895.1 7008.65 12832.7 7136.64 12827.1 7321.45 12854.3 7539.05 12881.5 7756.67 12875.9 7941.47 12813.4 8069.47 12685.4 8131.87 12500.6 8137.46 12283 8110.26 12065.4 8083.05 11880.6 8088.65 11752.6 8151.05 11690.2 8279.05 11684.6 8463.86 11711.7 8681.46 11738.9 8899.07 11733.3 9083.87 11670.9 9211.88 11542.9 9274.28 11358.1 9279.88 11140.5 9252.67 10922.9 9225.46 10738.1 9231.05 10610 9293.46 10547.6 9421.45 10542 9606.26 10569.2 9823.86 10596.4 10041.5 10590.8 10226.3 10528.3 10354.3 10083.3 10309.6"/>
<path transform="matrix(.00359712,0,0,-.00359712,0,71)" stroke-width="110.783" stroke-linecap="butt" stroke-miterlimit="10" stroke-linejoin="miter" fill="none" stroke="#000000" d="M10083.3 10309.6 9984.9 10211.2 10008.9 9990.38 10000 9802.34 9934.37 9671.11 9803.13 9605.48 9615.09 9596.67 9394.27 9620.64 9173.43 9644.62 8985.39 9635.8 8854.16 9570.17 8788.51 9438.95 8779.67 9250.91 8803.62 9030.08 8827.57 8809.24 8818.73 8621.21 8753.08 8489.98 8621.84 8424.36 8433.81 8415.53 8212.98 8439.51 7992.15 8463.49 7804.11 8454.67 7672.88 8389.04 7607.23 8257.82 7598.39 8069.79 7622.34 7848.95 7646.28 7628.11 7637.44 7440.08 7571.8 7308.85 7440.57 7243.22 7252.52 7234.4 7031.7 7258.38 6810.86 7282.36 6622.82 7273.54 6491.59 7207.91 6425.95 7076.69 6417.1 6888.64 6441.05 6667.82 6465 6446.98 6456.16 6258.95 6390.52 6127.72 6259.28 6062.09 6071.24 6053.27 5850.41 6077.25 5629.58 6101.23 5441.54 6092.41 5310.31 6026.78 5244.66 5895.55 5235.82 5707.52 5259.77 5486.69 5283.72 5265.86 5274.88 5077.82 5209.23 4946.59 5078 4880.96 4889.96 4872.14 4669.13 4896.12 4448.3 4920.1 4260.26 4911.28 4129.02 4845.65 4172.36 4399.36"/>
<path transform="matrix(.00359712,0,0,-.00359712,0,71)" d="M23725.1 10174.8C23766.7 10174.8 23819.3 10174.8 23819.3 10230.3 23819.3 10285.7 23766.7 10285.7 23727.9 10285.7H22068.5C22029.8 10285.7 21977.1 10285.7 21977.1 10230.3 21977.1 10174.8 22029.8 10174.8 22071.3 10174.8H23725.1ZM23727.9 9637.44C23766.7 9637.44 23819.3 9637.44 23819.3 9692.84 23819.3 9748.25 23766.7 9748.25 23725.1 9748.25H22071.3C22029.8 9748.25 21977.1 9748.25 21977.1 9692.84 21977.1 9637.44 22029.8 9637.44 22068.5 9637.44H23727.9"/>
<path transform="matrix(.00359712,0,0,-.00359712,0,71)" d="M25532.7 11000.4C25532.7 11055.8 25494 11100.1 25430.2 11100.1 25355.4 11100.1 25280.6 11028.1 25280.6 10953.3 25280.6 10900.6 25319.4 10853.5 25385.9 10853.5 25449.6 10853.5 25532.7 10917.3 25532.7 11000.4ZM25322.2 9958.78C25355.4 10039.1 25355.4 10044.7 25383.1 10119.5 25405.3 10174.8 25419.2 10213.6 25419.2 10266.3 25419.2 10390.9 25330.5 10493.4 25192 10493.4 24931.6 10493.4 24826.3 10091.8 24826.3 10066.8 24826.3 10039.1 24854 10039.1 24859.6 10039.1 24887.3 10039.1 24890 10044.7 24903.9 10089 24978.7 10349.4 25089.5 10432.5 25183.7 10432.5 25205.8 10432.5 25252.9 10432.5 25252.9 10343.8 25252.9 10285.7 25233.5 10227.5 25222.5 10199.8 25200.3 10127.8 25075.7 9806.42 25031.3 9687.3 25003.6 9615.28 24967.6 9523.86 24967.6 9465.69 24967.6 9335.48 25061.8 9238.53 25194.8 9238.53 25455.2 9238.53 25557.7 9640.2 25557.7 9665.14 25557.7 9692.84 25532.7 9692.84 25524.4 9692.84 25496.7 9692.84 25496.7 9684.53 25482.9 9642.97 25433 9468.45 25341.6 9299.47 25200.3 9299.47 25153.2 9299.47 25133.8 9327.17 25133.8 9390.89 25133.8 9460.14 25150.5 9498.92 25214.2 9667.91L25322.2 9958.78"/>
<path transform="matrix(.00359712,0,0,-.00359712,0,71)" d="M31180.8 12187.4C31183.5 12204 31189.1 12217.8 31189.1 12237.2 31189.1 12284.3 31155.8 12312 31108.7 12312 31081 12312 31006.2 12292.6 30995.2 12192.9 30945.3 12295.4 30848.3 12367.4 30737.5 12367.4 30421.7 12367.4 30078.2 11979.6 30078.2 11580.7 30078.2 11306.4 30247.2 11143 30446.7 11143 30610.1 11143 30740.3 11273.2 30768 11303.7L30770.8 11300.9C30712.6 11054.4 30679.4 10940.8 30679.4 10935.2 30668.3 10910.3 30574.1 10636.1 30280.5 10636.1 30227.8 10636.1 30136.4 10638.8 30058.8 10663.8 30141.9 10688.7 30172.4 10760.7 30172.4 10807.8 30172.4 10852.1 30141.9 10904.8 30067.1 10904.8 30006.2 10904.8 29917.5 10854.9 29917.5 10744.1 29917.5 10630.5 30020 10575.1 30286 10575.1 30632.3 10575.1 30831.7 10791.2 30873.3 10957.4L31180.8 12187.4ZM30820.6 11497.6C30804 11425.6 30740.3 11356.3 30679.4 11303.7 30621.2 11253.8 30535.3 11203.9 30455 11203.9 30316.5 11203.9 30274.9 11348 30274.9 11458.8 30274.9 11591.8 30355.3 11918.7 30430 12059.9 30504.8 12195.7 30624 12306.5 30740.3 12306.5 30923.1 12306.5 30961.9 12082.1 30961.9 12068.3 30961.9 12054.4 30956.4 12037.8 30953.6 12026.7L30820.6 11497.6"/>
<path transform="matrix(.00359712,0,0,-.00359712,0,71)" d="M32276 12500.8H32210.1C32204.3 12458.2 32184.9 12343.8 32159.7 12324.4 32144.2 12312.8 31994.9 12312.8 31967.8 12312.8H31611.1C31814.6 12493.1 31882.5 12547.4 31998.8 12638.5 32142.3 12752.9 32276 12873.1 32276 13057.3 32276 13291.8 32070.5 13435.3 31822.4 13435.3 31582 13435.3 31419.1 13266.6 31419.1 13088.3 31419.1 12989.4 31502.5 12979.7 31521.9 12979.7 31568.4 12979.7 31624.6 13012.7 31624.6 13082.5 31624.6 13117.3 31611.1 13185.2 31510.3 13185.2 31570.4 13322.9 31702.2 13365.5 31793.3 13365.5 31987.2 13365.5 32088 13214.3 32088 13057.3 32088 12888.6 31967.8 12754.8 31905.8 12685L31438.5 12223.6C31419.1 12206.2 31419.1 12202.3 31419.1 12148H32217.9L32276 12500.8"/>
<path transform="matrix(.00359712,0,0,-.00359712,0,71)" stroke-width="110.783" stroke-linecap="butt" stroke-miterlimit="10" stroke-linejoin="miter" fill="none" stroke="#000000" d="M26031.9 9961.3H36383.8"/>
<path transform="matrix(.00359712,0,0,-.00359712,0,71)" d="M26383.8 7582.3 26677.5 7867.64C27109.6 8249.92 27275.8 8399.52 27275.8 8676.53 27275.8 8992.33 27026.5 9213.94 26688.5 9213.94 26375.5 9213.94 26170.5 8959.09 26170.5 8712.55 26170.5 8557.41 26309 8557.41 26317.3 8557.41 26364.4 8557.41 26461.4 8590.66 26461.4 8704.23 26461.4 8776.25 26411.5 8848.28 26314.6 8848.28 26292.4 8848.28 26286.9 8848.28 26278.5 8845.52 26342.3 9025.58 26491.8 9128.06 26652.5 9128.06 26904.6 9128.06 27023.7 8903.69 27023.7 8676.53 27023.7 8454.91 26885.2 8236.06 26732.9 8064.31L26201 7471.5C26170.5 7441.03 26170.5 7435.48 26170.5 7369H27198.3L27275.8 7851.02H27206.6C27192.7 7767.91 27173.3 7646.02 27145.6 7604.47 27126.2 7582.3 26943.4 7582.3 26882.5 7582.3H26383.8"/>
<path transform="matrix(.00359712,0,0,-.00359712,0,71)" d="M28200.1 7972.91C28200.1 8424.44 28427.3 8540.8 28574.1 8540.8 28599 8540.8 28773.5 8538.02 28870.5 8438.3 28756.9 8429.98 28740.3 8346.88 28740.3 8310.86 28740.3 8238.84 28790.2 8183.44 28867.7 8183.44 28939.8 8183.44 28995.2 8230.53 28995.2 8313.64 28995.2 8502 28784.6 8610.05 28571.3 8610.05 28225 8610.05 27970.2 8310.86 27970.2 7967.36 27970.2 7612.78 28244.4 7338.53 28565.8 7338.53 28937 7338.53 29025.6 7670.95 29025.6 7698.66 29025.6 7726.36 28997.9 7726.36 28989.6 7726.36 28964.7 7726.36 28959.1 7715.28 28953.6 7698.66 28873.3 7441.03 28693.2 7407.78 28590.7 7407.78 28443.9 7407.78 28200.1 7526.91 28200.1 7972.91"/>
<path transform="matrix(.00359712,0,0,-.00359712,0,71)" d="M30410.8 7961.81C30410.8 8316.41 30133.7 8610.05 29798.5 8610.05 29452.3 8610.05 29183.6 8308.09 29183.6 7961.81 29183.6 7604.47 29471.7 7338.53 29795.8 7338.53 30131 7338.53 30410.8 7610 30410.8 7961.81ZM29798.5 7407.78C29679.4 7407.78 29557.5 7465.95 29482.8 7593.39 29413.5 7715.28 29413.5 7884.25 29413.5 7983.98 29413.5 8092.02 29413.5 8241.61 29480 8363.5 29554.8 8490.92 29685 8549.09 29795.8 8549.09 29917.7 8549.09 30036.8 8488.16 30108.8 8369.03 30180.8 8249.92 30180.8 8089.25 30180.8 7983.98 30180.8 7884.25 30180.8 7734.67 30119.9 7612.78 30058.9 7488.13 29937.1 7407.78 29798.5 7407.78"/>
<path transform="matrix(.00359712,0,0,-.00359712,0,71)" d="M31067.2 7906.42C31128.1 7895.33 31355.3 7851.02 31355.3 7651.56 31355.3 7510.28 31258.3 7399.47 31042.3 7399.47 30809.6 7399.47 30709.8 7557.38 30657.2 7792.84 30648.9 7828.84 30646.1 7839.94 30618.4 7839.94 30582.4 7839.94 30582.4 7820.55 30582.4 7770.67V7405.02C30582.4 7357.92 30582.4 7338.53 30612.9 7338.53 30626.7 7338.53 30629.5 7341.3 30682.1 7393.94 30687.7 7399.47 30687.7 7405.02 30737.5 7457.64 30859.4 7341.3 30984.1 7338.53 31042.3 7338.53 31360.8 7338.53 31488.3 7524.13 31488.3 7723.58 31488.3 7870.41 31405.2 7953.52 31371.9 7986.75 31280.5 8075.39 31172.5 8097.56 31056.1 8119.72 30901 8150.19 30715.4 8186.2 30715.4 8346.88 30715.4 8443.83 30787.4 8557.41 31025.6 8557.41 31330.4 8557.41 31344.2 8308.09 31349.8 8222.22 31352.5 8197.28 31377.5 8197.28 31383 8197.28 31419 8197.28 31419 8211.14 31419 8263.77V8543.56C31419 8590.66 31419 8610.05 31388.5 8610.05 31374.7 8610.05 31369.2 8610.05 31333.1 8576.8 31324.8 8565.72 31297.1 8540.8 31286 8532.48 31180.8 8610.05 31067.2 8610.05 31025.6 8610.05 30687.7 8610.05 30582.4 8424.44 30582.4 8269.31 30582.4 8172.36 30626.7 8094.8 30701.5 8033.84 30790.2 7961.81 30867.8 7945.2 31067.2 7906.42"/>
<path transform="matrix(.00359712,0,0,-.00359712,0,71)" d="M32566 8521.84H32500.1C32494.3 8479.19 32474.9 8364.81 32449.7 8345.42 32434.2 8333.8 32284.9 8333.8 32257.8 8333.8H31901.1C32104.6 8514.09 32172.5 8568.38 32288.8 8659.48 32432.3 8773.88 32566 8894.08 32566 9078.25 32566 9312.83 32360.5 9456.3 32112.4 9456.3 31872 9456.3 31709.1 9287.63 31709.1 9109.27 31709.1 9010.39 31792.5 9000.7 31811.9 9000.7 31858.4 9000.7 31914.6 9033.66 31914.6 9103.45 31914.6 9138.34 31901.1 9206.2 31800.3 9206.2 31860.4 9343.86 31992.2 9386.5 32083.3 9386.5 32277.2 9386.5 32378 9235.28 32378 9078.25 32378 8909.58 32257.8 8775.81 32195.8 8706.02L31728.5 8244.61C31709.1 8227.16 31709.1 8223.28 31709.1 8169H32507.9L32566 8521.84"/>
<path transform="matrix(.00359712,0,0,-.00359712,0,71)" d="M34551.4 8754.09C34551.4 8936.92 34501.6 9321.98 34219 9321.98 33834 9321.98 33407.3 8540.8 33407.3 7906.42 33407.3 7646.02 33487.7 7338.53 33739.8 7338.53 34130.4 7338.53 34551.4 8133.58 34551.4 8754.09ZM33701 8374.58C33748.1 8551.88 33803.5 8773.48 33914.3 8970.17 33989.1 9105.91 34091.6 9261.03 34216.3 9261.03 34352 9261.03 34368.6 9083.75 34368.6 8925.84 34368.6 8790.11 34346.4 8648.83 34280 8374.58H33701ZM34255 8285.94C34224.5 8158.5 34166.4 7923.03 34061.1 7723.58 33964.2 7535.22 33858.9 7399.47 33739.8 7399.47 33648.4 7399.47 33590.2 7479.81 33590.2 7737.44 33590.2 7853.78 33606.8 8014.45 33678.8 8285.94H34255"/>
<path transform="matrix(.00359712,0,0,-.00359712,0,71)" d="M35610.8 7572.45C35624.3 7624.8 35647.6 7717.84 35647.6 7727.55 35647.6 7766.31 35616.6 7789.58 35583.6 7789.58 35546.8 7789.58 35511.9 7766.31 35500.3 7733.36 35494.4 7717.84 35475 7636.42 35461.5 7587.95 35434.3 7477.45 35434.3 7473.58 35405.3 7365 35380 7258.38 35376.2 7242.86 35374.2 7186.64 35382 7147.88 35366.5 7111.03 35320 7052.88 35294.8 7021.86 35256 6988.89 35190.1 6988.89 35114.5 6988.89 35015.6 7016.03 35015.6 7167.25 35015.6 7266.13 35069.9 7409.59 35108.6 7508.47 35141.6 7593.77 35149.3 7611.22 35149.3 7644.17 35149.3 7737.23 35069.9 7808.97 34965.2 7808.97 34769.4 7808.97 34682.1 7545.3 34682.1 7512.34 34682.1 7487.14 34709.3 7487.14 34715.1 7487.14 34742.2 7487.14 34744.2 7496.84 34750 7518.16 34798.4 7679.08 34881.8 7754.69 34959.4 7754.69 34992.3 7754.69 35007.8 7733.36 35007.8 7686.83 35007.8 7642.23 34990.4 7599.59 34980.7 7574.39 34870.2 7291.33 34870.2 7252.56 34870.2 7192.45 34870.2 6963.69 35077.6 6934.61 35182.3 6934.61 35219.1 6934.61 35314.1 6934.61 35401.4 7064.5 35446 6977.27 35552.6 6934.61 35670.9 6934.61 35843.4 6934.61 35928.7 7083.89 35967.5 7163.38 36050.8 7326.23 36103.2 7568.56 36103.2 7657.75 36103.2 7803.16 36019.8 7810.91 36006.3 7810.91 35955.8 7810.91 35901.6 7758.56 35901.6 7708.16 35901.6 7675.2 35921 7659.69 35934.5 7648.06 35981 7609.28 36006.3 7555 36006.3 7492.95 36006.3 7467.75 35924.8 6988.89 35678.6 6988.89 35521.6 6988.89 35521.6 7128.48 35521.6 7161.44 35521.6 7213.78 35529.3 7244.81 35556.5 7355.31L35610.8 7572.45"/>
<path transform="matrix(.00359712,0,0,-.00359712,0,71)" d="M38020.8 10313.4C38023.5 10330 38029.1 10343.8 38029.1 10363.2 38029.1 10410.3 37995.8 10438 37948.7 10438 37921 10438 37846.2 10418.6 37835.2 10318.9 37785.3 10421.4 37688.3 10493.4 37577.5 10493.4 37261.7 10493.4 36918.2 10105.6 36918.2 9706.69 36918.2 9432.44 37087.2 9269 37286.7 9269 37450.1 9269 37580.3 9399.2 37608 9429.67L37610.8 9426.91C37552.6 9180.36 37519.4 9066.78 37519.4 9061.23 37508.3 9036.3 37414.1 8762.06 37120.5 8762.06 37067.8 8762.06 36976.4 8764.83 36898.8 8789.75 36981.9 8814.69 37012.4 8886.72 37012.4 8933.81 37012.4 8978.13 36981.9 9030.77 36907.1 9030.77 36846.2 9030.77 36757.5 8980.91 36757.5 8870.09 36757.5 8756.52 36860 8701.11 37126 8701.11 37472.3 8701.11 37671.7 8917.19 37713.3 9083.39L38020.8 10313.4ZM37660.6 9623.58C37644 9551.56 37580.3 9482.3 37519.4 9429.67 37461.2 9379.81 37375.3 9329.94 37295 9329.94 37156.5 9329.94 37114.9 9474 37114.9 9584.8 37114.9 9717.77 37195.3 10044.7 37270 10185.9 37344.8 10321.7 37464 10432.5 37580.3 10432.5 37763.1 10432.5 37801.9 10208.1 37801.9 10194.3 37801.9 10180.4 37796.4 10163.8 37793.6 10152.7L37660.6 9623.58"/>
<path transform="matrix(.00359712,0,0,-.00359712,0,71)" d="M38141.7 8540.88C38133.9 8511.78 38133.9 8502.09 38133.9 8500.16 38133.9 8457.5 38168.8 8438.13 38199.8 8438.13 38269.6 8438.13 38285.2 8502.09 38292.9 8535.05 38296.8 8544.75 38335.6 8699.84 38382.1 8889.83 38442.2 8849.13 38519.7 8833.61 38589.5 8833.61 38756.3 8833.61 38864.8 8969.33 38868.7 8973.2 38905.5 8839.42 39039.3 8833.61 39068.4 8833.61 39138.2 8833.61 39186.7 8876.27 39221.5 8936.36 39264.2 9011.97 39289.4 9122.48 39289.4 9130.23 39289.4 9155.44 39264.2 9155.44 39258.4 9155.44 39231.2 9155.44 39229.3 9147.69 39215.7 9095.34 39192.5 9002.28 39155.6 8887.89 39074.2 8887.89 39023.8 8887.89 39010.2 8930.55 39010.2 8982.89 39010.2 9015.84 39025.7 9085.64 39039.3 9136.05 39052.9 9188.39 39072.3 9267.88 39082 9310.53L39126.5 9483.08C39138.2 9531.55 39159.5 9616.84 39159.5 9626.55 39159.5 9665.31 39128.5 9688.58 39095.5 9688.58 39074.2 9688.58 39037.4 9678.89 39016 9642.05 39010.2 9630.42 38994.7 9568.38 38985 9529.61L38944.3 9368.69 38884.2 9126.36C38870.6 9077.89 38870.6 9074.02 38853.2 9048.81 38793.1 8963.5 38707.8 8887.89 38597.3 8887.89 38438.3 8887.89 38438.3 9025.55 38438.3 9060.44 38438.3 9110.84 38444.1 9136.05 38471.3 9240.73 38490.7 9326.05 38494.5 9339.61 38513.9 9415.22L38541.1 9523.8C38550.8 9564.5 38570.1 9638.17 38570.1 9645.92 38570.1 9680.83 38543 9707.97 38504.2 9707.97 38434.4 9707.97 38417 9640.11 38411.2 9616.84L38141.7 8540.88"/>
<path transform="matrix(.00359712,0,0,-.00359712,0,71)" d="M39869.6 9651.75C39871.5 9659.5 39873.5 9671.13 39873.5 9680.83 39873.5 9682.77 39873.5 9707.97 39842.5 9707.97 39840.5 9707.97 39730 9698.28 39716.5 9698.28 39679.6 9694.39 39644.7 9692.45 39607.9 9688.58 39576.9 9686.64 39553.6 9684.7 39553.6 9643.98 39553.6 9616.84 39580.8 9616.84 39604 9616.84 39697.1 9616.84 39697.1 9605.22 39697.1 9587.77 39697.1 9576.14 39687.4 9537.36 39679.6 9512.16L39582.7 9120.55C39534.2 8926.67 39524.5 8887.89 39524.5 8880.14 39524.5 8853 39553.6 8853 39561.4 8853H39592.4C39764.9 8880.14 40011.1 8971.27 40218.6 9155.44 40482.3 9390.02 40521 9642.05 40521 9645.92 40521 9680.83 40493.9 9707.97 40455.1 9707.97 40387.3 9707.97 40373.7 9653.69 40356.2 9599.41 40278.7 9324.11 40018.9 9027.48 39689.3 8930.55L39869.6 9651.75"/>
<path transform="matrix(.00359712,0,0,-.00359712,0,71)" d="M41293.9 9415.81C41293.9 9496.16 41227.4 9562.64 41147.1 9562.64 41066.7 9562.64 41000.2 9496.16 41000.2 9415.81 41000.2 9335.48 41066.7 9269 41147.1 9269 41227.4 9269 41293.9 9335.48 41293.9 9415.81"/>
</svg>
