<svg xmlns="http://www.w3.org/2000/svg" xmlns:xlink="http://www.w3.org/1999/xlink" version="1.1" width="121pt" height="56pt" viewBox="0 0 121 56">
<path transform="matrix(.00359712,0,0,-.00359712,0,56)" stroke-width="110.783" stroke-linecap="butt" stroke-miterlimit="10" stroke-linejoin="miter" fill="none" stroke="#000000" d="M9057.85 7829.04H14808.3"/>
<path transform="matrix(.00359712,0,0,-.00359712,0,56)" d="M15362.2 7829.04 14475.9 8272.17 14808.3 7829.04 14475.9 7385.9"/>
<path transform="matrix(.00359712,0,0,-.00359712,0,56)" d="M648.031 7712.91C728.359 7712.91 933.359 7718.45 1071.86 7776.63 1265.78 7859.73 1279.63 8023.17 1279.63 8061.95 1279.63 8183.84 1174.36 8297.42 983.219 8297.42 675.734 8297.42 257.422 8028.72 257.422 7543.94 257.422 7261.38 420.875 7042.53 692.344 7042.53 1088.48 7042.53 1321.19 7336.17 1321.19 7369.41 1321.19 7386.03 1304.56 7405.42 1287.94 7405.42 1274.09 7405.42 1268.55 7399.88 1251.92 7377.72 1033.08 7103.47 731.125 7103.47 697.891 7103.47 481.813 7103.47 456.875 7336.17 456.875 7424.81 456.875 7458.06 459.656 7543.94 501.203 7712.91H648.031ZM517.828 7773.86C625.859 8194.92 911.188 8236.48 983.219 8236.48 1113.42 8236.48 1188.22 8156.14 1188.22 8061.95 1188.22 7773.86 744.984 7773.86 631.406 7773.86H517.828"/>
<path transform="matrix(.00359712,0,0,-.00359712,0,56)" d="M2862.39 8516.14C2893.41 8516.14 2939.94 8516.14 2939.94 8562.67 2939.94 8611.14 2895.34 8611.14 2862.39 8611.14H1706.92C1675.91 8611.14 1629.38 8611.14 1629.38 8564.61 1629.38 8516.14 1673.97 8516.14 1706.92 8516.14H2862.39"/>
<path transform="matrix(.00359712,0,0,-.00359712,0,56)" d="M4205.94 6408.16C4205.94 6416.47 4205.94 6422 4158.84 6469.09 3812.56 6818.14 3723.92 7341.7 3723.92 7765.55 3723.92 8247.56 3829.19 8729.58 4169.92 9075.84 4205.94 9109.09 4205.94 9114.63 4205.94 9122.94 4205.94 9142.33 4194.84 9150.64 4178.23 9150.64 4150.53 9150.64 3901.22 8962.27 3737.77 8610.45 3596.48 8305.73 3563.25 7998.25 3563.25 7765.55 3563.25 7549.47 3593.72 7214.28 3746.08 6901.25 3912.3 6560.52 4150.53 6380.45 4178.23 6380.45 4194.84 6380.45 4205.94 6388.77 4205.94 6408.16"/>
<path transform="matrix(.00359712,0,0,-.00359712,0,56)" d="M4490.66 6735.03C4468.5 6640.84 4462.95 6621.45 4341.06 6621.45 4307.83 6621.45 4277.36 6621.45 4277.36 6568.83 4277.36 6546.67 4291.2 6535.58 4313.36 6535.58 4388.16 6535.58 4468.5 6543.89 4546.06 6543.89 4637.48 6543.89 4731.67 6535.58 4820.31 6535.58 4834.16 6535.58 4870.17 6535.58 4870.17 6590.98 4870.17 6621.45 4842.47 6621.45 4803.69 6621.45 4665.19 6621.45 4665.19 6640.84 4665.19 6665.78 4665.19 6699.03 4781.53 7150.56 4800.92 7219.81 4836.94 7139.48 4914.5 7042.53 5055.78 7042.53 5377.13 7042.53 5723.39 7446.97 5723.39 7854.19 5723.39 8114.59 5565.48 8297.42 5354.95 8297.42 5216.45 8297.42 5083.48 8197.7 4992.06 8089.66 4964.36 8239.25 4845.25 8297.42 4742.75 8297.42 4615.31 8297.42 4562.69 8189.39 4537.75 8139.52 4487.89 8045.33 4451.88 7879.13 4451.88 7870.81 4451.88 7843.11 4479.58 7843.11 4485.13 7843.11 4512.81 7843.11 4515.59 7845.88 4532.22 7906.83 4579.3 8103.52 4634.7 8236.48 4734.44 8236.48 4781.53 8236.48 4820.31 8214.31 4820.31 8109.05 4820.31 8045.33 4812 8014.86 4800.92 7967.77L4490.66 6735.03ZM4978.22 7937.3C4997.61 8012.09 5072.39 8089.66 5122.27 8131.22 5219.22 8217.09 5299.55 8236.48 5346.64 8236.48 5457.45 8236.48 5523.94 8139.52 5523.94 7976.08 5523.94 7812.64 5432.52 7494.06 5382.66 7388.8 5288.47 7194.89 5155.5 7103.47 5053 7103.47 4870.17 7103.47 4834.16 7333.39 4834.16 7350.02 4834.16 7355.56 4834.16 7361.09 4842.47 7394.34L4978.22 7937.3"/>
<path transform="matrix(.00359712,0,0,-.00359712,0,56)" d="M6409.47 7890.02C6409.47 7942.36 6405.59 7944.3 6351.3 7944.3 6227.23 7822.16 6050.81 7820.22 5971.31 7820.22V7750.42C6017.84 7750.42 6145.8 7750.42 6252.44 7804.7V6815.97C6252.44 6752 6252.44 6726.8 6058.56 6726.8H5984.89V6657C6019.78 6658.94 6258.25 6664.75 6329.98 6664.75 6390.08 6664.75 6634.36 6658.94 6677 6657V6726.8H6603.33C6409.47 6726.8 6409.47 6752 6409.47 6815.97V7890.02"/>
<path transform="matrix(.00359712,0,0,-.00359712,0,56)" d="M7802.58 7765.55C7802.58 7981.63 7772.11 8316.81 7619.75 8629.84 7453.55 8970.58 7215.3 9150.64 7187.61 9150.64 7170.98 9150.64 7159.91 9139.56 7159.91 9122.94 7159.91 9114.63 7159.91 9109.09 7212.53 9059.22 7484.02 8784.97 7641.91 8344.52 7641.91 7765.55 7641.91 7291.84 7539.42 6804.3 7195.91 6455.25 7159.91 6422 7159.91 6416.47 7159.91 6408.16 7159.91 6391.53 7170.98 6380.45 7187.61 6380.45 7215.3 6380.45 7464.63 6568.83 7628.06 6920.64 7769.34 7225.36 7802.58 7532.84 7802.58 7765.55"/>
<path transform="matrix(.00359712,0,0,-.00359712,0,56)" stroke-width="110.783" stroke-linecap="butt" stroke-miterlimit="10" stroke-linejoin="miter" fill="none" stroke="#000000" d="M24818.7 7829.04H19068.2"/>
<path transform="matrix(.00359712,0,0,-.00359712,0,56)" d="M18514.3 7829.04 19400.6 7385.9 19068.2 7829.04 19400.6 8272.17"/>
<path transform="matrix(.00359712,0,0,-.00359712,0,56)" d="M26315 7712.91C26395.4 7712.91 26600.4 7718.45 26738.9 7776.63 26932.8 7859.73 26946.6 8023.17 26946.6 8061.95 26946.6 8183.84 26841.4 8297.42 26650.2 8297.42 26342.7 8297.42 25924.4 8028.72 25924.4 7543.94 25924.4 7261.38 26087.9 7042.53 26359.3 7042.53 26755.5 7042.53 26988.2 7336.17 26988.2 7369.41 26988.2 7386.03 26971.6 7405.42 26954.9 7405.42 26941.1 7405.42 26935.5 7399.88 26918.9 7377.72 26700.1 7103.47 26398.1 7103.47 26364.9 7103.47 26148.8 7103.47 26123.9 7336.17 26123.9 7424.81 26123.9 7458.06 26126.7 7543.94 26168.2 7712.91H26315ZM26184.8 7773.86C26292.9 8194.92 26578.2 8236.48 26650.2 8236.48 26780.4 8236.48 26855.2 8156.14 26855.2 8061.95 26855.2 7773.86 26412 7773.86 26298.4 7773.86H26184.8"/>
<path transform="matrix(.00359712,0,0,-.00359712,0,56)" d="M27984.6 8516.14H28577.9C28603.1 8516.14 28649.6 8516.14 28649.6 8562.67 28649.6 8611.14 28605 8611.14 28577.9 8611.14H27984.6V9206.33C27984.6 9231.53 27984.6 9278.06 27938.1 9278.06 27889.6 9278.06 27889.6 9233.47 27889.6 9206.33V8611.14H27294.4C27269.2 8611.14 27222.7 8611.14 27222.7 8564.61 27222.7 8516.14 27267.3 8516.14 27294.4 8516.14H27889.6V7920.97C27889.6 7895.77 27889.6 7849.23 27936.2 7849.23 27984.6 7849.23 27984.6 7893.83 27984.6 7920.97V8516.14"/>
<path transform="matrix(.00359712,0,0,-.00359712,0,56)" d="M29842.9 6408.16C29842.9 6416.47 29842.9 6422 29795.8 6469.09 29449.6 6818.14 29360.9 7341.7 29360.9 7765.55 29360.9 8247.56 29466.2 8729.58 29806.9 9075.84 29842.9 9109.09 29842.9 9114.63 29842.9 9122.94 29842.9 9142.33 29831.8 9150.64 29815.2 9150.64 29787.5 9150.64 29538.2 8962.27 29374.8 8610.45 29233.5 8305.73 29200.3 7998.25 29200.3 7765.55 29200.3 7549.47 29230.7 7214.28 29383.1 6901.25 29549.3 6560.52 29787.5 6380.45 29815.2 6380.45 29831.8 6380.45 29842.9 6388.77 29842.9 6408.16"/>
<path transform="matrix(.00359712,0,0,-.00359712,0,56)" d="M30127.7 6735.03C30105.5 6640.84 30100 6621.45 29978.1 6621.45 29944.8 6621.45 29914.4 6621.45 29914.4 6568.83 29914.4 6546.67 29928.2 6535.58 29950.4 6535.58 30025.2 6535.58 30105.5 6543.89 30183.1 6543.89 30274.5 6543.89 30368.7 6535.58 30457.3 6535.58 30471.2 6535.58 30507.2 6535.58 30507.2 6590.98 30507.2 6621.45 30479.5 6621.45 30440.7 6621.45 30302.2 6621.45 30302.2 6640.84 30302.2 6665.78 30302.2 6699.03 30418.5 7150.56 30437.9 7219.81 30473.9 7139.48 30551.5 7042.53 30692.8 7042.53 31014.1 7042.53 31360.4 7446.97 31360.4 7854.19 31360.4 8114.59 31202.5 8297.42 30992 8297.42 30853.5 8297.42 30720.5 8197.7 30629.1 8089.66 30601.4 8239.25 30482.3 8297.42 30379.8 8297.42 30252.3 8297.42 30199.7 8189.39 30174.8 8139.52 30124.9 8045.33 30088.9 7879.13 30088.9 7870.81 30088.9 7843.11 30116.6 7843.11 30122.1 7843.11 30149.8 7843.11 30152.6 7845.88 30169.2 7906.83 30216.3 8103.52 30271.7 8236.48 30371.4 8236.48 30418.5 8236.48 30457.3 8214.31 30457.3 8109.05 30457.3 8045.33 30449 8014.86 30437.9 7967.77L30127.7 6735.03ZM30615.2 7937.3C30634.6 8012.09 30709.4 8089.66 30759.3 8131.22 30856.2 8217.09 30936.5 8236.48 30983.6 8236.48 31094.5 8236.48 31160.9 8139.52 31160.9 7976.08 31160.9 7812.64 31069.5 7494.06 31019.7 7388.8 30925.5 7194.89 30792.5 7103.47 30690 7103.47 30507.2 7103.47 30471.2 7333.39 30471.2 7350.02 30471.2 7355.56 30471.2 7361.09 30479.5 7394.34L30615.2 7937.3"/>
<path transform="matrix(.00359712,0,0,-.00359712,0,56)" d="M32375 7009.84H32309.1C32303.3 6967.19 32283.9 6852.81 32258.7 6833.42 32243.2 6821.8 32093.9 6821.8 32066.8 6821.8H31710.1C31913.6 7002.09 31981.5 7056.38 32097.8 7147.48 32241.3 7261.88 32375 7382.08 32375 7566.25 32375 7800.83 32169.5 7944.3 31921.4 7944.3 31681 7944.3 31518.1 7775.63 31518.1 7597.27 31518.1 7498.39 31601.5 7488.7 31620.9 7488.7 31667.4 7488.7 31723.6 7521.66 31723.6 7591.45 31723.6 7626.34 31710.1 7694.2 31609.3 7694.2 31669.4 7831.86 31801.2 7874.5 31892.3 7874.5 32086.2 7874.5 32187 7723.28 32187 7566.25 32187 7397.58 32066.8 7263.81 32004.8 7194.02L31537.5 6732.61C31518.1 6715.16 31518.1 6711.28 31518.1 6657H32316.9L32375 7009.84"/>
<path transform="matrix(.00359712,0,0,-.00359712,0,56)" d="M33439.6 7765.55C33439.6 7981.63 33409.1 8316.81 33256.8 8629.84 33090.5 8970.58 32852.3 9150.64 32824.6 9150.64 32808 9150.64 32796.9 9139.56 32796.9 9122.94 32796.9 9114.63 32796.9 9109.09 32849.5 9059.22 33121 8784.97 33278.9 8344.52 33278.9 7765.55 33278.9 7291.84 33176.4 6804.3 32832.9 6455.25 32796.9 6422 32796.9 6416.47 32796.9 6408.16 32796.9 6391.53 32808 6380.45 32824.6 6380.45 32852.3 6380.45 33101.6 6568.83 33265.1 6920.64 33406.3 7225.36 33439.6 7532.84 33439.6 7765.55"/>
<path transform="matrix(.00359712,0,0,-.00359712,0,56)" stroke-width="110.783" stroke-linecap="butt" stroke-miterlimit="10" stroke-linejoin="miter" fill="none" stroke="#000000" d="M18303.2 8617 23283.2 11492.3"/>
<path transform="matrix(.00359712,0,0,-.00359712,0,56)" d="M23762.9 11769.2 22773.8 11709.9 23283.2 11492.3 23216.9 10942.4"/>
<path transform="matrix(.00359712,0,0,-.00359712,0,56)" d="M21449.3 15010.7C21518.5 15132.6 21585 15232.3 21759.5 15246.2 21784.5 15248.9 21812.2 15248.9 21812.2 15301.6 21812.2 15312.6 21801.1 15332 21778.9 15332 21712.4 15332 21634.9 15323.7 21565.6 15323.7 21471.4 15323.7 21368.9 15332 21277.5 15332 21260.9 15332 21224.9 15332 21224.9 15279.4 21224.9 15248.9 21249.8 15246.2 21266.4 15246.2 21332.9 15243.4 21429.9 15221.2 21429.9 15138.1 21429.9 15107.7 21416 15085.5 21393.9 15046.7L20645.9 13742 20543.4 15116C20540.6 15171.4 20535.1 15243.4 20737.3 15246.2 20784.4 15246.2 20812.1 15246.2 20812.1 15301.6 20812.1 15329.3 20781.6 15332 20770.6 15332 20659.8 15332 20543.4 15323.7 20432.6 15323.7 20368.9 15323.7 20205.5 15332 20141.7 15332 20125.1 15332 20089.1 15332 20089.1 15276.6 20089.1 15246.2 20116.8 15246.2 20155.6 15246.2 20277.5 15246.2 20296.9 15229.5 20302.4 15176.9L20319 14963.6 19618.2 13742 19512.9 15146.4C19512.9 15179.7 19512.9 15243.4 19723.4 15246.2 19751.1 15246.2 19781.6 15246.2 19781.6 15301.6 19781.6 15332 19748.4 15332 19742.8 15332 19632 15332 19515.7 15323.7 19402.1 15323.7 19305.1 15323.7 19205.4 15332 19111.2 15332 19097.4 15332 19061.4 15332 19061.4 15279.4 19061.4 15246.2 19086.3 15246.2 19130.6 15246.2 19269.1 15246.2 19271.9 15221.2 19277.4 15143.7L19402.1 13451.1C19404.9 13401.2 19407.6 13379.1 19446.4 13379.1 19479.7 13379.1 19488 13395.7 19512.9 13437.2L20327.3 14850 20429.8 13451.1C20435.4 13392.9 20440.9 13379.1 20474.2 13379.1 20510.2 13379.1 20526.8 13406.8 20540.6 13431.7L21449.3 15010.7"/>
<path transform="matrix(.00359712,0,0,-.00359712,0,56)" d="M23351.4 14883.1C23382.4 14883.1 23428.9 14883.1 23428.9 14929.7 23428.9 14978.1 23384.3 14978.1 23351.4 14978.1H22195.9C22164.9 14978.1 22118.4 14978.1 22118.4 14931.6 22118.4 14883.1 22163 14883.1 22195.9 14883.1H23351.4"/>
<path transform="matrix(.00359712,0,0,-.00359712,0,56)" d="M24695.9 12775.2C24695.9 12783.5 24695.9 12789 24648.8 12836.1 24302.6 13185.1 24213.9 13708.7 24213.9 14132.5 24213.9 14614.6 24319.2 15096.6 24659.9 15442.8 24695.9 15476.1 24695.9 15481.6 24695.9 15489.9 24695.9 15509.3 24684.8 15517.6 24668.2 15517.6 24640.5 15517.6 24391.2 15329.3 24227.8 14977.5 24086.5 14672.7 24053.3 14365.3 24053.3 14132.5 24053.3 13916.5 24083.7 13581.3 24236.1 13268.3 24402.3 12927.5 24640.5 12747.5 24668.2 12747.5 24684.8 12747.5 24695.9 12755.8 24695.9 12775.2"/>
<path transform="matrix(.00359712,0,0,-.00359712,0,56)" d="M25651 15332C25651 15334.8 25651 15362.5 25615 15362.5 25551.3 15362.5 25349.1 15340.3 25277.1 15334.8 25254.9 15332 25224.4 15329.3 25224.4 15279.4 25224.4 15246.2 25249.4 15246.2 25290.9 15246.2 25423.9 15246.2 25429.4 15226.8 25429.4 15199.1L25421.1 15143.7 25019.4 13548C25008.4 13509.3 25008.4 13503.7 25008.4 13487.1 25008.4 13423.4 25063.8 13409.5 25088.7 13409.5 25124.7 13409.5 25166.3 13434.5 25182.9 13467.7 25196.7 13492.6 25321.4 14005.1 25338 14074.4 25432.2 14066.1 25659.4 14021.7 25659.4 13838.9 25659.4 13819.5 25659.4 13808.4 25651 13780.7 25645.5 13747.5 25640 13714.3 25640 13683.8 25640 13520.3 25750.8 13409.5 25894.8 13409.5 25977.9 13409.5 26052.7 13453.8 26113.7 13556.3 26182.9 13678.2 26213.4 13830.6 26213.4 13836.1 26213.4 13863.8 26188.5 13863.8 26180.2 13863.8 26152.5 13863.8 26149.7 13852.8 26141.4 13814 26086 13611.8 26022.3 13470.5 25900.4 13470.5 25847.7 13470.5 25811.7 13500.9 25811.7 13600.7 25811.7 13647.8 25822.8 13711.5 25833.9 13755.8 25845 13802.9 25845 13814 25845 13841.7 25845 14021.7 25670.4 14102.1 25435 14132.5 25520.8 14182.4 25609.5 14271.1 25673.2 14337.5 25806.2 14484.4 25933.6 14603.5 26069.3 14603.5 26086 14603.5 26088.7 14603.5 26094.3 14600.7 26127.5 14595.2 26130.3 14595.2 26152.5 14578.5 26158 14575.8 26158 14573 26163.5 14567.5 26030.6 14559.2 26005.6 14451.1 26005.6 14417.9 26005.6 14373.5 26036.1 14320.9 26110.9 14320.9 26182.9 14320.9 26263.3 14381.9 26263.3 14489.9 26263.3 14573 26199.5 14664.4 26074.9 14664.4 25997.3 14664.4 25869.9 14642.3 25670.4 14420.6 25576.3 14315.4 25468.2 14204.6 25362.9 14163L25651 15332"/>
<path transform="matrix(.00359712,0,0,-.00359712,0,56)" d="M26947.5 14258C26947.5 14310.4 26943.6 14312.3 26889.3 14312.3 26765.2 14190.2 26588.8 14188.2 26509.3 14188.2V14118.4C26555.8 14118.4 26683.8 14118.4 26790.4 14172.7V13184C26790.4 13120 26790.4 13094.8 26596.6 13094.8H26522.9V13025C26557.8 13026.9 26796.3 13032.8 26868 13032.8 26928.1 13032.8 27172.4 13026.9 27215 13025V13094.8H27141.3C26947.5 13094.8 26947.5 13120 26947.5 13184V14258"/>
<path transform="matrix(.00359712,0,0,-.00359712,0,56)" d="M28340.6 14132.5C28340.6 14348.6 28310.1 14683.8 28157.8 14996.8 27991.5 15337.6 27753.3 15517.6 27725.6 15517.6 27709 15517.6 27697.9 15506.6 27697.9 15489.9 27697.9 15481.6 27697.9 15476.1 27750.5 15426.2 28022 15152 28179.9 14711.5 28179.9 14132.5 28179.9 13658.8 28077.4 13171.3 27733.9 12822.3 27697.9 12789 27697.9 12783.5 27697.9 12775.2 27697.9 12758.5 27709 12747.5 27725.6 12747.5 27753.3 12747.5 28002.6 12935.8 28166.1 13287.6 28307.3 13592.4 28340.6 13899.8 28340.6 14132.5"/>
<path transform="matrix(.00359712,0,0,-.00359712,0,56)" stroke-width="110.783" stroke-linecap="butt" stroke-miterlimit="10" stroke-linejoin="miter" fill="none" stroke="#000000" d="M15573.4 7041.07 10593.3 4165.79"/>
<path transform="matrix(.00359712,0,0,-.00359712,0,56)" d="M10113.6 3888.84 11102.7 3948.2 10593.3 4165.79 10659.6 4715.72"/>
<path transform="matrix(.00359712,0,0,-.00359712,0,56)" d="M7815.27 2275.7C7884.52 2397.58 7951 2497.31 8125.52 2511.16 8150.45 2513.94 8178.16 2513.94 8178.16 2566.56 8178.16 2577.64 8167.08 2597.03 8144.92 2597.03 8078.44 2597.03 8000.86 2588.73 7931.61 2588.73 7837.42 2588.73 7734.92 2597.03 7643.52 2597.03 7626.89 2597.03 7590.88 2597.03 7590.88 2544.41 7590.88 2513.94 7615.81 2511.16 7632.44 2511.16 7698.92 2508.39 7795.88 2486.23 7795.88 2403.13 7795.88 2372.66 7782.02 2350.48 7759.86 2311.7L7011.91 1006.95 6909.41 2380.97C6906.64 2436.38 6901.09 2508.39 7103.33 2511.16 7150.42 2511.16 7178.13 2511.16 7178.13 2566.56 7178.13 2594.27 7147.64 2597.03 7136.56 2597.03 7025.77 2597.03 6909.41 2588.73 6798.61 2588.73 6734.89 2588.73 6571.45 2597.03 6507.73 2597.03 6491.11 2597.03 6455.09 2597.03 6455.09 2541.64 6455.09 2511.16 6482.8 2511.16 6521.58 2511.16 6643.47 2511.16 6662.86 2494.55 6668.41 2441.91L6685.03 2228.61 5984.17 1006.95 5878.91 2411.44C5878.91 2444.67 5878.91 2508.39 6089.44 2511.16 6117.14 2511.16 6147.61 2511.16 6147.61 2566.56 6147.61 2597.03 6114.36 2597.03 6108.83 2597.03 5998.02 2597.03 5881.67 2588.73 5768.09 2588.73 5671.14 2588.73 5571.41 2597.03 5477.22 2597.03 5463.38 2597.03 5427.36 2597.03 5427.36 2544.41 5427.36 2511.16 5452.3 2511.16 5496.61 2511.16 5635.13 2511.16 5637.89 2486.23 5643.44 2408.67L5768.09 716.078C5770.86 666.219 5773.64 644.063 5812.42 644.063 5845.66 644.063 5853.97 660.672 5878.91 702.234L6693.34 2115.03 6795.83 716.078C6801.38 657.906 6806.91 644.063 6840.16 644.063 6876.17 644.063 6892.8 671.75 6906.64 696.688L7815.27 2275.7"/>
<path transform="matrix(.00359712,0,0,-.00359712,0,56)" d="M9172.63 2148.14H9765.86C9791.06 2148.14 9837.59 2148.14 9837.59 2194.67 9837.59 2243.14 9793 2243.14 9765.86 2243.14H9172.63V2838.33C9172.63 2863.53 9172.63 2910.06 9126.09 2910.06 9077.63 2910.06 9077.63 2865.47 9077.63 2838.33V2243.14H8482.44C8457.23 2243.14 8410.7 2243.14 8410.7 2196.61 8410.7 2148.14 8455.3 2148.14 8482.44 2148.14H9077.63V1552.97C9077.63 1527.77 9077.63 1481.23 9124.16 1481.23 9172.63 1481.23 9172.63 1525.83 9172.63 1552.97V2148.14"/>
<path transform="matrix(.00359712,0,0,-.00359712,0,56)" d="M11030.9 40.1563C11030.9 48.4688 11030.9 54 10983.8 101.094 10637.6 450.141 10548.9 973.703 10548.9 1397.55 10548.9 1879.56 10654.2 2361.58 10994.9 2707.84 11030.9 2741.09 11030.9 2746.63 11030.9 2754.94 11030.9 2774.33 11019.8 2782.64 11003.2 2782.64 10975.5 2782.64 10726.2 2594.27 10562.8 2242.45 10421.5 1937.73 10388.3 1630.25 10388.3 1397.55 10388.3 1181.47 10418.7 846.281 10571.1 533.25 10737.3 192.516 10975.5 12.4531 11003.2 12.4531 11019.8 12.4531 11030.9 20.7656 11030.9 40.1563"/>
<path transform="matrix(.00359712,0,0,-.00359712,0,56)" d="M11986 2597.03C11986 2599.81 11986 2627.52 11950 2627.52 11886.3 2627.52 11684.1 2605.34 11612.1 2599.81 11589.9 2597.03 11559.4 2594.27 11559.4 2544.41 11559.4 2511.16 11584.4 2511.16 11625.9 2511.16 11758.9 2511.16 11764.4 2491.77 11764.4 2464.06L11756.1 2408.67 11354.4 813.031C11343.4 774.25 11343.4 768.719 11343.4 752.094 11343.4 688.375 11398.8 674.531 11423.7 674.531 11459.7 674.531 11501.3 699.453 11517.9 732.703 11531.7 757.641 11656.4 1270.13 11673 1339.38 11767.2 1331.06 11994.4 1286.73 11994.4 1103.91 11994.4 1084.52 11994.4 1073.44 11986 1045.73 11980.5 1012.48 11975 979.25 11975 948.781 11975 785.328 12085.8 674.531 12229.8 674.531 12312.9 674.531 12387.7 718.844 12448.7 821.344 12517.9 943.234 12548.4 1095.59 12548.4 1101.14 12548.4 1128.84 12523.5 1128.84 12515.2 1128.84 12487.5 1128.84 12484.7 1117.77 12476.4 1078.97 12421 876.75 12357.3 735.469 12235.4 735.469 12182.7 735.469 12146.7 765.938 12146.7 865.672 12146.7 912.766 12157.8 976.484 12168.9 1020.8 12180 1067.89 12180 1078.97 12180 1106.67 12180 1286.73 12005.4 1367.08 11770 1397.55 11855.8 1447.41 11944.5 1536.06 12008.2 1602.55 12141.2 1749.36 12268.6 1868.48 12404.3 1868.48 12421 1868.48 12423.7 1868.48 12429.3 1865.7 12462.5 1860.17 12465.3 1860.17 12487.5 1843.55 12493 1840.78 12493 1838 12498.5 1832.47 12365.6 1824.16 12340.6 1716.13 12340.6 1682.88 12340.6 1638.55 12371.1 1585.92 12445.9 1585.92 12517.9 1585.92 12598.3 1646.86 12598.3 1754.91 12598.3 1838 12534.5 1929.42 12409.9 1929.42 12332.3 1929.42 12204.9 1907.27 12005.4 1685.64 11911.3 1580.38 11803.2 1469.58 11697.9 1428.02L11986 2597.03"/>
<path transform="matrix(.00359712,0,0,-.00359712,0,56)" d="M13612 641.844H13546.1C13540.3 599.188 13520.9 484.813 13495.7 465.422 13480.2 453.797 13330.9 453.797 13303.8 453.797H12947.1C13150.6 634.094 13218.5 688.375 13334.8 779.484 13478.3 893.875 13612 1014.08 13612 1198.25 13612 1432.83 13406.5 1576.3 13158.4 1576.3 12918 1576.3 12755.1 1407.63 12755.1 1229.27 12755.1 1130.39 12838.5 1120.7 12857.9 1120.7 12904.4 1120.7 12960.6 1153.66 12960.6 1223.45 12960.6 1258.34 12947.1 1326.2 12846.3 1326.2 12906.4 1463.86 13038.2 1506.5 13129.3 1506.5 13323.2 1506.5 13424 1355.28 13424 1198.25 13424 1029.58 13303.8 895.813 13241.8 826.016L12774.5 364.609C12755.1 347.156 12755.1 343.281 12755.1 289H13553.9L13612 641.844"/>
<path transform="matrix(.00359712,0,0,-.00359712,0,56)" d="M14675.6 1397.55C14675.6 1613.63 14645.1 1948.81 14492.8 2261.84 14326.5 2602.58 14088.3 2782.64 14060.6 2782.64 14044 2782.64 14032.9 2771.56 14032.9 2754.94 14032.9 2746.63 14032.9 2741.09 14085.5 2691.22 14357 2416.97 14514.9 1976.52 14514.9 1397.55 14514.9 923.844 14412.4 436.297 14068.9 87.25 14032.9 54 14032.9 48.4688 14032.9 40.1563 14032.9 23.5313 14044 12.4531 14060.6 12.4531 14088.3 12.4531 14337.6 200.828 14501.1 552.641 14642.3 857.359 14675.6 1164.84 14675.6 1397.55"/>
<path transform="matrix(.00359712,0,0,-.00359712,0,56)" stroke-width="110.783" stroke-linecap="butt" stroke-miterlimit="10" stroke-linejoin="miter" fill="none" stroke="#000000" d="M20878.5 7829.04C20878.5 8520.5 20696.3 9200.25 20350.5 9799.07"/>
<path transform="matrix(.00359712,0,0,-.00359712,0,56)" d="M22838.4 9680.09C22838.4 9862.92 22788.6 10248 22506 10248 22121 10248 21694.3 9466.8 21694.3 8832.42 21694.3 8572.02 21774.7 8264.53 22026.8 8264.53 22417.4 8264.53 22838.4 9059.58 22838.4 9680.09ZM21988 9300.58C22035.1 9477.88 22090.5 9699.48 22201.3 9896.17 22276.1 10031.9 22378.6 10187 22503.3 10187 22639 10187 22655.6 10009.8 22655.6 9851.84 22655.6 9716.11 22633.4 9574.83 22567 9300.58H21988ZM22542 9211.94C22511.5 9084.5 22453.4 8849.03 22348.1 8649.58 22251.2 8461.22 22145.9 8325.47 22026.8 8325.47 21935.4 8325.47 21877.2 8405.81 21877.2 8663.44 21877.2 8779.78 21893.8 8940.45 21965.8 9211.94H22542"/>
</svg>
