<svg xmlns="http://www.w3.org/2000/svg" xmlns:xlink="http://www.w3.org/1999/xlink" version="1.1" width="390pt" height="58pt" viewBox="0 0 390 58">
<path transform="matrix(.00359712,0,0,-.00359712,0,58)" d="M845.734 8176.38C845.734 8231.77 806.953 8276.09 743.234 8276.09 668.438 8276.09 593.641 8204.06 593.641 8129.28 593.641 8076.64 632.422 8029.55 698.906 8029.55 762.625 8029.55 845.734 8093.27 845.734 8176.38ZM635.203 7134.78C668.438 7215.11 668.438 7220.66 696.141 7295.45 718.313 7350.84 732.156 7389.64 732.156 7442.27 732.156 7566.92 643.516 7669.42 505 7669.42 244.609 7669.42 139.328 7267.75 139.328 7242.81 139.328 7215.11 167.031 7215.11 172.578 7215.11 200.281 7215.11 203.047 7220.66 216.906 7264.97 291.703 7525.38 402.5 7608.48 496.688 7608.48 518.844 7608.48 565.938 7608.48 565.938 7519.83 565.938 7461.66 546.547 7403.48 535.469 7375.78 513.313 7303.77 388.656 6982.42 344.328 6863.3 316.625 6791.28 280.609 6699.86 280.609 6641.69 280.609 6511.48 374.797 6414.53 507.766 6414.53 768.172 6414.53 870.672 6816.2 870.672 6841.14 870.672 6868.84 845.734 6868.84 837.422 6868.84 809.719 6868.84 809.719 6860.53 795.875 6818.97 746 6644.45 654.594 6475.47 513.313 6475.47 466.219 6475.47 446.828 6503.17 446.828 6566.89 446.828 6636.14 463.453 6674.92 527.156 6843.91L635.203 7134.78"/>
<path transform="matrix(.00359712,0,0,-.00359712,0,58)" d="M2333.38 7098.77C2333.38 7533.69 2075.75 7669.42 1870.77 7669.42 1491.25 7669.42 1125.58 7273.28 1125.58 6882.69 1125.58 6625.06 1291.78 6414.53 1574.34 6414.53 1748.88 6414.53 1948.33 6478.25 2158.86 6647.22 2194.88 6500.41 2286.28 6414.53 2410.94 6414.53 2557.77 6414.53 2643.64 6566.89 2643.64 6611.22 2643.64 6630.61 2627.02 6638.91 2610.39 6638.91 2591 6638.91 2582.7 6630.61 2574.39 6611.22 2524.52 6475.47 2424.8 6475.47 2419.25 6475.47 2333.38 6475.47 2333.38 6691.55 2333.38 6758.03 2333.38 6816.2 2333.38 6821.75 2361.08 6854.98 2621.48 7181.88 2679.66 7503.22 2679.66 7505.98 2679.66 7511.52 2676.89 7533.69 2646.41 7533.69 2618.7 7533.69 2618.7 7525.38 2604.86 7475.52 2555 7300.98 2463.58 7090.45 2333.38 6927.02V7098.77ZM2147.78 6719.25C1904 6505.94 1690.7 6475.47 1579.89 6475.47 1413.67 6475.47 1330.58 6600.13 1330.58 6777.42 1330.58 6913.16 1402.59 7212.34 1491.25 7353.63 1621.44 7555.84 1771.03 7608.48 1867.98 7608.48 2142.23 7608.48 2142.23 7245.58 2142.23 7029.52 2142.23 6927.02 2142.23 6766.34 2147.78 6719.25"/>
<path transform="matrix(.00359712,0,0,-.00359712,0,58)" stroke-width="110.783" stroke-linecap="butt" stroke-miterlimit="10" stroke-linejoin="miter" fill="none" stroke="#000000" d="M10490 7358.66C10490 8011.5 9960.78 8540.71 9307.94 8540.71 8655.1 8540.71 8125.88 8011.5 8125.88 7358.66 8125.88 6705.82 8655.1 6176.61 9307.94 6176.61 9960.78 6176.61 10490 6705.82 10490 7358.66ZM9307.94 7358.66"/>
<path transform="matrix(.00359712,0,0,-.00359712,0,58)" stroke-width="110.783" stroke-linecap="butt" stroke-miterlimit="10" stroke-linejoin="miter" fill="none" stroke="#000000" d="M8472.1 6522.82 10143.8 8194.5M8472.1 8194.5 10143.8 6522.82"/>
<path transform="matrix(.00359712,0,0,-.00359712,0,58)" d="M16782.8 8397.38C16782.8 8450 16744 8497.09 16677.5 8497.09 16613.8 8497.09 16530.7 8433.38 16530.7 8350.28 16530.7 8294.88 16569.5 8250.55 16633.2 8250.55 16708 8250.55 16782.8 8322.58 16782.8 8397.38ZM16226 6527.48C16173.3 6316.95 16040.4 6159.06 15885.2 6159.06 15868.6 6159.06 15827 6159.06 15777.2 6183.98 15860.3 6203.38 15901.8 6275.41 15901.8 6330.81 15901.8 6375.13 15871.4 6427.77 15796.6 6427.77 15727.3 6427.77 15647 6369.59 15647 6269.86 15647 6159.06 15757.8 6098.11 15890.8 6098.11 16084.7 6098.11 16342.3 6244.94 16411.6 6519.19L16666.4 7533.06C16680.3 7588.47 16680.3 7627.25 16680.3 7635.56 16680.3 7793.47 16563.9 7890.42 16425.4 7890.42 16142.8 7890.42 15985 7488.75 15985 7463.81 15985 7436.11 16012.7 7436.11 16018.2 7436.11 16043.1 7436.11 16045.9 7438.88 16068.1 7491.52 16137.3 7660.5 16264.7 7829.48 16417.1 7829.48 16455.9 7829.48 16505.8 7818.39 16505.8 7702.05 16505.8 7638.33 16497.4 7607.86 16486.4 7560.77L16226 6527.48"/>
<path transform="matrix(.00359712,0,0,-.00359712,0,58)" d="M18571.9 8242.23C18571.9 8450 18419.5 8621.75 18195.1 8621.75 18034.4 8621.75 17956.9 8577.42 17859.9 8505.41 17707.6 8394.59 17555.2 8125.89 17502.6 7915.36L17062.1 6156.28C17059.3 6145.2 17073.2 6128.58 17095.3 6128.58 17117.5 6128.58 17125.8 6134.13 17128.6 6142.44L17322.5 6907C17375.1 6740.8 17497 6638.3 17699.3 6638.3 17901.5 6638.3 18109.2 6735.25 18233.9 6857.14 18366.9 6984.58 18455.5 7161.86 18455.5 7366.86 18455.5 7566.31 18353 7710.36 18253.3 7779.61 18414 7871.03 18571.9 8042.78 18571.9 8242.23ZM18073.2 7782.39C18037.2 7768.53 18006.7 7763 17940.3 7763 17901.5 7763 17846.1 7760.22 17818.4 7774.08 17823.9 7801.78 17923.6 7796.23 17954.1 7796.23 18012.3 7796.23 18037.2 7796.23 18073.2 7782.39ZM18416.7 8305.95C18416.7 8112.03 18311.5 7912.58 18167.4 7826.7 18092.6 7854.41 18037.2 7859.95 17954.1 7859.95 17895.9 7859.95 17740.8 7862.72 17740.8 7771.31 17738 7693.73 17882.1 7702.05 17931.9 7702.05 18034.4 7702.05 18076 7704.83 18159.1 7738.06 18264.4 7638.33 18278.2 7552.45 18281 7425.03 18286.5 7264.36 18220 7056.59 18142.5 6948.56 18034.4 6798.97 17848.8 6699.25 17690.9 6699.25 17480.4 6699.25 17375.1 6859.91 17375.1 7056.59 17375.1 7084.3 17375.1 7125.84 17389 7178.48L17566.3 7879.34C17627.2 8117.58 17826.7 8558.03 18159.1 8558.03 18319.8 8558.03 18416.7 8472.16 18416.7 8305.95"/>
<path transform="matrix(.00359712,0,0,-.00359712,0,58)" stroke-width="110.783" stroke-linecap="butt" stroke-miterlimit="10" stroke-linejoin="miter" fill="none" stroke="#000000" d="M3774.13 7358.66H8125.88"/>
<path transform="matrix(.00359712,0,0,-.00359712,0,58)" d="M6974.45 7358.66 5140.53 8118.25V6599.07"/>
<path transform="matrix(.00359712,0,0,-.00359712,0,58)" d="M5377.66 8538.03C5355.5 8443.84 5349.95 8424.45 5228.06 8424.45 5194.83 8424.45 5164.36 8424.45 5164.36 8371.83 5164.36 8349.67 5178.2 8338.58 5200.36 8338.58 5275.16 8338.58 5355.5 8346.89 5433.06 8346.89 5524.48 8346.89 5618.67 8338.58 5707.31 8338.58 5721.16 8338.58 5757.17 8338.58 5757.17 8393.98 5757.17 8424.45 5729.47 8424.45 5690.69 8424.45 5552.19 8424.45 5552.19 8443.84 5552.19 8468.78 5552.19 8502.03 5668.53 8953.56 5687.92 9022.81 5723.94 8942.48 5801.5 8845.53 5942.78 8845.53 6264.13 8845.53 6610.39 9249.97 6610.39 9657.19 6610.39 9917.59 6452.48 10100.4 6241.95 10100.4 6103.45 10100.4 5970.48 10000.7 5879.06 9892.66 5851.36 10042.3 5732.25 10100.4 5629.75 10100.4 5502.31 10100.4 5449.69 9992.39 5424.75 9942.52 5374.89 9848.33 5338.88 9682.13 5338.88 9673.81 5338.88 9646.11 5366.58 9646.11 5372.13 9646.11 5399.81 9646.11 5402.59 9648.88 5419.22 9709.83 5466.3 9906.52 5521.7 10039.5 5621.44 10039.5 5668.53 10039.5 5707.31 10017.3 5707.31 9912.05 5707.31 9848.33 5699 9817.86 5687.92 9770.77L5377.66 8538.03ZM5865.22 9740.3C5884.61 9815.09 5959.39 9892.66 6009.27 9934.22 6106.22 10020.1 6186.55 10039.5 6233.64 10039.5 6344.45 10039.5 6410.94 9942.52 6410.94 9779.08 6410.94 9615.64 6319.52 9297.06 6269.66 9191.8 6175.47 8997.89 6042.5 8906.47 5940 8906.47 5757.17 8906.47 5721.16 9136.39 5721.16 9153.02 5721.16 9158.56 5721.16 9164.09 5729.47 9197.34L5865.22 9740.3"/>
<path transform="matrix(.00359712,0,0,-.00359712,0,58)" stroke-width="110.783" stroke-linecap="butt" stroke-miterlimit="10" stroke-linejoin="miter" fill="none" stroke="#000000" d="M10490 7358.66H14703.9"/>
<path transform="matrix(.00359712,0,0,-.00359712,0,58)" d="M23213.1 8310.84C23254.7 8310.84 23307.3 8310.84 23307.3 8366.25 23307.3 8421.66 23254.7 8421.66 23215.9 8421.66H21556.5C21517.8 8421.66 21465.1 8421.66 21465.1 8366.25 21465.1 8310.84 21517.8 8310.84 21559.3 8310.84H23213.1ZM23215.9 7773.44C23254.7 7773.44 23307.3 7773.44 23307.3 7828.84 23307.3 7884.25 23254.7 7884.25 23213.1 7884.25H21559.3C21517.8 7884.25 21465.1 7884.25 21465.1 7828.84 21465.1 7773.44 21517.8 7773.44 21556.5 7773.44H23215.9"/>
<path transform="matrix(.00359712,0,0,-.00359712,0,58)" d="M25377.1 6466.05C25377.1 6477.14 25371.5 6482.67 25366 6490.98 25238.6 6626.72 25050.2 6851.11 24933.9 7302.66 24870.1 7554.73 24845.2 7840.06 24845.2 8097.69 24845.2 8826.25 25019.7 9335.97 25352.2 9696.09 25377.1 9721.03 25377.1 9726.56 25377.1 9732.11 25377.1 9759.81 25354.9 9759.81 25343.8 9759.81 25302.3 9759.81 25152.7 9593.59 25116.7 9552.05 24834.1 9216.84 24654.1 8718.22 24654.1 8100.47 24654.1 7707.09 24723.3 7150.3 25086.2 6682.13 25113.9 6648.89 25294 6438.36 25343.8 6438.36 25354.9 6438.36 25377.1 6438.36 25377.1 6466.05"/>
<path transform="matrix(.00359712,0,0,-.00359712,0,58)" d="M26289.7 9136.38C26289.7 9191.77 26251 9236.09 26187.2 9236.09 26112.4 9236.09 26037.6 9164.06 26037.6 9089.28 26037.6 9036.64 26076.4 8989.55 26142.9 8989.55 26206.6 8989.55 26289.7 9053.27 26289.7 9136.38ZM26079.2 8094.78C26112.4 8175.11 26112.4 8180.66 26140.1 8255.45 26162.3 8310.84 26176.2 8349.64 26176.2 8402.27 26176.2 8526.92 26087.5 8629.42 25949 8629.42 25688.6 8629.42 25583.3 8227.75 25583.3 8202.81 25583.3 8175.11 25611 8175.11 25616.6 8175.11 25644.3 8175.11 25647 8180.66 25660.9 8224.97 25735.7 8485.38 25846.5 8568.48 25940.7 8568.48 25962.8 8568.48 26009.9 8568.48 26009.9 8479.83 26009.9 8421.66 25990.5 8363.48 25979.5 8335.78 25957.3 8263.77 25832.7 7942.42 25788.3 7823.3 25760.6 7751.28 25724.6 7659.86 25724.6 7601.69 25724.6 7471.48 25818.8 7374.53 25951.8 7374.53 26212.2 7374.53 26314.7 7776.2 26314.7 7801.14 26314.7 7828.84 26289.7 7828.84 26281.4 7828.84 26253.7 7828.84 26253.7 7820.53 26239.9 7778.97 26190 7604.45 26098.6 7435.47 25957.3 7435.47 25910.2 7435.47 25890.8 7463.17 25890.8 7526.89 25890.8 7596.14 25907.5 7634.92 25971.2 7803.91L26079.2 8094.78"/>
<path transform="matrix(.00359712,0,0,-.00359712,0,58)" d="M27677.1 9012.38C27691 9048.39 27691 9059.47 27691 9062.23 27691 9092.7 27666 9117.64 27635.6 9117.64 27616.2 9117.64 27596.8 9109.33 27588.5 9092.7L26627.2 6452.72C26613.4 6416.7 26613.4 6405.63 26613.4 6402.86 26613.4 6372.39 26638.3 6347.45 26668.8 6347.45 26704.8 6347.45 26713.1 6366.84 26729.7 6413.94L27677.1 9012.38"/>
<path transform="matrix(.00359712,0,0,-.00359712,0,58)" d="M26581.7 7067.03C26559.5 6972.84 26554 6953.45 26432.1 6953.45 26398.8 6953.45 26368.4 6953.45 26368.4 6900.83 26368.4 6878.67 26382.2 6867.58 26404.4 6867.58 26479.2 6867.58 26559.5 6875.89 26637.1 6875.89 26728.5 6875.89 26822.7 6867.58 26911.3 6867.58 26925.2 6867.58 26961.2 6867.58 26961.2 6922.98 26961.2 6953.45 26933.5 6953.45 26894.7 6953.45 26756.2 6953.45 26756.2 6972.84 26756.2 6997.78 26756.2 7031.03 26872.5 7482.56 26891.9 7551.81 26927.9 7471.48 27005.5 7374.53 27146.8 7374.53 27468.1 7374.53 27814.4 7778.97 27814.4 8186.19 27814.4 8446.59 27656.5 8629.42 27446 8629.42 27307.5 8629.42 27174.5 8529.7 27083.1 8421.66 27055.4 8571.25 26936.3 8629.42 26833.8 8629.42 26706.3 8629.42 26653.7 8521.39 26628.8 8471.52 26578.9 8377.33 26542.9 8211.13 26542.9 8202.81 26542.9 8175.11 26570.6 8175.11 26576.1 8175.11 26603.8 8175.11 26606.6 8177.88 26623.2 8238.83 26670.3 8435.52 26725.7 8568.48 26825.4 8568.48 26872.5 8568.48 26911.3 8546.31 26911.3 8441.05 26911.3 8377.33 26903 8346.86 26891.9 8299.77L26581.7 7067.03ZM27069.2 8269.3C27088.6 8344.09 27163.4 8421.66 27213.3 8463.22 27310.2 8549.09 27390.5 8568.48 27437.6 8568.48 27548.5 8568.48 27614.9 8471.52 27614.9 8308.08 27614.9 8144.64 27523.5 7826.06 27473.7 7720.8 27379.5 7526.89 27246.5 7435.47 27144 7435.47 26961.2 7435.47 26925.2 7665.39 26925.2 7682.02 26925.2 7687.56 26925.2 7693.09 26933.5 7726.34L27069.2 8269.3"/>
<path transform="matrix(.00359712,0,0,-.00359712,0,58)" d="M28694.9 8097.69C28694.9 8491.06 28625.7 9047.88 28262.8 9516.03 28235.1 9549.27 28055 9759.81 28005.1 9759.81 27991.3 9759.81 27971.9 9754.27 27971.9 9732.11 27971.9 9721.03 27977.4 9712.72 27988.5 9704.41 28121.5 9560.36 28301.5 9335.97 28415.1 8895.52 28478.8 8643.42 28503.8 8358.09 28503.8 8100.47 28503.8 7820.67 28478.8 7538.11 28406.8 7266.64 28301.5 6878.81 28138.1 6657.2 27996.8 6502.06 27971.9 6477.14 27971.9 6471.59 27971.9 6466.05 27971.9 6443.89 27991.3 6438.36 28005.1 6438.36 28046.7 6438.36 28199 6607.33 28232.3 6646.11 28514.8 6981.31 28694.9 7479.94 28694.9 8097.69"/>
<path transform="matrix(.00359712,0,0,-.00359712,0,58)" d="M30347.2 7306.3C30347.2 7476.91 30199.9 7575.78 30029.3 7575.78 29763.7 7575.78 29567.8 7273.34 29519.4 7077.53L29215 5856.16C29211.1 5842.58 29230.5 5832.89 29242.1 5832.89 29259.6 5832.89 29275.1 5834.83 29279 5846.47L29408.9 6364.09C29449.6 6274.92 29542.6 6191.55 29699.7 6191.55 29971.1 6191.55 30277.4 6387.36 30277.4 6683.98 30277.4 6798.36 30225.1 6914.69 30126.2 6978.67 30221.2 7038.77 30347.2 7149.27 30347.2 7306.3ZM29963.3 6980.61C29934.3 6974.78 29920.7 6967.03 29864.5 6967.03 29833.4 6967.03 29786.9 6968.97 29773.3 6976.72 29792.7 6988.36 29847 6990.3 29864.5 6990.3 29893.5 6990.3 29936.2 6988.36 29963.3 6980.61ZM30219.3 7341.2C30219.3 7238.45 30168.8 7087.23 30048.6 7019.38 30011.8 7031.02 29975 7044.58 29866.4 7044.58 29798.5 7044.58 29701.6 7040.7 29701.6 6970.91 29701.6 6922.44 29761.7 6914.69 29860.6 6914.69 29926.5 6914.69 29984.7 6924.38 30044.8 6941.83 30102.9 6901.11 30133.9 6821.63 30133.9 6736.33 30133.9 6455.22 29942 6245.83 29705.5 6245.83 29556.2 6245.83 29449.6 6336.95 29449.6 6490.11 29449.6 6509.5 29451.5 6528.89 29455.4 6546.33L29583.3 7062.03C29629.9 7246.2 29800.5 7521.5 30025.4 7521.5 30139.8 7521.5 30219.3 7459.47 30219.3 7341.2"/>
<path transform="matrix(.00359712,0,0,-.00359712,0,58)" d="M31533.5 6482.36C31711.8 6666.53 31783.6 6924.38 31783.6 6945.7 31783.6 6970.91 31760.3 6970.91 31750.6 6970.91 31723.5 6970.91 31723.5 6965.09 31709.9 6922.44 31675 6794.48 31611 6676.23 31529.6 6571.53 31527.7 6600.63 31523.8 6730.52 31519.9 6747.95 31490.8 6939.89 31345.4 7063.97 31151.5 7063.97 30866.6 7063.97 30593.2 6798.36 30593.2 6526.95 30593.2 6348.59 30723.1 6189.61 30948 6189.61 31126.3 6189.61 31287.3 6271.03 31395.8 6354.41 31440.4 6212.88 31539.3 6189.61 31597.5 6189.61 31709.9 6189.61 31779.7 6284.61 31779.7 6325.33 31779.7 6348.59 31756.4 6348.59 31746.7 6348.59 31721.5 6348.59 31717.6 6340.83 31713.8 6329.2 31686.6 6255.53 31626.5 6243.89 31603.3 6243.89 31576.1 6243.89 31543.2 6243.89 31533.5 6482.36ZM31382.3 6416.44C31192.3 6261.34 31027.5 6243.89 30953.8 6243.89 30825.8 6243.89 30754.1 6329.2 30754.1 6459.09 30754.1 6515.31 30781.3 6726.64 30882.1 6860.41 30971.3 6976.72 31081.8 7009.69 31149.6 7009.69 31304.7 7009.69 31349.3 6860.41 31364.8 6740.2 31376.4 6656.84 31372.6 6519.19 31382.3 6416.44"/>
<path transform="matrix(.00359712,0,0,-.00359712,0,58)" d="M33246.3 8615.58C32900.1 8532.47 32631.3 8172.34 32631.3 7837.16 32631.3 7571.22 32808.6 7371.75 33069 7371.75 33393.2 7371.75 33623.1 7806.67 33623.1 8188.97 33623.1 8441.05 33512.3 8579.56 33418.1 8704.22 33318.4 8828.88 33154.9 9036.64 33154.9 9158.53 33154.9 9219.47 33210.3 9285.95 33307.3 9285.95 33390.4 9285.95 33445.8 9249.94 33504 9211.16 33559.4 9177.92 33614.8 9141.91 33656.3 9141.91 33725.6 9141.91 33767.1 9208.39 33767.1 9252.72 33767.1 9313.66 33722.8 9321.97 33623.1 9344.13 33479 9374.61 33440.3 9374.61 33395.9 9374.61 33179.8 9374.61 33080.1 9255.48 33080.1 9089.28 33080.1 8939.69 33160.5 8784.55 33246.3 8615.58ZM33279.6 8554.63C33348.8 8427.2 33431.9 8277.61 33431.9 8078.16 33431.9 7895.33 33326.7 7432.7 33069 7432.7 32916.7 7432.7 32803.1 7549.05 32803.1 7759.58 32803.1 7934.11 32905.6 8454.91 33279.6 8554.63"/>
<path transform="matrix(.00359712,0,0,-.00359712,0,58)" d="M34374.1 8201.69C34374.1 8232.7 34350.9 8275.36 34296.6 8275.36 34244.3 8275.36 34188 8224.95 34188 8168.73 34188 8135.77 34213.2 8095.06 34265.6 8095.06 34321.8 8095.06 34374.1 8149.34 34374.1 8201.69ZM33978.6 7216.83C33970.9 7191.63 33961.2 7168.36 33961.2 7135.41 33961.2 7044.28 34038.8 6970.61 34145.4 6970.61 34339.3 6970.61 34424.5 7238.16 34424.5 7267.23 34424.5 7292.44 34399.3 7292.44 34393.5 7292.44 34366.4 7292.44 34364.5 7280.81 34356.7 7259.48 34312.1 7104.39 34226.8 7024.89 34151.2 7024.89 34112.4 7024.89 34102.7 7050.09 34102.7 7092.75 34102.7 7137.34 34116.3 7174.17 34133.7 7216.83 34153.1 7269.17 34174.5 7321.52 34195.8 7371.92 34213.2 7418.45 34283 7594.88 34290.8 7618.14 34296.6 7637.53 34302.4 7660.8 34302.4 7680.17 34302.4 7771.3 34224.9 7844.97 34118.2 7844.97 33926.3 7844.97 33837.1 7581.3 33837.1 7548.34 33837.1 7523.14 33864.3 7523.14 33870.1 7523.14 33897.2 7523.14 33899.2 7532.84 33905 7554.16 33955.4 7720.89 34040.7 7790.69 34112.4 7790.69 34143.4 7790.69 34160.9 7775.17 34160.9 7722.83 34160.9 7678.23 34149.3 7649.16 34100.8 7528.95L33978.6 7216.83"/>
<path transform="matrix(.00359712,0,0,-.00359712,0,58)" d="M35380.1 8201.69C35380.1 8234.64 35354.9 8275.36 35302.5 8275.36 35246.3 8275.36 35194 8221.08 35194 8168.73 35194 8137.7 35217.2 8095.06 35271.5 8095.06 35323.9 8095.06 35380.1 8145.47 35380.1 8201.69ZM34969.1 6895C34936.1 6761.23 34833.4 6648.78 34719 6648.78 34693.8 6648.78 34670.5 6652.67 34649.2 6660.42 34699.6 6683.69 34715.1 6730.22 34715.1 6759.3 34715.1 6805.83 34678.3 6831.03 34639.5 6831.03 34579.4 6831.03 34529 6778.69 34529 6716.64 34529 6642.97 34604.6 6594.5 34720.9 6594.5 34837.3 6594.5 35064.1 6664.3 35124.2 6900.81L35298.7 7594.88C35304.5 7616.2 35308.4 7633.66 35308.4 7662.73 35308.4 7769.36 35217.2 7844.97 35100.9 7844.97 34885.7 7844.97 34761.6 7575.48 34761.6 7548.34 34761.6 7523.14 34788.8 7523.14 34794.6 7523.14 34817.9 7523.14 34819.8 7528.95 34833.4 7558.05 34881.8 7670.48 34982.7 7790.69 35095.1 7790.69 35143.6 7790.69 35161 7757.72 35161 7695.69 35161 7674.36 35157.1 7647.22 35155.2 7637.53L34969.1 6895"/>
<path transform="matrix(.00359712,0,0,-.00359712,0,58)" d="M36428.3 8615.58C36082.1 8532.47 35813.3 8172.34 35813.3 7837.16 35813.3 7571.22 35990.6 7371.75 36251 7371.75 36575.2 7371.75 36805.1 7806.67 36805.1 8188.97 36805.1 8441.05 36694.3 8579.56 36600.1 8704.22 36500.4 8828.88 36336.9 9036.64 36336.9 9158.53 36336.9 9219.47 36392.3 9285.95 36489.3 9285.95 36572.4 9285.95 36627.8 9249.94 36686 9211.16 36741.4 9177.92 36796.8 9141.91 36838.3 9141.91 36907.6 9141.91 36949.1 9208.39 36949.1 9252.72 36949.1 9313.66 36904.8 9321.97 36805.1 9344.13 36661 9374.61 36622.3 9374.61 36577.9 9374.61 36361.8 9374.61 36262.1 9255.48 36262.1 9089.28 36262.1 8939.69 36342.5 8784.55 36428.3 8615.58ZM36461.6 8554.63C36530.8 8427.2 36613.9 8277.61 36613.9 8078.16 36613.9 7895.33 36508.7 7432.7 36251 7432.7 36098.7 7432.7 35985.1 7549.05 35985.1 7759.58 35985.1 7934.11 36087.6 8454.91 36461.6 8554.63"/>
<path transform="matrix(.00359712,0,0,-.00359712,0,58)" d="M37717 7755.78H37907C37945.8 7755.78 37971 7755.78 37971 7798.44 37971 7825.58 37945.8 7825.58 37910.9 7825.58H37730.6C37775.2 8071.8 37790.7 8160.97 37806.2 8217.2 37815.9 8259.84 37858.6 8300.56 37905.1 8300.56 37907 8300.56 37959.4 8300.56 37996.2 8277.3 37916.7 8252.09 37910.9 8182.3 37910.9 8170.67 37910.9 8128.02 37943.9 8098.94 37988.5 8098.94 38040.8 8098.94 38099 8143.53 38099 8217.2 38099 8306.38 38004 8354.84 37905.1 8354.84 37819.8 8354.84 37724.8 8306.38 37672.5 8209.44 37633.7 8137.7 37618.2 8050.47 37577.5 7825.58H37424.3C37385.5 7825.58 37360.3 7825.58 37360.3 7782.92 37360.3 7755.78 37385.5 7755.78 37420.4 7755.78H37563.9C37562 7744.16 37439.8 7046.22 37393.3 6838.78 37383.6 6796.13 37350.6 6648.78 37257.6 6648.78 37255.6 6648.78 37209.1 6648.78 37172.3 6672.05 37251.8 6697.25 37257.6 6767.05 37257.6 6778.69 37257.6 6821.33 37224.6 6850.41 37180 6850.41 37127.7 6850.41 37069.5 6805.83 37069.5 6732.16 37069.5 6644.91 37160.6 6594.5 37257.6 6594.5 37381.7 6594.5 37467 6722.45 37490.2 6765.11 37560 6895 37604.6 7133.47 37608.5 7156.73L37717 7755.78"/>
<path transform="matrix(.00359712,0,0,-.00359712,0,58)" d="M38925.3 7407.77C38925.3 7590.61 38856.1 7698.64 38748.1 7698.64 38656.6 7698.64 38601.2 7629.39 38601.2 7551.81 38601.2 7477.03 38656.6 7405 38748.1 7405 38781.3 7405 38817.3 7416.08 38845 7441.02 38853.3 7446.55 38856.1 7449.33 38858.9 7449.33 38861.6 7449.33 38864.4 7446.55 38864.4 7407.77 38864.4 7202.78 38767.5 7036.56 38676 6945.16 38645.6 6914.67 38645.6 6909.14 38645.6 6900.83 38645.6 6881.44 38659.4 6870.36 38673.3 6870.36 38703.7 6870.36 38925.3 7083.66 38925.3 7407.77"/>
<path transform="matrix(.00359712,0,0,-.00359712,0,58)" stroke-width="110.783" stroke-linecap="butt" stroke-miterlimit="10" stroke-linejoin="miter" fill="none" stroke="#000000" d="M53637.3 8097.86C53637.3 8750.7 53108.1 9279.92 52455.3 9279.92 51802.4 9279.92 51273.2 8750.7 51273.2 8097.86 51273.2 7445.03 51802.4 6915.8 52455.3 6915.8 53108.1 6915.8 53637.3 7445.03 53637.3 8097.86ZM52455.3 8097.86"/>
<path transform="matrix(.00359712,0,0,-.00359712,0,58)" stroke-width="110.783" stroke-linecap="butt" stroke-miterlimit="10" stroke-linejoin="miter" fill="none" stroke="#000000" d="M51619.4 7262.03 53291.1 8933.7M51619.4 8933.7 53291.1 7262.03"/>
<path transform="matrix(.00359712,0,0,-.00359712,0,58)" d="M58748.7 15715C58748.7 15717.8 58748.7 15745.5 58712.7 15745.5 58649 15745.5 58446.8 15723.3 58374.7 15717.8 58352.6 15715 58322.1 15712.3 58322.1 15659.6 58322.1 15629.2 58349.8 15629.2 58391.4 15629.2 58524.3 15629.2 58527.1 15604.2 58527.1 15582.1L58518.8 15526.7 58169.7 14141.6C58161.4 14111.1 58155.9 14091.7 58155.9 14047.4 58155.9 13889.5 58277.8 13792.5 58408 13792.5 58499.4 13792.5 58568.6 13847.9 58615.7 13947.7 58665.6 14052.9 58698.8 14213.6 58698.8 14219.1 58698.8 14246.8 58673.9 14246.8 58665.6 14246.8 58637.9 14246.8 58635.1 14235.8 58626.8 14197 58579.7 14016.9 58527.1 13853.5 58416.3 13853.5 58333.2 13853.5 58333.2 13942.1 58333.2 13980.9 58333.2 14047.4 58336 14061.2 58349.8 14113.9L58748.7 15715"/>
<path transform="matrix(.00359712,0,0,-.00359712,0,58)" d="M59643.3 15033.6C59297.1 14950.5 59028.3 14590.3 59028.3 14255.2 59028.3 13989.2 59205.6 13789.8 59466 13789.8 59790.2 13789.8 60020.1 14224.7 60020.1 14607 60020.1 14859 59909.3 14997.6 59815.1 15122.2 59715.4 15246.9 59551.9 15454.6 59551.9 15576.5 59551.9 15637.5 59607.3 15704 59704.3 15704 59787.4 15704 59842.8 15667.9 59901 15629.2 59956.4 15595.9 60011.8 15559.9 60053.3 15559.9 60122.6 15559.9 60164.1 15626.4 60164.1 15670.7 60164.1 15731.7 60119.8 15740 60020.1 15762.1 59876 15792.6 59837.3 15792.6 59792.9 15792.6 59576.8 15792.6 59477.1 15673.5 59477.1 15507.3 59477.1 15357.7 59557.5 15202.5 59643.3 15033.6ZM59676.6 14972.6C59745.8 14845.2 59828.9 14695.6 59828.9 14496.2 59828.9 14313.3 59723.7 13850.7 59466 13850.7 59313.7 13850.7 59200.1 13967 59200.1 14177.6 59200.1 14352.1 59302.6 14872.9 59676.6 14972.6"/>
<path transform="matrix(.00359712,0,0,-.00359712,0,58)" d="M45005 15984C45005 15986.8 45005 16014.5 44969 16014.5 44905.3 16014.5 44703.1 15992.3 44631.1 15986.8 44608.9 15984 44578.4 15981.3 44578.4 15931.4 44578.4 15898.2 44603.4 15898.2 44644.9 15898.2 44777.9 15898.2 44783.4 15878.8 44783.4 15851.1L44775.1 15795.7 44373.4 14200C44362.4 14161.3 44362.4 14155.7 44362.4 14139.1 44362.4 14075.4 44417.8 14061.5 44442.7 14061.5 44478.7 14061.5 44520.3 14086.5 44536.9 14119.7 44550.7 14144.6 44675.4 14657.1 44692 14726.4 44786.2 14718.1 45013.4 14673.7 45013.4 14490.9 45013.4 14471.5 45013.4 14460.4 45005 14432.7 44999.5 14399.5 44994 14366.3 44994 14335.8 44994 14172.3 45104.8 14061.5 45248.8 14061.5 45331.9 14061.5 45406.7 14105.8 45467.7 14208.3 45536.9 14330.2 45567.4 14482.6 45567.4 14488.1 45567.4 14515.8 45542.5 14515.8 45534.2 14515.8 45506.5 14515.8 45503.7 14504.8 45495.4 14466 45440 14263.8 45376.3 14122.5 45254.4 14122.5 45201.7 14122.5 45165.7 14152.9 45165.7 14252.7 45165.7 14299.8 45176.8 14363.5 45187.9 14407.8 45199 14454.9 45199 14466 45199 14493.7 45199 14673.7 45024.4 14754.1 44789 14784.5 44874.8 14834.4 44963.5 14923.1 45027.2 14989.5 45160.2 15136.4 45287.6 15255.5 45423.3 15255.5 45440 15255.5 45442.7 15255.5 45448.3 15252.7 45481.5 15247.2 45484.3 15247.2 45506.5 15230.5 45512 15227.8 45512 15225 45517.5 15219.5 45384.6 15211.2 45359.6 15103.1 45359.6 15069.9 45359.6 15025.5 45390.1 14972.9 45464.9 14972.9 45536.9 14972.9 45617.3 15033.9 45617.3 15141.9 45617.3 15225 45553.5 15316.4 45428.9 15316.4 45351.3 15316.4 45223.9 15294.3 45024.4 15072.6 44930.3 14967.4 44822.2 14856.6 44716.9 14815L45005 15984"/>
<path transform="matrix(.00359712,0,0,-.00359712,0,58)" d="M45849.6 14795.6C45957.6 15114.2 46259.6 15117 46290 15117 46708.3 15117 46738.8 14632.2 46738.8 14413.3 46738.8 14244.4 46725 14197.3 46705.6 14141.9 46644.6 13939.6 46561.5 13618.3 46561.5 13546.3 46561.5 13515.8 46575.4 13496.4 46597.5 13496.4 46633.5 13496.4 46655.7 13557.4 46686.2 13662.6 46749.9 13895.3 46777.6 14053.2 46788.7 14139.1 46794.2 14175.1 46799.8 14211.1 46810.8 14247.1 46899.5 14521.4 47076.8 14934.1 47187.6 15153 47207 15186.2 47240.2 15247.2 47240.2 15258.3 47240.2 15286 47212.5 15286 47207 15286 47198.7 15286 47182 15286 47173.7 15266.6 47029.7 15003.4 46918.9 14726.4 46808.1 14446.6 46805.3 14532.5 46802.5 14743 46694.5 15011.7 46628 15180.7 46517.2 15316.4 46326 15316.4 45979.8 15316.4 45785.9 14895.4 45785.9 14809.5 45785.9 14781.8 45810.8 14781.8 45838.5 14781.8L45849.6 14795.6"/>
<path transform="matrix(.00359712,0,0,-.00359712,0,58)" d="M45186.7 2229.38C45186.7 2284.77 45148 2329.09 45084.2 2329.09 45009.4 2329.09 44934.6 2257.06 44934.6 2182.28 44934.6 2129.64 44973.4 2082.55 45039.9 2082.55 45103.6 2082.55 45186.7 2146.27 45186.7 2229.38ZM44976.2 1187.78C45009.4 1268.11 45009.4 1273.66 45037.1 1348.45 45059.3 1403.84 45073.2 1442.64 45073.2 1495.27 45073.2 1619.92 44984.5 1722.42 44846 1722.42 44585.6 1722.42 44480.3 1320.75 44480.3 1295.81 44480.3 1268.11 44508 1268.11 44513.6 1268.11 44541.3 1268.11 44544 1273.66 44557.9 1317.97 44632.7 1578.38 44743.5 1661.48 44837.7 1661.48 44859.8 1661.48 44906.9 1661.48 44906.9 1572.83 44906.9 1514.66 44887.5 1456.48 44876.5 1428.78 44854.3 1356.77 44729.7 1035.42 44685.3 916.297 44657.6 844.281 44621.6 752.859 44621.6 694.688 44621.6 564.484 44715.8 467.531 44848.8 467.531 45109.2 467.531 45211.7 869.203 45211.7 894.141 45211.7 921.844 45186.7 921.844 45178.4 921.844 45150.7 921.844 45150.7 913.531 45136.9 871.969 45087 697.453 44995.6 528.469 44854.3 528.469 44807.2 528.469 44787.8 556.172 44787.8 619.891 44787.8 689.141 44804.5 727.922 44868.2 896.906L44976.2 1187.78"/>
<path transform="matrix(.00359712,0,0,-.00359712,0,58)" d="M46674.4 1151.77C46674.4 1586.69 46416.8 1722.42 46211.8 1722.42 45832.3 1722.42 45466.6 1326.28 45466.6 935.688 45466.6 678.063 45632.8 467.531 45915.3 467.531 46089.9 467.531 46289.3 531.25 46499.9 700.219 46535.9 553.406 46627.3 467.531 46751.9 467.531 46898.8 467.531 46984.6 619.891 46984.6 664.219 46984.6 683.609 46968 691.906 46951.4 691.906 46932 691.906 46923.7 683.609 46915.4 664.219 46865.5 528.469 46765.8 528.469 46760.3 528.469 46674.4 528.469 46674.4 744.547 46674.4 811.031 46674.4 869.203 46674.4 874.75 46702.1 907.984 46962.5 1234.88 47020.7 1556.22 47020.7 1558.98 47020.7 1564.52 47017.9 1586.69 46987.4 1586.69 46959.7 1586.69 46959.7 1578.38 46945.9 1528.52 46896 1353.98 46804.6 1143.45 46674.4 980.016V1151.77ZM46488.8 772.25C46245 558.938 46031.7 528.469 45920.9 528.469 45754.7 528.469 45671.6 653.125 45671.6 830.422 45671.6 966.156 45743.6 1265.34 45832.3 1406.63 45962.4 1608.84 46112 1661.48 46209 1661.48 46483.2 1661.48 46483.2 1298.58 46483.2 1082.52 46483.2 980.016 46483.2 819.344 46488.8 772.25"/>
<path transform="matrix(.00359712,0,0,-.00359712,0,58)" d="M58735.8 2450.38C58735.8 2503 58697 2550.09 58630.5 2550.09 58566.8 2550.09 58483.7 2486.38 58483.7 2403.28 58483.7 2347.88 58522.5 2303.55 58586.2 2303.55 58661 2303.55 58735.8 2375.58 58735.8 2450.38ZM58179 580.484C58126.3 369.953 57993.4 212.063 57838.2 212.063 57821.6 212.063 57780 212.063 57730.2 236.984 57813.3 256.375 57854.8 328.406 57854.8 383.813 57854.8 428.125 57824.4 480.766 57749.6 480.766 57680.3 480.766 57600 422.594 57600 322.859 57600 212.063 57710.8 151.109 57843.8 151.109 58037.7 151.109 58295.3 297.938 58364.6 572.188L58619.4 1586.06C58633.3 1641.47 58633.3 1680.25 58633.3 1688.56 58633.3 1846.47 58516.9 1943.42 58378.4 1943.42 58095.8 1943.42 57938 1541.75 57938 1516.81 57938 1489.11 57965.7 1489.11 57971.2 1489.11 57996.1 1489.11 57998.9 1491.88 58021.1 1544.52 58090.3 1713.5 58217.7 1882.48 58370.1 1882.48 58408.9 1882.48 58458.8 1871.39 58458.8 1755.05 58458.8 1691.33 58450.4 1660.86 58439.4 1613.77L58179 580.484"/>
<path transform="matrix(.00359712,0,0,-.00359712,0,58)" d="M60524.9 2295.23C60524.9 2503 60372.5 2674.75 60148.1 2674.75 59987.4 2674.75 59909.9 2630.42 59812.9 2558.41 59660.6 2447.59 59508.2 2178.89 59455.6 1968.36L59015.1 209.281C59012.3 198.203 59026.2 181.578 59048.3 181.578 59070.5 181.578 59078.8 187.125 59081.6 195.438L59275.5 960C59328.1 793.797 59450 691.297 59652.3 691.297 59854.5 691.297 60062.2 788.25 60186.9 910.141 60319.9 1037.58 60408.5 1214.86 60408.5 1419.86 60408.5 1619.31 60306 1763.36 60206.3 1832.61 60367 1924.03 60524.9 2095.78 60524.9 2295.23ZM60026.2 1835.39C59990.2 1821.53 59959.7 1816 59893.3 1816 59854.5 1816 59799.1 1813.22 59771.4 1827.08 59776.9 1854.78 59876.6 1849.23 59907.1 1849.23 59965.3 1849.23 59990.2 1849.23 60026.2 1835.39ZM60369.7 2358.95C60369.7 2165.03 60264.5 1965.58 60120.4 1879.7 60045.6 1907.41 59990.2 1912.95 59907.1 1912.95 59848.9 1912.95 59693.8 1915.72 59693.8 1824.31 59691 1746.73 59835.1 1755.05 59884.9 1755.05 59987.4 1755.05 60029 1757.83 60112.1 1791.06 60217.4 1691.33 60231.2 1605.45 60234 1478.03 60239.5 1317.36 60173 1109.59 60095.5 1001.56 59987.4 851.969 59801.8 752.25 59643.9 752.25 59433.4 752.25 59328.1 912.906 59328.1 1109.59 59328.1 1137.3 59328.1 1178.84 59342 1231.48L59519.3 1932.34C59580.2 2170.58 59779.7 2611.03 60112.1 2611.03 60272.8 2611.03 60369.7 2525.16 60369.7 2358.95"/>
<path transform="matrix(.00359712,0,0,-.00359712,0,58)" stroke-width="110.783" stroke-linecap="butt" stroke-miterlimit="10" stroke-linejoin="miter" fill="none" stroke="#000000" d="M47660.2 3302.97 51619.4 7262.03"/>
<path transform="matrix(.00359712,0,0,-.00359712,0,58)" d="M50363.4 6006 48529.6 5246.44 49603.7 4172.2"/>
<path transform="matrix(.00359712,0,0,-.00359712,0,58)" stroke-width="110.783" stroke-linecap="butt" stroke-miterlimit="10" stroke-linejoin="miter" fill="none" stroke="#000000" d="M53291.1 8933.64 57202.2 12844.4"/>
<path transform="matrix(.00359712,0,0,-.00359712,0,58)" d="M55970.8 11613.1 54136.9 10853.5 55211.1 9779.27"/>
<path transform="matrix(.00359712,0,0,-.00359712,0,58)" stroke-width="110.783" stroke-linecap="butt" stroke-miterlimit="10" stroke-linejoin="miter" fill="none" stroke="#000000" d="M56932.8 3620.6 53291.1 7262.03"/>
<path transform="matrix(.00359712,0,0,-.00359712,0,58)" d="M54388.2 6164.97 55147.9 4331.16 56222.1 5405.4"/>
<path transform="matrix(.00359712,0,0,-.00359712,0,58)" stroke-width="110.783" stroke-linecap="butt" stroke-miterlimit="10" stroke-linejoin="miter" fill="none" stroke="#000000" d="M51619.4 8933.64 47977.6 12575.1"/>
<path transform="matrix(.00359712,0,0,-.00359712,0,58)" d="M49074.6 11478.1 49834.4 9644.3 50908.5 10718.6"/>
<path transform="matrix(.00359712,0,0,-.00359712,0,58)" d="M65167.1 8310.84C65208.7 8310.84 65261.3 8310.84 65261.3 8366.25 65261.3 8421.66 65208.7 8421.66 65169.9 8421.66H63510.5C63471.8 8421.66 63419.1 8421.66 63419.1 8366.25 63419.1 8310.84 63471.8 8310.84 63513.3 8310.84H65167.1ZM65169.9 7773.44C65208.7 7773.44 65261.3 7773.44 65261.3 7828.84 65261.3 7884.25 65208.7 7884.25 65167.1 7884.25H63513.3C63471.8 7884.25 63419.1 7884.25 63419.1 7828.84 63419.1 7773.44 63471.8 7773.44 63510.5 7773.44H65169.9"/>
<path transform="matrix(.00359712,0,0,-.00359712,0,58)" d="M66534.8 7618.3 66828.5 7903.64C67260.6 8285.92 67426.8 8435.52 67426.8 8712.53 67426.8 9028.33 67177.5 9249.94 66839.5 9249.94 66526.5 9249.94 66321.5 8995.09 66321.5 8748.55 66321.5 8593.41 66460 8593.41 66468.3 8593.41 66515.4 8593.41 66612.4 8626.66 66612.4 8740.23 66612.4 8812.25 66562.5 8884.28 66465.6 8884.28 66443.4 8884.28 66437.9 8884.28 66429.5 8881.52 66493.3 9061.58 66642.8 9164.06 66803.5 9164.06 67055.6 9164.06 67174.7 8939.69 67174.7 8712.53 67174.7 8490.91 67036.2 8272.06 66883.9 8100.31L66352 7507.5C66321.5 7477.03 66321.5 7471.48 66321.5 7405H67349.3L67426.8 7887.02H67357.6C67343.7 7803.91 67324.3 7682.02 67296.6 7640.47 67277.2 7618.3 67094.4 7618.3 67033.5 7618.3H66534.8"/>
<path transform="matrix(.00359712,0,0,-.00359712,0,58)" d="M68358.7 9136.38C68358.7 9191.77 68320 9236.09 68256.2 9236.09 68181.4 9236.09 68106.6 9164.06 68106.6 9089.28 68106.6 9036.64 68145.4 8989.55 68211.9 8989.55 68275.6 8989.55 68358.7 9053.27 68358.7 9136.38ZM68148.2 8094.78C68181.4 8175.11 68181.4 8180.66 68209.1 8255.45 68231.3 8310.84 68245.2 8349.64 68245.2 8402.27 68245.2 8526.92 68156.5 8629.42 68018 8629.42 67757.6 8629.42 67652.3 8227.75 67652.3 8202.81 67652.3 8175.11 67680 8175.11 67685.6 8175.11 67713.3 8175.11 67716 8180.66 67729.9 8224.97 67804.7 8485.38 67915.5 8568.48 68009.7 8568.48 68031.8 8568.48 68078.9 8568.48 68078.9 8479.83 68078.9 8421.66 68059.5 8363.48 68048.5 8335.78 68026.3 8263.77 67901.7 7942.42 67857.3 7823.3 67829.6 7751.28 67793.6 7659.86 67793.6 7601.69 67793.6 7471.48 67887.8 7374.53 68020.8 7374.53 68281.2 7374.53 68383.7 7776.2 68383.7 7801.14 68383.7 7828.84 68358.7 7828.84 68350.4 7828.84 68322.7 7828.84 68322.7 7820.53 68308.9 7778.97 68259 7604.45 68167.6 7435.47 68026.3 7435.47 67979.2 7435.47 67959.8 7463.17 67959.8 7526.89 67959.8 7596.14 67976.5 7634.92 68040.2 7803.91L68148.2 8094.78"/>
<path transform="matrix(.00359712,0,0,-.00359712,0,58)" d="M69829.8 8449.36C69832.5 8465.98 69838.1 8479.83 69838.1 8499.22 69838.1 8546.31 69804.8 8574.02 69757.7 8574.02 69730 8574.02 69655.2 8554.63 69644.2 8454.91 69594.3 8557.39 69497.3 8629.42 69386.5 8629.42 69070.7 8629.42 68727.2 8241.59 68727.2 7842.69 68727.2 7568.44 68896.2 7405 69095.7 7405 69259.1 7405 69389.3 7535.2 69417 7565.67L69419.8 7562.91C69361.6 7316.36 69328.4 7202.78 69328.4 7197.23 69317.3 7172.3 69223.1 6898.06 68929.5 6898.06 68876.8 6898.06 68785.4 6900.83 68707.8 6925.75 68790.9 6950.69 68821.4 7022.72 68821.4 7069.81 68821.4 7114.13 68790.9 7166.77 68716.1 7166.77 68655.2 7166.77 68566.5 7116.91 68566.5 7006.09 68566.5 6892.52 68669 6837.11 68935 6837.11 69281.3 6837.11 69480.7 7053.19 69522.3 7219.39L69829.8 8449.36ZM69469.6 7759.58C69453 7687.56 69389.3 7618.3 69328.4 7565.67 69270.2 7515.81 69184.3 7465.94 69104 7465.94 68965.5 7465.94 68923.9 7610 68923.9 7720.8 68923.9 7853.77 69004.3 8180.66 69079 8321.94 69153.8 8457.67 69273 8568.48 69389.3 8568.48 69572.1 8568.48 69610.9 8344.09 69610.9 8330.25 69610.9 8316.39 69605.4 8299.77 69602.6 8288.69L69469.6 7759.58"/>
<path transform="matrix(.00359712,0,0,-.00359712,0,58)" d="M71324.9 6740.16C71324.9 6748.47 71324.9 6754 71277.8 6801.09 70931.6 7150.14 70842.9 7673.7 70842.9 8097.55 70842.9 8579.56 70948.2 9061.58 71288.9 9407.84 71324.9 9441.09 71324.9 9446.63 71324.9 9454.94 71324.9 9474.33 71313.8 9482.64 71297.2 9482.64 71269.5 9482.64 71020.2 9294.27 70856.8 8942.45 70715.5 8637.73 70682.3 8330.25 70682.3 8097.55 70682.3 7881.47 70712.7 7546.28 70865.1 7233.25 71031.3 6892.52 71269.5 6712.45 71297.2 6712.45 71313.8 6712.45 71324.9 6720.77 71324.9 6740.16"/>
<path transform="matrix(.00359712,0,0,-.00359712,0,58)" d="M72216.3 8615.58C71870.1 8532.47 71601.3 8172.34 71601.3 7837.16 71601.3 7571.22 71778.6 7371.75 72039 7371.75 72363.2 7371.75 72593.1 7806.67 72593.1 8188.97 72593.1 8441.05 72482.3 8579.56 72388.1 8704.22 72288.4 8828.88 72124.9 9036.64 72124.9 9158.53 72124.9 9219.47 72180.3 9285.95 72277.3 9285.95 72360.4 9285.95 72415.8 9249.94 72474 9211.16 72529.4 9177.92 72584.8 9141.91 72626.3 9141.91 72695.6 9141.91 72737.1 9208.39 72737.1 9252.72 72737.1 9313.66 72692.8 9321.97 72593.1 9344.13 72449 9374.61 72410.3 9374.61 72365.9 9374.61 72149.8 9374.61 72050.1 9255.48 72050.1 9089.28 72050.1 8939.69 72130.5 8784.55 72216.3 8615.58ZM72249.6 8554.63C72318.8 8427.2 72401.9 8277.61 72401.9 8078.16 72401.9 7895.33 72296.7 7432.7 72039 7432.7 71886.7 7432.7 71773.1 7549.05 71773.1 7759.58 71773.1 7934.11 71875.6 8454.91 72249.6 8554.63"/>
<path transform="matrix(.00359712,0,0,-.00359712,0,58)" d="M73344.1 8201.69C73344.1 8232.7 73320.9 8275.36 73266.6 8275.36 73214.3 8275.36 73158 8224.95 73158 8168.73 73158 8135.77 73183.2 8095.06 73235.6 8095.06 73291.8 8095.06 73344.1 8149.34 73344.1 8201.69ZM72948.6 7216.83C72940.9 7191.63 72931.2 7168.36 72931.2 7135.41 72931.2 7044.28 73008.8 6970.61 73115.4 6970.61 73309.3 6970.61 73394.5 7238.16 73394.5 7267.23 73394.5 7292.44 73369.3 7292.44 73363.5 7292.44 73336.4 7292.44 73334.5 7280.81 73326.7 7259.48 73282.1 7104.39 73196.8 7024.89 73121.2 7024.89 73082.4 7024.89 73072.7 7050.09 73072.7 7092.75 73072.7 7137.34 73086.3 7174.17 73103.7 7216.83 73123.1 7269.17 73144.5 7321.52 73165.8 7371.92 73183.2 7418.45 73253 7594.88 73260.8 7618.14 73266.6 7637.53 73272.4 7660.8 73272.4 7680.17 73272.4 7771.3 73194.9 7844.97 73088.2 7844.97 72896.3 7844.97 72807.1 7581.3 72807.1 7548.34 72807.1 7523.14 72834.3 7523.14 72840.1 7523.14 72867.2 7523.14 72869.2 7532.84 72875 7554.16 72925.4 7720.89 73010.7 7790.69 73082.4 7790.69 73113.4 7790.69 73130.9 7775.17 73130.9 7722.83 73130.9 7678.23 73119.3 7649.16 73070.8 7528.95L72948.6 7216.83"/>
<path transform="matrix(.00359712,0,0,-.00359712,0,58)" d="M74105.8 8277.3C74107.8 8281.17 74113.6 8306.38 74113.6 8308.31 74113.6 8318.02 74105.8 8335.45 74082.5 8335.45 74043.8 8335.45 73882.9 8319.95 73834.4 8316.08 73818.9 8314.13 73791.8 8312.19 73791.8 8271.48 73791.8 8244.34 73818.9 8244.34 73842.2 8244.34 73935.2 8244.34 73935.2 8230.77 73935.2 8215.27 73935.2 8201.69 73931.3 8190.06 73927.5 8172.61L73654.1 7075.3C73644.4 7040.41 73644.4 7036.53 73644.4 7032.66 73644.4 7003.58 73667.7 6970.61 73710.3 6970.61 73762.7 6970.61 73787.9 7009.39 73799.5 7052.03 73803.4 7059.8 73886.7 7401 73894.5 7428.14 74032.1 7414.58 74142.7 7369.98 74142.7 7269.17 74142.7 7259.48 74142.7 7249.78 74138.8 7230.41 74131 7201.31 74131 7191.63 74131 7170.3 74131 7032.66 74243.5 6970.61 74336.5 6970.61 74524.6 6970.61 74582.7 7265.3 74582.7 7267.23 74582.7 7292.44 74557.5 7292.44 74551.7 7292.44 74524.6 7292.44 74522.6 7282.75 74512.9 7245.91 74489.7 7162.55 74437.3 7024.89 74342.3 7024.89 74290 7024.89 74274.5 7073.36 74274.5 7125.7 74274.5 7158.67 74274.5 7162.55 74286.1 7212.95 74288 7218.77 74295.8 7251.72 74295.8 7273.05 74295.8 7445.59 74063.2 7472.73 73981.7 7478.55 74038 7513.45 74109.7 7577.42 74142.7 7606.5 74241.5 7699.56 74338.5 7790.69 74447 7790.69 74470.3 7790.69 74495.5 7784.88 74511 7765.48 74427.6 7751.91 74410.2 7686 74410.2 7656.91 74410.2 7614.27 74443.1 7585.19 74487.7 7585.19 74540.1 7585.19 74598.3 7627.83 74598.3 7709.27 74598.3 7773.23 74551.7 7844.97 74449 7844.97 74338.5 7844.97 74237.6 7765.48 74138.8 7674.36 74057.3 7596.81 73993.4 7536.72 73913.9 7503.75L74105.8 8277.3"/>
<path transform="matrix(.00359712,0,0,-.00359712,0,58)" d="M75593.3 8615.58C75247.1 8532.47 74978.3 8172.34 74978.3 7837.16 74978.3 7571.22 75155.6 7371.75 75416 7371.75 75740.2 7371.75 75970.1 7806.67 75970.1 8188.97 75970.1 8441.05 75859.3 8579.56 75765.1 8704.22 75665.4 8828.88 75501.9 9036.64 75501.9 9158.53 75501.9 9219.47 75557.3 9285.95 75654.3 9285.95 75737.4 9285.95 75792.8 9249.94 75851 9211.16 75906.4 9177.92 75961.8 9141.91 76003.3 9141.91 76072.6 9141.91 76114.1 9208.39 76114.1 9252.72 76114.1 9313.66 76069.8 9321.97 75970.1 9344.13 75826 9374.61 75787.3 9374.61 75742.9 9374.61 75526.8 9374.61 75427.1 9255.48 75427.1 9089.28 75427.1 8939.69 75507.5 8784.55 75593.3 8615.58ZM75626.6 8554.63C75695.8 8427.2 75778.9 8277.61 75778.9 8078.16 75778.9 7895.33 75673.7 7432.7 75416 7432.7 75263.7 7432.7 75150.1 7549.05 75150.1 7759.58 75150.1 7934.11 75252.6 8454.91 75626.6 8554.63"/>
<path transform="matrix(.00359712,0,0,-.00359712,0,58)" d="M76944.1 8201.69C76944.1 8234.64 76918.9 8275.36 76866.5 8275.36 76810.3 8275.36 76758 8221.08 76758 8168.73 76758 8137.7 76781.2 8095.06 76835.5 8095.06 76887.9 8095.06 76944.1 8145.47 76944.1 8201.69ZM76533.1 6895C76500.1 6761.23 76397.4 6648.78 76283 6648.78 76257.8 6648.78 76234.5 6652.67 76213.2 6660.42 76263.6 6683.69 76279.1 6730.22 76279.1 6759.3 76279.1 6805.83 76242.3 6831.03 76203.5 6831.03 76143.4 6831.03 76093 6778.69 76093 6716.64 76093 6642.97 76168.6 6594.5 76284.9 6594.5 76401.3 6594.5 76628.1 6664.3 76688.2 6900.81L76862.7 7594.88C76868.5 7616.2 76872.4 7633.66 76872.4 7662.73 76872.4 7769.36 76781.2 7844.97 76664.9 7844.97 76449.7 7844.97 76325.6 7575.48 76325.6 7548.34 76325.6 7523.14 76352.8 7523.14 76358.6 7523.14 76381.9 7523.14 76383.8 7528.95 76397.4 7558.05 76445.8 7670.48 76546.7 7790.69 76659.1 7790.69 76707.6 7790.69 76725 7757.72 76725 7695.69 76725 7674.36 76721.1 7647.22 76719.2 7637.53L76533.1 6895"/>
<path transform="matrix(.00359712,0,0,-.00359712,0,58)" d="M77665.7 8277.3C77667.7 8281.17 77673.5 8306.38 77673.5 8308.31 77673.5 8318.02 77665.7 8335.45 77642.5 8335.45 77603.7 8335.45 77442.8 8319.95 77394.3 8316.08 77380.7 8314.13 77353.6 8312.19 77353.6 8271.48 77353.6 8244.34 77380.7 8244.34 77402 8244.34 77495.1 8244.34 77495.1 8230.77 77495.1 8215.27 77495.1 8201.69 77491.2 8190.06 77487.4 8172.61L77247 7214.89C77241.1 7195.5 77239.2 7174.17 77239.2 7154.8 77239.2 7030.72 77349.7 6970.61 77442.8 6970.61 77489.3 6970.61 77547.5 6986.13 77597.9 7073.36 77638.6 7145.09 77665.7 7259.48 77665.7 7267.23 77665.7 7292.44 77640.5 7292.44 77634.7 7292.44 77607.5 7292.44 77603.7 7280.81 77595.9 7245.91 77570.7 7148.97 77533.9 7024.89 77450.5 7024.89 77398.2 7024.89 77384.6 7073.36 77384.6 7119.89 77384.6 7141.22 77390.4 7178.05 77396.2 7199.38L77665.7 8277.3"/>
<path transform="matrix(.00359712,0,0,-.00359712,0,58)" d="M78703.3 8615.58C78357.1 8532.47 78088.3 8172.34 78088.3 7837.16 78088.3 7571.22 78265.6 7371.75 78526 7371.75 78850.2 7371.75 79080.1 7806.67 79080.1 8188.97 79080.1 8441.05 78969.3 8579.56 78875.1 8704.22 78775.4 8828.88 78611.9 9036.64 78611.9 9158.53 78611.9 9219.47 78667.3 9285.95 78764.3 9285.95 78847.4 9285.95 78902.8 9249.94 78961 9211.16 79016.4 9177.92 79071.8 9141.91 79113.3 9141.91 79182.6 9141.91 79224.1 9208.39 79224.1 9252.72 79224.1 9313.66 79179.8 9321.97 79080.1 9344.13 78936 9374.61 78897.3 9374.61 78852.9 9374.61 78636.8 9374.61 78537.1 9255.48 78537.1 9089.28 78537.1 8939.69 78617.5 8784.55 78703.3 8615.58ZM78736.6 8554.63C78805.8 8427.2 78888.9 8277.61 78888.9 8078.16 78888.9 7895.33 78783.7 7432.7 78526 7432.7 78373.7 7432.7 78260.1 7549.05 78260.1 7759.58 78260.1 7934.11 78362.6 8454.91 78736.6 8554.63"/>
<path transform="matrix(.00359712,0,0,-.00359712,0,58)" d="M80263.5 7263.36C80441.8 7447.53 80513.6 7705.38 80513.6 7726.7 80513.6 7751.91 80490.3 7751.91 80480.6 7751.91 80453.5 7751.91 80453.5 7746.09 80439.9 7703.44 80405 7575.48 80341 7457.23 80259.6 7352.53 80257.7 7381.63 80253.8 7511.52 80249.9 7528.95 80220.8 7720.89 80075.4 7844.97 79881.5 7844.97 79596.6 7844.97 79323.2 7579.36 79323.2 7307.95 79323.2 7129.59 79453.1 6970.61 79678 6970.61 79856.3 6970.61 80017.3 7052.03 80125.8 7135.41 80170.4 6993.88 80269.3 6970.61 80327.5 6970.61 80439.9 6970.61 80509.7 7065.61 80509.7 7106.33 80509.7 7129.59 80486.4 7129.59 80476.7 7129.59 80451.5 7129.59 80447.6 7121.83 80443.8 7110.2 80416.6 7036.53 80356.5 7024.89 80333.3 7024.89 80306.1 7024.89 80273.2 7024.89 80263.5 7263.36ZM80112.3 7197.44C79922.3 7042.34 79757.5 7024.89 79683.8 7024.89 79555.8 7024.89 79484.1 7110.2 79484.1 7240.09 79484.1 7296.31 79511.3 7507.64 79612.1 7641.41 79701.3 7757.72 79811.8 7790.69 79879.6 7790.69 80034.7 7790.69 80079.3 7641.41 80094.8 7521.2 80106.4 7437.84 80102.6 7300.19 80112.3 7197.44"/>
<path transform="matrix(.00359712,0,0,-.00359712,0,58)" d="M81507.6 7261.42C81497.9 7373.86 81432 7844.97 81116 7844.97 81001.6 7844.97 80902.7 7782.92 80848.4 7732.52 80730.2 7625.89 80706.9 7501.81 80706.9 7496 80706.9 7472.73 80732.1 7472.73 80737.9 7472.73 80763.1 7472.73 80765.1 7476.61 80774.8 7505.69 80815.5 7620.08 80959 7689.88 81088.8 7689.88 81401 7689.88 81441.7 7377.73 81441.7 7180 81441.7 7083.06 81435.9 7061.73 81428.1 7040.41 81383.5 6895 81325.4 6679.81 81325.4 6621.64 81325.4 6600.33 81333.1 6575.13 81358.3 6575.13 81371.9 6575.13 81393.2 6575.13 81424.2 6675.94 81447.5 6751.55 81484.3 6895 81499.8 7034.59 81507.6 7102.44 81616.2 7364.17 81656.9 7457.23 81684 7517.33 81724.7 7608.45 81815.9 7777.11 81821.7 7786.81 81825.5 7794.56 81825.5 7802.31 81825.5 7825.58 81800.3 7825.58 81794.5 7825.58 81788.7 7825.58 81771.3 7825.58 81765.5 7815.89 81742.2 7775.17 81594.8 7497.94 81507.6 7261.42"/>
<path transform="matrix(.00359712,0,0,-.00359712,0,58)" d="M82795.3 8615.58C82449.1 8532.47 82180.3 8172.34 82180.3 7837.16 82180.3 7571.22 82357.6 7371.75 82618 7371.75 82942.2 7371.75 83172.1 7806.67 83172.1 8188.97 83172.1 8441.05 83061.3 8579.56 82967.1 8704.22 82867.4 8828.88 82703.9 9036.64 82703.9 9158.53 82703.9 9219.47 82759.3 9285.95 82856.3 9285.95 82939.4 9285.95 82994.8 9249.94 83053 9211.16 83108.4 9177.92 83163.8 9141.91 83205.3 9141.91 83274.6 9141.91 83316.1 9208.39 83316.1 9252.72 83316.1 9313.66 83271.8 9321.97 83172.1 9344.13 83028 9374.61 82989.3 9374.61 82944.9 9374.61 82728.8 9374.61 82629.1 9255.48 82629.1 9089.28 82629.1 8939.69 82709.5 8784.55 82795.3 8615.58ZM82828.6 8554.63C82897.8 8427.2 82980.9 8277.61 82980.9 8078.16 82980.9 7895.33 82875.7 7432.7 82618 7432.7 82465.7 7432.7 82352.1 7549.05 82352.1 7759.58 82352.1 7934.11 82454.6 8454.91 82828.6 8554.63"/>
<path transform="matrix(.00359712,0,0,-.00359712,0,58)" d="M84522.2 8087.3C84522.2 8257.91 84374.9 8356.78 84204.3 8356.78 83938.7 8356.78 83742.8 8054.34 83694.4 7858.53L83390 6637.16C83386.1 6623.58 83405.5 6613.89 83417.1 6613.89 83434.6 6613.89 83450.1 6615.83 83454 6627.47L83583.9 7145.09C83624.6 7055.92 83717.6 6972.55 83874.7 6972.55 84146.1 6972.55 84452.4 7168.36 84452.4 7464.98 84452.4 7579.36 84400.1 7695.69 84301.2 7759.67 84396.2 7819.77 84522.2 7930.27 84522.2 8087.3ZM84138.3 7761.61C84109.3 7755.78 84095.7 7748.03 84039.5 7748.03 84008.4 7748.03 83961.9 7749.97 83948.3 7757.72 83967.7 7769.36 84022 7771.3 84039.5 7771.3 84068.5 7771.3 84111.2 7769.36 84138.3 7761.61ZM84394.3 8122.2C84394.3 8019.45 84343.8 7868.23 84223.6 7800.38 84186.8 7812.02 84150 7825.58 84041.4 7825.58 83973.5 7825.58 83876.6 7821.7 83876.6 7751.91 83876.6 7703.44 83936.7 7695.69 84035.6 7695.69 84101.5 7695.69 84159.7 7705.38 84219.8 7722.83 84277.9 7682.11 84308.9 7602.63 84308.9 7517.33 84308.9 7236.22 84117 7026.83 83880.5 7026.83 83731.2 7026.83 83624.6 7117.95 83624.6 7271.11 83624.6 7290.5 83626.5 7309.89 83630.4 7327.33L83758.3 7843.03C83804.9 8027.2 83975.5 8302.5 84200.4 8302.5 84314.8 8302.5 84394.3 8240.47 84394.3 8122.2"/>
<path transform="matrix(.00359712,0,0,-.00359712,0,58)" d="M85219.9 7833.33C84929.1 7759.67 84766.3 7509.58 84766.3 7306.02 84766.3 7100.5 84923.3 6966.73 85115.2 6966.73 85349.8 6966.73 85532 7242.03 85532 7525.08 85532 7713.14 85431.2 7823.64 85371.1 7889.56 85299.4 7970.98 85154 8129.95 85154 8219.14 85154 8244.34 85181.1 8300.56 85260.6 8300.56 85326.5 8300.56 85380.8 8269.55 85423.5 8246.28 85440.9 8236.58 85510.7 8195.88 85539.8 8195.88 85586.3 8195.88 85621.2 8238.52 85621.2 8277.3 85621.2 8325.77 85596 8329.64 85491.3 8350.97 85468.1 8354.84 85378.9 8374.23 85316.9 8374.23 85171.5 8374.23 85090 8288.92 85090 8170.67 85090 8067.92 85152.1 7949.66 85219.9 7833.33ZM85252.9 7780.98C85307.2 7693.75 85377 7581.3 85377 7441.72 85377 7282.75 85282 7021.02 85119.1 7021.02 85012.5 7021.02 84907.8 7090.81 84907.8 7251.72 84907.8 7379.67 84981.5 7715.08 85252.9 7780.98"/>
<path transform="matrix(.00359712,0,0,-.00359712,0,58)" d="M87614 8042.14H88386.9C88425.7 8042.14 88478.3 8042.14 88478.3 8097.55 88478.3 8152.95 88425.7 8152.95 88386.9 8152.95H87614V8928.61C87614 8967.39 87614 9020.02 87558.6 9020.02 87503.2 9020.02 87503.2 8967.39 87503.2 8928.61V8152.95H86727.5C86688.8 8152.95 86636.1 8152.95 86636.1 8097.55 86636.1 8042.14 86688.8 8042.14 86727.5 8042.14H87503.2V7266.48C87503.2 7227.7 87503.2 7175.08 87558.6 7175.08 87614 7175.08 87614 7227.7 87614 7266.48V8042.14"/>
<path transform="matrix(.00359712,0,0,-.00359712,0,58)" d="M89982.3 8615.58C89636.1 8532.47 89367.3 8172.34 89367.3 7837.16 89367.3 7571.22 89544.6 7371.75 89805 7371.75 90129.2 7371.75 90359.1 7806.67 90359.1 8188.97 90359.1 8441.05 90248.3 8579.56 90154.1 8704.22 90054.4 8828.88 89890.9 9036.64 89890.9 9158.53 89890.9 9219.47 89946.3 9285.95 90043.3 9285.95 90126.4 9285.95 90181.8 9249.94 90240 9211.16 90295.4 9177.92 90350.8 9141.91 90392.3 9141.91 90461.6 9141.91 90503.1 9208.39 90503.1 9252.72 90503.1 9313.66 90458.8 9321.97 90359.1 9344.13 90215 9374.61 90176.3 9374.61 90131.9 9374.61 89915.8 9374.61 89816.1 9255.48 89816.1 9089.28 89816.1 8939.69 89896.5 8784.55 89982.3 8615.58ZM90015.6 8554.63C90084.8 8427.2 90167.9 8277.61 90167.9 8078.16 90167.9 7895.33 90062.7 7432.7 89805 7432.7 89652.7 7432.7 89539.1 7549.05 89539.1 7759.58 89539.1 7934.11 89641.6 8454.91 90015.6 8554.63"/>
<path transform="matrix(.00359712,0,0,-.00359712,0,58)" d="M91109.1 8201.69C91109.1 8232.7 91085.9 8275.36 91031.6 8275.36 90979.3 8275.36 90923 8224.95 90923 8168.73 90923 8135.77 90948.2 8095.06 91000.6 8095.06 91056.8 8095.06 91109.1 8149.34 91109.1 8201.69ZM90713.6 7216.83C90705.9 7191.63 90696.2 7168.36 90696.2 7135.41 90696.2 7044.28 90773.8 6970.61 90880.4 6970.61 91074.3 6970.61 91159.5 7238.16 91159.5 7267.23 91159.5 7292.44 91134.3 7292.44 91128.5 7292.44 91101.4 7292.44 91099.5 7280.81 91091.7 7259.48 91047.1 7104.39 90961.8 7024.89 90886.2 7024.89 90847.4 7024.89 90837.7 7050.09 90837.7 7092.75 90837.7 7137.34 90851.3 7174.17 90868.7 7216.83 90888.1 7269.17 90909.5 7321.52 90930.8 7371.92 90948.2 7418.45 91018 7594.88 91025.8 7618.14 91031.6 7637.53 91037.4 7660.8 91037.4 7680.17 91037.4 7771.3 90959.9 7844.97 90853.2 7844.97 90661.3 7844.97 90572.1 7581.3 90572.1 7548.34 90572.1 7523.14 90599.3 7523.14 90605.1 7523.14 90632.2 7523.14 90634.2 7532.84 90640 7554.16 90690.4 7720.89 90775.7 7790.69 90847.4 7790.69 90878.4 7790.69 90895.9 7775.17 90895.9 7722.83 90895.9 7678.23 90884.3 7649.16 90835.8 7528.95L90713.6 7216.83"/>
<path transform="matrix(.00359712,0,0,-.00359712,0,58)" d="M91811.7 8277.3C91813.7 8281.17 91819.5 8306.38 91819.5 8308.31 91819.5 8318.02 91811.7 8335.45 91788.5 8335.45 91749.7 8335.45 91588.8 8319.95 91540.3 8316.08 91526.7 8314.13 91499.6 8312.19 91499.6 8271.48 91499.6 8244.34 91526.7 8244.34 91548 8244.34 91641.1 8244.34 91641.1 8230.77 91641.1 8215.27 91641.1 8201.69 91637.2 8190.06 91633.4 8172.61L91393 7214.89C91387.1 7195.5 91385.2 7174.17 91385.2 7154.8 91385.2 7030.72 91495.7 6970.61 91588.8 6970.61 91635.3 6970.61 91693.5 6986.13 91743.9 7073.36 91784.6 7145.09 91811.7 7259.48 91811.7 7267.23 91811.7 7292.44 91786.5 7292.44 91780.7 7292.44 91753.5 7292.44 91749.7 7280.81 91741.9 7245.91 91716.7 7148.97 91679.9 7024.89 91596.5 7024.89 91544.2 7024.89 91530.6 7073.36 91530.6 7119.89 91530.6 7141.22 91536.4 7178.05 91542.2 7199.38L91811.7 8277.3"/>
<path transform="matrix(.00359712,0,0,-.00359712,0,58)" d="M92846.3 8615.58C92500.1 8532.47 92231.3 8172.34 92231.3 7837.16 92231.3 7571.22 92408.6 7371.75 92669 7371.75 92993.2 7371.75 93223.1 7806.67 93223.1 8188.97 93223.1 8441.05 93112.3 8579.56 93018.1 8704.22 92918.4 8828.88 92754.9 9036.64 92754.9 9158.53 92754.9 9219.47 92810.3 9285.95 92907.3 9285.95 92990.4 9285.95 93045.8 9249.94 93104 9211.16 93159.4 9177.92 93214.8 9141.91 93256.3 9141.91 93325.6 9141.91 93367.1 9208.39 93367.1 9252.72 93367.1 9313.66 93322.8 9321.97 93223.1 9344.13 93079 9374.61 93040.3 9374.61 92995.9 9374.61 92779.8 9374.61 92680.1 9255.48 92680.1 9089.28 92680.1 8939.69 92760.5 8784.55 92846.3 8615.58ZM92879.6 8554.63C92948.8 8427.2 93031.9 8277.61 93031.9 8078.16 93031.9 7895.33 92926.7 7432.7 92669 7432.7 92516.7 7432.7 92403.1 7549.05 92403.1 7759.58 92403.1 7934.11 92505.6 8454.91 92879.6 8554.63"/>
<path transform="matrix(.00359712,0,0,-.00359712,0,58)" d="M94197.1 8201.69C94197.1 8234.64 94171.9 8275.36 94119.5 8275.36 94063.3 8275.36 94011 8221.08 94011 8168.73 94011 8137.7 94034.2 8095.06 94088.5 8095.06 94140.9 8095.06 94197.1 8145.47 94197.1 8201.69ZM93786.1 6895C93753.1 6761.23 93650.4 6648.78 93536 6648.78 93510.8 6648.78 93487.5 6652.67 93466.2 6660.42 93516.6 6683.69 93532.1 6730.22 93532.1 6759.3 93532.1 6805.83 93495.3 6831.03 93456.5 6831.03 93396.4 6831.03 93346 6778.69 93346 6716.64 93346 6642.97 93421.6 6594.5 93537.9 6594.5 93654.3 6594.5 93881.1 6664.3 93941.2 6900.81L94115.7 7594.88C94121.5 7616.2 94125.4 7633.66 94125.4 7662.73 94125.4 7769.36 94034.2 7844.97 93917.9 7844.97 93702.7 7844.97 93578.6 7575.48 93578.6 7548.34 93578.6 7523.14 93605.8 7523.14 93611.6 7523.14 93634.9 7523.14 93636.8 7528.95 93650.4 7558.05 93698.8 7670.48 93799.7 7790.69 93912.1 7790.69 93960.6 7790.69 93978 7757.72 93978 7695.69 93978 7674.36 93974.1 7647.22 93972.2 7637.53L93786.1 6895"/>
<path transform="matrix(.00359712,0,0,-.00359712,0,58)" d="M94978.8 8277.3C94980.8 8281.17 94986.6 8306.38 94986.6 8308.31 94986.6 8318.02 94978.8 8335.45 94955.5 8335.45 94916.8 8335.45 94755.9 8319.95 94707.4 8316.08 94691.9 8314.13 94664.8 8312.19 94664.8 8271.48 94664.8 8244.34 94691.9 8244.34 94715.2 8244.34 94808.2 8244.34 94808.2 8230.77 94808.2 8215.27 94808.2 8201.69 94804.3 8190.06 94800.5 8172.61L94527.1 7075.3C94517.4 7040.41 94517.4 7036.53 94517.4 7032.66 94517.4 7003.58 94540.7 6970.61 94583.3 6970.61 94635.7 6970.61 94660.9 7009.39 94672.5 7052.03 94676.4 7059.8 94759.7 7401 94767.5 7428.14 94905.1 7414.58 95015.7 7369.98 95015.7 7269.17 95015.7 7259.48 95015.7 7249.78 95011.8 7230.41 95004 7201.31 95004 7191.63 95004 7170.3 95004 7032.66 95116.5 6970.61 95209.5 6970.61 95397.6 6970.61 95455.7 7265.3 95455.7 7267.23 95455.7 7292.44 95430.5 7292.44 95424.7 7292.44 95397.6 7292.44 95395.6 7282.75 95385.9 7245.91 95362.7 7162.55 95310.3 7024.89 95215.3 7024.89 95163 7024.89 95147.5 7073.36 95147.5 7125.7 95147.5 7158.67 95147.5 7162.55 95159.1 7212.95 95161 7218.77 95168.8 7251.72 95168.8 7273.05 95168.8 7445.59 94936.2 7472.73 94854.7 7478.55 94911 7513.45 94982.7 7577.42 95015.7 7606.5 95114.5 7699.56 95211.5 7790.69 95320 7790.69 95343.3 7790.69 95368.5 7784.88 95384 7765.48 95300.6 7751.91 95283.2 7686 95283.2 7656.91 95283.2 7614.27 95316.1 7585.19 95360.7 7585.19 95413.1 7585.19 95471.3 7627.83 95471.3 7709.27 95471.3 7773.23 95424.7 7844.97 95322 7844.97 95211.5 7844.97 95110.6 7765.48 95011.8 7674.36 94930.3 7596.81 94866.4 7536.72 94786.9 7503.75L94978.8 8277.3"/>
<path transform="matrix(.00359712,0,0,-.00359712,0,58)" d="M96468.3 8615.58C96122.1 8532.47 95853.3 8172.34 95853.3 7837.16 95853.3 7571.22 96030.6 7371.75 96291 7371.75 96615.2 7371.75 96845.1 7806.67 96845.1 8188.97 96845.1 8441.05 96734.3 8579.56 96640.1 8704.22 96540.4 8828.88 96376.9 9036.64 96376.9 9158.53 96376.9 9219.47 96432.3 9285.95 96529.3 9285.95 96612.4 9285.95 96667.8 9249.94 96726 9211.16 96781.4 9177.92 96836.8 9141.91 96878.3 9141.91 96947.6 9141.91 96989.1 9208.39 96989.1 9252.72 96989.1 9313.66 96944.8 9321.97 96845.1 9344.13 96701 9374.61 96662.3 9374.61 96617.9 9374.61 96401.8 9374.61 96302.1 9255.48 96302.1 9089.28 96302.1 8939.69 96382.5 8784.55 96468.3 8615.58ZM96501.6 8554.63C96570.8 8427.2 96653.9 8277.61 96653.9 8078.16 96653.9 7895.33 96548.7 7432.7 96291 7432.7 96138.7 7432.7 96025.1 7549.05 96025.1 7759.58 96025.1 7934.11 96127.6 8454.91 96501.6 8554.63"/>
<path transform="matrix(.00359712,0,0,-.00359712,0,58)" d="M98028.5 7263.36C98206.8 7447.53 98278.6 7705.38 98278.6 7726.7 98278.6 7751.91 98255.3 7751.91 98245.6 7751.91 98218.5 7751.91 98218.5 7746.09 98204.9 7703.44 98170 7575.48 98106 7457.23 98024.6 7352.53 98022.7 7381.63 98018.8 7511.52 98014.9 7528.95 97985.8 7720.89 97840.4 7844.97 97646.5 7844.97 97361.6 7844.97 97088.2 7579.36 97088.2 7307.95 97088.2 7129.59 97218.1 6970.61 97443 6970.61 97621.3 6970.61 97782.3 7052.03 97890.8 7135.41 97935.4 6993.88 98034.3 6970.61 98092.5 6970.61 98204.9 6970.61 98274.7 7065.61 98274.7 7106.33 98274.7 7129.59 98251.4 7129.59 98241.7 7129.59 98216.5 7129.59 98212.6 7121.83 98208.8 7110.2 98181.6 7036.53 98121.5 7024.89 98098.3 7024.89 98071.1 7024.89 98038.2 7024.89 98028.5 7263.36ZM97877.3 7197.44C97687.3 7042.34 97522.5 7024.89 97448.8 7024.89 97320.8 7024.89 97249.1 7110.2 97249.1 7240.09 97249.1 7296.31 97276.3 7507.64 97377.1 7641.41 97466.3 7757.72 97576.8 7790.69 97644.6 7790.69 97799.7 7790.69 97844.3 7641.41 97859.8 7521.2 97871.4 7437.84 97867.6 7300.19 97877.3 7197.44"/>
<path transform="matrix(.00359712,0,0,-.00359712,0,58)" d="M98978.9 7833.33C98688.1 7759.67 98525.3 7509.58 98525.3 7306.02 98525.3 7100.5 98682.3 6966.73 98874.2 6966.73 99108.8 6966.73 99291 7242.03 99291 7525.08 99291 7713.14 99190.2 7823.64 99130.1 7889.56 99058.4 7970.98 98913 8129.95 98913 8219.14 98913 8244.34 98940.1 8300.56 99019.6 8300.56 99085.5 8300.56 99139.8 8269.55 99182.5 8246.28 99199.9 8236.58 99269.7 8195.88 99298.8 8195.88 99345.3 8195.88 99380.2 8238.52 99380.2 8277.3 99380.2 8325.77 99355 8329.64 99250.3 8350.97 99227.1 8354.84 99137.9 8374.23 99075.9 8374.23 98930.5 8374.23 98849 8288.92 98849 8170.67 98849 8067.92 98911.1 7949.66 98978.9 7833.33ZM99011.9 7780.98C99066.2 7693.75 99136 7581.3 99136 7441.72 99136 7282.75 99041 7021.02 98878.1 7021.02 98771.5 7021.02 98666.8 7090.81 98666.8 7251.72 98666.8 7379.67 98740.5 7715.08 99011.9 7780.98"/>
<path transform="matrix(.00359712,0,0,-.00359712,0,58)" d="M100355 8615.58C100009 8532.47 99740.3 8172.34 99740.3 7837.16 99740.3 7571.22 99917.6 7371.75 100178 7371.75 100502 7371.75 100732 7806.67 100732 8188.97 100732 8441.05 100621 8579.56 100527 8704.22 100427 8828.88 100264 9036.64 100264 9158.53 100264 9219.47 100319 9285.95 100416 9285.95 100499 9285.95 100555 9249.94 100613 9211.16 100668 9177.92 100724 9141.91 100765 9141.91 100835 9141.91 100876 9208.39 100876 9252.72 100876 9313.66 100832 9321.97 100732 9344.13 100588 9374.61 100549 9374.61 100505 9374.61 100289 9374.61 100189 9255.48 100189 9089.28 100189 8939.69 100269 8784.55 100355 8615.58ZM100389 8554.63C100458 8427.2 100541 8277.61 100541 8078.16 100541 7895.33 100436 7432.7 100178 7432.7 100026 7432.7 99912.1 7549.05 99912.1 7759.58 99912.1 7934.11 100015 8454.91 100389 8554.63"/>
<path transform="matrix(.00359712,0,0,-.00359712,0,58)" d="M102082 8087.3C102082 8257.91 101935 8356.78 101764 8356.78 101499 8356.78 101303 8054.34 101254 7858.53L100950 6637.16C100946 6623.58 100966 6613.89 100977 6613.89 100995 6613.89 101010 6615.83 101014 6627.47L101144 7145.09C101185 7055.92 101278 6972.55 101435 6972.55 101706 6972.55 102012 7168.36 102012 7464.98 102012 7579.36 101960 7695.69 101861 7759.67 101956 7819.77 102082 7930.27 102082 8087.3ZM101698 7761.61C101669 7755.78 101656 7748.03 101599 7748.03 101568 7748.03 101522 7749.97 101508 7757.72 101528 7769.36 101582 7771.3 101599 7771.3 101629 7771.3 101671 7769.36 101698 7761.61ZM101954 8122.2C101954 8019.45 101904 7868.23 101784 7800.38 101747 7812.02 101710 7825.58 101601 7825.58 101534 7825.58 101437 7821.7 101437 7751.91 101437 7703.44 101497 7695.69 101596 7695.69 101662 7695.69 101720 7705.38 101780 7722.83 101838 7682.11 101869 7602.63 101869 7517.33 101869 7236.22 101677 7026.83 101440 7026.83 101291 7026.83 101185 7117.95 101185 7271.11 101185 7290.5 101187 7309.89 101190 7327.33L101318 7843.03C101365 8027.2 101535 8302.5 101760 8302.5 101875 8302.5 101954 8240.47 101954 8122.2"/>
<path transform="matrix(.00359712,0,0,-.00359712,0,58)" d="M103075 7261.42C103065 7373.86 102999 7844.97 102683 7844.97 102569 7844.97 102470 7782.92 102415 7732.52 102297 7625.89 102274 7501.81 102274 7496 102274 7472.73 102299 7472.73 102305 7472.73 102330 7472.73 102332 7476.61 102342 7505.69 102382 7620.08 102526 7689.88 102656 7689.88 102968 7689.88 103009 7377.73 103009 7180 103009 7083.06 103003 7061.73 102995 7040.41 102951 6895 102892 6679.81 102892 6621.64 102892 6600.33 102900 6575.13 102925 6575.13 102939 6575.13 102960 6575.13 102991 6675.94 103015 6751.55 103051 6895 103067 7034.59 103075 7102.44 103183 7364.17 103224 7457.23 103251 7517.33 103292 7608.45 103383 7777.11 103389 7786.81 103393 7794.56 103393 7802.31 103393 7825.58 103367 7825.58 103362 7825.58 103356 7825.58 103338 7825.58 103332 7815.89 103309 7775.17 103162 7497.94 103075 7261.42"/>
<path transform="matrix(.00359712,0,0,-.00359712,0,58)" d="M104432 8097.55C104432 8313.63 104401 8648.81 104249 8961.84 104083 9302.58 103844 9482.64 103817 9482.64 103800 9482.64 103789 9471.56 103789 9454.94 103789 9446.63 103789 9441.09 103842 9391.22 104113 9116.97 104271 8676.52 104271 8097.55 104271 7623.84 104168 7136.3 103825 6787.25 103789 6754 103789 6748.47 103789 6740.16 103789 6723.53 103800 6712.45 103817 6712.45 103844 6712.45 104094 6900.83 104257 7252.64 104398 7557.36 104432 7864.84 104432 8097.55"/>
<path transform="matrix(.00359712,0,0,-.00359712,0,58)" d="M105901 8615.58C105555 8532.47 105286 8172.34 105286 7837.16 105286 7571.22 105464 7371.75 105724 7371.75 106048 7371.75 106278 7806.67 106278 8188.97 106278 8441.05 106167 8579.56 106073 8704.22 105973 8828.88 105810 9036.64 105810 9158.53 105810 9219.47 105865 9285.95 105962 9285.95 106045 9285.95 106101 9249.94 106159 9211.16 106214 9177.92 106270 9141.91 106311 9141.91 106381 9141.91 106422 9208.39 106422 9252.72 106422 9313.66 106378 9321.97 106278 9344.13 106134 9374.61 106095 9374.61 106051 9374.61 105835 9374.61 105735 9255.48 105735 9089.28 105735 8939.69 105815 8784.55 105901 8615.58ZM105935 8554.63C106004 8427.2 106087 8277.61 106087 8078.16 106087 7895.33 105982 7432.7 105724 7432.7 105572 7432.7 105458 7549.05 105458 7759.58 105458 7934.11 105561 8454.91 105935 8554.63"/>
<path transform="matrix(.00359712,0,0,-.00359712,0,58)" d="M107432 7705.38C107440 7734.47 107440 7744.16 107440 7746.09 107440 7788.75 107405 7808.13 107374 7808.13 107330 7808.13 107293 7771.3 107285 7734.47 107252 7786.81 107186 7844.97 107085 7844.97 106843 7844.97 106589 7585.19 106589 7307.95 106589 7108.27 106725 6990 106884 6990 106973 6990 107058 7034.59 107126 7094.69L107083 6920.2C107062 6838.78 107049 6786.44 106975 6720.52 106890 6648.78 106806 6648.78 106758 6648.78 106669 6648.78 106643 6654.61 106608 6662.36 106657 6685.63 106670 6732.16 106670 6759.3 106670 6805.83 106634 6831.03 106595 6831.03 106541 6831.03 106484 6786.44 106484 6712.77 106484 6596.44 106651 6594.5 106760 6594.5 107064 6594.5 107194 6749.59 107221 6860.11L107432 7705.38ZM107165 7247.84C107157 7218.77 107157 7214.89 107124 7176.11 107056 7094.69 106963 7044.28 106890 7044.28 106791 7044.28 106744 7127.64 106744 7228.45 106744 7313.77 106797 7530.89 106847 7616.2 106928 7751.91 107019 7790.69 107085 7790.69 107221 7790.69 107258 7645.28 107258 7625.89 107258 7622.02 107258 7618.14 107252 7596.81L107165 7247.84"/>
<path transform="matrix(.00359712,0,0,-.00359712,0,58)" d="M108221 7551.81C108221 7632.16 108154 7698.64 108074 7698.64 107994 7698.64 107927 7632.16 107927 7551.81 107927 7471.48 107994 7405 108074 7405 108154 7405 108221 7471.48 108221 7551.81"/>
</svg>
