<svg xmlns="http://www.w3.org/2000/svg" xmlns:xlink="http://www.w3.org/1999/xlink" version="1.1" width="221pt" height="58pt" viewBox="0 0 221 58">
<path transform="matrix(.00359712,0,0,-.00359712,0,58)" d="M8895.72 8097.86C8895.72 8424.28 8631.11 8688.89 8304.7 8688.89 7978.28 8688.89 7713.67 8424.28 7713.67 8097.86 7713.67 7771.45 7978.28 7506.84 8304.7 7506.84 8631.11 7506.84 8895.72 7771.45 8895.72 8097.86ZM8304.7 8097.86"/>
<path transform="matrix(.00359712,0,0,-.00359712,0,58)" stroke-width="110.783" stroke-linecap="butt" stroke-miterlimit="10" stroke-linejoin="miter" fill="none" stroke="#000000" d="M8895.72 8097.86C8895.72 8424.28 8631.11 8688.89 8304.7 8688.89 7978.28 8688.89 7713.67 8424.28 7713.67 8097.86 7713.67 7771.45 7978.28 7506.84 8304.7 7506.84 8631.11 7506.84 8895.72 7771.45 8895.72 8097.86ZM8304.7 8097.86"/>
<path transform="matrix(.00359712,0,0,-.00359712,0,58)" d="M14597.7 15715C14597.7 15717.8 14597.7 15745.5 14561.7 15745.5 14498 15745.5 14295.8 15723.3 14223.7 15717.8 14201.6 15715 14171.1 15712.3 14171.1 15659.6 14171.1 15629.2 14198.8 15629.2 14240.4 15629.2 14373.3 15629.2 14376.1 15604.2 14376.1 15582.1L14367.8 15526.7 14018.7 14141.6C14010.4 14111.1 14004.9 14091.7 14004.9 14047.4 14004.9 13889.5 14126.8 13792.5 14257 13792.5 14348.4 13792.5 14417.6 13847.9 14464.7 13947.7 14514.6 14052.9 14547.8 14213.6 14547.8 14219.1 14547.8 14246.8 14522.9 14246.8 14514.6 14246.8 14486.9 14246.8 14484.1 14235.8 14475.8 14197 14428.7 14016.9 14376.1 13853.5 14265.3 13853.5 14182.2 13853.5 14182.2 13942.1 14182.2 13980.9 14182.2 14047.4 14185 14061.2 14198.8 14113.9L14597.7 15715"/>
<path transform="matrix(.00359712,0,0,-.00359712,0,58)" d="M15492.3 15033.6C15146.1 14950.5 14877.3 14590.3 14877.3 14255.2 14877.3 13989.2 15054.6 13789.8 15315 13789.8 15639.2 13789.8 15869.1 14224.7 15869.1 14607 15869.1 14859 15758.3 14997.6 15664.1 15122.2 15564.4 15246.9 15400.9 15454.6 15400.9 15576.5 15400.9 15637.5 15456.3 15704 15553.3 15704 15636.4 15704 15691.8 15667.9 15750 15629.2 15805.4 15595.9 15860.8 15559.9 15902.3 15559.9 15971.6 15559.9 16013.1 15626.4 16013.1 15670.7 16013.1 15731.7 15968.8 15740 15869.1 15762.1 15725 15792.6 15686.3 15792.6 15641.9 15792.6 15425.8 15792.6 15326.1 15673.5 15326.1 15507.3 15326.1 15357.7 15406.5 15202.5 15492.3 15033.6ZM15525.6 14972.6C15594.8 14845.2 15677.9 14695.6 15677.9 14496.2 15677.9 14313.3 15572.7 13850.7 15315 13850.7 15162.7 13850.7 15049.1 13967 15049.1 14177.6 15049.1 14352.1 15151.6 14872.9 15525.6 14972.6"/>
<path transform="matrix(.00359712,0,0,-.00359712,0,58)" d="M854.047 15984C854.047 15986.8 854.047 16014.5 818.031 16014.5 754.313 16014.5 552.094 15992.3 480.063 15986.8 457.906 15984 427.438 15981.3 427.438 15931.4 427.438 15898.2 452.359 15898.2 493.922 15898.2 626.891 15898.2 632.422 15878.8 632.422 15851.1L624.125 15795.7 222.438 14200C211.359 14161.3 211.359 14155.7 211.359 14139.1 211.359 14075.4 266.766 14061.5 291.703 14061.5 327.703 14061.5 369.266 14086.5 385.875 14119.7 399.734 14144.6 524.391 14657.1 541.016 14726.4 635.203 14718.1 862.359 14673.7 862.359 14490.9 862.359 14471.5 862.359 14460.4 854.047 14432.7 848.5 14399.5 842.969 14366.3 842.969 14335.8 842.969 14172.3 953.766 14061.5 1097.83 14061.5 1180.92 14061.5 1255.72 14105.8 1316.67 14208.3 1385.92 14330.2 1416.39 14482.6 1416.39 14488.1 1416.39 14515.8 1391.45 14515.8 1383.16 14515.8 1355.45 14515.8 1352.67 14504.8 1344.36 14466 1288.97 14263.8 1225.25 14122.5 1103.36 14122.5 1050.73 14122.5 1014.72 14152.9 1014.72 14252.7 1014.72 14299.8 1025.8 14363.5 1036.88 14407.8 1047.95 14454.9 1047.95 14466 1047.95 14493.7 1047.95 14673.7 873.438 14754.1 637.969 14784.5 723.844 14834.4 812.484 14923.1 876.203 14989.5 1009.17 15136.4 1136.61 15255.5 1272.34 15255.5 1288.97 15255.5 1291.73 15255.5 1297.28 15252.7 1330.52 15247.2 1333.28 15247.2 1355.45 15230.5 1360.98 15227.8 1360.98 15225 1366.53 15219.5 1233.56 15211.2 1208.63 15103.1 1208.63 15069.9 1208.63 15025.5 1239.09 14972.9 1313.89 14972.9 1385.92 14972.9 1466.25 15033.9 1466.25 15141.9 1466.25 15225 1402.55 15316.4 1277.88 15316.4 1200.31 15316.4 1072.89 15294.3 873.438 15072.6 779.25 14967.4 671.219 14856.6 565.938 14815L854.047 15984"/>
<path transform="matrix(.00359712,0,0,-.00359712,0,58)" d="M1699.58 14795.6C1807.61 15114.2 2109.56 15117 2140.03 15117 2558.33 15117 2588.81 14632.2 2588.81 14413.3 2588.81 14244.4 2574.95 14197.3 2555.56 14141.9 2494.63 13939.6 2411.52 13618.3 2411.52 13546.3 2411.52 13515.8 2425.36 13496.4 2447.53 13496.4 2483.55 13496.4 2505.7 13557.4 2536.17 13662.6 2599.89 13895.3 2627.59 14053.2 2638.67 14139.1 2644.22 14175.1 2649.75 14211.1 2660.83 14247.1 2749.48 14521.4 2926.77 14934.1 3037.58 15153 3056.97 15186.2 3090.22 15247.2 3090.22 15258.3 3090.22 15286 3062.52 15286 3056.97 15286 3048.66 15286 3032.03 15286 3023.73 15266.6 2879.67 15003.4 2768.88 14726.4 2658.06 14446.6 2655.3 14532.5 2652.52 14743 2544.48 15011.7 2478 15180.7 2367.19 15316.4 2176.05 15316.4 1829.78 15316.4 1635.86 14895.4 1635.86 14809.5 1635.86 14781.8 1660.8 14781.8 1688.5 14781.8L1699.58 14795.6"/>
<path transform="matrix(.00359712,0,0,-.00359712,0,58)" d="M1036.73 2229.38C1036.73 2284.77 997.953 2329.09 934.234 2329.09 859.438 2329.09 784.641 2257.06 784.641 2182.28 784.641 2129.64 823.422 2082.55 889.906 2082.55 953.625 2082.55 1036.73 2146.27 1036.73 2229.38ZM826.203 1187.78C859.438 1268.11 859.438 1273.66 887.141 1348.45 909.313 1403.84 923.156 1442.64 923.156 1495.27 923.156 1619.92 834.516 1722.42 696 1722.42 435.609 1722.42 330.328 1320.75 330.328 1295.81 330.328 1268.11 358.031 1268.11 363.578 1268.11 391.281 1268.11 394.047 1273.66 407.906 1317.97 482.703 1578.38 593.5 1661.48 687.688 1661.48 709.844 1661.48 756.938 1661.48 756.938 1572.83 756.938 1514.66 737.547 1456.48 726.469 1428.78 704.313 1356.77 579.656 1035.42 535.328 916.297 507.625 844.281 471.609 752.859 471.609 694.688 471.609 564.484 565.797 467.531 698.766 467.531 959.172 467.531 1061.67 869.203 1061.67 894.141 1061.67 921.844 1036.73 921.844 1028.42 921.844 1000.72 921.844 1000.72 913.531 986.875 871.969 937 697.453 845.594 528.469 704.313 528.469 657.219 528.469 637.828 556.172 637.828 619.891 637.828 689.141 654.453 727.922 718.156 896.906L826.203 1187.78"/>
<path transform="matrix(.00359712,0,0,-.00359712,0,58)" d="M2524.38 1151.77C2524.38 1586.69 2266.75 1722.42 2061.77 1722.42 1682.25 1722.42 1316.58 1326.28 1316.58 935.688 1316.58 678.063 1482.78 467.531 1765.34 467.531 1939.88 467.531 2139.33 531.25 2349.86 700.219 2385.88 553.406 2477.28 467.531 2601.94 467.531 2748.77 467.531 2834.64 619.891 2834.64 664.219 2834.64 683.609 2818.02 691.906 2801.39 691.906 2782 691.906 2773.7 683.609 2765.39 664.219 2715.52 528.469 2615.8 528.469 2610.25 528.469 2524.38 528.469 2524.38 744.547 2524.38 811.031 2524.38 869.203 2524.38 874.75 2552.08 907.984 2812.48 1234.88 2870.66 1556.22 2870.66 1558.98 2870.66 1564.52 2867.89 1586.69 2837.41 1586.69 2809.7 1586.69 2809.7 1578.38 2795.86 1528.52 2746 1353.98 2654.58 1143.45 2524.38 980.016V1151.77ZM2338.78 772.25C2095 558.938 1881.7 528.469 1770.89 528.469 1604.67 528.469 1521.58 653.125 1521.58 830.422 1521.58 966.156 1593.59 1265.34 1682.25 1406.63 1812.44 1608.84 1962.03 1661.48 2058.98 1661.48 2333.23 1661.48 2333.23 1298.58 2333.23 1082.52 2333.23 980.016 2333.23 819.344 2338.78 772.25"/>
<path transform="matrix(.00359712,0,0,-.00359712,0,58)" d="M14585.8 2450.38C14585.8 2503 14547 2550.09 14480.5 2550.09 14416.8 2550.09 14333.7 2486.38 14333.7 2403.28 14333.7 2347.88 14372.5 2303.55 14436.2 2303.55 14511 2303.55 14585.8 2375.58 14585.8 2450.38ZM14029 580.484C13976.3 369.953 13843.4 212.063 13688.2 212.063 13671.6 212.063 13630 212.063 13580.2 236.984 13663.3 256.375 13704.8 328.406 13704.8 383.813 13704.8 428.125 13674.4 480.766 13599.6 480.766 13530.3 480.766 13450 422.594 13450 322.859 13450 212.063 13560.8 151.109 13693.8 151.109 13887.7 151.109 14145.3 297.938 14214.6 572.188L14469.4 1586.06C14483.3 1641.47 14483.3 1680.25 14483.3 1688.56 14483.3 1846.47 14366.9 1943.42 14228.4 1943.42 13945.8 1943.42 13788 1541.75 13788 1516.81 13788 1489.11 13815.7 1489.11 13821.2 1489.11 13846.1 1489.11 13848.9 1491.88 13871.1 1544.52 13940.3 1713.5 14067.7 1882.48 14220.1 1882.48 14258.9 1882.48 14308.8 1871.39 14308.8 1755.05 14308.8 1691.33 14300.4 1660.86 14289.4 1613.77L14029 580.484"/>
<path transform="matrix(.00359712,0,0,-.00359712,0,58)" d="M16374.9 2295.23C16374.9 2503 16222.5 2674.75 15998.1 2674.75 15837.4 2674.75 15759.9 2630.42 15662.9 2558.41 15510.6 2447.59 15358.2 2178.89 15305.6 1968.36L14865.1 209.281C14862.3 198.203 14876.2 181.578 14898.3 181.578 14920.5 181.578 14928.8 187.125 14931.6 195.438L15125.5 960C15178.1 793.797 15300 691.297 15502.3 691.297 15704.5 691.297 15912.2 788.25 16036.9 910.141 16169.9 1037.58 16258.5 1214.86 16258.5 1419.86 16258.5 1619.31 16156 1763.36 16056.3 1832.61 16217 1924.03 16374.9 2095.78 16374.9 2295.23ZM15876.2 1835.39C15840.2 1821.53 15809.7 1816 15743.3 1816 15704.5 1816 15649.1 1813.22 15621.4 1827.08 15626.9 1854.78 15726.6 1849.23 15757.1 1849.23 15815.3 1849.23 15840.2 1849.23 15876.2 1835.39ZM16219.7 2358.95C16219.7 2165.03 16114.5 1965.58 15970.4 1879.7 15895.6 1907.41 15840.2 1912.95 15757.1 1912.95 15698.9 1912.95 15543.8 1915.72 15543.8 1824.31 15541 1746.73 15685.1 1755.05 15734.9 1755.05 15837.4 1755.05 15879 1757.83 15962.1 1791.06 16067.4 1691.33 16081.2 1605.45 16084 1478.03 16089.5 1317.36 16023 1109.59 15945.5 1001.56 15837.4 851.969 15651.8 752.25 15493.9 752.25 15283.4 752.25 15178.1 912.906 15178.1 1109.59 15178.1 1137.3 15178.1 1178.84 15192 1231.48L15369.3 1932.34C15430.2 2170.58 15629.7 2611.03 15962.1 2611.03 16122.8 2611.03 16219.7 2525.16 16219.7 2358.95"/>
<path transform="matrix(.00359712,0,0,-.00359712,0,58)" stroke-width="110.783" stroke-linecap="butt" stroke-miterlimit="10" stroke-linejoin="miter" fill="none" stroke="#000000" d="M3509.48 3302.97 7886.78 7679.95"/>
<path transform="matrix(.00359712,0,0,-.00359712,0,58)" d="M6421.24 6214.48 4587.36 5454.92 5661.52 4380.67"/>
<path transform="matrix(.00359712,0,0,-.00359712,0,58)" stroke-width="110.783" stroke-linecap="butt" stroke-miterlimit="10" stroke-linejoin="miter" fill="none" stroke="#000000" d="M8722.62 8515.75 13051.6 12844.4"/>
<path transform="matrix(.00359712,0,0,-.00359712,0,58)" d="M11610.2 11403.1 9776.32 10643.5 10850.5 9569.27"/>
<path transform="matrix(.00359712,0,0,-.00359712,0,58)" stroke-width="110.783" stroke-linecap="butt" stroke-miterlimit="10" stroke-linejoin="miter" fill="none" stroke="#000000" d="M12782.3 3620.6 8722.61 7679.95"/>
<path transform="matrix(.00359712,0,0,-.00359712,0,58)" d="M10028.3 6374.3 10788.1 4540.48 11862.2 5614.75"/>
<path transform="matrix(.00359712,0,0,-.00359712,0,58)" stroke-width="110.783" stroke-linecap="butt" stroke-miterlimit="10" stroke-linejoin="miter" fill="none" stroke="#000000" d="M7886.76 8515.75 3826.99 12575.1"/>
<path transform="matrix(.00359712,0,0,-.00359712,0,58)" d="M5132.71 11269.5 5892.46 9435.68 6966.61 10509.9"/>
<path transform="matrix(.00359712,0,0,-.00359712,0,58)" d="M21016.1 8310.84C21057.7 8310.84 21110.3 8310.84 21110.3 8366.25 21110.3 8421.66 21057.7 8421.66 21018.9 8421.66H19359.5C19320.8 8421.66 19268.1 8421.66 19268.1 8366.25 19268.1 8310.84 19320.8 8310.84 19362.3 8310.84H21016.1ZM21018.9 7773.44C21057.7 7773.44 21110.3 7773.44 21110.3 7828.84 21110.3 7884.25 21057.7 7884.25 21016.1 7884.25H19362.3C19320.8 7884.25 19268.1 7884.25 19268.1 7828.84 19268.1 7773.44 19320.8 7773.44 19359.5 7773.44H21018.9"/>
<path transform="matrix(.00359712,0,0,-.00359712,0,58)" d="M22822.7 9136.38C22822.7 9191.77 22784 9236.09 22720.2 9236.09 22645.4 9236.09 22570.6 9164.06 22570.6 9089.28 22570.6 9036.64 22609.4 8989.55 22675.9 8989.55 22739.6 8989.55 22822.7 9053.27 22822.7 9136.38ZM22612.2 8094.78C22645.4 8175.11 22645.4 8180.66 22673.1 8255.45 22695.3 8310.84 22709.2 8349.64 22709.2 8402.27 22709.2 8526.92 22620.5 8629.42 22482 8629.42 22221.6 8629.42 22116.3 8227.75 22116.3 8202.81 22116.3 8175.11 22144 8175.11 22149.6 8175.11 22177.3 8175.11 22180 8180.66 22193.9 8224.97 22268.7 8485.38 22379.5 8568.48 22473.7 8568.48 22495.8 8568.48 22542.9 8568.48 22542.9 8479.83 22542.9 8421.66 22523.5 8363.48 22512.5 8335.78 22490.3 8263.77 22365.7 7942.42 22321.3 7823.3 22293.6 7751.28 22257.6 7659.86 22257.6 7601.69 22257.6 7471.48 22351.8 7374.53 22484.8 7374.53 22745.2 7374.53 22847.7 7776.2 22847.7 7801.14 22847.7 7828.84 22822.7 7828.84 22814.4 7828.84 22786.7 7828.84 22786.7 7820.53 22772.9 7778.97 22723 7604.45 22631.6 7435.47 22490.3 7435.47 22443.2 7435.47 22423.8 7463.17 22423.8 7526.89 22423.8 7596.14 22440.5 7634.92 22504.2 7803.91L22612.2 8094.78"/>
<path transform="matrix(.00359712,0,0,-.00359712,0,58)" d="M24293.8 8449.36C24296.5 8465.98 24302.1 8479.83 24302.1 8499.22 24302.1 8546.31 24268.8 8574.02 24221.7 8574.02 24194 8574.02 24119.2 8554.63 24108.2 8454.91 24058.3 8557.39 23961.3 8629.42 23850.5 8629.42 23534.7 8629.42 23191.2 8241.59 23191.2 7842.69 23191.2 7568.44 23360.2 7405 23559.7 7405 23723.1 7405 23853.3 7535.2 23881 7565.67L23883.8 7562.91C23825.6 7316.36 23792.4 7202.78 23792.4 7197.23 23781.3 7172.3 23687.1 6898.06 23393.5 6898.06 23340.8 6898.06 23249.4 6900.83 23171.8 6925.75 23254.9 6950.69 23285.4 7022.72 23285.4 7069.81 23285.4 7114.13 23254.9 7166.77 23180.1 7166.77 23119.2 7166.77 23030.5 7116.91 23030.5 7006.09 23030.5 6892.52 23133 6837.11 23399 6837.11 23745.3 6837.11 23944.7 7053.19 23986.3 7219.39L24293.8 8449.36ZM23933.6 7759.58C23917 7687.56 23853.3 7618.3 23792.4 7565.67 23734.2 7515.81 23648.3 7465.94 23568 7465.94 23429.5 7465.94 23387.9 7610 23387.9 7720.8 23387.9 7853.77 23468.3 8180.66 23543 8321.94 23617.8 8457.67 23737 8568.48 23853.3 8568.48 24036.1 8568.48 24074.9 8344.09 24074.9 8330.25 24074.9 8316.39 24069.4 8299.77 24066.6 8288.69L23933.6 7759.58"/>
<path transform="matrix(.00359712,0,0,-.00359712,0,58)" d="M25390 8901.84H25324.1C25318.3 8859.19 25298.9 8744.81 25273.7 8725.42 25258.2 8713.8 25108.9 8713.8 25081.8 8713.8H24725.1C24928.6 8894.09 24996.5 8948.38 25112.8 9039.48 25256.3 9153.88 25390 9274.08 25390 9458.25 25390 9692.83 25184.5 9836.3 24936.4 9836.3 24696 9836.3 24533.1 9667.63 24533.1 9489.27 24533.1 9390.39 24616.5 9380.7 24635.9 9380.7 24682.4 9380.7 24738.6 9413.66 24738.6 9483.45 24738.6 9518.34 24725.1 9586.2 24624.3 9586.2 24684.4 9723.86 24816.2 9766.5 24907.3 9766.5 25101.2 9766.5 25202 9615.28 25202 9458.25 25202 9289.58 25081.8 9155.81 25019.8 9086.02L24552.5 8624.61C24533.1 8607.16 24533.1 8603.28 24533.1 8549H25331.9L25390 8901.84"/>
<path transform="matrix(.00359712,0,0,-.00359712,0,58)" d="M27031.9 6740.16C27031.9 6748.47 27031.9 6754 26984.8 6801.09 26638.6 7150.14 26549.9 7673.7 26549.9 8097.55 26549.9 8579.56 26655.2 9061.58 26995.9 9407.84 27031.9 9441.09 27031.9 9446.63 27031.9 9454.94 27031.9 9474.33 27020.8 9482.64 27004.2 9482.64 26976.5 9482.64 26727.2 9294.27 26563.8 8942.45 26422.5 8637.73 26389.3 8330.25 26389.3 8097.55 26389.3 7881.47 26419.7 7546.28 26572.1 7233.25 26738.3 6892.52 26976.5 6712.45 27004.2 6712.45 27020.8 6712.45 27031.9 6720.77 27031.9 6740.16"/>
<path transform="matrix(.00359712,0,0,-.00359712,0,58)" d="M27923.3 8615.58C27577.1 8532.47 27308.3 8172.34 27308.3 7837.16 27308.3 7571.22 27485.6 7371.75 27746 7371.75 28070.2 7371.75 28300.1 7806.67 28300.1 8188.97 28300.1 8441.05 28189.3 8579.56 28095.1 8704.22 27995.4 8828.88 27831.9 9036.64 27831.9 9158.53 27831.9 9219.47 27887.3 9285.95 27984.3 9285.95 28067.4 9285.95 28122.8 9249.94 28181 9211.16 28236.4 9177.92 28291.8 9141.91 28333.3 9141.91 28402.6 9141.91 28444.1 9208.39 28444.1 9252.72 28444.1 9313.66 28399.8 9321.97 28300.1 9344.13 28156 9374.61 28117.3 9374.61 28072.9 9374.61 27856.8 9374.61 27757.1 9255.48 27757.1 9089.28 27757.1 8939.69 27837.5 8784.55 27923.3 8615.58ZM27956.6 8554.63C28025.8 8427.2 28108.9 8277.61 28108.9 8078.16 28108.9 7895.33 28003.7 7432.7 27746 7432.7 27593.7 7432.7 27480.1 7549.05 27480.1 7759.58 27480.1 7934.11 27582.6 8454.91 27956.6 8554.63"/>
<path transform="matrix(.00359712,0,0,-.00359712,0,58)" d="M29051.1 8201.69C29051.1 8232.7 29027.9 8275.36 28973.6 8275.36 28921.3 8275.36 28865 8224.95 28865 8168.73 28865 8135.77 28890.2 8095.06 28942.6 8095.06 28998.8 8095.06 29051.1 8149.34 29051.1 8201.69ZM28655.6 7216.83C28647.9 7191.63 28638.2 7168.36 28638.2 7135.41 28638.2 7044.28 28715.8 6970.61 28822.4 6970.61 29016.3 6970.61 29101.5 7238.16 29101.5 7267.23 29101.5 7292.44 29076.3 7292.44 29070.5 7292.44 29043.4 7292.44 29041.5 7280.81 29033.7 7259.48 28989.1 7104.39 28903.8 7024.89 28828.2 7024.89 28789.4 7024.89 28779.7 7050.09 28779.7 7092.75 28779.7 7137.34 28793.3 7174.17 28810.7 7216.83 28830.1 7269.17 28851.5 7321.52 28872.8 7371.92 28890.2 7418.45 28960 7594.88 28967.8 7618.14 28973.6 7637.53 28979.4 7660.8 28979.4 7680.17 28979.4 7771.3 28901.9 7844.97 28795.2 7844.97 28603.3 7844.97 28514.1 7581.3 28514.1 7548.34 28514.1 7523.14 28541.3 7523.14 28547.1 7523.14 28574.2 7523.14 28576.2 7532.84 28582 7554.16 28632.4 7720.89 28717.7 7790.69 28789.4 7790.69 28820.4 7790.69 28837.9 7775.17 28837.9 7722.83 28837.9 7678.23 28826.3 7649.16 28777.8 7528.95L28655.6 7216.83"/>
<path transform="matrix(.00359712,0,0,-.00359712,0,58)" d="M29812.8 8277.3C29814.8 8281.17 29820.6 8306.38 29820.6 8308.31 29820.6 8318.02 29812.8 8335.45 29789.5 8335.45 29750.8 8335.45 29589.9 8319.95 29541.4 8316.08 29525.9 8314.13 29498.8 8312.19 29498.8 8271.48 29498.8 8244.34 29525.9 8244.34 29549.2 8244.34 29642.2 8244.34 29642.2 8230.77 29642.2 8215.27 29642.2 8201.69 29638.3 8190.06 29634.5 8172.61L29361.1 7075.3C29351.4 7040.41 29351.4 7036.53 29351.4 7032.66 29351.4 7003.58 29374.7 6970.61 29417.3 6970.61 29469.7 6970.61 29494.9 7009.39 29506.5 7052.03 29510.4 7059.8 29593.7 7401 29601.5 7428.14 29739.1 7414.58 29849.7 7369.98 29849.7 7269.17 29849.7 7259.48 29849.7 7249.78 29845.8 7230.41 29838 7201.31 29838 7191.63 29838 7170.3 29838 7032.66 29950.5 6970.61 30043.5 6970.61 30231.6 6970.61 30289.7 7265.3 30289.7 7267.23 30289.7 7292.44 30264.5 7292.44 30258.7 7292.44 30231.6 7292.44 30229.6 7282.75 30219.9 7245.91 30196.7 7162.55 30144.3 7024.89 30049.3 7024.89 29997 7024.89 29981.5 7073.36 29981.5 7125.7 29981.5 7158.67 29981.5 7162.55 29993.1 7212.95 29995 7218.77 30002.8 7251.72 30002.8 7273.05 30002.8 7445.59 29770.2 7472.73 29688.7 7478.55 29745 7513.45 29816.7 7577.42 29849.7 7606.5 29948.5 7699.56 30045.5 7790.69 30154 7790.69 30177.3 7790.69 30202.5 7784.88 30218 7765.48 30134.6 7751.91 30117.2 7686 30117.2 7656.91 30117.2 7614.27 30150.1 7585.19 30194.7 7585.19 30247.1 7585.19 30305.3 7627.83 30305.3 7709.27 30305.3 7773.23 30258.7 7844.97 30156 7844.97 30045.5 7844.97 29944.6 7765.48 29845.8 7674.36 29764.3 7596.81 29700.4 7536.72 29620.9 7503.75L29812.8 8277.3"/>
<path transform="matrix(.00359712,0,0,-.00359712,0,58)" d="M31300.3 8615.58C30954.1 8532.47 30685.3 8172.34 30685.3 7837.16 30685.3 7571.22 30862.6 7371.75 31123 7371.75 31447.2 7371.75 31677.1 7806.67 31677.1 8188.97 31677.1 8441.05 31566.3 8579.56 31472.1 8704.22 31372.4 8828.88 31208.9 9036.64 31208.9 9158.53 31208.9 9219.47 31264.3 9285.95 31361.3 9285.95 31444.4 9285.95 31499.8 9249.94 31558 9211.16 31613.4 9177.92 31668.8 9141.91 31710.3 9141.91 31779.6 9141.91 31821.1 9208.39 31821.1 9252.72 31821.1 9313.66 31776.8 9321.97 31677.1 9344.13 31533 9374.61 31494.3 9374.61 31449.9 9374.61 31233.8 9374.61 31134.1 9255.48 31134.1 9089.28 31134.1 8939.69 31214.5 8784.55 31300.3 8615.58ZM31333.6 8554.63C31402.8 8427.2 31485.9 8277.61 31485.9 8078.16 31485.9 7895.33 31380.7 7432.7 31123 7432.7 30970.7 7432.7 30857.1 7549.05 30857.1 7759.58 30857.1 7934.11 30959.6 8454.91 31333.6 8554.63"/>
<path transform="matrix(.00359712,0,0,-.00359712,0,58)" d="M32651.1 8201.69C32651.1 8234.64 32625.9 8275.36 32573.5 8275.36 32517.3 8275.36 32465 8221.08 32465 8168.73 32465 8137.7 32488.2 8095.06 32542.5 8095.06 32594.9 8095.06 32651.1 8145.47 32651.1 8201.69ZM32240.1 6895C32207.1 6761.23 32104.4 6648.78 31990 6648.78 31964.8 6648.78 31941.5 6652.67 31920.2 6660.42 31970.6 6683.69 31986.1 6730.22 31986.1 6759.3 31986.1 6805.83 31949.3 6831.03 31910.5 6831.03 31850.4 6831.03 31800 6778.69 31800 6716.64 31800 6642.97 31875.6 6594.5 31991.9 6594.5 32108.3 6594.5 32335.1 6664.3 32395.2 6900.81L32569.7 7594.88C32575.5 7616.2 32579.4 7633.66 32579.4 7662.73 32579.4 7769.36 32488.2 7844.97 32371.9 7844.97 32156.7 7844.97 32032.6 7575.48 32032.6 7548.34 32032.6 7523.14 32059.8 7523.14 32065.6 7523.14 32088.9 7523.14 32090.8 7528.95 32104.4 7558.05 32152.8 7670.48 32253.7 7790.69 32366.1 7790.69 32414.6 7790.69 32432 7757.72 32432 7695.69 32432 7674.36 32428.1 7647.22 32426.2 7637.53L32240.1 6895"/>
<path transform="matrix(.00359712,0,0,-.00359712,0,58)" d="M33372.7 8277.3C33374.7 8281.17 33380.5 8306.38 33380.5 8308.31 33380.5 8318.02 33372.7 8335.45 33349.5 8335.45 33310.7 8335.45 33149.8 8319.95 33101.3 8316.08 33087.7 8314.13 33060.6 8312.19 33060.6 8271.48 33060.6 8244.34 33087.7 8244.34 33109 8244.34 33202.1 8244.34 33202.1 8230.77 33202.1 8215.27 33202.1 8201.69 33198.2 8190.06 33194.4 8172.61L32954 7214.89C32948.1 7195.5 32946.2 7174.17 32946.2 7154.8 32946.2 7030.72 33056.7 6970.61 33149.8 6970.61 33196.3 6970.61 33254.5 6986.13 33304.9 7073.36 33345.6 7145.09 33372.7 7259.48 33372.7 7267.23 33372.7 7292.44 33347.5 7292.44 33341.7 7292.44 33314.5 7292.44 33310.7 7280.81 33302.9 7245.91 33277.7 7148.97 33240.9 7024.89 33157.5 7024.89 33105.2 7024.89 33091.6 7073.36 33091.6 7119.89 33091.6 7141.22 33097.4 7178.05 33103.2 7199.38L33372.7 8277.3"/>
<path transform="matrix(.00359712,0,0,-.00359712,0,58)" d="M34410.3 8615.58C34064.1 8532.47 33795.3 8172.34 33795.3 7837.16 33795.3 7571.22 33972.6 7371.75 34233 7371.75 34557.2 7371.75 34787.1 7806.67 34787.1 8188.97 34787.1 8441.05 34676.3 8579.56 34582.1 8704.22 34482.4 8828.88 34318.9 9036.64 34318.9 9158.53 34318.9 9219.47 34374.3 9285.95 34471.3 9285.95 34554.4 9285.95 34609.8 9249.94 34668 9211.16 34723.4 9177.92 34778.8 9141.91 34820.3 9141.91 34889.6 9141.91 34931.1 9208.39 34931.1 9252.72 34931.1 9313.66 34886.8 9321.97 34787.1 9344.13 34643 9374.61 34604.3 9374.61 34559.9 9374.61 34343.8 9374.61 34244.1 9255.48 34244.1 9089.28 34244.1 8939.69 34324.5 8784.55 34410.3 8615.58ZM34443.6 8554.63C34512.8 8427.2 34595.9 8277.61 34595.9 8078.16 34595.9 7895.33 34490.7 7432.7 34233 7432.7 34080.7 7432.7 33967.1 7549.05 33967.1 7759.58 33967.1 7934.11 34069.6 8454.91 34443.6 8554.63"/>
<path transform="matrix(.00359712,0,0,-.00359712,0,58)" d="M35970.5 7263.36C36148.8 7447.53 36220.6 7705.38 36220.6 7726.7 36220.6 7751.91 36197.3 7751.91 36187.6 7751.91 36160.5 7751.91 36160.5 7746.09 36146.9 7703.44 36112 7575.48 36048 7457.23 35966.6 7352.53 35964.7 7381.63 35960.8 7511.52 35956.9 7528.95 35927.8 7720.89 35782.4 7844.97 35588.5 7844.97 35303.6 7844.97 35030.2 7579.36 35030.2 7307.95 35030.2 7129.59 35160.1 6970.61 35385 6970.61 35563.3 6970.61 35724.3 7052.03 35832.8 7135.41 35877.4 6993.88 35976.3 6970.61 36034.5 6970.61 36146.9 6970.61 36216.7 7065.61 36216.7 7106.33 36216.7 7129.59 36193.4 7129.59 36183.7 7129.59 36158.5 7129.59 36154.6 7121.83 36150.8 7110.2 36123.6 7036.53 36063.5 7024.89 36040.3 7024.89 36013.1 7024.89 35980.2 7024.89 35970.5 7263.36ZM35819.3 7197.44C35629.3 7042.34 35464.5 7024.89 35390.8 7024.89 35262.8 7024.89 35191.1 7110.2 35191.1 7240.09 35191.1 7296.31 35218.3 7507.64 35319.1 7641.41 35408.3 7757.72 35518.8 7790.69 35586.6 7790.69 35741.7 7790.69 35786.3 7641.41 35801.8 7521.2 35813.4 7437.84 35809.6 7300.19 35819.3 7197.44"/>
<path transform="matrix(.00359712,0,0,-.00359712,0,58)" d="M37214.6 7261.42C37204.9 7373.86 37139 7844.97 36823 7844.97 36708.6 7844.97 36609.7 7782.92 36555.4 7732.52 36437.2 7625.89 36413.9 7501.81 36413.9 7496 36413.9 7472.73 36439.1 7472.73 36444.9 7472.73 36470.1 7472.73 36472.1 7476.61 36481.8 7505.69 36522.5 7620.08 36666 7689.88 36795.8 7689.88 37108 7689.88 37148.7 7377.73 37148.7 7180 37148.7 7083.06 37142.9 7061.73 37135.1 7040.41 37090.5 6895 37032.4 6679.81 37032.4 6621.64 37032.4 6600.33 37040.1 6575.13 37065.3 6575.13 37078.9 6575.13 37100.2 6575.13 37131.2 6675.94 37154.5 6751.55 37191.3 6895 37206.8 7034.59 37214.6 7102.44 37323.2 7364.17 37363.9 7457.23 37391 7517.33 37431.7 7608.45 37522.9 7777.11 37528.7 7786.81 37532.5 7794.56 37532.5 7802.31 37532.5 7825.58 37507.3 7825.58 37501.5 7825.58 37495.7 7825.58 37478.3 7825.58 37472.5 7815.89 37449.2 7775.17 37301.8 7497.94 37214.6 7261.42"/>
<path transform="matrix(.00359712,0,0,-.00359712,0,58)" d="M38502.3 8615.58C38156.1 8532.47 37887.3 8172.34 37887.3 7837.16 37887.3 7571.22 38064.6 7371.75 38325 7371.75 38649.2 7371.75 38879.1 7806.67 38879.1 8188.97 38879.1 8441.05 38768.3 8579.56 38674.1 8704.22 38574.4 8828.88 38410.9 9036.64 38410.9 9158.53 38410.9 9219.47 38466.3 9285.95 38563.3 9285.95 38646.4 9285.95 38701.8 9249.94 38760 9211.16 38815.4 9177.92 38870.8 9141.91 38912.3 9141.91 38981.6 9141.91 39023.1 9208.39 39023.1 9252.72 39023.1 9313.66 38978.8 9321.97 38879.1 9344.13 38735 9374.61 38696.3 9374.61 38651.9 9374.61 38435.8 9374.61 38336.1 9255.48 38336.1 9089.28 38336.1 8939.69 38416.5 8784.55 38502.3 8615.58ZM38535.6 8554.63C38604.8 8427.2 38687.9 8277.61 38687.9 8078.16 38687.9 7895.33 38582.7 7432.7 38325 7432.7 38172.7 7432.7 38059.1 7549.05 38059.1 7759.58 38059.1 7934.11 38161.6 8454.91 38535.6 8554.63"/>
<path transform="matrix(.00359712,0,0,-.00359712,0,58)" d="M40229.2 8087.3C40229.2 8257.91 40081.9 8356.78 39911.3 8356.78 39645.7 8356.78 39449.8 8054.34 39401.4 7858.53L39097 6637.16C39093.1 6623.58 39112.5 6613.89 39124.1 6613.89 39141.6 6613.89 39157.1 6615.83 39161 6627.47L39290.9 7145.09C39331.6 7055.92 39424.6 6972.55 39581.7 6972.55 39853.1 6972.55 40159.4 7168.36 40159.4 7464.98 40159.4 7579.36 40107.1 7695.69 40008.2 7759.67 40103.2 7819.77 40229.2 7930.27 40229.2 8087.3ZM39845.3 7761.61C39816.3 7755.78 39802.7 7748.03 39746.5 7748.03 39715.4 7748.03 39668.9 7749.97 39655.3 7757.72 39674.7 7769.36 39729 7771.3 39746.5 7771.3 39775.5 7771.3 39818.2 7769.36 39845.3 7761.61ZM40101.3 8122.2C40101.3 8019.45 40050.8 7868.23 39930.6 7800.38 39893.8 7812.02 39857 7825.58 39748.4 7825.58 39680.5 7825.58 39583.6 7821.7 39583.6 7751.91 39583.6 7703.44 39643.7 7695.69 39742.6 7695.69 39808.5 7695.69 39866.7 7705.38 39926.8 7722.83 39984.9 7682.11 40015.9 7602.63 40015.9 7517.33 40015.9 7236.22 39824 7026.83 39587.5 7026.83 39438.2 7026.83 39331.6 7117.95 39331.6 7271.11 39331.6 7290.5 39333.5 7309.89 39337.4 7327.33L39465.3 7843.03C39511.9 8027.2 39682.5 8302.5 39907.4 8302.5 40021.8 8302.5 40101.3 8240.47 40101.3 8122.2"/>
<path transform="matrix(.00359712,0,0,-.00359712,0,58)" d="M40926.9 7833.33C40636.1 7759.67 40473.3 7509.58 40473.3 7306.02 40473.3 7100.5 40630.3 6966.73 40822.2 6966.73 41056.8 6966.73 41239 7242.03 41239 7525.08 41239 7713.14 41138.2 7823.64 41078.1 7889.56 41006.4 7970.98 40861 8129.95 40861 8219.14 40861 8244.34 40888.1 8300.56 40967.6 8300.56 41033.5 8300.56 41087.8 8269.55 41130.5 8246.28 41147.9 8236.58 41217.7 8195.88 41246.8 8195.88 41293.3 8195.88 41328.2 8238.52 41328.2 8277.3 41328.2 8325.77 41303 8329.64 41198.3 8350.97 41175.1 8354.84 41085.9 8374.23 41023.9 8374.23 40878.5 8374.23 40797 8288.92 40797 8170.67 40797 8067.92 40859.1 7949.66 40926.9 7833.33ZM40959.9 7780.98C41014.2 7693.75 41084 7581.3 41084 7441.72 41084 7282.75 40989 7021.02 40826.1 7021.02 40719.5 7021.02 40614.8 7090.81 40614.8 7251.72 40614.8 7379.67 40688.5 7715.08 40959.9 7780.98"/>
<path transform="matrix(.00359712,0,0,-.00359712,0,58)" d="M43321 8042.14H44093.9C44132.7 8042.14 44185.3 8042.14 44185.3 8097.55 44185.3 8152.95 44132.7 8152.95 44093.9 8152.95H43321V8928.61C43321 8967.39 43321 9020.02 43265.6 9020.02 43210.2 9020.02 43210.2 8967.39 43210.2 8928.61V8152.95H42434.5C42395.8 8152.95 42343.1 8152.95 42343.1 8097.55 42343.1 8042.14 42395.8 8042.14 42434.5 8042.14H43210.2V7266.48C43210.2 7227.7 43210.2 7175.08 43265.6 7175.08 43321 7175.08 43321 7227.7 43321 7266.48V8042.14"/>
<path transform="matrix(.00359712,0,0,-.00359712,0,58)" d="M45689.3 8615.58C45343.1 8532.47 45074.3 8172.34 45074.3 7837.16 45074.3 7571.22 45251.6 7371.75 45512 7371.75 45836.2 7371.75 46066.1 7806.67 46066.1 8188.97 46066.1 8441.05 45955.3 8579.56 45861.1 8704.22 45761.4 8828.88 45597.9 9036.64 45597.9 9158.53 45597.9 9219.47 45653.3 9285.95 45750.3 9285.95 45833.4 9285.95 45888.8 9249.94 45947 9211.16 46002.4 9177.92 46057.8 9141.91 46099.3 9141.91 46168.6 9141.91 46210.1 9208.39 46210.1 9252.72 46210.1 9313.66 46165.8 9321.97 46066.1 9344.13 45922 9374.61 45883.3 9374.61 45838.9 9374.61 45622.8 9374.61 45523.1 9255.48 45523.1 9089.28 45523.1 8939.69 45603.5 8784.55 45689.3 8615.58ZM45722.6 8554.63C45791.8 8427.2 45874.9 8277.61 45874.9 8078.16 45874.9 7895.33 45769.7 7432.7 45512 7432.7 45359.7 7432.7 45246.1 7549.05 45246.1 7759.58 45246.1 7934.11 45348.6 8454.91 45722.6 8554.63"/>
<path transform="matrix(.00359712,0,0,-.00359712,0,58)" d="M46817.1 8201.69C46817.1 8232.7 46793.9 8275.36 46739.6 8275.36 46687.3 8275.36 46631 8224.95 46631 8168.73 46631 8135.77 46656.2 8095.06 46708.6 8095.06 46764.8 8095.06 46817.1 8149.34 46817.1 8201.69ZM46421.6 7216.83C46413.9 7191.63 46404.2 7168.36 46404.2 7135.41 46404.2 7044.28 46481.8 6970.61 46588.4 6970.61 46782.3 6970.61 46867.5 7238.16 46867.5 7267.23 46867.5 7292.44 46842.3 7292.44 46836.5 7292.44 46809.4 7292.44 46807.5 7280.81 46799.7 7259.48 46755.1 7104.39 46669.8 7024.89 46594.2 7024.89 46555.4 7024.89 46545.7 7050.09 46545.7 7092.75 46545.7 7137.34 46559.3 7174.17 46576.7 7216.83 46596.1 7269.17 46617.5 7321.52 46638.8 7371.92 46656.2 7418.45 46726 7594.88 46733.8 7618.14 46739.6 7637.53 46745.4 7660.8 46745.4 7680.17 46745.4 7771.3 46667.9 7844.97 46561.2 7844.97 46369.3 7844.97 46280.1 7581.3 46280.1 7548.34 46280.1 7523.14 46307.3 7523.14 46313.1 7523.14 46340.2 7523.14 46342.2 7532.84 46348 7554.16 46398.4 7720.89 46483.7 7790.69 46555.4 7790.69 46586.4 7790.69 46603.9 7775.17 46603.9 7722.83 46603.9 7678.23 46592.3 7649.16 46543.8 7528.95L46421.6 7216.83"/>
<path transform="matrix(.00359712,0,0,-.00359712,0,58)" d="M47518.7 8277.3C47520.7 8281.17 47526.5 8306.38 47526.5 8308.31 47526.5 8318.02 47518.7 8335.45 47495.5 8335.45 47456.7 8335.45 47295.8 8319.95 47247.3 8316.08 47233.7 8314.13 47206.6 8312.19 47206.6 8271.48 47206.6 8244.34 47233.7 8244.34 47255 8244.34 47348.1 8244.34 47348.1 8230.77 47348.1 8215.27 47348.1 8201.69 47344.2 8190.06 47340.4 8172.61L47100 7214.89C47094.1 7195.5 47092.2 7174.17 47092.2 7154.8 47092.2 7030.72 47202.7 6970.61 47295.8 6970.61 47342.3 6970.61 47400.5 6986.13 47450.9 7073.36 47491.6 7145.09 47518.7 7259.48 47518.7 7267.23 47518.7 7292.44 47493.5 7292.44 47487.7 7292.44 47460.5 7292.44 47456.7 7280.81 47448.9 7245.91 47423.7 7148.97 47386.9 7024.89 47303.5 7024.89 47251.2 7024.89 47237.6 7073.36 47237.6 7119.89 47237.6 7141.22 47243.4 7178.05 47249.2 7199.38L47518.7 8277.3"/>
<path transform="matrix(.00359712,0,0,-.00359712,0,58)" d="M48553.3 8615.58C48207.1 8532.47 47938.3 8172.34 47938.3 7837.16 47938.3 7571.22 48115.6 7371.75 48376 7371.75 48700.2 7371.75 48930.1 7806.67 48930.1 8188.97 48930.1 8441.05 48819.3 8579.56 48725.1 8704.22 48625.4 8828.88 48461.9 9036.64 48461.9 9158.53 48461.9 9219.47 48517.3 9285.95 48614.3 9285.95 48697.4 9285.95 48752.8 9249.94 48811 9211.16 48866.4 9177.92 48921.8 9141.91 48963.3 9141.91 49032.6 9141.91 49074.1 9208.39 49074.1 9252.72 49074.1 9313.66 49029.8 9321.97 48930.1 9344.13 48786 9374.61 48747.3 9374.61 48702.9 9374.61 48486.8 9374.61 48387.1 9255.48 48387.1 9089.28 48387.1 8939.69 48467.5 8784.55 48553.3 8615.58ZM48586.6 8554.63C48655.8 8427.2 48738.9 8277.61 48738.9 8078.16 48738.9 7895.33 48633.7 7432.7 48376 7432.7 48223.7 7432.7 48110.1 7549.05 48110.1 7759.58 48110.1 7934.11 48212.6 8454.91 48586.6 8554.63"/>
<path transform="matrix(.00359712,0,0,-.00359712,0,58)" d="M49904.1 8201.69C49904.1 8234.64 49878.9 8275.36 49826.5 8275.36 49770.3 8275.36 49718 8221.08 49718 8168.73 49718 8137.7 49741.2 8095.06 49795.5 8095.06 49847.9 8095.06 49904.1 8145.47 49904.1 8201.69ZM49493.1 6895C49460.1 6761.23 49357.4 6648.78 49243 6648.78 49217.8 6648.78 49194.5 6652.67 49173.2 6660.42 49223.6 6683.69 49239.1 6730.22 49239.1 6759.3 49239.1 6805.83 49202.3 6831.03 49163.5 6831.03 49103.4 6831.03 49053 6778.69 49053 6716.64 49053 6642.97 49128.6 6594.5 49244.9 6594.5 49361.3 6594.5 49588.1 6664.3 49648.2 6900.81L49822.7 7594.88C49828.5 7616.2 49832.4 7633.66 49832.4 7662.73 49832.4 7769.36 49741.2 7844.97 49624.9 7844.97 49409.7 7844.97 49285.6 7575.48 49285.6 7548.34 49285.6 7523.14 49312.8 7523.14 49318.6 7523.14 49341.9 7523.14 49343.8 7528.95 49357.4 7558.05 49405.8 7670.48 49506.7 7790.69 49619.1 7790.69 49667.6 7790.69 49685 7757.72 49685 7695.69 49685 7674.36 49681.1 7647.22 49679.2 7637.53L49493.1 6895"/>
<path transform="matrix(.00359712,0,0,-.00359712,0,58)" d="M50685.8 8277.3C50687.8 8281.17 50693.6 8306.38 50693.6 8308.31 50693.6 8318.02 50685.8 8335.45 50662.5 8335.45 50623.8 8335.45 50462.9 8319.95 50414.4 8316.08 50398.9 8314.13 50371.8 8312.19 50371.8 8271.48 50371.8 8244.34 50398.9 8244.34 50422.2 8244.34 50515.2 8244.34 50515.2 8230.77 50515.2 8215.27 50515.2 8201.69 50511.3 8190.06 50507.5 8172.61L50234.1 7075.3C50224.4 7040.41 50224.4 7036.53 50224.4 7032.66 50224.4 7003.58 50247.7 6970.61 50290.3 6970.61 50342.7 6970.61 50367.9 7009.39 50379.5 7052.03 50383.4 7059.8 50466.7 7401 50474.5 7428.14 50612.1 7414.58 50722.7 7369.98 50722.7 7269.17 50722.7 7259.48 50722.7 7249.78 50718.8 7230.41 50711 7201.31 50711 7191.63 50711 7170.3 50711 7032.66 50823.5 6970.61 50916.5 6970.61 51104.6 6970.61 51162.7 7265.3 51162.7 7267.23 51162.7 7292.44 51137.5 7292.44 51131.7 7292.44 51104.6 7292.44 51102.6 7282.75 51092.9 7245.91 51069.7 7162.55 51017.3 7024.89 50922.3 7024.89 50870 7024.89 50854.5 7073.36 50854.5 7125.7 50854.5 7158.67 50854.5 7162.55 50866.1 7212.95 50868 7218.77 50875.8 7251.72 50875.8 7273.05 50875.8 7445.59 50643.2 7472.73 50561.7 7478.55 50618 7513.45 50689.7 7577.42 50722.7 7606.5 50821.5 7699.56 50918.5 7790.69 51027 7790.69 51050.3 7790.69 51075.5 7784.88 51091 7765.48 51007.6 7751.91 50990.2 7686 50990.2 7656.91 50990.2 7614.27 51023.1 7585.19 51067.7 7585.19 51120.1 7585.19 51178.3 7627.83 51178.3 7709.27 51178.3 7773.23 51131.7 7844.97 51029 7844.97 50918.5 7844.97 50817.6 7765.48 50718.8 7674.36 50637.3 7596.81 50573.4 7536.72 50493.9 7503.75L50685.8 8277.3"/>
<path transform="matrix(.00359712,0,0,-.00359712,0,58)" d="M52175.3 8615.58C51829.1 8532.47 51560.3 8172.34 51560.3 7837.16 51560.3 7571.22 51737.6 7371.75 51998 7371.75 52322.2 7371.75 52552.1 7806.67 52552.1 8188.97 52552.1 8441.05 52441.3 8579.56 52347.1 8704.22 52247.4 8828.88 52083.9 9036.64 52083.9 9158.53 52083.9 9219.47 52139.3 9285.95 52236.3 9285.95 52319.4 9285.95 52374.8 9249.94 52433 9211.16 52488.4 9177.92 52543.8 9141.91 52585.3 9141.91 52654.6 9141.91 52696.1 9208.39 52696.1 9252.72 52696.1 9313.66 52651.8 9321.97 52552.1 9344.13 52408 9374.61 52369.3 9374.61 52324.9 9374.61 52108.8 9374.61 52009.1 9255.48 52009.1 9089.28 52009.1 8939.69 52089.5 8784.55 52175.3 8615.58ZM52208.6 8554.63C52277.8 8427.2 52360.9 8277.61 52360.9 8078.16 52360.9 7895.33 52255.7 7432.7 51998 7432.7 51845.7 7432.7 51732.1 7549.05 51732.1 7759.58 51732.1 7934.11 51834.6 8454.91 52208.6 8554.63"/>
<path transform="matrix(.00359712,0,0,-.00359712,0,58)" d="M53735.5 7263.36C53913.8 7447.53 53985.6 7705.38 53985.6 7726.7 53985.6 7751.91 53962.3 7751.91 53952.6 7751.91 53925.5 7751.91 53925.5 7746.09 53911.9 7703.44 53877 7575.48 53813 7457.23 53731.6 7352.53 53729.7 7381.63 53725.8 7511.52 53721.9 7528.95 53692.8 7720.89 53547.4 7844.97 53353.5 7844.97 53068.6 7844.97 52795.2 7579.36 52795.2 7307.95 52795.2 7129.59 52925.1 6970.61 53150 6970.61 53328.3 6970.61 53489.3 7052.03 53597.8 7135.41 53642.4 6993.88 53741.3 6970.61 53799.5 6970.61 53911.9 6970.61 53981.7 7065.61 53981.7 7106.33 53981.7 7129.59 53958.4 7129.59 53948.7 7129.59 53923.5 7129.59 53919.6 7121.83 53915.8 7110.2 53888.6 7036.53 53828.5 7024.89 53805.3 7024.89 53778.1 7024.89 53745.2 7024.89 53735.5 7263.36ZM53584.3 7197.44C53394.3 7042.34 53229.5 7024.89 53155.8 7024.89 53027.8 7024.89 52956.1 7110.2 52956.1 7240.09 52956.1 7296.31 52983.3 7507.64 53084.1 7641.41 53173.3 7757.72 53283.8 7790.69 53351.6 7790.69 53506.7 7790.69 53551.3 7641.41 53566.8 7521.2 53578.4 7437.84 53574.6 7300.19 53584.3 7197.44"/>
<path transform="matrix(.00359712,0,0,-.00359712,0,58)" d="M54685.9 7833.33C54395.1 7759.67 54232.3 7509.58 54232.3 7306.02 54232.3 7100.5 54389.3 6966.73 54581.2 6966.73 54815.8 6966.73 54998 7242.03 54998 7525.08 54998 7713.14 54897.2 7823.64 54837.1 7889.56 54765.4 7970.98 54620 8129.95 54620 8219.14 54620 8244.34 54647.1 8300.56 54726.6 8300.56 54792.5 8300.56 54846.8 8269.55 54889.5 8246.28 54906.9 8236.58 54976.7 8195.88 55005.8 8195.88 55052.3 8195.88 55087.2 8238.52 55087.2 8277.3 55087.2 8325.77 55062 8329.64 54957.3 8350.97 54934.1 8354.84 54844.9 8374.23 54782.9 8374.23 54637.5 8374.23 54556 8288.92 54556 8170.67 54556 8067.92 54618.1 7949.66 54685.9 7833.33ZM54718.9 7780.98C54773.2 7693.75 54843 7581.3 54843 7441.72 54843 7282.75 54748 7021.02 54585.1 7021.02 54478.5 7021.02 54373.8 7090.81 54373.8 7251.72 54373.8 7379.67 54447.5 7715.08 54718.9 7780.98"/>
<path transform="matrix(.00359712,0,0,-.00359712,0,58)" d="M56062.3 8615.58C55716.1 8532.47 55447.3 8172.34 55447.3 7837.16 55447.3 7571.22 55624.6 7371.75 55885 7371.75 56209.2 7371.75 56439.1 7806.67 56439.1 8188.97 56439.1 8441.05 56328.3 8579.56 56234.1 8704.22 56134.4 8828.88 55970.9 9036.64 55970.9 9158.53 55970.9 9219.47 56026.3 9285.95 56123.3 9285.95 56206.4 9285.95 56261.8 9249.94 56320 9211.16 56375.4 9177.92 56430.8 9141.91 56472.3 9141.91 56541.6 9141.91 56583.1 9208.39 56583.1 9252.72 56583.1 9313.66 56538.8 9321.97 56439.1 9344.13 56295 9374.61 56256.3 9374.61 56211.9 9374.61 55995.8 9374.61 55896.1 9255.48 55896.1 9089.28 55896.1 8939.69 55976.5 8784.55 56062.3 8615.58ZM56095.6 8554.63C56164.8 8427.2 56247.9 8277.61 56247.9 8078.16 56247.9 7895.33 56142.7 7432.7 55885 7432.7 55732.7 7432.7 55619.1 7549.05 55619.1 7759.58 55619.1 7934.11 55721.6 8454.91 56095.6 8554.63"/>
<path transform="matrix(.00359712,0,0,-.00359712,0,58)" d="M57789.2 8087.3C57789.2 8257.91 57641.9 8356.78 57471.3 8356.78 57205.7 8356.78 57009.8 8054.34 56961.4 7858.53L56657 6637.16C56653.1 6623.58 56672.5 6613.89 56684.1 6613.89 56701.6 6613.89 56717.1 6615.83 56721 6627.47L56850.9 7145.09C56891.6 7055.92 56984.6 6972.55 57141.7 6972.55 57413.1 6972.55 57719.4 7168.36 57719.4 7464.98 57719.4 7579.36 57667.1 7695.69 57568.2 7759.67 57663.2 7819.77 57789.2 7930.27 57789.2 8087.3ZM57405.3 7761.61C57376.3 7755.78 57362.7 7748.03 57306.5 7748.03 57275.4 7748.03 57228.9 7749.97 57215.3 7757.72 57234.7 7769.36 57289 7771.3 57306.5 7771.3 57335.5 7771.3 57378.2 7769.36 57405.3 7761.61ZM57661.3 8122.2C57661.3 8019.45 57610.8 7868.23 57490.6 7800.38 57453.8 7812.02 57417 7825.58 57308.4 7825.58 57240.5 7825.58 57143.6 7821.7 57143.6 7751.91 57143.6 7703.44 57203.7 7695.69 57302.6 7695.69 57368.5 7695.69 57426.7 7705.38 57486.8 7722.83 57544.9 7682.11 57575.9 7602.63 57575.9 7517.33 57575.9 7236.22 57384 7026.83 57147.5 7026.83 56998.2 7026.83 56891.6 7117.95 56891.6 7271.11 56891.6 7290.5 56893.5 7309.89 56897.4 7327.33L57025.3 7843.03C57071.9 8027.2 57242.5 8302.5 57467.4 8302.5 57581.8 8302.5 57661.3 8240.47 57661.3 8122.2"/>
<path transform="matrix(.00359712,0,0,-.00359712,0,58)" d="M58781.6 7261.42C58771.9 7373.86 58706 7844.97 58390 7844.97 58275.6 7844.97 58176.7 7782.92 58122.4 7732.52 58004.2 7625.89 57980.9 7501.81 57980.9 7496 57980.9 7472.73 58006.1 7472.73 58011.9 7472.73 58037.1 7472.73 58039.1 7476.61 58048.8 7505.69 58089.5 7620.08 58233 7689.88 58362.8 7689.88 58675 7689.88 58715.7 7377.73 58715.7 7180 58715.7 7083.06 58709.9 7061.73 58702.1 7040.41 58657.5 6895 58599.4 6679.81 58599.4 6621.64 58599.4 6600.33 58607.1 6575.13 58632.3 6575.13 58645.9 6575.13 58667.2 6575.13 58698.2 6675.94 58721.5 6751.55 58758.3 6895 58773.8 7034.59 58781.6 7102.44 58890.2 7364.17 58930.9 7457.23 58958 7517.33 58998.7 7608.45 59089.9 7777.11 59095.7 7786.81 59099.5 7794.56 59099.5 7802.31 59099.5 7825.58 59074.3 7825.58 59068.5 7825.58 59062.7 7825.58 59045.3 7825.58 59039.5 7815.89 59016.2 7775.17 58868.8 7497.94 58781.6 7261.42"/>
<path transform="matrix(.00359712,0,0,-.00359712,0,58)" d="M60138.6 8097.55C60138.6 8313.63 60108.1 8648.81 59955.8 8961.84 59789.5 9302.58 59551.3 9482.64 59523.6 9482.64 59507 9482.64 59495.9 9471.56 59495.9 9454.94 59495.9 9446.63 59495.9 9441.09 59548.5 9391.22 59820 9116.97 59977.9 8676.52 59977.9 8097.55 59977.9 7623.84 59875.4 7136.3 59531.9 6787.25 59495.9 6754 59495.9 6748.47 59495.9 6740.16 59495.9 6723.53 59507 6712.45 59523.6 6712.45 59551.3 6712.45 59800.6 6900.83 59964.1 7252.64 60105.3 7557.36 60138.6 7864.84 60138.6 8097.55"/>
<path transform="matrix(.00359712,0,0,-.00359712,0,58)" d="M61408.9 7551.81C61408.9 7632.16 61342.4 7698.64 61262.1 7698.64 61181.7 7698.64 61115.2 7632.16 61115.2 7551.81 61115.2 7471.48 61181.7 7405 61262.1 7405 61342.4 7405 61408.9 7471.48 61408.9 7551.81"/>
</svg>
