<?xml version="1.0" standalone="no"?>
<!DOCTYPE svg PUBLIC "-//W3C//DTD SVG 1.1//EN" "http://www.w3.org/Graphics/SVG/1.1/DTD/svg11.dtd">
<svg xmlns="http://www.w3.org/2000/svg" xmlns:xlink="http://www.w3.org/1999/xlink" version="1.1" width="2.1660557cm" height="4.274961cm" viewBox="0 0 61.4 121.18">
<path transform="matrix(.00359712,0,0,-.00359712,0,121.18)" d="M 1107.73 2025.38 C 1107.73 2080.77 1068.95 2125.09 1005.23 2125.09 C 930.438 2125.09 855.641 2053.06 855.641 1978.28 C 855.641 1925.64 894.422 1878.55 960.906 1878.55 C 1024.63 1878.55 1107.73 1942.27 1107.73 2025.38 Z M 897.203 983.780966 C 930.438 1064.11 930.438 1069.66 958.140955 1144.45 C 980.313 1199.84 994.156 1238.64 994.156 1291.27 C 994.156 1415.92 905.516 1518.42 767 1518.42 C 506.609 1518.42 401.328 1116.75 401.328 1091.81 C 401.328 1064.11 429.031 1064.11 434.578 1064.11 C 462.281 1064.11 465.047 1069.66 478.906 1113.97 C 553.703 1374.38 664.5 1457.48 758.688 1457.48 C 780.844 1457.48 827.938 1457.48 827.938 1368.83 C 827.938 1310.66 808.547 1252.48 797.469 1224.78 C 775.313 1152.77 650.656 831.421957 606.328 712.297 C 578.625 640.281 542.609 548.859 542.609 490.688 C 542.609 360.484 636.797 263.531 769.766 263.531 C 1030.17 263.531 1132.67 665.203 1132.67 690.141 C 1132.67 717.844 1107.73 717.844 1099.42 717.844 C 1071.72 717.844 1071.72 709.531 1057.88 667.969 C 1008 493.453 916.593943 324.469 775.313 324.469 C 728.219 324.469 708.828 352.172 708.828 415.891 C 708.828 485.141 725.453 523.922 789.156 692.906 L 897.203 983.780966 "/>
<path transform="matrix(.00359712,0,0,-.00359712,0,121.18)" d="M 17008.8 2295.38 C 17008.8 2348 16970 2395.09 16903.5 2395.09 C 16839.8 2395.09 16756.7 2331.38 16756.7 2248.28 C 16756.7 2192.88 16795.5 2148.55 16859.2 2148.55 C 16934 2148.55 17008.8 2220.58 17008.8 2295.38 Z M 16452 425.484 C 16399.3 214.953 16266.4 57.0625 16111.2 57.0625 C 16094.6 57.0625 16053 57.0625 16003.2 81.9844 C 16086.3 101.375 16127.8 173.406 16127.8 228.813 C 16127.8 273.125 16097.4 325.766 16022.6 325.766 C 15953.3 325.766 15873 267.594 15873 167.859 C 15873 57.0625 15983.8 -3.89063 16116.8 -3.89063 C 16310.7 -3.89063 16568.3 142.938 16637.6 417.188 L 16892.4 1431.06 C 16906.3 1486.47 16906.3 1525.25 16906.3 1533.56 C 16906.3 1691.47 16789.9 1788.42 16651.4 1788.42 C 16368.8 1788.42 16211 1386.75 16211 1361.81 C 16211 1334.11 16238.7 1334.11 16244.2 1334.11 C 16269.1 1334.11 16271.9 1336.88 16294.1 1389.52 C 16363.3 1558.5 16490.7 1727.48 16643.1 1727.48 C 16681.9 1727.48 16731.8 1716.39 16731.8 1600.05 C 16731.8 1536.33 16723.4 1505.86 16712.4 1458.77 L 16452 425.484 "/>
<path transform="matrix(.00359712,0,0,-.00359712,0,121.18)" d="M 828.047 33660 C 828.047 33662.8 828.047 33690.5 792.031 33690.5 C 728.313 33690.5 526.094 33668.3 454.063 33662.8 C 431.906 33660 401.438 33657.3 401.438 33607.4 C 401.438 33574.2 426.359 33574.2 467.922 33574.2 C 600.891 33574.2 606.422 33554.8 606.422 33527.1 L 598.125 33471.7 L 196.438 31876 C 185.359 31837.3 185.359 31831.7 185.359 31815.1 C 185.359 31751.4 240.766 31737.5 265.703 31737.5 C 301.703 31737.5 343.266 31762.5 359.875 31795.7 C 373.734 31820.6 498.391 32333.1 515.016 32402.4 C 609.203 32394.1 836.359 32349.7 836.359 32166.9 C 836.359 32147.5 836.359 32136.4 828.047 32108.7 C 822.499952 32075.5 816.969 32042.3 816.969 32011.8 C 816.969 31848.3 927.765951 31737.5 1071.83 31737.5 C 1154.92 31737.5 1229.72 31781.8 1290.67 31884.3 C 1359.92 32006.2 1390.39 32158.6 1390.39 32164.1 C 1390.39 32191.8 1365.45 32191.8 1357.16 32191.8 C 1329.45 32191.8 1326.67 32180.8 1318.36 32142 C 1262.97 31939.8 1199.25 31798.5 1077.36 31798.5 C 1024.73 31798.5 988.719 31828.9 988.719 31928.7 C 988.719 31975.8 999.797 32039.5 1010.88 32083.8 C 1021.95 32130.9 1021.95 32142 1021.95 32169.7 C 1021.95 32349.7 847.438 32430.1 611.969 32460.5 C 697.844 32510.4 786.484 32599.1 850.202951 32665.5 C 983.172 32812.4 1110.61 32931.5 1246.34 32931.5 C 1262.97 32931.5 1265.73 32931.5 1271.28 32928.7 C 1304.52 32923.2 1307.28 32923.2 1329.45 32906.5 C 1334.98 32903.8 1334.98 32901 1340.53 32895.5 C 1207.56 32887.2 1182.63 32779.1 1182.63 32745.9 C 1182.63 32701.5 1213.09 32648.9 1287.89 32648.9 C 1359.92 32648.9 1440.25 32709.9 1440.25 32817.9 C 1440.25 32901 1376.55 32992.4 1251.88 32992.4 C 1174.31 32992.4 1046.89 32970.3 847.438 32748.6 C 753.25 32643.4 645.219 32532.6 539.938 32491 L 828.047 33660 "/>
<path transform="matrix(.00359712,0,0,-.00359712,0,121.18)" d="M 16832.7 33660 C 16832.7 33662.8 16832.7 33690.5 16796.7 33690.5 C 16733 33690.5 16530.8 33668.3 16458.7 33662.8 C 16436.6 33660 16406.1 33657.3 16406.1 33604.6 C 16406.1 33574.2 16433.8 33574.2 16475.4 33574.2 C 16608.3 33574.2 16611.1 33549.2 16611.1 33527.1 L 16602.8 33471.7 L 16253.7 32086.6 C 16245.4 32056.1 16239.9 32036.7 16239.9 31992.4 C 16239.9 31834.5 16361.8 31737.5 16492 31737.5 C 16583.4 31737.5 16652.6 31792.9 16699.7 31892.7 C 16749.6 31997.9 16782.8 32158.6 16782.8 32164.1 C 16782.8 32191.8 16757.9 32191.8 16749.6 32191.8 C 16721.9 32191.8 16719.1 32180.8 16710.8 32142 C 16663.7 31961.9 16611.1 31798.5 16500.3 31798.5 C 16417.2 31798.5 16417.2 31887.1 16417.2 31925.9 C 16417.2 31992.4 16420 32006.2 16433.8 32058.9 L 16832.7 33660 "/>
<path transform="matrix(.00359712,0,0,-.00359712,0,121.18)" stroke-width="110.783" stroke-linecap="butt" stroke-miterlimit="10" stroke-linejoin="miter" fill="none" stroke="rgb(0,0,0)" d="M 1401.11 5624 L 5353.31 10366.8 "/>
<path transform="matrix(.00359712,0,0,-.00359712,0,121.18)" d="M 5797.58 10899.9 L 4874.66 10376.8 L 5371.04 10388.1 L 5449.44 9897.80034 Z "/>
<path transform="matrix(.00359712,0,0,-.00359712,0,121.18)" stroke-width="110.777" stroke-linecap="butt" stroke-miterlimit="10" stroke-linejoin="miter" fill="none" stroke="rgb(0,0,0)" d="M 5797.58 10899.9 L 4874.66 10376.8 L 5371.04 10388.1 L 5449.44 9897.80034 Z "/>
<path transform="matrix(.00359712,0,0,-.00359712,0,121.18)" d="M 215.656 9446.03 C 193.5 9351.84 187.953 9332.45076 66.0625 9332.45076 C 32.8281 9332.45076 2.35938 9332.45076 2.35938 9279.83083 C 2.35938 9257.67 16.2031 9246.58 38.3594 9246.58 C 113.156 9246.58 193.5 9254.89034 271.063 9254.89034 C 362.484 9254.89034 456.672 9246.58 545.313 9246.58 C 559.156 9246.58 595.172 9246.58 595.172 9301.98 C 595.172 9332.45076 567.469 9332.45076 528.688 9332.45076 C 390.188 9332.45076 390.188 9351.84 390.188 9376.78 C 390.188 9410.03 506.531 9861.56 525.922 9930.81 C 561.938 9850.48 639.5 9753.53 780.781 9753.53 C 1102.13 9753.53 1448.39 10158 1448.39 10565.2 C 1448.39 10825.6 1290.48 11008.4 1079.95 11008.4 C 941.453 11008.4 808.484 10908.7 717.063 10800.7 C 689.359 10950.3 570.25 11008.4 467.75 11008.4 C 340.313 11008.4 287.688 10900.4 262.75 10850.5 C 212.891 10756.3 176.875 10590.1 176.875 10581.8 C 176.875 10554.1 204.578 10554.1 210.125 10554.1 C 237.813 10554.1 240.594 10556.9 257.219 10617.8 C 304.297 10814.5 359.703 10947.5 459.438 10947.5 C 506.531 10947.5 545.313 10925.3 545.313 10820 C 545.313 10756.3 537 10725.9 525.922 10678.8 L 215.656 9446.03 Z M 703.219 10648.3 C 722.609 10723.1 797.391 10800.7 847.266 10842.2 C 944.219 10928.1 1024.55 10947.5 1071.64 10947.5 C 1182.45 10947.5 1248.94 10850.5 1248.94 10687.1 C 1248.94 10523.6 1157.52 10205.1 1107.66 10099.8 C 1013.47 9905.89036 880.499945 9814.47 778 9814.47 C 595.172 9814.47 559.156 10044.4 559.156 10061 C 559.156 10066.6 559.156 10072.1 567.469 10105.3 L 703.219 10648.3 "/>
<path transform="matrix(.00359712,0,0,-.00359712,0,121.18)" d="M 2133.47 10602 C 2133.47 10654.4 2129.59 10656.3 2075.3 10656.3 C 1951.23 10534.2 1774.81 10532.2 1695.31 10532.2 L 1695.31 10462.4 C 1741.84 10462.4 1869.8 10462.4 1976.44 10516.7 L 1976.44 9527.97 C 1976.44 9464 1976.44 9438.8 1782.56 9438.8 L 1708.89 9438.8 L 1708.89 9369 C 1743.78 9370.94106 1982.25 9376.75 2053.98 9376.75 C 2114.08 9376.75 2358.36 9370.94106 2401 9369 L 2401 9438.8 L 2327.33 9438.8 C 2133.47 9438.8 2133.47 9464 2133.47 9527.97 L 2133.47 10602 "/>
<path transform="matrix(.00359712,0,0,-.00359712,0,121.18)" stroke-width="110.783" stroke-linecap="butt" stroke-miterlimit="10" stroke-linejoin="miter" fill="none" stroke="rgb(0,0,0)" d="M 2253.52 2954.19 L 8678.32 10664.2 "/>
<path transform="matrix(.00359712,0,0,-.00359712,0,121.18)" stroke-width="110.783" stroke-linecap="butt" stroke-miterlimit="10" stroke-linejoin="miter" fill="none" stroke="rgb(0,0,0)" d="M 15808.9 5799.89041 L 11977.5 10397.8 "/>
<path transform="matrix(.00359712,0,0,-.00359712,0,121.18)" d="M 11533.2 10931 L 11881.3 9928.83 L 11959.7 10419.1 L 12456.1 10407.8 Z "/>
<path transform="matrix(.00359712,0,0,-.00359712,0,121.18)" stroke-width="110.777" stroke-linecap="butt" stroke-miterlimit="10" stroke-linejoin="miter" fill="none" stroke="rgb(0,0,0)" d="M 11533.2 10931 L 11881.3 9928.83 L 11959.7 10419.1 L 12456.1 10407.8 Z "/>
<path transform="matrix(.00359712,0,0,-.00359712,0,121.18)" d="M 14668.7 9550.03 C 14646.5 9455.84 14641 9436.45085 14519.1 9436.45085 C 14485.8 9436.45085 14455.4 9436.45085 14455.4 9383.83 C 14455.4 9361.67 14469.2 9350.58 14491.4 9350.58 C 14566.2 9350.58 14646.5 9358.89043 14724.1 9358.89043 C 14815.5 9358.89043 14909.7 9350.58 14998.3 9350.58 C 15012.2 9350.58 15048.2 9350.58 15048.2 9405.98 C 15048.2 9436.45085 15020.5 9436.45085 14981.7 9436.45085 C 14843.2 9436.45085 14843.2 9455.84 14843.2 9480.78 C 14843.2 9514.03 14959.5 9965.56 14978.9 10034.8 C 15014.9 9954.48102 15092.5 9857.53 15233.8 9857.53 C 15555.1 9857.53 15901.4 10262 15901.4 10669.2 C 15901.4 10929.6 15743.5 11112.4 15533 11112.4 C 15394.5 11112.4 15261.5 11012.7 15170.1 10904.7 C 15142.4 11054.3 15023.3 11112.4 14920.8 11112.4 C 14793.3 11112.4 14740.7 11004.4 14715.8 10954.5 C 14665.9 10860.3 14629.9 10694.1 14629.9 10685.8 C 14629.9 10658.1 14657.6 10658.1 14663.1 10658.1 C 14690.8 10658.1 14693.6 10660.9 14710.2 10721.8 C 14757.3 10918.5 14812.7 11051.5 14912.4 11051.5 C 14959.5 11051.5 14998.3 11029.3 14998.3 10924 C 14998.3 10860.3 14990 10829.9 14978.9 10782.8 L 14668.7 9550.03 Z M 15156.2 10752.3 C 15175.6 10827.1 15250.4 10904.7 15300.3 10946.2 C 15397.2 11032.1 15477.5 11051.5 15524.6 11051.5 C 15635.5 11051.5 15701.9 10954.5 15701.9 10791.1 C 15701.9 10627.6 15610.5 10309.1 15560.7 10203.8 C 15466.5 10009.9 15333.5 9918.47 15231 9918.47 C 15048.2 9918.47 15012.2 10148.4 15012.2 10165 C 15012.2 10170.6 15012.2 10176.1 15020.5 10209.3 L 15156.2 10752.3 "/>
<path transform="matrix(.00359712,0,0,-.00359712,0,121.18)" d="M 16916 9824.84044 L 16850.1 9824.84044 C 16844.3 9782.19117 16824.9 9667.81034 16799.7 9648.42 C 16784.2 9636.8 16634.9 9636.8 16607.8 9636.8 L 16251.1 9636.8 C 16454.6 9817.09 16522.5 9871.38 16638.8 9962.48 C 16782.3 10076.9 16916 10197.1 16916 10381.3 C 16916 10615.8 16710.5 10759.3 16462.4 10759.3 C 16222 10759.3 16059.1 10590.6 16059.1 10412.3 C 16059.1 10313.4 16142.5 10303.7 16161.9 10303.7 C 16208.4 10303.7 16264.6 10336.7 16264.6 10406.5 C 16264.6 10441.3 16251.1 10509.2 16150.3 10509.2 C 16210.4 10646.9 16342.2 10689.5 16433.3 10689.5 C 16627.2 10689.5 16728 10538.3 16728 10381.3 C 16728 10212.6 16607.8 10078.8 16545.8 10009 L 16078.5 9547.61113 C 16059.1 9530.16 16059.1 9526.28 16059.1 9472 L 16857.9 9472 L 16916 9824.84044 "/>
<path transform="matrix(.00359712,0,0,-.00359712,0,121.18)" stroke-width="110.783" stroke-linecap="butt" stroke-miterlimit="10" stroke-linejoin="miter" fill="none" stroke="rgb(0,0,0)" d="M 14930.7 3161.11 L 8678.32 10664.2 "/>
<path transform="matrix(.00359712,0,0,-.00359712,0,121.18)" stroke-width="110.783" stroke-linecap="butt" stroke-miterlimit="10" stroke-linejoin="miter" fill="none" stroke="rgb(0,0,0)" d="M 11042.4 12555.4 L 11042.4 20529.9 "/>
<path transform="matrix(.00359712,0,0,-.00359712,0,121.18)" d="M 11042.4 21223.9 L 10668.3 20231.1 L 11042.4 20557.6 L 11416.6 20231.1 Z "/>
<path transform="matrix(.00359712,0,0,-.00359712,0,121.18)" stroke-width="110.783" stroke-linecap="butt" stroke-miterlimit="10" stroke-linejoin="miter" fill="none" stroke="rgb(0,0,0)" d="M 11042.4 21223.9 L 10668.3 20231.1 L 11042.4 20557.6 L 11416.6 20231.1 Z "/>
<path transform="matrix(.00359712,0,0,-.00359712,0,121.18)" d="M 13218.1 17836 C 13218.1 17847 13209.8 17863.7 13190.4 17863.7 C 13160 17863.7 13049.1 17752.8 13002 17672.5 C 12941.1 17822.1 12833.1 17866.4 12744.4 17866.4 C 12417.5 17866.4 12076.8 17456.4 12076.8 17054.8 C 12076.8 16783.3 12240.3 16611.5 12442.5 16611.5 C 12561.6 16611.5 12669.6 16678 12769.4 16777.7 C 12744.4 16680.8 12653 16306.8 12644.7 16281.9 C 12622.5 16204.3 12600.4 16193.2 12445.3 16190.5 C 12409.2 16190.5 12381.5 16190.5 12381.5 16135.1 C 12381.5 16132.3 12381.5 16104.6 12417.5 16104.6 C 12506.2 16104.6 12603.1 16112.9 12694.6 16112.9 C 12788.8 16112.9 12888.5 16104.6 12979.9 16104.6 C 12993.7 16104.6 13029.8 16104.6 13029.8 16160 C 13029.8 16190.5 13002 16190.5 12957.7 16190.5 C 12824.8 16190.5 12824.8 16209.8 12824.8 16234.8 C 12824.8 16254.2 12830.3 16270.8 12835.8 16295.7 L 13218.1 17836 Z M 12450.8 16672.5 C 12284.6 16672.5 12273.5 16885.8 12273.5 16932.9 C 12273.5 17065.8 12353.8 17367.8 12400.9 17484.1 C 12486.8 17689.1 12630.8 17805.5 12744.4 17805.5 C 12924.5 17805.5 12963.3 17581.1 12963.3 17561.7 C 12963.3 17545.1 12810.9 16938.4 12802.6 16927.3 C 12761 16849.8 12605.9 16672.5 12450.8 16672.5 "/>
<path transform="matrix(.00359712,0,0,-.00359712,0,121.18)" stroke-width="637.012" stroke-linecap="butt" stroke-miterlimit="10" stroke-linejoin="miter" fill="none" stroke="rgb(0,0,0)" d="M 8678.32 10664.2 L 8678.32 23272.9 "/>
<path transform="matrix(.00359712,0,0,-.00359712,0,121.18)" stroke-width="415.449" stroke-linecap="butt" stroke-miterlimit="10" stroke-linejoin="miter" fill="none" stroke="rgb(255,255,255)" d="M 8678.32 10664.2 L 8678.32 23272.9 "/>
<path transform="matrix(.00359712,0,0,-.00359712,0,121.18)" stroke-width="110.783" stroke-linecap="butt" stroke-miterlimit="10" stroke-linejoin="miter" fill="none" stroke="rgb(0,0,0)" d="M 5922.72 22886.8 L 2083.14 27494 "/>
<path transform="matrix(.00359712,0,0,-.00359712,0,121.18)" d="M 1638.84 28027.1 L 1987.03 27025 L 2065.41 27515.3 L 2561.79 27504 Z "/>
<path transform="matrix(.00359712,0,0,-.00359712,0,121.18)" stroke-width="110.778" stroke-linecap="butt" stroke-miterlimit="10" stroke-linejoin="miter" fill="none" stroke="rgb(0,0,0)" d="M 1638.84 28027.1 L 1987.03 27025 L 2065.41 27515.3 L 2561.79 27504 Z "/>
<path transform="matrix(.00359712,0,0,-.00359712,0,121.18)" d="M 295.656 23064 C 273.5 22969.8 267.953 22950.5 146.063 22950.5 C 112.828 22950.5 82.3594 22950.5 82.3594 22897.8 C 82.3594 22875.7 96.2031068 22864.6 118.359 22864.6 C 193.156 22864.6 273.5 22872.9 351.063 22872.9 C 442.484 22872.9 536.672 22864.6 625.313 22864.6 C 639.156 22864.6 675.172 22864.6 675.172 22920 C 675.172 22950.5 647.469 22950.5 608.688 22950.5 C 470.188 22950.5 470.188 22969.8 470.188 22994.8 C 470.188 23028 586.531 23479.6 605.922 23548.8 C 641.938 23468.5 719.5 23371.5 860.781 23371.5 C 1182.13 23371.5 1528.39 23776 1528.39 24183.2 C 1528.39 24443.6 1370.48 24626.4 1159.95 24626.4 C 1021.45 24626.4 888.484 24526.7 797.063 24418.7 C 769.359 24568.3 650.25 24626.4 547.75 24626.4 C 420.313 24626.4 367.688 24518.4 342.75 24468.5 C 292.891 24374.3 256.875 24208.1 256.875 24199.8 C 256.875 24172.1 284.578 24172.1 290.125 24172.1 C 317.813 24172.1 320.594 24174.9 337.219 24235.8 C 384.297 24432.5 439.703 24565.5 539.438 24565.5 C 586.531 24565.5 625.313 24543.3 625.313 24438 C 625.313 24374.3 617 24343.9 605.922 24296.8 L 295.656 23064 Z M 783.219 24266.3 C 802.609 24341.1 877.391 24418.7 927.26594 24460.2 C 1024.22 24546.1 1104.55 24565.5 1151.64 24565.5 C 1262.45 24565.5 1328.94 24468.5 1328.94 24305.1 C 1328.94 24141.6 1237.52 23823.1 1187.66 23717.8 C 1093.47 23523.9 960.499964 23432.5 858 23432.5 C 675.172 23432.5 639.156 23662.4 639.156 23679 C 639.156 23684.6 639.156 23690.1 647.469 23723.3 L 783.219 24266.3 "/>
<path transform="matrix(.00359712,0,0,-.00359712,0,121.18)" d="M 2094.27 23633.5 C 2245.48 23633.5 2354.05 23528.8 2354.05 23321.4 C 2354.05 23081 2214.47 23009.3 2102.02 23009.3 C 2024.47 23009.3 1853.86 23030.6 1772.44 23145 C 1863.56 23148.8 1884.89 23212.8 1884.89 23253.5 C 1884.89 23315.6 1838.36 23360.2 1778.25 23360.2 C 1723.97 23360.2 1669.69 23327.2 1669.69 23247.7 C 1669.69 23065.5 1871.31 22947.2 2105.89 22947.2 C 2375.38 22947.2 2561.48 23127.5 2561.48 23321.4 C 2561.48 23472.6 2437.42 23623.8 2224.16 23668.4 C 2427.72 23742.1 2501.39 23887.5 2501.39 24005.8 C 2501.39 24158.9 2324.97 24273.3 2109.78 24273.3 C 1894.58 24273.3 1729.8 24168.6 1729.8 24013.5 C 1729.8 23947.6 1772.44 23910.8 1830.61 23910.8 C 1890.7 23910.8 1929.47 23955.3 1929.47 24009.6 C 1929.47 24065.9 1890.7 24106.6 1830.61 24110.5 C 1898.45 24195.8 2032.23 24217.1 2103.95 24217.1 C 2191.2 24217.1 2313.34 24174.4 2313.34 24005.8 C 2313.34 23924.3 2286.2 23835.2 2235.8 23775 C 2171.81 23701.4 2117.53 23697.5 2020.59 23691.7 C 1972.13 23687.8 1968.25 23687.8 1958.56 23685.9 C 1954.67 23685.9 1939.17 23682 1939.17 23660.7 C 1939.17 23633.5 1956.63 23633.5 1989.58 23633.5 L 2094.27 23633.5 "/>
<path transform="matrix(.00359712,0,0,-.00359712,0,121.18)" stroke-width="110.783" stroke-linecap="butt" stroke-miterlimit="10" stroke-linejoin="miter" fill="none" stroke="rgb(0,0,0)" d="M 8678.32 23272.9 L 2414.35 30789.2 "/>
<path transform="matrix(.00359712,0,0,-.00359712,0,121.18)" stroke-width="110.783" stroke-linecap="butt" stroke-miterlimit="10" stroke-linejoin="miter" fill="none" stroke="rgb(0,0,0)" d="M 11463.6 22922.6 L 15441.4 27696.2 "/>
<path transform="matrix(.00359712,0,0,-.00359712,0,121.18)" d="M 15885.7 28229.3 L 14962.8 27706.1 L 15459.2 27717.4 L 15537.6 27227.2 Z "/>
<path transform="matrix(.00359712,0,0,-.00359712,0,121.18)" stroke-width="110.777" stroke-linecap="butt" stroke-miterlimit="10" stroke-linejoin="miter" fill="none" stroke="rgb(0,0,0)" d="M 15885.7 28229.3 L 14962.8 27706.1 L 15459.2 27717.4 L 15537.6 27227.2 Z "/>
<path transform="matrix(.00359712,0,0,-.00359712,0,121.18)" d="M 14772.7 23183 C 14750.5 23088.8 14745 23069.5 14623.1 23069.5 C 14589.8 23069.5 14559.4 23069.5 14559.4 23016.8 C 14559.4 22994.7 14573.2 22983.6 14595.4 22983.6 C 14670.2 22983.6 14750.5 22991.9 14828.1 22991.9 C 14919.5 22991.9 15013.7 22983.6 15102.3 22983.6 C 15116.2 22983.6 15152.2 22983.6 15152.2 23039 C 15152.2 23069.5 15124.5 23069.5 15085.7 23069.5 C 14947.2 23069.5 14947.2 23088.8 14947.2 23113.8 C 14947.2 23147 15063.5 23598.6 15082.9 23667.8 C 15118.9 23587.5 15196.5 23490.5 15337.8 23490.5 C 15659.1 23490.5 16005.4 23895 16005.4 24302.2 C 16005.4 24562.6 15847.5 24745.4 15637 24745.4 C 15498.5 24745.4 15365.5 24645.7 15274.1 24537.7 C 15246.4 24687.3 15127.3 24745.4 15024.8 24745.4 C 14897.3 24745.4 14844.7 24637.4 14819.8 24587.5 C 14769.9 24493.3 14733.9 24327.1 14733.9 24318.8 C 14733.9 24291.1 14761.6 24291.1 14767.1 24291.1 C 14794.8 24291.1 14797.6 24293.9 14814.2 24354.8 C 14861.3 24551.5 14916.7 24684.5 15016.4 24684.5 C 15063.5 24684.5 15102.3 24662.3 15102.3 24557 C 15102.3 24493.3 15094 24462.9 15082.9 24415.8 L 14772.7 23183 Z M 15260.2 24385.3 C 15279.6 24460.1 15354.4 24537.7 15404.3 24579.2 C 15501.2 24665.1 15581.5 24684.5 15628.6 24684.5 C 15739.5 24684.5 15805.9 24587.5 15805.9 24424.1 C 15805.9 24260.6 15714.5 23942.1 15664.7 23836.8 C 15570.5 23642.9 15437.5 23551.5 15335 23551.5 C 15152.2 23551.5 15116.2 23781.4 15116.2 23798 C 15116.2 23803.6 15116.2 23809.1 15124.5 23842.3 L 15260.2 24385.3 "/>
<path transform="matrix(.00359712,0,0,-.00359712,0,121.18)" d="M 17067.6 23423 L 17067.6 23492.7 L 16852.4 23492.7 L 16852.4 24357.4 C 16852.4 24398.1 16852.4 24411.7 16809.7 24411.7 C 16786.5 24411.7 16778.7 24411.7 16759.3 24384.5 L 16117.6 23492.7 L 16117.6 23423 L 16687.6 23423 L 16687.6 23264 C 16687.6 23198.1 16687.6 23174.8 16530.5 23174.8 L 16478.2 23174.8 L 16478.2 23105 C 16575.1 23108.9 16699.2 23112.8 16769 23112.8 C 16840.8 23112.8 16964.8 23108.9 17061.8 23105 L 17061.8 23174.8 L 17009.4 23174.8 C 16852.4 23174.8 16852.4 23198.1 16852.4 23264 L 16852.4 23423 L 17067.6 23423 Z M 16701.2 24202.3 L 16701.2 23492.7 L 16189.3 23492.7 L 16701.2 24202.3 Z "/>
<path transform="matrix(.00359712,0,0,-.00359712,0,121.18)" stroke-width="110.783" stroke-linecap="butt" stroke-miterlimit="10" stroke-linejoin="miter" fill="none" stroke="rgb(0,0,0)" d="M 8678.32 23272.9 L 15139.8 31026.9 "/>
<path transform="matrix(.00359712,0,0,-.00359712,0,121.18)" d="M 9296.31032 9548.44 C 9307.39 9587.22 9307.39 9592.77 9307.39 9612.16 C 9307.39 9662.02 9268.61 9686.95 9227.06021 9686.95 C 9199.36 9686.95 9155.03 9670.33 9130.09061 9628.78 C 9124.56025 9614.92051 9102.39 9529.05 9091.31 9479.19 C 9071.92 9407.16 9052.53 9332.36112 9035.91 9257.58065 L 8911.25 8758.94 C 8900.17 8717.39 8781.06011 8523.47 8598.22 8523.47 C 8456.94 8523.47 8426.47 8645.36 8426.47 8747.86 C 8426.47 8875.28 8473.56023 9047.03 8567.75 9290.81 C 8612.08 9404.39023 8623.16 9434.86108 8623.16 9490.27 C 8623.16 9614.92051 8534.52 9717.42 8396.00076 9717.42 C 8132.83051 9717.42 8030.33055 9315.75 8030.33055 9290.81 C 8030.33055 9263.11101 8058.03 9263.11101 8063.58041 9263.11101 C 8091.28 9263.11101 8094.05 9268.66 8107.91 9312.97 C 8182.7 9573.38 8293.5 9656.48 8387.69 9656.48 C 8409.84048 9656.48 8456.94 9656.48 8456.94 9567.83 C 8456.94 9498.58083 8429.25061 9426.55 8409.84048 9373.92 C 8299.05 9080.28 8249.19118 8922.38 8249.19118 8792.19 C 8249.19118 8545.64 8423.7 8462.53098 8587.14 8462.53098 C 8695.19 8462.53098 8789.36 8509.63 8866.94 8587.19 C 8830.92 8443.14 8797.67 8307.39 8686.88 8160.58053 C 8614.84 8066.39089 8509.58 7986.06051 8382.16 7986.06051 C 8343.36 7986.06051 8218.7 7994.36034 8171.61 8102.41 C 8215.94 8102.41 8251.95 8102.41 8290.73 8135.64 C 8318.44 8160.58053 8346.14 8196.59 8346.14 8249.22 C 8346.14 8335.09053 8271.34 8346.19 8243.64 8346.19 C 8179.92 8346.19 8088.52 8301.86 8088.52 8166.13 C 8088.52 8027.61 8210.39 7925.11024 8382.16 7925.11024 C 8667.48 7925.11024 8952.81018 8177.2 9030.38 8490.23 L 9296.31032 9548.44 "/>
<path transform="matrix(.00359712,0,0,-.00359712,0,121.18)" d="M 8812.25 25087.6 C 8828.86113 25159.6 8892.58 25414.5 9086.48 25414.5 C 9100.34 25414.5 9166.83 25414.5 9225 25378.5 C 9147.44 25364.6 9092.03 25295.4 9092.03 25228.9 C 9092.03 25184.5 9122.5 25131.9 9197.3 25131.9 C 9258.25 25131.9 9346.89034 25181.8 9346.89034 25292.6 C 9346.89034 25436.6 9183.45 25475.4 9089.27 25475.4 C 8928.59 25475.4 8831.64 25328.6 8798.39028 25264.9 C 8729.14 25447.7 8579.55 25475.4 8499.22 25475.4 C 8211.11096 25475.4 8053.22064 25118.1 8053.22064 25048.8 C 8053.22064 25021.1 8080.91058 25021.1 8086.45 25021.1 C 8108.61 25021.1 8116.92037 25026.7 8122.47075 25051.6 C 8216.66 25345.2 8399.48 25414.5 8493.67 25414.5 C 8546.31032 25414.5 8643.27 25389.5 8643.27 25228.9 C 8643.27 25143 8596.17 24957.4 8493.67 24569.6 C 8449.34 24397.8 8352.39 24281.5 8230.5 24281.5 C 8213.88043 24281.5 8150.17022 24281.5 8092 24317.5 C 8161.25 24331.3 8222.19 24389.5 8222.19 24467.1 C 8222.19 24541.9 8161.25 24564 8119.7 24564 C 8036.59047 24564 7967.33 24492 7967.33 24403.4 C 7967.33 24275.9 8105.84058 24220.5 8227.73 24220.5 C 8410.56 24220.5 8510.30053 24414.4 8518.61 24431.1 C 8551.84 24328.6 8651.58071 24220.5 8817.78 24220.5 C 9103.11 24220.5 9261.02 24577.9 9261.02 24647.1 C 9261.02 24674.8 9236.08 24674.8 9227.77 24674.8 C 9202.84 24674.8 9197.3 24663.8 9191.77 24644.4 C 9100.34 24348 8911.97 24281.5 8823.33077 24281.5 C 8715.28 24281.5 8670.97 24370.1 8670.97 24464.3 C 8670.97 24525.3 8687.58 24586.2 8718.06 24708.1 L 8812.25 25087.6 "/>
</svg>
