<svg xmlns="http://www.w3.org/2000/svg" xmlns:xlink="http://www.w3.org/1999/xlink" version="1.1" width="69pt" height="22pt" viewBox="0 0 69 22">
<path transform="matrix(.00359712,0,0,-.00359712,0,22)" d="M1376.23 3040.48C1379 3051.56 1384.55 3068.19 1384.55 3082.03 1384.55 3109.73 1365.16 3112.52 1351.3 3112.52 1323.59 3112.52 1320.83 3106.97 1309.75 3057.11L849.891 1226.02C639.359 1250.94 534.094 1353.44 534.094 1536.28 534.094 1591.67 534.094 1663.7 683.688 2051.53 694.766 2084.77 714.156 2131.86 714.156 2187.27 714.156 2311.92 625.516 2414.42 487 2414.42 223.828 2414.42 121.328 2012.75 121.328 1987.81 121.328 1960.11 149.031 1960.11 154.578 1960.11 182.281 1960.11 185.047 1965.66 198.906 2009.97 273.703 2273.14 384.5 2353.48 478.688 2353.48 500.844 2353.48 547.938 2353.48 547.938 2264.83 547.938 2192.81 520.25 2123.55 484.234 2026.59 351.266 1677.55 351.266 1605.53 351.266 1558.44 351.266 1295.27 567.328 1181.69 833.281 1165.06 811.109 1065.34 811.109 1059.8 772.328 912.984 764.016 882.516 708.609 658.125 708.609 649.813 708.609 647.047 708.609 622.109 741.859 622.109 747.391 622.109 761.25 622.109 766.797 633.188 775.094 638.734 791.719 707.984 800.031 746.766L905.297 1159.53C1007.8 1159.53 1251.58 1159.53 1511.97 1455.94 1625.55 1583.36 1683.72 1705.25 1714.19 1788.36 1739.13 1857.61 1800.06 2098.63 1800.06 2220.52 1800.06 2375.64 1725.28 2414.42 1678.19 2414.42 1608.92 2414.42 1539.67 2342.39 1539.67 2281.45 1539.67 2245.44 1556.3 2228.83 1581.22 2206.66 1611.7 2176.19 1680.95 2104.16 1680.95 1971.19 1680.95 1793.91 1536.91 1566.75 1439.94 1467.02 1196.17 1220.47 1018.88 1220.47 919.156 1220.47L1376.23 3040.48"/>
<path transform="matrix(.00359712,0,0,-.00359712,0,22)" d="M2796.09 1724.69C2796.09 1757.64 2770.89 1798.36 2718.55 1798.36 2662.31 1798.36 2609.97 1744.08 2609.97 1691.73 2609.97 1660.7 2633.23 1618.06 2687.52 1618.06 2739.88 1618.06 2796.09 1668.47 2796.09 1724.69ZM2385.08 418C2352.13 284.234 2249.38 171.781 2135 171.781 2109.8 171.781 2086.53 175.672 2065.2 183.422 2115.61 206.688 2131.11 253.219 2131.11 282.297 2131.11 328.828 2094.28 354.031 2055.5 354.031 1995.41 354.031 1945 301.688 1945 239.641 1945 165.969 2020.61 117.5 2136.94 117.5 2253.25 117.5 2480.08 187.297 2540.19 423.813L2714.67 1117.88C2720.48 1139.2 2724.36 1156.66 2724.36 1185.73 2724.36 1292.36 2633.23 1367.97 2516.92 1367.97 2301.72 1367.97 2177.64 1098.48 2177.64 1071.34 2177.64 1046.14 2204.78 1046.14 2210.61 1046.14 2233.86 1046.14 2235.81 1051.95 2249.38 1081.05 2297.84 1193.48 2398.66 1313.69 2511.09 1313.69 2559.56 1313.69 2577.02 1280.72 2577.02 1218.69 2577.02 1197.36 2573.14 1170.22 2571.2 1160.53L2385.08 418"/>
<path transform="matrix(.00359712,0,0,-.00359712,0,22)" d="M4197.2 1610.3C4197.2 1780.91 4049.86 1879.78 3879.25 1879.78 3613.66 1879.78 3417.84 1577.34 3369.38 1381.53L3065 160.156C3061.13 146.578 3080.5 136.891 3092.14 136.891 3109.59 136.891 3125.09 138.828 3128.97 150.469L3258.86 668.094C3299.58 578.922 3392.64 495.547 3549.67 495.547 3821.09 495.547 4127.41 691.359 4127.41 987.984 4127.41 1102.36 4075.06 1218.69 3976.19 1282.67 4071.19 1342.77 4197.2 1453.27 4197.2 1610.3ZM3813.33 1284.61C3784.25 1278.78 3770.69 1271.03 3714.47 1271.03 3683.44 1271.03 3636.91 1272.97 3623.34 1280.72 3642.73 1292.36 3697.02 1294.3 3714.47 1294.3 3743.55 1294.3 3786.19 1292.36 3813.33 1284.61ZM4069.25 1645.2C4069.25 1542.45 4018.84 1391.23 3898.64 1323.38 3861.8 1335.02 3824.97 1348.58 3716.41 1348.58 3648.55 1348.58 3551.61 1344.7 3551.61 1274.91 3551.61 1226.44 3611.7 1218.69 3710.58 1218.69 3776.5 1218.69 3834.66 1228.38 3894.77 1245.83 3952.92 1205.11 3983.94 1125.63 3983.94 1040.33 3983.94 759.219 3792.02 549.828 3555.48 549.828 3406.2 549.828 3299.58 640.953 3299.58 794.109 3299.58 813.5 3301.52 832.891 3305.39 850.328L3433.34 1366.03C3479.88 1550.2 3650.48 1825.5 3875.38 1825.5 3989.75 1825.5 4069.25 1763.47 4069.25 1645.2"/>
<path transform="matrix(.00359712,0,0,-.00359712,0,22)" d="M6225.19 3469.53V3555.41H5225.14V3469.53H6225.19"/>
<path transform="matrix(.00359712,0,0,-.00359712,0,22)" d="M5802.23 3040.48C5805 3051.56 5810.55 3068.19 5810.55 3082.03 5810.55 3109.73 5791.16 3112.52 5777.3 3112.52 5749.59 3112.52 5746.83 3106.97 5735.75 3057.11L5275.89 1226.02C5065.36 1250.94 4960.09 1353.44 4960.09 1536.28 4960.09 1591.67 4960.09 1663.7 5109.69 2051.53 5120.77 2084.77 5140.16 2131.86 5140.16 2187.27 5140.16 2311.92 5051.52 2414.42 4913 2414.42 4649.83 2414.42 4547.33 2012.75 4547.33 1987.81 4547.33 1960.11 4575.03 1960.11 4580.58 1960.11 4608.28 1960.11 4611.05 1965.66 4624.91 2009.97 4699.7 2273.14 4810.5 2353.48 4904.69 2353.48 4926.84 2353.48 4973.94 2353.48 4973.94 2264.83 4973.94 2192.81 4946.25 2123.55 4910.23 2026.59 4777.27 1677.55 4777.27 1605.53 4777.27 1558.44 4777.27 1295.27 4993.33 1181.69 5259.28 1165.06 5237.11 1065.34 5237.11 1059.8 5198.33 912.984 5190.02 882.516 5134.61 658.125 5134.61 649.813 5134.61 647.047 5134.61 622.109 5167.86 622.109 5173.39 622.109 5187.25 622.109 5192.8 633.188 5201.09 638.734 5217.72 707.984 5226.03 746.766L5331.3 1159.53C5433.8 1159.53 5677.58 1159.53 5937.97 1455.94 6051.55 1583.36 6109.72 1705.25 6140.19 1788.36 6165.13 1857.61 6226.06 2098.63 6226.06 2220.52 6226.06 2375.64 6151.28 2414.42 6104.19 2414.42 6034.92 2414.42 5965.67 2342.39 5965.67 2281.45 5965.67 2245.44 5982.3 2228.83 6007.22 2206.66 6037.7 2176.19 6106.95 2104.16 6106.95 1971.19 6106.95 1793.91 5962.91 1566.75 5865.94 1467.02 5622.17 1220.47 5444.88 1220.47 5345.16 1220.47L5802.23 3040.48"/>
<path transform="matrix(.00359712,0,0,-.00359712,0,22)" d="M6977.81 1800.3C6979.75 1804.17 6985.56 1829.38 6985.56 1831.31 6985.56 1841.02 6977.81 1858.45 6954.55 1858.45 6915.78 1858.45 6754.86 1842.95 6706.39 1839.08 6690.89 1837.13 6663.75 1835.19 6663.75 1794.48 6663.75 1767.34 6690.89 1767.34 6714.16 1767.34 6807.2 1767.34 6807.2 1753.77 6807.2 1738.27 6807.2 1724.69 6803.33 1713.06 6799.45 1695.61L6526.09 598.297C6516.41 563.406 6516.41 559.531 6516.41 555.656 6516.41 526.578 6539.67 493.609 6582.31 493.609 6634.66 493.609 6659.86 532.391 6671.5 575.031 6675.38 582.797 6758.73 924 6766.5 951.141 6904.14 937.578 7014.66 892.984 7014.66 792.172 7014.66 782.484 7014.66 772.781 7010.77 753.406 7003.02 724.313 7003.02 714.625 7003.02 693.297 7003.02 555.656 7115.47 493.609 7208.52 493.609 7396.58 493.609 7454.73 788.297 7454.73 790.234 7454.73 815.438 7429.53 815.438 7423.72 815.438 7396.58 815.438 7394.64 805.75 7384.94 768.906 7361.67 685.547 7309.33 547.891 7214.33 547.891 7161.98 547.891 7146.48 596.359 7146.48 648.703 7146.48 681.672 7146.48 685.547 7158.11 735.953 7160.05 741.766 7167.81 774.719 7167.81 796.047 7167.81 968.594 6935.16 995.734 6853.73 1001.55 6909.95 1036.45 6981.69 1100.42 7014.66 1129.5 7113.52 1222.56 7210.45 1313.69 7319.03 1313.69 7342.28 1313.69 7367.48 1307.88 7383 1288.48 7299.64 1274.91 7282.19 1209 7282.19 1179.91 7282.19 1137.27 7315.14 1108.19 7359.73 1108.19 7412.08 1108.19 7470.25 1150.83 7470.25 1232.27 7470.25 1296.23 7423.72 1367.97 7320.97 1367.97 7210.45 1367.97 7109.64 1288.48 7010.77 1197.36 6929.34 1119.81 6865.38 1059.72 6785.88 1026.75L6977.81 1800.3"/>
<path transform="matrix(.00359712,0,0,-.00359712,0,22)" d="M8460.59 784.422C8450.91 896.859 8384.98 1367.97 8068.98 1367.97 7954.59 1367.97 7855.72 1305.92 7801.44 1255.52 7683.19 1148.89 7659.92 1024.81 7659.92 1019 7659.92 995.734 7685.13 995.734 7690.94 995.734 7716.14 995.734 7718.08 999.609 7727.77 1028.69 7768.48 1143.08 7911.95 1212.88 8041.84 1212.88 8353.97 1212.88 8394.69 900.734 8394.69 703 8394.69 606.063 8388.88 584.734 8381.11 563.406 8336.52 418 8278.36 202.813 8278.36 144.641 8278.36 123.328 8286.11 98.125 8311.31 98.125 8324.89 98.125 8346.22 98.125 8377.23 198.938 8400.5 274.547 8437.33 418 8452.84 557.594 8460.59 625.438 8569.17 887.172 8609.88 980.234 8637.02 1040.33 8677.73 1131.45 8768.86 1300.11 8774.67 1309.81 8778.55 1317.56 8778.55 1325.31 8778.55 1348.58 8753.34 1348.58 8747.53 1348.58 8741.7 1348.58 8724.27 1348.58 8718.45 1338.89 8695.19 1298.17 8547.84 1020.94 8460.59 784.422"/>
<path transform="matrix(.00359712,0,0,-.00359712,0,22)" d="M10774.2 3469.53V3555.41H9774.14V3469.53H10774.2"/>
<path transform="matrix(.00359712,0,0,-.00359712,0,22)" d="M10351.2 3040.48C10354 3051.56 10359.5 3068.19 10359.5 3082.03 10359.5 3109.73 10340.2 3112.52 10326.3 3112.52 10298.6 3112.52 10295.8 3106.97 10284.8 3057.11L9824.89 1226.02C9614.36 1250.94 9509.09 1353.44 9509.09 1536.28 9509.09 1591.67 9509.09 1663.7 9658.69 2051.53 9669.77 2084.77 9689.16 2131.86 9689.16 2187.27 9689.16 2311.92 9600.52 2414.42 9462 2414.42 9198.83 2414.42 9096.33 2012.75 9096.33 1987.81 9096.33 1960.11 9124.03 1960.11 9129.58 1960.11 9157.28 1960.11 9160.05 1965.66 9173.91 2009.97 9248.7 2273.14 9359.5 2353.48 9453.69 2353.48 9475.84 2353.48 9522.94 2353.48 9522.94 2264.83 9522.94 2192.81 9495.25 2123.55 9459.23 2026.59 9326.27 1677.55 9326.27 1605.53 9326.27 1558.44 9326.27 1295.27 9542.33 1181.69 9808.28 1165.06 9786.11 1065.34 9786.11 1059.8 9747.33 912.984 9739.02 882.516 9683.61 658.125 9683.61 649.813 9683.61 647.047 9683.61 622.109 9716.86 622.109 9722.39 622.109 9736.25 622.109 9741.8 633.188 9750.09 638.734 9766.72 707.984 9775.03 746.766L9880.3 1159.53C9982.8 1159.53 10226.6 1159.53 10487 1455.94 10600.5 1583.36 10658.7 1705.25 10689.2 1788.36 10714.1 1857.61 10775.1 2098.63 10775.1 2220.52 10775.1 2375.64 10700.3 2414.42 10653.2 2414.42 10583.9 2414.42 10514.7 2342.39 10514.7 2281.45 10514.7 2245.44 10531.3 2228.83 10556.2 2206.66 10586.7 2176.19 10656 2104.16 10656 1971.19 10656 1793.91 10511.9 1566.75 10414.9 1467.02 10171.2 1220.47 9993.88 1220.47 9894.16 1220.47L10351.2 3040.48"/>
<path transform="matrix(.00359712,0,0,-.00359712,0,22)" stroke-width="110.783" stroke-linecap="butt" stroke-miterlimit="10" stroke-linejoin="miter" fill="none" stroke="#000000" d="M992.688 3944.66V5173.46H9967.54V4324.71"/>
<path transform="matrix(.00359712,0,0,-.00359712,0,22)" d="M11760.4 932.031C11750.7 893.266 11733.3 827.344 11733.3 817.656 11733.3 775 11768.2 755.609 11799.2 755.609 11834.1 755.609 11865.1 780.813 11874.8 798.266 11884.5 815.719 11900 877.75 11909.7 918.469 11919.4 955.297 11940.7 1044.48 11952.3 1092.95 11964 1135.59 11975.6 1178.25 11985.3 1222.84 12006.6 1306.2 12006.6 1310.08 12045.4 1370.19 12107.4 1465.17 12204.4 1575.69 12355.6 1575.69 12464.1 1575.69 12470 1486.5 12470 1439.97 12470 1323.66 12386.6 1108.45 12355.6 1027.03 12334.3 972.75 12326.5 955.297 12326.5 922.344 12326.5 819.594 12411.8 755.609 12510.7 755.609 12704.5 755.609 12789.8 1023.16 12789.8 1052.23 12789.8 1077.44 12764.6 1077.44 12758.8 1077.44 12731.7 1077.44 12729.8 1065.81 12722 1044.48 12677.4 889.391 12594 809.891 12516.5 809.891 12475.8 809.891 12468 837.031 12468 877.75 12468 922.344 12477.7 947.547 12512.6 1034.78 12535.9 1094.89 12615.4 1300.39 12615.4 1408.95 12615.4 1439.97 12615.4 1521.41 12543.6 1577.63 12510.7 1602.83 12454.5 1629.97 12363.3 1629.97 12188.8 1629.97 12082.2 1515.58 12020.2 1434.16 12004.7 1598.95 11867 1629.97 11768.2 1629.97 11607.2 1629.97 11498.7 1531.09 11440.5 1453.55 11426.9 1587.31 11312.6 1629.97 11233.1 1629.97 11149.7 1629.97 11105.1 1569.88 11079.9 1525.28 11037.3 1453.55 11010.1 1343.05 11010.1 1333.34 11010.1 1308.14 11037.3 1308.14 11043.1 1308.14 11070.2 1308.14 11072.2 1313.95 11085.7 1366.3 11114.8 1480.69 11151.6 1575.69 11227.3 1575.69 11277.7 1575.69 11291.2 1533.03 11291.2 1480.69 11291.2 1443.86 11273.8 1372.13 11260.2 1319.78 11246.6 1267.44 11227.3 1187.94 11217.6 1145.3L11155.5 897.141C11147.8 871.938 11136.1 823.469 11136.1 817.656 11136.1 775 11171 755.609 11202 755.609 11237 755.609 11268 780.813 11277.7 798.266 11287.4 815.719 11302.9 877.75 11312.6 918.469 11322.3 955.297 11343.6 1044.48 11355.2 1092.95 11366.8 1135.59 11378.5 1178.25 11388.2 1222.84 11409.5 1302.33 11413.4 1317.84 11469.6 1397.33 11523.9 1474.88 11615 1575.69 11760.4 1575.69 11872.8 1575.69 11874.8 1476.81 11874.8 1439.97 11874.8 1391.5 11869 1366.3 11841.8 1257.73L11760.4 932.031"/>
<path transform="matrix(.00359712,0,0,-.00359712,0,22)" d="M12987.7 462.875C12979.9 433.781 12979.9 424.094 12979.9 422.156 12979.9 379.5 13014.8 360.125 13045.8 360.125 13115.6 360.125 13131.2 418.281 13144.7 480.313 13171.9 581.125 13226.2 802.141 13245.5 875.813 13263 846.734 13325 755.609 13458.8 755.609 13707 755.609 13970.6 1019.28 13970.6 1302.33 13970.6 1507.83 13833 1629.97 13662.4 1629.97 13472.4 1629.97 13237.8 1463.23 13169.9 1189.88L12987.7 462.875ZM13456.9 809.891C13313.4 809.891 13270.7 953.359 13270.7 978.563 13270.7 982.438 13282.4 1025.09 13288.2 1048.36 13346.3 1286.81 13358 1331.41 13414.2 1416.7 13484 1519.47 13580.9 1575.69 13658.5 1575.69 13738 1575.69 13813.6 1519.47 13813.6 1379.88 13813.6 1290.69 13763.2 1075.5 13703.1 978.563 13613.9 840.922 13517 809.891 13456.9 809.891"/>
<path transform="matrix(.00359712,0,0,-.00359712,0,22)" d="M15507.2 3040.48C15510 3051.56 15515.5 3068.19 15515.5 3082.03 15515.5 3109.73 15496.2 3112.52 15482.3 3112.52 15454.6 3112.52 15451.8 3106.97 15440.8 3057.11L14980.9 1226.02C14770.4 1250.94 14665.1 1353.44 14665.1 1536.28 14665.1 1591.67 14665.1 1663.7 14814.7 2051.53 14825.8 2084.77 14845.2 2131.86 14845.2 2187.27 14845.2 2311.92 14756.5 2414.42 14618 2414.42 14354.8 2414.42 14252.3 2012.75 14252.3 1987.81 14252.3 1960.11 14280 1960.11 14285.6 1960.11 14313.3 1960.11 14316 1965.66 14329.9 2009.97 14404.7 2273.14 14515.5 2353.48 14609.7 2353.48 14631.8 2353.48 14678.9 2353.48 14678.9 2264.83 14678.9 2192.81 14651.3 2123.55 14615.2 2026.59 14482.3 1677.55 14482.3 1605.53 14482.3 1558.44 14482.3 1295.27 14698.3 1181.69 14964.3 1165.06 14942.1 1065.34 14942.1 1059.8 14903.3 912.984 14895 882.516 14839.6 658.125 14839.6 649.813 14839.6 647.047 14839.6 622.109 14872.9 622.109 14878.4 622.109 14892.3 622.109 14897.8 633.188 14906.1 638.734 14922.7 707.984 14931 746.766L15036.3 1159.53C15138.8 1159.53 15382.6 1159.53 15643 1455.94 15756.5 1583.36 15814.7 1705.25 15845.2 1788.36 15870.1 1857.61 15931.1 2098.63 15931.1 2220.52 15931.1 2375.64 15856.3 2414.42 15809.2 2414.42 15739.9 2414.42 15670.7 2342.39 15670.7 2281.45 15670.7 2245.44 15687.3 2228.83 15712.2 2206.66 15742.7 2176.19 15812 2104.16 15812 1971.19 15812 1793.91 15667.9 1566.75 15570.9 1467.02 15327.2 1220.47 15149.9 1220.47 15050.2 1220.47L15507.2 3040.48"/>
<path transform="matrix(.00359712,0,0,-.00359712,0,22)" stroke-width="110.783" stroke-linecap="butt" stroke-miterlimit="10" stroke-linejoin="miter" fill="none" stroke="#000000" d="M5418.84 4324.71V6004.35H15124.2V3944.66"/>
<path transform="matrix(.00359712,0,0,-.00359712,0,22)" d="M16917.4 932.031C16907.7 893.266 16890.3 827.344 16890.3 817.656 16890.3 775 16925.2 755.609 16956.2 755.609 16991.1 755.609 17022.1 780.813 17031.8 798.266 17041.5 815.719 17057 877.75 17066.7 918.469 17076.4 955.297 17097.7 1044.48 17109.3 1092.95 17121 1135.59 17132.6 1178.25 17142.3 1222.84 17163.6 1306.2 17163.6 1310.08 17202.4 1370.19 17264.4 1465.17 17361.4 1575.69 17512.6 1575.69 17621.1 1575.69 17627 1486.5 17627 1439.97 17627 1323.66 17543.6 1108.45 17512.6 1027.03 17491.3 972.75 17483.5 955.297 17483.5 922.344 17483.5 819.594 17568.8 755.609 17667.7 755.609 17861.5 755.609 17946.8 1023.16 17946.8 1052.23 17946.8 1077.44 17921.6 1077.44 17915.8 1077.44 17888.7 1077.44 17886.8 1065.81 17879 1044.48 17834.4 889.391 17751 809.891 17673.5 809.891 17632.8 809.891 17625 837.031 17625 877.75 17625 922.344 17634.7 947.547 17669.6 1034.78 17692.9 1094.89 17772.4 1300.39 17772.4 1408.95 17772.4 1439.97 17772.4 1521.41 17700.6 1577.63 17667.7 1602.83 17611.5 1629.97 17520.3 1629.97 17345.8 1629.97 17239.2 1515.58 17177.2 1434.16 17161.7 1598.95 17024 1629.97 16925.2 1629.97 16764.2 1629.97 16655.7 1531.09 16597.5 1453.55 16583.9 1587.31 16469.6 1629.97 16390.1 1629.97 16306.7 1629.97 16262.1 1569.88 16236.9 1525.28 16194.3 1453.55 16167.1 1343.05 16167.1 1333.34 16167.1 1308.14 16194.3 1308.14 16200.1 1308.14 16227.2 1308.14 16229.2 1313.95 16242.7 1366.3 16271.8 1480.69 16308.6 1575.69 16384.3 1575.69 16434.7 1575.69 16448.2 1533.03 16448.2 1480.69 16448.2 1443.86 16430.8 1372.13 16417.2 1319.78 16403.6 1267.44 16384.3 1187.94 16374.6 1145.3L16312.5 897.141C16304.8 871.938 16293.1 823.469 16293.1 817.656 16293.1 775 16328 755.609 16359 755.609 16394 755.609 16425 780.813 16434.7 798.266 16444.4 815.719 16459.9 877.75 16469.6 918.469 16479.3 955.297 16500.6 1044.48 16512.2 1092.95 16523.8 1135.59 16535.5 1178.25 16545.2 1222.84 16566.5 1302.33 16570.4 1317.84 16626.6 1397.33 16680.9 1474.88 16772 1575.69 16917.4 1575.69 17029.8 1575.69 17031.8 1476.81 17031.8 1439.97 17031.8 1391.5 17026 1366.3 16998.8 1257.73L16917.4 932.031"/>
<path transform="matrix(.00359712,0,0,-.00359712,0,22)" d="M18144.7 462.875C18136.9 433.781 18136.9 424.094 18136.9 422.156 18136.9 379.5 18171.8 360.125 18202.8 360.125 18272.6 360.125 18288.2 418.281 18301.7 480.313 18328.9 581.125 18383.2 802.141 18402.5 875.813 18420 846.734 18482 755.609 18615.8 755.609 18864 755.609 19127.6 1019.28 19127.6 1302.33 19127.6 1507.83 18990 1629.97 18819.4 1629.97 18629.4 1629.97 18394.8 1463.23 18326.9 1189.88L18144.7 462.875ZM18613.9 809.891C18470.4 809.891 18427.7 953.359 18427.7 978.563 18427.7 982.438 18439.4 1025.09 18445.2 1048.36 18503.3 1286.81 18515 1331.41 18571.2 1416.7 18641 1519.47 18737.9 1575.69 18815.5 1575.69 18895 1575.69 18970.6 1519.47 18970.6 1379.88 18970.6 1290.69 18920.2 1075.5 18860.1 978.563 18770.9 840.922 18674 809.891 18613.9 809.891"/>
</svg>
