<svg xmlns="http://www.w3.org/2000/svg" xmlns:xlink="http://www.w3.org/1999/xlink" version="1.1" width="132pt" height="27pt" viewBox="0 0 132 27">
<path transform="matrix(.00359712,0,0,-.00359712,0,27)" d="M845.734 4242.38C845.734 4297.77 806.953 4342.09 743.234 4342.09 668.438 4342.09 593.641 4270.06 593.641 4195.28 593.641 4142.64 632.422 4095.55 698.906 4095.55 762.625 4095.55 845.734 4159.27 845.734 4242.38ZM635.203 3200.78C668.438 3281.11 668.438 3286.66 696.141 3361.45 718.313 3416.84 732.156 3455.64 732.156 3508.27 732.156 3632.92 643.516 3735.42 505 3735.42 244.609 3735.42 139.328 3333.75 139.328 3308.81 139.328 3281.11 167.031 3281.11 172.578 3281.11 200.281 3281.11 203.047 3286.66 216.906 3330.97 291.703 3591.38 402.5 3674.48 496.688 3674.48 518.844 3674.48 565.938 3674.48 565.938 3585.83 565.938 3527.66 546.547 3469.48 535.469 3441.78 513.313 3369.77 388.656 3048.42 344.328 2929.3 316.625 2857.28 280.609 2765.86 280.609 2707.69 280.609 2577.48 374.797 2480.53 507.766 2480.53 768.172 2480.53 870.672 2882.2 870.672 2907.14 870.672 2934.84 845.734 2934.84 837.422 2934.84 809.719 2934.84 809.719 2926.53 795.875 2884.97 746 2710.45 654.594 2541.47 513.313 2541.47 466.219 2541.47 446.828 2569.17 446.828 2632.89 446.828 2702.14 463.453 2740.92 527.156 2909.91L635.203 3200.78"/>
<path transform="matrix(.00359712,0,0,-.00359712,0,27)" d="M2333.38 3164.77C2333.38 3599.69 2075.75 3735.42 1870.77 3735.42 1491.25 3735.42 1125.58 3339.28 1125.58 2948.69 1125.58 2691.06 1291.78 2480.53 1574.34 2480.53 1748.88 2480.53 1948.33 2544.25 2158.86 2713.22 2194.88 2566.41 2286.28 2480.53 2410.94 2480.53 2557.77 2480.53 2643.64 2632.89 2643.64 2677.22 2643.64 2696.61 2627.02 2704.91 2610.39 2704.91 2591 2704.91 2582.7 2696.61 2574.39 2677.22 2524.52 2541.47 2424.8 2541.47 2419.25 2541.47 2333.38 2541.47 2333.38 2757.55 2333.38 2824.03 2333.38 2882.2 2333.38 2887.75 2361.08 2920.98 2621.48 3247.88 2679.66 3569.22 2679.66 3571.98 2679.66 3577.52 2676.89 3599.69 2646.41 3599.69 2618.7 3599.69 2618.7 3591.38 2604.86 3541.52 2555 3366.98 2463.58 3156.45 2333.38 2993.02V3164.77ZM2147.78 2785.25C1904 2571.94 1690.7 2541.47 1579.89 2541.47 1413.67 2541.47 1330.58 2666.13 1330.58 2843.42 1330.58 2979.16 1402.59 3278.34 1491.25 3419.63 1621.44 3621.84 1771.03 3674.48 1867.98 3674.48 2142.23 3674.48 2142.23 3311.58 2142.23 3095.52 2142.23 2993.02 2142.23 2832.34 2147.78 2785.25"/>
<path transform="matrix(.00359712,0,0,-.00359712,0,27)" d="M16782.8 4462.38C16782.8 4515 16744 4562.09 16677.5 4562.09 16613.8 4562.09 16530.7 4498.38 16530.7 4415.28 16530.7 4359.88 16569.5 4315.55 16633.2 4315.55 16708 4315.55 16782.8 4387.58 16782.8 4462.38ZM16226 2592.48C16173.3 2381.95 16040.4 2224.06 15885.2 2224.06 15868.6 2224.06 15827 2224.06 15777.2 2248.98 15860.3 2268.38 15901.8 2340.41 15901.8 2395.81 15901.8 2440.13 15871.4 2492.77 15796.6 2492.77 15727.3 2492.77 15647 2434.59 15647 2334.86 15647 2224.06 15757.8 2163.11 15890.8 2163.11 16084.7 2163.11 16342.3 2309.94 16411.6 2584.19L16666.4 3598.06C16680.3 3653.47 16680.3 3692.25 16680.3 3700.56 16680.3 3858.47 16563.9 3955.42 16425.4 3955.42 16142.8 3955.42 15985 3553.75 15985 3528.81 15985 3501.11 16012.7 3501.11 16018.2 3501.11 16043.1 3501.11 16045.9 3503.88 16068.1 3556.52 16137.3 3725.5 16264.7 3894.48 16417.1 3894.48 16455.9 3894.48 16505.8 3883.39 16505.8 3767.05 16505.8 3703.33 16497.4 3672.86 16486.4 3625.77L16226 2592.48"/>
<path transform="matrix(.00359712,0,0,-.00359712,0,27)" d="M18571.9 4307.23C18571.9 4515 18419.5 4686.75 18195.1 4686.75 18034.4 4686.75 17956.9 4642.42 17859.9 4570.41 17707.6 4459.59 17555.2 4190.89 17502.6 3980.36L17062.1 2221.28C17059.3 2210.2 17073.2 2193.58 17095.3 2193.58 17117.5 2193.58 17125.8 2199.13 17128.6 2207.44L17322.5 2972C17375.1 2805.8 17497 2703.3 17699.3 2703.3 17901.5 2703.3 18109.2 2800.25 18233.9 2922.14 18366.9 3049.58 18455.5 3226.86 18455.5 3431.86 18455.5 3631.31 18353 3775.36 18253.3 3844.61 18414 3936.03 18571.9 4107.78 18571.9 4307.23ZM18073.2 3847.39C18037.2 3833.53 18006.7 3828 17940.3 3828 17901.5 3828 17846.1 3825.22 17818.4 3839.08 17823.9 3866.78 17923.6 3861.23 17954.1 3861.23 18012.3 3861.23 18037.2 3861.23 18073.2 3847.39ZM18416.7 4370.95C18416.7 4177.03 18311.5 3977.58 18167.4 3891.7 18092.6 3919.41 18037.2 3924.95 17954.1 3924.95 17895.9 3924.95 17740.8 3927.72 17740.8 3836.31 17738 3758.73 17882.1 3767.05 17931.9 3767.05 18034.4 3767.05 18076 3769.83 18159.1 3803.06 18264.4 3703.33 18278.2 3617.45 18281 3490.03 18286.5 3329.36 18220 3121.59 18142.5 3013.56 18034.4 2863.97 17848.8 2764.25 17690.9 2764.25 17480.4 2764.25 17375.1 2924.91 17375.1 3121.59 17375.1 3149.3 17375.1 3190.84 17389 3243.48L17566.3 3944.34C17627.2 4182.58 17826.7 4623.03 18159.1 4623.03 18319.8 4623.03 18416.7 4537.16 18416.7 4370.95"/>
<path transform="matrix(.00359712,0,0,-.00359712,0,27)" stroke-width="110.783" stroke-linecap="butt" stroke-miterlimit="10" stroke-linejoin="miter" fill="none" stroke="#000000" d="M3774.13 3423.85H14703.9"/>
<path transform="matrix(.00359712,0,0,-.00359712,0,27)" d="M10263.5 3423.85 8429.55 4183.44V2664.26"/>
<path transform="matrix(.00359712,0,0,-.00359712,0,27)" d="M8666.66 4603.03C8644.5 4508.84 8638.95 4489.45 8517.06 4489.45 8483.83 4489.45 8453.36 4489.45 8453.36 4436.83 8453.36 4414.67 8467.2 4403.58 8489.36 4403.58 8564.16 4403.58 8644.5 4411.89 8722.06 4411.89 8813.48 4411.89 8907.67 4403.58 8996.31 4403.58 9010.16 4403.58 9046.17 4403.58 9046.17 4458.98 9046.17 4489.45 9018.47 4489.45 8979.69 4489.45 8841.19 4489.45 8841.19 4508.84 8841.19 4533.78 8841.19 4567.03 8957.53 5018.56 8976.92 5087.81 9012.94 5007.48 9090.5 4910.53 9231.78 4910.53 9553.13 4910.53 9899.39 5314.97 9899.39 5722.19 9899.39 5982.59 9741.48 6165.42 9530.95 6165.42 9392.45 6165.42 9259.48 6065.7 9168.06 5957.66 9140.36 6107.25 9021.25 6165.42 8918.75 6165.42 8791.31 6165.42 8738.69 6057.39 8713.75 6007.52 8663.89 5913.33 8627.88 5747.13 8627.88 5738.81 8627.88 5711.11 8655.58 5711.11 8661.13 5711.11 8688.81 5711.11 8691.59 5713.88 8708.22 5774.83 8755.3 5971.52 8810.7 6104.48 8910.44 6104.48 8957.53 6104.48 8996.31 6082.31 8996.31 5977.05 8996.31 5913.33 8988 5882.86 8976.92 5835.77L8666.66 4603.03ZM9154.22 5805.3C9173.61 5880.09 9248.39 5957.66 9298.27 5999.22 9395.22 6085.09 9475.55 6104.48 9522.64 6104.48 9633.45 6104.48 9699.94 6007.52 9699.94 5844.08 9699.94 5680.64 9608.52 5362.06 9558.66 5256.8 9464.47 5062.89 9331.5 4971.47 9229 4971.47 9046.17 4971.47 9010.16 5201.39 9010.16 5218.02 9010.16 5223.56 9010.16 5229.09 9018.47 5262.34L9154.22 5805.3"/>
<path transform="matrix(.00359712,0,0,-.00359712,0,27)" d="M23213.1 4376.84C23254.7 4376.84 23307.3 4376.84 23307.3 4432.25 23307.3 4487.66 23254.7 4487.66 23215.9 4487.66H21556.5C21517.8 4487.66 21465.1 4487.66 21465.1 4432.25 21465.1 4376.84 21517.8 4376.84 21559.3 4376.84H23213.1ZM23215.9 3839.44C23254.7 3839.44 23307.3 3839.44 23307.3 3894.84 23307.3 3950.25 23254.7 3950.25 23213.1 3950.25H21559.3C21517.8 3950.25 21465.1 3950.25 21465.1 3894.84 21465.1 3839.44 21517.8 3839.44 21556.5 3839.44H23215.9"/>
<path transform="matrix(.00359712,0,0,-.00359712,0,27)" d="M26172.1 868.828C26172.1 879.906 26166.6 885.453 26161 893.766 26058.5 996.25 25873 1181.86 25687.3 1481.05 25241.3 2195.75 25039.1 3096.06 25039.1 4162.58 25039.1 4907.77 25138.8 5869.02 25595.9 6694.53 25814.8 7087.91 26041.9 7315.06 26163.8 7436.94 26172.1 7445.25 26172.1 7450.8 26172.1 7459.11 26172.1 7486.81 26152.7 7486.81 26114 7486.81 26075.2 7486.81 26069.6 7486.81 26028.1 7445.25 25100.1 6600.34 24809.2 5331.59 24809.2 4165.36 24809.2 3076.67 25058.5 1979.67 25762.1 1151.39 25817.5 1087.67 25922.8 974.094 26036.4 874.375 26069.6 841.125 26075.2 841.125 26114 841.125 26152.7 841.125 26172.1 841.125 26172.1 868.828"/>
<path transform="matrix(.00359712,0,0,-.00359712,0,27)" d="M27610.7 7075.38C27610.7 7130.77 27572 7175.09 27508.2 7175.09 27433.4 7175.09 27358.6 7103.06 27358.6 7028.28 27358.6 6975.64 27397.4 6928.55 27463.9 6928.55 27527.6 6928.55 27610.7 6992.27 27610.7 7075.38ZM27400.2 6033.78C27433.4 6114.11 27433.4 6119.66 27461.1 6194.45 27483.3 6249.84 27497.2 6288.64 27497.2 6341.27 27497.2 6465.92 27408.5 6568.42 27270 6568.42 27009.6 6568.42 26904.3 6166.75 26904.3 6141.81 26904.3 6114.11 26932 6114.11 26937.6 6114.11 26965.3 6114.11 26968 6119.66 26981.9 6163.97 27056.7 6424.38 27167.5 6507.48 27261.7 6507.48 27283.8 6507.48 27330.9 6507.48 27330.9 6418.83 27330.9 6360.66 27311.5 6302.48 27300.5 6274.78 27278.3 6202.77 27153.7 5881.42 27109.3 5762.3 27081.6 5690.28 27045.6 5598.86 27045.6 5540.69 27045.6 5410.48 27139.8 5313.53 27272.8 5313.53 27533.2 5313.53 27635.7 5715.2 27635.7 5740.14 27635.7 5767.84 27610.7 5767.84 27602.4 5767.84 27574.7 5767.84 27574.7 5759.53 27560.9 5717.97 27511 5543.45 27419.6 5374.47 27278.3 5374.47 27231.2 5374.47 27211.8 5402.17 27211.8 5465.89 27211.8 5535.14 27228.5 5573.92 27292.2 5742.91L27400.2 6033.78"/>
<path transform="matrix(.00359712,0,0,-.00359712,0,27)" stroke-width="110.783" stroke-linecap="butt" stroke-miterlimit="10" stroke-linejoin="miter" fill="none" stroke="#000000" d="M26604.3 4163.05H27997.9"/>
<path transform="matrix(.00359712,0,0,-.00359712,0,27)" d="M27825.1 3177.38C27839 3213.39 27839 3224.47 27839 3227.23 27839 3257.7 27814 3282.64 27783.6 3282.64 27764.2 3282.64 27744.8 3274.33 27736.5 3257.7L26775.2 617.719C26761.4 581.703 26761.4 570.625 26761.4 567.859 26761.4 537.391 26786.3 512.453 26816.8 512.453 26852.8 512.453 26861.1 531.844 26877.7 578.938L27825.1 3177.38"/>
<path transform="matrix(.00359712,0,0,-.00359712,0,27)" d="M26728.7 1233.03C26706.5 1138.84 26701 1119.45 26579.1 1119.45 26545.8 1119.45 26515.4 1119.45 26515.4 1066.83 26515.4 1044.67 26529.2 1033.58 26551.4 1033.58 26626.2 1033.58 26706.5 1041.89 26784.1 1041.89 26875.5 1041.89 26969.7 1033.58 27058.3 1033.58 27072.2 1033.58 27108.2 1033.58 27108.2 1088.98 27108.2 1119.45 27080.5 1119.45 27041.7 1119.45 26903.2 1119.45 26903.2 1138.84 26903.2 1163.78 26903.2 1197.03 27019.5 1648.56 27038.9 1717.81 27074.9 1637.48 27152.5 1540.53 27293.8 1540.53 27615.1 1540.53 27961.4 1944.97 27961.4 2352.19 27961.4 2612.59 27803.5 2795.42 27593 2795.42 27454.5 2795.42 27321.5 2695.7 27230.1 2587.66 27202.4 2737.25 27083.3 2795.42 26980.8 2795.42 26853.3 2795.42 26800.7 2687.39 26775.8 2637.52 26725.9 2543.33 26689.9 2377.13 26689.9 2368.81 26689.9 2341.11 26717.6 2341.11 26723.1 2341.11 26750.8 2341.11 26753.6 2343.88 26770.2 2404.83 26817.3 2601.52 26872.7 2734.48 26972.4 2734.48 27019.5 2734.48 27058.3 2712.31 27058.3 2607.05 27058.3 2543.33 27050 2512.86 27038.9 2465.77L26728.7 1233.03ZM27216.2 2435.3C27235.6 2510.09 27310.4 2587.66 27360.3 2629.22 27457.2 2715.09 27537.5 2734.48 27584.6 2734.48 27695.5 2734.48 27761.9 2637.52 27761.9 2474.08 27761.9 2310.64 27670.5 1992.06 27620.7 1886.8 27526.5 1692.89 27393.5 1601.47 27291 1601.47 27108.2 1601.47 27072.2 1831.39 27072.2 1848.02 27072.2 1853.56 27072.2 1859.09 27080.5 1892.34L27216.2 2435.3"/>
<path transform="matrix(.00359712,0,0,-.00359712,0,27)" d="M29789.9 4162.58C29789.9 5251.27 29540.6 6348.27 28836.9 7176.55 28781.5 7240.27 28676.3 7353.84 28562.7 7453.56 28529.5 7486.81 28523.9 7486.81 28485.1 7486.81 28451.9 7486.81 28427 7486.81 28427 7459.11 28427 7448.03 28438 7436.94 28443.6 7431.41 28540.5 7331.67 28726.1 7146.08 28911.7 6846.89 29357.7 6132.19 29560 5231.88 29560 4165.36 29560 3420.17 29460.2 2458.92 29003.2 1633.41 28784.3 1240.03 28554.4 1010.11 28438 893.766 28432.5 885.453 28427 877.141 28427 868.828 28427 841.125 28451.9 841.125 28485.1 841.125 28523.9 841.125 28529.5 841.125 28571 882.672 29499 1727.59 29789.9 2996.33 29789.9 4162.58"/>
<path transform="matrix(.00359712,0,0,-.00359712,0,27)" d="M31596.2 1471.3C31596.2 1641.91 31448.9 1740.78 31278.3 1740.78 31012.7 1740.78 30816.8 1438.34 30768.4 1242.53L30464 21.1563C30460.1 7.57813 30479.5-2.10938 30491.1-2.10938 30508.6-2.10938 30524.1-.171875 30528 11.4688L30657.9 529.094C30698.6 439.922 30791.6 356.547 30948.7 356.547 31220.1 356.547 31526.4 552.359 31526.4 848.984 31526.4 963.359 31474.1 1079.69 31375.2 1143.67 31470.2 1203.77 31596.2 1314.27 31596.2 1471.3ZM31212.3 1145.61C31183.3 1139.78 31169.7 1132.03 31113.5 1132.03 31082.4 1132.03 31035.9 1133.97 31022.3 1141.72 31041.7 1153.36 31096 1155.3 31113.5 1155.3 31142.5 1155.3 31185.2 1153.36 31212.3 1145.61ZM31468.3 1506.2C31468.3 1403.45 31417.8 1252.23 31297.6 1184.38 31260.8 1196.02 31224 1209.58 31115.4 1209.58 31047.5 1209.58 30950.6 1205.7 30950.6 1135.91 30950.6 1087.44 31010.7 1079.69 31109.6 1079.69 31175.5 1079.69 31233.7 1089.38 31293.8 1106.83 31351.9 1066.11 31382.9 986.625 31382.9 901.328 31382.9 620.219 31191 410.828 30954.5 410.828 30805.2 410.828 30698.6 501.953 30698.6 655.109 30698.6 674.5 30700.5 693.891 30704.4 711.328L30832.3 1227.03C30878.9 1411.2 31049.5 1686.5 31274.4 1686.5 31388.8 1686.5 31468.3 1624.47 31468.3 1506.2"/>
<path transform="matrix(.00359712,0,0,-.00359712,0,27)" d="M32782.5 647.359C32960.8 831.531 33032.6 1089.38 33032.6 1110.7 33032.6 1135.91 33009.3 1135.91 32999.6 1135.91 32972.5 1135.91 32972.5 1130.09 32958.9 1087.44 32924 959.484 32860 841.234 32778.6 736.531 32776.7 765.625 32772.8 895.516 32768.9 912.953 32739.8 1104.89 32594.4 1228.97 32400.5 1228.97 32115.6 1228.97 31842.2 963.359 31842.2 691.953 31842.2 513.594 31972.1 354.609 32197 354.609 32375.3 354.609 32536.3 436.031 32644.8 519.406 32689.4 377.875 32788.3 354.609 32846.5 354.609 32958.9 354.609 33028.7 449.609 33028.7 490.328 33028.7 513.594 33005.4 513.594 32995.7 513.594 32970.5 513.594 32966.6 505.828 32962.8 494.203 32935.6 420.531 32875.5 408.891 32852.3 408.891 32825.1 408.891 32792.2 408.891 32782.5 647.359ZM32631.3 581.438C32441.3 426.344 32276.5 408.891 32202.8 408.891 32074.8 408.891 32003.1 494.203 32003.1 624.094 32003.1 680.313 32030.3 891.641 32131.1 1025.41 32220.3 1141.72 32330.8 1174.69 32398.6 1174.69 32553.7 1174.69 32598.3 1025.41 32613.8 905.203 32625.4 821.844 32621.6 684.188 32631.3 581.438"/>
<path transform="matrix(.00359712,0,0,-.00359712,0,27)" d="M34495.3 4681.58C34149.1 4598.47 33880.3 4238.34 33880.3 3903.16 33880.3 3637.22 34057.6 3437.75 34318 3437.75 34642.2 3437.75 34872.1 3872.67 34872.1 4254.97 34872.1 4507.05 34761.3 4645.56 34667.1 4770.22 34567.4 4894.88 34403.9 5102.64 34403.9 5224.53 34403.9 5285.47 34459.3 5351.95 34556.3 5351.95 34639.4 5351.95 34694.8 5315.94 34753 5277.16 34808.4 5243.92 34863.8 5207.91 34905.3 5207.91 34974.6 5207.91 35016.1 5274.39 35016.1 5318.72 35016.1 5379.66 34971.8 5387.97 34872.1 5410.13 34728 5440.61 34689.3 5440.61 34644.9 5440.61 34428.8 5440.61 34329.1 5321.48 34329.1 5155.28 34329.1 5005.69 34409.5 4850.55 34495.3 4681.58ZM34528.6 4620.63C34597.8 4493.2 34680.9 4343.61 34680.9 4144.16 34680.9 3961.33 34575.7 3498.7 34318 3498.7 34165.7 3498.7 34052.1 3615.05 34052.1 3825.58 34052.1 4000.11 34154.6 4520.91 34528.6 4620.63"/>
<path transform="matrix(.00359712,0,0,-.00359712,0,27)" d="M35623.1 4266.69C35623.1 4297.7 35599.9 4340.36 35545.6 4340.36 35493.3 4340.36 35437 4289.95 35437 4233.73 35437 4200.77 35462.2 4160.06 35514.6 4160.06 35570.8 4160.06 35623.1 4214.34 35623.1 4266.69ZM35227.6 3281.83C35219.9 3256.63 35210.2 3233.36 35210.2 3200.41 35210.2 3109.28 35287.8 3035.61 35394.4 3035.61 35588.3 3035.61 35673.5 3303.16 35673.5 3332.23 35673.5 3357.44 35648.3 3357.44 35642.5 3357.44 35615.4 3357.44 35613.5 3345.81 35605.7 3324.48 35561.1 3169.39 35475.8 3089.89 35400.2 3089.89 35361.4 3089.89 35351.7 3115.09 35351.7 3157.75 35351.7 3202.34 35365.3 3239.17 35382.7 3281.83 35402.1 3334.17 35423.5 3386.52 35444.8 3436.92 35462.2 3483.45 35532 3659.88 35539.8 3683.14 35545.6 3702.53 35551.4 3725.8 35551.4 3745.17 35551.4 3836.3 35473.9 3909.97 35367.2 3909.97 35175.3 3909.97 35086.1 3646.3 35086.1 3613.34 35086.1 3588.14 35113.3 3588.14 35119.1 3588.14 35146.2 3588.14 35148.2 3597.84 35154 3619.16 35204.4 3785.89 35289.7 3855.69 35361.4 3855.69 35392.4 3855.69 35409.9 3840.17 35409.9 3787.83 35409.9 3743.23 35398.3 3714.16 35349.8 3593.95L35227.6 3281.83"/>
<path transform="matrix(.00359712,0,0,-.00359712,0,27)" d="M36629.1 4266.69C36629.1 4299.64 36603.9 4340.36 36551.5 4340.36 36495.3 4340.36 36443 4286.08 36443 4233.73 36443 4202.7 36466.2 4160.06 36520.5 4160.06 36572.9 4160.06 36629.1 4210.47 36629.1 4266.69ZM36218.1 2960C36185.1 2826.23 36082.4 2713.78 35968 2713.78 35942.8 2713.78 35919.5 2717.67 35898.2 2725.42 35948.6 2748.69 35964.1 2795.22 35964.1 2824.3 35964.1 2870.83 35927.3 2896.03 35888.5 2896.03 35828.4 2896.03 35778 2843.69 35778 2781.64 35778 2707.97 35853.6 2659.5 35969.9 2659.5 36086.3 2659.5 36313.1 2729.3 36373.2 2965.81L36547.7 3659.88C36553.5 3681.2 36557.4 3698.66 36557.4 3727.73 36557.4 3834.36 36466.2 3909.97 36349.9 3909.97 36134.7 3909.97 36010.6 3640.48 36010.6 3613.34 36010.6 3588.14 36037.8 3588.14 36043.6 3588.14 36066.9 3588.14 36068.8 3593.95 36082.4 3623.05 36130.8 3735.48 36231.7 3855.69 36344.1 3855.69 36392.6 3855.69 36410 3822.72 36410 3760.69 36410 3739.36 36406.1 3712.22 36404.2 3702.53L36218.1 2960"/>
</svg>
